<?xml version="1.0" encoding="utf-8"?>
<!-- Generator: Adobe Illustrator 23.1.0, SVG Export Plug-In . SVG Version: 6.00 Build 0)  -->
<svg version="1.1" id="Layer_1" xmlns="http://www.w3.org/2000/svg" xmlns:xlink="http://www.w3.org/1999/xlink" x="0px" y="0px"
	 viewBox="0 0 1050 700" style="enable-background:new 0 0 1050 700;" xml:space="preserve">
<style type="text/css">
	.st0{fill:#FFFFFF;}
	.st1{fill:#006233;}
	.st2{fill:#D21034;}
</style>
<path class="st0" d="M0,0h1050v700H0V0z"/>
<path class="st1" d="M0,0h525v700H0V0z"/>
<path class="st2" d="M676.7,262.5c-48.3-83.7-155.4-112.4-239.1-64.1s-112.4,155.4-64.1,239.1s155.4,112.4,239.1,64.1
	c26.6-15.4,48.7-37.5,64.1-64.1c-48.3,60.4-136.4,70.1-196.8,21.8s-70.1-136.4-21.8-196.8s136.4-70.1,196.8-21.8
	C662.9,247.2,670.2,254.5,676.7,262.5 M682.5,350L525,298.7l98,134.2V267.2l-98,134.2L682.5,350z"/>
</svg>
