<svg id="Layer_1" data-name="Layer 1" xmlns="http://www.w3.org/2000/svg" width="411.57mm" height="246.94mm" viewBox="0 0 1166.66 700">
  <defs>
    <style>
      .cls-1 {
        fill: #d21034;
      }

      .cls-2 {
        fill: #00209f;
      }

      .cls-27, .cls-3, .cls-30, .cls-6 {
        fill: #fff;
      }

      .cls-11, .cls-12, .cls-17, .cls-18, .cls-19, .cls-4 {
        fill: #016a16;
      }

      .cls-11, .cls-4 {
        stroke: #016a16;
      }

      .cls-4 {
        stroke-width: 0.43px;
      }

      .cls-13, .cls-14, .cls-15, .cls-16, .cls-21, .cls-22, .cls-24, .cls-28, .cls-5 {
        fill: #f1b517;
      }

      .cls-12, .cls-13, .cls-14, .cls-15, .cls-16, .cls-20, .cls-21, .cls-22, .cls-24, .cls-26, .cls-28, .cls-30, .cls-5, .cls-6, .cls-7, .cls-8 {
        stroke: #000;
      }

      .cls-10, .cls-11, .cls-12, .cls-13, .cls-14, .cls-15, .cls-16, .cls-17, .cls-18, .cls-19, .cls-20, .cls-21, .cls-22, .cls-23, .cls-24, .cls-25, .cls-26, .cls-27, .cls-28, .cls-29, .cls-5, .cls-6, .cls-7, .cls-8, .cls-9 {
        stroke-miterlimit: 8;
      }

      .cls-10, .cls-11, .cls-12, .cls-19, .cls-20, .cls-21, .cls-22, .cls-29, .cls-30, .cls-5, .cls-6, .cls-7, .cls-8, .cls-9 {
        stroke-width: 0.43px;
      }

      .cls-23, .cls-25, .cls-7, .cls-9 {
        fill: #0a328c;
      }

      .cls-10, .cls-29, .cls-8 {
        fill: #d20014;
      }

      .cls-23, .cls-25, .cls-9 {
        stroke: #0a328c;
      }

      .cls-10 {
        stroke: #d20014;
      }

      .cls-13 {
        stroke-width: 0.43px;
      }

      .cls-14 {
        stroke-width: 0.44px;
      }

      .cls-15, .cls-18 {
        stroke-width: 0.42px;
      }

      .cls-16 {
        stroke-width: 0.43px;
      }

      .cls-17, .cls-18, .cls-27 {
        stroke: #fff;
      }

      .cls-17, .cls-18, .cls-21 {
        stroke-linecap: round;
      }

      .cls-17 {
        stroke-width: 0.55px;
      }

      .cls-19, .cls-29 {
        stroke: #f1b517;
      }

      .cls-20 {
        fill: #503200;
      }

      .cls-21, .cls-22 {
        fill-rule: evenodd;
      }

      .cls-23, .cls-28 {
        stroke-width: 0.54px;
      }

      .cls-24, .cls-25, .cls-26 {
        stroke-width: 0.44px;
      }

      .cls-26 {
        fill: none;
      }

      .cls-27 {
        stroke-width: 0.45px;
      }
    </style>
  </defs>
  <path class="cls-1" d="M0,0H1166.66V700H0Z" transform="translate(0 0)"/>
  <path class="cls-2" d="M0,0H1166.66V350H0Z" transform="translate(0 0)"/>
  <g>
    <path class="cls-3" d="M472.7,259.48H694v181H472.7Z" transform="translate(0 0)"/>
    <path class="cls-4" d="M627.77,391.63l-45.06,1.31-44.86.51S514.8,402,505.37,403.89s-8.17,5-15.44,6.62c-5.82,1.3-6.49,1.71-9.91,1.93-2.07.14-4.61,1.73-7.1,3.48V440.3H693.75V417.11a43.89,43.89,0,0,0-7-3c-3.25-1.11-5.43-2.31-11.26-3.61-7.26-1.63-6-4.71-15.44-6.62s-32.27-12.26-32.27-12.26Z" transform="translate(0 0)"/>
    <g>
      <g id="a">
        <path class="cls-5" d="M570.57,337.37l3.26-.07,6,25.08-1.27,7.9Z" transform="translate(0 0)"/>
        <path class="cls-6" d="M567.15,320.65,569.37,340l2.39-.15Z" transform="translate(0 0)"/>
        <path class="cls-5" d="M573.35,363.22l-10-26.92,3.74-.23L578.76,369Z" transform="translate(0 0)"/>
        <path class="cls-6" d="M558.64,321l4.14,18.71h3.33Z" transform="translate(0 0)"/>
        <path class="cls-5" d="M564.45,353.79l-5.89-12.66,2.55-.54,10.73,21Z" transform="translate(0 0)"/>
        <path class="cls-6" d="M550.85,326.33l6.52,17.79h3.34Z" transform="translate(0 0)"/>
        <path class="cls-7" d="M565.25,355.69l-26.69-29.13c-8.33,6.6-6.78,18.72-6.78,18.72L562,369Z" transform="translate(0 0)"/>
        <path class="cls-8" d="M580.67,371.73l-19.79-20.06c-8.37.3-1.73,12.79-1.31,14.36l21.1,18Z" transform="translate(0 0)"/>
        <path class="cls-5" d="M579,368.28l-40.93-43.82-1.59,1.12,43.31,48.12ZM535.7,321.65l-.9-1,.09-2.08-8.44-5.38,3.77,8.5,2.87.52.9,1Z" transform="translate(0 0)"/>
        <path class="cls-5" d="M531.39,324.77a19.43,19.43,0,0,1,6.2-5.12l2.33,3.39-5,4.24Z" transform="translate(0 0)"/>
        <path class="cls-9" d="M526.89,332.16l1.37,2.39c.85-.31,9.41-8.06,9.41-8.06l6.14-.19,1.76-1.95c-4.5-4.86-8.75.69-8.75.69Z" transform="translate(0 0)"/>
        <path class="cls-10" d="M531.79,336.19c.33-2.14,4.38-7.5,5-7.68,3,.91,5.86,2.66,8.94-4.29-2.67,3.4-8.09-.06-8.09-.06l-2.36,1.95.07.95-7.12,6.61Z" transform="translate(0 0)"/>
        <g>
          <path class="cls-7" d="M553.59,363.41l-33.53-26.62c-5.74,5.84-1,23.87-1,23.87l32.76,17.75Z" transform="translate(0 0)"/>
          <path class="cls-8" d="M581.39,385l-27.58-22.09c-9.42,1.33-2,15.19-1.45,16.71l29.12,15.8Z" transform="translate(0 0)"/>
          <path class="cls-5" d="M580.29,380.52l-59.62-44.76-1.37,1.38L581.92,386Zm-62.46-47.13-1.07-.87-.29-2.06-9.28-3.88,5.24,7.73,2.93,0,1.07.88Z" transform="translate(0 0)"/>
          <path class="cls-5" d="M514.15,337.19a19.26,19.26,0,0,1,5.18-6.08l2.91,2.94-4.19,5Z" transform="translate(0 0)"/>
          <path class="cls-9" d="M510.82,344.67l.38,2.48c.78-.44,8.3-8.7,8.3-8.7l6-1.11,1.23-1.94c-4.2-4.94-8.67,1.62-8.67,1.62Z" transform="translate(0 0)"/>
          <path class="cls-10" d="M515.6,349.12c-.29-2.3,2.84-9,3.39-9.29,3.61,1.07,6.76,2.69,8.08-4.83-2.09,3.77-8.07.85-8.07.85l-2,2.28.28,1.24-6.09,7.86Z" transform="translate(0 0)"/>
        </g>
        <g>
          <path class="cls-7" d="M551.19,379.7c-.45-.11-43.21-24.37-43.21-24.37-3.11,5.26-.3,12.88,1.07,14.07.08,3.5-1.41,5.38,1.65,12.69.9,4.75,3.1,9.13,6.3,11.73,3.9,15,19.18,16,25.07,3.79Z" transform="translate(0 0)"/>
          <path class="cls-8" d="M579.49,395.71l-29.28-17.17c-9.42,1.33.2,18.8.76,20.33l28.27,10Z" transform="translate(0 0)"/>
          <path class="cls-5" d="M574.57,389.49l-66.15-35.21-1.13,1.57,69.77,38.84Zm-69.34-37.13-1.2-.7-.62-2-9.8-2.43,6.44,6.85,2.89-.42,1.2.71Z" transform="translate(0 0)"/>
          <path class="cls-5" d="M502.21,356.67a18.85,18.85,0,0,1,4.13-6.78l3.35,2.46-3.32,5.6Z" transform="translate(0 0)"/>
          <path class="cls-9" d="M499.57,364.6l1.38,2.72c.72-.54,7-10.68,7-10.68l5.81-1.91,1.1-2.37c-4.67-4.31-8.16,3.13-8.16,3.13Z" transform="translate(0 0)"/>
          <path class="cls-10" d="M505.8,368.46c-.47-2.33,1.13-9.79,1.63-10.14,3.64,1.09,6.68,1.4,7.52-6.11-2.11,3.56-7.76,2.22-7.76,2.22L505.53,357l.35.89-4.8,9.21Z" transform="translate(0 0)"/>
        </g>
      </g>
      <g>
        <path class="cls-5" d="M595.77,337.37l-3.26-.07-6,25.08,1.27,7.9Z" transform="translate(0 0)"/>
        <path class="cls-6" d="M599.19,320.65,597,340l-2.38-.15Z" transform="translate(0 0)"/>
        <path class="cls-5" d="M593,363.22l10-26.92-3.73-.23L587.58,369Z" transform="translate(0 0)"/>
        <path class="cls-6" d="M607.69,321l-4.13,18.71h-3.34Z" transform="translate(0 0)"/>
        <path class="cls-5" d="M601.89,353.79l5.88-12.66-2.54-.54-10.74,21Z" transform="translate(0 0)"/>
        <path class="cls-6" d="M615.48,326.33,609,344.12h-3.33Z" transform="translate(0 0)"/>
        <path class="cls-7" d="M601.09,355.69l26.68-29.13c8.33,6.6,6.79,18.72,6.79,18.72L604.32,369Z" transform="translate(0 0)"/>
        <path class="cls-8" d="M585.66,371.73l19.79-20.06c8.37.3,1.73,12.79,1.31,14.36l-21.1,18Z" transform="translate(0 0)"/>
        <path class="cls-5" d="M587.35,368.28l40.92-43.82,1.6,1.12L586.56,373.7Zm43.29-46.63.89-1-.08-2.08,8.44-5.38-3.77,8.5-2.88.52-.9,1Z" transform="translate(0 0)"/>
        <path class="cls-5" d="M635,324.77a19.66,19.66,0,0,0-6.2-5.12L626.41,323l5,4.24Z" transform="translate(0 0)"/>
        <path class="cls-9" d="M639.44,332.16l-1.37,2.39c-.85-.31-9.4-8.06-9.4-8.06l-6.15-.19-1.76-1.95c4.51-4.86,8.76.69,8.76.69Z" transform="translate(0 0)"/>
        <path class="cls-10" d="M634.54,336.19c-.32-2.14-4.37-7.5-5-7.68-3,.91-5.87,2.66-9-4.29,2.68,3.4,8.1-.06,8.1-.06l2.35,1.95-.06.95,7.12,6.61Z" transform="translate(0 0)"/>
        <g>
          <path class="cls-7" d="M612.75,363.41l33.52-26.62c5.74,5.84,1,23.87,1,23.87l-32.77,17.75Z" transform="translate(0 0)"/>
          <path class="cls-8" d="M585,385l27.57-22.09c9.42,1.33,2,15.19,1.46,16.71l-29.12,15.8Z" transform="translate(0 0)"/>
          <path class="cls-5" d="M586,380.52l59.63-44.76,1.37,1.38L584.42,386Zm62.46-47.13,1.08-.87.28-2.06,9.29-3.88-5.25,7.73-2.92,0-1.08.88Z" transform="translate(0 0)"/>
          <path class="cls-5" d="M652.19,337.19a19.31,19.31,0,0,0-5.19-6.08l-2.9,2.94,4.18,5Z" transform="translate(0 0)"/>
          <path class="cls-9" d="M655.51,344.67l-.37,2.48c-.79-.44-8.31-8.7-8.31-8.7l-6-1.11-1.23-1.94c4.19-4.94,8.66,1.62,8.66,1.62Z" transform="translate(0 0)"/>
          <path class="cls-10" d="M650.74,349.12c.28-2.3-2.85-9-3.4-9.29-3.61,1.07-6.75,2.69-8.08-4.83,2.1,3.77,8.08.85,8.08.85l2,2.28-.28,1.24,6.09,7.86Z" transform="translate(0 0)"/>
        </g>
        <g>
          <path class="cls-7" d="M615.15,379.7c.44-.11,43.2-24.37,43.2-24.37,3.12,5.26.3,12.88-1.06,14.07-.08,3.5,1.4,5.38-1.65,12.69-.9,4.75-3.1,9.13-6.3,11.73-3.9,15-19.19,16-25.08,3.79Z" transform="translate(0 0)"/>
          <path class="cls-8" d="M586.85,395.71l29.28-17.17c9.41,1.33-.2,18.8-.76,20.33l-28.27,10Z" transform="translate(0 0)"/>
          <path class="cls-5" d="M591.77,389.49l66.15-35.21,1.13,1.57-69.78,38.84Zm69.33-37.13,1.2-.7.62-2,9.8-2.43-6.43,6.85-2.9-.42-1.2.71Z" transform="translate(0 0)"/>
          <path class="cls-5" d="M664.13,356.67a19,19,0,0,0-4.14-6.78l-3.35,2.46L660,358Z" transform="translate(0 0)"/>
          <path class="cls-9" d="M666.77,364.6l-1.38,2.72c-.72-.54-7-10.68-7-10.68l-5.82-1.91-1.09-2.37c4.67-4.31,8.16,3.13,8.16,3.13Z" transform="translate(0 0)"/>
          <path class="cls-10" d="M660.53,368.46c.47-2.33-1.12-9.79-1.63-10.14-3.64,1.09-6.68,1.4-7.52-6.11,2.12,3.56,7.77,2.22,7.77,2.22L660.8,357l-.35.89,4.81,9.21Z" transform="translate(0 0)"/>
        </g>
      </g>
    </g>
    <g>
      <path class="cls-11" d="M580.9,295.58l-1.09,21.17h6.77l-1-21,7-1-.78-8.36-17.52.68.09,7.59Z" transform="translate(0 0)"/>
      <g id="b">
        <path class="cls-12" d="M582.9,286.94c-18.11-18.13-32.38-9.29-35.77-6.77,2.24.43,4.26-1,5.3-1.12-.65.82-2,2.87-2,2.87s5.6-2.65,6.23-2.41a9.88,9.88,0,0,0-1.7,2.19c.42.16,3.57-2.47,4.19-2.52a8.3,8.3,0,0,0-1.26,3.57l2.73-1.27c.71.5-.2,1.47.42,1.42,4.54-.37,10.91,4.14,11.79,5.53" transform="translate(0 0)"/>
        <path class="cls-12" d="M578.42,290.26c-1.89-4.33-36.37-11.68-43.31.57,2.72.68,5.31-2.28,5.31-2.28l-.23,2.73,4.6-3.52-1.65,3.64,3.66-3-.12,3,4.48-4.9-.59,2.85,4-1.71-.48,2.39" transform="translate(0 0)"/>
        <path class="cls-12" d="M576.89,290.94C568,285,554.35,289,554.35,289c-8.73,4.89-13.39,4-14.52,13.09.83-.34,3.19-3.19,3.19-3.19l1.77,3.53.59-5,1.42,3.87,2.12-6.37.47,4.33,3.31-4.33,1.53,1.25,1.42-3.3,1.29,2.16s2.25-1.36,3.55-.57l2.47-2.84.59,2.05,2.13-2.51.82,1.82,2.13-1.93-.12,1.36,7.32.12" transform="translate(0 0)"/>
        <path class="cls-12" d="M574.89,292c-6.17-.12-23.87,6.56-28.44,13.55a32.41,32.41,0,0,1,2.94-1.49l.91,2.81,1.1-2.81.23,2.17c.68-1.69,1.45-1.88,2.72-.12l.47-2.62.71,2.51,1.18-2.73s.74,3,1.18,2.85c0,0,2-5.13,2.83-5.36l.24,3.19,1.18-3.19,1.06,2.39.23-3.41,1.18,2.62s.62-2.58,1.54-3.08l1.77,1.6,7.88-5.67" transform="translate(0 0)"/>
        <path class="cls-12" d="M576.07,293.43c-8.22,3.15-15.56,14.41-15,19.19,3.65-4.53,2.86-3.91,4.5,1.31,0,0,.61-4.56,1.23-5.11l1.07,3.38.4-4.42,1.1.05-.28-2.76,1.63,1.24c-.38-1.58-.79-2.11.9-3.47,0,0-2.14.27-.45-3.58l1.57,1.52s-.28-1.69.28-2.34l5.8-2" transform="translate(0 0)"/>
        <path class="cls-12" d="M576.87,294.27l-3.11,5.91,1.59.46-3.58,2.69,3-.31s-4.62,1.69-5.18,6.22l4.7-2.07s-4,4.07-4.54,6.53l2.71-2.38a9.85,9.85,0,0,0-2.23,7.14l2-2.23c-.48,5.22-.32,5.68,2.07,9.67,0,0-.64-6.14.08-6.91l5.25,5.46-2.94-7.76s3.26,4.91,5.25,4.45l-4.14-6.29,4.06,3.3-4.61-6.91,4.29,1.31s-3.1-3.92-2.86-6.38l2.94,3.23s-1.11-3.69-.79-4.76l1.51.3-3-3.37,2-.39-.24-2.23,1.44-.46-.08-2.45M580,296c-5.09,6.91-2.92,17.28-5.49,23" transform="translate(0 0)"/>
      </g>
      <g>
        <path class="cls-12" d="M583.43,286.94c18.12-18.13,32.38-9.29,35.78-6.77-2.25.43-4.26-1-5.3-1.12.65.82,2,2.87,2,2.87s-5.6-2.65-6.22-2.41a9.72,9.72,0,0,1,1.69,2.19c-.41.16-3.56-2.47-4.18-2.52a8.23,8.23,0,0,1,1.25,3.57l-2.73-1.27c-.71.5.2,1.47-.42,1.42-4.53-.37-10.91,4.14-11.79,5.53" transform="translate(0 0)"/>
        <path class="cls-12" d="M587.91,290.26c1.89-4.33,36.38-11.68,43.31.57-2.71.68-5.31-2.28-5.31-2.28l.24,2.73-4.61-3.52,1.66,3.64-3.66-3,.11,3-4.48-4.9.59,2.85-4-1.71.47,2.39" transform="translate(0 0)"/>
        <path class="cls-12" d="M589.45,290.94C598.3,285,612,289,612,289c8.73,4.89,13.38,4,14.51,13.09-.83-.34-3.19-3.19-3.19-3.19l-1.77,3.53-.59-5-1.41,3.87-2.13-6.37-.47,4.33-3.3-4.33-1.54,1.25-1.41-3.3-1.3,2.16s-2.24-1.36-3.54-.57l-2.48-2.84-.59,2.05-2.12-2.51-.83,1.82-2.12-1.93.11,1.36-7.31.12" transform="translate(0 0)"/>
        <path class="cls-12" d="M591.45,292c6.17-.12,23.86,6.56,28.44,13.55a32.59,32.59,0,0,0-2.95-1.49l-.9,2.81L614.93,304l-.23,2.17c-.68-1.69-1.44-1.88-2.71-.12l-.48-2.62L610.8,306l-1.17-2.73s-.75,3-1.18,2.85c0,0-2-5.13-2.84-5.36l-.23,3.19-1.18-3.19-1.07,2.39-.23-3.41-1.18,2.62s-.62-2.58-1.53-3.08l-1.77,1.6-7.89-5.67" transform="translate(0 0)"/>
        <path class="cls-12" d="M590.26,293.43c8.22,3.15,15.57,14.41,15,19.19-3.65-4.53-2.87-3.91-4.5,1.31,0,0-.62-4.56-1.24-5.11l-1.07,3.38-.4-4.42-1.09.05.28-2.76-1.64,1.24c.39-1.58.8-2.11-.89-3.47,0,0,2.14.27.45-3.58l-1.58,1.52s.28-1.69-.28-2.34l-5.8-2" transform="translate(0 0)"/>
        <path class="cls-12" d="M589.47,294.27l3.1,5.91-1.59.46,3.58,2.69-3-.31s4.61,1.69,5.17,6.22l-4.7-2.07s4,4.07,4.54,6.53l-2.7-2.38a9.86,9.86,0,0,1,2.22,7.14l-2-2.23c.48,5.22.32,5.68-2.07,9.67,0,0,.64-6.14-.08-6.91l-5.25,5.46,3-7.76s-3.26,4.91-5.25,4.45l4.13-6.29-4.06,3.3,4.62-6.91-4.3,1.31s3.11-3.92,2.87-6.38l-2.95,3.23s1.12-3.69.8-4.76l-1.51.3,2.94-3.37-2-.39.24-2.23-1.43-.46.08-2.45m2.55,0c5.09,6.91,2.91,17.28,5.49,23" transform="translate(0 0)"/>
      </g>
      <path class="cls-5" d="M586,391.09s2.78-23.2,2.77-33.19c0-7.86-1.9-25.28-1.9-25.28h-8s-1.21,17.33-1,25.17c.23,10,2.76,33.3,2.76,33.3Z" transform="translate(0 0)"/>
      <path class="cls-5" d="M578.37,333.73h9.24l-1.08-6.22h-6.7Z" transform="translate(0 0)"/>
      <path class="cls-5" d="M579,328.75h8.26l-1.56-6.22h-5.08Z" transform="translate(0 0)"/>
      <path class="cls-5" d="M579.49,323.71h6.89l-1.17-6.22h-4.37Z" transform="translate(0 0)"/>
      <path class="cls-5" d="M585.46,316.75h-4.82l-.49,2.25h5.7Z" transform="translate(0 0)"/>
      <path class="cls-13" d="M586.44,386h-6.35" transform="translate(0 0)"/>
      <path class="cls-14" d="M586.94,381.49h-7.4" transform="translate(0 0)"/>
      <path class="cls-15" d="M587.68,376.88h-8.56" transform="translate(0 0)"/>
      <path class="cls-16" d="M588.13,371.86h-9.27m9.33-5h-9.73" transform="translate(0 0)"/>
      <path class="cls-5" d="M588.57,362.24H578.18m10.41-4.18H577.74m10.78-5H577.67" transform="translate(0 0)"/>
      <path class="cls-15" d="M588.16,348H577.91" transform="translate(0 0)"/>
      <path class="cls-5" d="M587.68,343H578.2" transform="translate(0 0)"/>
      <path class="cls-16" d="M587.36,338.41h-8.71" transform="translate(0 0)"/>
      <path class="cls-9" d="M583.12,280.28c-1.61-.76-5.24-3.06-4.16-4.44l1.66-2.83c2.36-5.32,0-3.26-.29-4.92s9-.34,9.15,3.26c0,1-.68.41-.58,6.1l-1.76,3.4a8.34,8.34,0,0,1-4-.57Z" transform="translate(0 0)"/>
      <path class="cls-5" d="M584.25,294l-2.3-1.93.63-16.58,2.25.66Z" transform="translate(0 0)"/>
      <path class="cls-10" d="M587.23,280.75c1.45-.84,2.39-3.37,1.52-4.86-2.37-3-3.9-1.77-7.88-3.12-.8.84-2.46,2.47-2.11,3.68,5.23,2.47,3.2.37,4.94.68.93.16,1.53,1.27,3.53,3.62Z" transform="translate(0 0)"/>
    </g>
    <g>
      <path id="c" class="cls-17" d="M556.58,376.43c-.62-1.15-2.47-2-4.66-2s-4,.84-4.65,2a1.63,1.63,0,0,1-.23-.84c0-1.56,2.18-2.82,4.88-2.82s4.88,1.26,4.88,2.82A1.72,1.72,0,0,1,556.58,376.43Z" transform="translate(0 0)"/>
      <path class="cls-18" d="M556.17,379.93c0,3-1.9,5.49-4.24,5.49s-4.25-2.46-4.25-5.49v-3h8.49Z" transform="translate(0 0)"/>
      <ellipse class="cls-3" cx="551.92" cy="375.99" rx="4.21" ry="2.1"/>
      <path class="cls-19" d="M551,378.35l-.72-7.69h3.22l-.53,7.69Z" transform="translate(0 0)"/>
      <path class="cls-17" d="M556.59,376.12c-.62,1.15-2.48,2-4.67,2s-4-.84-4.65-2a1.89,1.89,0,0,0-.23.84c0,1.56,2.19,2.82,4.88,2.82s4.88-1.26,4.88-2.82A1.74,1.74,0,0,0,556.59,376.12Z" transform="translate(0 0)"/>
      <g id="d">
        <path class="cls-5" d="M574.08,405.68l-16.47-5.11-7.18-12.26L525,387.06l.88,9.19,21.66,4.15,2.06,3.69L574.49,411Z" transform="translate(0 0)"/>
        <path class="cls-20" d="M556.88,409.1l-26-38.26-1.27,1,25.8,38.42Z" transform="translate(0 0)"/>
        <path class="cls-6" d="M533.28,372.34l-2.77-4.64a1.64,1.64,0,0,0-2.47-.54,1.79,1.79,0,0,0-.56,2.62l2.57,4.33Z" transform="translate(0 0)"/>
        <path class="cls-5" d="M560,385.47l-52.49-5.33-1.28,7.63L558.44,393Z" transform="translate(0 0)"/>
        <path class="cls-5" d="M506.54,378.17l-1.36,10.59h2.21l1.53-9.69Zm8.76,1.72-.59,9.52,1.36.17,1.1-8.46ZM550.86,384l-1.27,8.94,2.55-.08,1-8.86Zm7.82.24-1.82,10.35,2.89.42.83-5.44a2.51,2.51,0,0,0,4.94-.49,2.45,2.45,0,0,0-2.5-2.39,2.29,2.29,0,0,0-2.19,1.6l.54-3.88Zm-18.94,1.68-7.22,8.13.84,1,9.26-6.32ZM523,406.18l7.22-8.13-.84-1-9.26,6.32Zm18.9-2-8.79-6.79-.9.63,6.92,8.77Zm-21.66-15.68,8.9,6.56,1.08-.81-7-8.76Zm9.69-5.41.85,10.67,1.19-.05,2.82-10.39ZM532.79,409l-.85-10.67-1.32-.12L529,409Zm11.81-14.38-11.19,1.19-.17,1.07,11.32,1.48ZM518,398.27l10.92-1.73.24-.85-11.3-1.26Z" transform="translate(0 0)"/>
        <ellipse class="cls-5" cx="531.28" cy="395.79" rx="2.96" ry="2.86"/>
        <path class="cls-21" d="M547,395.79c0,8.38-7,15.18-15.74,15.18s-15.74-6.8-15.74-15.18,7.06-15.18,15.74-15.18S547,387.41,547,395.79Zm-3.14,0a12.6,12.6,0,1,1-12.6-12.15A12.39,12.39,0,0,1,543.88,395.79Z" transform="translate(0 0)"/>
        <path class="cls-5" d="M521.45,388.13,519,386.27m20.09.06,2.1-2.15m2.41,21.3-2.59-2m-19.55,4.35,2.23-2.38m50.78-24.62,2.69,13.73-2.2,1.16L572.59,381Z" transform="translate(0 0)"/>
        <path class="cls-6" d="M573.05,379c-1.25-.53-2.88.36-5.54-3-4.38,4-.25,4.62.41,8.6,1.24.51,2-3.08,5.38-3.45l5.36-.48L577.42,379s-3.44.09-4.37,0Z" transform="translate(0 0)"/>
        <path class="cls-6" d="M574.84,381.72l-.5-4.1c-.54-1.44-2.34-.2-2.34.64l.46,3.78Z" transform="translate(0 0)"/>
        <path class="cls-22" d="M561.78,393.05l.05,3.82c-1.25.42-1.06,1.36-1,2.72l0,11.14c-.44.73-1.81.77-2.46,1.35s-.56,1.7,2.38,2.44l2.28.08c3.47-.76,4.18-1.91,2.44-2.55a7.52,7.52,0,0,1-2.6-1.3l.07-2.66,2.25.09c.61,0,1.76-1.53,1.8-2.77v-5.76c-.08-3.27-2.53-3.64-3.22-3.6l.05-3Zm3.81,6.37c0-.94-1.3-1.77-1.84-1.79s-1.71,1.09-1.75,2V402c.08.86.76,3.76,2.14,4,.65.1,1.49-.93,1.49-1.79l0-4.74Z" transform="translate(0 0)"/>
        <path class="cls-6" d="M546.64,404.61c-1.48-.6-1.47,2.73-1.47,2.73l2.34,0c1,.46,1.85,2,1.19,2.7s-5.08-1-5.38-.08c.8,4.52,6.8,6.27,9,4.29s2.66-7.12-4.24-8.47Zm1.39,1.23-.68,1.49" transform="translate(0 0)"/>
        <path class="cls-5" d="M501.53,406.31l-2.24-9.45m5,8.9-3.45-7.35m9.39,5.42-7.79-4.18M513.57,403l-14.45-6.28" transform="translate(0 0)"/>
        <path class="cls-10" d="M490.5,389.87s-5.26-.08-6.2.29c-.38.15,1.33,1.92,1,2.6-1.31,2.53-10.25,2.18-11,1.63-1.21-.95,8.33-1.76,8.39-2.4s-1.41-2.68-1.18-3.86c.3-1.55,4.17-2.12,4.17-2.12Z" transform="translate(0 0)"/>
        <path class="cls-20" d="M497.54,394.63l-11.9-9.85s-.53-.56-1-.08.16,1,.16,1l12.29,10.14Z" transform="translate(0 0)"/>
        <path class="cls-5" d="M509,404.35c-.21-.2-9.7-8.42-9.7-8.42l-.63-2.4a22.76,22.76,0,0,0-2,1.51,12.34,12.34,0,0,0-1.37,1.91l2.65.12,8.39,7.69Z" transform="translate(0 0)"/>
        <g>
          <ellipse class="cls-5" cx="542.58" cy="415.64" rx="1.73" ry="1.67"/>
          <ellipse class="cls-5" cx="538.16" cy="412.52" rx="1.73" ry="1.67"/>
          <ellipse class="cls-5" cx="532.21" cy="414.56" rx="1.73" ry="1.67"/>
          <ellipse class="cls-5" cx="523.02" cy="416.55" rx="1.73" ry="1.67"/>
          <ellipse class="cls-5" cx="519.14" cy="417" rx="1.73" ry="1.67"/>
          <ellipse class="cls-5" cx="515.31" cy="417" rx="1.73" ry="1.67"/>
          <ellipse class="cls-5" cx="511.42" cy="416.89" rx="1.73" ry="1.67"/>
          <ellipse class="cls-5" cx="513.3" cy="413.94" rx="1.73" ry="1.67"/>
          <ellipse class="cls-5" cx="517.08" cy="414.11" rx="1.73" ry="1.67"/>
          <ellipse class="cls-5" cx="520.67" cy="413.65" rx="1.73" ry="1.67"/>
          <ellipse class="cls-5" cx="518.84" cy="410.75" rx="1.73" ry="1.67"/>
          <ellipse class="cls-5" cx="515.31" cy="410.7" rx="1.73" ry="1.67"/>
        </g>
        <path class="cls-22" d="M551.76,417.82c0-.73-1.79-.42-1.79-1.28s2.73-.26,3.11.59c1.54-1.39,2.21-.38,3.15,0,1.34-2,3-1.92,4.62-.45.94-1,3.29-.7,4.1.45,1.55-1.54,2.93-1.15,4,0,.44-.81,1.07-.63,1.53-.05.82-1.46,2.9-1,3.77-.05.77-.86,1.57-.19,2.6.44.69-.65,1.81-.53,1.81.12s-1.46.43-1.46,1.1,1.07.3,1.07,1.05c0,.6-1.59.82-1.84-.13-.53,1-2.47.63-2.66-.32a1.82,1.82,0,0,1-2.91-.14c-.67.55-1.47.62-1.84.07a2.41,2.41,0,0,1-3.94-.39l-.68,0a2.13,2.13,0,0,1-3.55,0c-2,1.44-3.18,1-4.29.05-1.28,1.55-3.22,1.44-3.67,0-.86.62-2.65.77-2.65,0S551.76,418.47,551.76,417.82Zm3.86.35c0,.34-.45.61-1,.61s-1-.27-1-.61.46-.6,1-.6S555.62,417.84,555.62,418.17Zm4.25-.51c0,.41-.55.73-1.22.73s-1.23-.32-1.23-.73.55-.72,1.23-.72S559.87,417.26,559.87,417.66Zm8.34.46c0,.41-.49.74-1.1.74s-1.11-.33-1.11-.74.49-.73,1.11-.73S568.21,417.72,568.21,418.12Zm-4.44-.19a1.09,1.09,0,1,1-1.08-.93A1,1,0,0,1,563.77,417.93Zm9.47,0a1,1,0,1,1-1-.83A.9.9,0,0,1,573.24,418Zm-2.9.2a.63.63,0,1,1-.62-.54A.58.58,0,0,1,570.34,418.15Zm5.65.22a.74.74,0,0,1-.7.77.78.78,0,1,1,.7-.77Z" transform="translate(0 0)"/>
      </g>
      <g>
        <path class="cls-5" d="M592.25,405.68l16.48-5.11,7.18-12.26,25.41-1.25-.88,9.19-21.65,4.15-2.06,3.69L591.84,411Z" transform="translate(0 0)"/>
        <path class="cls-20" d="M609.46,409.1l26-38.26,1.28,1-25.81,38.42Z" transform="translate(0 0)"/>
        <path class="cls-6" d="M633.05,372.34l2.78-4.64a1.64,1.64,0,0,1,2.47-.54,1.79,1.79,0,0,1,.56,2.62l-2.57,4.33Z" transform="translate(0 0)"/>
        <path class="cls-5" d="M606.37,385.47l52.49-5.33,1.28,7.63L607.9,393Z" transform="translate(0 0)"/>
        <path class="cls-5" d="M659.8,378.17l1.36,10.59h-2.22l-1.53-9.69ZM651,379.89l.6,9.52-1.36.17-1.11-8.46ZM615.47,384l1.28,8.94-2.56-.08-1-8.86Zm-7.82.24,1.82,10.35-2.89.42-.82-5.44a2.49,2.49,0,0,1-2.45,1.92,2.4,2.4,0,1,1,0-4.8,2.31,2.31,0,0,1,2.2,1.6l-.54-3.88Zm19,1.68,7.22,8.13-.85,1-9.26-6.32Zm16.78,20.26-7.22-8.13.84-1,9.27,6.32Zm-18.89-2,8.78-6.79.91.63-6.92,8.77Zm21.66-15.68L637.24,395l-1.08-.81,7-8.76Zm-9.69-5.41-.85,10.67-1.2-.05-2.82-10.39ZM633.54,409l.85-10.67,1.32-.12L637.32,409Zm-11.81-14.38,11.19,1.19.17,1.07-11.31,1.48Zm26.62,3.7-10.92-1.73-.23-.85,11.3-1.26Z" transform="translate(0 0)"/>
        <ellipse class="cls-5" cx="635.05" cy="395.79" rx="2.96" ry="2.86"/>
        <path class="cls-21" d="M619.31,395.79c0,8.38,7.06,15.18,15.74,15.18s15.74-6.8,15.74-15.18-7-15.18-15.74-15.18S619.31,387.41,619.31,395.79Zm3.15,0a12.6,12.6,0,1,0,12.59-12.15A12.38,12.38,0,0,0,622.46,395.79Z" transform="translate(0 0)"/>
        <path class="cls-5" d="M644.88,388.13l2.47-1.86m-20.09.06-2.11-2.15m-2.4,21.3,2.58-2m19.55,4.35-2.22-2.38M591.88,380.8l-2.7,13.73,2.2,1.16,2.37-14.7Z" transform="translate(0 0)"/>
        <path class="cls-6" d="M593.29,379c1.25-.53,2.87.36,5.54-3,4.38,4,.25,4.62-.42,8.6-1.24.51-2-3.08-5.37-3.45l-5.36-.48,1.24-1.69s3.44.09,4.37,0Z" transform="translate(0 0)"/>
        <path class="cls-6" d="M591.5,381.72l.5-4.1c.54-1.44,2.33-.2,2.33.64l-.46,3.78Z" transform="translate(0 0)"/>
        <path class="cls-22" d="M604.55,393.05l0,3.82c1.25.42,1.06,1.36,1,2.72l0,11.14c.45.73,1.82.77,2.46,1.35s.57,1.7-2.38,2.44l-2.27.08c-3.47-.76-4.19-1.91-2.45-2.55a7.48,7.48,0,0,0,2.61-1.3l-.08-2.66-2.25.09c-.61,0-1.76-1.53-1.8-2.77v-5.76c.08-3.27,2.53-3.64,3.22-3.6l0-3Zm-3.8,6.37c0-.94,1.29-1.77,1.83-1.79s1.71,1.09,1.75,2V402c-.08.86-.76,3.76-2.13,4-.65.1-1.49-.93-1.49-1.79l0-4.74Z" transform="translate(0 0)"/>
        <path class="cls-6" d="M619.69,404.61c1.49-.6,1.47,2.73,1.47,2.73l-2.33,0c-1,.46-1.85,2-1.2,2.7s5.08-1,5.39-.08c-.81,4.52-6.81,6.27-9,4.29s-2.66-7.12,4.24-8.47Zm-1.38,1.23.68,1.49" transform="translate(0 0)"/>
        <path class="cls-5" d="M664.8,406.31l2.25-9.45m-5,8.9,3.46-7.35m-9.4,5.42,7.79-4.18M652.76,403l14.45-6.28" transform="translate(0 0)"/>
        <path class="cls-10" d="M675.83,389.87s5.26-.08,6.2.29c.38.15-1.32,1.92-1,2.6,1.31,2.53,10.25,2.18,11,1.63,1.21-.95-8.32-1.76-8.39-2.4s1.41-2.68,1.18-3.86c-.3-1.55-4.17-2.12-4.17-2.12Z" transform="translate(0 0)"/>
        <path class="cls-20" d="M668.79,394.63l11.91-9.85s.52-.56,1-.08-.16,1-.16,1l-12.28,10.14Z" transform="translate(0 0)"/>
        <path class="cls-5" d="M657.33,404.35c.21-.2,9.69-8.42,9.69-8.42l.64-2.4a24.41,24.41,0,0,1,2,1.51A13.1,13.1,0,0,1,671,397l-2.66.12L660,404.76Z" transform="translate(0 0)"/>
        <g>
          <ellipse class="cls-5" cx="623.76" cy="415.64" rx="1.73" ry="1.67"/>
          <ellipse class="cls-5" cx="628.17" cy="412.52" rx="1.73" ry="1.67"/>
          <ellipse class="cls-5" cx="634.12" cy="414.56" rx="1.73" ry="1.67"/>
          <ellipse class="cls-5" cx="643.31" cy="416.55" rx="1.73" ry="1.67"/>
          <ellipse class="cls-5" cx="647.2" cy="417" rx="1.73" ry="1.67"/>
          <ellipse class="cls-5" cx="651.03" cy="417" rx="1.73" ry="1.67"/>
          <ellipse class="cls-5" cx="654.92" cy="416.89" rx="1.73" ry="1.67"/>
          <ellipse class="cls-5" cx="653.03" cy="413.94" rx="1.73" ry="1.67"/>
          <ellipse class="cls-5" cx="649.26" cy="414.11" rx="1.73" ry="1.67"/>
          <ellipse class="cls-5" cx="645.67" cy="413.65" rx="1.73" ry="1.67"/>
          <ellipse class="cls-5" cx="647.49" cy="410.75" rx="1.73" ry="1.67"/>
          <ellipse class="cls-5" cx="651.03" cy="410.7" rx="1.73" ry="1.67"/>
        </g>
        <path class="cls-22" d="M614.57,417.82c0-.73,1.8-.42,1.8-1.28s-2.74-.26-3.12.59c-1.54-1.39-2.2-.38-3.14,0-1.34-2-3-1.92-4.63-.45-.93-1-3.29-.7-4.1.45-1.54-1.54-2.92-1.15-4,0-.43-.81-1.07-.63-1.52-.05-.83-1.46-2.9-1-3.77-.05-.78-.86-1.57-.19-2.6.44-.7-.65-1.82-.53-1.82.12s1.47.43,1.47,1.1-1.07.3-1.07,1.05c0,.6,1.59.82,1.83-.13a1.58,1.58,0,0,0,2.67-.32,1.82,1.82,0,0,0,2.91-.14c.66.55,1.47.62,1.83.07a2.41,2.41,0,0,0,3.94-.39l.69,0a2.12,2.12,0,0,0,3.54,0c2,1.44,3.18,1,4.29.05,1.28,1.55,3.23,1.44,3.67,0,.86.62,2.66.77,2.66,0S614.57,418.47,614.57,417.82Zm-3.86.35c0,.34.46.61,1,.61s1-.27,1-.61-.45-.6-1-.6S610.71,417.84,610.71,418.17Zm-4.25-.51c0,.41.55.73,1.23.73s1.22-.32,1.22-.73-.55-.72-1.22-.72S606.46,417.26,606.46,417.66Zm-8.34.46c0,.41.5.74,1.11.74s1.1-.33,1.1-.74-.49-.73-1.1-.73S598.12,417.72,598.12,418.12Zm4.45-.19a1.09,1.09,0,1,0,1.08-.93A1,1,0,0,0,602.57,417.93Zm-9.48,0a1,1,0,1,0,1-.83A.91.91,0,0,0,593.09,418Zm2.9.2a.63.63,0,1,0,.63-.54A.59.59,0,0,0,596,418.15Zm-5.65.22a.75.75,0,0,0,.71.77.78.78,0,0,0,0-1.55A.75.75,0,0,0,590.34,418.37Z" transform="translate(0 0)"/>
      </g>
      <g>
        <path class="cls-23" d="M583,389.19c-5.86,0-10.62,2.2-10.62,4.9a2.55,2.55,0,0,0,.4,1.34C574,396.89,578.11,398,583,398c4.57,0,8.46-.94,10-2.26a2.68,2.68,0,0,0,.6-1.61c0-2.7-4.76-4.9-10.62-4.9Z" transform="translate(0 0)"/>
        <path class="cls-24" d="M593.66,394.47v16.47c0,1.93-4.78,3.5-10.67,3.5s-10.67-1.57-10.67-3.5V394.47c0,1.93,4.78,3.5,10.67,3.5S593.66,396.4,593.66,394.47Z" transform="translate(0 0)"/>
        <path class="cls-10" d="M572.32,394.47V397l5.18,16,4.14-12.29,4.54,12.75,3.32-12,4.16,8.09V405l-3.86-7.85c-.46.13-.92.23-1.38.32l-2.4,8.89L582.64,398c-.56,0-1.11,0-1.67,0l-3.39,8.46-3.87-10.19c-.88-.5-1.39-1.09-1.39-1.71Z" transform="translate(0 0)"/>
        <path class="cls-25" d="M593.66,407.86v3.08c0,1.93-4.78,3.49-10.67,3.49s-10.67-1.56-10.67-3.5v-3.07c0,1.93,4.78,3.5,10.67,3.5s10.67-1.57,10.67-3.5Z" transform="translate(0 0)"/>
        <path class="cls-24" d="M587.38,411c-.86.13-1.79.23-2.76.28l0,3.07c.92-.05,1.85-.14,2.76-.27ZM576,410.51l0,3.06a20.9,20.9,0,0,0,2.76.57v-3.07a23.34,23.34,0,0,1-2.74-.56Zm-3.7-2.65v3.08c0,.57.43,1.1,1.18,1.58l.06-3c-.79-.49-1.24-1-1.24-1.63Zm21.34.33,0,0a3.3,3.3,0,0,1-1.94,1.68l0,3.06c1.23-.57,2-1.26,2-2Z" transform="translate(0 0)"/>
        <path class="cls-26" d="M593.66,394.57v16.37c0,1.93-4.78,3.5-10.67,3.5s-10.67-1.57-10.67-3.5V394.57" transform="translate(0 0)"/>
        <path class="cls-27" d="M591.25,393.39c0,1.17-3.7,2.12-8.26,2.12s-8.25-.95-8.25-2.12,3.69-2.12,8.25-2.12S591.25,392.22,591.25,393.39Z" transform="translate(0 0)"/>
        <path class="cls-28" d="M580.29,395l.37,2.92c.72.05,1.46.09,2.22.09l.55-3Zm9.58-.7-2.13.57.13,2.75a19.81,19.81,0,0,0,2-.44Zm-12.61-4.45a11.77,11.77,0,0,0-1.68.61l.29,2.2,1.36-.43Zm5.69-.87-.84,0,.46,2.76,1.41,0,.56-2.69q-.79-.06-1.59-.06Zm6.24,1-.29,2.41,1.62.57.17-2.37A13.08,13.08,0,0,0,589.19,389.9Z" transform="translate(0 0)"/>
        <path class="cls-5" d="M574,396.38l.43-3-2.18-1.18.07,3.42Zm19.61-.65.1-3-2.05.62Z" transform="translate(0 0)"/>
      </g>
      <path class="cls-5" d="M615.27,375.91c1.93-.27,4.81,2.39,5,5.68.14,2.61-3.94,2.47-3.94,2.47-.21,1.07-2.47,2.06-4.3,2.14s.49-3.34.49-3.34c-1.11-2.94.34-6.41.34-6.41Z" transform="translate(0 0)"/>
      <path class="cls-5" d="M612.5,382.72l1.87-.06s.14,1,.48,1,.76-.94.76-.94l2.84-.06" transform="translate(0 0)"/>
      <path class="cls-29" d="M616.3,377.85c1.59-1.15.2-3.45-.9-3.48l-2.56.07c-1.2,0-3.25,1.34-3,2.48a1.53,1.53,0,0,0,1.94,1.26c.47-.07,1.46-1.31,1.94-1.33C614.38,376.82,615.79,378.22,616.3,377.85Z" transform="translate(0 0)"/>
      <path class="cls-22" d="M499.9,410.51c-1.44.18-1.71,1.83-1.17,3.36-6.27,1.76-11.87,4.06-17.39,5.61-.23-1.11,2.73-4.3,2.73-4.3.79.37,1.37,2.17,1.37,2.17.2-3.69,3.83-6.14,3.83-6.14-2.16-.28-8.71,2.26-9.49,3.3,0,0,2.53-.28,2.92,0,0,0-5,5.39-5.21,7,.77,1.75,9.39,3.06,9.39,3.06a14.35,14.35,0,0,1-2.53,2.17c3.43.75,8.59-1.68,10.14-3.15a14.71,14.71,0,0,1-7.17-2.88s.64,1.58.25,2.34c0,0-4.9-1.41-5.41-2.22,0-.07,11.59-3.07,17.2-4.67.2,1,1.31,2.89,2.65,2.44.87-.29.6-2,.27-3.24a1.82,1.82,0,0,0,1.18.43,1.72,1.72,0,1,0,0-3.44,1.77,1.77,0,0,0-1.68,1.18c-.22-1.06-.8-3.16-1.88-3Zm4.4,3.56a.82.82,0,0,1-.83.81.84.84,0,0,1-.84-.81.82.82,0,0,1,.84-.8A.82.82,0,0,1,504.3,414.07Z" transform="translate(0 0)"/>
      <g>
        <path class="cls-5" d="M683.82,417.57c.43-.85-.37-5.16-.37-5.16-.87.1-2.06,1.59-2.06,1.59,1.12-3.52-2-9.42-2-9.42,2.12.45,9.2,7.3,9.57,8.53a17.63,17.63,0,0,0-3.57-1c.51,3.51,2.94,5.14,3.85,7,0,0-4,.89-3.62,4.25l-2.63.05c-.91-1.12.35-3,.35-3l-18.05-7.56c-1.17-.49-3.78-1.68-3.39-3.08s4.7.59,5.76.93Z" transform="translate(0 0)"/>
        <path class="cls-5" d="M666.48,414.44l2.12-3.9c.76-1-.8-2.15-1.92-.83l-2.38,3.56c-1.06,2,1.17,2.49,2.18,1.17Z" transform="translate(0 0)"/>
      </g>
    </g>
    <g>
      <path class="cls-30" d="M539.85,420.85l-.14-4.26-5.15.29-.3,4.64Z" transform="translate(0 0)"/>
      <path class="cls-30" d="M502.22,426.82,495.33,423c28.4,2.6,34.2-7.3,41.06-7.83,4.21-.33,4.87,4.67-3.3,2.29l2.11,5.23s-20.15,11.34-40,6.66Zm123.69-6,.15-4.26,6.3.15.29,4.64Z" transform="translate(0 0)"/>
      <path class="cls-30" d="M664.86,425.78l6.47-3.54c-32.52,1-25.11-5.34-41.39-7.11-4.2-.45-7.36,4.95,3.3,2.29l-2.11,5.23h5.11c11.08,7.29,26,7.94,35.94,5.6l-7.32-2.48Z" transform="translate(0 0)"/>
      <path class="cls-30" d="M533,417.45v7.36s18,6.69,50.21,6.69c32.32,0,50.21-6.69,50.21-6.69v-7.36s-13.64,6.29-50.21,6.29c-36.42,0-50.21-6.29-50.21-6.29Z" transform="translate(0 0)"/>
    </g>
    <path d="M535.67,424.85l1.59-5.39.74.21-1.4,4.75,2.75.76-.19.63Zm5.22-2.37.09-1.06.23-.9.79.19-.24.91-.45,1-.42-.11Zm7.76-.36.75.15-.67,3.17a3.82,3.82,0,0,1-.47,1.28,1.77,1.77,0,0,1-.87.65,2.56,2.56,0,0,1-1.39,0,2.87,2.87,0,0,1-1.26-.52,1.51,1.51,0,0,1-.56-.91,3.74,3.74,0,0,1,.07-1.42l.67-3.17.76.15L545,424.7a3.24,3.24,0,0,0-.09,1.09,1.05,1.05,0,0,0,.37.61,1.76,1.76,0,0,0,.78.35,1.73,1.73,0,0,0,1.26-.13,2.13,2.13,0,0,0,.65-1.33Zm.84,5.86.94-5.53.78.12,2.27,4.82.74-4.35.73.12-.94,5.53-.78-.12L551,423.75l-.74,4.34Zm5.93.89.8-5.55.76.1-.8,5.55Zm2.19-2.45a3,3,0,0,1,1-2.08,2.68,2.68,0,0,1,2.08-.57,2.87,2.87,0,0,1,1.4.53,2.45,2.45,0,0,1,.86,1.14,3.34,3.34,0,0,1,.16,1.53,3.24,3.24,0,0,1-.54,1.47,2.4,2.4,0,0,1-1.12.9,2.83,2.83,0,0,1-1.44.19,2.69,2.69,0,0,1-1.41-.54,2.41,2.41,0,0,1-.85-1.14,3,3,0,0,1-.17-1.43Zm.79.1a2.18,2.18,0,0,0,.37,1.65,1.85,1.85,0,0,0,1.34.73,1.92,1.92,0,0,0,1.49-.42,2.42,2.42,0,0,0,.75-1.6,2.81,2.81,0,0,0-.1-1.22,1.8,1.8,0,0,0-.6-.86,1.93,1.93,0,0,0-1-.39,2,2,0,0,0-1.46.38,2.39,2.39,0,0,0-.79,1.73Zm5.38,3.31.48-5.59.78.06,2.67,4.63.37-4.39.74.06-.48,5.59-.78-.07-2.67-4.62-.37,4.38Zm8.14.56.26-5.59,3.91.16,0,.66-3.14-.13-.08,1.73,2.72.12,0,.66-2.72-.12-.12,2.54-.77,0Zm4.28.19,2.34-5.57.83,0,2.27,5.65-.88,0-.64-1.71-2.43,0-.67,1.68Zm1.72-2.27,2,0-.57-1.56a11.46,11.46,0,0,1-.39-1.17,6.54,6.54,0,0,1-.34,1.06Zm4.47,2.35v-5.6h.77v5.61Zm3.6,0-.08-4.94-1.91,0v-.66l4.6-.06,0,.66-1.93,0,.08,4.94Zm5.7-.14-.28-5.59.77,0,.24,4.94,2.86-.13,0,.66Zm3.9-.17,1.82-5.74.82-.06L601,430l-.87.06-.8-1.64-2.42.16-.51,1.74Zm1.5-2.41,2-.13-.72-1.51c-.18-.37-.35-.74-.5-1.13a6.05,6.05,0,0,1-.23,1.09Zm6.82,1.77-.63-5.57,3.89-.41.07.66-3.13.33.2,1.72,2.71-.28.08.65-2.71.29.29,2.53Zm4.26-3.19a3,3,0,0,1,.45-2.27,2.68,2.68,0,0,1,1.87-1.06,3,3,0,0,1,1.49.17,2.45,2.45,0,0,1,1.12.89,3.27,3.27,0,0,1,.56,1.44,3.22,3.22,0,0,1-.13,1.56,2.44,2.44,0,0,1-.85,1.15,3,3,0,0,1-1.35.53,2.74,2.74,0,0,1-1.5-.18,2.36,2.36,0,0,1-1.12-.9,2.93,2.93,0,0,1-.54-1.34Zm.79-.1a2.2,2.2,0,0,0,.79,1.5,2,2,0,0,0,1.49.39,1.89,1.89,0,0,0,1.33-.78,2.35,2.35,0,0,0,.31-1.73,3,3,0,0,0-.42-1.15,1.76,1.76,0,0,0-.81-.69,2,2,0,0,0-1.06-.14,2,2,0,0,0-1.31.73,2.3,2.3,0,0,0-.32,1.87Zm6.1,1.88-1-5.51,2.53-.45a3.58,3.58,0,0,1,1.19-.05,1.34,1.34,0,0,1,.74.41,1.64,1.64,0,0,1,.39.79,1.4,1.4,0,0,1-.21,1.06,2,2,0,0,1-1.12.72,2.16,2.16,0,0,1,.51.2,3.81,3.81,0,0,1,.77.62l1.27,1.33-1,.16-1-1q-.33-.35-.69-.66a1.72,1.72,0,0,0-.45-.31,1.23,1.23,0,0,0-.38-.08,3,3,0,0,0-.42,0l-.88.16.46,2.45Zm.17-3.21,1.63-.29a2.65,2.65,0,0,0,.79-.24.85.85,0,0,0,.44-.93.8.8,0,0,0-.42-.59,1.35,1.35,0,0,0-1-.09l-1.81.31Zm9.18-.61.79,0a2.47,2.47,0,0,1-.53,1.54,2.39,2.39,0,0,1-1.39.79,2.88,2.88,0,0,1-1.58,0,2.4,2.4,0,0,1-1.11-.85,3.71,3.71,0,0,1-.64-1.4,3.09,3.09,0,0,1,0-1.57,2.25,2.25,0,0,1,.73-1.17,2.92,2.92,0,0,1,1.3-.63,2.45,2.45,0,0,1,1.53.11,2.22,2.22,0,0,1,1.08,1l-.7.32a1.72,1.72,0,0,0-.78-.74,1.59,1.59,0,0,0-1-.07,1.93,1.93,0,0,0-1,.54,1.6,1.6,0,0,0-.43.95,3,3,0,0,0,.07,1.08,3.44,3.44,0,0,0,.49,1.18,1.63,1.63,0,0,0,.84.63,2,2,0,0,0,1,.05,1.71,1.71,0,0,0,1-.58,1.87,1.87,0,0,0,.35-1.17Zm2.13,1.52-1.56-5.4,4-1.09.19.64-3.31.89.48,1.65,3.1-.83.18.63-3.1.84.54,1.83,3.43-.92.18.64Z" transform="translate(0 0)"/>
  </g>
</svg>
