<?xml version="1.0" encoding="utf-8"?>
<!-- Generator: Adobe Illustrator 23.1.0, SVG Export Plug-In . SVG Version: 6.00 Build 0)  -->
<svg version="1.1" id="Layer_1" xmlns="http://www.w3.org/2000/svg" xmlns:xlink="http://www.w3.org/1999/xlink" x="0px" y="0px"
	 viewBox="0 0 1050 700" style="enable-background:new 0 0 1050 700;" xml:space="preserve">
<style type="text/css">
	.st0{fill:#CC092F;}
	.st1{fill-rule:evenodd;clip-rule:evenodd;fill:#FFCB00;}
</style>
<path d="M0,0h1050v700H0V0z"/>
<path class="st0" d="M0,0h1050v350H0V0z"/>
<path class="st1" d="M456,240.1h42.8l13-40.3l13.3,40.3h42.7l-34.3,25.6l13.3,41l-35-24.9L477,306.7l13.3-41L456,240.1z"/>
<path class="st1" d="M612.3,460.5l-33.6-26.3c34-27.7,56.1-70.1,56.1-117.4c0-72.2-51.5-132.8-119.5-147.2l5.3-24.5
	c9.5,2.1,20.6,6.1,29.7,9.2l8.8-14.7c9.5,4.5,20,9.1,28.7,14.7l-6.7,15.8c8.8,5.6,19.3,14.3,25.2,21.1l13.2-10.3
	c7,7.7,15.4,15.8,21.4,24.2l-11.9,12.3c7.7,11.3,10.7,16.5,16.3,29.5l16.7-3.9c3.2,9.8,7.9,21.8,9.7,32l-15.8,6.2
	c1.9,7.9,4.3,21.7,4.2,33.3c0,0.7-0.1,1.5-0.1,2.2l16.5,2.4c-0.7,10.2-1,21.7-3.2,31.9h-17.2c-2.5,10.5-5.6,23.4-9.5,33.2l14.4,8.4
	c-4.6,9.1-9.1,20-15.1,28.7l-15.8-6.7c-6,8.8-12.6,17.2-20,24.9l10.2,13.3C617.5,455.2,615.1,457.7,612.3,460.5 M538.3,457.3
	l25.4,15.3c-2.4,2.2-9.5,5.8-11.3,6.6l4.2,15.9c-9.8,3.2-20.3,7.7-31.2,9.8l-6.3-15.8c-10.2,2.1-20.3,3.5-30.8,3.5l-2.1,16.5
	c-9.8-0.7-21.7,0-32.6-2.5v-16.5c-9.8-1.8-19.3-4.2-28.4-7.4l-8.1,14.4c-8.4-3.5-19.6-7.7-28.7-13.3l6-15.8
	c-7.4-3.9-14-8.8-20.3-13.7l15.8-20c25.9,20.7,58.5,32.9,94.3,32.9C503,467.5,521.5,464.3,538.3,457.3"/>
<path class="st1" d="M644.2,497.9L476.5,370.3l-1.5,2.2l167.3,127.8l-9.9,12.4l-163-104.6c-44.1-27.7-42.4-49.4-33.3-72.9l7.7-18.9
	c4.2,24.5,29.4,43.1,55.7,63.8l148.1,113.7L644.2,497.9z M686.3,536c-1.4,0-2.6-1.2-2.6-2.6c0,0,0,0,0,0c0-1.4,1.2-2.6,2.6-2.6
	c0,0,0,0,0,0c1.4,0,2.6,1.2,2.6,2.6C688.9,534.8,687.8,536,686.3,536C686.3,536,686.3,536,686.3,536 M676.3,528.6
	c-1.4,0-2.6-1.2-2.6-2.6c0-1.4,1.2-2.6,2.6-2.6c1.4,0,2.6,1.2,2.6,2.6C678.9,527.5,677.7,528.6,676.3,528.6L676.3,528.6 M666,520.4
	c-1.4,0-2.6-1.2-2.6-2.6c0-1.4,1.2-2.6,2.7-2.5c1.4,0,2.5,1.1,2.5,2.5C668.7,519.3,667.5,520.4,666,520.4 M700.5,534.9L650.3,496
	l-14.6,18.8l43.6,30.6c3.5,2.5,3.8,13.7,16.8,15.4c5.3,0.7,8.8-3.2,8.8-3.2C710.5,550.8,709,541.3,700.5,534.9"/>
</svg>
