<?xml version="1.0" encoding="utf-8"?>
<!-- Generator: Adobe Illustrator 23.1.0, SVG Export Plug-In . SVG Version: 6.00 Build 0)  -->
<svg version="1.1" id="Layer_1" xmlns="http://www.w3.org/2000/svg" xmlns:xlink="http://www.w3.org/1999/xlink" x="0px" y="0px"
	 viewBox="0 0 1050 700" style="enable-background:new 0 0 1050 700;" xml:space="preserve">
<style type="text/css">
	.st0{fill:#ED1C24;}
	.st1{fill:#FFFFFF;}
	.st2{fill:#00A651;}
</style>
<path class="st0" d="M0,0h1050v700H0V0z"/>
<path class="st1" d="M0,175h1050v350H0V175z"/>
<path class="st2" d="M520.2,175c-7.5,15.8-21.7,26.9-35.2,37.3c-2.2,1.9-7.8,5.7-3.7,8.6c3.4-3.8,12.9,1.2,7.4,5.4
	c-4.9,4.6-11.7,6.3-17.1,10.1c-4.8,2.6-9.7,5.4-13.6,9.4c-0.3,6.3,7.8,2.8,11.1,5.4c4.3,4.5-1.8,12.2-7.4,10.5
	c-7.1,0.2-12.1,6.5-14.8,12.5c-5.6,8.6-16.2,11.2-24.6,16.1c-4.8,2.8-9.5,5.9-14,9.2c-5.8,4-0.8,11.8,5.4,9.9
	c6.6-0.7,12.6-5.9,19.5-4.4c6.2,2.2,8,10.3,5.9,16c-1.6,4.6-5.4,7.8-8.4,11.3c-5,5-11.5,8.3-18.3,9.8c-6.6,2.2-12.6,6.3-16.9,11.7
	c-5,5.1-10,10.2-15.8,14.4c-1.8,4.7,3.3,8.6,7.6,8.5c9.1-0.6,15.3-8,23.1-11.8c6.4-2.9,13.9,4,12.4,10.7c-0.5,6.5-6.6,9.8-12,11.8
	c-15.9,8-29.7,19.6-41.9,32.3c-2.5,5.2-9.5,3.6-13.2,7.2c-2.4,4.6,3.7,7,7.3,6.5c15.7-1.9,30.4-8.5,44.3-15.8
	c5.2-2.5,10-5.7,15.4-7.7c5-1.2,12.1,0.9,13,6.7c0,6.1-6,9.4-10.8,11.8c-14.7,7.7-30.8,12-46.4,17.1c-5.9-1.6-10.3,8.8-3.9,10.7
	c6.8,2.3,14,0.5,21,0.2c21.5-3.3,40.4-14.9,60.5-22.5c8.4-2.7,18.2,1.1,22.4,8.9c4.1,7,3.8,16.2-0.6,23
	c-6.9,14.8-17.4,28.4-31.5,36.9c-8.9,4.4-19.2,6.1-26.8,12.8c-7,2.3,3.5,11.8,5,4.3c4.2-5.8,11.7-7.5,18.4-7.7
	c10.1-1.1,20.9-3,28.8-10c7.1-5.5,14-13.1,23.6-13.2c5.3,0.6,10.6,4.9,15.9,2.3c4.7-2.2,12.1-0.9,13.3,4.9
	c2.3,6.8,9.2,9.9,14.8,13.5c2,2.8,8.7,10.1,10.2,3.7c-1.2-4.6,0.5-11.6,6.5-10c5.2,0.2,10.2,2.2,15.4,2.5c7,1.4,12.8,6.2,16.7,12
	c2.7,3.8,8.7,10.2,13.1,5.2c2.7-5.1-2.5-9.4-6.8-11.3c-6.2-3.9-11.5-9-17-13.8c-8-7.5-14.9-17-16.2-28.2
	c-1.7-11.1-0.8-22.5,0.6-33.6c1.8-7.2,11-11.1,17.4-7.3c9,4.1,17.9,10,28.3,9.4c14.9,0.3,30.3-2.5,44.8,1.8
	c14.2,4.5,24.3,16.4,38.2,21.6c3.1,1.9,7.1,0.1,8.2-3.2c1.4-3,0.4-6.8-2.5-8.5c-16-16.2-37.9-24-56.4-36.7
	c-5.8-1.5-6.9-10.9-1.5-13.6c7.1-5.2,17.1-2.8,23.4,2.6c5.3,3.1,11.3,5.4,17.5,5.4c6.4-2,3.3-11.2-2.4-11.9
	c-10.4-5.8-17.8-15.4-26.8-23.1c-5.2-4.4-10.8-8.8-17.8-9.7c-3.8-0.7-7.7-0.8-11.5-0.6c-3.6-3.9,1.2-9.9,5.9-9.4
	c4.8,0.3,9.5,0.7,14.3,0c5.3-0.4,10.7-0.9,16-1c4.3,2.9,13-2.1,9.1-7.2c-4.3-3.7-10.4-3.4-15.5-5.3c-9-2.9-18.1-5.3-27.3-7.2
	c-6.5-0.4-5.7-8.9,0-9.8c3.7-1.4,6.9,1.5,10.5,1.9c6.1,1.3,12.4,1.3,18.5,2.6c5.2-2.5,1.2-10.1-3.5-10.5c-11-3.9-20.5-11-29.8-18
	c-10.3-7.7-19.6-16.7-30-24.2c-3.8-2.3-10-3-10.9-8.2c-0.3-4.8,5.3-6.9,9.2-5.8c5.6,1.7,10.9,4.6,16.7,6c4.5,0.8,9.2,2.1,13.5,1.5
	c5.5-3.5-2.4-5.7-5.2-6.9c-7.4-4-13.9-9.3-20.5-14.3c-5.6-4.8,4.7-6.9,8.3-5c5.9,2.5,6.6-6.2,2.2-8.4c-5.2-2.2-9.7-5.9-14.5-9.2
	c-8.6-6.1-18.3-10.9-28.9-12.3c-11.8-1.2-22.9-8-29.2-18.1C525.8,187.7,523,181.4,520.2,175L520.2,175z M481.4,241.4
	c6.1,0.2,5.2,11.2-0.8,10.4C474.7,251.4,475,240.2,481.4,241.4z M538.9,247.3c5.9-1.1,7.2,9.8,1.3,10.3
	C534,258.7,531.7,246.6,538.9,247.3z M522,248.7c6,1.2,4.9,11.7-1.1,11.8c-4.4,1-9.2,4-13.7,1.8c-3.7-3.9,1.6-9.6,5.7-10.8
	C516,250.8,518.9,249.3,522,248.7L522,248.7z M560.8,248.8c5.8,2.1,3.8,12.3-2.4,12.2c-5.8,0.8-8.5-8.9-3.1-11.2
	C557.1,249.2,558.9,248.7,560.8,248.8L560.8,248.8z M495.4,260.4c4.3,4.1,1.7,11.9-3.5,13.8c-3.8,2.1-9,7.1-13.1,3
	c-2.2-5,3.4-8.8,6.7-11.6C488.5,263.3,491.7,261.2,495.4,260.4L495.4,260.4z M544.1,283c6.1,2.9,3,13.9-3.7,13.2
	c-5.5-1.4-4.8-10.8,0.8-11.6C542.2,284.2,543.2,283.6,544.1,283z M524.7,284.1c5.7,2.7,1.3,12.2-4.4,10.8c-6-0.7-5.9-11.2,0.7-10.2
	C522.3,284.6,523.6,284.6,524.7,284.1z M566.5,289.6c6.3-1.9,13.8,4.5,11.8,11c-2.8,5.1-9.7,5.7-14.6,3.8c-5.7-0.3-9.5-8.8-4.4-12.4
	C561.3,290.4,563.9,289.8,566.5,289.6z M474.1,291.2c5.2-2.8,10.7,5.6,6.3,9.4c-2.9,4.3-10.4,6-13.7,1.3
	C463.9,297.2,468.3,289.4,474.1,291.2L474.1,291.2z M450.2,295.2c5.9,0.8,9.7,6.1,11.9,11.2c0.5,6.2-8.6,9.6-12.6,5.1
	c-4.5-2.8-8.4-8.6-6-13.9C444.9,295.4,447.7,294.5,450.2,295.2L450.2,295.2z M593,317.6c6.4-1.7,11,8.5,5.5,12.2
	c-5,4.5-14.7-1.5-12.1-8C587.7,319.4,590.3,317.8,593,317.6L593,317.6z M511.9,329.2c5.3,0.7,3.6,9.9-1.3,9.6
	C505.3,337.8,506.5,328.6,511.9,329.2z M484.8,334.1c4.4-3.1,10,4.4,6.4,7.9C486.8,345.1,481.2,337.7,484.8,334.1z M527.9,335
	c5,3.1,8,8.8,8.7,14.6c-2.4,5.4-11.8,4.1-12.8-1.6C521.9,343.4,523.6,337.5,527.9,335L527.9,335z M542.9,343.9
	c6.5-1.6,4.2,12-1.3,7.2C539.9,349,540.8,345.5,542.9,343.9L542.9,343.9z M448.5,353.4c4.3-1.3,10.6,0.1,11.8,5
	c0.5,4.6-4.6,7.1-8.4,8.2c-6,1.9-11.9,4.9-18.3,4.5c-4.8-2.8-6.6-8.4-8.3-13.4c4.7-4.4,11.5-3.1,17.3-4.2
	C444.6,353.5,446.6,353.4,448.5,353.4L448.5,353.4z M595,374.7c5.5-2.7,11.4,6,6.8,10.1c-5.8,6.6-16.8,7.9-23.7,2.3
	c-0.8-5.9,5-10.1,10.2-11C590.5,375.5,592.7,374.6,595,374.7L595,374.7z M625.9,381.4c6.2-1.1,11.2,7.8,6.7,12.4
	c-4.2,6.4-14.3,8-20,2.8c-2.2-5.3,2.3-10.8,7.2-12.5C621.8,383.3,623.7,382.2,625.9,381.4L625.9,381.4z M470.5,390.9
	c5.8-0.6,11.1,5.2,10.3,10.9c4.2,4.1-3.2,11.8-7.4,7.5c-3.7-4.5-3.7-10.5-5.1-15.8C468.3,392.3,469.2,390.7,470.5,390.9L470.5,390.9
	z M514.9,394.2c6-2.6,13.7,4.6,10.5,10.6c-2.3,4.9-11.4,3.3-11.1-2.4C514.3,399.6,514.1,396.8,514.9,394.2L514.9,394.2z
	 M493.3,398.1c6-1.4,11.5,6.4,8.2,11.6C495.5,410.2,492.4,403.1,493.3,398.1z"/>
</svg>
