<?xml version="1.0" encoding="utf-8"?>
<!-- Generator: Adobe Illustrator 23.1.0, SVG Export Plug-In . SVG Version: 6.00 Build 0)  -->
<svg version="1.1"
	 id="Capa_1" xmlns:cc="http://creativecommons.org/ns#" xmlns:dc="http://purl.org/dc/elements/1.1/" xmlns:rdf="http://www.w3.org/1999/02/22-rdf-syntax-ns#" xmlns:svg="http://www.w3.org/2000/svg"
	 xmlns="http://www.w3.org/2000/svg" xmlns:xlink="http://www.w3.org/1999/xlink" x="0px" y="0px" viewBox="0 0 1050 700"
	 style="enable-background:new 0 0 1050 700;" xml:space="preserve">
<style type="text/css">
	.st0{fill:#FFFFFF;}
	.st1{fill:#369443;stroke:#010002;stroke-width:2.4706;stroke-miterlimit:10;}
	.st2{fill:#F4C53D;stroke:#010002;stroke-width:2.4706;stroke-miterlimit:10;}
	.st3{fill:none;stroke:#010002;stroke-width:2.4706;stroke-miterlimit:10;}
	.st4{fill:#F4C53D;stroke:#010002;stroke-width:2.4706;}
	.st5{fill:#F6E200;stroke:#010002;stroke-width:2.4706;}
	.st6{fill:none;stroke:#010002;stroke-width:2.4706;}
	.st7{fill:#0081C6;stroke:#010002;stroke-width:2.4706;stroke-miterlimit:10;}
	.st8{fill:#FFFFFF;stroke:#010002;stroke-width:2.4706;}
	.st9{fill:#A60032;stroke:#010002;stroke-width:2.4706;}
	.st10{fill:none;}
	.st11{fill:#162667;stroke:#010002;stroke-width:2.4706;stroke-miterlimit:10;}
</style>
<rect id="rect3" y="0" class="st0" width="1050" height="700"/>
<path id="path5" class="st1" d="M327.6,473.9c0,0-0.9-5.8,10.1-10c10.9-4.2,11.8-20,9.6-30.4c0,0-5.7,10-12.6,13.3
	c0,0-11.3,5.9-11.8,17.1c0,0-0.1,4.1-0.9,7.3c-0.5,1.8-5.5-14.1,4-25.8c9.8-12.1,12.5-22,4.7-41.2c0,0-0.7,11.6-8.4,18.3
	c-7.7,6.7-8.6,7.2-8.5,23c0,0,0.1,5.5-2.8,7.3c0,0-6-8.7-7.5-14.5c-1.6-5.8-2.3-8.2,4.5-14.8c0,0,21.8-14.1,6.1-44.9
	c0,0-0.5,10.6-8,16.9c-7.5,6.3-6.9,10.5-7.3,21.4c-0.4,10.9-1.1,10.1-1.9,11.6c0,0-13.8-25.5-3.2-39c10.7-13.6,16.6-16.4,4.9-41.6
	c0,0,0.5,12.9-8.9,19.3c-9.4,6.4-7.2,21.4-7.2,21.4s0.6,5.6-1.3,9.7c0,0-13.3-26-0.6-40c10.8-11.9,11.5-20.2,5.7-37.1
	c0,0-0.7,7.8-6.7,12c-6,4.2-10.7,8.4-9.6,24.7c0,0,0.5,11.4-1,14.6c0,0-5.6-10.4-7.2-17.1c-1.6-6.8-2.2-10.7,1.9-17.5
	c4.1-6.8,20.5-26.2,1-54.2c0,0-0.6,9.1-5.6,17.3c-5,8.2-2.7,17.9-1.6,25.3c1.1,7.4-2.6,14.6-2.6,14.6s-8.5-15.6-6.7-33.5
	c1.8-17.9-5.5-32.6-22-43.2c0,0-12,27.9,4.4,42.1c0,0,14,13.8,17.5,30.6c0,0-10.6-1-20.2-19.7c-9.6-18.7-29.5-15.7-30.9-15.9
	c0,0,3.3,28.9,33.9,37.1c0,0,19.6,3.3,23.2,17.7c0,0,3.3,9.9,4.6,15.1c0,0-6.2-2.4-11.9-10.9c-5.7-8.4-5-9.5-24.3-11.4
	c0,0-7.8-0.9-11.9-6.4c0,0,8.1,30.6,29,30.3c0,0,19.1-2,29.8,23c0,0-2.1-1.3-4.9-3.2c-2.8-1.9-9.8-5.5-23.8-3.8
	c-14,1.7-17.9-0.6-21.4-1.8c0,0,14.1,25.8,34,18.2c19.9-7.7,29.5,20.3,29.8,20.9c0,0-2.7-2-6.2-5.5c-3.5-3.5-10.8-7.7-24.7-3.3
	c0,0-10,3.8-20,0.8c0,0,9.7,18.8,32.4,15.6c22.7-3.2,28.4,16.8,28.4,16.8s-3-1.8-5.1-3.5c-2.1-1.7-9.7-6-26.1-1.2
	c-16.4,4.9-22.3-0.8-22.3-0.8s9.1,16.6,26.6,18.5c0,0,9.7-0.1,13.8-1.7c4.1-1.5,15.1-4,22.6,6.9c0,0-2.1,0.4-5.2-1
	c0,0-11.7-4.2-20.5,3.2c0,0-7.9,8.1-19.1,6.5c0,0,14.5,14.1,37.4,2.2c0,0,7.8-5.6,13.5-1.3C314.3,482.5,327.6,473.9,327.6,473.9z"/>
<path id="path7" class="st2" d="M455.3,127.3c0,0-2.7-23.8,16.4-26.1c19.8-2.4,29.6,1.8,29.6,1.8l8.9,17.5l-3.1,11.8l-12.3,5.6
	c0,0,2.1-18.1-14.5-18.5c-4.2-0.1-6.7,1.6-13.3,0.5C460.4,118.8,456.8,126.2,455.3,127.3z"/>
<path id="path9" class="st2" d="M589.2,186.2c-2.8,3.7-14.2,4.9-14.2,4.9s11.7,9,16.7,21.7c5,12.8-135.2,0.1-135.2,0.1
	s6.1-4.3,10.2-12.5c0,0-6.2,2.3-12.4-3.8c0,0,4.6,1.5,10.7-7.7c0,0,9-11.5,15.3-14.6c0,0-2.9,1.8-10-2c0,0,12.1-1.5,16.5-22.3
	c0,0,0.7-4.6,5.3-11.3c4.6-6.7,3.6,1.3,12.1-9c0,0,3.9-7.2,0.5-11.7c-3.4-4.4-7-2.8-14.2-7.1c-7.1-4.3-10.3-6.7-7.9-13.2
	c2.4-6.6,8.7-5.5,9.6-5.5c0.9,0,1.4-5.7,9.2-9.6s28.4-2.2,31.5-0.5c3.1,1.7,15.5,5.4,22.8,23.8c7.3,18.4-1.9,25.3,17.9,53.1
	c0,0-7.9,1.7-13,0.2C560.9,159.3,571.1,177.5,589.2,186.2z"/>
<path id="path11" class="st3" d="M502.5,108.5c-16.2-0.8-10-16.2-10-16.2"/>
<path id="path13" class="st2" d="M530.5,110.6c0,0-2.9-1.3-5.3-4.5c-3.4-4.5-10.9-6.7-15-2.4c0,0-4.1,4.6-7.8,4.9c0,0,4.1,1.3,7,3.9
	c2.9,2.6,5.8,4.5,10.1,4c4.3-0.6,4.9-2.8,6.9-4.2C528.5,110.8,530.5,110.6,530.5,110.6z"/>
<path id="path15" class="st4" d="M635.6,340.6c0,0,15.1,12.3,27.7,0c0,0,5.1,6.1,15.3,4.3c10.2-1.8,11.9-7.2,12.9-10.2
	c0,0,8.8,5.1,16.3,1.1c7.5-4.1,7.5-10.2,7.5-10.2s13,2.6,19.6-6.2c6.6-8.8,2.6-17.5-1-18.5c0,0,14,3.7,17.8-8.4
	c3.2-10.2-4-15.5-4-15.5s29.5-0.1,41.6-9.4c0,0,10-6.3,4-13c0,0,26.6-4.3,33.2-14.8c0,0,2.9-2.9,1.9-8c0,0-0.2-2.9-3.1-3.1
	c0,0,30.3-4.7,39-14.7c0,0,4.2-4.6,2.1-10.7c0,0-0.4-1.6-1.2-2.7c0,0,27.6-5.8,41.2-18.1c0,0,7.9-7,3.8-16.4
	c0,0,46.1-12.6,35.4-32.9c0,0,21.5-7,14.7-26.4c0,0,17.8-9,10-23.4c-7.4-13.7-30.3,2.4-57.3,9.9c0,0-73.2,23-109.2,29.2L701.4,275
	l-59.8,23L635.6,340.6z"/>
<path id="path17" class="st4" d="M634.9,228.3c0,0,9.6-7.2,26.7,1.3c0,0,5.8,4,10.3-0.4c3.8-3.6,4.1-10.3-1.1-14.2
	c-12.8-9.5-17.5-37.9,1.9-49.6c0,0,28.2-16.7,131.5-43c0,0,8.7-2.4,13.3-1.2c5.1,1.3,8.6,5.6,9.3,9.4c0,0,4.6,13.1-10.9,20.7
	c0,0-7,3.2-14.3,5.3c0,0,7.9-1.7,11.3,6.1c3.2,7.5-1.5,15.2-16,20.1c0,0-3.9,1.5-9.6,2.9c0,0,12.5,3.6,6.5,13.6
	c0,0-5.3,10.6-24.2,12.5c0,0,14.1,1.5,4.1,14.9c0,0-4.4,7.3-18.1,10.1c0,0,10.4,0.3,5.2,9.7c-5.3,9.4-17.6,14.7-29.8,15.5
	c0,0-6.6,0.3-11.2-0.7c0,0,11.6,5.8,4.8,15.5c0,0-5,6.9-17.6,6.6c0,0,3.3,10.9-6,15c-7.2,3.2-13.1-1.9-13.1-1.9s2.4,11.6-8,15.7
	c0,0-5.2,2.7-13,0c0,0-6,13.3-27.1,4C618.7,306.7,634.9,228.3,634.9,228.3z"/>
<path id="path19" class="st5" d="M580.8,267.6"/>
<path id="path21" class="st6" d="M960.4,106.8c0,0-33.2,19.2-136.6,38.4"/>
<path id="path23" class="st4" d="M367.5,446.7c0,0-12.3,21.1-27.2,21.5c0,0-25.6-3.1-32.9,3.6c-5.1,4.7-10.2,8.5-12.3,20.5
	c-2.1,11.9,4,14.5,5.5,15c0,0,1.1,8.5,9.6,6.3c0,0,0.5,8.9,15.4,4.6s21.1-2.9,24-17.7c2.9-14.8,5.6-14.6,8.3-16.4
	c3.6-2.4,10.3-4.6,15.2-7.5c4.5-2.6,21.5-11.3,27.4-11.9c5.8-0.7,4.5-20.3,4.5-20.3h-15.1l-7.3-10.7L367.5,446.7z"/>
<path id="path25" class="st6" d="M945.7,133.2c0,0-89.9,29.3-131.7,32.9"/>
<path id="path27" class="st6" d="M910.3,166.2c0,0-52.7,16.5-114.4,27"/>
<path id="path29" class="st6" d="M865.3,200.6c0,0-59.6,14.3-88,16.7"/>
<path id="path31" class="st3" d="M825.3,228.8c0,0-50.4,10.5-63.1,11.8"/>
<polygon id="polygon33" class="st7" points="768.6,305.4 771.1,385.3 771.1,385.3 757,377.1 757,377.1 733.5,478.6 723.8,471.6 
	746.7,374.4 746.7,374.4 730.8,374.7 730.8,374.7 "/>
<path id="path35" class="st3" d="M793.3,254.7c0,0-36.8,5.6-51.4,5.3"/>
<path id="path37" class="st3" d="M747.6,277c0,0-14.9-0.7-22-1.9"/>
<path id="path39" class="st3" d="M733.8,300.9c0,0-12.6-3.4-20.1-8.2"/>
<path id="path41" class="st3" d="M715.2,325.6c0,0-9.7-3.8-14.4-14"/>
<path id="path43" class="st3" d="M691.5,334.8c0,0-7.5-6.7-8-14.2"/>
<polygon id="polygon45" class="st7" points="859.9,340.9 826.5,412.7 826.5,412.7 817.7,398.5 817.7,398.5 747.2,481.9 739.5,473.3 
	809.8,391 809.8,391 795.6,383.4 795.6,383.4 "/>
<path id="path47" class="st3" d="M663.3,340.6c0,0,2.8-2.4,0.9-13"/>
<polygon id="polygon49" class="st7" points="829.4,288.2 812.2,366.1 812.2,366.1 800.6,354.3 800.6,354.3 737.5,475.7 727.8,470 
	791.3,348.9 791.3,348.9 775.8,344.8 775.8,344.8 "/>
<path id="path51" class="st3" d="M666.9,312.1c0,0,1.5-3,1-7.8"/>
<path id="path53" class="st4" d="M414.9,340.6c0,0-15.1,12.3-27.7,0c0,0-5.1,6.1-15.3,4.3c-10.2-1.8-11.9-7.2-12.9-10.2
	c0,0-8.8,5.1-16.3,1.1c-7.5-4.1-7.5-10.2-7.5-10.2s-13,2.6-19.6-6.2s-2.6-17.5,1-18.5c0,0-14,3.7-17.8-8.4c-3.2-10.2,4-15.5,4-15.5
	s-29.5-0.1-41.6-9.4c0,0-10-6.3-4-13c0,0-26.6-4.3-33.2-14.8c0,0-2.9-2.9-1.9-8c0,0,0.2-2.9,3.1-3.1c0,0-30.3-4.7-39-14.7
	c0,0-4.2-4.6-2.1-10.7c0,0,0.4-1.6,1.2-2.7c0,0-27.6-5.8-41.2-18.1c0,0-7.9-7-3.8-16.4c0,0-46.1-12.6-35.4-32.9
	c0,0-21.5-7-14.7-26.4c0,0-17.8-9-10-23.4c7.4-13.7,30.3,2.4,57.3,9.9c0,0,73.2,23,109.2,29.2L349.1,275l59.8,23L414.9,340.6z"/>
<path id="path55" class="st3" d="M720.1,160.7c0,0-17,6.8-22.7,16.2s-1.9,18.5,0,23.7c1,2.6,13,25.7-1.1,42.4"/>
<path id="path57" class="st4" d="M415.6,228.3c0,0-9.6-7.2-26.7,1.3c0,0-5.8,4-10.3-0.4c-3.8-3.6-4.1-10.3,1.1-14.2
	c12.8-9.5,17.5-37.9-1.9-49.6c0,0-28.2-16.7-131.5-43c0,0-8.7-2.4-13.3-1.2c-5.1,1.3-8.6,5.6-9.3,9.4c0,0-4.6,13.1,10.9,20.7
	c0,0,7,3.2,14.3,5.3c0,0-7.9-1.7-11.3,6.1c-3.2,7.5,1.5,15.2,16,20.1c0,0,3.9,1.5,9.6,2.9c0,0-12.5,3.6-6.5,13.6
	c0,0,5.3,10.6,24.2,12.5c0,0-14.1,1.5-4.1,14.9c0,0,4.4,7.3,18.1,10.1c0,0-10.4,0.3-5.2,9.7c5.3,9.4,17.6,14.7,29.8,15.5
	c0,0,6.6,0.3,11.2-0.7c0,0-11.6,5.8-4.8,15.5c0,0,5,6.9,17.6,6.6c0,0-3.3,10.9,6,15c7.2,3.2,13.1-1.9,13.1-1.9s-2.4,11.6,8,15.7
	c0,0,5.2,2.7,13,0c0,0,6,13.3,27.1,4C431.8,306.7,415.6,228.3,415.6,228.3z"/>
<path id="path59" class="st3" d="M719.8,261.2c0,0-0.1-0.1-6.1-2"/>
<path id="path61" class="st3" d="M755.7,236.7c0,0-10.1,2-20.1,2.1"/>
<path id="path63" class="st3" d="M769.7,211.7c0,0-11.9,1.2-23.1,1"/>
<path id="path65" class="st3" d="M787.4,185.6c0,0-17.2,3.4-26.4,3.6"/>
<path id="path67" class="st3" d="M801.7,156.4c0,0-21.2,6-36.9,8.2"/>
<path id="path69" class="st3" d="M729.8,177.1c0,0,15.2,14.2-3.1,27.3c0,0,7.6,11.9-7.6,24.4"/>
<path id="path71" class="st4" d="M416.9,349.2c0,0-3.1,16.7-27.7,37.6c0,0-19,16.7-18.5,36c0.5,19.6-3.4,21.8-10.9,28.5
	c0,0,15.4,1.2,22.8-9c0,0-0.3,17.1-2.6,18.6c0,0,4.8,0.3,11.8-7.3c0,0,4.2-4.4,8.1-6.1c0,0-4.5,11.8-1,22.7c0,0,1.1-4.3,7.1-6.1
	c0,0,10.9-2.2,15.1-17.9c0,0,2.8-10.4,19.8-19.6c0,0,19.3-7.3,18.8-16.8C459.3,400.2,416.9,349.2,416.9,349.2z"/>
<path id="path73" class="st3" d="M723.1,234.6c0,0,2.3,22.8-25.6,22.8c0,0,5.3,20.3-21.5,19.6c0,0-3.1,16.2-22.5,13"/>
<path id="path75" class="st4" d="M683.1,446.7c0,0,12.3,21.1,27.2,21.5c0,0,25.6-3.1,32.9,3.6c5.1,4.7,10.2,8.5,12.3,20.5
	c2.1,11.9-4,14.5-5.5,15c0,0-1.1,8.5-9.6,6.3c0,0-0.5,8.9-15.4,4.6s-21.1-2.9-24-17.7c-2.9-14.8-5.6-14.6-8.3-16.4
	c-3.6-2.4-10.3-4.6-15.2-7.5c-4.5-2.6-21.5-11.3-27.4-11.9c-5.8-0.7-4.5-20.3-4.5-20.3h15.1l7.3-10.7L683.1,446.7z"/>
<path id="path77" class="st4" d="M633.6,349.2c0,0,3.1,16.7,27.7,37.6c0,0,19,16.7,18.5,36c-0.5,19.6,3.4,21.8,10.9,28.5
	c0,0-15.4,1.2-22.8-9c0,0,0.3,17.1,2.6,18.6c0,0-4.8,0.3-11.8-7.3c0,0-4.2-4.4-8.1-6.1c0,0,4.5,11.8,1,22.7c0,0-1.1-4.3-7.1-6.1
	c0,0-10.9-2.2-15.1-17.9c0,0-2.8-10.4-19.8-19.6c0,0-19.3-7.3-18.8-16.8C591.2,400.2,633.6,349.2,633.6,349.2z"/>
<path id="path79" class="st6" d="M696.3,468.2c0,0,4.4,1,14,0"/>
<path id="path81" class="st3" d="M737.2,480.2c0,0,13.4-2,12.8,27.1"/>
<path id="path83" class="st3" d="M729.1,486.8c0,0,12.1-1.5,11.3,26.8"/>
<path id="path85" class="st6" d="M611.8,418.6c0,0,5.8,1.2,9.9,5.8c4,4.6,11.8,3.8,11.8,3.8s-4.2-3.4-5.7-11.9
	c-1.5-8.5-6.2-11.1-6.2-11.1"/>
<path id="path87" class="st6" d="M635.6,397c0,0,5.8,1.2,9.9,5.8s11.8,3.8,11.8,3.8s-4.2-3.4-5.7-11.9c-1.5-8.5-6.2-11.1-6.2-11.1"
	/>
<path id="path89" class="st6" d="M639.6,430.1c0,0,5.1,1,8.6,5.1c3.5,4,10.3,3.3,10.3,3.3s-3.7-3-4.9-10.4c-1.3-7.4-5.4-9.7-5.4-9.7
	"/>
<path id="path91" class="st2" d="M544.3,563.9c0,0,4.4,19.5,19.8,17.9c0,0,10.9-1,10-19.1c0,0,16,8.5,18.6-12.6
	c0,0,14.6,3.4,14.4-16.4c0,0,13.6,2.4,12-15.2c0,0,14.7,3.9,14.7-12.6c0,0,34.5-5.7-37.4-71.3l-64.1,38.2L544.3,563.9z"/>
<path id="path93" class="st4" d="M537.2,476.5c0,0,10.7,9.5,18.3-4.7c0,0,10.4-0.5,12-8.4c0,0,8.4-0.9,10-8.9
	c0,0,11.5-1.2,11.2-10.9c0,0,20.9-1.6,0-25.3c-20.9-23.7-56.4,39.3-56.4,39.3L537.2,476.5z"/>
<path id="path95" class="st3" d="M574.1,562.7c0,0-1.6-34.3-31.3-83.4"/>
<path id="path97" class="st3" d="M592.7,550.1c0,0,4.6-19.8-37.2-78.3c0,0,4.9-14-10-22.9"/>
<path id="path99" class="st3" d="M607.1,533.7c0,0,1.3-21.4-39.7-70.3c0,0,3.6-12.6-11.2-22.7"/>
<path id="path101" class="st3" d="M619.1,518.5c0,0-1.5-21.7-41.6-64c0,0,2-13-12.4-21"/>
<path id="path103" class="st3" d="M633.9,505.9c0,0-2.9-24.7-45.2-62.3c0,0,1.5-9.7-12.6-19.6"/>
<path id="path105" class="st2" d="M506.2,563.9c0,0-4.4,19.5-19.8,17.9c0,0-10.9-1-10-19.1c0,0-16,8.5-18.6-12.6
	c0,0-14.6,3.4-14.4-16.4c0,0-13.6,2.4-12-15.2c0,0-14.7,3.9-14.7-12.6c0,0-34.5-5.7,37.4-71.3l64.1,38.2L506.2,563.9z"/>
<path id="path107" class="st4" d="M513.3,476.5c0,0-10.7,9.5-18.3-4.7c0,0-10.4-0.5-12-8.4c0,0-8.4-0.9-10-8.9
	c0,0-11.5-1.2-11.2-10.9c0,0-20.9-1.6,0-25.3c20.9-23.7,56.4,39.3,56.4,39.3L513.3,476.5z"/>
<path id="path109" class="st3" d="M476.4,562.7c0,0,1.6-34.3,31.3-83.4"/>
<path id="path111" class="st3" d="M457.8,550.1c0,0-4.6-19.8,37.2-78.3c0,0-4.9-14,10-22.9"/>
<path id="path113" class="st4" d="M525.3,470.6c10.4,0,22.1,64.7,19.1,103.7c-1.1,14.2-8.7,25.7-19.1,25.7
	c-10.4,0-17.9-11.6-19.1-25.7C503.2,535.3,514.9,470.6,525.3,470.6"/>
<path id="path115" class="st3" d="M443.4,533.7c0,0-1.3-21.4,39.7-70.3c0,0-3.6-12.6,11.2-22.7"/>
<path id="path117" class="st3" d="M431.4,518.5c0,0,1.5-21.7,41.6-64c0,0-2-13,12.4-21"/>
<ellipse id="ellipse119" class="st4" cx="525.3" cy="470.1" rx="14.3" ry="21.2"/>
<path id="path121" class="st3" d="M416.6,505.9c0,0,2.9-24.7,45.2-62.3c0,0-1.5-9.7,12.6-19.6"/>
<path id="path123" class="st8" d="M525.3,465.5c0,0,121.6-53.9,121.9-178.5H403.4C403.7,411.6,525.3,465.5,525.3,465.5z"/>
<line id="line125" class="st3" x1="459.6" y1="286.9" x2="478.4" y2="286.9"/>
<line id="line127" class="st3" x1="422.1" y1="286.9" x2="440.9" y2="286.9"/>
<line id="line129" class="st3" x1="497.1" y1="286.9" x2="515.9" y2="286.9"/>
<path id="path131" class="st9" d="M422.1,286.9v79.7c0,0,9.3,18.5,18.8,30.1V286.9H422.1L422.1,286.9z"/>
<path id="path133" class="st9" d="M459.6,286.9v131.3c0,0,11.7,11.5,18.8,17V286.9H459.6z"/>
<path id="path135" class="st9" d="M497.1,286.9v162.3c0,0,13.4,8.6,18.8,11.5V286.9L497.1,286.9L497.1,286.9z"/>
<line id="line137" class="st6" x1="422.1" y1="286.9" x2="440.9" y2="286.9"/>
<line id="line139" class="st6" x1="459.6" y1="286.9" x2="478.4" y2="286.9"/>
<line id="line141" class="st6" x1="497.1" y1="286.9" x2="515.9" y2="286.9"/>
<path id="path143" class="st9" d="M628.4,286.9v79.7c0,0-9.3,18.5-18.8,30.1V286.9H628.4z"/>
<path id="path145" class="st9" d="M590.9,286.9v131.3c0,0-11.7,11.5-18.8,17V286.9H590.9z"/>
<path id="path147" class="st9" d="M553.4,286.9v162.3c0,0-13.4,8.6-18.8,11.5V286.9L553.4,286.9L553.4,286.9z"/>
<line id="line149" class="st10" x1="653.7" y1="586" x2="642.4" y2="599.8"/>
<line id="line151" class="st10" x1="628.4" y1="584.5" x2="659.5" y2="613.3"/>
<path id="path153" class="st7" d="M721.9,512.7l-4.7,19.3l0,0l12.9,12.9l0,0l-18.3,77.3l-16.3-21.9l-24.1,11.3l18.3-77.3l0,0l17-4.7
	l0,0l4.4-19.3C711,510.3,716.2,508.3,721.9,512.7z"/>
<path id="path155" class="st7" d="M726.2,500l-9.3,17.4l0,0l9.3,16l0,0L689.5,603l-10.3-25.5l-26.1,4.3l36.7-69.7l0,0l17.5,0.1l0,0
	l9-17.4C716.3,494.7,722.9,494.7,726.2,500z"/>
<path id="path157" class="st7" d="M727.8,505L703,536.5l0,0l5.7,17.8l0,0l-50.6,59.2l-4.6-27.3l-26.3-2l50.6-59.2l0,0l17.1,4.2l0,0
	l26.3-33.4C721.1,495.8,728.2,499.3,727.8,505z"/>
<path id="path159" class="st3" d="M339.9,428.1"/>
<path id="path161" class="st6" d="M90.1,106.8c0,0,33.2,19.2,136.6,38.4"/>
<path id="path163" class="st6" d="M104.8,133.2c0,0,89.9,29.3,131.7,32.9"/>
<path id="path165" class="st6" d="M140.2,166.2c0,0,52.7,16.5,114.4,27"/>
<path id="path167" class="st6" d="M185.2,200.6c0,0,59.6,14.3,88,16.7"/>
<path id="path169" class="st3" d="M225.2,228.8c0,0,50.4,10.5,63.1,11.8"/>
<path id="path171" class="st3" d="M257.2,254.7c0,0,36.8,5.6,51.4,5.3"/>
<path id="path173" class="st3" d="M302.9,277c0,0,14.9-0.7,22-1.9"/>
<path id="path175" class="st3" d="M316.7,300.9c0,0,12.6-3.4,20.1-8.2"/>
<path id="path177" class="st3" d="M335.3,325.6c0,0,9.7-3.8,14.4-14"/>
<path id="path179" class="st3" d="M359,334.8c0,0,7.5-6.7,8-14.2"/>
<path id="path181" class="st3" d="M387.2,340.6c0,0-2.8-2.4-0.9-13"/>
<path id="path183" class="st3" d="M383.6,312.1c0,0-1.5-3-1-7.8"/>
<path id="path185" class="st3" d="M330.4,160.7c0,0,17,6.8,22.7,16.2c5.7,9.4,1.9,18.5,0,23.7c-1,2.6-13,25.7,1.1,42.4"/>
<path id="path187" class="st3" d="M330.7,261.2c0,0,0.1-0.1,6.1-2"/>
<path id="path189" class="st3" d="M294.8,236.7c0,0,10.1,2,20.1,2.1"/>
<path id="path191" class="st3" d="M280.8,211.7c0,0,11.9,1.2,23.1,1"/>
<path id="path193" class="st1" d="M325,509.3c0,0-0.4-10.4,12.8-11.1l38.6,53.7c0,0-1.5,3.5-18.9,3.1c0,0-1.9,0-2.8,2
	C353.2,560.1,325,509.3,325,509.3z"/>
<path id="path195" class="st3" d="M263.1,185.6c0,0,17.2,3.4,26.4,3.6"/>
<path id="path197" class="st3" d="M248.8,156.4c0,0,21.2,6,36.9,8.2"/>
<path id="path199" class="st3" d="M320.7,177.1c0,0-15.2,14.2,3.1,27.3c0,0-7.6,11.9,7.6,24.4"/>
<path id="path201" class="st3" d="M327.4,234.6c0,0-2.3,22.8,25.6,22.8c0,0-5.3,20.3,21.5,19.6c0,0,3.1,16.2,22.5,13"/>
<path id="path203" class="st6" d="M354.2,468.2c0,0-4.4,1-14,0"/>
<path id="path205" class="st3" d="M313.3,480.2c0,0-13.4-2-12.8,27.1"/>
<path id="path207" class="st3" d="M321.4,486.8c0,0-12.1-1.5-11.3,26.8"/>
<path id="path209" class="st6" d="M438.7,418.6c0,0-5.8,1.2-9.9,5.8c-4,4.6-11.8,3.8-11.8,3.8s4.2-3.4,5.7-11.9
	c1.5-8.5,6.2-11.1,6.2-11.1"/>
<path id="path211" class="st6" d="M414.9,397c0,0-5.8,1.2-9.9,5.8c-4,4.6-11.8,3.8-11.8,3.8s4.2-3.4,5.7-11.9
	c1.5-8.5,6.2-11.1,6.2-11.1"/>
<path id="path213" class="st6" d="M410.9,430.1c0,0-5.1,1-8.6,5.1c-3.5,4-10.3,3.3-10.3,3.3s3.7-3,4.9-10.4c1.3-7.4,5.4-9.7,5.4-9.7
	"/>
<path id="path215" class="st11" d="M647.2,196.3c0,0-59.7,31.2-121.9-2.6c-62.2,33.8-121.9,2.6-121.9,2.6v90.6h243.8V196.3
	L647.2,196.3z"/>
<path id="path217" class="st7" d="M99.7,431.2c5.9-2.4,10.2-4.7,10.1-11c0-1.5-0.8-4.8-2.5-10L67.7,288.9
	c-2.3-7.2-4.1-11.5-4.9-13.1c-1.8-3.4-5.3-4.8-10-6.8h4.9h40.7h4.9c-5.5,2.6-10.5,4.6-10.4,10.5c0,2.2,0.6,5.3,1.9,9.4l30.4,95.2
	l30.4-95.2c1.3-4,2-7.2,1.9-9.4c-0.1-6-5.3-8.1-10.4-10.5h4.8H191h4.9c-4.5,1.8-8.1,3.2-10,6.8c-0.8,1.6-2.6,5.9-4.9,13.1
	l-39.7,121.3c-1.7,5.1-2.3,8.5-2.5,10.1c0,0-1.8,7.7,10.1,10.9L99.7,431.2L99.7,431.2z"/>
<path id="path219" class="st7" d="M945.2,418.7V281.5c0-2.4-0.4-4.2-1.2-5.5c-0.8-1.3-4.2-4.9-9.1-6.9h4.9h35.7h4.9
	c-4.9,1.6-8.3,5.5-9.1,6.8c-0.8,1.3-1.2,3.1-1.2,5.5v137.3c0,2.5,0.4,4.3,1.2,5.6c0.8,1.3,4.1,4.5,9,6.8h-4.9h-35.7H935
	c4.9-2.2,8.3-5.6,9.1-6.9C944.9,423.1,945.2,421.2,945.2,418.7z"/>
</svg>
