<svg id="Layer_1" data-name="Layer 1" xmlns="http://www.w3.org/2000/svg" width="493.89mm" height="246.94mm" viewBox="0 0 1400 700">
  <defs>
    <style>
      .cls-1 {
        fill: #cc092f;
      }

      .cls-2 {
        fill: #ffd200;
      }

      .cls-3 {
        fill: #0046ae;
      }

      .cls-4 {
        fill: #f5d402;
      }

      .cls-5 {
        fill: #b07f55;
      }

      .cls-6 {
        fill: #d10429;
      }

      .cls-7 {
        fill: #097754;
      }

      .cls-8 {
        fill: #0b45bb;
      }
    </style>
  </defs>
  <rect class="cls-1" width="1400" height="700"/>
  <rect class="cls-2" width="933.33" height="700"/>
  <rect class="cls-3" width="466.67" height="700"/>
  <g>
    <g>
      <path d="M659.31,142.52a10.12,10.12,0,0,0-6,1.63,4.89,4.89,0,0,1,3.5,4.74v5.77h-5.77a4.91,4.91,0,0,1-4.74-3.46,11.77,11.77,0,0,0,0,12,4.9,4.9,0,0,1,4.74-3.51h5.77v27.75a4.9,4.9,0,0,1-3.26,4.66c2.75.38,5.12,4.07,5.77,6.09.65-2,3-5.71,5.78-6.09a4.88,4.88,0,0,1-3.31-4.66V159.64h5.78a4.88,4.88,0,0,1,4.73,3.47,11.7,11.7,0,0,0,0-12,4.88,4.88,0,0,1-4.73,3.5h-5.78v-5.77a4.9,4.9,0,0,1,3.47-4.74,10.14,10.14,0,0,0-6-1.63Z" transform="translate(0 0)"/>
      <path class="cls-4" d="M659.31,143.72a11.19,11.19,0,0,0-3.42.55,6.13,6.13,0,0,1,2.15,4.62v5.78a1,1,0,0,1,0,.24v.91h-.92a.86.86,0,0,1-.24,0h-5.77a6.11,6.11,0,0,1-4.58-2.11,10.8,10.8,0,0,0-.59,3.43,11.19,11.19,0,0,0,.55,3.42,6.13,6.13,0,0,1,4.62-2.15h7c0,.12,0,.24,0,.36v.6a1.57,1.57,0,0,1,0,.23V187.4a5.87,5.87,0,0,1-2.15,4.34,9.39,9.39,0,0,1,2.27,2,11.47,11.47,0,0,1,1.19,2.07,11.54,11.54,0,0,1,1.2-2.07,9.07,9.07,0,0,1,2.23-1.95,5.86,5.86,0,0,1-2.15-4.38V158.49h1a1,1,0,0,1,.24,0h5.77a6.1,6.1,0,0,1,4.58,2.11,10.51,10.51,0,0,0,.6-3.42,10.89,10.89,0,0,0-.56-3.43,6.07,6.07,0,0,1-4.62,2.15h-5.77a1,1,0,0,1-.24,0h-.91v-.91a1,1,0,0,1,0-.24v-5.78a6.11,6.11,0,0,1,2.11-4.58,10.8,10.8,0,0,0-3.43-.59" transform="translate(0 0)"/>
      <path d="M731.58,244.21a30.77,30.77,0,0,1-8.48-8.64c-5-7.95-7-17.71-7-27.63,0-4.19,4.69-8.91,4.69-12.31a60.12,60.12,0,0,0-.47-8.2c1.66.23,4.57,3.19,4.57,3.19s-.1-8.51-2.78-10c0,0,1.08-1.11,5-1.23-1.1-2.8-6.57-6.21-6.57-6.21A3.66,3.66,0,0,1,722,171.9a18,18,0,0,1,4.77-1.55,49.64,49.64,0,0,1-5.37-1.47,128.49,128.49,0,0,1-14.89-6,43.9,43.9,0,0,0-19.91-4.66c-2.78,0-6.88.07-9.28,1.67-2.19,1.46-2,3.36-2.78,4-1.82,1.57-4.92,1.52-6.42,1.52-9.67,0-10,10.35-10,10.35a8.89,8.89,0,0,1,6.85-3.74c7.27,0,12.78,4,12.78,5.45,0,.6-.75.72-.8.72-4.75,0-11.92-2.74-15.72-2.87v1.87c8.5,3,17.12,7.15,17.12,25.6,0,11.62-1.39,23.48-7.21,32.81a30.92,30.92,0,0,1-8.52,8.64l34.52,6.22Z" transform="translate(0 0)"/>
      <g id="eagle_half" data-name="eagle half">
        <path d="M697.06,236.43l-34.52,7.78a82.77,82.77,0,0,1-14.14-5.65c-9.12-5.08-13.84-10.14-24.68-10.63v-8.25c0-4.4,1.59-8.37,1.59-12.58-4.57-1.22-17.25-16.73-28.95-23.61-17.21,11.15-30.53,29.45-30.53,37.87,0,0,.51,180.84,0,243.84,0,3.63-2.19,8.76-2.19,8.76,6.28-2.66,17.8-18.42,20.22-24.41v2.87c9.49-4.33,16.44-15.7,19.55-21.58.06.85.2,3,.2,3,8.48-7.43,19.27-51.36,19.27-51.36l18,17.67s-6.51,13.21-9,15.57a29.37,29.37,0,0,0,3.62.2c-1.18,1.7-10.22,14.72-13.06,19.63-2.65,4.59-4.52,2.55-8.6,2.55-3.38,0-11,5.39-12.3,7.57a16,16,0,0,0-2.31,7.36c0,2.52,2.67,6,2.67,6a3.21,3.21,0,0,1,.79-1.63s7,8.73,8.05,9.88c.8.88,4.39,1.46,5.65.32,3.16-2.88,6.23-4.89,9-9,1.45-2.14,1.56-4.6,3.23-6.89,5.57-7.69,16.65-22.4,19.19-25.76.17.93.31,1.71.47,2.66,2.88-5.8,16.69-16.88,16.69-16.88l14.45,6.65s-27,62-50.93,71.55c0,0,10.42,4.43,23.21,11.07,1.87,1,3.79,2,5.74,3.07,1.61-1.94,3.3-4.1,5-6.33,7.65-10.24,15.14-22.1,15.14-22.1.52,3.08-3.52,12.59-10.36,24.33-1.34,2.3-2.74,4.72-4.3,7.16,1.74,1,3.46,2,5.18,3,12.67,7.63,24.58,16.39,29,24.45l3.12-7.79L697,519V246.76l1.56-3.89Z" transform="translate(0 0)"/>
        <g>
          <path class="cls-5" d="M697,519c-4.47-4.85-13.82-10.78-24.32-16.25,12.7-22.8,19-58.84,16-66,0,0-5.21,18.69-11.58,29.34-5.9,9.87-13.17,21-20.19,29.19a161.16,161.16,0,0,0-16.17-6c21-16.21,42.57-69.79,42.57-69.79l-22.26-10.32s-8.32,9.71-11,11.51c0,0-1.16-4.83-1.84-6.53,0,0-3.19,2.41-4.93,2.47,0,0-.52-3.28-.92-5.42-2.2,1.47-5.85,1.16-5.85,1.16,3.21-1.52,7-10.83,7-10.83l-21.25-28.27s-7.47,35.87-16,43.24V262l6.73,6.25,10.19-9.51V251.5l-9,8.44V238.08c1.37-2.06,2.27-3.6,3-4.82,1.46,2.55,6.19,10.37,11.74,15.17.92-3.71,6.93-7.24,6.93-7.24s2.16,5.84,5.46,7.28c1.16-2,8.08-6.57,8.08-6.57s-5.92.9-8.32,3.15c-2.06-.46-2.59-8.6-2.59-8.6s-8.72,4.24-10.23,7.28c-1.66-.44-4.25-7-5.26-9.67a57,57,0,0,1,6.49-.36c2.49,0,5.67,1.18,9,2.75,3.66,1.72,7.49,3.9,10.91,5.45,4.38,2,11,2.39,12.94,2.47a56.76,56.76,0,0,1-7.28,4.3s10.43-.09,17.75-3.74a69.53,69.53,0,0,0,7.65-5.34,28.2,28.2,0,0,1-5,8.92c10.76-.91,16.12-7,17.64-9.11a29.07,29.07,0,0,0,4,7.36H701V511.2Z" transform="translate(0 0)"/>
          <path class="cls-5" d="M617.75,207.9l.19,4.94v14.53c-3.9-1.34-8.8-7.76-11.18-11.15v-2a5.49,5.49,0,0,1,1.91-4l-2.35-.84a6.82,6.82,0,0,0-1.87,4.5v1.16l-7,7.52-6.89-10.43v-2.55c0-1.72,1.32-3.63,2.43-4.94l-2.31-.83c-1.16,1.51-2.39,3.54-2.39,5.45v2.07l-7.92,8.17-4-8.64c4.82-6.69,12.65-14.17,20-19.54,0,0,16,14.68,21.38,16.55Z" transform="translate(0 0)"/>
          <path class="cls-5" d="M577.21,222v12l-5.58,5.18v-17.8a13.67,13.67,0,0,1,1.92-6Z" transform="translate(0 0)"/>
          <path class="cls-5" d="M594.57,226.61V234l-6.41,6V216.86Z" transform="translate(0 0)"/>
          <path class="cls-5" d="M585.89,240l-6.41-6v-8.68l6.41-6.73Z" transform="translate(0 0)"/>
          <path class="cls-5" d="M615.15,231c-1.49,2.11-5.38,7.25-9.59,9.52V220.16C606.52,221.77,611,228.93,615.15,231Z" transform="translate(0 0)"/>
          <path class="cls-5" d="M603.29,221.2V240l-6.41-6v-6.65Z" transform="translate(0 0)"/>
          <path class="cls-5" d="M577.21,241.23V260l-5.58-5.22v-8.32Z" transform="translate(0 0)"/>
          <path class="cls-5" d="M585.88,247.24V254l-6.41,6V241.27Z" transform="translate(0 0)"/>
          <path class="cls-5" d="M594.56,241.27v18.67l-6.41-6v-6.65Z" transform="translate(0 0)"/>
          <path class="cls-5" d="M603.28,247.28v6.65l-6.41,6V241.27Z" transform="translate(0 0)"/>
          <path class="cls-5" d="M612,260l-6.41-6v-6.25a26,26,0,0,0,6.41-6.45Z" transform="translate(0 0)"/>
          <path class="cls-5" d="M595.72,268.26l6.77-6.29V416.46s.47,7.67.79,12.66L589,443.61V261.93Z" transform="translate(0 0)"/>
          <path class="cls-5" d="M585.08,437.84c0,5-9.06,16.55-13.45,19.19V262l6.69,6.25,6.76-6.29Z" transform="translate(0 0)"/>
        </g>
        <g>
          <path class="cls-6" d="M641.3,421.08l4.94-3.39s.33,1.64.76,3.87c-2.12,2.89-14.26,19.46-20.27,27.55-1.49,2-2.75,7.13-2.75,7.13s-2.19-1-2.19-2.91.24-4,.24-4a6.24,6.24,0,0,1-4.46,1.87c0-2.26,4.37-4.71,4.54-7.92-3.33,2.47-6.22,1.2-10.07,2.39-4.2,1.29-5.36,3.05-6.65,3-.76,0-1.44-1.34-1.16-2.15.51-1.39,5.69-5.23,9.32-5.93.87-.17,7.7,1.49,9.08-.64l15.77-24.32A5.25,5.25,0,0,0,640,415s-.05,4.47,1.35,6.05Z" transform="translate(0 0)"/>
          <path class="cls-6" d="M609.56,448.35a.75.75,0,0,1,0,1l-2.23,1.95a.76.76,0,0,1-1-.12.75.75,0,0,1,0-1l2.23-1.95a.68.68,0,0,1,.52-.16.82.82,0,0,1,.52.28Z" transform="translate(0 0)"/>
          <path class="cls-6" d="M612.94,450.7a1.73,1.73,0,0,1-.08,2.47l-5.41,4.74a1.8,1.8,0,0,1-2.51-.28,1.78,1.78,0,0,1,.08-2.51l5.41-4.7a1.77,1.77,0,0,1,1-.4A1.89,1.89,0,0,1,612.94,450.7Z" transform="translate(0 0)"/>
          <path class="cls-6" d="M616.05,454.36a1.75,1.75,0,0,1-.08,2.47l-5.46,4.74a1.75,1.75,0,0,1-2.47-.28,1.8,1.8,0,0,1,.08-2.51l5.42-4.69a1.6,1.6,0,0,1,.91-.4,2,2,0,0,1,1.6.67Z" transform="translate(0 0)"/>
          <path class="cls-6" d="M617.92,457.27a1.84,1.84,0,0,1,1.55.64,1.77,1.77,0,0,1-.08,2.5l-5.42,4.7a1.84,1.84,0,0,1-2.43-2.74l5.46-4.74a1.55,1.55,0,0,1,.92-.36Z" transform="translate(0 0)"/>
        </g>
      </g>
      <g>
        <path d="M697,236.43l34.52,7.78a82.43,82.43,0,0,0,14.13-5.65c9.12-5.08,13.85-10.14,24.69-10.63v-8.25c0-4.4-1.59-8.37-1.59-12.58,4.57-1.22,17.25-16.73,28.94-23.61,17.22,11.15,30.54,29.45,30.54,37.87,0,0-.51,180.84,0,243.84,0,3.63,2.19,8.76,2.19,8.76-6.28-2.66-17.8-18.42-20.22-24.41v2.87c-9.49-4.33-16.44-15.7-19.55-21.58-.06.85-.2,3-.2,3-8.48-7.43-19.27-51.36-19.27-51.36l-18,17.67s6.51,13.21,9,15.57a29.37,29.37,0,0,1-3.62.2c1.18,1.7,10.22,14.72,13.06,19.63,2.65,4.59,4.52,2.55,8.6,2.55,3.38,0,11,5.39,12.3,7.57a16,16,0,0,1,2.31,7.36c0,2.52-2.67,6-2.67,6a3.21,3.21,0,0,0-.79-1.63s-7,8.73-8.05,9.88c-.8.88-4.39,1.46-5.65.32-3.16-2.88-6.23-4.89-9-9-1.45-2.14-1.56-4.6-3.23-6.89-5.57-7.69-16.65-22.4-19.19-25.76-.17.93-.31,1.71-.47,2.66-2.88-5.8-16.69-16.88-16.69-16.88l-14.45,6.65s27,62,50.93,71.55c0,0-10.42,4.43-23.21,11.07-1.87,1-3.79,2-5.74,3.07-1.61-1.94-3.3-4.1-5-6.33-7.65-10.24-15.14-22.1-15.14-22.1-.52,3.08,3.52,12.59,10.36,24.33,1.34,2.3,2.74,4.72,4.3,7.16-1.74,1-3.46,2-5.18,3-12.67,7.63-24.58,16.39-29,24.45l-3.11-7.79L697,519V246.76l-1.55-3.89Z" transform="translate(0 0)"/>
        <g>
          <path class="cls-5" d="M697,519c4.48-4.85,13.83-10.78,24.33-16.25-12.7-22.8-19-58.84-16-66,0,0,5.21,18.69,11.58,29.34,5.9,9.87,13.17,21,20.19,29.19a161.16,161.16,0,0,1,16.17-6c-21-16.21-42.57-69.79-42.57-69.79L733,409.13s8.32,9.71,11,11.51c0,0,1.16-4.83,1.84-6.53,0,0,3.19,2.41,4.93,2.47,0,0,.52-3.28.92-5.42,2.2,1.47,5.85,1.16,5.85,1.16-3.21-1.52-7-10.83-7-10.83l21.25-28.27s7.47,35.87,16,43.24V262L781,268.26l-10.19-9.51V251.5l9,8.44V238.08c-1.37-2.06-2.27-3.6-3-4.82-1.46,2.55-6.19,10.37-11.75,15.17-.91-3.71-6.92-7.24-6.92-7.24s-2.16,5.84-5.46,7.28c-1.16-2-8.08-6.57-8.08-6.57s5.92.9,8.32,3.15c2.06-.46,2.59-8.6,2.59-8.6s8.72,4.24,10.23,7.28c1.66-.44,4.25-7,5.26-9.67a57,57,0,0,0-6.49-.36c-2.49,0-5.67,1.18-9,2.75-3.66,1.72-7.49,3.9-10.91,5.45-4.38,2-11,2.39-12.94,2.47a56.08,56.08,0,0,0,7.28,4.3s-10.43-.09-17.75-3.74a69.53,69.53,0,0,1-7.65-5.34,28.2,28.2,0,0,0,5,8.92c-10.76-.91-16.12-7-17.64-9.11a29.4,29.4,0,0,1-4,7.36h-3.89V511.2Z" transform="translate(0 0)"/>
          <path class="cls-5" d="M776.34,207.9l-.2,4.94v14.53c3.91-1.34,8.81-7.76,11.19-11.15v-2a5.49,5.49,0,0,0-1.91-4l2.35-.84a6.82,6.82,0,0,1,1.87,4.5v1.16l7,7.52,6.89-10.43v-2.55c0-1.72-1.32-3.63-2.43-4.94l2.31-.83c1.16,1.51,2.39,3.54,2.39,5.45v2.07l7.92,8.17,4-8.64c-4.83-6.69-12.65-14.17-20-19.54,0,0-16,14.68-21.38,16.55Z" transform="translate(0 0)"/>
          <path class="cls-5" d="M816.88,222v12l5.57,5.18v-17.8a13.64,13.64,0,0,0-1.91-6Z" transform="translate(0 0)"/>
          <path class="cls-5" d="M799.52,226.61V234l6.41,6V216.86Z" transform="translate(0 0)"/>
          <path class="cls-5" d="M808.2,240l6.41-6v-8.68l-6.41-6.73Z" transform="translate(0 0)"/>
          <path class="cls-5" d="M778.94,231c1.48,2.11,5.38,7.25,9.59,9.52V220.16C787.57,221.77,783.14,228.93,778.94,231Z" transform="translate(0 0)"/>
          <path class="cls-5" d="M790.8,221.2V240l6.41-6v-6.65Z" transform="translate(0 0)"/>
          <path class="cls-5" d="M816.88,241.23V260l5.58-5.22v-8.32Z" transform="translate(0 0)"/>
          <path class="cls-5" d="M808.21,247.24V254l6.41,6V241.27Z" transform="translate(0 0)"/>
          <path class="cls-5" d="M799.53,241.27v18.67l6.41-6v-6.65Z" transform="translate(0 0)"/>
          <path class="cls-5" d="M790.81,247.28v6.65l6.41,6V241.27Z" transform="translate(0 0)"/>
          <path class="cls-5" d="M782.13,260l6.41-6v-6.25a26,26,0,0,1-6.41-6.45Z" transform="translate(0 0)"/>
          <path class="cls-5" d="M798.37,268.26,791.6,262V416.46s-.47,7.67-.79,12.66l14.33,14.49V261.93Z" transform="translate(0 0)"/>
          <path class="cls-5" d="M809,437.84c0,5,9.07,16.55,13.46,19.19V262l-6.69,6.25L809,262Z" transform="translate(0 0)"/>
        </g>
        <g>
          <path class="cls-6" d="M752.79,421.08l-4.94-3.39s-.33,1.64-.76,3.87c2.12,2.89,14.26,19.46,20.27,27.55,1.49,2,2.75,7.13,2.75,7.13s2.19-1,2.19-2.91-.24-4-.24-4a6.24,6.24,0,0,0,4.46,1.87c0-2.26-4.37-4.71-4.54-7.92,3.33,2.47,6.22,1.2,10.07,2.39,4.2,1.29,5.36,3.05,6.65,3,.76,0,1.44-1.34,1.15-2.15-.5-1.39-5.68-5.23-9.31-5.93-.87-.17-7.7,1.49-9.08-.64l-15.77-24.32a5.25,5.25,0,0,1-1.55-.56s.05,4.47-1.35,6.05Z" transform="translate(0 0)"/>
          <path class="cls-6" d="M784.53,448.35a.75.75,0,0,0,0,1l2.23,1.95a.76.76,0,0,0,1-.12.74.74,0,0,0-.05-1l-2.22-1.95a.68.68,0,0,0-.52-.16.82.82,0,0,0-.52.28Z" transform="translate(0 0)"/>
          <path class="cls-6" d="M781.15,450.7a1.73,1.73,0,0,0,.08,2.47l5.41,4.74a1.8,1.8,0,0,0,2.51-.28,1.78,1.78,0,0,0-.08-2.51l-5.41-4.7a1.77,1.77,0,0,0-1-.4A1.89,1.89,0,0,0,781.15,450.7Z" transform="translate(0 0)"/>
          <path class="cls-6" d="M778,454.36a1.75,1.75,0,0,0,.08,2.47l5.46,4.74a1.75,1.75,0,0,0,2.47-.28,1.8,1.8,0,0,0-.08-2.51l-5.42-4.69a1.6,1.6,0,0,0-.91-.4,2,2,0,0,0-1.6.67Z" transform="translate(0 0)"/>
          <path class="cls-6" d="M776.17,457.27a1.84,1.84,0,0,0-1.55.64,1.77,1.77,0,0,0,.08,2.5l5.42,4.7a1.84,1.84,0,0,0,2.42-2.74l-5.45-4.74a1.55,1.55,0,0,0-.92-.36Z" transform="translate(0 0)"/>
        </g>
      </g>
      <path class="cls-5" d="M689.06,160.72c8.91,0,15.18,4.06,23.61,7.8,2.21,1,4.24,1.77,6.05,2.39a7.52,7.52,0,0,0-2.27,2.87,8.58,8.58,0,0,1,5.5,3.86s-3.6.41-4.18,2.51c2,.15,4,2.69,4,5.13l-5.1-1.59a64.29,64.29,0,0,1,1.23,11.95c0,3.17-4.57,6.91-4.57,12.3,0,16.9,4.26,23.4,7.28,28.63,1.19,2,2.15,4.4,4.14,6.17-8.72-4.65-15.21-10.45-15.21-15.85V206.47H707.3v20.42a13.5,13.5,0,0,0,1,5.74c1.37,4.32,4.14,11,5.85,13.69-8-4.34-12.1-9.77-12.1-11.78V206.47h-2.27v28.47l.44,1.95a16.94,16.94,0,0,1-3.11,3.78,17.22,17.22,0,0,1-3.07-3.78l.44-1.95V206.47h-2.27v28.07c0,2-4.07,7.44-12.1,11.78,1.71-2.69,4.48-9.37,5.85-13.69a13.33,13.33,0,0,0,1-5.74V206.47H684.6v20.42c0,5.39-6.46,11.21-15.17,15.85,2-1.78,2.92-4.14,4.1-6.17,3.31-5.72,7.4-13,7.4-33.65,0-7.75-1.14-13-3.14-16.72-.61-1.22-1.43-4.46,3.22-4.46,2.41,0,7.93,4.26,7.93,4.26a7.64,7.64,0,0,0-3-5.33,3.33,3.33,0,0,1-1.23-2.28,4.78,4.78,0,0,1,2.15-2.86c.64-.3-9.48-2.06-9.48-6.65,0-1,.6-1.59,2.71-1.59,2.75,0,7.24,3.3,11.23,3.3,2.94,0,4.1-.72,7.12-.72,3.69,0,11.38,7,14,6.73-2.95-1.85-7.7-8.84-14.89-8.84-2.5,0-4.76.56-7.09.56-3,0-5.93-2.75-9.16-2.75-2.16,0-4.58.12-4.94-.44-.62-1-.06-1.54.52-2.35,1.1-1.52,4.17-2,7.21-2.06.91,0,1.82-.05,2.67,0s1.63,0,2.31,0Z" transform="translate(0 0)"/>
      <path class="cls-1" d="M660.12,171.65a7.53,7.53,0,0,1,6.64-3.57c2,0,8.55-.13,8.55-.13.87,2.27,4.86,6.07,4.86,10,0,0-4-7.29-15.34-7.29a11,11,0,0,0-4.71,1Z" transform="translate(0 0)"/>
      <path class="cls-6" d="M678.49,179.36a18.94,18.94,0,0,0-2.93,3.88c-2.38-.9-6.54-5.18-6.54-5.18s3.52,2.06,9.46,1.3Z" transform="translate(0 0)"/>
      <path d="M674.67,172.64s-2.77-.89-2.77-1.82c0-1.19,1.35-1.19,2.15-.26a4.2,4.2,0,0,1,.62,2.08Z" transform="translate(0 0)"/>
      <ellipse cx="686.62" cy="172.71" rx="3.98" ry="3.14"/>
      <circle class="cls-4" cx="686.62" cy="172.71" r="2.77"/>
      <circle cx="686.62" cy="172.71" r="1.18"/>
    </g>
    <g>
      <g>
        <polygon points="623.29 460.41 635.89 467.28 632.84 481.3 620.23 474.43 623.29 460.41"/>
        <path d="M564.59,325.68l-4.54,2.07,51.28,112.33h5.46Zm60.48,132.47-3.7,3.82,2.31,5.1,4.5-2.07Z" transform="translate(0 0)"/>
        <path d="M580.52,414.24s4.32,8.93,7.61,10.15c-1.7-.46-7.21,1.56-7.21,1.56s9.72,8.68,18,9.25c7,.49,10.39-3,10.39-3l-1.4-7.41a27.73,27.73,0,0,0-11.12-7.55c-6.92-2.41-16.23-3-16.23-3Z" transform="translate(0 0)"/>
        <path d="M613.09,398.26s-6,5.11-7.6,11,1.07,12.64,1.07,12.64l5,9.35s6.94-3.7,9.9-9.23,1.87-13,1.87-13-5.5,2-6.2,2.95c1.16-6.13-4-13.75-4-13.75Z" transform="translate(0 0)"/>
        <path d="M593.92,395.87a40.39,40.39,0,0,1-13.37,1.9c-6.28-.38-11.5-5.65-11.5-5.65s5.2-3.52,7.77-3.05C574,388,569.9,381,569.9,381s5.82-1.76,11,.19,9.66,7.6,9.66,7.6l3.38,7.12Z" transform="translate(0 0)"/>
        <path d="M596.25,362.74s3.39,7,2.59,9.47c1-1.63,5-4.16,5-4.16s2.41,11.37.11,18.4-9.31,9.7-9.31,9.7l-7.74-15s-1.15-5.58,1.26-10,8.06-8.38,8.06-8.38Z" transform="translate(0 0)"/>
        <path d="M552.11,344.14a32.52,32.52,0,0,1,14,2,13.56,13.56,0,0,1,7.33,6.56l2.76,7.41s-8,3-14.29.7S551,351,551,351s4.41-1.67,6.09-1c-2.44-1.08-5-5.77-5-5.77Z" transform="translate(0 0)"/>
        <path d="M575.17,330.4s3.22,4.13,3.32,8.88c.86-2.52,4.87-5.32,4.87-5.32s4.13,10,3.23,17.1-6.85,11.3-6.85,11.3l-7.42-14.07s-2.41-5.77-1.7-10.24,4.55-7.65,4.55-7.65Z" transform="translate(0 0)"/>
        <path d="M549.78,303.49s-1.33,7.66.93,12.08c2,3.94,3.31,4.8,3.31,4.8-3.85-2.54-9.68-2.76-9.68-2.76s2.07,8.34,7,12.14S564,332.67,564,332.67s5-6.69,4.68-13.9-6.07-14.93-6.07-14.93-2.26,4.68-2.46,8.18c-1.46-3.61-10.33-8.53-10.33-8.53Z" transform="translate(0 0)"/>
        <path d="M609.67,431.88l.2,2.75c4.57,0,5.25-.42,6.43,1a3.88,3.88,0,0,0,4.5.94,3.77,3.77,0,0,0,1.85-5,3.57,3.57,0,0,0-4.26-1.94c-1,.2-1.7,1-2.57,1.47-1.66.86-6.15.71-6.15.71Z" transform="translate(0 0)"/>
        <path d="M609.27,429.78l2.22,1.63c-2.38,3.9-3.12,4.23-2.52,6a3.87,3.87,0,0,1-1.59,4.32,3.76,3.76,0,0,1-5.18-1.06,3.56,3.56,0,0,1,.61-4.64c.71-.76,1.76-.9,2.6-1.4,1.61-.95,3.86-4.84,3.86-4.84Z" transform="translate(0 0)"/>
        <path d="M593.79,397.11l.21,2.75c4.57,0,5.25-.41,6.42,1a3.86,3.86,0,0,0,4.5.94,3.76,3.76,0,0,0,1.85-5,3.56,3.56,0,0,0-4.26-1.94c-1,.21-1.7,1-2.57,1.47-1.65.86-6.15.71-6.15.71Z" transform="translate(0 0)"/>
        <path d="M594.72,398.08l1.94,2c-3,3.48-3.75,3.7-3.43,5.52a3.88,3.88,0,0,1-2.23,4,3.77,3.77,0,0,1-5-1.85,3.56,3.56,0,0,1,1.32-4.49c.83-.64,1.89-.62,2.8-1,1.73-.69,4.56-4.19,4.56-4.19Z" transform="translate(0 0)"/>
        <path d="M578.41,364.56l.21,2.75c4.57,0,5.25-.41,6.42,1a3.85,3.85,0,0,0,4.5.94,3.77,3.77,0,0,0,1.85-5,3.57,3.57,0,0,0-4.26-1.94c-1,.21-1.7,1-2.57,1.47-1.66.86-6.15.71-6.15.71Z" transform="translate(0 0)"/>
        <path d="M579.68,364l1.94,2c-3,3.48-3.75,3.7-3.43,5.53a3.89,3.89,0,0,1-2.23,4,3.77,3.77,0,0,1-5-1.85,3.56,3.56,0,0,1,1.32-4.49c.82-.64,1.88-.62,2.79-1,1.74-.69,4.57-4.19,4.57-4.19Z" transform="translate(0 0)"/>
        <path d="M562,330.2l.21,2.75c4.57,0,5.25-.41,6.42,1a3.87,3.87,0,0,0,4.5.95,3.76,3.76,0,0,0,1.85-5,3.56,3.56,0,0,0-4.26-1.94c-1,.2-1.7,1-2.57,1.47-1.65.86-6.15.71-6.15.71Z" transform="translate(0 0)"/>
        <path d="M563.29,329.62l1.94,2c-3,3.48-3.75,3.7-3.43,5.53a3.88,3.88,0,0,1-2.23,4,3.77,3.77,0,0,1-5-1.85,3.56,3.56,0,0,1,1.32-4.49c.83-.64,1.89-.62,2.8-1,1.73-.69,4.56-4.19,4.56-4.19Z" transform="translate(0 0)"/>
      </g>
      <g>
        <polygon class="cls-4" points="625.11 464.38 632.92 468.64 631.03 477.34 623.21 473.08 625.11 464.38"/>
        <path class="cls-4" d="M590.89,389c-1.64.68-4.07-6.45-5.85-10.36s-5.55-10.19-4.49-10.67,2.68,2.71,4.56,6.82,7.32,13.57,5.78,14.21Z" transform="translate(0 0)"/>
        <path class="cls-4" d="M574.07,351.4c-1.64.68-3.43-4-5.21-7.9s-3.62-6.84-2.56-7.32,2.87,3,4.37,6.27,4.93,8.31,3.4,8.95Z" transform="translate(0 0)"/>
        <path class="cls-4" d="M613,436.56c-1.29.34-6.9-11.41-11.44-21.35s-7.91-18-6.86-18.46,4.84,8.86,9.37,18.8,9.89,20.75,8.93,21Z" transform="translate(0 0)"/>
      </g>
      <g>
        <path class="cls-7" d="M552,308.15s-.19,5.6,1.66,8.77,6,4.45,6,4.45.2-5.6-1.65-8.78S552,308.15,552,308.15Z" transform="translate(0 0)"/>
        <path class="cls-7" d="M548.16,320.82s4.87.28,7.68,2.44,3.89,6.63,3.89,6.63a9.28,9.28,0,0,1-6-1.82C550.89,325.92,548.16,320.82,548.16,320.82Z" transform="translate(0 0)"/>
        <path class="cls-7" d="M563.43,309.51a19.49,19.49,0,0,0-1.43,7.71,24.46,24.46,0,0,0,2.52,8.5s2.11-4.8,1.92-8.8-2.45-6.28-3-7.41Z" transform="translate(0 0)"/>
        <path class="cls-7" d="M555.24,345.57a18.55,18.55,0,0,0,6.06,5.15c3.68,1.82,9.16,1.88,9.16,1.88a21.27,21.27,0,0,0-6.41-5.36c-3.68-1.82-8.81-1.68-8.81-1.68Z" transform="translate(0 0)"/>
        <path class="cls-7" d="M556.42,353.31a12.09,12.09,0,0,0,5,4.92c3.21,1.47,9.78,1.35,9.78,1.35a18.32,18.32,0,0,0-5.73-4.69c-3.22-1.47-9-1.58-9-1.58Z" transform="translate(0 0)"/>
        <path class="cls-7" d="M574.91,335a13.37,13.37,0,0,0-1.75,6.74,19.2,19.2,0,0,0,2.51,7.4,24.22,24.22,0,0,0,1.44-8,12.33,12.33,0,0,0-2.2-6.18Z" transform="translate(0 0)"/>
        <path class="cls-7" d="M582.06,339.51s-3.32,4.45-3.8,9,1.89,9.28,1.89,9.28,4-4,4.49-8.6-2.58-9.72-2.58-9.72Z" transform="translate(0 0)"/>
        <path class="cls-7" d="M572.9,381.82a9.71,9.71,0,0,0,1.79,3.39,26.57,26.57,0,0,0,3.76,3.61,10.86,10.86,0,0,1,5.15-.12,25.08,25.08,0,0,1,6.64,3.15s-4.08-6.09-8.32-8.45a15.38,15.38,0,0,0-9-1.58Z" transform="translate(0 0)"/>
        <path class="cls-7" d="M572.48,392.29s5.29-2.26,9.64-1.68,8.27,4,8.27,4-5.88,2-10.23,1.46a15.5,15.5,0,0,1-7.68-3.8Z" transform="translate(0 0)"/>
        <path class="cls-7" d="M594.81,367.72s-4.67,4.95-5.06,9.25,3.79,8.3,3.79,8.3a12.52,12.52,0,0,1,.51-4.57A18.18,18.18,0,0,1,596.3,377a11.33,11.33,0,0,0,.4-4,18.25,18.25,0,0,0-1.89-5.24Z" transform="translate(0 0)"/>
        <path class="cls-7" d="M601.52,373.46s-4.41,4.45-5.57,9.22.91,9.86.91,9.86a16.3,16.3,0,0,0,5.17-7.93c1.16-4.77-.51-11.15-.51-11.15Z" transform="translate(0 0)"/>
        <path class="cls-7" d="M612.55,402.22a32.38,32.38,0,0,1,2.5,7.65c.5,3.48,0,4.68,0,4.68s-2.06,2-3,3.22a9.5,9.5,0,0,0-1.37,4.34s-4.14-6.16-3.5-10.66,5.32-9.23,5.32-9.23Z" transform="translate(0 0)"/>
        <path class="cls-7" d="M621.27,411.86s-5.3,3.5-7.4,7.09a10,10,0,0,0-1,7.27,8.19,8.19,0,0,0,5.89-3.92c2.1-3.59,2.53-10.44,2.53-10.44Z" transform="translate(0 0)"/>
        <path class="cls-7" d="M586.43,426.65s7.64-.21,12.31.94,6.37,3.65,6.37,3.65-5.25,2.46-9.92,1.31-8.76-5.9-8.76-5.9Z" transform="translate(0 0)"/>
        <path class="cls-7" d="M585.14,417.58s3.44,5.35,7.9,7.29c6.14,2.67,13.26,1.37,13.26,1.37a25.82,25.82,0,0,0-9.18-6.82c-5.32-2.09-12-1.84-12-1.84Z" transform="translate(0 0)"/>
      </g>
      <path d="M846.8,312.62l1,2.11a4.59,4.59,0,0,0-2.35,2c-.73,1.44.48,3.47.48,3.47s-8.4-.74-9.71.12.5,6.59-.28,11.5c-1.09,6.86-3.8,6.28-3.91,7.61a7.8,7.8,0,0,0,1,3.3s-1.58.5-1.91,1.16c-.54,1.06.37,3-.28,4.3-3.66,7.17-9,17.76-12.62,24.76-.5,1-1.84,1.36-2.51,2.67a4.85,4.85,0,0,0-.12,3s-2.37.14-3.19,1.75a6.94,6.94,0,0,0-.36,4,3.15,3.15,0,0,0-2.23,1.63c-.78,1.54.55,2.35.21,3-4.8,9.41-10.45,20.51-13.9,27.28-1.27,2.48-5.71,3-8.28,8a7.47,7.47,0,0,0,1.07,8.52s-3.71.34-4.7,2.27a5.13,5.13,0,0,0,9.08,4.62c1-1.94-1-5.14-1-5.14a7.52,7.52,0,0,0,7.52-4.18c2.58-5.06.41-8.9,1.67-11.39l13.9-27.27c.35-.68,1.76-.09,2.55-1.63a3.1,3.1,0,0,0,0-2.75,7,7,0,0,0,3.06-2.67c.83-1.61-.43-3.62-.43-3.62a4.79,4.79,0,0,0,2.35-1.83c.67-1.32.17-2.61.67-3.59l12.62-24.76c.66-1.29,2.77-1.73,3.31-2.79.34-.66-.2-2.23-.2-2.23a7.56,7.56,0,0,0,3.3-1.08c1-.87-1-2.73,3.87-7.64,3.52-3.52,9.19-5.6,9.12-7-.09-1.56-5.62-7.92-5.62-7.92s2.34-.2,3.07-1.63a4.73,4.73,0,0,0,.24-3.11l2.31-.4V306.17Zm-76.33,152.5a2.73,2.73,0,0,0,0,2.43s-2.79-.87-3.74-.4,0,13.58,0,13.58,11.11-7,10.94-8-2.5-2.83-2.5-2.83a2.66,2.66,0,0,0,2-1.39c.36-.72.41-2.78-2.11-4.06a4.43,4.43,0,0,0-2.47-.56,2.63,2.63,0,0,0-2.07,1.23Z" transform="translate(0 0)"/>
      <g>
        <path class="cls-4" d="M848.82,313.06l5.25,2.67L854,309.4Z" transform="translate(0 0)"/>
        <path class="cls-4" d="M846.79,316.89a3,3,0,1,0,3.9-1,3.31,3.31,0,0,0-1.71-.36,2.62,2.62,0,0,0-2.19,1.4Z" transform="translate(0 0)"/>
        <path class="cls-4" d="M837.75,321.7c-.55.36.2,5.09,0,9.12-.15,3.8-1.37,4.87-2,6.17a10,10,0,0,1-2.83,2.63l1.83,1.83s1.2-1.85,3.07-5.53c2.21-4.34,2.14-12.21,2.79-12.62a48.78,48.78,0,0,1,5.17-1.52s-4.23-.23-6.57-.2A5.31,5.31,0,0,0,837.75,321.7Z" transform="translate(0 0)"/>
        <path class="cls-4" d="M838.23,343.56a63.25,63.25,0,0,1,2.75-5.89c2.58-5.05,8.07-8.72,8.2-9.64s-1.91-5.37-1.91-5.37-4.85.93-5.53,1.59-.38,7.21-3,12.27a60.6,60.6,0,0,1-3.19,5.73Z" transform="translate(0 0)"/>
        <path class="cls-4" d="M850.62,328.39c0,.77-6.35,5.34-8.57,9.68-1.87,3.68-2.66,5.73-2.66,5.73l2.55.4a9.91,9.91,0,0,1,.43-3.82c.67-1.31.84-2.9,3.83-5.26,3.16-2.49,7.44-4.68,7.4-5.33s-4.78-6.49-4.78-6.49a52,52,0,0,1,1.8,5.09Z" transform="translate(0 0)"/>
        <path class="cls-4" d="M831.9,356.78a47.2,47.2,0,0,1,5.5-9c.52-1,.39-2.39-1.32-3.26a2.91,2.91,0,0,0-1.67-.36,2.19,2.19,0,0,0-1.71,1.23,47.54,47.54,0,0,1-4.06,9.76l-8.72,17.08a1.81,1.81,0,0,0,.79,2.55,1.74,1.74,0,0,0,2.47-.88Z" transform="translate(0 0)"/>
        <path class="cls-4" d="M816.49,376.37c-.47.94.34,2.31,1.84,3.07s3.1.61,3.58-.32-.38-2.31-1.87-3.07a4,4,0,0,0-2.15-.47A1.64,1.64,0,0,0,816.49,376.37Z" transform="translate(0 0)"/>
        <path class="cls-4" d="M813.27,381.23c-.62,1.21.34,2.94,2.15,3.86s3.76.69,4.38-.52-.35-2.94-2.15-3.86a5,5,0,0,0-2-.56,2.42,2.42,0,0,0-2.39,1.08Z" transform="translate(0 0)"/>
        <path class="cls-4" d="M811.24,386.65c-.48.93.34,2.3,1.83,3.06s3.11.62,3.58-.32-.34-2.3-1.83-3.06a4.16,4.16,0,0,0-2.19-.48,1.64,1.64,0,0,0-1.39.8Z" transform="translate(0 0)"/>
        <path class="cls-4" d="M809.92,391.82s-9.68,19.06-13.1,25.76c-1.09,2.14-5.68,3.48-7.48,7s-.54,6.88,1.83,8.08,5.83.33,7.64-3.22.19-8.05,1.28-10.19l13.1-25.77a1.78,1.78,0,0,0-.76-2.54,1.83,1.83,0,0,0-1.11-.2A2,2,0,0,0,809.92,391.82Z" transform="translate(0 0)"/>
        <path class="cls-4" d="M785.43,436.06c-.73,1.42.1,3.32,1.87,4.22s3.81.46,4.54-1-.14-3.32-1.91-4.22a4.19,4.19,0,0,0-2-.48,2.82,2.82,0,0,0-2.51,1.44Z" transform="translate(0 0)"/>
        <path class="cls-4" d="M772.53,465.16a1.31,1.31,0,0,0-1.19.56c-.37.73.39,1.88,1.71,2.55s2.69.61,3.07-.12-.4-1.88-1.72-2.55a3.89,3.89,0,0,0-1.87-.44Z" transform="translate(0 0)"/>
        <path class="cls-4" d="M768,468.75v9.39l7.65-5.49a8.49,8.49,0,0,0-3.31-3,8.39,8.39,0,0,0-4.34-.91Z" transform="translate(0 0)"/>
      </g>
    </g>
    <g>
      <path class="cls-4" d="M772.83,259.46c0-5.15,6.77-10.23,6.77-10.23H614.52s6.77,5.08,6.77,10.23V382.34a11.19,11.19,0,0,0,2.59,7.41,34.8,34.8,0,0,0,8.48,7.56c10.84,7,29,14.47,42.68,20.71,11.43,5.2,16.08,7.29,22,14.65,5.94-7.36,10.63-9.45,22.06-14.65,13.71-6.24,31.84-13.67,42.68-20.71a34.61,34.61,0,0,0,8.48-7.56,11.17,11.17,0,0,0,2.55-7.41Z" transform="translate(0 0)"/>
      <path class="cls-6" d="M625.19,329V259.46a10.53,10.53,0,0,0-2-6.33H770.92a10.53,10.53,0,0,0-2,6.33L769,329l-71.89,21.78Z" transform="translate(0 0)"/>
      <path class="cls-8" d="M769,329l-44.51-.83H669.71l-44.52.83v53.36c0,2.68,2.79,9,18.84,17,26.53,13.22,46.92,19.39,53,26.92,6.11-7.53,26.51-13.7,53-26.92,16-8,18.83-14.28,18.83-17Z" transform="translate(0 0)"/>
      <g>
        <path d="M723.38,326.2s25.68-6.48,25.68-33.92c0-21.44-25.74-32.08-26.48-37.19-2.51,8.85,8.6,21.08,8.6,35.55,0,18.74-13.81,19.63-13.81,19.63-3.24,0-4.54,2.31-5.82,2.31-2.72-.28-4-3.74-6.69-3.74-2.52,0-4.46,3.9-7.8,3.9s-5.24-3.9-7.76-3.9c-2.69,0-4,3.46-6.69,3.74-1.27,0-2.58-2.31-5.82-2.31,0,0-13.81-.89-13.81-19.63,0-14.47,11.12-26.7,8.6-35.55-.73,5.11-26.48,15.75-26.48,37.19,0,27.44,25.68,33.92,25.68,33.92l-7.32,13.34s10.61.53,16.24,5.33c6.79,5.8,6.13,18.07,6.13,27,0,7-.89,14.46-4.5,17.52-4.84,4.11-8.12,4.41-8.12,9.24,0,4,3.09,4.83,8.12,7.48,6.45,3.4,6.15,8,15.73,8s9.32-4.56,15.77-8c5-2.65,8.12-3.46,8.12-7.48,0-4.83-3.28-5.13-8.12-9.24-3.61-3.06-4.5-10.49-4.5-17.52,0-8.93-.66-21.2,6.13-27,5.63-4.8,16.25-5.33,16.25-5.33Z" transform="translate(0 0)"/>
        <path d="M697.06,257l-4.46,12.67-12.15-5.78L686.23,276l-12.66,4.5L686.23,285l-5.78,12.11,12.15-5.77L697.06,304l4.5-12.66,12.14,5.77L707.93,285l12.66-4.49L707.93,276l5.77-12.15-12.14,5.78Z" transform="translate(0 0)"/>
        <path d="M669.7,328.15s-15.85-3.87-21.77-11.7A61.21,61.21,0,0,1,625.19,329s12.92,5.83,22.74,13.26c4.52-6.49,21.77-14.1,21.77-14.1Z" transform="translate(0 0)"/>
        <path d="M724.45,328.15s17.26,7.61,21.78,14.1C756.05,334.82,769,329,769,329a61.21,61.21,0,0,1-22.74-12.54c-5.92,7.82-21.78,11.7-21.78,11.7Z" transform="translate(0 0)"/>
        <path d="M676.2,345,670,351.2l6.17,6.17,6.17-6.17Z" transform="translate(0 0)"/>
        <path d="M718,345l-6.18,6.17,6.18,6.17,6.17-6.17Z" transform="translate(0 0)"/>
        <path d="M674.65,381.06a72.86,72.86,0,0,1-.76,11.91s8.7-2.56,10.43-11.39c.81-4.14,1.72-19.38-2.47-22l-11.34-2.23a69.77,69.77,0,0,1,4.14,23.69Z" transform="translate(0 0)"/>
        <path d="M712.31,359.6c-4.19,2.6-3.28,17.84-2.47,22,1.73,8.83,10.43,11.39,10.43,11.39a73.81,73.81,0,0,1-.75-11.91,69.51,69.51,0,0,1,4.14-23.69Z" transform="translate(0 0)"/>
        <path d="M647.89,360a7.26,7.26,0,0,0-4.62,10.56,7,7,0,0,0-1.79-.36,6.26,6.26,0,0,0-.75,0,7.3,7.3,0,1,0,1.51,14.49,7.14,7.14,0,0,0-.88,1.55,7.32,7.32,0,1,0,13.58,5.46,7.06,7.06,0,0,0,.44-1.71,7.22,7.22,0,0,0,1.23,1.31,7.31,7.31,0,1,0,7.89-12.14,7.31,7.31,0,0,0-2.71-14.26,7.4,7.4,0,0,0-3.43,1.12,7.61,7.61,0,0,0-1.39,1.11,7.23,7.23,0,0,0-7.6-7.32,7.5,7.5,0,0,0-1.48.19Z" transform="translate(0 0)"/>
        <path d="M725.53,381.3c.79,7.46,6.85,13.71,14.33,15.49a16.79,16.79,0,0,1-2.39-6.88c-.93-8.85,5.91-16,15.25-16a18.08,18.08,0,0,1,4.3.52,19.28,19.28,0,0,0-16.24-9.16C731.43,365.26,724.59,372.46,725.53,381.3Z" transform="translate(0 0)"/>
      </g>
      <g>
        <path class="cls-2" d="M659.24,290.64c0,14.1,7.52,22.42,17.56,22.42,1.91,0,4,2.59,5.81,2.59,2.94,0,4.9-3.27,6.69-3.27,2.28,0,3.81,3.59,7.76,3.59s5.53-3.59,7.81-3.59c1.79,0,3.74,3.27,6.69,3.27,1.8,0,3.89-2.59,5.81-2.59,10,0,17.56-8.32,17.56-22.42,0-11.5-9.66-25.52-8.6-27.79,0,0,18.83,13.51,18.83,29.42,0,25.64-26,32-26,32L725,337.43s-8.06,1.21-13,5.17c-6.56,5.3-6.65,19.6-6.65,29.27,0,11.39.43,16.22,4.54,19.31,4.34,3.26,7.61,4,7.61,7.29,0,2.89-3.38,4.08-7.77,6-5,2.2-5.48,6-12.7,6s-7.67-3.81-12.66-6c-4.38-1.93-7.76-3.12-7.76-6,0-3.33,3.26-4,7.6-7.29,4.12-3.09,4.54-7.92,4.54-19.31,0-9.67-.09-24-6.65-29.27-4.92-4-13-5.17-13-5.17L675,324.25s-26-6.34-26-32c0-15.91,18.84-29.42,18.84-29.42,1,2.27-8.6,16.29-8.6,27.79Zm28,105.88c-5.11,0-8.36,1.08-8.36,2.63s3.25,2.58,8.36,2.58a2.66,2.66,0,0,0,2.9-2.58,2.69,2.69,0,0,0-2.9-2.63Zm19.71,0a2.7,2.7,0,0,0-2.91,2.63,2.67,2.67,0,0,0,2.91,2.58c5.1,0,8.36-1,8.36-2.58s-3.26-2.63-8.36-2.63Z" transform="translate(0 0)"/>
        <path class="cls-2" d="M697.11,265.52,700,273.6l7.73-3.7L704,277.66l8.05,2.87L704,283.4l3.67,7.72L700,287.46l-2.9,8-2.87-8-7.73,3.66,3.67-7.72-8-2.87,8-2.87-3.67-7.76,7.73,3.7,2.91-8.08Z" transform="translate(0 0)"/>
        <path class="cls-2" d="M661.22,328.63l-13.29,9.88-.17.2-.27-.24-14.74-9.24s9.41-3.24,14.94-8.88c5.23,6,13.53,8.28,13.53,8.28Z" transform="translate(0 0)"/>
        <path class="cls-2" d="M761.4,329.23s-9.8,4.88-14.73,9.24l-.28.24-.16-.2c-4.65-5.35-13.3-9.88-13.3-9.88s8.31-2.29,13.54-8.28C752,326,761.4,329.23,761.4,329.23Z" transform="translate(0 0)"/>
        <path class="cls-2" d="M676.2,348l3.22,3.22-3.22,3.27-3.27-3.27Z" transform="translate(0 0)"/>
        <path class="cls-2" d="M718,348l3.26,3.22L718,354.47l-3.23-3.27Z" transform="translate(0 0)"/>
        <path class="cls-2" d="M680.58,362.07c2.25,3.11,1.87,8.14,1.87,15.13a11,11,0,0,1-5.29,9.76c0-17-1.75-21-2.67-26.16Z" transform="translate(0 0)"/>
        <path class="cls-2" d="M719.68,360.79C718.75,365.93,717,370,717,387a10.94,10.94,0,0,1-5.3-9.75c0-7-.38-12,1.87-15.13l6.1-1.28Z" transform="translate(0 0)"/>
        <path id="leaf" class="cls-2" d="M655.53,367.21a5.4,5.4,0,0,1,.12,1.87,5.25,5.25,0,0,1-.35,1.43,8.32,8.32,0,0,0-2.83-.47,8.23,8.23,0,0,0-6.17,2.78,5.66,5.66,0,1,1,9.23-5.61Z" transform="translate(0 0)"/>
        <path class="cls-2" d="M664,377.83a5.55,5.55,0,0,1-3.21.8,8.48,8.48,0,0,0-.42-2.84,8.25,8.25,0,0,0-4.56-5,5.54,5.54,0,0,1,.82-1.35,5.35,5.35,0,0,1,1.35-1.24,5.68,5.68,0,0,1,6,9.64Z" transform="translate(0 0)"/>
        <path class="cls-2" d="M656.54,389.19a5.45,5.45,0,0,1-1.19-1.45,5.27,5.27,0,0,1-.56-1.37,8,8,0,0,0,2.57-1.27,8.21,8.21,0,0,0,3.36-5.88,5.92,5.92,0,0,1,1.54.35,5.61,5.61,0,0,1,2.29,8.92,5.84,5.84,0,0,1-.84.81,5.68,5.68,0,0,1-7.17-.11Z" transform="translate(0 0)"/>
        <path class="cls-2" d="M643.43,385.58a5.61,5.61,0,0,1,1-1.58,5.14,5.14,0,0,1,1.13-.95,8.1,8.1,0,0,0,2,2.05,8.26,8.26,0,0,0,6.64,1.37,6,6,0,0,1,.13,1.58,5.35,5.35,0,0,1-.37,1.79,5.68,5.68,0,0,1-10.54-4.26Z" transform="translate(0 0)"/>
        <path class="cls-2" d="M642.81,372a5.55,5.55,0,0,1,1.82.47,5.36,5.36,0,0,1,1.25.78,8.32,8.32,0,0,0-.59,9.27,5.66,5.66,0,0,1-1.45.62,5.82,5.82,0,0,1-1.83.2,5.69,5.69,0,0,1-5.27-6.07,6.3,6.3,0,0,1,.21-1.15,5.67,5.67,0,0,1,5.86-4.12Z" transform="translate(0 0)"/>
        <circle class="cls-2" cx="652.47" cy="378.36" r="5.49"/>
        <path class="cls-2" d="M748.94,371c-9.12,1.77-15.69,9.83-14.73,19.24a14.3,14.3,0,0,1-5.42-9.24c-.74-7,4.34-12.39,12-12.39a15.67,15.67,0,0,1,8.16,2.39Z" transform="translate(0 0)"/>
      </g>
    </g>
  </g>
</svg>
