<?xml version="1.0" encoding="utf-8"?>
<!-- Generator: Adobe Illustrator 23.1.0, SVG Export Plug-In . SVG Version: 6.00 Build 0)  -->
<svg version="1.1" id="Layer_1" xmlns="http://www.w3.org/2000/svg" xmlns:xlink="http://www.w3.org/1999/xlink" x="0px" y="0px"
	 viewBox="0 0 1050 700" style="enable-background:new 0 0 1050 700;" xml:space="preserve">
<style type="text/css">
	.st0{fill:#198A00;}
	.st1{fill:#DE2010;}
	.st2{fill:#EF7D00;}
	.st3{fill:#EF7D00;stroke:#000000;stroke-width:1.125;stroke-linecap:round;stroke-linejoin:round;}
</style>
<rect y="0" class="st0" width="1050" height="700"/>
<rect x="675" y="250" class="st1" width="250" height="450"/>
<rect x="800" y="250" class="st2" width="250" height="450"/>
<rect x="800" y="250" width="125" height="450"/>
<g>
	<path class="st3" d="M958.2,84.2c0,0,43-16.9,47.2-20.3c1.9,2.1-17.2,23.3-54.4,31.1c33.7-7.3,62.5-30.2,68.4-29.5
		c1.7,0.3,1.3,22.4-76,41.5c53.4-12.9,84.5-36.5,84.1-33.9c0.4,0.5-5.3,18.6-52.1,32.7c13.1-2.8,48.5-22.6,48.1-18.8
		c1.1,1.6-34.3,43.3-98.3,29.7c51.1,12.2,84.3-17.2,89-16.7c0.9,0.2-9.5,25.7-73.9,27.3c30.9-3,22-0.2,22-0.2s-18.2,13-40.2,4.2
		c17.2,4.3,19.1,4.5,19.5,5.9c-1.1,1.7-15.3,4.3-29-2.4c11,4.2,20.8,4.9,21,6.4c-0.2,0.5-7.2,4.2-13.4,1.6
		c-6.3-2.6-63.8-35.1-63.8-35.1L954.6,83L958.2,84.2z"/>
	<path class="st3" d="M842.9,172.1c-8.6,0-8.9,7-8.9,7s-0.7,0.5-0.2,3.9c1.4-2.3,2.1-3.1,2.1-3.1c1,0.1,4.9,1.2,11.2-3.3
		c-5.7,5.4-2.3,7.5-2.3,7.5s-1.3,4.3,3,5.2c-1.3-1.7-0.6-3.3-0.6-3.3s6.1-0.6,5.7-7.4c0.2,6.2,3.9,7.7,3.9,7.7s0,3.4,4,3.7
		c-2.1-1.7-1.7-4.4-1.7-4.4s5.1-3.4,0.8-9.2c2.6-1.4,4.8-5.2,4.8-5.2s-3.6-1.4-5.2-2.5c-0.8-1.5-0.1-9.9-0.1-9.9l-2.1-10.8
		l-6.1,16.8C851.3,162.4,851.5,172.1,842.9,172.1z"/>
	<path class="st3" d="M885.5,147.8c0.2,0.2,6.4,6.6,12.5,6.3c2.3-1.7-4.7-5.6-4.7-6.4c2.5,2.1,12.9,10.3,19.5,7.3
		c2.7-3.5-4.7-3-12.9-12.3c5.7,3.5,19.9,11.1,26.5,8.2c2.8-2.8-14.8-11.5-20.6-18.2l-15.2-7.1l-20.6,15.5L885.5,147.8z"/>
	<path class="st3" d="M862.2,94.9c0,0,7-3.8,35-1.9c3,0.3,19.1-5,24.2-6.6c8.1-1.4,34.1-6.6,41.1-11.5c4.9-0.5-1.3,8.3-7.6,10.4
		c-6.6,2.8-30.7,10.4-39.2,9.4c10.2,0.2,4.5,7.8-12.5,4.2c8.1,4.2,5.1,4.9,5.1,4.9s-14.4,0.7-18.2-2.3c9.7,3.3,5.7,4.5,5.7,4.5
		s-9.8,0.9-14.4-1c7,1.9,3.4,3.1,3.4,3.1s-5.7,0.9-10.4-0.7C869.7,105.9,862.5,94.9,862.2,94.9z"/>
	<path class="st3" d="M873.4,151.4l1,17c0,0-0.6,0.9-1,1.4c-0.5,0.5-13.1-1.8-11.4,7c0,3.6,0.1,4.6,2.8,6.6
		c-0.7-2.4-0.5-4.1-0.5-4.1s3.6,2,7-3.4c-2.4,5.3-0.7,7.2-0.2,7.3c0.6,0.9-0.9,5.2,3.8,5.2c-1.8-1.6-0.9-3.9-0.9-3.9s5-0.7,3.2-9
		c1.8-1.7,2.5-0.1,2.5-0.1s0.6,4.9,4.9,3.9c2,1-0.3,3.7-0.3,3.7s3.2,0.1,4.1-2.4c1-2.5,2.1-6.9-3.2-8.7c-0.6-1.7,2.1-1.9,2.1-1.9
		s3.3,1,4.3,2.5c1,1.5,0.6-4-3.5-4.6c-5.1-0.1-5.4-1.1-5.4-1.3c0-0.2-0.9-12.3-1.3-15.8L873.4,151.4z"/>
	<path class="st3" d="M891,165.8c0.1-0.8-8.6-11.5-6.4-12.9c2.2,0.4,5.8,5.3,8.8,3.7c-0.9-1.9-3.5-0.8-6.5-5.7
		c-3-5.5-3.4-13.8-13.8-22.8c6.7,9.6,22,15.2,22.7,12.4c0.6-2.8-13.5-13.3-12.7-15.9c2.8,5.2,17,16.8,27.4,15.9
		c0.7-2.2-8.6-6.8-10.9-11c-6.7-4.1-24.5-18.2-24.9-21.5c-6.5-8.7-10.6-11.3-12.4-12.3c-0.7-0.8-0.9-1.5-1.1-2
		c-4-8.7,1.3-11.6,4.4-12c2.6-0.3,3.3,0.1,5.2-0.7c-2.2-0.8-4.4-1.5-6.6-2.3c2.9,1.9,10.2,0.2,8.6,5.8c3.2-1.1,10-8.6-7.7-10.2
		c-5.8-6.1-29.5-9.6-35.4,16.9c0.5,0.4,0.7,0.7,2.2,1.7c-7.5-3.3-27.7-5.9-35-7c-19.7-5.2-40.1-17.8-42.1-16.2
		c-2.6,1.1,11.9,13.5,11.1,13.7c-12.6-6.7-24.1-11.5-34.8-15.8c-7.5-2.6-15.1-8.6-15.9-7.4c-2.8,5.3,12.1,18.5,14.8,20.1
		c2.8,1.5,24.5,10.7,24.2,10.8c-32.7-13.6-38.2-16.1-39.8-17.7c-2.9-0.6-9.9-9.3-11.9-8.7c-1.1,1,1.1,14.7,16.7,20.9
		c2.5,1.7,33.5,11.9,33.1,12.7c-0.1,0.2-35.4-13.4-36.8-13.9c-6.8-2.4-15.2-11-16.7-10.1c-1.5,0.9,3.9,10.2,10.7,13.1
		c3.6,1.5,17.4,7.7,29.9,11.7c0.8,0.3-22.4-8.1-33.6-12.3c-5.1-2.6-7.4-5.8-8.2-5.1c-1.1,0.7,1.8,14.4,37.7,22.2
		c0.9,0.4,12.6-2.5,12-2.2c-0.1,0.1-11.6,2.4-12.7,2.3c-1-0.1-7.3,0.7-7.4,1c-0.4,0.9,2.3,5.8,20.8,4.8c2.4-0.1,15.2-4.3,14.1-3.4
		c-0.5,0.4-17.5,5.5-18.8,5.6c-1.1,0.1-7.1,0.7-7.3,1.3c-0.3,0.8,4.4,4.3,14.3,4.9c8.8,0.4,25.5-4.9,25.2-4.6
		c-0.3,0.3-16.1,5.3-16.5,5.6c-0.6,0.3-6.4,0.6-6.6,1c-0.5,1,8.3,8.6,34.4,0.5c-2.6,3.2-15.2,5.5-15.2,6c-0.1,0.4,2.8,2.9,7.2,3.8
		c2.2,0.5,5.2,0.4,8,0c5-0.9,10.2-2.7,16.8-8.3c0.8,1.8-16.6,9.8-15.8,10.6c3.8,3.2,16.3-0.4,17.1-0.8c0.8-0.4,24.1-12.5,24-13.9
		c0.4,1.8-30,16.9-29.7,17.6c2,2.9,12.3-0.1,12.8-0.4c0.5-0.3,13.2-6.6,13.6-6.8c0.3-0.2-15,8.2-13.6,9.5
		c-0.7,5.5,23.9-3.8,25.9-4.9c1-0.6-11.8,5.2-11.9,7.9c4.1,6.4,17.3,4.4,19.3,3c1-0.7-1.2,4.7-0.5,4.2c0.2-0.1,2.9-2.9,3.9-5
		c-0.3,1.8-1.8,4.6-2.6,7.8c-0.8,3.2-1.1,6.9-2.2,10.7c-0.3,1.7,8.1-3.3,6.9-15.3c0.7,6.2-2.6,17.9-1.8,18.5
		c1.8,1.2,6.6-5.8,7.1-10.6c1.4,2.4,4.5,7.4,7.1,8.6c-0.3-3.6,0.1-3.5-1.1-7c0.7-4.7,0.8-11.3,0.9-18.7c7.1,12.5,9.9,17.7,7.9,27.3
		c2.1,0.8,5.5-6.7,5.2-10.5C879.1,164.5,890.8,166.1,891,165.8z"/>
	<path class="st3" d="M772.8,86.6c0,0-4.8,3.3-10.8,3.2c1.5,5.5,14,1.3,14,1.3s-6,6.1-10.3,7.1c2.6,2,13.4,1.3,15.2,0.3
		c1.8-1,5-4.8,5-4.8s-11.2,11.8-12.8,11.7c-0.2,1.4,11.7,0.9,14.2-1.2c2.5-2.1,8.7-5.1,8.7-5.1s-16.3,10.4-17.1,10.4
		c6.1,1.5,18.4-1.8,26.2-6.2c-11.6,7.1-12.7,8.4-18.6,10.7c5.3,1.1,7.9,4.3,25.8-2.8c10.2-4.4,16-12.5,16-12.5
		c-6.3,7.8-16.3,14.4-27.4,20.9c-0.6,1.2,11.8,6,27.7-9.2"/>
	<path class="st3" d="M859.1,119.5c0,0,1.1,4.6,5.4,8.2c4.3,3.5,4.6,7,4.6,7"/>
	<path class="st3" d="M857,89.4c0,0,1.5,4.1,5.9,6.8c4.5,2.7,11.3,11,11.8,12.5c0.5,1.8,3.1,14.7,2.9,16.1"/>
	<path class="st3" d="M829.6,95.8c0.3,1.6-6.3,9.6,2.8,18.9c-8.3,9.3-8.3,10.4-8.3,10.4s4.6,2.4,12.9-4.1
		c13.6,15.4,9.1,22.4,9.1,22.4"/>
	<path class="st3" d="M845,132.6c0,0-1.3-1.7,1-7.8c2,2.2,4.3,2.7,5.2,3.6c1,0.9,11.3,2.3,11.9,8.6"/>
	<path class="st3" d="M857.1,74.7c0-0.5-2.1-4.5-9.8,0.6C851.4,75.5,855.5,77.7,857.1,74.7z"/>
	<path class="st3" d="M930.9,93.4c0.4,0.2,23.1,4.7,30.7,2.4c-9.7,11.8-29,3.8-29,3.8c9.5,2.6,9.9,2.4,12.9,4.9
		c0.9,2.3-17.4,1.2-23.5-1.9c16.9,4.9,17.2,4.5,17.8,6.4c0.8,2.6-27.7-0.7-30.1-4.2c7.6,5.4,11.7,6.4,15.9,8.9
		c-5.1,2.1-14.6,4.2-32-7.1c22.9,19.1,43.6,17.9,46.8,21.4c-8,10.8-38.8-6.4-53-15.1c-14.2-8.7,31.1,21,35.2,20.5
		c-2.1,3-17,0.3-18-1"/>
	<path class="st3" d="M936.8,113.4c-2.7,0.3-10.6,0.3-11.7,0.2"/>
	<path class="st3" d="M766.1,83.5c0,0,17.3,8.4,24.6,7.8c-1.9,1.7-4.8,2.4-4.8,2.4c1.8,0.7,6.9,3.2,14.5,1.6
		c-1.8,1.7-4.2,3.5-4.2,3.5s6.6,2.3,14-1.3c-2.3,2.6-3.5,4.4-3.5,4.4l5.2,0.3"/>
</g>
</svg>
