<?xml version="1.0" encoding="utf-8"?>
<!-- Generator: Adobe Illustrator 23.1.0, SVG Export Plug-In . SVG Version: 6.00 Build 0)  -->
<svg version="1.1" id="Layer_1" xmlns="http://www.w3.org/2000/svg" xmlns:xlink="http://www.w3.org/1999/xlink" x="0px" y="0px"
	 viewBox="0 0 1400 700" style="enable-background:new 0 0 1400 700;" xml:space="preserve">
<style type="text/css">
	.st0{fill:#012169;}
	.st1{stroke:#FFFFFF;stroke-width:69.9999;}
	.st2{clip-path:url(#SVGID_2_);stroke:#C8102E;stroke-width:46.6666;}
	.st3{stroke:#FFFFFF;stroke-width:116.6665;}
	.st4{stroke:#C8102E;stroke-width:69.9999;}
	.st5{fill:#FFFFFF;}
	.st6{fill:#00A2BD;stroke:#000000;stroke-width:2.1146;}
	.st7{fill:#A53D08;}
	.st8{fill-rule:evenodd;clip-rule:evenodd;fill:#FF9A08;stroke:#000000;stroke-width:1.1289;}
	.st9{fill:#FF9A08;stroke:#000000;stroke-width:1.1289;}
	.st10{fill:none;stroke:#FFDF00;stroke-width:1.1289;stroke-linecap:round;}
	.st11{fill:none;stroke:#FFDF00;stroke-width:2.1146;stroke-linecap:round;}
	.st12{fill:#008021;stroke:#000000;stroke-width:0.4651;}
	.st13{fill:#FFE1CF;stroke:#000000;stroke-width:0.4651;}
	.st14{fill:#870F00;stroke:#000000;stroke-width:0.4651;}
	.st15{fill:none;stroke:#000000;stroke-width:0.4651;}
</style>
<rect y="0" class="st0" width="1400" height="700"/>
<path class="st1" d="M0,0l700,350 M700,0L0,350"/>
<g>
	<defs>
		<path id="SVGID_1_" d="M0,0v175h816.7v175H700L0,0z M700,0H350v408.3H0V350L700,0z"/>
	</defs>
	<clipPath id="SVGID_2_">
		<use xlink:href="#SVGID_1_"  style="overflow:visible;"/>
	</clipPath>
	<path class="st2" d="M0,0l700,350 M700,0L0,350"/>
</g>
<path class="st3" d="M350,0v408.3 M0,175h816.7"/>
<path class="st4" d="M350,0v408.3 M0,175h816.7"/>
<path class="st0" d="M0,350h700V0h700v700H0V350z"/>
<g>
	<path class="st5" d="M897.7,172.1h299.7l-0.4,213.3c2.5,85.7-50.9,138.9-149.3,162.9c-69.8-17.3-150.3-53.2-150.4-160.5
		L897.7,172.1L897.7,172.1z"/>
	<path class="st6" d="M904.3,178.5h286.4l-0.3,204.3c2.4,82.1-48.7,133.1-142.6,156.1c-66.7-16.6-143.7-51-143.8-153.8L904.3,178.5
		L904.3,178.5z"/>
	<path class="st7" d="M1188.5,407.1c-10.4,78.4-70.8,112.7-140.8,130.9c-61.9-16.6-128.5-43.1-141.4-130.5L1188.5,407.1
		L1188.5,407.1z"/>
	<path d="M1036.4,216.6l-0.4-25.8l20.4,0.2l0.2,25.6h55.7l0.2,20l-55.9,0.2l-0.4,235.5l-19.9,0.1l-0.3-235.8l-55.5,0.2l0-20.4
		L1036.4,216.6z"/>
	<g>
		<path class="st8" d="M991.3,416.8l51,52.9c17.6-19.4,5.4-91.8-17.8-105.2c-2.8,8.6-7.5,18.9-12.5,22.2
			c-11.1,7.5-38.1,16.3-29.1,22c2.1-2.9,7.5-5.6,10,0.8c3,10-11.3,10.6-11.3,10.6s-9.1-1.1-10.6-10.3c-1.6-9.2,13.5-17.6,14.8-18.3
			c1.3-0.5,21-5.7,24.3-23.2c4.1-17.2,8.4-14.6,9.2-14.9c25.7,2.5,42.6,48.6,43.5,81c1,32.4-13.2,53.8-15.7,55.3
			c-2.5,1.4-61.3-69.7-61.3-69.7L991.3,416.8L991.3,416.8z"/>
		<path class="st9" d="M1028.5,367.6l0.3,95.5"/>
		<path class="st9" d="M1022.8,369.3c0,0.2,0.3,86.7,0.3,86.7"/>
		<path class="st9" d="M1016.6,381.9l0.3,68.9"/>
		<path class="st9" d="M1011.5,386.8l0.3,57"/>
		<path class="st9" d="M1006.1,389.3v48.1"/>
		<path class="st9" d="M1000.2,393.1v38.1"/>
		<path class="st9" d="M995.1,396.2v29.2"/>
		<g>
			<path class="st10" d="M990.5,422.8l52.6,60.2"/>
			<path class="st11" d="M1045.7,384.9c0,0,23.8,52.1,1.7,95"/>
			<path class="st11" d="M984.3,411.9c0,0,1.7-4.6,4-2.7"/>
			<path class="st11" d="M980.2,398.5c0,0-9.5,8.4-4.3,13.8"/>
		</g>
	</g>
	<g>
		<path class="st12" d="M1056.7,266.1c3.5-3,5.4-4.9,7.5-4.5c2.2,0.3,5.2,0.2,7.3-0.5c2.2-0.7,13-2,17.5-0.5c1.5,0.2,3.5,1,6.6,3.6
			c3.1,2.6,7.7,7.1,6.1,19.8c-1.5,12.6-1,18-1.7,25.1c-1.2,12.4-3.9,22.7-8.9,21.9c6.7,11.8,7.4,21.9,11.8,29.9
			c4.4,8.1,7.1,24.6,5.4,42.4c-1.7,17.8-6.4,57.9,7.7,84.8c-2.4,1.7-8.1,0-13.1-5.4c-5-5.4-7.3-5.2-11.4-2
			c-12.8,9.8-24.8,21.5-42.4,9.8c-4-2.7-5.3-5.9-2.4-14.1c7.4-20.5,11-48.7,9.8-61.9L1056.7,266.1L1056.7,266.1z"/>
		<g>
			<path class="st13" d="M1068.9,253.4c0.9,2.9,1.4,6.6-0.1,9.9c-1.5,3.4-1.8,7.4,0.7,12.3c4-5.7,9.8-4.5,13.1-7.9
				c3.4-3.4,4-6.6,6.6-7.2c-2.5-2.2-6.4-4.5-5.6-10.9c0.8-6.4,9.8-11.6,1.7-21.4c-5.2-6.3-12.8-4.5-16.1-2.1
				c-1.5,1.1-2.9,2.8-3.4,3.9c-0.5,1.1,0.1,3.6-1.1,5c-0.8,1-1.9,2-3,2.9c-0.8,0.5-1.2,1.3-0.4,2.3c0.3,0.4,0.9,0.4,1.6,0.7
				c-0.4,0.8-0.8,1.5-1.2,2.1c-0.4,0.5-0.2,1,0.3,1.4c-0.6,2,0.6,2.2-0.3,3.8c-0.7,1.3-1.7,2.9,1,4.4
				C1063.4,252.8,1067,253.7,1068.9,253.4L1068.9,253.4z"/>
			<path class="st13" d="M1036.1,286.9c-4.7,1.2-12.3-0.8-18-0.2c-2.5,0.3-4.5-1-4.2-3.5c0.3-2.5,0.7-6.4,0.2-9.9
				c-0.8-5.5,1.9-13.1,5.6-21.5c3.7-8.4,5.6-13.1,5.6-17.1c0-2.6,0.3-5.6,2.6-7.1c1.7-1.1,2.1-2.2,2.7-3.1c1.4-2.1,2.8-2.6,2.9-1.3
				c0.1,0.8-0.2,1.4-0.8,2.4c1.5-1.3,4.1-2.7,4.7-3.2c0.6-0.4,3.6-2.5,3.7-0.5c1.2-0.6,2-0.5,2.3,0.1c0.3,0.7,0.1,1-0.5,1.5
				c0.8-0.2,1.8,1.3,0.1,2.6c0.9-0.3,1.8,1.2,0.2,2.5c-1.6,1.4-3.4,2.4-4,3.4c-0.6,1.1-4.6,4.2-6.2,4.8c-1.6,0.7-1.7,1.6-1.7,4
				c0,25.9-3.1,23.8-3.1,30c0,1.7-0.3,3.2,1.3,2.7c1.7-0.5,4.1-1.3,6.6-1.3V286.9L1036.1,286.9z"/>
			<path class="st13" d="M1037.1,342.8c7.6-3.8,16.3-5.2,20.9-6.4c4.5-1.2,11.8-4.7,15.3-6.6c3.5-1.9,6.4-4.4,8.4-5
				c2-0.7,4.3-2.1,5.6-4.5c6.6-12.8,10.1-23,10.1-32c0-5.9-1.5-12.4-7.2-7.7c-5.4,4.4-11.2,13-12.8,19.2c-2.4,9.4-4.4,11.4-4.9,13.3
				c-0.5,1.9-2.4,1.8-4.7,2.4c-9.9,2.2-12.3,3.7-19.7,9.3c-7.4,5.6-15.5,10.4-20.9,13.5c-5.4,3-6.4,3.4-7.6,5.8
				c-1.2,2.4-2.3,4.3-3.3,5.4c-1,1.1-1.3,2.4-1.1,3.7c0.2,1.1-0.3,6.1-0.4,7.8c-0.1,1.7,0.3,2.1,1,2.2c0.7,0.1,1.6-0.3,1.9-2.3
				c-0.3,2,2.4,1.3,2.6-0.2c-0.1,2.2,2.9,0.9,3-1.1c0,1.4,2.2,0.4,2.4-0.3c0.5-1.7,0.9-3.5,1.6-4.9c1-2,2-4.5,4-5.9
				C1033.6,346.8,1032.6,345,1037.1,342.8L1037.1,342.8z"/>
			<path class="st13" d="M1091.7,480.5c0.5,1.9,1.4,4,1.8,5.2c0.3,1.3-0.3,1.7-0.6,2.4c-1.8,3.7-3.7,9.6-4,12.8
				c-0.2,1.9-1.4,3.6-2,4.7c-0.6,1.2-0.4,2.1,1.1,3.3c0.7,0.5,3-0.2,3.3-1.3c0.8,0.8,2.4,0.5,3-0.8c0.8,0.8,2,0.3,2.9-1
				c0.8,0.5,1.8-0.5,2.3-1.2c1.2,0.6,2.4-0.1,2.5-2.4c0-0.5,0.3-1.3,0.6-1.8c0.3-0.5,0.5-1.6,0.4-2.5c0-0.9,0.5-2.8,1.3-4.1
				c0.8-1.3,2.2-3.6,1.6-5.8c-0.5-2-1.4-1.9-2.2-4.8c-1.8-1.9-4.4-4.6-7-4.8C1094.1,478.2,1092.6,479.9,1091.7,480.5L1091.7,480.5z"
				/>
			<path class="st13" d="M1043.8,495c2.4,2.4,7.7,2.4,11.4-1.5c-1.3-0.6-4.3-1.9-5.6-3C1047.7,492.3,1045.6,494.4,1043.8,495z"/>
		</g>
		<path class="st14" d="M1067.6,227.5c0.9-6,5.2-5.8,7.8-5.2c1.1,0.3,3.8,0.5,6.3-0.2c5-1.3,8.8,0.4,8.2,5.2c1.3,1,2.8,3.4,2.5,5.4
			c-0.3,2,0.2,2.9,2,3.1c1.8,0.3,5.8,2.5,3.2,5.7c2.5,1.5,4.5,5.4,3.1,8s-5.4,3-7.1,0.7c-1.8,0.8-4.9,1-6.7-0.9
			c-1.3,1.5-4.5,1.3-5.1,0c-0.6-1.3-1.6-2.1-2.8-2.4c-1.4-0.4-1.4-4.1,0.6-4.5c-0.3-1.1-0.2-2.4,0.3-2.9c0.5-0.6,0.1-1.7-1.1-2.6
			c-1.2-0.9-2.2-4.5-1-6.4c-2,0.7-6.5-1.3-7.4-2.6C1069.7,226.4,1068.4,226.4,1067.6,227.5z"/>
		<g>
			<path class="st15" d="M1068.9,253.4c3.3-0.4,4.4-2.4,6.8-2.3"/>
			<path class="st15" d="M1061.9,244.3c0.2,0.2,0.5,0.3,0.8,0.5c0.7,0.4,1.4,0.4,2.1,0.5"/>
			<path class="st15" d="M1062.9,240.8c0.5,0.2,0.9,0.4,1.4,0.8"/>
			<path class="st15" d="M1070.5,227.5c-1.9-1.9,3.3-5.6,8.8-0.3c1,1,3.6,1,4.4,0.8"/>
			<path class="st15" d="M1078,230.4c2.5-0.6,6.3-0.6,7.4,2.3c1.1,2.9,3.3,1,5.1,4.4c1.8,3.4,4.5,7.1,7.2,4.5"/>
			<path class="st15" d="M1087,249.3c-0.8-1-1.1-3.2-0.6-4.7c-1-1.2-0.6-3.6,0-4.8"/>
			<path class="st15" d="M1079.8,242.3c0.1,1,1.4,2.9,3.5,3.2"/>
			<path class="st15" d="M1093.8,250.2c-1.2-1.5-1-2.9-0.8-4.7"/>
			<path class="st15" d="M1081.5,233.5c-0.1,1.5,0.8,3.5,2.4,4.2c0.3,0.8,2,3.2,5.4,2.9"/>
			<path class="st15" d="M1090,227.4c-1.8-1.4-4.3-3.2-7.7-3.6"/>
			<path class="st15" d="M1069.4,275.6c-2.9,3.9-4.7,9.3-3.4,16.8c1.3,7.6,3.5,18.7-2,23.7"/>
			<path class="st15" d="M1091.3,330.8c-3.9-0.8-9.4-0.8-12.4,1.3s-8.1,2.4-11.4,0.7"/>
			<path class="st15" d="M1083.2,330.6c-3.4,0.6-5,2.9-5,9.2c0,6.2-1.3,15.3-0.2,24.2"/>
			<path class="st15" d="M1077,333.2c-2.2,0.6-4.5,0.7-4,6.6"/>
			<path class="st15" d="M1065.7,339.9c0.1-3.6,1.3-7,3.7-6.4"/>
			<path class="st15" d="M1089.9,340.6c0.2-8-1.6-10.3-4-10.2c3.2,0.1,5.4,0.5,6.7,13.5c1,9.8,3,13.2,5.4,20.9
				c6.1,19.8,3,50.5,6.1,61.2"/>
			<path class="st15" d="M1085.3,342.9c6.4,18.5,9.8,39-0.7,72c7.1,19.5,14.1,33.6,15.5,41.7"/>
			<path class="st15" d="M1065.1,386.7c1.2-4.2-3-4.7,0.7-19.5c1.6-6.4,1.9-10.3,0.8-12.3"/>
			<path class="st15" d="M1066.6,363.6c-1.5,6.6,4.9,18.8,1.7,27.8"/>
			<path class="st15" d="M1060.4,393.1c0,5.7,1.3,13.1,1,18.8c-0.3,5.7,2,8.4,4.7,13.8c9.8,19.5,16.4,33.4,15.5,51.8
				c-0.2,3.4,1,10.4-2.5,12.4"/>
			<path class="st15" d="M1060.6,494.9c1,0.1,2.1-0.4,3.4-3.4c1.3-3,5.3-21.2,3.6-33.6"/>
			<path class="st15" d="M1069.6,471.9c0.5,3.9,0.5,11.8-2,18"/>
			<path class="st15" d="M1076,460.3c1.5,8.2,1.3,15.6,0.2,20.9"/>
			<path class="st15" d="M1072.6,481.2c0.2,3.4,1.7,11.8-0.8,12.4"/>
			<path class="st15" d="M1085.3,442.2c6.2,9.8,11.1,33.8,16.3,38.9"/>
			<path class="st15" d="M1090.6,477.2c-0.2-2.7-0.3-6.4-1.9-8.1"/>
			<path class="st15" d="M1023.4,359.4c0.1-1.9-0.3-3.6,1.8-6.5"/>
			<path class="st15" d="M1020.4,360.5c0.3-6.5,0.2-7.1,2-8.8"/>
			<path class="st15" d="M1017.8,360.7c0.1-4.6-0.5-6.2,1.3-9.2"/>
			<path class="st15" d="M1041,221.9c-0.7,0.5-4.9,3.7-6.7,5"/>
			<path class="st15" d="M1042.8,223.5c-0.8,0.1-3.1,2-7.2,5.2"/>
			<path class="st15" d="M1043,226.1c-1.3,0.6-3.8,3-6.1,4.6"/>
			<path class="st15" d="M1032.6,225.6c-0.6,0.5-1.8,1.8-2.4,2.3"/>
			<path class="st15" d="M1091.2,507.5c-0.4-0.4-0.4-1.9,0.3-3.5"/>
			<path class="st15" d="M1094.3,506.8c-0.5-0.5,0-2.5,0.5-3.8"/>
			<path class="st15" d="M1097.1,505.8c-0.5-0.3-0.7-1.4,0.1-3"/>
			<path class="st15" d="M1099.4,504.6c-0.4-0.1-0.5-0.8,0.1-2.6"/>
		</g>
		<g>
			<path d="M1066.3,232.8c1.2,1.6,2.5,1.4,2.7,2.5c0.2,1,0.4,1.1,0.6,1.4c0.2,0.3-0.6,0.2-1,0.1c-0.4-0.2-1.4-0.1-2-0.1
				c-0.6,0-1.3-0.7-0.9-0.8c0.4-0.1,0.4-0.2,0.3-0.5c-0.1-0.3,0.3-0.8,0.4-0.9c0.2-0.1,0.1-0.1-0.1-0.5
				C1066.3,233.5,1066,232.5,1066.3,232.8L1066.3,232.8z"/>
			<path d="M1067,231.4c1.4,0.2,3.7,0.9,5,2.3c1,1.1,0.2,0.8-0.3,0.9c-0.5,0-1.5-0.3-2-1c-0.5-0.6-2-1.4-2.8-1.6
				C1066.5,231.8,1066,231.2,1067,231.4L1067,231.4z"/>
		</g>
	</g>
</g>
</svg>
