<?xml version="1.0" encoding="utf-8"?>
<!-- Generator: Adobe Illustrator 23.1.0, SVG Export Plug-In . SVG Version: 6.00 Build 0)  -->
<svg version="1.1" id="Layer_1" xmlns="http://www.w3.org/2000/svg" xmlns:xlink="http://www.w3.org/1999/xlink" x="0px" y="0px"
	 viewBox="0 0 1400 700" style="enable-background:new 0 0 1400 700;" xml:space="preserve">
<style type="text/css">
	.st0{fill:#012169;}
	.st1{stroke:#FFFFFF;stroke-width:69.9999;}
	.st2{clip-path:url(#SVGID_2_);stroke:#C8102E;stroke-width:46.6666;}
	.st3{stroke:#FFFFFF;stroke-width:116.6665;}
	.st4{stroke:#C8102E;stroke-width:69.9999;}
	.st5{fill:#FFFFFF;stroke:#FFFFFF;stroke-width:11.2;stroke-linejoin:round;}
	.st6{fill:#FCEA83;stroke:#FFFFFF;stroke-width:11.2;stroke-linejoin:round;}
	.st7{fill:#C8102E;stroke:#FFFFFF;stroke-width:11.2;stroke-linejoin:round;}
	.st8{fill:#073163;stroke:#FFFFFF;stroke-width:11.2;stroke-linejoin:round;}
	.st9{fill:#059334;stroke:#FFFFFF;stroke-width:11.2;stroke-linejoin:round;}
	.st10{stroke:#FFFFFF;stroke-width:11.2;stroke-linejoin:round;}
	.st11{fill:#00493D;stroke:#FFFFFF;stroke-width:11.2;stroke-linejoin:round;}
	.st12{fill:none;stroke:#FFFFFF;stroke-width:11.2;stroke-linejoin:round;}
	.st13{fill:#FCEA83;stroke:#000000;stroke-width:1.6773;}
	.st14{fill:#C8102E;stroke:#000000;stroke-width:1.6773;}
	.st15{fill:#00493D;}
	.st16{fill:#FFFFFF;stroke:#000000;stroke-width:1.6773;}
	.st17{fill:#073163;stroke:#000000;stroke-width:1.6773;}
	.st18{fill:#F9D050;stroke:#000000;stroke-width:0.7547;}
	.st19{fill:none;stroke:#000000;stroke-width:0.7547;}
	.st20{fill:#059334;stroke:#000000;stroke-width:1.6773;}
	.st21{stroke:#000000;stroke-width:1.6773;}
	.st22{fill:#00493D;stroke:#000000;stroke-width:1.6773;}
	.st23{fill:none;stroke:#000000;stroke-width:1.6773;}
	.st24{fill:#FFFFFF;}
	.st25{fill:#C8102E;}
	.st26{fill:#0B50A0;}
	.st27{fill:#F9D050;stroke:#000000;stroke-width:1.6773;}
	.st28{fill:#073163;}
	.st29{fill:#F9D050;}
	.st30{fill:#024919;}
</style>
<rect y="0" class="st0" width="1400" height="700"/>
<path class="st1" d="M0,0l700,350 M700,0L0,350"/>
<g>
	<defs>
		<path id="SVGID_1_" d="M0,0v175h816.7v175H700L0,0z M700,0H350v408.3H0V350L700,0z"/>
	</defs>
	<clipPath id="SVGID_2_">
		<use xlink:href="#SVGID_1_"  style="overflow:visible;"/>
	</clipPath>
	<path class="st2" d="M0,0l700,350 M700,0L0,350"/>
</g>
<path class="st3" d="M350,0v408.3 M0,175h816.7"/>
<path class="st4" d="M350,0v408.3 M0,175h816.7"/>
<path class="st0" d="M0,350h700V0h700v700H0V350z"/>
<g>
	<g id="border">
		<g>
			<path id="shield" class="st5" d="M1154.7,271.8v109c0,94.5-44.7,126.9-104.6,152.6C990.3,507.7,945,475.3,945,380.8v-109H1154.7
				L1154.7,271.8z"/>
		</g>
		<g>
			<g id="motto1">
				<path class="st6" d="M880.2,524.5c3.4,8.9,27.4,20.7,55.4,5.6c19-10.6,31.3-25.7,43.1-52.6c3.4-6.7,5-15.1-2.8-20.1
					c-6.2-4.5-16.2-9.5-20.7-14c-2.2-2.2-4.5-3.9-6.2-5.6c1.1,1.1,2.2,2.2,3.4,3.9c11.2,13.4-0.6,33-12.9,44.7
					c-8.9,8.4-25.2,29.1-48.6,9.5C885.7,491.5,874,510,880.2,524.5L880.2,524.5z"/>
				<path class="st6" d="M1220.1,524.5c-3.9,8.9-28,20.7-55.4,5.6c-19-10.6-31.3-25.7-43.6-52.6c-2.8-6.7-4.5-15.1,3.4-20.1
					c6.2-4.5,16.2-9.5,20.7-14c2.2-2.2,3.9-3.9,6.2-5.6c-1.1,1.1-2.2,2.2-3.4,3.9c-11.2,13.4,0.6,33,12.3,44.7
					c8.9,8.4,25.7,29.1,49.2,9.5C1214.5,491.5,1225.7,510,1220.1,524.5L1220.1,524.5z"/>
				<path class="st6" d="M1050.1,572.6c44.7,0,113.5-20.1,150.4-90.6c6.2-11.7,0-17.9-7.3-21.8c-7.8-3.4-17.3-11.2-22.4-16.2
					c8.9,8.9,7.3,15.1,1.1,25.2c-28.5,47.5-67.7,71.6-121.9,71.6c-54.2,0-93.4-24-121.9-71.6c-6.2-10.1-7.8-16.2,0.6-25.2
					c-4.5,5-14.5,12.9-22.4,16.2c-7.3,3.9-13.4,10.1-7.3,21.8C936.1,552.4,1005.4,572.6,1050.1,572.6L1050.1,572.6z"/>
			</g>
		</g>
		<g>
			<g id="motto2">
				<path class="st7" d="M946.7,478.1c-1.1-5.6-8.4-3.4-10.6,3.4c-2.8-3.9-5.6-7.8-7.8-12.3c-6.7-10.1-7.8-16.8,1.7-26.3
					c4.5-4.5,13.4-9.5,19.6-3.9C962.3,449.6,955.6,466.9,946.7,478.1L946.7,478.1z"/>
				<path class="st7" d="M1153,478.1c1.1-5.6,8.9-3.4,11.2,3.4c2.8-3.9,5.6-7.8,7.8-12.3c6.7-10.1,7.8-16.8-2.2-26.3
					c-3.9-4.5-12.9-9.5-19.6-3.9C1137.9,449.6,1144.1,466.9,1153,478.1L1153,478.1z"/>
				<path class="st7" d="M880.2,524.5c-5.6-8.4-10.1-30.2-11.2-35.8c-1.7-5-2.2-9.5,3.9-11.7c6.2-2.2,11.7,5.6,14.5,12.3
					c2.8,6.7,7.3,16.8,12.3,29.1C887.4,511.1,877.4,516.1,880.2,524.5L880.2,524.5z"/>
				<path class="st7" d="M1220.1,524.5c5-8.4,9.5-30.2,11.2-35.8c1.1-5,2.2-9.5-3.9-11.7c-6.2-2.2-11.7,5.6-14.5,12.3
					c-2.8,6.7-7.3,16.8-12.3,29.1C1212.8,511.1,1222.3,516.1,1220.1,524.5L1220.1,524.5z"/>
			</g>
		</g>
		<g>
			<g id="rope">
				<path class="st5" d="M1007.1,271.2c-7.3,1.7-12.3,2.2-19-3.9c-4.5-4.5-3.4-12.3,1.1-15.1c5-3.4,9.5-5.6,15.7-3.9
					c6.2,1.7,22.4,16.8,18.5,17.3C1019.4,265.6,1013.2,269.5,1007.1,271.2L1007.1,271.2z"/>
				<path class="st5" d="M1024.4,244.4c2.2-1.7,5-2.8,12.3-3.4c6.7-0.6,11.7-0.6,13.4,4.5c2.2,6.2,3.9,13.4,8.4,16.8
					c-2.8,1.7-16.8,3.4-21.8,0.6C1030,259.5,1028.3,246.6,1024.4,244.4L1024.4,244.4z"/>
				<path class="st5" d="M1072.5,244.9c2.2-1.7,5-1.7,12.3-1.1c7.3,0.6,10.1,1.1,11.7,6.2c1.7,5.6,0,12.9,3.4,17.9
					c-3.4,1.1-14.5,1.1-18.5-2.8C1075.3,260.6,1075.8,247.7,1072.5,244.9L1072.5,244.9z"/>
				<path class="st8" d="M1106,248.3c-5-1.1-8.4-1.7-10.6,0c2.8,3.4,0.6,16.8,6.2,21.2c3.9,2.8,14,3.4,16.2-2.8
					C1120.6,261.2,1120.6,252.8,1106,248.3L1106,248.3z"/>
				<path class="st8" d="M1048.4,242.7c1.7-1.7,5-2.2,11.7-2.2c7.3,0,11.7,1.1,14,5.6c2.2,5.6,1.7,12.9,5.6,17.3
					c-1.7,2.2-16.8,2.2-21.2-1.1C1052.4,258.4,1051.8,245.5,1048.4,242.7L1048.4,242.7z"/>
				<path class="st8" d="M1000.9,247.7c0-2.8,3.9-3.4,14-3.9c10.1-1.1,10.6-0.6,14,6.7c1.7,3.9,3.9,10.6,8.4,12.9
					c-12.3,2.8-16.2,4.5-22.9,0.6c-5-2.8-10.6-9.5-11.7-12.3C1002,250,1002,248.3,1000.9,247.7L1000.9,247.7z"/>
			</g>
		</g>
		<g>
			<g id="turtle">
				<path class="st9" d="M1002,198c-3.9,0-7.3-1.7-9.5-4.5c-3.9-5-14.5-7.3-19-2.8c-1.7,1.1-3.9,1.1-5.6,1.7c-2.8,0-6.2,2.8-5,8.4
					c2.2-1.7,2.8,0,4.5,0c1.1-0.6,0.6,0.6,0.6,1.7c0,2.8,6.2,8.4,11.7,7.8c6.2,0,8.9,2.2,10.1,3.4c1.7,1.7,0.6,1.1,1.7,3.9
					c1.7,1.7,2.2,2.2-0.6,4.5c-3.9,3.4-6.7,11.2,0,17.3c7.3,5.6,25.7,14,46.4-2.2c20.1-15.7,51.4-6.7,53.7-1.1
					c2.8,5.6,3.9,8.9,4.5,11.7c0.6,2.2,3.4,4.5,7.3,3.9c3.9,0,8.4,1.7,10.6,3.4c2.8,1.7,6.7,1.1,5.6-3.9
					c-2.2-15.7-11.7-17.9-12.9-25.2c5.6,0.6,9.5,0.6,11.7-1.7c1.7-2.2,3.9-6.2,6.2-7.3c1.7-1.1,1.7-2.2-0.6-1.7
					c-2.8,0.6-4.5,1.7-9.5,1.1C1088.1,213.6,1016,194.1,1002,198L1002,198z"/>
				<path class="st10" d="M1116.1,217c-2.8,1.7-5.6,4.5-10.6,11.2c-5.6,7.3-22.4,14.5-43.1,14.5c-20.1,0-32.4-3.4-41.4-10.6
					c-5-3.9-8.9-6.2-12.3-7.8c-6.2-2.8-7.3-8.9-5.6-14c-1.7,2.8-2.8,5.6-6.2,5c-2.2,0-6.7,0-5.6,2.2c-0.6-1.1-0.6-2.8-1.1-3.4
					c-0.6-0.6-1.1-1.1-1.1-1.1c1.7,1.1,5.6-2.2,8.4-2.2c2.2,0.6,5-2.2,4.5-5.6c-0.6-2.8-1.1-5-1.7-7.3c4.5-2.2,63.2,8.4,74.9,9.5
					C1087,208,1120.6,213.1,1116.1,217L1116.1,217z"/>
				<path class="st9" d="M1009.9,195.7c5.6-5.6,12.3-8.4,19-6.7h1.7c3.4-2.8,11.2-3.4,15.7-1.1h2.2c6.7-2.2,19.6,0,24,4.5l1.7,1.1
					c15.1-1.1,24,5.6,34.7,16.2c1.1,1.1,2.8,3.4,5.6,3.9c3.4,0.6,3.9,2.2,1.1,3.9c-3.4,1.7-6.2,4.5-11.7,10.6
					c-5,6.7-21.2,13.4-41.4,13.4c-19.6,0-31.3-3.4-40.3-10.1c-5-3.9-8.9-6.2-11.7-7.8c-3.4-1.1-7.8-5.6-6.2-10.1
					c1.1-4.5-1.7-10.1-3.9-15.7c1.7-1.1,6.2-2.8,8.4-1.7L1009.9,195.7L1009.9,195.7z"/>
				<g>
					<path class="st11" d="M1108.8,209.7c-10.6-10.6-19.6-17.3-34.7-16.2c0,0.6,0,2.2-0.6,3.4c8.9,3.4,21.8,13.4,27.4,20.7
						C1103.2,215.3,1107.1,212.5,1108.8,209.7L1108.8,209.7z"/>
					<path class="st11" d="M1072.5,192.4c-4.5-4.5-17.3-6.7-24-4.5c0,2.2,0,5.6-1.1,7.8c3.9,1.7,7.3,5.6,10.6,9.5
						c2.2-0.6,7.8-2.2,10.6-2.8C1069.7,200.2,1071.9,195.2,1072.5,192.4z"/>
					<path class="st11" d="M1046.2,187.9c-4.5-2.2-12.3-1.7-15.7,1.1c-1.1,2.2-1.7,6.7-1.7,8.9c2.2,0,5.6,1.7,6.7,2.8
						c3.4-1.1,7.8-3.4,9.5-5C1045.6,193.5,1046.8,190.1,1046.2,187.9L1046.2,187.9z"/>
					<path class="st11" d="M1009.9,195.7c5.6-5.6,12.3-8.4,19-6.7c-1.1,1.7-1.7,5-1.7,8.4c-6.2-0.6-14,1.1-17.3,3.4V195.7z"/>
					<path class="st11" d="M1098.8,218.7c-5-7.3-17.3-15.7-25.7-19.6c0,0.6-1.1,2.8-1.7,4.5c3.4,5,10.1,16.2,12.9,22.4
						C1087,224.8,1094.8,221.5,1098.8,218.7L1098.8,218.7z"/>
					<path class="st11" d="M1056.3,231c1.1-7.8,1.7-19,1.7-22.9c2.8-0.6,8.4-2.2,10.6-2.8c2.8,4.5,9.5,16.2,12.3,21.8
						C1074.2,228.7,1063,231.5,1056.3,231L1056.3,231z"/>
					<path class="st11" d="M1036.7,204.1c2.8-1.1,6.7-3.4,9.5-5.6c2.2,1.7,6.7,5.6,8.4,7.8c0,5-1.7,19.6-2.2,24.6
						c-4.5,0-11.7-1.1-15.7-3.4C1037.3,219.2,1037.8,209.7,1036.7,204.1L1036.7,204.1z"/>
					<path class="st11" d="M1008.7,210.8c0.6-1.1,1.1-5,1.1-6.7c4.5-2.8,15.7-5.6,24-1.1c0.6,5.6,0,19.6-0.6,22.9
						C1026.1,220.3,1014.3,212.5,1008.7,210.8L1008.7,210.8z"/>
				</g>
				<g>
					<path d="M980.8,200.8c-1.1,0-1.7-3.4-3.9-3.4c-0.6,0-2.2,0.6-2.8,0c0,1.1,0.6,2.2,1.1,2.8C975.8,201.9,978.6,200.8,980.8,200.8
						L980.8,200.8z"/>
					<path class="st12" d="M980.8,210.3c6.7,0,7.8-8.4,11.2-8.9"/>
					<path class="st12" d="M984.7,210.8c5,2.2,8.9-9.5,12.9-8.9"/>
					<path class="st12" d="M974.6,196.3c1.7,0,2.8-2.2,5.6,0.6c1.1,1.1,2.8,1.7,3.9,1.7"/>
					<path class="st12" d="M983,204.7c-2.2,3.4-6.2,5.6-8.4,4.5"/>
					<path class="st12" d="M973.5,190.7c-1.7,1.1-2.8,3.4-3.9,5"/>
					<path class="st12" d="M967.9,199.1v2.8"/>
				</g>
			</g>
		</g>
		<g>
			<g id="pineapple1">
				<path class="st10" d="M1027.8,190.7c-11.7-8.9-25.7-17.3-38.6-19c8.4,5,31.9,23.5,38,29.6"/>
				<path class="st10" d="M1034.5,182.3c-14-9.5-30.2-20.1-45.8-21.2c11.7,6.2,29.1,20.7,38.6,32.4"/>
				<path class="st10" d="M1052.4,166.7c7.8-17.3,16.2-26.8,27.4-37.5c-5.6,11.7-11.7,35.8-14.5,45.3"/>
				<path class="st10" d="M1064.7,163.9c5.6-12.3,14-22.9,28.5-29.6c-7.3,7.3-18.5,29.1-21.2,40.8"/>
				<path class="st10" d="M1069.7,175c6.7-9.5,20.1-27.4,44.2-36.9c-14,14-34.7,39.7-39.7,49.8"/>
				<path class="st10" d="M1077.5,187.3c10.1-5.6,30.2-14.5,44.7-11.7c-8.9,3.4-35.8,15.7-47.5,26.8"/>
				<path class="st10" d="M1075.3,183.4c9.5-10.1,26.8-25.2,45.3-31.3c-13.4,12.9-41.9,41.9-45.8,46.4"/>
				<path class="st10" d="M1048.4,177.3c-6.7-20.7-16.8-40.3-31.9-46.4c8.4,12.3,19,30.2,24.6,57"/>
				<path class="st10" d="M1035.6,176.7c-11.2-13.4-26.3-26.8-43.6-29.6c11.7,6.7,31.3,26.3,38.6,45.3"/>
				<path class="st10" d="M1041.7,176.2c-14-25.2-24.6-29.6-30.8-34.7c5,9.5,17.3,34.7,24.6,45.3"/>
				<path class="st12" d="M1013.8,174.5c6.7,3.9,16.8,13.4,20.1,19.6"/>
				<path class="st10" d="M1013.8,186.2c3.4,2.8,9.5,6.2,15.1,11.2"/>
				<path class="st10" d="M1080.3,194.6c5.6-4.5,17.9-11.7,24-14"/>
				<path class="st10" d="M1076.4,190.7c5.6-7.3,16.8-17.3,20.7-20.7"/>
				<path class="st10" d="M1092.1,156c-5,5.6-16.8,19.6-21.2,26.3"/>
				<path class="st10" d="M1077.5,151c-3.9,5-11.7,19.6-14,24.6"/>
				<path class="st10" d="M1033.3,152.1c3.4,8.9,9.5,24,11.7,30.2"/>
				<path class="st10" d="M1028.3,161.6c2.2,3.4,6.7,11.2,8.4,16.8"/>
			</g>
		</g>
		<g>
			<g id="pineapple2">
				<path class="st10" d="M1047.3,158.8c0-5,3.4-10.6,6.7-10.6c3.9,0,6.7,6.7,6.7,10.6c0,4.5-3.4,8.4-6.7,8.4
					C1050.7,167.2,1047.3,163.9,1047.3,158.8z"/>
				<path class="st10" d="M1040.1,163.3c0.6-5.6,4.5-10.1,7.8-9.5c3.4,0.6,5,7.3,4.5,11.2c-0.6,4.5-4.5,7.8-7.3,7.3
					C1042.3,172.3,1039.5,168.3,1040.1,163.3z"/>
				<path class="st10" d="M1055.2,165c-1.1-5,1.1-10.6,4.5-11.2c3.4-0.6,6.7,5,7.3,9.5c1.1,4.5-1.7,8.9-4.5,8.9
					C1059.6,172.8,1055.7,170,1055.2,165z"/>
				<path class="st10" d="M1046.8,169.5c0-5.6,3.4-10.6,6.7-10.6c3.9,0,6.7,6.2,6.7,10.6c0,4.5-3.4,8.4-6.7,8.4
					S1046.8,174.5,1046.8,169.5z"/>
				<path class="st10" d="M1036.7,172.3c0-5,3.9-10.6,7.3-10.6c3.4,0,6.7,6.7,6.7,10.6c0,4.5-3.9,8.4-6.7,8.4
					C1040.6,180.6,1036.7,177.3,1036.7,172.3L1036.7,172.3z"/>
				<path class="st10" d="M1057.4,170c0-5,3.4-10.6,6.7-10.6c3.9,0,6.7,6.7,6.7,10.6c0,4.5-3.4,8.4-6.7,8.4S1057.4,175,1057.4,170z"
					/>
				<path class="st10" d="M1055.2,174.5c0-5.6,3.9-10.6,7.3-10.6c3.4,0,6.7,6.2,6.7,10.6c0,4.5-3.4,8.4-6.7,8.4
					C1059.1,182.9,1055.2,179.5,1055.2,174.5L1055.2,174.5z"/>
				<path class="st10" d="M1046.2,179.5c0-5.6,3.4-10.6,6.7-10.6c3.9,0,6.7,6.7,6.7,10.6c0,4.5-3.4,8.4-6.7,8.4
					C1049.6,187.9,1046.2,184.6,1046.2,179.5z"/>
				<path class="st10" d="M1032.2,179.5c0-5.6,2.8-10.6,5.6-10.6s5,6.7,5,10.6c0,4.5-2.8,8.4-5,8.4
					C1035,187.9,1032.2,184.6,1032.2,179.5z"/>
				<path class="st10" d="M1063.5,178.4c0-5,2.8-10.1,5.6-10.1s5.6,6.2,5.6,10.1c0,5-3.4,8.4-5.6,8.4
					C1066.3,186.8,1063.5,183.4,1063.5,178.4L1063.5,178.4z"/>
				<path class="st10" d="M1066.9,187.9c1.1-5.6,4.5-10.1,6.7-9.5c2.2,0.6,2.8,7.3,1.7,11.2c-0.6,5-3.9,7.8-6.2,7.3
					C1066.9,196.3,1065.8,192.4,1066.9,187.9z"/>
				<path class="st10" d="M1056.3,186.2c0.6-5,3.9-10.1,6.7-9.5c3.4,0,5,6.7,4.5,10.6c-0.6,5-3.4,8.4-6.2,7.8
					C1058.5,195.2,1055.7,191.3,1056.3,186.2z"/>
				<path class="st10" d="M1040.6,187.9c-1.7-5.6-5-9.5-7.3-8.9s-2.8,7.3-1.7,11.2c1.1,4.5,4.5,7.3,6.7,6.7
					C1040.1,196.3,1041.7,192.4,1040.6,187.9L1040.6,187.9z"/>
				<path class="st10" d="M1036.7,186.8c0-5,2.8-10.1,5.6-10.1c3.4,0,5.6,6.2,5.6,10.1c0,5-2.8,8.4-5.6,8.4
					C1040.1,195.2,1036.7,191.8,1036.7,186.8L1036.7,186.8z"/>
				<path class="st10" d="M1045.1,189c0-5.6,3.4-10.6,6.7-10.6c3.9,0,6.7,6.2,6.7,10.6s-3.4,8.4-6.7,8.4S1045.1,194.1,1045.1,189z"
					/>
				<path class="st10" d="M1047.9,127.5c-1.1,4.5-5,8.4-2.2,14.5c-5-1.7-9.5-2.2-13.4,2.2c5-0.6,9.5,1.1,11.7,4.5
					c-4.5-0.6-6.7,1.7-7.8,4.5c3.9-1.1,7.8-2.2,9.5-1.7c-1.7,1.7-4.5,4.5-5,6.7c3.4-2.8,7.3-2.2,9.5-3.9c-1.7,3.9,1.7,7.8,4.5,11.7
					c-0.6-5.6,2.8-9.5,1.1-12.3c5,1.1,5.6,5.6,12.9,5.6c-2.8-1.7-4.5-7.3-7.8-7.3c1.7-0.6,8.4-1.1,9.5,0c-1.1-2.2-5-4.5-7.3-4.5
					c2.2-2.2,6.2-6.7,8.9-7.8c-3.9,0.6-10.1,1.1-12.3,4.5c5.6-4.5,4.5-12.9,10.6-14c-3.4-0.6-8.4,1.7-12.3,5.6
					c1.7-3.4,1.7-7.8,3.9-8.9c-4.5,1.1-9.5,6.7-11.2,9.5C1050.7,133.7,1049,129.2,1047.9,127.5L1047.9,127.5z"/>
				<path class="st10" d="M1050.7,136.5c0,1.7,0,5-0.6,6.2"/>
				<path class="st10" d="M1057.9,135.9c-1.1,1.1-3.4,5-3.4,8.4"/>
				<path class="st12" d="M1061.3,142.6c-1.7,1.1-3.4,2.8-3.9,5"/>
			</g>
		</g>
	</g>
	<g id="motto">
		<g>
			<path class="st13" d="M880.2,524.5c3.4,8.9,27.4,20.7,55.4,5.6c19-10.6,31.3-25.7,43.1-52.6c3.4-6.7,5-15.1-2.8-20.1
				c-6.2-4.5-16.2-9.5-20.7-14c-2.2-2.2-4.5-3.9-6.2-5.6c1.1,1.1,2.2,2.2,3.4,3.9c11.2,13.4-0.6,33-12.9,44.7
				c-8.9,8.4-25.2,29.1-48.6,9.5C885.7,491.5,874,510,880.2,524.5L880.2,524.5z"/>
			<path class="st13" d="M1220.1,524.5c-3.9,8.9-28,20.7-55.4,5.6c-19-10.6-31.3-25.7-43.6-52.6c-2.8-6.7-4.5-15.1,3.4-20.1
				c6.2-4.5,16.2-9.5,20.7-14c2.2-2.2,3.9-3.9,6.2-5.6c-1.1,1.1-2.2,2.2-3.4,3.9c-11.2,13.4,0.6,33,12.3,44.7
				c8.9,8.4,25.7,29.1,49.2,9.5C1214.5,491.5,1225.7,510,1220.1,524.5L1220.1,524.5z"/>
			<path class="st13" d="M1050.1,572.6c44.7,0,113.5-20.1,150.4-90.6c6.2-11.7,0-17.9-7.3-21.8c-7.8-3.4-17.3-11.2-22.4-16.2
				c8.9,8.9,7.3,15.1,1.1,25.2c-28.5,47.5-67.7,71.6-121.9,71.6c-54.2,0-93.4-24-121.9-71.6c-6.2-10.1-7.8-16.2,0.6-25.2
				c-4.5,5-14.5,12.9-22.4,16.2c-7.3,3.9-13.4,10.1-7.3,21.8C936.1,552.4,1005.4,572.6,1050.1,572.6L1050.1,572.6z"/>
		</g>
		<g>
			<path class="st14" d="M946.7,478.1c-1.1-5.6-8.4-3.4-10.6,3.4c-2.8-3.9-5.6-7.8-7.8-12.3c-6.7-10.1-7.8-16.8,1.7-26.3
				c4.5-4.5,13.4-9.5,19.6-3.9C962.3,449.6,955.6,466.9,946.7,478.1L946.7,478.1z"/>
			<path class="st14" d="M1153,478.1c1.1-5.6,8.9-3.4,11.2,3.4c2.8-3.9,5.6-7.8,7.8-12.3c6.7-10.1,7.8-16.8-2.2-26.3
				c-3.9-4.5-12.9-9.5-19.6-3.9C1137.9,449.6,1144.1,466.9,1153,478.1L1153,478.1z"/>
			<path class="st14" d="M880.2,524.5c-5.6-8.4-10.1-30.2-11.2-35.8c-1.7-5-2.2-9.5,3.9-11.7c6.2-2.2,11.7,5.6,14.5,12.3
				c2.8,6.7,7.3,16.8,12.3,29.1C887.4,511.1,877.4,516.1,880.2,524.5L880.2,524.5z"/>
			<path class="st14" d="M1220.1,524.5c5-8.4,9.5-30.2,11.2-35.8c1.1-5,2.2-9.5-3.9-11.7c-6.2-2.2-11.7,5.6-14.5,12.3
				c-2.8,6.7-7.3,16.8-12.3,29.1C1212.8,511.1,1222.3,516.1,1220.1,524.5L1220.1,524.5z"/>
		</g>
		<g>
			<path class="st15" d="M912.6,474.2l-4.5,2.2c-1.1,0.6-1.1,1.7-1.1,2.2h-0.6l-2.2-5h0.6c0,0.6,0.6,1.1,1.7,0.6l9.5-5
				c1.1-0.6,1.1-1.1,0.6-1.7l0.6-0.6l2.8,5.6h-0.6c-0.6-0.6-1.1-1.1-2.2-0.6l-3.9,2.2l1.7,3.4l4.5-1.7c1.1-0.6,0.6-1.7,0.6-2.2h0.6
				l2.2,5c-0.6-0.6-1.1-1.1-2.2-0.6l-9.5,5c-1.1,0.6-1.1,1.1-0.6,1.7l-0.6,0.6l-2.8-5l0.6-0.6c0.6,0.6,1.1,1.1,2.2,0.6l4.5-2.2
				L912.6,474.2L912.6,474.2z"/>
			<path class="st15" d="M922.1,481.4c1.1-0.6,1.1-1.1,0.6-2.2h0.6l5.6,8.4l-3.9,2.8v-0.6c2.2-1.7,2.2-3.9,1.7-4.5
				c-0.6-0.6-1.1-1.1-1.1-1.7c-0.6,0-0.6-0.6-1.7,0.6c-0.6,0.6-3.9,2.8-3.9,2.8c0.6,0.6,1.1,2.2,3.9,0.6h0.6l-6.2,4.5v-0.6
				c2.8-2.2,1.7-3.9,1.1-4.5l-3.9,2.8c-1.1,0.6-1.1,1.1-1.1,1.7c0.6,0,0.6,0.6,1.1,1.1c0.6,1.1,2.2,2.2,5,1.1l0.6,0.6l-4.5,1.7
				l-5.6-8.9h0.6c0.6,0.6,1.1,1.1,2.2,0.6L922.1,481.4L922.1,481.4z"/>
			<path class="st15" d="M931,502.7l-3.9,3.4c-0.6,0.6-0.6,1.7,0,2.2h-0.6l-3.9-3.9l0.6-0.6c0.6,0.6,1.1,1.1,2.2,0l7.3-7.3
				c1.1-0.6,1.1-1.1,0.6-2.2l3.9,4.5c-0.6-0.6-1.7-0.6-2.2,0l-3.4,3.4l2.8,2.8l3.4-2.8c1.1-1.1,0.6-1.7,0-2.2l0.6-0.6l3.9,4.5h-0.6
				c-0.6,0-1.1-0.6-2.2,0.6l-7.3,6.7c-1.1,1.1-1.1,1.7-0.6,2.2v0.6l-3.9-4.5c0.6,0,1.7,0.6,2.2,0l3.9-3.9L931,502.7L931,502.7z"/>
			<path class="st15" d="M939.4,514.4l1.7,1.7c2.2-5,2.2-5,2.2-5s-1.7,0.6-4.5,2.2L939.4,514.4l-0.6,0.6l-1.1-1.1
				c-0.6,0.6-1.1,0.6-1.7,1.1c-1.7,1.1-1.1,1.7-0.6,2.2v0.6l-2.8-2.8h0.6l2.2-0.6c11.2-6.2,11.2-6.2,11.2-6.2l0.6,0.6
				c0,0-0.6,0.6-5.6,11.7c0,1.1-0.6,1.7,0,2.8l-4.5-3.9l0.6-0.6c0.6,1.1,1.7,1.1,2.2,0c0-0.6,0.6-1.7,0.6-2.2l-1.7-1.7L939.4,514.4
				L939.4,514.4z"/>
			<path class="st15" d="M943.9,525.6l0.6-0.6c0.6,0.6,1.1,0.6,2.2,0l7.3-9.5l-0.6-0.6c-1.1-0.6-2.8-0.6-4.5,1.1v-0.6l2.2-2.8
				l8.4,6.2l-2.8,3.4h-0.6c1.7-1.7,1.1-3.9,0-4.5v-0.6l-7.3,9.5c-1.1,0.6-0.6,1.7,0,2.2h-0.6L943.9,525.6L943.9,525.6z"/>
			<path class="st15" d="M958.4,527.8l-2.8,3.9c-0.6,1.1,0,1.7,0.6,2.2l-0.6,0.6l-4.5-3.4v-0.6c1.1,0.6,1.7,0.6,2.2-0.6l6.2-8.4
				c0.6-1.1,0-1.7-0.6-2.2l0.6-0.6l4.5,3.4v0.6c-1.1-0.6-1.7-0.6-2.2,0.6l-2.8,3.9l3.4,2.2l2.8-3.9c0.6-1.1,0-1.7-0.6-2.2l0.6-0.6
				l4.5,3.4v0.6c-0.6-0.6-1.7-0.6-2.2,0.6l-5.6,8.9c-1.1,0.6-0.6,1.1,0,1.7v0.6l-5-3.4h0.6c0.6,0,1.1,0,1.7-0.6l2.8-4.5L958.4,527.8
				L958.4,527.8z"/>
			<path class="st15" d="M969.6,543.5l0.6-0.6c0.6,0.6,1.7,0.6,2.2-0.6l4.5-9.5c0.6-1.1,0-1.7-0.6-2.2l9.5,4.5l-2.2,4.5L983,539
				c1.7-2.2,0-4.5-0.6-5c-0.6,0-1.1-0.6-1.7-0.6c-0.6,0-0.6,0-1.1,1.1c-0.6,0.6-2.2,3.9-2.2,3.9c0.6,0.6,1.7,1.7,3.9-1.1h0.6
				l-3.4,6.7l-0.6-0.6c1.7-3.4-0.6-3.9-1.1-3.9l-2.2,4.5c-0.6,1.1,0,1.7,0.6,1.7v0.6L969.6,543.5L969.6,543.5z"/>
			<path class="st15" d="M985.8,551.3c-1.7-1.1-1.7-4.5,0-7.8c1.1-3.4,3.4-6.2,5.6-5c1.7,0.6,1.1,3.9,0,7.3
				C989.7,549.6,987.5,551.9,985.8,551.3l-0.6,0c3.9,1.7,6.7-0.6,8.4-4.5c1.7-3.4,1.1-7.3-2.2-8.9c-3.4-1.7-6.7,0.6-8.4,4.5
				c-1.7,3.9-1.1,7.8,2.2,8.9L985.8,551.3L985.8,551.3z"/>
			<path class="st15" d="M1003.2,552.4l2.2-6.7c0.6-1.1,0-1.7-0.6-2.2l2.8,0.6v0.6c-0.6,0-1.1,0-1.7,1.1l-2.2,6.7
				c-1.1,2.8-2.8,5-6.2,3.9c-2.2-0.6-3.9-3.4-2.8-6.2l2.8-7.3c0.6-1.1,0-1.7-0.6-2.2v-0.6l5,2.2v0.6c-0.6-0.6-1.7-0.6-1.7,0.6
				l-2.8,7.3c-0.6,2.2-0.6,4.5,1.1,5C1000.4,556.4,1002,555.2,1003.2,552.4L1003.2,552.4z"/>
			<path class="st15" d="M1008.2,545.2c0-0.6,0-0.6-0.6-0.6l3.9,0.6l3.4,10.6l1.7-6.7c0.6-1.1,0-1.7-0.6-2.2l3.4,0.6l-0.6,0.6
				c-0.6,0-1.1,0-1.7,1.1l-2.8,12.3h-0.6l-4.5-13.4l-2.8,8.9c0,1.7,0.6,1.7,1.1,2.2v0.6l-3.4-1.1V558c0.6,0.6,1.7,0,1.7-1.1
				l2.8-10.1L1008.2,545.2L1008.2,545.2z"/>
			<path class="st15" d="M1027.2,556.4c-1.1,5-3.4,6.2-4.5,6.2h-1.1c0,0-0.6-0.6,0-1.1l1.7-11.2c0.6-0.6,0.6-1.1,1.1-0.6h1.1
				C1026.6,549.6,1027.8,551.9,1027.2,556.4l1.7,0.6c1.1-5.6-1.1-7.8-3.9-8.4c-2.2-0.6-5.6-1.1-5.6-1.1v0.6c0.6,0.6,1.7,0.6,1.1,2.2
				l-1.7,10.1c-0.6,1.1-1.1,1.7-1.7,1.7h-0.6l5.6,1.1c2.8,0.6,5.6,0,6.7-6.2L1027.2,556.4L1027.2,556.4z"/>
			<path class="st15" d="M1032.2,551.9c0-1.1-1.1-1.7-1.7-1.7v-0.6l10.1,1.1l-0.6,4.5c0-2.8-1.7-3.9-2.8-3.9
				c-0.6-0.6-1.1-0.6-1.7-0.6s-0.6,0-0.6,1.7c0,0.6-0.6,4.5-0.6,4.5c0.6,0,2.2,0.6,3.4-2.8l-0.6,7.3h-0.6c0-3.4-1.7-3.4-2.2-3.4
				l-0.6,5c0,1.1,0,1.1,0.6,1.1l1.1,0.6c1.7,0,3.4-0.6,4.5-3.9h0.6l-1.1,4.5l-10.6-1.1c1.1,0,1.7-0.6,2.2-1.7L1032.2,551.9
				L1032.2,551.9z"/>
			<path class="st15" d="M1050.7,558.6c0,5-1.7,6.7-3.4,6.7c-0.6-0.6-0.6-0.6-1.1-0.6l-0.6-0.6l0.6-11.7c0-0.6,0-0.6,0.6-0.6h1.1
				C1049,551.9,1050.7,553.6,1050.7,558.6l2.2,0c0-5.6-2.8-7.3-5.6-7.3c-2.2-0.6-5.6-0.6-5.6-0.6v0.6c0.6,0,1.7,0.6,1.7,1.7
				l-0.6,10.6c0,1.1-0.6,1.7-1.1,1.7v0.6h5c2.8,0,5.6-1.1,6.2-7.3H1050.7L1050.7,558.6z"/>
			<path class="st15" d="M1066.9,563.1c0,1.1,0.6,1.1,1.7,1.1v0.6l-6.2,0.6c0.6-0.6,1.7-1.1,1.7-2.2l-1.1-10.6
				c-0.6-1.1-1.1-1.1-2.2-1.1v-0.6l6.2-0.6c-0.6,0.6-1.7,1.1-1.1,2.2L1066.9,563.1L1066.9,563.1z"/>
			<path class="st15" d="M1072.5,564.2v-0.6c0.6,0,1.1-0.6,1.1-1.7l-2.2-11.7h-0.6c-1.1,0.6-2.2,1.7-1.7,3.9h-0.6l-0.6-3.9l10.1-1.7
				l0.6,3.9h-0.6c0-2.2-1.7-2.8-3.4-2.8h-0.6l2.2,11.7c0,1.1,0.6,1.7,1.7,1.7v0.6L1072.5,564.2L1072.5,564.2z"/>
			<path class="st15" d="M1096.5,553l-2.2-6.7c0-1.1-1.1-1.1-1.7-1.1v-0.6l2.8-1.1v0.6c-0.6,0.6-0.6,0.6-0.6,1.7l2.2,7.3
				c0.6,2.2,0.6,5.6-2.8,6.7c-2.2,0.6-5-0.6-5.6-3.9l-2.2-7.3c-0.6-1.1-1.1-1.1-1.7-1.1l-0.6-0.6l5.6-1.7v0.6
				c-0.6,0.6-1.1,1.1-0.6,2.2l1.7,7.3c0.6,2.2,2.2,3.4,3.9,3.4C1096.5,558,1097.1,555.8,1096.5,553L1096.5,553z"/>
			<path class="st15" d="M1102.7,549.1c2.8-1.1,2.2-2.8,1.7-4.5c-0.6-1.7-1.7-2.8-2.8-2.2c-0.6,0-1.1,0.6-0.6,1.1L1102.7,549.1
				l0.6,0.6l1.1,4.5c0.6,1.1,1.7,1.1,2.2,0.6v0.6l-5,2.2l-0.6-0.6c1.1-0.6,1.1-1.1,1.1-2.2l-3.9-9.5c-0.6-1.7-1.1-1.1-2.2-1.1v-0.6
				l5.6-2.2c2.2-0.6,4.5,0,5.6,2.2c0.6,2.8-0.6,4.5-2.8,5.6c-0.6,0-1.1,0.6-1.1,0.6L1102.7,549.1L1102.7,549.1z"/>
			<path class="st15" d="M1116.7,550.8c-1.7,0.6-3.9-1.7-5.6-5.6c-1.7-3.4-1.7-6.7,0-7.3c1.7-0.6,3.9,1.7,5.6,5
				S1118.3,549.6,1116.7,550.8c3.4-1.1,4.5-5,2.8-8.9c-1.7-3.4-5-5.6-8.4-4.5c-3.4,1.7-4.5,5.6-2.8,8.9
				C1109.9,550.2,1113.3,552.4,1116.7,550.8L1116.7,550.8z"/>
			<path class="st15" d="M1117.2,535.1h-0.6h-0.6l3.4-2.2l10.1,5.6l-3.4-6.2c-0.6-1.1-1.7-1.1-2.2-1.1v-0.6l2.8-1.1
				c-0.6,0.6-1.1,1.1,0,2.2l5.6,11.2l-0.6,0.6l-12.3-6.7l4.5,8.4c0.6,1.1,1.7,1.1,2.2,0.6v0.6l-2.8,1.7v-0.6c0.6-0.6,0.6-1.1,0-2.2
				l-4.5-8.9L1117.2,535.1L1117.2,535.1z"/>
			<path class="st15" d="M1142.4,536.8v-0.6c0-0.6,0.6-1.1,0-2.2l-6.7-9.5h-0.6c-1.1,0.6-1.7,2.8,0,4.5l-0.6,0.6l-2.2-3.9l8.4-5.6
				l2.2,3.4c-1.7-1.7-3.4-1.7-4.5-1.1l-0.6,0.6l6.7,9.5c0.6,1.1,1.7,1.1,2.2,0.6v0.6L1142.4,536.8z"/>
			<path class="st15" d="M1148.5,523.4l3.4,3.9c0.6,0.6,1.7,0.6,2.2,0v0.6l-4.5,3.9v-0.6c0.6-0.6,0.6-1.1,0-2.2l-6.7-8.4
				c-0.6-1.1-1.1-0.6-2.2-0.6l4.5-3.9v0.6c0,0.6-0.6,1.1,0,2.2l2.8,3.4l3.4-2.2l-2.8-3.9c-0.6-1.1-1.7-0.6-2.2-0.6l4.5-3.9v0.6
				c-0.6,0.6-0.6,1.1,0,2.2l6.7,8.4c0.6,0.6,1.1,0.6,1.7,0l0.6,0.6l-4.5,3.9l-0.6-0.6c0.6-0.6,1.1-1.1,0.6-2.2l-3.4-3.9
				L1148.5,523.4L1148.5,523.4z"/>
			<path class="st15" d="M1153.6,511.6c-0.6-0.6-1.7-0.6-2.2,0v-0.6l7.3-6.7l3.4,3.4h-0.6c-1.7-2.2-3.9-1.1-5-0.6
				c0,0.6-0.6,0.6-1.1,1.1c0,0,0,0.6,0.6,1.7c0.6,0.6,3.4,3.4,3.4,3.4c0.6-0.6,2.2-1.7,0-4.5h0.6l4.5,5v0.6
				c-2.8-2.8-3.9-1.1-4.5-0.6l3.4,3.4c0.6,1.1,1.1,1.1,1.1,1.1c0.6-0.6,1.1-1.1,1.7-1.7c0.6-0.6,1.1-2.2,0-5.6h0.6l2.2,3.9l-7.3,7.3
				l-0.6-0.6c0.6-0.6,1.1-1.1,0-2.2L1153.6,511.6L1153.6,511.6z"/>
			<path class="st15" d="M1167,496c-0.6,0.6-0.6,1.7,0.6,2.2c1.1,1.1,2.2,1.1,4.5,0c1.1-0.6,3.4-1.1,5,0.6c2.8,2.8,1.7,5,1.1,6.2
				c-0.6,0.6-1.7,1.1-2.2,1.7c-0.6,0-0.6,0-0.6,0.6v0.6l-3.9-3.4h0.6c2.2,1.1,4.5,1.7,5.6,0c1.1-1.1,0-2.2-0.6-2.8
				c-1.1-1.1-2.2-1.1-3.9,0c-1.7,0.6-3.9,0.6-5.6-0.6c-2.2-2.2-2.2-3.9-1.1-5.6c0.6-0.6,1.7-1.1,2.2-1.7c0.6,0,0.6,0,0-1.1l3.9,2.8
				h-0.6C1169.2,494.3,1167.5,494.9,1167,496L1167,496z"/>
			<path class="st15" d="M1172,491.5c-1.1-0.6-1.7,0-2.2,0.6h-0.6l6.2-8.9l3.9,2.8l-0.6,0.6c-2.2-1.7-4.5-0.6-5,0
				c0,0.6-0.6,1.1-0.6,1.7c-0.6,0-0.6,0.6,0.6,1.1c0.6,0.6,3.9,2.8,3.9,2.8c0.6-0.6,1.7-1.7-0.6-3.9v-0.6l5.6,4.5
				c-3.4-1.7-3.9,0-4.5,0.6l3.9,2.8c1.1,0.6,1.7,0.6,1.7,0.6c0-0.6,0.6-1.1,1.1-1.7c0.6-1.1,1.1-2.8-1.1-5l0.6-0.6l2.8,3.4l-5.6,8.4
				h-0.6c0.6-1.1,0.6-1.7-0.6-2.8L1172,491.5L1172,491.5z"/>
			<path class="st15" d="M1187.1,481.4l-1.7,2.8c-2.2-2.2-3.4-3.9-3.4-3.9L1187.1,481.4h1.1c0.6,0,1.7,0.6,2.2,0.6
				c1.7,0.6,1.1,1.1,0.6,2.2h0.6l2.8-5c-1.1,1.1-1.7,0.6-2.8,0.6c-11.7-2.2-12.9-2.8-12.9-2.8v0.6l8.9,10.1c0.6,0.6,0.6,1.7,0.6,2.2
				h0.6l1.7-2.8l-0.6-0.6c-0.6,1.1-1.1,1.7-2.2,0c-0.6-0.6-1.1-1.1-1.1-1.1l1.7-3.9H1187.1z"/>
			<path class="st15" d="M1183.7,469.1c-0.6,0.6-0.6,1.7,1.1,2.2c1.7,0.6,2.2,0,3.9-1.1c1.7-1.1,3.4-2.2,5.6-1.1
				c3.4,1.7,2.8,4.5,2.2,5.6c-0.6,0.6-1.1,1.7-1.7,2.2v0.6v0.6l-4.5-2.2c2.8,0.6,5,0,5.6-1.7c0.6-1.1-0.6-2.2-1.1-2.8
				c-1.1-0.6-2.2,0-3.9,1.1c-1.7,1.7-3.4,2.2-5.6,1.1c-2.2-1.1-3.4-2.8-2.2-4.5c0-1.1,1.1-1.7,1.7-2.2c0-0.6,0-0.6-0.6-1.1v-0.6
				l4.5,2.2h-0.6C1185.4,466.9,1183.7,468,1183.7,469.1L1183.7,469.1z"/>
		</g>
	</g>
	<g id="crest">
		<g>
			<path class="st16" d="M1007.1,271.2c-7.3,1.7-12.3,2.2-19-3.9c-4.5-4.5-3.4-12.3,1.1-15.1c5-3.4,9.5-5.6,15.7-3.9
				c6.2,1.7,22.4,16.8,18.5,17.3C1019.4,265.6,1013.2,269.5,1007.1,271.2L1007.1,271.2z"/>
			<path class="st16" d="M1024.4,244.4c2.2-1.7,5-2.8,12.3-3.4c6.7-0.6,11.7-0.6,13.4,4.5c2.2,6.2,3.9,13.4,8.4,16.8
				c-2.8,1.7-16.8,3.4-21.8,0.6C1030,259.5,1028.3,246.6,1024.4,244.4L1024.4,244.4z"/>
			<path class="st16" d="M1072.5,244.9c2.2-1.7,5-1.7,12.3-1.1c7.3,0.6,10.1,1.1,11.7,6.2c1.7,5.6,0,12.9,3.4,17.9
				c-3.4,1.1-14.5,1.1-18.5-2.8C1075.3,260.6,1075.8,247.7,1072.5,244.9L1072.5,244.9z"/>
			<path class="st17" d="M1106,248.3c-5-1.1-8.4-1.7-10.6,0c2.8,3.4,0.6,16.8,6.2,21.2c3.9,2.8,14,3.4,16.2-2.8
				C1120.6,261.2,1120.6,252.8,1106,248.3L1106,248.3z"/>
			<path class="st17" d="M1048.4,242.7c1.7-1.7,5-2.2,11.7-2.2c7.3,0,11.7,1.1,14,5.6c2.2,5.6,1.7,12.9,5.6,17.3
				c-1.7,2.2-16.8,2.2-21.2-1.1C1052.4,258.4,1051.8,245.5,1048.4,242.7L1048.4,242.7z"/>
			<path class="st17" d="M1000.9,247.7c0-2.8,3.9-3.4,14-3.9c10.1-1.1,10.6-0.6,14,6.7c1.7,3.9,3.9,10.6,8.4,12.9
				c-12.3,2.8-16.2,4.5-22.9,0.6c-5-2.8-10.6-9.5-11.7-12.3C1002,250,1002,248.3,1000.9,247.7L1000.9,247.7z"/>
		</g>
		<g>
			<g>
				<path class="st18" d="M1027.8,190.7c-11.7-8.9-25.7-17.3-38.6-19c8.4,5,31.9,23.5,38,29.6"/>
				<path class="st18" d="M1034.5,182.3c-14-9.5-30.2-20.1-45.8-21.2c11.7,6.2,29.1,20.7,38.6,32.4"/>
				<path class="st18" d="M1052.4,166.7c7.8-17.3,16.2-26.8,27.4-37.5c-5.6,11.7-11.7,35.8-14.5,45.3"/>
				<path class="st18" d="M1064.7,163.9c5.6-12.3,14-22.9,28.5-29.6c-7.3,7.3-18.5,29.1-21.2,40.8"/>
				<path class="st18" d="M1069.7,175c6.7-9.5,20.1-27.4,44.2-36.9c-14,14-34.7,39.7-39.7,49.8"/>
				<path class="st18" d="M1077.5,187.3c10.1-5.6,30.2-14.5,44.7-11.7c-8.9,3.4-35.8,15.7-47.5,26.8"/>
				<path class="st18" d="M1075.3,183.4c9.5-10.1,26.8-25.2,45.3-31.3c-13.4,12.9-41.9,41.9-45.8,46.4"/>
				<path class="st18" d="M1048.4,177.3c-6.7-20.7-16.8-40.3-31.9-46.4c8.4,12.3,19,30.2,24.6,57"/>
				<path class="st18" d="M1035.6,176.7c-11.2-13.4-26.3-26.8-43.6-29.6c11.7,6.7,31.3,26.3,38.6,45.3"/>
				<path class="st18" d="M1041.7,176.2c-14-25.2-24.6-29.6-30.8-34.7c5,9.5,17.3,34.7,24.6,45.3"/>
				<path class="st19" d="M1013.8,174.5c6.7,3.9,16.8,13.4,20.1,19.6"/>
				<path class="st18" d="M1013.8,186.2c3.4,2.8,9.5,6.2,15.1,11.2"/>
				<path class="st18" d="M1080.3,194.6c5.6-4.5,17.9-11.7,24-14"/>
				<path class="st18" d="M1076.4,190.7c5.6-7.3,16.8-17.3,20.7-20.7"/>
				<path class="st18" d="M1092.1,156c-5,5.6-16.8,19.6-21.2,26.3"/>
				<path class="st18" d="M1077.5,151c-3.9,5-11.7,19.6-14,24.6"/>
				<path class="st18" d="M1033.3,152.1c3.4,8.9,9.5,24,11.7,30.2"/>
				<path class="st18" d="M1028.3,161.6c2.2,3.4,6.7,11.2,8.4,16.8"/>
			</g>
			<g>
				<path class="st18" d="M1047.3,158.8c0-5,3.4-10.6,6.7-10.6c3.9,0,6.7,6.7,6.7,10.6c0,4.5-3.4,8.4-6.7,8.4
					C1050.7,167.2,1047.3,163.9,1047.3,158.8z"/>
				<path class="st18" d="M1040.1,163.3c0.6-5.6,4.5-10.1,7.8-9.5c3.4,0.6,5,7.3,4.5,11.2c-0.6,4.5-4.5,7.8-7.3,7.3
					C1042.3,172.3,1039.5,168.3,1040.1,163.3z"/>
				<path class="st18" d="M1055.2,165c-1.1-5,1.1-10.6,4.5-11.2c3.4-0.6,6.7,5,7.3,9.5c1.1,4.5-1.7,8.9-4.5,8.9
					C1059.6,172.8,1055.7,170,1055.2,165z"/>
				<path class="st18" d="M1046.8,169.5c0-5.6,3.4-10.6,6.7-10.6c3.9,0,6.7,6.2,6.7,10.6c0,4.5-3.4,8.4-6.7,8.4
					S1046.8,174.5,1046.8,169.5z"/>
				<path class="st18" d="M1036.7,172.3c0-5,3.9-10.6,7.3-10.6c3.4,0,6.7,6.7,6.7,10.6c0,4.5-3.9,8.4-6.7,8.4
					C1040.6,180.6,1036.7,177.3,1036.7,172.3L1036.7,172.3z"/>
				<path class="st18" d="M1057.4,170c0-5,3.4-10.6,6.7-10.6c3.9,0,6.7,6.7,6.7,10.6c0,4.5-3.4,8.4-6.7,8.4S1057.4,175,1057.4,170z"
					/>
				<path class="st18" d="M1055.2,174.5c0-5.6,3.9-10.6,7.3-10.6c3.4,0,6.7,6.2,6.7,10.6c0,4.5-3.4,8.4-6.7,8.4
					C1059.1,182.9,1055.2,179.5,1055.2,174.5L1055.2,174.5z"/>
				<path class="st18" d="M1046.2,179.5c0-5.6,3.4-10.6,6.7-10.6c3.9,0,6.7,6.7,6.7,10.6c0,4.5-3.4,8.4-6.7,8.4
					C1049.6,187.9,1046.2,184.6,1046.2,179.5z"/>
				<path class="st18" d="M1032.2,179.5c0-5.6,2.8-10.6,5.6-10.6s5,6.7,5,10.6c0,4.5-2.8,8.4-5,8.4
					C1035,187.9,1032.2,184.6,1032.2,179.5z"/>
				<path class="st18" d="M1063.5,178.4c0-5,2.8-10.1,5.6-10.1s5.6,6.2,5.6,10.1c0,5-3.4,8.4-5.6,8.4
					C1066.3,186.8,1063.5,183.4,1063.5,178.4L1063.5,178.4z"/>
				<path class="st18" d="M1066.9,187.9c1.1-5.6,4.5-10.1,6.7-9.5c2.2,0.6,2.8,7.3,1.7,11.2c-0.6,5-3.9,7.8-6.2,7.3
					C1066.9,196.3,1065.8,192.4,1066.9,187.9z"/>
				<path class="st18" d="M1056.3,186.2c0.6-5,3.9-10.1,6.7-9.5c3.4,0,5,6.7,4.5,10.6c-0.6,5-3.4,8.4-6.2,7.8
					C1058.5,195.2,1055.7,191.3,1056.3,186.2z"/>
				<path class="st18" d="M1040.6,187.9c-1.7-5.6-5-9.5-7.3-8.9s-2.8,7.3-1.7,11.2c1.1,4.5,4.5,7.3,6.7,6.7
					C1040.1,196.3,1041.7,192.4,1040.6,187.9L1040.6,187.9z"/>
				<path class="st18" d="M1036.7,186.8c0-5,2.8-10.1,5.6-10.1c3.4,0,5.6,6.2,5.6,10.1c0,5-2.8,8.4-5.6,8.4
					C1040.1,195.2,1036.7,191.8,1036.7,186.8L1036.7,186.8z"/>
				<path class="st18" d="M1045.1,189c0-5.6,3.4-10.6,6.7-10.6c3.9,0,6.7,6.2,6.7,10.6s-3.4,8.4-6.7,8.4S1045.1,194.1,1045.1,189z"
					/>
				<path class="st18" d="M1047.9,127.5c-1.1,4.5-5,8.4-2.2,14.5c-5-1.7-9.5-2.2-13.4,2.2c5-0.6,9.5,1.1,11.7,4.5
					c-4.5-0.6-6.7,1.7-7.8,4.5c3.9-1.1,7.8-2.2,9.5-1.7c-1.7,1.7-4.5,4.5-5,6.7c3.4-2.8,7.3-2.2,9.5-3.9c-1.7,3.9,1.7,7.8,4.5,11.7
					c-0.6-5.6,2.8-9.5,1.1-12.3c5,1.1,5.6,5.6,12.9,5.6c-2.8-1.7-4.5-7.3-7.8-7.3c1.7-0.6,8.4-1.1,9.5,0c-1.1-2.2-5-4.5-7.3-4.5
					c2.2-2.2,6.2-6.7,8.9-7.8c-3.9,0.6-10.1,1.1-12.3,4.5c5.6-4.5,4.5-12.9,10.6-14c-3.4-0.6-8.4,1.7-12.3,5.6
					c1.7-3.4,1.7-7.8,3.9-8.9c-4.5,1.1-9.5,6.7-11.2,9.5C1050.7,133.7,1049,129.2,1047.9,127.5L1047.9,127.5z"/>
				<path class="st18" d="M1050.7,136.5c0,1.7,0,5-0.6,6.2"/>
				<path class="st18" d="M1057.9,135.9c-1.1,1.1-3.4,5-3.4,8.4"/>
				<path class="st19" d="M1061.3,142.6c-1.7,1.1-3.4,2.8-3.9,5"/>
			</g>
		</g>
		<g>
			<path class="st20" d="M1002,198c-3.9,0-7.3-1.7-9.5-4.5c-3.9-5-14.5-7.3-19-2.8c-1.7,1.1-3.9,1.1-5.6,1.7c-2.8,0-6.2,2.8-5,8.4
				c2.2-1.7,2.8,0,4.5,0c1.1-0.6,0.6,0.6,0.6,1.7c0,2.8,6.2,8.4,11.7,7.8c6.2,0,8.9,2.2,10.1,3.4c1.7,1.7,0.6,1.1,1.7,3.9
				c1.7,1.7,2.2,2.2-0.6,4.5c-3.9,3.4-6.7,11.2,0,17.3c7.3,5.6,25.7,14,46.4-2.2c20.1-15.7,51.4-6.7,53.7-1.1
				c2.8,5.6,3.9,8.9,4.5,11.7c0.6,2.2,3.4,4.5,7.3,3.9c3.9,0,8.4,1.7,10.6,3.4c2.8,1.7,6.7,1.1,5.6-3.9
				c-2.2-15.7-11.7-17.9-12.9-25.2c5.6,0.6,9.5,0.6,11.7-1.7c1.7-2.2,3.9-6.2,6.2-7.3c1.7-1.1,1.7-2.2-0.6-1.7
				c-2.8,0.6-4.5,1.7-9.5,1.1C1088.1,213.6,1016,194.1,1002,198L1002,198z"/>
			<path class="st21" d="M1116.1,217c-2.8,1.7-5.6,4.5-10.6,11.2c-5.6,7.3-22.4,14.5-43.1,14.5c-20.1,0-32.4-3.4-41.4-10.6
				c-5-3.9-8.9-6.2-12.3-7.8c-6.2-2.8-7.3-8.9-5.6-14c-1.7,2.8-2.8,5.6-6.2,5c-2.2,0-6.7,0-5.6,2.2c-0.6-1.1-0.6-2.8-1.1-3.4
				c-0.6-0.6-1.1-1.1-1.1-1.1c1.7,1.1,5.6-2.2,8.4-2.2c2.2,0.6,5-2.2,4.5-5.6c-0.6-2.8-1.1-5-1.7-7.3c4.5-2.2,63.2,8.4,74.9,9.5
				C1087,208,1120.6,213.1,1116.1,217L1116.1,217z"/>
			<path class="st20" d="M1009.9,195.7c5.6-5.6,12.3-8.4,19-6.7h1.7c3.4-2.8,11.2-3.4,15.7-1.1h2.2c6.7-2.2,19.6,0,24,4.5l1.7,1.1
				c15.1-1.1,24,5.6,34.7,16.2c1.1,1.1,2.8,3.4,5.6,3.9c3.4,0.6,3.9,2.2,1.1,3.9c-3.4,1.7-6.2,4.5-11.7,10.6
				c-5,6.7-21.2,13.4-41.4,13.4c-19.6,0-31.3-3.4-40.3-10.1c-5-3.9-8.9-6.2-11.7-7.8c-3.4-1.1-7.8-5.6-6.2-10.1
				c1.1-4.5-1.7-10.1-3.9-15.7c1.7-1.1,6.2-2.8,8.4-1.7L1009.9,195.7L1009.9,195.7z"/>
			<g>
				<path class="st22" d="M1108.8,209.7c-10.6-10.6-19.6-17.3-34.7-16.2c0,0.6,0,2.2-0.6,3.4c8.9,3.4,21.8,13.4,27.4,20.7
					C1103.2,215.3,1107.1,212.5,1108.8,209.7L1108.8,209.7z"/>
				<path class="st22" d="M1072.5,192.4c-4.5-4.5-17.3-6.7-24-4.5c0,2.2,0,5.6-1.1,7.8c3.9,1.7,7.3,5.6,10.6,9.5
					c2.2-0.6,7.8-2.2,10.6-2.8C1069.7,200.2,1071.9,195.2,1072.5,192.4z"/>
				<path class="st22" d="M1046.2,187.9c-4.5-2.2-12.3-1.7-15.7,1.1c-1.1,2.2-1.7,6.7-1.7,8.9c2.2,0,5.6,1.7,6.7,2.8
					c3.4-1.1,7.8-3.4,9.5-5C1045.6,193.5,1046.8,190.1,1046.2,187.9L1046.2,187.9z"/>
				<path class="st22" d="M1009.9,195.7c5.6-5.6,12.3-8.4,19-6.7c-1.1,1.7-1.7,5-1.7,8.4c-6.2-0.6-14,1.1-17.3,3.4V195.7z"/>
				<path class="st22" d="M1098.8,218.7c-5-7.3-17.3-15.7-25.7-19.6c0,0.6-1.1,2.8-1.7,4.5c3.4,5,10.1,16.2,12.9,22.4
					C1087,224.8,1094.8,221.5,1098.8,218.7L1098.8,218.7z"/>
				<path class="st22" d="M1056.3,231c1.1-7.8,1.7-19,1.7-22.9c2.8-0.6,8.4-2.2,10.6-2.8c2.8,4.5,9.5,16.2,12.3,21.8
					C1074.2,228.7,1063,231.5,1056.3,231L1056.3,231z"/>
				<path class="st22" d="M1036.7,204.1c2.8-1.1,6.7-3.4,9.5-5.6c2.2,1.7,6.7,5.6,8.4,7.8c0,5-1.7,19.6-2.2,24.6
					c-4.5,0-11.7-1.1-15.7-3.4C1037.3,219.2,1037.8,209.7,1036.7,204.1L1036.7,204.1z"/>
				<path class="st22" d="M1008.7,210.8c0.6-1.1,1.1-5,1.1-6.7c4.5-2.8,15.7-5.6,24-1.1c0.6,5.6,0,19.6-0.6,22.9
					C1026.1,220.3,1014.3,212.5,1008.7,210.8L1008.7,210.8z"/>
			</g>
			<g>
				<path d="M980.8,200.8c-1.1,0-1.7-3.4-3.9-3.4c-0.6,0-2.2,0.6-2.8,0c0,1.1,0.6,2.2,1.1,2.8C975.8,201.9,978.6,200.8,980.8,200.8
					L980.8,200.8z"/>
				<path class="st23" d="M980.8,210.3c6.7,0,7.8-8.4,11.2-8.9"/>
				<path class="st23" d="M984.7,210.8c5,2.2,8.9-9.5,12.9-8.9"/>
				<path class="st23" d="M974.6,196.3c1.7,0,2.8-2.2,5.6,0.6c1.1,1.1,2.8,1.7,3.9,1.7"/>
				<path class="st23" d="M983,204.7c-2.2,3.4-6.2,5.6-8.4,4.5"/>
				<path class="st23" d="M973.5,190.7c-1.7,1.1-2.8,3.4-3.9,5"/>
				<path class="st23" d="M967.9,199.1v2.8"/>
			</g>
		</g>
	</g>
	<g>
		<path class="st24" d="M1154.7,271.8v109c0,94.5-44.7,126.9-104.6,152.6C990.3,507.7,945,475.3,945,380.8v-109H1154.7L1154.7,271.8
			z"/>
		<path class="st25" d="M1050.1,364c5,0,12.9-4.5,19.6-11.2c7.3-7.8,19.6-10.6,32.4,0c12.9,10.6,20.7,6.2,27.4,0
			c6.7-6.2,12.3-8.4,25.2-8.4v-72.7H945v72.7c12.9,0,18.5,2.2,25.2,8.4c6.7,6.2,14.5,10.6,27.4,0c13.4-10.6,25.2-7.8,33,0
			C1036.7,359.6,1044.5,364,1050.1,364L1050.1,364z"/>
		<g>
			<path class="st26" d="M1050.1,419.9c6.7,0,20.1-7.3,23.5-8.9c12.3-7.3,21.2-0.6,28.5,2.8c7.8,3.4,22.4,7.3,31.3,0
				c8.9-7.3,14-6.7,20.1-6.7c1.1-8.4,1.1-16.8,1.1-26.3v-6.7c-7.8-1.7-11.7,0.6-20.1,7.8c-8.4,7.3-17.9,5.6-30.2,1.1
				c-11.7-5-23.5-14-35.2,0c-3.4,3.9-11.2,9.5-19,9.5c-8.4,0-15.7-5.6-19-9.5c-12.3-14-23.5-5-35.2,0c-12.3,4.5-22.4,6.2-30.8-1.1
				c-7.8-7.3-11.7-9.5-20.1-7.8v6.7c0,9.5,0.6,17.9,1.7,26.3c6.2,0,10.6-0.6,19.6,6.7c8.9,7.3,24,3.4,31.3,0
				c7.8-3.4,16.8-10.1,29.1-2.8C1030,412.7,1042.9,419.9,1050.1,419.9L1050.1,419.9z"/>
			<path class="st26" d="M1050.1,444c8.4,0,18.5-3.4,27.4-8.4c11.2-6.2,19-3.4,30.2,2.2c11.7,5.6,21.2,3.9,28,0
				c3.4-2.2,6.2-6.7,13.4-5c-3.4,14-8.4,26.3-14.5,36.3c-11.2,2.8-17.3,2.8-29.1-2.2c-11.7-5.6-26.3-8.9-34.1-3.9
				c-7.3,4.5-15.1,6.7-21.2,6.7c-6.2,0-14-2.2-21.2-6.7c-7.8-5-22.4-1.7-34.1,3.9c-11.7,5-17.9,5-29.1,2.2
				c-6.2-10.1-11.2-22.4-14.5-36.3c7.3-1.7,10.1,2.8,13.4,5c6.2,3.9,16.2,5.6,27.4,0c11.7-5.6,19.6-8.4,30.8-2.2
				C1031.7,440.6,1041.7,444,1050.1,444L1050.1,444z"/>
			<path class="st26" d="M1050.1,533.4c22.4-9.5,43.1-20.1,59.8-34.7c-4.5-1.7-7.3-0.6-11.2-3.4c-3.9-2.8-15.7-3.9-25.7,1.7
				c-10.6,5-15.1,6.2-22.9,6.2c-7.8,0-12.3-1.1-22.9-6.2c-10.1-5.6-21.8-4.5-25.7-1.7c-3.9,2.8-6.7,1.7-11.2,3.4
				C1007.1,513.3,1027.2,523.9,1050.1,533.4L1050.1,533.4z"/>
		</g>
		<g id="lion">
			<path class="st27" d="M1035.6,299.2c0.6,1.1-0.6,3.9,0,5c1.1,2.2,1.1,3.4,2.8,4.5h3.9c12.3,0,26.8-5,39.1-5
				c11.7,0,19,3.9,25.7,3.9c3.9,0,7.3-2.8,7.3-5.6s-4.5-4.5-14-4.5c-13.4,0-20.7,3.4-31.9,3.4c-16.8,0-19.6-6.2-19.6-8.9
				s2.8-6.7,11.7-6.7c2.8,0,5-0.6,6.2-1.7c0.6-1.1,2.2-3.4,5.6-5c3.9-2.2,11.7,0,15.7-2.8c0,2.2-3.4,5.6-6.2,6.7
				c5.6-1.7,11.7-1.7,12.9,2.8c-2.8-1.7-7.3-0.6-8.9,0c-2.2,0.6-3.4,1.1-5.6,1.7c2.2-0.6,3.4,3.9,6.7,3.9c-3.4,2.8-8.9,2.8-14.5,0.6
				c-1.7-0.6-6.2-2.2-8.9-2.2c-5.6,0-8.9,1.1-8.9,3.4c0,2.8,3.4,4.5,13.4,4.5s15.7-2.8,30.8-2.8c-1.1-1.7,0.6-3.4-1.7-5
				c5.6,0,11.7,1.7,14,5.6c-0.6-3.9,2.8-7.3,1.7-10.6c3.4,0.6,6.2,3.9,6.7,6.7c0-1.7,2.2-1.7,2.2-3.4c3.4,1.7,5,5.6,4.5,8.9
				c1.7-2.8,3.4-1.7,4.5-5c1.1,2.2,0.6,8.9-3.4,11.2c3.4-2.2,8.4-2.2,11.7,1.7c-3.4-0.6-5,1.1-6.7,1.7c-6.7,3.9-17.9,6.2-26.3,5.6
				c-8.9-0.6-10.1-2.2-15.7-2.2c3.4,0.6,10.1,7.3,16.2,7.3c3.9,0,6.7,0,8.4-0.6c1.7-0.6,4.5,0,6.7,1.1c1.7,1.7,5,3.4,7.3,2.8
				c-0.6,2.2-1.7,3.4-3.4,3.9c2.8,1.7,1.1,2.8,3.9,5c-1.1,0-2.2,1.1-3.9,0.6c1.7,1.7,1.7,3.9,3.4,5c-0.6,0-2.2,0.6-3.4,0
				c1.7,2.2,0,5,1.7,6.2c1.7,2.2-1.7,5-4.5,2.8c0.6,1.7-1.1,3.4-2.8,2.8c-1.7-0.6-2.8-2.2-2.2-2.8c0-0.6,0-0.6,0.6-1.1
				c-1.1,1.7-3.4,1.7-4.5,1.1c-0.6-0.6-1.1-1.1-1.1-1.7c-3.9,1.1-5.6-2.2-5-3.9c0.6-1.7,3.9-2.2,5-1.7c1.1,0.6,2.2,1.1,3.4,0
				c1.1-0.6,1.7-1.7,1.7-2.8c0-1.7-1.7-6.7-8.9-6.2c-8.4,0.6-21.8-1.7-28.5-3.9c-0.6-0.6-1.1-0.6-1.7-1.1c0,2.2-2.2,3.4-2.2,5.6
				c0,2.8,1.1,5,4.5,6.2c-1.7,2.8-4.5,2.2-5.6,0.6c0,1.7-2.2,2.8-2.2,5c-0.6-1.1-1.1-1.7-1.7-2.8c-1.7,3.9-6.2,6.2-8.4,5
				c-2.8,2.2-6.2,1.7-7.3-0.6c-1.7,1.1-3.9,1.1-5,0c0,1.7-1.1,1.1-1.7,3.4c0,1.1-2.2,1.7-3.4,1.1c-1.1-0.6-1.7-2.8-0.6-3.9
				c-1.7,1.1-3.4,1.1-4.5,0c0-1.1,0-2.8,1.1-3.4h1.1c-1.1-0.6-2.8,0-3.9-0.6c-1.1-1.1-1.1-2.2-0.6-3.4c0.6-0.6,2.2-1.7,3.4-0.6
				l0.6,0.6c0-1.1,0.6-2.2,1.1-2.2c1.1-0.6,2.8-0.6,4.5,1.1c1.1,1.7,2.2,1.7,5.6,1.1c2.8,0,7.3-2.8,10.6-5.6
				c-9.5-1.7-3.9-7.8-1.1-10.1c-2.2-0.6-5.6-0.6-7.8,0.6c-11.7,6.2-24,13.4-31.9,11.2c0,1.1,0.6,2.2,1.1,3.4c-1.7,0-5,0-6.2-1.7
				c-0.6,1.1-1.7,3.9-0.6,6.2c-1.1-1.1-4.5-2.2-6.2-2.8c1.1,1.1,0,3.4,0.6,5c-1.7-1.7-4.5-2.8-5.6-1.7c-1.1,1.1-3.4,1.7-5,1.1
				c-1.1,1.7-2.8,2.8-4.5,3.4c0-1.1,0-2.8-0.6-3.4c-0.6,1.7-2.2,3.9-4.5,5c0-1.1,0-2.8-0.6-3.9c0,2.2-4.5,3.4-5,5
				c0.6-1.7,0.6-3.4,0.6-4.5c-1.1,1.7-2.8,3.4-5.6,3.9c0.6-1.1,1.1-2.2,0.6-3.4c-0.6,2.2-3.9,3.4-6.7,2.8c0,1.1-2.2,2.8-5,1.1
				c-1.7-0.6-2.8-2.2-1.7-3.4c-2.2,0-4.5-2.2-3.4-3.9c0-0.6,0.6-1.1,0.6-1.7c-1.7-1.1-2.2-3.4-0.6-5c0.6-0.6,2.2-0.6,3.4-0.6
				c0-4.5,3.9-4.5,5.6-1.1c1.1,1.7,4.5,4.5,7.3,3.9c1.1,0,1.7-0.6,2.8-0.6c3.4-1.1,10.1-3.9,14-7.3c0.6-1.7,0.6-2.8,0.6-3.9
				c-2.2,1.1-4.5,2.2-5.6,3.9v-1.7c-1.7,0-4.5-0.6-5.6-0.6c0.6-0.6,1.1-3.4,2.2-3.9c-2.8,0.6-5.6,0-7.8-0.6c1.1-1.1,1.1-2.8,1.7-4.5
				c-1.1,0.6-3.9-0.6-6.2,0c0.6-1.7,1.1-3.9,2.8-4.5c-2.2,0.6-5,0-7.8-1.1c2.2,0,3.4-2.8,5-2.8c-4.5,0-5.6-2.2-7.8-3.4
				c1.7,0.6,2.8-1.1,4.5-1.1c-1.7-0.6-4.5-3.4-3.4-5c-0.6,0.6-1.1,1.7-2.2,2.2c-1.1,0.6-3.4,0-5-1.7c-1.1-2.2-0.6-5,1.7-5.6
				c-2.8-0.6-2.8-3.4-1.7-4.5c0.6-1.1,2.8-2.8,3.9-1.1c0.6,0.6,1.1,1.7,1.7,2.2c-0.6-1.1-0.6-3.4-0.6-5c0.6-1.7,1.7-1.7,3.4-2.2
				c1.7,0,2.8,1.7,2.8,3.4c0,1.7,0.6,2.8,1.1,5c0-0.6,0.6-1.7,0.6-2.2c0-2.2,2.8-1.7,4.5-1.1s2.2,3.9,0,5.6
				c-1.1,1.1-0.6,2.8,0.6,3.9c3.9,6.2,10.6,11.2,16.2,11.7c0-2.2,1.1-4.5,2.8-6.2c0-1.1,0.6-2.8,1.1-3.9c0.6-3.4,2.2-5,4.5-3.9
				c-0.6-0.6-1.1-1.1-1.1-1.7c-1.7-1.7-3.4-4.5-2.2-6.7c1.1-2.2,4.5-1.7,5.6-0.6c-0.6-3.4,3.4-6.2,3.4-7.8c0.6,1.7,1.7,3.9,1.1,5.6
				c0.6-2.2,4.5-5,7.3-6.2c-1.1,1.7,2.2,4.5,1.7,6.2c1.1-2.8,5.6-4.5,8.9-4.5c-1.1,1.1-1.1,3.4-1.1,4.5c1.7,0,4.5-0.6,5.6-2.2
				c0,2.2-1.1,4.5-2.2,5.6c0.6-0.6,2.8-0.6,4.5-0.6c-1.7,1.7-1.1,3.4-2.8,4.5c2.2-1.1,5-1.1,5.6,1.1c1.1,1.7-0.6,4.5-1.7,6.2
				C1037.3,298.1,1036.1,299.2,1035.6,299.2L1035.6,299.2z"/>
			<g>
				<path class="st23" d="M1000.9,305.9c-3.9,1.7-5,5.6-5.6,7.8"/>
				<path class="st23" d="M1000.4,309.8c-5.6,3.4-7.8,6.2-6.7,12.3"/>
				<path class="st23" d="M1003.2,326.6c3.4-1.1,5.6-2.2,8.4-7.3"/>
				<path class="st23" d="M1009.9,321.5c-1.1,2.2,0,6.2-1.7,7.8c2.8-1.7,5-3.9,5.6-7.8"/>
				<path class="st23" d="M1011,327.7c2.2-1.1,5.6-4.5,7.3-8.4c-0.6,1.7,0,4.5-1.1,6.2c2.8-2.8,3.9-4.5,4.5-7.3
					c0,0.6,0.6,1.7,0.6,2.2c1.1-1.1,2.2-2.2,2.2-4.5"/>
				<path class="st23" d="M1024.4,317.6v2.8c2.2-1.7,2.8-3.9,2.8-6.7"/>
				<path class="st23" d="M1026.6,317.1c3.4-2.2,3.9-5.6,3.9-10.6"/>
				<path class="st23" d="M1030.6,312c2.2-1.7,2.8-2.8,2.8-7.8"/>
				<path class="st23" d="M1026.1,289.1c-1.1,0-2.2,0.6-2.2,2.2c0,1.1-1.7,2.8-1.7,4.5c-0.6,2.2-1.7,2.8-3.4,2.2
					c-1.7-1.1-1.7-1.1-1.7-2.8c0-2.2,2.8-2.8,2.8-5c0.6-1.1,1.1-2.8,1.7-2.8c-2.8,1.7-6.7,0.6-7.3-2.8"/>
				<path class="st23" d="M1031.1,290.8c-1.1,0.6-2.2-1.1-3.9-0.6c-0.6,0-2.2,0.6-2.8,0"/>
				<path class="st23" d="M1023.3,293.6c0.6,0.6,3.4,1.7,6.2,0.6c-2.2,0.6-3.9-2.2-1.7-3.9"/>
				<path class="st23" d="M1018.3,288c-2.2,0-3.9,1.7-3.4,3.4c0.6,1.7,2.8,1.7,4.5,0.6"/>
				<path class="st23" d="M1014.3,315.9c0.6-0.6,1.1-1.7,1.1-2.2c1.1,0,2.2-0.6,2.8-1.1c2.2,0,3.9-1.7,4.5-3.4
					c1.1,0,1.7-2.8,2.2-3.9c0.6,0.6,1.7,0,2.2-2.2c1.1,0.6,2.8,0,3.4-1.7"/>
				<path class="st23" d="M1007.6,297.5c0,0.6-1.1,1.7-2.2,2.2c0.6,1.1,0,3.9-1.1,4.5c0.6,1.1,0,2.8-0.6,3.9c0,0.6,0.6,2.2,0.6,2.8"
					/>
				<path class="st23" d="M1009.9,286.3c-1.1,2.8-0.6,6.2,1.7,6.7"/>
				<path class="st23" d="M1011,295.3c-0.6,2.8-0.6,6.7-1.1,8.4c-0.6,1.1-1.7,5,2.8,6.2c5,1.1,7.8,0.6,10.6-7.8"/>
				<path class="st23" d="M1031.7,323.8c0,0.6-0.6,1.7-1.7,1.7"/>
				<path class="st23" d="M1035.6,322.7c0,1.1-1.1,2.8-1.7,3.4"/>
				<path class="st23" d="M1039.5,321.5c0,1.1,0,2.8-1.1,3.4"/>
				<path class="st23" d="M1005.4,286.9c0.6,0,1.1,1.1,1.7,2.2c-1.7-1.1-3.4,1.7-2.2,3.4"/>
				<path class="st23" d="M1003.7,296.4c-0.6,0.6-1.7,1.1-2.2,1.7"/>
				<path class="st23" d="M1002,301.4c-0.6,0-1.1,0.6-1.7,0.6"/>
				<path class="st23" d="M975.2,291.3c0-0.6,0-0.6,0.6-1.1"/>
				<path class="st23" d="M970.2,289.7c-0.6,0-0.6,0-1.1-0.6"/>
				<path class="st23" d="M970.7,297.5h1.1"/>
				<path class="st23" d="M968.5,294.1c-1.1-1.1-2.8-1.7-3.4-1.7"/>
				<path class="st23" d="M999.2,314.8c-3.9,3.4-5.6,6.2-6.2,10.1"/>
				<path class="st23" d="M1003.2,317.6c-1.1,2.2-2.8,3.9-4.5,5"/>
				<path class="st23" d="M981.4,334.4c-4.5,1.1-7.8,0.6-11.2-1.7c-0.6-0.6-1.1-0.6-1.7-1.1"/>
				<path class="st23" d="M998.1,326.6c-0.6,2.2-1.1,5-2.2,5.6c4.5-2.2,8.4-5.6,8.9-10.6"/>
				<path class="st23" d="M965.7,337.2c1.7-0.6,3.4,0.6,4.5-0.6"/>
				<path class="st23" d="M1063,318.7c1.1,0.6,2.8,1.1,3.4,1.7c0.6-1.1,2.8-2.8,4.5-3.4"/>
				<path class="st23" d="M1023.3,330.5c-0.6-2.2,0.6-5,3.9-6.2"/>
				<path class="st23" d="M1001.5,340c0.6-1.1,0.6-2.8,1.1-3.9"/>
				<path class="st23" d="M976.9,341.7c-0.6,1.1-1.7,2.2-1.7,3.4"/>
				<path class="st23" d="M968.5,342.8c0,0,0-0.6,0.6-0.6c1.1-0.6,2.8-1.7,3.4-2.8"/>
				<path class="st23" d="M1044.5,335c-1.1,0.6-1.7,0-2.2-0.6"/>
				<path class="st23" d="M1044,337.7c0,0-0.6,0.6-1.1,0.6"/>
				<path class="st23" d="M1046.8,340.5c-0.6,0.6-1.1,1.1-1.7,1.1"/>
				<path class="st23" d="M1063,341.7c1.1-0.6,1.7-1.7,2.2-3.9"/>
				<path class="st23" d="M1055.7,341.1c1.7-0.6,2.8-1.7,4.5-3.4"/>
				<path class="st23" d="M1071.4,336.6c0-1.1,0-2.2,0.6-3.4"/>
				<path class="st23" d="M1112.7,341.7c-1.1-1.1-1.1-2.8,0.6-3.9c1.1-0.6,1.7-1.1,2.8-1.7"/>
				<path class="st23" d="M1078.6,322.1c-8.9-3.9-8.4-8.9-15.7-8.4"/>
				<path class="st23" d="M1118.3,339.4c0.6,0.6,0,2.2,0,2.8"/>
				<path class="st23" d="M1123.4,339.4c-0.6,1.7-0.6,2.2-0.6,3.9"/>
				<path class="st23" d="M1080.3,286.9h-4.5"/>
				<path class="st23" d="M1033.3,305.9c0,1.1,1.7,3.4,6.2,3.4c-0.6,0-1.1-0.6-1.1-0.6"/>
				<path class="st23" d="M1035.6,299.2c-0.6,0.6-1.1,0-1.1,0c-1.1-1.1,0.6-3.4,2.2-4.5c-1.7,0.6-2.8,0.6-3.9,0.6
					c-1.1,3.4-4.5,5-6.7,2.8c-0.6,2.2-3.4,5-5.6,4.5c-2.2-1.1-2.8-2.8-2.2-4.5c-2.8,3.4-6.2,1.1-7.3,0c-0.6-1.1,0-3.9,1.1-7.3"/>
			</g>
			<path d="M1071.4,320.4c-1.7,1.1-3.4,0-5,1.7c-1.1,1.1,0.6,1.7,1.7,1.7c-0.6,1.7-0.6,2.2,2.2,2.2c-1.1,1.7,2.2,2.2,1.7,4.5
				c1.7-1.7,1.7-3.9,1.1-5.6C1072.5,323.2,1069.7,322.1,1071.4,320.4L1071.4,320.4z"/>
			<g>
				<path class="st28" d="M1020.5,302.5c-2.2-1.1-2.8-2.8-2.2-4.5c-0.6,1.1-1.7,1.7-2.8,1.7c-2.2,5-5,9.5-8.4,9.5
					c-3.9,0.6-3.4,4.5-0.6,4.5C1012.7,314.8,1015.5,312.6,1020.5,302.5z"/>
				<path class="st28" d="M965.1,289.1c1.7-1.7,0.6-3.4-0.6-3.9c-1.7-0.6-5,0-6.7,2.8c1.7-0.6,3.4-0.6,3.9,0.6
					C962.3,289.7,963.5,290.8,965.1,289.1L965.1,289.1z"/>
				<path class="st28" d="M967.9,279c3.9,0,5,0.6,5.6,2.2c0.6,1.1-0.6,2.8-1.7,2.8c-1.7,0-3.4-1.1-2.8-1.7
					C969.6,281.3,969.6,279.6,967.9,279z"/>
				<path class="st28" d="M979.1,288c2.8,0.6,3.9-1.1,2.2-3.4c-0.6-1.7-2.2-2.8-5-2.2C979.1,284.1,976.3,286.9,979.1,288L979.1,288z
					"/>
				<path class="st28" d="M958.4,297.5c1.7,2.8,4.5,2.8,5.6,2.2c1.7-0.6,2.2-2.2,1.7-3.4c-1.1-1.7-2.8-2.2-3.4,0
					C961.2,298.6,959.5,298.1,958.4,297.5z"/>
				<path class="st28" d="M966.8,331.6c-1.1-2.2-4.5-2.2-7.3,0c1.1-0.6,3.4,0,3.9,1.1s1.7,1.1,2.2,1.1
					C966.3,333.3,967.4,332.7,966.8,331.6z"/>
				<path class="st28" d="M971.3,328.2c0-2.8-3.9-3.4-6.2-2.2c1.1,0,2.8,1.1,2.8,2.2c0.6,1.1,1.7,1.7,2.2,1.7
					C971.3,329.4,971.8,328.8,971.3,328.2z"/>
				<path class="st28" d="M965.7,338.3c-3.4-0.6-5,3.4-5,6.2c0.6-1.7,2.2-2.8,3.9-2.2c1.7,0,2.2-0.6,2.2-1.7
					C967.4,339.4,966.8,338.9,965.7,338.3L965.7,338.3z"/>
				<path class="st28" d="M966.3,347.8c1.1,0.6,2.2-0.6,2.8-2.2c0-1.1,2.2-1.1,2.8-0.6c1.1,0.6,1.1,2.8-0.6,3.9
					C970.2,349.5,967.4,350,966.3,347.8L966.3,347.8z"/>
				<path class="st28" d="M1044,331c-1.1-0.6-3.9-1.7-6.2,0c1.7-0.6,2.8,0.6,3.4,1.7c0,1.1,1.7,1.7,2.2,0.6
					C1044,332.7,1044.5,331.6,1044,331z"/>
				<path class="st28" d="M1038.9,335c-2.2-1.1-5,1.7-5.6,3.9c0.6-0.6,2.8-1.7,3.9-1.7c1.1,0.6,2.2,0,2.2-1.1
					C1040.1,335.5,1040.1,335,1038.9,335z"/>
				<path class="st28" d="M1041.7,339.4c-1.7,0-3.9,2.2-3.9,4.5c0.6-1.1,1.7-1.7,2.8-1.1c1.1,0,2.8-0.6,2.8-1.7
					S1042.9,339.4,1041.7,339.4L1041.7,339.4z"/>
				<path class="st28" d="M1046.8,343.9c-1.1-0.6-2.8,0-2.8,1.7c0,1.7,0,3.4-0.6,3.9c1.1-1.1,2.2-1.7,3.4-2.2
					C1047.3,346.7,1047.9,345,1046.8,343.9L1046.8,343.9z"/>
				<path class="st28" d="M1109.9,338.9c-1.1-1.1-2.8-0.6-3.4,0.6c-0.6,1.1-1.1,3.9,0,6.2c0-1.1,1.1-2.8,2.2-2.8
					C1110.5,342.2,1111.1,340,1109.9,338.9L1109.9,338.9z"/>
				<path class="st28" d="M1113.3,341.1c-2.2,1.1-2.2,5-0.6,7.3c0-1.1,0.6-2.8,1.7-3.4c1.7,0,2.2-2.2,1.7-3.4
					C1115,340.5,1113.9,341.1,1113.3,341.1L1113.3,341.1z"/>
				<path class="st28" d="M1120,343.3c-1.1-0.6-2.2,0.6-2.2,1.7c-0.6,1.7,0.6,3.9,2.2,5c0-1.1,0.6-2.2,1.1-2.8
					C1122.8,346.1,1122.2,343.9,1120,343.3z"/>
				<path class="st28" d="M1125,342.8c-1.1,0-2.2,1.7-1.1,3.4c0.6,1.1,1.7,1.7,3.9,1.1c-0.6,0-1.7-1.7-1.1-2.2
					C1127.3,343.9,1126.7,342.8,1125,342.8z"/>
			</g>
		</g>
		<g id="star">
			<path class="st29" d="M969.6,447.3l28-86.1l28,86.1l-73.2-53.1h90.6L969.6,447.3z"/>
			<path class="st30" d="M975.2,439.5l58.1-42.5h-71.6l57.6,42.5l-21.8-68.2L975.2,439.5z"/>
		</g>
		<g>
			<g>
				<path class="st29" d="M1074.7,447.3l28-86.1l28,86.1l-73.2-53.1h90.6L1074.7,447.3z"/>
				<path class="st30" d="M1080.3,439.5l58.1-42.5h-71.6l57.6,42.5l-21.8-68.2L1080.3,439.5z"/>
			</g>
		</g>
		<g>
			<g>
				<path class="st29" d="M1022.2,508.3l28-86.1l28,86.1l-73.2-53.1h90.6L1022.2,508.3z"/>
				<path class="st30" d="M1027.8,500.4l58.1-42.5h-71.6l57.6,42.5l-21.8-68.2L1027.8,500.4z"/>
			</g>
		</g>
		<path class="st23" d="M1154.7,271.8v109c0,94.5-44.7,126.9-104.6,152.6C990.3,507.7,945,475.3,945,380.8v-109H1154.7L1154.7,271.8
			z"/>
	</g>
</g>
</svg>
