<?xml version="1.0" encoding="utf-8"?>
<!-- Generator: Adobe Illustrator 23.1.0, SVG Export Plug-In . SVG Version: 6.00 Build 0)  -->
<svg version="1.1" id="Layer_1" xmlns="http://www.w3.org/2000/svg" xmlns:xlink="http://www.w3.org/1999/xlink" x="0px" y="0px"
	 viewBox="0 0 1050 700" style="enable-background:new 0 0 1050 700;" xml:space="preserve">
<style type="text/css">
	.st0{fill:#012A87;}
	.st1{fill:#DC171D;}
	.st2{fill:#FFFFFF;}
	.st3{fill:#FFFF00;}
	.st4{fill:#F9D90F;stroke:#000000;stroke-width:0.4247;stroke-miterlimit:4.0302;}
	.st5{fill:#62AFE1;}
	.st6{fill:none;stroke:#000000;stroke-width:1.8243;stroke-miterlimit:4.0302;}
	.st7{fill:#F9D90F;}
	.st8{fill:none;stroke:#000000;stroke-width:0.4247;stroke-miterlimit:4.0302;}
	.st9{fill:#7E7E7E;}
	.st10{fill:#F9B60F;stroke:#000000;stroke-width:0.4247;stroke-miterlimit:4.0302;}
	.st11{fill:#BC715F;}
	.st12{fill:#008830;}
</style>
<path class="st0" d="M0,0h1050v700H0V0z"/>
<path class="st1" d="M0,0h1050v350H0V0z"/>
<path class="st2" d="M0,0v700l466.7-350L0,0z"/>
<path class="st3" d="M235.7,264.2l0.1-5.4c0,0-2.9-4.6,0.5-9.6c0,0-7.2-3.8-5.5-9.7c0,0-6.5-1.7-6-8.8c0,0-7-0.5-7.7-6.4
	c0,0-7,1.2-10.1-4.7c0,0-6.8,1.3-8.8-3.5c0,0-6.6,2.3-10.6-3.3c0,0-7,2.8-10-2.5c-2.9,5.3-9.9,2.5-9.9,2.5
	c-3.9,5.6-10.6,3.3-10.6,3.3c-1.9,4.8-8.7,3.4-8.7,3.4c-3.1,5.8-10.1,4.7-10.1,4.7c-0.7,5.9-7.7,6.4-7.7,6.4
	c0.6,7.2-5.9,8.8-5.9,8.8c1.7,5.9-5.5,9.7-5.5,9.7c3.5,5,0.6,9.6,0.6,9.6l-0.2,5L235.7,264.2"/>
<path class="st4" d="M235.7,264.2l0.1-5.4c0,0-2.9-4.6,0.5-9.6c0,0-7.2-3.8-5.5-9.7c0,0-6.5-1.7-6-8.8c0,0-7-0.5-7.7-6.4
	c0,0-7,1.2-10.1-4.7c0,0-6.8,1.3-8.8-3.5c0,0-6.6,2.3-10.6-3.3c0,0-7,2.8-10-2.5c-2.9,5.3-9.9,2.5-9.9,2.5
	c-3.9,5.6-10.6,3.3-10.6,3.3c-1.9,4.8-8.7,3.4-8.7,3.4c-3.1,5.8-10.1,4.7-10.1,4.7c-0.7,5.9-7.7,6.4-7.7,6.4
	c0.6,7.2-5.9,8.8-5.9,8.8c1.7,5.9-5.5,9.7-5.5,9.7c3.5,5,0.6,9.6,0.6,9.6l-0.2,5L235.7,264.2L235.7,264.2L235.7,264.2z"/>
<path class="st1" d="M233,257.4c-18.2-1.8-39.2-6.1-55.3,3c-10.8-6.4-25.9-6-38.8-4.7c-7,1.3-15.2,1.3-22.5,2.4l-1.1,0.2
	c-13.2,0.9-25.3-3-36.8-8.2c3.7,20.7,7.7,42,9.7,63.7c4.3,32.2-15.2,59.1-7.2,90.9c4.8,15.2,21.6,24.1,36.9,25.9
	c14.9,0.9,30.2,3.3,44,6.3c2.6,0.5,5.7,1.8,7.5,2.5c3.8,1.6,6.6,3.9,9,6.4c8.3-8.6,20.5-11,32.5-12.3c21.6-2.5,48.3-1.2,61.5-20.7
	v-1.1c7.2-10.8,6.2-27.4,3.1-39.6c-0.2-4.3-1.4-8.1-2-12.1c-13.2-34.9-1.9-74.1,3.8-109.3c-6.9,3.8-14.7,5.6-22.4,7.5
	c-6.2,0.8-13,0.5-19.3,0.1L233,257.4"/>
<path class="st5" d="M260.2,357.5c-0.1,2.3,1.2,4.1,1.6,6.2c2.5,15.3,5,35.5-10.7,44.9c-17.4,11-40.2,6.3-60.3,12.2
	c-4,1.1-9.6,4.8-12.4,7.4c-1.8-1.2-3.6-3-6-4.1c-16.5-8.8-38-5.8-56.7-10.6c-9.4-3-19.2-10.3-21.5-19.9c-6.1-25.2,8.5-46.6,6.8-71.6
	c-1.1-19.1-4.3-37.4-8.7-55.3c14.6,6.8,31.5,7.9,47.9,4.7c12.2-1.7,26.3-1.7,37.7,3.4c6.3-2.7,13.6-3.9,20.4-4.7
	c12.9,1.3,26.7,3.6,39.9,3.5c8.8-0.5,16.9-3,24.6-6.4C258.2,296.8,249.4,327.8,260.2,357.5"/>
<path class="st2" d="M233.9,363.4l-0.1-27.8h3.4l-42.5-27.4l-0.1-14.3h4.1l-21.2-15.2l-21.1,15.2h4.1l0.1,14.2l-42.3,27.4l3.4,0
	l0.1,27.8L233.9,363.4"/>
<path class="st6" d="M233.9,363.4l-0.1-27.8h3.4l-42.5-27.4l-0.1-14.3h4.1l-21.2-15.2l-21.1,15.2h4.1l0.1,14.2l-42.3,27.4l3.4,0
	l0.1,27.8L233.9,363.4L233.9,363.4L233.9,363.4z"/>
<path class="st2" d="M247,399.9l0,8.7l-136.9-0.2l-0.1-8.7L247,399.9"/>
<path class="st6" d="M247,399.9l0,8.7l-136.9-0.2l-0.1-8.7L247,399.9L247,399.9L247,399.9z"/>
<path class="st2" d="M119.2,399.4l-0.1-29.4l5.5,0l-0.3,29.8l0.3-29.5l-8-0.2v-6.3l122.3,0.1l0.1,6.3h-7.5l0.1,29.8l-0.3-29.8h5.6
	l0.1,29.5"/>
<path class="st6" d="M119.2,399.4l-0.1-29.4l5.5,0l-0.3,29.8l0.3-29.5l-8-0.2v-6.3l122.3,0.1l0.1,6.3h-7.5l0.1,29.8l-0.3-29.8h5.6
	l0.1,29.5 M145.5,392.2l-0.1-20.5H129l0.1,20.5L145.5,392.2 M145.5,392.2l-0.1-20.5H129l0.1,20.5L145.5,392.2 M145.5,392.2
	l-0.1-20.5H129l0.1,20.5L145.5,392.2 M145.5,392.2l-0.1-20.5H129l0.1,20.5L145.5,392.2 M145.5,392.2l-0.1-20.5H129l0.1,20.5
	L145.5,392.2 M133.4,375.9l0,11.9h7.5l0-11.9H133.4 M225.8,392.2l-0.1-20.5l-16.4,0l0.1,20.5H225.8 M213.7,376l0.1,11.9h7.5
	l-0.1-11.9L213.7,376 M225.7,358.8l-0.1-20.5h-16.4l0.1,20.5H225.7L225.7,358.8L225.7,358.8z M213.6,342.6l0,11.9h7.5l0-11.9H213.6
	 M145.4,358.7l-0.1-20.5l-16.4,0l0.1,20.5L145.4,358.7L145.4,358.7L145.4,358.7z M133.3,342.5l0,11.9l7.5,0l-0.1-11.9L133.3,342.5
	 M175.1,358.8l-0.1-20.5l-16.4,0l0.1,20.5L175.1,358.8 M163.1,342.5l0,11.9l7.5,0l0-11.9L163.1,342.5 M198,358.8l-0.1-20.5l-16.4,0
	l0.1,20.5L198,358.8 M186,342.6l0.1,11.9h7.5l0-11.9H186"/>
<path class="st2" d="M202.1,352.5l0.2,47.3l-47.5-0.1l-0.2-47.3L202.1,352.5"/>
<path class="st6" d="M202.1,352.5l0.2,47.3l-47.5-0.1l-0.2-47.3L202.1,352.5L202.1,352.5z M154.2,366l47.9,0 M154.2,366l47.9,0
	 M154.2,366l47.9,0 M154.2,366l47.9,0 M154.2,366l47.9,0 M160.2,399.8l-0.2-33.4 M196.5,399.8l-0.2-33.4 M219.4,332.3l-26.8-19.5
	l-30.1,0L136,332.3L219.4,332.3 M164.9,296.6l0,11.9l25.3,0l0-11.9L164.9,296.6 M164.9,296.6l0,11.9l25.3,0l0-11.9L164.9,296.6"/>
<path class="st6" d="M164.9,296.6l0,11.9l25.3,0l0-11.9L164.9,296.6"/>
<path class="st6" d="M171.7,299.5l0,5.9h11.6l0-5.9H171.7 M177.5,283l14.1,9.9l-28,0L177.5,283 M177.5,283l14.1,9.9l-28,0L177.5,283
	 M177.5,283l14.1,9.9l-28,0L177.5,283 M177.5,283l14.1,9.9l-28,0L177.5,283 M177.5,283l14.1,9.9l-28,0L177.5,283"/>
<path class="st2" d="M234.4,276.3c4-0.1,5,16.5,5,24.7c3.4,1,11,5.8,14.4,10.1l-38.6-0.1c3.3-4.3,10.9-9.1,14.3-10
	C229.5,292.7,230.3,276.2,234.4,276.3"/>
<path class="st6" d="M234.4,276.3c4-0.1,5,16.5,5,24.7c3.4,1,11,5.8,14.4,10.1l-38.6-0.1c3.3-4.3,10.9-9.1,14.3-10
	C229.5,292.7,230.3,276.2,234.4,276.3 M156.8,353.8h3.5l-1,1.9 M156.8,353.8h3.5l-1,1.9 M156.8,353.8h3.5l-1,1.9 M156.8,353.8h3.5
	l-1,1.9 M156.8,353.8h3.5l-1,1.9c0,0,1.7,2.1,0,4.6l0.9,1.7h-3.3l0.9-1.6c0,0-1.7-2.9,0.1-4.7L156.8,353.8 M163.8,353.8h3.5l-1,1.9
	c0,0,1.7,2.1,0,4.6l0.9,1.7h-3.3l0.9-1.6c0,0-1.7-2.9,0.1-4.7L163.8,353.8 M171.5,353.8h3.5l-1,1.9c0,0,1.7,2.1,0,4.6l0.9,1.7
	l-3.3,0l0.9-1.6c0,0-1.7-2.8,0.1-4.7L171.5,353.8L171.5,353.8L171.5,353.8z M180.2,353.9h3.5l-1,1.9c0,0,1.7,2.1,0,4.6l0.9,1.7h-3.4
	l0.9-1.6c0,0-1.7-2.9,0.1-4.7L180.2,353.9L180.2,353.9L180.2,353.9z M187.9,353.9h3.5l-1,1.9c0,0,1.7,2.1,0,4.6l0.9,1.7H188l0.9-1.6
	c0,0-1.7-2.9,0.1-4.7L187.9,353.9 M195.6,353.9l3.5,0l-1,1.9c0,0,1.7,2.1,0,4.6l0.9,1.7h-3.3l0.9-1.6c0,0-1.7-2.9,0.1-4.7
	L195.6,353.9"/>
<path class="st7" d="M178.5,460.5c17.8,0.1,39.7-3.6,50-8.9l22.5-2l0.4,27.5c-19.1,10.5-63.1,12.8-72.8,12.7
	c-9.7,0.1-54.3-2.2-73.5-12.8l0.2-27.5l22.6,2C138.2,456.8,160.8,460.5,178.5,460.5L178.5,460.5"/>
<path class="st8" d="M178.5,460.5c17.8,0.1,39.7-3.6,50-8.9l22.5-2l0.4,27.5c-19.1,10.5-63.1,12.8-72.8,12.7
	c-9.7,0.1-54.3-2.2-73.5-12.8l0.2-27.5l22.6,2C138.2,456.8,160.8,460.5,178.5,460.5L178.5,460.5"/>
<path class="st7" d="M47.2,343.3l19.8,6.3l-6,32.1l-18.8,2.9C42.2,384.6,39.1,367.7,47.2,343.3"/>
<path class="st8" d="M47.2,343.3l19.8,6.3l-6,32.1l-18.8,2.9C42.2,384.6,39.1,367.7,47.2,343.3L47.2,343.3L47.2,343.3z"/>
<path class="st9" d="M61,381.3l-18.8,3.3l11.9-16.9L61,381.3"/>
<path class="st10" d="M61,381.3l-18.8,3.3l11.9-16.9L61,381.3"/>
<path class="st7" d="M35.3,366.4l19.1,1.4c0.4,16.2,2.4,78.1,76.3,81.4l-2.3,22.5C38.5,472.6,31.6,395.8,35.3,366.4"/>
<path class="st8" d="M35.3,366.4l19.1,1.4c0.4,16.2,2.4,78.1,76.3,81.4l-2.3,22.5C38.5,472.6,31.6,395.8,35.3,366.4L35.3,366.4z
	 M105.5,476.3l22.5-4.9 M105.5,476.3l22.5-4.9 M105.5,476.3l22.5-4.9 M105.5,476.3l22.5-4.9 M105.5,476.3l22.5-4.9"/>
<path class="st3" d="M308.3,343.5l-19.8,6.3l6.3,32.1l18.8,3C313.6,384.8,316.7,368,308.3,343.5"/>
<path class="st4" d="M308.3,343.5l-19.8,6.3l6.3,32.1l18.8,3C313.6,384.8,316.7,368,308.3,343.5L308.3,343.5L308.3,343.5z"/>
<path class="st9" d="M294.8,381.5l18.8,3.4l-12-16.9L294.8,381.5"/>
<path class="st10" d="M294.8,381.5l18.8,3.4l-12-16.9L294.8,381.5"/>
<path class="st7" d="M320.4,366.7l-19.2,1.3c-0.3,16.2-1.7,78.1-75.6,81.3l2.5,22.5C318.1,472.8,324.3,396.1,320.4,366.7"/>
<path class="st8" d="M320.4,366.7l-19.2,1.3c-0.3,16.2-1.7,78.1-75.6,81.3l2.5,22.5C318.1,472.8,324.3,396.1,320.4,366.7
	L320.4,366.7L320.4,366.7z M251.1,476.4l-22.6-5"/>
<path class="st0" d="M166.6,474c-0.5,0.3-1.2,0.4-2,0.4l-3.6-0.2l0.3-4.5l3.5,0.2c0.7,0,1.2,0.2,1.6,0.4c0.7,0.4,1,1.1,1,2
	C167.4,473.2,167.1,473.7,166.6,474 M160.6,481l0.4-5.4l4.2,0.3c1.3,0.1,2.3-0.2,3-0.9c0.7-0.7,1.1-1.5,1.1-2.5
	c0.1-1.2-0.2-2.1-0.9-2.8c-0.7-0.7-1.6-1-2.8-1.1l-5.9-0.4l-0.8,12.8L160.6,481 M173.5,470.3l4.4,0 M173.5,470.3l4.4,0 M173.5,470.3
	l4.4,0 M173.5,470.3l4.4,0 M173.5,470.3l4.4,0c0.6,0.1,1.1,0.1,1.5,0.3c0.7,0.3,1,0.9,1,1.9c0,0.9-0.2,1.4-0.7,1.8
	c-0.5,0.3-1.1,0.5-2,0.5l-4.2,0L173.5,470.3 M173.4,481.7l0-5.5l4.1,0.1c0.7,0,1.3,0.1,1.6,0.2c0.6,0.3,0.9,0.9,0.9,1.7l0.1,2.1
	c0,0.5,0,0.8,0.1,1c0.1,0.1,0.1,0.3,0.2,0.4h2.2l0-0.3c-0.2-0.1-0.4-0.4-0.5-0.8c-0.1-0.2-0.1-0.6-0.1-1.1l0-1.7
	c0-0.8-0.2-1.3-0.5-1.6c-0.3-0.4-0.7-0.7-1.2-0.8c0.6-0.3,1.1-0.7,1.4-1.2c0.3-0.5,0.5-1.1,0.5-1.9c0-1.5-0.6-2.5-1.8-3
	c-0.7-0.3-1.5-0.5-2.5-0.5l-6.1-0.1l0,12.8L173.4,481.7 M187,479c-0.8-1-1.2-2.1-1.3-3.6c-0.1-1.8,0.3-3.1,1.1-4
	c0.8-1,1.9-1.5,3.3-1.5c1.4-0.1,2.5,0.4,3.4,1.2c0.9,0.9,1.4,2.1,1.5,3.5c0,1.4-0.2,2.7-0.9,3.8c-0.6,1.1-1.7,1.8-3.3,1.8
	C189.1,480.3,187.8,480,187,479 M184.9,470.9c-0.8,1.3-1.2,2.7-1.1,4.5c0.1,1.9,0.7,3.5,1.8,4.7c1.2,1.2,2.9,1.8,4.9,1.7
	c2.2-0.1,3.8-0.9,4.9-2.4c0.9-1.4,1.3-2.9,1.2-4.9c-0.1-1.7-0.6-3.2-1.6-4.2c-1.2-1.4-2.9-2.1-5.3-2
	C187.6,468.4,186,469.3,184.9,470.9 M245.2,452.5c1.2-0.2,2.3-0.2,3.3,0.2c1.4,0.4,2.4,1.5,3,3.1l-1.8,0.2c-0.4-0.9-0.9-1.5-1.7-1.8
	c-0.7-0.3-1.6-0.4-2.6-0.2c-1.2,0.2-2.2,0.8-2.8,1.7c-0.7,1-0.9,2.4-0.6,4.2c0.2,1.5,0.8,2.7,1.7,3.5c0.8,0.8,2,1.1,3.6,0.9
	c1.2-0.2,2.1-0.7,2.8-1.5c0.7-0.8,0.9-1.9,0.7-3.4l-4.1,0.6l-0.2-1.4l5.7-0.9l1.1,6.8l-1.1,0.2l-0.7-1.6c-0.5,0.7-1,1.3-1.4,1.6
	c-0.7,0.6-1.7,0.9-2.8,1.1c-1.5,0.2-3,0-4.2-0.9c-1.4-1-2.3-2.6-2.7-4.7c-0.4-2.1,0-3.9,0.9-5.3C242,453.5,243.4,452.7,245.2,452.5
	 M258.1,451.5l4.1-1.5c0.6-0.2,1.1-0.3,1.5-0.2c0.8,0.1,1.3,0.5,1.6,1.4c0.3,0.8,0.3,1.4,0,1.9c-0.4,0.5-0.9,0.8-1.7,1.1l-3.9,1.4
	L258.1,451.5 M262.2,462.1l-2-5.1l3.8-1.4c0.7-0.2,1.2-0.4,1.6-0.3c0.7,0.1,1.2,0.5,1.5,1.3l0.9,2c0.2,0.5,0.3,0.8,0.5,0.9
	c0.1,0.2,0.2,0.3,0.3,0.4l2.1-0.8l-0.1-0.3c-0.3,0-0.6-0.2-0.8-0.5c-0.2-0.2-0.3-0.6-0.5-1l-0.7-1.6c-0.3-0.7-0.6-1.1-1-1.4
	c-0.4-0.2-0.9-0.3-1.4-0.4c0.4-0.5,0.7-1,0.8-1.5c0.1-0.6,0.1-1.2-0.2-2c-0.5-1.4-1.5-2.1-2.8-2.2c-0.7-0.1-1.5,0.1-2.5,0.4
	l-5.8,2.1l4.7,12.1L262.2,462.1 M277.2,455.7l-7.3-10.7l8-5.1l0.9,1.3l-6.6,4.2l2.3,3.3l6.1-3.9l0.8,1.3l-6.1,3.9l2.5,3.6l6.7-4.3
	l0.9,1.3L277.2,455.7 M283.6,436.9l2.1-2.3c1-1,2-1.5,3.1-1.4c1.1,0.1,2.3,0.7,3.5,1.8c0.3,0.3,0.6,0.6,0.9,1
	c0.5,0.7,0.9,1.3,1.1,1.9c0.2,0.8,0.1,1.5-0.1,2.1c-0.2,0.3-0.4,0.7-0.9,1.2l-2.1,2.3L283.6,436.9 M294.7,441.9
	c1.5-1.6,1.8-3.4,0.9-5.4c-0.6-1.2-1.4-2.2-2.3-3c-1.3-1.2-2.7-1.8-4.2-1.9c-1.6-0.1-3,0.5-4.2,1.8l-3.6,3.8l9.9,8.6L294.7,441.9
	 M302.4,431.9l-11.4-6.7l0.9-1.5l11.4,6.6L302.4,431.9 M306.8,424.2l-12.3-4.9l3.6-8.6l1.5,0.6l-2.9,7.1l3.7,1.5l2.8-6.5l1.4,0.6
	l-2.7,6.5l4.1,1.7l3-7.2l1.5,0.6L306.8,424.2 M312.5,409.1l-12.9-2.9l0.4-2l11.9-4l-10.5-2.3l0.4-1.6l12.9,2.8l-0.4,1.9l-11.9,4.1
	l10.5,2.3L312.5,409.1 M311.4,392.7l0.2-1.6c0.7,0,1.4-0.1,1.9-0.4c0.9-0.5,1.5-1.5,1.6-2.9c0.1-0.7,0-1.2-0.1-1.8
	c-0.3-1.1-0.9-1.7-1.8-1.8c-0.7-0.1-1.2,0.1-1.6,0.5c-0.3,0.4-0.7,1.1-1,2l-0.6,1.7c-0.4,1.1-0.7,1.9-1.1,2.3
	c-0.6,0.8-1.5,1.1-2.6,1c-1.2-0.1-2.1-0.6-2.8-1.5c-0.7-0.8-1-2-0.8-3.4c0.1-1.3,0.6-2.4,1.3-3.3c0.7-0.8,1.9-1.2,3.3-1.1l-0.1,1.6
	c-0.7,0-1.3,0.1-1.7,0.4c-0.7,0.4-1.2,1.3-1.3,2.5c-0.1,1,0,1.8,0.4,2.3c0.4,0.4,0.9,0.7,1.5,0.8c0.6,0.1,1.1-0.1,1.5-0.6
	c0.2-0.3,0.5-1.1,0.9-2.2l0.6-1.8c0.3-0.8,0.6-1.4,1-1.9c0.7-0.7,1.6-1.1,2.8-1c1.4,0.2,2.5,0.7,3,1.8c0.5,1.1,0.7,2.3,0.6,3.7
	c-0.2,1.6-0.7,2.8-1.6,3.6C314,392.6,312.9,392.9,311.4,392.7 M44.1,392l0.3,1.6c-0.7,0.1-1.3,0.4-1.7,0.8c-0.8,0.7-1,1.8-0.8,3.2
	c0.1,0.6,0.3,1.2,0.6,1.7c0.6,1,1.3,1.4,2.3,1.2c0.7-0.1,1.2-0.4,1.4-0.9c0.2-0.5,0.4-1.2,0.4-2.2l0.1-1.8c0.1-1.1,0.2-2,0.4-2.5
	c0.4-0.9,1.1-1.4,2.2-1.6c1.1-0.2,2.2,0,3.1,0.7c0.9,0.6,1.5,1.7,1.7,3.1c0.3,1.3,0.2,2.5-0.4,3.5c-0.5,1-1.4,1.7-2.9,1.9l-0.3-1.6
	c0.7-0.2,1.2-0.5,1.5-0.8c0.6-0.6,0.7-1.6,0.5-2.8c-0.2-1-0.5-1.7-1.1-2c-0.5-0.4-1.1-0.5-1.6-0.4c-0.6,0.1-1.1,0.4-1.3,1
	c-0.1,0.4-0.2,1.2-0.3,2.4l-0.1,1.9c0,0.9-0.2,1.6-0.5,2.1c-0.5,0.9-1.3,1.5-2.4,1.7c-1.5,0.2-2.6-0.1-3.4-1c-0.8-0.9-1.3-2-1.6-3.4
	c-0.3-1.6-0.1-2.9,0.6-3.9C41.6,392.8,42.6,392.2,44.1,392 M43.2,408.9l12.6-3.8l2.9,8.9l-1.5,0.5l-2.4-7.3l-3.8,1.2l2.2,6.7
	l-1.5,0.5l-2.2-6.8l-4.3,1.3l2.4,7.5l-1.5,0.4L43.2,408.9 M48.8,424.3l11.6-6.2l1.2,2.2l-8,8.4l11.7-2l1.2,2.1L55,435l-0.8-1.4
	L61,430c0.2-0.1,0.6-0.4,1.2-0.6c0.5-0.2,1.2-0.6,1.8-0.9l-11.6,2l-0.8-1.5l7.9-8.4l-0.4,0.2c-0.2,0.1-0.7,0.4-1.3,0.7
	c-0.4,0.3-0.8,0.5-1.3,0.7l-6.8,3.7L48.8,424.3 M70.5,441.4c-0.6-0.1-1.2-0.5-1.7-1l-2.5-2.5l3.3-3l2.5,2.5c0.5,0.5,0.8,0.9,0.9,1.3
	c0.2,0.8,0,1.4-0.7,2.1C71.7,441.3,71.1,441.5,70.5,441.4 M61.1,442.5l4-3.7l2.9,2.9c0.9,0.9,1.9,1.4,2.9,1.4c1,0,1.9-0.5,2.6-1.2
	c0.9-0.8,1.3-1.7,1.3-2.6c0-0.9-0.4-1.8-1.2-2.6l-4.1-4.2l-9.6,8.8L61.1,442.5 M72.7,452.8l7-10.9l8.2,5l-0.9,1.3l-6.8-4l-2.1,3.3
	l6.2,3.8l-0.8,1.3l-6.2-3.7l-2.4,3.7l6.8,4.1l-0.8,1.3L72.7,452.8 M93.3,450.7l4.2,1.3c0.6,0.2,1,0.4,1.3,0.7
	c0.5,0.5,0.7,1.2,0.4,2.1c-0.3,0.8-0.6,1.3-1.3,1.5c-0.5,0.1-1.2,0.1-2-0.2l-3.9-1.3L93.3,450.7 M89.7,461.4l1.7-5.2l3.9,1.3
	c0.7,0.2,1.2,0.4,1.4,0.7c0.5,0.4,0.6,1.1,0.4,1.9l-0.6,2.1c-0.1,0.5-0.2,0.8-0.3,1c0,0.2,0,0.3,0,0.4l2.1,0.7l0.1-0.3
	c-0.2-0.2-0.3-0.5-0.3-0.9c0-0.2,0.1-0.6,0.2-1.1l0.5-1.7c0.2-0.7,0.3-1.3,0.1-1.7c-0.2-0.4-0.5-0.8-0.8-1.1
	c0.6-0.1,1.2-0.3,1.7-0.7c0.5-0.4,0.8-0.9,1.1-1.7c0.5-1.4,0.2-2.5-0.8-3.4c-0.5-0.5-1.2-0.9-2.2-1.2l-5.8-1.8L88,460.9L89.7,461.4"
	/>
<path class="st11" d="M107.4,240.1c1.5-3.6,15.5-13.5,61.3-9.2c0,0,7.7,4.7,12.3,4.1c2.6-0.3-1.5,0.2-4.9-2.7
	c-3.5-2.8-4.2-8.6,3.7-8.4c7.9,0.2,37.2,1.9,37.8,4.5c0.5,2.7-15.5,3.8-21.5,3.6c-6-0.2-5.3,2.9,0.7,2.6c18.7-0.7,39-7.2,60.5,8
	c2.6,1.9-6.5,2.1-13.5-0.8c0,0-19,1-27.2-0.4c0,0-6.3,5.1-14.5,4.6c1.1,2.7-3,12.6-28.9,5.1c-4.3,1.3-19.8,3.9-18.1-0.7
	c-4.1,0-11.3,1.3-12.3-1c-1-2.3,12.6-5.8,15-8.2c0,0-28.9,0.3-34.4-1.7C123.4,239.6,106.4,243.4,107.4,240.1"/>
<path class="st12" d="M116.7,280.6c0.6-0.8,0.9-2.3,2.2-2.3c2.9,0.8,4.8,6,8.3,2.6c1.2-0.3,1.7,1.4,2.8,1.6c0.7,2.9,3-0.6,4.7-0.4
	c3.7-1.7,8.3-2.1,12.8-1.2c0.1,2.9-2.1,6-4.9,7.6c0.1,2.9,2.7,4.7,2.6,7.6c-0.4,1.1-0.1,2.8-1.7,3.1c-2.1-0.4-4.1-0.6-5.8-1.7
	c-0.2-0.2-0.4-0.6-0.8-0.5c-0.2,1,1.3,1.9,1.9,2.9c-1,1.8-2.8,0.2-4.2,0.2c-0.4,1,0,2.3-1.1,3c-1.8-0.1-2.2-2-3.3-3
	c-1.2,1.2,0.8,2,1.1,3c-0.7,3.8-0.6,7.4-4.4,9.9l-2.5,1.3c-0.7-1.9-0.3-4.8-0.7-6.7c-1.5,2.4-2.7,4.5-4.8,6.6
	c-2.6-0.8-4-3.9-4.6-6.4c-1.1-2.9-0.5-6.4,1.8-8.5c-0.8-1.5-3.5-1.2-3.8-3.3c-4-2.6-6.2,4.6-8.8,0.8c-0.8-3.5,0.2-7.8,2.7-10.4
	c-0.6-1.4-2.4-1.1-3.5-1.9c-2.5-2.1-6.2-4.4-6-8.3C103.3,273.4,111.6,275.3,116.7,280.6"/>
<path class="st7" d="M120.3,280.2c-0.2,3.2,2.1,0.9,3.8,2.8c-1.3-0.5-2.3,2.3-3.6,0.7l-0.8,0.8c0.5,1.1,1.4,1.2,0.4,2.4
	c-1.4,0.5-1.7-1.2-2.4-2c-0.1-0.3,0.2-0.9-0.3-1.1c-0.8,0.7-1.7,0.9-2.8,0.8c-0.3-0.6-0.9-1.4-0.3-1.9c1.1-1.5,2.8,0.5,3.6-0.5
	c0.1-0.9-0.7-2,0.4-2.7C119,279.7,120,279.3,120.3,280.2 M128.8,282.8c0.1,0.6-0.3,1.5,0.5,1.9c1-0.6,2.1-0.1,2.7,0.9
	c0,0.6,0.2,1.3-0.6,1.5l-1.6-0.3c0.1-0.3-0.4-0.5-0.6-0.8c-0.7-0.2-1.1,0.4-1.7,0.7c0.4,0.6,1.3,0.9,1.1,1.7c-1,1-1.4-0.8-2.5-0.4
	c-0.7-0.3,0.3-1.8-0.9-2.2c-1.3,0-0.4,2.2-2.2,1.3c-0.6-0.7-1.2-1.6-0.6-2.4c0.7-0.5,1.9-0.4,2.5,0.3
	C126.2,283.9,126.3,279.5,128.8,282.8 M118.2,287.4c0.7,1-0.2,2.4,0.7,3.5c1.4-2.6,2.7,0.6,4.4,0.3c0.5,0.6,0.2,1.5,0.3,2.2
	c-2,0.5-4.5,1.2-6.3-0.4l-0.5,0.6c1.1,1,2.1,2.1,1.2,3.8c-1.5,0.3-3.9,0.4-4.7-1.2c-0.4-1.3,0.9-2.3-0.5-3.3c-1,1.3-1,3-3.1,1.8
	c-1.3-0.7-1.7-2.2-1.1-3.5c1.4-2.2,3.8,0.1,5.3-1c0.2-1.9-0.5-3.5,1.2-4.5C116.6,285.4,117.3,286.5,118.2,287.4"/>
<path class="st2" d="M124,288.5c-0.7,3.2-3.1-0.2-4.2-0.3C121.3,285.6,122.2,289.1,124,288.5 M131.4,292c-1.7,0.5-1.4-1.6-2.2-2.4
	l0.6-0.6C130.4,289.7,130.9,291,131.4,292"/>
<path class="st7" d="M129.2,291.3c0.5,1.1-1.1,2,0.2,2.8c0.4-0.4,0.9-0.8,1.2-1c1.1,0.3,2.5,0.5,3.2,1.7c0.8,2.3-1.5,2.3-2.8,2.9
	l-1.3-0.1c0.3-0.6-0.6-0.9-0.8-1.4c-0.6-0.2-1.1,0-1.5,0.6c0.3,1.5,2.1,2.6,0.2,3.9c-1.6-0.1-4,0.5-3.9-1.7
	c-0.6-1.2,1.6-3.1-0.7-3.2c-0.8,1.7-1.6,3.3-3.6,1.7l0.2-2.4c1.9,0.1,4.2,0.4,5.1-1.8c0.6-1.6-1-3,0.4-4.2
	C127,288.7,128.2,290,129.2,291.3"/>
<path d="M127.7,294.9c0.5,1.2-0.8,1.3-1.5,1.8c-0.8,0.1-1.4-0.3-2-0.8c-0.4-1.4,0.7-1.6,1.5-2.1
	C126.7,293.4,127.1,294.4,127.7,294.9"/>
<path class="st2" d="M126.6,295.6c-0.2,0.3-0.5,0.2-0.8,0.3l-0.3-1.4C126.1,294.5,126.9,294.7,126.6,295.6"/>
</svg>
