<?xml version="1.0" encoding="utf-8"?>
<!-- Generator: Adobe Illustrator 23.1.0, SVG Export Plug-In . SVG Version: 6.00 Build 0)  -->
<svg version="1.1" id="Layer_1" xmlns="http://www.w3.org/2000/svg" xmlns:xlink="http://www.w3.org/1999/xlink" x="0px" y="0px"
	 viewBox="0 0 1326.3 700" style="enable-background:new 0 0 1326.3 700;" xml:space="preserve">
<style type="text/css">
	.st0{fill:#009543;}
	.st1{fill:#D21034;}
	.st2{clip-path:url(#SVGID_2_);}
	.st3{stroke:#FDCE12;stroke-width:162.105;}
	.st4{fill:none;stroke:#000000;stroke-width:88.4209;}
	.st5{fill:#FDCE12;}
	.st6{fill:#FDCE12;stroke:#FDCE12;stroke-width:1.2281;}
</style>
<rect x="0" y="0" class="st0" width="1326.3" height="700"/>
<rect x="0" y="0" class="st1" width="1326.3" height="350"/>
<g>
	<defs>
		<polygon id="SVGID_1_" points="0,0 0,700 618.9,412.6 1326.3,412.6 1326.3,287.4 618.9,287.4 		"/>
	</defs>
	<clipPath id="SVGID_2_">
		<use xlink:href="#SVGID_1_"  style="overflow:visible;"/>
	</clipPath>
	<g class="st2">
		<path class="st3" d="M0,0l618.9,287.4h707.4v125.3H618.9L0,700"/>
		<path class="st4" d="M0,0l618.9,287.4h707.4 M1326.3,412.6H618.9L0,700"/>
	</g>
</g>
<g>
	<path class="st5" d="M157.5,417v39.9c34.7,0,102.8-26.6,102.8-112.2c0-85.6-72.6-101.5-94.4-101.5c-21.7,0-88.8,15.6-88.8,85.6
		s65.8,76.5,78.8,76.5c13,0,61.6-11.7,56.1-64.2c0,14.9-16.9,46.4-52.2,46.4c-35.3,0-57.4-26.3-57.4-52.2
		c0-25.9,21.4-60.6,58.7-60.6c37.3,0,64.5,33.1,64.5,66.5C225.6,374.5,199.3,417,157.5,417L157.5,417z"/>
	<g id="f">
		<path class="st6" d="M127.1,365l2.1,1.3c0,0,16.4-37.5,60.6-64.1C184.1,305.3,154.6,320,127.1,365L127.1,365z"/>
		<path class="st5" d="M131.3,358.6c0,0-5.1-10.5-0.6-15.1c4.5-4.6,2.4,12.3,2.4,12.3l1.9-2.8c0,0-3-12.8,0.4-15.4
			c3.4-2.7,1.7,12.3,1.7,12.3l2.1-2.7c0,0-2.2-12.4,1.1-14.7c3.3-2.3,1.2,11.7,1.2,11.7l2.4-2.8c0,0-1.8-11.8,2.2-14.6
			c4-2.8,0.5,11.2,0.5,11.2l2.7-2.9c0,0-1.2-10.8,2.2-13.3c3.4-2.4,0.5,10.2,0.5,10.2l2.4-2.6c0,0-0.7-10.1,2.6-12.4
			c3.3-2.3,0.2,9.6,0.2,9.6l2.6-2.4c0,0-0.6-10.1,3.5-12s-0.7,9.5-0.7,9.5l2.8-2.4c0,0,0.9-11.8,4.4-12.9c3.5-1.1-1.6,10.5-1.6,10.5
			l2.6-2.1c0,0,1.3-10.1,5.2-11.3c3.9-1.2-2.4,9.2-2.4,9.2l2.6-1.9c0,0,2.8-10.1,6.4-11.2c3.6-1.1-3.8,9.5-3.8,9.5l2.4-1.7
			c0,0,4-9.1,7.3-9.7c3.3-0.6-3.6,7.5-3.6,7.5l3-1.8c0,0,5.2-9.5,7.1-6.6c1.8,2.9-7.3,7.2-7.3,7.2l-3,1.7c0,0,11.1-5.2,12.4-2.6
			c1.3,2.7-15.2,4.4-15.2,4.4l-2.7,1.8c0,0,11.1-3,9.7-0.2c-1.3,2.8-12.3,2.2-12.3,2.2L174,313c0,0,11.1-2.7,9.6-0.1
			c-1.5,2.6-12.3,2.3-12.3,2.3l-2.7,2.2c0,0,10.8-2.8,9.2,0.5c-1.6,3.3-13.9,3.2-13.9,3.2l-3,2.8c0,0,11.4-3.9,10.5-0.9
			c-1,3-14,4.6-14,4.6l-2.9,2.9c0,0,12.3-4.1,8.6-0.4c-3.6,3.8-12.5,4.7-12.5,4.7l-3.5,4.3c0,0,12.2-7.3,10.5-3.2
			c-1.7,4.1-13.6,6.9-13.6,6.9l-2.4,2.9c0,0,10.9-6.3,9.8-2.8c-1.1,3.5-12.8,7.3-12.8,7.3l-1.9,2.7c0,0,12.9-7.7,11.8-3.8
			c-1.1,3.9-13.4,6.7-13.4,6.7l-1.6,2.4c0,0,11.9-6.8,12-3.5c0.1,3.3-14,6.6-14,6.6L131.3,358.6L131.3,358.6z"/>
	</g>
	<g transform="matrix(-1,0,0,1,220,0)">
		<g>
			<path class="st6" d="M197.1,365l-2.1,1.3c0,0-16.4-37.5-60.6-64.1C140.1,305.3,169.6,320,197.1,365L197.1,365z"/>
			<path class="st5" d="M192.9,358.6c0,0,5.1-10.5,0.6-15.1c-4.5-4.6-2.4,12.3-2.4,12.3l-1.9-2.8c0,0,3-12.8-0.4-15.4
				c-3.4-2.7-1.7,12.3-1.7,12.3l-2.1-2.7c0,0,2.2-12.4-1.1-14.7c-3.3-2.3-1.2,11.7-1.2,11.7l-2.4-2.8c0,0,1.8-11.8-2.2-14.6
				c-4-2.8-0.5,11.2-0.5,11.2l-2.7-2.9c0,0,1.2-10.8-2.2-13.3c-3.4-2.4-0.5,10.2-0.5,10.2l-2.4-2.6c0,0,0.7-10.1-2.6-12.4
				c-3.3-2.3-0.2,9.6-0.2,9.6l-2.6-2.4c0,0,0.6-10.1-3.5-12c-4.1-1.9,0.7,9.5,0.7,9.5l-2.8-2.4c0,0-0.9-11.8-4.4-12.9
				c-3.5-1.1,1.6,10.5,1.6,10.5l-2.6-2.1c0,0-1.3-10.1-5.2-11.3c-3.9-1.2,2.4,9.2,2.4,9.2l-2.6-1.9c0,0-2.8-10.1-6.4-11.2
				c-3.6-1.1,3.8,9.5,3.8,9.5l-2.4-1.7c0,0-4-9.1-7.3-9.7c-3.3-0.6,3.6,7.5,3.6,7.5l-3-1.8c0,0-5.2-9.5-7.1-6.6
				c-1.8,2.9,7.3,7.2,7.3,7.2l3,1.7c0,0-11.1-5.2-12.4-2.6c-1.3,2.7,15.2,4.4,15.2,4.4l2.7,1.8c0,0-11.1-3-9.7-0.2
				c1.3,2.8,12.3,2.2,12.3,2.2l2.6,1.8c0,0-11.1-2.7-9.6-0.1c1.5,2.6,12.3,2.3,12.3,2.3l2.7,2.2c0,0-10.8-2.8-9.2,0.5
				c1.6,3.3,13.9,3.2,13.9,3.2l3,2.8c0,0-11.4-3.9-10.5-0.9c1,3,14,4.6,14,4.6l2.9,2.9c0,0-12.3-4.1-8.6-0.4
				c3.6,3.8,12.5,4.7,12.5,4.7l3.5,4.3c0,0-12.2-7.3-10.5-3.2c1.7,4.1,13.6,6.9,13.6,6.9l2.4,2.9c0,0-10.9-6.3-9.8-2.8
				c1.1,3.5,12.8,7.3,12.8,7.3l1.9,2.7c0,0-12.9-7.7-11.8-3.8c1.1,3.9,13.4,6.7,13.4,6.7l1.6,2.4c0,0-11.9-6.8-12-3.5s14,6.6,14,6.6
				L192.9,358.6L192.9,358.6z"/>
		</g>
	</g>
</g>
</svg>
