<svg id="svg378" xmlns="http://www.w3.org/2000/svg" width="493.89mm" height="246.94mm" viewBox="0 0 1400 700">
  <defs>
    <style>
      .cls-1 {
        fill: #cf142b;
      }

      .cls-2, .cls-4, .cls-7 {
        fill: #f9dd16;
      }

      .cls-2, .cls-3, .cls-5, .cls-6, .cls-7 {
        stroke: #000;
      }

      .cls-2, .cls-6 {
        stroke-width: 2.33px;
      }

      .cls-3 {
        fill: #fff;
      }

      .cls-3, .cls-7 {
        stroke-width: 3.03px;
      }

      .cls-5, .cls-6 {
        fill: none;
      }

      .cls-5 {
        stroke-width: 2.64px;
      }
    </style>
  </defs>
  <path id="rect2489" class="cls-1" d="M0,0H1400V700H0Z" transform="translate(0 0)"/>
  <g id="g2565">
    <g id="leg">
      <path id="path2524" class="cls-2" d="M513.36,251.69c.52.56,6.9,4.64,7,4.43s17.15-3.5,17-3.29-9.84,10.85-9.41,11.08,9.42,11.55,9.63,11.66-17.66-2-17.66-2l-12.16,9-2.25-12.28s-14.75-5.66-15-5.77,12.9-3.92,12.9-3.92l4.2-9.82s5,1.1,5.66.92Z" transform="translate(0 0)"/>
      <path id="path2526" class="cls-3" d="M730.79,282.67c.37-10.28-18.7-57.45-21.85-64.71-6.06-8-12.33-20.46-14.85-31.17-1.51-10.77-7.06-19.36-15.18-22.48-9.32-5.25-18.65-3.62-27.58-3.14a15.49,15.49,0,0,0-10.44,6.32c-5,6.61-7.63,6-11.06,8.82-27.54,3.3-53.91,16.36-73.93,25.2-10.67,6.78-19.67,10.63-23.81,11.37-11.13-.32-19.05-5.77-22.83-8.65l-36.71-35c-10.67-8.38-13.75,3.11-11.71,4.94,3.4,7.83-4.65,12.27,24.43,41q5.3,11.65,10.61,23.31s-.84,6.25-.32,6.54c5.06,13,13.86,10.08,18.08,6.62q4.59-3.84,9.17-7.69s17.84-4.92,18.13-5.43c18.84,3.39,67.93-4.17,76.1-7.66,7.38-3.75,7.73-.36,14.18-5.18,5.36-3.25,2.38-.62,12.37-9,3.07-2.43,5.29,1.73,5.76,4.61-.35,27.09,2.46,44.5,4.09,71.58L694,315Z" transform="translate(0 0)"/>
      <path id="path2528" class="cls-4" d="M495.21,192.71c.37.34-7.58,23.12-7.58,23.12s-6.42-6.71-6.36-6.82l5.44-24Z" transform="translate(0 0)"/>
      <g id="g2554">
        <path id="path2530" class="cls-5" d="M495.44,191.86c-.38,1.54-2,8.43-2.71,10.31-.61,2.08-1.16,4.19-1.59,6.28-.74,2.27-1.08,3.77-1.9,6.1a43.36,43.36,0,0,1-1.39,5.92m-3.27-39.53a17.14,17.14,0,0,1,.63,3.76c-.3,1.4-.86,6.44-1.47,8.13-.5,1.89-.94,3.79-1.26,5.69-.62,2.06-.88,3.42-1.56,5.53a37.28,37.28,0,0,1-1.08,5.37" transform="translate(0 0)"/>
        <path id="path2532" class="cls-6" d="M605.11,182.57c8.51,9.94,10.73,25.72,8.85,34.45" transform="translate(0 0)"/>
        <path id="path2534" class="cls-6" d="M569.11,238.64l.17-.3c-.53.93-.13.4-1-1.72-1-1.12-1.5-6.42.13-9.29.64-1.47,1.71-3.68,2.5-5.06.22-.4.83-.77,1.06-1.17" transform="translate(0 0)"/>
        <path id="path2536" class="cls-6" d="M507.08,204l-.17.3c.22-.4-.45.79-.68,1.19-.88,1.53-2,2.92-2.84,4.28s-2.12,2.73-3,4.21c-1.07,1.38-2,3.23-3.13,4.65-1.05,1.7-2.2,2.91-3.23,4.71-.89,1.43-1.58,2.08-2.51,3.69l2.51-3.69c-.89,1.43-1.58,2.08-2.51,3.69" transform="translate(0 0)"/>
        <path id="path2538" class="cls-6" d="M476,173.58a16.7,16.7,0,0,1,.76,3.54c-.24,1.3-.61,6-1.14,7.56a53.67,53.67,0,0,0-1,5.29c-.53,1.9-.73,3.16-1.33,5.12a31.45,31.45,0,0,1-.86,5" transform="translate(0 0)"/>
        <path id="path2540" class="cls-6" d="M512.63,230.34c-2-2.21-3.25-1.47-4.57-1.61a14.68,14.68,0,0,0-7,3.93,39,39,0,0,1-3.24,2.9A7.29,7.29,0,0,1,496,237.3" transform="translate(0 0)"/>
        <path id="path2542" class="cls-6" d="M670.54,163.16l-.17.3c.53-.93.15-.41.53,1.85.55,1.57.58,2.65,1.19,4.17" transform="translate(0 0)"/>
        <path id="path2544" class="cls-6" d="M638.07,170.5c-.11.19-1.1,22.09-.27,24.94.22,1.82.67,3.35.85,5.52,0,1.3.24,2.4.29,3.67.71,1.42.82,2.83,1.56,4,.32,1.55,1.58,1.66,2.21,3.12.91,1,2.4,2.84,3.31,3.66" transform="translate(0 0)"/>
        <path id="path2546" class="cls-6" d="M620.63,230c-.67-.25-2.39-1.68-3.87-2.46-1.66-1-5.68-6-5.77-9.49" transform="translate(0 0)"/>
        <path id="path2548" class="cls-6" d="M638.32,199.41c-.06.1-2.4,2.22-6.24,5.81-4.89,4.17-18.06,11.19-19.63,11.74s-3.42,2.15-4.9,2.33a35.16,35.16,0,0,1-5,1.13,35.8,35.8,0,0,1-5.14.67c-4.61,1.79-28.53.26-29.76,0-1.28-.05-3-.2-4.17-.35a26.87,26.87,0,0,1-4,.11,19.18,19.18,0,0,0-4.51.24c-1.25.6-3.33,1.2-4.75,2.06-1.92.7-3.11,1.69-4.44,2.23-1.41,1.07-20.39,11.15-21.3,11.6-2,.78-9.08,2.6-10.68-2.31-.38-1.92-1.21-3.92-1.22-5.38-.51-1.77-.13-3.63,0-5.25a33.6,33.6,0,0,1,5.5-12.77l.84-1.49" transform="translate(0 0)"/>
        <path id="path2550" class="cls-6" d="M693.05,185l-.17.3c.45-.81.24-.38-1,1-1.23.91-2.76,2.37-3.88,3.32s-2.24,2.51-3.24,2.89c-1,1.24-2.3,1.6-3.68,2.26a25.32,25.32,0,0,0-4.74,2.06c-2.06,1-3.35,2-5.26,2.95-1.2,1.41-2.41,2.28-3.44,3.95s-2,2.88-3,4.58l-2.38,4.16,2.38-4.16-2.38,4.16" transform="translate(0 0)"/>
        <path id="path2552" class="cls-6" d="M673.7,300.28l.33-.59c-.62,1.09-.41.81.21-1.06.08-2.26.71-5,.8-7a43.44,43.44,0,0,0,.93-6.51,65.24,65.24,0,0,0-.27-7.17c0-2.22-.14-4.54-.14-6.71a28.47,28.47,0,0,0-.48-6.12,33.66,33.66,0,0,0-.35-5.65,10.1,10.1,0,0,0-.42-4.14c-.52-2.35-.71-3.71-1.25-6.15-.34-1.31-.66-3-1.16-4.93a46.52,46.52,0,0,0-1.42-5.86,16,16,0,0,1-1.2-4.17,17.81,17.81,0,0,1-1.49-4.34c-.58-1.12-1.18-2.85-1.8-4.5-.54-1.35-.92-3-1.5-4.34a36.14,36.14,0,0,1-1.62-4.8,6.76,6.76,0,0,1-1-1.72" transform="translate(0 0)"/>
      </g>
      <path id="path2556" class="cls-2" d="M673.71,172.91c-2.24,4.62-7.83,11.28-7.91,11.43l-5.44,9.88c-2.43,5.42-1.06,7.66-.13,9.28,1.91,3.6,2.21,5.52,3.63,8.25.46,3.37-5.63,4.31-5.72,4.45-12.74,3.89-18.74-8.2-18.79-8.81-1.51-6.29-1.25-7.32,2.66-8.48,4.45-.86,6.23-.85,8.48-2.34,4.24-2.92,7.47-12.07,7.56-12.22s.79-5.21.79-5.21c.41-2.45-.67-4.73.73-8.58,1.78-3.7,2.81-4.69,6.74-4.86,5.13-.29,9,3.4,7.4,7.21Z" transform="translate(0 0)"/>
    </g>
    <g id="use2559">
      <g>
        <path class="cls-2" d="M840,192.82c-.76.16-7.53,3.55-7.4,3.76s-5.49,16.35-5.61,16.15-4.65-13.81-5.07-13.56-14.87,2.23-15.08,2.35,10.6-14,10.6-14l-1.87-14.87,12,4.23S839.81,167.15,840,167,837,180,837,180l6.55,8.49s-3.46,3.7-3.63,4.36Z" transform="translate(0 0)"/>
        <path class="cls-3" d="M704.12,362.42c8.86,5.47,59.94,12.86,67.91,13.8,10-1.16,24.18-.24,34.87,3,10.24,4.11,20.58,3.68,27.38-1.67,9.28-5.31,12.49-14.07,16.54-21.91a15,15,0,0,0-.36-12.05c-3.31-7.6-1.48-9.51-2.25-13.83,10.84-25.11,12.49-54.1,14.71-75.57-.65-12.49.45-22.07,1.86-26,5.84-9.32,14.6-13.34,19-15.11L933,199.39c12.7-4.89,4.12-13.26,1.49-12.45-8.59-1-8.48-10.1-48.32.26l-25.83-2.64s-5.09-3.84-5.6-3.54c-14-2.21-15.8,6.75-14.86,12.08l2.19,11.65s-4.56,17.65-4.26,18.16c-12.39,14.35-30.24,59.92-31.24,68.62-.38,8.17-3.54,6.77-2.51,14.67.18,6.19-.65,2.34,1.77,15.05.61,3.83-4.18,3.64-6.94,2.59-23.7-13.86-40.43-20.18-65.1-32.36L694,315Z" transform="translate(0 0)"/>
        <path class="cls-4" d="M901,206.91c-.48.14-16.59-18-16.59-18s9.12-2.1,9.18-2L912,203.54Z" transform="translate(0 0)"/>
        <g>
          <path class="cls-5" d="M901.6,207.53c-1.17-1.09-6.43-5.93-7.73-7.47-1.53-1.56-3.11-3.09-4.73-4.5-1.64-1.77-2.79-2.81-4.44-4.67a44,44,0,0,1-4.51-4.15m36.45,17a18.35,18.35,0,0,1-3.62-1.34c-1.09-1-5.25-4-6.44-5.33-1.41-1.37-2.87-2.7-4.38-3.92-1.51-1.56-2.57-2.46-4.09-4.1a37.66,37.66,0,0,1-4.19-3.61" transform="translate(0 0)"/>
          <path class="cls-6" d="M855,305.55c-13,2.27-28-3.74-34.76-9.72" transform="translate(0 0)"/>
          <path class="cls-6" d="M823.62,246.82a2.75,2.75,0,0,0,.17.29c-.55-.91-.29-.3,2,0,1.47-.27,6.4,1.93,8.11,4.76,1,1.28,2.39,3.29,3.22,4.66.23.39.26,1.1.5,1.49" transform="translate(0 0)"/>
          <path class="cls-6" d="M885.09,211.35c-.06-.09-.11-.19-.17-.29.23.39-.48-.78-.71-1.17-.92-1.52-1.56-3.2-2.36-4.56s-1.34-3.18-2.23-4.64c-.68-1.6-1.82-3.34-2.52-5-1-1.75-1.47-3.32-2.55-5.1-.81-1.47-1-2.39-2-4l2,4c-.81-1.47-1-2.39-2-4" transform="translate(0 0)"/>
          <path class="cls-6" d="M927.41,200.13a16,16,0,0,1-3.5-1.13c-1-.85-5-3.52-6.09-4.75-1.33-1.24-2.71-2.43-4.14-3.53-1.42-1.4-2.43-2.21-3.85-3.69a31.37,31.37,0,0,1-4-3.23" transform="translate(0 0)"/>
          <path class="cls-6" d="M859.13,202.89c2.94-.59,2.9-2,3.69-3.08a14,14,0,0,0,0-7.94,39.42,39.42,0,0,1-.93-4.21,7,7,0,0,1-.64-2.39" transform="translate(0 0)"/>
          <path class="cls-6" d="M839.47,371l-.18-.3c.56.92.29.34-1.89-.47-1.66-.32-2.63-.83-4.27-1.07" transform="translate(0 0)"/>
          <path class="cls-6" d="M849.22,339.66c-.12-.2-18.91-12-21.84-12.72-1.71-.73-3.28-1.11-5.28-2-1.13-.68-2.24-1-3.38-1.59-1.61-.11-2.91-.72-4.28-.67-1.54-.5-2.26.52-3.86.32-1.37.26-3.71.62-4.88,1" transform="translate(0 0)"/>
          <path class="cls-6" d="M805.55,295c.56-.45,2.67-1.2,4.1-2.07,1.71-.91,8.15-1.81,11.24-.15" transform="translate(0 0)"/>
          <path class="cls-6" d="M823.62,325.39c-.06-.1-.76-3.15-2-8.22-1.23-6.25-.84-21-.54-22.59s-.19-4,.4-5.34a33.44,33.44,0,0,1,1.5-4.84,34.48,34.48,0,0,1,2-4.71c.72-4.82,14-24.42,14.89-25.31.68-1.07,1.68-2.48,2.39-3.38a26.2,26.2,0,0,1,1.91-3.49,18.45,18.45,0,0,0,2-4,46,46,0,0,0,.55-5.07c.35-2,.07-3.5.26-4.91-.23-1.72.36-22.93.42-23.94.3-2.08,2.24-9,7.36-7.93,1.89.63,4.06.93,5.35,1.65a14.88,14.88,0,0,1,4.62,2.65,34,34,0,0,1,8.5,11.07l.89,1.47" transform="translate(0 0)"/>
          <path class="cls-6" d="M809,379.23l-.17-.3c.47.8.21.4-.41-1.34-.19-1.51-.72-3.54-1-5s-1.1-3.16-.93-4.2c-.58-1.5-.27-2.76-.16-4.26a24.14,24.14,0,0,0,.55-5.08c.16-2.24,0-3.83,0-5.95-.65-1.73-.8-3.19-1.76-4.91s-1.52-3.18-2.54-4.86l-2.47-4.1,2.47,4.1-2.47-4.1" transform="translate(0 0)"/>
          <path class="cls-6" d="M717.11,305l.35.58c-.65-1.08-.51-.75.83.71,2,1.2,4,3.1,5.74,4.17a45,45,0,0,0,5.27,4.05,68.3,68.3,0,0,0,6.45,3.36c1.94,1.15,4.07,2.15,6,3.24a29.84,29.84,0,0,0,5.63,2.66,36.38,36.38,0,0,0,5.15,2.53,10.42,10.42,0,0,0,3.86,1.71c2.33.74,3.62,1.26,6,2,1.32.37,3,.93,4.92,1.48a47.31,47.31,0,0,0,5.87,1.72,16.85,16.85,0,0,1,4.27,1.08,19,19,0,0,1,4.57.89c1.28.08,3.11.44,4.87.73,1.46.22,3.11.73,4.56.9a37.47,37.47,0,0,1,5,1,7.15,7.15,0,0,1,2,0" transform="translate(0 0)"/>
        </g>
        <path class="cls-2" d="M829.3,368.79c-2.95-4.21-6-12.31-6.12-12.46l-6-9.57C813.63,342,811,342,809.08,342c-4.12-.16-6-.87-9.08-1-3.2-1.3-1-6.95-1.07-7.1,2.94-12.8,16.59-11.85,17.15-11.59,6.3,1.87,7.07,2.61,6.15,6.51-1.48,4.23-2.37,5.74-2.18,8.4.46,5.07,6.9,12.4,7,12.55s4.2,3.29,4.2,3.29c2,1.57,4.5,1.79,7.19,4.91,2.37,3.37,2.73,4.74.91,8.17-2.3,4.51-7.47,5.95-10,2.7Z" transform="translate(0 0)"/>
      </g>
    </g>
    <g id="use2561">
      <g>
        <path class="cls-2" d="M728.78,500.36c.23-.73.62-8.19.38-8.19s-11.67-12.86-11.43-12.86,14.48,3,14.48,2.48,5.45-13.78,5.45-14,7.06,16,7.06,16l14,5.86-9.69,8.05s2.4,15.37,2.4,15.62-9.91-9-9.91-9l-10.75,1.33s-1.53-4.79-2-5.27Z" transform="translate(0 0)"/>
        <path class="cls-3" d="M647.18,299.77c-9.24,4.82-41.25,44.6-46.06,50.91a92.29,92.29,0,0,1-20,28.2c-8.73,6.66-13.52,15.68-12.2,24.15,0,10.56,6.15,17.68,11.05,25.05a15.57,15.57,0,0,0,10.79,5.73c8.35,1,9.12,3.5,13.31,5,16.7,21.8,41.41,37.73,59.23,50.37,11.32,5.7,19.22,11.44,21.94,14.59,5.29,9.64,4.46,19.11,3.81,23.76l-12.48,48.75c-2,13.25,9.63,10.14,10.22,7.49,5.2-6.8,13.14-2.16,23.89-41.26l15.22-20.67s5.93-2.41,5.92-3c8.92-10.79,2-16.83-3.22-18.7l-11.36-4s-13.27-12.73-13.87-12.72c-6.45-17.73-37.69-55.75-44.85-61-7-4.4-4.19-6.4-11.67-9.48-5.55-2.94-1.74-1.72-14.14-6-3.68-1.4-1.13-5.38,1.18-7.21,24-13.23,38-24.31,61-39.21L694,315Z" transform="translate(0 0)"/>
        <path class="cls-4" d="M685.9,545.25c.12-.48,24.17-5.09,24.17-5.09s-2.7,8.82-2.83,8.82l-23.89,7.37Z" transform="translate(0 0)"/>
        <g>
          <path class="cls-5" d="M685,545.48c1.55-.45,8.43-2.51,10.44-2.84,2.14-.52,4.27-1.1,6.33-1.78,2.37-.5,3.86-1,6.33-1.43a45.74,45.74,0,0,1,5.9-1.77m-33.18,22.52a17.78,17.78,0,0,1,3-2.41c1.39-.45,6.11-2.49,7.91-2.82,1.91-.51,3.81-1.09,5.64-1.76,2.13-.51,3.45-1,5.66-1.43a35.81,35.81,0,0,1,5.27-1.76" transform="translate(0 0)"/>
          <path class="cls-6" d="M621.94,456.74c4.49-12.2,17.28-22,25.91-24.72" transform="translate(0 0)"/>
          <path class="cls-6" d="M689.36,459.41H689c1.09,0,.42-.09-1,1.71-.5,1.39-4.9,4.49-8.25,4.52-1.61.19-4.09.39-5.7.41-.46,0-1.1-.33-1.56-.32" transform="translate(0 0)"/>
          <path class="cls-6" d="M689.91,529.51h.35l1.38,0c1.8,0,3.6.27,5.2.28s3.47.44,5.2.42c1.75.23,3.85.12,5.66.35,2,.05,3.66.42,5.77.4,1.7,0,2.62.31,4.5.29l-4.5-.29c1.7,0,2.62.31,4.5.29" transform="translate(0 0)"/>
          <path class="cls-6" d="M678.68,571.16a16.38,16.38,0,0,1,2.73-2.42c1.27-.44,5.6-2.47,7.24-2.8,1.75-.52,3.49-1.09,5.17-1.76,1.94-.5,3.15-1,5.17-1.42a31.3,31.3,0,0,1,4.83-1.76" transform="translate(0 0)"/>
          <path class="cls-6" d="M710.33,511.64c-.94,2.81.33,3.49.87,4.69a14.64,14.64,0,0,0,7,4,37.49,37.49,0,0,1,4.17,1.31,7.61,7.61,0,0,1,2.43.65" transform="translate(0 0)"/>
          <path class="cls-6" d="M572.07,410.73h.35c-1.09,0-.44.07,1.37-1.38,1.1-1.25,2-1.82,3.07-3.1" transform="translate(0 0)"/>
          <path class="cls-6" d="M594.79,434.71c.24,0,20-10.09,22.11-12.22,1.49-1.09,2.62-2.24,4.43-3.48,1.17-.61,2-1.4,3.09-2.08.9-1.31,2.09-2.11,2.73-3.31,1.21-1.05.67-2.18,1.64-3.44.46-1.29,1.31-3.47,1.58-4.65" transform="translate(0 0)"/>
          <path class="cls-6" d="M655.9,419.88c.12.7-.28,2.87-.23,4.52,0,1.92-2.47,7.85-5.47,9.65" transform="translate(0 0)"/>
          <path class="cls-6" d="M620.14,420.07c.12,0,3.16.93,8.24,2.4,6.13,2.09,18.9,9.8,20.18,10.86s3.6,1.84,4.5,3a33.58,33.58,0,0,1,3.51,3.71,36,36,0,0,1,3.17,4c3.88,3,14.51,24.16,14.86,25.36.6,1.11,1.33,2.67,1.78,3.72a25.37,25.37,0,0,1,2.12,3.38,18,18,0,0,0,2.47,3.71,51.32,51.32,0,0,0,4.19,3c1.58,1.29,3.05,1.81,4.19,2.67,1.64.67,20,11.79,20.88,12.35,1.69,1.3,6.84,6.42,3.32,10.24-1.5,1.29-2.84,3-4.13,3.73-1.3,1.31-3.13,1.91-4.64,2.6a35.29,35.29,0,0,1-14,1.7l-1.73,0" transform="translate(0 0)"/>
          <path class="cls-6" d="M580,380.69h.35c-.93,0-.46,0,1.39.32,1.42.59,3.47,1.17,4.87,1.65s3.33.65,4.17,1.31c1.61.26,2.56,1.15,3.83,2a24.7,24.7,0,0,0,4.19,3c1.91,1.26,3.41,1.88,5.24,3a31.69,31.69,0,0,0,5.2,1c1.88.09,3.55.3,5.54.27l4.85-.05-4.85.05,4.85-.05" transform="translate(0 0)"/>
          <path class="cls-6" d="M691.28,339.59h-.69c1.28,0,.92-.05-1,.35-2,1.06-4.74,1.88-6.54,2.8a46.77,46.77,0,0,0-6.2,2.46,69.51,69.51,0,0,0-6.18,3.81c-2,1.07-3.92,2.39-5.84,3.47a29.93,29.93,0,0,0-5.15,3.46,36.56,36.56,0,0,0-4.8,3.12,10.45,10.45,0,0,0-3.43,2.42c-1.81,1.62-2.93,2.46-4.8,4.14-1,.94-2.29,2-3.76,3.45a47,47,0,0,0-4.45,4.13,16.36,16.36,0,0,1-3.07,3.1,18.21,18.21,0,0,1-3.08,3.44c-.7,1.05-1.93,2.43-3.06,3.78-.92,1.13-2.2,2.28-3.07,3.44a37.49,37.49,0,0,1-3.42,3.78,6.77,6.77,0,0,1-1,1.71" transform="translate(0 0)"/>
        </g>
        <path class="cls-2" d="M579.07,403.16c5.19-.4,13.86,1,14,1l11.42-.3c6-.64,7.29-2.92,8.25-4.52,2.21-3.43,3.75-4.64,5.45-7.21,2.74-2.07,6.61,2.65,6.79,2.65,9.8,8.9,2.16,20.05,1.64,20.4-4.79,4.42-5.82,4.71-8.8,2-3-3.37-3.87-4.89-6.31-6.05-4.7-2.16-14.37-.35-14.54-.35s-5,1.93-5,1.93c-2.35.88-3.83,2.94-7.91,3.67-4.15.33-5.54-.05-7.66-3.32-2.82-4.22-1.51-9.34,2.64-9.9Z" transform="translate(0 0)"/>
      </g>
    </g>
    <path id="path2563" class="cls-7" d="M703.88,362.28c-4.3-2.33-7.62-2.88-9.25-1.87-2.08-14-3.86-28-6.66-42-26.51-11.87-32.1-14.56-40.79-18.62,4.2-2.49,6.34-5,6.26-6.94,13.38,5.25,26.62,10.76,40.34,15.38,23.69-16.63,28.86-20,36.77-25.41.1,4.82,1.28,7.93,3,8.81-11.3,8.76-22.77,17.27-33.69,26.64,2.82,28.5,3.25,34.61,4,44Z" transform="translate(0 0)"/>
  </g>
</svg>
