<?xml version="1.0" encoding="utf-8"?>
<!-- Generator: Adobe Illustrator 23.1.0, SVG Export Plug-In . SVG Version: 6.00 Build 0)  -->
<svg version="1.1" id="Layer_1" xmlns="http://www.w3.org/2000/svg" xmlns:xlink="http://www.w3.org/1999/xlink" x="0px" y="0px"
	 viewBox="0 0 1400 700" style="enable-background:new 0 0 1400 700;" xml:space="preserve">
<style type="text/css">
	.st0{fill:#000066;}
	.st1{fill:#BD1021;}
	.st2{fill:#FFFFFF;}
	.st3{fill:#FFC221;}
	.st4{fill:#5A3719;}
	.st5{fill:#7B3C20;}
	.st6{fill:#AA5323;}
	.st7{fill:#999999;}
</style>
<path class="st0" d="M0,0h1400v700H0V0z"/>
<path class="st1" d="M0,350L1400,0v700L0,350z"/>
<path class="st2" d="M150,350L1400,37.5v625"/>
<g>
	<path d="M1073.1,389.1c9.3,0.7,9,10,9,10l33,0.7c4.2-11.5,8.6-10.2,16.6-4.5c7.6,5.4,16,7.8,16,7.8c3.2-16.5,26.6-13.2,26.6-13.2
		c10-23.9,10.8-23.6,4.9-26.6c-6-3-8.4-8.1-8.4-8.1c-5.7-6.8-8.6-16.7-9.3-22.7c-0.6-6.1-7.7,3-8.9,1.1c-1.3-1.9-11.7-0.8-11.7-0.8
		c2.6,2.7-6.2,1.1-6.2,1.1c0.9,0.6,0,3.2,0,3.2c-0.9-1.1-7.4-2.2-7.4-2.2c-0.6,1.4-2.1,3-2.1,3c-3.6-1.6-10.8-1.3-10.8-1.3
		c-10.6-0.2-17,3.2-20,4.9s-13.6,7.2-22.3,15.6c-8.7,8.4-13.6,7.5-13.6,7.5c-2.6,9.4-23.4,20.9-23.4,20.9c-3.4,3-13.8,4.5-19.1,0
		c-5.3-4.5,0-12.4,0-12.4c2-3.7,3.9-3.6,4.1-16.5c0.1-8.7,9.2-15.7,18.4-25.8c11.3-12.4,27.1-32.8,27.1-32.8
		c0.1,6.3,3.5,7.3,3.5,7.3c3.1-6.4,7.6-11.5,7.6-11.5c0.2,0.5,0.9,0.9,0.9,0.9c3.5-4.8,5.7-6.7,5.7-6.7c-1.2-0.5-11,0-20.2,8
		c-9.2,8-15.5,5.3-15.5,5.3c-6.4-2-6.9-6.9-6.9-6.9c-4.7-20,13.6-34.4,13.6-34.4c-24.6-5.8-6.9-37,23.6-50.3
		c30.5-13.3,30.1-19.2,30.1-19.2c1.8,2,3.2,5.6,3.2,5.6c0.3-0.2,2.6-3.6,20.1-11.3c17.5-7.8,26-14.4,26-14.4
		c2.2,4.3,1.8,7.4,1.8,7.4c48-16.8,95.3-55.5,95.3-55.5c1.4,3.2,0.6,8.1,0.6,8.1c7.8-7.2,36-24.1,36-24.1
		c0.5,10.7-8.4,14.9-8.4,14.9c1,1.6,1.5,4.4,1.5,4.4c4.6-2.5,26.2-17.5,26.2-17.5c7.9,6.8,0.7,18,0.7,18c2.8-0.4,4.9-2.9,4.9-2.9
		c2,11.6-10.8,21.8-10.8,21.8c2.2,0.1,6-2.1,6-2.1c-2.4,12.7-26.4,26.7-26.4,26.7c3.5,3.1,0.2,7.2-2.7,9.1c-2.9,1.9-8,5.9-6.4,7.6
		c1.6,1.7,12.2-5.8,12.2-5.8c1.8,5.3-11.8,15.8-11.8,15.8c9.5,1.3,35.9-10.7,35.9-10.7c-2.2,10.2-12.1,18.1-24.4,22.7
		c-12.3,4.6-11.6,5.3-11.6,5.3c2.2,1.7,19.1-3.2,19.1-3.2c-5.1,11.4-22.8,19.2-22.8,19.2c4.9,4.1,11.5-0.7,18.1-5.2
		c6.6-4.5,15.6-8.4,25.6-11.8c10-3.3,17-0.8,17-0.8c8.3-2.6,15.3,1.1,15.3,1.1c16,1.3,17.5,7.1,17.5,7.1c1.8,0.4,3.1,1.1,7.2,4.1
		c4.1,3,3.8,12.2,3.7,16.8c-0.2,4.5-1.4,4.5-2.2,5.8c-0.8,1.3-0.9,2.7-0.9,4.4c0,1.7-4,12.5-28.6,12.6c-24.6,0.1-37.3,0-37.3,0
		c-2,0-4.5,1.2-4.5,1.2c-10.4,5.1-4.9-3.5-17.2,6.6c-12.3,10.1-18.6,8.4-18.6,8.4c-2,2.4-14.9,14.4-22.3,19.2
		c-7.4,4.8-6.1,4.3,0.4,7.1s16.2,0,16.2,0c-6.2,4.1-1.9,6-1.9,6c8.2-5,13.1-3.1,13.1-3.1c2.6,7.1-6.8,18.4-6.8,18.4
		c3.6,0.5,10.4,0,10.4,0c-1.6,4.8-8.5,10.1-13.5,11.7c-5,1.6-4.1,2.3-2.6,5.3c1.5,3,0.2,6.1,0.2,6.1c-8.7-6-9-0.6-9-0.6
		c-1,7.2-0.9,17.4-0.9,17.4c-6.2-3.1-6.5,1-6.5,1c-1.6,6.5-9.1,14.1-9.1,14.1c-0.3-4.1-4-5.1-4-5.1c-3.9,7.6-11.2,12.1-11.2,12.1
		c-1,6.5,0.9,15.7,0.9,15.7c-4.7-1-6.4-0.9-7.1,0.2s1.1,1.7,1.1,1.7l60.9,1.5c0.9,0.1,4.5,0.5,4.6,7.1c0.1,6.6-5.3,6.9-5.3,6.9
		l-66.7-1.6c0,0,0.3,1.8-3.2,3.7c-3.5,1.8-2.3-2.1-3.3,6.1c-1,8.2-14.2-0.6-14.2-0.6c-2.1,3.2-7.3,7.3-7.3,7.3c-3-9-6.1-11.8-10.8-4
		c-4.8,7.8,8.6,6.4,8.6,6.4s78.3-11.5,82.5-11.9c4.3-0.4,8.9-0.2,10.8,5.8s-9.5,6.9-9.5,6.9l-80.3,8.8c-1.7,4.8-8.4,4.4-8.4,4.4
		c0.5,4.5-4.3,7.4-6.7,9.1c-2.4,1.7-10.1,0.9-10.1,0.9c-9.4,6.4-13.9,1.4-13.9,1.4c-6.1,2.6-9.9,1.5-14.9-0.6
		c-5-2.1-4.6-8.2-4.6-8.2l-50.7,5.3c-2.4,0.8-4,2.4-4,2.4c1.8,2.3-3.6,7.7-3.6,7.7c1.5,1,4.4,4,4.8,10.3c0.4,6.7-8.2,7.8-3.9,12.5
		c4.3,4.7,12.2,0.8,20.9-3.4s17.4-3.7,21.1-3.6c3.7,0,14.2,2.7,20.7,5c6.5,2.3,8.7,0.9,9.2-2.4c0.4-3.3,3.4-4.3,3.4-4.3
		c-0.8,3.3,1,4.7,1,4.7c2.5,0.2,6.9-2.3,6.9-2.3c-0.4,2.4-3.6,3.9-3.6,3.9c-6.4,4.3,2.4,2.7,2.4,2.7c17.5-3.6,23.7-3.2,28.2-2.7
		c4.5,0.5,26,9.6,26,9.6c0.8-2.1,0.2-7.5,0.2-7.5c5.5,1.5,7.7,4.7,7.7,4.7c2.1-2.3,0.7-6.1,0.7-6.1c17.7,9.9-3.7,14.4-9.3,16.3
		c-5.7,1.9-5.6,4.2-5.6,4.2c4.7-1.5,8-2,11.9-2.3c3.9-0.3,2.6-0.1,11.9-1.9c9.3-1.9,14.1,2.1,14.1,2.1c-7.8,0.4-10.1,2.7-10.1,2.7
		c4.9,3.4,0.2,6.3,0.2,6.3c-7.1-9-13.2,0.4-13.2,0.4c2.4-0.4,9.6,1.1,11.6,2.4c1.6,1,5.3,2.8,9.8,4.9c6.5,3,5.3,1.1,10.3,3
		c5,1.9,3.1,6.7,3.1,6.7c-2.2-3.9-6.8-5.3-6.8-5.3c-0.4,5.3-5.7,6.2-5.7,6.2c6.5-7.3-7.6-10.4-14.2-10.3c-6.6,0.1-11.6,4.4-11.6,4.4
		c13.3,12.5,22.6,8.4,22.6,8.4c-1.7,4.5-12.7,2.7-12.7,2.7c5.1,3.9,4.5,6.6,4.5,6.6c-2.7-2.6-7.2-1.3-16.7-7.5
		c-9.6-6.2-18.1-4.2-18.1-4.2c9.3,10-3.4,15.9-3.4,15.9c-4.7,2.7,2,6.3,2,6.3c-5.9,1.1-6.7-4.8-6.7-4.8c-3.1-0.6-7.6,3.2-7.6,3.2
		c0.3-6.1,8.3-3,8.5-9.4c0.2-6.3-7.4-11.2-30-8.1c-22.6,3.1-29.2-4.1-29.2-4.1c-1.9,0.1-2.3,2-2.3,2c3.7,3.6,5.4,5.1,4.8,7.6
		c-0.6,2.5,1.2,3.3,1.2,3.3c-4.1-0.2-4.5-5.2-4.5-5.2c-0.1,2-1,2.2-2.3,4.4c-1.4,2.1-0.1,4.9-0.1,4.9c-1.8-1.6-4.9-3.4-1.9-7.8
		c2.3-3.4-4.9-7.8-4.9-7.8c-2.8-2.9-10.2-0.2-10.2-0.2c-15.4,3-24.4-6.7-24.4-6.7c-1.8,0-5.1-1-5.1-1c-16.3,7.3-30.5-8.5-30.5-8.5
		c-12.3,2.3-17.9-3.6-21.6-9.4c-3.7-5.8-4.5-6.3-9.4-9.3c-4.9-3-9.6-11.4-5-15.9c4-3.9,2.8-4.8,2.8-4.8
		c-6.4-10.7,11.4-14.2,11.7-16.7c0.5-3.7,4.2-6.1,8.2-6.4c4-0.2,4,0.1,6.6-2.6c2.6-2.7,7.7,0.7,7.7,0.7c1-0.8,9.8-7.6,17.6-4.1
		c7.8,3.5,14.3,1,14.3,1c5.5-1.2,51.2-7.4,51.2-7.4c3-4.4,5-9.7,17.6-12.6s22.2-10.7,22.2-10.7c-2.2-2.4-6-2.3-7.9-2.5
		c-1.9-0.2-5.9-3.6-5.9-3.6c-2.3,1-3.5,0.5-20,10.6c-14.8,9-15.2-8.8-15.2-8.8l-32.2,0.1c-0.6,6.8-5.7,9.5-5.7,9.5l-11.7,0.6
		c-6.5-3.5-6.6-15-6.6-15c-35.4,0.5-55.1,13.2-55.1,13.2c-40.1-20.5-71.5-25.2-71.5-25.2c48.7-5.3,74.5-18.9,74.5-18.9
		c26.9,16.1,52.2,16.5,52.2,16.5c1-9.7,7.5-12.1,7.5-12.1L1073.1,389.1L1073.1,389.1z"/>
	<path class="st3" d="M1015.1,470c-10.2,6-8.3,9.2-7.5,11.1c0.9,1.9,1,3.7-1.8,6.4c-2.8,2.8-2.5,3.8-2.5,3.8
		c0.4,9.9,7.4,12,10.4,14.4c2.4,2,6.6,8.4,6.6,8.4c5.2,7.5,10.7,7.6,14.8,7.6s3.7-0.3,1.6-2.2c-2-1.7-6.1-5.1-6.1-5.1
		c5.5,1.9,10.7,7.6,10.7,7.6c10.3,11.3,19.9,9.8,24.1,9.3s3.5-3,3.5-3c-0.2-0.4-4.3-0.7-4.3-0.7c-15.5-1.5-20.2-11.7-20.2-11.7
		c9.4,9.2,24,11.1,28.6,10.9c4.5-0.2,4.3,1.1,3.3,1.4c-1,0.2-2.3,0-4.4-0.2c-2.1-0.2-2.1,0.4-1.6,1.2c0.5,0.9,2.4,1,4.9,0.9
		c2.5-0.1,0.5,0.2,6.9,5.2c6.4,5,22.4,1,22.4,1c-10.3-2.6-11.8-7.2-11.8-7.2c-14,1.6-19.7-6.8-19.7-6.8c-2.5-2.5-10-6.4-10-6.4
		c-7.9-3.4-9.2-10.6-9.2-10.6c2.2,3.2,6.6,6.8,12.1,8.3c5.5,1.5,7.1,2.3,7.1,2.3c-2.6,0.4-4.2-0.5-4.2-0.5c-5.5-1.6-2.4,0.6-2.4,0.6
		c6.1,4.8,7.7,4.5,7.7,4.5c15.9,1.6,8-4.7,8-4.7c11.3,2.7,13.2-1.6,13.2-1.6c2.4,5,10.9,3.2,10.9,3.2c-11.4,5.5-2.8,3.9-2.8,3.9
		c11.5-2.2,13.8,0.8,13.8,0.8c3.1,2.9,6.3,2.5,6.3,2.5s2.1,0.1,6.5,0.9c4.4,0.9,11.1,4.6,17.5,3.8c6.4-0.8,7.4,1.2,7.4,1.2
		c-1.2-0.4-4-0.8-8.9,1.4c-4.9,2.2-13.5,2.9-25.9,0c-12.4-2.9-13.4-2.6-13.4-2.6c3,2.2,5.6,5.3,6.1,7.5s2.7,2.3,2.7,2.3
		c0.9-2.7,4.6-3.9,4.6-3.9c2.5,2.3,9,5.3,9,5.3c0.7-1.5,0-2.5,0-2.5c4.8,4.6,10.4,3.2,10.4,3.2c1.5-1.1,1-3.6,1-3.6
		c1.9-0.1,2.2,1.1,3.6,2c1.4,0.9,5.7,0.3,5.7,0.3c-1.6-0.7-2.7-3.1-2.7-3.1c6.3-4.4,19.9-2.4,19.9-2.4c9.8,1.7,8.6,8.2,8.6,8.2
		c2,1,4.6,3.9,4.6,3.9c0.8-2.3,0.1-4.6,0.1-4.6c4.5,2.1,5.5,7.4,5.5,7.4c5.2-6-5-12.7-5-12.7c4.9-0.6,10.4-0.2,13.7,0.3
		c3.3,0.5,8.1,2.2,11.9,5.4c3.9,3.2,10.8,4.7,10.8,4.7c-0.2-1.3-3.9-3.6-4.7-4.1s-1.2-1.6-1.2-1.6c3.4,0.6,5.7,0.3,5.7,0.3
		c-11.9-7.3-14.9-10.7-14.9-10.7c4.5,0.6,6.9-2.2,6.9-2.2c-9.4,0.2-9.7-2.2-9.7-2.2c1.2,0.3,5.4,1.4,11,0.3c5.6-1.1,13.4,0,13.4,0
		c-4.1-6.5-19.8-5.4-24.8-5.2c-5,0.3-7-0.4-7-0.4c0.8-0.4,1.6-1.2,5.6-1.3c3.9,0,7.8,0.3,12.3-2.8c4.5-3.1,10.6-2.1,10.6-2.1
		c-1.5-2.9-8.6-4-14.8,0s-11.9,2.7-11.9,2.7c9.8-1.4,12.7-4.9,12.7-4.9c-3-0.7-4.6,0.2-10.5,1.4c-5.9,1.2-7.5-0.9-7.5-0.9
		c6.5-3.9,11-5.4,11-5.4c-5.5-1.2-10.6-3.5-10.6-3.5c-5.7,5.4-10.2,8.4-21.2,2.7c-11-5.8-16.7-5.1-16.7-5.1
		c9.7-5.7,19.6-3.3,26.8,1.1c7.2,4.3,9.3,0.8,9.3,0.8c-2.3-1.4-2-2.7-2-2.7c17.5,9,25.1,3.4,29,0.8c3.9-2.6-1.8-6.1-1.8-6.1
		c-0.4,5.7-7.6,8.3-13.2,6.4s-10.8-4.3-19-7.7s-18.3-1.6-27.7,0.4c-9.5,2-10.7,1-11.5,0.3c-0.9-0.8-1.3-3.1-6.2-1.1
		c-4.8,2-16.1-3.3-23.1-5s-18.5-0.8-28.4,4.7c-9.9,5.5-14.8,4.1-17.8,2.7s-4.8-5.1-1.6-8.4c3.2-3.3,3.5-4.3,3.2-9.1
		c-0.3-4.8-5-7.7-5-7.7c4.4-4.5,5.4-5.5,3.9-7.4c-1.5-2,0.9-1.9,3.4-3s1.4-1.3,0.8-2.7c-0.6-1.5-2-1.2-2-1.2c-5.8,0.2-9-1.4-9-1.4
		c-9.6-4.4-18.5,4.2-18.5,4.2c-5.5-4.2-6.7-1.5-7.7-0.4c-1,1-2.9,1.8-5.4,2c-2.3,0.2-5.8,1.1-7,3.3c0,0-1.1,1.7,0.3,3.7
		c0,0,1.5,2.2-1.2,5c-2.7,2.7-3.7,3.4-2.8,5.9c0.8,2.6,0.6,4.5-0.4,6.2c0,0-1.2-1.4-0.9-3.2c0.3-1.8,0.3-2.8-0.1-3.7
		c0,0-2.7,2.6-3.1,4.5c0,0-1.1-2.9,2.8-6.8c3.9-3.9,5.6-5.8,4.5-7.3C1018.6,467.8,1015.8,469.6,1015.1,470L1015.1,470z"/>
	<path d="M1026.1,512.7c0,0-4.8-3.7-4.3-8.8c0.6-5.1,0.5-5.8,0-6.8c0,0-0.9,0.5-0.9,2.5c0,1.9-0.2,3.8-0.4,4.2c0,0-2.5-4.3-3.5-5.1
		c0,0,0.9-4.5-0.5-6.4c-1.4-1.9-2.7-2-4.3-1.4c-2.2,0.8-3.9,2.9,3.5,8.9c0,0,2.7,2.2,4.7,7C1022.3,511.7,1025.5,512.5,1026.1,512.7z
		 M1050.1,498.5c0,0-0.4-2.9,2.2-8c2.6-5.1,1-8.9,0.5-10.2c-0.6-1.3-0.9-0.8,1.7-3c3.2-2.7-1.2-6.1,4.1-10.9c0,0,3.5-3,4.3-4.2
		c0,0-5.6,3-9.3,4.5c-3.7,1.5-17.7,8.4-14.6,13s2.8,4.9,2.3,6.8c0,0-8.3-4.4-5.4-11.6c0,0,1.3-2.9,4.8-6.1c3.2-2.9,1.3,0.6,7.8-3.1
		c0,0,5.2-3.1,7.9-7.2c0,0-3.4,2.1-4.6,2.5c0,0-7.5,1.4-10.5,4.5c-3,3.2-9.5,8.7-7.3,14.9c0,0-7.5-0.9-9.2-8.7
		c0,0-13.9,17.1,15.3,25.1C1039.9,496.7,1045.2,498.2,1050.1,498.5z"/>
	<path class="st3" d="M1178.2,441.3c10.9-1.6,73.9-11.2,79.7-11.8c6.3-0.6,8.7-1.5,10.7,3.6c2.3,5.7-8.6,5.8-8.6,5.8l-75.2,8.5
		c-3.7,0.4-4.5-1-4.5-1c-0.7-1.2-1.9-2.8-2.8-3.8C1177.6,442.6,1176.6,441.6,1178.2,441.3L1178.2,441.3z"/>
	<path class="st4" d="M1024.3,475.5c0,0-8.1,17.1,23.8,21.4c0,0,0.1-1.9,1.4-4.6c1.3-2.7,4.1-8.1,1.4-11.6c-2.6-3.5,2.2-1.7,2.9-6.3
		c0.7-4.6-0.5-3.9,1.8-6.9c0,0-10,3.6-13.9,8.1c-3.8,4.4,5.2,7.8-0.2,12.6c0,0-4.5-1.6-7.1-6.4
		C1034.4,481.7,1028.2,481.8,1024.3,475.5L1024.3,475.5z"/>
	<path d="M1055.5,496.6c0,0,7.9,6.8,17.3,6.5c9.4-0.3,13.4-2.8,15.8-6.5c0,0,1.8,2.9,1.8,4.8c0,0,8.1-6.7,22.2-0.9
		c14,5.8,9.7,4.2,12.8,4.7c0,0-6-1.1-19.6,5.2C1091.8,516.8,1055.2,514.6,1055.5,496.6L1055.5,496.6z"/>
	<path class="st4" d="M1042.4,466.3c0,0,3.5,0.5,7.1-3.5C1049.5,462.9,1044.7,463.8,1042.4,466.3z M1015.6,498.1
		c0,0-6.6-5.2-2.4-6.2C1013.2,491.9,1016.3,491.5,1015.6,498.1z"/>
	<path d="M1159.3,530.6c0,0,3.5-6.3,13.6-6.3s11.3,4.7,24.1,5.6c0,0-15.3,4.3-26,0.4C1165.4,528.2,1160.4,529.9,1159.3,530.6z"/>
	<path class="st4" d="M1059,501.1c0,0,15.2,9.2,28.6-0.8c0,0,1.1,1.1,2.1,3.5c0,0,10.2-9.9,28.5,0.8c0,0-2.2-0.2-10.8,3.5
		C1096.1,513,1068.1,516.1,1059,501.1z"/>
	<path d="M1117.5,510.4c0,0,14.5,1.7,26.8,1c7.5-0.4,15.7-1.8,11.6,0.7c-4.1,2.6-2.1,2.8,15.3,1.2c17.4-1.6-0.2,3.3,11.8,4.8
		C1183,518.1,1154,532.9,1117.5,510.4z"/>
	<path class="st4" d="M1155.6,501.2c0,0,8.5-3.1,16.4,0.6c7.9,3.7,6.7,4,12,4.5c0,0-3.7,5.3-12.4,1
		C1162.9,503.1,1160.6,502.3,1155.6,501.2z M1165.1,527.4c0,0,8.4-4.2,17.6,0.2c1.2,0.5,3.7,1.6,6.1,2.1c0,0-7.1,2.2-14.4-0.1
		C1171.4,528.7,1169,527.9,1165.1,527.4L1165.1,527.4z M1123.7,512.4c0,0,18.7,1.7,28.8-0.3c0,0-11.7,5.7,17.7,3
		c0,0,6.5-0.7,5.7,0.3c-0.8,1-1.3,1.8,1.9,2.7C1177.8,518.2,1156,528,1123.7,512.4L1123.7,512.4z"/>
	<path d="M1030.5,496.6c0,0,0.2,1.4,4.3,3.3c4.1,1.9,6.4,5.2,7.3,7c0.9,1.8,3,4.5,6.4,5.3c0,0-14.6,3.1-21.2-4.6c0,0-5-5.5,3-11"/>
	<path class="st4" d="M1145.6,530.3c0,0-5.8-0.4-13.7-3.1c-7.9-2.7-10-0.4-14.4-3.8c-4.5-3.3-13.5-1.3-15.2-1
		c-1.7,0.2-6.5,0-0.5-3.9c0,0-4.8-0.1-6.6-2.5c0,0-2.2,2.1-10.2,1.3c0,0,3.6,5.6-10.8,4c0,0,4.3,5,9.5,6c5.2,1,7.3,0.7,10.7-0.3
		c0,0-1,4.4,5.7,6c6.7,1.7,8.1,3,11.5,4.4c0,0,0.5-2.8-8.5-9.3c0,0,4.8-0.2,11.6,1.4C1121.6,531.3,1137.2,535.3,1145.6,530.3
		L1145.6,530.3z M1149.2,537c0,0,1.4,3.3,5.8,2.6s11.7-2,18.7,1.5c0,0,1.2-6-12.9-6.4C1160.9,534.7,1152.1,535.2,1149.2,537
		L1149.2,537z M1029.9,498.7c0,0-5.4,4.5-0.5,9.1c4.5,4.2,11.4,3.9,14.8,3.7c0,0-2-1.1-3.7-3.8s-1.8-4.4-5.5-6.1
		C1031.1,499.9,1030.7,499.5,1029.9,498.7z M1024.3,475.5c0,0-8.1,17.1,23.8,21.4c0,0,0.1-1.9,1.4-4.6c1.3-2.7,4.1-8.1,1.4-11.6
		c-2.6-3.5,2.2-1.7,2.9-6.3c0.7-4.6-0.5-3.9,1.8-6.9c0,0-10,3.6-13.9,8.1c-3.8,4.4,5.2,7.8-0.2,12.6c0,0-4.5-1.6-7.1-6.4
		C1034.4,481.7,1028.2,481.8,1024.3,475.5L1024.3,475.5z"/>
	<path d="M1108.3,515c0,0,6.7-1.1,23.8,5.3c17.1,6.4,24.2,4.8,26.7,4.6c0,0-9.6,5-24.5-1.5C1121.1,517.6,1120.2,519.8,1108.3,515
		L1108.3,515z"/>
	<path class="st3" d="M1215.1,511.2c0,0,3.9-0.1,6.2,0.9c0,0,1.5-1.3,5.1-1.7C1226.4,510.5,1224,508.2,1215.1,511.2z M1203.5,501.8
		c0,0,3.9-0.2,5.1-2c0,0-2-2.5-5-3.7C1203.6,496,1204.2,498.7,1203.5,501.8z M1072.3,458.2c0,0-0.7-1.9,3.3-2.5
		c4.1-0.6,57.2-8.2,57.2-8.2s2.8,0,3.2,1.9c0.4,2-0.3,3.5-13.2,5c-12.8,1.5-46.7,5.7-46.7,5.7S1072.7,460.7,1072.3,458.2z"/>
	<path class="st3" d="M1124.2,455.9c0,0,0,7.5,7.7,8.6c7.4,1.1,10-0.5,12-4.4c0.5-1,2.8-8.9-0.5-9.5c-1.3-0.2-3.6-0.1-5.2,0.6
		c-2.6,1.1-4.9,2.4-4.1,3.7c1.8,2.7,2.2,3.4,1.5,3.6c-1.8,0.5-3.2-1.1-3.6-2.2c-0.5-1.4,1-2.3-4-1.6
		C1125.9,455.1,1124.2,455,1124.2,455.9L1124.2,455.9z"/>
	<path class="st3" d="M1156.1,450.1c3.9,0.5,3.6,8.7-1.1,12.5c-5,4-9.8,2.6-9.8,2.6c-2.5-1.1-2.2-0.7-0.3-3.7
		c1.9-2.8,2.7-6.6,1.7-9.3c-0.3-0.8,0.6-1.5,1.9-1.8C1148.5,450.4,1152,449.6,1156.1,450.1z"/>
	<path class="st3" d="M1159.5,450.8c0,0,2.8,3.5-0.7,10c0,0-1.5,1.9,1.9,1.6c3.5-0.3,11.2-4,10.4-8.7c0,0-0.3-1.2-2.3-1
		s-0.4-1.1,0.5-1.4s3.5-1.2-3.3-5.6c0,0-1.1-1-2.4-0.6c-1,0.3-4.7,1.8-4.7,3.9C1158.8,449.9,1159.5,450.8,1159.5,450.8L1159.5,450.8
		z"/>
	<path class="st3" d="M1166.9,444.9c0,0,5.5,3.9,5.4,5.1c0,1.2-0.5,2.7,0.9,2.6c1.4-0.1,7.3-1.4,5.7-5.3c-1.6-3.9-3.2-5.3-6-6.2
		c-2.7-1-3.4,0.3-5.8,2.1C1167.2,443.1,1165.5,444.1,1166.9,444.9z M1137.4,450.4c0,0,0.9-2.9-4-4c0,0,2.1-1.7,6.2-0.8
		c4.1,0.9,3.7,3.6,3.6,4C1143.3,449.6,1140.1,449.5,1137.4,450.4L1137.4,450.4z M1148.1,449.7c0,0,5.7-1,8.2-0.7
		c0,0-2.8-6.2-10.3-4.1C1145.9,444.9,1148.6,448,1148.1,449.7L1148.1,449.7z M1157.8,448.1c0,0,0-1.9,4.8-3.8c0,0-2.3-2.2-5.6-2
		c-3.7,0.2-4.5,1.6-4.5,1.6S1156.6,445.3,1157.8,448.1z M1159.7,441.6c0,0,3,0.8,4.8,2.3c0,0,2.8-3.1,5.2-3.7
		C1169.7,440.2,1165,437.7,1159.7,441.6z"/>
	<path class="st4" d="M1003.1,426.6c0,0,13.1-11.1,20.5-9.8c7.4,1.3,3.7,0.4,11.7-0.8c8.1-1.3,16.3-2.1,19.7-1.7c0,0-9.7-7-27.1-6.9
		c0,0-12.3,4.2-20.7,9.8c0,0-16.3-9.1-33.1-3.6C974.1,413.6,992.4,420.3,1003.1,426.6L1003.1,426.6z"/>
	<path class="st3" d="M1142.8,445.9l2.2-0.4c0,0,3.7,4.6,1,4.6c-2.1,0-1.3-0.6-1.6-2C1144,446.8,1143.2,446.2,1142.8,445.9z
		 M1126.3,446.2c0,0-1.3,1.6,1.2,1.3c3-0.5,2.4,0.1,5.7-2.1c0,0,2-2.2,5.8-0.8c0,0,3.2,1,5.8-0.2s3.2-1.2,4.6-1
		c1.4,0.1,1.3,0.4,3.2-0.9c1.9-1.4,5.1-0.3,7.1-2c2-1.7,4.6-0.3,0-3.6c0,0-1-1-0.9-1.8c0,0,1.8,0.5,3.2,1.8c1.4,1.3,3.7,0.9,4.1,0.7
		c0,0,0.2-4.1,4.3-7.8s4.1-4.1,1.7-4.1c-2.4,0-6.4-1-7.8,0s-13.3,8.8-20.2,10.1C1137.1,436.9,1130.8,438.8,1126.3,446.2z
		 M941.2,403.4c0,0,21.3,5.5,26.1,7.8c0,0,1.1-3.6-8.5-6.3c0,0,23.5-0.7,48.4,10.6c0,0,12-10.3,50.6-7.1c0,0,0.1-3.4,0.3-6
		c0,0-27.1-0.8-52-15.9C1006,386.4,983.7,397.4,941.2,403.4L941.2,403.4z M1059.5,413.7c-1.5-21.8,6.9-23.7,6.9-23.7s3.9,0,8.2,0.7
		c0,0-6.6,7.8-4.8,23.4c0,0,0.7,2.5-4.9,2.5C1059.3,416.6,1059.5,413.7,1059.5,413.7z"/>
	<path class="st4" d="M1065.2,428.1c0,0-4-4.1-4.5-8.9c0,0-0.1-1.2,4-1.1c4.1,0.1,4.6-0.4,5.6,2c1,2.3,3.6,7.2,4.2,7.8L1065.2,428.1
		L1065.2,428.1z"/>
	<path class="st3" d="M1073.9,417.3c-0.4-2.8-0.5-5.3-0.4-8.3c0.3-12.1,2.3-11.1,3.1-9.5l4.2,0.1c0,0-3-13.7-6.6-5.7
		c-3.5,7.9-3.2,13-2.8,19.2c0.2,3.6,0.7,5.8,1.1,7.1L1073.9,417.3z"/>
	<path class="st4" d="M1120.8,417.3c0,0,8,1.2-4.3,4.1c0,0,0.6,14.8,15.1,4.4c0,0,8.6-5.5,14.5-7.7c0,0,3-1,2.6-3.3
		c0,0,0.2-2.6-2.9-2.1c0,0-2.4,0.1-4-0.5c0,0-1.7-2-2.9-1.2c-1.2,0.8-3.9,0.3-1.8,2.9c2.1,2.6,2.8,1.9,3.8,1.2
		c1-0.7,5.6-2.6,1.4,1.2s-7.5-2.1-8.9-3.2L1120.8,417.3L1120.8,417.3z M1080.7,419l-3.6-0.1c0,0-1.9,2.9-3.2-1.6l-1.5,2.9
		C1072.4,420.2,1076.8,436.1,1080.7,419z"/>
	<path class="st3" d="M1075.7,400.6c0,0-1.8,10.4,0.5,16.9l38.5,0.7c0,0-0.5-7.5,0.1-17.6h-5.5c0,0-0.7,8.4-0.1,13.6l-0.9,0
		c0,0-0.7-7.3,0.1-13.6h-4.5c0,0-0.7,7.8-0.2,13.6h-0.9c0,0-0.6-6.8,0.1-13.6h-4.5c0,0-0.8,7,0.1,13.6l-1.1,0c0,0-0.9-7.1,0.1-13.5
		h-4.9c0,0-1.2,6.6-0.1,13.6h-1c0,0-1.1-6.7,0.1-13.6h-4.9c0,0-1.2,7.4-0.2,13.6h-1c0,0-0.8-7.2,0.3-13.6h-4.6c0,0-1.2,6.3-0.2,13.6
		h-1c0,0-0.7-5.5,0.2-13.6L1075.7,400.6L1075.7,400.6z M1116.4,419.6c0,0-1.1-18.9,2.6-23.7c3.6-4.9,4.4-3.9,10.5,0
		c6.2,3.9,14.1,8.1,15.4,8.6c1.3,0.5,3.1,1,3.1,4.4s0.6,4.5-4.7,0.2c-0.8-0.6-3.3-2.9-5.1-3.5c-4.8-1.5,1.1,1.1,2.8,3.5
		c1.4,2.1,2.6,1.8-1.2,2.8C1136.2,412.8,1123.3,417.1,1116.4,419.6L1116.4,419.6z"/>
	<path d="M1129.9,406.1c0,0-2.8-3.5,0.8-4.3c3.5-0.8,3.8,5.6,4.4,9.4C1135.7,415.1,1130.6,407.3,1129.9,406.1z M1124.7,422.6
		c0,0-4.1,1.5-1.4,2.9c2.7,1.3,10.4-5,7.7-4.6C1128.4,421.2,1124.7,422.6,1124.7,422.6z M1130.3,416.7c0,0,3.7-0.4,3,1.2
		c-0.7,1.6-2,0.6-2.6,0.2C1130.1,417.8,1127.5,416.9,1130.3,416.7L1130.3,416.7z"/>
	<path class="st3" d="M1149.9,411.8c0,0,1,7.2,7.2,9c0,0,3.6,0.9,2.8-2.3c0,0-0.6-2.6-1.1-3.7c-0.5-1.1-3-1.8-3.2-1.9
		c-0.3-0.1-0.6-0.9,1.1-0.3c1.7,0.6,2,0.6,1.8-0.6c-0.1-1.2-1.1-0.7-2.7-1.5c-0.6-0.3,0.1-0.7,0.7-0.6c0.6,0.1,2.2,0.6,2.2-1.9
		c0,0,0.3-1.4-1.5-1.5c-2-0.1-1.9-1-1.2-1.2c0.6-0.1,2.8,1.3,3.4-1.1c0.6-2.5-3-1.1-2.5-2.4c0.5-1.3,3,0.7,3.2-0.8
		c0.2-1.5,2.2-2.1-1.2-2.6c-1.6-0.2-0.1-1,1.7-0.7c2,0.3,3.2-2.2,4.3-3c1.1-0.8,7.6-4.7-1-3.4c-8.6,1.3-11.1,5.5-11.7,6.3
		C1151.5,398.7,1149.1,403.6,1149.9,411.8L1149.9,411.8z"/>
	<path class="st3" d="M1169.9,417.4c1.1-0.2,2.2,0.1,2.5,0.9c1.4,2.9-1.8,1.9-3.6,4c-1.8,2.1-1.9,1.7-4.4,1
		c-2.6-0.8-3.5-4.6-3.5-4.6c-0.3-1.2,0.8-1.3,2.1-1.1C1163,417.4,1167.3,417.9,1169.9,417.4L1169.9,417.4z M1160.6,415.8
		c0,0,0.2,0.9,1.6,1c1.5,0.1,5.7,0.5,8.2-0.3c0,0,0.9-0.2,0.5-1.8c0,0,0-1.1-2.3-0.6c-2.3,0.4-5.6,0-6.7-0.2
		C1160.9,413.5,1160,413.8,1160.6,415.8L1160.6,415.8z M1160.3,410.6c0,0-0.1,2.3,2.2,2.6c2.3,0.3,5.1,0.3,6.3,0.1
		c0.9-0.2,2.5-0.5,2.7-1.8c0.1-1.3,0.5-2.3-2.3-1.6c-2.8,0.7-6.2,0.2-6.6,0.2C1162.2,409.8,1160.3,409.3,1160.3,410.6L1160.3,410.6z
		 M1161.3,406c0,0-0.6,1-0.5,2c0.1,1,1.7,1.3,4.7,1.4c3,0,5.6-0.4,5.8-1.4s0.9-2.1-1.4-1.8c-2.3,0.4-5.3,0.5-6.5,0
		C1162.3,405.7,1161.5,405.6,1161.3,406z"/>
	<path class="st4" d="M1270.6,417.6c0,0,0,2.1,1.6,4.1l-82.6-2.4c0,0,1.2-0.7,1.5-4L1270.6,417.6L1270.6,417.6z"/>
	<path class="st3" d="M1162,402.6c0,0-0.7,2.1,0.8,2.5c1.5,0.4,4,0.9,7.4,0.3c0,0,1.7,0.1,2.3-1.7c0.6-1.8,0.5-0.8-4.3-1.8
		c0,0-1.5-0.4,2.9-0.5c0,0,2.4,0.1,2.8-0.3c0.4-0.4,3.6-3-0.6-2.8c-4.2,0.2-2.1-0.7,0-0.7s2.8,0.4,3.5-0.2c0.7-0.7,0.1-0.2-1.1-1.4
		c-1.1-1.2-0.3-0.8,0.5-0.2s1.3,0.8,2.3,0s-0.7-2,0-1.9c0.7,0.1,1.1,1.5,3.8,0.2s6.4-0.6,7.4,0.1c1,0.7,3.8,1.7,5.5-0.1
		c1.7-1.8-2-3.2-0.4-3.4s2.7,0.3,3.4-1c0.6-1.3-2.5-2.5,0.5-3.3c3-0.8,0.5-9.2-0.6-10c0,0-3.3,2-7,7.9c-3.7,5.9-5.8,9.4-10.8,7.6
		c-7.2-2.6-10.9,1.1-12,1.8c-1.7,1.1,3.6,1.6,0.5,1.6c-3.1,0.1-3.1,0.3-3.4,0.8c-0.3,0.5,0,0.9,0.5,0.9s1.8,1.2-0.2,1.2
		c-1.9-0.1-3.3-0.4-2.7,1.7c0,0,0,0.4,1.2,0.6c1.1,0.1,1.5,1.3-0.6,1.3C1162.1,402,1162,402.5,1162,402.6L1162,402.6z M1169.6,423.3
		c0,0-1.5,1,0.6,1.2s3.1,0.5,3.7-0.6c0.6-1.1,3.4-0.6,1.6-2.2C1173.6,420.2,1172.4,421.1,1169.6,423.3L1169.6,423.3z"/>
	<path class="st3" d="M1178.1,398.5c0,0,6.9-6.5,12.6-2.1c5.8,4.4,6.3,5,6.4,5.1c0.1,0.1,0.7,0.6-0.9,1.9s0,1.3,1.7,0.5
		c1.7-0.8,1.8-0.1,2.7,0.9c0.8,0.9,2,1.5-0.7,1.5c-2.7,0-8.4,0-8.4,0s-3.9,0.3-1.9-1.3c2-1.6,1.7-3.5,0.7-3.6c-1-0.1-0.1,1-0.7,1.7
		c-0.6,0.7-2,1.4-3.3,1.4s-2.6,1-0.4,1.8c2.2,0.8-0.2,1.3-1.4,1.3c-1.1,0-6.5,0.4-1,1.1c5.5,0.7-0.5,0.5,3.5,2.8
		c4.4,2.5,1.2,7.9-0.4,8.4c0,0-1.8,1,0.5,0.7c2.3-0.3,3.6-0.6,2,0.6c-1.6,1.3-4.9,5.4-9.4,2.2c0,0-2.1-1,1.6-1.2
		c3.7-0.2-3-1-4.1-1.7c-1.1-0.8-5.4-5.1-2.7-4.6s1.7-1,0.1-1.6c-1.6-0.6-1.9-3-0.1-2.5c1.8,0.5,3.9,1.5,5.3,1.5c1.4-0.1,1-0.7-2-1.6
		c-3.1-1-4.3-1.1-3.6-3.7c0.7-2.6,4.1,1,3.3-0.9c-0.8-1.9-3.7-1-2.2-3.6c1.6-2.6,1.9-1.5,2.6-1.1c0.7,0.3,1.9,0.1-0.2-1.4
		C1176.4,400.1,1177.8,398.8,1178.1,398.5L1178.1,398.5z"/>
	<path d="M1183.1,400.3c0,0,0-0.9,1.2-0.7c1.2,0.1,0.9-0.4,1.3-0.6c0.4-0.2,3.5,0.9,0.6,2C1185,401.3,1183.4,401,1183.1,400.3
		L1183.1,400.3z"/>
	<path class="st3" d="M1189.7,407.6c0,0-2.3,1.2-0.2,3.6c1.8,2.1,1.8,2.7,1.6,4.1c-0.2,1.4,79.5,2.2,79.5,2.2s-0.1-5.1,3.3-8
		C1273.9,409.6,1230.3,408.6,1189.7,407.6L1189.7,407.6z"/>
	<path class="st4" d="M1272,416.2c0,0,0.3-4.3,2.7-5.7c1.3-0.8,3.1-0.3,3.8,3.2c1.1,5-3.1,9.2-5.1,7.3
		C1271.6,419.1,1272,416.2,1272,416.2L1272,416.2z"/>
	<path class="st5" d="M1180.6,434.8c0,0,5.3-4.5,6.1-6.5c0,0,14.4,10.2,13.5,0.8c0,0,0-2.5,0.4-4.9c0,0,5.2,0.5,6-3.6l-13.4-0.4
		c0,0-1.4-0.3-3.5,1.9c-2.1,2.2-6.3,4.7-10.3,2.6c0,0-1.7-1.4-3.4-0.2c-1.7,1.2-1.8,1.6-0.4,2.9
		C1177.1,428.6,1180.1,432.7,1180.6,434.8L1180.6,434.8z M1211.5,406.7l-7.9-0.3c0,0-2.9-4-8.5-8.5c0,0-1.6-0.7,1.5-3.2
		c3.2-2.5,4.1-5.2,4.2-6.4c0.1-1.2-0.2-3.1,1-1.7c1.2,1.5,9.3,8.8,10.5,6.6c1.2-2.2,1.4-3.2,1.6-3.8c0.2-0.7,0.5-2.7,1.6-0.6
		c1.2,2.1,2,1.6,2,7.1c0,0,0.2,5.4,1,7.4C1218.6,403.3,1208.3,400,1211.5,406.7L1211.5,406.7z M1177.4,390c0,0,6,3.3,8.9-1.2
		c3-4.5,4.9-5.3,2.7-9.6s0.1-6.4,1.7-8.2s3.1-1.5,3.4-8.4c0.2-6.9,5-9.3,7.2-11.4c2.2-2.1,7.6-5.4-0.6-6.8
		c-8.2-1.4-24.5-5.6-28.7-11.9c-4.2-6.3-6.1-2.6-6.2-2.3c-0.1,0.2-1.4,4.9,2.8,13.3c4.2,8.4,7.8,13.8,11.9,16.6
		c4.1,2.7,7.7,4.2,5.7,9.8C1184,375.4,1180.4,385.5,1177.4,390z"/>
	<path class="st4" d="M1199.5,372.1c0,0,1,14.4,11.6,19.5c0,0,2.4-5.6,1.4-11.2c0,0,3.4,0.3,4.4,1.9c0,0,0.2-4.2-4.8-5.7
		c-4.9-1.5-2.6-10.9-0.8-12c1.8-1.1,1.2-2.9,0-4.6c-1.2-1.7-1.5-4.3,2.6-3.2c4.1,1.1,3.5-1.1,1-3.2s-2.4-4.5,1.1-4.5
		c3.5,0,9.3-3.4,5.8-4.5c-3.5-1.1-4.6-2.2,0.2-3.6c4.8-1.4,7.1-3.1,3.5-3.5c-3.6-0.4-6-1.7-2.5-2.3c3.5-0.6-0.6-4.2-4.7-4.4
		c-4.1-0.2-12.8,1.5-5.9-4.1c6.9-5.6-10-1.5-3-5.1c6.9-3.6-2.3-2-3.6-2.1c-1.3-0.1-1.3,0-0.8-1.9c0.5-1.9-1-2.7-3-1.6
		c-2,1.1-2,1.1-1.9-1.4c0.1-2.6-2.4-0.7-3.9,0s-5.3,3.5-6.9,2s-2.4-3.2-7.1-0.3c-4.7,2.9-3.6,0.3-3.5-1c0.1-1.3,1.8-6.2-4.6-0.9
		c-6.5,5.3-1.2-5.7-6.3-2c-5.1,3.8-5.7,4.4-6.5,2.7c-0.8-1.7-1.8-3-7.4,0.5c-5.6,3.6-1.5-2.1-0.7-3.4c0.8-1.3,3.2-9.4-1.8-3
		c0,0-2.4,4.4-7.7-3.5c0,0-5.7,7.8-7.1,4.4c-1.4-3.5-2.9-3.8-4.7-1.6s-0.5-0.1-1.3-2c-0.8-1.9-1.3-5.4-10.7,1.4
		c-9.4,6.9,3.3,1.9-3.9,5c-7.2,3.1-24.5,12.9-8.6,10.6c15.9-2.3-7.7,6.2-2.2,7.8c5.5,1.6,3.7,6.3,24.4,0.7
		c20.7-5.7,17.3-0.9,27.8-5.4c10.5-4.5-2.4,1.6,11.7,1.3c14.1-0.3,2.4,0.1,5.1,3c2.7,2.9,14.7,9.8,25.8,11c11.2,1.1,13.9-3,10.7,1.8
		c-3.2,4.8-4.3,6.7-6.2,8.4s-7.2,5.5-7.3,12.2c-0.1,6.7-8.8,7.8-5.6,15.2C1191.9,379.5,1196.8,374.7,1199.5,372.1L1199.5,372.1z"/>
	<path class="st4" d="M1217.8,388.2c0,0-2.6-1.8-2.5-5c0,0,1.8,0.3,2.5,1.5c0,0,6.4-7.3-1.3-9.9c-7.7-2.6-3.9-9.6-1.3-9.6
		c2.6,0,3.1-0.8,0.9-3.7s-2-3,2.3-3.8c4.4-0.8,3.8-1.7,1.8-2.7c-1.9-1.1-3.4-2.8-3.4-2.8s12.3-5.4,8.3-7.8c-4-2.5,0-1.8,3.6-4.4
		c3.6-2.5,4-3,4.6-4c0,0-3.5,0.4-6.1-0.2c0,0,3.1-1.5,0-4c-3.1-2.5-4.4-4.8-9.2-3.6c-4.9,1.2-3.3-0.5-1.4-2.5c1.9-2,1-3.2-2.4-3.7
		c0,0,0.4-2.1,3-4.7c0,0-6.6,0.5-8.9-0.7c0,0,2.7-1.8,2.9-4c0,0-3.7,1.2-8.3,0.8c0,0,2.7-2.3,2.7-4.4c0,0-8,1.8-11.8,4.6
		c0,0-0.8-0.2-1.4-1c-0.6-0.9-1.1-1.8-10,1.1c0,0,1-3.9,3.1-5.5c2.1-1.6,1.8-4.8-12,3.9c0,0-1.9-1.1-3.4-5.3c0,0-3,4.2-5.3,5.7
		c0,0-1.9,0.8-1.7-1.9c0.2-2.7-1.4-0.8-2.8,0c-1.4,0.8-2.4,2.7-1.7-2.7c0.7-5.4-1.9-6.6-1.9-6.6s-4.3,6.1-6.8,6.7
		c0,0-4.5-4.4-6.1-7.3c-1.6-2.9-1.6-4-3.2,1.1c-1.6,5.1-3.6,5.5-3.6,5.5s-2.7-2.3-3-3.6c0,0-0.5,1.4-1.4,2c0,0-2.4-2.8-2.3-6.9
		c0,0-14.8,8.2-16.7,13.1c0,0-14-0.8-19.9,0.2c0,0,1.4-4.5,5.1-6.8c0,0-3.7-0.4-3.8-4.2c0,0,3,0.4,4.8-0.1c1.8-0.5-2.6-5.8,2.1-5.9
		s7.6,2.2,5.5-3.9c-2.1-6.1-1.1-6.1-1.1-6.1s8.1,4.8,9.3,3.6c1.3-1.2-1-3.8,6.1-2.6c7.2,1.2,5.2-2.9,8-3.1c2.8-0.2,4.3,1.8,2.6-11.2
		c-1.8-13,8.7,6.4,1.6-13.2c0,0-1.8-5.9-6.1-8.5c0,0-1,4.3-5.8,0.5c-4.8-3.8-14.3-5.1-10.3-8.1c4-3,5.9-7,4.7-9.5
		c0,0-4.7,4.9-12.9,1.4c-6.5-2.8-7.8,2.3-14.4,0.8c0,0,0.1-1.7,5.7-6.1c5.6-4.4-3.2,1.5-6.7,2.2s-4.5,0.1,2.9-5.5
		c7.3-5.7,21.9-15.7,19.9-23.9c0,0,3.4,4.4,12.4,1.2c9-3.2,15.7-4.3,18.4-9c2.7-4.7,9.8-9.4,11.6-10.4c1.8-1,4.3-1.7,1.5,2.7
		c-2.8,4.4-7.3,12-19.8,17.1c-12.4,5.1-17.2,8.9-19.5,11.6c-2.2,2.7-13.6,8.7-6.2,7.7c7.3-1,20.1,0.2,14.1-1.6
		c-6-1.7-12.8,1.1-7.3-3.9s6.5-6.7,14.4-10c8-3.3,16.8-11,16-2.9c-0.9,8.1-15.7,16.8-19.4,19.4c-3.7,2.6-2.3,2.2-2.2,3.3
		c0.1,1.1-0.6,3.3-2.1,4.3c-1.5,1-1,2.1-0.6,4.4s-0.4,3.2,0.7,3.5s2.2,0.5,2.6,2.1s1.2,1.8,3.3,1.6c2.2-0.2,3.5,0,3.7,1.3
		c0.2,1.3,2.2,3,2.4-0.9c0.2-3.8,1.6-4.6-2.3-2.8c-3.9,1.8-4.7,1.1-4.7-0.7s-0.4-1.4-2-1.6c-1.6-0.1-2.2-2.4,0.7-4
		c2.9-1.5,2.9,0,6.5-3c3.6-3,3.6-3.8,4.2-5.3c0.6-1.4-5.2,4.1-7.9,5.3c-2.8,1.3-2-0.9-1.6-4s7.3-7.2,10.5-7.3
		c3.1-0.1,10.2,1.8,7.2,6.1c-3.1,4.3-11.8,9.4-8,9.8c3.7,0.4,4.3-1.1,6.5,0.8c2.2,1.9,0.2,5.8-0.8,7.8s-3.1,4.7-4,5.1
		c0,0-3.9-7-3.8-1.5c0.1,5.6-0.8,7.6,0,7.8c0.8,0.2,5.2,3.1,6.6,3.2c1.4,0.1-7.6,4.2-3.8,4.5c3.7,0.3,9.7-1.6,11.8-5.5
		c0,0-7.6-1.9-10.7-4.7c0,0,8.9-2.1,6.4-10.7c0,0,8.9,2.4,5,6.4c-3.8,4-6.1,3.4-2.8,4.5c3.3,1.1,4.9,2.1,4.9,2.1s2.3,1.1,1,3
		c-1.3,1.9-1.4,4.7-0.2,4.6c1.1-0.1,4.9-1.8,1.7-3.7c-3.2-1.9,3.6-1.6,0.7-3.2c-2.9-1.6-3.6-2-4.4-2.8c-0.8-0.8,36-22.4,17.5-14.3
		c0,0,3.9-8.4,9.3-8.4c5.4,0,5.8,4.3,2.8,7.5c-3.1,3.3-5.1,8.3-12.3,9.5c0,0,10.3,5.1-1.9,13.3c0,0-2.6,1.3-1.7,2.2
		c1,0.9,8.2-3.2,9.2-5.5c1-2.3,2.6-4.1,5.3-5.5c2.8-1.4,16.4-10.6,20.5-17.6c4.1-7,5.2-7.2,13.2-13.6c8-6.4,6.6-5.1,7.6-6.7
		s1.4-4.1,5.1-6.2s17.9-10,22.4-13.2c4.5-3.2,13.6-9.2,17.5-14.2c3.9-5,14.5-11.4,17.2-10.2c2.6,1.2-0.3,4.9-6.5,9.7
		c-6.2,4.7-21.6,17.2-24.1,19.1s-15.6,11.5-20.5,12.1c-4.9,0.6-4.4,2.3-7.3,5.5s-9.7,9.9-12,11.7c-2.3,1.8-7.7,5.6-8,8.2
		c-0.3,2.6,1,2.9-3.4,7c-4.4,4.1-17.1,13.4-21.7,14.8c0,0,8.2,2.7,3.3,8.2c-4.9,5.5-4.6,4.7-4.9,5.1c0,0,12.4-1.8,3.6,7.8
		c0,0-1.7,2.8,2.2-0.1c4.2-3.1,2.4-7.4,1.9-8c0,0,6.6-4.1,14.2-4.2c7.6-0.1,7.3-0.6,0.5-2.6c0,0,4.8-5.9,8.9-3
		c4.1,2.9,2.8,4.6-1.5,6.9c-4.3,2.3-10.7,3.3-15.4,5.9c0,0,9,1.8,13.8-1.9c4.8-3.7,5.1-1.8,5.7-1.2c0.6,0.6,1.2,1.8-1,4.9
		c-2.1,3.1-2.3,3.2-2.2,3.9c0.1,0.7-0.2,2.8-4.5,3.5c-4.4,0.7-6.3,2.5-4.8,4.6s1.5,7.2-2.2,6.7c-3.7-0.5-2.7-3.4-4.1-4.6
		c-1.4-1.2-3.5-2.9-9.9,0.4c-6.5,3.4-7-0.6-6.7-2.7c0,0-4.2,3.7-7.7,0.3c-3.5-3.4-0.3-4.7,1.7-6.4c2-1.7,10.3-5.3,5.3-4.7
		c-4.9,0.6-12.3,1-14-2.9c-1.7-3.8,3.7-3.4,4.5-3c0.9,0.4,4.4,3.2,4.5-0.5c0.1-3.7,5.6-4.1,3.7-4.9c-1.9-0.8-4.5,1.6-5.2,2.5
		c0,0-3.8-5.3-10-3.6c-6.2,1.8,2,1,3.6,1.3c1.6,0.3,0.7,3.3-4.8,8.3c-5.5,5-3,3.5,1.1,3.5c4.1,0,14.1,0,8.3,4.8s-8.2,7.2-11.2,6.3
		c-3-0.8,0.4-2.8,1.7-3.7c1.3-0.8,2.1-2.3-0.7-1.2c-2.9,1.1-3.9,1.3-6.2-2.8c-2.3-4.1-1.3-2.9-0.4-5.5c1-2.7,3.2-5.5,0.5-4.5
		s-2.4,1.1-2.2-2c0.2-3.1-3-3.7-3-3.7s1.3,3.1,0.1,5c-1.2,1.9-1.2,2.6,0.7,3.1c1.9,0.5,3.7,2.1,1.1,3.9s-2.3,1.6-0.6,2.6
		c1.6,1.1,4,2.3,1.5,4.8c-2.6,2.5-0.4,1.8,0.9,1.8c1.3,0,4.2,1.1,4.2,3.5c0,2.5-0.2,3.1,4,0.8c4.1-2.3,12.4-2,12.3,1.2
		c-0.1,3.2-1.1,4,3.4,1.3c4.4-2.7,6.4,2.6,9.4,0c3-2.6,4.9-5.1,8.5-0.7c3.5,4.4,2.4,5.8-1.9,8.9s2.1,0.7,5.3-1s12.3-2.8,17.5-0.5
		c5.2,2.3,6.7,1.8,10.5,0.2c3.8-1.6,5.8-2,11.6,1.9c5.8,3.9,10.3,4.6,13.3,4.5c0,0-6.4,2.5-13.7,3c-7.2,0.5-10.8,1.8-12.3,2.9
		c0,0,4.3,2.6,5.2,5.8c0,0,4.7-0.6,7.1,0.3c0,0-1.2,3.4,1.7,5.3c2.9,1.8,4.9,2.5,2.8,5c-2.2,2.5,3.4,1.4,0.2,5s-4,5.3-4.1,8.2
		c-0.1,2.9,0.7,3.3-2.1,3.6c-2.8,0.3,0.5,3.4-0.8,7.2c-1.3,3.7-9.1,3.3-8.8,13.4c0,0,2.2-4.9,6.9-9.2c4.7-4.3,4.8-4.7,4.7-7.3
		c-0.1-2.6-0.3-2,2.2-3.9c2.5-2-1.1-3.8,1.4-6.6c2.5-2.8,0.3-2.2,3.2-5.1c2.9-2.8-2.6-3.2,0.4-6.1c3-2.9-7.2-6.2-4.3-8.1
		s8-4.5-9-4.2c0,0,4.1-6.8,18.4-5.3c0,0-3.8,2.7-4.1,5.3c0,0,1.6,0.8,2.7,1.1c0,0-0.6,1.9-3.3,4.3c0,0,7.6,4.3,8.8,6.8
		c0,0-4.6,1.4-5.8,3.5c0,0,2,2.3,2.7,5.3c0,0-5.2-0.6-5.8,3.2c-0.7,3.9-2.2,1.2-2.2,3.5s0.2,3.2-1.6,3.5c-1.8,0.4-0.3,2.3,0,3.5
		c0.3,1.3,0.9,4.2,0.6,5.1c0,0-2.6,0-3.8,0.4c0,0,0.8,5.5-2.3,6.3c-3.1,0.8,1.6,1.9-1.6,2.5c-3.3,0.6-2.9,0.8-6.9,8c0,0,3.5-2,7-4.3
		c3.6-2.3-0.3-1.6,5.6-7.4s4.8-6.2,4.4-9.2s-0.6-5.3,1.5-8.1c2.1-2.8,2.8-6,10.4-5.6c0,0-2.2-5-5-6.3c0,0,3.6-2.5,7.4-2.9
		c0,0-3.4-4-10.2-7.9c0,0,5.6-4.9,7-7.2c0,0-2.6,0.4-4.7-0.1c0,0,1-2.3,6.1-5.7c0,0,2.7,2.6,2.6,5.4c0,0,8.7-5,13.7-4.5
		c0,0,2.5,6.3-9.6,18.1c0,0,7.5,0.7,10.7,0.3c0,0-1.8,5.8-10.9,9.2s2,7.4-7.3,6.7s-6.4,2.5-6.2,7.2c0.3,4.7,0.6,9.6,0.4,10.9
		c0,0-7.4-2.4-7.3,4.8c0.2,7.2-3.8,8.7-4.6,9.4c0,0-2.2-1.9-5.4-3.1C1229.9,374.3,1225.3,383.1,1217.8,388.2L1217.8,388.2z"/>
	<path class="st5" d="M1207.2,297.9c0,0,2.6-0.4,6.9,2.3c4.3,2.7,8.5-2.9,3.7-4.3s0.1-3.1,4.4,0.4c4.3,3.5,6,1.7,7.6,0.5
		c1.6-1.2,3.5-1.9,0.6-3.9c-3-2,2-1.1,4.2,0.4c2.2,1.4,1.4,2.9,1,3.3c-0.3,0.4-0.6,5.1,3.8,0.7c4.4-4.4,6.5-8.7,6.5-10.9
		c0,0,2.4,1.5,2.7,4.2s3.7-1.5,4.8-3c1.1-1.5,3-5.3,2.8-8.1c0,0,3,4.6,7.3,0c4.4-4.6,2.5-1.7,7.7-3.1c5.3-1.4,11.9-5.3,15.5-9.6
		s3.8-1.4,8.5-2.5c4.6-1.1,14-7.5,14.8-11c0.9-3.5,0.7-5.7-0.6-4.5c-1.4,1.2-0.8,0.2-2.8-1c-2-1.3-4.9,1.6-4.9,1.6s3,2.3,0.7,3.2
		c-2.2,1-4.4,4.1-8.6,2.9c-4.2-1.2-8.6,3.9-8.6,3.9s3.7,3-1.3,5c-4.9,1.9-4.1,2.6-7.2,0.5c0,0-5.3,6.7-8.3,8.1c0,0-1.4-0.1-2.4-1.4
		c0,0-3.4,3.9-5.2,4.7c0,0-2.2-2.1-4.1-2.7c0,0-4.1,5.1-7.7,6.7c0,0-1-1.9-3.3-3.2c0,0-1.1,6.7-8.5,10.7c0,0,0.5-1.8-3.2-4.2
		c0,0-9.1,7.9-12.7,8.7c-3.6,0.8-0.2-1.7,0.2-2.7s2.7-4.4-1.7-5.7c-4.4-1.4-3.7,1-4.6,1.4c-1,0.4-1-0.8-4-0.4
		c-3,0.4-2.5,1.7-3.7,2.2c-1.3,0.5-6.4-0.8-6.1,2.6c0.2,3.4,2.6,5.7-1.8,7.7C1195.1,299.2,1201.3,298.8,1207.2,297.9L1207.2,297.9z"
		/>
	<path class="st4" d="M1225.6,288.3c0,0,1-4.3-2.7-6.4c0,0,24.1-3.7,5.9-12.9c0,0,21.6-4.5,16.5-11.4c-5.1-6.9-10.1-5.4-10.8-5.3
		c-0.7,0.1,4.6-4,6-3.5s18.8,7.2,14.4,1.5c-4.5-5.7-4.1-5.4-4.8-7c0,0,5.7,0,14.4,8.5c0,0,1.8-1.9,1.6-5.4c0,0,6.2,1.7,8.1,3.6
		c0,0,1-2.1,0.6-3.3c0,0,5.3,2.9,7.2,5.9c0,0,2.5-2.1,2.9-4.6c0,0,5.3,2.2,6.7,3.9c0,0,1.8-2.3,1.1-5.7c0,0,8.9,2.6,10-2.9
		c0,0,8.9,1.9,3.1,5.4c-7.4,4.5-0.8-1.1-8.4,4.2c-5.9,4.1-9.2,9-12.1,8c-2.1-0.7-4.6,5.4-7.5,2.4s-2.9-1.6-4.9,1.5s-5.1,6.3-5.1,6.3
		s-1.6-0.9-2.7-2.1c0,0-1.7,2.9-4,5c0,0-1.8-2.3-4.5-3.8c0,0-4.4,5.1-7.1,6.8c0,0-2.6-2.5-5.3-3.3c0,0-0.4,6.9-5.7,10.4
		c0,0-1.1-2.3-4.5-3.6C1234.1,280.4,1231.4,284.7,1225.6,288.3L1225.6,288.3z"/>
	<path class="st4" d="M1212.9,277.8c0,0-2.9,2.2-1,4.7c1.9,2.4,2-0.4,4.4-0.7c2.4-0.2,31.9-5.3,5.2-13.3c0,0,1.1-1,5.7-1.4
		c4.6-0.4,21.4-5,13.6-10.9c-7.8-6-14.3,2-7.7-5.1c5.3-5.7,1-8.5,1-8.5s-15.6,10.4-19,12.3c-3.4,1.9-8.4,5.6-2.6,7.5
		c5.8,1.9,9.8-6.3,10.4-4.5c0.6,1.9-11.7,8.7-10,11.8c1.8,3.2,1.4,5.8,4.4,5.2c3-0.6,11.2,1.6,4.5,1.3
		C1215.2,275.8,1212.9,277.8,1212.9,277.8L1212.9,277.8z"/>
	<path d="M1223.6,262.9c0,0-2.7,1.9,0.9,1c3.6-1,10.8-2.5,9.4-4.4C1232.6,257.7,1227.8,259.9,1223.6,262.9z"/>
	<path class="st5" d="M1271,232.1c0,0,13.7-0.4,19.4,3.5c5.7,3.8,8.4,6.3,10,6.9c0,0-0.2,5.2-9,1.5c0,0,0.5,2.5-0.5,5
		c0,0-3.3-2.1-7-3.1c0,0-0.6,2-1.8,3.1c0,0-3.9-3.9-8.3-5.1c0,0-0.9,2-1.7,2.7c0,0-4.7-2.7-8.3-2.6c0,0,0.7,2.9,0,4
		c0,0-10-7.8-18.8-6.8c0,0,4.3,6.3,7.1,9.4c0,0-17.9-1.4-15-11.1c3-9.7-0.2-7.2,11.5-7.2C1260.3,232.2,1271,232.1,1271,232.1z"/>
	<path class="st4" d="M1186.9,258.8c0,0-2.1,1.7,0,3.1c2.1,1.4,9.2-3.7,10.1-4.4c1-0.7,3.5-0.6,0,2c-3.5,2.6-7.1,5.5-9.3,8.4
		c0,0,11.9-3.2,19.6-9.9c7.7-6.7-0.4-2.4,12.8-8.7s20.1-16.6,13-15.5c-7.1,1.1-13.5,9.2-19,12.3s-8.6,3.5-7.7,1.7
		c0.9-1.8,4.9-1.1,12.5-7.2c7.6-6.1,5.9-5.7,6-7.8s-2.9-7.5,8.5-13.4c11.4-6,46.9-26.7,49.9-33.8c0,0-10.4,1.1-24,11.2
		c-13.6,10.1-20.9,14.8-24.7,16.1c-3.8,1.3-3.3,0.4-5.8,3.3c-2.5,2.9-16,15.9-18.4,17.8c-2.5,1.9-3.2,3.2-3.4,7.1
		C1207,242.9,1191.6,254.5,1186.9,258.8L1186.9,258.8z"/>
	<path class="st4" d="M1233.7,231.8c0,0-2.6,1.2-5.2,0c-2.6-1.2-1.8-6.7,4.4-10c6.1-3.3,17.3-8.2,23-8.9c0,0-0.8,7.1-18.4,13.1
		C1237.5,226,1238.6,229.7,1233.7,231.8z"/>
	<path class="st6" d="M1240,227.2c0,0,0.5,1.7,0,3.3c0,0,32.8,3.2,49.7-16.8c0,0-23.2,2.1-32.5,7.7c0,0,5.8-7.3,23.2-13.3
		c17.4-6,24.5-13.5,26-17.6c0,0-22,7.7-32.5,7.7c0,0-2.1-0.1-4.1,1.1c-2,1.1-16,11.3-19.8,13.1c0,0,7.9-0.7,10.7-3.2
		C1260.8,209.1,1255.3,223.9,1240,227.2L1240,227.2z"/>
	<path class="st4" d="M1177.2,245.9c0,0-4.2,3-2.5,4.5c1.8,1.5,4.8,1.8,11.2-3.6s22-18.7,12.1-19.3c0,0-12.6-0.8-12.1,6.9
		C1186.4,242.2,1177.8,245.4,1177.2,245.9z M1148.2,241.4c0,0,8.3,4.8,5.2,8.8c0,0,25.4-21.6,18.3-26.3c-7.2-4.7-12.8,4.1-11.1,5
		c1.8,0.9,5.5-0.8,4.1,0.9C1163.3,231.5,1149.8,240.6,1148.2,241.4L1148.2,241.4z M1141.6,234.4c0,0,5.6,1.7,5.8,4.1
		c0.2,2.4,16.8-11.7,12.4-17.6c-2-2.7-11.2-3.8-11.6,1.5s8.3-0.5,5.3,3.3C1149.5,230.6,1142.8,233.5,1141.6,234.4z M1201.3,222.6
		c0,0-3.6,2.6-0.4,4.1c3.2,1.6,5.3-0.9,6.9-2.3c1.6-1.4,9.5-7.2,11.3-10.9s4.5-4.8,7.4-6.7c2.9-1.9,23.1-12,35.6-23.2
		c12.4-11.2,7.3-8.3,20.2-15.5c12.9-7.2,21.4-13.7,24.1-21.5c0,0-6,2-11.2,5.4s-17.1,10.9-19.5,11.9c-2.4,1-5.7,1.2-7.5,3
		c-1.8,1.9-1.6,4.1-7.8,9.2c-6.2,5.1-38.4,27.8-42.3,31C1214.1,210.4,1201.3,222.6,1201.3,222.6L1201.3,222.6z"/>
	<path class="st6" d="M1175.4,230.1c0,0,3.5-1.9,10.1-1.5c6.6,0.4,32.6-24.8,40.2-29.9c7.6-5.1,31.2-22.1,34.3-25.2s3.7-6.4,6.5-8.3
		c2.8-1.8,5.3-1.6,11.7-5.3c6.4-3.7,37-22,35.2-32.6c0,0-45.6,27.4-56.1,36.3c-10.5,8.9-39.8,29.1-45,32.4c-5.2,3.3-9.4,8.9-18.1,16
		C1185.5,219.1,1176.9,225.1,1175.4,230.1L1175.4,230.1z"/>
	<path class="st6" d="M1165.8,220.4c0,0,8.4-0.9,9.6,3.3c0,0,18.1-12.4,22.2-17.5c4.1-5.1-1.4-2.1,8.9-8.9
		c10.3-6.8,44.6-30.7,49.4-35c4.9-4.3,14.1-9.9,21.6-15c7.4-5,36.6-19.3,33.3-31c0,0-21.4,14.3-26.2,17.4c-4.8,3.1-6.8,1.4-11.7,5.2
		c-4.9,3.8-15.6,11.5-17.5,13.8c-1.9,2.4-18.3,15-26.3,20.3c-8,5.3-25.8,15.7-34.5,23.2C1186.1,203.7,1169.4,217.6,1165.8,220.4
		L1165.8,220.4z"/>
	<path class="st6" d="M1139.5,218c0,0,4.3,0.1,5.5,1.7c0,0,7.9-6.9,16.3-0.1c0,0,30.8-20.9,33.9-26.1c3.1-5.3,8.1-5.3,20.1-14.1
		c12-8.8,19.6-12.4,27.5-18.6c8-6.2,14.7-13.2,20.4-17c5.7-3.7,20.2-13.2,17.8-21.4c0,0-11.7,6.7-19.4,15c-7.7,8.4-7,1.2-14.8,8.2
		c-7.8,7-19.8,16.6-29.8,21.5c-10,4.9-3.9,4.4-11.2,9c-7.2,4.6-6.7,3.9-9.4,4.5c-2.7,0.6-6.7,2.5-9.4,5.7
		c-2.7,3.1-9.8,7.3-17.5,11.7C1162,202.4,1142.9,213.8,1139.5,218L1139.5,218z"/>
	<path class="st6" d="M1148.8,202c0,0-1.7-3.5,1.3-5.9c3-2.4,8.3-8.9,9.2-13s0.2-3.4,8.8-6.9c8.5-3.5,27.9-12.6,38.8-19.3
		c10.9-6.7,27.5-17.6,30.9-20.2c3.4-2.6,11.8-8.5,15.1-11.2c0,0,1.6,4.6-2,7.8s-17.8,13.1-20.1,14.6s-15.3,10.3-19.3,12.5
		c-4,2.2-13.9,7.2-17.4,10.1c-3.5,2.9-3.1,3.8-18.7,11.5c-15.7,7.6-16.4,8.4-15.9,9c0.5,0.6,7.5-2.4,10.8-4.4
		c3.4-2,16.2-7.8,20-10.9c3.8-3,10.3-7.8,13.1-9.4c2.8-1.6,25.9-15.4,32.5-20.3s8.5-6.5,9.9-5.7c1.4,0.8,3.7,0.9,0.8,3.7
		c-3,2.8-12.4,11-16,13.4c-3.6,2.4-14.8,9.1-17.9,10.7c-3.1,1.6-4.3,4.6-6.1,5.8c-1.8,1.3-6.9,4.9-13.1,6.3
		c-6.2,1.4-7.3,6.1-11.4,8.7c-4.1,2.6-33,18.2-33.9,19C1148.4,207.9,1150.1,206.1,1148.8,202L1148.8,202z"/>
	<path class="st6" d="M1249,137c0,0-1.6,1.4-0.7,2.2c1.2,1.1,5.2,3.9,10.2-1.1c5-5,18.5-15.8,22.9-18.4c4.4-2.6,6.4-5,6.3-8.5
		C1287.7,111.1,1266.9,122.2,1249,137z M1277.5,135.1c0,0,3.2-5.3,11-10.3c7.8-5,19.5-12.3,21.1-14.1c0,0,2.8,3.2-3.3,7
		c-6.1,3.9-18.1,11.8-19.5,13C1285.3,131.8,1283,133.5,1277.5,135.1z"/>
	<path class="st5" d="M1118.6,192.9c0,0-8.7,4.7-5.6,7.6c3.1,2.9,7.7,2,9.7,1.2s5.6-1.7,6.1-1.9c0.6-0.2,8.1-2.3,10-5.8
		c1.9-3.5,7-7.6,11.1-10.5c4.1-2.9,5.5-5.8,4.9-7.9C1154.9,175.5,1120.7,191.6,1118.6,192.9z M1066.9,233.1c0,0,6-3.6,14.4-1.3
		c0,0-0.4-2.1-1.7-3.1c0,0,10.2-2.7,12.4-7.2c2.2-4.5,2.7-3.6,4.7-4.9c2-1.3,15.8-12.4,14.2-14.8c-1.6-2.4-1.9-5.5-3.1-6.7
		c0,0-2.9,3.9-16.3,10.4c-13.4,6.5-28.3,11.4-39.2,26c-10.8,14.6-9.7,23.1,3.5,26.8c0,0,9.3-5.8,32.1-3.8
		c22.7,2,30.5,10.6,31.9,12.1c1.4,1.6,6.1,7.2,1.6,16.7c0,0,4.5,2,4.9-2.4c0.4-4.4,0.6-3.3,1.7-2.7c1,0.7,2.3,0.8,1.8-2.6
		c-0.5-3.3-2.1-10.8-4.1-13.4c-2.1-2.6,0.2-1.4,1.6-0.9c1.4,0.5,6.1,4.4,3.3-2.7c-2.9-7.2-3.6-3.6-3.7-3.3c-0.1,0.4-0.6,2.1-6.9-2.5
		c-6.2-4.7-11.9-6.9-16.1-8.1s-1.3-1.2,1.2-2.1c2.5-0.9,5.8-1.4,6.9-4.2c0,0-2.5,0.6-7-1c-4.5-1.6-13.6-1.8-21,3.7
		c0,0,2.3-8.5-4.4-8c-6.7,0.5-11.4,0.3-18.5,5.9c0,0-0.4-8.5,6.3-13c6.7-4.4,5.8-1.7,9.6-2.9s4.1-4.9,2.5-6.1c0,0,8.8,1.5,23.5-10.7
		c0,0-7.9,10.4-17.6,12.5c0,0-1.5,5.5-10.3,6.7C1066.6,226.8,1066.8,231.8,1066.9,233.1L1066.9,233.1z"/>
	<path class="st4" d="M1041.7,283.7c0,0,4.3-25.7,28.4-27.6c21.1-1.6,27.8,1,32,2.3c4.2,1.4,14.5,4.4,10.5,7.7s-6.3,2.7-6.3,2.7
		s4.6-5.1,0.4-6s-4.6,1.7-5.2,3.8c-0.6,2.1-0.9,4.7-2.9,6.4c0,0-2.1-2.5-5.2-0.3c-3,2.1-0.4,2.2,0.8,1.9c1.2-0.4,2.8-1,2.5,0.9
		s-2,5.1-7,7.7c-5,2.6-4.7,2.5-10.7,3.4s-11.5,3.3-19.1,9.8c-7.6,6.5-15.9,4.3-17.6-2.9C1041,287.2,1041.7,283.7,1041.7,283.7
		L1041.7,283.7z"/>
	<path d="M1069.3,282.8c0,0,2.3-5.1-1.8-7.4c0,0-12.7,2.2-16.4-1.7c0,0,13.8-0.7,22.3-4.1c8.5-3.3,6-5.7,3-6.2
		c-3-0.5-8.4,0.8-8.9,3.5c0,0-1.7-2.9,0.5-4.8s5.5-2.3,8.5-1.4c3,0.9,5.7,2.2,15.7-3c0,0,5.7,1.3,5.9,5.2c0.2,3.9-0.4,5.5-0.9,6.1
		c-0.5,0.6-1.2,1.7-2.4,1.6c-1.2-0.1-2.7-0.4-4.2,2.3c-1.5,2.7-2.4,5-5,6.8c0,0,3-8.4-4.4-10.3c0,0-6.1,3.6-10.7,3.8
		C1070.6,273.2,1076.5,278.7,1069.3,282.8L1069.3,282.8z"/>
	<path class="st4" d="M1082.5,267.5c0,0-2.8-3.1,0.9-3.4c3.7-0.3,8.5,2.4,7.6,4.6C1090,271,1085.7,270.9,1082.5,267.5L1082.5,267.5z
		"/>
	<path class="st2" d="M1289.8,226.7c0,0-6.7,1.9-0.5,6c6.2,4.1,9.3,7.7,13.8,8.9c4.5,1.2,9.3,2.9,9.2,7.4c-0.1,4.5-1,6.3-3.4,9.4
		c-2.5,3.1,1.4,4.5,4.6,2.7s6.1-2.7,8.2-4c2.2-1.3,5.7-1.1,2.5,0.6c-3.3,1.7-6.7,2.7-2.5,2.8s29.7,0.6,35-1.1
		c5.3-1.7,12.3-2.3,12.9-9.2c0,0,0.2-3.1,2.2-4.4c2-1.3,3.4-4.2,0.4-2.2c-2.9,2-5.1,3-5.7,2.4c-0.6-0.6-0.7-1,1.4-2s3.3-0.1,5.3-3
		c2-2.9,1.8-2.4,0.7-3.5c-1-1.1-3.2-1.9-2.2-3.3c1.1-1.4,2.2-5.6-2.5-3.1c-4.7,2.4-13.9,8.8-18.1,9.7c-4.3,1-7.5,2.3-13.2,3.5
		c-5.7,1.2-9.3,2.4-15.4,5.8c-6.1,3.4-5.7-1.9-4.6-2.6c0,0,2.3,4.1,8.6-1.2c6.2-5.3,4.2-0.3,19.4-5.3s11.5-5.8,17.4-8.9
		c6-3.1,11.6-3.2,7.4-7.4c-4.1-4.1-4.6-4.5-10,0c-5.4,4.5-20.2,11.7-29.1,11.9c0,0,34.3-14.8,30.8-17c-3.5-2.1-7.3-4.1-9.7-4.6
		s-3-1.1-8.6,1.4c-5.5,2.5-6.4,3.1-8,3.2c-1.6,0.2-6.2,1.1-12.8,4.5c-6.5,3.4-10,4.7-14.4,7.4c0,0,3-6.1,16.5-10.2
		s20.4-7.8,18.9-8.5c-1.5-0.7-4.8-1.2-7.4-0.8c-2.6,0.4-1.8-0.2-10,3.1s-4.7,2.5-11.4,4s-9.4,2.9-12.7,4.3c0,0,1.3-1.8,5.8-3.4
		c2.3-0.8-2.5-1.7,3.9-2c0.5,0,1.2,0.1,1.8-0.1c8.3-2.4,17.3-5.6,15.9-5.8c-1.4-0.2-9.4-1.1-17.5,2.7c-8.1,3.7-4.4,2.5-7.3,3.1
		c-2.9,0.6-8.9,4.4-11,6C1292.6,225.5,1289.8,226.7,1289.8,226.7L1289.8,226.7z"/>
	<path class="st4" d="M1089,263.8c0,0,3.2,1,4,3.2c0.8,2.2,2.8-1,2.7-2s-2-5.5-5.5-3.4S1088.4,263.6,1089,263.8L1089,263.8z"/>
	<path class="st5" d="M1080.1,308c0,0,6.8-3.2,12.5-2.8c0,0-2.2-8.1,1.8-6.7c4,1.4,2.9,0.8,3.7,0.8c0,0,0.2-5.3-0.8-7.4
		c0,0,4.1,1,8.2,1c0,0-3.9-7.6,0.4-12.9c0,0,2.4,5,7.7,6.3c0,0,0-2.1,0-4.4c0,0,3.2-0.4,5.6,1c2.5,1.3,4.5-13.8-2.8-17.2
		c0,0-1.8,2.9-8.6,4.3c-6.9,1.4-6.8,2.8-9.6,8s-5.3,5.2-11,8.9c-5.7,3.7-9.2,11.2-9.6,11.9C1077.5,298.7,1080.6,302.4,1080.1,308
		L1080.1,308z"/>
	<path class="st7" d="M1308.9,220c2.5-0.4-2.5-1.7,3.9-2c0.5,0,1.2,0.1,1.8-0.1c8.3-2.4,17.3-5.6,15.9-5.8
		c-1.4-0.2-9.4-1.1-17.5,2.7c-8.1,3.7-4.4,2.5-7.3,3.1c-2.9,0.6-8.9,4.4-11,6s-4.8,2.9-4.8,2.9s-6.7,1.9-0.5,6
		c6.2,4.1,9.3,7.7,13.8,8.9c4.5,1.2,9.3,2.9,9.2,7.4c-0.1,4.5-1,6.3-3.4,9.4c-2.5,3.1,1.4,4.5,4.6,2.7s6.1-2.7,8.2-4
		c2.2-1.3,5.7-1.1,2.5,0.6c-3.3,1.7-6.7,2.7-2.5,2.8s29.7,0.6,35-1.1c5.3-1.7,12.3-2.3,12.9-9.2c0,0,0.2-3.1,2.2-4.4
		c2-1.3,3.4-4.2,0.4-2.2c-2.9,2-5.1,3-5.7,2.4s-0.7-1,1.4-2c2.1-1,3.3-0.1,5.3-3c2-2.9,1.8-2.4,0.7-3.5c-0.5-0.6-1.4-1.1-1.9-1.6
		c0,0-1.5-1.3-3.3-0.2c-1.8,1.1-9.6,4.4-12.7,4.8c-3.1,0.4-6.4,1.7-12,4.5c-5.6,2.7-15,8.3-16.5,3.1c0,0-4.1,1.5-5,1.9
		c-6.3,3.2-5.7-1.3-4.6-2.6c0,0-3.3,3.7-3.2,0.3c0.1-3.4,2.3-2.8,5.9-3.9s9.5-3.5,7.1-5.5s-4.9,2-7.6,3.2c-2.7,1.2-8,2.3-8.8-1.6
		c-0.8-3.9-0.8-6.5-8-7s-6.9-4.9-5-6.8C1300.4,224.5,1302.1,221.2,1308.9,220L1308.9,220z"/>
	<path d="M1331.8,254.9c0,0,11.2-5.2,21.5-7.6c10.3-2.4,2.2,0.3,0.5,0.9c-1.8,0.6-17.8,5.8-21.6,7.6
		C1328.4,257.5,1329.2,256,1331.8,254.9L1331.8,254.9z M1334.4,257.1c0,0,12.6-4.2,14.9-2.4c2.3,1.8,0.4,0.9-2.3,1.3
		c-2.8,0.4-10.4,1.7-12.4,1.6C1332.6,257.6,1334.4,257.1,1334.4,257.1z M1354.6,252.8c0,0,2.4-0.4,2.7,0.4c0.3,0.9-1.1,1-2.4,0.8
		C1353.5,253.9,1352.3,253.1,1354.6,252.8z"/>
	<path class="st2" d="M1021.8,362.6c0,0-0.5-11.1,5.1-16.7c5.6-5.6,32.7-33.8,36.8-41.7c0,0,3.5,2.4,3.7,6.9c0,0,4.5-7.8,8.1-10.8
		c0,0,3.2,3.3,2.6,9.8c0,0,6.5-3.5,16.7-3.5c0,0-3.7,4.4-3.9,7c0,0,14-1.6,21.4-0.4c0,0-19.3,10.8-13.9,11.8
		c5.4,1,11.1-0.1,11.1-0.1s-6.1,6.3-16,7.5c0,0,12.4-0.2,14.9,2.6c0,0-12.1,1.9-21.9,9.3c0,0-0.9-0.4-1-3.2c0,0-0.3,2.4-3.1,4.8
		s-9.5,7.3-12,9.8c-2.5,2.5-7.1,7.5-12,7.2c0,0,1.1-3.8-2.6-5c-3.7-1.2-7.9-0.4-10.8,2.8c0,0-13.1,0.2-17.2,0.8c0,0,3-4.7,5.7-4.6
		c2.7,0.1,13.6,1.6,14.6-5.8c1-7.5-7-5.5-4-9.9c3-4.4,2.3-4.2,2.4-4.7c0,0-2.5,1.4-3.9,5.3c-1.4,3.9-2.5,7-7.7,10.9
		c-5.2,3.9-7.3,6.3-8.8,9.1C1026.3,361.8,1023.9,362.1,1021.8,362.6z"/>
	<path class="st2" d="M1034.3,355.9c0,0,0.4-1.5,4.3-2.1c3.8-0.6,4-2.5,3.5-3.3c-0.5-0.8-2.8-0.8,1-5c0,0,1.3,0.4,2.2,1.4
		S1050.4,356.9,1034.3,355.9z"/>
	<path class="st7" d="M1025.2,348.1c0.2,7.4,9.9,4.6,9.9,4.6c-3.4,2.6-5.5,4.5-7,6.4c0.6-3.6-5.4-4.5-5.4-4.5
		C1023.1,352.4,1023.9,350.1,1025.2,348.1z M1060.7,308.7c1.4-1.8,2.5-3.4,3.1-4.5c0,0,3.5,2.4,3.7,6.9c0,0,4.5-7.8,8.1-10.8
		c0,0,3.2,3.3,2.6,9.8c0,0,6.5-3.5,16.7-3.5c0,0-3.7,4.4-3.9,7c0,0,14-1.6,21.4-0.4c0,0-19.3,10.8-13.9,11.8
		c5.4,1,11.1-0.1,11.1-0.1s-6.1,6.3-16,7.5c0,0,12.4-0.2,14.9,2.6c0,0-3.5,0.5-8.3,2.2c0,0-3.6-3.4-13.9-2.9c0,0,8.1-4.5,14.5-6
		c0,0-2.8-3.7-7.2-0.3c0,0-8.8-6-1.5-11.2c0,0-5.1-1.1-8.5,1.3c0,0,0.2-4.1,3.9-6c0,0-9.8-1.6-12.3,5.7c0,0-1.9-3-1-6.4
		c0,0-6,3.4-8.7,7.3C1065.3,318.8,1064.5,311.4,1060.7,308.7 M1041.6,355.4c-1.8,0.4-4.1,0.6-7.3,0.4c0,0,0.3-1,2.3-1.7
		C1036.6,354.2,1037.2,355.4,1041.6,355.4"/>
	<path d="M1059.5,327.6c0,0,4.5,3.5,6.1,5.7c0,0,4.1-2.9,5.6-5.2c0,0,3.2,2.1,4.3,5.2c0,0,2.2-1.6,2.7-3.7c0,0,5.6,1.2,7.5,3
		c0,0,0.9-5.4,0-8.8c0,0,3.9,0.3,6.3,1.3c0,0-2.2-3.6,9.1-8.2c0,0-8.6,1.8-11.8,5.6c0,0-3.7,0.2-5.3-1c0,0,0.2,5.5,0.1,8.1
		c0,0-2.2-0.9-6.5-1.9c0,0-1,1.8-1.8,2.2c0,0-2.7-2.1-3.9-4.9c0,0-4.1,3.8-5.7,5.4C1066.1,330.4,1062.2,327.7,1059.5,327.6
		L1059.5,327.6z"/>
	<path class="st3" d="M1033.8,383.4c0,0,1.8,0.8,5.9-2.5c4.1-3.3,15.9-10.8,17-16.8c1.1-6-3.7-6.3-7.6-4.6c-3.8,1.7-2.2,5.1-2.1,6.1
		s0.2,5.3-6,11C1034.9,382.5,1033.8,383.4,1033.8,383.4L1033.8,383.4z"/>
	<path class="st3" d="M1032.5,385.3c0,0-9.4-3.9-1-8.2s12.2-5.4,13.2-8.9c1-3.5,0.4-2.9-2.7-1.4c-3.1,1.5-15.1,6.9-16.9,1.9
		c0,0,4.9,1.9,11.1-1.1c6.1-3,11.2-3.9,7.3-5.1c-3.9-1.3-18,0.3-20.3,1c-2.3,0.7-1.8,0.5-2.2,2.9c-0.4,2.3-3,7.2-4,8.7
		c-1,1.4-3.3,7.4,1,10C1022.3,387.6,1029.1,387.4,1032.5,385.3z"/>
	<path d="M1028.8,364.8c0,0-2.2,0.3-1.8,1.1c0.4,0.8,1,0.7,1.8,0.8c0.8,0.1,2-0.4,2.2-1C1031.1,365.2,1029.6,364.6,1028.8,364.8
		L1028.8,364.8z"/>
	<path class="st2" d="M1031.9,383.2c0,0-4.5-2.1,0.6-4.9s10.4-5.4,11.2-6.5C1043.6,371.8,1041.2,375.2,1031.9,383.2L1031.9,383.2z"
		/>
</g>
</svg>
