<?xml version="1.0" encoding="utf-8"?>
<!-- Generator: Adobe Illustrator 23.1.0, SVG Export Plug-In . SVG Version: 6.00 Build 0)  -->
<svg version="1.1" id="Layer_1" xmlns="http://www.w3.org/2000/svg" xmlns:xlink="http://www.w3.org/1999/xlink" x="0px" y="0px"
	 viewBox="0 0 1050 700" style="enable-background:new 0 0 1050 700;" xml:space="preserve">
<style type="text/css">
	.st0{fill:#002395;}
	.st1{fill:#FFFFFF;}
	.st2{fill:#ED2939;}
</style>
<rect y="0" class="st0" width="1050" height="700"/>
<rect y="0" class="st1" width="427" height="287"/>
<rect y="0" class="st0" width="140" height="280"/>
<rect x="280" y="0" class="st2" width="140" height="280"/>
<path class="st1" d="M621.2,320.2l22.5,35.9h64.1v125.1L659.7,406L595,509.2h31.5l33.2-59.5L728,572.2l68.2-122.5l33.2,59.5H861
	L796.2,406l-48.1,75.2v-69.1H777l21.4-34.1h-50.3v-21.9h64.1l22.5-35.9H621.2z M696.5,473.4h-70v24.5h70V473.4z M829.5,473.4h-70
	v24.5h70V473.4z"/>
<g>
	<path id="s" class="st1" d="M728,596.7l21.6,66.5L693,622.1H763l-56.6,41.1L728,596.7z"/>
</g>
<g>
	<path class="st1" d="M649.2,537.2l21.6,66.5l-56.6-41.1h69.9l-56.6,41.1L649.2,537.2z"/>
</g>
<g>
	<path class="st1" d="M806.7,537.2l21.6,66.5l-56.6-41.1h69.9l-56.6,41.1L806.7,537.2z"/>
</g>
<g>
	<path class="st1" d="M582.7,360.5l21.6,66.5l-56.6-41.1h69.9L561.1,427L582.7,360.5z"/>
</g>
<g>
	<path class="st1" d="M873.2,360.5l21.6,66.5l-56.6-41.1h69.9L851.6,427L873.2,360.5z"/>
</g>
</svg>
