<svg id="Layer_1" data-name="Layer 1" xmlns="http://www.w3.org/2000/svg" width="385.85mm" height="246.94mm" viewBox="0 0 1093.75 700">
  <defs>
    <style>
      .cls-1 {
        fill: #032ea1;
      }

      .cls-2 {
        fill: #e00025;
      }

      .cls-10, .cls-11, .cls-3, .cls-4, .cls-5, .cls-6, .cls-9 {
        fill: #fff;
      }

      .cls-10, .cls-11, .cls-3, .cls-4, .cls-5, .cls-6, .cls-7, .cls-8, .cls-9 {
        stroke: #000;
      }

      .cls-3, .cls-4, .cls-9 {
        stroke-linejoin: bevel;
      }

      .cls-3, .cls-5, .cls-8 {
        stroke-width: 1.68px;
      }

      .cls-4 {
        stroke-width: 1.65px;
      }

      .cls-6 {
        stroke-width: 1.72px;
      }

      .cls-7, .cls-8 {
        fill: none;
      }

      .cls-7 {
        stroke-width: 1.4px;
      }

      .cls-9 {
        stroke-width: 1.81px;
      }

      .cls-10 {
        stroke-width: 1.83px;
      }

      .cls-11 {
        stroke-width: 1.83px;
      }
    </style>
  </defs>
  <path class="cls-1" d="M0,0H1093.75V700H0Z" transform="translate(0 0)"/>
  <path class="cls-2" d="M0,175H1093.75V525H0Z" transform="translate(0 0)"/>
  <g>
    <g>
      <path class="cls-3" d="M448.28,329.92H647.43v76.63H448.28Z" transform="translate(0 0)"/>
      <path class="cls-3" d="M637.16,372.23h6.28V401.1h-6.28ZM448.28,358H647.43v8.91H448.28Zm0-12.07H647.43v7.85H448.28Z" transform="translate(0 0)"/>
      <path class="cls-4" d="M448.28,333.84H647.43v7.62H448.28Z" transform="translate(0 0)"/>
      <path class="cls-3" d="M500.71,372.23H507V401.1h-6.28Zm85.74,0h6.27V401.1h-6.27Zm-136.59,0h6.27V401.1h-6.27Zm12.3,0h6.28V401.1h-6.28Zm13.13,0h6.27V401.1h-6.27Zm13.12,0h6.28V401.1h-6.28Zm109.94,0h6.27V401.1h-6.27Zm13.12,0h6.28V401.1h-6.28Zm13.13,0h6.27V401.1H624.6Z" transform="translate(0 0)"/>
      <path class="cls-5" d="M370.39,410.58a16.34,16.34,0,0,0,7.74-9.31H716a16.34,16.34,0,0,0,7.74,9.31Z" transform="translate(0 0)"/>
    </g>
    <path class="cls-5" d="M542.75,213.27s-.25-7.2,3.94-7.28c4.19.08,3.93,7.28,3.93,7.28Zm-21.86,95.44V299c-.14-4.84-4.83-5.19-5-8.72,0,0-.61-5.3.79-7.72,1.89,7.08,5.34,5.78,5.34,2.87,0-2.54-1.95-4.9-6-11.08-1.28-2-.49-8.15,1.31-10.36.69,5.37,1.49,7.94,3.8,7.94,1.4,0,2.55-.91,2.55-3.6,0-3.43-2.32-5.16-3.46-8.27a8.8,8.8,0,0,1,1.8-9.42c.95,5.31.66,7.42,3,7.42,4.75-1.5,0-8.38-1-10.11-1.17-2,1.57-6.06,1.57-6.06,1.51,4.71,2,5.09,3.62,4.66,2.05-.55,1.79-3.6-.72-6.06-1.58-1.56-1.41-3.87.29-5.73,1.7,3.33,3.89,3.13,4.1,1.15l-1.38-7.69h30.2l-1.5,7.44c-.43,2.13,2.45,2.59,4.23-.9,1.7,1.86,1.87,4.17.29,5.73-2.51,2.46-2.78,5.51-.72,6.06,1.63.44,2.11.05,3.62-4.66,0,0,2.46,2.75,1.57,6.06-1,1.73-5.76,8.61-1,10.11,2.35,0,2.07-2.12,3-7.42a8.81,8.81,0,0,1,1.79,9.42c-1.14,3.11-3.46,4.84-3.46,8.27,0,2.69,1.15,3.61,2.56,3.61,2.31,0,3.11-2.58,3.8-7.95,1.8,2.21,2.59,8.39,1.31,10.36-4,6.18-6,8.54-6,11.08,0,2.91,3.45,4.21,5.35-2.87,1.4,2.42.79,7.72.79,7.72-.14,3.53-4.83,3.88-5,8.72v9.69Zm12.64-80.53-.7-5.47h27.72l-.69,5.47Zm1.85-5.59-.59-4.49h23.8l-.59,4.49Zm3.78-4.65-.4-4.5h15.86l-.4,4.5ZM597,410.58c-3.55-1.37-8.71-5.11-8.71-8.88V359.19l4.61-5.88H500.5l4.42,5.88v42.52c0,3.76-3.54,7.5-7.09,8.87Z" transform="translate(0 0)"/>
    <path class="cls-3" d="M516.92,372.23h6.27V401.1h-6.27Zm53.06,0h6.27V401.1H570Z" transform="translate(0 0)"/>
    <path class="cls-5" d="M498.84,304.91v48.4h94.54V342.89l.14-38a7.33,7.33,0,0,0-4.54,5v20.61H503.66V309.93a8.2,8.2,0,0,0-4.82-5Z" transform="translate(0 0)"/>
    <path class="cls-5" d="M580.55,410.58c-3.09-1.37-9.82-5.11-9.82-8.88V354.12c.66-2.65,4.26-4.22,6.58-5.87H514.62c3,1.57,6.31,2.89,7.5,5.88v47.58c0,3.76-5.32,7.51-8.41,8.87Z" transform="translate(0 0)"/>
    <path class="cls-5" d="M589,348.75V314.47h-8.6v-3.34h-68v3.34h-8.59v34.28Zm-22,61.83c-3-1.37-7.43-5.11-7.43-8.88V361.08l2.49-3.69h-31l2.48,3.69v40.63c0,3.76-4.41,7.5-7.43,8.87Z" transform="translate(0 0)"/>
    <path class="cls-6" d="M538.74,357.39h15.69v53.16H538.74Z" transform="translate(0 0)"/>
    <path class="cls-3" d="M562.66,345.7c0-3.5,10.22-3.65,15.46-6.64H515.2c5.24,3,15.19,3.23,15.19,6.64l2.13,6.8,26,1Z" transform="translate(0 0)"/>
    <path class="cls-5" d="M575,308.71c0-8.58.36-11.88,3-11.88V324.1c-6.46,2.34-11.07,10.59-11.07,10.59H526.27s-4.61-8.25-11.07-10.59V296.83c3.25,0,3.27,3.46,3.27,11.88Zm3-3.52c0-9.83,8.49-10.93,8.49-10.93V303c-3.23-.14-4.79,2.77-4.79,7.08s2.6,4.39,2.6,4.39V339.3H578Z" transform="translate(0 0)"/>
    <path class="cls-5" d="M515.24,305.19c0-9.83-8.49-10.93-8.49-10.93V303c3.23-.14,4.79,2.77,4.79,7.08s-2.6,4.39-2.6,4.39V339.3h6.3Z" transform="translate(0 0)"/>
    <g>
      <path class="cls-7" d="M532,237.45h30m-33.52,9.36H565m-40.17,11.36h43.59m-47.3,13.88h51.69M520,287.87h53.25" transform="translate(0 0)"/>
      <path class="cls-8" d="M503.81,339.47H589m-58.14,0h31.56v11.6H530.83Z" transform="translate(0 0)"/>
    </g>
    <g>
      <path class="cls-5" d="M526.88,313.78c5.23,6.29,4.74,16.94,4.69,23.23h30.35c-.07-6.29-.55-16.94,4.68-23.23Zm17.06-72-4.16-2.14v-6.12c1.7.5,3.61.71,3.8,3.42.59-3.87,1.65-3.68,3.33-5.18,1.68,1.5,2.74,1.31,3.34,5.18.18-2.71,2.09-2.91,3.79-3.43v6.12l-4.16,2.15Z" transform="translate(0 0)"/>
      <path class="cls-5" d="M543.66,251.85l-6.91-4.75v-5.64c2.42.56,5.14.79,5.41,3.77.84-4.25,2.36-6.44,4.75-8.09,2.39,1.65,3.91,3.84,4.75,8.09.27-3,3-3.21,5.41-3.77v5.64l-6.91,4.75Z" transform="translate(0 0)"/>
      <path class="cls-5" d="M543.17,267.52l-7.94-7v-8.29c2.78.83,5.91,1.16,6.21,5.53,1-6.23,2.72-9.45,5.46-11.88,2.75,2.43,4.5,5.64,5.47,11.87.31-4.36,3.43-4.7,6.21-5.52v8.29l-7.94,7Zm14.65,9.25-7.19,9.94H542.5l-7.18-9.94Zm-26.64,16.68c3.59,2,4.92,5.87,5.3,13.22H556.7c.38-7.35,1.71-11.25,5.3-13.22Z" transform="translate(0 0)"/>
      <path class="cls-3" d="M562.3,276.77v-10a9.11,9.11,0,0,0-6.61,5.71c0-3.32-4.36-10.95-9.11-14.76-4.77,4.26-9.2,11.17-9.11,14.76-.81-2.62-3.2-4.76-6.61-5.71v10Z" transform="translate(0 0)"/>
      <path class="cls-3" d="M563.82,293.45v-10c-3.74.94-6.16,3-7.25,5.7,0-3.31-4.77-10.95-10-14.75-5.23,4.26-10.09,11.17-10,14.75-.89-2.61-3.5-4.76-7.25-5.7v10Z" transform="translate(0 0)"/>
      <path class="cls-3" d="M568,313.92v-11.5c-4.66,1.2-7.55,4.64-9,6.65,0-6.23-7-15.74-12.43-18.85-5.53,3.19-12.42,13-12.42,18.85-1.51-2-4.36-5.45-9-6.65v11.5Z" transform="translate(0 0)"/>
      <path class="cls-3" d="M565.5,339.47V327.64c-4.11,1.61-5.33,5.57-6.63,8.26.51-12-6.75-24.91-12.29-28.18-5.53,3.27-12.94,16.45-12.29,28.18-1.33-2.68-2.52-6.65-6.63-8.26v11.83Z" transform="translate(0 0)"/>
      <path class="cls-5" d="M562.63,357.39V345.56c-4.3,1-4.57,2.61-5.94,5.26.51-7.17-4.56-15.35-10.1-18.62-5.53,3.27-10.61,11.45-10.1,18.62-1.37-2.65-1.54-4.23-5.94-5.26v11.83Z" transform="translate(0 0)"/>
    </g>
    <g id="a">
      <path class="cls-5" d="M378.14,401.27V365.5c-1.18-4.56-5-8.59-7.95-9.39V324.62l6.55,3.54,7.47,32.92v40.19Z" transform="translate(0 0)"/>
      <path class="cls-5" d="M378.14,401.41V365.5c-1.18-4.56-5-8.58-7.95-9.39V322.43c4.39,0,6.55,5.73,6.55,5.73l7.47,32.92v40.05Z" transform="translate(0 0)"/>
      <path class="cls-5" d="M373.48,410.58c3-1.37,7.44-5.11,7.44-8.88V357l-2.08-3.69H455L452,357v44.7c0,3.77,3,7.51,6.06,8.88Z" transform="translate(0 0)"/>
      <path class="cls-5" d="M442.72,410.58c-3-1.37-7.44-5.11-7.44-8.88V359.19l6.34-5.88H389.84l6.33,5.88V401.7c0,3.77-4.41,7.51-7.43,8.88Z" transform="translate(0 0)"/>
      <path class="cls-5" d="M435.46,410.58c-3-1.37-7.44-5.11-7.44-8.88V363.27l4.15-5.88h-32.9l4.15,5.88V401.7c0,3.77-4.41,7.51-7.44,8.88Z" transform="translate(0 0)"/>
      <path class="cls-5" d="M407.86,357.39h15.72v53.19H407.86Z" transform="translate(0 0)"/>
      <path class="cls-3" d="M386.47,372.23h6.28V401.1h-6.28Zm53.82,0h6.27V401.1h-6.27Zm-59.17-48.68h7.56v29.59h-7.56Zm0-5.57h7.52v5.5h-7.52Z" transform="translate(0 0)"/>
      <path class="cls-9" d="M443.3,329.92h10.78v22.84H443.3Z" transform="translate(0 0)"/>
      <path class="cls-5" d="M388.56,352.91V302.27c2.15,0,2.49,7.42,7.43,7.42,2.58,0,2.3-3.07.86-5.58-1.28-2.22-2.87-5.28-.71-11,1.47,4.37,5.44,5.76,4.71,3-1.26-4.71-4.89-5.48-2.17-12.78.95,6.09,4.86,5.82,3.91,2.28-1.07-4-3.28-5.62-.56-11.25,1.53,6.39,3.59,6,3.59,2.05,0-5.86-.22-12.17,7.36-14.52,0,0,.44-5.37,3.17-5.37s3.17,5.37,3.17,5.37c7.58,2.35,7.36,8.67,7.36,14.52,0,4,2.06,4.34,3.59-2.05,2.72,5.63.51,7.26-.55,11.25-1,3.54,2.95,3.81,3.9-2.28,2.72,7.3-.91,8.08-2.17,12.78-.73,2.74,3.24,1.35,4.71-3,2.16,5.7.57,8.76-.71,11-1.44,2.5-1.72,5.57.86,5.57,4.94,0,5.28-7.42,7.43-7.42v50.65Zm-11.84-38.25V353.3h4.39V314.56c-1.58-.8-3.07-.92-4.39.1Z" transform="translate(0 0)"/>
      <path class="cls-5" d="M376.85,339.67c5.45,2.78,10.85,6,12.21,13.64H376.85ZM452.4,328.1v25.21H456V328A3.76,3.76,0,0,0,452.4,328.1Z" transform="translate(0 0)"/>
      <path class="cls-5" d="M456,339.47c-5.45,2.79-10.84,6-12.21,13.64H456Z" transform="translate(0 0)"/>
      <g>
        <path class="cls-5" d="M420,280.59l3.18-2.67V274.5a3.34,3.34,0,0,0-2.66,1.64A8.75,8.75,0,0,0,416,271a8.62,8.62,0,0,0-4.49,5.05,3.23,3.23,0,0,0-2.65-1.56v3.42l3.18,2.67Z" transform="translate(0 0)"/>
        <path class="cls-5" d="M421.65,289.14l1.47-3.19v-4.44a3.34,3.34,0,0,0-2.65,1.66A8.87,8.87,0,0,0,416,278a8.74,8.74,0,0,0-4.49,5.13,3.25,3.25,0,0,0-2.65-1.58V286l1.48,3.2Z" transform="translate(0 0)"/>
        <path class="cls-5" d="M421.88,300.75l4.71-5.75v-5.68c-1.72.19-2.66.88-3.94,2.81-1.08-3.89-3.46-4.74-6.66-6.62-3.19,1.88-5.58,2.59-6.66,6.48-1.27-1.93-2.21-2.48-3.94-2.67V295l4.72,5.75Z" transform="translate(0 0)"/>
        <path class="cls-5" d="M423.26,312.14s5.49-4.8,5.82-7.43v-6.06a6.91,6.91,0,0,0-5.72,3.29c-1.33-5-3.43-6.42-7.37-8.86-3.94,2.44-6,3.84-7.37,8.86a6.92,6.92,0,0,0-5.71-3.3v6.07c.69,2.63,5.82,7.43,5.82,7.43Z" transform="translate(0 0)"/>
        <path class="cls-5" d="M425.6,333.17s7.53-8.33,7.7-11.57v-9.46c-2.81.39-5.48,2.32-7.56,6.21-1.77-7.83-4.53-13.29-9.74-17.09-5.22,3.8-8,9.26-9.75,17.09-2.08-3.89-4.75-5.83-7.56-6.22v9.47c.54,3.24,7.7,11.57,7.7,11.57Z" transform="translate(0 0)"/>
        <path class="cls-5" d="M425.6,345.62s6.44-6.55,7.7-9.39v-9.46c-2.81.39-5.48,2.32-7.56,6.21-1.77-7.83-4.53-12.31-9.74-16.11-5.22,3.8-8,8.28-9.75,16.11-2.08-3.89-4.75-5.83-7.56-6.22v9.47c1.63,2.84,7.7,9.39,7.7,9.39Z" transform="translate(0 0)"/>
        <path class="cls-5" d="M428.19,352.84c-1.87-8.16-3.49-14.22-12.53-20.37-9,6.15-10.66,12.21-12.54,20.37Z" transform="translate(0 0)"/>
        <path class="cls-5" d="M432.85,357.39V345.56c-4.11,1.61-7.82,4-9.19,6.64-1.52-6.57-4.47-9.46-8.14-13.44-3.67,4-6.12,6.87-7.66,13.44-1.36-2.65-5.07-5-9.18-6.64v11.83Z" transform="translate(0 0)"/>
      </g>
    </g>
    <g>
      <path class="cls-5" d="M715.66,401.27V365.5c1.17-4.56,5-8.59,7.94-9.39V324.62l-6.54,3.54-7.48,32.92v40.19Z" transform="translate(0 0)"/>
      <path class="cls-5" d="M715.66,401.41V365.5c1.17-4.56,5-8.58,7.94-9.39V322.43c-4.39,0-6.54,5.73-6.54,5.73l-7.48,32.92v40.05Z" transform="translate(0 0)"/>
      <path class="cls-5" d="M720.31,410.58c-3-1.37-7.43-5.11-7.43-8.88V357l2.07-3.69H638.79l3,3.69v44.7c0,3.77-3,7.51-6.06,8.88Z" transform="translate(0 0)"/>
      <path class="cls-5" d="M651.07,410.58c3-1.37,7.44-5.11,7.44-8.88V359.19l-6.33-5.88H704l-6.34,5.88V401.7c0,3.77,4.41,7.51,7.44,8.88Z" transform="translate(0 0)"/>
      <path class="cls-5" d="M658.34,410.58c3-1.37,7.43-5.11,7.43-8.88V363.27l-4.14-5.88h32.89l-4.14,5.88V401.7c0,3.77,4.41,7.51,7.43,8.88Z" transform="translate(0 0)"/>
      <path class="cls-5" d="M685.93,357.39H670.22v53.19h15.71Z" transform="translate(0 0)"/>
      <path class="cls-3" d="M707.32,372.23H701V401.1h6.28Zm-53.81,0h-6.28V401.1h6.28Zm59.16-48.68h-7.56v29.59h7.56Zm0-5.57h-7.51v5.5h7.51Z" transform="translate(0 0)"/>
      <path class="cls-9" d="M650.5,329.92H639.72v22.84H650.5Z" transform="translate(0 0)"/>
      <path class="cls-5" d="M705.24,352.91V302.27c-2.16,0-2.49,7.42-7.44,7.42-2.57,0-2.3-3.07-.86-5.58,1.29-2.22,2.87-5.28.72-11-1.48,4.37-5.45,5.76-4.72,3,1.26-4.71,4.89-5.48,2.17-12.78-1,6.09-4.85,5.82-3.9,2.28,1.06-4,3.27-5.62.55-11.25-1.53,6.39-3.59,6-3.59,2.05,0-5.86.22-12.17-7.36-14.52,0,0-.43-5.37-3.17-5.37s-3.17,5.37-3.17,5.37c-7.58,2.35-7.35,8.67-7.35,14.52,0,4-2.07,4.34-3.59-2.05-2.73,5.63-.52,7.26.55,11.25.95,3.54-3,3.81-3.91-2.28-2.72,7.3.91,8.08,2.17,12.78.74,2.74-3.23,1.35-4.71-3-2.15,5.7-.57,8.76.71,11,1.45,2.5,1.72,5.57-.86,5.57-4.94,0-5.27-7.42-7.43-7.42v50.65Zm11.84-38.25V353.3h-4.4V314.56c1.59-.8,3.07-.92,4.4.1Z" transform="translate(0 0)"/>
      <path class="cls-5" d="M716.94,339.67c-5.45,2.78-10.84,6-12.21,13.64h12.21ZM641.4,328.1v25.21h-3.56V328A3.76,3.76,0,0,1,641.4,328.1Z" transform="translate(0 0)"/>
      <path class="cls-5" d="M637.83,339.47c5.44,2.79,10.84,6,12.2,13.64h-12.2Z" transform="translate(0 0)"/>
      <g>
        <path class="cls-5" d="M673.84,280.59l-3.17-2.67V274.5a3.34,3.34,0,0,1,2.65,1.64A8.75,8.75,0,0,1,677.8,271a8.59,8.59,0,0,1,4.49,5.05,3.24,3.24,0,0,1,2.65-1.56v3.42l-3.17,2.67Z" transform="translate(0 0)"/>
        <path class="cls-5" d="M672.14,289.14,670.67,286v-4.44a3.34,3.34,0,0,1,2.65,1.66,8.89,8.89,0,0,1,4.49-5.21,8.72,8.72,0,0,1,4.48,5.13,3.26,3.26,0,0,1,2.65-1.58V286l-1.47,3.2Z" transform="translate(0 0)"/>
        <path class="cls-5" d="M671.92,300.75,667.2,295v-5.68c1.73.19,2.67.88,3.94,2.81,1.09-3.89,3.47-4.74,6.66-6.62,3.2,1.88,5.58,2.59,6.66,6.48,1.28-1.93,2.22-2.48,3.94-2.67V295l-4.71,5.75Z" transform="translate(0 0)"/>
        <path class="cls-5" d="M670.53,312.14s-5.49-4.8-5.82-7.43v-6.06a6.9,6.9,0,0,1,5.72,3.29c1.34-5,3.43-6.42,7.37-8.86,3.94,2.44,6,3.84,7.37,8.86a7,7,0,0,1,5.72-3.3v6.07c-.69,2.63-5.82,7.43-5.82,7.43Z" transform="translate(0 0)"/>
        <path class="cls-5" d="M668.19,333.17s-7.53-8.33-7.7-11.57v-9.46c2.82.39,5.48,2.32,7.56,6.21,1.77-7.83,4.53-13.29,9.75-17.09,5.21,3.8,8,9.26,9.74,17.09,2.09-3.89,4.75-5.83,7.57-6.22v9.47c-.54,3.24-7.7,11.57-7.7,11.57Z" transform="translate(0 0)"/>
        <path class="cls-5" d="M668.19,345.62s-6.43-6.55-7.7-9.39v-9.46c2.82.39,5.48,2.32,7.56,6.21,1.77-7.83,4.53-12.31,9.75-16.11,5.21,3.8,8,8.28,9.74,16.11,2.09-3.89,4.75-5.83,7.57-6.22v9.47c-1.64,2.84-7.7,9.39-7.7,9.39Z" transform="translate(0 0)"/>
        <path class="cls-5" d="M665.6,352.84c1.88-8.16,3.49-14.22,12.53-20.37,9,6.15,10.66,12.21,12.54,20.37Z" transform="translate(0 0)"/>
        <path class="cls-5" d="M660.94,357.39V345.56c4.11,1.61,7.82,4,9.19,6.64,1.53-6.57,4.47-9.46,8.14-13.44,3.67,4,6.13,6.87,7.66,13.44,1.37-2.65,5.08-5,9.19-6.64v11.83Z" transform="translate(0 0)"/>
      </g>
    </g>
    <g>
      <path class="cls-5" d="M361.47,410.1v10.81H732.28V410.1ZM354.76,421v14.08H739V421ZM739,435.09l-384.23.11-11.23-.11v18.59H750.22V435.1ZM332.21,453.8v21.89H761.54V453.8Zm429.33,21.89v0H332.22v0H320.9v21.9h452v-21.9Z" transform="translate(0 0)"/>
      <path class="cls-10" d="M401.72,410.16h28v87.38h-28Z" transform="translate(0 0)"/>
      <path class="cls-11" d="M407.91,410.16h15.61v87.39H407.91Z" transform="translate(0 0)"/>
      <path class="cls-10" d="M532.39,410.16h28v87.38h-28Z" transform="translate(0 0)"/>
      <path class="cls-11" d="M538.78,410.16h15.6v87.39h-15.6Z" transform="translate(0 0)"/>
      <path class="cls-10" d="M663.83,410.16h28v87.38h-28Z" transform="translate(0 0)"/>
      <path class="cls-11" d="M670,410.16h15.6v87.39H670Z" transform="translate(0 0)"/>
    </g>
    <path class="cls-8" d="M378.14,401.27H716M407.63,486.56h16.18m-16.18-10.94h16.18m-16.18-10.93h16.18m-16.18-10.94h16.18m-16.18-10.94h16.18m-16.18-10.94h16.18m-16.18-10.93h16.18m115,65.64h15.06m-15.06-10.94h15.06m-15.06-10.95h15.06m-15.06-10.94h15.06m-15.06-10.94h15.06m-15.06-10.95h15.06m-15.06-10.94h15.06m115.84,65.64h16.17m-16.17-10.94h16.17m-16.17-10.93h16.17m-16.17-10.94h16.17m-16.17-10.94h16.17m-16.17-10.94h16.17m-16.17-10.93h16.17" transform="translate(0 0)"/>
  </g>
</svg>
