<?xml version="1.0" encoding="utf-8"?>
<!-- Generator: Adobe Illustrator 23.1.0, SVG Export Plug-In . SVG Version: 6.00 Build 0)  -->
<svg version="1.1" id="Layer_1" xmlns="http://www.w3.org/2000/svg" xmlns:xlink="http://www.w3.org/1999/xlink" x="0px" y="0px"
	 viewBox="0 0 1050 700" style="enable-background:new 0 0 1050 700;" xml:space="preserve">
<style type="text/css">
	.st0{fill:#006C35;}
	.st1{fill-rule:evenodd;clip-rule:evenodd;fill:#FFFFFF;}
	.st2{fill:#FFFFFF;}
</style>
<path class="st0" d="M0,0h1050v700H0V0z"/>
<path class="st1" d="M656,481.2C656,481.3,655.9,481.3,656,481.2c-8.5,1.9-8.2,9.3-2.8,12.5c-89.3,0-226.2-1.3-255.6-1.3
	c-16.4,0-68.4-1.7-69.4-1.7c11.2,13.8,27.3,16.6,48.4,16.9l275.6-0.4c-3.7,5.6,0.3,14.5,3.3,16.2c0.1,0,0.2,0.1,0.2,0.1
	c0.1,0.1,0.2,0.1,0.4,0.1c0,0,0.1,0,0.1,0c3.5,0.7,5-1.4,6.1-3c5.6,0.4,37.2,0.8,40.1,0c0,0,0,0,0,0c2,2.4,3.9,4.7,7.6,4.3
	c6.5-1.2,11.6-1.8,11.8-12.9c0,0-0.7-19-15.5-17.8c-3.5,0.4-13.3,1.3-13.3,1.3c-11.4-1.1-19.7-1.3-32.5-1.7c1.2-1.3,3.3-6.4,0.7-8.2
	c-0.7-0.5-1.7-0.7-3-0.6h0c0,0-0.1,0-0.1,0c0,0,0,0,0,0c0,0-0.1,0-0.1,0c-0.1-0.1-0.2-0.1-0.2-0.2c0,0-0.1-0.1-0.1-0.1
	c-0.6-0.8-1-2.7-1.4-3.2l0,0c0,0,0,0,0,0C656.1,481.3,656.1,481.3,656,481.2L656,481.2L656,481.2z M662,508.4
	C662,508.4,662.1,508.4,662,508.4c13.1,0.5,25.3,0.1,38.3,0.6c2.1,1.5,1,4.9-0.3,5.5c-0.1,0-0.1,0.1-0.2,0.1c0,0-0.1,0-0.2,0
	c-0.1,0-0.1,0-0.2,0l-10.9-0.3c0-0.2,0-0.4-0.1-0.5c-1-2.5-8.3-2.3-10-0.4c0,0-0.1,0.1-0.1,0.1c0,0-0.1,0.1-0.1,0.2
	c0,0.1-0.1,0.1-0.1,0.2c0,0.1,0,0.2,0,0.3c0,0.1-0.1,0.2,0,0.3c-5.7,0.6-10.9-0.2-16.6-0.3C659.9,512.4,660.1,509.2,662,508.4
	L662,508.4z"/>
<path class="st2" d="M702.5,301.7c1.8,0.9,6.5-4.5,6.4-11.2c0.5-3.5-1.3-16.2-6.1-18.4c-0.6-0.2-1.1-0.2-1.7-0.2
	c-2.5,0.3-4.8,2.4-3.7,5.9c-0.7,2,3.4,9.1,4.4,12.8C702.7,293.3,700.6,300.9,702.5,301.7L702.5,301.7z M329.6,193.4
	c5.8,2.5,16.6,1.5,16.2-7.1c0-0.7-0.2-3.3-0.3-4c-0.6-1.3-1.7-1.7-2.7-1.6l0,0c-1.1,0.2-2.1,1-2.4,2.3c-0.2,0.9,0.4,2.3-0.4,2.7
	c-0.5,0.5-2.3,0.2-2.2-2.2c0-0.7-0.6-1.5-1-2c-0.4-0.2-0.6-0.3-1.3-0.3c-0.8,0-0.8,0.2-1.2,0.9c-0.2,0.6-0.4,1.3-0.4,2
	c-0.1,0.8-0.5,1.1-1.1,1.3c-0.8,0-0.6,0.1-1.2-0.3c-0.3-0.4-0.8-0.5-0.8-1.1c0-0.6-0.2-1.7-0.4-2.1c-0.3-0.4-0.8-0.6-1.4-0.7
	c-3.2,0-3.4,3.3-3.2,4.6c-0.2,0.2-0.4,6.2,4,7.8L329.6,193.4z M283.3,193c0.9,2-0.9,8.6,1,9.2c1.7,0.7,4-4.5,4.9-9.4
	c0.5-2.6,0.1-11.7-6.5-13.5c-0.3-0.1-0.7-0.2-1.1-0.2c-2.5-0.1-5.4,1.4-4.3,4.2C276.6,184.9,282.3,190.1,283.3,193L283.3,193z
	 M487.5,195.5c3.3-8.3,3.3-11.8,3.6-15.3c-0.5-2.7-1.8-4-3.2-3.9c-1.4,0.2-3,1.6-4.3,4.6c-1.1,2.3-2.5,14.1-2.2,14.1
	C480.4,198.5,485.3,200,487.5,195.5L487.5,195.5z M446.2,193.2c1.6,2.2,3.3,1.9,6.5,0.4c1.9-1.3,2.5-2.1,3.2-4.3
	c0.8-3.6-4.1,1.7-4.7-2.3c-1.1-3.7,2-5.3,5-8.9c0.1-1.7,0.1-3.1-1.1-3.1c-0.5,0-1.4,0.2-2.5,0.9c-2.6,1.6-7.7,6.5-7.8,12.1
	C444.6,191.2,444,191.2,446.2,193.2L446.2,193.2z M277.6,250.1c16.9,1.5,7.6-26.3,13.7-31.3c1.2-2.5,3.3-2.5,3.5,0.6V243
	c-0.2,7.7,5.3,10,9.6,11.5c4.4-0.3,7.4-0.2,9.1,3.8l2.1,40.9c0,0,10.2,2.7,10.7-23c0.5-15.1-3.3-27.7-1.1-30.7
	c0.1-2.9,4.1-3,6.9-1.6c4.4,2.9,6.4,6.4,13.2,5c10.4-2.6,16.7-7.3,16.9-14.7c-0.6-7-1.5-14-4.8-21.1c0.5-1.3-2-4.6-1.5-5.9
	c1.9,2.7,4.7,2.5,5.4,0c-1.8-5.4-4.5-10.6-9-12.8c-3.7-3-9.1-2.4-11.1,3.9c-0.9,7.2,2.8,15.7,8.5,22.7c1.2,2.7,2.9,7.3,2.2,11.3
	c-3,1.6-6,0.9-8.6-1.5c0,0-8.3-5.7-8.3-7c2.2-13,0.5-14.5-0.7-18.1c-0.9-5-3.4-6.6-5.5-10c-2.1-2-4.9-2-6.2,0
	c-3.7,5.9-1.9,18.5,0.7,24.1c1.9,5.2,4.9,8.4,3.5,8.4c-1.1,2.9-3.5,2.2-5.2-1.1c-2.4-7-2.9-17.4-2.9-22.1
	c-0.7-5.8-1.6-18.3-5.7-21.4c-1.1-1.4-2.4-1.9-3.7-1.7c-1.6,0.2-3.2,1.4-3.9,3c-0.3,5.8-0.3,11.6,0.4,16.9
	c2.9,9.3,3.8,17.6,5.1,27.1c0.4,12.8-8,5.5-7.6-0.8c1.9-8.3,1.4-21.2-0.3-24.5c-1.4-3.3-3-4.1-6.3-3.6c-2.6-0.2-9.5,6.7-11.4,18.1
	c0,0-1.6,5.8-2.3,11c-0.9,5.9-5.1,10-8.1-0.8c-2.5-7.9-4.1-27.3-8.3-22.7C265.1,220.7,263.6,247.3,277.6,250.1L277.6,250.1z
	 M386.4,224.4C386.4,224.4,386.4,224.4,386.4,224.4C386.4,224.4,386.4,224.5,386.4,224.4c0.1,0,0.1,0,0.1,0l0,0
	c1.1,0.7,14.6,0.7,16.1,0c0,0,0,0,0,0c0,0,0,0,0,0c0,0,0,0,0,0c4.6-1.6,26.7-24.8,26.7-24.8c-1.1-0.9-2.2-1.6-3.3-2.5
	c-1.2-1-1.1-1.9,0-2.9c5.5-2.9,3.7-9.4,0.9-12.3c-2.4-1-4.6-1.3-6.6-1.2c-1.8,0.1-3.6,0.5-5.3,1.3c-3.8,3.4-4.7,8.8-1.7,12.2
	c2.9,1.3,5.9,4,3.9,5.5c-8.3,8.2-29.9,21.8-31,24.3c0,0,0,0,0,0.1c0,0,0,0.1,0,0.1v0C386.3,224.3,386.3,224.3,386.4,224.4
	L386.4,224.4L386.4,224.4z M419.1,188c0.1,0,0.2,0,0.3,0c1.3-0.2,3,1,3.8,2.6c0.9,1.7,0.4,3.4-1,3.7c-1.4,0.3-3.2-0.8-4-2.5
	C417.3,190,417.7,188.3,419.1,188L419.1,188z M449.6,238.1c6.7,2.6,11-9.3,13.8-22.2c1.9-3.6,3.3-4.1,4.3-2.2
	c-0.2,17.2,1.3,21.1,6.2,26.3c10.7,7.6,19.6,1,20.3,0.3l8.3-7.7c1.9-1.8,4.3-1.9,6.9-0.3c2.6,2.1,2.2,5.8,7.7,8.4
	c4.6,1.7,14.4,0.4,16.7-3.2c3.1-4.8,3.8-6.5,5.2-8.3c2.2-2.7,5.9-1.5,5.9-0.6c-0.3,1.5-2.5,3-1.1,5.7c2.6,1.8,3.2,0.6,4.7,0.2
	c5.4-2.4,9.5-13.3,9.5-13.3c0.2-4.1-2.3-3.7-3.9-2.9c-2.1,1.2-2.2,1.6-4.3,2.8c-2.7,0.4-7.8,2-10.4-1.7c-2.6-4.4-2.6-10.5-4.6-14.9
	c0-0.3-3.5-6.9-0.3-7.4c1.6,0.3,5.1,1.1,5.7-1.6c1.7-2.6-3.7-10.1-7.3-13.8c-3.2-3.2-7.6-3.6-11.8-0.3c-3,2.5-2.5,5.3-3.1,8
	c-0.8,3.1-0.6,6.9,2.8,10.9c3,5.4,8.4,12.3,6.6,22.1c0,0-3.1,4.6-8.7,4.1c-2.3-0.5-6-1.4-8-14.9c-1.5-10.3,0.4-24.6-4.4-31.4
	c-1.1-2.5-2-5-3.5-4.8c-0.9,0.1-2,1.2-3.6,3.8c-1.1,2.7-5.9,6.9-2.5,15.4c2.8,5.4,4,14.2,2.7,24c-2,2.8-2.4,3.7-5,6.5
	c-3.6,3.6-7.6,2.7-10.6,1.3c-2.8-1.8-5-2.7-6.3-8.2c0.2-8.9,0.8-23.4-1-26.5c-2.6-4.8-6.9-3.1-8.7-1.6c-8.8,7.4-13.1,19.9-15.8,29.8
	c-2.4,7.2-5,5.2-6.9,2.2c-4.4-3.8-4.7-33.8-10.1-28.9C426.7,215.8,440.3,240.5,449.6,238.1L449.6,238.1z M414.3,222
	c-5.1,2.5-7.1,10.1-3.9,14.5c3,3.9,7.7,2.5,8.3,2.5c5,0.6,8-8.7,8-8.7s0.1-2.6-5.8,2.3c-2.5,0.5-2.8-0.4-3.5-1.7
	c-0.5-2.4-0.4-4.8,0.8-7.2c0.6-1.4,0-2.4-1.2-2.5C416.3,221.1,415.3,221.4,414.3,222L414.3,222z M744.8,337.3
	c-1.1-1.2-3.6-0.5-5.2-0.6c-0.8,0-3.4-0.4-2.2-2.5c1-1.3,1.4-2.1,2.1-3.7c0.8-1.6,0.1-2.7-2.7-3.5c-1.4-0.2-2.4-0.3-3.5-0.3
	c-1,0-2.1,0.2-3.7,0.3c-1.7,0.3-2.3,1-2.6,3c0.1,2.9,2.1,2.8,4,3.9c1.1,1.3,1.9,2.6-0.1,4.8l-5.1,4.1c-0.9,1.4-1.4,3.5,1.3,4.2
	c5,1.3,16.6-5.6,16.6-5.8C745.6,339.9,745,337.4,744.8,337.3L744.8,337.3z M780.8,215.4c-0.4-2.6-1.6-8.5-1.1-9.3
	c0.8-1.8,4.6,0.2,6-1.9c2-1.9-10-16.1-14.2-22.2c-0.8-1.5-1.4-2.8-2.1-2.7c-0.6,0-1.3,0.9-2.4,3c-2.6,3.9-3.5,11-2.5,17.2
	c6.3,39.1,10.9,77,11.9,111.7c-0.5,3.3-0.7,5-2.4,9.2c-3.7,4.4-7.8,9.9-11.6,12.5c-3.9,2.6-12,5.2-14.7,7.1
	c-8.5,4.5-8.6,9.7-1.7,9.9c11.8-1.3,25.9-2.2,35.5-15.6c2.6-3.8,5.6-14,5.8-20.2C788.2,277.6,786.7,241.8,780.8,215.4L780.8,215.4z
	 M268.2,287.1l43.9-19.4c-2.4-3.3-0.1-6.3-9.2-6.5C289.1,261.4,268.8,277.9,268.2,287.1L268.2,287.1z M276,329.1
	c-3.7,6.8-5.2,2.2-5.5-1.7c-0.6-7.2,0.2-13.9,1.1-19.2c0.5-2.7,0.4-3.7,0.1-3.6c-0.3,0-1,1-2,2c-8.3,12.1-9,30.2-4.4,35.6
	c2.4,2.6,6.4,3.7,9.4,2.9c5.2-2.1,7.5-11.8,6.2-15.3C279.2,327.3,277.8,326.9,276,329.1L276,329.1z M379.6,310.8
	c6-18.5-0.1-32.4,1.9-34.1c0,0,0.1,0,0.1,0c0,0,0.1,0,0.1,0c0,0,0.1,0,0.1,0c0.1,0,0.2,0,0.3,0c7.4,7.4,17.8,0.9,20.1-1.6
	c1-1.3,3.4-2.1,5.1-0.5c5.8,3.8,15.9,2,18.1-4.7c1.2-6.6,2.3-13.4,2.5-20.5c-3.8,1.1-6.8,1.9-8,3.1c-0.3,0.3-0.5,0.6-0.6,1l-1,5.9
	c0,0.2-0.1,0.3-0.2,0.5c-0.2,0.2-0.4,0.5-0.7,0.6c-1.3,0.7-3.7,0.3-3.8-1.5c-1.8-7.5-9.2-8.5-13.7,3.2c-3,2.3-8.5,2.7-9.1-0.7
	c0.7-7.8-2.7-8.9-9.5-5.2l-6.6-45.8c2.9-0.1,5.5,1.8,8.1-1.2c-2.8-8.1-8.8-24.6-12.2-26.1c0,0-0.1,0-0.1,0c-0.2-0.2-0.3-0.3-0.5-0.5
	c-0.1,0-0.1-0.1-0.2-0.2c-0.1,0-0.2-0.1-0.2-0.2c-0.1-0.1-0.3-0.2-0.4-0.2c-0.3-0.1-0.6-0.1-0.9-0.1h0c-0.8,0.1-1.8,0.5-2.9,0.7
	c-3.6,1.1-6.9,3.9-5.9,9.5l11.2,65.6c0.7,2.8-1.9,6.4-5.1,6.1c-5.5-3.5-6.9-10.5-16.4-10.2c-6.9,0.1-14.7,6.9-15.6,13.6
	c-1.1,5.3-1.5,11,0,15.6c4.8,5.3,10.6,4.8,15.6,3.6c4.2-1.6,7.6-5.4,9.1-4.5c0,0,0,0,0,0c0,0,0,0,0,0c0.9,1.5-0.1,13.8-19.6,23.4
	c-12,5-21.5,6.1-26.7-2.9c-3.2-5.6,0.2-27.1-7.6-22.2c-23.2,55,54.3,62.7,62.9,2.3c0.6-1.7,2.3-3.4,3.5-3c0.5,0.2,1,0.9,1.2,2.1
	c-1.8,54.7-59.9,58.5-69.8,41.3c-2.4-4.1-3.2-13.1-3.4-18.5c-0.4-3.3-1.3-5.2-2.4-5.9c-2.3-1.6-5.5,2.6-6.2,10
	c-1,5.9-0.7,7.6-0.7,13.3c3.1,43.2,77.9,24.7,90-11.1L379.6,310.8z M350.7,273.4C350.7,273.4,350.7,273.5,350.7,273.4
	c0,0.1,0,0.1,0,0.1c-0.6,0.7-2.6,0.4-4.1,0.4c-1.8-0.1-2.6-0.3-3.7-1.7c-0.5-1.5,1-2.9,1.7-4c0,0,0,0,0,0c0.1-0.1,0.2-0.2,0.3-0.3
	c0.5-0.5,1.4-0.9,2.4-1c0.2,0,0.4,0,0.6,0c1.4,0,2.8,0.6,3.6,2.4C352.1,270.7,351.8,272.3,350.7,273.4L350.7,273.4z M671.3,344.3
	l-13,1.3L671.3,344.3z M598,232.2c5.8,2.5,16.7,1.4,16.2-7.2c0-0.7-0.2-3.3-0.3-4c-0.6-1.3-1.7-1.7-2.7-1.6c-1,0.2-2,1-2.4,2.3
	c-0.2,0.9,0.4,2.2-0.4,2.7c-0.5,0.5-2.4,0.2-2.3-2.2c0-0.7-0.6-1.6-1-2.1c-0.4-0.2-0.6-0.3-1.3-0.3c-0.8,0-0.8,0.2-1.2,0.9
	c-0.2,0.6-0.4,1.3-0.4,2c-0.1,0.8-0.4,1.1-1.1,1.3c-0.8,0-0.6,0.1-1.2-0.3c-0.3-0.4-0.8-0.5-0.8-1.1c0-0.6-0.2-1.7-0.4-2.1
	c-0.3-0.4-0.8-0.5-1.4-0.7c-3.2,0-3.3,3.3-3.2,4.6C593.9,224.5,593.7,230.4,598,232.2L598,232.2z M691.2,254.3
	c0.1-5,0.6-11.7,0.9-15.8c0.1-1.6,0.5-3.3,2.2-3.7c1.6-0.4,4.4,1.5,4.5-0.2c-0.3-3.2-1-7.9-2.9-10.1c-1-1.4-2.6-2.1-4.3-2.2
	c-2.8-0.2-5.9,1.6-6.6,5.1c0,2.1,1,3.3,0.8,5.2c-0.3,1.1-1.5,1.8-4.4,0.5c0.5-0.4-1.9-3.4-1.9-3.4c-2.3-1.3-5.3,0.1-7.3,1.3
	c-1.1,1.8-1.9,5-0.7,8.1c3.3,5.6,14.5,15.1,19.8,15.1L691.2,254.3z M655.2,323.6c4,0,8.7-8.5,10.7-16.9c1.1-11.6-0.7-18.7-1.1-25.5
	c-0.3-6.8-8.4-62.2-10-67.4c-2-9.8,7.8-1.3,6.8-7c-3.4-7.2-11.9-17.6-14.5-23.8c-1-1.7-1.1-3.2-1.9-3.1c-0.5,0.1-1.2,0.7-2.5,2.4
	c-3.3,10-4.5,18.1-3.2,24.3C647.9,247.4,656.6,284.7,655.2,323.6L655.2,323.6z M625,315.2c-9.3,8.9-22.7,20-37.3,25.1
	c-1.6,1.6,3.9,8.6,11,8.5c11.8-1.3,22.2-7.4,31.9-23.5c2.6-3.8,7.1-11.8,7.3-18.1c0.9-36.6-2-65.1-8-91.5c-0.4-2.6-0.1-5.6,0.3-6.4
	c0.8-0.8,3.4,0,4.7-2.1c2-1.9-5.4-17.7-9.6-23.8c-0.8-1.5-1.4-2.7-2.1-2.7c-0.6,0-1.3,0.9-2.4,3c-2.6,3.9-4.4,10.8-4.2,17.2
	c5.6,36,7.4,67.6,11.1,103.6C628,308.1,627.5,313.2,625,315.2L625,315.2z M649.3,300.4C649.4,299.9,649.4,299.9,649.3,300.4z
	 M601.9,198.8c2.1,5.3-1.6,10.4,0.6,11.1c2,0.8,4.7-5.5,5.8-11.3c1.2-4.7-2.5-14.4-7.6-16.4c-0.4-0.1-0.8-0.1-1.2-0.2
	c-3-0.1-6.2,1.6-5,5.1C593.7,189,600.8,195.3,601.9,198.8L601.9,198.8z M706.3,254.1c-0.2,0-0.3,0-0.5,0l-27.5,18.2
	c-2.7,2.2-1.3,9.8,0,9c1.9,0.7,28.9-16.2,28.4-18.1C708,263.2,708.5,254.5,706.3,254.1L706.3,254.1z M687.5,204.9
	c8.1,9.2,16.1,18.6,23.9,28.2c1.7,20.1,2.1,38.5,3.9,58.7c-0.2,8.6-3.1,20.1-5.8,21.1c0,0-4.2,2.2-6.9-0.2
	c-2-0.7-10.1-12.4-10.1-12.4c-4.1-3.5-6.9-2.5-9.8,0c-8.1,7.2-11.8,20.8-17.3,30.1c-1.4,2.1-5.4,3.8-9.9-0.2
	c-9.2-11.6-6.6-27-6-29.7l-0.1,0.5c-10.1,10.5-5.6,27.8-3.3,31.5c3.3,6.1,6,10,12.5,13.1c5.9,4,10.5,1.5,13-1.3
	c5.9-5.7,6-20.1,8.8-23c2-5.3,6.8-4.4,9.2-2c2.3,3.1,5,5.1,8.4,6.7c5.5,4.5,12.1,5.3,18.6,1.2c4.4-2.3,7.3-5.3,9.9-11.2
	c2.8-6.9,1.4-42.9,0.8-63l12.4,16.6c1.8,17.6,2.6,35,2,51.6c-0.4,3.3,12.5-9.9,12.4-16.1v-15c6.3,9.2,12.4,18.6,18.1,28.1
	c3.6-1.7,2.3-20.3,0.1-22.9c-6-9.3-13.7-19.4-19.7-27.1c-1.2-9.8-2.8-21.4-3.5-24.9c-1.1-5.5-2.3-13.8-4-20.4
	c-0.5-2.6-1.9-10.8-1.4-11.5c0.7-1.8,3.4,0.1,4.7-2.1c2-2-6.8-22.8-11.2-28.8c-1.6-2.7-4.5-1.7-8,2.6c-3.3,2.9-2.1,9.4-0.8,15.6
	c3.3,15.8,6.2,31.8,8.5,47.9L722,226.6l-0.7-3.1c0-0.3-0.7-12.9-1.3-15.9c-0.1-1.2-0.4-1.6,1-1.4c1.5,1.1,1.7,1.2,2.6,1.6
	c1.5,0.2,2.8-2.1,1.9-4.2L711.6,180c-0.6-0.5-1.2-1-1.9-1.1c-0.7-0.1-1.5,0.2-2.4,1.4c-1.7,1.4-3.5,3.8-3.4,7
	c0.4,5.6,1.5,11.2,1.9,16.8l0.4,2.2c-0.5-0.6-1-1.1-1.5-1.7c-11.8-11.4,5.4-1.9-2.2-10.7c-6.5-6.5-8.4-8.6-13.9-12.6
	c-2.8-1.7-4.4-4.8-5.4,0.5c-0.3,4.7-0.7,10.2-0.4,14.2C682.8,198.3,685.3,202.5,687.5,204.9L687.5,204.9z M755.6,214.1
	c0.9,2.7-1.4,11.3,0.5,12.1c1.8,0.9,4.3-5.9,5.3-12.3c0.5-3.5-2.3-15.6-7-17.8c-0.4-0.1-0.8-0.2-1.1-0.2c-2.7-0.1-5.6,1.8-4.5,5.5
	C748.1,203.4,754.6,210.3,755.6,214.1L755.6,214.1z M550.8,338.6c0,0.2,2.3,2,4.9,0.5c5.6-2,9.1-3.9,17-5.5c2.1,0,1.9-5.1-1.3-5.3
	c-4.3,0.2-8.2,0.4-12.4,3.5c-2.6,0.5-3.1-0.9-3.6-2.2c-0.7-3.3,1.5-5.6,1.1-8c0.1,0.1-1.3-1.1-3.2-1.2c-0.7,0-1.3,0.1-1.9,0.4
	c-0.1,0-5.9,3.6-7.8,6.1c-1.1,0.8-1,1.5-0.7,2.9c0.9,1.9,2.4,1.3,4.2,0.4c2.4-0.3,3.5,1.1,3.3,3.7
	C549.2,337.2,550.8,338.4,550.8,338.6L550.8,338.6z M577.3,287L577.3,287C577.3,287,577.4,286.9,577.3,287c0.1-0.1,0.1-0.1,0.1-0.1
	v-0.1c0-0.1,0-0.3,0-0.4l-2.5-1.4l-50.2-0.2c-0.6-0.2-1.1-0.5-1.4-0.6c0,0-0.1-0.1-0.1-0.1l0,0l0,0l0-0.1l0,0v0l0,0v-0.2v-0.2l0,0
	l0-0.1c0.2-0.3,0.8-0.6,1.6-0.9c12-1.5,33.3-4.7,34.7-23.6c-0.2-9.8-4.6-16.3-17.7-18.1c-9.6,0.7-16.5,9.3-15.4,18.7
	c-0.5,2.5,0.9,7.5-1.9,8.1c-18.5,1.6-38.6,12.2-39.3,19.8h0l0,0l-0.1,0h-0.1c0,0-0.1,0-0.1,0h-0.3c-0.1,0-0.1,0-0.2,0
	c-1.2-0.3-2.7-2.1-2.5-4.7c-0.7-13.2-5.4-28.1-12.7-39.6c-2.6-2.4-3.7-3.4-4.5-3.5c0,0-0.1,0-0.1,0h-0.3c-0.1,0-0.2,0.1-0.2,0.2
	c0,0-0.1,0-0.1,0.1c-0.6,0.4-1.2,1.3-2.7,2.3c-2.5,2.6-3,4.5-2.8,9.8c0.1,0.5,4.8,12.4,8.7,20.8c2.6,8.7,5.1,18.6,3.3,28
	c-6.2,12.4-18.6,23.5-30.7,29.6c-6.1,1.8-11.4,1.2-12.8,0l0,0c-3.5-2.2-3.6-6-3.4-6.7v0l0,0c10.1-6.5,21.7-11.8,30.8-29.4
	c2.7-6.7,3.5-10.8,0.8-21.1c-1-3.9-2.3-7.1-5.2-9.8l0,0c1.7-0.7,6.2,2.3,6.9,0.4c-1.1-5-4.7-11.6-8.8-15c-3.6-3-7.5-3.4-10.9-0.6
	c-3.7,1.9-4.5,8.8-2.7,14.8c2,4.5,7.4,5.3,11.2,14.4v0c0.1,0.5,1.3,6.8-0.6,9.3c-1.6,4.5-21.7,19.1-23.1,20c0,0-0.1,0.1-0.1,0.1l0,0
	c0,0,0,0,0,0c0,0,0,0,0,0h-0.1c0,0,0,0,0,0v0c0,0,0-0.1,0-0.1c-0.1-0.4,0-1.3,0-2.8c-0.1-2.7,1.1-8.9,1-10v0l0,0v0h0
	c-6.6,4-8.8,16.1-10.1,19.7c-16.8,10.7-36,18.7-47,29.6c-5.7,8.3,39.5-9.5,44.8-11.6c0,0,0.1,0.1,0.1,0.2c1,1,1.1,4.5,4.1,7.7
	c4.7,5.9,14.7,9.5,24.4,7.2c16.3-5.4,25.7-15.7,35.3-27.1c1.4-1.8,3.5-3.3,5.5-1.9c6.6,13.6,25.5,23.2,50,24.2
	c5.7-6.4,3-9.5,0.7-10.8c-0.7-0.5-12.2-4.6-14-8.7c-1.1-3.8,1.6-7.2,7.1-9.8c15.7-1.8,31.2-3.7,46.2-8.1c0.1-4.6,3.1-11.6,5.1-14.6
	C576,287.6,576.9,287.4,577.3,287L577.3,287z M535.9,258c0-0.2,0.1-0.2,0.2-0.4c0,0,0.1-0.1,0.1-0.2l0,0c0.1-0.1,0.1-0.2,0.2-0.2
	c0.3-0.2,0.8-0.4,1.3-0.5c1.1-0.1,2.5,0.2,3.9,1c2,1.1,3.2,2.7,3.1,3.9c0,0,0,0.1,0,0.2c0,0-0.1,0.1-0.1,0.2l0,0.2c0,0,0,0.1,0,0.1
	c0,0,0,0,0,0.1c-0.1,0.1-0.2,0.2-0.3,0.3c-1,0.8-3.2,0.7-5.3-0.4c-2-1.1-3.2-2.7-3.1-3.8C535.8,258.2,535.8,258.1,535.9,258
	L535.9,258z M515.8,304.3c-5.4,1.7-10.6,3-10.6,10.2c0.7,3.6,0.6,5.4,0,6.3c-0.1,0.1-0.1,0.2-0.2,0.2l0,0l0,0c0,0,0,0,0,0l0,0
	c0,0-0.1,0-0.1,0c-0.1,0.1-0.2,0.1-0.3,0.2c-0.1,0-0.2,0-0.3,0c-1.3,0.2-3.1-1-4.5-1.6c-3.3-2.2-12.6-7.5-14-19
	c-0.2-2.6,1.9-4.8,5.3-5c0.2,0,0.3,0,0.5,0h0.1c5.6,1.4,13.8,1.5,21,2.2c5.8,0.3,8.7,4.5,3.3,6.3L515.8,304.3z M397.9,288.5
	c-0.1,2.1,6.2,4.6,6.5,9.3c0.9,2-1.3,8.2,0.5,8.8c1.7,0.7,4.1-4.3,5-9c0.5-2.5-2.2-11.4-6.7-13c-0.7-0.2-1.4-0.2-2.2-0.2
	C399,284.7,397.1,285.7,397.9,288.5L397.9,288.5z M499.2,259.5c5.8,2.5,19.6,1,16.2-7.2c0-0.7-0.2-3.3-0.3-4
	c-0.6-1.3-1.7-1.7-2.7-1.6c-1,0.2-2.1,1-2.4,2.3c-0.2,0.9,0.4,2.3-0.4,2.7c-0.5,0.5-2.4,0.2-2.3-2.2c0-0.7-0.6-1.6-1-2.1
	c-0.4-0.2-0.6-0.3-1.2-0.3c-0.8,0-0.8,0.2-1.3,0.9c-0.2,0.6-0.4,1.3-0.4,2c-0.1,0.8-0.4,1.1-1.1,1.3c-0.8,0-0.6,0.1-1.2-0.3
	c-0.3-0.4-0.8-0.5-0.8-1.1c0-0.6-0.1-1.7-0.3-2.1c-0.3-0.4-0.9-0.5-1.5-0.7c-3.2,0-3.3,3.3-3.2,4.6
	C495,251.9,494.9,257.8,499.2,259.5L499.2,259.5z M548.1,200.8c9.7,12,19,24.1,28,36.6c1.4,9.3,2.5,18.3,3.1,27.4
	c1.5,19.8,1.9,44.5,0.6,65.3c4,0.2,10.5-6,12.7-15c1.5-12.4-0.5-37.8-0.7-45.2c-0.1-3-0.3-6.7-0.5-10.5c11,16.5,21.2,33.5,30.6,50.9
	c3.6-1.6,2.8-20.5,0.7-23.1c-8-15.8-19-31.5-22.5-37.5c-1.3-2.2-5.6-8.2-10.7-15.2c-0.9-10-2-18.4-2.6-21c-1.6-10.5,4.7,1.2,3.8-4.9
	c-2.1-10.5-8.4-17.7-15.8-27.3c-2.4-3.1-2.3-3.8-6.1,0.7c-2.2,4.6-2.2,8.5-1.5,12.1c-1.2-1.7-2.5-3.2-3.9-4.8l-12.2-9.5
	c-1.7-1.1-4.9-2.8-7.3-2.6c-1.5,0.2-2.6,0.9-3.1,2.9c-0.6,4.7-0.3,7.3,0.6,11.2C542,193.9,546.1,198.3,548.1,200.8L548.1,200.8z
	 M568.7,200.2c0.2,1,0.5,2,0.7,3.1c0.6,2.2,1,4.5,1.5,6.7c-2.1-2.7-3.9-4.9-4.7-5.7C561.4,199,566.3,200.8,568.7,200.2L568.7,200.2z
	"/>
</svg>
