<?xml version="1.0" encoding="utf-8"?>
<!-- Generator: Adobe Illustrator 23.1.0, SVG Export Plug-In . SVG Version: 6.00 Build 0)  -->
<svg version="1.1"
	 id="svg1608" sodipodi:docname="Flag_of_Serbia.svg" xmlns:cc="http://creativecommons.org/ns#" xmlns:dc="http://purl.org/dc/elements/1.1/" xmlns:inkscape="http://www.inkscape.org/namespaces/inkscape" xmlns:rdf="http://www.w3.org/1999/02/22-rdf-syntax-ns#" xmlns:sodipodi="http://sodipodi.sourceforge.net/DTD/sodipodi-0.dtd" xmlns:svg="http://www.w3.org/2000/svg"
	 xmlns="http://www.w3.org/2000/svg" xmlns:xlink="http://www.w3.org/1999/xlink" x="0px" y="0px" viewBox="0 0 1049.9 699.9"
	 style="enable-background:new 0 0 1049.9 699.9;" xml:space="preserve">
<style type="text/css">
	.st0{fill-rule:evenodd;clip-rule:evenodd;fill:#C6363C;}
	.st1{clip-path:url(#SVGID_2_);}
	.st2{fill-rule:evenodd;clip-rule:evenodd;fill:#0C4076;}
	.st3{clip-path:url(#SVGID_4_);}
	.st4{fill-rule:evenodd;clip-rule:evenodd;fill:#FFFFFF;}
	.st5{fill-rule:evenodd;clip-rule:evenodd;fill:#EDB92E;stroke:#21231E;stroke-width:0.926;stroke-miterlimit:23.1068;}
	.st6{fill-rule:evenodd;clip-rule:evenodd;fill:#EDB92E;stroke:#21231E;stroke-width:0.9259;stroke-miterlimit:22.9253;}
	
		.st7{fill-rule:evenodd;clip-rule:evenodd;fill:#EDB92E;stroke:#21231E;stroke-width:0.9259;stroke-linejoin:round;stroke-miterlimit:22.9253;}
	.st8{fill-rule:evenodd;clip-rule:evenodd;fill:#EDB92E;stroke:#21231E;stroke-width:0.926;stroke-miterlimit:22.926;}
	.st9{fill-rule:evenodd;clip-rule:evenodd;fill:#21231E;}
	.st10{fill-rule:evenodd;clip-rule:evenodd;fill:#EDB92E;stroke:#21231E;stroke-width:0.926;stroke-miterlimit:24.8269;}
	.st11{fill-rule:evenodd;clip-rule:evenodd;fill:#FFFFFF;stroke:#21231E;stroke-width:0.9258;stroke-miterlimit:22.9255;}
	.st12{fill-rule:evenodd;clip-rule:evenodd;fill:#FFFFFF;stroke:#21231E;stroke-width:0.9261;stroke-miterlimit:22.9253;}
	.st13{fill-rule:evenodd;clip-rule:evenodd;fill:#EDB92E;stroke:#21231E;stroke-width:0.9263;stroke-miterlimit:22.9255;}
	.st14{fill-rule:evenodd;clip-rule:evenodd;fill:#EDB92E;stroke:#21231E;stroke-width:0.9274;stroke-miterlimit:22.961;}
	.st15{fill-rule:evenodd;clip-rule:evenodd;fill:#FFFFFF;stroke:#21231E;stroke-width:0.9259;stroke-miterlimit:22.9775;}
	.st16{fill-rule:evenodd;clip-rule:evenodd;fill:#EDB92E;stroke:#21231E;stroke-width:0.9274;stroke-miterlimit:24.0406;}
	.st17{fill-rule:evenodd;clip-rule:evenodd;fill:#FFFFFF;stroke:#21231E;stroke-width:0.9259;stroke-miterlimit:24.0581;}
	.st18{fill-rule:evenodd;clip-rule:evenodd;fill:#FFFFFF;stroke:#21231E;stroke-width:0.9259;stroke-miterlimit:22.9253;}
	
		.st19{fill-rule:evenodd;clip-rule:evenodd;fill:#EDB92E;stroke:#21231E;stroke-width:0.9259;stroke-linejoin:round;stroke-miterlimit:22.9779;}
	.st20{fill-rule:evenodd;clip-rule:evenodd;fill:#EDB92E;stroke:#21231E;stroke-width:0.9268;stroke-miterlimit:22.926;}
	.st21{fill-rule:evenodd;clip-rule:evenodd;fill:#EDB92E;stroke:#21231E;stroke-width:0.9261;stroke-miterlimit:22.926;}
	.st22{fill-rule:evenodd;clip-rule:evenodd;fill:#FFFFFF;stroke:#21231E;stroke-width:0.9262;stroke-miterlimit:22.9255;}
	.st23{fill-rule:evenodd;clip-rule:evenodd;fill:#0C4076;stroke:#21231E;stroke-width:0.9259;stroke-miterlimit:22.926;}
	.st24{fill-rule:evenodd;clip-rule:evenodd;fill:#EDB92E;stroke:#21231E;stroke-width:0.9259;stroke-miterlimit:22.9681;}
	.st25{fill-rule:evenodd;clip-rule:evenodd;fill:#C6363C;stroke:#21231E;stroke-width:0.9242;stroke-miterlimit:22.926;}
	.st26{fill-rule:evenodd;clip-rule:evenodd;fill:#0C4076;stroke:#21231E;stroke-width:0.9259;stroke-miterlimit:22.9253;}
	.st27{fill-rule:evenodd;clip-rule:evenodd;fill:#EDB92E;stroke:#21231E;stroke-width:0.927;stroke-miterlimit:22.926;}
	
		.st28{fill-rule:evenodd;clip-rule:evenodd;fill:#EDB92E;stroke:#21231E;stroke-width:0.927;stroke-linejoin:round;stroke-miterlimit:22.926;}
	.st29{fill-rule:evenodd;clip-rule:evenodd;fill:#EDB92E;stroke:#21231E;stroke-width:0.9202;stroke-miterlimit:22.926;}
	.st30{fill-rule:evenodd;clip-rule:evenodd;fill:#EDB92E;stroke:#21231E;stroke-width:0.9195;stroke-miterlimit:22.926;}
	.st31{fill-rule:evenodd;clip-rule:evenodd;fill:#0C4076;stroke:#21231E;stroke-width:0.9259;stroke-miterlimit:23.1911;}
	.st32{fill-rule:evenodd;clip-rule:evenodd;fill:#0C4076;stroke:#21231E;stroke-width:0.9261;stroke-miterlimit:22.9255;}
	.st33{fill-rule:evenodd;clip-rule:evenodd;fill:#EDB92E;stroke:#21231E;stroke-width:0.9263;stroke-miterlimit:22.9253;}
	.st34{fill-rule:evenodd;clip-rule:evenodd;fill:#FFFFFF;stroke:#21231E;stroke-width:0.9259;stroke-miterlimit:22.9255;}
	
		.st35{fill-rule:evenodd;clip-rule:evenodd;fill:#EDB92E;stroke:#21231E;stroke-width:0.926;stroke-linejoin:round;stroke-miterlimit:30.8041;}
	.st36{fill-rule:evenodd;clip-rule:evenodd;fill:#EDB92E;stroke:#21231E;stroke-width:0.9258;stroke-miterlimit:22.9255;}
	.st37{fill-rule:evenodd;clip-rule:evenodd;fill:#0C4076;stroke:#21231E;stroke-width:0.926;stroke-miterlimit:22.9255;}
	.st38{fill-rule:evenodd;clip-rule:evenodd;fill:#EDB92E;stroke:#21231E;stroke-width:0.9379;stroke-miterlimit:22.926;}
	.st39{fill-rule:evenodd;clip-rule:evenodd;fill:#EDB92E;stroke:#21231E;stroke-width:0.8809;stroke-miterlimit:22.926;}
	.st40{fill-rule:evenodd;clip-rule:evenodd;fill:#EDB92E;stroke:#21231E;stroke-width:0.94;stroke-miterlimit:22.926;}
	.st41{fill:none;stroke:#21231E;stroke-width:0.9308;stroke-linecap:round;stroke-miterlimit:22.926;}
	.st42{fill:#C6363C;stroke:#FFFFFF;stroke-width:1.852;stroke-miterlimit:22.926;}
	.st43{fill-rule:evenodd;clip-rule:evenodd;fill:#FFFFFF;stroke:#21231E;stroke-width:0.9261;stroke-miterlimit:22.926;}
	.st44{fill-rule:evenodd;clip-rule:evenodd;fill:#FFFFFF;stroke:#21231E;stroke-width:0.8899;stroke-miterlimit:22.926;}
	.st45{fill-rule:evenodd;clip-rule:evenodd;fill:#FFFFFF;stroke:#21231E;stroke-width:0.8427;stroke-miterlimit:22.926;}
	.st46{fill-rule:evenodd;clip-rule:evenodd;fill:#FFFFFF;stroke:#21231E;stroke-width:0.9253;stroke-miterlimit:23.929;}
	.st47{fill-rule:evenodd;clip-rule:evenodd;fill:#FFFFFF;stroke:#21231E;stroke-width:0.9157;stroke-miterlimit:22.926;}
	.st48{fill-rule:evenodd;clip-rule:evenodd;fill:#FFFFFF;stroke:#21231E;stroke-width:0.926;stroke-miterlimit:22.926;}
	.st49{fill-rule:evenodd;clip-rule:evenodd;fill:#FFFFFF;stroke:#21231E;stroke-width:0.8988;stroke-miterlimit:22.926;}
	.st50{fill-rule:evenodd;clip-rule:evenodd;fill:#FFFFFF;stroke:#21231E;stroke-width:0.9135;stroke-miterlimit:22.926;}
	.st51{fill-rule:evenodd;clip-rule:evenodd;fill:#FFFFFF;stroke:#21231E;stroke-width:0.9229;stroke-miterlimit:22.926;}
	
		.st52{fill-rule:evenodd;clip-rule:evenodd;fill:#EDB92E;stroke:#21231E;stroke-width:0.9191;stroke-linejoin:round;stroke-miterlimit:22.926;}
	.st53{fill-rule:evenodd;clip-rule:evenodd;fill:#EDB92E;stroke:#21231E;stroke-width:0.9256;stroke-miterlimit:23.1752;}
	.st54{fill-rule:evenodd;clip-rule:evenodd;fill:#EDB92E;stroke:#21231E;stroke-width:0.9019;stroke-miterlimit:22.926;}
	.st55{fill-rule:evenodd;clip-rule:evenodd;fill:#EDB92E;stroke:#21231E;stroke-width:0.915;stroke-miterlimit:22.926;}
	.st56{fill-rule:evenodd;clip-rule:evenodd;fill:#EDB92E;stroke:#21231E;stroke-width:0.8521;stroke-miterlimit:22.926;}
	.st57{fill:none;stroke:#21231E;stroke-width:0.9259;stroke-miterlimit:31.0327;}
	.st58{fill:none;stroke:#21231E;stroke-width:0.9354;stroke-miterlimit:22.926;}
	.st59{fill:none;stroke:#21231E;stroke-width:0.9397;stroke-miterlimit:22.926;}
	.st60{fill:none;stroke:#21231E;stroke-width:0.9288;stroke-miterlimit:22.926;}
	
		.st61{fill-rule:evenodd;clip-rule:evenodd;fill:#EDB92E;stroke:#21231E;stroke-width:0.926;stroke-linejoin:round;stroke-miterlimit:23.3586;}
	
		.st62{fill-rule:evenodd;clip-rule:evenodd;fill:#FFFFFF;stroke:#21231E;stroke-width:0.926;stroke-linejoin:round;stroke-miterlimit:22.9287;}
	.st63{fill-rule:evenodd;clip-rule:evenodd;fill:#FFFFFF;stroke:#21231E;stroke-width:0.9259;stroke-miterlimit:22.926;}
	
		.st64{fill-rule:evenodd;clip-rule:evenodd;fill:#FFFFFF;stroke:#21231E;stroke-width:0.9259;stroke-linejoin:round;stroke-miterlimit:22.926;}
	.st65{fill:none;stroke:#21231E;stroke-width:0.9259;stroke-linecap:round;stroke-miterlimit:22.9253;}
	.st66{fill-rule:evenodd;clip-rule:evenodd;fill:#FFFFFF;stroke:#21231E;stroke-width:0.8165;stroke-miterlimit:22.926;}
	.st67{fill-rule:evenodd;clip-rule:evenodd;fill:#FFFFFF;stroke:#21231E;stroke-width:0.924;stroke-miterlimit:22.926;}
	.st68{fill-rule:evenodd;clip-rule:evenodd;fill:#FFFFFF;stroke:#21231E;stroke-width:0.9214;stroke-miterlimit:22.926;}
	.st69{fill-rule:evenodd;clip-rule:evenodd;fill:#FFFFFF;stroke:#21231E;stroke-width:0.9256;stroke-miterlimit:22.926;}
	
		.st70{fill-rule:evenodd;clip-rule:evenodd;fill:#FFFFFF;stroke:#21231E;stroke-width:0.9356;stroke-linecap:round;stroke-linejoin:round;stroke-miterlimit:22.926;}
	.st71{fill-rule:evenodd;clip-rule:evenodd;fill:#EDB92E;stroke:#21231E;stroke-width:0.9207;stroke-miterlimit:22.926;}
	
		.st72{fill-rule:evenodd;clip-rule:evenodd;fill:#FFFFFF;stroke:#21231E;stroke-width:0.9259;stroke-linejoin:round;stroke-miterlimit:22.9253;}
	.st73{fill-rule:evenodd;clip-rule:evenodd;fill:#EDB92E;stroke:#21231E;stroke-width:0.9349;stroke-miterlimit:22.926;}
	.st74{fill:none;stroke:#21231E;stroke-width:0.9344;stroke-linecap:round;stroke-miterlimit:22.926;}
	.st75{fill:none;stroke:#21231E;stroke-width:1.2343;stroke-linecap:round;stroke-miterlimit:23.6767;}
	.st76{fill:none;stroke:#21231E;stroke-width:0.9259;stroke-linecap:round;stroke-miterlimit:24.1336;}
	.st77{fill:none;stroke:#21231E;stroke-width:1.2344;stroke-miterlimit:29.5994;}
	.st78{fill:none;stroke:#21231E;stroke-width:0.9259;stroke-linecap:round;stroke-linejoin:round;stroke-miterlimit:22.9253;}
	.st79{fill:none;stroke:#21231E;stroke-width:0.9259;stroke-linecap:round;stroke-miterlimit:22.926;}
	
		.st80{fill-rule:evenodd;clip-rule:evenodd;fill:#EDB92E;stroke:#21231E;stroke-width:0.9349;stroke-linejoin:round;stroke-miterlimit:22.926;}
	
		.st81{fill-rule:evenodd;clip-rule:evenodd;fill:#FFFFFF;stroke:#21231E;stroke-width:0.9259;stroke-linejoin:round;stroke-miterlimit:26.0503;}
	.st82{fill-rule:evenodd;clip-rule:evenodd;fill:#FFFFFF;stroke:#21231E;stroke-width:0.926;stroke-miterlimit:25.3561;}
	.st83{fill-rule:evenodd;clip-rule:evenodd;fill:#FFFFFF;stroke:#21231E;stroke-width:0.926;stroke-miterlimit:23.3678;}
	
		.st84{fill-rule:evenodd;clip-rule:evenodd;fill:#FFFFFF;stroke:#21231E;stroke-width:0.926;stroke-linejoin:round;stroke-miterlimit:23.1718;}
	.st85{fill-rule:evenodd;clip-rule:evenodd;fill:#FFFFFF;stroke:#21231E;stroke-width:0.926;stroke-miterlimit:24.7269;}
	
		.st86{fill-rule:evenodd;clip-rule:evenodd;fill:#FFFFFF;stroke:#21231E;stroke-width:0.9259;stroke-linejoin:round;stroke-miterlimit:29.9683;}
	.st87{fill:#C6363C;stroke:#21231E;stroke-width:1.852;stroke-miterlimit:22.926;}
	.st88{fill:#FFFFFF;stroke:#21231E;stroke-width:0.926;stroke-miterlimit:22.926;}
	
		.st89{fill-rule:evenodd;clip-rule:evenodd;fill:#FFFFFF;stroke:#21231E;stroke-width:0.939;stroke-linejoin:round;stroke-miterlimit:22.926;}
	
		.st90{fill-rule:evenodd;clip-rule:evenodd;fill:#FFFFFF;stroke:#21231E;stroke-width:0.9322;stroke-linejoin:round;stroke-miterlimit:22.926;}
	.st91{fill:none;stroke:#21231E;stroke-width:1.852;stroke-miterlimit:22.926;}
</style>
<sodipodi:namedview  bordercolor="#666666" borderopacity="1" gridtolerance="10" guidetolerance="10" id="namedview1610" inkscape:current-layer="svg1608" inkscape:cx="504.08667" inkscape:cy="336.06" inkscape:pageopacity="0" inkscape:pageshadow="2" inkscape:window-height="1017" inkscape:window-maximized="1" inkscape:window-width="1920" inkscape:window-x="-8" inkscape:window-y="-8" inkscape:zoom="1.2616795" objecttolerance="10" pagecolor="#ffffff" showgrid="false">
	</sodipodi:namedview>
<g id="g6907">
	<path id="path822" inkscape:connector-curvature="0" class="st0" d="M0,0h1049.9v699.9H0V0z"/>
	<g>
		<defs>
			<rect id="SVGID_1_" x="0" y="233.1" width="1049.9" height="466.9"/>
		</defs>
		<clipPath id="SVGID_2_">
			<use xlink:href="#SVGID_1_"  style="overflow:visible;"/>
		</clipPath>
		<g id="g828" transform="matrix(1 0 0 1.9975065 0 -167.20204)" class="st1">
			<path id="path826" class="st2" d="M0,200.2h1049.9v233.9H0V200.2z"/>
		</g>
	</g>
	<g>
		<defs>
			<rect id="SVGID_3_" x="0" y="465.8" width="1049.9" height="234.1"/>
		</defs>
		<clipPath id="SVGID_4_">
			<use xlink:href="#SVGID_3_"  style="overflow:visible;"/>
		</clipPath>
		<g id="g832" class="st3">
			<path id="path830" class="st4" d="M0,464.8h1049.9v235.1H0V464.8z"/>
		</g>
	</g>
	<g id="g6512" transform="translate(8.5888646e-5,0.13144054)">
		<g id="g1244">
			<g id="g850">
				<path id="path834" inkscape:connector-curvature="0" class="st5" d="M466.6,166.4c1.5-3.2,0.3-7.6-0.2-8.6
					c-0.2-0.5,0.5-1.6,0.8-2.1c9.9-14,10.1-15.2,3.3-20.4c-6.2-4.7-20.1-9.3-30.1-12.4c-2.1-1.6-3.4-3.7-5.3-5.5
					c19.2,1.4,40,9.1,50.5,18.1c5.5,4.8-1.2,14.4-9.5,29.1C470.9,168.4,468.6,170.1,466.6,166.4L466.6,166.4z"/>
				<g id="g846">
					<path id="path836" inkscape:connector-curvature="0" class="st6" d="M469.6,167.5c0.4-1.3,0.7-2.5,1-3.6
						c0.4-2.1,0.2-4.2-0.5-6.2c2.3-3.2,4.9-6.7,6.7-10.2c1.3-2.5,2.3-5.2,1.6-8.1c-0.8-3-3.5-5.1-5.8-6.9c-2.8-2.2-6.6-4.1-10.5-5.7
						c-8.6-3.5-15.4-5.3-20.4-5.4l3.2,2.9c9.3,3,20.3,6.9,25.6,11c6.9,5.2,6.7,6.5-3.3,20.4c-0.3,0.4-1,1.6-0.8,2.1
						c0.5,1,1.4,5.6-0.1,8.8C467.2,168.2,468.4,167.4,469.6,167.5L469.6,167.5z"/>
					<path id="path838" inkscape:connector-curvature="0" class="st6" d="M385.7,105.4c-0.1-1.8,0-1.5,0.3,1.3
						c0.3-0.5,0.7-0.8,1.1-0.8c0.8,0,1.3,1.2,1.4,4c0,0.7-0.1,1.4-0.1,2.1c25.4-0.6,40.5,3.3,44.4,10.6c3.2,6.1-2.2,16.1-10.5,27.5
						c-1,1.4-1,1.3,0,2.4c1.4,1.6,2.9,4.4,1.8,6.9c5,2.7,10.9,3.4,16.1,1.1c0.9-2.3,2.7-3.3,4.2-4.4c0.3-0.2,1.4-0.7,1.5-1.1
						c2.7-8.7,5.4-16.7,7.8-24.1C461,107.5,395.8,105.4,385.7,105.4L385.7,105.4z"/>
					<g id="g844" transform="scale(0.99997,-1)">
						<path id="path840" inkscape:connector-curvature="0" class="st7" d="M452.9-206.2c2.5,5,5.2,10,8.7,14.3
							c-9-6.7-13.8-5.7-14.5,3c-0.5,0.2-1.3,0.2-2,0.2c-6.9-10.7-13.6-9.2-20.1,4.4c-8.9-14-16.5-13.8-22.5,0.9
							c-10.2-12.8-18.9-12.8-25.9-0.3v1.6c0.4-0.2,0.1-0.2-0.8-0.1l-0.2,0.3c-0.3-0.1-0.5-0.1-0.8-0.1c-0.2,0-0.5,0.1-0.8,0.1
							l-0.1-0.3c-0.9-0.1-1.2-0.1-0.8,0.1v-1.6c-7-12.5-15.6-12.5-25.9,0.3c-6-14.6-13.6-14.9-22.5-0.9
							c-6.5-13.6-13.2-15.1-20.1-4.4c-0.7,0-1.4,0-2-0.2c-0.7-8.7-5.4-9.7-14.5-3c3.5-4.3,6.2-9.2,8.7-14.3c26,1.1,52,2.4,78,3.8
							C400.9-203.8,426.9-205.1,452.9-206.2L452.9-206.2z"/>
						<path id="path842" inkscape:connector-curvature="0" class="st7" d="M463.6-185.2l-2.8,0.5c-5.4-13.3-10.3-13.6-11.2-1
							c1.2,0.4,0.7,2.5,2.1,1.7c0.7-0.4,1.6,0.8,1,1.5c-1.5,1.1-2.9,1-4.3-0.3c-0.6,2-2.2,3-4.1,2.1c-0.8-0.4-0.6-1.9,0.3-1.8
							c1.4,0.1,0.8-1.3,1.2-2.2c-9.7-12.6-14.6-11.1-13.4,5.4c-2.3,0.5-5,0.9-7.4,1.8c-8.9-17.8-15.2-18.6-20.3-2.6
							c1.1,0.8,0.8,2.9,2.4,2.2c0.9-0.4,1.7,1.2,0.9,1.9c-1.9,1.6-3.9,1-5.3-1c-1.1,2.2-3,3-5.1,1.6c-0.9-0.6-0.3-2.2,0.6-2
							c1.8,0.5,1-1.9,2.4-2.7c-3.9-15-23.8-16.1-20.5,6.2c-1.8-0.1-3.5-0.1-5.1-0.2c-1.6,0.1-3.3,0.1-5.1,0.2
							c3.2-22.3-16.6-21.3-20.5-6.2c1.4,0.8,0.6,3.2,2.4,2.7c0.9-0.3,1.5,1.4,0.6,2c-2.1,1.3-4,0.5-5.1-1.6c-1.4,2-3.4,2.6-5.3,1
							c-0.8-0.7,0-2.3,0.9-1.9c1.6,0.7,1.3-1.4,2.4-2.2c-5.1-16-11.4-15.2-20.3,2.6c-2.4-0.9-5.1-1.3-7.4-1.8
							c1.2-16.5-3.7-18-13.4-5.4c0.4,0.9-0.1,2.4,1.2,2.2c0.8-0.1,1.1,1.4,0.3,1.8c-1.9,0.8-3.5-0.1-4.1-2.1
							c-1.4,1.3-2.7,1.4-4.3,0.3c-0.6-0.7,0.3-2,1-1.5c1.4,0.8,0.9-1.3,2.1-1.7c-0.9-12.6-5.8-12.3-11.2,1l-2.8-0.5
							c-0.1-3.1,1-6.4,2.9-8.9c8.2-10.4,14.2-8,14.5,3.6c10.7-12.5,18.8-10.9,20.2,2.3c9-16.7,23.4-8.7,23.7,1.4
							c4-14.7,25.9-14.6,27.3,2.3c1.4-16.9,23.3-17,27.3-2.3c0.3-10.1,14.7-18.1,23.7-1.4c1.5-13.2,9.5-14.8,20.2-2.3
							c0.2-11.6,6.3-13.9,14.5-3.6C462.6-191.7,463.7-188.3,463.6-185.2L463.6-185.2z"/>
					</g>
				</g>
				<path id="path848" inkscape:connector-curvature="0" class="st8" d="M393.2,168.3c-1.2-0.8-1.4-0.6-1.8-1
					c-0.5-0.6-0.5-1.7-0.3-2.7c0.6-4-1.8-3.5-4.5-1.7c-1.4,0.9-2.7,3-3.9,4c-1.2,1.1-2.1,1.2-2.4,1.6c0,1.5,0,2.9,0,3.5v0
					c0,0.6,0,1.9,0,3.5c0.3,0.4,1.3,0.5,2.4,1.6c1.2,1.1,2.5,3.2,3.9,4c2.7,1.8,5.2,2.3,4.5-1.7c-0.2-1-0.2-2,0.3-2.7
					c0.4-0.5,0.6-0.3,1.8-1c0.8-0.5,1.4-1.1,1.8-1.7c0.4-0.6,0.2-1.3,0.2-2c0-0.7,0.2-1.4-0.2-2C394.6,169.4,394,168.8,393.2,168.3z
					"/>
			</g>
			<path id="path852" inkscape:connector-curvature="0" class="st9" d="M380,172.6l0.1,0.7c2.9,0.4,5.3,1.5,7.3,3.3
				C386.1,174.6,383.2,173.1,380,172.6"/>
			<path id="path854" inkscape:connector-curvature="0" class="st9" d="M380,171.4l0.1-0.7c2.9-0.4,5.3-1.5,7.3-3.3
				C386.1,169.4,383.2,170.9,380,171.4"/>
			<g id="g1042">
				<g id="g872">
					<path id="path856" inkscape:connector-curvature="0" class="st8" d="M391.1,162.7c-0.9,0.4-1.8,0.7-2.6,1.5
						c-1.2,1.2-0.4,3.2,1.2,5.1c0.5,0.6,0.7,1.7,0.7,2.7c0,1.1-0.2,2.1-0.7,2.7c-1.6,1.9-2.4,3.9-1.2,5.1c0.8,0.8,1.8,1.2,2.6,1.5
						c0.1-0.5,0.1-1.1,0-1.8c-0.2-1-0.2-2,0.3-2.7c0.4-0.5,0.6-0.3,1.8-1.1c0.8-0.5,1.4-1.1,1.8-1.7c0.4-0.6,0.2-1.3,0.2-2
						s0.2-1.4-0.2-2c-0.4-0.6-1-1.2-1.8-1.7c-1.2-0.7-1.4-0.6-1.8-1c-0.5-0.6-0.5-1.7-0.3-2.7C391.2,163.8,391.2,163.2,391.1,162.7
						L391.1,162.7z"/>
					<path id="path858" inkscape:connector-curvature="0" class="st5" d="M283.3,166.4c-1.5-3.2-0.3-7.6,0.2-8.6
						c0.2-0.5-0.5-1.6-0.8-2.1c-9.9-14-10.1-15.2-3.3-20.4c6.2-4.7,20.1-9.3,30.1-12.4c2.1-1.6,3.4-3.7,5.3-5.5
						c-19.2,1.4-40,9.1-50.5,18.1c-5.5,4.8,1.2,14.4,9.5,29.1C278.9,168.4,281.3,170.1,283.3,166.4L283.3,166.4z"/>
					<path id="path860" inkscape:connector-curvature="0" class="st6" d="M280.3,167.5c-0.4-1.3-0.7-2.5-1-3.6
						c-0.4-2.1-0.2-4.2,0.5-6.2c-2.3-3.2-4.9-6.7-6.7-10.2c-1.3-2.5-2.3-5.2-1.6-8.1c0.8-3,3.5-5.1,5.8-6.9
						c2.8-2.2,6.6-4.1,10.5-5.7c8.6-3.5,15.4-5.3,20.4-5.4l-3.2,2.9c-9.3,3-20.3,6.9-25.6,11c-6.9,5.2-6.7,6.5,3.3,20.4
						c0.3,0.4,1,1.6,0.8,2.1c-0.5,1-1.4,5.6,0.1,8.8C282.7,168.2,281.5,167.4,280.3,167.5L280.3,167.5z"/>
					<path id="path862" inkscape:connector-curvature="0" class="st6" d="M364.2,105.4c0.1-1.8,0-1.5-0.3,1.3
						c-0.3-0.5-0.7-0.8-1.1-0.8c-0.8,0-1.3,1.2-1.4,4c0,0.7,0.1,1.4,0.1,2.1c-25.4-0.6-40.5,3.3-44.4,10.6
						c-3.2,6.1,2.2,16.1,10.5,27.5c1,1.4,1,1.3,0,2.4c-1.4,1.6-2.9,4.4-1.8,6.9c-5,2.7-10.9,3.4-16.1,1.1c-0.9-2.3-2.7-3.3-4.2-4.4
						c-0.3-0.2-1.4-0.7-1.5-1.1c-2.7-8.7-5.4-16.7-7.8-24.1C288.9,107.5,354.1,105.4,364.2,105.4L364.2,105.4z"/>
					<path id="path864" inkscape:connector-curvature="0" class="st10" d="M368.6,202.4l-0.9,25.4c25.2,0.7,55,1.8,80.2,2.5l5-23.7
						C392.4,202.8,364.5,201.5,368.6,202.4L368.6,202.4z"/>
					<g id="g870" transform="scale(0.99997,-1)">
						<path id="path866" inkscape:connector-curvature="0" class="st6" d="M368.6-202.4l0-0.1c-13.5-0.6-37.3-1.9-71.7-4.1l5-23.7
							c22.8,0.6,49.4,1.6,73,2.3c23.5-0.7,50.2-1.7,73-2.3l5,23.7c-34.4,2.2-58.2,3.5-71.7,4.1l0,0.1c1.4,0.3-0.7,0.3-6.3,0.1
							C369.4-202,367.2-202.1,368.6-202.4L368.6-202.4z"/>
						<path id="path868" inkscape:connector-curvature="0" class="st6" d="M375-205.2c-0.9,0-1.8,0-2.8,0l-0.9,0h-0.5l-0.9,0l-0.5,0
							h-0.3l-0.6,0l-0.9,0l-0.8,0l-0.2,0l-0.7,0c-0.7,0-1.3,0-2,0h-0.2l-0.1,0l-0.9,0l-0.3,0l-0.4,0l-0.9,0h0l-0.9,0l-0.3,0l-0.6,0
							h-0.2l-0.7,0l-0.9,0h0l-0.9,0l-0.4,0l0,0c-1.1,0-2.2-0.1-3.3-0.1l-0.4,0l-1.2,0l-0.1,0l-1.1,0l-0.7,0l-0.5,0l-0.1,0l-1.1,0
							l-0.1,0l-0.9,0l0,0l-0.9,0l-0.6,0l-1.2,0h0c-1.6-0.1-3.2-0.1-4.8-0.2l-0.2,0c-2.4-0.1-4.7-0.2-7.1-0.4l-0.1,0l-0.4,0
							c-4.7-0.3-9.4-0.6-14-0.9l-0.2,0l-0.1,0c-6.8-0.5-13.6-1.1-20.3-1.8c-3.8-0.4-4.5,4.1,0,4.5c6.7,0.7,13.4,1.3,20.3,1.8l0.1,0
							c9.4,0.7,18.8,1.2,28.4,1.6l0.8,0h0.1l0.3,0l0.9,0l0.1,0c3.9,0.1,7.8,0.2,11.8,0.3l0.6,0l0,0l1.1,0h0.1l0,0l0.9,0l0.4,0l0.6,0
							l0.7,0l0.2,0l0.3,0c0.8,0,1.6,0,2.4,0l0.8,0h0.2l0.9,0c0.9,0,1.8,0,2.7,0h0.1l0.9,0c0.9,0,1.8,0,2.8,0c0.9,0,1.8,0,2.8,0
							l0.9,0h0.1c0.9,0,1.8,0,2.7,0l0.9,0h0.2l0.8,0c0.8,0,1.6,0,2.4,0l0.3,0l0.2,0l0.7,0l0.6,0l0.4,0l0.9,0l0,0h0.1l1,0l0,0l0.6,0
							c3.9-0.1,7.9-0.2,11.8-0.3l0.1,0l0.9,0l0.3,0h0.1l0.8,0c9.6-0.4,19-0.9,28.4-1.6l0.1,0c6.8-0.5,13.6-1.1,20.3-1.8
							c4.5-0.4,3.8-4.9,0-4.5c-6.7,0.7-13.4,1.3-20.3,1.8l-0.1,0l-0.2,0c-4.7,0.4-9.3,0.7-14,0.9l-0.4,0l-0.1,0
							c-2.4,0.1-4.7,0.2-7.1,0.4l-0.2,0c-1.6,0.1-3.2,0.1-4.8,0.2h0l-1.2,0l-0.6,0l-0.9,0l0,0l-0.9,0l-0.1,0l-1.1,0l-0.1,0l-0.5,0
							l-0.7,0l-1.1,0l-0.1,0l-1.2,0l-0.4,0c-1.1,0-2.2,0.1-3.3,0.1l0,0l-0.4,0l-0.9,0h0l-0.9,0l-0.7,0h-0.2l-0.6,0l-0.3,0l-0.9,0h0
							l-0.9,0l-0.4,0l-0.3,0l-0.9,0l-0.1,0H386c-0.7,0-1.3,0-2,0l-0.7,0l-0.2,0l-0.8,0l-0.9,0l-0.6,0h-0.3l-0.5,0l-0.9,0h-0.5
							l-0.9,0C376.8-205.2,375.9-205.2,375-205.2L375-205.2z"/>
					</g>
				</g>
				<g id="g884">
					<path id="path874" inkscape:connector-curvature="0" class="st11" d="M315.6,149.6c2.7,0,4.9,2.2,4.9,4.9s-2.2,4.9-4.9,4.9
						c-2.7,0-4.9-2.2-4.9-4.9C310.7,151.8,312.9,149.6,315.6,149.6z"/>
					<g id="g882" transform="scale(0.99997,-1)">
						<path id="path876" inkscape:connector-curvature="0" class="st12" d="M273.9-159.9c2.5,0,4.6-2,4.6-4.6c0-2.5-2-4.6-4.6-4.6
							c-2.5,0-4.6,2-4.6,4.6C269.3-161.9,271.3-159.9,273.9-159.9z"/>
						<path id="path878" inkscape:connector-curvature="0" class="st12" d="M269.5-151.6c2.5,0,4.6-2,4.6-4.6c0-2.5-2-4.6-4.6-4.6
							c-2.5,0-4.6,2-4.6,4.6C265-153.6,267-151.6,269.5-151.6z"/>
						<path id="path880" inkscape:connector-curvature="0" class="st12" d="M265.4-143.2c2.5,0,4.6-2,4.6-4.6c0-2.5-2-4.6-4.6-4.6
							c-2.5,0-4.6,2-4.6,4.6C260.9-145.2,262.9-143.2,265.4-143.2z"/>
					</g>
				</g>
				<path id="path886" inkscape:connector-curvature="0" class="st13" d="M375,166.1c3.3,0,6,2.7,6,5.9c0,3.3-2.7,6-6,6
					c-3.3,0-6-2.7-6-6C369,168.7,371.7,166.1,375,166.1z"/>
				<path id="path888" inkscape:connector-curvature="0" class="st14" d="M345.8,158.8c2.6-0.2,2,4.5,1.5,5.5
					c-0.7,1.4-1.3,1.4-2.2,0.1C344.5,163.5,343.2,159,345.8,158.8L345.8,158.8z"/>
				<path id="path890" inkscape:connector-curvature="0" class="st15" d="M346,161.3c6.2-0.4,4.6,10.6,3.4,13
					c-1.6,3.2-3.1,3.3-5.1,0.3C342.8,172.4,339.8,161.7,346,161.3L346,161.3z"/>
				<path id="path892" inkscape:connector-curvature="0" class="st16" d="M296.2,165.4c2.5-0.8,3,3.9,2.7,5
					c-0.3,1.5-0.9,1.7-2.1,0.7C296,170.3,293.6,166.2,296.2,165.4L296.2,165.4z"/>
				<path id="path894" inkscape:connector-curvature="0" class="st17" d="M296.9,167.8c5.9-1.9,7,9.2,6.4,11.8
					c-0.8,3.5-2.2,3.9-4.9,1.5C296.5,179.4,291,169.7,296.9,167.8L296.9,167.8z"/>
				<g id="g904" transform="scale(0.99997,-1)">
					<path id="path896" inkscape:connector-curvature="0" class="st7" d="M361.1-109.6c-13.3,1.2-26.8-0.2-40.2-5.5
						c-11.3-4.5-10.2-17.6,3.6-35.8c-1.2-2.3-2-5.2-2.1-8.5c1.5,0.1,2.5,0,3.8,0.1c-1,2.2,0.1,4.9,1.4,6.8c0.8,1.2,1,1,0,2.4
						c-8.2,11.4-13.7,21.5-10.5,27.5c3.9,7.4,19,11.2,44.4,10.6c0,0.7-0.1,1.4-0.1,2C361.3-109.8,361.2-109.7,361.1-109.6
						L361.1-109.6z"/>
					<g id="g902">
						<path id="path898" inkscape:connector-curvature="0" class="st18" d="M296.8-113.4c2.6,0,4.7-2.1,4.7-4.7s-2.1-4.7-4.7-4.7
							c-2.6,0-4.7,2.1-4.7,4.7S294.2-113.4,296.8-113.4z"/>
						<path id="path900" inkscape:connector-curvature="0" class="st18" d="M306.1-110.3c2.6,0,4.7-2.1,4.7-4.7
							c0-2.6-2.1-4.7-4.7-4.7s-4.7,2.1-4.7,4.7C301.4-112.4,303.5-110.3,306.1-110.3z"/>
					</g>
				</g>
				<g id="g914">
					<path id="path906" inkscape:connector-curvature="0" class="st6" d="M307.3,114.4c0.5,0.6,0.9,1.2,1.4,1.9
						c-7.5,4.1-10.6,8.4-9.8,12.8c0.1,0.7,2.4,8.7,7.5,24.1c3.5,2.4,6,4.5,7.7,6.4c-0.2,0.2,0.5,0.9,0.3,1.1
						c0.5,2.4-2.1,1.9-3.9,1.3c-0.9-2.3-3.5-4.7-5-5.7c-0.3-0.2-1.4-0.7-1.5-1.1c-2.7-8.7-5.4-16.7-7.8-24.1
						C293.9,123.4,299,118.1,307.3,114.4L307.3,114.4z"/>
					<path id="path908" inkscape:connector-curvature="0" class="st19" d="M277.8,170l-0.3,1.5c-2.2,0.5-4,0.6-5.6,0.4
						C274.6,169.4,276.5,168.9,277.8,170L277.8,170z"/>
					<path id="path910" inkscape:connector-curvature="0" class="st20" d="M277.6,166.6c1.4,0.3,1.5,0.5,2.1,0.6
						c0.8,0.1,1.8,0.1,2.5-0.6c3-1.8,3,1.4,1.9,3.8c-0.8,1.7-0.4,3.7,0.4,5.2c0.9,1.8,0.7,2.5,0.1,3c-0.5,0.3-0.9,0.6-1.3,0.8
						c-0.8,0.9-1.4,0.8-1.5-0.5c-3-1.2-3.9-4-4.8-6.5C275.7,168.9,271,168,277.6,166.6L277.6,166.6z"/>
					<path id="path912" inkscape:connector-curvature="0" class="st21" d="M278.8,166.7c2.6,0.9,2.9-0.5,4.6-0.4
						c-0.7,3.9-1.4,6-5.5,3.9c-2.3-1.2-5.2,0.5-5.7,1.8c-0.2,0.5-1.5-0.5-2-1.6C268.2,166,275.3,165.5,278.8,166.7L278.8,166.7z"/>
				</g>
				<g id="g936">
					<g id="g924" transform="scale(0.99998,-1)">
						<path id="path916" inkscape:connector-curvature="0" class="st22" d="M357-99.5c2.6,0,4.7-2.1,4.7-4.7c0-2.6-2.1-4.7-4.7-4.7
							c-2.6,0-4.7,2.1-4.7,4.7C352.3-101.6,354.4-99.5,357-99.5z"/>
						<path id="path918" inkscape:connector-curvature="0" class="st22" d="M347.4-99.5c2.6,0,4.7-2.1,4.7-4.7
							c0-2.6-2.1-4.7-4.7-4.7s-4.7,2.1-4.7,4.7C342.7-101.6,344.8-99.5,347.4-99.5z"/>
						<path id="path920" inkscape:connector-curvature="0" class="st22" d="M337.8-100.2c2.6,0,4.7-2.1,4.7-4.7
							c0-2.6-2.1-4.7-4.7-4.7s-4.7,2.1-4.7,4.7C333.1-102.3,335.2-100.2,337.8-100.2z"/>
						<path id="path922" inkscape:connector-curvature="0" class="st22" d="M328.9-101.9c2.6,0,4.7-2.1,4.7-4.7
							c0-2.6-2.1-4.7-4.7-4.7c-2.6,0-4.7,2.1-4.7,4.7C324.2-104,326.3-101.9,328.9-101.9z"/>
					</g>
					<g id="g934" transform="scale(0.99997,-1)">
						<path id="path926" inkscape:connector-curvature="0" class="st18" d="M270.4-126.2c2.6,0,4.7-2.1,4.7-4.7s-2.1-4.7-4.7-4.7
							c-2.6,0-4.7,2.1-4.7,4.7S267.8-126.2,270.4-126.2z"/>
						<path id="path928" inkscape:connector-curvature="0" class="st18" d="M278.5-121.1c2.6,0,4.7-2.1,4.7-4.7
							c0-2.6-2.1-4.7-4.7-4.7c-2.6,0-4.7,2.1-4.7,4.7C273.8-123.2,275.9-121.1,278.5-121.1z"/>
						<path id="path930" inkscape:connector-curvature="0" class="st18" d="M287.7-116.7c2.6,0,4.7-2.1,4.7-4.7
							c0-2.6-2.1-4.7-4.7-4.7s-4.7,2.1-4.7,4.7C283-118.9,285.1-116.7,287.7-116.7z"/>
						<path id="path932" inkscape:connector-curvature="0" class="st18" d="M264.2-133.8c2.6,0,4.7-2.1,4.7-4.7
							c0-2.6-2.1-4.7-4.7-4.7s-4.7,2.1-4.7,4.7C259.4-136,261.6-133.8,264.2-133.8z"/>
					</g>
				</g>
				<path id="path938" inkscape:connector-curvature="0" class="st6" d="M357.4,215.3l17.5-8.8l17.5,8.8l-17.5,8.7L357.4,215.3z"/>
				<path id="path940" inkscape:connector-curvature="0" class="st23" d="M375,210c4.3,0,7.9,2.4,7.9,5.3c0,2.9-3.5,5.3-7.9,5.3
					s-7.9-2.3-7.9-5.3C367.1,212.3,370.6,210,375,210z"/>
				<path id="path942" inkscape:connector-curvature="0" class="st24" d="M318.5,217.5l16.9-9.8l18,7.7l-16.9,9.8L318.5,217.5z"/>
				<path id="path944" inkscape:connector-curvature="0" class="st25" d="M335.7,211.1c4.3-0.3,8,1.9,8.2,4.8
					c0.2,2.9-3.2,5.5-7.5,5.7c-4.3,0.3-8-1.9-8.2-4.8C328,213.9,331.3,211.4,335.7,211.1z"/>
				<g id="g960" transform="scale(0.99997,-1)">
					<path id="path946" inkscape:connector-curvature="0" class="st6" d="M298.2-210.5l18.3-6.9l-15.1-10.1
						C297.5-226.2,294.4-212.9,298.2-210.5L298.2-210.5z"/>
					<path id="path948" inkscape:connector-curvature="0" class="st26" d="M298.5-213.9c4.3,0.4,8.1-1.5,8.4-4.4
						c0.3-2.9-3-5.6-7.3-6c-2.8-0.3-4.6,2.2-4.9,4.8C294.4-216.9,295.6-214.2,298.5-213.9L298.5-213.9z"/>
					<g id="g958">
						<path id="path950" inkscape:connector-curvature="0" class="st18" d="M356-218.6c1.4,0,2.5-1.1,2.5-2.5c0-1.4-1.1-2.5-2.5-2.5
							s-2.5,1.1-2.5,2.5C353.5-219.7,354.6-218.6,356-218.6z"/>
						<path id="path952" inkscape:connector-curvature="0" class="st18" d="M318.5-220.6c1.4,0,2.5-1.1,2.5-2.5
							c0-1.4-1.1-2.5-2.5-2.5c-1.4,0-2.5,1.1-2.5,2.5C316-221.7,317.1-220.6,318.5-220.6z"/>
						<path id="path954" inkscape:connector-curvature="0" class="st18" d="M317.1-209.3c1.4,0,2.5-1.1,2.5-2.5
							c0-1.4-1.1-2.5-2.5-2.5c-1.4,0-2.5,1.1-2.5,2.5C314.7-210.4,315.8-209.3,317.1-209.3z"/>
						<path id="path956" inkscape:connector-curvature="0" class="st18" d="M355.9-207.7c1.4,0,2.5-1.1,2.5-2.5
							c0-1.4-1.1-2.5-2.5-2.5c-1.4,0-2.5,1.1-2.5,2.5C353.4-208.8,354.5-207.7,355.9-207.7z"/>
					</g>
				</g>
				<g id="g970">
					<path id="path962" inkscape:connector-curvature="0" class="st27" d="M289.4,185.7c1.9-0.6,4.8,3.5,5.5,3.5
						c0.9-2.4-0.9-8-4.3-12.4c-2.2-0.7-2.4-2.2-2.9-5.5c-0.1-1-2.1-0.3-2.1,1.4c0,1.8-0.2,2.8,0.2,4.4c0.2,0.6,0.1,1.2-0.6,1.8
						C288.7,180.2,289.5,181.9,289.4,185.7L289.4,185.7z"/>
					<path id="path964" inkscape:connector-curvature="0" class="st28" d="M287.7,171.3c-0.3,0.8-0.4,1.4-0.5,2.6
						c-0.1,0.9,0.3,1.7,0.8,2.5c0.6,0.7,1.4,1.4,2.3,1.9c0.6,0.3,1.2,1.2,1.7,2.3c0.5,1,0.9,2.2,0.9,3c0.1,2.7,0.6,5.1,1.9,5.6
						c0.8,0.3,1.1,0.3,1.8,0.1c-0.2-0.5-0.1-1.2-0.6-1.9c-0.6-0.9-1.1-1.9-1.1-2.8c0-0.7-0.4-1.2-0.1-2.5c0.2-0.9,0.7-1.2,0.6-2
						c-0.2-1.6-1.4-4.6-3.3-4.6c-1.8,0-2.6-0.2-3.6-2.6C288.4,172.1,288,171.7,287.7,171.3L287.7,171.3z"/>
					<path id="path966" inkscape:connector-curvature="0" class="st29" d="M280.9,177.8c0.5-0.4,1.1-0.7,1.6-0.9
						c0.9-0.4,2-0.4,2.9-0.1c4.3,1.3,6.2,8.9,1.5,10.7c-0.9,0.1-1.8-0.7-2.6-2.6c-1-2.4-2-4.1-3.2-5.1
						C280.5,179,280.5,178.3,280.9,177.8L280.9,177.8z"/>
					<path id="path968" inkscape:connector-curvature="0" class="st30" d="M283.1,178.3c4.1-1.6,7.2,6.3,3.3,7.8
						c-2.1,0.8-2.3-1.8-2.7-3.2C283.2,181,279.1,179.9,283.1,178.3L283.1,178.3z"/>
				</g>
				<path id="path972" inkscape:connector-curvature="0" class="st31" d="M283.5,179.5c2-0.8,4.8,3.9,2.3,5
					c-1.7,0.7-3.1-0.2-3.6-1.6C281.6,181.4,282.1,180.1,283.5,179.5z"/>
				<path id="path974" inkscape:connector-curvature="0" class="st24" d="M431.3,217.5l-16.9-9.8l-18,7.7l16.9,9.8L431.3,217.5z"/>
				<path id="path976" inkscape:connector-curvature="0" class="st25" d="M414.2,211.1c-4.3-0.3-8,1.9-8.2,4.8
					c-0.2,2.9,3.2,5.5,7.5,5.7c4.3,0.3,8-1.9,8.2-4.8C421.9,213.9,418.5,211.4,414.2,211.1L414.2,211.1z"/>
				<path id="path978" inkscape:connector-curvature="0" class="st6" d="M451.7,210.5l-18.3,6.9l15.1,10.1
					C452.4,226.2,455.5,212.9,451.7,210.5L451.7,210.5z"/>
				<path id="path980" inkscape:connector-curvature="0" class="st26" d="M451.4,213.9c-4.3-0.4-8.1,1.5-8.4,4.4
					c-0.3,2.9,3,5.6,7.3,6c2.8,0.3,4.6-2.2,4.9-4.8C455.5,216.9,454.3,214.2,451.4,213.9z"/>
				<g id="g1006">
					<g id="g990" transform="scale(-0.99997,-1)">
						<path id="path982" inkscape:connector-curvature="0" class="st18" d="M-394-218.6c1.4,0,2.5-1.1,2.5-2.5
							c0-1.4-1.1-2.5-2.5-2.5s-2.5,1.1-2.5,2.5C-396.4-219.7-395.3-218.6-394-218.6z"/>
						<path id="path984" inkscape:connector-curvature="0" class="st18" d="M-431.5-220.6c1.4,0,2.5-1.1,2.5-2.5
							c0-1.4-1.1-2.5-2.5-2.5c-1.4,0-2.5,1.1-2.5,2.5C-433.9-221.7-432.8-220.6-431.5-220.6z"/>
						<path id="path986" inkscape:connector-curvature="0" class="st18" d="M-432.8-209.3c1.4,0,2.5-1.1,2.5-2.5
							c0-1.4-1.1-2.5-2.5-2.5c-1.4,0-2.5,1.1-2.5,2.5C-435.3-210.4-434.2-209.3-432.8-209.3z"/>
						<path id="path988" inkscape:connector-curvature="0" class="st18" d="M-394-207.7c1.4,0,2.5-1.1,2.5-2.5
							c0-1.4-1.1-2.5-2.5-2.5c-1.4,0-2.5,1.1-2.5,2.5C-396.5-208.8-395.4-207.7-394-207.7z"/>
					</g>
					<path id="path992" inkscape:connector-curvature="0" class="st11" d="M311.8,141.6c2.7,0,4.9,2.2,4.9,4.9
						c0,2.7-2.2,4.9-4.9,4.9c-2.7,0-4.9-2.2-4.9-4.9C306.9,143.8,309.1,141.6,311.8,141.6z"/>
					<path id="path994" inkscape:connector-curvature="0" class="st11" d="M308.2,133.5c2.7,0,4.9,2.2,4.9,4.9s-2.2,4.9-4.9,4.9
						c-2.7,0-4.9-2.2-4.9-4.9C303.3,135.7,305.5,133.5,308.2,133.5z"/>
					<path id="path996" inkscape:connector-curvature="0" class="st18" d="M320,104.8c2.6,0,4.7,2.1,4.7,4.7c0,2.6-2.1,4.7-4.7,4.7
						c-2.6,0-4.7-2.1-4.7-4.7C315.2,106.9,317.4,104.8,320,104.8z"/>
					<g id="g1004" transform="scale(0.99998,-1)">
						<path id="path998" inkscape:connector-curvature="0" class="st11" d="M312-108.4c2.7,0,4.9-2.2,4.9-4.9c0-2.7-2.2-4.9-4.9-4.9
							c-2.7,0-4.9,2.2-4.9,4.9C307.1-110.6,309.3-108.4,312-108.4z"/>
						<path id="path1000" inkscape:connector-curvature="0" class="st11" d="M306.2-115.3c2.7,0,4.9-2.2,4.9-4.9
							c0-2.7-2.2-4.9-4.9-4.9c-2.7,0-4.9,2.2-4.9,4.9C301.3-117.5,303.5-115.3,306.2-115.3z"/>
						<path id="path1002" inkscape:connector-curvature="0" class="st11" d="M305.2-124.1c2.7,0,4.9-2.2,4.9-4.9
							c0-2.7-2.2-4.9-4.9-4.9c-2.7,0-4.9,2.2-4.9,4.9C300.3-126.2,302.5-124.1,305.2-124.1z"/>
					</g>
				</g>
				<path id="path1008" inkscape:connector-curvature="0" class="st6" d="M377.3,69.2c1.3,0,2.3-1.1,2.3-2.4s-1-2.4-2.3-2.4
					c0-1.3-1.1-2.4-2.4-2.4c-1.3,0-2.4,1.1-2.4,2.4c-1.3,0-2.3,1.1-2.3,2.4s1,2.4,2.3,2.4v4.9h-4.2c0-1.3-1.1-2.4-2.4-2.4
					c-1.3,0-2.4,1-2.4,2.3c-1.3,0-2.4,1.1-2.4,2.4s1.1,2.4,2.4,2.4c0,1.3,1.1,2.3,2.4,2.3c1.3,0,2.3-1,2.4-2.3h4.2v16.3h4.8V78.9
					h4.2c0.1,1.3,1.1,2.3,2.4,2.3c1.3,0,2.4-1,2.4-2.3c1.3,0,2.4-1.1,2.4-2.4s-1.1-2.4-2.4-2.4c0-1.3-1.1-2.3-2.4-2.3
					c-1.3,0-2.4,1.1-2.4,2.4h-4.2V69.2z"/>
				<path id="path1010" inkscape:connector-curvature="0" class="st32" d="M375,84.6c7.3,0,13.2,5.9,13.2,13.2
					c0,7.3-5.9,13.2-13.2,13.2c-7.3,0-13.2-5.9-13.2-13.2C361.7,90.6,367.7,84.6,375,84.6z"/>
				<path id="path1012" inkscape:connector-curvature="0" class="st33" d="M375,84.6c0.8,0,1.6,0.1,2.4,0.2v10.4h-4.8V84.9
					C373.3,84.7,374.1,84.6,375,84.6z"/>
				<g id="g1032">
					<path id="path1014" inkscape:connector-curvature="0" class="st6" d="M387.9,95.2c0.2,0.9,0.3,1.8,0.3,2.7c0,0.6,0,1.3-0.1,1.9
						c-4.3-0.1-8.7-0.2-13.1-0.2c-4.4,0-8.7,0.1-13.1,0.2c-0.1-0.6-0.1-1.2-0.1-1.9c0-0.9,0.1-1.8,0.3-2.7c4.3-0.2,8.6-0.2,12.9-0.2
						C379.3,94.9,383.6,95,387.9,95.2L387.9,95.2z"/>
					<path id="path1016" inkscape:connector-curvature="0" class="st7" d="M364.7,106.1c-2.8-1.7-3.3,0.9-3.2,3.6
						c0.3,10.1,2.2,19.7-0.5,32.1c-1.1,5-2.8,7.7-1.1,8.7c4.4,2.4,6.4,4.7,5.7,5.9c1.3,2.5,4.5,2,9.4,1.2c4.9,0.8,8.2,1.3,9.4-1.2
						c-0.7-1.2,1.3-3.4,5.7-5.9c1.7-1,0-3.7-1.1-8.7c-2.7-12.4-0.8-22-0.5-32.1c0.1-2.7-0.4-5.4-3.2-3.6
						C379.7,109.5,370.3,109.5,364.7,106.1L364.7,106.1z"/>
					<g id="g1030" transform="scale(0.99998,-1)">
						<path id="path1018" inkscape:connector-curvature="0" class="st34" d="M375-144.2c2.9,0,5.3-2.3,5.3-5.3
							c0-2.9-2.4-5.3-5.3-5.3c-2.9,0-5.3,2.3-5.3,5.3C369.7-146.5,372.1-144.2,375-144.2z"/>
						<path id="path1020" inkscape:connector-curvature="0" class="st34" d="M375-135.1c2.9,0,5.3-2.4,5.3-5.3
							c0-2.9-2.4-5.3-5.3-5.3c-2.9,0-5.3,2.3-5.3,5.3C369.7-137.4,372.1-135.1,375-135.1z"/>
						<path id="path1022" inkscape:connector-curvature="0" class="st34" d="M375-126.3c2.9,0,5.3-2.3,5.3-5.3
							c0-2.9-2.4-5.2-5.3-5.2c-2.9,0-5.3,2.3-5.3,5.2C369.7-128.7,372.1-126.3,375-126.3z"/>
						<path id="path1024" inkscape:connector-curvature="0" class="st34" d="M375-101.5c2.9,0,5.3-2.3,5.3-5.2
							c0-2.9-2.4-5.3-5.3-5.3c-2.9,0-5.3,2.3-5.3,5.3C369.7-103.8,372.1-101.5,375-101.5z"/>
						<path id="path1026" inkscape:connector-curvature="0" class="st34" d="M375-109.2c2.9,0,5.3-2.3,5.3-5.3
							c0-2.9-2.4-5.3-5.3-5.3c-2.9,0-5.3,2.4-5.3,5.3C369.7-111.5,372.1-109.2,375-109.2z"/>
						<path id="path1028" inkscape:connector-curvature="0" class="st34" d="M375-117.6c2.9,0,5.3-2.3,5.3-5.3
							c0-2.9-2.4-5.2-5.3-5.2c-2.9,0-5.3,2.3-5.3,5.2C369.7-119.9,372.1-117.6,375-117.6z"/>
					</g>
				</g>
				<g id="g1040">
					<path id="path1034" inkscape:connector-curvature="0" class="st35" d="M369,155.6c-2.1-3.8-4.3-6.3-6.6-7.4
						c3.2-10.1,4-23,2.1-39c-0.2-2.4-0.8-3.4-1.7-3.4c-0.8,0-1.3,1.2-1.4,4c0.6,8.8,1.3,16.5,0.9,23c-0.4,5.8-1.7,10.7-3.3,16.2
						c-0.2,0.8,0.3,1.4,3,2.8c2,1.1,3.2,2.5,3.6,3.9c0.6-0.2,0.9-0.2,1.1-0.1C368.7,156.2,369.5,156.1,369,155.6L369,155.6z"/>
					<path id="path1036" inkscape:connector-curvature="0" class="st35" d="M380.9,155.6c2.1-3.8,4.3-6.3,6.6-7.4
						c-3.2-10.1-4-23-2.1-39c0.2-2.4,0.8-3.4,1.7-3.4c0.8,0,1.3,1.2,1.4,4c-0.6,8.8-1.3,16.5-0.9,23c0.4,5.8,1.7,10.7,3.3,16.2
						c0.2,0.8-0.3,1.4-3,2.8c-2,1.1-3.2,2.5-3.6,3.9c-0.6-0.2-0.9-0.2-1.1-0.1C381.2,156.2,380.4,156.1,380.9,155.6L380.9,155.6z"/>
					<path id="path1038" inkscape:connector-curvature="0" class="st8" d="M378.7,153.7c0.8,1.2,0.6,1.4,1,1.8
						c0.6,0.5,1.7,0.5,2.7,0.3c4-0.6,3.5,1.8,1.7,4.5c-0.9,1.4-3,2.7-4.1,3.9c-1.1,1.2-1.2,2.1-1.6,2.4c-1.6,0-2.9,0-3.5,0
						c-0.6,0-1.9,0-3.5,0c-0.4-0.3-0.5-1.3-1.6-2.4c-1.1-1.2-3.2-2.5-4-3.9c-1.8-2.7-2.3-5.2,1.7-4.5c1,0.2,2,0.2,2.7-0.3
						c0.5-0.4,0.3-0.6,1-1.8c0.5-0.8,1.1-1.4,1.7-1.8c0.6-0.4,1.3-0.2,2-0.2c0.7,0,1.4-0.2,2,0.2
						C377.6,152.4,378.2,152.9,378.7,153.7L378.7,153.7z"/>
				</g>
			</g>
			<path id="path1044" inkscape:connector-curvature="0" class="st9" d="M374.3,166.9l-0.7-0.1c-0.4-2.9-1.5-5.3-3.3-7.4
				C372.4,160.8,373.9,163.8,374.3,166.9"/>
			<path id="path1046" inkscape:connector-curvature="0" class="st9" d="M375.6,166.9l0.7-0.1c0.4-2.9,1.5-5.3,3.3-7.4
				C377.5,160.8,376,163.8,375.6,166.9"/>
			<path id="path1048" inkscape:connector-curvature="0" class="st6" d="M384.2,155.8c-0.4,0.9-0.7,1.8-1.5,2.6
				c-1.2,1.2-3.2,0.4-5.1-1.2c-0.6-0.5-1.7-0.7-2.7-0.7c-1.1,0-2.1,0.3-2.7,0.7c-1.9,1.6-3.9,2.4-5.1,1.2c-0.8-0.8-1.2-1.8-1.5-2.6
				c0.5-0.1,1.1-0.1,1.8,0c1,0.2,2,0.2,2.7-0.3c0.5-0.4,0.3-0.6,1-1.8c0.5-0.8,1.1-1.4,1.7-1.8s1.3-0.2,2-0.2c0.7,0,1.4-0.2,2,0.2
				c0.6,0.4,1.2,1,1.7,1.8c0.7,1.2,0.6,1.4,1,1.8c0.6,0.5,1.7,0.5,2.7,0.3C383.2,155.8,383.8,155.8,384.2,155.8L384.2,155.8z"/>
			<path id="path1050" inkscape:connector-curvature="0" class="st8" d="M356.7,168.3c1.2-0.8,1.4-0.6,1.8-1
				c0.5-0.6,0.5-1.7,0.3-2.7c-0.6-4,1.8-3.5,4.5-1.7c1.4,0.9,2.7,3,3.9,4c1.2,1.1,2.1,1.2,2.4,1.6c0,1.5,0,2.9,0,3.5v0
				c0,0.6,0,1.9,0,3.5c-0.3,0.4-1.3,0.5-2.4,1.6c-1.2,1.1-2.5,3.2-3.9,4c-2.7,1.8-5.2,2.3-4.5-1.7c0.2-1,0.2-2-0.3-2.7
				c-0.4-0.5-0.6-0.3-1.8-1c-0.8-0.5-1.4-1.1-1.8-1.7c-0.4-0.6-0.2-1.3-0.2-2c0-0.7-0.2-1.4,0.2-2
				C355.3,169.4,355.9,168.8,356.7,168.3z"/>
			<path id="path1052" inkscape:connector-curvature="0" class="st9" d="M369.9,172.6l-0.1,0.7c-2.9,0.4-5.3,1.5-7.3,3.3
				C363.8,174.6,366.7,173.1,369.9,172.6"/>
			<path id="path1054" inkscape:connector-curvature="0" class="st9" d="M369.9,171.4l-0.1-0.7c-2.9-0.4-5.3-1.5-7.3-3.3
				C363.8,169.4,366.7,170.9,369.9,171.4"/>
			<path id="path1056" inkscape:connector-curvature="0" class="st8" d="M358.8,162.7c0.9,0.4,1.8,0.7,2.6,1.5
				c1.2,1.2,0.4,3.2-1.2,5.1c-0.5,0.6-0.7,1.7-0.7,2.7c0,1.1,0.2,2.1,0.7,2.7c1.6,1.9,2.4,3.9,1.2,5.1c-0.8,0.8-1.8,1.2-2.6,1.5
				c-0.1-0.5-0.1-1.1,0-1.8c0.2-1,0.2-2-0.3-2.7c-0.4-0.5-0.6-0.3-1.8-1.1c-0.8-0.5-1.4-1.1-1.8-1.7c-0.4-0.6-0.2-1.3-0.2-2
				s-0.2-1.4,0.2-2c0.4-0.6,1-1.2,1.8-1.7c1.2-0.7,1.4-0.6,1.8-1c0.5-0.6,0.5-1.7,0.3-2.7C358.7,163.8,358.7,163.2,358.8,162.7
				L358.8,162.7z"/>
			<path id="path1058" inkscape:connector-curvature="0" class="st8" d="M393.2,175.7c-1.2,0.8-1.4,0.6-1.8,1
				c-0.5,0.6-0.5,1.7-0.3,2.7c0.6,4-1.8,3.5-4.5,1.7c-1.4-0.9-2.7-3-3.9-4c-1.2-1.1-2.1-1.2-2.4-1.6c0-1.5,0-2.9,0-3.5v0
				c0-0.6,0-1.9,0-3.5c0.3-0.4,1.3-0.5,2.4-1.6c1.2-1.1,2.5-3.2,3.9-4c2.7-1.8,5.2-2.3,4.5,1.7c-0.2,1-0.2,2,0.3,2.7
				c0.4,0.5,0.6,0.3,1.8,1c0.8,0.5,1.4,1.1,1.8,1.7c0.4,0.6,0.2,1.3,0.2,2c0,0.7,0.2,1.4-0.2,2C394.6,174.6,394,175.2,393.2,175.7z"
				/>
			<path id="path1060" inkscape:connector-curvature="0" class="st9" d="M380,171.4l0.1-0.7c2.9-0.4,5.3-1.5,7.3-3.3
				C386.1,169.4,383.2,170.9,380,171.4"/>
			<path id="path1062" inkscape:connector-curvature="0" class="st9" d="M380,172.6l0.1,0.7c2.9,0.4,5.3,1.5,7.3,3.3
				C386.1,174.6,383.2,173.1,380,172.6"/>
			<g id="g1076">
				<g id="g1072">
					<path id="path1064" inkscape:connector-curvature="0" class="st8" d="M391.1,181.3c-0.9-0.4-1.8-0.7-2.6-1.5
						c-1.2-1.2-0.4-3.2,1.2-5.1c0.5-0.6,0.7-1.7,0.7-2.7c0-1.1-0.2-2.1-0.7-2.7c-1.6-1.9-2.4-3.9-1.2-5.1c0.8-0.8,1.8-1.2,2.6-1.5
						c0.1,0.5,0.1,1.1,0,1.8c-0.2,1-0.2,2,0.3,2.7c0.4,0.5,0.6,0.3,1.8,1c0.8,0.5,1.4,1.1,1.8,1.7c0.4,0.6,0.2,1.3,0.2,2
						s0.2,1.4-0.2,2c-0.4,0.6-1,1.2-1.8,1.7c-1.2,0.8-1.4,0.6-1.8,1.1c-0.5,0.6-0.5,1.7-0.3,2.7
						C391.2,180.2,391.2,180.8,391.1,181.3L391.1,181.3z"/>
					<g id="g1070" transform="scale(0.99998,-1)">
						<path id="path1066" inkscape:connector-curvature="0" class="st13" d="M375-166.1c3.3,0,6-2.7,6-5.9c0-3.3-2.7-6-6-6
							c-3.3,0-6,2.7-6,6C369-168.7,371.7-166.1,375-166.1z"/>
						<path id="path1068" inkscape:connector-curvature="0" class="st36" d="M375-167.6c2.4,0,4.4-2,4.4-4.4c0-2.4-2-4.4-4.4-4.4
							c-2.4,0-4.4,2-4.4,4.4C370.6-169.6,372.5-167.6,375-167.6z"/>
					</g>
				</g>
				<path id="path1074" inkscape:connector-curvature="0" class="st37" d="M375,169.2c1.5,0,2.8,1.2,2.8,2.7c0,1.5-1.2,2.8-2.8,2.8
					c-1.5,0-2.8-1.2-2.8-2.8C372.2,170.5,373.4,169.2,375,169.2z"/>
			</g>
			<path id="path1078" inkscape:connector-curvature="0" class="st9" d="M281.7,177.2l0.5-0.2c-1.2-1.6-1.4-3.2-1-4.8
				C280.3,173.4,280.5,175.4,281.7,177.2"/>
			<path id="path1080" inkscape:connector-curvature="0" class="st6" d="M320,157.1c1,1.3,0.9,1.6,1.5,2c0.7,0.5,1.7,0.3,2.6,0
				c3.7-1.4,3.7,1.5,2.7,4.9c-0.5,1.6-2.1,3.4-2.8,4.8c-0.7,1.4-0.5,2.4-0.9,2.7c-1.4,0.2-2.5,0.4-3,0.5h0c-0.5,0.1-1.7,0.2-3,0.4
				c-0.4-0.2-0.8-1.2-2-2.3c-1.2-1.1-3.4-2.2-4.5-3.5c-2.3-2.7-3.6-5.2,0.1-5.1c0.9,0,1.8-0.1,2.2-0.8c0.3-0.5,0.1-0.7,0.4-2.2
				c0.2-1,0.6-1.8,1-2.3c0.5-0.6,1.2-0.4,1.8-0.6c0.6-0.1,1.2-0.5,1.9-0.1C318.6,155.6,319.3,156.2,320,157.1L320,157.1z"/>
			<path id="path1082" inkscape:connector-curvature="0" class="st9" d="M319.5,172c-0.2,0-0.4,0-0.6,0c-1.1-2.9-2.7-5.3-4.9-7.3
				C316.2,165.9,318.3,168.8,319.5,172"/>
			<path id="path1084" inkscape:connector-curvature="0" class="st9" d="M320.5,171.8c0.2-0.1,0.4-0.1,0.6-0.2
				c-0.4-3,0.1-5.8,1.2-8.3C320.8,165.2,320.2,168.5,320.5,171.8"/>
			<path id="path1086" inkscape:connector-curvature="0" class="st6" d="M325.8,158.6c-0.1,1.1-0.3,2.3-0.8,3.3
				c-0.8,1.6-2.8,1-5-0.5c-0.7-0.5-1.7-0.6-2.7-0.4c-1,0.2-1.8,0.6-2.2,1.2c-1.2,2-2.7,3.1-4.1,2c-0.9-0.8-1.5-1.7-2.1-2.7
				c0.4-0.2,0.9-0.2,1.6-0.2c0.9,0,1.8-0.1,2.2-0.8c0.3-0.5,0.1-0.7,0.4-2.2c0.2-1,0.6-1.8,1-2.3c0.5-0.6,1.2-0.4,1.8-0.6
				c0.6-0.1,1.2-0.5,1.9-0.1c0.7,0.4,1.4,0.9,2.1,1.8c1,1.3,0.9,1.6,1.5,2c0.7,0.5,1.7,0.3,2.6,0
				C324.8,158.7,325.4,158.6,325.8,158.6L325.8,158.6z"/>
			<path id="path1088" inkscape:connector-curvature="0" class="st38" d="M305.4,173.3c0.6-0.7,0.8-0.6,0.9-1
				c0.1-0.6-0.2-1.5-0.7-2.4c-1.8-3.5,0.1-3.2,2.7-1.8c0.7,0.3,1.4,1,2.2,1.6c0.8,0.6,1.5,1.3,2.1,1.8c1.3,0.9,2.1,0.9,2.5,1.3
				c0.6,1.4,1,2.6,1.2,3.2v0c0.2,0.6,0.7,1.8,1.2,3.2c-0.1,0.4-0.8,0.5-1.4,1.5c-0.5,1-1,2.8-1.6,3.7c-1,1.3-1.9,2-2.6,1.9
				c-0.7-0.1-1.2-1.1-1.4-3.3c-0.1-0.9-0.6-1.8-1.1-2.3c-0.5-0.4-0.5-0.2-1.7-0.9c-0.7-0.4-1.3-0.9-1.8-1.4
				c-0.5-0.5-0.6-1.1-0.8-1.7c-0.2-0.6-0.6-1.2-0.5-1.7C304.8,174.3,305,173.8,305.4,173.3L305.4,173.3z"/>
			<path id="path1090" inkscape:connector-curvature="0" class="st9" d="M316.7,177.1c0.1,0.2,0.1,0.5,0.2,0.7
				c-1.1,0.3-2,0.7-2.8,1.3c-0.8,0.6-1.4,1.4-1.9,2.4c0.2-1.1,0.7-2,1.5-2.8C314.5,178,315.6,177.4,316.7,177.1"/>
			<path id="path1092" inkscape:connector-curvature="0" class="st9" d="M316.3,175.8c-0.1-0.2-0.2-0.5-0.3-0.7
				c-1.2-0.1-2.4-0.4-3.6-0.9c-1.2-0.5-2.3-1.2-3.4-2c0.9,1,2.1,1.8,3.3,2.5C313.5,175.3,315,175.7,316.3,175.8"/>
			<path id="path1094" inkscape:connector-curvature="0" class="st7" d="M305.1,167.7c0.8,0.3,1.3,0.6,2.2,1.4
				c0.7,0.5,1,1.3,1.2,2.3c0.1,0.9,0,1.9-0.2,3c-0.2,0.6,0,1.7,0.4,2.8c0.4,1.1,0.9,2.1,1.5,2.7c1.9,1.9,3.2,3.9,2.7,5.1
				c-0.3,0.8-0.6,1-1.1,1.4c-0.2-0.5-0.8-0.9-0.9-1.6c-0.2-1-0.6-2-1.2-2.7c-0.5-0.5-0.6-1-1.7-1.7c-0.7-0.5-1.4-0.3-1.9-0.9
				c-1-1.2-2.3-4.1-1-5.4c1.2-1.3,1.7-2.1,0.6-4.3C305.2,168.7,305.2,168.2,305.1,167.7L305.1,167.7z"/>
			<path id="path1096" inkscape:connector-curvature="0" class="st39" d="M338,177.2c-1,0.8-1.2,0.7-1.5,1.2
				c-0.4,0.7-0.2,1.6,0.1,2.5c1.2,3.6-1,3.3-3.7,1.9c-1.3-0.7-2.9-2.5-4.1-3.3c-1.2-0.9-2.1-0.9-2.4-1.2c-0.3-1.4-0.6-2.7-0.7-3.3
				l0,0c-0.1-0.6-0.4-1.9-0.7-3.4c0.2-0.5,1-0.7,1.8-1.9c0.8-1.2,1.7-3.5,2.7-4.7c2.2-2.3,4.4-3.3,4.6,1.1c0,1.1,0.2,2.2,0.8,2.7
				c0.5,0.5,0.6,0.2,1.9,0.8c0.8,0.4,1.5,0.9,1.9,1.5c0.5,0.6,0.4,1.3,0.5,2c0.1,0.7,0.4,1.3,0.1,2C339.1,176,338.6,176.6,338,177.2
				L338,177.2z"/>
			<path id="path1098" inkscape:connector-curvature="0" class="st9" d="M325.5,174.4c0-0.2,0-0.4-0.1-0.7c2.5-0.7,4.4-2.1,5.9-4.1
				C330.5,171.8,328.2,173.6,325.5,174.4"/>
			<path id="path1100" inkscape:connector-curvature="0" class="st9" d="M325.8,175.6c0.1,0.2,0.1,0.4,0.2,0.6
				c2.6,0,4.9,0.9,7.1,2.4C331.5,176.8,328.6,175.7,325.8,175.6"/>
			<g id="g1204">
				<g id="g1110">
					<path id="path1102" inkscape:connector-curvature="0" class="st40" d="M336.9,182.6c-0.8-0.3-1.7-0.5-2.6-1.2
						c-1.3-1-0.9-2.9,0.2-4.9c0.4-0.6,0.4-1.7,0.2-2.7c-0.2-1-0.6-2.1-1.1-2.6c-1.8-1.7-2.9-3.6-2-5c0.6-0.9,1.4-1.5,2.2-2
						c0.2,0.5,0.3,1.1,0.3,2c0,1.1,0.2,2.2,0.8,2.7c0.5,0.5,0.6,0.2,1.9,0.8c0.8,0.4,1.5,0.9,1.9,1.5c0.5,0.6,0.4,1.3,0.5,2
						c0.1,0.7,0.4,1.4,0.1,2c-0.3,0.7-0.7,1.3-1.4,1.8c-1,0.8-1.2,0.7-1.5,1.2c-0.3,0.7-0.2,1.6,0.1,2.5
						C336.8,181.6,336.9,182.2,336.9,182.6L336.9,182.6z"/>
					<g id="g1108" transform="scale(0.99997,-1)">
						<path id="path1104" inkscape:connector-curvature="0" class="st6" d="M319.9-169.7c3.1,0.1,6.1-2.5,6.5-5.8
							c0.4-3.3-1.7-5.8-4.7-5.9c-3,0-5.7,2.4-6.3,5.6C314.8-172.7,316.8-169.9,319.9-169.7z"/>
						<path id="path1106" inkscape:connector-curvature="0" class="st6" d="M320.1-171.3c2.3,0.1,4.4-1.8,4.8-4.3
							c0.3-2.4-1.2-4.3-3.4-4.3c-2.2,0-4.2,1.8-4.6,4.1C316.4-173.5,317.9-171.4,320.1-171.3L320.1-171.3z"/>
					</g>
				</g>
				<path id="path1112" inkscape:connector-curvature="0" class="st26" d="M320.4,173c1.4-0.1,2.8,1.1,3,2.7
					c0.2,1.5-0.8,2.7-2.1,2.7c-1.4,0-2.7-1.1-2.9-2.6C318,174.3,319,173,320.4,173L320.4,173z"/>
				<g id="g1124">
					<path id="path1114" inkscape:connector-curvature="0" class="st11" d="M434.3,149.6c-2.7,0-4.9,2.2-4.9,4.9s2.2,4.9,4.9,4.9
						c2.7,0,4.9-2.2,4.9-4.9C439.2,151.8,437,149.6,434.3,149.6z"/>
					<g id="g1122" transform="scale(-0.99997,-1)">
						<path id="path1116" inkscape:connector-curvature="0" class="st12" d="M-476.1-159.9c2.5,0,4.5-2,4.5-4.6c0-2.5-2-4.6-4.5-4.6
							c-2.5,0-4.6,2-4.6,4.6C-480.6-161.9-478.6-159.9-476.1-159.9z"/>
						<path id="path1118" inkscape:connector-curvature="0" class="st12" d="M-480.4-151.6c2.5,0,4.6-2,4.6-4.6c0-2.5-2-4.6-4.6-4.6
							c-2.5,0-4.6,2-4.6,4.6C-485-153.6-482.9-151.6-480.4-151.6z"/>
						<path id="path1120" inkscape:connector-curvature="0" class="st12" d="M-484.5-143.2c2.5,0,4.6-2,4.6-4.6c0-2.5-2-4.6-4.6-4.6
							s-4.6,2-4.6,4.6C-489.1-145.2-487-143.2-484.5-143.2z"/>
					</g>
				</g>
				<path id="path1126" inkscape:connector-curvature="0" class="st14" d="M404.1,158.8c-2.6-0.2-2,4.5-1.5,5.5
					c0.7,1.4,1.3,1.4,2.2,0.1C405.4,163.5,406.7,159,404.1,158.8L404.1,158.8z"/>
				<path id="path1128" inkscape:connector-curvature="0" class="st15" d="M403.9,161.3c-6.2-0.4-4.6,10.6-3.4,13
					c1.6,3.2,3.1,3.3,5.1,0.3C407.1,172.4,410.1,161.7,403.9,161.3z"/>
				<path id="path1130" inkscape:connector-curvature="0" class="st16" d="M453.7,165.4c-2.5-0.8-3,3.9-2.7,5
					c0.3,1.5,0.9,1.7,2.1,0.7C453.9,170.3,456.2,166.2,453.7,165.4L453.7,165.4z"/>
				<path id="path1132" inkscape:connector-curvature="0" class="st17" d="M453,167.8c-5.9-1.9-7,9.2-6.4,11.8
					c0.8,3.5,2.2,3.9,4.9,1.5C453.4,179.4,458.9,169.7,453,167.8L453,167.8z"/>
				<g id="g1142" transform="scale(-0.99997,-1)">
					<path id="path1134" inkscape:connector-curvature="0" class="st7" d="M-388.8-109.6c-13.3,1.2-26.8-0.2-40.2-5.5
						c-11.3-4.5-10.2-17.6,3.6-35.8c-1.2-2.3-2-5.2-2.1-8.5c1.5,0.1,2.5,0,3.8,0.1c-1,2.2,0.1,4.9,1.4,6.8c0.8,1.2,1,1,0,2.4
						c-8.2,11.4-13.7,21.5-10.5,27.5c3.9,7.4,19,11.2,44.4,10.6c0,0.7-0.1,1.4-0.1,2C-388.6-109.8-388.7-109.7-388.8-109.6
						L-388.8-109.6z"/>
					<g id="g1140">
						<path id="path1136" inkscape:connector-curvature="0" class="st18" d="M-453.1-113.4c2.6,0,4.7-2.1,4.7-4.7s-2.1-4.7-4.7-4.7
							c-2.6,0-4.7,2.1-4.7,4.7S-455.7-113.4-453.1-113.4z"/>
						<path id="path1138" inkscape:connector-curvature="0" class="st18" d="M-443.8-110.3c2.6,0,4.7-2.1,4.7-4.7
							c0-2.6-2.1-4.7-4.7-4.7c-2.6,0-4.7,2.1-4.7,4.7C-448.6-112.4-446.5-110.3-443.8-110.3z"/>
					</g>
				</g>
				<g id="g1152">
					<path id="path1144" inkscape:connector-curvature="0" class="st6" d="M442.6,114.4c-0.5,0.6-0.9,1.2-1.4,1.9
						c7.5,4.1,10.6,8.4,9.8,12.8c-0.1,0.7-2.4,8.7-7.5,24.1c-3.5,2.4-6,4.5-7.8,6.4c0.2,0.2-0.5,0.9-0.3,1.1
						c-0.5,2.4,2.1,1.9,3.9,1.3c0.9-2.3,3.5-4.7,5-5.7c0.3-0.2,1.4-0.7,1.5-1.1c2.7-8.7,5.4-16.7,7.8-24.1
						C456,123.4,450.9,118.1,442.6,114.4L442.6,114.4z"/>
					<path id="path1146" inkscape:connector-curvature="0" class="st19" d="M472.1,170l0.3,1.5c2.2,0.5,4,0.6,5.6,0.4
						C475.3,169.4,473.4,168.9,472.1,170L472.1,170z"/>
					<path id="path1148" inkscape:connector-curvature="0" class="st20" d="M472.3,166.6c-1.4,0.3-1.5,0.5-2.1,0.6
						c-0.8,0.1-1.8,0.1-2.5-0.6c-3-1.8-3,1.4-1.9,3.8c0.8,1.7,0.4,3.7-0.4,5.2c-0.9,1.8-0.7,2.5-0.1,3c0.5,0.3,0.9,0.6,1.3,0.8
						c0.8,0.9,1.4,0.8,1.5-0.5c2.9-1.2,3.9-4,4.8-6.5C474.2,168.9,478.9,168,472.3,166.6L472.3,166.6z"/>
					<path id="path1150" inkscape:connector-curvature="0" class="st21" d="M471.1,166.7c-2.6,0.9-2.9-0.5-4.6-0.4
						c0.7,3.9,1.4,6,5.5,3.9c2.3-1.2,5.2,0.5,5.7,1.8c0.2,0.5,1.5-0.5,2-1.6C481.7,166,474.6,165.5,471.1,166.7L471.1,166.7z"/>
				</g>
				<g id="g1174">
					<g id="g1162" transform="scale(-0.99998,-1)">
						<path id="path1154" inkscape:connector-curvature="0" class="st22" d="M-392.9-99.5c2.6,0,4.7-2.1,4.7-4.7
							c0-2.6-2.1-4.7-4.7-4.7c-2.6,0-4.7,2.1-4.7,4.7C-397.6-101.6-395.5-99.5-392.9-99.5z"/>
						<path id="path1156" inkscape:connector-curvature="0" class="st22" d="M-402.5-99.5c2.6,0,4.7-2.1,4.7-4.7
							c0-2.6-2.1-4.7-4.7-4.7c-2.6,0-4.7,2.1-4.7,4.7C-407.2-101.6-405.1-99.5-402.5-99.5z"/>
						<path id="path1158" inkscape:connector-curvature="0" class="st22" d="M-412.2-100.2c2.6,0,4.7-2.1,4.7-4.7
							c0-2.6-2.1-4.7-4.7-4.7c-2.6,0-4.7,2.1-4.7,4.7C-416.9-102.3-414.8-100.2-412.2-100.2z"/>
						<path id="path1160" inkscape:connector-curvature="0" class="st22" d="M-421-101.9c2.6,0,4.7-2.1,4.7-4.7
							c0-2.6-2.1-4.7-4.7-4.7s-4.7,2.1-4.7,4.7C-425.8-104-423.6-101.9-421-101.9z"/>
					</g>
					<g id="g1172" transform="scale(-0.99997,-1)">
						<path id="path1164" inkscape:connector-curvature="0" class="st18" d="M-479.5-126.2c2.6,0,4.7-2.1,4.7-4.7s-2.1-4.7-4.7-4.7
							c-2.6,0-4.7,2.1-4.7,4.7S-482.1-126.2-479.5-126.2z"/>
						<path id="path1166" inkscape:connector-curvature="0" class="st18" d="M-471.4-121.1c2.6,0,4.7-2.1,4.7-4.7
							c0-2.6-2.1-4.7-4.7-4.7c-2.6,0-4.7,2.1-4.7,4.7C-476.1-123.2-474-121.1-471.4-121.1z"/>
						<path id="path1168" inkscape:connector-curvature="0" class="st18" d="M-462.2-116.7c2.6,0,4.7-2.1,4.7-4.7
							c0-2.6-2.1-4.7-4.7-4.7c-2.6,0-4.7,2.1-4.7,4.7C-466.9-118.9-464.8-116.7-462.2-116.7z"/>
						<path id="path1170" inkscape:connector-curvature="0" class="st18" d="M-485.8-133.8c2.6,0,4.7-2.1,4.7-4.7
							c0-2.6-2.1-4.7-4.7-4.7c-2.6,0-4.7,2.1-4.7,4.7C-490.5-136-488.4-133.8-485.8-133.8z"/>
					</g>
				</g>
				<g id="g1184">
					<path id="path1176" inkscape:connector-curvature="0" class="st27" d="M460.5,185.7c-1.9-0.6-4.8,3.5-5.5,3.5
						c-0.9-2.4,0.9-8,4.3-12.4c2.2-0.7,2.4-2.2,2.9-5.5c0.1-1,2.1-0.3,2.1,1.4c0,1.8,0.2,2.8-0.2,4.4c-0.2,0.6-0.1,1.2,0.6,1.8
						C461.2,180.2,460.4,181.9,460.5,185.7z"/>
					<path id="path1178" inkscape:connector-curvature="0" class="st28" d="M462.2,171.3c0.3,0.8,0.4,1.4,0.5,2.6
						c0.1,0.9-0.3,1.7-0.8,2.5c-0.6,0.7-1.4,1.4-2.3,1.9c-0.6,0.3-1.2,1.2-1.7,2.3c-0.5,1-0.9,2.2-0.9,3c-0.1,2.7-0.6,5.1-1.9,5.6
						c-0.8,0.3-1.1,0.3-1.8,0.1c0.2-0.5,0.1-1.2,0.6-1.9c0.6-0.9,1.1-1.9,1.1-2.8c0-0.7,0.4-1.2,0.1-2.5c-0.2-0.9-0.8-1.2-0.7-2
						c0.2-1.6,1.4-4.6,3.3-4.6c1.8,0,2.6-0.2,3.6-2.6C461.5,172.1,461.9,171.7,462.2,171.3L462.2,171.3z"/>
					<path id="path1180" inkscape:connector-curvature="0" class="st29" d="M469,177.8c-0.5-0.4-1.1-0.7-1.6-0.9
						c-0.9-0.4-2-0.4-2.9-0.1c-4.3,1.3-6.2,8.9-1.5,10.7c0.9,0.1,1.8-0.7,2.6-2.6c1-2.4,2-4.1,3.2-5.1
						C469.4,179,469.4,178.3,469,177.8L469,177.8z"/>
					<path id="path1182" inkscape:connector-curvature="0" class="st30" d="M466.8,178.3c-4.1-1.6-7.2,6.3-3.3,7.8
						c2.1,0.8,2.3-1.8,2.7-3.2C466.7,181,470.8,179.9,466.8,178.3z"/>
				</g>
				<path id="path1186" inkscape:connector-curvature="0" class="st31" d="M466.4,179.5c-2-0.8-4.8,3.9-2.3,5
					c1.7,0.7,3.1-0.2,3.6-1.6C468.2,181.4,467.8,180.1,466.4,179.5z"/>
				<g id="g1202">
					<path id="path1188" inkscape:connector-curvature="0" class="st11" d="M438.1,141.6c-2.7,0-4.9,2.2-4.9,4.9
						c0,2.7,2.2,4.9,4.9,4.9c2.7,0,4.9-2.2,4.9-4.9C443,143.8,440.8,141.6,438.1,141.6z"/>
					<path id="path1190" inkscape:connector-curvature="0" class="st11" d="M441.7,133.5c-2.7,0-4.9,2.2-4.9,4.9s2.2,4.9,4.9,4.9
						c2.7,0,4.9-2.2,4.9-4.9C446.6,135.7,444.4,133.5,441.7,133.5z"/>
					<path id="path1192" inkscape:connector-curvature="0" class="st18" d="M429.9,104.8c-2.6,0-4.7,2.1-4.7,4.7
						c0,2.6,2.1,4.7,4.7,4.7s4.7-2.1,4.7-4.7C434.7,106.9,432.5,104.8,429.9,104.8z"/>
					<g id="g1200" transform="scale(-0.99998,-1)">
						<path id="path1194" inkscape:connector-curvature="0" class="st11" d="M-437.9-108.4c2.7,0,4.9-2.2,4.9-4.9
							c0-2.7-2.2-4.9-4.9-4.9c-2.7,0-4.9,2.2-4.9,4.9C-442.8-110.6-440.6-108.4-437.9-108.4z"/>
						<path id="path1196" inkscape:connector-curvature="0" class="st11" d="M-443.7-115.3c2.7,0,4.9-2.2,4.9-4.9
							c0-2.7-2.2-4.9-4.9-4.9c-2.7,0-4.9,2.2-4.9,4.9C-448.6-117.5-446.4-115.3-443.7-115.3z"/>
						<path id="path1198" inkscape:connector-curvature="0" class="st11" d="M-444.7-124.1c2.7,0,4.9-2.2,4.9-4.9
							c0-2.7-2.2-4.9-4.9-4.9c-2.7,0-4.9,2.2-4.9,4.9C-449.6-126.2-447.4-124.1-444.7-124.1z"/>
					</g>
				</g>
			</g>
			<path id="path1206" inkscape:connector-curvature="0" class="st9" d="M468.2,177.2l-0.5-0.2c1.2-1.6,1.4-3.2,1-4.8
				C469.7,173.4,469.4,175.4,468.2,177.2"/>
			<path id="path1208" inkscape:connector-curvature="0" class="st6" d="M429.9,157.1c-1,1.3-0.9,1.6-1.4,2c-0.7,0.5-1.7,0.3-2.6,0
				c-3.7-1.4-3.7,1.5-2.7,4.9c0.5,1.6,2.1,3.4,2.8,4.8c0.7,1.4,0.5,2.4,0.9,2.7c1.4,0.2,2.5,0.4,3.1,0.5h0c0.5,0.1,1.7,0.2,3,0.4
				c0.4-0.2,0.8-1.2,2-2.3c1.2-1.1,3.4-2.2,4.5-3.5c2.3-2.7,3.6-5.2-0.1-5.1c-0.9,0-1.8-0.1-2.2-0.8c-0.3-0.5-0.1-0.7-0.4-2.2
				c-0.2-1-0.6-1.8-1-2.3c-0.5-0.6-1.2-0.4-1.8-0.6c-0.6-0.1-1.2-0.5-1.9-0.1C431.3,155.6,430.5,156.2,429.9,157.1L429.9,157.1z"/>
			<path id="path1210" inkscape:connector-curvature="0" class="st9" d="M430.4,172c0.2,0,0.4,0,0.6,0c1.1-2.9,2.7-5.3,4.8-7.3
				C433.7,165.9,431.6,168.8,430.4,172"/>
			<path id="path1212" inkscape:connector-curvature="0" class="st9" d="M429.4,171.8c-0.2-0.1-0.4-0.1-0.6-0.2
				c0.4-3-0.1-5.8-1.2-8.3C429.1,165.2,429.7,168.5,429.4,171.8"/>
			<path id="path1214" inkscape:connector-curvature="0" class="st6" d="M424.1,158.6c0.1,1.1,0.3,2.3,0.8,3.3c0.8,1.6,2.8,1,5-0.5
				c0.7-0.5,1.7-0.6,2.7-0.4c1,0.2,1.8,0.6,2.2,1.2c1.2,2,2.7,3.1,4.1,2c0.9-0.8,1.5-1.7,2.1-2.7c-0.4-0.2-0.9-0.2-1.6-0.2
				c-0.9,0-1.8-0.1-2.2-0.8c-0.3-0.5-0.1-0.7-0.4-2.2c-0.2-1-0.6-1.8-1-2.3c-0.5-0.6-1.2-0.4-1.8-0.6c-0.6-0.1-1.2-0.5-1.9-0.1
				c-0.7,0.4-1.4,0.9-2.1,1.8c-1,1.3-0.9,1.6-1.5,2c-0.7,0.5-1.7,0.3-2.6,0C425.1,158.7,424.5,158.6,424.1,158.6L424.1,158.6z"/>
			<path id="path1216" inkscape:connector-curvature="0" class="st38" d="M444.5,173.3c-0.6-0.7-0.8-0.6-0.9-1
				c-0.1-0.6,0.2-1.5,0.7-2.4c1.8-3.5-0.1-3.2-2.7-1.8c-0.7,0.3-1.4,1-2.2,1.6c-0.8,0.6-1.5,1.3-2.2,1.8c-1.3,0.9-2.1,0.9-2.4,1.3
				c-0.6,1.4-1,2.6-1.2,3.2l0,0c-0.2,0.6-0.7,1.8-1.2,3.2c0.1,0.4,0.8,0.5,1.4,1.5c0.5,1,1,2.8,1.6,3.7c1,1.3,1.9,2,2.6,1.9
				c0.7-0.1,1.2-1.1,1.4-3.3c0.1-0.9,0.6-1.8,1.1-2.3c0.4-0.4,0.5-0.2,1.6-0.9c0.7-0.4,1.3-0.9,1.8-1.4c0.5-0.5,0.6-1.1,0.8-1.7
				c0.2-0.6,0.6-1.2,0.5-1.7C445.1,174.3,444.9,173.8,444.5,173.3L444.5,173.3z"/>
			<path id="path1218" inkscape:connector-curvature="0" class="st9" d="M433.1,177.1c-0.1,0.2-0.1,0.5-0.2,0.7
				c1.1,0.3,2,0.7,2.8,1.3c0.8,0.6,1.4,1.4,1.9,2.4c-0.2-1.1-0.7-2-1.5-2.8C435.4,178,434.3,177.4,433.1,177.1"/>
			<path id="path1220" inkscape:connector-curvature="0" class="st9" d="M433.6,175.8c0.1-0.2,0.2-0.5,0.3-0.7
				c1.2-0.1,2.4-0.4,3.6-0.9c1.2-0.5,2.3-1.2,3.4-2c-0.9,1-2.1,1.8-3.3,2.5C436.4,175.3,435,175.7,433.6,175.8"/>
			<path id="path1222" inkscape:connector-curvature="0" class="st7" d="M444.8,167.7c-0.8,0.3-1.3,0.6-2.2,1.4
				c-0.7,0.5-1,1.3-1.2,2.3c-0.1,0.9,0,1.9,0.2,3c0.2,0.6,0,1.7-0.4,2.8c-0.4,1.1-0.9,2.1-1.5,2.7c-1.9,1.9-3.2,3.9-2.7,5.1
				c0.3,0.8,0.6,1,1.1,1.4c0.2-0.5,0.8-0.9,0.9-1.6c0.2-1,0.6-2,1.2-2.7c0.5-0.5,0.6-1,1.7-1.7c0.7-0.5,1.4-0.3,1.9-0.9
				c1-1.2,2.3-4.1,1-5.4c-1.2-1.3-1.7-2.1-0.6-4.3C444.7,168.7,444.7,168.2,444.8,167.7L444.8,167.7z"/>
			<path id="path1224" inkscape:connector-curvature="0" class="st39" d="M411.9,177.2c1,0.8,1.2,0.7,1.5,1.2
				c0.3,0.6,0.2,1.6-0.1,2.5c-1.2,3.6,1,3.3,3.7,1.9c1.3-0.7,2.9-2.5,4.1-3.3c1.2-0.9,2.1-0.9,2.4-1.2c0.3-1.4,0.6-2.7,0.7-3.3
				c0.1-0.6,0.4-1.9,0.7-3.4c-0.2-0.5-1-0.7-1.8-1.9c-0.8-1.2-1.7-3.5-2.7-4.7c-2.2-2.3-4.4-3.3-4.6,1.1c0,1.1-0.2,2.2-0.8,2.7
				c-0.5,0.5-0.6,0.2-1.9,0.8c-0.8,0.4-1.5,0.9-2,1.5c-0.5,0.6-0.4,1.3-0.5,2c-0.1,0.7-0.4,1.3-0.1,2
				C410.8,176,411.3,176.6,411.9,177.2L411.9,177.2z"/>
			<path id="path1226" inkscape:connector-curvature="0" class="st9" d="M424.4,174.4c0-0.2,0-0.4,0-0.7c-2.5-0.7-4.4-2.1-5.9-4.1
				C419.4,171.8,421.7,173.6,424.4,174.4"/>
			<path id="path1228" inkscape:connector-curvature="0" class="st9" d="M424.1,175.6c-0.1,0.2-0.1,0.4-0.2,0.6
				c-2.6,0-4.9,0.9-7.1,2.4C418.4,176.8,421.3,175.7,424.1,175.6"/>
			<g id="g1242">
				<path id="path1230" inkscape:connector-curvature="0" class="st40" d="M413,182.6c0.8-0.3,1.8-0.5,2.6-1.2
					c1.3-1,0.9-2.9-0.2-4.9c-0.4-0.6-0.4-1.7-0.2-2.7c0.2-1,0.6-2.1,1.1-2.6c1.8-1.7,2.9-3.6,2-5c-0.6-0.9-1.4-1.5-2.2-2
					c-0.2,0.5-0.3,1.1-0.3,2c0,1.1-0.2,2.2-0.8,2.7c-0.5,0.5-0.6,0.2-1.9,0.8c-0.8,0.4-1.5,0.9-1.9,1.5c-0.5,0.6-0.4,1.3-0.5,2
					c-0.1,0.7-0.4,1.4-0.1,2c0.3,0.7,0.7,1.3,1.4,1.8c1,0.8,1.2,0.7,1.5,1.2c0.3,0.7,0.2,1.6-0.1,2.5
					C413.1,181.6,413,182.2,413,182.6L413,182.6z"/>
				<g id="g1240" transform="scale(0.99997,-1)">
					<path id="path1232" inkscape:connector-curvature="0" class="st6" d="M430-169.7c-3.1,0.1-6.1-2.5-6.5-5.8
						c-0.4-3.3,1.7-5.8,4.7-5.9c3,0,5.7,2.4,6.3,5.6C435.1-172.7,433.1-169.9,430-169.7L430-169.7z"/>
					<path id="path1234" inkscape:connector-curvature="0" class="st6" d="M429.8-171.3c-2.3,0.1-4.4-1.8-4.8-4.3
						c-0.3-2.4,1.2-4.3,3.4-4.3c2.2,0,4.2,1.8,4.6,4.1C433.5-173.5,432.1-171.4,429.8-171.3L429.8-171.3z"/>
					<path id="path1236" inkscape:connector-curvature="0" class="st26" d="M429.5-173c-1.4,0.1-2.8-1.1-3-2.7
						c-0.2-1.5,0.8-2.7,2.1-2.7c1.4,0,2.7,1.1,2.9,2.6C431.9-174.3,431-173,429.5-173L429.5-173z"/>
					<path id="path1238" inkscape:connector-curvature="0" class="st6" d="M447.9-228.6c1.5-0.2,2.4-1.2,2.3-2.2
						c0.1-1-0.8-2-2.3-2.2c-0.3-0.1-0.7-0.2-1.2-0.2c-46.8-4-96.7-4-143.5,0c-0.4,0-0.8,0.1-1.2,0.2c-1.5,0.2-2.4,1.2-2.3,2.2
						c-0.1,1,0.8,2,2.3,2.2c0.4,0.1,0.7,0.2,1.2,0.2c46.8,4,96.7,4,143.5,0C447.2-228.5,447.6-228.5,447.9-228.6L447.9-228.6z"/>
				</g>
			</g>
		</g>
		<g id="g1472">
			<path id="path1246" inkscape:connector-curvature="0" class="st41" d="M321.1,231.7c6-0.4,12-0.7,17.9-0.9c6-0.2,12-0.4,17.9-0.5
				c6-0.1,12-0.2,18-0.2c6,0,12,0.1,18,0.2c6,0.1,12,0.3,17.9,0.6c6,0.2,12,0.6,17.9,0.9"/>
			<path id="path1248" inkscape:connector-curvature="0" class="st41" d="M321.1,231.9c6,0.4,12,0.7,17.9,0.9 M410.8,232.7
				c6-0.2,12-0.6,17.9-0.9"/>
			<path id="path1250" inkscape:connector-curvature="0" class="st42" d="M243.7,233.9V446c0,38,14.7,72.4,38.5,97.4
				c23.8,25,56.6,40.5,92.7,40.5h0c36.1,0,68.9-15.5,92.7-40.5c23.8-25,38.5-59.4,38.5-97.4V233.9L243.7,233.9z"/>
			<g id="g1470">
				<g id="g1308">
					<g id="g1294">
						<path id="path1252" inkscape:connector-curvature="0" class="st43" d="M376.1,572.9c1.1-0.2,3.1,0,4.5-1.1
							c1.9-1.5,1.2-7.7,1-11.5c-0.9-19.8-1.7-53.2-2.7-100.1c-1.6-0.2-2.9-0.1-4,0.1c-1.1-0.2-2.3-0.3-4-0.1
							c-1,46.9-1.8,80.2-2.7,100.1c-0.2,3.9-0.9,10,1,11.5c1.5,1.1,3.4,0.9,4.5,1.1H376.1z"/>
						<path id="path1254" inkscape:connector-curvature="0" class="st18" d="M388.6,572.3c-1.1-0.1-3,0.3-4.6-0.7
							c-2.1-1.3-2.2-7.6-2.4-11.5c-0.9-19.8-2.7-53-6-99.8c1.6-0.4,2.8-0.4,4-0.3c0.2,0,0.4-0.1,0.5-0.1
							c7.5,46.3,10.3,79.1,15.4,98.9c0.7,2.7,2.2,9.6-0.1,11.8c-1.3,1.3-3.3,1.2-4.4,1.5L388.6,572.3z"/>
						<path id="path1256" inkscape:connector-curvature="0" class="st18" d="M403.2,570.2c-1.2,0-3,0.6-4.6-0.3
							c-2.2-1.1-2.1-7.4-3.1-11.2c-5.1-19.8-7.9-52.6-15.4-98.9c1.6-0.5,2.8-0.6,3.9-0.7l0.2-0.1c11.9,45,15.4,76.7,24.6,96.3
							c0.9,2.7,3.2,9.9,1,12.4c-1.2,1.4-3.2,1.5-4.2,1.9L403.2,570.2z"/>
						<path id="path1258" inkscape:connector-curvature="0" class="st44" d="M417.9,566.1c-1.1,0.1-3.1,1.2-4.8,0.5
							c-2.3-0.9-2.6-7.6-4.3-11.1c-9.3-19.7-12.8-51.6-24.8-96.9c1.5-0.7,2.7-0.9,3.9-1c1-0.5,0.8-0.7,2.5-1
							c13.9,44.8,18.5,75.9,31.6,95.2c2.1,3.1,3.7,9.4,2.2,11.4c-1.1,1.5-3,1.8-4,2.3L417.9,566.1z"/>
						<path id="path1260" inkscape:connector-curvature="0" class="st18" d="M361.3,572.3c1.1-0.1,3,0.3,4.6-0.7
							c2.1-1.3,2.2-7.6,2.4-11.5c0.9-19.8,2.7-53,6-99.8c-1.6-0.4-2.8-0.4-4-0.3c-0.2,0-0.4-0.1-0.5-0.1
							c-7.5,46.3-10.3,79.1-15.4,98.9c-0.7,2.7-2.2,9.6,0.1,11.8c1.3,1.3,3.3,1.2,4.4,1.5L361.3,572.3z"/>
						<path id="path1262" inkscape:connector-curvature="0" class="st18" d="M346.7,570.2c1.2,0,3,0.6,4.6-0.3
							c2.2-1.1,2.1-7.4,3.1-11.2c5.1-19.8,7.9-52.6,15.4-98.9c-1.6-0.5-2.8-0.6-3.9-0.7l-0.2-0.1c-11.9,45-15.4,76.7-24.6,96.3
							c-0.9,2.7-3.2,9.9-1,12.4c1.2,1.4,3.2,1.5,4.2,1.9L346.7,570.2z"/>
						<path id="path1264" inkscape:connector-curvature="0" class="st44" d="M332,566.1c1.1,0.1,3.1,1.2,4.8,0.5
							c2.3-0.9,2.6-7.6,4.3-11.1c9.3-19.7,12.8-51.6,24.8-96.9c-1.5-0.7-2.7-0.9-3.9-1c-1-0.5-0.8-0.7-2.5-1
							c-13.9,44.8-18.5,75.9-31.6,95.2c-2.1,3.1-3.7,9.4-2.2,11.4c1.1,1.5,3,1.8,4,2.3L332,566.1z"/>
						<path id="path1266" inkscape:connector-curvature="0" class="st45" d="M410.1,532.3c-1,0.1-2.6,0.7-4.3-0.1
							c-2.2-1-3.6-7.1-4.8-10.8c-9.3-18.4-17.8-51.1-31.8-96.5c1.4-0.6,2.4-0.7,3.5-0.8c0.9-0.4,1.9-0.8,3.4-0.9
							c15.1,44.9,21.8,77.5,36.5,95.4c2.4,3,4.2,9.4,3.1,11.3c-0.9,1.4-2.6,1.6-3.5,2L410.1,532.3z"/>
						<path id="path1268" inkscape:connector-curvature="0" class="st46" d="M398.2,534.6c-1.1,0-2.7,0.5-4.3-0.4
							c-2.1-1.2-2.8-7.3-3.5-11.2c-3.8-19.6-10.7-52.5-20.6-98.6c1.4-0.5,2.5-0.5,3.5-0.5c1-0.3,2-0.6,3.5-0.6
							c11.6,45.9,14.3,80.2,25.4,97.8c2,3.2,3.1,9.7,1.8,11.5c-1,1.3-2.8,1.4-3.8,1.7L398.2,534.6z"/>
						<path id="path1270" inkscape:connector-curvature="0" class="st47" d="M386.1,536c-1-0.1-2.7,0.3-4.2-0.8
							c-1.9-1.4-1.9-7.5-2.2-11.4c-1.5-19.8-4.6-53.1-9.1-99.8c1.5-0.3,2.5-0.3,3.6-0.2c1-0.3,2.1-0.5,3.6-0.3
							c6.3,46.6,10,80.3,14,99.4c0.8,3.8,2,9.9,0.4,11.5c-1.2,1.2-2.9,1.1-3.9,1.4L386.1,536z"/>
						<path id="path1272" inkscape:connector-curvature="0" class="st45" d="M339.8,532.3c1.1,0.1,2.6,0.7,4.3-0.1
							c2.2-1,3.6-7.1,4.8-10.8c9.3-18.4,17.8-51.1,31.8-96.5c-1.4-0.6-2.4-0.7-3.5-0.8c-0.9-0.4-1.9-0.8-3.4-0.9
							c-15.1,45-21.8,77.5-36.5,95.4c-2.4,3-4.2,9.4-3.1,11.3c0.9,1.4,2.6,1.6,3.5,2L339.8,532.3z"/>
						<path id="path1274" inkscape:connector-curvature="0" class="st46" d="M351.7,534.6c1.1,0,2.7,0.5,4.3-0.4
							c2.1-1.2,2.8-7.3,3.5-11.2c3.8-19.6,10.7-52.5,20.6-98.6c-1.4-0.5-2.5-0.5-3.5-0.5c-1-0.3-2-0.6-3.5-0.6
							c-11.6,45.9-14.3,80.2-25.4,97.8c-2,3.2-3.1,9.7-1.8,11.5c1,1.3,2.8,1.4,3.8,1.7L351.7,534.6z"/>
						<path id="path1276" inkscape:connector-curvature="0" class="st47" d="M363.8,536c1-0.1,2.7,0.3,4.2-0.8
							c1.9-1.4,1.9-7.5,2.2-11.4c1.5-19.8,4.6-53.1,9.1-99.8c-1.5-0.3-2.6-0.3-3.6-0.2c-1-0.3-2.1-0.5-3.6-0.3
							c-6.3,46.6-10,80.3-14,99.4c-0.8,3.8-2,9.9-0.4,11.5c1.2,1.2,2.9,1.1,3.9,1.4L363.8,536z"/>
						<path id="path1278" inkscape:connector-curvature="0" class="st48" d="M376,536.4c1-0.2,2.8,0.1,4.1-1.1
							c1.7-1.5,1.1-7.7,0.9-11.5c-0.8-19.8-1.5-53.2-2.4-100.1c-1.5-0.2-2.6-0.1-3.6,0.1c-1-0.2-2.1-0.3-3.6-0.1
							c-0.9,46.9-1.6,80.2-2.4,100.1c-0.2,3.9-0.8,10,0.9,11.5c1.3,1.1,3,0.9,4.1,1.1H376z"/>
						<path id="path1280" inkscape:connector-curvature="0" class="st49" d="M401.9,505c-0.8,0.1-2,0.7-3.3-0.1
							c-1.7-1-2.8-7.1-3.7-10.8c-7.1-18.4-13.7-51.1-24.4-96.5c1-0.6,1.9-0.7,2.7-0.8c0.7-0.4,1.5-0.8,2.6-0.9
							c11.5,45,16.7,77.5,28,95.4c1.9,3,3.2,9.4,2.4,11.3c-0.7,1.4-2,1.6-2.7,2L401.9,505z"/>
						<path id="path1282" inkscape:connector-curvature="0" class="st50" d="M392.8,507.4c-0.8,0-2.1,0.5-3.3-0.4
							c-1.6-1.2-2.1-7.3-2.7-11.2c-2.9-19.6-8.2-52.5-15.7-98.6c1.1-0.5,1.9-0.5,2.7-0.5c0.7-0.3,1.5-0.6,2.7-0.6
							c8.9,45.9,11,80.2,19.4,97.8c1.5,3.2,2.4,9.7,1.4,11.5c-0.8,1.3-2.1,1.4-2.9,1.7L392.8,507.4z"/>
						<path id="path1284" inkscape:connector-curvature="0" class="st51" d="M383.5,508.7c-0.8-0.1-2.1,0.3-3.2-0.8
							c-1.5-1.4-1.5-7.5-1.7-11.4c-1.1-19.8-3.5-53.1-7-99.8c1.1-0.3,2-0.3,2.7-0.2c0.8-0.2,1.6-0.5,2.7-0.3
							c4.8,46.6,7.6,80.3,10.7,99.4c0.6,3.8,1.5,9.9,0.3,11.5c-0.9,1.2-2.2,1.1-3,1.4L383.5,508.7z"/>
						<path id="path1286" inkscape:connector-curvature="0" class="st49" d="M348,505c0.8,0.1,2,0.7,3.3-0.1c1.7-1,2.8-7.1,3.7-10.8
							c7.1-18.4,13.7-51.1,24.4-96.5c-1-0.6-1.9-0.7-2.7-0.8c-0.7-0.4-1.5-0.8-2.6-0.9c-11.5,45-16.7,77.5-28,95.4
							c-1.9,3-3.2,9.4-2.4,11.3c0.7,1.4,2,1.6,2.7,2L348,505z"/>
						<path id="path1288" inkscape:connector-curvature="0" class="st50" d="M357.1,507.4c0.8,0,2.1,0.5,3.3-0.4
							c1.6-1.2,2.1-7.3,2.7-11.2c2.9-19.6,8.2-52.5,15.7-98.6c-1.1-0.5-1.9-0.5-2.7-0.5c-0.7-0.3-1.5-0.6-2.7-0.6
							c-8.9,45.9-11,80.2-19.4,97.8c-1.5,3.2-2.4,9.7-1.4,11.5c0.8,1.3,2.1,1.4,2.9,1.7L357.1,507.4z"/>
						<path id="path1290" inkscape:connector-curvature="0" class="st51" d="M366.4,508.7c0.8-0.1,2.1,0.3,3.2-0.8
							c1.5-1.4,1.5-7.5,1.7-11.4c1.1-19.8,3.5-53.1,7-99.8c-1.1-0.3-2-0.3-2.7-0.2c-0.8-0.3-1.6-0.5-2.7-0.3
							c-4.8,46.6-7.6,80.3-10.7,99.4c-0.6,3.8-1.5,9.9-0.3,11.5c0.9,1.2,2.2,1.1,3,1.4L366.4,508.7z"/>
						<path id="path1292" inkscape:connector-curvature="0" class="st43" d="M375.8,509.1c0.8-0.2,2.1,0,3.1-1.1
							c1.3-1.5,0.8-7.7,0.7-11.5c-0.6-19.8-1.2-53.2-1.9-100c-1.1-0.2-2-0.1-2.8,0.1c-0.8-0.2-1.6-0.3-2.8-0.1
							c-0.7,46.9-1.3,80.2-1.9,100c-0.1,3.9-0.7,10,0.7,11.5c1,1.1,2.3,0.9,3.1,1.1H375.8z"/>
					</g>
					<g id="g1306">
						<path id="path1296" inkscape:connector-curvature="0" class="st52" d="M320.1,455.4c-2.5,0.1-5.6,1.5-14.6,9.3
							c-3.9,8-7.9,16.1-13.3,23c-1.9,1.2-3.3,2.1-4.8,2.6c-1.5,0.5-12.9,0.1-13.1-0.3c-3.5-3.2-8.9-0.9-7.1,2.5
							c-1.4,1.3,1.7,6.2,4.2,4.2c2.3-1.8,10.2-0.1,12.8-1.1c-1,2.4-8.1,3.9-13.1,4.3c-4.6,0.2-4.3,4.7-2.4,8.2
							c2.1,1.4,0.4-0.4,1.2,0.6c2,3,6.4,2.6,6.6-0.3c0.2-3.1,10.8-7,12.4-9.4c-2,4.6-6.5,9-8.7,13.5c-2.4,2.4-3.9,2.9-0.8,7.8
							c3.4-0.4,3.6-1.3,5.8,0.7c4.7-0.5,5.5-1.9,4.7-5.6c-0.8-3.9,2.5-11.1,3.6-13.1c1-1.9,1.3-3.8,2.2-4.9c1.7-2,9.8-6.1,11.9-5
							c3.8,2,6.8,0.8,7.2-2.9c-1.2-1-0.3-6.2-3-6.5c-2.2-0.2-3.5,0.5-5.5,2.1c-3.1,2.6-4.8,3.9-5.8,3.6c-2.4-0.7,4.4-4.1,10.7-12.3
							C319.9,465.1,320.5,459.3,320.1,455.4L320.1,455.4z"/>
						<path id="path1298" inkscape:connector-curvature="0" class="st53" d="M267.7,494.5c-3.1-1.8-4.9-1.8-6.2-0.4
							c-0.7,0.8-1.5,0.4-1-0.8c2.1-4.9,5.4-5.5,8.4-3.2c0.8,0.8,1.5,1.4,2.2,2.1C270.6,492.9,268.1,493.9,267.7,494.5L267.7,494.5z"
							/>
						<path id="path1300" inkscape:connector-curvature="0" class="st54" d="M312.7,490.1c3.3-2.3,6.5-2.7,8.2-1.4
							c0.9,0.7,1.9,0.2,1-1c-3.5-4.9-7.5-5.1-10.6-2.4c-0.8,0.9-1.5,1.7-2.2,2.4C310.2,488.9,312.5,490.2,312.7,490.1L312.7,490.1z"
							/>
						<path id="path1302" inkscape:connector-curvature="0" class="st55" d="M286.4,518c-2,4-3.1,6.8-2.2,9c0.5,1.3-0.1,2.4-1.4,1.3
							c-5.2-4.5-5.2-9.6-1.9-13.1c1.1-1.2,2.3-1.9,3.4-2.8C285.6,513.7,286.5,517.8,286.4,518L286.4,518z"/>
						<path id="path1304" inkscape:connector-curvature="0" class="st56" d="M273.4,507.3c-3.1,1.3-4.2,2.9-4.1,5
							c0.1,1.2-0.7,1.6-1.1,0.2c-3.8-8.8,0.1-10.4,5.8-10.1C274.3,504.1,273.5,507.3,273.4,507.3L273.4,507.3z"/>
					</g>
				</g>
				<g id="g1320">
					<path id="path1310" inkscape:connector-curvature="0" class="st57" d="M300.1,487.8c-2-1.2-2.2-2.5-1.6-3.4
						c1.1-1.9,2.3-1,4.4,0.8"/>
					<path id="path1312" inkscape:connector-curvature="0" class="st57" d="M302.7,484.9c-2-1.2-2.2-2.5-1.6-3.4
						c1.1-1.9,2.3-1,4.4,0.8"/>
					<path id="path1314" inkscape:connector-curvature="0" class="st58" d="M305.7,482.2c-2.3-1.5-2.4-3.3-1.8-4.4
						c1.2-2.4,2.5-1.3,4.9,1"/>
					<path id="path1316" inkscape:connector-curvature="0" class="st59" d="M308.9,478.7c-2.4-1.7-2.5-3.7-1.9-5
						c1.3-2.8,2.7-1.4,5.2,1.1"/>
					<path id="path1318" inkscape:connector-curvature="0" class="st60" d="M312.2,475.1c-2.2-1.8-2.9-3.7-1.9-5.3
						c1.6-2.5,2.7-1.5,5.2,1.2"/>
				</g>
				<g id="g1366">
					<path id="path1322" inkscape:connector-curvature="0" class="st61" d="M342.4,277.4c-1.6,1.4-6.9,1.4-14.1,1.9
						c-11.6,0.4-18.3-3.1-19.8-10.5c4.4,5.2,9.6,7.7,15.5,6.3c8-2,12.5-3.4,14.3-3C339.5,272.4,341.3,274.6,342.4,277.4L342.4,277.4
						z"/>
					<g id="g1364">
						<path id="path1324" inkscape:connector-curvature="0" class="st18" d="M369.3,435.6c-0.1,3.3-0.1,7.1-0.1,10.9l0,0l-8.3,1.7
							c0,3.8,9.3,43.3,14.1,43.3c4.8,0,14.2-39.6,14.1-43.4l-8.3-1.7l0,0c0-3.8-0.1-7.6-0.1-10.9c-1.7,1.4-3.7,4-5.7,6.2
							C372.9,439.5,371,437,369.3,435.6L369.3,435.6z"/>
						<g id="g1338">
							<path id="path1326" inkscape:connector-curvature="0" class="st62" d="M359.7,452.4l-7.4-4.2c-3.1,2.2-5.4,10.6-0.1,17.4
								c6.7,8.5,9.4,14.6,11,21.5c4.8-6.2,6.5-12.7,3.4-19.1C362.4,459.3,359.7,454.5,359.7,452.4L359.7,452.4z"/>
							<path id="path1328" inkscape:connector-curvature="0" class="st62" d="M365.7,446.4l-7.4-4.2c-3.1,2.2-9.7,10.3-4.3,17.1
								c6.7,8.5,13.6,14.9,15.2,21.7c4.8-6.2,6.9-12.7,3.8-19.1C368.9,453.4,365.8,448.6,365.7,446.4L365.7,446.4z"/>
							<path id="path1330" inkscape:connector-curvature="0" class="st62" d="M390.2,452.4l7.4-4.2c3.1,2.2,5.4,10.6,0.1,17.4
								c-6.7,8.5-9.4,14.6-11,21.5c-4.8-6.2-6.5-12.7-3.4-19.1C387.5,459.3,390.2,454.5,390.2,452.4L390.2,452.4z"/>
							<path id="path1332" inkscape:connector-curvature="0" class="st62" d="M384.2,446.4l7.4-4.2c3.1,2.2,9.7,10.3,4.3,17.1
								c-6.7,8.5-13.6,14.9-15.2,21.7c-4.8-6.2-6.9-12.7-3.8-19.1C381,453.4,384.1,448.6,384.2,446.4L384.2,446.4z"/>
							<path id="path1334" inkscape:connector-curvature="0" class="st62" d="M349.3,443.4l-7.4-4.2c-3.1,2.2-5.4,10.6-0.1,17.4
								c6.7,8.5,9.4,14.6,11,21.5c4.8-6.2,6.5-12.7,3.4-19.1C352.1,450.4,349.4,445.6,349.3,443.4L349.3,443.4z"/>
							<path id="path1336" inkscape:connector-curvature="0" class="st62" d="M400.6,443.4l7.4-4.2c3.1,2.2,5.4,10.6,0.1,17.4
								c-6.7,8.5-9.4,14.6-11,21.5c-4.8-6.2-6.5-12.7-3.4-19.1C397.8,450.4,400.5,445.5,400.6,443.4L400.6,443.4z"/>
						</g>
						<g id="g1362" transform="matrix(0,0.99513,1,0,0,0)">
							<path id="path1340" inkscape:connector-curvature="0" class="st63" d="M366.9,314.9c6.8,0.1,52.3-1.1,58.7-1.4
								c6.4-0.4,10.8-3.2,13.3-6.2c-3.8-2.8-8.9-4.4-15.1-4.8c-3.1-0.2-46.1,0.4-55,0.6C355.3,308.1,354.8,311.9,366.9,314.9
								L366.9,314.9z"/>
							<path id="path1342" inkscape:connector-curvature="0" class="st63" d="M355.8,285.4l62.5-1.9c5.5-0.6,38.6,6.6,45.1,10.5
								c-4.2,9.7-26.6,11.8-48.4,10c-21.8-1.8-40.7,0.3-44.6,1.8c-4.9,0.1-10.1-0.7-15.2-0.7C355.5,298.9,355.4,291.7,355.8,285.4
								L355.8,285.4z"/>
							<path id="path1344" inkscape:connector-curvature="0" class="st63" d="M366,273.9l62.5,1.3c5.6-0.3,38.1,8.6,44.4,12.9
								c-7.7,9.9-39.1,7.9-48.6,6.4c-19-3-40.9-2.5-44.5-1.5c-4.9-0.1-10.8-0.3-16-0.6C364.6,286.3,365.3,280.1,366,273.9L366,273.9
								z"/>
							<path id="path1346" inkscape:connector-curvature="0" class="st63" d="M380.8,265.3l-0.4,16.4c6.8-1.4,28-0.3,44.2,2.5
								c15.1,2.7,54.4,6.4,63.9-9.4c-20.7-9.7-40.9-2.3-58.9-7.2C410.4,263.8,394.4,263.1,380.8,265.3L380.8,265.3z"/>
							<path id="path1348" inkscape:connector-curvature="0" class="st63" d="M355.4,328c6.8-0.1,52.2-2.6,58.6-3.2
								c6.4-0.6,10.6-3.5,13-6.6c-3.9-2.6-9.1-4.1-15.2-4.3c-3.1-0.1-46.1,1.8-54.9,2.3C343.6,321.5,343.3,325.3,355.4,328
								L355.4,328z"/>
							<path id="path1350" inkscape:connector-curvature="0" class="st63" d="M318.4,298.9c14.6-0.4,46.4-0.7,49.1-0.6
								c6.1,0.2,13.9,2.6,17.8,5.3c-2.4,3.1-6.7,6-13.1,6.6c-5.2,0.5-31,0.6-43.9,0.7c-2.1-3.3-4.8-6.7-7.6-9.5
								C320.6,301.4,318.5,299,318.4,298.9L318.4,298.9z"/>
							<path id="path1352" inkscape:connector-curvature="0" class="st63" d="M327.8,310.6c15.8-0.3,40.6-0.1,42.7,0
								c6.1,0.2,11.3,1.7,15.2,4.3c-2.4,3.1-6.8,6.3-13.2,6.9c-3.9,0.4-20.8,1.4-33.7,1.5C337.4,319.2,330.6,313.9,327.8,310.6
								L327.8,310.6z"/>
							<path id="path1354" inkscape:connector-curvature="0" class="st63" d="M317,300.5l-16.1-11.2c8-2.3,65-5,69.7-1.8
								c6.1,0.2,11.3,2.4,15.2,5c-2.4,3.1-6.7,7.7-13.2,6.4C366.1,297.6,323.7,299.1,317,300.5L317,300.5z"/>
							<path id="path1356" inkscape:connector-curvature="0" class="st63" d="M352.9,277.6c8.8-0.5,14.8-0.9,17.9-0.8
								c6.1,0.2,11.3,1.7,15.2,4.3c-2.4,3.1-6.7,7-13.1,6.6c-24.7-1.6-48,1.1-70.4,4.3c-2-2.6-4-7.1-6-9.8
								C326.8,277.1,345.5,275.3,352.9,277.6L352.9,277.6z"/>
							<path id="path1358" inkscape:connector-curvature="0" class="st64" d="M369.1,266.5l11.5,3c6.1,0.2,11.2,4,15.1,6.6
								c-2.4,3.1-6.4,5.9-12.7,5.1c-36.5-4.5-60.7-2.9-90.4,4.7C304.4,268.7,329.3,260.7,369.1,266.5L369.1,266.5z"/>
							<path id="path1360" inkscape:connector-curvature="0" class="st63" d="M380.4,267.4l-5.3-15.8c15.9-2,35.8,1.1,62.2,5.4
								c22.6,3.7,40.5,1.7,51.9-1.1c-2.3,16.9-24.2,24-65.3,15.6C413.2,269.2,399.4,266.9,380.4,267.4L380.4,267.4z"/>
						</g>
					</g>
				</g>
				<path id="path1368" inkscape:connector-curvature="0" class="st65" d="M266.9,455.1c0.4-10.5-1.4-21.9-3.4-31.5
					c-2.7-13.2-4.1-25.9-4.2-39.2"/>
				<g id="g1434">
					<g id="g1386">
						<path id="path1370" inkscape:connector-curvature="0" class="st64" d="M266.7,285.6l10.4,1.7c-0.5,2.2-3.1,15.9-3.6,18.2
							c-3.9,19-6.4,41.3-3.5,65.9c1.1,9.1,3,16.5,5.9,22.3c-11.4-1.3-18.7-12.4-17.8-31.8c-2-22.6-1.1-40.7,2.6-54.2
							C261.7,303.7,265.2,288.8,266.7,285.6L266.7,285.6z"/>
						<path id="path1372" inkscape:connector-curvature="0" class="st63" d="M260.4,288l5.1,5.8c-1.4,1,1,5.5-0.3,14.2
							c-0.9,4.9-3.8,10.7-4.4,17c-2,20.8-2,46.8,4.2,63.5c-11.4-1.3-15.3-11.6-15.7-31c-0.3-16-0.4-35,3.7-56.8
							C253.9,295.5,256.3,291.4,260.4,288L260.4,288z"/>
						<path id="path1374" inkscape:connector-curvature="0" class="st66" d="M288.9,303.3l-10.5-1.2c-1.9,9.9-3.4,17-3.8,20.5
							c-0.7,6.9,1.4,13.3,3.8,18c3.9-2.3,5.7-7.4,7.3-14.6C287.4,318.9,287.8,311,288.9,303.3L288.9,303.3z"/>
						<path id="path1376" inkscape:connector-curvature="0" class="st67" d="M316.2,325.7l-9.3,0.1c-0.3,8.6-0.5,14.4-0.4,17.4
							c0.3,5.9,1.8,10.9,4.3,14.7c2.8-2.4,5.5-6.5,5.9-12.7C317.2,338.9,316.3,332.3,316.2,325.7L316.2,325.7z"/>
						<path id="path1378" inkscape:connector-curvature="0" class="st68" d="M326.3,330.1l-9.3,0.4c0,8.6,0,14.4,0.2,17.4
							c0.5,5.9,2.2,10.9,4.8,14.5c2.7-2.5,5.3-6.7,5.5-12.9C327.7,343.3,326.6,336.7,326.3,330.1L326.3,330.1z"/>
						<path id="path1380" inkscape:connector-curvature="0" class="st63" d="M306.7,320.9l-9.3-0.7c-1,8.5-1.7,14.3-1.8,17.3
							c-0.2,5.9,0.9,11,3.1,15c3-2.1,6-6.1,7-12.2C306.6,334.1,306.2,327.5,306.7,320.9L306.7,320.9z"/>
						<path id="path1382" inkscape:connector-curvature="0" class="st69" d="M298,310.8l-10.2-4.2c-1.7,6.9-4.1,29.6,0.1,39.2
							c3.4-2.3,6.8-6.6,8-13.5C297,325.5,297.3,318.2,298,310.8L298,310.8z"/>
						<path id="path1384" inkscape:connector-curvature="0" class="st70" d="M284.5,299.6l-16.3,1.4c-3.8,9.4-6.2,17.6-7.4,25.2
							c7.6-1.3,13.1-5.1,15-11.8C278.4,305.2,283.1,301.2,284.5,299.6L284.5,299.6z"/>
					</g>
					<g id="g1408">
						<g id="g1394">
							<path id="path1388" inkscape:connector-curvature="0" class="st71" d="M301,546.6c6.2,5,11.9-6.4,6.4-21.5
								c-4.1-11.2-24.1-6.8-13,8.2c0.5,0.7,1.3,0.4,1.2-0.4c-0.6-3.1,1.3-4.9,4.4-4.3c8.3,1.6,8.5,17.3-0.5,13.7
								C297.9,542.1,299.4,545.3,301,546.6L301,546.6z"/>
							<path id="path1390" inkscape:connector-curvature="0" class="st71" d="M321.5,546.6c-6.2,5-11.9-6.4-6.4-21.5
								c4.1-11.2,24.1-6.8,13,8.2c-0.5,0.7-1.3,0.4-1.2-0.4c0.6-3.1-1.3-4.9-4.4-4.3c-8.3,1.6-8.5,17.3,0.5,13.7
								C324.6,542.1,323.1,545.3,321.5,546.6L321.5,546.6z"/>
							<path id="path1392" inkscape:connector-curvature="0" class="st71" d="M310.6,498.1l0,0.1c-0.8,2.6-3.8,5.9-6.2,8.3
								c-3.7,3.8-2.8,9.6-0.3,12.6c2.8,3.3,4,7.1,4.5,10c0.4,1.8,1.2,5.8,0.6,12.1c-0.3,3.1-2.1,4.7-3.9,6.1
								c-0.9,0.7,0.4,2.4,3.3,4.6c0.3,0.2,1.2,0.8,1.6,2.4c0.2,0.4,1.5,0.4,1.7,0c0.4-1.5,1.3-2.1,1.6-2.4c2.9-2.2,4.2-3.9,3.3-4.6
								c-1.8-1.4-3.6-3-3.9-6.1c-0.5-6.3,0.2-10.3,0.6-12.1c0.6-2.9,1.8-6.7,4.6-10c2.5-3.1,3.4-8.8-0.3-12.6
								c-2.4-2.5-5.4-5.7-6.2-8.3v-0.1c0-0.5-0.3-0.8-0.6-0.8S310.7,497.6,310.6,498.1L310.6,498.1z"/>
						</g>
						<path id="path1396" inkscape:connector-curvature="0" class="st8" d="M306.7,534.3h9c1.6,0,2.8,1.2,2.8,2.8
							c0,1.5-1.3,2.8-2.8,2.8h-9c-1.6,0-2.8-1.2-2.8-2.8C303.9,535.6,305.2,534.3,306.7,534.3z"/>
						<g id="g1404">
							<path id="path1398" inkscape:connector-curvature="0" class="st71" d="M428.4,546.6c6.2,5,11.9-6.4,6.4-21.5
								c-4.1-11.2-24.1-6.8-13,8.2c0.5,0.7,1.3,0.4,1.2-0.4c-0.6-3.1,1.3-4.9,4.4-4.3c8.3,1.6,8.5,17.3-0.5,13.7
								C425.3,542.1,426.8,545.3,428.4,546.6L428.4,546.6z"/>
							<path id="path1400" inkscape:connector-curvature="0" class="st71" d="M448.9,546.6c-6.2,5-11.9-6.4-6.4-21.5
								c4.1-11.2,24.1-6.8,13,8.2c-0.5,0.7-1.3,0.4-1.2-0.4c0.6-3.1-1.3-4.9-4.4-4.3c-8.3,1.6-8.5,17.3,0.5,13.7
								C452,542.1,450.5,545.3,448.9,546.6L448.9,546.6z"/>
							<path id="path1402" inkscape:connector-curvature="0" class="st71" d="M438,498.1l0,0.1c-0.8,2.6-3.8,5.9-6.2,8.3
								c-3.7,3.8-2.8,9.6-0.3,12.6c2.8,3.3,4,7.1,4.5,10c0.4,1.8,1.2,5.8,0.6,12.1c-0.3,3.1-2.1,4.7-3.9,6.1
								c-0.9,0.7,0.4,2.4,3.3,4.6c0.3,0.2,1.2,0.8,1.6,2.4c0.2,0.4,1.5,0.4,1.7,0c0.4-1.5,1.3-2.1,1.6-2.4c2.9-2.2,4.2-3.9,3.3-4.6
								c-1.8-1.4-3.6-3-3.9-6.1c-0.5-6.3,0.2-10.3,0.6-12.1c0.6-2.9,1.8-6.7,4.5-10c2.5-3.1,3.4-8.8-0.3-12.6
								c-2.4-2.5-5.4-5.7-6.2-8.3v-0.1c0-0.5-0.3-0.8-0.6-0.8S438.1,497.6,438,498.1L438,498.1z"/>
						</g>
						<path id="path1406" inkscape:connector-curvature="0" class="st8" d="M434.1,534.3h9c1.6,0,2.8,1.2,2.8,2.8
							c0,1.5-1.3,2.8-2.8,2.8h-9c-1.6,0-2.8-1.2-2.8-2.8C431.3,535.6,432.6,534.3,434.1,534.3z"/>
					</g>
					<g id="g1432" transform="matrix(0,0.99513,-1,0,0,0)">
						<path id="path1410" inkscape:connector-curvature="0" class="st63" d="M366.9-435c6.8,0.1,52.3-1.1,58.7-1.4
							c6.4-0.4,10.8-3.2,13.3-6.2c-3.8-2.8-8.9-4.4-15.1-4.8c-3.1-0.2-46.1,0.4-55,0.6C355.3-441.8,354.8-438,366.9-435L366.9-435z"
							/>
						<path id="path1412" inkscape:connector-curvature="0" class="st63" d="M355.8-464.5l62.5-1.9c5.5-0.6,38.6,6.6,45.1,10.5
							c-4.2,9.7-26.6,11.8-48.4,10c-21.8-1.8-40.7,0.3-44.6,1.8c-4.9,0.1-10.1-0.7-15.2-0.7C355.5-451,355.4-458.3,355.8-464.5
							L355.8-464.5z"/>
						<path id="path1414" inkscape:connector-curvature="0" class="st63" d="M366-476l62.5,1.3c5.6-0.3,38.1,8.6,44.4,12.8
							c-7.7,9.9-39.1,7.9-48.6,6.4c-19-3-40.9-2.5-44.5-1.5c-4.9-0.1-10.8-0.2-16-0.6C364.6-463.6,365.3-469.8,366-476L366-476z"/>
						<path id="path1416" inkscape:connector-curvature="0" class="st63" d="M380.8-484.6l-0.4,16.4c6.8-1.4,28-0.3,44.2,2.5
							c15.1,2.6,54.4,6.3,63.9-9.4c-20.7-9.7-40.9-2.3-58.9-7.2C410.4-486.1,394.4-486.8,380.8-484.6L380.8-484.6z"/>
						<path id="path1418" inkscape:connector-curvature="0" class="st63" d="M355.4-421.9c6.8-0.1,52.2-2.6,58.6-3.2
							c6.4-0.6,10.6-3.5,13-6.6c-3.9-2.6-9.1-4.1-15.2-4.3c-3.1-0.1-46.1,1.8-54.9,2.3C343.6-428.4,343.3-424.6,355.4-421.9
							L355.4-421.9z"/>
						<path id="path1420" inkscape:connector-curvature="0" class="st63" d="M318.4-451c14.6-0.4,46.4-0.7,49.1-0.6
							c6.1,0.2,13.9,2.6,17.8,5.3c-2.4,3.1-6.7,6-13.1,6.6c-5.2,0.5-31,0.6-43.9,0.7c-2.1-3.3-4.8-6.7-7.6-9.5
							C320.6-448.5,318.5-450.9,318.4-451L318.4-451z"/>
						<path id="path1422" inkscape:connector-curvature="0" class="st63" d="M327.8-439.3c15.8-0.3,40.6-0.1,42.7,0
							c6.1,0.2,11.3,1.7,15.2,4.3c-2.4,3.1-6.8,6.3-13.2,6.9c-3.9,0.4-20.8,1.4-33.7,1.5C337.4-430.7,330.6-436,327.8-439.3
							L327.8-439.3z"/>
						<path id="path1424" inkscape:connector-curvature="0" class="st63" d="M317-449.4l-16.1-11.1c8-2.3,65-5,69.7-1.8
							c6.1,0.2,11.3,2.4,15.2,5.1c-2.4,3.1-6.7,7.7-13.2,6.4C366.1-452.2,323.7-450.8,317-449.4L317-449.4z"/>
						<path id="path1426" inkscape:connector-curvature="0" class="st63" d="M352.9-472.3c8.8-0.5,14.8-0.9,17.9-0.8
							c6.1,0.2,11.3,1.7,15.2,4.3c-2.4,3.1-6.7,7-13.1,6.6c-24.7-1.6-48,1.1-70.4,4.3c-2-2.6-4-7.1-6-9.8
							C326.8-472.8,345.5-474.6,352.9-472.3L352.9-472.3z"/>
						<path id="path1428" inkscape:connector-curvature="0" class="st64" d="M369.1-483.4l11.5,3c6.1,0.2,11.2,4,15.1,6.6
							c-2.4,3.1-6.4,5.9-12.7,5.1c-36.5-4.5-60.7-2.9-90.4,4.7C304.4-481.2,329.3-489.2,369.1-483.4L369.1-483.4z"/>
						<path id="path1430" inkscape:connector-curvature="0" class="st63" d="M380.4-482.5l-5.3-15.8c15.9-2,35.8,1.1,62.2,5.3
							c22.6,3.7,40.5,1.7,51.9-1.1c-2.3,16.9-24.2,24-65.3,15.6C413.2-480.7,399.4-483,380.4-482.5L380.4-482.5z"/>
					</g>
				</g>
				<path id="path1436" inkscape:connector-curvature="0" class="st65" d="M483,455.1c-0.4-10.5,1.4-21.9,3.4-31.5
					c2.7-13.2,4.1-25.9,4.2-39.2"/>
				<g id="g1466">
					<g id="g1458">
						<path id="path1438" inkscape:connector-curvature="0" class="st64" d="M483.2,285.6l-10.4,1.7c0.5,2.2,3.2,15.9,3.6,18.2
							c3.9,19,6.5,41.3,3.5,65.9c-1.1,9.1-3,16.5-5.9,22.3c11.4-1.3,18.7-12.4,17.8-31.8c2-22.6,1.1-40.7-2.6-54.2
							C488.2,303.7,484.7,288.8,483.2,285.6L483.2,285.6z"/>
						<path id="path1440" inkscape:connector-curvature="0" class="st63" d="M489.5,288l-5.1,5.8c1.5,1-1,5.5,0.3,14.2
							c0.9,4.9,3.8,10.7,4.4,17c2,20.8,2,46.8-4.2,63.5c11.4-1.3,15.3-11.6,15.7-31c0.3-16,0.4-35-3.7-56.8
							C496,295.5,493.6,291.4,489.5,288L489.5,288z"/>
						<path id="path1442" inkscape:connector-curvature="0" class="st66" d="M461,303.3l10.5-1.2c1.9,9.9,3.4,17,3.8,20.5
							c0.7,6.9-1.4,13.3-3.8,18c-3.9-2.3-5.7-7.4-7.3-14.6C462.5,318.8,462.1,311,461,303.3L461,303.3z"/>
						<path id="path1444" inkscape:connector-curvature="0" class="st67" d="M433.7,325.7l9.3,0.1c0.3,8.6,0.6,14.4,0.4,17.4
							c-0.3,5.9-1.8,10.9-4.3,14.7c-2.8-2.4-5.5-6.5-5.9-12.7C432.7,338.9,433.6,332.3,433.7,325.7L433.7,325.7z"/>
						<path id="path1446" inkscape:connector-curvature="0" class="st68" d="M423.6,330.1l9.3,0.4c0,8.6,0,14.4-0.2,17.4
							c-0.5,5.9-2.2,10.9-4.8,14.5c-2.8-2.5-5.3-6.7-5.5-12.9C422.2,343.3,423.3,336.7,423.6,330.1L423.6,330.1z"/>
						<path id="path1448" inkscape:connector-curvature="0" class="st63" d="M443.2,320.9l9.3-0.7c1,8.5,1.7,14.3,1.8,17.3
							c0.2,5.9-0.9,11-3.1,15c-3-2.1-6-6.1-7-12.2C443.3,334.1,443.7,327.5,443.2,320.9L443.2,320.9z"/>
						<path id="path1450" inkscape:connector-curvature="0" class="st69" d="M451.9,310.8l10.2-4.2c1.7,6.9,4.1,29.6-0.1,39.2
							c-3.4-2.3-6.8-6.6-8-13.5C452.9,325.5,452.6,318.2,451.9,310.8L451.9,310.8z"/>
						<g id="g1456">
							<path id="path1452" inkscape:connector-curvature="0" class="st70" d="M465.4,299.6l16.3,1.5c3.8,9.4,6.2,17.6,7.4,25.2
								c-7.6-1.3-13.1-5.1-15-11.8C471.5,305.2,466.8,301.2,465.4,299.6L465.4,299.6z"/>
							<path id="path1454" inkscape:connector-curvature="0" class="st72" d="M417.4,322.8c1.2-0.3,2.5-0.6,3.8-1.1
								c-6-3.7-10.9-8.3-16.8-17.3c-6-9.2,2.6-25.8,6.2-34.5c7.4-5.5,14.4-13.6,16.7-24.2c0.9-5.7-15-3.7-25.8,1.5
								c-13.3,6.3-15.1,4.5-19.9,5.6c-1.7,8.2,1.8,8.8,5.2,8.4c-7.3,11.7-10.4,23.4-11.9,40.3c-1.5-16.8-4.5-28.5-11.9-40.3
								c3.4,0.4,6.9-0.3,5.2-8.4c-4.7-1.1-6.6,0.7-19.9-5.6c-10.9-5.1-26.7-7.2-25.8-1.5c2.2,10.7,9.2,18.7,16.7,24.2
								c3.6,8.8,12.2,25.3,6.2,34.5c-5.9,9-10.9,13.6-16.8,17.3c1.3,0.5,2.6,0.8,3.8,1.1c-0.9,1.2-8.7,3.6-9.6,3
								c-5.9-4.2-11.7-14-16.8-19.8c-14.3-16.2-21.4-28.7-18.9-38.8c3.6-10.9,16.4-23-0.6-20.9c-17,2.1-31,25.4-35.5,53.3
								c-1.7,10.4-2.6,19.1-3.8,26.2c9.3-3.3,13.4-6.6,15.8-10.7c-1.1,3.9-1.9,7.5-2.5,11c7.6-1.3,13.1-5.1,15-11.8
								c0.8-2.7,1.8-5,2.8-6.9c2.3,0.8,5.3,0.8,9-0.1c1.4,3.3,11.8,14.9,17.4,23.5c6.3,9.6,15.8,17,19,17.4c1.6,0.2,2.1-3.3,1.7-8.1
								c16.5,0.1,33.1,0.2,49.3-0.3c16.2,0.5,32.7,0.5,49.3,0.3c-0.3,4.8,0.1,8.3,1.7,8.1c3.1-0.4,12.6-7.8,19-17.4
								c5.6-8.5,16-20.1,17.4-23.5c3.7,0.9,6.7,0.9,9,0.1c1,1.9,2,4.2,2.8,6.9c2,6.8,7.5,10.5,15,11.8c-0.6-3.5-1.4-7.2-2.5-11
								c2.5,4.1,6.6,7.3,15.8,10.7c-1.1-7.1-2.1-15.8-3.8-26.2c-4.5-28-18.6-51.2-35.5-53.3c-17-2.1-4.2,10.1-0.6,20.9
								c2.5,10.1-4.6,22.6-18.9,38.8c-5,5.7-10.8,15.6-16.8,19.8C426.1,326.4,418.3,324,417.4,322.8L417.4,322.8z"/>
						</g>
					</g>
					<g id="g1464">
						<path id="path1460" inkscape:connector-curvature="0" class="st61" d="M407.5,277.4c1.6,1.4,6.9,1.4,14.1,1.9
							c11.6,0.4,18.3-3.1,19.8-10.5c-4.4,5.2-9.5,7.8-15.5,6.3c-8-2-12.5-3.4-14.3-3C410.4,272.4,408.6,274.6,407.5,277.4
							L407.5,277.4z"/>
						<path id="path1462" inkscape:connector-curvature="0" class="st73" d="M434.7,246.9c13,1.4,12.4,9.9,0.2,21.9
							c-2.3,2.3-3.1,2.2-3.6-0.2c-0.9-4.2-5.5-6.6-7.9-3.5c-1.7,2.2-1.3,3.4-6.8,2.6c-7,5.8-12.6,9.9-3.5,9.6c4-0.2,7.1,2.2,12.3,2
							c-1.5,3-1.8,3.3-2.7,3.6c-5.1,1-10.4-2.2-15.5-1.2c-11.2,2.1,17.9-30.2,17.6-31.5C423.8,247,431.7,241.2,434.7,246.9
							L434.7,246.9z"/>
					</g>
				</g>
				<path id="path1468" inkscape:connector-curvature="0" class="st74" d="M434.4,246.6c-1.1,3.1-3.1,5.9-6.2,8.4"/>
			</g>
		</g>
		<path id="path1474" inkscape:connector-curvature="0" class="st9" d="M437.1,252.8c-0.1-0.6-0.6-1-1.2-0.9c-0.6,0.1-1,0.6-0.9,1.2
			c0.1,0.6,0.6,1,1.2,0.9C436.8,253.9,437.2,253.4,437.1,252.8"/>
		<g id="g1482">
			<path id="path1476" inkscape:connector-curvature="0" class="st75" d="M325.9,250.1c3.5-0.2,7.1,1.3,11.7,3
				c1.3,0.5,5.9,2.3,7.2,2.1"/>
			<path id="path1478" inkscape:connector-curvature="0" class="st76" d="M363.3,261.2c-3.8-0.6-5.9-1.1-7.7-1.6"/>
			<path id="path1480" inkscape:connector-curvature="0" class="st77" d="M328.7,250.4c1.5,2.7,3.2,6.3,6.3,8.1
				c2.3,1.3,4.9-0.8,6.8-4.3"/>
		</g>
		<path id="path1484" inkscape:connector-curvature="0" class="st9" d="M333.8,257.2l-1.7-1.7c-0.8-1.1-0.4-2.5,1.5-4.2
			c1.3,0.6,2.4,1,3.4,1.4C336.2,255,335.2,256.5,333.8,257.2"/>
		<path id="path1486" inkscape:connector-curvature="0" class="st77" d="M421.2,250.4c-1.5,2.7-3.2,6.3-6.3,8.1
			c-2.3,1.3-4.9-0.8-6.8-4.3"/>
		<path id="path1488" inkscape:connector-curvature="0" class="st9" d="M416.1,257.2l1.7-1.7c0.8-1.1,0.4-2.5-1.4-4.2
			c-1.3,0.6-2.4,1-3.4,1.4C413.6,255,414.7,256.5,416.1,257.2"/>
		<g id="g1528">
			<g id="g1522">
				<path id="path1490" inkscape:connector-curvature="0" class="st75" d="M424,250.1c-3.5-0.2-7.1,1.3-11.7,3
					c-1.3,0.5-5.9,2.3-7.2,2.1"/>
				<path id="path1492" inkscape:connector-curvature="0" class="st76" d="M386.6,261.2c3.8-0.6,5.9-1.1,7.7-1.6"/>
				<g id="g1514">
					<g id="g1502" transform="scale(0.99997,-1)">
						<path id="path1494" inkscape:connector-curvature="0" class="st78" d="M328.7-321.7c7.4-2.6,14.1-2.1,19.2,2.9
							c0.8,0.8,1.6,1.5,2.3,2.2"/>
						<path id="path1496" inkscape:connector-curvature="0" class="st78" d="M351-312.1c-0.7-5-2-9-3.7-13c5.2,1.4,9.4,3.8,11.9,7.4
							"/>
						<path id="path1498" inkscape:connector-curvature="0" class="st78" d="M374.9-327.5c-4.1,5-6.6,10.7-6.9,17.1"/>
						<path id="path1500" inkscape:connector-curvature="0" class="st78" d="M358.2-311.4c0.5-5,1.9-9.3,4.2-12.6
							c2.5,1.9,5,5,6.1,9.5"/>
					</g>
					<g id="g1512" transform="scale(-0.99997,-1)">
						<path id="path1504" inkscape:connector-curvature="0" class="st78" d="M-421.2-321.7c7.4-2.6,14.1-2.1,19.2,2.9
							c0.8,0.8,1.6,1.5,2.3,2.2"/>
						<path id="path1506" inkscape:connector-curvature="0" class="st78" d="M-398.9-312.1c-0.7-5-2-9-3.7-13
							c5.2,1.4,9.4,3.8,11.9,7.4"/>
						<path id="path1508" inkscape:connector-curvature="0" class="st78" d="M-391.8-311.4c0.5-5,1.9-9.3,4.2-12.6
							c2.5,1.9,5,5,6.1,9.5"/>
						<path id="path1510" inkscape:connector-curvature="0" class="st78" d="M-375-327.5c-4.1,5-6.6,10.7-6.9,17.1"/>
					</g>
				</g>
				<g id="g1520">
					<path id="path1516" inkscape:connector-curvature="0" class="st79" d="M278.3,282.3c-5.9,4.2-16.7,34.6-17.6,43.6
						c-1.9,20.6-1.8,46.2,4.3,62.6"/>
					<path id="path1518" inkscape:connector-curvature="0" class="st79" d="M471.6,282.3c5.9,4.2,16.7,34.6,17.6,43.6
						c1.9,20.6,1.8,46.2-4.3,62.6"/>
				</g>
			</g>
			<path id="path1524" inkscape:connector-curvature="0" class="st80" d="M315.2,246.9c-13,1.4-12.4,9.9-0.2,21.9
				c2.3,2.3,3.1,2.2,3.6-0.2c0.9-4.2,5.5-6.6,7.9-3.5c1.7,2.2,1.3,3.4,6.8,2.6c7,5.8,12.6,9.9,3.5,9.6c-4-0.2-7.1,2.2-12.3,2
				c1.5,3,1.8,3.3,2.7,3.6c5.1,1,10.4-2.2,15.5-1.2c11.2,2.1-17.9-30.2-17.6-31.5C326.1,247,318.2,241.2,315.2,246.9L315.2,246.9z"
				/>
			<path id="path1526" inkscape:connector-curvature="0" class="st74" d="M315.6,246.6c1.1,3.1,3.1,5.9,6.2,8.4"/>
		</g>
		<path id="path1530" inkscape:connector-curvature="0" class="st9" d="M312.8,252.8c0.1-0.6,0.6-1,1.2-0.9c0.6,0.1,1,0.6,0.9,1.2
			c-0.1,0.6-0.6,1-1.2,0.9C313.1,253.9,312.7,253.4,312.8,252.8"/>
		<g id="g1606">
			<g id="g1558">
				<g id="g1544">
					<path id="path1532" inkscape:connector-curvature="0" class="st81" d="M324,451.2l0.3-8.5c-3.4-1.7-11.9,0-15.5,7.9
						c-4.5,9.8-8.7,15.1-14,19.7c7.7,1.4,14.3-0.1,18.5-5.7C319.1,456.9,322.1,452.3,324,451.2L324,451.2z"/>
					<path id="path1534" inkscape:connector-curvature="0" class="st82" d="M330.3,452.4l-9.2-3.9c-3.8,7.7-6.4,12.9-7.4,15.7
						c-2.1,5.5-2.7,10.8-1.7,15.3c3.7-1,8.1-3.6,11-9.1C325.9,464.9,327.7,458.5,330.3,452.4L330.3,452.4z"/>
					<path id="path1536" inkscape:connector-curvature="0" class="st83" d="M333,452.4l-9.9-1.5c-1.8,8.4-3,14.1-3.4,17.1
						c-0.7,5.9,0,11.1,2.1,15.2c3.4-1.8,6.9-5.5,8.5-11.5C331.7,465.6,331.9,458.9,333,452.4L333,452.4z"/>
					<path id="path1538" inkscape:connector-curvature="0" class="st84" d="M334.4,438.9l5.9,0c3.4,1.7,7.1,9.6,2.9,17.1
						c-5.2,9.4-6.9,15.9-7.4,23c-5.8-5.3-8.5-11.5-6.5-18.3C332.1,451.5,334.7,441,334.4,438.9L334.4,438.9z"/>
					<path id="path1540" inkscape:connector-curvature="0" class="st85" d="M337.1,434.8l-9.4-3.3c-3.3,7.9-5.6,13.3-6.5,16.1
						c-1.8,5.7-2.1,10.9-0.8,15.3c3.7-1.2,8.4-3.6,11-9.2C333.9,448,334.8,441,337.1,434.8L337.1,434.8z"/>
					<path id="path1542" inkscape:connector-curvature="0" class="st86" d="M330.7,428.2l-2.1-12.8c-2.2-0.6-5.1,4.5-7.9,7.4
						c-0.6,0.7-1.4,1.3-2,2.2c-1.2,1.8-2.1,3.9-2.7,6.2c-2.4,10.5-5.8,16-10.1,21.6c7.9-0.2,14-3,17-9.4
						C327,434.8,329,429.6,330.7,428.2L330.7,428.2z"/>
				</g>
				<g id="g1556">
					<path id="path1546" inkscape:connector-curvature="0" class="st52" d="M429.8,455.4c2.5,0.1,5.6,1.5,14.6,9.3
						c3.9,8,7.9,16.1,13.3,23c1.9,1.2,3.3,2.1,4.8,2.6c1.5,0.5,12.9,0.1,13.1-0.3c3.5-3.2,8.9-0.9,7.1,2.5c1.4,1.3-1.7,6.2-4.2,4.2
						c-2.3-1.8-10.2-0.1-12.8-1.1c1,2.4,8.1,3.9,13.1,4.3c4.6,0.2,4.3,4.7,2.4,8.2c-2.1,1.4-0.4-0.4-1.2,0.6c-2,3-6.4,2.6-6.6-0.3
						c-0.2-3.1-10.8-7-12.4-9.4c2,4.6,6.5,9,8.7,13.5c2.4,2.4,3.9,2.9,0.8,7.8c-3.4-0.4-3.6-1.3-5.8,0.7c-4.7-0.5-5.5-1.9-4.7-5.6
						c0.8-3.9-2.5-11.1-3.6-13.1c-1-1.9-1.3-3.8-2.2-4.9c-1.7-2-9.8-6.1-11.9-4.9c-3.8,2-6.8,0.8-7.2-2.9c1.2-1,0.3-6.2,3-6.5
						c2.2-0.2,3.5,0.5,5.5,2.1c3.1,2.6,4.8,3.9,5.8,3.6c2.4-0.7-4.4-4-10.7-12.3C430,465.1,429.4,459.3,429.8,455.4L429.8,455.4z"/>
					<path id="path1548" inkscape:connector-curvature="0" class="st53" d="M482.2,494.5c3.1-1.8,5-1.8,6.2-0.4
						c0.7,0.8,1.5,0.4,1-0.8c-2.1-4.9-5.4-5.5-8.4-3.2c-0.8,0.8-1.5,1.4-2.2,2.1C479.3,492.9,481.8,494,482.2,494.5L482.2,494.5z"/>
					<path id="path1550" inkscape:connector-curvature="0" class="st54" d="M437.2,490.1c-3.3-2.3-6.5-2.7-8.2-1.4
						c-0.9,0.7-1.9,0.2-1-1c3.5-4.9,7.5-5.1,10.6-2.4c0.8,0.9,1.5,1.7,2.1,2.4C439.7,488.9,437.4,490.2,437.2,490.1L437.2,490.1z"/>
					<path id="path1552" inkscape:connector-curvature="0" class="st55" d="M463.5,518c2,4,3.1,6.8,2.2,9c-0.5,1.3,0.1,2.4,1.4,1.3
						c5.2-4.5,5.2-9.6,1.9-13.1c-1.1-1.2-2.3-1.9-3.4-2.8C464.3,513.7,463.4,517.8,463.5,518L463.5,518z"/>
					<path id="path1554" inkscape:connector-curvature="0" class="st56" d="M476.5,507.3c3.1,1.3,4.2,2.9,4.1,5
						c-0.1,1.2,0.7,1.6,1.1,0.2c3.8-8.8-0.1-10.4-5.8-10.1C475.6,504,476.4,507.3,476.5,507.3L476.5,507.3z"/>
				</g>
			</g>
			<g id="g1570">
				<path id="path1560" inkscape:connector-curvature="0" class="st57" d="M449.8,487.8c2-1.2,2.2-2.5,1.6-3.4
					c-1.1-1.9-2.3-1-4.4,0.8"/>
				<path id="path1562" inkscape:connector-curvature="0" class="st57" d="M447.2,484.9c2-1.2,2.2-2.5,1.6-3.4
					c-1.1-1.9-2.3-1-4.4,0.8"/>
				<path id="path1564" inkscape:connector-curvature="0" class="st58" d="M444.2,482.2c2.3-1.5,2.4-3.3,1.8-4.4
					c-1.2-2.4-2.5-1.3-4.9,1"/>
				<path id="path1566" inkscape:connector-curvature="0" class="st59" d="M441,478.7c2.4-1.7,2.5-3.7,1.9-5
					c-1.3-2.8-2.7-1.4-5.2,1.1"/>
				<path id="path1568" inkscape:connector-curvature="0" class="st60" d="M437.7,475.1c2.2-1.8,2.9-3.7,1.9-5.3
					c-1.6-2.5-2.7-1.5-5.2,1.2"/>
			</g>
			<g id="g1584">
				<path id="path1572" inkscape:connector-curvature="0" class="st81" d="M425.9,451.3l-0.3-8.5c3.4-1.7,11.9,0,15.5,7.9
					c4.4,9.8,8.7,15.1,14,19.7c-7.7,1.4-14.3-0.1-18.5-5.7C430.8,456.9,427.8,452.3,425.9,451.3L425.9,451.3z"/>
				<path id="path1574" inkscape:connector-curvature="0" class="st82" d="M419.6,452.4l9.2-3.9c3.8,7.7,6.4,12.9,7.4,15.7
					c2.1,5.5,2.7,10.8,1.7,15.3c-3.7-1-8.1-3.6-11-9.1C424,464.9,422.2,458.4,419.6,452.4L419.6,452.4z"/>
				<path id="path1576" inkscape:connector-curvature="0" class="st83" d="M416.9,452.4l9.9-1.5c1.8,8.4,3,14.1,3.4,17.1
					c0.7,5.9,0,11.1-2.1,15.2c-3.4-1.8-7-5.5-8.5-11.5C418.2,465.6,418,458.9,416.9,452.4L416.9,452.4z"/>
				<path id="path1578" inkscape:connector-curvature="0" class="st84" d="M415.4,438.9l-5.9,0c-3.4,1.7-7.1,9.6-2.9,17.1
					c5.2,9.4,6.9,15.9,7.4,23c5.8-5.3,8.5-11.5,6.5-18.3C417.8,451.5,415.1,441,415.4,438.9L415.4,438.9z"/>
				<path id="path1580" inkscape:connector-curvature="0" class="st85" d="M412.8,434.8l9.4-3.3c3.3,7.9,5.6,13.3,6.5,16.1
					c1.8,5.7,2.1,10.9,0.8,15.3c-3.7-1.2-8.4-3.6-11-9.2C416,448,415.1,441,412.8,434.8L412.8,434.8z"/>
				<path id="path1582" inkscape:connector-curvature="0" class="st86" d="M419.2,428.2l2.1-12.8c2.2-0.6,5.1,4.5,7.9,7.4
					c0.7,0.7,1.4,1.3,2,2.2c1.2,1.8,2.1,3.8,2.7,6.2c2.4,10.5,5.8,16,10.1,21.6c-7.9-0.2-14-3-17-9.4
					C422.9,434.8,420.9,429.6,419.2,428.2L419.2,428.2z"/>
			</g>
			<path id="path1586" inkscape:connector-curvature="0" class="st87" d="M427.4,328.4v84.9c0,15.2-5.9,29-15.4,38.9
				c-9.5,10-22.6,16.2-37.1,16.2h0c-14.5,0-27.6-6.2-37.1-16.2c-9.5-10-15.4-23.8-15.4-38.9v-84.9H427.4z"/>
			<g id="g1602">
				<path id="path1588" inkscape:connector-curvature="0" class="st88" d="M427.4,380.4v21.9h-41.6v64.8c-3.5,0.8-7.2,1.2-10.9,1.2
					h0c-3.7,0-7.4-0.4-10.9-1.2v-64.8h-41.6v-21.9H364v-52.1h21.9v52.1H427.4z"/>
				<g id="g1600">
					<path id="path1590" inkscape:connector-curvature="0" class="st89" d="M356.9,340.8v30.7c-6.7,1.8-23,8.3-23.9-5.9
						c-0.4-6.6,8.2-10.9,10.5-5.1c1.1,2.8-0.1,4.7-1.7,5.3c-1.7,0.7-3.5-0.7-3-2.8c-6.9,3.6,6.2,11.3,12.1,1.3
						c1.7-2.9-2.9-6-2.9-8.1c0-2.2,4.6-5.4,2.9-8.1c-6-10-19.1-2.3-12.1,1.3c-0.5-2.1,1.3-3.5,3-2.8c1.6,0.6,2.8,2.6,1.7,5.3
						c-2.3,5.8-10.9,1.5-10.5-5.1C333.9,332.5,350.2,339,356.9,340.8L356.9,340.8z"/>
					<g id="g1598">
						<path id="path1592" inkscape:connector-curvature="0" class="st90" d="M393,340.8v30.7c6.7,1.8,23,8.3,23.9-5.9
							c0.4-6.6-8.2-10.9-10.5-5.1c-1.1,2.8,0.1,4.7,1.7,5.3c1.7,0.7,3.5-0.7,3-2.8c6.9,3.6-6.2,11.3-12.1,1.3
							c-1.7-2.9,2.9-6,2.9-8.1c0-2.2-4.6-5.4-2.9-8.1c6-10,19.1-2.3,12.1,1.3c0.5-2.1-1.3-3.5-3-2.8c-1.6,0.6-2.8,2.6-1.7,5.3
							c2.3,5.8,10.9,1.5,10.5-5.1C416,332.5,399.7,339,393,340.8L393,340.8z"/>
						<path id="path1594" inkscape:connector-curvature="0" class="st90" d="M356.9,442v-30.8c-6.7-1.8-23-8.3-23.9,6
							c-0.4,6.6,8.2,10.9,10.5,5.1c1.1-2.8-0.1-4.7-1.7-5.3c-1.7-0.7-3.5,0.7-3,2.8c-6.9-3.6,6.2-11.3,12.1-1.3
							c1.7,2.9-2.9,6-2.9,8.1c0,2.2,4.6,5.4,2.9,8.1c-6,10-19.1,2.3-12.1-1.3c-0.5,2.1,1.3,3.5,3,2.8c1.6-0.6,2.8-2.6,1.7-5.3
							c-2.3-5.8-10.9-1.5-10.5,5.1C333.9,450.3,350.2,443.8,356.9,442L356.9,442z"/>
						<path id="path1596" inkscape:connector-curvature="0" class="st90" d="M393,442v-30.8c6.7-1.8,23-8.3,23.9,6
							c0.4,6.6-8.2,10.9-10.5,5.1c-1.1-2.8,0.1-4.7,1.7-5.3c1.7-0.7,3.5,0.7,3,2.8c6.9-3.6-6.2-11.3-12.1-1.3
							c-1.7,2.9,2.9,6,2.9,8.1c0,2.2-4.6,5.4-2.9,8.1c6,10,19.1,2.3,12.1-1.3c0.5,2.1-1.3,3.5-3,2.8c-1.6-0.6-2.8-2.6-1.7-5.3
							c2.3-5.8,10.9-1.5,10.5,5.1C416,450.3,399.7,443.8,393,442L393,442z"/>
					</g>
				</g>
			</g>
			<path id="path1604" inkscape:connector-curvature="0" class="st91" d="M427.4,328.4v84.9c0,15.2-5.9,29-15.4,38.9
				c-9.5,10-22.6,16.2-37.1,16.2h0c-14.5,0-27.6-6.2-37.1-16.2c-9.5-10-15.4-23.8-15.4-38.9v-84.9H427.4z"/>
		</g>
	</g>
</g>
</svg>
