<?xml version="1.0" encoding="utf-8"?>
<!-- Generator: Adobe Illustrator 23.1.0, SVG Export Plug-In . SVG Version: 6.00 Build 0)  -->
<svg version="1.1" id="Layer_1" xmlns="http://www.w3.org/2000/svg" xmlns:xlink="http://www.w3.org/1999/xlink" x="0px" y="0px"
	 viewBox="0 0 1400 700" style="enable-background:new 0 0 1400 700;" xml:space="preserve">
<style type="text/css">
	.st0{fill:#012169;}
	.st1{fill:#FFFFFF;}
	.st2{fill:#C8102E;}
	.st3{fill:#6A4C2D;stroke:#000000;stroke-width:1.1592;stroke-miterlimit:2.484;}
	.st4{fill:#FFFFFF;stroke:#000000;stroke-width:1.1592;stroke-miterlimit:2.484;}
	.st5{fill:url(#SVGID_1_);stroke:#000000;stroke-width:1.1592;stroke-miterlimit:2.484;}
	.st6{fill:#656263;stroke:#000000;stroke-width:1.1592;stroke-miterlimit:2.484;}
	.st7{stroke:#000000;stroke-width:1.449;stroke-linejoin:round;stroke-miterlimit:2.484;stroke-opacity:0.9785;}
	.st8{fill:#FFBB00;stroke:#000000;stroke-width:1.1514;stroke-miterlimit:2.484;}
	.st9{fill:#FFBB00;stroke:#000000;stroke-width:1.1592;stroke-miterlimit:2.484;}
	.st10{fill:#00713D;stroke:#000000;stroke-width:1.1592;stroke-miterlimit:2.484;}
	.st11{fill:none;stroke:#3EC26D;stroke-width:1.449;stroke-linecap:round;stroke-miterlimit:2.484;}
	.st12{fill:#006B00;stroke:#000000;stroke-width:1.1592;stroke-miterlimit:2.484;}
	.st13{fill:#FFC900;stroke:#006B00;stroke-width:0.7989;stroke-linecap:round;stroke-miterlimit:2.484;}
	.st14{fill:#CDAD56;stroke:#000000;stroke-width:1.449;stroke-linejoin:round;stroke-miterlimit:2.484;}
	.st15{fill:#CDAD56;stroke:#000000;stroke-width:1.2738;stroke-linejoin:round;stroke-miterlimit:2.484;}
	.st16{fill:#FFC900;}
	.st17{fill:#FFC900;stroke:#006B00;stroke-width:0.7989;stroke-linecap:round;stroke-linejoin:round;stroke-miterlimit:2.484;}
	.st18{fill:none;stroke:#006B00;stroke-width:2.3333;stroke-linecap:round;}
	.st19{fill:#E80000;stroke:#006B00;stroke-width:2.3333;stroke-linecap:round;}
	.st20{fill:#006B00;}
	.st21{fill:#FFC900;stroke:#FFC900;stroke-width:2.3333;stroke-linecap:round;stroke-linejoin:round;}
	.st22{fill:#E80000;stroke:#006B00;stroke-width:2.3333;stroke-linejoin:round;}
	.st23{fill:#E80000;stroke:#006B00;stroke-width:1.8667;stroke-linejoin:round;}
	.st24{fill:#FFC900;stroke:#006B00;stroke-width:1.8667;stroke-linejoin:round;}
	.st25{fill:none;}
	.st26{fill:url(#SVGID_2_);}
	.st27{fill:#C01500;stroke:#000000;stroke-width:1.1592;stroke-miterlimit:2.484;}
	.st28{fill:#C01500;stroke:#000000;stroke-width:1.1514;stroke-miterlimit:2.484;}
	.st29{fill:#1E5AA6;stroke:#000000;stroke-width:1.1592;stroke-miterlimit:2.484;}
	.st30{fill:#1E5AA6;stroke:#000000;stroke-width:1.1227;stroke-miterlimit:2.484;}
	.st31{font-family:'Arial-BoldMT';}
	.st32{font-size:16.2288px;}
	.st33{font-size:15.3198px;}
	.st34{font-size:16.2287px;}
	.st35{font-size:15.6515px;}
	.st36{font-size:15.9773px;}
	.st37{fill:none;stroke:#FFF700;stroke-width:1.1592;stroke-linecap:round;stroke-miterlimit:2.484;}
	.st38{fill:url(#SVGID_3_);stroke:#000000;stroke-width:1.1592;stroke-miterlimit:2.484;}
	.st39{fill:#FF7000;stroke:#000000;stroke-width:1.1592;stroke-miterlimit:2.484;}
	.st40{fill:none;stroke:#000000;stroke-width:1.1592;stroke-miterlimit:2.484;}
	.st41{fill:#FFFFFF;stroke:#000000;stroke-width:1.449;stroke-linejoin:round;stroke-miterlimit:2.484;}
	.st42{fill:none;stroke:#FFFFFF;stroke-width:1.449;stroke-linecap:round;stroke-miterlimit:2.484;}
	.st43{fill:#C75B00;stroke:#000000;stroke-width:1.1592;stroke-miterlimit:2.484;}
	.st44{fill:#CCCCCD;stroke:#CCCCCC;stroke-width:1.1592;stroke-miterlimit:2.484;}
	.st45{fill:#0000FF;stroke:#000000;stroke-width:1.1592;stroke-miterlimit:2.484;}
	.st46{fill:#CCCCCD;stroke:#CCCCCC;stroke-width:1.0987;stroke-miterlimit:2.484;}
	.st47{fill:#923F00;stroke:#000000;stroke-width:1.1592;stroke-miterlimit:2.484;}
	.st48{fill:#FFFEFF;stroke:#000000;stroke-width:1.1592;stroke-miterlimit:2.484;}
	.st49{fill:#5E0043;stroke:#000000;stroke-width:1.1592;stroke-miterlimit:2.484;}
	.st50{fill:#474747;stroke:#474747;stroke-width:1.449;stroke-linejoin:round;stroke-miterlimit:2.484;}
	.st51{fill:none;stroke:#000000;stroke-width:1.449;stroke-linecap:round;stroke-miterlimit:2.484;}
	.st52{fill:#B4B6B9;stroke:#000000;stroke-width:1.1592;stroke-miterlimit:2.484;}
	.st53{fill:url(#SVGID_4_);stroke:#000000;stroke-width:1.1592;stroke-miterlimit:2.484;}
	.st54{fill:#FF7000;stroke:#000000;stroke-width:1.1592;stroke-linejoin:round;stroke-miterlimit:2.484;}
	.st55{fill:#FF7000;stroke:#000000;stroke-width:1.449;stroke-linejoin:round;stroke-miterlimit:2.484;}
	.st56{fill:url(#SVGID_5_);stroke:#000000;stroke-width:1.1592;stroke-miterlimit:2.484;}
	.st57{fill:url(#SVGID_6_);stroke:#000000;stroke-width:1.1592;stroke-miterlimit:2.484;}
	.st58{fill:#8A9396;stroke:#2B2B2B;stroke-width:1.1592;stroke-miterlimit:2.484;}
	.st59{fill:#CECFCF;stroke:#2B2B2B;stroke-width:1.1592;stroke-miterlimit:2.484;}
	.st60{fill:none;stroke:#2B2B2B;stroke-width:0.7245;stroke-miterlimit:2.484;}
	.st61{fill:#2B2B2B;stroke:#2B2B2B;stroke-width:1.1592;stroke-miterlimit:2.484;}
	.st62{fill:none;stroke:#2B2B2B;stroke-width:1.1592;stroke-miterlimit:2.484;}
	.st63{fill:#2B2B2B;stroke:#2B2B2B;stroke-width:1.449;stroke-linejoin:round;stroke-miterlimit:2.484;}
	.st64{fill:#8A9396;stroke:#2B2B2B;stroke-width:1.449;stroke-linejoin:round;stroke-miterlimit:2.484;}
	.st65{fill:none;stroke:#8A9396;stroke-width:1.449;stroke-linecap:round;stroke-miterlimit:2.484;}
	.st66{fill:none;stroke:#2B2B2B;stroke-width:1.449;stroke-linecap:round;stroke-miterlimit:2.484;}
</style>
<rect x="0" y="0" class="st0" width="1400" height="700"/>
<g transform="matrix(.75595 0 0 .75595 0 -.000017730)">
	<g transform="matrix(8.2677 0 0 8.2677 0 .000022888)">
		<path class="st1" d="M0,0v6.3L99.5,56H112v-6.3L12.5,0L0,0L0,0z M112,0v6.3L12.5,56H0v-6.3L99.5,0H112z"/>
		<path class="st1" d="M46.7,0v56h18.7V0H46.7z M0,18.7v18.7h112V18.7H0z"/>
		<path class="st2" d="M0,22.4v11.2h112V22.4H0z M50.4,0v56h11.2V0H50.4z"/>
		<path class="st2" d="M0,56l37.3-18.7h8.3L8.3,56H0z M0,0l37.3,18.7H29L0,4.2C0,4.2,0,0,0,0z M66.3,18.7L103.7,0h8.3L74.7,18.7
			H66.3z M112,56L74.7,37.3H83l29,14.5V56z"/>
	</g>
</g>
<g transform="matrix(0.621 0 0 0.621 461.4 21.482)">
	<path class="st3" d="M918.3,763.7c0,0-6.3,16.5-9.8,16.5c-3.6,0-16.5-7.1-16.5-7.1s-9.4,15.2-14.3,16.1c-4.9,0.9-17.8-2.2-17.8-2.2
		s-12.5,0-12.9-1.8c-0.4-1.8,0.4-5.3,0.4-5.3s-17.8,14.3-21.9,13.4c-4-0.9-17.4-17.8-17.4-17.8l-2.2,8.9l-25.4-0.9L758.1,769
		c0,0-12.5,20.5-12.9,20.1c-0.4-0.4-21.9,4.9-21.9,4.9l-1.3-4l-14.3-8.5c0,0,11.2-15.6,11.2-16.1c0-0.4-5.4-2.2-5.4-2.2l-8,6.7
		L689,780.6l-16.5-7.6l7.1-13.4l0.9-9.8l12.9-19.6l158.4-153.9l78.1,144.1L918.3,763.7L918.3,763.7z"/>
	<path class="st4" d="M1030.8,773l41.2-1.5l-17.5-8.7l157.1-5.9l-22.2-8.5l-19.7-26.6l-81.4-6.1c0,0-6.1-4.6-16.1-2.3
		c-0.4-6.3-8-14.6-8-14.6l-50.1-3.8l-31.3,21.4l21.1,54.1L1030.8,773L1030.8,773z"/>
	
		<linearGradient id="SVGID_1_" gradientUnits="userSpaceOnUse" x1="180.9457" y1="199.3981" x2="183.9324" y2="283.4353" gradientTransform="matrix(0.9378 0 0 -0.4048 777.5558 375.2979)">
		<stop  offset="0" style="stop-color:#474747"/>
		<stop  offset="1" style="stop-color:#FF5500"/>
	</linearGradient>
	<path class="st5" d="M870.4,311.4l4.1-14.1c0,0,7.3-12.2,7.3-17.7c0-5.4,5.4-11.8,5.4-11.8s16.6-4.8,20.1,5.4
		c17.9-27,38.8-1.3,38.8-1.3l5.8-6.9l11.8-14.5c0,0,16.8,15.8,17,18.5c0.2,2.7,2.9,0.8,2.9,0.8l18.3-1.5c0,0,8.7,6.8,6.9,19.7
		c6.4,3.8,12.2,26.2,12.2,26.2S870.4,311.4,870.4,311.4z"/>
	<path class="st6" d="M1030.8,479.3c3.2-1.9,13.1-5.1,11.9-19.6c-1.2-14.5-13.8-16.2-20.8-15.7c-7,0.5-13.3,6.5-13.3,6.5l-23.2-14.8
		c0,0,11.6-73.4,24-78c11.7-8.5,13.8-12.1,13.8-14c0-1.9-4.3-6.8-4.3-6.8l-75.8-9l-71.7,8.5c0,0-5.6,8.5-4.8,11.9
		c0.7,3.4,1,7,13.8,16.9c14.2,10.9,24,73.6,24,73.6s-20.1,9.9-21.3,8.7c-1.2-1.2-7.3-2.4-10.4-1.9c-3.1,0.5-13.6,5.8-13.6,19.6
		c0,13.8,10.4,21.8,10.4,21.8s68.5-8,78.7,10.9C957.9,475.2,1023,483.2,1030.8,479.3z"/>
	<path class="st7" d="M1104.6,403.1c0,0,0.8-8,6.4-11.8c5.7-3.8,43.6-5.7,52.7,0c9.1,5.7,12.5,33.7,12.5,33.7s5.7,9.9,6.1,17.1
		c0.4,7.2,1.1,12.1,1.1,12.1s30.3,39.4,30.7,75.1c3.4,24.3,2.7,89.1-6.8,113.7c-0.4,30.7-13.3,50.8-13.3,50.8s3,5.3,2.7,11
		c-0.4,5.7-3.4,11-3.4,11l44.4,22l-16.3-6.1c0,0,16.7,14,16.3,13.7c-0.4-0.4-18.6-8.7-18.6-8.7l11,11c-0.4-0.4-26.9-12.1-26.9-12.1
		s12.5,11.8,11.8,11.4c-0.8-0.4-20.1-9.5-20.1-9.5s12.1,12.9,11.8,12.1c-0.4-0.8-17.4-7.6-17.4-7.6l0.7,6.4c0,0-13.6-0.8-13.6-11
		c-6.8-3.8-11.4-9.1-11.4-9.1l-31.5-5.3l-35.7-106.5l8.3-180.1l2.3-9.1L1104.6,403.1L1104.6,403.1z"/>
	<path class="st8" d="M1080.8,978.6c0,0-18.3-38.4-27.3-38.9c-8.2-15.7,28.5-143.7,99.6-151c39.1,3.2,3.2,45.1-22.5,32.2
		c3.2,11.3,16.1,27.4,16.1,27.4S1095.8,870.3,1080.8,978.6L1080.8,978.6z"/>
	<path class="st9" d="M836,984.2c0,0,15.1-43.7,24.3-44.3c9.2-0.5-24.3-145.7-97.1-146.8c-39.4,3.2-3.2,45.3,22.7,32.4
		c-3.2,11.3-16.2,27.5-16.2,27.5S820.9,875.2,836,984.2z"/>
	<path class="st10" d="M902.9,711.2c-0.2-0.4-18.1,5.6-6.5,25.1c0.9-7.5,8.9-12.1,8.9-12.1S893,738.8,906,751
		c1.6-11.6,9-15.3,9-15.3s-9.1,26.9,0.2,32.3c1.1-10.7,7.9-15.4,7.9-15.4s-8.3,24-0.9,29.5c0.9-9.1,7-13.2,7-13.2s-3.7,24.9,6,26.7
		c0.2-8.8,7.2-17.4,7.2-17.4s-3.2,20.3,11.9,21.2c0.2-7.7,3-16.5,3-16.5s6.9,21.6,16.9,18.1c-0.2-6.3,0.2-18.3,0-18.3
		c-0.2,0,6.3,20.5,18.3,16.7c-1.8-5.8,0.7-12.7,0.7-12.7s6.3,12.8,17.7,8.6c1.9-3.9-0.5-11.4-0.5-11.4s16.7,17.2,21.8,6.9
		c5.1-10.4-13.3-13.9-13.3-13.9h12.5c0,0-4-10.5-20.9-12.8c5.8-2.6,11.8-0.7,11.8-0.7s-3.5-13.2-20.7-14.6
		c6.7-2.3,14.1-0.7,14.1-0.7s-2.3-12.5-21.2-16c3-3.3,11.1-2.3,11.1-2.3s-7.5-11.8-16.1-11.1C980.4,719.6,902.7,711,902.9,711.2
		L902.9,711.2z"/>
	<g>
		<g>
			<path class="st11" d="M979.6,774.6c0,0,6.9,3.3,6.7,6.3"/>
			<path class="st11" d="M983.6,769.1c0,0,8.8,6.1,8.6,10.7"/>
			<path class="st11" d="M991.3,765.9c0,0,7,4.4,7.4,11.2"/>
			<path class="st11" d="M1003.1,768.8c0,0,3.5,7.5,2.3,8.9"/>
			<path class="st11" d="M1010.1,772.8c0.5,6-0.5,6.5-0.5,6.5"/>
		</g>
		<path class="st11" d="M923.6,735.1c0,0,8.3,5.3,7.6,12.6"/>
		<path class="st11" d="M923,741.4c0,0,3.9,3.7,3,6.1"/>
		<path class="st11" d="M933.2,735.2c0,0,5.4,7.5,3.7,12.8"/>
		<path class="st11" d="M942.5,740.2c0,0,2.5,4.7,0.2,7.4"/>
		<path class="st11" d="M946.9,742.4c0,0,3,4.7,0.4,6.3"/>
		<path class="st11" d="M943.6,758.1c0,0,7.7,1.8,8.8,7.5"/>
		<path class="st11" d="M948.1,752.8c0,0,8.1,0.5,9,9.1"/>
		<path class="st11" d="M958.9,749.8c0.2,0,5.4,9.3,4.6,12.3"/>
		<path class="st11" d="M969.2,750.7c0,0,2.1,9,0.5,11.8"/>
		<path class="st11" d="M975.9,754.2c0,0.2,0.2,10.4,0.2,10.4"/>
		<path class="st11" d="M965.7,740.2c0,0,5.1,1.9,4.7,6.9"/>
		<path class="st11" d="M970.4,735.6c0,0,6.5,3.7,5.8,10.7"/>
		<path class="st11" d="M978,732.6c0,0,5.6,6.7,3.5,14"/>
		<path class="st11" d="M987.8,734.2c0,0-2.1,8.3-1.2,11.6"/>
		<path class="st11" d="M993.8,739.8c0,0-3.7,2.8-1.8,6.3"/>
		<path class="st11" d="M961.8,771.9c0,0,1.2,6.3,0,7.4"/>
		<path class="st11" d="M953.8,768.2c0,0,4,7,2.6,10.5"/>
		<path class="st11" d="M945.2,767.9c0,0,4.6,5.3,4.4,9.5"/>
		<path class="st11" d="M938.1,768.9c0,0,4.2,4.1,3.9,6.3"/>
		<path class="st11" d="M934.5,775.1c0,0,4,4.2,3.8,5.1"/>
	</g>
	<path class="st4" d="M847.1,486.9c19.4-0.4,38.7-0.7,58.1-1c0,0,38.4,0,42.5,12.5c7.3-16.6,40.4-15.5,40.4-15.5
		c20-0.7,40.1-1.4,60.1-2.1c0.4,48.4,0.7,96.8,1,145.2c-11.7,56.3-52.5,96.1-97.5,113c-53.6-17.3-87.4-62.6-98.5-114.1
		C851.3,578.8,849.2,532.9,847.1,486.9L847.1,486.9z"/>
	<path class="st12" d="M867.8,486.4l84.6,225.4l76.4-230.3c-23.7,1.5-74.6-3.7-80.9,17.9C938.2,480,884.7,487.8,867.8,486.4z"/>
	<path class="st13" d="M925.4,608.4c3.3,1.7,3.2-61.2,7.4-63.1c1.2-5.2,1.8-7.5,3.4-13c-3.7-6.5-20.1-6.2-26.2-0.7
		c2.7,8.8,4,11.7,4,11.7C922.2,556.7,920.5,609.8,925.4,608.4z"/>
	<path class="st14" d="M902.7,122.5c0,0,6-6.8,6.3-8.4c0.3-1.6,27.2-2.7,43.2-32.6c9-15.8,0-6.5,0-6.5l-0.5-7.6
		c0,0,11.1-10.6,7.1-16.3c-4.1-5.7-2.7,7.3-9.2,7.1c-6.5-0.3-3-14.1-3-14.1s-0.5-1.6-2.4-2.4c-2.7,0.3-1.9,5.2-4.3,5.7
		c-2.4,0.5-4.6-11.4-4.6-11.4s-4.1-5.4-7.6,11.7c1.9,18.2,13.6,14.7,13.6,26.6c0,11.9-10.3,21.2-13.3,21.5c-3,0.3-1.9-10-1.9-10
		s-1.6-4.9-2.7-4.9s6-1.1,4.9-14.7c-2.4-16.3-4.3,3.8-8.7,3c-4.3-0.8-1.1-14.9,0.5-16.6c1.6-1.6-1.9-8.4-11.4,9
		c-0.8,8.4-1.9-2.2-3.8-1.6c-3.2,6.8-2.7,11.7,1.9,17.9c6.8,6.2,11.1,12.5,10.9,15.8c-0.3,3.3-3.8,10.6-8.7,10.6c-4.9,0,0.3-9,0-12
		c-0.3-3-8.4-13.8-8.4-13.8s-5.7-9.2-5.2-9.5c0.5-0.3-0.5-1.6-3.2,7.9c-2.7,9.5-6-6.2-6-6.2s-3.8,11.7,4.3,18.7
		c-6.2-0.8-6.8,1.6-6.8,1.6c0,3.3,8.4,4.6,9.5,10.3c1.1,5.7-8.7,9-8.7,9s4.1,5.7,15.5-5.4c0.3,7.1-4.3,11.9-4.3,11.9
		C899.2,118.2,902.2,118,902.7,122.5L902.7,122.5z"/>
	<path class="st15" d="M865.5,122.5c0,0-5.1-7.5-5.3-9c-0.2-1.5-25,1.9-36.7-28.3c-7.6-14.3,0-5.9,0-5.9l0.5-6.9
		c0,0-8.1-9.9-4.6-15.1s2,6.7,6.5,6.7c5.5-0.2,2.5-12.9,2.5-12.9s0.5-1.5,2.1-2.2c2.3,0.2,3.3,7.7,5.3,8.2c2.1,0.5,6.4-8.7,7.7-10.7
		c1.9-0.3,1.8-7.7,4.8,7.9c-1.6,16.6-15.3,13.3-15.3,24.2c0,10.9,8.8,19.3,11.3,19.5c2.5,0.2,1.6-9.1,1.6-9.1s1.4-4.4,2.3-4.4
		c0.9,0-8.1,1.7-7.1-10.6c2.1-11.6,6.7,0.7,10.4,0c3.7-0.7-0.4-12.2,0.6-14c0.2-1.8,5.7-9.3,7.8,7.3c0.7,7.7,4.9-6.6,6.5-6.1
		c2.8,6.2-1.2,14.4-5.1,20.1c-5.8,5.7-8.4,11.9-8.1,14.9c0.2,3,1.6,6.6,5.7,6.6c4.1,0,1.4-5.2,1.6-7.9s7.1-11.5,7.1-11.5
		c1.4-2.2,0.2-6.2,1.7-8.1c2.3,0,3.2-3.1,5.5,5.5c2.3,8.6,5.1-5.7,5.1-5.7s3.2,10.6-3.7,17.1c5.3-0.7,5.8,1.5,5.8,1.5
		c0,3-2.5,4.2-3.5,9.4c-0.9,5.2,2.8,8.2,2.8,8.2s-3.5,5.2-13.1-4.9c-0.2,6.4,3.7,10.9,3.7,10.9C868.4,118.6,865.9,118.4,865.5,122.5
		z"/>
	<path class="st16" d="M1014.7,520c-5.1-4.6-5.7-0.6-8.1-1.6c-1.2-0.5-2.2-1.6-3.2-2.7c-0.9-1-2-1.3-3.2-1.8
		c-0.5,1.4-0.9,2.7-1.4,4.1c-0.5,1.4,1.3,3.6,1.3,5.7c-0.4,3-1.6,5.5-5.4,6.6c1.1-2.1,1.7-2.2,1.4-4.9c-0.1-1.3-3.8-3.6-3.4-4.9
		c0.7-2,1.8-4.3,1-6.3c-1.5,1.1-3.6,0.5-5.2,1.2c-1.3,0.6-1.4,3-3.2,4c-1.9,0.9-6,0.4-9.4-1.5c2.1-1.6,3.8-0.5,6-2.1
		c1-0.8,1-4.2,2.1-5c1.1-0.8,3.6-1.6,4.6-2.4c-1-1.1-0.9-2.8-1.8-3.9c-0.9-1.1-5.1-0.9-6.1-1.9c-1.9-2.2-1.5-5-3.4-7.1
		c4.9,1.8,4.2,4.1,5.4,4c2.3-1.1,4.6-1.3,5.8-0.8c1.2,0.5,3.5,3.5,4.8,4.1c0.5-1.4,1.1-3.1,1.6-4.4c0.5-1.4-2.1-3.7-1.6-5.1
		c0.9-2.7,3.2-5.1,4.1-7.8c0.3,2.6,0.8,4.8,1.1,7.4c0.2,1.3,2.7,2,2.9,3.3c0.2,1.3-1.3,4.3-1.2,5.7c1.4-0.3,3.5-0.1,4.9-0.4
		c1.4-0.3,2.4-3.5,3.8-3.8c2.8-0.6,4.9-0.4,7.7,0.1c-2.1,2-3.7,1.8-5.1,3.6c-1,0.8,0.4,3.4-2.6,5.3c-1.1,0.7-4.1-0.1-5.2,0.7
		c1,1.1,1.9,2.1,2.9,3.2c0.9,1.1,5.2,1.6,6.1,2.7C1014.2,515.1,1015.2,517.7,1014.7,520L1014.7,520z"/>
	<path class="st16" d="M884.6,522.2c5.1-4.6,5.7-0.6,8.2-1.6c1.2-0.5,2.2-1.7,3.2-2.7c0.9-1,2-1.3,3.2-1.9c0.5,1.4,0.9,2.7,1.4,4.1
		c0.5,1.4-1.3,3.6-1.2,5.6c0.3,3,1.6,5.5,5.4,6.6c-1.1-2.1-1.7-2.3-1.4-4.9c0.2-1.3,3.8-3.6,3.4-4.9c-0.7-2-1.8-4.3-1-6.3
		c1.6,1.1,3.6,0.5,5.2,1.2c1.3,0.6,1.4,3,3.2,4.1c1.9,0.9,6,0.4,9.4-1.5c-2.1-1.6-3.8-0.5-6-2.1c-1-0.8-1-4.2-2.1-5
		c-1-0.8-3.6-1.7-4.6-2.5c1-1.1,0.9-2.8,1.8-3.9c1-1.1,5.2-0.8,6.1-1.9c1.9-2.1,1.5-5,3.4-7.1c-4.9,1.8-4.2,4.1-5.4,4
		c-2.3-1.1-4.6-1.3-5.9-0.8c-1.2,0.5-3.5,3.5-4.8,4.1c-0.5-1.4-1.1-3.1-1.6-4.4c-0.5-1.4,2.1-3.7,1.6-5.1c-0.9-2.7-3.2-5.1-4.1-7.8
		c-0.3,2.6-0.8,4.8-1.1,7.4c-0.2,1.3-2.7,2-2.9,3.3c-0.1,1.3,1.4,4.3,1.2,5.7c-1.4-0.3-3.5-0.1-4.9-0.4c-1.4-0.3-2.3-3.6-3.8-3.8
		c-2.8-0.6-4.8-0.4-7.7,0.1c2.1,2,3.7,1.8,5.1,3.6c1,0.8-0.4,3.4,2.6,5.3c1.1,0.7,4.2-0.1,5.2,0.7c-1,1.1-1.9,2.1-2.8,3.2
		c-1,1.1-5.2,1.6-6.1,2.7C885.1,517.3,884.1,519.9,884.6,522.2L884.6,522.2z"/>
	<path class="st17" d="M1010.1,534.5c-4.6,3.6-34.2,11.1-34.5,36.8c-0.3,25.7,5.2,31.6-0.3,32.2c-10.7,0-12.2-28.6-11.9-41.3
		c0.3-12.7,0.6-10.7,0.6-10.7s7.3,1.9,6.7,8.1c-0.6,6.2,7.3-15.3,4.6-21.1c4.9,4.9,11.3,2.9,11.3,2.6c0-0.3-3.7-4.2-5.2-7.1
		s5.5,1.6,5.5,1.6s0.3-4.9-5.8-4.6c-7.9,0,1.2-2.6,1.2-2.6s4.6,4.2,7.6-0.3c-3.4-3.6-8.3-5.5-8.3-5.5s-4.3-8.1-10.1-9.7
		c-6.7-1.6-5.8,2.9-13.4,2.3c-1.5,2.9-1.5,3.2,1.5,4.2c-5.2,3.6-2.4,10.7-2.4,10.7s8.3-3.6,7.9,2.3c-0.3,5.9-4.9,4.9-7.9,1.3
		c-2.7-1.6-3.7,1.6-3.7,1.6l4.3,4.6c0,0-8.2-0.3-10.4,5.2c4.6-0.3,7,1,7,1s-9.5,4.2-10.4,6.5c-0.9,2.3-1.2-2.6-1.5-2.6
		c-0.3,0-9.2-3.3-9.2-3.3l-3.1,14.1c0,0,6.1,6.1,9.5,4.1c3.4-1.9,9.5-7.8,13.1-6.2c-10.7,8.1-21.4,19.8-27.2,21.5
		c-1.5-1.3-6.7-6.5-8.8-3.9c-2.1,2.6-0.6,5.9,2.1,5.5c2.7-0.3-8.8,2.6-6.4,7.5c2.4,4.9,2.1,4.6,4.3,3.2c2.1-1.3-1.8-1.6,6.1-3.9
		c7.9-2.3,7.6-4.6,7.6-4.6s-1.5,3.6-5.8,4.6c-4.3,1-7.6,1-6.7,2.3c0.9,1.3,2.7,3.6,2.1,4.9c-0.6,1.3,8.8-6.8,11.3-0.3
		c6.4-0.3,10.7-8.1,7.6-12.7c0.3,4.9,3.4,6.5,1.5,8.8c-1.8,2.3,14.4-7.5,6.4-13.3c2.1,4.9,2.4,8.8,2.4,8.8s3.7-0.3,4.6-1.6
		c0.9-1.3-1.8,3.6-0.6,4.6c1.2,1,7,6.5,4.6,10.4c-1.5-2.3-1.8-5.9-3.7-5.5c-1.8,0.3-9.5,5.9-14,6.2c-4.6,0.3,5.5,16.9,5.5,16.9
		s-7-1-7.9-0.3c-0.9,0.7-5.5-5.9-6.4-1.9c-1.5,4.9,1.5,2.9,1.5,2.9s-4-1.9-6.1,0.3c-2.1,2.3-4.3,4.6-2.7,5.5c1.5,1,8.2,1,9.1,0.7
		c0.9-0.3-7.6,0.7-8.2,1.6c-0.6,1-1.8,4.6,0,5.9c1.8,1.3,6.4-0.7,6.7-1.6c0.3-1,0.6,3.6,0.6,3.6s7.9,0.7,7.9-7.5
		c0-8.1,0.6,5.8,0.6,5.8s7.9,1.3,8.2-6.8c0.3-8.1,0.9,5.5,0.9,5.5s5.2-1.6,5.2-2.9c0-1.3-0.3,16.3-4,21.1c-5.8-3.9-9.5,2.6-9.5,2.6
		s0.3,9.4-0.3,11.7c-0.6,2.3,4-1.3,4.3-2.3c0.3-1,5.8-3.6,6.1-4.2c0.3-0.7,1.8-3.9,1.8-3.9s-1.2,4.6-3.3,5.2
		c-2.1,0.6-4.3,2.9-3.4,4.9c0.9,2,4.3,3.2,5.5,5.2c1.2,1.9,5.5-11.4,5.5-11.4l0.3,2.9c0,0,5.5-1.3,6.1-3.9c0.6-2.6-5.8-4.9-0.6-9.1
		c5.2-4.2,0,3.9,0,3.9s1.8,6.2,3,6.2c1.2,0,4.3-11.7,1.2-14.6c-3.1-2.9,4.6,3.6,4.6,3.6s4.3-12-0.3-13.7c-4.6-1.6-6.7-2.3-6.7-2.3
		s2.4-3.2,1.2-3.6c-1.2-0.3,6.4,7.1,7.6,5.2c1.2-1.9,3.1-7.8-5.8-11.1c-8.9-3.2-0.3-12.4-0.3-12.4s5.5,6.5,9.5,2.9
		c4-3.6-0.3-3.6-0.3-3.6s11.3-7.2,11.6-10.8c-2.1-0.3-5.8,0.3-5.8,0.3s6.4-4.2,4.9-11.1c-2.4,3.6-5.8,3.6-5.8,3.6s5.5-5.5,4.6-10.7
		c-3.3,2.6-3,4.6-5.2,3.9c-2.1-0.7-5.8-21.1,2.8-22.5c8.5-1.3,4,10.1,4.3,10.1c0.3,0,12.8-5.2,0-13.7c3.1-1,9.5,4.9,9.5,4.9
		s-2.7-14.3-16.5-5.5c3.4-3.6,5.5-5.9,8.3-5.2c2.7,0.7,12.5-0.3,12.5-3.2c-2.4-2-7.6,1-10.4,0C989.7,547.2,1012,545.6,1010.1,534.5
		L1010.1,534.5z"/>
	<path class="st18" d="M913.4,542.9c0,0,12.2-6.8,18.3,1.6"/>
	<path class="st18" d="M936.6,557.6c-0.3,0-4.3,4.2-5.2,4.2"/>
	<path class="st18" d="M944.8,571.3c0,0,11.3,1,18.6-11.1"/>
	<path class="st18" d="M957,567.7c0,0,0.9,6.5,2.8,6.5c1.8,0-3.1,1.6-4.9,0.3c2.1,2.9,3.4,8.1,0,10.1"/>
	<path class="st19" d="M951.2,649.7c0,0-4,4.5-8.9,4.9"/>
	<path class="st18" d="M955.8,628.8c0,0-2.4-13-0.9-16.3c0.9-4.2,4.9-5.9,7.9-11.4"/>
	<path class="st18" d="M954.6,619.4c0,0-3.1,7.8-16.5,5.2"/>
	<path class="st18" d="M958.3,599.9c0,0,0.9,10.4-11.3,6.5"/>
	<path class="st18" d="M943.3,553c0,0-4.9,4.5-3.1,10.7"/>
	<path class="st20" d="M961.6,541.6c0,0,6.4-2.6,7.6-3.9c1.2-1.3,3.4-3.9,4-5.9c0.6-1.9-4.3-4.9-1.8-9.1c1.5-2,3.7-2.3,7.3,0
		c3.7,2.3-3.4-7.2-7-7.5c-3.7-0.3-6.1,2.6-7,2c-0.9-0.7,0.3,2.6-1.2,2.6c-1.5,0,3,2.6,2.8,4.2c-0.3,1.6,4.9,7.2,4.6,8.5
		C970.5,533.8,963.1,541.3,961.6,541.6z"/>
	<path class="st21" d="M966.2,520.2c2.8-0.7,3.2,0.1,2.7,2.6C967.6,522.1,967.2,521.5,966.2,520.2z"/>
	<path class="st22" d="M946.7,665.1c0,0-1,6.8,1.5,7.4c-0.1-2.6,0.5-4.4,1.2-5.1C948.8,667.1,946.8,665.2,946.7,665.1L946.7,665.1z"
		/>
	<path class="st22" d="M941,656.7c-2.3-0.4-6.2,1.7-5.1,4.2c1.9-1.7,3.6,0.1,4.9-1.6C941.3,658.8,941.2,657.4,941,656.7L941,656.7z"
		/>
	<path class="st22" d="M941,651.9c0,0-3.6-0.6-4.1,2.1c2.5-0.3,3.3-0.6,4.1-0.1C941.2,653.3,941,652,941,651.9L941,651.9z"/>
	<path class="st23" d="M925.6,613.5c0,0,2.2,0.9,2.8,3.3C930.1,615.6,931,610.6,925.6,613.5z"/>
	<path class="st23" d="M920.2,619.3c0.1,0,4.6-2.9,5-0.2c-0.9,1-1.4,1.7-2.1,1.9C922.5,621,921.4,619.1,920.2,619.3z"/>
	<path class="st23" d="M919.7,628.7c0.1,0,2.9-2.7,4-0.9c1.1,1.8-0.9,1.7-0.9,1.7S921.9,629,919.7,628.7z"/>
	<path class="st23" d="M915.8,576.3c0,0-3.6-1.5-5.1,1.2c2.4,0.3,3.2,1.2,4.2,2.1C914.7,578.5,914.2,576.8,915.8,576.3z"/>
	<path class="st23" d="M908.9,596.1c0,0,0.2-4.4,2.1-6.2c1.1,0.7,1.4,1.7,2.2,3C911.8,593.2,909.8,593.3,908.9,596.1L908.9,596.1z"
		/>
	<path class="st23" d="M918.4,592.9c0,0-3.9,1.9-2.6,4c1.3-1.5,2.7-1,2.7-1.1C918.4,595.8,918.4,592.9,918.4,592.9z"/>
	<path class="st24" d="M912.7,550.4c-1.4,1.7,1.7,5.3,5,4.8C918.6,551.3,913.6,549.2,912.7,550.4z"/>
	<path class="st25" d="M912.7,542.8c-0.7,1.9,2,4.5,3.6,3.7C917,544.6,913.4,541.3,912.7,542.8z"/>
	<path class="st23" d="M916.4,547.4c0,0,0.6,3.1,3.5,2.3c-0.4-2.4-2.4-4.2-2.4-4.2C917.3,546.2,917.8,547.3,916.4,547.4z"/>
	<path class="st23" d="M918.3,556.5c0,0,1.6,1.8,4.7-1.9c-1.4,0.4-3.9-0.9-3.9-0.9S919,556.2,918.3,556.5z"/>
	<path class="st24" d="M912.6,543.3c-1.4,1.7,0.6,4,3.9,3.5C917.3,542.8,913.4,542.1,912.6,543.3z"/>
	
		<linearGradient id="SVGID_2_" gradientUnits="userSpaceOnUse" x1="227.2711" y1="-33.0732" x2="227.4765" y2="-71.9931" gradientTransform="matrix(0.7648 0 0 -0.4964 761.0066 485.8643)">
		<stop  offset="0" style="stop-color:#B50000"/>
		<stop  offset="1" style="stop-color:#FFC500"/>
	</linearGradient>
	<path class="st26" d="M913.9,527.7c0,0,13.1-3.8,20.1,1.9c7,5.6,7,0.5,7,0.5s10.2,3.8,13.1,2.9c2.9-0.8-2.1,0.3,1.9-2.1
		c4-2.4-8,0.5-9.1-4.6c-1.9-3.2,0.3-7.2-4-5.9c-2.9-3.8,1.9-6.4,0.8-10.5c-2.9,2.1-4.6-0.8-7,4.6c-5.6-1.1-0.8-8.8-7-9.7
		c0,5.6-4.6,5.9-4.8,9.1C922.2,515.9,910.4,522.9,913.9,527.7z"/>
	<path class="st27" d="M762.7,955.1c8.5-2.1,54.7,10.2,72.5,29.3c-3.8-34-13.2-60-13.2-60s-27.5-7.9-31.3-4.1
		C785.2,926.1,768.5,943.6,762.7,955.1z"/>
	<path class="st27" d="M748.6,798c-3.2,0.5-6.5,2.7-9.7,8.1c-3.8,9.2-6.5,32.4-11.9,37.8c-5.4,5.4-10.3,5.9-10.3,10.8
		c0,4.9,0.5,16.2,15.1,20.5c14.6,0.5,37.8-23.2,37.8-23.2s11.9-13,16.7-27C758.3,834.7,738.4,808.8,748.6,798L748.6,798z"/>
	<path class="st28" d="M1154.4,949.6c-8.5-2-55.2,10.2-72.8,29.1c3.8-33.8,13.1-59.7,13.1-59.7c3.3-0.9,27-7.8,30.8-4
		C1131,920.8,1148.7,938.2,1154.4,949.6z"/>
	<path class="st28" d="M1167.5,793.5c3.2,0.5,4.3,4.8,7,10.1c3.7,9.1,7.6,22.4,13,27.8c5.4,5.4,10.2,13.3,10.2,18.1
		s-1.1,11.3-15.6,15.6c-14.4,0.5-35.4-18-35.4-18s-11.8-12.9-16.6-26.8C1157.9,830,1175.9,805.2,1167.5,793.5L1167.5,793.5z"/>
	<path class="st9" d="M732.4,925.4c0,0,29.1,20,29.7,29.1c78.3-116,277.9-152.2,391.8-8.1c15.1-20,30.8-26.4,30.8-26.4
		C1064.8,763.5,826.3,782.9,732.4,925.4z"/>
	<g transform="translate(-.0000071526 .000045776)">
		<path class="st29" d="M1029.3,481.5l11.4-0.3l-20.4,25.8l24.4,28.5l-48.1,60.6l45.4,54.6c-5,12.2-10.8,23.4-18.5,33.4l-26.1-28.8
			l47.2-58.9l-38.8-44C1005.9,552.4,1029.3,481.5,1029.3,481.5z"/>
		<path class="st29" d="M866.3,486.6l-12.2,0.3l22.8,24.7l-24.2,30.1l50.2,54.6L861.4,652c5,12.2,12.1,25.8,19.8,35.8l24.7-31.2
			l-50.8-56.5l37.2-47.2C892.4,552.9,866.3,486.6,866.3,486.6z"/>
		<path class="st29" d="M922.8,633.3l-17.9,23.9l64.1,74.1c11.3-5.7,20.2-12.2,29.9-20.1l-33.4-38.6l13.6-39.9l19.5,22.5l-61.1,78
			c-10.2-4.3-21.5-11.1-31.8-19.6l32.3-41L922.8,633.3L922.8,633.3z"/>
		<path class="st29" d="M903,596.1l11.7,14.7l-7.6-19.8L903,596.1z"/>
		<path class="st30" d="M986.6,609.1c0.2-0.3,9.4-12.5,9.4-12.5l-3.6-4.9L986.6,609.1z"/>
	</g>
	<g>
		<text transform="matrix(1.0446 -1.2255 1.2255 1.0446 761.1702 935.2561)" class="st31 st32">L</text>
		<text transform="matrix(1.1308 -1.1464 1.1464 1.1308 771.377 922.1957)" class="st31 st32">E</text>
		<text transform="matrix(1.3012 -0.9291 0.9684 1.2866 781.1459 909.6662)" class="st31 st33">O</text>
		<text transform="matrix(1.334 -0.9019 0.9019 1.334 801.889 891.9694)" class="st31 st34">T</text>
		<text transform="matrix(1.4528 -0.6945 0.6945 1.4528 812.9995 883.2542)" class="st31 st32">E</text>
		<text transform="matrix(1.4712 -0.6547 0.6547 1.4712 827.232 874.0413)" class="st31 st32">R</text>
		<text transform="matrix(1.494 -0.6009 0.6009 1.494 842.4495 865.5562)" class="st31 st32">R</text>
		<text transform="matrix(1.6047 -0.1337 0.1337 1.6047 921.3713 841.655)" class="st31 st32">R</text>
		<text transform="matrix(1.6101 2.407087e-02 -2.407087e-02 1.6101 968.2895 839.0656)" class="st31 st32">R</text>
		<text transform="matrix(1.3995 0.7965 -0.7965 1.3995 1062.6943 859.4176)" class="st31 st32">R</text>
		<text transform="matrix(1.2371 1.0308 -1.0308 1.2371 1107.17 885.0249)" class="st31 st32">E</text>
		<text transform="matrix(1.6089 0.3024 -0.2593 1.5893 1079.8831 870.1216)" class="st31 st35">O</text>
		<text transform="matrix(1.4752 -0.2153 0.2232 1.5948 937.7947 840.0409)" class="st31 st36">O</text>
		<text transform="matrix(1.5104 -0.5585 0.5585 1.5104 858.9933 857.6508)" class="st31 st32">A</text>
		<text transform="matrix(1.1348 1.1425 -1.1425 1.1348 1134.0885 906.8723)" class="st31 st34">A</text>
		<text transform="matrix(1.5788 0.3171 -0.3171 1.5788 997.5056 840.2889)" class="st31 st34">A</text>
		<text transform="matrix(1.5826 -0.2975 0.2975 1.5826 874.8481 851.1013)" class="st31 st32">M</text>
		<text transform="matrix(1.6017 -0.1667 0.1667 1.6017 905.8066 843.658)" class="st31 st32">P</text>
		<text transform="matrix(1.6098 -4.110212e-02 4.110212e-02 1.6098 954.1797 839.1901)" class="st31 st32">P</text>
		<text transform="matrix(1.4016 0.7929 -0.7929 1.4016 1047.8356 851.8517)" class="st31 st32">P</text>
		<text transform="matrix(1.5997 0.1847 -0.1847 1.5997 986.588 839.5614)" class="st31 st34">I</text>
		<text transform="matrix(1.1067 1.1697 -1.1697 1.1067 1145.2572 918.6252)" class="st31 st32">T</text>
		<text transform="matrix(1.2892 0.965 -0.965 1.2892 1093.1238 875.7329)" class="st31 st32">T</text>
		<text transform="matrix(1.5447 0.455 -0.455 1.5447 1014.7847 843.5713)" class="st31 st32">M</text>
		<text transform="matrix(1.0846 1.1903 -1.1903 1.0846 1119.7271 893.7225)" class="st31 st32">G</text>
	</g>
	<g>
		<path class="st37" d="M1121.7,405.1c0,0,11.3-9.7,19.3-9.9"/>
		<path class="st37" d="M1123.3,403.7c0.3-0.3,67.3-9.7,69.4-11.8"/>
		<path class="st37" d="M1123.6,404.3c0.3-0.3,75.1-6.4,75.1-6.4"/>
		<path class="st37" d="M1123.3,404.5c0,0,79.6-3.8,84.4,0.3"/>
		<path class="st37" d="M1123,404.3c0,0,78,0.5,79.4,2.4"/>
		<path class="st37" d="M1123.3,404.3l75.1,6.2"/>
		<path class="st37" d="M1122.5,404.8c0.3,0,76.4,6.7,83.9,16.4"/>
		<path class="st37" d="M1210.4,434.8c-0.3-0.3-26-30.8-88.2-30.3"/>
		<path class="st37" d="M1122.5,405.1c0,0,43.2,2.9,56.8,18"/>
		<path class="st37" d="M1123.3,404.5c0,0,27.9-5.4,57.1,29.8"/>
	</g>
	
		<linearGradient id="SVGID_3_" gradientUnits="userSpaceOnUse" x1="1223.7363" y1="577.7605" x2="1314.3256" y2="581.5498" gradientTransform="matrix(0.3472 0 0 -1.0934 721.0616 1206.84)">
		<stop  offset="0" style="stop-color:#D5DFFF"/>
		<stop  offset="1" style="stop-color:#FFFFFF"/>
	</linearGradient>
	<path class="st38" d="M1105.7,436.4c0,0,38.7,1.5,38.7,5.3c0,3.8-28.8,11-29.2,26.9s22,17.1,23.5,37.1
		c1.5,20.1-17.4,23.1-21.2,28.4c-3.8,2.7-12.9,31.1-11.8,47.8s6.1,73.2,14.8,84.6c6.8,5.3,17.1,22.4,28.1,17.1
		c11-5.3,3.4-24.6,2.3-30c-1.1-5.3,4.6-14,4.6-22s-4.2-14.4-3.8-16.3c0.4-1.9,30.7,7.2,28.8,37.1c-1.9,30-14,20.9-14,20.9
		s3.8,36.8-5.7,41.7c-17.1,9.1-29.6-1.9-29.6-1.9l1.6,7.5l-13-6.7c0,0-16.7-23.9-20.5-34.5c-3.8-10.6-8.3-58-6.8-68.2
		c1.5-10.2,2.7-70.1,1.9-73.2c-0.8-3-3.8-53.1-1.9-60.7C1094.4,469.8,1106.1,436.4,1105.7,436.4z"/>
	<path class="st39" d="M1064,426.6c0,0,26.9-26.2,42.5-23.1c8,0,0.4,5.7,0.4,5.7s13.6,1.1,15.5,7.2c0.4,2.7-6.5,3.4-6.5,3.4
		s5.7,1.1,6.1,6.1C1122.4,430.8,1064.4,426.9,1064,426.6z"/>
	<path class="st40" d="M1065.5,425.4c0,0,28.8-3.8,41-15.9"/>
	<path class="st40" d="M1094.7,417.5c0,0,21.2-0.8,21.2,2.3"/>
	<path class="st41" d="M1170.2,727.6c0,0,18.2-4.2,23.1-10.6C1196.4,714.7,1212.3,740.9,1170.2,727.6z"/>
	<path class="st42" d="M1165.3,577.1c0,0,2.3,14-4.2,23.5c-3.4,3.8-13.7,10.2-13.7,14.8c0,4.5,3.8,10.6,3,15.9
		c-0.8,5.3-6.4,10.6-6.1,15.2c0,4.6,6.4,28.8,5.7,29.2"/>
	<path class="st42" d="M1131.9,531.6c0,0-14.4,4.9-17.5,19.3"/>
	<path class="st43" d="M1125.8,417.5c0,0,4.9,13.6,20.9,0.7C1136.4,404.2,1125.8,417.9,1125.8,417.5z"/>
	<path d="M1137.6,416.9c0,0.7-0.8,1.3-1.7,1.3c-0.9,0-1.7-0.6-1.7-1.3s0.8-1.3,1.7-1.3C1136.8,415.6,1137.6,416.2,1137.6,416.9z"/>
	<path class="st4" d="M995.6,385.8c0,0,30.2,32.7,49.7,32.3c3.5,9.6-8.9,18.5-13.9,22.8c-9.9-3.2-18.9,0.6-42-27.8
		C990.9,395,996,386.5,995.6,385.8z"/>
	<path class="st4" d="M1036.5,309.8c3.9-12.1,11.7-21.7,18.5-22.7c-1.8-9.2,14.2-50.1,60.8-65.7c2.8,21-19.9,41.6-19.9,41.6
		s68.6-11.7,82.4-29.1c-1.4,7.8-15.3,56.5-88.5,56.1c27.7,26.3-8.9,47.3-24.5,40.9C1094,308.7,1057.1,295.6,1036.5,309.8z"/>
	<path class="st44" d="M1059.9,292.7c13.9-8.9,18.8-8.9,30.2-7.1c-8.2,1.1-8.2,1.4-8.2,1.4s-0.7,1.1,4.3,5.7
		C1080.5,291.3,1075.6,288.1,1059.9,292.7z"/>
	<path class="st40" d="M1054.6,287c0,0,27.4-14.6,42.6-24.5"/>
	<path class="st45" d="M1031.1,440.9c0,0,37.7,10.3,41.9-43.7c-8.2-23.4-19.5-73.9-2.1-88.5c-16-11-33.4,0.4-33.4,0.4
		c-1.1,2.5-15.3,22.7,3.9,58.3c-45.5-12.1-27,30.9-27,30.9c1.8-6.8,25.9-13.1,32,21.3C1048.9,428.1,1030.1,441.2,1031.1,440.9z"/>
	<path class="st45" d="M1073.4,397.5c0,0,39.8-21.3,38.7-71.4c-33.7,0.7-45.8,44.4-45.8,44.4L1073.4,397.5z"/>
	<path class="st4" d="M895.1,395c0,0-29.5,25.6-46.2,17.4c-12.4,7.5-27-5.7-27-5.7s17,62.9,78.2,17.4
		C899,410.3,895.8,396.1,895.1,395z"/>
	<path class="st45" d="M848.6,411.4c2.5-13.1,12.8-19.5,21-7.1c11,2.1,22-43-17.1-35.5c11-59-22-81-22-81s-11.7,65.4-6.4,77.4
		c5.3,12.1-7.8-22.4-50.1-32c-0.7,49.4,47.2,72.5,47.2,72.5S834.7,418.1,848.6,411.4z"/>
	<path class="st40" d="M852.5,368.4c0,0-18.5,15.6-14.2,37"/>
	<path class="st40" d="M824.4,366.3c0,0-4.3,15.3,5,36.9"/>
	<path class="st40" d="M821.6,408.2c0,0,8.5-13.9,27,3.9"/>
	<path class="st4" d="M825.1,312.3c0-0.4-28.1,0-11.4,28.4c-12.4,3.9-40.1-14.2-21-38.4c-62.9-1.4-88.5-31.6-88.5-59.3
		c18.5,19.2,62.5,11.4,78.2,23.1c-19.2-17.8-15.3-42.3-15.3-42.3s53.6,16,63.2,63.6C827.2,296.6,825.8,313,825.1,312.3z"/>
	<path class="st40" d="M782,264.8c10.4,10.5,37,13.7,50.5,25.4"/>
	<path class="st46" d="M794.2,295.9c0,0,22-2.8,28.4,5c-8.6,0-11.5-2.1-23.9,2.5c3.5-1.8,2.6-5,4.5-5S795.2,295.9,794.2,295.9z"/>
	<path class="st47" d="M904,123.6c0,0,12.1-10.7,25.2-1.1c-5.9,17.7-27.3,11-27.3,11s0.7,8.9-1.4,13.1c4.3,3.2,7.8,13.9,7.8,13.9
		s22-5.3,26.7,4.3c8.4-1.2,14.6,0,14.6,0s17.1-4.3,23.1-4.3c6,0,25.2,5,27,8.5c1.8,3.6,8.2,27.4,12.5,27c4.3-0.4-10.3,5.7-14.2-0.4
		c-3.9-6-2.8,7.8-2.8,7.8s12.1,12.8,13.5,15.6c1.4,2.8-7.4,25.9-0.7,41.9c-5.9,0.5-6.4,6.7-6.4,6.7c-0.3,7-9.2,8.9-9.2,8.9l-2.1-9.6
		l-6,3.6l2.5-7.5c0,0,8.2-19.9,8.9-26.3c0.7-6.4-7.5-17.8-13.9-17.8c-6.4,0-11,20.3-11,20.3s-3.2,15.3-2.1,16.7c1.1,1.4-4.3-5-4.3-5
		s-2.8,9.2-5,12.1s-6.8,3.9-6.8,3.9s-3.2-9.2-2.1-12.8c1.1-3.5,17.4-17.4,16-27.3c-1.4-9.9,0-7.5-0.4-7.8c-0.4-0.4-8.5-7.5-8.9-11.4
		c-0.4-3.9-10.7,5-24.2,2.1c-4.1,7.2-4.6,25.2-4.6,25.2s-1.4,21.7,1.4,24.2c2.9,2.5-7.1,7.8-7.1,7.8l-7.1,9.6c0,0-2.5-6-2.5-5.7
		c0,0.4-5,3.5-5,3.5l2.9-7.1c-0.2-5.4,6.9-20.1,6.9-32.5c0-12.4,0.9-25.8,0.9-25.8s-13.1-0.7-12.8,12.8c0.4,13.5-3.2,14.2-2.5,18.1
		s4.3,14.9,3.2,18.1c-1.1,3.2-5.3,4.3-5.3,4.3l-1.1,1.8c0,0-13.1,6-12.8,8.5c0.4,2.5-0.4-7.1-0.4-7.1l-0.7-10.3c0,0,7.8-5,7.8-17.4
		c0-12.4-1.8-14.2-1.4-17c0.4-2.9,2.1-13.2,1.8-14.2c-0.4-1.1-7.4,2.8-9.6,2.8c-2.1,0,3.9-7.5,4.6-12.8c0.7-5.3-7.1,5-13.5-1.1
		c3-6.6,7.4-8.5,8.2-13.5s-5,4.3-9.9,0.7c0.4-4.8,5.3-8.9,5.3-8.9s-4.1-0.5-5.7,0c-3.2-1.1,3.6-6,3.9-13.1c0.4-7.1-3.9-9.9-3.9-10.3
		c0-0.4-7.1-6.4-8.2-8.9c-1.1-2.5-1.1-5.3-1.1-5.3s-11.7,8.5-25.6-9.6c12.7-10.8,26.3-2.8,26.3-2.8s3.5-9.9,19.9-9.2
		C901.5,115.5,904.7,124.7,904,123.6L904,123.6z"/>
	<path class="st45" d="M993.3,307.4c0.3,0,30.2,0.9,30.5,16.9c0.3,16-9.2,11.8-9.5,11.8c-0.3,0-21.9-2.7-21.9-2.7L993.3,307.4z"/>
	<path class="st48" d="M964.3,302.9c0,0,37.3-0.3,35.2,16c-2.1,16.3-11.5,13-11.5,13l-18.1-1.5C970,330.5,964.3,302.9,964.3,302.9z"
		/>
	<path class="st45" d="M943.3,301.2l21.6,1.8c0,0,13,1.8,12.4,14.2c-0.6,12.4-13.3,12.7-13.3,12.7l-21-1.2
		C943,328.7,943.3,301.2,943.3,301.2z"/>
	<path class="st4" d="M892.8,307.4c-0.3,0-30.2,0.9-30.5,16.9c-0.3,16,9.2,11.8,9.5,11.8c0.3,0,21.9-2.7,21.9-2.7L892.8,307.4z"/>
	<path class="st45" d="M921.7,302.9c0,0-37.3-0.3-35.2,16c2.1,16.3,11.5,13,11.5,13l18.1-1.5C916.1,330.5,921.7,302.9,921.7,302.9z"
		/>
	<path class="st4" d="M942.8,301.2l-21.6,1.8c0,0-13,1.8-12.4,14.2c0.6,12.4,13.3,12.7,13.3,12.7l21-1.2L942.8,301.2z"/>
	<path class="st49" d="M1000.6,480.8c0,0,15.5-22.9,22.1-20.4c5.7,1.9,1.4,19.6-1.4,21.3L1000.6,480.8z"/>
	<path class="st49" d="M894.1,484.9c-4.9-6.8-12-25.6-18.5-20.4c-5.7,1.9-1.4,19.6,1.4,21.3L894.1,484.9z"/>
	<path class="st40" d="M904.4,439.6c0,0,30.3,18.6,40.2,19.1c9.9,0.5,41.4-24.2,41.4-24.2"/>
	<path class="st49" d="M907.3,366.5l5.8-7.3l29.1,14.8l29.5-13.1l5.8,6.1l-32.9,23.2C944.6,390.2,907.3,366.5,907.3,366.5z"/>
	<path class="st50" d="M884.3,366.1c2.4,3,21.1,25.8,24.5,44.7c3.4,18.9-1.9-25.9-1.9-25.9s23.2,11.4,24,18.6
		c0.7,7.3,11.1-0.5,11.6-1.7l-67.3-43.7L884.3,366.1z"/>
	<path class="st50" d="M999.1,364.8c0,0-24.5,32.2-21.5,67.3c-5-16.8-1-44.5-1-44.5l-5.3,3.4c0,0-5.6,23.7-12.6,27.3
		c-1.2-2.8-1-3.9-1-3.9s-7.5,9.7-9,10.6s0.5,32.7,0.5,32.7s2.5,23,5.4,22.8c-3.3,1.6-7.4,4.1-7.4,4.1l-3-61.4l6.9-6.9
		c0,0,9.2-11.1,9.9-22c-4,3.4-8.5,4.4-8.5,4.4s-1.2,15.5-4.8,17.7c-3.6,2.2-3.7,6.2-3.7,6.2l-0.9-20.3
		C943.2,402.4,999.1,364.8,999.1,364.8z"/>
	<path class="st51" d="M943.2,402.1l4.7,96.8"/>
	<path class="st40" d="M883.6,448.3c0,0,11.1,6.6,15.3,26.4c36.3-2.7,47.7,10.2,47.7,10.2s29.8-14.3,43.6-11.6
		c4.8-10.2,18.6-23.2,18.6-23.2"/>
	<path class="st52" d="M868.4,353.4l74.7,48.9l67.3-45.3c0,0,14-7.7,12.8-13.3c-1.2-5.6-6-3.4-8.5-2.4c-2.4,1-70.4,49.1-70.4,49.1
		L872,344.7c0,0-5.3-1.7-6.3,1.7C864.7,349.8,867.7,351.7,868.4,353.4z"/>
	<path class="st50" d="M1002.1,340.7c0,0-19.1-8.1-19.1-1.1c0,7,0.5,7.7,3.6,12.3c3.1,4.5-2.4,7.4-2.4,7.4s-0.7-2-1.8-5.1
		c-1.1-3.1-11.4-5.2-12.3-8.8c-0.9-3.6,2.2-9.4-4-10.1c-6.1-0.7-12.1,2.5-13.3,9.6c-1.3,7-9.2,23.4-9.2,23.4l1.1-37.3
		c13.5,1,38.5,3.9,57.7,6.1c-5.8-0.9,2.2,0.4,2,2.4C1003.9,341.1,1001.9,341.3,1002.1,340.7z"/>
	<path class="st50" d="M934.4,331.4c-3.4,0-20.6,2-24.9,4.5c-4.3,2.5,7,6.5,5.6,9.9s-1.6,10.3-7,8.8c-5.4-1.5-23.6-10.5-24.2-13.5
		c-0.5-3.1-4.3-3.2-4.3-3.2S931.9,330.8,934.4,331.4z"/>
	<path class="st40" d="M942.7,327.1l-0.1,45.9"/>
	<path class="st40" d="M907.3,273c0,0-21,34-21.4,35.1"/>
	
		<linearGradient id="SVGID_4_" gradientUnits="userSpaceOnUse" x1="622.0031" y1="721.6248" x2="646.531" y2="721.6248" gradientTransform="matrix(0.4601 0 0 -0.8251 731.8625 882.8052)">
		<stop  offset="0" style="stop-color:#474747"/>
		<stop  offset="1" style="stop-color:#FF5500"/>
	</linearGradient>
	<path class="st53" d="M946,272.2c0,0,9.1,12.5,8.1,16c3.7,2.9,7.9,14.5,7.9,14.5"/>
	<path class="st40" d="M981.2,270.1c0,0-19.7,27.8-19.1,29.9"/>
	<path d="M880.2,137.8c-0.4,1.6-3,2.2-5.6,1.3s-4.4-2.7-4-4.3c0.4-1.6,3-2.2,5.6-1.3S880.7,136.3,880.2,137.8z"/>
	<path d="M888.2,137.3c0.4,1.6,3,2.2,5.6,1.3c2.7-0.8,4.4-2.7,4-4.3c-0.4-1.6-3-2.2-5.6-1.3C889.5,133.8,887.8,135.7,888.2,137.3z"
		/>
	<path class="st54" d="M1119,713.4c0,0-7.3,1.4-7.1,2.1c0.2,0.7-21.3,1.4-21.7,0.7c-0.5-0.7-3.2,3.7-3.2,3.7l3.4-2.1
		c0,0,5.2,5.5,6.9,5s-0.7,2.1-0.2,2.5c0.4,0.4,2.1-0.9,2.1-0.9l35.5-0.6C1134.6,723.8,1119,713.4,1119,713.4z"/>
	<path class="st55" d="M1132.2,724.5l-29,0.8c0,0-7.3,6.6-7.8,8.2c-0.4,1.6,4.8,2.1,4.8,2.1l1.6,5.5l3.7-1.4c0,0,24.7,3.7,47.3-1.4
		c11.4-4,13.4-8.8,5.4-11.7C1150.2,723.7,1132.4,724.6,1132.2,724.5L1132.2,724.5z"/>
	
		<linearGradient id="SVGID_5_" gradientUnits="userSpaceOnUse" x1="242.9756" y1="-2558.759" x2="169.4683" y2="-2490.2524" gradientTransform="matrix(1.5914 0 0 -0.2385 840.0815 174.5103)">
		<stop  offset="0" style="stop-color:#D5DFFF"/>
		<stop  offset="1" style="stop-color:#FFFFFF"/>
	</linearGradient>
	<path class="st56" d="M1032.9,784l52.2-2.3l-9.7-8.3l141.2-5.7l-4.9-11.2l-158.1,6.3l19,8.9l-42.7,1.3l1.3,4.4L1020,777
		C1020,777,1032.5,781.9,1032.9,784L1032.9,784z"/>
	
		<linearGradient id="SVGID_6_" gradientUnits="userSpaceOnUse" x1="640.0865" y1="201.9605" x2="621.9986" y2="238.5471" gradientTransform="matrix(0.5504 0 0 -0.6896 740.5037 719.2504)">
		<stop  offset="0" style="stop-color:#D5DFFF"/>
		<stop  offset="1" style="stop-color:#FFFFFF"/>
	</linearGradient>
	<path class="st57" d="M1091.4,495.6c-4.2-2.1-22.4-4.6-42.7,8.7l0.8,46.9c0,0,29.8-16.2,44.4-12.5
		C1093.1,524.2,1093.1,505.5,1091.4,495.6z"/>
	<g>
		<path class="st40" d="M802.7,637.9L679.6,760.1"/>
		<path class="st40" d="M857.6,638.8l-99.9,131.6"/>
		<path class="st40" d="M853.1,604.4L719.8,765.9"/>
		<path class="st40" d="M715.7,763.7l12.9-15.2"/>
		<path class="st40" d="M878.6,685.6L826.8,757"/>
		<path class="st40" d="M824.6,766.3l1.3,27.2"/>
		<path class="st40" d="M902.2,710.6l-54.9,68.7"/>
		<path class="st40" d="M892.4,773.9l22.3-36.6"/>
		<path class="st40" d="M900.9,730.2l-26.8,30.3"/>
		<path class="st40" d="M892.8,701.7l-18.3,22.3"/>
		<path class="st40" d="M869.2,669.1c0,0-55.8,81.6-54.9,88.3"/>
		<path class="st40" d="M863.4,658.4c-1.3,0.9-48.2,62.9-48.2,62.9"/>
		<path class="st40" d="M812.5,740.9l-8.5,10.3"/>
		<path class="st40" d="M793.4,766.8l-12.9,16.9"/>
	</g>
	<path class="st58" d="M796.6,450c0,0-3.8,11.9,0,17.8c3.8,5.9,27.5,54,27.5,54s16.2-20,22.1-20.5c5.9-0.5,3.2,51.8,3.2,51.8
		s-9.7,9.2-15.6,8.6c-5.9-0.5,14.6,20.5,14,38.3s-27,106.3-36.7,107.9c-9.7,1.6,4.3-16.2,3.8-21c-0.5-4.9-3.2-1.6-5.4-7
		c-2.2-5.4,3.2-13.5,2.2-18.9c-1.1-5.4-5.9-4.3-6.5-8.1c-0.5-3.8,3.2-4.9,2.7-9.2c-0.5-4.3-6.5-3.2-5.9-7c0.5-3.8,1.1-2.1,0.5-9.2
		c-0.5-7-1.6,4.9-7.6,5.4c-5.9,0.5-10.8,14-10.8,14s-11.9,16.7-23.7,9.2c7,15.1,1.6,21.6-1.1,22.1c-2.7,0.5,2.2,11.9-4.3,12.4
		c-6.5,0.5,4.9,25.4-2.7,27.5c8.1,3.8,1.6,8.6,1.6,8.6s-18.7,1.6-14.6,25.9c-55-19.4-82-52.9-81.5-86.9c0.5-34,11.3-64.8,37.8-76.1
		c7.6-28.1,20.5-58.3,20.5-58.3s-2.2-12.4-0.5-20.5c1.6-8.1,9.2-16.2,9.2-16.2s-1.1-19.4-0.5-29.1c0.5-9.7,4.3-14,4.9-19.4
		s-1.6-32.9,3.8-37.8c5.4-4.9,15.6-4.3,21-7.5c5.4-3.2,12.4-9.2,19.4-8.6c7,0.5,13,5.4,13,5.4s26.4,0,28.1,10.2
		c1.6,10.3-5.4,14-5.4,14S812.8,436.5,796.6,450L796.6,450z"/>
	<path class="st59" d="M773.2,412.6c0.8,1.6-1.1,4.2-4.3,6c-3.2,1.7-6.5,1.9-7.4,0.3c-0.8-1.6,1.1-4.2,4.3-6
		C769,411.2,772.3,411,773.2,412.6z"/>
	<path d="M768.7,415.3c0,1-0.9,1.8-2,1.8s-2-0.8-2-1.8c0-1,0.9-1.8,2-1.8S768.7,414.3,768.7,415.3z"/>
	<path class="st60" d="M808.1,433.2c0,0,6.6,29.3-1.3,49.5"/>
	<path class="st60" d="M810.2,420.4c0,0,12.8,16.9,11.1,37.9"/>
	<path class="st60" d="M811.4,416.7c0.4,0,10.7,9.1,10.3,15.3"/>
	<path class="st60" d="M813.9,412.9c0,0,7,4.9,8.7,9.9"/>
	<path class="st40" d="M810.6,410.1c0,0-25.2,40.8-21.9,66.4"/>
	<path class="st60" d="M812.2,408.8c0,0-33.4,19.8-39.6,84.6"/>
	<path class="st40" d="M808.5,420.8l-13.2,9.9"/>
	<path class="st60" d="M760.2,497.1c0,0,18.6-77.1,51.6-88.3"/>
	<path class="st61" d="M824.6,523.1c0,0,17.7-22.3,21.9-21.4c4.1,0.8,2.9,51.6,2.9,51.6s-13.2,9.9-16.1,9.5
		c-2.9-0.4,14.8,23.9,14.4,33c-0.4,9.1-0.8,9.1-0.8,9.1s0-5.4-4.1-14c-4.1-8.7-1.7-18.6-28.5-40.4c-6.6-13.6,13.2,8.3,17.3,4.9
		C835.7,552,824.2,523.5,824.6,523.1L824.6,523.1z"/>
	<path class="st62" d="M793.1,397.6c0,0-7.5,2-8.5,5.1c-1,3.1-5.4,6.1-7.8,5.1c-2.4-1-6.8-4.7-6.8-4.7"/>
	<path class="st63" d="M750.7,423.7c0,0-11.2,11.2-5.8,12.5c5.4,1.3,11.2-8.8,11.2-8.8s0,17.3,4.7,14.6c4.7-2.7,18.6-12.5,18.6-12.5
		s4.7-0.4,5.8,0c1,0.3,12.9,10.5,20.7,6.8c-4.4,11.5-9.5,12.9-9.5,12.9s-8.1,10.5-18.6,8.1c-10.5-2.4-13.2-6.8-13.2-6.8
		s-8.8,0.7-11.5-3.4c-2.7-4.1-3.7-6.4-3.7-6.4s-5.1,5.1-6.4,2.7C741.5,441,742.9,427.1,750.7,423.7z"/>
	<path class="st62" d="M814.1,408.1c0,0-20.7-6.1-27.8,4.1c-7.1,10.2-5.4,15.9-1.7,16.9"/>
	<path d="M817.3,407.6c0,2.4-1.7,4.4-3.9,4.4c-2.2,0-3.9-2-3.9-4.4c0-2.4,1.7-4.4,3.9-4.4C815.5,403.2,817.3,405.1,817.3,407.6z"/>
	<path class="st61" d="M757.1,460.3c0,0,8.4,13,18.5,16.5c10.1,3.6-7,6.6-17-0.1c-7.3-9.9-5.3-17-5.3-17S755.1,457.7,757.1,460.3z"
		/>
	<path class="st61" d="M829.2,536.9c0,0-23.7-32.9-30.5-34.7c-6.8-1.8,5.2-3.2,12.5,3.7c7.3,7-1.9-11.3-1.9-11.3L829.2,536.9z"/>
	<path class="st63" d="M754.8,727c9.1-2.4,48.6,22.7,57.6,29c8.9,6.3,27.6,2.3,27.6,2.3s-8.6,5.2-13.9,6.5
		c-5.3,1.3,15.9,1.3,15.9,1.3s-50.6,13.9-102-13.1C735.2,731.9,750.9,727.2,754.8,727z"/>
	<path class="st61" d="M812.7,545c0,0-6.6-1.3-10.1-5.2c-3.4-3.9-8.3-13.5-13.3-17.5c-5-4.1-30.2-17.8-39.2-16.9
		c-9.1,1-11.8-1-13-2.1s-4.9,0.5-4.2,5.2c0.6,4.7-7,15.1-4.2,19.9c2.8,4.9,15.7,24.6,18.3,25.3c2.6,0.7,1,11.5,1,11.5
		s11.5,11.7,14.4,12.3c2.9,0.7,5.8,2.8,5.5,5.5c-0.3,2.8-12.6,17.8-12.6,17.8s-13.3,7-13.5,10.9c-0.2,3.9,3.2,12,13.8,14.6
		c10.5,2.6,38.9,0.5,40.4-1.9c1.5-2.4,3.7-17,2.8-18.5s-7.9-5.8-11.5-5.2c-3.6,0.7-6.8,3.6-6.5,4.2c0.3,0.7-5,3.4-5,0.8
		c0-2.6,10.5-14.3,11.5-13.3c1,1,15.9,2.4,18.6,9.9c2.8,7.4,2.8,12.8,10.5,12c7.8-0.8,18.6-8,19.6-22.9c1-14.9-8.7-25-11.2-26.4
		s-10.5-6.3-11.2-8.6C813,554.2,811.4,546.7,812.7,545L812.7,545z"/>
	<path class="st61" d="M672.5,610.8c0,0,25.1-6.5,31.6-6.3c6.5,0.1,31,11.5,38.1,18.5c7.1,7,21.7,23.5,31.3,22
		c9.6-1.5,12.3-3.4,12.3-3.4l-3.7,7.1c0,0-7.8,2.1-11.7,1.1c-3.9-1-11.5-3.4-19.1-10.9c-7.6-7.5-31.1-27.6-51.1-26.1
		c-19.9,1.5-31.5,21.1-31.5,21.1s0.2-9.6,1-11.7c0.8-2.1-4.2,4.5-4.2,4.5L672.5,610.8L672.5,610.8z"/>
	<path class="st61" d="M765,630.2c0.2,0.1,6.3,1.8,16.7,1.8c10.4,0,15.9-4.5,15.9-4.5l-0.6-4.1l1.6-5.7c0,0,7.9,8.1,7.8,9.7
		c-0.2,1.6-3.2,2.3-3.2,2.3l-1.1-3.9l-2.8,3.4c0,0-15.1,12-23.3,10.2c-8.3-1.8-15.9-7.1-13.8-8.4C764.2,629.8,765.4,630.2,765,630.2
		z"/>
	<path class="st61" d="M728.4,651.5c0,0-9.1-0.2-13.1,1.8c-4.1,1.9-5.5,4.4-8.3,4.1c-2.8-0.3-4.9-3.9-4.1-5.3
		c1.1-2.3,6.5-5.2,16.7-4.4C729.9,648.4,728.4,651.5,728.4,651.5L728.4,651.5z"/>
	<path class="st61" d="M760.2,676.1c0-0.5-0.6-13.3-5.7-18.5c-5-5.2-11.2-5.2-13.9-4.6c-2.8,0.7,10.2,6.3,11.5,10.1
		c1.3,3.7,5.5,14.1,4.4,16.7c-1.1,2.6-3.2-7.3-11.2-10.1c-7.9-2.8-19-1.3-16.7,2.3c2.3,3.6,11.2,0.3,15.7,7.9s7.9,15.7,7.9,15.7
		l1.5-5.5l4.1-1.1l0.5-10.5L760.2,676.1L760.2,676.1z"/>
	<path class="st63" d="M753.7,717.6l-8.3-16.5c0,0-2.6-10.5-9.6-13.5c-7-2.9-16.2-2.4-16.4,1.1c-0.2,3.6,14.9,8.1,15.9,10.1
		c1,1.9,0.5,5.2-0.8,5.3c-1.3,0.2-7.9-2.4-11.3-1.6c-3.4,0.8-5.3,5.2-10.4,3.9c-5-1.3-9.2-17.3-7.3-19c1.9-1.6-3.7,2.9-4.9-1.3
		c-1.1-4.2,1.6-17.3-0.3-19c-1.9-1.6-11.3-7.3-11.5-8.4c-0.2-1.1,0.5-64.5,53.5-12c-22.7-26.9-31.6-24-35.8-24.2
		c-3.1,0-23.7,1.8-28.9,28c-5.2,26.3-11.3,9.9-11.3,9.9s-1.1,11.3,4.4,14.6c5.5,3.2-2.6,12.6-2.6,12.6s-9.9-24.2-8.4-34.7
		c-1.9,8.4-1.8,29.3,10.7,52.2c14.6,15.4,28.4,29.7,65,45.7C754.7,721.5,753.7,718,753.7,717.6L753.7,717.6z"/>
	<path class="st64" d="M719,717.8c0,0,10.7,1.3,13.6,6.8c2.9,5.5,4.2,13.9,4.2,13.9c1.8-3.6,2.6-6.6,6.2-9.2c3.6-2.6,6.2-2.9,6-4.9
		c-0.2-1.9-11.3-13.8-17-14.4c-5.7-0.7-15.6,6.2-15.6,6.2S714.6,718.8,719,717.8L719,717.8z"/>
	<g>
		<path class="st65" d="M743.4,745.7c0,0,27.7,12.6,73.4,13.5"/>
		<path class="st66" d="M836,617c0,0-2.4,23.3-20.3,69.2"/>
		<path class="st62" d="M832.4,631.3c0,0-5.4,16.7-20.3,29.2"/>
	</g>
</g>
</svg>
