<?xml version="1.0" encoding="utf-8"?>
<!-- Generator: Adobe Illustrator 23.1.0, SVG Export Plug-In . SVG Version: 6.00 Build 0)  -->
<svg version="1.1" id="Layer_1" xmlns="http://www.w3.org/2000/svg" xmlns:xlink="http://www.w3.org/1999/xlink" x="0px" y="0px"
	 viewBox="0 0 1400 700" style="enable-background:new 0 0 1400 700;" xml:space="preserve">
<style type="text/css">
	.st0{fill:#FFFFFF;}
	.st1{fill:#0000BF;}
	.st2{fill:#D50000;}
	.st3{fill:#FFDF00;}
</style>
<path class="st0" d="M0,0h1400v700H0V0z"/>
<path class="st1" d="M0,233.3h1400V700H0V233.3z"/>
<path class="st2" d="M0,466.7h1400V700H0V466.7z"/>
<path class="st2" d="M265.3,134.6c-2.2,1-4.3,1.9-6.4,3l6.7,105.9c1.8,28.9,14.1,56.2,34.7,76.7c14.1,14.1,31.3,24.3,50,29.9h0
	c18.7-5.6,35.9-15.8,50-29.9c20.6-20.6,32.8-47.9,34.7-76.7l6.7-105.9c-2.1-1-4.3-2-6.4-3l0,0l-6.8,108.4
	c-1.7,27.3-13.3,53.1-32.7,72.5c-12.8,12.8-28.4,22.2-45.3,27.6h0c-16.9-5.4-32.5-14.8-45.3-27.6c-19.4-19.4-31-45.3-32.7-72.5
	L265.3,134.6L265.3,134.6"/>
<path class="st1" d="M435.2,134.6c-26.5-11.7-55.4-17.9-84.9-17.9c-29.5,0-58.4,6.2-84.9,17.9l6.8,108.4
	c1.7,27.3,13.3,53.1,32.7,72.5c12.8,12.8,28.4,22.2,45.3,27.6h0c16.9-5.4,32.5-14.8,45.3-27.6c19.4-19.4,31-45.3,32.7-72.5"/>
<g transform="matrix(.6905934 0 0 .6905934 221.91203 100)">
	<path class="st3" d="M193.3,97.5l5.4-7.4l-9.2,1l-3.7-8.4l-3.7,8.4l-9.2-1l5.4,7.4l-5.4,7.4l9.2-1l3.7,8.4l3.7-8.4l9.2,1"/>
	<path class="st3" d="M158.6,51.2l5.4-7.4l-9.2,1l-3.7-8.4l-3.7,8.4l-9.2-1l5.4,7.4l-5.4,7.4l9.2-1l3.7,8.4l3.7-8.4l9.2,1"/>
	<path class="st3" d="M228,51.2l5.4-7.4l-9.2,1l-3.7-8.4l-3.7,8.4l-9.2-1l5.4,7.4l-5.4,7.4l9.2-1l3.7,8.4l3.7-8.4l9.2,1"/>
</g>
<g>
	<path class="st0" d="M418.8,258.7L384.5,213l-13.7,18.3l-20.6-41.1l-20.6,41.1L316,213l-34.3,45.7c0,6.1,2.4,11.9,6.7,16.1
		c4.3,4.3,10.1,6.7,16.1,6.7c4,0,8-1.1,11.4-3.1c0,0,0,0,0,0c1.7-1,3.6-1.8,5.5-2.3c5.9-1.6,12.1-0.7,17.3,2.3
		c3.5,2,7.4,3.1,11.4,3.1h0c4,0,7.9-1,11.4-3.1c5.2-3,11.5-3.8,17.3-2.3c1.9,0.5,3.8,1.3,5.5,2.3c0,0,0,0,0,0
		c3.4,2,7.4,3.1,11.4,3.1c6.1,0,11.9-2.4,16.2-6.7C416.4,270.6,418.8,264.8,418.8,258.7"/>
	<path class="st0" d="M289.8,283.5c1.6,3.1,3.3,6.2,5.2,9.1c0,0,0,0,0,0c4.8,2.2,10.3,2.7,15.5,1.3c1.9-0.5,3.8-1.3,5.5-2.3
		c0,0,0,0,0,0c3.4-2,7.4-3.1,11.4-3.1h0c4,0,7.9,1,11.4,3.1c5.2,3,11.5,3.8,17.3,2.3c1.9-0.5,3.8-1.3,5.5-2.3c0,0,0,0,0,0
		c3.4-2,7.4-3.1,11.4-3.1h0c4,0,7.9,1,11.4,3.1c5.2,3,11.5,3.8,17.3,2.3c1.3-0.3,2.5-0.8,3.6-1.3c1.9-3,3.6-6,5.2-9.1c0,0,0,0,0,0
		c-1.1,0.4-2.2,1-3.3,1.6c0,0,0,0,0,0c-1.7,1-3.6,1.8-5.5,2.3c-5.9,1.6-12.1,0.7-17.3-2.3c-3.5-2-7.4-3.1-11.4-3.1c0,0,0,0,0,0
		c-4,0-8,1.1-11.4,3.1c0,0,0,0,0,0c-1.7,1-3.6,1.8-5.5,2.3c-5.9,1.6-12.1,0.7-17.3-2.3c-3.5-2-7.4-3.1-11.4-3.1c0,0,0,0,0,0
		c-4,0-8,1.1-11.4,3.1c0,0,0,0,0,0c-1.7,1-3.6,1.8-5.5,2.3c-5.9,1.6-12.1,0.7-17.3-2.3C292.1,284.5,291,283.9,289.8,283.5
		C289.8,283.5,289.9,283.5,289.8,283.5"/>
	<path class="st0" d="M399.6,301c-2.7,3.4-5.5,6.7-8.6,9.8c-11.6,11.6-25.5,20.2-40.7,25.4h0c-15.2-5.2-29.1-13.8-40.7-25.4
		c-3.1-3.1-6-6.4-8.6-9.8c3.1,0.5,6.4,0.4,9.5-0.5c1.9-0.5,3.8-1.3,5.5-2.3c0,0,0,0,0,0c3.4-2,7.4-3.1,11.4-3.1h0
		c4,0,7.9,1,11.4,3.1c5.2,3,11.5,3.8,17.3,2.3c1.9-0.5,3.8-1.3,5.5-2.3c0,0,0,0,0,0c3.4-2,7.4-3.1,11.4-3.1h0c4,0,7.9,1,11.4,3.1
		C389.1,300.9,394.4,301.9,399.6,301C399.6,301,399.6,301,399.6,301"/>
</g>
</svg>
