<?xml version="1.0" encoding="utf-8"?>
<!-- Generator: Adobe Illustrator 23.1.0, SVG Export Plug-In . SVG Version: 6.00 Build 0)  -->
<svg version="1.1" id="Layer_1" xmlns="http://www.w3.org/2000/svg" xmlns:xlink="http://www.w3.org/1999/xlink" x="0px" y="0px"
	 viewBox="0 0 1050 700" style="enable-background:new 0 0 1050 700;" xml:space="preserve">
<style type="text/css">
	.st0{fill:#009543;}
	.st1{fill:#FFFFFF;}
	.st2{fill:#00209F;}
</style>
<path class="st0" d="M0,0h1050v700H0V0z"/>
<path class="st1" d="M0,0h1050v490H0V0z"/>
<path class="st2" d="M0,0h1050v210H0V0z"/>
<path d="M525.5,221.8l-1.1,0c-2.4,0.1-4.6,1.3-6.1,2.5s-2.6,2.4-2.6,2.4l-0.2,0.3c-8.2,1.4-15.7,5-21.7,10.8
	c-7.9,7.7-13,19-14.6,33.4c-1.6,14.8,2.4,31.3,6.7,44.4c4.2,13.1,8.9,22.9,8.9,22.9l0.8,1.7l-53.4,71.9l-10.7-3.7l-19.3,41.2
	l0.9,0.6c0,0,45.9,28.7,112.5,28c73-0.9,112.8-29.3,112.8-29.3l0.8-0.6l-20-40.7l-9.5,4.1l-55.4-73.3l0.4,0.2c0,0,4.9-10,9.2-23.4
	s8.4-30.2,6.3-45.2c-2-14.2-6.5-25.4-14.4-33c-5.8-5.5-13.3-8.8-22-10.1v-0.2l-0.3-0.3c0,0-1.1-1.1-2.7-2.3c-1.4-0.9-3.1-1.8-5.1-2
	L525.5,221.8z M533.7,238.7c5.9,1.1,10.4,3.4,13.9,6.8c5.4,5.1,9.1,13.5,10.9,26.2c1.6,11.6-1.8,27.4-5.8,40
	c-2.5,7.7-4.7,13.1-6.3,16.6l-8.4-11.1l-0.1-26.3h13.8l-18.2-17.1L533.7,238.7z M515.5,238.9l0.3,35.4l-16.5,17.2h13.6l-0.1,25.5
	l-9.2,12.4c-1.2-2.6-3.6-7.8-6.7-17.3c-4-12.4-7.4-27.9-6.2-39.5c1.4-12.4,5.5-20.9,11.1-26.3C505.6,242.5,510.2,240.1,515.5,238.9
	L515.5,238.9z M610.3,422l3,4.3l-8.3,12.4l-8.6-11L610.3,422z M438.2,426l3.5,10.8l-10.2,2.2C431.5,438.9,437.4,427.1,438.2,426z
	 M448.9,426.3l15.1,4.6l3.5,7.5l-13.2,3.8L448.9,426.3z M586.6,431.1l4.3,4.6l-12.6,10l-7.8-9.7L586.6,431.1z M616,432.7l5.1,10.2
	l-10.2,3.5l-0.8-4.8L616,432.7z M476.6,434.3l15.1,3.2l4.3,6.5l-13.2,5.1L476.6,434.3z M558.4,437l4,5.9l-15.1,7.3l-6.5-11
	L558.4,437z M504.9,438.6l24.5,1.1l2.2,5.1l-19.1,7L504.9,438.6z M593.6,441l7.8,10.5l-16.7,4.3l-3.2-5.6L593.6,441z M444.1,441.3
	l2.2,8.6l-12.9-5.1L444.1,441.3z M469.6,443.8l7,14.8l-17.5-4.3l-1.9-6.5L469.6,443.8z M565.6,447.5l9.1,10.8l-20.2,3.2l-4-6.5
	L565.6,447.5z M534.7,449.7l8.9,13.2l-23.7,0.8l-4-7L534.7,449.7z M499.2,449.7l8.6,13.4l-20.4-3l-2.2-5.6L499.2,449.7z"/>
</svg>
