<svg id="Layer_1" data-name="Layer 1" xmlns="http://www.w3.org/2000/svg" width="370.42mm" height="246.94mm" viewBox="0 0 1050 700">
  <defs>
    <style>
      .cls-1 {
        fill: #00785e;
      }

      .cls-2 {
        fill: #fbd116;
      }

      .cls-3 {
        fill: #fff;
      }
    </style>
  </defs>
  <rect class="cls-1" width="1050" height="700"/>
  <polygon class="cls-2" points="525 131.98 502.39 201.56 561.58 158.56 488.42 158.56 547.6 201.56 525 131.98"/>
  <g id="h">
    <path class="cls-3" d="M525,483.62H375.55c-1.88-1.91-3.73-3.86-5.54-5.83H525a3.08,3.08,0,0,1,0,5.83Zm0-45.7a18.85,18.85,0,0,0,1.79-11,18.14,18.14,0,0,0-1.79-5.56,117.86,117.86,0,0,1-81.67,32.74H351.26c2.72,4,5.56,7.88,8.54,11.66h89A117.83,117.83,0,0,0,525,437.92Zm-159.82-36A47.22,47.22,0,0,1,351,405a118.23,118.23,0,0,0,174,3.62,644.17,644.17,0,0,0,6.63-85.9A643.47,643.47,0,0,0,525,224c-9.62,8.62-27.64,27.25-36.13,55.81a118.44,118.44,0,0,0,15.07,99.48,118.29,118.29,0,0,1-13.36-122.88,47.3,47.3,0,0,1-11-18.93A118.22,118.22,0,0,0,487.45,366a138.68,138.68,0,0,0-100.63-43.11q-3.18,0-6.35.15a47.42,47.42,0,0,1,9.85,13,138.64,138.64,0,0,1,100.17,42.88A139.15,139.15,0,0,0,348,357.19a118.41,118.41,0,0,0,110.69,76.48c3.27,0,6.52-.15,9.73-.41a118.41,118.41,0,0,1-103.2-31.35ZM525,531.38H447.55A209.36,209.36,0,0,0,525,546.14a15.87,15.87,0,0,0,0-14.76Zm0-35.73H388.45q5.55,4.75,11.41,9.11H525a6.51,6.51,0,0,0,0-9.11Zm0,18.23H413.15a209.24,209.24,0,0,0,21.07,11.66H525a10.88,10.88,0,0,0,0-11.66Z" transform="translate(0 0)"/>
    <polygon class="cls-2" points="378.06 239.7 356.68 285.58 400.94 261.03 350.71 254.87 387.72 289.39 378.06 239.7"/>
    <polygon class="cls-2" points="414.69 178.61 429.49 227.02 445.98 179.15 404.5 208.19 455.13 209.07 414.69 178.61"/>
  </g>
  <g>
    <path class="cls-3" d="M525,483.62H674.44c1.89-1.91,3.74-3.86,5.55-5.83H525a3.08,3.08,0,0,0,0,5.83Zm0-45.7a18.85,18.85,0,0,1-1.79-11,18.14,18.14,0,0,1,1.79-5.56,117.82,117.82,0,0,0,81.67,32.74h92.06c-2.71,4-5.55,7.88-8.53,11.66h-89A117.83,117.83,0,0,1,525,437.92Zm159.82-36A47.16,47.16,0,0,0,699,405a118.23,118.23,0,0,1-174,3.62A642.67,642.67,0,0,1,525,224c9.62,8.62,27.63,27.25,36.13,55.81a118.4,118.4,0,0,1-15.08,99.48,118.26,118.26,0,0,0,13.37-122.88,47.3,47.3,0,0,0,11-18.93A118.28,118.28,0,0,1,562.55,366a138.66,138.66,0,0,1,100.63-43.11c2.12,0,4.24.05,6.34.15a47.59,47.59,0,0,0-9.84,13,138.64,138.64,0,0,0-100.17,42.88A139.15,139.15,0,0,1,702,357.19a118.41,118.41,0,0,1-110.69,76.48c-3.27,0-6.52-.15-9.73-.41a118.41,118.41,0,0,0,103.2-31.35ZM525,531.38h77.45A209.36,209.36,0,0,1,525,546.14a15.87,15.87,0,0,1,0-14.76Zm0-35.73H661.55q-5.55,4.75-11.41,9.11H525a6.51,6.51,0,0,1,0-9.11Zm0,18.23H636.85a210.34,210.34,0,0,1-21.07,11.66H525a10.88,10.88,0,0,1,0-11.66Z" transform="translate(0 0)"/>
    <polygon class="cls-2" points="671.94 239.7 693.32 285.58 649.06 261.03 699.29 254.87 662.27 289.39 671.94 239.7"/>
    <polygon class="cls-2" points="635.31 178.61 620.51 227.02 604.02 179.15 645.49 208.19 594.87 209.07 635.31 178.61"/>
  </g>
</svg>
