<?xml version="1.0" encoding="utf-8"?>
<!-- Generator: Adobe Illustrator 23.1.0, SVG Export Plug-In . SVG Version: 6.00 Build 0)  -->
<svg version="1.1" id="Layer_1" xmlns="http://www.w3.org/2000/svg" xmlns:xlink="http://www.w3.org/1999/xlink" x="0px" y="0px"
	 viewBox="0 0 933.3 700" style="enable-background:new 0 0 933.3 700;" xml:space="preserve">
<style type="text/css">
	.st0{fill:#5EB6E4;}
	.st1{fill:#FFFFFF;}
	.st2{fill:#FFFFFF;stroke:#000000;stroke-width:1.0885;}
	.st3{fill:none;stroke:#000000;stroke-width:1.2717;}
	.st4{stroke:#000000;stroke-width:1.0885;stroke-linecap:round;stroke-linejoin:round;}
	.st5{fill:#F1BF31;stroke:#000000;stroke-width:1.0885;stroke-linecap:round;stroke-linejoin:round;}
	.st6{stroke:#000000;stroke-width:0.7385;stroke-linecap:round;stroke-linejoin:round;}
	.st7{fill:#D99F31;}
	.st8{fill:none;stroke:#000000;stroke-width:0.7047;stroke-linecap:round;stroke-linejoin:round;}
	.st9{stroke:#000000;stroke-width:1.0885;}
	.st10{fill:#F1BF31;}
	.st11{fill:none;stroke:#000000;stroke-width:1.0885;}
	.st12{fill:#FFFFFF;stroke:#000000;stroke-width:1.0675;}
	.st13{fill:none;stroke:#000000;stroke-width:1.2005;}
	.st14{fill:none;stroke:#000000;stroke-width:1.0547;}
	.st15{fill:#F1BF31;stroke:#000000;stroke-width:1.0885;}
	.st16{fill:#D99F31;stroke:#000000;stroke-width:1.0885;}
	.st17{fill:none;stroke:#000000;stroke-width:1.1783;}
	.st18{stroke:#000000;stroke-width:1.0885;stroke-linejoin:round;}
	.st19{fill:#F1BF31;stroke:#000000;stroke-width:1.0885;stroke-linejoin:round;}
	.st20{fill:#F1BF31;stroke:#000000;stroke-width:1.0547;}
	.st21{stroke:#000000;stroke-width:0.525;stroke-linejoin:round;}
	.st22{fill:#D99F31;stroke:#000000;stroke-width:0.8388;stroke-linecap:round;stroke-linejoin:round;}
	.st23{fill:none;stroke:#000000;stroke-width:0.9065;stroke-linecap:round;stroke-linejoin:round;}
	.st24{fill:#D99F31;stroke:#000000;stroke-width:0.9065;stroke-linecap:round;stroke-linejoin:round;}
	.st25{fill:none;stroke:#000000;stroke-width:1.2717;stroke-linecap:round;stroke-linejoin:round;}
	.st26{fill:none;stroke:#000000;stroke-width:1.0885;stroke-linecap:round;stroke-linejoin:round;}
	.st27{fill:none;stroke:#000000;stroke-width:0.9718;stroke-linecap:round;stroke-linejoin:round;}
	.st28{fill:#D99F31;stroke:#000000;stroke-width:1.1107;stroke-linecap:round;stroke-linejoin:round;}
	.st29{fill:#F1F1F2;stroke:#000000;stroke-width:1.9868;stroke-linecap:round;stroke-linejoin:round;}
	.st30{fill:#D99F31;stroke:#000000;stroke-width:1.0885;stroke-linecap:round;stroke-linejoin:round;}
	.st31{fill:none;stroke:#F1BF31;stroke-width:1.0547;stroke-linecap:round;stroke-linejoin:round;}
	.st32{fill:#A0CFEB;}
	.st33{fill:#94BB79;}
	.st34{fill:#658D5C;}
	.st35{fill:none;stroke:#000000;stroke-width:1.4513;stroke-linecap:round;stroke-linejoin:round;}
	.st36{fill:none;stroke:#4C819A;stroke-width:0.9065;stroke-linecap:round;stroke-linejoin:round;}
	.st37{fill:#BDBFC1;}
	.st38{fill:#FFFFFF;stroke:#000000;stroke-width:1.0885;stroke-linecap:round;stroke-linejoin:round;}
	.st39{stroke:#000000;stroke-width:1.2717;stroke-linecap:round;stroke-linejoin:round;}
	.st40{fill:#658D5C;stroke:#000000;stroke-width:1.0885;stroke-linecap:round;stroke-linejoin:round;}
	.st41{stroke:#000000;stroke-width:0.525;stroke-linecap:round;stroke-linejoin:round;}
	.st42{stroke:#000000;stroke-width:0.9065;stroke-linecap:round;stroke-linejoin:round;}
	.st43{fill:#466343;stroke:#000000;stroke-width:1.0885;stroke-linecap:round;stroke-linejoin:round;}
	.st44{fill:#A48253;stroke:#000000;stroke-width:1.0885;stroke-linecap:round;stroke-linejoin:round;}
	.st45{stroke:#000000;stroke-width:0.7268;stroke-linecap:round;stroke-linejoin:round;}
	.st46{stroke:#000000;stroke-width:1.106;stroke-linecap:round;stroke-linejoin:round;}
	.st47{fill:#658D5C;stroke:#000000;stroke-width:1.106;stroke-linecap:round;stroke-linejoin:round;}
	.st48{fill:#A48253;stroke:#000000;stroke-width:0.9065;stroke-linecap:round;stroke-linejoin:round;}
	.st49{fill:#A48253;}
	.st50{fill:none;stroke:#000000;stroke-width:1.5342;stroke-linecap:round;stroke-linejoin:round;}
	.st51{fill:none;stroke:#000000;stroke-width:1.6333;stroke-linecap:round;stroke-linejoin:round;}
	.st52{fill:none;stroke:#000000;stroke-width:1.6322;stroke-linecap:round;stroke-linejoin:round;}
	.st53{fill:#D99F31;stroke:#000000;stroke-width:1.4513;stroke-linecap:round;stroke-linejoin:round;}
	.st54{stroke:#000000;stroke-width:0.987;stroke-linecap:round;stroke-linejoin:round;}
	.st55{stroke:#000000;stroke-width:1.1398;stroke-linecap:round;stroke-linejoin:round;}
	.st56{fill:#658D5C;stroke:#000000;stroke-width:1.1398;stroke-linecap:round;stroke-linejoin:round;}
	.st57{fill:#D99F31;stroke:#000000;stroke-width:1.2717;stroke-linecap:round;stroke-linejoin:round;}
	.st58{stroke:#000000;stroke-width:1.0068;stroke-linecap:round;stroke-linejoin:round;}
	.st59{fill:#658D5C;stroke:#000000;stroke-width:1.0068;stroke-linecap:round;stroke-linejoin:round;}
	.st60{fill:none;stroke:#000000;stroke-width:0.7268;stroke-linecap:round;stroke-linejoin:round;}
	.st61{fill:#658D5C;stroke:#000000;stroke-width:0.987;stroke-linecap:round;stroke-linejoin:round;}
	.st62{stroke:#000000;stroke-width:1.1667;stroke-linecap:round;stroke-linejoin:round;}
</style>
<rect x="0" y="0" class="st0" width="933.3" height="700"/>
<rect x="0" y="0" class="st1" width="933.3" height="350"/>
<g id="coa">
	<g id="crown">
		<g>
			<circle class="st2" cx="536" cy="199.8" r="4.7"/>
			<circle class="st2" cx="538.6" cy="183.2" r="5.9"/>
			<circle class="st2" cx="439.1" cy="165.3" r="4.6"/>
			<circle class="st2" cx="394.9" cy="183.2" r="5.9"/>
			<circle class="st2" cx="421.9" cy="167.3" r="4.9"/>
			<circle class="st2" cx="397.5" cy="199.8" r="4.7"/>
			<circle class="st2" cx="404.7" cy="171.6" r="5.7"/>
			<circle class="st2" cx="494.4" cy="165.3" r="4.6"/>
			<circle class="st2" cx="511.6" cy="167.3" r="4.9"/>
			<circle class="st2" cx="528.8" cy="171.6" r="5.7"/>
		</g>
		<g>
			<circle class="st3" cx="536" cy="199.8" r="5.2"/>
			<circle class="st3" cx="538.6" cy="183.2" r="6.5"/>
			<circle class="st3" cx="439.1" cy="165.3" r="5"/>
			<circle class="st3" cx="394.9" cy="183.2" r="6.5"/>
			<circle class="st3" cx="421.9" cy="167.3" r="5.4"/>
			<circle class="st3" cx="397.5" cy="199.8" r="5.2"/>
			<circle class="st3" cx="404.7" cy="171.6" r="6.3"/>
			<circle class="st3" cx="494.4" cy="165.3" r="5"/>
			<circle class="st3" cx="511.6" cy="167.3" r="5.4"/>
			<circle class="st3" cx="528.8" cy="171.6" r="6.3"/>
		</g>
		<g>
			<path class="st4" d="M457.9,154c-15.7,18.1-43.3,9.3-55.9,16.3c-21.9,12.3,1.9,41.4,6.4,47l23.9-6.2c-8.8-7-26.4-18.9-21.1-28.6
				c5.4-9.9,34.3,0.1,46.9-21C460.7,157,458.7,153.1,457.9,154L457.9,154z"/>
			<path class="st5" d="M457.9,154.6c-15.7,18.1-42.5,9.4-55.1,16.5c-21.9,12.3,2.8,40.7,7.3,46.3l20.6-6.2
				c-8.8-7-25.4-19.3-20.1-29c5.4-9.9,34.8,0,47.4-21.2C460.7,156.4,458.7,153.7,457.9,154.6L457.9,154.6z"/>
			<path class="st6" d="M459.3,156c-17,23-42.6,11.4-53.6,20.4c-12.4,10.1,5.7,30.1,14.4,38l1.4-0.5c-7.1-6.7-28.1-26.6-14.7-37.4
				c9.6-7.7,36.6,2.4,52.6-19.9L459.3,156z"/>
			<path class="st7" d="M417.5,199.9c-0.4,0.8-1,2.2-1.5,3.9c-7.3-8.7-12.7-17.7-7-25.1c5.2-6.8,18-3.7,31.4-8.4
				c6.1-1.8,12.1-5,17.2-11.1c-0.5,1.3-1,2.9-1.6,4.5c-13.5,17.2-40.5,9-45.7,18.4C407.3,187.7,411.6,194.1,417.5,199.9L417.5,199.9
				z"/>
			<path d="M410.8,198.3c1.5-0.4,2.3-1.3,3.1-2.3c0.3,0.4,0.7,0.8,1.1,1.2c-0.6,0.8-1.2,1.5-2.2,2.1c-1.2,0.6-2.5,0.8-3.8,0.8
				c-0.4-0.6-0.8-1.1-1.2-1.7C408.8,198.6,409.9,198.6,410.8,198.3z M407.5,191.6c1.3-0.2,1.9-0.3,2.9-0.9c0.2,0.4,0.4,0.8,0.6,1.2
				c-0.9,0.5-1.6,0.8-2.8,1.1c-1.2,0.3-2.5,0.2-3.6,0c-0.2-0.5-0.5-1-0.7-1.6C405,191.6,406.4,191.7,407.5,191.6L407.5,191.6z
				 M409.3,186c-2.4-0.2-4.8-1.5-6.4-3.3c0.1-0.5,0.3-1,0.5-1.4c0.9,1.2,3,3.2,6.1,3.5C409.3,185.1,409.3,185.6,409.3,186z
				 M411.4,180.6c-1.7-1-3.2-2.6-4-4.4c0.3-0.2,0.7-0.4,1-0.6c0.6,1.4,1.8,3.2,4,4.3C412,180.1,411.7,180.4,411.4,180.6z
				 M416.1,173.5c0.3,1.6,1.2,3,2.5,4c-0.4,0.1-0.9,0.2-1.3,0.3c-1.2-1.1-2-2.5-2.3-4.2C415.4,173.6,415.7,173.5,416.1,173.5
				L416.1,173.5z M424.3,172.8c0.4,1.2,1.3,2.3,2.4,3.2c0.1,0.1,0.2,0.2,0.2,0.3l-1.3,0.2c-1.2-1-2-2.2-2.5-3.6L424.3,172.8
				L424.3,172.8z M432.4,171.9c0.8,1.2,1.9,2.2,3.1,3c-0.5,0.1-1,0.2-1.5,0.3c-1.1-0.8-2.1-1.9-2.8-3.1
				C431.7,172.1,432,172,432.4,171.9L432.4,171.9z M439.6,170.5c1,1,2.4,1.8,3.8,2.2c-0.5,0.2-1,0.4-1.5,0.5
				c-1.3-0.6-2.5-1.4-3.4-2.5C438.9,170.7,439.2,170.6,439.6,170.5L439.6,170.5z M446.9,167.7c1,0.7,2.2,1.2,3.4,1.4
				c-0.4,0.3-0.8,0.5-1.2,0.8c-1.2-0.4-2.4-0.9-3.3-1.7C446.2,168,446.6,167.9,446.9,167.7L446.9,167.7z M452.3,164.3
				c0.8,0.4,1.7,0.7,2.5,0.8c-0.3,0.3-0.6,0.6-0.8,0.9c-0.9-0.2-1.8-0.6-2.6-1C451.6,164.8,452,164.5,452.3,164.3L452.3,164.3z"/>
			<path class="st8" d="M459.4,156.9c0.1,1.1-0.3,2.1-1.3,3.8c-12.6,21.2-42.3,11.5-47.8,21.4c-5.2,9.5,11.2,21.6,20.1,28.7
				c-1.6,0.6-3.2,1.1-4.9,1.5l-1.5,0.8l-2.3,0.7c-7.1-6.7-28-26.5-14.7-37.2C416.5,168.8,443.3,179.1,459.4,156.9L459.4,156.9z"/>
			<path class="st4" d="M475.4,154c15.7,18.1,43.3,9.3,55.9,16.3c21.9,12.3-1.9,41.4-6.4,47l-23.9-6.2c8.8-7,26.4-18.9,21.1-28.6
				c-5.4-9.9-34.3,0.1-46.9-21C472.6,157,474.7,153.1,475.4,154L475.4,154z"/>
			<path class="st5" d="M475.6,154.6c15.7,18.1,42.5,9.4,55.1,16.5c21.9,12.3-2.8,40.7-7.3,46.3l-20.6-6.2c8.8-7,25.4-19.3,20.1-29
				c-5.4-9.9-34.8,0-47.4-21.2C472.8,156.4,474.8,153.7,475.6,154.6L475.6,154.6z"/>
			<path class="st6" d="M512,213.8c7.1-6.7,28.1-26.6,14.7-37.4c-9.6-7.7-36.6,2.4-52.6-19.9l0.1-0.5c17,23,42.6,11.4,53.6,20.4
				c12.4,10.1-5.8,30-14.5,37.9L512,213.8z"/>
			<path class="st7" d="M516.1,199.9c0.4,0.8,1,2.2,1.5,3.9c7.3-8.7,12.7-17.7,7-25.1c-5.2-6.8-18-3.7-31.4-8.4
				c-6.1-1.8-12.1-5-17.2-11.1c0.5,1.3,1,2.9,1.6,4.5c13.5,17.2,40.6,9,45.7,18.4C526.2,187.7,521.9,194.1,516.1,199.9L516.1,199.9z
				"/>
			<path d="M522.7,199c-1.8-0.4-2.6-1.2-3.8-2.2c-0.3,0.4-0.7,0.8-1.1,1.2c0.8,0.8,1.6,1.5,2.9,2.1c1.1,0.5,2.2,0.7,3.3,0.7
				c0.4-0.5,0.8-1.1,1.2-1.6C524.4,199.2,523.5,199.2,522.7,199L522.7,199z M526,191.6c-1.3-0.2-1.9-0.3-2.9-0.9
				c-0.2,0.4-0.4,0.8-0.6,1.2c0.9,0.5,1.6,0.8,2.8,1.1c1.2,0.3,2.5,0.2,3.6,0c0.2-0.5,0.5-1,0.7-1.6
				C528.5,191.6,527.1,191.7,526,191.6L526,191.6z M524.2,186c2.4-0.2,4.8-1.5,6.4-3.3c-0.1-0.5-0.3-1-0.5-1.4c-0.9,1.2-3,3.2-6,3.5
				C524.2,185.1,524.2,185.5,524.2,186L524.2,186z M522.1,180.6c1.7-1,3.2-2.6,4-4.4c-0.3-0.2-0.7-0.4-1-0.6c-0.6,1.4-1.8,3.2-4,4.2
				C521.5,180.1,521.8,180.4,522.1,180.6L522.1,180.6z M517.5,173.5c-0.3,1.6-1.2,3-2.5,4c0.4,0.1,0.9,0.2,1.3,0.3
				c1.2-1.1,2-2.5,2.3-4.2C518.2,173.6,517.8,173.5,517.5,173.5L517.5,173.5z M509.2,172.7c-0.4,1.2-1.3,2.3-2.4,3.2
				c-0.1,0.1-0.2,0.2-0.2,0.3l1.3,0.2c1.2-1,2-2.2,2.5-3.6L509.2,172.7L509.2,172.7z M501.1,171.9c-0.8,1.2-1.9,2.2-3.1,3
				c0.5,0.1,1,0.2,1.5,0.3c1.1-0.8,2.1-1.9,2.8-3.1C501.9,172.1,501.5,172,501.1,171.9L501.1,171.9z M493.9,170.5
				c-1,1-2.4,1.8-3.8,2.2c0.5,0.2,1,0.4,1.5,0.5c1.3-0.6,2.5-1.4,3.4-2.5C494.7,170.7,494.3,170.6,493.9,170.5L493.9,170.5z
				 M486.6,167.7c-1,0.7-2.2,1.2-3.4,1.4c0.4,0.3,0.8,0.5,1.2,0.8c1.2-0.4,2.4-0.9,3.3-1.7C487.3,168,487,167.9,486.6,167.7z
				 M481.3,164.3c-0.8,0.4-1.7,0.7-2.5,0.8c0.3,0.3,0.6,0.6,0.8,0.9c0.9-0.2,1.8-0.6,2.6-1C481.9,164.8,481.6,164.5,481.3,164.3
				L481.3,164.3z"/>
			<path class="st8" d="M474.1,156.9c-0.1,1.1,0.3,2.1,1.3,3.8c12.6,21.2,42.3,11.5,47.8,21.4c5.2,9.5-11.3,21.6-20.1,28.7
				c1.6,0.6,3.2,1.1,4.9,1.5l1.5,0.8l2.3,0.7c7.1-6.7,28-26.5,14.7-37.2C517,168.8,490.2,179.1,474.1,156.9L474.1,156.9z"/>
		</g>
		<g>
			<path class="st9" d="M466.8,194.5h-8c0,0,0.9-7.6-0.1-12.8c-0.9-4.2-4.2-9-4.2-12.5c0-3.5,3.8-13.4,3.8-13.4h8.5h8.5
				c0,0,3.6,9.9,3.6,13.4c0,3.5-3.1,8.3-4,12.5c-1.1,5.2-0.1,12.8-0.1,12.8H466.8L466.8,194.5z"/>
			<path class="st10" d="M466.8,194.5h-8c0,0,1.2-7.6,0.2-12.8c-0.8-4.2-3.6-7.5-4-11.7c-0.5-6,4.7-14.1,4.7-14.1h7h7
				c0,0,5.1,8.1,4.5,14.1c-0.4,4.3-3,7.5-3.8,11.7c-1,5.2,0.2,12.8,0.2,12.8H466.8L466.8,194.5z"/>
			<path class="st7" d="M455,168.5c0.5-0.2,1-0.3,1.5-0.3c1.8,0,2.4,1.1,2.4,1.1s4.6-1.1,7.8-1.1c3.2,0,7.8,1.1,7.8,1.1
				s0.7-1.1,2.4-1.1c0.4,0,0.9,0.1,1.4,0.2c0,0.5,0,1.1,0,1.6c-0.4,4.3-3,7.5-3.8,11.7c-0.5,2.6-0.4,5.7-0.3,8.2l-7.5,3.6l-7.5-3.6
				c0.2-2.5,0.2-5.7-0.3-8.2c-0.8-4.2-3.6-7.5-4-11.7C454.9,169.5,454.9,169,455,168.5L455,168.5z"/>
			<path d="M474.9,171.3c-0.3,1.1-0.9,2.9-1.4,4.6c-0.5,1.8-0.9,3.6-1,4.7c-0.2,4.5,0.6,9.4,1.4,13.8h-0.3
				c-1.3-3.9-2.7-9.8-2.7-13.8c0-2.4,1.6-7.2,2.4-9.4c1.1-3.3,0.9-5.5,0.1-7.7c-0.8-2.2-2.2-4.4-3.3-7.6c0,0,0,0,0,0h1.5
				c1.2,3.1,2.5,5.3,3.2,7.6C475.7,165.7,476,168,474.9,171.3L474.9,171.3z M459.5,194.5c0.9-4.5,1.7-9.3,1.4-13.8
				c-0.1-1.2-0.5-2.9-1-4.7c-0.5-1.8-1-3.5-1.4-4.6c-1-3.3-0.2-7.2,0.9-10.2c0.9-2.6,2.1-4.7,2.4-5.2h1.6c-0.5,0.8-5.4,9.1-3.3,15.3
				c0.8,2.3,2.3,7,2.4,9.4c0.1,4-1.4,10-2.7,13.8L459.5,194.5L459.5,194.5z"/>
			<path class="st11" d="M466.8,194.5h-8c0,0,1.2-7.6,0.2-12.8c-0.8-4.2-3.6-7.5-4-11.7c-0.5-6,4.7-14.1,4.7-14.1h7h7
				c0,0,5.1,8.1,4.5,14.1c-0.4,4.3-3,7.5-3.8,11.7c-1,5.2,0.2,12.8,0.2,12.8H466.8L466.8,194.5z"/>
			<ellipse class="st12" cx="466.7" cy="164.1" rx="4" ry="2.9"/>
			<ellipse class="st13" cx="466.7" cy="163.9" rx="4.5" ry="3.2"/>
			<circle class="st12" cx="466.7" cy="172.9" r="4.3"/>
			<circle class="st13" cx="466.7" cy="172.9" r="4.8"/>
		</g>
		<g>
			<path class="st14" d="M420.5,238.3c0,0-1.2-1.2-1.6-2.3c-0.3-0.8-0.3-2.2-0.3-2.2l-4.4-7.1l9.9-9.4l18.9-5.4l23.8-1.7h0l23.8,1.7
				l18.9,5.4l9.9,9.4l-4.4,7.1c0,0,0,1.4-0.3,2.2c-0.4,1-1.6,2.3-1.6,2.3l-22.1-7.5l-24.1-1.1l-24.1,1.1L420.5,238.3z"/>
			<path class="st15" d="M421,237.5c0,0-0.9-1.1-1.2-1.9c-0.5-1.2-0.4-3.3-0.4-3.3l-5.2-5.5l9.9-9.4l18.9-5.4l23.8-1.7l23.8,1.7
				l18.9,5.4l9.9,9.4l-5.2,5.5c0,0,0.1,2.1-0.4,3.3c-0.3,0.8-1.2,1.9-1.2,1.9l-21.6-6.7l-24.1-1.1l-24.1,1.1L421,237.5L421,237.5z"
				/>
			<path class="st9" d="M418.6,241.8c0-8.2,21.5-14.9,48-14.9c26.5,0,48,6.7,48,14.9c0,0,0,0,0,0c0,7-21.5,12.6-48,12.6
				C440.1,254.5,418.6,248.8,418.6,241.8C418.6,241.8,418.6,241.8,418.6,241.8z"/>
			<path class="st15" d="M420.2,241.8c0-7.9,20.8-14.4,46.4-14.4c25.6,0,46.4,6.4,46.5,14.4c0,0,0,0,0,0c0,6.8-20.8,12.3-46.4,12.3
				C441.1,254.1,420.3,248.6,420.2,241.8C420.2,241.8,420.2,241.8,420.2,241.8z"/>
			<ellipse class="st16" cx="466.7" cy="243.2" rx="42.9" ry="11"/>
			<path class="st3" d="M509.3,244.6c-8,3.4-23.8,5.3-42.5,5.3c-18.7,0-34.5-1.8-42.5-5.3"/>
			<path class="st17" d="M508.6,240.6c-8.2,3.1-23.7,4.7-41.8,4.7c-18.2,0-33.6-1.6-41.8-4.7"/>
			<path class="st11" d="M504.5,237.9c-8.7,2.5-22.3,4-37.8,4c-15.5,0-29.1-1.4-37.8-4"/>
			<path class="st11" d="M498.7,235.7c-8.4,1.7-19.6,2.6-32,2.6c-12.4,0-23.6-0.9-32-2.6"/>
			<path class="st11" d="M488.9,233.7c-6.6,0.7-14.1,1.1-22.2,1.1c-8.1,0-15.6-0.4-22.2-1.1"/>
			<ellipse class="st11" cx="466.7" cy="243.2" rx="42.6" ry="10.6"/>
			<path class="st18" d="M413.9,224.9c-4.2-5.6-8-9.4-17.1-12.6c1.3-1,3.5-1.9,5.6-2.4c3.5-0.9,7-0.4,9.3,0.8
				c-1.8-6.5,1.7-12.9,1.7-12.9s5.6-0.3,11.3,4.3c0.2-7.8,2.5-11.6,2.5-11.6s5.9,0.3,12,6.3c1.2-8.1,5.5-12.5,5.5-12.5
				s7.3,2.3,11.4,9.9c2.8-11.1,10.7-15.5,10.7-15.5s7.9,4.4,10.7,15.5c4.2-7.7,11.4-9.9,11.4-9.9s4.4,4.2,5.5,12.5
				c6.1-6,12-6.3,12-6.3s2.3,3.7,2.5,11.6c5.7-4.6,11.9-2.9,11.9-2.9s2.9,5.1,1.1,11.6c2.3-1.2,5.8-1.7,9.3-0.8
				c2.1,0.5,4.3,1.4,5.6,2.4c-8.2,3-13.1,7-17.3,12.6c-3.9-8.1-25-16.9-52.7-16.9C439.1,208,417.8,216.8,413.9,224.9L413.9,224.9z"
				/>
			<path class="st19" d="M413.9,224c-3.6-5.6-8.8-9.8-14.2-11.9c1.3-1,3.5-1.4,5.8-1.6c2.7-0.2,5,0.2,6.9,1.1
				c-1.8-6.5,1.1-13.1,1.1-13.1s5.8,0,11.5,4.6c0.2-7.8,2.7-11.7,2.7-11.7s5.5,0.6,11.6,6.6c1.3-8.1,5.5-12.7,5.5-12.7
				s7.3,2.3,11.4,9.9c2.8-11.1,10.5-15.1,10.5-15.1s7.7,4,10.5,15.1c4.2-7.7,11.4-9.9,11.4-9.9s4.4,4.1,5.5,12.7
				c6.1-6,11.6-6.6,11.6-6.6s2.5,3.9,2.7,11.7c5.7-4.6,12.2-3.3,12.2-3.3s2.2,5.4,0.4,11.8c1.9-0.9,4.2-1.3,6.9-1.1
				c2.3,0.2,4.5,0.5,5.8,1.6c-5.4,2.1-10.6,6.2-14.2,11.9c-3.9-8.1-25.2-16.2-52.9-16.2C439.1,207.8,417.8,215.9,413.9,224
				L413.9,224z"/>
			<path class="st9" d="M411.8,226.5c0-10.2,24.4-18.9,54.9-18.9c30.5,0,54,9,54,18c0,2.1-1.9,4-4.4,5.6c0.2-0.7,0.4-1.4,0.4-2.1
				c0-9-19.4-16.2-50-16.2c-30.5,0-50,7.3-50,16.2c0,0.7,0.1,1.4,0.4,2.1C414.6,229.6,411.8,228.7,411.8,226.5L411.8,226.5z"/>
			<path class="st20" d="M413.3,225.6c0-7.7,23-17.4,53.5-17.4c30.5,0,53.5,9.7,53.5,17.4c0,2.1-2.4,2.4-2.6,1.7
				c-2.6-7.9-20.3-14.8-50.9-14.8c-30.5,0-48.3,6.9-50.9,14.8C415.6,228,413.3,227.8,413.3,225.6L413.3,225.6z"/>
			<path class="st21" d="M466.2,200.8c0.2-2.7,0.5-8.8,0.5-8.8c0-0.1,0.1-1,0.1-0.9c0,0,0.3,7,0.5,9.7c0.2,2.7,0.3,7,0.3,7
				c0,0,0,0,0,0l-1.8,0c0,0,0,0,0,0C465.8,207.8,466,203.5,466.2,200.8L466.2,200.8z M511,216.6c0.5-0.9,1.1-2.2,1.5-3.1
				c0.9-1.9,2.5-5,2.5-5c0-0.1-0.1-0.1-0.1,0c0,0-2,2.8-3.1,4.5c-0.6,0.9-1.4,2.1-2,3L511,216.6z M496.1,211.2
				c0.3-0.6,1.5-3.4,2.5-5.2c1.2-2.1,3.2-5.3,3.2-5.3c0-0.1,0.1,0,0.1,0c0,0-1.5,3.2-2.3,5.3c-0.8,2-2,5.3-2,5.3l-0.8,0L496.1,211.2
				z M482.6,208.7c0.3-1.3,1-3.9,1.5-5.8c0.8-2.6,1.2-4,2.1-6.6c0-0.1,0.1,0,0.1,0c-0.5,2.6-0.8,4.1-1.2,6.8
				c-0.3,1.9-0.7,4.6-0.9,5.8L482.6,208.7z M436.7,211.3l-0.7,0c0,0-1.2-3.3-2-5.3c-0.9-2.1-2.4-5.3-2.4-5.3c0-0.1,0-0.1,0.1,0
				c0,0,2.1,3.1,3.2,5.3c1,1.8,2.2,4.6,2.5,5.2L436.7,211.3z M449.4,208.9c-0.2-1.2-0.6-3.9-0.9-5.8c-0.4-2.6-0.7-4.1-1.2-6.8
				c0-0.1,0.1-0.1,0.1,0c0.9,2.5,1.3,4,2.1,6.6c0.5,1.8,1.2,4.5,1.5,5.8L449.4,208.9z M422.3,216.7c-0.5-1-1.1-2.2-1.5-3.2
				c-0.9-1.9-2.5-5-2.5-5c0-0.1,0.1-0.1,0.1,0c0,0,2,2.8,3.1,4.5c0.6,0.9,1.4,2.1,2.1,3.1L422.3,216.7z"/>
		</g>
		<g>
			<path class="st22" d="M421.9,230.3c-0.4-2.2-2.3-4-3.8-3.8c-1.5,0.3-3.6,2.5-3.2,4.7c0.4,2.2,3.2,3.8,4.7,3.6
				C421,234.6,422.3,232.5,421.9,230.3L421.9,230.3z"/>
			<path class="st10" d="M419.4,227.6c0.4,0.5,0.7,1.1,0.7,1.8c0,1.5-1.2,2.8-2.8,2.8c-0.5,0-1-0.1-1.4-0.4
				c-0.1-0.2-0.1-0.4-0.2-0.6c-0.3-1.9,1.1-3.7,2.4-3.9c0.1,0,0.2,0,0.3,0C418.7,227.3,419.1,227.4,419.4,227.6L419.4,227.6z"/>
			<path class="st23" d="M421.1,230.4c-0.3-1.9-1.7-3.3-2.9-3.1c-1.3,0.2-2.8,2-2.4,3.9c0.3,1.9,2.4,3.3,3.7,3.1
				C420.7,234.1,421.4,232.3,421.1,230.4L421.1,230.4z"/>
			<path class="st24" d="M438,225l-0.7-4.2l-2.8-1.4c0,0-3,0.8-4.9,1.5c-2,0.7-4.9,2-4.9,2l-0.7,1.2l0.9,4.7l1.6,1.4l10.5-3.2
				L438,225L438,225z"/>
			<path class="st10" d="M426.4,228l8.4-2.7l0.5-0.9l-0.7-4.4l-0.3-0.3l-9.4,3.4l0.7,4L426.4,228z"/>
			<path class="st25" d="M426.4,228l8.4-2.7l0.5-0.9l-0.6-3.5 M437.8,225l-2.4-0.5"/>
			<path class="st10" d="M450,220.5c-0.1-1,0.6-1.8,1.6-1.9c1-0.1,1.8,0.6,1.9,1.6c0.1,1-0.6,1.8-1.6,1.9
				C450.9,222.2,450.1,221.5,450,220.5z M445.9,224.4c-0.1-1,0.6-1.8,1.6-1.9c1-0.1,1.8,0.6,1.9,1.6c0.1,1-0.6,1.8-1.6,1.9
				C446.9,226.1,446,225.3,445.9,224.4z M441.8,221.3c-0.1-1,0.6-1.8,1.6-1.9c1-0.1,1.6,0.6,1.7,1.6c0.1,1-0.5,1.8-1.4,1.9
				C442.7,222.9,441.9,222.2,441.8,221.3L441.8,221.3z M445.3,217.4c-0.1-1,0.6-1.8,1.6-1.9c1-0.1,1.8,0.6,1.9,1.6
				c0.1,1-0.6,1.8-1.6,1.9C446.3,219.1,445.4,218.4,445.3,217.4z"/>
			<path class="st7" d="M450.1,221c0.2-0.6,0.8-1.1,1.5-1.1c0.8-0.1,1.5,0.4,1.8,1.1c-0.2,0.6-0.8,1.1-1.5,1.1
				C451.1,222.2,450.4,221.7,450.1,221z M445.4,217.9c0.3,0.7,1,1.2,1.8,1.1c0.7-0.1,1.3-0.5,1.5-1.1c-0.3-0.7-1-1.2-1.8-1.1
				C446.2,216.8,445.7,217.2,445.4,217.9L445.4,217.9z M441.9,221.7c0.3,0.7,1,1.2,1.8,1.1c0.7-0.1,1.2-0.5,1.3-1.1
				c-0.2-0.7-0.8-1.2-1.6-1.2C442.7,220.7,442.1,221.1,441.9,221.7L441.9,221.7z M446.1,224.8c0.3,0.7,1,1.2,1.8,1.1
				c0.7-0.1,1.3-0.5,1.5-1.1c-0.3-0.7-1-1.2-1.8-1.1C446.8,223.8,446.3,224.2,446.1,224.8z"/>
			<path class="st26" d="M450,220.5c-0.1-1,0.6-1.8,1.6-1.9c1-0.1,1.8,0.6,1.9,1.6c0.1,1-0.6,1.8-1.6,1.9
				C450.9,222.2,450.1,221.5,450,220.5z M445.9,224.4c-0.1-1,0.6-1.8,1.6-1.9c1-0.1,1.8,0.6,1.9,1.6c0.1,1-0.6,1.8-1.6,1.9
				C446.9,226.1,446,225.3,445.9,224.4z M441.8,221.3c-0.1-1,0.6-1.8,1.6-1.9c1-0.1,1.6,0.6,1.7,1.6c0.1,1-0.5,1.8-1.4,1.9
				C442.7,222.9,441.9,222.2,441.8,221.3L441.8,221.3z M445.3,217.4c-0.1-1,0.6-1.8,1.6-1.9c1-0.1,1.8,0.6,1.9,1.6
				c0.1,1-0.6,1.8-1.6,1.9C446.3,219.1,445.4,218.4,445.3,217.4z"/>
			<path class="st7" d="M458.3,222.1v-4.5l2.6-2.5h11.6l2.6,2.5l0,4.5l-2.7,2.3H461L458.3,222.1z"/>
			<path class="st10" d="M472.8,215.7l-0.9,0.9v4.3l-0.7,0.7l-8.8-0.1l-0.7-0.7v-4.2l-0.8-1.1L472.8,215.7z"/>
			<path class="st23" d="M458.3,222.1v-4.5l2.6-2.5h11.6l2.6,2.5l0,4.5l-2.7,2.3H461L458.3,222.1z"/>
			<path class="st25" d="M459,221.9l2.6-1 M474.4,222l-2.6-1.1 M461.3,224.1l1.1-2.5 M472.2,224.1l-1.1-2.5 M471.8,216.6v4.3
				l-0.7,0.7l-8.8-0.1l-0.7-0.7v-4.3"/>
			<path class="st10" d="M483.4,220.5c0.1-1-0.6-1.8-1.6-1.9c-1-0.1-1.8,0.6-1.9,1.6c-0.1,1,0.6,1.8,1.6,1.9
				C482.5,222.2,483.4,221.5,483.4,220.5L483.4,220.5z M487.5,224.4c0.1-1-0.6-1.8-1.6-1.9c-1-0.1-1.8,0.6-1.9,1.6
				c-0.1,1,0.6,1.8,1.6,1.9C486.6,226.1,487.4,225.3,487.5,224.4z M491.6,221.3c0.1-1-0.6-1.8-1.6-1.9c-1-0.1-1.6,0.6-1.7,1.6
				c-0.1,1,0.5,1.8,1.4,1.9C490.7,222.9,491.6,222.2,491.6,221.3L491.6,221.3z M488.1,217.4c0.1-1-0.6-1.8-1.6-1.9
				c-1-0.1-1.8,0.6-1.9,1.6c-0.1,1,0.6,1.8,1.6,1.9C487.2,219.1,488,218.4,488.1,217.4L488.1,217.4z"/>
			<path class="st7" d="M483.3,221c-0.2-0.6-0.8-1.1-1.5-1.1c-0.8-0.1-1.5,0.4-1.8,1.1c0.2,0.6,0.8,1.1,1.5,1.1
				C482.3,222.2,483.1,221.7,483.3,221z M484.7,217.9c0.2,0.6,0.8,1.1,1.5,1.1c0.8,0.1,1.5-0.4,1.8-1.1c-0.2-0.6-0.8-1.1-1.5-1.1
				C485.7,216.6,485,217.1,484.7,217.9L484.7,217.9z M488.4,221.8c0.2,0.6,0.7,1,1.3,1.1c0.8,0.1,1.5-0.4,1.8-1.1
				c-0.2-0.6-0.8-1.1-1.5-1.1C489.2,220.5,488.6,221,488.4,221.8z M484.1,224.8c0.2,0.6,0.8,1.1,1.5,1.1c0.8,0.1,1.5-0.4,1.8-1.1
				c-0.2-0.6-0.8-1.1-1.5-1.1C485.1,223.6,484.4,224.1,484.1,224.8z"/>
			<path class="st26" d="M483.4,220.5c0.1-1-0.6-1.8-1.6-1.9c-1-0.1-1.8,0.6-1.9,1.6c-0.1,1,0.6,1.8,1.6,1.9
				C482.5,222.2,483.4,221.5,483.4,220.5L483.4,220.5z M487.5,224.4c0.1-1-0.6-1.8-1.6-1.9c-1-0.1-1.8,0.6-1.9,1.6
				c-0.1,1,0.6,1.8,1.6,1.9C486.6,226.1,487.4,225.3,487.5,224.4z M491.6,221.3c0.1-1-0.6-1.8-1.6-1.9c-1-0.1-1.6,0.6-1.7,1.6
				c-0.1,1,0.5,1.8,1.4,1.9C490.7,222.9,491.6,222.2,491.6,221.3L491.6,221.3z M488.1,217.4c0.1-1-0.6-1.8-1.6-1.9
				c-1-0.1-1.8,0.6-1.9,1.6c-0.1,1,0.6,1.8,1.6,1.9C487.2,219.1,488,218.4,488.1,217.4L488.1,217.4z"/>
			<path class="st24" d="M495.5,225l0.7-4.2l2.8-1.4c0,0,3,0.8,4.9,1.5c2,0.7,4.9,2,4.9,2l0.7,1.2l-0.9,4.7l-1.6,1.4l-10.5-3.2
				L495.5,225L495.5,225z"/>
			<path class="st10" d="M507.1,228l-8.4-2.7l-0.5-0.9l0.7-4.4l0.3-0.3l9.4,3.4l-0.7,4L507.1,228z"/>
			<path class="st25" d="M507.1,228l-8.4-2.7l-0.5-0.9l0.6-3.5 M496.5,226.8l2.2-1.4"/>
			<path class="st22" d="M511.5,230.3c0.4-2.2,2.3-4,3.8-3.8c1.5,0.3,3.6,2.5,3.2,4.7c-0.4,2.2-3.2,3.8-4.7,3.6
				C512.3,234.6,511.1,232.5,511.5,230.3L511.5,230.3z"/>
			<path class="st10" d="M513.3,229.4c0-0.7,0.2-1.3,0.7-1.8c0.3-0.2,0.7-0.3,1-0.3c0.1,0,0.2,0,0.3,0c1.3,0.2,2.8,2,2.4,3.9
				c0,0.2-0.1,0.4-0.2,0.6c-0.4,0.2-0.9,0.4-1.4,0.4C514.5,232.2,513.3,230.9,513.3,229.4L513.3,229.4z"/>
			<path class="st23" d="M512.3,230.4c0.3-1.9,1.7-3.3,2.9-3.1c1.3,0.2,2.8,2,2.4,3.9c-0.3,1.9-2.4,3.3-3.7,3.1
				C512.7,234.1,512,232.3,512.3,230.4z"/>
			<path class="st27" d="M495,225l0.8-4.5l3-1.5c0,0,3.2,0.9,5.3,1.6c2.1,0.7,5.3,2.2,5.3,2.2l0.8,1.3l-0.9,5.1l-1.7,1.5l-11.3-3.4
				L495,225L495,225z M457.8,217.4l2.8-2.6H473l2.8,2.6l0,4.9l-2.8,2.4h-12.4l-2.8-2.4L457.8,217.4L457.8,217.4z M438.5,225
				l-0.8-4.5l-3-1.5c0,0-3.2,0.9-5.3,1.6c-2.1,0.7-5.3,2.2-5.3,2.2l-0.8,1.3l0.9,5.1l1.7,1.5l11.3-3.4L438.5,225L438.5,225z"/>
		</g>
		<g>
			<path class="st28" d="M476.2,111.8c2.1,0,3.6,1.8,3.6,3.9c0,2.1-1.5,4.1-3.6,4.1c-2.7,0-6.6-3.2-6.5-0.7l0.1,1.3l1.4,11.8
				c3.5,0.8-12.3,0.8-8.8,0l1.4-11.9l0.1-1.2c0.1-2.5-3.9,0.7-6.5,0.7c-2.1,0-3.6-2-3.6-4.1c0-2.1,1.5-3.9,3.6-3.9
				c2,0,4.3,1.9,5.7,1c2.3-1.4-0.5-4.6-0.5-6.7c0-2.1,2-3.8,4.1-3.8c2.1,0,4.1,1.7,4.1,3.8c0,2.1-2.8,5.2-0.5,6.7
				C471.8,113.7,474,111.8,476.2,111.8L476.2,111.8z"/>
			<path class="st10" d="M463.7,106.8c-0.2-0.3-0.4-0.6-0.5-0.9c0.4-1.5,1.9-2.8,3.6-2.8c0.7,0,1.4,0.2,2,0.6
				c-0.1,0.4-1.1,0.5-2,1.3C465.5,106,464.8,108,463.7,106.8z M464.3,112.7c0.2,0.2,0.3,0.5,0.3,0.7c0,1.3-2.2,2.3-5,2.3
				c-2.3,0-4.2-0.7-4.8-1.7c0.7-1,1.9-1.7,3.1-1.7c1.9,0,4.5,1.6,5.9,0.8C464.1,113,464.2,112.9,464.3,112.7L464.3,112.7z
				 M468.1,112.9c0-0.6,0.3-1.2,0.8-1.6c-0.1,0.7,0,1.4,0.7,1.8c1.3,0.8,3.9-0.8,5.9-0.8c1.3,0,2.4,0.7,3.1,1.7
				c-0.8,1.2-2.7,2.1-5.1,2.1C470.6,116.1,468.1,114.7,468.1,112.9L468.1,112.9z"/>
			<path class="st26" d="M475.5,112.3c1.9,0,3.7,1.6,3.7,3.5c0,1.9-1.7,3.5-3.7,3.5c-1.9,0-6.7-3.4-6.6-0.8l0.1,1.4l0.8,11.4
				c3.3,0.7-9.4,0.7-6.1,0l0.8-11.5l0.1-1.3c0.1-2.6-4.8,0.8-6.6,0.8c-1.9,0-3.7-1.6-3.7-3.5c0-1.9,1.7-3.5,3.7-3.5
				c1.9,0,4.5,1.6,5.9,0.8c2.1-1.3-0.8-4.4-0.8-6.4c0-1.9,1.8-3.7,3.7-3.7c1.9,0,3.7,1.7,3.7,3.7c0,2-2.9,5-0.8,6.4
				C470.9,113.9,473.6,112.3,475.5,112.3L475.5,112.3z"/>
			<circle class="st29" cx="466.7" cy="135.7" r="9.2"/>
			<path d="M468.4,141.5c0.6-0.8,1.3-1.8,1.6-2.7c0.2-0.7,0.9-0.4,0.8,0.2c-0.3,1-0.9,2-1.5,2.9L468.4,141.5z M458.2,136.1
				c0.2-0.1,0.3-0.3,0.6-0.5c0.2-0.2,0.5-0.4,0.8-0.5c0.4-0.3,0.1-0.9-0.4-0.6c-0.5,0.2-0.9,0.5-1.2,0.7L458.2,136.1z M458.2,137.4
				l0.5,0.9c0.7-0.7,1.8-1.7,2-1.9c0.4-0.4-0.1-0.9-0.5-0.6c-0.4,0.3-1,0.7-1.4,1.1C458.5,137.1,458.3,137.3,458.2,137.4z
				 M458.9,139.5l0.6,0.7c1.4-1.1,2.7-2.4,2.9-2.7c0.4-0.4-0.1-1-0.5-0.6C461.6,137.2,459.7,138.8,458.9,139.5L458.9,139.5
				L458.9,139.5z M471.4,141c0.4-0.5,0.9-1.2,1.1-2c0.1-0.3,0.3-0.4,0.5-0.4c0.2,0,0.3,0.2,0.3,0.5c-0.2,1-0.7,1.8-1.2,2.4
				L471.4,141z M464.4,141.9c1.3-1.5,2.2-2.7,3.1-4.2c0.1-0.2,0.4-0.3,0.5-0.2c0.2,0.1,0.3,0.3,0.1,0.6c-0.5,1.1-1.3,2.2-1.9,3
				c-0.6,0.8-1.1,1.4-1.1,1.4L464.4,141.9z M461.8,140.3c0.9-0.8,1.9-1.8,2.4-2.5c0.3-0.4,1-0.1,0.6,0.5c-0.5,0.8-1.3,1.7-2.1,2.4
				L461.8,140.3z"/>
			<path class="st30" d="M473.8,155.9h-7.1l-7,0c-1.2,2-5,3.4-8.1,1.8c-2.2-1.1-2.6-3.7-2.6-3.7s5.9,0.2,5.9-5c0-5.3,3-8.8,7.4-8.2
				c1.9,0.2,3.2,1.2,4.4,2.3c1.2-1.1,2.5-2,4.4-2.3c4.4-0.5,7.4,2.9,7.4,8.2c0,5.3,5.9,5.1,5.9,5.1s-0.4,2.6-2.6,3.7
				C478.8,159.3,475,157.9,473.8,155.9L473.8,155.9z"/>
			<path class="st7" d="M473.8,155.9h-0.5c-1.3,1.2-3.4,2.4-6.6,3.2c-3.2-0.7-5.3-1.9-6.6-3.2h-0.5c0,0-4.9,3.5-8.4,0.9
				c-1.3-1-1.6-2.3-1.6-2.3s5.9-0.3,5.9-5.6c0-5.3,2.9-7.5,6.7-7.5c1.7,0,3.2,0.8,4.4,1.9c1.2-1.1,2.7-1.9,4.4-1.9
				c3.8,0,6.7,2.2,6.7,7.5c0,5.3,5.9,5.6,5.9,5.6s-0.3,1.3-1.6,2.3C478.7,159.4,473.8,155.9,473.8,155.9L473.8,155.9z"/>
			<path class="st31" d="M456.4,145.9c-0.3,0.7,0.2,3.3,0.2,3.3s0.2,2.4-1.7,4.1c-1.3,1.3-4.3,1.8-4.3,1.8 M477.2,145.9
				c0.3,0.7-0.2,3.3-0.2,3.3s-0.2,2.4,1.7,4.1c1.3,1.3,4.3,1.8,4.3,1.8"/>
			<path class="st10" d="M466.6,158.5c-7.3-1.7-8.3-6.2-8.1-6.2c0.5,0.1,2.2,3.4,8.2,5.1c6-1.7,7.7-5,8.2-5.1
				c0.2-0.1-0.7,4.5-8.1,6.2H466.6L466.6,158.5z M457.6,145.5c0-1.8,2.9-3.3,6.9-3.7c0.8,0.3,1.6,0.9,2.2,1.4
				c0.6-0.6,1.4-1.1,2.2-1.4c4,0.4,6.9,1.9,6.9,3.7c0,4.2-4.8,6.2-9.1,6.2C462.4,151.8,457.6,149.8,457.6,145.5L457.6,145.5z"/>
			<path class="st26" d="M473.8,155.9h-0.5c-1.3,1.2-3.4,2.4-6.6,3.2c-3.2-0.7-5.3-1.9-6.6-3.2h-0.5c0,0-4.9,3.5-8.4,0.9
				c-1.3-1-1.6-2.3-1.6-2.3s5.9-0.3,5.9-5.6c0-5.3,2.9-7.5,6.7-7.5c1.7,0,3.2,0.8,4.4,1.9c1.2-1.1,2.7-1.9,4.4-1.9
				c3.8,0,6.7,2.2,6.7,7.5c0,5.3,5.9,5.6,5.9,5.6s-0.3,1.3-1.6,2.3C478.7,159.4,473.8,155.9,473.8,155.9L473.8,155.9z"/>
			<path class="st4" d="M475.6,152.4c0,0-0.9,5.9-8.8,7.6c-7.9-1.8-8.8-7.6-8.8-7.6s0.9,4.9,8.8,6.7
				C474.7,157.3,475.6,152.4,475.6,152.4z"/>
		</g>
	</g>
	<g id="shield">
		<path class="st32" d="M465.3,265.4c15.8-0.3,83.8-11.7,83.8,82.7c0,90.2-82.3,126.1-82.3,126.1s-82.3-34.7-82.3-132.9
			C384.4,253.7,465.3,265.4,465.3,265.4L465.3,265.4z"/>
		<path class="st33" d="M492,406.4c4.8-2.7,10.4-4.2,16.3-4.2c9.6,0,18.3,4.1,24.4,10.5c-24,43.2-65.9,61.4-65.9,61.4
			s-40.8-17.2-64.9-61.6c6.1-6.4,14.7-10.3,24.2-10.3c6.6,0,12.8,1.9,18,5.2c6.1-6.6,14.8-10.7,24.5-10.7
			C477.6,396.8,485.9,400.5,492,406.4L492,406.4z"/>
		<path class="st34" d="M506.3,402.7c4.1,0.5,11.4,4.4,14.9,9.6c-2.7,4.5-8,11.7-10.8,15.6c-6.4-9.4-19.7-22-18.8-21.1
			c0.1,0.1,0.7-0.3,0.9-0.4c1.3-0.7,2.5-1.4,3.6-1.9c2.4-0.9,4.8-1.6,7.4-1.9C504.4,402.5,505.3,402.6,506.3,402.7L506.3,402.7z
			 M478.1,461.9c-5.2,2.8-9.3,4.5-11.4,5.4c-2-0.9-6.1-2.6-11.4-5.4c-10.2-8.2-31.1-27.4-45.8-55.3c4.8-2.7,10.2-4.2,16.1-4.2
			c0.5,0,2.5,0.6,3.9,1.3c9.3,4.4,20.7,16.8,16.5,19.2c-3.1,1.7-12-1.1-12.4,2.3c-0.2,1.3,16.4,10.4,25.9,18.5
			C467.2,450.3,479.3,460.9,478.1,461.9L478.1,461.9z M498.3,453.7c-10.6-10.4-34.4-31.5-54.3-46.3c5.5-5.9,13.1-9.8,21.7-10.5
			l0.4,0.1c11.5,1.6,21.9,14,17.7,16.3c-3.1,1.7-12-1.1-12.4,2.3c-0.2,1.1,11.9,8.4,18.9,14.5c6.9,6,11.5,10.2,16.6,15.8
			C504,448.8,501.1,451.3,498.3,453.7L498.3,453.7z"/>
		<path d="M492.4,405.9c2.2,2.1,3.2,3.8,3.2,3.8c0.2,0.4,0,1.2-0.7,0.6c0,0-0.9-0.8-3.4-3.3c-3.5-3.4-9.4-7.6-14.4-8.5
			c-0.5-0.1-0.7-0.3-0.6-0.7c0.1-0.3,0.4-0.7,0.8-0.6C477.4,397.3,484.7,398.6,492.4,405.9L492.4,405.9z M451.7,412.4
			c0.2,0.2,0.3,0.5,0.2,0.7c-0.1,0.2-0.4,0.3-0.7,0.1c-4.2-3-6.2-4.2-8.7-5.7c-0.2-0.1-0.3-0.3-0.2-0.5c0.1-0.1,0.3-0.2,0.5-0.3
			c0.4-0.1,1-0.1,1.3,0.1C446.7,408.3,448.3,409.6,451.7,412.4L451.7,412.4z"/>
		<path class="st35" d="M492,406.4c4.8-2.7,10.4-4.8,16.3-4.8c9.7,0,18.4,4.2,24.5,10.9 M401.7,412.3c6.1-6.6,14.7-10.8,24.3-10.8
			c6.6,0,12.8,2.6,18,6c6.1-6.6,14.8-11.4,24.5-11.4c9.2,0,17.5,4.4,23.5,10.4"/>
		<path class="st36" d="M429.2,268.9h78.1 M418.8,273.3h98.1 M411.6,277.6h111.8 M406.2,281.9h122.1 M401.9,286.3h130.3
			 M398.4,290.6h136.9 M395.5,294.9h142.5 M393.1,299.3h147.1 M391.1,303.6H542 M389.4,307.9h154.1 M388.1,312.3h156.7 M387,316.6
			h158.9 M487.3,320.9h59.5 M386.1,320.9H446 M506.7,325.2h40.8 M385.4,325.2h41.4 M514.2,329.6h33.9 M384.9,329.6H419 M521.5,333.9
			h26.9 M384.6,333.9h26.8 M528.8,338.2h20 M384.4,338.2h19.9 M534,342.6H549 M384.4,342.6h15.2 M538.8,346.9H549 M384.5,346.9h9.9"
			/>
		<g id="tower1">
			<path d="M416.1,350.5l0-8.4l9-3.5l9,2.4l0,9.5H416.1z"/>
			<path class="st1" d="M435.4,388.8l4,16.3c-4.1-1.8-8.7-2.8-13.4-2.8l-0.9-67.2l3.6,1v7.1l4.5,1.2v-7l6.1,1.6v11.5l-4,5.9
				L435.4,388.8L435.4,388.8z"/>
			<path class="st37" d="M425.1,387.5v-33.4V347v-11.9l0,0l-3.6,1.6v7l-4.5,1.8v-7l-6.1,2.6v11.1l4.4,5.3l0.1,32l-4.5,16.4
				c4.3-2.2,9.2-3.5,14.3-3.6v-0.1L425.1,387.5L425.1,387.5z"/>
			<path class="st25" d="M425,387.4l-9.6,2 M413.3,399.5l11.7-2.5l12.7,1.4 M424.6,392.3l-10.3,2.1 M434.9,365.6l-9.8-2l-9.9,3
				 M434.9,370.2l-9.8-1.9l-9.9,2.9 M415.2,362.1l9.9-3.2l9.8,2.1 M415.2,375.8l9.9-2.6l9.8,1.7 M415.3,380.3l9.8-2.4l9.8,1.6
				 M415.3,384.9l9.8-2.2l9.9,1.5 M431.4,355.7v4.5 M427.8,359.5v4.6 M431.4,365v4.6 M422.2,364.6v4.6 M422.2,373.9v4.6
				 M417.9,380.1v4.2 M417.9,361.6v4.2 M422.2,355.2v4.6 M425.1,347l14.3,3.5 M425.1,347l-14.3,5.2"/>
			<path class="st35" d="M425.1,402.2v-67.2"/>
			<path d="M432.4,390.5l-4.3-0.6l0-13.7c0-1.7,1-2.7,2-2.7c1.6,0,2.4,1.8,2.4,3.4L432.4,390.5z"/>
			<path class="st26" d="M435.4,388.8l4,16.3c-4.1-1.8-8.7-2.8-13.4-2.8c-5.4,0-10.6,1.3-15.1,3.6l4.5-16.4l-0.1-32l-4.4-5.3V341
				l6.1-2.6v7l4.5-1.8v-7l3.6-1.6l3.6,1v7.1l4.5,1.2v-7l6.1,1.6v11.5l-4,5.9L435.4,388.8L435.4,388.8z M439.1,404.4
				c-4-1.6-8.5-2.6-13.1-2.6c-5.2,0-10.3,1.2-14.8,3.3l4.5-15.6l-0.1-32.1c0,0-0.1-0.2-0.1-0.2l-4.3-5.2v-10.8l5.4-2.3v6.4
				c0,0.3,0.2,0.4,0.5,0.3l4.5-1.8c0.1,0,0.2-0.2,0.2-0.3v-6.7l3.3-1.4l3.2,0.9v6.8c0,0.1,0.1,0.3,0.3,0.3l4.5,1.2
				c0.3,0.1,0.5-0.1,0.5-0.3v-6.5l5.4,1.4v11.1l-3.9,5.8c0,0-0.1,0.2-0.1,0.2v32.4L439.1,404.4L439.1,404.4z M440.5,405
				c0.1,0.4-0.9,0-1.2-0.1c-4.1-1.8-8.6-2.8-13.3-2.8c-5.4,0-10.5,1.3-15,3.6c-0.3,0.2-1.3,0.5-1.2,0.1l5.2-16.4l-0.1-31.8l-4.3-5.2
				c0,0-0.1-0.2-0.1-0.2V341c0-0.1,0.1-0.3,0.2-0.3l6.1-2.6c0.3-0.1,0.5,0,0.5,0.3v6.5l3.8-1.5v-6.7c0-0.1,0.1-0.3,0.2-0.3l3.6-1.6
				c0,0,0.2,0,0.2,0l3.6,1c0.1,0,0.3,0.2,0.3,0.3v6.8l3.8,1v-6.5c0-0.3,0.2-0.4,0.5-0.4l6.1,1.6c0.1,0,0.3,0.2,0.3,0.3v11.5
				c0,0,0,0.2-0.1,0.2l-3.9,5.8v32.3L440.5,405L440.5,405z M425.1,354.1l9.8,2.2 M425.1,354.1l-9.9,3.3"/>
		</g>
		<g id="tower2">
			<path d="M456.8,344.1l0-8.6l9-3.3l9,2.8l0,9.1L456.8,344.1z"/>
			<path class="st1" d="M476.1,382.8l4,16.1c-3.6-1.3-7.5-2.1-11.6-2.1c-0.9,0-1.9,0-2.8,0.1l0.2-68.2l3.6,1.2v7.1l4.5,1.3v-6.9
				l6.2,2v11.4l-4,5.6L476.1,382.8L476.1,382.8z"/>
			<path class="st37" d="M465.8,396.9v-6.2v-9.6v-33.4v-7.1v-11.9h0l-3.6,1.4v7.1l-4.5,1.6v-7l-6.1,2.4v11.2l4.4,5.4l0.1,32.2
				l-4.5,18.3C455.8,398.9,460.6,397.3,465.8,396.9L465.8,396.9L465.8,396.9z"/>
			<path class="st25" d="M465.3,386l-10,1.9 M478,392.4l-12.3-1.5l-12.1,2.3 M458.6,368.6v4.4 M462.9,377v4.6 M462.9,348.7v4.6
				 M458.6,354.9v4.4 M462.9,358.1v4.6 M472.1,358.8v4.6 M468.5,353.3v4.6 M472.1,349.6v4.5 M456,378.4l9.8-2.1l9.9,1.8
				 M455.9,369.3l9.9-2.5l9.8,2.1 M455.9,364.7l9.9-2.7l9.8,2.2 M455.9,360.1l9.9-2.8l9.8,2.4 M455.9,355.5l9.9-3l9.8,2.5
				 M475.7,373.5l-9.8-2l-9.8,2.3 M465.8,381.1l-9.8,2 M480.1,344.8l-14.3-4.2l-14.3,4.9 M475.6,350.4l-9.8-2.6l-9.9,3.1"/>
			<path class="st35" d="M465.8,396.9v-68.1"/>
			<path d="M473,384.3l-4.3-0.7l0-13.7c0-1.7,1-2.6,2-2.6c1.6,0,2.4,1.8,2.4,2.6L473,384.3z"/>
			<path class="st26" d="M479.8,398.3c-3.5-1.2-7.4-1.9-11.3-1.9c-5.9,0-11.7,1.5-16.6,4.2l4.5-17.5l-0.1-32.3c0,0-0.1-0.2-0.1-0.2
				l-4.3-5.3v-10.9l5.4-2.1v6.5c0,0.3,0.2,0.4,0.5,0.3l4.5-1.6c0.1,0,0.2-0.2,0.2-0.3v-6.8l3.3-1.3l3.2,1.1v6.8
				c0,0.1,0.1,0.3,0.3,0.3l4.5,1.3c0.3,0.1,0.5-0.1,0.5-0.3v-6.4l5.4,1.7v11.1l-3.9,5.5c0,0-0.1,0.2-0.1,0.2v32.4L479.8,398.3
				L479.8,398.3z M481.2,398.8c0.1,0.3-0.9,0-1.2-0.1c-3.6-1.3-7.5-2.1-11.5-2.1c-6.1,0-11.8,1.7-16.8,4.6c-0.3,0.2-1.4,0.5-1.3,0.1
				l5.2-18.3l-0.1-32l-4.3-5.3c0,0-0.1-0.2-0.1-0.2v-11.2c0-0.1,0.1-0.3,0.2-0.3l6.1-2.4c0.3-0.1,0.5,0,0.5,0.3v6.5l3.8-1.4v-6.8
				c0-0.1,0.1-0.3,0.2-0.3l3.6-1.4c0,0,0.2,0,0.2,0l3.6,1.2c0.1,0,0.2,0.2,0.2,0.3v6.8l3.8,1.1v-6.4c0-0.3,0.2-0.4,0.5-0.3l6.1,2
				c0.1,0,0.2,0.2,0.2,0.3v11.4c0,0-0.1,0.2-0.1,0.2l-3.9,5.5v32.2L481.2,398.8L481.2,398.8z M476.1,382.8l4,16.1
				c-3.6-1.3-7.5-2.1-11.6-2.1c-6.2,0-12,1.7-16.9,4.6l4.5-18.3l-0.1-32.2l-4.4-5.4v-11.2l6.1-2.4v7l4.5-1.6v-7.1l3.6-1.4l3.6,1.2
				v7.1l4.5,1.3v-6.9l6.2,2v11.4l-4,5.6L476.1,382.8L476.1,382.8z"/>
		</g>
		<g id="tower3">
			<path d="M497.5,350.6l0-9.5l9-2.5l9,3l0,9.1H497.5z"/>
			<path class="st1" d="M516.8,389.1l4,15.5c-3.9-1.6-8.1-2.4-12.5-2.4c-0.6,0-1.3,0-1.9,0.1l0.1-67.2l3.6,1.2v7.1l4.5,1.5V338
				l6.1,2.1v11.3l-4,5.6V389.1L516.8,389.1z"/>
			<path class="st37" d="M506.5,387.5v-33.4V347v-11.9l-3.6,1.1v7.1l-4.5,1.3v-7l-6.1,2V351l4.4,5.7l0.1,32.1l-4.5,17.5
				c4.3-2.3,9.1-3.8,14.3-4v-0.1L506.5,387.5L506.5,387.5z"/>
			<path class="st25" d="M494.2,399l12.3-1.9l12.5,1.6 M506,392.3l-10.3,1.6 M503.6,354.8v4.6 M499.3,360.9v4.4 M499.3,379.4v4.4
				 M503.6,373.7v4.6 M503.6,364.3v4.6 M512.8,365.3v4.6 M509.2,359.6v4.6 M512.8,356v4.5 M496.7,384.3l9.8-1.7l9.9,1.8
				 M496.6,370.5l9.9-2.1l9.8,2.3 M516.2,375.3l-9.8-2.2l-9.9,2 M516.2,366.1l-9.8-2.5l-9.9,2.3 M516.2,361.5l-9.8-2.6l-9.9,2.4
				 M516.3,356.9l-9.8-2.8l-9.9,2.5 M492.2,351l14.3-4l14.3,4.4 M506.5,387.4l-9.8,1.6 M496.7,379.8l9.8-1.9l9.8,2.1"/>
			<path class="st35" d="M506.5,402.3v-67.2"/>
			<path d="M513.7,390.7l-4.3-0.7l0-13.7c0-1.7,1-2.6,2-2.6c1.6,0,2.4,1.8,2.4,2.6L513.7,390.7z"/>
			<path class="st26" d="M520.4,404.1c-3.7-1.4-8-2.2-12.2-2.2c-5.6,0-11,1.4-15.7,3.7l4.5-16.7l-0.1-32.2c0,0-0.1-0.2-0.1-0.2
				l-4.3-5.6v-11l5.4-1.7v6.5c0,0.3,0.2,0.4,0.5,0.3l4.5-1.3c0.1,0,0.3-0.2,0.3-0.3v-6.8l3.3-1l3.3,1.1v6.8c0,0.1,0.1,0.3,0.2,0.3
				l4.5,1.5c0.3,0.1,0.5-0.1,0.5-0.3v-6.4l5.4,1.8v10.9l-3.9,5.5c0,0-0.1,0.2-0.1,0.2v32.2L520.4,404.1L520.4,404.1z M516.8,389.1
				l4,15.5c-3.9-1.6-8.1-2.4-12.5-2.4c-5.8,0-11.3,1.5-16,4.1l4.5-17.5l-0.1-32.1l-4.4-5.7v-11.4l6.1-2v7l4.5-1.3v-7.1l3.6-1.1
				l3.6,1.2v7.1l4.5,1.5V338l6.1,2.1v11.3l-4,5.6V389.1L516.8,389.1z M521.8,404.6c0.1,0.4-0.9,0-1.2-0.1c-3.8-1.5-8-2.4-12.4-2.4
				c-5.8,0-11.2,1.5-15.9,4c-0.3,0.2-1.2-0.2-1.1-0.6l5.1-16.8l-0.1-32l-4.3-5.6c0,0-0.1-0.2-0.1-0.2v-11.4c0-0.1,0.1-0.3,0.3-0.3
				l6.1-2c0.3-0.1,0.5,0.1,0.5,0.3v6.5l3.8-1.1v-6.8c0-0.1,0.1-0.3,0.3-0.3l3.6-1.1c0,0,0.2,0,0.2,0l3.6,1.2c0.1,0,0.2,0.2,0.2,0.3
				v6.8l3.8,1.3V338c0-0.3,0.2-0.4,0.5-0.3l6.2,2.1c0.1,0,0.2,0.2,0.2,0.3v11.3c0,0-0.1,0.2-0.1,0.2l-3.9,5.5v32L521.8,404.6
				L521.8,404.6z"/>
		</g>
		<g id="feather">
			<path class="st4" d="M431,313.5c-0.3-3-1.5-7.9-5.5-7.2c0.2,5.2,6.8,24.8-0.7,26.2l-0.3-0.3c0.1-8.9-8.8-18.6-7.1-26.4
				c1.1-5.1,5-7.9,10.2-7.9c9.4,0,10.7,11.7,3.8,15.8L431,313.5L431,313.5z"/>
			<path class="st38" d="M431.5,312.1c-0.8-3.3-2.6-7.7-6.8-7l-0.3,0.4c0.2,5.6,7.2,22.7,0.5,25.7c-0.2-9.8-9-16.1-6.7-25.2
				c0.6-2.5,3.2-5.7,5.6-6.6c1.2-0.4,2.5-0.8,3.7-0.8C436,298.7,438.2,307.5,431.5,312.1L431.5,312.1z"/>
			<path d="M419.5,308.8c0.7-2,3.1-4,5.2-4.2c0.4-0.1,0.8,0.3,1,0.8l-0.2,0c-0.2,0-0.5,0-0.7,0.1c0,0.4,0,0.7,0.1,1.1
				c-1,0.1-2.7,0.5-4.5,2.6C419.6,310.2,419.1,309.8,419.5,308.8L419.5,308.8z"/>
			<path class="st39" d="M420,309.4l5-2 M420.4,311.2l4.9-2.1 M420.8,313.1l4.9-2.3 M421.7,314.9l4.4-2.3 M423.2,316.6l3.4-2
				 M425.7,317.8l1.5-0.8"/>
			<path d="M430.7,302.9c-2.6-3.8-9.1-1.7-10.8,0.8c-0.1,0.2-0.6-0.1-0.8-0.2c0,0-0.1,0-0.1,0c0.5-0.8,1-1.5,1.7-2.2
				c3.2-2,8.7-2.4,10.9,1.1c0.2,0.3,0,0.6-0.2,0.7C431.1,303.1,430.8,303.1,430.7,302.9L430.7,302.9z"/>
		</g>
		<g>
			<g>
				<path class="st4" d="M472.2,307.2c-0.3-3-1.5-7.9-5.5-7.2c0.2,5.2,6.8,24.8-0.7,26.2l-0.3-0.3c0.1-8.9-8.8-18.6-7.1-26.4
					c1.1-5.1,5-7.9,10.2-7.9c9.4,0,10.7,11.7,3.8,15.8L472.2,307.2L472.2,307.2z"/>
				<path class="st38" d="M472.7,305.8c-0.8-3.3-2.6-7.7-6.8-7l-0.3,0.4c0.2,5.6,7.2,22.7,0.5,25.7c-0.2-9.8-9-16.1-6.7-25.2
					c0.6-2.5,3.2-5.7,5.6-6.6c1.2-0.4,2.5-0.8,3.7-0.8C477.2,292.4,479.4,301.2,472.7,305.8L472.7,305.8z"/>
				<path d="M460.7,302.5c0.7-2,3.1-4,5.2-4.2c0.4-0.1,0.8,0.3,1,0.8l-0.2,0c-0.2,0-0.5,0-0.7,0.1c0,0.4,0,0.7,0.1,1.1
					c-1,0.1-2.7,0.5-4.5,2.6C460.8,303.9,460.4,303.5,460.7,302.5L460.7,302.5z"/>
				<path class="st39" d="M461.2,303.1l5-2 M461.6,304.9l4.9-2.1 M462,306.8l4.9-2.3 M462.9,308.6l4.4-2.3 M464.4,310.3l3.4-2
					 M466.9,311.5l1.5-0.8"/>
				<path d="M471.9,296.5c-2.6-3.8-9.1-1.7-10.8,0.8c-0.1,0.2-0.6-0.1-0.8-0.2c0,0-0.1,0-0.1,0c0.5-0.8,1-1.5,1.7-2.2
					c3.2-2,8.7-2.4,10.9,1.1c0.2,0.3,0,0.6-0.2,0.7C472.4,296.8,472.1,296.8,471.9,296.5L471.9,296.5z"/>
			</g>
		</g>
		<g>
			<g>
				<path class="st4" d="M513.4,313.5c-0.3-3-1.5-7.9-5.5-7.2c0.2,5.2,6.8,24.8-0.7,26.2l-0.3-0.3c0.1-8.9-8.8-18.6-7.1-26.4
					c1.1-5.1,5-7.9,10.2-7.9c9.4,0,10.7,11.7,3.8,15.8L513.4,313.5L513.4,313.5z"/>
				<path class="st38" d="M513.9,312.1c-0.8-3.3-2.6-7.7-6.8-7l-0.3,0.4c0.2,5.6,7.2,22.7,0.5,25.7c-0.2-9.8-9-16.1-6.7-25.2
					c0.6-2.5,3.2-5.7,5.6-6.6c1.2-0.4,2.5-0.8,3.7-0.8C518.5,298.7,520.7,307.5,513.9,312.1L513.9,312.1z"/>
				<path d="M502,308.8c0.7-2,3.1-4,5.2-4.2c0.4-0.1,0.8,0.3,1,0.8l-0.2,0c-0.2,0-0.5,0-0.7,0.1c0,0.4,0,0.7,0.1,1.1
					c-1,0.1-2.7,0.5-4.5,2.6C502,310.2,501.6,309.8,502,308.8L502,308.8z"/>
				<path class="st39" d="M502.4,309.4l5-2 M502.8,311.2l4.9-2.1 M503.2,313.1l4.9-2.3 M504.2,314.9l4.4-2.3 M505.6,316.6l3.4-2
					 M508.1,317.8l1.5-0.8"/>
				<path d="M513.1,302.9c-2.6-3.8-9.1-1.7-10.8,0.8c-0.1,0.2-0.6-0.1-0.8-0.2c0,0-0.1,0-0.1,0c0.5-0.8,1-1.5,1.7-2.2
					c3.2-2,8.7-2.4,10.9,1.1c0.2,0.3,0,0.6-0.2,0.7C513.6,303.1,513.3,303.1,513.1,302.9L513.1,302.9z"/>
			</g>
		</g>
		<g>
			<path class="st4" d="M520.6,280.6c3.8,2.5,17.3,10.1,19.3,53.2c3.9,84.1-67.7,133.2-67.7,133.2s90.6-38.6,90.6-133.3l0,0
				c0-39.9-15.8-83.1-47.2-83.1l-17.3,0.1l-25.1,11.7c-1.3-1.8-3.8-3-6.2-3c-2.4,0-4.9,1.2-6.2,3l-25.1-11.7l-17.8-0.1
				c-31.4,0-47.2,43.2-47.2,83.1l0,0c0,94.7,90.6,133.3,90.6,133.3s-71.6-49.1-67.7-133.2c2-43.2,15.5-50.7,19.3-53.2l21.2,7.1
				l26.7-15.6c1.7,1.9,3.5,3.2,6.3,3.2c2.8,0,4.3-1.1,6.3-3.2l26.6,15.8L520.6,280.6z"/>
			<path class="st30" d="M503.4,249.8L467,265.6l-36.4-15.8l-12.7,0.9c-31.4,0-47.2,43.2-47.2,83.1v0c0,94.7,90.6,133.3,90.6,133.3
				s-72.5-49.1-68.6-133.2c2-43.2,15.8-51.8,19.6-54.3l23.3,6.5l31.4-18.6l31.4,18.6l22.8-6.5c3.8,2.5,17.6,11.2,19.6,54.3
				c3.9,84.1-68.6,133.2-68.6,133.2s90.6-38.6,90.6-133.3l0,0c0-39.9-15.8-83.1-47.2-83.1L503.4,249.8z"/>
			<path d="M510.2,267.1c-4.3,0.5-7.4,3.4-7.5,7.9c-0.1,2.4,1.1,5.9,2.7,7.4l-1,1.1c-1.9-1.8-3.3-5.7-3.2-8.5c0.2-5,3.7-8.4,8.9-9.1
				L510.2,267.1z M423.3,265.8c5.2,0.6,8.7,4.1,8.9,9.1c0.1,2.8-1.3,6.8-3.2,8.5l-1-1.1c1.6-1.5,2.8-5,2.7-7.4
				c-0.2-4.4-3.2-7.3-7.5-7.9L423.3,265.8z M413.1,274.5c-6.3,4.1-12,11.8-15.2,19.7c-0.2,0.4-0.4,0.5-0.7,0.4
				c-0.2-0.1-0.4-0.4-0.2-0.8c3-8.4,8.7-15.9,15.8-21.2L413.1,274.5L413.1,274.5z M421.5,259.5c-15.4,0-26.9,10.9-34.6,30.9
				c-0.2,0.4-0.5,0.7-0.9,0.5c-0.3-0.1-0.3-0.5-0.2-0.9c7.7-20.4,19.5-31.7,35.7-31.7c7,0,13.1,1.7,18.3,5.5l0.3,1.9
				C434.9,261.4,428.7,259.5,421.5,259.5L421.5,259.5z M421.5,263.7c-13.5,0-23.9,11.3-30.5,28c-0.2,0.4-0.5,0.6-0.8,0.5
				c-0.3-0.1-0.3-0.5-0.2-0.9c6.3-16.9,17.3-28.8,31.5-28.8c7.2,0,13.3,2.3,18.4,7.2l-0.2,1.6C434.7,266,428.6,263.7,421.5,263.7
				L421.5,263.7z M436.9,278.3c-2.7-8-7.1-11.1-15.6-11.1c-11.3,0-20.5,10.2-26.7,25.7c-0.2,0.4-0.4,0.6-0.7,0.4
				c-0.3-0.1-0.3-0.5-0.2-0.9c6-15.7,15.5-26.9,27.6-26.9c9,0,13.8,3.7,16.4,11.5L436.9,278.3L436.9,278.3z M496.5,278.5l-0.8-1.1
				c2.6-7.9,7.3-11.7,16.3-11.7c14.5,0.1,25.6,16.4,31.4,37.7c0.1,0.4,0,0.9-0.3,0.9c-0.4,0.1-0.7-0.2-0.8-0.6
				c-5.8-21-16.8-36.4-30.2-36.4C503.5,267.3,499.2,270.4,496.5,278.5L496.5,278.5z M547.1,303.8c0.1,0.5,0.1,0.9-0.3,1
				c-0.3,0.1-0.7-0.2-0.8-0.7c-5.6-23.8-17.5-40.1-34-40.1c-7.1,0-13.2,1.8-18.2,7l-0.2-1.7c5.2-5,11.3-6.6,18.5-6.6
				C529.6,262.7,541.9,280.1,547.1,303.8L547.1,303.8z M551.6,304.5c0.1,0.5-0.1,0.9-0.5,0.9c-0.4,0.1-0.7-0.3-0.8-0.7
				c-5.5-26-18.4-45.2-38.7-45.2c-7.1,0-13.2,2.4-18.3,6.7l0.2-1.9c5.2-4,11.2-6.2,18.2-6.2C533,258.2,546.3,278.4,551.6,304.5
				L551.6,304.5z M514.6,271.5c11.1,1.4,21.1,14.4,25.3,31.5c0.1,0.4,0,0.9-0.4,1c-0.4,0.1-0.7-0.1-0.8-0.7
				c-4.8-18.5-14.3-28.8-24.2-30L514.6,271.5L514.6,271.5z"/>
			<path class="st26" d="M489.2,280.6c-0.9-1-3.4-4.7-3.4-12 M485.5,278.4c-0.8-1.1-2.7-4.2-2.7-9.8 M481.8,276.2
				c-0.7-1-2.1-3.6-2.1-7.6 M478.1,274c-0.5-0.9-1.3-2.9-1.3-5.4 M444.7,280.6c0.9-1,3.4-4.7,3.4-12 M448.5,278.4
				c0.8-1.1,2.7-4.2,2.7-9.8 M452.2,276.2c0.7-1,2-3.6,2-7.6 M455.9,274c0.5-0.9,1.3-2.9,1.3-5.4"/>
			<circle class="st7" cx="467" cy="267.4" r="7.2"/>
			<path class="st26" d="M459.8,265.7c0.8-3.3,3.7-5.7,7.2-5.7c3.1,0,5.7,1.9,6.8,4.5 M474.2,269.3c-0.8,3.2-3.8,5.6-7.2,5.6
				c-3.2,0-5.8-2-6.9-4.8 M468.9,272c-0.6,0.2-1.2,0.4-1.9,0.4c-2.7,0-4.8-2.1-4.9-4.8 M471.2,270c-0.5,0.9-1.4,1.6-2.3,2
				 M467.5,269.8c-0.2,0-0.3,0.1-0.5,0.1c-1.2,0-2.3-0.9-2.4-2.2 M462.1,266.2c0.1-0.6,0.4-1,0.5-1.2"/>
			<path class="st26" d="M459.8,265.7c0-3.4,3-6.3,7.2-6.3c3.2,0,6.8,2.2,6.8,5.1 M474.2,269.3c0,3.1-3.8,5.9-7.2,5.9
				c-3.2,0-6.9-2.3-6.9-5.1"/>
			<path class="st4" d="M493.9,282.6c3.8,5.1,9.7,8.2,16.3,8.2c8.6,0,15.2-5.4,15.2-13.9c-0.2-4.5-3.3-10.2-10.5-10.2
				c-4.7,0-8.7,4.5-8.7,9.3c0,2.6,0.5,4.2,2.1,6.1c-6.5-2.1-10.7-5.5-10.7-12.8c0-7.5,5-12.9,13.1-13.6c27.3-2.3,44,28,47.2,69.9
				c4.6,59.7-27.6,107.3-76.6,134.5c-6.8,3.8-12.2,6.8-14.5,7.8l0,7.4c18.6-7.1,40.2-20.9,53.7-33.2c25.7-23.4,50.1-63.1,46.4-116.5
				c-2.3-33.7-12.8-56.3-25.7-67.5c-22-19.1-52.1-11.5-52.1,11.2C489,274.3,491,278.9,493.9,282.6L493.9,282.6z M439.5,282.6
				c-3.8,5.1-9.7,8.2-16.3,8.2c-8.6,0-15.2-5.4-15.2-13.9c0.2-4.5,3.3-10.2,10.5-10.2c4.7,0,8.7,4.5,8.7,9.3c0,2.6-0.5,4.2-2.1,6.1
				c6.5-2.1,10.7-5.5,10.7-12.8c0-7.5-5-12.9-13.1-13.6c-27.3-2.3-44,28-47.2,69.9c-4.6,59.7,27.6,107.3,76.6,134.5
				c6.8,3.8,12.2,6.8,14.5,7.8l0,7.4c-18.6-7.1-40.2-20.9-53.7-33.2c-25.7-23.4-50.1-63.1-46.4-116.5c2.3-33.7,12.8-56.3,25.7-67.5
				c22-19.1,52.1-11.5,52.1,11.2C444.4,274.3,442.5,278.9,439.5,282.6L439.5,282.6z"/>
			<path class="st5" d="M466.7,474.8c-18.6-7.1-40.2-21.8-53.7-34.1c-25.7-23.4-48.5-62.2-44.8-115.6c2.3-33.7,12.3-55.1,25.2-66.2
				c22-19.1,50.5-10.4,50.5,10.5c0,11.5-9.3,20.8-20.8,20.8c-7,0-14.3-5.6-13.6-14.1c0.2-4.5,3.9-8.2,8.5-8.2c4.7,0,8.5,3.8,8.5,8.5
				c0,2.6-1.7,5.1-3.5,6.7c7.3-0.3,13.6-6.4,13.6-13.8c0-7.5-5.7-13.8-13.9-14.5c-27.3-2.3-44.9,28.7-47.9,70.8
				c-4.2,59.7,28.3,108,77.3,135.2c6.9,3.8,12.2,6.1,14.5,7.1c2.3-1,7.7-3.3,14.5-7.1c49-27.2,81.5-75.5,77.3-135.2
				c-3-42-20.6-73-47.9-70.8c-8.2,0.7-13.9,7-13.9,14.5c0,7.3,6.4,13.5,13.6,13.8c-1.8-1.6-3.5-4.1-3.5-6.7c0-4.7,3.8-8.5,8.5-8.5
				c4.6,0,8.3,3.6,8.5,8.2c0.7,8.5-6.6,14.1-13.6,14.1c-11.5,0-20.8-9.3-20.8-20.8c0-20.9,28.4-29.6,50.5-10.5
				c12.9,11.2,22.9,32.5,25.2,66.2c3.7,53.4-19.1,92.2-44.8,115.6C507,453,485.4,467.7,466.7,474.8L466.7,474.8z"/>
		</g>
	</g>
	<g id="laurel">
		<path class="st4" d="M352.9,417.4c0,0-3.8-1.5-5.5-2.4c-2.9-1.5-9.6-9.6-17-13.9c-11.4-6.6-22.4-4.9-32.5-9.2
			c2.3,10.5,9.4,20.1,21.1,25.1c9.7,4.1,25.2,0.6,26.9,0.7c1.7,0.1,7.1,2.2,7.1,2.2L352.9,417.4L352.9,417.4z"/>
		<path class="st4" d="M311.8,430.6l0.1-0.3c6.2-0.8,12.1-2.3,18.1-3.8c13.4-3.4,19.7-0.6,30.6,6.8c0.7,0.5,1.5,1.1,2.3,1.4
			c1.8,0.7,2.9,0.2,4.6,0.2l0.2,0l2.5,2c0.2,0.2,0.1,0.3-0.1,0.3c-2.2,0.5-5.3,0.5-7.6,0.2c-3.5-0.3-10.7,8-21,8
			C328.4,445.4,319.9,439.7,311.8,430.6L311.8,430.6z"/>
		<path class="st40" d="M369,436.7c-2,0.1-4.2,0.1-6.2,0.4c-6,1-11.9,7.5-21,7.8c-12.1,0.3-19.8-5.4-28-13.5
			c12-1.8,21.4-8.8,33.8-4.9c6.4,2,13.9,10,19.8,8.9L369,436.7L369,436.7z"/>
		<path class="st41" d="M361.5,435.1c0,0-10.6,1.7-17.2,1.8c-10.7,0-27.1-4.4-27.1-4.4s16.3,4.9,27.1,5.2c6.6,0.1,17.2-1.4,17.2-1.4
			V435.1L361.5,435.1z"/>
		<path class="st23" d="M332,306.5c0.1-0.3,0-0.7-0.2-1.2c-0.2-0.5-0.5-1.1-0.9-1.7c-0.4-0.6-0.7-1.3-1.1-1.9
			c-0.3-0.7-0.5-1.4-0.6-2.2l1.7-0.5c0.1,0.9,0.7,2.1,1.3,3.1c0.3,0.5,0.6,0.8,0.9,1.1c0.1,0.1,0.2,0.2,0.3,0.2c0,0,0.5,0.5,0.5,0.5
			l-1.4,3.1C332.4,307.1,331.8,306.9,332,306.5L332,306.5z"/>
		<path class="st42" d="M394.4,453.8c-0.1-2.2,0.4-1.4,2.8-0.4c0.5,0.2,0.1,0.7-0.3,1c-1.4,0.9-2.7,2.8-3.3,2.4
			C391.9,455.5,393,455.5,394.4,453.8L394.4,453.8z"/>
		<path class="st4" d="M337.4,297.4c-7,17.9-9.4,49.5-7,63.9c7.5,44.2,43.9,85.6,77.2,92.3c29,5.8,46.6,18.8,58.2,32.6
			c7.5,9,11.6,13.2,22.4,31.2c4,6.6-2.8,7.9-5.6,2.5c-7.6-14.9-11.7-21.5-22.2-33.2c-11.3-12.6-27.8-23.9-54.9-29.3
			c-32.3-6.4-70.1-47.9-77.5-92.1c-2.4-14.4-0.3-48.7,7.1-66.8L337.4,297.4"/>
		<path class="st4" d="M385.3,451.9c-5,0.6-8.4,7.8-13.4,12.4c-9.3,8.4-24.1,9.3-33.6,3.6c-0.4-0.2-0.6-0.8-0.1-0.9
			c11.8-2.7,13.3-18.7,37.9-17.2c2.9,0.2,4.1,0.8,7,0.8L385.3,451.9L385.3,451.9z"/>
		<path class="st4" d="M366.7,377.1l0.2,0.1c0.1,7.2,5.6,17,6.9,24.9c1.2,6.8-0.5,12.5-3.1,18.8c-0.7,1.6-2.2,4.8-2.2,6.3
			c-0.1,1.4,0.9,2.8,1.6,4c0.3,0.4,1.9,2.6,1.7,3c-6.5-5.6-2.7-2-5.4-7.2c-1.4-2.7-3.1-5.1-4.4-7.8
			C354.6,405,354.5,388.8,366.7,377.1L366.7,377.1z"/>
		<path class="st4" d="M413.6,455c-3.2-1-6.4-2.3-8.2-5.6c-2.9-5.5-2.3-9.9-5.3-15.6c-5.7-10.8-16.8-11.9-22.3-21.9
			c-1.1,9.2-2.4,22.9,11.9,32.8c5,3.5,12.7,4.3,14.6,5.6c1.9,1.4,3,3.4,3,3.4L413.6,455L413.6,455z"/>
		<path class="st40" d="M407.5,453.3c-1.1-1.1-2.2-2.2-3.5-3.1c-2.9-2.1-9.2-2.3-14-5.8c-6.7-4.9-10.1-9.4-12-17.5
			c-1.1-4.9-0.3-8.8,0-12.9c6,8.7,16.4,9.5,22,20c3.4,6.3,2.9,16,9.9,19.8L407.5,453.3L407.5,453.3z"/>
		<path class="st42" d="M350.4,405.3c0,0-0.4,0.5-1,2.1c-0.2,0.7,1.3,2.9,1.2,2.1c-0.3-1.8,0.6-3.1,0.6-3.1L350.4,405.3L350.4,405.3
			z"/>
		<path class="st40" d="M352.9,417.4c0,0-3.8-0.8-5.5-1.7c-2.9-1.5-9.5-10-17-14.3c-10.8-6.1-20.2-4.9-30.8-8
			c3,11.3,8.8,18.1,19.5,22.9c9.6,4.3,25.2,0.6,26.9,0.7c1.7,0.1,7.1,2.4,7.1,2.4L352.9,417.4L352.9,417.4z"/>
		<path class="st43" d="M368.1,430.4c-0.5-3.4-4.3-8.2-5.9-11.4c-2.4-4.6-4.1-9.6-4.6-14.8c-1.1-11.1,1.4-17.1,8.7-25.4
			c0.1,2.4,0.4,3.3,1.1,5.5c3.1,9.4,7.4,17.2,6,27.5c-0.7,5.1-4.8,12.2-5,15.3c-0.1,1.6,0.8,3.5,1.6,4.8L368.1,430.4L368.1,430.4z"
			/>
		<path class="st4" d="M340.6,400.3c-7.9-13.1-26.3-7.2-38.4-18.2c-5.9-5.3-8.5-13.3-9.7-21c-0.3-2.3-1.3-11.3-0.8-13
			c0.1-0.3,0.4-0.4,0.7-0.2c4,3.9,8,6.4,12.7,9.6c11,7.5,15.5,14.4,21.2,26.1C333.7,398.9,340.5,390.2,340.6,400.3L340.6,400.3z"/>
		<path class="st41" d="M365.1,382.8c0,0-2.5,13.1-2.1,21.5c0.4,8.6,4.2,21.6,4.2,21.6h-0.7c0,0-3.9-13-4.2-21.6
			C362,395.8,365.1,382.8,365.1,382.8L365.1,382.8z"/>
		<path class="st40" d="M329,392c-4.2-1.3-9.1-2.2-14.2-3.4c-4.8-1.2-8.8-3.8-12.5-7.1c-5.7-5.2-7.6-12.1-8.7-19.5
			c-0.6-4.2-0.8-8.2-0.5-12.4c0.5,0.8,1,1.6,1.8,2.2c3.8,2.7,7.7,4.6,11.4,7.3c3.3,2.4,5.6,3.9,8.3,7c3.4,3.8,6.2,8,8.6,12.5
			c1.9,3.6,3.5,7.8,5.9,11L329,392z"/>
		<path class="st44" d="M329.1,389.6c1.3,1.7,6.4,3.9,8.2,4.1l1.8,4.5v0c-2.7-3.1-6.1-4.9-10.2-6.2L329.1,389.6z"/>
		<circle class="st30" cx="317.3" cy="355.6" r="5.2"/>
		<path class="st10" d="M317.9,351c-0.3,0.6-0.4,1.3-0.4,2.1c0,2.3,1.3,4.1,3,4.1c0.5,0,0.9-0.1,1.3-0.4c0.1-0.4,0.2-0.8,0.2-1.2
			C321.9,353.2,320.1,351.3,317.9,351z"/>
		<circle class="st35" cx="317.3" cy="355.6" r="5.5"/>
		<path class="st4" d="M332.5,353.3c0,0,2.4-9,4.7-14.5c5.4-13.1,14.6-13.6,19.4-24c2.7,7,4.9,16,0.1,26.1
			c-5.5,11.7-19.4,18.5-19.4,18.5L332.5,353.3L332.5,353.3z"/>
		<path class="st43" d="M356.5,317.2c7,19.1-2.2,32.8-19.2,42.2l-4.5-6.2c2.9-12.2,5-18.3,14.3-27
			C350.9,322.8,354.2,321.7,356.5,317.2L356.5,317.2z"/>
		<path class="st44" d="M336.8,298.3c-7,18.3-9,48.9-6.6,63.1c7.5,44.3,43.8,85.9,77.3,92.6c28.9,5.8,46.1,18.8,58,32.3
			c5.6,6.3,10,12.4,13.7,18.2c3.2,5,5.9,10.4,8.6,14.7c0.4,0.7-3.2,2.2-3.6,1.6c-2.8-4.6-5.4-10.3-8.7-15.6
			c-3.7-6-10.1-12.1-15.6-18.6c-11.8-13.9-27.4-24.3-54.6-29.7c-32.1-6.4-69.4-47.4-76.9-91.5c-2.4-14.3-0.6-47.5,5.7-65.1
			L336.8,298.3L336.8,298.3z"/>
		<path class="st4" d="M333.3,384.9c-1.4-1.4-3.5-2.7-4.9-4.1c-12.9-13.4-9.5-36.7,4.6-48.1c0.5-0.4,0.8-0.2,0.9,0.4
			c0.6,4.7,1.3,9.1,3.2,14.3c4.3,11.8,5,18.6,1.1,28.7c-2.4,6.1,0,11.5,0,11.5L333.3,384.9L333.3,384.9z"/>
		<path class="st45" d="M378.7,442.4c-8.2-2.8-16.7-2.1-23.6-9.2c-7.9-8.2-9.6-20.9-7.5-28.2c0.1-0.4,0.4-0.6,0.6-0.4
			c1.8,2.1,2.7,3.7,5,5.4c8.2,6.1,18.4,9.1,21.9,18.4c0.7,1.8,0.9,3.8,1.6,5.6c2.2,6.4,5.9,8.3,11.2,11.8L378.7,442.4z"/>
		<path class="st40" d="M385.1,445.8c-7.7-6.5-21.6-4.2-29.8-13c-6.1-6.5-8.6-16.8-7.1-25.7c7.3,6.5,15.9,8.3,22.5,15.7
			c7.9,8.6,1.2,14.4,15.9,22.8L385.1,445.8L385.1,445.8z"/>
		<path class="st4" d="M344,398.9l0-0.2c1.9-2.3,0.6-9.1,0-11.9c-1.1-4.7-1.2-8.8-0.4-13.6c0.9-5.6,4-10.6,7.1-15.2
			c1.4-2.1,5.9-8.5,6.4-10.8c0-0.2,0.2-0.2,0.3,0c1.7,3.8,2.6,8.3,3.3,12.4c1,5.7,1.3,10.9-0.7,17.3c-1.8,5.8-4.1,9.5-7.8,13.4
			c-1.5,1.6-5.2,5.3-5.7,7.2c-0.1,0.4-0.7,3-0.6,4.9L344,398.9L344,398.9z"/>
		<path class="st46" d="M331.3,324c0,0,0.2,0,1.3-0.7c1-0.7,2.3-1.9,2.8-3.4c0.5-1.5,4.2-13.8,9.2-21.5c5.8-8.9,11.8-12.9,19.1-19.5
			c1.1,7.1,1.3,18.6-4.7,27.9c-5.5,8.5-19.4,14.5-21,15.1c-1.6,0.6-4.4,1.1-6,3.2c-0.9,1.2-1.5,3.5-1.5,3.5L331.3,324L331.3,324z"/>
		<path class="st4" d="M329.5,325.2c0,0-0.6,0-1.4-1.1c-0.8-1.1-1.6-2.8-1.6-4.5c0-3.7,3.5-14.7,1.8-23.1c-3.3-16-8.3-22.4-9.1-28.3
			c-0.3-2.4-13.4,16.1-9.4,33.3c2,8.5,11.9,18,13.2,19.3c1.4,1.2,3.3,2.9,4.2,5.4c0.9,2.6,0.7,5.5,0.7,5.5L329.5,325.2L329.5,325.2z
			"/>
		<path class="st4" d="M337.2,297.7c0.9-2.3,2.5-5,3.9-6.2c3.5-2.9,13.4-10.3,16.8-15.6c7.5-11.9,6-26.6,5.2-29.1
			c-6.5,5.7-12.5,9.4-19.1,18.8c-5.8,8.2-7.1,24.2-7.5,27.2c-0.5,3.3-2,6.9-2,6.9L337.2,297.7L337.2,297.7z"/>
		<path class="st47" d="M331.3,326.6l0.3-2.3c1.8-0.7,3.4-2.5,4.1-4.2c3.1-7.4,5-15,9.4-21.9c5.7-8.9,11.8-12.4,17.9-17.3
			c0.3,7.9,1.7,16.2-4.6,26.5c-3.6,5.9-14,11.7-20.5,14.2C335,322.9,332.9,323.8,331.3,326.6L331.3,326.6z"/>
		<path class="st4" d="M304.6,310.9c9.9,8.3,12.8,12.1,15.7,24.9c0.3,1.5,2.2,8,2.6,8.8c1,1.9,2.9,2.8,4.2,4.4
			c0.1,0.2,0.5,3.5,0.5,4c0,0.3-0.2,0.3-0.3,0.1c-1.5-1.4-2.4-3.6-4.2-4.9c-1.6-1.1-6.8-2.3-9-3.2c-5.8-2.4-10.5-6.8-13.8-12.1
			c-4.4-6.9-4.9-16.3-3.8-24.2c0.2-1.8,0.5-4,1.1-5.7c0.1-0.2,0.2-0.2,0.4,0C300.3,306.7,301.8,308.5,304.6,310.9L304.6,310.9z"/>
		<path class="st40" d="M326.7,349.3l0.3,2.3c-4.7-6.4-6.3-4.5-12.8-7.2c-5.7-2.3-10.3-6.7-13.6-11.9c-4.9-7.7-4.8-19-2.8-27.6
			c2.6,5.2,13,10.4,17,16.9c2.6,4.2,4.1,9.2,5.4,13.9c0.6,2.4,1.3,7.1,2.3,9.1C323.2,346.3,325.4,348.2,326.7,349.3L326.7,349.3z"/>
		<path class="st40" d="M344.6,399.1c1.8-2.7,0.2-9.5-0.3-12.6c-0.9-4.8-0.9-8.9-0.2-13.7c1.3-7.9,6.2-13.1,10.6-19.5
			c0.9-1.3,1.7-2.5,2.4-3.9c5.1,14.2,6.5,28.8-4.5,40.7c-1.7,1.8-5.7,5.3-6.3,7.5c-0.3,1.2-0.4,2.4-0.5,3.6L344.6,399.1L344.6,399.1
			z"/>
		<path class="st44" d="M386.5,449.7c0,0-0.6,1-3.5,1l1.5,1.4c0.3-0.1,0.6-0.2,0.9-0.2c2.8-0.6,3.7-0.5,5.5,0.2"/>
		<path class="st43" d="M383,450.7c-2.9,0-12.1-1.5-19.4,0.4c-11,2.9-15.6,13.2-23.9,16.9c12.6,5.4,21.8,4.1,32.3-4.3
			c4.2-3.4,6.9-9.8,12.4-11.5L383,450.7z"/>
		<path class="st26" d="M473,502.8c0,0,0.1-1.6,2-2.3c1.6-0.6,2.4,0.7,2.4,0.7"/>
		<path class="st48" d="M397.2,453.7c0,0-1,0.6-1.3,0.8c-0.7,0.6-1.6,1.1-1.8,1.5L393,456c0.7-0.6,1.4-1.5,1.8-2
			c0.2-0.3,0-1.3,0-1.3L397.2,453.7L397.2,453.7z"/>
		<path class="st34" d="M335.5,298.2c2-5.6,1.9-11.8,3-17.7c2.3-12.3,5.8-16.3,14.7-24.5c2.8-2.6,5.7-4.5,8.8-6.8
			c0.5,3.5,0.7,6.5,0.4,10c-1.7,17.3-9.1,21.4-21.5,32C338.5,293.3,337.8,296.2,335.5,298.2L335.5,298.2z"/>
		<path class="st49" d="M336,296.7c0.3-0.5,0.6-0.7,0.8-0.7c0.1,0.1,0.2,0.3,0.1,0.7c-0.4,0.5-0.8,1-1.3,1.4
			C335.7,297.7,335.8,297.2,336,296.7L336,296.7z"/>
		<path class="st26" d="M335.5,298.2c2-5.6,1.9-11.8,3-17.7c2.3-12.3,5.8-16.3,14.7-24.5c2.8-2.6,5.7-4.5,8.8-6.8
			c0.5,3.5,0.7,6.5,0.4,10c-1.7,17.3-9.1,21.4-21.5,32C338.5,293.3,337.8,296.2,335.5,298.2L335.5,298.2z"/>
		<path d="M336.3,298.8c0,0,0.4-1.4,1.1-3.1c0.7-1.7,0.5,0.5,0.5,0.5l-0.4,1.9L336.3,298.8L336.3,298.8z"/>
		<path class="st34" d="M329.1,325.5l-0.9,2.9c-0.5-3.8-2.1-5.5-4.8-7.9c-11.9-10.7-17-23.4-12-38.2c1.7-5.2,3.4-8,7.1-12.1
			c2.3,4,3.4,6.4,5.1,10.7c4.1,10.9,5.7,17.1,4.1,29.7c-0.6,4.4-2.7,9.8,0.2,13.8C328.2,324.7,328.6,325.2,329.1,325.5L329.1,325.5z
			"/>
		<path class="st26" d="M329.1,325.5l-0.9,2.9c-0.5-3.8-2.1-5.5-4.8-7.9c-11.9-10.7-17-23.4-12-38.2c1.7-5.2,3.4-8,7.1-12.1
			c2.3,4,3.4,6.4,5.1,10.7c4.1,10.9,5.7,17.1,4.1,29.7c-0.6,4.4-2.7,9.8,0.2,13.8C328.2,324.7,328.6,325.2,329.1,325.5L329.1,325.5z
			"/>
		<path class="st49" d="M328.7,331.9c0,0,0.3-2.9-0.2-4.6c-0.2-0.9-0.8-2.2-0.8-2.2s1.4,0.7,1.8,0.7
			C329.9,325.7,328.7,331.9,328.7,331.9L328.7,331.9z"/>
		<path class="st49" d="M333.6,303.7c-0.7,0.3-2.8-2.7-3-4.7c-0.2-1.9-1-1.1-0.9,0.4c0.2,2.8,3.5,5.8,3.1,7.6
			C333.3,305.5,333.6,304.4,333.6,303.7L333.6,303.7z"/>
		<path class="st23" d="M333.6,303.7c-0.7,0.3-2.8-2.7-3-4.7c-0.2-1.9-1-1.1-0.9,0.4c0.2,2.8,3.2,5.3,2.7,7.1"/>
		<circle class="st7" cx="328.4" cy="295.8" r="5.2"/>
		<path class="st10" d="M328.7,295.3c-1.4-1-2-2.5-1.4-3.4c0.6-0.9,2.3-0.9,3.7,0.1c1.4,1,2,2.5,1.4,3.4
			C331.7,296.3,330.1,296.2,328.7,295.3L328.7,295.3z"/>
		<circle class="st50" cx="328.3" cy="295.9" r="5.4"/>
		<circle class="st7" cx="354.6" cy="401.8" r="5.3"/>
		<path class="st10" d="M354,401.3c-1.1-1.6-1.2-3.5-0.1-4.3c1.1-0.8,2.9-0.2,4,1.4c1.1,1.6,1.2,3.5,0.1,4.3
			C356.9,403.5,355.1,402.9,354,401.3z"/>
		<circle class="st51" cx="354.6" cy="401.8" r="5.6"/>
		<path class="st26" d="M474.6,504.6c0,0,0.1-1.6,2-2.1c1.7-0.4,2.4,1.1,2.4,1.1 M487.4,521.9c-3.5,0.7-5.6-3.7-4.4-4.7
			c0.8-0.7,2.7-0.6,4.1,0.1C489.7,518.5,489,521.5,487.4,521.9L487.4,521.9z"/>
		<path class="st49" d="M487.4,521.9c-2.9,0.7-5.2-3.2-4.4-4c0.7-0.8,2.2-0.8,3.6-0.1C489.1,518.9,489,521.5,487.4,521.9z"/>
		<path class="st26" d="M487.4,521.9c-2.9,0.7-5.2-3.2-4.4-4c0.7-0.8,2.2-0.8,3.6-0.1C489.1,518.9,489,521.5,487.4,521.9z"/>
		<path class="st41" d="M335.3,298.9c3.7-10.7,5.7-18.2,11.8-28.6c4.1-7.1,12.2-17.1,12.2-17.1s-7.6,10.3-11.6,17.5
			c-5.6,10.1-6.8,14.5-11.3,27.4L335.3,298.9L335.3,298.9z"/>
		<path class="st41" d="M318,275.1c0,0-1.3,16.8,0.8,27.2c1.9,9.3,8.5,22.9,8.5,22.9s0.4,0.3-1.5-4.8c-2-5.2-4.5-10.9-6-18.2
			C317.4,291.9,318,275.1,318,275.1L318,275.1z"/>
		<path class="st41" d="M302.3,318.7c0,0,2.2,5.8,4.1,9.3c5.2,9.5,9.7,14.5,18.6,20.7l0.3-0.8c-8.6-6.1-12.6-11-18.2-19.9
			C305,324.5,302.3,318.7,302.3,318.7L302.3,318.7z"/>
		<path class="st41" d="M334.2,322.6c0,0,10.7-9.9,16.1-17.6c4.8-6.8,10.6-18.9,10.6-18.9s-5.3,12.2-10,19.1
			c-5.3,7.7-15.3,17.4-15.3,17.4H334.2z"/>
		<path class="st41" d="M344.7,399.9c2-4.9,5.1-11.6,7.4-19.4c2.9-9.7,4.6-14.5,4.9-25.6c-0.2,11.1-1.3,14.9-3.7,24.1
			c-2,7.9-4.7,14.7-6.8,19.6L344.7,399.9L344.7,399.9z"/>
		<path class="st41" d="M338.6,350.8c0,0,8-7,11.6-13.3c4.7-8.3,5.5-15,5.5-15s-0.1,6.7-4.8,15c-3.6,6.3-12,14.3-12,14.3
			L338.6,350.8L338.6,350.8z"/>
		<path class="st41" d="M329.4,390.7c0,0-6.9-4.4-10.7-7.6c-14.8-12.4-24-29.2-24-29.2s8.5,17.7,23.5,29.9c4,3.2,11.3,7.8,11.3,7.8
			L329.4,390.7L329.4,390.7z"/>
		<path class="st26" d="M330.4,392.5c0,0-1.3-0.6-0.6-1.8"/>
		<path class="st41" d="M383.4,443.3c-6.5-4.1-15.7-10.2-23.9-18.7c-2.8-2.9-6.9-7.8-6.9-7.8s3.3,5.2,6,8c7.4,7.7,17.5,14.9,24,19
			L383.4,443.3L383.4,443.3z"/>
		<path class="st41" d="M406,451.2c0,0-12.3-8.8-17.8-16.5c-3-4.2-4.5-6.7-6.5-11.5c2.4,4.7,4.1,7.3,7.4,11.5
			c5.5,7,16.9,15.4,16.9,15.4V451.2L406,451.2z"/>
		<path class="st41" d="M345.3,466.9c18-2.5,25-13,40.4-15.4c-1.6,0.1-1.3-0.5-2.8-0.2C369.3,454.1,361.1,464.3,345.3,466.9
			L345.3,466.9z"/>
		<circle class="st7" cx="367.3" cy="445.9" r="5.3"/>
		<path class="st10" d="M372.5,444.9c0,0.2-0.1,0.3-0.2,0.5c-0.8,1.4-2.9,1.6-4.8,0.5c-1.9-1.1-2.7-3-2-4.4c0.2-0.4,0.6-0.7,1-0.9
			c0.2,0,0.5-0.1,0.7-0.1C369.9,440.6,372,442.4,372.5,444.9L372.5,444.9z"/>
		<circle class="st52" cx="367.3" cy="445.9" r="5.6"/>
		<path class="st49" d="M385.9,448.4c0,0,0.5,0.3,0.8,0.6c0.3,0.3,0.4,0.8,0.2,1c0,0,0.1,0.3,0.5,0.6c0.5,0.4,1.2,0.4,2,0.5
			c1,0.2,1.7,0.3,2.4,0.5c0.7,0.2,1.6,0.6,1.6,0.6l-4-2L385.9,448.4L385.9,448.4z"/>
		<path class="st41" d="M347.4,417.1c0,0-9.9-2.6-22.7-7.4c-12.7-4.7-21.3-12.7-21.3-12.7s8.6,7.2,21.3,12c12.7,4.7,22.7,7,22.7,7
			V417.1L347.4,417.1z"/>
		<circle class="st53" cx="390.5" cy="460.8" r="5.7"/>
		<path class="st10" d="M394.5,464.3c-1.7,0.6-4-0.5-5.2-2.7c-1.4-2.4-1.1-5.1,0.7-6.1l0.1,0c0.1,0,0.3,0,0.4,0
			c2.9,0,5.3,2.4,5.3,5.3C395.8,462.1,395.3,463.3,394.5,464.3L394.5,464.3z"/>
		<circle class="st26" cx="390.5" cy="460.8" r="5.3"/>
		<path class="st49" d="M337.9,388c0,0,0.6,1.9,1.1,3c0.4,0.9,1,2.2,1,2.2s-1.3,0.3-1.3,0.1c0-0.1-1-5.3-1-5.3L337.9,388L337.9,388z
			"/>
		<path class="st34" d="M337.2,389.1c-1.9-3-6-6.2-8.3-8.6c-4-4.1-6.5-8.9-7.4-14.6c-2.1-13.5,1.8-22.5,11.6-31.6
			c0.6,9.5,6,17.3,7.2,26.7c1.6,13.5-7,16.1-1,29.3L337.2,389.1L337.2,389.1z"/>
		<path class="st49" d="M335.9,386.4c0,0,0.1,0.6,0.3,1.3c0.4,0.5,0.7,0.9,1,1.4l1.7,1l-0.9-3.1L335.9,386.4L335.9,386.4z"/>
		<path class="st26" d="M337.2,389.1c-1.9-3-6-6.2-8.3-8.6c-4-4.1-6.5-8.9-7.4-14.6c-2.1-13.5,1.8-22.5,11.6-31.6
			c0.6,9.5,6,17.3,7.2,26.7c1.6,13.5-7,16.1-1,29.3"/>
		<path class="st41" d="M337.2,386.3c-3.9-5.9-4.7-8.8-6.3-14.8c-3.1-11.4-3.1-25.2-0.2-30.3c-2.9,5.1-3.5,18.8-0.7,30.3
			c1.6,6.5,2.9,9.8,6.5,15.8L337.2,386.3L337.2,386.3z"/>
		<path class="st26" d="M336.7,388.4c-1-1.1,0.3-3,1.4-1.3"/>
	</g>
	<g id="oak">
		<path class="st42" d="M600.4,300.6c0-0.1,0-0.3,0-0.3c0,0,0.3-0.5,0.7-1.3c0.4-0.8,0.7-2,0.7-3.3l1.9,0.4
			c-1.6,5.8-1.7,7.8-1.7,7.8c0,0.5-0.6,0.6-0.7,0.1L600.4,300.6L600.4,300.6z"/>
		<path class="st4" d="M605.6,321.2c1.5-1,2.1-3.6,2.2-5.3c0.2-3-2.4-5.7-2.5-8.5c-0.1-1.8,1.5-2,1.8-3.4c0.3-1.3-4.6-5.7-3.3-9.1
			c0.9-2.5,2.9-1.3,3.7-3.9c0.8-2.7-1.7-6.7,1.5-8.5c1.5-0.9,3.8,0.4,4.5-2c0.7-2.4,0.1-7.3,3.7-7.7c4.7-0.5,5.4,9.1,6.3,9.8
			c0.9,0.7,2.1-0.6,3.4-0.1c3.4,1.4-0.2,7.7-1.4,9.8c8.7,0.4,0.7,5.8-0.6,8.2c0.4,0.9,2.6,1.2,3,2.5c0.2,0.9-0.4,1.7-1,2.2
			c-2,1.7-4.9,2.4-7,3.8l-0.3,0.2c-0.1,0.8,2.1,3.1-0.8,4.1c-5.6,1.9-9.1,3.1-11.2,8.7c-0.6,1.5-0.8,6.1-0.9,5.7L605.6,321.2
			L605.6,321.2z"/>
		<path class="st40" d="M606.5,325.6l-1-4.2c0.3-0.1,0.5-0.4,0.7-0.6c1.1-1.1,1.7-4.1,1.8-5.6c0.2-3.3-2.2-5.2-2.3-7.9
			c-0.1-1.4,1.5-1.9,1.8-3.3c0.3-1.7-4.4-5.8-3.1-9.1c0.8-2.2,2.9-1.1,3.7-3.9c0.7-2.5-1.4-6.9,1.3-8.4c1.6-0.9,3.9,0.5,4.7-2.3
			c0.6-2.2,0.1-5.9,3.2-6.2c4.2-0.4,4.8,8,5.9,8.8c1.2,0.9,2.2-0.3,3.3,0.2c1.7,0.7,1.3,3.1,0.9,4.5c-0.5,1.6-1.2,2.9-1.9,4.4
			c-0.1,0.3-0.1,0.6,0.2,0.7c1.1,0.4,2,0.2,2.4,1.7c0.5,2-2.5,4.1-3.1,5.6c-0.5,1.2,1.5,1.5,1.8,3.1c0.4,2.3-7.2,4.8-7.8,5.8
			c-0.1,1.5,1.9,3-0.5,3.8C612.4,314.8,606.4,318.6,606.5,325.6L606.5,325.6z"/>
		<path class="st41" d="M606,321.8c0,0,7.6-13.6,9.8-23.2c1.5-6.7,2.2-17.5,2.2-17.5s-0.3,10.7-1.6,17.4c-2,10.2-9.9,24.5-9.9,24.5
			L606,321.8L606,321.8z"/>
		<path class="st42" d="M606.2,334.7c0-0.1,0.1-0.3,0.1-0.3c0,0,1.5-1.6,2.4-2.6c0.3-0.4,0.6-0.9,0.7-1.2c0.1-0.4,0.2-0.6,0.2-0.6
			c0-0.2,0.2-0.4,0.5-0.3l2.5,0.8c0.3,0.1,0.4,0.4,0.1,0.6c0,0-1.9,1.4-2.6,2.2c-1.5,1.8-1.9,2.5-2.6,4.4c-0.1,0.4-0.6,0.4-0.7-0.1
			L606.2,334.7L606.2,334.7z"/>
		<path class="st48" d="M607.1,337.7c0.6-1.9,1.1-2.7,2.6-4.5c0.7-0.9,2.7-2.3,2.7-2.3l-2.5-0.8c0,0-0.2,1.2-0.9,2.1
			c-0.9,1-2.4,2.6-2.4,2.6L607.1,337.7L607.1,337.7z"/>
		<path class="st4" d="M597,288.6c0,0,3.2,6.3,5.9,16.1c5.6,20.1,6.4,46.3,3.9,60.6c-7.5,44.2-47.4,85.5-79.7,91.9
			c-27.1,5.4-43,16.9-54.4,29.4c-8.8,10.2-12.2,16.3-20.2,32.6c-2.5,5-10.5,6-7.1-1.1c6.3-11.1,12.2-21.3,21.4-32.2
			c11.9-13.5,29.1-26.7,58.1-32.5c33.3-6.7,71.7-47.9,79.2-92.1c2.4-14.4,1.7-45.7-6.4-65.9L597,288.6"/>
		<path class="st54" d="M580.1,280.4c0,0-9.4-0.4-4.9-7.5c-4.3-2.1-9.5-5.9-3.9-9.1c-0.2-1.1-3.5-2.1-3.3-4.7c0.1-1.5,2-2.1,2.2-2.8
			c-0.6-1.2-4.9-6.7-3.4-8.3c2.3-2.5,7.2,0.5,9.4,1.9c0.6-0.3,1.4-1,1.9-1.4c3.3-2.2,3.5,3.1,4.4,4.8c0.4,0.8,3-1.3,4.7-0.4
			c3,1.6,1.7,5.5,2.4,8.1c0.8-0.1,1.8-0.7,2.6-0.7c4.9-0.3,2.2,8.3,2,11c7.8-1.1,1.8,6.9,2.2,13.7c0.1,1.9-0.5,6.1-1.9,4.5
			C590.1,284.4,577.3,285.8,580.1,280.4L580.1,280.4z"/>
		<path class="st55" d="M579,308.6c-1.7-0.1-5.3-0.7-6-2.2c-1.1-2.5,1.8-3.4,1.7-3.6c-1-1.4-5.8-2.3-5.9-4.2c0-1.4,2.2-2.3,1.8-3.6
			c-0.5-1.7-3.8-4.3-2.5-6.1c1.5-2.3,4.7,0.8,6.2,0.8c0.7,0,1.8-1.6,3.2-1.7c2.1,0,3.3,4,4.1,3.9c0.9-0.1,1.4-1.3,2.2-1.6
			c2.6-0.8,3.3,2,3.9,3.8c1.2,3.6,2.5-0.7,4.4,0.2c4.9,2.1,2.9,11.8,4.3,12.9c0.9,0.7,2.5,0.6,3.1,1.6c1.3,2.1-0.5,6.3,0.5,10.1
			c0.4,1.5,5.2,6,5.2,6s0.7,4.5,0.6,4.2c-2.2-4.1-2.6-5.1-6.5-8.1c-3.7-2.8-9.3-0.6-10.6-2.1c-1.4-1.7,0.2-3.2-0.5-3.9
			c-0.3-0.3-4.6,0.2-5.3,0.1C580,314.9,577.2,312.1,579,308.6L579,308.6z"/>
		<path class="st56" d="M604.9,324.6l0.5,2.8c-7.9-11.3-14.4-6.8-16.1-8.7c-1.3-1.4,0.4-2.4-0.7-3.5c-1.1-1.2-7.8,1.3-9.8-3.9
			c-0.4-1.1,1.1-2.9,0.3-3c-1.7-0.3-4-0.3-5.1-1.8c-0.5-0.6-0.9-1.5-0.3-2.2c0.3-0.4,0.7-0.7,1-1.1c1-1.5-5.2-2.7-5.3-5
			c0-1.3,1.7-1.8,1.1-3.4c-0.5-1.4-2.5-3.7-1.5-5.3c1.2-1.9,3.8,0.5,5.3,0.6c0.7,0.1,1.9-1.6,3.1-1.7c1.9-0.1,2.7,3.5,4.2,3.3
			c1.4-0.1,3-2.3,4.6-0.4c1.1,1.3,1.1,5.2,3.6,4.1c0.6-0.3,1.5-1,2.2-0.7c4,1.7,3,8.2,4,11.7c0.5,1.9,2.5,1.4,3.2,2.6
			c0.3,0.6,0.6,1.2,0.7,1.9c0,0.6,0,1.1-0.1,1.7c-0.3,2.2-0.1,4.3,0.5,6.4C600.7,320.8,603.1,324.1,604.9,324.6L604.9,324.6z"/>
		<path class="st4" d="M606.8,359.1l0.4-0.3c1.4,0,2.4-2.9,2.8-4c1.8-4.6-1.4-12.2,3.9-12.2c0.3-1.9,0.7-6.6,2.4-7.8
			c1.3-0.9,2.5,0.2,3.7-0.1c0.9-1.8,1.3-5.2,3.9-5.7c0.8-0.2,2.5,1.2,2.8,1c0.7-0.3,1.5-4,3.6-4.5c1.3-0.3,2.4,1,2.9,0.7
			c0.7-0.5,1.5-1.3,2.1-1.9c2.7-2.8,6-2.9,5.9,0.9c0,1.3-0.9,3.3-1.4,4.5c-0.2,0.4,1.7,1.3,1.9,1.8c0.9,1.8-2.4,3.9-3.1,5.3
			c0.1,0.2,1.7,0.6,2,0.9c2.2,3.1-4.2,6.4-5.8,8.3c-0.6,0.7,1.5,2.4,1.2,3.7c-1.2,5.2-9.2,3.3-10.9,4.1c-0.6,0.3-0.8,3-1.3,3.8
			c-2.2,3-11.1-0.7-13.1,1.2c-1.8,1.7-2.4,4.7-3.6,6.8c-0.3,0.5-0.7,0.3-0.7-0.2L606.8,359.1L606.8,359.1z"/>
		<path class="st40" d="M607.3,359.4c1.6-0.1,2.7-3.1,3.2-4.4c0.6-1.7,0.9-3.4,1-5.2c0.1-2.6-1.8-7.2,2.3-6.6c0,0,0.9-6.2,2.6-7.6
			c1.1-0.9,3.2-0.4,3.7-0.8c1.2-0.9,0.7-4.6,3.3-5.1c1-0.2,2.7,0.8,3.5,0.4c0.9-0.5,1.3-3.3,3.1-3.8c1.1-0.3,2.6,0.9,3.3,0.5
			c1.5-1,2.7-4,4.9-3.4c2.5,0.7,1.6,4.4,1,6c-0.4,1.1,0.8,1.5,1.2,2.3c0.8,1.5-1.9,3.9-2.3,5.3c-0.1,0.5,1.1,1.1,1.4,1.4
			c1.8,2-2.9,5.4-4.2,6.5c-0.4,0.3-1.2,1-1.2,1.5c-0.1,1.1,1.1,1.9,0.8,3.2c-1,4.5-7.4,3.2-9.9,4c-1,0.3-1.1,2.4-1.8,3.2
			c-2,2.7-10.7,0.1-13.1,2.2c-1.4,1.3-2.5,3.5-3.3,5.2L607.3,359.4L607.3,359.4z"/>
		<path class="st41" d="M608.6,358.2c0.3-0.1,10.6-8.3,16.4-14.6c4.7-5.1,11-14.1,11-14.1s-6.2,9.2-10.9,14.5
			c-5.9,6.7-16.3,15.8-16.5,15.8C608.3,359.9,608.3,358.3,608.6,358.2L608.6,358.2z"/>
		<path class="st4" d="M611,331.9c-2.4-1.4-2.1-9,1.5-12.4c3-2.9,11.3,5.6,8.7,9.1C619.8,330.5,613.5,333.3,611,331.9L611,331.9z"/>
		<path class="st4" d="M621.2,327.3c-1.5,1.2-5-0.4-6.8-2.1c-1.6-1.6-2.6-4.1-1.6-5.3c1.9-2.3,7.2-5.5,9.8-3.4
			C625.2,318.6,622.6,326.2,621.2,327.3z"/>
		<path class="st44" d="M620.8,328.3c-1.4,1.8-7.3,4.2-9.5,2.9c-1.9-1.1-1.9-8,1.6-11.3C615,317.7,623.2,324.9,620.8,328.3
			L620.8,328.3z"/>
		<path class="st57" d="M622.1,317.1c2.1,1.8,0.1,8.7-1.2,9.8c-1.1,0.9-4.2-0.3-6-2.1c-1.6-1.6-2.4-3.9-1.8-4.7
			C615.1,317.7,620,315.3,622.1,317.1L622.1,317.1z"/>
		<path class="st10" d="M620.5,317.2c-0.6,0.6-1,1.8-1,3c0,2,1,3.6,2.2,3.6c0.2-0.5,0.3-1.1,0.4-1.7c0.2-1,0.3-2,0.2-2.8
			c-0.1-0.8-0.3-1.4-0.7-1.7c0,0,0,0,0,0C621.4,317.3,621,317.2,620.5,317.2C620.6,317.2,620.5,317.2,620.5,317.2L620.5,317.2z"/>
		<path class="st58" d="M576,334.6c-0.7-2.1-3.9-3.5-4.2-6c-0.2-1.1,1.1-3.1,1-3.4c-0.6-1.8-3.6-4.2-2-6.4c2-2.9,4.9,0.1,7.2,0.8
			c0.4-0.1,0.5-1.5,1.4-1.7c3.6-1,6.8,4.9,7.8,5.3c2.8,1.1,5-3.9,6.6,7c1.2-0.3,2.8-0.6,3.6,0.7c3,5.1,1.2,16.2,7.2,19.2l0.2,0.4
			c-0.1,0.4-0.3,3.7-1.2,2.6c-1.5-1.8-2.7-4.4-5.3-4.9c-2.8-0.5-14.9,3.9-15.3-1.6c0-0.7,0.8-1.5,0.6-2.2c-0.7-1.5-8-1-8.8-5.1
			C574.5,337.6,575.6,336.1,576,334.6L576,334.6z"/>
		<path class="st59" d="M603.8,352.3c-4.5-6.9-6.5-4.3-13.3-3.8c-1.5,0.1-6.8,0.3-6.7-2.3c0-0.7,0.6-0.9,0.1-1.8
			c-1-1.9-7.1-1.6-8-5.1c-0.5-1.8,0.5-4.3,0.3-5c-0.9-2.3-4.7-4.5-3.5-7.5c0.2-0.4,0.4-0.8,0.4-1.2c0.2-1.3-2.5-4.4-1.3-6.4
			c1.4-2.3,3.9-0.5,5.7,0.4c1.3,0.6,1-0.6,1.9-0.9c1.5-0.5,3.5,1,4.5,2c0.6,0.6,2.4,2.8,2.9,3c1.1,0.5,3-0.1,4.2,0.4
			c1.1,0.4,1.9,5.2,2.1,6.4l0.2,0.2c1-0.2,2.6-0.2,3.2,0.8c2.8,4.6,1.4,15.7,7.5,19L603.8,352.3L603.8,352.3z"/>
		<path class="st41" d="M603.5,351.9c0,0-8.1-13.3-15-20.3c-4.4-4.5-12.4-10.3-12.4-10.3s8,6.1,12.4,10.8
			c6.4,6.8,13.4,19.8,13.4,19.8L603.5,351.9L603.5,351.9z"/>
		<path class="st4" d="M594.9,372.5c0.4,0.2,1.1,0,1.6,0.2c3.6,1-1.5,11.3-1.8,13.5c-0.1,0.6,0.3,2.6,0.3,2.7l-0.8,4.4
			c-0.1,0.5,0.1-4.4-0.6-5.6c-1.2-2.1-5.1-1-7.2-1.3c-3.3-0.5-0.7-3.3-2.2-3.9c-2.4-1-7.3,0.4-7.9-3.1c-0.2-1.3,0.7-2.7,0.6-3.9
			c-1.7-2-6.1-2.4-5.6-5.9c0.2-1.2,1.9-2.5,1.9-3.3c-0.1-0.9-3.7-3.6-2.8-5.5c0.5-1.2,1.5-1.2,1.6-1.9c0.1-0.7-2.9-5.3-0.4-6.5
			c3.1-1.5,5.6,2,7.8,2.1c1.1,0.1,2.1-1.7,3.8-1.4c1.8,0.4,2,2.8,2.8,4.1c0.8,0,1.6-0.8,2.4-0.9c3.7-0.4,3.2,5.6,4.1,7.6
			c0.1,0.3,1.2-0.4,1.7-0.2c0.8,0.3,1.1,1.2,1.2,1.9C595.7,368,594.5,370.4,594.9,372.5L594.9,372.5z"/>
		<path class="st4" d="M618.5,381.4c0.7,7-8.8,0.1-14.1,2.9c-1.6,0.8-5.2,3.6-5,3l1.3-3.3c0.4-0.4,1.8-0.4,2.3-0.6
			c1.1-0.5,2.7-2.3,3.7-4.3c1.4-2.7,0.5-5.8,1.3-7.8c1.3-3,3.5-0.2,4.4-0.9c1.7-1.2,2-7.4,6.1-7.4c1.1,0,1.1,0.2,1.8,0.6
			c0.9-1.2,1.1-2.8,2.8-3.3c1.2-0.4,2,0.7,3.1,0.7c0.8-0.6,3.9-5.8,6.4-5.2c2.8,0.7,1.1,5.7,0.9,7.6c0.3,0.3,0.7,0.3,1.2,1
			c2,2.6-1.1,5.4-2.2,7.5c0.3,0.6,1.1,0.6,1.2,1.4c0.7,3.2-5.4,3.6-6,4.4c0,0.3,0.5,0.6,0.4,1.3C628,382.8,619,381.8,618.5,381.4
			L618.5,381.4z"/>
		<path class="st4" d="M557.2,404.7c0.2-1.3-2.6-3.4-1.4-5.2c1-1.5,3.1-0.7,4-1.5c0.8-2.4-0.5-5.6,2.8-6.3c1.7-0.4,2.6,1.3,3.1,2.6
			c0.2,0.5,0.9,3.4,1.2,3.5c0.6,0.2,2.2-0.9,3.1-0.8c2.2,0.3,0.5,4.5,1.1,5.7c0.5,0.8,1.7,0.2,2.4,0.4c2.2,0.8,0.5,4.5,0.5,6.1
			c0,1,1.6,1.3,1.7,2.9c0.2,3-2.3,3.3-3.7,5.2c-0.2,0.3-0.2,0.4,0,0.7c2.5,3,1.1,4.5-1.7,6.4c-3.2,2.3-8.1,3.8-6.3,8.8
			c0,0-1.6,3.3-1.8,2.2c-0.3-1.6,0.5-3.3,0.1-5.1c-0.5-1.9-6.3-4.4-6.5-6.4c-0.2-1.4,1.5-1.7,1.6-2.9c0.2-1.5-5-2.8-4.4-5.7
			c0.3-1.6,2-2,2.7-3.3c-0.1-1.2-5.9-5.6-0.8-6.8C555.6,405.1,556.6,405.1,557.2,404.7L557.2,404.7z"/>
		<path class="st40" d="M562,435.1c0.2-1.4,0.4-3.4,0-4.8c-0.5-2-5-4.6-5.2-6.4c-0.1-1.1,0.7-1.4,0.9-2.8c0.2-1.9-4.4-3.1-3.9-5.7
			c0.3-1.6,2.3-2.4,2.1-3.8c-0.1-0.8-2.5-2.7-2-4.8c0.4-1.6,2.2-1,3.2-1.8c1.1-0.9-2.2-3.7-1.1-5.3c0.8-1.3,3.2-0.7,3.8-1.7
			c0.7-1-0.5-5,2.7-5.7c2.6-0.6,3.1,4.9,4.2,5.7c1,0.8,1.5-0.6,3.1-0.4c1.6,0.2,0.4,4.1,1,5.2c0.7,1.3,1.7,0.3,2.8,0.6
			c1.8,0.6,0,4.4,0,5.7c0,1.4,1.4,1.4,1.6,3c0.2,2.6-2.3,3.3-3.6,4.9c-0.4,0.4-0.4,0.9,0,1.3c2.4,2.5,0.7,4.1-1.6,5.7
			c-3.6,2.6-7.8,4-6,9.2L562,435.1L562,435.1z"/>
		<path class="st4" d="M619.6,393.2c1.8-0.5,4.2-2.2,5.9-0.8c3.3,2.6-2.4,7.2-3.5,9.6c0,0.9,1.8,1.2,1.7,3c-0.2,3.1-4.4,2.5-6.4,3.6
			c-0.2,0.6,0.7,1.1,0.7,1.6c0,4.5-6.7,2.8-9.3,3.6c-0.8,0.3,0.6,2.6-2.4,3.7c-1.3,0.5-3.1,0-4.3-0.3c-1.5-0.3-3.1-0.6-4.7-0.5
			c-0.7,0-1.3,0.2-2,0.2c-0.3,0-0.5-0.2-0.4-0.5l7.3-21.7c0.2-0.5,3.4,0.7,4.1,0.7c0.8,0,1.6-1.7,2.1-2.2c1.9-1.8,2.8,0.7,4.4,0.7
			C614.2,394.1,617.5,387.6,619.6,393.2L619.6,393.2z"/>
		<path class="st42" d="M583.1,396.8c-0.1-0.9-1.9,1.9-1.9,1.9s1.3,1.3,2.2,2.1c1.1,0.9,2.9,2.3,2.9,2.3l0.2-1.4
			C586.6,401.6,583.3,399.3,583.1,396.8z"/>
		<path class="st4" d="M581.2,387.9c0.5,0.7,0.2,1.7-0.2,2.4c-0.4,0.8-0.6,1.3-1.1,1.9c-1.7,2.2-5.4,4.2-7.1,3.1
			c-1.5-1-4.7-10.2-2.2-11.8C573,382,579,384.8,581.2,387.9z"/>
		<path class="st4" d="M572.3,392c0.7-1.1,1.8-1.9,2.8-2.7c1.5-1.1,5.2-3.1,6.9-1.5c2.2,2.1,3.2,8.4,0.7,10.7
			c-3.3,2.9-8.7-0.4-10.8-3.3C571.2,394.1,571.7,392.9,572.3,392z"/>
		<path class="st44" d="M575.5,389.9c2.3-1.7,4.9-2.6,5.8-1.6c2.6,2.8,2.8,8.1,0.9,9.6c-1.8,1.6-6.1,1.4-9.8-3.2
			C571.7,393.7,573.2,391.6,575.5,389.9L575.5,389.9z"/>
		<path class="st57" d="M580.6,387.6c1.2,2.3-5.5,8.6-7.7,7.1c-1.6-1-3.7-9-2.1-10.3C572.9,382.4,579.5,385.7,580.6,387.6
			L580.6,387.6z"/>
		<path class="st10" d="M572.4,384.4c-0.5,0-1,0.2-1.2,0.4c0,0-0.1,0.1-0.1,0.3c0.9,0.5,2.5,0.9,4.2,1.6c2.4,1.1,4,2.5,4.7,2.1
			c0.1-0.4,0.1-0.7,0-0.8c-0.2-0.3-0.7-0.9-1.5-1.4c-0.8-0.5-1.7-1-2.7-1.4c-1-0.4-2-0.7-2.8-0.7
			C572.8,384.4,572.6,384.4,572.4,384.4L572.4,384.4z"/>
		<path class="st43" d="M597.4,416.4c3.3-0.2,6.6,1.3,8.6,0.6c3-1.1,1.2-3.4,2.6-3.6c1.5-0.1,8.8,0.4,8.8-3.2c0-0.7-0.6-1-0.3-1.8
			c0.3-0.8,5.8-0.5,6-3.5c0.1-1.9-1.6-1.9-1.3-3c0.3-1.1,6.2-6.7,3.2-9c-2-1.6-5.4,1.2-5.7,0.4c-0.4-1.1-0.5-1.9-1.8-2.1
			c-1.9-0.2-3.1,2.9-4.4,2.9c-1.3,0-1.9-1.3-3.2-1.2c-1.7,0.2-2,2.8-3.4,2.8c-1.5,0-3.7-0.8-3.7-0.8l-7.3,21.7
			C595.4,416.6,596.6,416.5,597.4,416.4L597.4,416.4z"/>
		<path class="st60" d="M601,407.9c0,0,6.9-2.6,11-5c3.9-2.3,9.3-6.7,9.3-6.7 M601,407.9c0,0,6.9-2.3,11-4.6c3.9-2.3,9.3-7,9.3-7"/>
		<path class="st42" d="M556.8,442.2c0,0,2.7-0.7,3.8-0.7c1.1,0,1.7,0.5,1.7,0.5l1.2-2.3c0,0-3.7,0.4-4.8,0.3L556.8,442.2z"/>
		<path class="st26" d="M540.4,466.7c-2.2-2.6,5-9.5,7.7-7.6c1.9,1.4,4.3,7.4,2.4,9.1C548.4,470.3,542.1,468.8,540.4,466.7
			L540.4,466.7z"/>
		<path class="st42" d="M537,458l-0.8-0.1c-1.4-1.8-1.9-1.8-4-2.4c-0.7-0.2-0.7-0.9,0-1.1l2.5-0.7c0.4-0.1,1.5,0.8,1.8,1.1
			c0.5,0.4,2.9,0.9,2,1.7L537,458L537,458z"/>
		<path class="st26" d="M536.5,456.4c1-1.5,7.3-1.9,11,1.4c2.3,2,0.4,4.8-1.7,6.6c-2.1,1.8-5.3,3.3-6.7,2.1
			C535.4,463.3,535.3,458.3,536.5,456.4z"/>
		<path class="st40" d="M598.6,388.7c0,0,3.1-3.2,5.5-4.4c4.8-2.4,12.5,1.5,13.7-0.7c0.6-1.1-0.3-1.9,0.4-2.2
			c0.7-0.3,9.2,1.4,9.5-2.4c0.1-0.7-0.9-1-0.1-1.8c0.7-0.7,6.1-1.1,5.5-3.6c-0.2-0.8-1.3-1-1-1.8c0.3-0.8,4.3-4.6,2.6-7
			c-0.5-0.7-1.8-0.5-1.7-1.4c0.3-2.6,1.2-6.6-1-6.8c-2.3-0.2-5,4.4-5.9,4.6c-1.1,0.2-1.8-0.9-2.9-0.5c-1.8,0.6-2.1,3.3-2.9,3.3
			c-0.7,0-0.7-0.8-1.9-0.7c-3.6,0.1-3.9,5.9-5.7,7.3c-1,0.8-1.6-0.3-2.7-0.1c-2.5,0.5-1.8,6.8-3.1,8.8c-1.3,2-4.2,4.4-4.8,4.7
			c-0.6,0.3-1.8,0.3-1.8,0.3L598.6,388.7L598.6,388.7z"/>
		<path class="st48" d="M531,455c0,0,2.3,0.8,3.8,0.9c1,0.1,2.6-0.1,2.6-0.1s-0.6,0.1-1.3-0.3c-0.2-0.2-1.8-1.6-1.8-1.6L531,455
			L531,455z"/>
		<path class="st44" d="M537.1,456.9c1.7-1.9,6.6-1.7,10.2,1.5c1.8,1.6,0.6,3.9-1.5,5.8c-2.1,1.9-4.9,2.9-5.8,2.1
			C536.4,463.2,535.9,458.3,537.1,456.9L537.1,456.9z"/>
		<path class="st57" d="M540.8,466.5c-0.8-0.9,0.5-3.7,2.2-5.3c1.5-1.4,4-2.3,4.5-1.7c2.1,2.3,4.2,6.3,2.6,8.2
			C548.4,469.8,542.6,468.6,540.8,466.5L540.8,466.5z"/>
		<path class="st10" d="M547.2,460.2c-0.1,0-0.1,0-0.2,0c-1.7,0.4-2.7,2.7-2.2,5.1c0.2,1.1,0.7,2.1,1.4,2.7c0,0,0,0,0,0
			c1.5,0.1,2.8-0.2,3.3-0.8c0.6-0.7,0.6-2,0-3.4C549.1,462.6,548.2,461.3,547.2,460.2L547.2,460.2z"/>
		<path class="st48" d="M601.8,303.9c0,0,0.1-2.1,1.7-7.9c0.3-1,1.1-1.6,1.1-1.6l-3-0.4c0,0,0.8,0.7,0.8,1.7c0,2.7-1.5,4.8-1.5,4.8
			L601.8,303.9L601.8,303.9z"/>
		<path class="st61" d="M598.5,297.6c0,0-2-5.8-3.7-7.9c-1.8-2.2-3.1-2.7-6.3-3.7c-2.9-0.9-7.4-1.7-7.5-3.9c-0.2-2.3,0.1-1.8-0.7-2
			c-2.6-0.7-5.9-1.6-5.3-4.2c0.6-2.6,1.6-3,0.5-3.6c-1.7-0.8-6-3.4-5.5-5.6c0.5-2.2,2.5-2.3,1.6-3.6c-0.6-1-2.7-2.1-2.5-3.8
			c0.1-1.2,1.7-1.6,1.6-2.7c0-1.1-4.2-5.9-1.8-7.9c2.2-1.8,6.1,1.4,7.1,1.9c1,0.4,2.2-1.7,3.6-1.4c1.9,0.5,2,3.3,2.5,4.3
			c1,1.8,3.1-0.6,4.7,0.3c2.7,1.5,1.8,6.5,2.5,7.5c0.7,1,2.7-0.6,4.2,0.2c2.2,1.2,0.3,8.6,0.5,9.8c0.1,1.2,1.8,0.2,2.7,0.9
			c2.5,1.9-0.5,7.7-0.1,12.6c0.2,1.7,0.6,4.3,0.6,4.3L598.5,297.6L598.5,297.6z"/>
		<path class="st4" d="M579.7,465.6c0.8,1.3,2.2,2.2,2.8,3.6c0.9,1.9,0.1,3.9-2.3,3.7c-1-0.1-1.9-0.8-2.9-0.9
			c-0.8-0.1-3,2.9-5.1,2.8c-2.9-0.1-4.3-3.7-6.1-5.5c-1.4-0.3-2.5,1.8-4.1,1.5c-3.3-0.6-3.1-5.7-4.2-8c-0.9-0.7-2.3,0.7-4.1-0.5
			c-2.8-2-1.3-8.1-4.3-9.9c-2.6-1.5-8.2-0.5-7.7-0.8l3.1-1.6c0.2-0.1,0.8,0.2,1,0.2c5.1,1,11.9,0.2,17.1,0.2c2.5,0,2.1,2,2.5,2.4
			l0.2,0c2.6,0.2,5.7,0,7.9,1.6c2.7,2,0.1,3.8,0.1,4.2l0.1,0.1l0.6,0.2l1.7,0.5c1.4,0.4,2.9,1,3.8,2.2
			C581.2,463.4,579.8,464.1,579.7,465.6L579.7,465.6z"/>
		<path class="st43" d="M545.1,450.6c1.1,0.7,16.1,0.2,18.1,0.2c2.2,0,1.5,1.7,2.2,2.4c0.9,0.4,11.2,0.1,8.8,4
			c-0.3,0.4-0.6,0.8-0.8,1.3l0.1,0.4c1,0.9,4.7,0.9,6.3,3c0.9,1.2-1.6,3.2-0.5,4c2.1,1.5,6.7,8.1-1.7,6.1c-2-0.5-4.4,5.1-8.8,0.1
			c-0.5-0.6-1.8-2.4-2.3-2.7c-1.2-0.8-2.8,1.1-4.3,0.9c-2.8-0.5-2.9-5.3-3.9-7.3c-1.4-1-2.5,0.2-4.1-1c-3.7-2.6,0.8-11.6-11.1-10.2
			L545.1,450.6L545.1,450.6z"/>
		<path class="st41" d="M544,450.8c0,0,11.3,2.3,17.7,5.5c5.9,3,13.9,9.9,13.9,9.9s-7.8-7.3-13.7-10.4c-6.2-3.2-17-5.4-17-5.4
			L544,450.8L544,450.8z"/>
		<path class="st4" d="M573,438.9c2.9,2.7-1.5,11.7-4.8,11.2c-5.3-0.9-8.2-6.9-7.2-9.4C562,437.9,569.8,436,573,438.9L573,438.9z"/>
		<path class="st26" d="M567.7,449.2c-1.5-1.1-0.9-4.9,0.4-7.2c1.2-2.1,2.9-3.4,4.3-3c3.7,1.2,7.4,6.1,6,9.1
			C577,451.1,569.2,450.2,567.7,449.2z"/>
		<path class="st44" d="M572.7,439.2c2.7,2.5-1.6,10.7-4.5,10.2c-5-0.9-6.9-6-6.2-8.2C562.6,439,569.7,436.4,572.7,439.2
			L572.7,439.2z"/>
		<path class="st4" d="M590.2,445.4c-0.5,0.6-1.5,1.8-2.5,1.8c-4.5,0-4.2-3.9-6.5-6.4c-0.8-0.2-1.4,0.7-2.9,0.4
			c-2-0.5-2.1-5.6-5.2-6.7c-1.5-0.5-5.8-0.6-8.2,1.7l4.2-3.3c4.1,1.6,7.8-7.1,12.5-6c1.3,0.3,1.4,1.2,2.9,1.1
			c3.4-0.3,6.9-2.6,11-1.2c2.5,0.8-0.7,4.1,2.4,3.7c2-0.2,5-0.2,5.6,2.3c0.3,1.4-0.4,2-0.2,3c0.4,0.3,7.9,2.9,3.9,4.9
			c0.6,1.8,3.7,3,2.1,5.1c-1.5,2-4.7-0.2-5.6,0.6c-0.4,0.4-0.4,1.3-0.7,1.7c-1.3,1.6-4.8-1.7-6.3-2
			C595.3,451.2,592.6,448.8,590.2,445.4L590.2,445.4z"/>
		<path class="st40" d="M573.4,434.5c3.1,0.9,3.2,5.7,5,6.1c1.8,0.4,1.7-0.5,2.9-0.2c1,0.2,2.1,6.3,7.1,5.7c1.3-0.2,1.9-1.5,1.9-1.5
			s1.8,3,3.8,3.3c2.8,0.4,2-2.1,2.7-2.2c1.1-0.1,3.2,2.3,5.3,2.3c1.2,0,1-2,2.2-2c1.2,0,3.7,1.2,4.7-0.3c1.3-1.9-1.7-4.1-2-4.8
			c-0.2-0.7,0.9-0.7,0.8-1.3c-0.4-2.4-4.3-2.8-4.7-3.6c-0.3-0.8,0.5-1.7,0.2-3c-0.6-2.2-3.7-2.3-5.2-2c-3.3,0.7-0.3-2.8-2.7-3.8
			c-4.1-1.7-10,1.5-11.5,0.9c-1-0.4-1.4-0.6-2.3-0.7c-3.7-0.6-7.1,4.7-9.4,5.8L573.4,434.5L573.4,434.5z"/>
		<path class="st41" d="M572.2,432.8c0,0,11.3-0.7,17.9,1.6c5.7,2,13.3,8.1,13.3,8.1s-8.1-6-14.2-7.7c-6.5-1.9-17.3-0.9-17.3-0.9
			L572.2,432.8L572.2,432.8z"/>
		<path class="st41" d="M562.3,433.6c0,0,2.2-14.3,2-23.5c-0.1-5.5-1.2-14.1-1.2-14.1s1.5,8.9,1.7,14.7c0.3,8.6-1.6,21.9-1.6,21.9
			L562.3,433.6L562.3,433.6z"/>
		<path class="st4" d="M551.4,433.1c0.2,0.6,2.3,1.2,2.1,3.5c-0.2,2.8-4.5,2-6.5,3.3c-0.8,0.5,0.9,3,0,4.1c-1.5,2.1-6.8,0.8-7.2,1.3
			c-0.7,0.9,1.7,3.5-0.8,5c-3.5,2-11-1.2-15.1,2.4c-0.2,0.2-1.8,2-1.9,2c-2.3,0.6-8.4,1.9-7.7,1.6c3.6-1.5,9.4-3,10.5-5.5
			c1-2.1,0.2-6.1,0.6-8.3c0.6-3.4,3.1-2,3.9-3.1c0.7-0.9-0.6-5.6,2.1-7.8c1.9-1.6,3.9-0.5,5.6-1.7c1.8-1.3-0.9-5.6,2.6-6.8
			c2.1-0.7,4.4,1.6,4.8,1.5c1.3-0.3,2.9-4.3,5.6-3.8c2.7,0.5,1.5,4.1,1.4,5.7C556,427.1,553.6,430.4,551.4,433.1L551.4,433.1z"/>
		<path class="st40" d="M515,456c0,0,9.6-4,10.4-6c1.2-3.1-0.1-7.7,1.6-8.9c1.1-0.7,2.2-0.4,2.9-1.4c0.7-1-0.2-6.1,2.4-8.1
			c1.6-1.3,3.1-0.1,5.1-1.5c2.1-1.5-0.6-5.2,2.7-6.4c1.9-0.7,3.8,1.6,4.8,1.4c1.8-0.5,2.8-4.1,5.5-3.7c2.2,0.3,1.1,2.5,1,4.6
			c-0.1,1.2,1.8,0.6,2.4,2.3c0.4,1.2-1.3,3.8-2.4,4.8c-0.6,0.6,1.9,1.5,1.8,3.3c-0.2,2.5-5,2.7-6.2,3.1c-1.4,0.5-0.1,2.7-1.1,3.9
			c-1.6,2-5.6,0.8-6.3,1.7c-0.7,0.9,0.8,3.1-1,4.5c-1.9,1.4-9.4,0.5-10.6,1c-3.6,1.3-6.5,2.7-6.5,2.7L515,456L515,456z"/>
		<path class="st41" d="M525.2,450.4c0,0,10.5-7.5,15.8-14.3c3-3.7,6.9-9.4,6.9-9.4s-3.8,5.8-6.7,9.7c-5.3,7.1-15.8,15.1-15.8,15.1
			L525.2,450.4L525.2,450.4z"/>
		<path class="st41" d="M603.5,383.4c4-2.2,11.3-5.9,17.3-11.4c4-3.7,9.2-10.4,9.2-10.4s-5.2,7.1-9.2,11
			c-6.1,5.8-13.8,9.9-17.8,12.1L603.5,383.4L603.5,383.4z"/>
		<path class="st43" d="M594.9,388.8l-0.9,3.1c0-4.2-0.2-6.3-5.2-6c-0.8,0-1.6,0.1-2.4,0c-2.6-0.4-0.6-1.9-1.4-3.1
			c-1-1.4-7.7-0.1-8.3-3.5c-0.2-1.3,1.2-2.9,0.2-3.9c-1.6-1.5-5.6-2.9-5.2-5.7c0.2-1.2,1.7-2,1.5-3.1c-0.3-1.4-3.2-4-2.5-5.5
			c0.6-1.3,1.6-0.9,1.7-2.1c0.1-1.3-2.2-4.7-0.1-5.7c2.7-1.3,4.6,1.3,7,1.5c1.4,0.1,2.3-1.5,3.7-1.2c1.8,0.4,1.9,3.4,3,4
			c0.4,0.2,1.7-0.9,2.4-1c3.3-0.4,2.6,6,3.7,7.5c0.4,0.5,1.3,0,1.9,0.2c2.1,0.6-0.1,7.7,0.7,8.6c0.3,0.3,1.3,0.1,1.8,0.3
			c1.7,0.5,0.5,4.9,0.2,6C596.1,381.7,593.9,386.5,594.9,388.8L594.9,388.8z"/>
		<path class="st41" d="M594.8,388.3c0,0-3.2-12.8-7.8-19.6c-3.8-5.7-12-12.7-12-12.7s7.9,7.1,11.5,12.7c4.4,6.9,7.4,19.6,7.4,19.6
			H594.8L594.8,388.3z"/>
		<path class="st41" d="M601.8,321.6c0,0-7.6-12.3-14.1-18.7c-5.3-5.2-15.1-11.7-15.1-11.7s9.4,6.6,14.4,11.9
			c6.2,6.4,13.4,18.5,13.4,18.5H601.8L601.8,321.6z"/>
		<path class="st44" d="M598.5,292.2c1.3,3.2,3.1,8,4.3,12.6c5.6,21.4,6.2,46.1,3.8,60.4c-7.4,44-47.4,84.9-79.5,91.3
			c-27.2,5.4-43.2,17.2-54.7,29.8c-5.4,6-9.7,11.9-13.1,17.6c-3.3,5.6-5.5,10.4-8.4,15.3c0,0-0.1,0-0.2,0.1
			c-0.2,0.1-0.5,0.1-0.8,0.2c-0.6,0.1-1.5,0.2-2.2,0.2c-0.8,0-1.5,0-1.9-0.1l-0.1,0c0.4-0.6,0.8-1.3,1.2-1.9
			c2.8-4.6,5.2-9.1,8.5-14.5c3.2-5.3,7-11,12.1-16.8c11.9-13.4,28.7-26.4,57.6-32.2c33.6-6.7,71.9-48.4,79.4-92.7
			c2.4-14.4,2.4-39.4-6.8-66.4L598.5,292.2L598.5,292.2z"/>
		<path class="st41" d="M597.2,289.6c-2.8-7.1-4.7-11-8.8-17.5c-5.2-8.4-15.8-19.7-15.8-19.7s10,11.4,14.9,19.7
			c5.2,8.8,7.6,14.1,10.6,23.9L597.2,289.6L597.2,289.6z"/>
		<path class="st49" d="M598.8,296.4c0,0-0.4-1.1-0.6-1.8c-0.5-1.4-0.8-3.8-0.8-3.8s0.7,1.7,1.1,2.7c0.4,1,1,2.9,1,2.9L598.8,296.4z
			"/>
		<path class="st4" d="M600.1,369.8c-2.1-1.7-7.8-7-7.8-9.6c0-3.2,3-2.6,3.7-3.1c-0.1-1.3-4.5-4.5-2.7-7.4c1.2-1.9,3.8-1.4,4.8-2.1
			c0.7-2-2.1-7.3,0.2-10.2c1.4-1.7,2.4-0.4,3.1-0.6c0.1-0.9,0.1-1.8,0.2-2.7c0.2-1.6,0.7-3.1,2.6-3.2c2.6-0.1,4.3,3.2,5.5,5
			c0.3-0.2,1.6-0.3,1.9-0.5c3.2-1.5,2,8.3,2.1,9.8c0.7,0,2.2-0.4,2.9-0.1c3.4,2-3.3,12.5-4.1,15c-0.3,1,3.6,0.2,0.6,3.9
			c-1.7,2.2-3.9,4.1-5.8,6.1L600.1,369.8L600.1,369.8z"/>
		<path class="st40" d="M601.2,378c1.3-3.4,0.8-6.7-1.7-8.5c-2.7-2-6.4-6.7-6.4-9.4c0-3.2,3.2-1.3,3.4-2.8c0.1-1.1-4.2-4.5-2.7-7
			c1-1.6,3.7-1.4,4.4-2.3c1.1-1.4-1.7-7.4,0.5-10.2c1.2-1.5,2.2,0.1,3-0.5c0.8-0.6-0.5-5.2,2.5-5.3c2.9-0.1,5,4.7,5.4,4.5
			c0.9-0.3,2-1.3,3.1-0.3c1,1,0.7,9.2,0.7,9.2s1.9-0.2,2.6,0.2c2.6,1.6-2.1,10.9-3.4,13.4c-1.1,2.2,2.2,2.4,0.5,4.7
			c-2.8,3.7-8.3,8.1-9.1,13.5"/>
		<path class="st41" d="M604.4,375.6c0,0,2.1-13.3,2.6-20.4c0.5-5.8-0.8-15.3-0.8-15.3s0.7,9.1,0.3,14.9c-0.6,7-3.7,23.7-3.7,23.7
			L604.4,375.6L604.4,375.6z"/>
		<path class="st4" d="M574.1,425.1c1.2-3-2.3-11.7,0.3-13.2c1.5-0.9,2.4,0.8,3.8-0.6c1.8-1.8-1-8.6,2.3-10.8
			c1.9-1.3,3.5,0.6,5.4-1.1c1.2-1.1,1.3-5.7,4.5-6.5c2.1-0.5,3.1,0.9,4.9,1.2c1.6,0.2,6.9-7.3,10.3-5.5c3.5,1.9,0.4,5.8-0.3,8.5
			c-0.4,1.4,2.6,1.2,2.3,3.5c-0.3,2.1-2.7,4.3-2.7,5.1c0,1,2.5,1.6,2.6,3.4c0.2,3.5-5.4,3.9-7.2,5.4c-1,0.8,1.3,3.3-0.1,5.5
			c-1.5,2.4-7.7,0.7-8.8,1.2c-0.8,0.4,0,4.5-1.1,6c-1.7,2.4-9.9,0.1-12.9,0.6c-4,0.7-5.8,1.5-8.4,4.5L574.1,425.1L574.1,425.1z"/>
		<path class="st40" d="M568.9,429.9c0,0,3.2-1.7,4.3-3.5c1.1-1.8,1.3-2.5,1.2-5.3c0-1.7-1.5-7.8,0.2-8.7c1.4-0.8,2.2,0.8,3.9-0.9
			c2.1-2-1-9,2-10.9c1.8-1.1,3.5,0.9,5.6-1c1.4-1.3,1.2-5.7,4.1-6.4c1.8-0.4,3.2,0.9,4.9,1.2c2.1,0.3,6.8-6.6,9.7-5
			c1.3,0.7,1.7,1.7,1.4,3.1c-0.3,1.5-1.1,2.9-1.5,4.4c-0.4,1.9,2.2,1.8,1.9,3.8c-0.2,1.9-2.5,3.8-2.5,5c0,1.4,2.1,2.3,2.2,3.9
			c0.3,3.2-6.4,3.3-7,5c-0.5,1.7,0.8,3-0.5,5.1c-1.4,2.2-6.1,0.3-7.9,1c-1.5,0.6-0.6,4.1-1.5,5.5c-2.6,3.8-15-1.5-20.1,5.5
			L568.9,429.9L568.9,429.9z"/>
		<path class="st41" d="M569.3,430.3c0,0,13.2-11.2,20.5-19.6c5.6-6.4,13.1-17.4,13.1-17.4s-7,11.1-12.4,17.6
			c-6.5,7.9-18.7,18.5-18.7,18.5L569.3,430.3L569.3,430.3z"/>
		<path class="st49" d="M568.1,430.6l2.2-0.6c0,0-0.8,0.9-1.1,1.2c-0.3,0.2-1,0.9-1,0.9L568.1,430.6L568.1,430.6z"/>
		<path class="st57" d="M568,448.9c-1.1-0.8-0.8-4.3,0.6-6.6c1.2-2.1,3.1-3.2,3.9-2.8c2.9,1.4,6.5,5.9,5.4,8.4
			C576.7,450.3,569.4,449.9,568,448.9L568,448.9z"/>
		<path class="st10" d="M573.3,440.7c-0.3,0.1-0.6,0.3-0.9,0.6c-1.2,1.3-0.6,3.8,1.2,5.5c1,0.9,2.1,1.4,3.1,1.5c0,0,0,0,0,0
			c0.3-0.2,0.4-0.4,0.5-0.6c0.4-0.9,0-2.4-1.1-4C575.4,442.5,574.3,441.4,573.3,440.7L573.3,440.7z"/>
		<path class="st4" d="M602.8,297c-2.7-0.9-4.6-6-3.5-10.5c1.1-4.5,12.5-2.6,11.3,2.7C609.6,293.3,605.1,297.8,602.8,297L602.8,297z
			"/>
		<path class="st4" d="M610.3,287.5c-0.4,2.7-3.9,3-5.6,2.6c-1.7-0.3-5-2.2-4.6-4.4c0.8-4.7,4.6-8.3,6.8-8
			C609.4,278.2,610.9,283.2,610.3,287.5L610.3,287.5z"/>
		<path class="st44" d="M603,296.2c-2.3-0.4-4.1-5.1-3-9.5c1-4.1,10.8-1.5,9.9,2.3C608.9,293.2,605.2,296.5,603,296.2L603,296.2z"/>
		<path class="st57" d="M606.8,278.5c1.9,0.3,3.9,4.6,3.3,8.9c-0.3,2.1-3.6,2-5.3,1.6c-1.8-0.4-4.8-1.6-4.6-3.2
			C601,281.2,605.1,278.2,606.8,278.5L606.8,278.5z"/>
		<path class="st10" d="M606.5,279.1c-0.1,0-0.2,0-0.3,0.1c0.1,0.8,0.6,1.9,0.8,3.2c0.3,1.7,0.3,4.5,1.4,4.3c0.7-0.1,1-0.7,1.1-1.8
			c0,0,0,0,0,0c-0.1-1.1-0.4-2.2-0.7-3.1c-0.6-1.5-1.6-2.5-2.1-2.6C606.7,279.1,606.6,279.1,606.5,279.1L606.5,279.1z"/>
		<path class="st26" d="M446,521.2c-0.9-1.3,1.2-5.4,5.5-4.9c1.9,0.2,1,2.9-1.4,4.6C448.4,522,446.9,522.5,446,521.2L446,521.2z"/>
		<path class="st44" d="M446,521.2c-0.9-1.3,0.4-4.2,4.7-4.4c1.6-0.1,1.7,2.4-0.6,4C448.4,522,446.9,522.5,446,521.2L446,521.2z"/>
		<path class="st26" d="M460.7,502.8c0,0-0.1-1.6-2-2.3c-1.6-0.6-2.6,0.7-2.6,0.7 M458.9,505c0,0-0.1-1.6-2-2.1
			c-1.7-0.4-2.4,1.1-2.4,1.1"/>
	</g>
	<g id="motto">
		<path class="st1" d="M468.7,498.4c9-0.1,15.7-1,23.4-2.5c-1.8,6.2-5.4,17.9,9,17.9c10.5,0,21.7-6.3,32.5-0.8
			c23.7,12.2,41.6,3.5,56.1-12.8c0,0-10.7,2.3-21.7,1.8c0,0,8.2-7,9-16.3c-7.2,5.4-14.5,6.2-21.7,6.2c-7.2,0-11.9-4.4-21.3-5.9
			c0.5-3.3,1.1-6.6,2-11.2c0.9-5-0.5-9.1-7.8-9.9c-15.9-1.9-31.3,7.3-59.4,7.7c-28.3-0.4-47.7-9.6-63.6-7.7
			c-7.3,0.9-8.7,4.9-7.8,9.9c0.9,4.6,1.4,7.9,2,11.2c-9.5,1.5-14.1,5.9-21.3,5.9c-7.2,0-14.5-0.8-21.7-6.2c0.8,9.2,9,16.3,9,16.3
			c-11,0.5-21.7-1.8-21.7-1.8c14.5,16.3,32.4,25,56.1,12.8c10.8-5.6,22,0.8,32.5,0.8c14.5,0,10.8-11.7,9-17.9
			C449.6,497.5,458.7,498.4,468.7,498.4L468.7,498.4L468.7,498.4z"/>
		<path d="M394,498.5c-1.1,0.5-1.6-0.2-0.4-0.8c0.8-0.4,4.5-2,7.1-2.5c0.1,0,0.2,0.1,0.2,0.2l0.1,0.7c0,0.1-0.1,0.2-0.1,0.2
			C398.4,496.7,394.9,498.1,394,498.5L394,498.5z M394.6,502c-1.1,0.5-1.6-0.2-0.4-0.8c0.8-0.4,4.7-2.3,7.3-2.8c0.1,0,0.2,0,0.2,0.1
			l0.3,0.7c0,0.1,0,0.2-0.1,0.2C399.3,499.8,395.5,501.5,394.6,502L394.6,502z M432.3,508.2c-4.5-0.5-9.8-1.8-15.5-2.6
			c-7.2-1-13.4-0.6-20.8,2.7c-0.4,0.2-0.6,0.2-0.8,0.2c-0.1,0-0.3,0-0.4-0.2c0-0.2,0.1-0.3,0.2-0.4c0.1-0.1,0.3-0.2,0.5-0.3
			c6.9-3.5,14.2-4.2,21.5-3.2c5.6,0.8,11,1.9,15.5,2.4c2.5,0.3,5.4-0.2,6.4-1.7c0.3-0.4,1,0.5,0.7,0.8
			C438.1,508.3,434.8,508.5,432.3,508.2L432.3,508.2z M393.1,495.4c-0.2,0.1-0.4,0.1-0.5,0.1c-0.1,0-0.3,0-0.4-0.2
			c-0.1-0.2,0-0.3,0.1-0.4c0.1-0.1,0.2-0.2,0.4-0.3c2.7-1.3,3.4-1.5,7.4-2.5c0.3-0.1,0.6,0.1,0.6,0.4c0.1,0.3-0.1,0.5-0.4,0.6
			C397.3,493.8,395.8,494.3,393.1,495.4L393.1,495.4z M392.5,491.9c-0.2,0.1-0.3,0.1-0.5,0.1c-0.1,0-0.3-0.1-0.3-0.2
			c-0.1-0.1,0-0.3,0.1-0.4c0.1-0.1,0.2-0.2,0.4-0.3c2.8-1.2,3.9-1.6,7.7-2.3c0.3-0.1,0.6,0.1,0.7,0.3c0.1,0.3,0,0.5-0.4,0.6
			C396.4,490.5,395,490.8,392.5,491.9L392.5,491.9z M432.3,502.4c-3.1-0.3-6.6-1-10.3-1.6c-0.4-0.1-0.5-0.4-0.5-0.7
			c0-0.3,0.3-0.5,0.7-0.5c3.7,0.6,7.2,1.3,10.2,1.6c1.3,0.1,2.4,0,3.4-0.4c0.4-0.1,0.7,0.1,0.8,0.3c0.1,0.3,0,0.6-0.3,0.8
			C435.1,502.3,433.7,502.5,432.3,502.4z M416.1,508.5c-6.1-1-13.7,0.1-19.6,3c-0.3,0.1-0.5,0.2-0.7,0.2c-0.1,0-0.4,0-0.4-0.2
			c-0.1-0.1,0-0.2,0-0.3c0-0.1,0.1-0.1,0.1-0.2c0.1-0.1,0.3-0.3,0.6-0.4c8.6-4.2,15.2-3.9,20.4-3.3c5.5,0.6,10.3,1.8,15.6,2.2
			c0.5,0,0.6,0.4,0.7,0.8c0.1,0.3,0.3,0.9-1.3,0.8C426.3,510.6,421.5,509.3,416.1,508.5L416.1,508.5z M432.3,505
			c-5.8-0.6-13.6-2.6-21-2.9c-0.4,0-0.6-0.3-0.6-0.6c0-0.3,0.2-0.5,0.6-0.5c7.5,0.3,15.3,2.1,21.1,2.7c2.2,0.2,4.5-0.2,5.7-1.2
			c0.3-0.3,1.2,0.8,0.9,1.1C437.5,505,434.6,505.3,432.3,505L432.3,505z M395.2,505.1c-1.1,0.5-1.6-0.2-0.4-0.8c1-0.5,6.2-3,9-3.2
			c0.4,0,0.7,0.2,0.8,0.5c0.1,0.3-0.1,0.6-0.5,0.6C401.6,502.5,396.2,504.7,395.2,505.1L395.2,505.1z"/>
		<path d="M539.5,498.5c1.1,0.5,1.6-0.2,0.4-0.8c-0.8-0.4-4.5-2-7.1-2.5c-0.1,0-0.2,0.1-0.2,0.2l-0.1,0.7c0,0.1,0.1,0.2,0.1,0.2
			C535.1,496.7,538.6,498.1,539.5,498.5L539.5,498.5z M538.9,502c1.1,0.5,1.6-0.2,0.4-0.8c-0.8-0.4-4.7-2.3-7.3-2.8
			c-0.1,0-0.2,0-0.2,0.1l-0.3,0.7c0,0.1,0,0.2,0.1,0.2C534.1,499.8,538,501.5,538.9,502L538.9,502z M501.2,508.2
			c4.5-0.5,9.8-1.8,15.5-2.6c7.2-1,13.4-0.6,20.8,2.7c0.4,0.2,0.6,0.2,0.8,0.2c0.1,0,0.3,0,0.4-0.2c0-0.2-0.1-0.3-0.2-0.4
			c-0.1-0.1-0.3-0.2-0.5-0.3c-6.9-3.5-14.2-4.2-21.5-3.2c-5.6,0.8-11,1.9-15.5,2.4c-2.5,0.3-5.4-0.2-6.4-1.7c-0.3-0.4-1,0.5-0.7,0.8
			C495.3,508.3,498.7,508.5,501.2,508.2L501.2,508.2z M540.4,495.4c0.2,0.1,0.4,0.1,0.5,0.1c0.1,0,0.3,0,0.4-0.2
			c0.1-0.2,0-0.3-0.1-0.4c-0.1-0.1-0.2-0.2-0.4-0.3c-2.7-1.3-3.4-1.5-7.4-2.5c-0.3-0.1-0.6,0.1-0.6,0.4c-0.1,0.3,0.1,0.5,0.4,0.6
			C536.1,493.8,537.7,494.3,540.4,495.4L540.4,495.4z M541,491.9c0.2,0.1,0.3,0.1,0.5,0.1c0.1,0,0.3-0.1,0.3-0.2
			c0.1-0.1,0-0.3-0.1-0.4c-0.1-0.1-0.2-0.2-0.4-0.3c-2.8-1.2-3.9-1.6-7.7-2.3c-0.3-0.1-0.6,0.1-0.7,0.3c-0.1,0.3,0,0.5,0.4,0.6
			C537.1,490.5,538.4,490.8,541,491.9L541,491.9z M501.1,502.4c3.1-0.3,6.6-1,10.3-1.6c0.4-0.1,0.5-0.4,0.5-0.7
			c0-0.3-0.3-0.5-0.7-0.5c-3.7,0.6-7.2,1.3-10.2,1.6c-1.3,0.1-2.4,0-3.4-0.4c-0.4-0.1-0.7,0.1-0.8,0.3c-0.1,0.3,0,0.6,0.3,0.8
			C498.4,502.3,499.7,502.5,501.1,502.4L501.1,502.4z M517.3,508.5c6.1-1,13.7,0.1,19.6,3c0.3,0.1,0.5,0.2,0.7,0.2
			c0.1,0,0.4,0,0.4-0.2c0.1-0.1,0-0.2,0-0.3c0-0.1-0.1-0.1-0.1-0.2c-0.1-0.1-0.3-0.3-0.6-0.4c-8.6-4.2-15.2-3.9-20.4-3.3
			c-5.5,0.6-10.3,1.8-15.6,2.2c-0.5,0-0.6,0.4-0.7,0.8c-0.1,0.3-0.3,0.9,1.3,0.8C507.2,510.6,512,509.3,517.3,508.5L517.3,508.5z
			 M501.2,505c5.8-0.6,13.6-2.6,21-2.9c0.4,0,0.6-0.3,0.6-0.6c0-0.3-0.2-0.5-0.6-0.5c-7.4,0.3-15.3,2.1-21.1,2.7
			c-2.2,0.2-4.5-0.2-5.7-1.2c-0.3-0.3-1.2,0.8-0.9,1.1C496,505,498.9,505.3,501.2,505L501.2,505z M538.2,505.1
			c1.1,0.5,1.6-0.2,0.4-0.8c-1-0.5-6.2-3-9-3.2c-0.4,0-0.7,0.2-0.8,0.5c-0.1,0.3,0.1,0.6,0.5,0.6
			C531.8,502.5,537.2,504.7,538.2,505.1z"/>
		<g>
			<path class="st4" d="M466.7,498.5c-12.1,0-20-1.8-30.7-3.8c-25.1-4.5-30.6-1.1-30.6,3.3c0,1.4,1.3,1.8,2.2,1.4
				c0.5-0.2,0.9-1,0.9-1c-0.9,0-1.5-0.4-1.3-1.5c0.5-3.2,7.1-4.6,28.7-1.1c10.8,1.8,18.7,3.3,30.7,3.3L466.7,498.5L466.7,498.5z
				 M466.7,498.5c12.1,0,20-1.8,30.7-3.8c25.1-4.5,30.6-1.1,30.6,3.3c0,1.4-1.3,1.8-2.2,1.4c-0.5-0.2-0.9-1-0.9-1
				c0.9,0,1.5-0.4,1.3-1.5c-0.5-3.2-7.1-4.6-28.7-1.1c-10.8,1.8-18.7,3.3-30.7,3.3L466.7,498.5L466.7,498.5z"/>
			<path class="st62" d="M399.4,486.3c-4,0.6-7.6,2-11.4,3.5c-10.2,4-21.8,3.4-30.8-3c0.6,4.6,2.6,8.5,5.6,12c0.7,0.8,2.9,3,2.9,3
				c0.4,0.4,0.3,0.6-0.2,0.6c-6.9,0.3-13.2,0.2-20-1.1c16.1,17.7,32.2,22.1,54.2,11.4c11.6-5.6,21.2,0.7,32.7,0.7
				c12.2,0,11.1-8,8.4-17.1l1.5,0.2c2,5.6,5.1,19.3-9.9,18.2c-11.5-0.9-20.7-6.7-32.3-1.2c-17.8,8.5-30.7,8.4-46.3-3.1
				c-3.2-2.3-8.3-6.6-10.4-9.8c-0.5-0.8,0-1.2,0.8-1c5.9,1.8,14.8,1.8,19.4,1.7c-3.7-3.7-7.8-10.6-7.6-15.5c0-0.6,0.3-0.8,0.9-0.5
				c8.4,4.4,11.6,6.1,21.4,6.1c5.8,0,17.6-6.5,21.1-5.8L399.4,486.3L399.4,486.3z"/>
			<path class="st4" d="M534,486.3c4,0.6,7.6,2,11.4,3.5c10.2,4,21.8,3.4,30.8-3c-0.6,4.6-2.6,8.5-5.6,12c-0.7,0.8-2.9,3-2.9,3
				c-0.4,0.4-0.3,0.6,0.2,0.6c6.9,0.3,13.2,0.2,20-1.1c-16.1,17.7-32.2,22.1-54.2,11.4c-11.5-5.6-21.2,0.7-32.7,0.7
				c-12.2,0-11.1-8-8.4-17.1l-1.5,0.2c-2,5.6-5.1,19.3,9.9,18.2c11.5-0.9,20.7-6.7,32.3-1.2c17.8,8.5,30.7,8.4,46.3-3.1
				c3.2-2.3,8.3-6.6,10.4-9.8c0.5-0.8,0-1.2-0.8-1c-5.9,1.8-14.8,1.8-19.4,1.7c3.7-3.7,7.8-10.6,7.6-15.5c0-0.6-0.3-0.8-0.9-0.5
				c-8.4,4.4-11.6,6.1-21.4,6.1c-5.8,0-17.6-6.5-21.1-5.8L534,486.3L534,486.3z"/>
			<path class="st62" d="M466.1,472.7c-13.8,0.1-25.4-2.4-35.1-4.6c-8-1.8-17.4-3.9-25.7-2.8c-6,0.8-8.5,3.5-7.4,9.5
				c1.3,7.5,2.4,15.1,3.8,22.6c0.8,4.3,3.1,4.9,7.2,4.2c5.9-1,24.7-5.2,28.9,0.1c4.1,5.1,0.1,8.8-5.5,8.9c-0.8,0-0.5-0.5-0.3-0.5
				c5.4,0,9.2-3.1,5.7-7.9c-3.7-5-21.3-1.3-28.4,0.3c-4.6,1.1-7.6,0.5-8.4-5.1c-1.2-7.7-1.9-13-4.3-23c-4.1-16.9,25.9-9,34.6-7
				c11.8,2.7,21.7,4.5,35.7,4.9c14-0.4,23.9-2.2,35.7-4.9c8.7-2,38.7-9.8,34.6,7c-2.4,10-3.2,15.3-4.3,23c-0.8,5.6-3.9,6.2-8.4,5.1
				c-7.2-1.7-24.8-5.4-28.4-0.3c-3.5,4.8,0.3,7.9,5.7,7.9c0.3,0,0.5,0.5-0.3,0.5c-5.6-0.1-9.6-3.8-5.5-8.9c4.2-5.3,23-1.1,28.9-0.1
				c4.1,0.7,6.4,0.1,7.2-4.2c1.4-7.5,2.5-15.1,3.8-22.6c1-6.1-1.4-8.7-7.4-9.5c-8.3-1.1-17.6,1-25.7,2.8c-9.7,2.2-21.3,4.7-35.1,4.6
				H466.1L466.1,472.7z"/>
		</g>
		<g id="text">
			<path d="M421.8,486.8c-1.9-0.2-4.9-0.3-4.9-0.3l-1.1-15l3.7,0.4l0.8,11.7c0.4,0,2,0.1,3.1,0.3c1.2,0.1,3.2,0.5,3.2,0.5l0.2,3
				C426.7,487.3,423.7,486.9,421.8,486.8L421.8,486.8z"/>
			<path d="M429.7,487.6l-0.8-14.5l3.7,0.6l0.8,14.5L429.7,487.6z"/>
			<path d="M440.8,480.9l1.2,0.2c1.9,0.3,2-0.3,2-1.1c0-0.9-0.5-1.5-2.3-1.8l-1-0.2L440.8,480.9L440.8,480.9z M440.9,486.6l1.7,0.3
				c2,0.3,2.5,0,2.5-1c0-1.2-0.7-1.9-2.9-2.2l-1.4-0.2L440.9,486.6L440.9,486.6z M443.1,489.9l-5.8-1l-0.3-14.3l5.2,0.9
				c3.6,0.6,5.5,2.2,5.6,4.9c0,1.1-0.6,1.9-1.3,2.3c1,0.6,2.5,1.9,2.5,3.8C449,489.1,447.4,490.6,443.1,489.9L443.1,489.9z"/>
			<path d="M456.8,491.8c-1.9-0.2-5.1-0.6-5.1-0.6l-0.1-7.2l-0.1-7.2l8.3,0.9l0,1.4l0,1.4l-4.6-0.5l0.1,3l4.9,0.5l0.1,2.7l-4.9-0.5
				l0.1,3.1c0.4,0.1,2,0.3,3.2,0.4c1.3,0.1,3.3,0.2,3.3,0.2l0.1,2.9C461.9,492.2,458.7,492,456.8,491.8L456.8,491.8z"/>
			<path d="M468.9,484.4c1.9,0,2.8-0.9,2.8-2.2c0-1.4-0.6-2-2.4-1.9l-1.6,0l0.1,4.1L468.9,484.4L468.9,484.4z M477,491.9
				c-2.9-0.1-4.4-1.5-5.9-3.2l-1.6-1.8c-0.2,0-0.5,0-0.7,0l-0.9,0l0.1,5.1l-3.6,0.1l-0.2-14.5l5.6-0.1c3.2-0.1,5.6,1.4,5.6,4.6
				c0,1.6-0.7,3-2.2,3.9l1.4,1.5c0.8,0.8,1.7,1.3,3.2,1.7L477,491.9L477,491.9z"/>
			<path d="M477.2,480.3l0-2.9l12.8-1.8l0,2.9l-4.6,0.6l0.1,11.5l-3.7,0.5l-0.1-11.5L477.2,480.3z"/>
			<path d="M497.7,477.4c-0.4,1.6-0.9,3.1-1.4,4.7c1-0.1,2.1-0.3,3-0.6c-0.4-1.4-0.9-2.8-1.3-4.2L497.7,477.4z M501.6,487.9
				l-1.4-3.9c-0.8,0.3-1.6,0.4-2.4,0.6c-0.8,0.1-1.7,0.2-2.4,0.3l-1.6,4.5l-3.7,0.7l4.5-12.4l-1.6,0.3l0-2.9
				c3.3-0.5,6.5-1.1,9.8-1.8l0.1,2.8l-1.6,0.3l4.1,10.8L501.6,487.9L501.6,487.9z"/>
			<path d="M511.3,487c-2.4,0-3.6-0.4-4.7-0.9l1-2.7c1.3,0.4,2.1,0.6,3.7,0.6c1.7,0,2.6-0.6,2.6-1.4c0-0.5-0.4-0.9-1.1-1.2
				c-0.7-0.3-1.6-0.6-2.5-1c-1.8-0.7-3.7-1.8-3.7-4.2c0.1-2.8,3.2-4.3,5.7-4.3c2.3,0,3.6,0.4,4.7,0.9l-0.9,2.6
				c-1.1-0.3-2.2-0.6-3.7-0.5c-1.4,0-2.3,0.8-2.3,1.3c0,0.4,0.4,0.7,1.1,1.1c0.7,0.3,1.6,0.6,2.5,1c1.9,0.8,3.8,1.9,3.7,4.2
				C517.5,485.6,514.3,486.9,511.3,487L511.3,487z"/>
		</g>
	</g>
</g>
</svg>
