<?xml version="1.0" encoding="utf-8"?>
<!-- Generator: Adobe Illustrator 23.1.0, SVG Export Plug-In . SVG Version: 6.00 Build 0)  -->
<svg version="1.1" id="Layer_1" xmlns="http://www.w3.org/2000/svg" xmlns:xlink="http://www.w3.org/1999/xlink" x="0px" y="0px"
	 viewBox="0 0 1400 700" style="enable-background:new 0 0 1400 700;" xml:space="preserve">
<style type="text/css">
	.st0{fill:#006400;}
	.st1{fill:#FFD200;}
	.st2{fill:#D40000;}
	.st3{clip-path:url(#SVGID_2_);stroke:#000000;stroke-width:33.3333;}
	.st4{fill:#FFFFFF;}
	.st5{fill:#FFCC00;}
</style>
<path class="st0" d="M0,0h1400v700H0V0z"/>
<path class="st1" d="M0,100h1400v500H0V100z"/>
<path class="st2" d="M0,200h1400v300H0V200z"/>
<path d="M0,300h1400v100H0V300z"/>
<g>
	<defs>
		<rect id="SVGID_1_" y="0" width="1400" height="700"/>
	</defs>
	<clipPath id="SVGID_2_">
		<use xlink:href="#SVGID_1_"  style="overflow:visible;"/>
	</clipPath>
	<path class="st3" d="M0,0v700l466.7-350L0,0z"/>
</g>
<path class="st4" d="M0,0v700l466.7-350L0,0z"/>
<path class="st2" d="M177.5,174L270,458.5L28,282.7h299.1l-242,175.8L177.5,174z"/>
<path class="st5" d="M137.9,422.8l16.3-3l30.3-1.2l11.1,1l24.9,4.2l1.9-2.5v-18l2.8-15.4l5.2-15.7l5.3-12.5l7-12.9l11.4,2.8h3
	l0.3-2.2l-23.9-20.5l-25.1-19.2l-36.1-27l-3.3-0.9l-4-28.2l-2.8-8.6l-3.7-3.3l-7.3-2.4l-8,0.3l-3.6,2.1l-7.7,1.8l-4,0.6l-2.7,3.1
	l-0.3,4l11.1,0.3l2.8,1.2l-0.3,1.2l-6.4,0.9l-3,0.9l3.6,2.7l3.6,1.3l4.8,1.8l0.9,3.1l0.4,43.2l-2.5,6.7l-0.9,12.5l3.7,15l-9.4,10.5
	l-5.2,9.5l-0.9,5.9l-2.8,5.8l-0.4,3.7l1.9,3.9l7.1,23.8l3.7,19.5L137.9,422.8z"/>
<path d="M146.6,236.5c-2.9,0-4.2,0.5-7.1,2c-2.6,1.4-5.6,2.3-7.7,2.3c-4.2,0-7.6,3-7.6,6.8v2.5l6.1-0.2c17.6,0.6,1.5,2.2,0.3,2.4
	c-4.4,0.8,1,4.3,6.1,6.1c5.5,1.8,5.3,0.8,5.3,25c0,19.9-0.2,22.7-1.7,27.2c-2.2,6.7-2.2,16.7,0,23.3c0.9,2.7,1.6,5.1,1.7,5.5
	c0,0.4-2.6,3.6-5.8,7.2c-5.8,6.5-9.4,13.5-9.4,18.4c0,1.1-0.8,3-1.7,4.3c-2.1,2.8-2.2,7.7-0.1,9.6c2.2,1.9,11.1,36.3,11.1,42.8
	c0,2.4,0.4,2.4,14-0.4c10.9-2.2,36.8-2.7,49.8-0.9c6,0.8,13.1,2,15.6,2.7c8,2.1,7.6,2.5,7.6-7.2c0-15,2.8-29.3,8.6-44.6
	c2.6-6.9,9.6-21.1,11.4-23.2c0.2-0.2,3.1,0.3,6.6,1.2c7,1.8,8.9,1.5,8.9-1.6c0-1.7-7.2-7.7-42.2-35.2c-23.6-18.5-43-33.1-44-33.1
	c-1,0-1.9-0.5-2.1-1.1c-0.2-0.6-1.3-7.8-2.5-15.9c-1.2-8.2-2.8-16.2-3.5-17.9c-2.2-4.9-6.8-7.5-14.2-8
	C148.9,236.6,147.8,236.5,146.6,236.5L146.6,236.5z M146.8,238.3c0.9,0,2,0,3.2,0.1c11.1,0.6,13.2,3.6,16.1,23.3
	c1.1,7.6,2.1,14.7,2.1,15.7c0,1.3-1.5,2.9-5.4,5.5c-5.7,3.8-13.1,10.8-16.7,15.8l-2.2,2.9l-0.4-6.9c-0.2-3.8-0.2-12.7,0-19.7
	c0.5-14.5,0.1-16-4.7-17.6c-3.9-1.3-9-2.7-7.5-3.6c1.6-1,3.2-0.3,7.3-1.3c1.5-0.4,1.4-0.3,1.2-1.6c-0.4-2.3-2.6-3.3-8.9-3
	c-4.9,0.3-5.6,0.1-5.2-1.2c0.7-2.7,3.5-4.4,7.6-4.8c2.2-0.2,5.5-1.2,7.2-2.2C142.6,238.8,144.1,238.3,146.8,238.3L146.8,238.3z
	 M171.6,281.4c0.2,0,0.4,0,0.7,0c2.8,0.4,84.7,64.4,84.7,66.2c0,0.7-0.7,1.3-1.5,1.3c-0.8,0-21.6-5.9-46.2-13.1
	c-39.3-11.5-45-13.4-46.7-15.4c-2.4-2.9-2.5-7.4-0.2-10.4c0.9-1.2,1.7-2.7,1.7-3.4c0-1.9-4.2,3-5,5.9c-0.9,3.4,0.8,9,3.3,10.9
	c1,0.7,8.5,3.3,16.7,5.7c13.9,4.1,14.9,4.6,15.6,6.9c1.8,5.5-4.1,12-12.5,13.8c-2.7,0.6-6.2,2.2-8.6,4c-9.5,7.2-16.2,11.4-21.7,13.8
	c-3.3,1.4-6.4,3-7,3.6c-0.6,0.6-1.4,3.1-1.9,5.7c-1,5.4-1.4,6.3-3,6.3c-0.9,0-1-0.5-0.4-2.2c1.2-3.2,1.1-7.4-0.3-7.4
	c-0.7,0-1.1,1.2-1.1,3.1c0,1.7-0.5,3.6-1.1,4.2c-0.9,0.9-1,0.2-0.7-3.9c0.3-2.8,0.1-5.1-0.3-5.1c-0.8,0-2.2,4.2-2.8,7.9
	c-0.3,2.2-0.3,2.1-1-0.4c-0.5-2-0.3-3.3,1.1-5.9c1-1.8,1.8-4.4,1.8-5.9c0-2.2,1.6-4.2,9.4-12.1c5.2-5.2,11.2-11.7,13.4-14.4
	c3.8-4.7,4-5.2,3.8-9.9c-0.1-2.7-0.4-5.2-0.7-5.5c-1-1-2.3,4.3-1.8,7.2c0.5,2.6,0,3.5-5.5,9.9c-3.3,3.9-8.9,9.7-12.4,13
	c-6.5,6.1-8.8,9.3-8.8,12.4c0,0.9-0.7,3.4-1.6,5.5c-0.9,2.1-1.4,4.2-1.1,4.7c0.3,0.6,0.1,0.5-0.5-0.1c-0.7-0.7-0.8-2-0.2-4.8
	c0.5-2.1,0.6-4.1,0.4-4.5c-0.9-1.5-2,0.4-2.5,4.6c-0.3,2.4-0.9,4.1-1.3,3.9c-1.2-0.8-0.8-5.1,0.7-7.3c0.8-1.1,1.7-3.9,2.1-6.1
	c1.1-6.2,3.8-11.1,9.7-17.7c3-3.4,5.4-6.2,5.4-6.4c0-0.2-0.8-2.6-1.7-5.5c-2.2-6.6-2.4-16.6-0.3-22.7c2.1-6.4,6.5-12.8,13.4-19.5
	C161.8,285.5,168.1,281.5,171.6,281.4L171.6,281.4z M196.7,335c0.8-0.1,1.5,0.3,1.6,0.8c0,0,0,0.1,0,0.1c-0.1,0.5-0.8,0.9-1.6,0.8
	c-0.7-0.1-1.2-0.4-1.2-0.8C195.5,335.5,196,335.1,196.7,335L196.7,335z M200.8,335.6C200.8,335.6,200.8,335.6,200.8,335.6
	c0.8-0.1,1.6,0.3,1.7,0.8c0,0.1,0,0.1,0,0.2c0,0.5-0.6,1-1.4,1c-0.8,0-1.4-0.4-1.4-1C199.6,336.1,200.1,335.7,200.8,335.6z
	 M205.2,336.4c0.1,0,0.1,0,0.2,0c0.8,0,1.5,0.4,1.5,0.9c0,0,0,0.1,0,0.1c-0.1,0.5-0.8,0.9-1.6,0.8c-0.6-0.1-1.2-0.4-1.2-0.8
	C204,336.9,204.5,336.5,205.2,336.4L205.2,336.4z M209.1,337.2c0.1,0,0.1,0,0.2,0c0.8,0,1.5,0.4,1.5,0.9c0,0,0,0.1,0,0.1
	c0,0.5-0.7,0.9-1.5,0.9c-0.8,0-1.4-0.4-1.4-0.9C207.9,337.7,208.4,337.3,209.1,337.2L209.1,337.2z M198.6,338.2
	C198.6,338.2,198.6,338.2,198.6,338.2c0.8-0.1,1.6,0.3,1.7,0.8c0,0.1,0,0.1,0,0.2c0,0.5-0.6,1-1.4,1c-0.8,0-1.4-0.4-1.4-1
	C197.4,338.7,197.9,338.2,198.6,338.2z M202.7,338.8c0.8-0.1,1.5,0.3,1.7,0.8c0,0.1,0,0.1,0,0.2c0,0.5-0.6,1-1.4,1
	c-0.8,0-1.4-0.4-1.4-1C201.5,339.3,202,338.9,202.7,338.8z M211.4,339.2c0.8-0.1,1.5,0.3,1.7,0.8c0,0.1,0,0.1,0,0.2
	c0,0.5-0.6,1-1.4,1c-0.8,0-1.4-0.4-1.4-1C210.2,339.7,210.7,339.3,211.4,339.2L211.4,339.2z M206.8,339.2c0.8-0.1,1.5,0.3,1.7,0.8
	c0,0.1,0,0.1,0,0.2c0,0.5-0.7,0.9-1.5,0.9c-0.8,0-1.4-0.4-1.4-0.9C205.6,339.7,206.1,339.3,206.8,339.2L206.8,339.2z M215.2,340.2
	c0.1-0.2,6.1,1.3,13.3,3.4l13.1,3.8l-2.5,4.5c-1.4,2.5-3.2,5.8-3.9,7.3c-1.5,3.2-2.1,3.2-9.9,1.4c-8.7-2-22.4-3.9-36.4-5l-13.4-1.1
	l5.1-1.9c2.8-1.1,6.8-2.9,8.9-4c3.3-1.8,4.6-2.1,9.7-1.7c7.5,0.6,12.6-0.8,14.5-4C214.1,342,214.7,341.1,215.2,340.2L215.2,340.2z
	 M200.5,341.2C200.5,341.2,200.5,341.2,200.5,341.2c0.8-0.1,1.6,0.3,1.7,0.8c0,0.1,0,0.1,0,0.2c0,0.5-0.6,1-1.4,1
	c-0.8,0-1.4-0.4-1.4-1C199.3,341.7,199.8,341.2,200.5,341.2z M209.9,341.2C209.9,341.2,209.9,341.2,209.9,341.2
	c0.8-0.1,1.6,0.3,1.7,0.8c0,0.1,0,0.1,0,0.2c0,0.5-0.6,1-1.4,1c-0.8,0-1.4-0.4-1.4-1C208.7,341.7,209.2,341.2,209.9,341.2
	L209.9,341.2z M196.4,341.3c0.1,0,0.1,0,0.2,0c0.8,0,1.5,0.4,1.5,0.9c0,0,0,0.1,0,0.1c0,0.5-0.6,1-1.4,1c-0.8,0-1.4-0.4-1.4-1
	C195.2,341.8,195.7,341.4,196.4,341.3L196.4,341.3z M205.3,341.4c0.8-0.1,1.5,0.3,1.7,0.8c0,0.1,0,0.1,0,0.2c0,0.5-0.7,0.9-1.5,0.9
	c-0.8,0-1.4-0.4-1.4-0.9C204.1,341.9,204.6,341.5,205.3,341.4L205.3,341.4z M194.4,343.4C194.4,343.4,194.4,343.4,194.4,343.4
	c0.8-0.1,1.5,0.3,1.7,0.8c0,0.1,0,0.1,0,0.2c-0.1,0.5-0.8,0.9-1.6,0.8c-0.7-0.1-1.2-0.4-1.2-0.8
	C193.2,343.9,193.7,343.5,194.4,343.4L194.4,343.4z M198.5,343.5c0.1,0,0.1,0,0.2,0c0.8,0,1.5,0.4,1.5,0.9c0,0,0,0.1,0,0.1
	c-0.1,0.5-0.8,0.9-1.6,0.8c-0.7-0.1-1.2-0.4-1.2-0.8C197.3,344,197.8,343.6,198.5,343.5z M202.8,343.6c0.8-0.1,1.5,0.3,1.7,0.8
	c0,0.1,0,0.1,0,0.2c0,0.5-0.6,1-1.4,1c-0.8,0-1.4-0.4-1.4-1C201.7,344.1,202.2,343.7,202.8,343.6L202.8,343.6z M207.5,343.7
	C207.5,343.7,207.5,343.7,207.5,343.7c0.8-0.1,1.5,0.3,1.7,0.8c0,0.1,0,0.1,0,0.2c-0.1,0.5-0.8,0.9-1.6,0.8
	c-0.6-0.1-1.2-0.4-1.2-0.8C206.3,344.3,206.8,343.8,207.5,343.7L207.5,343.7z M173.6,357.2c5.7-0.2,25.7,1.3,35.2,2.7
	c8.3,1.3,22.9,4,23.4,4.3c0.1,0.1-1.1,4.1-2.8,8.9c-1.7,4.8-3.2,9.2-3.4,9.9c-0.3,0.9-1.3,1-4.1,0.6c-13.9-2.2-53.9-2-69.3,0.3
	c-8.7,1.3-10,1.2-9.3-0.6c0.3-0.8,1.1-3.5,1.6-5.9l1-4.4l9.3-4.8c5.1-2.7,10.8-6,12.6-7.5c1.8-1.5,3.8-3,4.3-3.3
	C172.3,357.3,172.8,357.2,173.6,357.2L173.6,357.2z M128.7,380.9c0.4,0,1.5,0.5,2.7,1.3c1.6,1,3.6,1.8,4.4,1.8
	c4.4,0.1,6.7,6.2,10.4,26.8c0.4,2.4,0.9,4.8,1.3,7.2c0.3,1.7-0.1,2-3.9,2.9c-4.7,1.1-5.9,1.1-5.9,0.5c0-1.8-4.7-22.9-6.7-30.3
	c-1.4-5.1-2.6-9.5-2.6-9.9c0-0.1,0-0.1,0.1-0.1C128.6,380.9,128.6,380.9,128.7,380.9z M176.4,384h4.8l-1.6,1.8
	c-2.8,3.3-4.2,3.6-6.2,1.4c-1-1.1-1.8-2.3-1.8-2.6C171.6,384.3,173.7,384,176.4,384L176.4,384z M186.5,384h9.1l-2,2.2
	c-2.4,2.7-2.6,2.7-5.1,0L186.5,384z M200.2,384h2.1c1.1,0,3.2,0.2,4.7,0.5l2.6,0.5l-2.4,2.1c-1.3,1.2-2.5,2.1-2.7,2.1
	c-0.2,0-1.2-1.2-2.3-2.7L200.2,384z M214.3,384.7l2.1,0.5c1.2,0.3,3.6,0.6,5.5,0.6h3.4l-2.5,2.2c-1.4,1.2-2.7,2.2-3,2.2
	c-0.3,0-1.6-1.2-3-2.7L214.3,384.7z M163.9,384.9c0.2,0,0.4,0,0.4,0.1c0.2,0.2-0.5,1.4-1.6,2.7l-1.9,2.3l-2.4-2l-2.4-2l4.1-0.6
	C161.7,385.1,163.2,384.9,163.9,384.9L163.9,384.9z M167.8,385.2c0-0.1,1.2,1,2.7,2.3l2.7,2.5l-5,0.3l-5,0.3l2.3-2.6
	C166.8,386.5,167.8,385.3,167.8,385.2z M198,385.2c0.4,0,0.7,0.2,1.1,0.6c0.7,0.6,1.7,1.9,2.2,2.8c0.7,1.4,0.5,1.6-1.5,1.5
	c-1.3,0-3.2-0.3-4.3-0.7l-2-0.6l2.2-2.1C196.7,385.6,197.4,385.1,198,385.2L198,385.2z M184,385.2c0.9-0.1,1.7,0.6,2.7,2.1
	c1.2,1.9,1.2,1.9-3.3,1.9l-4.5,0l2.4-2.2C182.4,385.9,183.2,385.3,184,385.2L184,385.2z M212.2,385.5l2.1,2c2.3,2.2,2.7,3.6,1,3.3
	c-0.6-0.1-2.7-0.3-4.7-0.5l-3.6-0.3l2.6-2.3L212.2,385.5z M153.7,386.7c0.4,0,1.6,1,2.7,2.1l1.9,2.1l-4.1,0.6
	c-2.3,0.3-4.9,0.7-5.8,0.9c-1.3,0.3-0.9-0.4,1.5-2.7C151.6,388,153.3,386.7,153.7,386.7L153.7,386.7z M147.4,386.8
	c0.3,0,0.5,0,0.8,0.1c1.4,0.2,1.3,0.6-1,2.8l-2.6,2.6l-0.8-2.1c-0.6-1.7-0.4-2.2,1-2.8C145.6,387,146.6,386.8,147.4,386.8z
	 M224,389.7c0.4,0,0.5,0.3,0.3,0.9c-0.5,1.4-2,1.7-2,0.5c0-0.4,0.6-1,1.3-1.2C223.7,389.8,223.9,389.7,224,389.7L224,389.7z
	 M188.5,392.4c12.8,0,25.8,0.3,28.9,0.7c5.3,0.7,5.7,0.9,5.7,2.8c0,2.3-0.7,2.5-7.6,1.2c-2.1-0.4-10.5-1.2-18.7-1.8
	c-14.2-1.1-31.8-0.5-47.5,1.5c-3.2,0.4-4,0.3-4-0.8C145.4,393.8,162.4,392.4,188.5,392.4L188.5,392.4z M171.3,397.2h9l-2,2.2
	c-2.4,2.7-2.6,2.7-5.1,0L171.3,397.2z M182.9,397.2l2.4,2.3c1.3,1.3,2.4,2.5,2.4,2.7c0,0.2-2.2,0.3-4.8,0.3H178l2.4-2.7L182.9,397.2
	z M186.5,397.2h9.1l-2,2.2c-2.4,2.7-2.6,2.7-5.1,0L186.5,397.2z M165.1,397.3c0.4,0,0,0.7-1.2,2.4c-1.1,1.5-2.2,2.8-2.5,2.8
	c-0.3,0-1.4-1-2.5-2.2l-2-2.2h3c1.7,0,3.7-0.3,4.5-0.6C164.8,397.4,165,397.3,165.1,397.3L165.1,397.3z M168.5,398.1l2.2,2
	c1.2,1.1,2.3,2.1,2.4,2.1c0.1,0.1-1.8,0.3-4.4,0.4l-4.7,0.3l2.2-2.4L168.5,398.1z M197.5,398.1l2.4,2.7c2.7,2.9,2.4,3-3.7,1.8
	l-2.8-0.5l2-2L197.5,398.1z M200.9,398.1h3.9c4.3,0,4.8,0.7,2.4,2.9c-2,1.9-2,1.9-4.3-0.7L200.9,398.1z M149.8,399
	c1.9,0,1.9,0.2-0.6,2.6c-1.9,1.9-2.1,1.9-2.7,0.5C145.9,400.4,147.4,399,149.8,399L149.8,399z M214.5,399.2c0.6,0,2,0.1,3.5,0.4
	l3.6,0.6l-2.1,2l-2.1,2l-1.8-2.4c-1-1.3-1.7-2.5-1.5-2.7C214.1,399.2,214.3,399.2,214.5,399.2L214.5,399.2z M154.6,400
	c0.5-0.1,1,0.3,1.8,1.2c1.7,1.6,1.7,1.7,0.3,2.3c-0.8,0.3-2.7,0.7-4.1,0.7l-2.5,0.1l2.3-2.4C153.5,400.7,154,400.1,154.6,400
	L154.6,400z M211.4,400.5c0.6,0,1.1,0.5,1.9,1.6l1.5,2.1h-3.5c-2.3,0-3.4-0.4-3.2-1c0.2-0.6,1.1-1.5,2-2.1
	C210.6,400.7,211,400.5,211.4,400.5L211.4,400.5z M222.1,402.7c0.2,0,0.2,0.3,0.2,0.9c0,1.6-1.4,2.7-2,1.6c-0.3-0.4,0.1-1.3,0.8-1.9
	C221.5,402.9,221.9,402.7,222.1,402.7L222.1,402.7z M178.8,404.7c14.5,0,30.5,0.9,39.8,2.7l2.8,0.5v7.3c0,5.4-0.3,7.3-1,7.2
	c-0.6-0.1-4.3-0.8-8.2-1.7c-11.9-2.7-25.4-3.7-40.6-3.1c-7.7,0.3-15.7,0.9-17.8,1.3l-3.9,0.7l-1-6.1c-0.5-3.4-0.8-6.2-0.7-6.4
	c0.1-0.2,3.9-0.8,8.2-1.4C162.1,405.1,170.2,404.7,178.8,404.7z"/>
<path id="b" d="M207.9,362.9c-4.9,0-8.5,3.6-8.5,8.8c0,8,9,11.9,14.4,6.2C219.3,372.3,215.6,362.9,207.9,362.9L207.9,362.9z
	 M207.9,365c3.6-0.1,6.8,2.7,6.8,6.8c0,4.8-5.6,8.2-9.9,5.9c-4.6-2.4-4.3-10.1,0.5-12.2C206.2,365.2,207,365,207.9,365z"/>
<g>
	<path d="M185.6,362.3c-4.9,0-8.5,3.6-8.5,8.8c0,8,9,11.9,14.4,6.2C197.1,371.6,193.3,362.3,185.6,362.3L185.6,362.3z M185.6,364.3
		c3.7-0.1,6.8,2.7,6.8,6.8c0,4.8-5.6,8.2-9.9,5.9c-4.6-2.4-4.3-10.1,0.5-12.2C183.9,364.6,184.7,364.4,185.6,364.3z"/>
</g>
<path d="M146.7,242.1c-1.5,0.1-2.7,1.4-2.7,2.9c0,1.6,1.3,2.9,2.9,2.9c1.6,0,2.9-1.3,2.9-2.9c0,0,0,0,0,0c0-1.6-1.3-2.9-2.9-2.9
	C146.8,242.1,146.8,242.1,146.7,242.1z M146.9,243.2c1,0,1.9,0.9,1.9,1.9c0,1.1-0.8,1.9-1.9,2c-1.1,0-2-0.8-2-1.9c0,0,0-0.1,0-0.1
	C144.9,244,145.7,243.2,146.9,243.2C146.8,243.2,146.9,243.2,146.9,243.2z"/>
</svg>
