<svg id="Layer_1" data-name="Layer 1" xmlns="http://www.w3.org/2000/svg" xmlns:xlink="http://www.w3.org/1999/xlink" width="408.69" height="275.2" viewBox="0 0 408.69 275.2">
  <defs>
    <style>
      .cls-1 {
        fill: none;
      }

      .cls-2 {
        clip-path: url(#clip-path);
      }

      .cls-3 {
        fill: #fff;
      }

      .cls-4 {
        stroke: #df112d;
        stroke-width: 33.42px;
      }

      .cls-4, .cls-5, .cls-6, .cls-7, .cls-8 {
        stroke-miterlimit: 133.33;
      }

      .cls-5 {
        fill: #e8112d;
      }

      .cls-10, .cls-11, .cls-12, .cls-13, .cls-5, .cls-6, .cls-7, .cls-8, .cls-9 {
        stroke: #000;
      }

      .cls-5, .cls-6 {
        stroke-width: 0.25px;
      }

      .cls-12, .cls-6, .cls-9 {
        fill: #f9dd16;
      }

      .cls-10, .cls-13, .cls-7 {
        fill: #ff0016;
      }

      .cls-7 {
        stroke-width: 0.13px;
      }

      .cls-11, .cls-14, .cls-8 {
        fill: #0051ba;
      }

      .cls-11, .cls-8 {
        stroke-width: 0.03px;
      }

      .cls-10, .cls-11, .cls-9 {
        stroke-miterlimit: 120;
      }

      .cls-9 {
        stroke-width: 0.23px;
      }

      .cls-10 {
        stroke-width: 0.12px;
      }

      .cls-12 {
        stroke-width: 0.01px;
      }

      .cls-13 {
        stroke-width: 0px;
      }
    </style>
    <clipPath id="clip-path" transform="translate(9.62 14.13)">
      <rect class="cls-1" x="-0.69" y="-0.93" width="390.84" height="247.87"/>
    </clipPath>
  </defs>
  <g class="cls-2">
    <rect class="cls-3" x="8.92" y="14.13" width="390.84" height="246.94"/>
    <path class="cls-4" d="M-.69,0,390.15,246.94m-390.84,0L390.15,0" transform="translate(9.62 14.13)"/>
    <g>
      <path class="cls-5" d="M215.18,36.94c5,21.42,2.27,47.88-20.42,62.54-22.69-14.66-25.44-41.12-20.42-62.54,5.35-5.12,29.66-8.28,40.84,0Z" transform="translate(9.62 14.13)"/>
      <path class="cls-6" d="M194.73,32.64c8.32,0,16.06,2.32,20.63,5.32a48.26,48.26,0,0,1,7.83-20.35c-3.92-.08-5.67,2.11-5.72,4.38-1-2.92-4.81-2.75-6-1.16,4.28,3.05,1,8.46-2.89,7.34a4.31,4.31,0,0,1-3.12-3.8A2.17,2.17,0,0,0,207.42,22,2.14,2.14,0,0,0,205.19,20a2.19,2.19,0,0,0-2,2.36,2.22,2.22,0,0,0,1.34,1.92,4.49,4.49,0,0,1-5,2.27,4.25,4.25,0,0,1-2.89-4.26c0-4.46,4.08-5.15,5.3-4.38-.07-3-4.56-5.39-5.95-2.91a8.34,8.34,0,0,0-1.3-9.78,8.33,8.33,0,0,0-1.3,9.78c-1.39-2.48-5.88-.08-6,2.92,1.23-.77,5.3-.08,5.3,4.39a4.25,4.25,0,0,1-2.9,4.25,4.47,4.47,0,0,1-5-2.27,2.25,2.25,0,0,0,1.2-2.88,2.06,2.06,0,0,0-2.72-1.27A2.26,2.26,0,0,0,182.15,23,2.13,2.13,0,0,0,184,24.39a4.32,4.32,0,0,1-3.12,3.8c-3.87,1.11-7.18-4.29-2.9-7.34-1.18-1.59-5-1.78-6,1.15,0-2.27-1.79-4.46-5.71-4.37A48.48,48.48,0,0,1,174.09,38c4.56-3,12.31-5.32,20.63-5.32Z" transform="translate(9.62 14.13)"/>
      <g id="leopard">
        <g>
          <path class="cls-6" d="M212,53.65c-.5.13-.5.81-.76.81a2.42,2.42,0,0,0,2.33-1.11c-.29.27,0,.8-.14.93,1-.35,1.42-1.21,1.08-1.77a1.8,1.8,0,0,0,1,.53c-.67-.56-.19-1.82-1.27-2.49a1.58,1.58,0,0,1,1.25.91A3.15,3.15,0,0,0,214.28,49a.71.71,0,0,0,.81,0,1.5,1.5,0,0,1-.69-1.41c.06-.57-.29-.68-1-.51a13.83,13.83,0,0,1-2.8.25c-1.68,0-3.13,0-4.52-1,2.08.9,4.74-1,4.74-2.6,0-1.77-2.06-3.19-6.22-2.24s-9.23.56-9.23-.9,3.63-1.67,5.5-1.37,3.2.51,6.69-.8a11.72,11.72,0,0,1-5.83-.2c-2.21-.66-7.61-.66-7.66,2.42s5.76,2.79,10.75,2c2.92-.45,4.45-.15,4.45.86s-2.69,1.36-4.74,1.1a15.22,15.22,0,0,0-6.6.56c-2,.63-3.44,0-5.69.4a5,5,0,0,1-5-2.26c-.8.6-3.22,1.86-3.62,3.1-.58,1.13-.19,2.26.57,3.37,1,1.39-.48,1.18-1.51,1.23-1.4.07-3.29-.15-4.28-1.33s-2-1.88-3-1.11a.45.45,0,0,0-.16.59.39.39,0,0,0,.52.19c.37-.15.82.14,1.21.33a1.57,1.57,0,0,0-1.61.19.51.51,0,0,0,0,.71.46.46,0,0,0,.51.09,1.41,1.41,0,0,1,1.57.14,1.44,1.44,0,0,0-1.31.21c-.26.29-.06.71.49.69.9,0,1.13.62,2,.49a1.39,1.39,0,0,0-1,.6c.84-.4,1.76.68,2.85.43-.43.18-1.11.62-1.1,1,.64-.78,5,.6,5.07-1.11a1.47,1.47,0,0,1-.24,1.33c.55-.35,2.35-.48,2.89-1.83.05.4,0,.93-.35,1.06.57.2,1.34-.25,2.1-1.46a1.6,1.6,0,0,0,.34-1.16,2.45,2.45,0,0,0,1.91-.71c.63-.55,1.3.45,2.36-.25s2-.1,2.53-.45,1.37.12,2-.28,1.59.2,2.62-.66a11.74,11.74,0,0,0,8.14.88c2.66-.51,3.5.43,3.5,1.72,0,.88-.49,1-.86,1-1.48.1-2.12-.58-2.69-.36a.58.58,0,0,0-.07,1.07.52.52,0,0,0-.16.89c.23.19.85,0,1.27-.19-.54.26-1.1.71-.78,1.2.19.3.67.55,1.14-.08A2.38,2.38,0,0,1,212,53.69Z" transform="translate(9.62 14.13)"/>
          <path class="cls-6" d="M182.52,40.35c-1.34-.58-1.79-.6-1.48.55a3.78,3.78,0,0,0,.78,1.5C181.82,41.92,182,40.6,182.52,40.35Z" transform="translate(9.62 14.13)"/>
          <path class="cls-6" d="M186.72,40.35c1.34-.58,1.79-.6,1.48.55a3.76,3.76,0,0,1-.77,1.5C187.43,41.92,187.24,40.6,186.72,40.35Z" transform="translate(9.62 14.13)"/>
          <path class="cls-6" d="M184.62,39.57c2.54,0,2.85,1.26,2.84,2.82s-.87,1.11-1.36,3.28c-.19.84-.84.89-1.48.89s-1.28-.05-1.48-.89c-.49-2.17-1.34-1.59-1.36-3.28s.31-2.82,2.84-2.82Z" transform="translate(9.62 14.13)"/>
          <path class="cls-6" d="M178.08,45.77a1.26,1.26,0,0,0-1.32-.05c.84.22.87,1.35,2.79,1.88-.44-.12-.68.13-1.08-.1A5,5,0,0,0,182,48.94c1,0,.33.58-.36.25.7.77,2.11.14,3,1.54.17-1.09-1.65-2.8-.81-4-2.59-.12-2.8-1.63-4.28-2.84-1.22-1-1.32-2-1.86-3.82-.24-.84-1.18-1.36-1.68-1.17s-.62.59-.23.9.89.36,1,1.14c-.5-.64-1.26-.87-1.62-.47a.54.54,0,0,0,.06.74.47.47,0,0,0,.27.12c.78.08.22.88,1.11,1.66-.79-.93-1.46-1-1.88-.51a.51.51,0,0,0,.54.78c.77-.09,1.68,2,2.84,2.52Z" transform="translate(9.62 14.13)"/>
          <path class="cls-6" d="M198.9,53.55c-.41.07-.29.78-.84.83a3.56,3.56,0,0,0,2.61-.86,1.21,1.21,0,0,0-.43.88,4.49,4.49,0,0,1,3.2-.5c.86.17,1-.25,1.32-.83s-.12-.91-.55-1.36a2.56,2.56,0,0,1-.44-2.13c-2.29-3.23-6.41-1.66-6.45-.25,1.48,1.81,1.68,1.61,2.92,1.86s2,.25,1.17,1c-.29.26-1.49.14-2.42.18-2.09.1-3-1.52-3.66-.68-.5.69,0,1,1,1-.71,0-1.68,0-1.5.66.27,1.19,1.35-.22,1.77.27-.36-.09-.92.14-.94.5s.8.82,1.68.07a2.51,2.51,0,0,1,1.49-.57Z" transform="translate(9.62 14.13)"/>
          <path class="cls-6" d="M200.68,48.64a3.75,3.75,0,0,0-2.31-.27" transform="translate(9.62 14.13)"/>
          <path class="cls-6" d="M189.42,48.26a3.72,3.72,0,0,0-.15,2.72" transform="translate(9.62 14.13)"/>
          <path class="cls-6" d="M182.88,41.67c.42.22.67-.41,1.28.26-.17-.19-.38.52-.86,0" transform="translate(9.62 14.13)"/>
          <path class="cls-6" d="M186.32,41.67c-.42.22-.67-.41-1.27.26.17-.19.38.52.85,0" transform="translate(9.62 14.13)"/>
          <path class="cls-6" d="M185,41.93c-.14.13-.16-.1,0,.49.2,1.1.44,1.61-.39,1.61s-.6-.51-.4-1.61c.11-.59.1-.35,0-.49" transform="translate(9.62 14.13)"/>
        </g>
        <g>
          <path class="cls-7" d="M184.62,46.12c.67,0,1.07,0,1-1,0-.41.47-.57.29-1.23.19.81-1.25.74-1.25.36,0,.35-1.45.44-1.26-.36-.18.66.34.82.29,1.23C183.54,46.11,183.93,46.12,184.62,46.12Z" transform="translate(9.62 14.13)"/>
          <path class="cls-7" d="M184,44.08l-1.65-.48" transform="translate(9.62 14.13)"/>
          <path class="cls-7" d="M184,44.17h-1.82" transform="translate(9.62 14.13)"/>
          <path class="cls-7" d="M184,44.27l-1.55.44" transform="translate(9.62 14.13)"/>
          <path class="cls-7" d="M185.23,44.08l1.63-.48" transform="translate(9.62 14.13)"/>
          <path class="cls-7" d="M185.23,44.17h1.83" transform="translate(9.62 14.13)"/>
          <path class="cls-7" d="M185.21,44.27l1.56.44" transform="translate(9.62 14.13)"/>
        </g>
        <g>
          <path class="cls-8" d="M176.14,38.92c-.47-.62-1.68-.09-1.68.68.4-.5,1.06.22,1.42.07a.54.54,0,0,0,.27-.75Z" transform="translate(9.62 14.13)"/>
          <path class="cls-8" d="M175.52,40.4c-.47-.62-1.68-.1-1.68.68.4-.5,1.06.22,1.42.07s.47-.5.27-.75Z" transform="translate(9.62 14.13)"/>
          <path class="cls-8" d="M175.21,42.39c-.54-.57-1.68.1-1.6.87.33-.55,1.07.09,1.41-.1S175.43,42.62,175.21,42.39Z" transform="translate(9.62 14.13)"/>
          <path class="cls-8" d="M175.78,48.53c-.6-.49-1.64.31-1.5,1.07.28-.59,1.08,0,1.4-.27A.57.57,0,0,0,175.78,48.53Z" transform="translate(9.62 14.13)"/>
          <path class="cls-8" d="M175.75,49.88c-.71-.27-1.48.82-1.12,1.5.1-.65,1-.39,1.25-.71s.16-.68-.13-.79Z" transform="translate(9.62 14.13)"/>
          <path class="cls-8" d="M176.67,50.89c-.72-.28-1.48.82-1.13,1.49.11-.64,1-.38,1.25-.71s.17-.67-.12-.78Z" transform="translate(9.62 14.13)"/>
          <path class="cls-8" d="M195.35,52.84c-.71-.28-1.48.82-1.12,1.49.1-.65,1-.38,1.25-.71s.16-.67-.13-.78Z" transform="translate(9.62 14.13)"/>
          <path class="cls-8" d="M196.31,53.75c-.74-.19-1.38,1-.95,1.62,0-.66,1-.5,1.16-.86S196.61,53.83,196.31,53.75Z" transform="translate(9.62 14.13)"/>
          <path class="cls-8" d="M195.63,51.54c-.67-.4-1.59.55-1.34,1.28.2-.62,1.06-.2,1.34-.48s.27-.63,0-.8Z" transform="translate(9.62 14.13)"/>
          <path class="cls-8" d="M208.92,53.12c-.73-.19-1.38,1-.95,1.62,0-.66,1-.5,1.17-.85S209.22,53.2,208.92,53.12Z" transform="translate(9.62 14.13)"/>
          <path class="cls-8" d="M209,51.88c-.68-.37-1.57.61-1.3,1.33.18-.63,1-.24,1.34-.53a.55.55,0,0,0,0-.8Z" transform="translate(9.62 14.13)"/>
          <path class="cls-8" d="M209.46,54.22c-.74-.15-1.34,1.07-.88,1.67,0-.66.95-.55,1.13-.91S209.77,54.29,209.46,54.22Z" transform="translate(9.62 14.13)"/>
          <path class="cls-8" d="M184.67,45.51c.47,0,.67.15.67,1,0,1.88,0,2.69-.6,2.69s-.53-.77-.53-2.15c0-.71,0-1.08-.14-1,0-.48.2-.56.61-.56Z" transform="translate(9.62 14.13)"/>
        </g>
      </g>
      <g>
        <g>
          <path class="cls-9" d="M209.65,71.21c-.45.12-.45.73-.67.73a2.17,2.17,0,0,0,2.1-1c-.26.25,0,.71-.12.84.86-.31,1.27-1.09,1-1.61a1.59,1.59,0,0,0,.92.48c-.6-.5-.17-1.64-1.14-2.22a1.43,1.43,0,0,1,1.12.81,2.78,2.78,0,0,0-1.1-2.24.65.65,0,0,0,.73,0,1.38,1.38,0,0,1-.62-1.27c.06-.51-.26-.62-.86-.46a12.57,12.57,0,0,1-2.52.23,6.31,6.31,0,0,1-4.07-.91c1.87.82,4.26-.9,4.26-2.33,0-1.59-1.85-2.88-5.59-2s-8.31.5-8.31-.81,3.27-1.5,4.95-1.23,2.88.46,6-.71a10.48,10.48,0,0,1-5.26-.18c-2-.59-6.84-.59-6.89,2.18s5.19,2.51,9.69,1.81c2.63-.41,4-.13,4,.77s-2.42,1.23-4.27,1a13.75,13.75,0,0,0-5.94.5c-1.83.57-3.1,0-5.12.35a4.5,4.5,0,0,1-4.53-2c-.73.55-2.9,1.68-3.27,2.79a2.89,2.89,0,0,0,.52,3c.87,1.25-.43,1.06-1.34,1.11-1.27.06-3-.14-3.86-1.2s-1.83-1.69-2.66-1a.41.41,0,0,0-.17.53.36.36,0,0,0,.5.18c.34-.13.74.13,1.1.3a1.43,1.43,0,0,0-1.46.17c-.33.32.08.93.49.71a1.3,1.3,0,0,1,1.41.13,1.3,1.3,0,0,0-1.18.19c-.23.26-.05.65.45.62.8,0,1,.56,1.82.44a1.24,1.24,0,0,0-.91.54c.76-.35,1.59.62,2.56.39-.38.16-1,.56-1,.86.58-.71,4.48.54,4.56-1a1.34,1.34,0,0,1-.21,1.2c.49-.32,2.11-.43,2.6-1.65,0,.35,0,.83-.33,1,.51.18,1.19-.23,1.89-1.31a1.4,1.4,0,0,0,.29-1.05,2.24,2.24,0,0,0,1.73-.63c.56-.5,1.17.41,2.11-.23s1.77-.09,2.28-.41,1.23.11,1.79-.25,1.43.18,2.35-.59a10.64,10.64,0,0,0,7.34.8c2.39-.47,3.14.38,3.14,1.54,0,.79-.44.86-.78.88-1.34.09-1.9-.52-2.42-.33-.35.13-.57.74-.06,1a.47.47,0,0,0-.15.8c.21.16.77,0,1.14-.17-.48.24-1,.65-.7,1.07.18.26.62.48,1-.08a2.14,2.14,0,0,1,1.64-1Z" transform="translate(9.62 14.13)"/>
          <path class="cls-9" d="M183.14,59.24c-1.21-.52-1.62-.53-1.35.5a3.7,3.7,0,0,0,.7,1.35c0-.43.16-1.62.64-1.85Z" transform="translate(9.62 14.13)"/>
          <path class="cls-9" d="M186.9,59.24c1.21-.52,1.62-.53,1.35.5a3.42,3.42,0,0,1-.7,1.35c0-.43-.16-1.62-.64-1.85Z" transform="translate(9.62 14.13)"/>
          <path class="cls-9" d="M185,58.55c2.28,0,2.57,1.12,2.55,2.53s-.78,1-1.22,3c-.17.76-.75.8-1.33.8s-1.16,0-1.34-.8c-.44-2-1.22-1.42-1.23-3s.27-2.53,2.56-2.53Z" transform="translate(9.62 14.13)"/>
          <path class="cls-9" d="M179.14,64.12a1.18,1.18,0,0,0-1.19-.05c.75.21.78,1.23,2.51,1.7-.39-.11-.61.12-1-.09a4.46,4.46,0,0,0,3.18,1.3c.94,0,.29.52-.33.22.64.69,1.89.13,2.69,1.39.14-1-1.49-2.52-.74-3.63-2.32-.11-2.51-1.46-3.85-2.54-1.09-.88-1.19-1.77-1.68-3.44a1.45,1.45,0,0,0-1.53-1.07c-.4.16-.55.53-.2.81s.8.32.89,1c-.45-.57-1.13-.78-1.46-.42a.5.5,0,0,0,.06.67.47.47,0,0,0,.25.11c.7.07.2.79,1,1.49-.7-.83-1.31-.91-1.68-.46a.46.46,0,0,0,.48.71c.7-.07,1.51,1.8,2.56,2.27Z" transform="translate(9.62 14.13)"/>
          <path class="cls-9" d="M197.87,71.12c-.36.07-.25.71-.75.75a3.21,3.21,0,0,0,2.35-.77,1.14,1.14,0,0,0-.39.79,4,4,0,0,1,2.89-.45c.78.16.9-.23,1.18-.75s-.1-.81-.49-1.22a2.33,2.33,0,0,1-.39-1.93c-2.07-2.9-5.77-1.49-5.81-.22C197.8,69,198,68.77,199.08,69s1.81.23,1.06.89A6.91,6.91,0,0,1,198,70c-1.88.08-2.74-1.37-3.3-.62s0,.9,1,.86c-.64,0-1.5,0-1.34.6.24,1.07,1.21-.19,1.59.24-.34-.07-.83.13-.85.45s.72.74,1.52.07a2.27,2.27,0,0,1,1.35-.52Z" transform="translate(9.62 14.13)"/>
          <path class="cls-9" d="M199.49,66.7a3.4,3.4,0,0,0-2.08-.25" transform="translate(9.62 14.13)"/>
          <path class="cls-9" d="M189.35,66.38a3.31,3.31,0,0,0-.14,2.45" transform="translate(9.62 14.13)"/>
          <path class="cls-9" d="M183.46,60.43c.38.2.59-.35,1.15.24-.15-.18-.34.46-.77,0" transform="translate(9.62 14.13)"/>
          <path class="cls-9" d="M186.56,60.43c-.38.2-.6-.35-1.15.24.15-.18.33.46.77,0" transform="translate(9.62 14.13)"/>
          <path class="cls-9" d="M185.41,60.67c-.13.11-.15-.09,0,.44.19,1,.4,1.44-.35,1.44s-.54-.46-.34-1.44c.1-.53.09-.33,0-.44" transform="translate(9.62 14.13)"/>
        </g>
        <g>
          <path class="cls-10" d="M185,64.44c.61,0,1,0,.87-.92,0-.36.42-.51.26-1.1.17.71-1.13.65-1.13.32,0,.33-1.3.4-1.13-.32-.16.59.3.73.26,1.1C184.05,64.43,184.4,64.44,185,64.44Z" transform="translate(9.62 14.13)"/>
          <path class="cls-10" d="M184.47,62.6,183,62.17" transform="translate(9.62 14.13)"/>
          <path class="cls-10" d="M184.47,62.68h-1.64" transform="translate(9.62 14.13)"/>
          <path class="cls-10" d="M184.48,62.77l-1.4.41" transform="translate(9.62 14.13)"/>
          <path class="cls-10" d="M185.57,62.6l1.48-.43" transform="translate(9.62 14.13)"/>
          <path class="cls-10" d="M185.57,62.68h1.65" transform="translate(9.62 14.13)"/>
          <path class="cls-10" d="M185.55,62.77l1.41.4" transform="translate(9.62 14.13)"/>
        </g>
        <g>
          <path class="cls-11" d="M177.39,58c-.43-.56-1.5-.08-1.52.61.36-.45.95.2,1.28.06s.42-.44.24-.67Z" transform="translate(9.62 14.13)"/>
          <path class="cls-11" d="M176.84,59.28c-.43-.56-1.5-.08-1.52.61.36-.45,1,.2,1.27.06s.42-.44.25-.67Z" transform="translate(9.62 14.13)"/>
          <path class="cls-11" d="M176.56,61.08c-.49-.51-1.5.09-1.45.78.31-.49,1,.09,1.27-.09a.5.5,0,0,0,.18-.71Z" transform="translate(9.62 14.13)"/>
          <path class="cls-11" d="M177.07,66.61c-.54-.44-1.48.27-1.34,1,.25-.53,1,0,1.25-.25s.32-.53.1-.71Z" transform="translate(9.62 14.13)"/>
          <path class="cls-11" d="M177,67.82c-.64-.25-1.34.74-1,1.35.09-.58.92-.35,1.13-.64S177.3,67.92,177,67.82Z" transform="translate(9.62 14.13)"/>
          <path class="cls-11" d="M177.87,68.73c-.65-.25-1.35.74-1,1.35.09-.59.92-.36,1.13-.64s.14-.61-.12-.71Z" transform="translate(9.62 14.13)"/>
          <path class="cls-11" d="M194.68,70.48c-.64-.25-1.34.74-1,1.35.09-.58.92-.36,1.13-.64S194.94,70.58,194.68,70.48Z" transform="translate(9.62 14.13)"/>
          <path class="cls-11" d="M195.55,71.3c-.68-.17-1.25.9-.86,1.46,0-.59.87-.45,1.05-.77s.08-.62-.19-.71Z" transform="translate(9.62 14.13)"/>
          <path class="cls-11" d="M194.93,69.32c-.59-.35-1.42.49-1.2,1.15.18-.57,1-.18,1.21-.43s.24-.57,0-.71Z" transform="translate(9.62 14.13)"/>
          <path class="cls-11" d="M206.9,70.74c-.68-.18-1.24.89-.86,1.46,0-.59.87-.46,1.05-.77S207.17,70.81,206.9,70.74Z" transform="translate(9.62 14.13)"/>
          <path class="cls-11" d="M206.92,69.62c-.6-.35-1.41.55-1.18,1.2.17-.57,1-.22,1.2-.48s.23-.58,0-.7Z" transform="translate(9.62 14.13)"/>
          <path class="cls-11" d="M207.38,71.73c-.67-.14-1.2,1-.79,1.5,0-.59.85-.5,1-.82S207.66,71.79,207.38,71.73Z" transform="translate(9.62 14.13)"/>
          <path class="cls-11" d="M185.07,63.89c.42,0,.59.14.59.94,0,1.69,0,2.42-.54,2.42s-.48-.71-.48-1.94c0-.65,0-1-.12-.92,0-.42.17-.5.55-.5Z" transform="translate(9.62 14.13)"/>
        </g>
      </g>
      <g>
        <g>
          <path class="cls-12" d="M205.75,86.24c-.34.09-.34.6-.51.6A1.57,1.57,0,0,0,206.8,86c-.19.21,0,.61-.09.71a1.06,1.06,0,0,0,.72-1.34,1.15,1.15,0,0,0,.69.39c-.45-.41-.13-1.35-.85-1.85a1.12,1.12,0,0,1,.84.68,2.46,2.46,0,0,0-.82-1.86.45.45,0,0,0,.54,0,1.21,1.21,0,0,1-.46-1.07c0-.42-.19-.51-.64-.37a9.14,9.14,0,0,1-1.88.18,4.3,4.3,0,0,1-3-.75,2.42,2.42,0,0,0,3.17-2c0-1.32-1.38-2.4-4.17-1.68s-6.18.42-6.18-.68,2.43-1.25,3.69-1a6.42,6.42,0,0,0,4.49-.6,6.89,6.89,0,0,1-3.91-.16c-1.47-.5-5.1-.49-5.13,1.82S197.65,78.55,201,78c2-.36,3-.11,3,.64s-1.79,1-3.17.83a9.19,9.19,0,0,0-4.44.41c-1.36.47-2.31,0-3.81.3a3.22,3.22,0,0,1-3.36-1.69c-.54.45-2.16,1.4-2.43,2.32a2.63,2.63,0,0,0,.38,2.53c.65,1-.33.89-1,.93a3.32,3.32,0,0,1-2.87-1c-.59-.78-1.37-1.42-2-.83a.33.33,0,0,0-.08.45.28.28,0,0,0,.32.13c.25-.1.55.11.81.25a.94.94,0,0,0-1.07.15c-.26.27,0,.77.36.6a.85.85,0,0,1,1.05.11.85.85,0,0,0-.88.15c-.17.22,0,.54.33.52.6,0,.76.47,1.35.36a.88.88,0,0,0-.67.45c.56-.3,1.17.51,1.9.32-.28.14-.74.47-.74.71.44-.58,3.34.45,3.4-.83a1.22,1.22,0,0,1-.16,1c.37-.26,1.57-.35,1.94-1.38,0,.3,0,.71-.24.8.39.15.89-.2,1.41-1.1a1.27,1.27,0,0,0,.22-.87,1.58,1.58,0,0,0,1.29-.53c.41-.42.86.34,1.57-.19s1.31-.07,1.68-.35.91.09,1.34-.21,1.07.15,1.76-.5a7,7,0,0,0,5.46.67c1.78-.39,2.35.32,2.35,1.29,0,.65-.34.7-.58.73-1,.07-1.41-.43-1.8-.27s-.43.61-.05.78a.43.43,0,0,0-.2.54.42.42,0,0,0,.09.14c.16.12.57,0,.85-.14-.36.19-.73.53-.52.89s.46.41.76-.06.87-.86,1.22-.8Z" transform="translate(9.62 14.13)"/>
          <path class="cls-12" d="M186,76.27c-.9-.43-1.2-.44-1,.42a2.88,2.88,0,0,0,.52,1.12c0-.35.12-1.35.47-1.54Z" transform="translate(9.62 14.13)"/>
          <path class="cls-12" d="M188.82,76.27c.89-.43,1.2-.44,1,.42a2.88,2.88,0,0,1-.52,1.12c0-.35-.12-1.35-.47-1.54Z" transform="translate(9.62 14.13)"/>
          <path class="cls-12" d="M187.42,75.69c1.68,0,1.91.94,1.9,2.11s-.58.84-.91,2.46c-.13.63-.56.67-1,.67s-.87,0-1-.67c-.34-1.63-.9-1.19-.91-2.46s.2-2.11,1.9-2.11Z" transform="translate(9.62 14.13)"/>
          <path class="cls-12" d="M183,80.33a.8.8,0,0,0-.89,0c.56.17.58,1,1.87,1.42-.29-.1-.45.09-.72-.08a3.15,3.15,0,0,0,2.37,1.07c.69,0,.21.43-.24.19.47.57,1.41.1,2,1.15.12-.81-1.1-2.1-.54-3-1.73-.09-1.87-1.22-2.87-2.13-.81-.73-.89-1.47-1.24-2.87-.17-.62-.79-1-1.14-.87s-.41.44-.15.67.59.27.67.85c-.34-.47-.84-.65-1.09-.35a.42.42,0,0,0,.08.57.3.3,0,0,0,.15.07c.52.07.15.66.74,1.25-.52-.71-1-.76-1.26-.38a.39.39,0,0,0,.1.52.31.31,0,0,0,.26.06c.52-.06,1.13,1.5,1.91,1.89Z" transform="translate(9.62 14.13)"/>
          <path class="cls-12" d="M197,86.17c-.27.06-.19.59-.56.63a2.23,2.23,0,0,0,1.75-.65,1,1,0,0,0-.29.66,2.68,2.68,0,0,1,2.15-.37c.58.13.67-.19.88-.63s-.08-.68-.37-1a2.14,2.14,0,0,1-.29-1.6c-1.54-2.42-4.29-1.25-4.32-.19,1,1.36,1.11,1.21,1.95,1.4s1.35.19.78.73c-.19.19-1,.1-1.62.13-1.39.08-2-1.13-2.44-.5s0,.74.7.71c-.48,0-1.12,0-1,.5.18.88.9-.17,1.19.2-.25-.07-.62.1-.63.35s.53.62,1.13,0a1.55,1.55,0,0,1,1-.42Z" transform="translate(9.62 14.13)"/>
          <path class="cls-12" d="M198.17,82.48a2.29,2.29,0,0,0-1.54-.2" transform="translate(9.62 14.13)"/>
          <path class="cls-12" d="M190.63,82.2a3.12,3.12,0,0,0-.1,2" transform="translate(9.62 14.13)"/>
          <path class="cls-12" d="M186.25,77.26c.28.17.44-.3.86.2-.11-.15-.26.39-.58,0" transform="translate(9.62 14.13)"/>
          <path class="cls-12" d="M188.56,77.26c-.28.17-.44-.3-.86.2.12-.15.26.39.58,0" transform="translate(9.62 14.13)"/>
          <path class="cls-12" d="M187.7,77.46c-.09.09-.1-.08,0,.37.13.82.3,1.2-.26,1.2s-.4-.38-.27-1.2c.08-.45.07-.28,0-.37" transform="translate(9.62 14.13)"/>
        </g>
        <g>
          <path class="cls-13" d="M187.42,80.6c.45,0,.71,0,.64-.77,0-.3.32-.42.2-.91.12.6-.84.55-.84.27,0,.28-1,.33-.85-.27-.12.49.22.61.19.91C186.69,80.59,187,80.6,187.42,80.6Z" transform="translate(9.62 14.13)"/>
          <path class="cls-13" d="M187,79.07l-1.1-.36" transform="translate(9.62 14.13)"/>
          <path class="cls-13" d="M187,79.14h-1.23" transform="translate(9.62 14.13)"/>
          <path class="cls-13" d="M187,79.21l-1.05.33" transform="translate(9.62 14.13)"/>
          <path class="cls-13" d="M187.83,79.07l1.09-.36" transform="translate(9.62 14.13)"/>
          <path class="cls-13" d="M187.83,79.14h1.22" transform="translate(9.62 14.13)"/>
          <path class="cls-13" d="M187.81,79.21l1.05.33" transform="translate(9.62 14.13)"/>
        </g>
        <g>
          <path class="cls-14" d="M181.74,75.2c-.32-.46-1.12-.07-1.14.51.27-.38.71.17,1,.05a.42.42,0,0,0,.19-.55Z" transform="translate(9.62 14.13)"/>
          <path class="cls-14" d="M181.32,76.31c-.33-.47-1.12-.08-1.13.5.27-.37.71.17.95,0a.42.42,0,0,0,.19-.54Z" transform="translate(9.62 14.13)"/>
          <path class="cls-14" d="M181.12,77.8c-.37-.42-1.12.08-1.08.66.23-.42.72.07,1-.08a.45.45,0,0,0,.13-.58Z" transform="translate(9.62 14.13)"/>
          <path class="cls-14" d="M181.49,82.41c-.4-.37-1.1.23-1,.8.19-.44.72,0,.93-.2S181.66,82.56,181.49,82.41Z" transform="translate(9.62 14.13)"/>
          <path class="cls-14" d="M181.47,83.42c-.47-.21-1,.62-.74,1.12.06-.48.67-.28.83-.53S181.67,83.51,181.47,83.42Z" transform="translate(9.62 14.13)"/>
          <path class="cls-14" d="M182.09,84.18c-.48-.21-1,.61-.75,1.12.06-.49.67-.29.83-.53S182.28,84.26,182.09,84.18Z" transform="translate(9.62 14.13)"/>
          <path class="cls-14" d="M194.61,85.64c-.48-.21-1,.61-.75,1.12.06-.49.67-.29.83-.53S194.8,85.72,194.61,85.64Z" transform="translate(9.62 14.13)"/>
          <path class="cls-14" d="M195.25,86.32c-.5-.14-.92.75-.64,1.22,0-.5.65-.38.79-.64S195.45,86.38,195.25,86.32Z" transform="translate(9.62 14.13)"/>
          <path class="cls-14" d="M194.78,84.67c-.44-.3-1.06.41-.9,1,.14-.47.71-.15.9-.36s.18-.48,0-.6Z" transform="translate(9.62 14.13)"/>
          <path class="cls-14" d="M203.7,85.85c-.49-.14-.92.74-.64,1.22,0-.5.65-.38.79-.65S203.9,85.91,203.7,85.85Z" transform="translate(9.62 14.13)"/>
          <path class="cls-14" d="M203.71,84.92c-.44-.28-1,.45-.87,1,.13-.48.71-.18.89-.4S203.9,85,203.71,84.92Z" transform="translate(9.62 14.13)"/>
          <path class="cls-14" d="M204.06,86.68c-.5-.12-.89.79-.59,1.25,0-.5.64-.41.76-.68S204.27,86.73,204.06,86.68Z" transform="translate(9.62 14.13)"/>
          <path class="cls-14" d="M187.45,80.15c.31,0,.44.1.44.77,0,1.42,0,2-.4,2s-.36-.57-.36-1.61c0-.54,0-.81-.09-.77,0-.35.13-.41.41-.41Z" transform="translate(9.62 14.13)"/>
        </g>
      </g>
    </g>
  </g>
</svg>
