<svg id="Layer_1" data-name="Layer 1" xmlns="http://www.w3.org/2000/svg" xmlns:xlink="http://www.w3.org/1999/xlink" width="370.42mm" height="246.94mm" viewBox="0 0 1050 700">
  <defs>
    <style>
      .cls-1 {
        fill: #ce1126;
      }

      .cls-1, .cls-2 {
        fill-rule: evenodd;
      }

      .cls-2 {
        fill: #003f87;
      }

      .cls-3 {
        fill: #6f6;
      }

      .cls-13, .cls-20, .cls-23, .cls-26, .cls-27, .cls-29, .cls-34, .cls-4, .cls-46, .cls-48, .cls-49, .cls-5, .cls-51, .cls-52, .cls-9 {
        fill: none;
      }

      .cls-28, .cls-4, .cls-46 {
        stroke: #060;
      }

      .cls-13, .cls-14, .cls-15, .cls-19, .cls-24, .cls-28, .cls-4, .cls-7, .cls-8, .cls-9 {
        stroke-width: 0.71px;
      }

      .cls-11, .cls-15, .cls-21, .cls-33, .cls-35, .cls-37, .cls-6 {
        fill: #fff;
      }

      .cls-43, .cls-44, .cls-7 {
        fill: #730000;
      }

      .cls-11, .cls-12, .cls-13, .cls-14, .cls-15, .cls-17, .cls-18, .cls-19, .cls-20, .cls-21, .cls-23, .cls-24, .cls-30, .cls-31, .cls-32, .cls-34, .cls-35, .cls-36, .cls-37, .cls-38, .cls-39, .cls-40, .cls-41, .cls-42, .cls-43, .cls-48, .cls-50, .cls-51, .cls-7 {
        stroke: #000;
      }

      .cls-28, .cls-8 {
        fill: #289400;
      }

      .cls-8 {
        stroke: #030;
      }

      .cls-9 {
        stroke: #004b00;
      }

      .cls-10 {
        fill: #9dd7ff;
      }

      .cls-11, .cls-12, .cls-48 {
        stroke-width: 1px;
      }

      .cls-12 {
        fill: #ffd83c;
      }

      .cls-14 {
        fill: #ff0018;
      }

      .cls-16 {
        fill: #006ac8;
      }

      .cls-17, .cls-45 {
        fill: #5ac800;
      }

      .cls-17, .cls-18 {
        stroke-width: 0.85px;
      }

      .cls-18 {
        fill: #ffd800;
      }

      .cls-19 {
        fill: #b34b00;
      }

      .cls-20 {
        stroke-width: 0.7px;
      }

      .cls-21 {
        stroke-width: 0.8px;
      }

      .cls-22 {
        fill: #ccb8c8;
      }

      .cls-23 {
        stroke-width: 0.56px;
      }

      .cls-24 {
        fill: #782121;
      }

      .cls-25 {
        fill: #7e4b7e;
      }

      .cls-26, .cls-27, .cls-29 {
        stroke: #7e4b7e;
      }

      .cls-26, .cls-27 {
        stroke-width: 1.28px;
      }

      .cls-27 {
        stroke-linecap: square;
      }

      .cls-29 {
        stroke-width: 1.14px;
      }

      .cls-30, .cls-31, .cls-32, .cls-33, .cls-34, .cls-35, .cls-36, .cls-37, .cls-38, .cls-39, .cls-40, .cls-41, .cls-42, .cls-43 {
        stroke-miterlimit: 4.8;
      }

      .cls-30, .cls-31, .cls-32, .cls-33, .cls-34, .cls-37, .cls-38, .cls-39, .cls-40, .cls-41, .cls-42, .cls-43 {
        stroke-width: 0.71px;
      }

      .cls-30 {
        fill: url(#radial-gradient);
      }

      .cls-31 {
        fill: url(#radial-gradient-2);
      }

      .cls-33, .cls-49 {
        stroke: #fff;
      }

      .cls-35, .cls-36 {
        stroke-width: 0.43px;
      }

      .cls-38 {
        fill: #9b5f00;
      }

      .cls-39 {
        fill: #ffa54b;
      }

      .cls-40 {
        fill: #ffb366;
      }

      .cls-41 {
        fill: url(#radial-gradient-3);
      }

      .cls-42 {
        fill: url(#radial-gradient-4);
      }

      .cls-46 {
        stroke-width: 0.71px;
      }

      .cls-47 {
        fill: #69f;
      }

      .cls-49 {
        stroke-width: 1px;
      }

      .cls-50 {
        stroke-width: 0.98px;
      }

      .cls-51 {
        stroke-width: 1.42px;
      }

      .cls-52 {
        stroke: #552300;
        stroke-width: 5.74px;
      }

      .cls-53 {
        fill: #007f00;
      }

      .cls-54 {
        fill: #005800;
      }
    </style>
    <radialGradient id="radial-gradient" cx="361.05" cy="420.29" r="41.91" gradientTransform="matrix(1.47, 0, 0, -0.98, -107.02, 683.39)" gradientUnits="userSpaceOnUse">
      <stop offset="0" stop-color="#ffef5d"/>
      <stop offset="1" stop-color="#ea5700"/>
    </radialGradient>
    <radialGradient id="radial-gradient-2" cx="400.59" cy="537.05" r="12.34" gradientTransform="matrix(1.12, 0, 0, -1.28, -28, 917.15)" xlink:href="#radial-gradient"/>
    <radialGradient id="radial-gradient-3" cx="497.33" cy="421.04" r="42.07" gradientTransform="matrix(1.47, 0, 0, -0.98, -106.47, 684.65)" gradientUnits="userSpaceOnUse">
      <stop offset="0" stop-color="#952d1a"/>
      <stop offset="1" stop-color="#570a00"/>
    </radialGradient>
    <radialGradient id="radial-gradient-4" cx="575.29" cy="532.18" r="12.53" gradientTransform="matrix(1.15, 0, 0, -1.26, -33.4, 896.68)" xlink:href="#radial-gradient-3"/>
  </defs>
  <path class="cls-1" d="M0,0H1050V700H0Z" transform="translate(0 0)"/>
  <path class="cls-2" d="M0,50H1050V650H0Z" transform="translate(0 0)"/>
  <path class="cls-3" d="M571.5,173.62a7.14,7.14,0,0,1-3.27-1.28l3.27,1.28" transform="translate(0 0)"/>
  <g>
    <path class="cls-4" d="M571.5,173.62a7.18,7.18,0,0,1-3.27-1.28" transform="translate(0 0)"/>
    <path class="cls-5" d="M534.61,201.82l1.86,1.14,2,.29s2.14,2,4.56,3.85c1.85,1.56,1.85-.29,1.85-.29l1.14,4.56h1.56a44.39,44.39,0,0,0-.43,4.55l2.71-2.28,3.13,2.71s2.28-2,3.42-2a1.79,1.79,0,0,0,1.56-1.14h.14c-7.55-3.56-10.82-7.27-8.54-11.12,3.7-6.4,9.82-2.27,11.82-1.42L589,215.49s1.85-1.13.57-2.27a5.7,5.7,0,0,1-1.57-5.13c.43-1.14,3.56,3.56,5.13,4s5.13,1,5.13,1l-.15-1.43s4.56,3.14,4.56,4.7c0,0,3.28-1.71,2.14-2.71s5,2.43,5.41,4.28l1.28-1.43a14.92,14.92,0,0,1,2-6.7,6.94,6.94,0,0,1,3-2.7s1.42-2.42,2.85-2.42a7.21,7.21,0,0,1-2-2.14,5.18,5.18,0,0,0-2.42-1.71,21.94,21.94,0,0,0,2.71-2.28,2.23,2.23,0,0,1,1.14-1s-3.28-2.71-5.56-3.14c0,0-.14-3.7-3-4h1.28s-2.14-4-4.13-4.13a5.23,5.23,0,0,1,2.42-1.57s-2.42-3.13-5.7-2l2.14-.85s-1.56-1.72-6.41-.86a3.68,3.68,0,0,0-1.71-3.56s-1.85.14-1.85,1.57a6.41,6.41,0,0,0-3.84-1.57c-2.14,0,.71,2.28.71,2.28s-2.85-1.85-4.56-1.29c0,0,.71-3.27-1.14-5a6.87,6.87,0,0,0-2.71,2.56l-.57-1.42s-2.84,3.42-3.41,2.42a12.34,12.34,0,0,1-.86-3l-1.7,2.57.28-3.57s-2,1.14-3.56,4.85c0,0-2,1.85-2,3.56,0,0-1.57-1.85-3,0s0,1.56,0,1.56a3.52,3.52,0,0,1-2,1l.29,1.14a5.23,5.23,0,0,0-3.27-.57l.7,1.71s-3.7.28-3.84-2.7c0,0-3.13-1.57-3.56.14,0,0-2.57,0-2.28,1.42a3.43,3.43,0,0,0-2-1.71c-1.42-.43-.28,1.85-.28,1.85a4.33,4.33,0,0,0-2.13-2.57c-1.71-.7-.29,1.57-.29,1.57s-2.28-1.85-1.14-3.27c0,0-2.13,2-1.14,3.85l-1.42,1s-.71-.71-.57-1.28-2.42,1.71-2.42,1.71-1.57-3.71,0-3.71a3.23,3.23,0,0,0-3.14,3.14h0a17,17,0,0,0-3.56.71c-1.85.57,1.28,1.85,1.28,1.85s-2.7-.57-4.27.28l1,1.28s-1-1-3.42-.14c-2.57.72.57,1.14.57,1.14s-2.56-.56-3.84,0,.42,1.57.42,1.57-4.7-1.42-5.41-1,1.57,2.71,1.57,2.71-2.85.71-3.42,2.85l2.56,1a4.34,4.34,0,0,0-1.71,1.7c-.56,1.15,1.71.58,1.71.58s-3.13,2.28-3.13,4a4.22,4.22,0,0,0,4-1c1.71-1.71.57-1.14.57-1.14l.14,1.14s3.27-1.43,3.27-2.28-.56,1.14-.56,1.14l3.28-1.71,2.13,1.42" transform="translate(0 0)"/>
    <path class="cls-5" d="M531.91,157.38l-.72-3.13a34.93,34.93,0,0,1,7.27.85l1.28-3a22.83,22.83,0,0,1,4.56,2.7s6.69-1.7,8.69-1l-.86,3.13s6.13.43,8.12,1.14-.85,2.28-.85,2.28,7,.86,10,2.71,3.13,3.42,1.56,3.85l3.85,6.12s-6.13.71-7.27,2.28-2.28-1.57-2.28-1.57L564.1,178a35,35,0,0,1-5.42-3.43s-1.85,2.29-.71,3.43c0,0-5,0-7-4.57,0,0-3-.42-3,2.29,0,0-3.42-3.85-4.28-5l-3.85,1.14a6,6,0,0,0-2.56-2c-1.57-.28-.43,2-.43,2l-2.28-2.71-2.27-2.71s-2,2.71-3.57,2.71-1.43-1.86-1.14-3.14c.42-1.13-4.56-1.42-5,0,0,0-1.42-5.69,3.85-7.26l5.42-1.43" transform="translate(0 0)"/>
  </g>
  <circle class="cls-6" cx="525" cy="350" r="275"/>
  <g>
    <g>
      <path class="cls-7" d="M567.37,175.47s.85-2,2.42-.85,1.85,6.12,1.85,6.12l-2.28,1.14s1.28-1.85-2-6.41Zm-13,44.73s1.14-1.56-.43-5l2.28-.71a9.5,9.5,0,0,1-.29,5.7h-1.56m39.45-7.84-5.41,3.28,2.71,1.28,6.55-3.85-3.85-.71m-72.51,21.22c-1.42,1.15-1.56,3.14-2.42,4.28s-2.84,2.7-3,4.41a9.31,9.31,0,0,0,.29,5.13c.85,2.28,4.41,12.39,3,20.09-1.57,7.69-1,11-.43,12.11s2.28,4.27,3.28,4.27c2.28-.29,1.28-1,2.13-2.42,2.14-3.71,0-32.34-1-40.32a39.83,39.83,0,0,0-3.84-12.25c-.28-.71-.85-2.56-1.28-3.7-2.14-5.13-4.7-9.55-4.7-20.23,0,0-7,1.56-13-12-3.14-6.84-7.69-6.13-13.11-8.4l2.43-1.57s4.55,2.28,6.83,2.28,1.57-4.56,1.57-4.56l2.28-2.28v10c0,4.56,6.27,10.83,10,12.68,2.28,1.14,5.27-3.56,4.56-8.12a48.22,48.22,0,0,1,0-10.68l3.13,1.85s-1.14,2-.85,3.13,2-1.14,3.13-2.28c0,0,.28.29,1.42.29,0,0-2.27,3.84-3.41,5.84-1.14,1.85-1.14,9.12-1.14,11.83s1,9,1,11c0,1.43,2.7,7.27,4.84,10.83.71,1.42,2.42,5.12,2.42,5.12,1.71,2.71,1.85,4.56,2.85,6.85.57,1.13,1.57,4.41,2.28,10.11.29,1.42.57,6.84,1,10.4.42,3.41,3.28.71,6.69-1.71s3.42-8.69,3.42-8.69,2.71-2.28,2.28-1,1.42,2.85,1.42,2.85c-2.13,4.84-.85,4.27,1.29,4.13,2.13-.29,9.54-5.84,9.54-5.84,1-.29,5.41-.29,4.7,0-.86.43-2,2.56-2,2.56l4.85-.57c-1.71,1.29-8.12,5-9.55,5.84a130.44,130.44,0,0,1-12.53,6c-3.27,1.42-9.69,4.56-10,7.83s.43,12.11,0,15c-.28,2.85-1.42,15.53-1.42,15.53H515.11S518.1,288,515,285s-10-12.25-14.53-15.39,3-.7,3-.7v-3.14l7,8.41s12.11-10.69,0-25.21c-3.84-4.56-7.69-11.54-10.68-12.26s-4.7-1.57-10,0-18.38,1.57-23.79-7l4.56-.71,3.84-1.57s-1.56,5.41,9.26,5.41,12.25,0,11.4-10l3.13-1.57,2.28,2.29s-1.57,5.41-.71,7.69c.71,2.27,4.56,3.84,7.55,6.12a4.69,4.69,0,0,0,3.13,1.14c1.28-.14,1.57-.14,3.28-1.85,2.56-2.85,2-2.71,4.55-5,0,0,1.29-2,1.57-2.29l1.57,4.14Z" transform="translate(0 0)"/>
      <path class="cls-7" d="M523.65,226a33.07,33.07,0,0,0,2.7-4.56c1.71-2.85,3.71-4.56,6-8.12a16,16,0,0,0,2.14-11.54l2,1.15.15,5.41a33.09,33.09,0,0,1,3.84-2.85l1.14.57a121.37,121.37,0,0,0-16.52,23.08l-1.43-3.13Zm-74.92-29.63c1.14,2,2.29,5.85,5.7,8.84l2.28-.72s-5.27-6.12-5.27-8.83l-2.71.71M462.12,193s.71,7.27-1.14,10l2.28-1.14s1.56-5,1.13-7.69L462.12,193Zm75.06-22.93s-.43,10.26,1.57,16.53l2.7-.85a2.44,2.44,0,0,1,1.86-2.72c2.28-.71,7.69-3,10.39-5.27l-.85-2.27a43.35,43.35,0,0,1-6.12,4.13c-1.85.71-3,1.56-4.56,1.14s-3.42-3-2.28-8.84Zm30.19,47.87s-.71,7.26-.28,10.4l2.42.57s-.57-8.69,1-9.4l-3.13-1.57m10.83,5.42s-2.7,4.7-5.83,5.13l5-1a14.49,14.49,0,0,0,3.56-3l-2.71-1.14" transform="translate(0 0)"/>
    </g>
    <g>
      <path class="cls-8" d="M534.62,201.82l1.85,1.13,2,.29s2.13,2,4.55,3.85c1.85,1.56,1.85-.29,1.85-.29l1.14,4.56h1.57a44.37,44.37,0,0,0-.43,4.56l2.71-2.28,3.13,2.7s2.28-2,3.42-2a1.79,1.79,0,0,0,1.56-1.14h.15c-7.55-3.56-10.82-7.26-8.55-11.11,3.71-6.41,9.83-2.28,11.82-1.42L589,215.49s1.85-1.14.57-2.28a5.73,5.73,0,0,1-1.57-5.13c.43-1.13,3.56,3.56,5.13,4s5.12,1,5.12,1l-.14-1.42s4.56,3.13,4.56,4.7c0,0,3.28-1.71,2.14-2.71s5,2.42,5.41,4.28l1.28-1.43a15,15,0,0,1,2-6.7,7,7,0,0,1,3-2.7s1.42-2.42,2.84-2.42a7.23,7.23,0,0,1-2-2.14,5.18,5.18,0,0,0-2.42-1.71,23.75,23.75,0,0,0,2.71-2.28,2.26,2.26,0,0,1,1.13-1s-3.27-2.7-5.55-3.13c0,0-.14-3.7-3-4h1.28s-2.13-4-4.13-4.13a5.23,5.23,0,0,1,2.42-1.56s-2.42-3.14-5.69-2l2.13-.85s-1.57-1.71-6.4-.85a3.72,3.72,0,0,0-1.71-3.57s-1.85.14-1.85,1.57a6.41,6.41,0,0,0-3.85-1.57c-2.13,0,.71,2.29.71,2.29s-2.84-1.86-4.55-1.29c0,0,.71-3.27-1.14-5,0,0-2.14,1.15-2.71,2.57l-.57-1.42s-2.85,3.42-3.41,2.42a12.34,12.34,0,0,1-.86-3l-1.7,2.56.28-3.56s-2,1.14-3.56,4.84c0,0-2,1.85-2,3.56,0,0-1.57-1.85-3,0s0,1.57,0,1.57a3.47,3.47,0,0,1-2,1l.28,1.14a5.18,5.18,0,0,0-3.27-.56l.71,1.7s-3.71.29-3.85-2.7c0,0-3.13-1.57-3.56.14L556,185.16a3.43,3.43,0,0,0-2-1.71c-1.43-.43-.29,1.85-.29,1.85a4.28,4.28,0,0,0-2.13-2.57c-1.71-.7-.28,1.57-.28,1.57s-2.28-1.85-1.14-3.27c0,0-2.14,2-1.14,3.84l-1.42,1s-.72-.71-.58-1.28-2.42,1.71-2.42,1.71-1.57-3.71,0-3.71a3.22,3.22,0,0,0-3.13,3.14,17,17,0,0,0-3.56.71c-1.85.57,1.28,1.85,1.28,1.85s-2.7-.57-4.27.29l1,1.28s-1-1-3.42-.15c-2.57.71.57,1.14.57,1.14s-2.57-.57-3.85,0,.43,1.57.43,1.57-4.7-1.43-5.41-1,1.56,2.7,1.56,2.7-2.85.71-3.41,2.85l2.56,1a4.24,4.24,0,0,0-1.71,1.72c-.56,1.14,1.71.56,1.71.56s-3.13,2.29-3.13,4a4.21,4.21,0,0,0,4-1c1.7-1.71.56-1.14.56-1.14l.15,1.14s3.27-1.43,3.27-2.28-.56,1.13-.56,1.13l3.27-1.7,2.14,1.42h0Z" transform="translate(0 0)"/>
      <path class="cls-8" d="M531.91,157.38l-.72-3.13,7.27.85,1.28-3a23.12,23.12,0,0,1,4.56,2.7s6.69-1.71,8.69-1l-.86,3.13s6.13.43,8.12,1.14-.85,2.28-.85,2.28,7,.85,10,2.71,3.13,3.42,1.57,3.84l3.84,6.13s-6.12.71-7.26,2.27-2.28-1.56-2.28-1.56L564.1,178a35.61,35.61,0,0,1-5.41-3.42s-1.85,2.28-.71,3.42l-7-4.56s-3-.42-3,2.28c0,0-3.41-3.85-4.27-5l-3.85,1.15a6,6,0,0,0-2.56-2c-1.57-.28-.43,2-.43,2l-2.27-2.71-2.28-2.7s-2,2.7-3.57,2.7c-1.42,0-1.42-1.85-1.13-3.13s-4.56-1.42-5,0c0,0-1.43-5.7,3.84-7.26l5.42-1.43ZM504.28,176.9l-2.42,2.28-1.42-.71-2.85,3.13-.57-1.71-1.57,2.56L493,181.6l-1.14,1.85-2.13-.43a13.27,13.27,0,0,1-3,2.14c-1.14.29,0-2.56,0-2.56s-1.71,2.85-3,2.85-.71-1.29-.71-1.29-.71,1.85-2.14,2.14c-1.28.14-.71-1.42-.71-1.42l-2.28,1.71v-1.43l-1-.42s.57-2.57,1.57-3.14-1-2.27-1-2.27l1-1.15s-2.85-.71-2.85-.14c0,0,1.42-3.84,3.41-4.56l.15-4.27a8.27,8.27,0,0,1,3.84-1.85c2-.29-.57-3.28-.57-3.28l4.56-2.7.57-3.28,7,.57,1.42-3,5.56,1.42,4.7-2.42,3.41,4,5.13.43s-.14,3.56-.14,4.56c0,0,6.12,1.84,6.84,2.42a38.46,38.46,0,0,0-1.14,4.41s4.27-1.14,5.56-.85c0,0,.42,4,.56,5,0,0,7.27,2.28,7.69,3.57a9.49,9.49,0,0,0-2.42,2.27,54.4,54.4,0,0,1,.86,5.84l-.57.86s-2.14-2-3.85-2.28L526.78,188l-2.56-1.71-1.56.15s-1.29-1.57-2.29-1.57l-.14-1.43-2,1.29s-3.14-1.57-3.14-2.57c0-.85.15-2.28.15-2.28L512,182.17a6.68,6.68,0,0,1-.57-2.42c.15-.71-1.28,1.71-1.28,1.71s-1.71-3-1.57-3.56l-.43,2.42s-3.41-1.14-3.84-3.42Z" transform="translate(0 0)"/>
      <path class="cls-8" d="M458.7,190.86s6,3,6,4.42c0,0,1.57-3.14.72-4.28l2.28,1.57s.7-2.85-.15-3.71,5.13-3.12,6.41.72c0,0,3.56-3.7-3.28-6.84,0,0-.56-2.28,3.57-1.71a3.29,3.29,0,0,0-1.29-2h4a13.64,13.64,0,0,0-6-2.57c-3.42-.57-1.28-1-1.43-1.71a12.53,12.53,0,0,1,0-3.28,4.91,4.91,0,0,0-3.56.15l.57-.72s-3.7-1-5.12-.14a3,3,0,0,1-1.85-3.13,3.34,3.34,0,0,0-3.13,2.13,7.06,7.06,0,0,1-4.7,2.28,11.22,11.22,0,0,1-2.57-1.14l-1.71,4-2.7-.14.85,1.56s-4.13-1.13-5.41,0c0,0,1.57,2.43,1.14,4.13,0,0-3.28.58-4,1.15s1.14,1,1.14,1-3.71,1.14-4.56,2.28l1.42,1.14-1.71,2.28,1.43.28s-2.42.72-3.7,1.14,2.28.72,2.28.72L431.93,192l2.71.43s-2.14,5.7-2.28,8.4c0,0,3.27-4,4.13-4.27l-2.56,4.27s4.84-1.56,5.27-2.28.85-1.56.85-1.56l.14,2.42a21.33,21.33,0,0,0,2.14-3.56c.14-1,3,1,3,1v-1.42s2.56.85,3.42,1,1.14-.43,1.14-.43l2.42-.29-.43,2a6.42,6.42,0,0,0,2.13-2.27c.29-1.15,1.14,0,1.14,0l1.14-4.56h2.42Zm-19.51,20.23,2.27,4.7c-1.85.14-4.55,2.27-4.55,2.27.42,7.84-1.57,7.41-1.57,7.41.56,1.43-.36,4.07-.36,4.07l11.33-6.77.14-.71,13.39-6.27.42.71,3.85-2.14,2.71,7.12-2.71,1.57c.15,2.42,3,6.7,3,6.7l3.57-.85,3.84-1.43s.15,2.13.15,1.43,4.12-2,4.12-2l1.85,1.85c1.43-.14,4-3.56,4-3.56l3,1.14a7.57,7.57,0,0,0,1-3c0-1.14,3.7-1.14,3.7-1.14l2.57,1.85,3.27-2.7s1,2,2.28,2.27,5,2.85,5,2.29A24.25,24.25,0,0,1,507,222.2l6,2.42a33.73,33.73,0,0,0-2.84-6s2.84-2.27,2.28-2.84-2.28,0-2.28,0l1.71-3.42h-2.28l.71-.85-3.7-1.57,2-4c-.86-1-10.68-3-10.68-3l2.27-2.13s-1.13-1.71-2.27-1.71-7.13.15-7.41-.42-2.57-2.71-2.57-2.71l-3.7,2.71-1.85-.57-3.27,1.28s0,1.85-.44.57-3.41-4.13-3.41-4.13c-.57,1-4.42,5.55-4.42,5.55s-.57,2.42-1.85.71-4.41-3.56-4.84-2.13-3.13,3-3.71,2.56-3.7-.14-4,.71c-.15,1-3.57,3.56-3.57,3.56-2.13-1-5.55-.42-5.55-.42a8.24,8.24,0,0,0-1.14,2.85l-7,1.85h0Zm64.38,57.69v-3l3.42,2.28,2-2.29,2.56,2.57,1.57-2.57v4.14L517,266.5l2.27,1v-3.28s2.71-4.56,1.57-5.41l2.28-.71a60.44,60.44,0,0,0-5-4.56,5.07,5.07,0,0,0-2.71-.86s-3-3-5-3.84a2.61,2.61,0,0,0-3,.85s-1.14-2.28-3.13-2.7-1.85,1.56-1.85,1.56a10.94,10.94,0,0,0-3.27-2.14c-1.85-.84-.57,1.71-.57,1.71l-6.56-2,.86,2-6.12-1.56.7,2.28-4.27-.72-.28,1.86-6.13,1.14,1.14,2-3.84-1.57v2.71l-4.28,1.57,1.57,1.42s-5.7,2.71-6.84,3.57c-1.14.7,2.28,2.27,2.28,2.27l-6.12-.85,2.28,2-5.42,5,3.85,2.71-2.28,3.42,5.7,1.13,2.27,3.85,4.7-.86v4.27l6.84-5.41s5,4.42,5.41,3.14a36.21,36.21,0,0,0,.29-5h2.42v-3.84l1.85,1.56,3.13-4.56,4.13,5.7,3.13-7.26,4.56.71Zm27.92-17.23-.71-6.56-2,2,.85-6.13-3.13-.57,1.14-6-2.28-1.14.57-2.85,2.28-1.71,4.13-4,9.54.15,1.14-3.13,6.84,1.14c1.13,1.28,4.69-2.57,4.69-2.57H556l1.57,3s5-.71,7.26.86l-2.71,3.7,5,.42,3.41.72,3.57-1.14,4.56-.29,1.13,1.85H584L582.61,231l5.56,2.56L587,234.73a19.79,19.79,0,0,0,5.41,1.14h1.14s1.14,2.7-.43,3.84c0,0,1.57,3.85,5,4.57s3.42.71,3.85,1.56a3.73,3.73,0,0,1-3.84,4.56v3.85s-3,2.71-3.42,3.84l-2.28-1.57s-2,2.29-2,3.85c0,0-5-6.55-6.84-6.84s-1.57,3.71-1.57,3.71l-5.41-4.56-.71,3.13L571.36,252l-2.71,1.84-4.84-5-4.7.57L561,247h-5.7l-1.13-5-.86,4.13-3.41-2.27-4.42,4.84a7.92,7.92,0,0,1-1.28-2.85c-.71-2.28-2.71,2.7-2.71,2.7L539.89,245,538,248.54s-1.57-2.7-3.14-3.56c-1.42-.71-3,4.27-3.41,6.56Zm.85,14.95.28-2.28,8.12-3.13,6.84-2.57L551,257l1.57,2.7,2-3.84,3.13,4,1.71-2.14,2.71,2h2.28l.42,3s5.7.42,6.13-.71,1.13,3.84,1.13,3.84l5.42.71,1.13,6.13s2.71,5.7,1.86,8-3-3-3-3a39.4,39.4,0,0,1-.85,5.42c-.28,1.13-7.26-1.14-7.26-1.14l-3,5.7s-3.13-4.56-4.55-4.56c-1.57,0-1.57,4.56-1.57,4.56s-4.56-5.42-6.55-7.7-2.28,2.28-2.28,2.28-3-5-3-6.41-2.71-3.14-2.71-3.14-4.7,5.42-8.12,6.85c0,0,.42-3.42-.71-4.56s-4.56,2.27-4.56,2.27a14,14,0,0,1,0-10.68Z" transform="translate(0 0)"/>
    </g>
    <g>
      <path class="cls-9" d="M569.94,181.59l.72,2.85a18.11,18.11,0,0,1,4.27-.43,14.58,14.58,0,0,1-1,3.28s3.42-.57,5,.42l-.71,1.71,4,1.71-3.71,3s6,2.14,7.12,3.85c0,0-3.84,2.7-4.41,2.56s-.14,1.14.85,2.42l-3.27-.14s1.28,3,1.13,4.13-5.41.85-5.41.85m20.5-7.68s1-5.7-.56-7.12c0,0,3.7,3.13,6.12,3.27,2.57.15-.14-4.7-.14-4.7a36.71,36.71,0,0,0,5.27,2.28c1.71.29-1.29-3.56-1.29-3.56s1-1.85,3.85-.14M542,167.49a3.18,3.18,0,0,0-.43-2c-3.42-4.7,3.56,3.56,5,3.84m6.55,0s2.28,1.71,3.42,1.71-.71-4.56-1.28-5.13,4.13,1.85,5.84,2.14,2-2.85,2-2.85,5.27.85,6.41,1.57m-36.61-1s-.43-3-.57-4.27M497,180c-.29-.58,1.43-3.14.71-4.28a4.72,4.72,0,0,0,2,1c.86.14.57-3.28.57-3.28l1.14.43s3-1.43,2.42-2.57,2,1.71,2,1.71,1.71-1.71,1.71-2.42,2,1.7,2,1.7,2.13-.42,2.13-1.7,2.71.42,2.71.42,1.14-1.56,1-2.56m-28.77,14.25s1.28-3-.15-5M452,192.13c.14-1.42.85-5.27.14-5.84s1.43.57,3.14,1m13.52-.56c-1.71-1.71-2.71-2.57-5.41-2.57m-23.5,12.1c.43-1,1.14-3.41.71-4.84m36.46,75.5,1.85-3.85,2.28,5.41,1.56-3.41.57,1.13,3.42-3.7,3.7,5.56M549.85,244l2.43-4.84,3.27,1.7,1.57-4.7,3.42,2.14,2-4.41,3.85,1,.28-3.13s2.7,1.56,3.42,2.7,0-3.84,0-3.84l3.13,1.42s2.28-2.28-.86-3.56" transform="translate(0 0)"/>
      <path class="cls-9" d="M559.4,237.87l3.42,5,2.85-3.28,2.56,5.55,3.28-2,4.7,2.71,2.13-1.71,5.13,3.7,2.13-4.41,4.56,1.42,3-5.12m-123-13.4s2-3.42,1.28-5,4.13,2.71,4.13,2.71,1.14-3.42.42-5,5.7,4.56,5.7,4.56,1.14-5.27,0-6.42,6.27,1.57,6.27,1.57,3-.85,1.85-2.42,5,2.28,5,2.28,1.42-3.84,0-5.27,4.55,1.85,4.55,1.85L497,211.09l5,.28-.43-4.56m44.15,65.81,3.28-1.57,2.85,2.85,3.13-5,3.85,3.7.57-3.7,4.13,1.71.85-2.29,4.56,2.43.42-3.42,2.28.71.43-2.28" transform="translate(0 0)"/>
    </g>
  </g>
  <path class="cls-10" d="M471.23,434.74a101.45,101.45,0,0,1-8.69-18.95l61.67-54.27,61.68,54.13a94.74,94.74,0,0,1-9,19.37l-.49.79L571.79,434s-2,1.85-3.56,2c-2.14.28-4-1.85-4-1.85s-2.71,2.28-5.41,1.85a5.34,5.34,0,0,1-3.85-2s-2.84,2.28-4.84,1.86a7.29,7.29,0,0,1-3.13-1.72,4.76,4.76,0,0,1-4.13,1.72,15.74,15.74,0,0,1-4.42-1.72,27.9,27.9,0,0,1-5.84,1.85c-2.27.43-4.27-2-4.27-2s-3,2-4.13,2-5.41-2-5.41-2a33.81,33.81,0,0,1-6,1.42c-1.43,0-5.84-1.84-5.84-1.84a34.21,34.21,0,0,1-6,1.13,16.75,16.75,0,0,1-4.85-1.13s-3.41,1.56-5.26,1.13a19.49,19.49,0,0,1-3.57-1.13s-3.7,1.56-6.12,1.13a19,19,0,0,1-5-2s-.43,1.14-4.85,2h-.14" transform="translate(0 0)"/>
  <g>
    <path class="cls-11" d="M524.22,299.12v62.39l-61.67,54.56a122.73,122.73,0,0,1-6.41-39.59V299.12h68.08" transform="translate(0 0)"/>
    <path class="cls-12" d="M524.22,299.12v62.39l61.53,54.56a122.73,122.73,0,0,0,6.41-39.59V299.12H524.22" transform="translate(0 0)"/>
    <g>
      <path class="cls-7" d="M484.43,421.77c4.64,2.52,3.07,1.72,12.68,5.13,7.83,2.71,16.95,4,30.19,4,11.59,0,18.12-.92,21.79-1.94s4.7-2.62,4.7-2.62L544.25,436s-38.35,2.07-45.29-2.42c-2.7-1.43-8.55-6.12-14.53-11.82Z" transform="translate(0 0)"/>
      <path class="cls-13" d="M540.7,403.68s12.25,7,0,20.37m-55.12-1.56,17.66-16.82-2,22.51m9.25,2v-37.6m30.2,37.6V390.29m-15.25,40.6V388" transform="translate(0 0)"/>
      <path class="cls-14" d="M510.5,394.57l-8,2.57,8,.85v-3.42m15-5.85-8.4,3.13,8.4.29ZM540.7,391l-8.4,3.14,8.4.42V391Zm5,18.1c-.42-1.71,5-1.56,5-1.56s1.57,5.69,0,9.25l-4.56-.85a20.92,20.92,0,0,0-.43-6.84Z" transform="translate(0 0)"/>
      <g>
        <path class="cls-15" d="M488.28,420.2l15-14.53-.72,8.69s-7.68,5-7.68,8.55l-6.56-2.71m8,3a13.5,13.5,0,0,1,5.84-6.83l-.43,9.11-5.41-2.28ZM517.77,398a39.87,39.87,0,0,1,10.68,0s-.72,6.12,0,7.26c0,0-8.41-2-11.82,1.14,0,0-1.14-5.7,1.14-8.4Zm-13,1.56a40.36,40.36,0,0,1,10.68,0s-1.13,6.85-.42,8c0,0-6.84-3.85-10.26-.71,0,0-2.28-4.7,0-7.27Z" transform="translate(0 0)"/>
        <path class="cls-15" d="M504.37,407.52a48.22,48.22,0,0,1,10.68,0s-.71,6.13,0,7.27c0,0-8-1.85-11.4,1.14C503.65,415.93,502.09,410.23,504.37,407.52Zm12.25-1.13s8.83-1.14,13.39-.43c0,0-1.86,5,.43,8.41,0,0-9.55-2.57-13.11.42,0,0-3-5.7-.71-8.4Zm-12.95,9.54,11.82.86s-1.14,8.69-.43,9.83c0,0-9.54-2.29-11.4.85,0,0-3.13-8,0-11.54Zm13.38,0s10.25-.71,15,0c0,0-2.71,6.56.28,12.25,0,0-13.39-3.84-15.24-.71,0,0-3.13-8,0-11.54ZM532.72,398a39.87,39.87,0,0,1,10.68,0s-.71,6.12,0,7.26c0,0-8.4-2-11.82,1.14C531.58,406.39,530.44,400.69,532.72,398Zm0,8.4a47.56,47.56,0,0,1,10.68,0s-.71,6.12,0,7.26c0,0-8.4-1.85-11.82,1.14,0,0-1.14-5.7,1.14-8.4Zm.71,8.83a41.24,41.24,0,0,1,10.82,0s-1.56,9.54-.85,10.68c0,0-7-3.27-10.25-.42,0,0-2-7.55.28-10.26Z" transform="translate(0 0)"/>
        <path class="cls-15" d="M546.1,415.93s2,7.27,4.56,8.12l-3.42,4.13s-4.13-3-4.56-6.4c0,0,2.71-3.14,3.42-5.84Z" transform="translate(0 0)"/>
      </g>
    </g>
    <g>
      <path class="cls-16" d="M576.64,435.59c-9.83,16.39-25.93,31.77-52.42,41.31-26.92-9.68-43.3-25.78-53-42l.14-.15c4.41-.85,4.84-2,4.84-2a19.39,19.39,0,0,0,5,2c2.42.42,6.12-1.14,6.12-1.14a19.75,19.75,0,0,0,3.56,1.14c1.85.42,5.27-1.14,5.27-1.14a16.62,16.62,0,0,0,4.84,1.14,34.11,34.11,0,0,0,6-1.14s4.41,1.85,5.83,1.85a33.39,33.39,0,0,0,6-1.43s4.28,2,5.42,2,4.13-2,4.13-2,2,2.42,4.27,2a28.12,28.12,0,0,0,5.84-1.85,15.41,15.41,0,0,0,4.41,1.71,4.77,4.77,0,0,0,4.13-1.71,7.22,7.22,0,0,0,3.13,1.71c2,.42,4.85-1.86,4.85-1.86a5.3,5.3,0,0,0,3.84,2c2.71.43,5.42-1.85,5.42-1.85s1.84,2.13,4,1.85c1.57-.14,3.56-2,3.56-2s3.56,1.14,4.84,1.57" transform="translate(0 0)"/>
      <path class="cls-13" d="M574.21,439.3c-2.13.15-2.42-1.28-2.42-1.28s-2.84,2.42-5.55,2a6.28,6.28,0,0,1-4.13-2.27s-3,2.42-5,2a6.66,6.66,0,0,1-3.41-1.71s-1.85,2.14-4.28,1.71a11.82,11.82,0,0,1-4.56-1.71,40.71,40.71,0,0,1-6.26,2c-2.42.43-4.42-2.28-4.42-2.28s-5.55,1.85-6.69,1.85-5.27-1.85-5.27-1.85-2.71,1.71-4.27,1.71c-1.71,0-6.27-2-6.27-2a36.08,36.08,0,0,1-6.27,1.14,18.1,18.1,0,0,1-5-1.14s-3.71,1.57-5.7,1.14a19.41,19.41,0,0,1-3.56-1.14s-4,1.57-6.41,1.14a21.06,21.06,0,0,1-5.27-2s-.43,1-5.13,2h-.14" transform="translate(0 0)"/>
      <path class="cls-17" d="M485.76,445.11s-.39.93-4.11,1.75c-.08,0-1,.22-1,.22.35-.06.62-.11.92-.18-.34.13-.69.25-1.05.35,4.2,6.07,10.49,11.58,17.05,16s14.09,9.69,26.92,13.45c13.49-5.27,17.09-7.27,25.91-13.17,8.81-6.44,13.41-10.45,18.32-17.06-3.85,2.19-3.29,2.21-5.29,1.92a7.81,7.81,0,0,1-3.46-1.88s-1.82,2.17-4.24,1.89a13.42,13.42,0,0,1-4.55-1.88s-3.16,2.15-6.3,2a7.73,7.73,0,0,1-4.42-2.28s-5.56,1.84-6.69,1.84c-1.29,0-5.25-1.84-5.25-1.84s-2.73,1.71-4.29,1.71c-1.71,0-6.26-2-6.26-2a35.74,35.74,0,0,1-6.25,1.14,18.24,18.24,0,0,1-5-1.13s-3.55,1.56-5.69,1.13a19.8,19.8,0,0,1-3.59-1.13s-4,1.56-6.39,1.13a21.39,21.39,0,0,1-5.29-2Z" transform="translate(0 0)"/>
      <path class="cls-18" d="M524.49,476.71c13.93-5.8,16.45-7.38,24.87-12.53-1.47,0-5.74-1.34-4.19-1.78a6.23,6.23,0,0,1-3.42,1.54c-1.57,0-6.13-2-6.13-2a35.91,35.91,0,0,1-6.26,1.14,18.1,18.1,0,0,1-5-1.14s-3.7,1.57-5.7,1.14a19.75,19.75,0,0,1-3.56-1.14s-4.13,1.57-6.41,1.14a20.9,20.9,0,0,1-5.27-2,20.93,20.93,0,0,1-5.71,2.08c6.74,4.93,13.83,9.74,26.77,13.54Z" transform="translate(0 0)"/>
    </g>
    <g>
      <path class="cls-19" d="M515,363.07c2.76-2.25,4.35-4.42,3.43-6.11-1-1.44-2.67.91-4.5.36,0,0-2.77-1.71-3.52-2.94-1.62-1.8-3.69-3.41-4.89-4.95a194.25,194.25,0,0,0-13.29-15c-2.08-1.36-1.61-6.51-3.1-8.1-.13-1.12-14.5-15.35-19.63-20.5-2.07-1.52-3.17-2.51-6.81.79-2.88,2.6-3.91,5.28-.14,8.51l18.7,17c2.73,2.66,6.55,3.14,8.15,4.52l19,19.43c2.4,2.07,3.54,3.54,2.19,5.31-1.5,2.9.11,3.29.45,3.38a3.24,3.24,0,0,0,2.45-.57Z" transform="translate(0 0)"/>
      <path class="cls-20" d="M467.63,312.08l19.54,19.31" transform="translate(0 0)"/>
      <path class="cls-21" d="M494.09,320.9c.31-.58,1-2.06,1.66-3.67.28-.64,5.54-9,8.16-9.27,0,0,16.35,11.89,16.36,12.05.05.64-7.09,11.33-7.72,10.52,0,0-19.15-8-18.46-9.63Z" transform="translate(0 0)"/>
      <path class="cls-22" d="M504.51,323.7c-2.24-1.74-5.94-3.43-8.93-5.42l-1.34,2.8c1.08,1.21,14.68,7.53,16.92,8.75a52.27,52.27,0,0,0-6.65-6.13Z" transform="translate(0 0)"/>
      <path class="cls-23" d="M495.58,317.92c1.75,1.23,5.07,3.33,7.17,4.55,4,2.8,6.57,5.89,9.45,7.53" transform="translate(0 0)"/>
      <path class="cls-24" d="M462.45,368.87l37.22-46.07c.7-.64,4.15-.67,4.62,2.9l-35.25,48a9.38,9.38,0,0,1-6.59-4.87Z" transform="translate(0 0)"/>
      <path class="cls-7" d="M587.22,369.37a8.23,8.23,0,0,1-3.46,1.26c-2.42-2.85-4.42-5.84-7.84-9.54l-37.17-45.73,3.84-3.7,33.47,39.17a172.77,172.77,0,0,1,12.4,14.39s.48,2.84-1.24,4.16Z" transform="translate(0 0)"/>
      <path class="cls-15" d="M551.42,321.2l-6-7.13s-4.56.57-5.41,3c0,0-3.28,5.41-12,6a26.17,26.17,0,0,0,12.54,15.53s3.7-10.41,7.26-12.26c0,0,3.7-2.7,3.56-5.12Z" transform="translate(0 0)"/>
      <path class="cls-7" d="M536.47,352.82c-.85-.28-1.71,0-3,.72s-2.56.42-2.42-1,0-1.14,1.56-2.14a9.16,9.16,0,0,1,7.13-.71l-3.28,3.14m40.59-40.47a3.14,3.14,0,0,1,.42-3.27c1-1.14,1-3.13-1.42-2.14s-3.28,3.71-1.28,7.84l2.27-2.43Z" transform="translate(0 0)"/>
      <path class="cls-15" d="M535.62,353.68l42.16-41.88,10.39,11.11s-2.13-.86-3-.29c-.71.57.85,2.71.85,2.71s-2-.72-2.84-.15c-1,.57,0,3,0,3s-1.71-1.28-2.57-.71,0,3.28,0,3.28-2.28-.71-2.84-.15,0,3,0,3-2.28-1.14-3.42,0,.57,2.7.57,2.7-2.85-1.14-4,.57a2.83,2.83,0,0,0,.14,3.28s-2.27-1.14-2.84-.58,0,3.28,0,3.28-2-1.14-3.28.29a2,2,0,0,0,.14,2.85s-1.84-1.14-2.85-.57.29,3.27.29,3.27-1.85-1.28-3.13,0a2.11,2.11,0,0,0,0,2.85,2.22,2.22,0,1,0-3.14,3.13s-2.27-1.13-3.13,0,.28,2.71.28,2.71-1.7-1-2.84-.43,0,3.13,0,3.13-1.71-1.85-2.42-.85.14,3.42.14,3.42-1.57-1.85-2.42-.85c-1,.85.57,3,.57,3s-2.85-1.28-2.14-1.28Z" transform="translate(0 0)"/>
      <path class="cls-25" d="M575.35,315.22l-3.28,3.27.71,11.26s.72-3.28,1.71-1c0,0,.29-2.7,1-2.28-.57-.28-.14-11.25-.14-11.25m-6.12,6.12-2.42,2.27.85,11.26s.72-4.27,1.71-.85c0,0-.14-2.85-.14-3.85v-8.83m-25.49,25.22L541.46,349l.57,6.84s.71-4.41,1.71-1c0,0-.29-2.84-.29-3.84,0,.71.29-4.42.29-4.42" transform="translate(0 0)"/>
      <g>
        <path class="cls-26" d="M540.88,318.35c1.57,1.57,6,7.27,6,7.27m-4-4.13c-.28.86-.85,3.28-2.13,4.56m2.83-4a6.61,6.61,0,0,1-2.13,4.28m2.85-3.41a4.87,4.87,0,0,1-1.14,2.42m1.57-1.57c0,.71-.42.86-.57,1.29m-4.69-4a35.1,35.1,0,0,1-7,4.13m5.83-2.57a20.51,20.51,0,0,1-4.56,3.14m4.14-1.43c-.86.58-2.28,2-3.42,2.42M537,326a8,8,0,0,1-2.13,1.71" transform="translate(0 0)"/>
        <path class="cls-27" d="M512.32,327.61a41.22,41.22,0,0,1,2.33-4.08,14,14,0,0,1,2.63-3" transform="translate(0 0)"/>
      </g>
    </g>
  </g>
  <g>
    <path class="cls-28" d="M374.81,442.44c2.14,1,0-7,.71-10,.86-3.14,7,7.69,10,9.11,3.13,1.57,22.21-7.55,22.21-7.55l4.56-8.54,2.42,7s5.27-6.12,6.84-8.4,0,4.56-1.57,6.84,4.56,3.13,3.85,7.69,6.12-3.13,6.12-3.13L447.59,437s3-10.69,7.69-16.82l1.43,6.85,7.26-7.41c8.12,21.37,25.21,44.59,60.25,57.27,32.9-12,49.85-33.2,58.68-53.43l9.82,10.12s7.7-2.28,9.12-3.13,18.09,5.84,18.09,5.84a25.19,25.19,0,0,1,4.56,2.28c1.56,1.14.42-5,.42-5s8.41,1.57,7.69,6.13c0,0,1.86-4.27,3.42-5s5.27,3.84,6.13,5.41c.71,1.42,18.8,3.7,21.36,5.27,0,0,2,2.28,2,3.84,0,0,3.84-.42,6.84-.42a4.26,4.26,0,0,0-2.28,3.56,5.66,5.66,0,0,1-3.42,5.27c-2.28,1.14,0,2,3,2.28s0,4.27-6.13,6.55c0,0-1.42,3.42,1.14,4.56,0,0-5.27.43-6.12-1.14,0,0-1.85,3.56-1.85,5.41a74.76,74.76,0,0,1-7.26-2.71s-2.28,2.28-.72,3.42c0,0-10.39-1.14-12.39-5,0,0-3.7,1.13-3,2.42,0,0-7.26-5-9.54-5l-1.57,2.56s-5-3-6.55-3-.29,2.28-.29,2.28l-7-4.27-2.71,4.27a81,81,0,0,1-7.26-3.84c-1.43-1.14-1.85,2.27-3,2.7,0,0-2.28-3.13-5.41-2.7,0,0-1.14,3.84-.71,5,0,0-8.84-1.85-10.4-2.28s-.71,1.85,0,3.42c0,0-6.55-1.85-8-3l-.43,3s-5.4-.43-6.54-1.57l-3.42,4.7h-5l-1.14,4.13s-9.54-2.7-10.39-1.14.42,3.84.42,3.84l-8.4-1.13-.71,3.41s-9.69-3-12-1.56c0,0-3,3.13-5,3.84s0-1.14,0-1.14l-3-4.13S512,483.75,510,483s-8,3-10,1.85c0,0,0-2.71-1.57-3.42s-4.13-.71-5.27,1.14c0,0-1.13-1.57-3.13-4.56s-4.56.29-4.56.29l-.43-3.71-5.27-.43a4.55,4.55,0,0,1-3.84-3.13s-8.12.85-9.26.43l2-1.86s-11.1,2.29-13.38,1.43c-2.42-.71,2.56-3.84,2.56-3.84s-10.26-2.56-12.25-3-13,1.84-14.53,1.84-2.28-2.56-2.28-2.56a18.43,18.43,0,0,1-5,3s-1.85-4.55-.71-5c0,0-7.27,2-7.7,3.85,0,0-1.84-3-1.56-4.28,0,0-3.42,5.41-5,6.55s-.28-2.7-.28-2.7-4.27,5.41-5.84,5.84v-3.85s-12.25,6.55-15.67,5.7c0,0,0-2.71,1.14-3.42l-7.69-.43c-1.85-.28-4.13-1.13-6.12-1.56s2.7-2.28,5.84-1.43c0,0-8.55-3.13-11.12-1.57,0,0-1.14-3.13,3.42-4.27,0,0-5.84-5.7-9.26-5.27,0,0,3.85-2.28,7-1.14,0,0-3.56-9.68-5.84-10.82,0,0,8.12-1.43,10.4-.28Z" transform="translate(0 0)"/>
    <g>
      <path class="cls-7" d="M363,275.33l103.69-53.7c.5-2.78-1.08-5-2.7-7.13-29.65,14.55-56.64,32.19-89.59,42.88-1.85.72-18.23,7.55-26.64,17.67a11.19,11.19,0,0,0-2.86,6.61s.21,4.53,1.16,5.75a3.83,3.83,0,0,0,1.79,2.23,2.56,2.56,0,0,0,1.64.24c.75.14,2,.13,3.68-2.87A76.55,76.55,0,0,1,363,275.33Z" transform="translate(0 0)"/>
      <path class="cls-15" d="M446.45,222.2l13.39-6.41s4.56,3.42,4.13,7.27c0,0,1,8.83,12,14.95a37.78,37.78,0,0,1-25.49,12.54s1.86-15.23-1.55-19.65c0,0-.57.55-.32-.21.48-1.48-.34-6.56-2.41-7.68-.26-.14.16-.55.29-.81Z" transform="translate(0 0)"/>
    </g>
  </g>
  <path class="cls-29" d="M462.12,224.05c-2.85,1.14-12.11,6-12.11,6m7.7-3.14c-.15,1.43-1,4.85,0,7.27m-1.29-6.83c0,.71-1.14,3.27.14,6.69M455,228a6,6,0,0,0,0,3.85m-1.14-3a3.93,3.93,0,0,0,0,1.85m8.4-2.28a54.31,54.31,0,0,0,6.55,9.54m-6-6.84A28.48,28.48,0,0,0,467,238m-4.41-4.42A24.84,24.84,0,0,0,465.4,239m-2.85-2.56a9.19,9.19,0,0,0,1.71,3.57" transform="translate(0 0)"/>
  <g>
    <path class="cls-19" d="M557.51,216.24l38.09,18.65c7.64,3.71,10.38.28,14.69,2.15l75.17,38.29c6.45,2.82,10.06,3.72,9.13,7.06-.16,5.3,2.5,5.38,3.23,5.44a5.36,5.36,0,0,0,4.13-1.64,7.5,7.5,0,0,0,.83-1,4.29,4.29,0,0,0,1-1.3c3.16-4.55,4.91-8.5,1.6-11.07-3.78-1.77-4.22,2.25-8.2,1.82,0,0-7.12-2.7-9.69-4.55-4.72-2.57-11.31-5.62-12.81-7.3-4.8-.9-40.93-21.22-61.39-31.42-2.2-1.83-3.4-8.63-7.71-10.9-1.27-1.84-29-14.49-43.46-21.73-5.34-2-8.33-3.36-12.18,3.19-3.36,6.43-2.54,9.93,7.61,14.33Z" transform="translate(0 0)"/>
    <path class="cls-13" d="M560.73,208.26l42.64,21.29" transform="translate(0 0)"/>
    <g>
      <path class="cls-30" d="M433.63,231.16c-.29.86-1,.29-1,.57-.57,3-.43,4.56-1.14,6.27-1,2-4.56,3.85-4.41,3.7-2.85.86-6.27,4.28-11.82,1.14a3.6,3.6,0,0,1-.85-.71,7.64,7.64,0,0,1-4.13,8.69c-2,1-22.08,11.54-22.08,11.54a13,13,0,0,0-.72,9.11c.15.86.43,1.57-.42,2.14a17.89,17.89,0,0,0-5.13,8.41s-4.27-1.86-4.27-4.56,1.7-4.13,2.13-6.13c.43-1.85,1.57-6.55,1-8s-3.13-2.13-4.13-2.7-2,.56-1.85,1.84,1.14,1.14,2.28,1.43a11.84,11.84,0,0,0-1.14,4.7l-13,6.7s1.71,2.27,2.28,3.27,1.85,14.25,5.7,20.52,5.12,4.56,6,5.41,1.84,1.85,2.84,2.71c1,.71,5.42,1.13,6.27-1.28a12.49,12.49,0,0,1,4.42-5.85c2.7-2.13,8.26-7.54,8.26-10,0,0,3.27,9.4,2.84,17.24a155.44,155.44,0,0,0,22.65,2.71c10.69.14,16.1-2.14,16.1-2.14s1.42-9,.85-10.68c0,0,1.71,5.84,3,7.83,1.43,2.42,3,7.4,6.12,7.69s5.56-3,5.84-4.27v-9.4h12.11c0-.14,5.41,2,7.12,1.71s2.71-1.71,1.14-2.28l-.57-.43a9.9,9.9,0,0,1,3.56,1h6c.14-.15,0-.58-.14-.72-.43-1.71-3.57-3.13-5.84-4.13a30.47,30.47,0,0,0-6.55-2c-2.71-.29-4.56-.14-8.69.57-1.14.14-5.42.57-8.12,1.85-.72.43-1.43.57-1.14-1.28.43-2,.28-11-1.85-14.82a10.44,10.44,0,0,1-1.14-7.26,116.57,116.57,0,0,0,0-12.4c-.43-2.28-3.56-5.41-9.25-6.12-5.42-.72-10-5.13-10.26-8.69-.43-3.56.57-10.11,1.14-13" transform="translate(0 0)"/>
      <g>
        <path class="cls-31" d="M409.42,215.08a49.57,49.57,0,0,0-.85,13c.14,3,1.56,6.4,2.85,9.4.85,2,2,4.27,3.84,5.41,5,3.28,9.69-.28,12.39-1.42A9,9,0,0,0,431.5,238c.71-1.71.42-3,1.14-6.27-.15.14,1.14-.57,1-.57,1.29-2.13,1-2.85,1.71-4.27s-.85-3-2.56-2.71c.85-2.7,1.43-5.7.57-8.26-.29-.85.71-3.13-.86-2.57-6.41,2.57-13.95,2-20.79,2-.57,0-1-1.14-1.85-1-.14,0-.29.43-.43.71" transform="translate(0 0)"/>
        <path class="cls-32" d="M408.85,217.49c-.71-.57-.86-1.85,0-4.56s0-2.85,1.56-4.42,1.14-2.28,2.14-2.7,4-.29,5-.71a12.72,12.72,0,0,1,4.13-1.28c2.14-.44,6.41-.29,8.41.85s3.56,4,4.84,5,2.28,5.13,2,11.12c-.43,6-1.57,4.84-1.57,4.84s-1.71-2.85-3.13-.43a30,30,0,0,1,.28-4c.14-1.71-.85-4.84.14-7,0,0-8.12,2.56-12.25,2.42s-10.25-1.28-10.53-2.28l-1,3.13" transform="translate(0 0)"/>
        <path class="cls-33" d="M413,212.52c-.43-.86-2.57-4-.86-5s.57,3.84,2.71,4.84c0,0-.71,2.14-1.84.14Z" transform="translate(0 0)"/>
        <path class="cls-34" d="M417.68,224.19c-.71,2.43-1,3-1.28,4.42m14.82,2.27c.28.86.56.43,1.28.57m.57-5.55c.71-.85,1.7-.42,1.14,1.71" transform="translate(0 0)"/>
        <path class="cls-34" d="M409.42,220.78a39.91,39.91,0,0,1,3.85,1.42c2.13.86.85,4,.28,6-.28,1-1.42,2.71-.85,3.57.71,1.13,1.57.42,2.85.56,0-.42.85-.71,1.14-.71,1-.14,1.57.71,2.28.43.85-.43.71-1.71.42-2.42m-.14-6.27c.14-.57,1.42-1.14,2.14-1.28,3-.57,5.12-1,7.55.71m-8,15.52c-2.43.57-5,1-7.27-.29m0-1.12c1.14-.58,1.57-1.15,3-.44a7,7,0,0,1,1.57-.56,5.24,5.24,0,0,1,3,1.13m-7.69.43c1.28-.43,4.7-.43,7.55.14" transform="translate(0 0)"/>
        <g>
          <path class="cls-35" d="M409.28,224.19c1-.14,2.14-1.28,4.42.43,1.56,1-2.57,2-1.85,1.85-1.85.29-2.43-.71-2.56-1.57,0-.28-.29-.71,0-.71ZM421,225.33c1-2,2.56-1.57,4-1.15a6.49,6.49,0,0,1,2.28.86c-1.57.29-1.14.43-2.29,1s-2.42.85-3.27.28c-.29-.28-1-.71-1-1.28a.31.31,0,0,0,.29.29Z" transform="translate(0 0)"/>
          <path class="cls-36" d="M411.27,225.9a1.1,1.1,0,0,0,1-1.14,1.15,1.15,0,0,0-1-1.28,1.16,1.16,0,0,0-1.14,1.28A1.13,1.13,0,0,0,411.27,225.9Zm12.11.28c.57,0,1-.56,1-1.28a1.13,1.13,0,0,0-1.14-1.14,1,1,0,0,0-1,1.14,1.25,1.25,0,0,0,1.14,1.28Z" transform="translate(0 0)"/>
        </g>
      </g>
      <g id="g">
        <g>
          <path class="cls-34" d="M484.19,299.12a5.31,5.31,0,0,0-2.56-1.85l-2.85-1.43c-1-.57-2.42-.71-3.27-1.28m.56,3.71c-.42-.29-.71-.43-1.13-.72s-1-.14-1.43-.28c-.14,0-.14-.29-.28-.29a4.83,4.83,0,0,1-3.42-1.85M381.92,282c1.28,1,4.42,3.13,4.7,7.26a14.72,14.72,0,0,0,1.43,4.27m-18.38-11c.72,2.42.86,10.39,8.41,18.8m-7-29.92c-.57,1.57-1.28,3,.29,4.13m20.22,15c1.57-3.56,6.41-3.28,6.41-6.7" transform="translate(0 0)"/>
          <path class="cls-34" d="M398.74,290.15c-.43-4-1.28-6.27-.57-12.11a50.68,50.68,0,0,0,0-11.4s2.28,11-5.13,13.11m48.15,17.52a25,25,0,0,1,1.28-8.69c1.71-7.83-1.57-10.82-.28-12.82,1.13-1.71,2.84-5.27.56-12.39,0,0,4,14.67-6.26,14.67-10.4,0-10-3.84-10-3.84" transform="translate(0 0)"/>
          <path class="cls-34" d="M398.16,266.64c0,3,0,11.83,12.68,11.83,3.84,0,8-2.71,10.25-4.56m3.14-3.85a66.93,66.93,0,0,1-.43-9.69m-19.08-4.83a80.41,80.41,0,0,1,12.53-.86m.43-8.84c.71,3.13-.42,8.12,5.41,8.83m6.13-10a29.23,29.23,0,0,0-1.14,6.13m.28,3.85c2.42,0,7-1.56,12.68-.43m2,31.91c1.14,2.28,1.43,5.27,5,8.69m-44.44-16c.29,1.85-2.42,8-.43,13a17.22,17.22,0,0,1-1.56,15.52m9.26-26.63c-1.14,2.28-3.13,4.56-3.56,6.55m9.24-2.28c0,1.43-3.84,12.25-6.55,15.24,0,0,5,2,4.27,9.26M424.51,280c0,1.85-.28,2.28,1.29,3.41m3.42,0c1.84,2.28,7.69,9.12,6.4,13m-10.25-9.12c.43,1.43.43,8.84-.86,12.54m-3-.29a4.44,4.44,0,0,0-4.27,3.85m12.24-4.28c1.56-.43,4.69,2.28,4.69,10m21.95-14.38c-3,.85-4.27,2.42-3.42,1.57a28.35,28.35,0,0,1-3,2.13" transform="translate(0 0)"/>
        </g>
        <path class="cls-36" d="M405.71,277.18a1.46,1.46,0,0,0,1.57-1.28c0-.58-.71-1.14-1.57-1.14-.71,0-1.43.56-1.43,1.14a1.41,1.41,0,0,0,1.43,1.28Zm32.34.44a1.41,1.41,0,0,0,1.43-1.29,1.3,1.3,0,0,0-1.43-1.13c-.85,0-1.56.43-1.56,1.13a1.45,1.45,0,0,0,1.56,1.29Z" transform="translate(0 0)"/>
        <path class="cls-37" d="M392.76,335.73c1.71-11.11,7-20.37,7.12-21.23a142.51,142.51,0,0,0,14.81,2,68.75,68.75,0,0,0,16.1.28c4.13-.43,9.54-1.14,9.54-1.14a19.51,19.51,0,0,1,1.85,6.84c.43,7.26,3.13,38.75,3.42,47.15,0,0,1.13,5,1.13,17.23,0,13.4,3.71,40.6,3.71,55.14l-3.7.71s-20.23,1.57-20.23-1.14c0-3-1.14-37.89,1.85-59a66.69,66.69,0,0,0-1.85-7.7c-1.14-3.42-6.12-14.1-6.12-16.38,0,0-8,22.51-8.4,26.36-.43,3.56-1.57,53.7-2.29,57.84,0,0-11.53,8.83-13.1,9.68s-12.67-4.7-13-6.12,1.14-18.52,6.41-46.45c2-10,.85-11.81.85-14.52s.15-38.46,1.86-49.58Z" transform="translate(0 0)"/>
        <path class="cls-34" d="M412,384.88c-.85,3.14-2.28,6.13-5,8.13m-3.85-75.09c-.43,1.85-3.13,10.26-10,15.24m19.94-13.67c-1.57,5-7.69,31.77-8.84,63.54m-.42,10c-.28,3-1.85,25.22-2.28,29.06m-1.13,4.28c-.72,1.56-3.85,14.52-3.85,26.07m45.15-50.29c-.29,2.7-1.43,21.93,5,39.17M420.82,320.92c-.43,3.13-1.14,23.36-1.14,24.93s2.28,3.84,3.42,4.27c0,0-2.28.72-2.71,8.41m-5.71-18.1c-.43,2.42-2.7,12-4.27,15.82m18.37-35.61s6.84,1.42,7.27,0c0,0,2.28,41.31,5.41,64.24m-15.66-59c0,2.71-.85,23.08-.85,23.08m3.41,3s2.7,3.84,2,5.69m-24.93-39.3c2.28.71,4.28,1.13,4.28,1.13m7.26,2.28a49.87,49.87,0,0,0-.86,6.41m12.25,54.42c.86,1.14,2,2.71,1.14,6.13" transform="translate(0 0)"/>
        <path class="cls-38" d="M398.88,314.23s0-4.56,1.71-6.85c0,0,4.84,1,11.68,1.72s12.53,1.28,17.66.71a95.62,95.62,0,0,0,10.4-1.85s1.42,6.7.71,7.69a86,86,0,0,1-11.68,1.43,118.89,118.89,0,0,1-20.22-1.14c-4.71-.57-8.84-1.43-10.26-1.71Z" transform="translate(0 0)"/>
        <path class="cls-37" d="M403.29,314.79l.85-6.84,1.43.14-.29,7.12Zm30.91-5.7.15,7.69,1.7-.29-.14-7.83Zm-21.94,0-.57,7.4h1l1-7.4Z" transform="translate(0 0)"/>
        <path class="cls-39" d="M387.48,449.13a51.75,51.75,0,0,0-1.42,7.69c0,.71-.71,4.56,1.42,4.7,1.57.14,2-4,2-4s-1.43,4.56.42,5.13c2.57.57,2.85-5,2.85-5-.28,1.57-2,5.56.43,6s3.28-5.41,3.28-5.41-2.14,5.84.42,6,2.42-5.7,2.42-5.7-1.28,7,2.14,6.41c1.85-.29,2.28-2.71,2.7-4.13.57-2.14,1.86-4.84.29-9.26-1.14-3.28-.71-4.13-.71-4.13s-4,3-7.12,5c-1.43.86-9.12-3.27-9.12-3.27Zm41.6-6.13c-.71-.43-.57,2.56-.86,4s.29,4.56,5.13,4.28,9.4-1.43,12.39-.72a40.88,40.88,0,0,0,9.83,1,14.49,14.49,0,0,0,5.13-.71c1-.43,3.13.57,4.13.57s2.56-1.57,2.42-2.57c-.14-1.85-1.85-1.85-4.27-2a40.32,40.32,0,0,1-7-1.28,43.35,43.35,0,0,0-8-2.85s-6.83.29-8.26.29-9.83.42-10.68,0Z" transform="translate(0 0)"/>
      </g>
      <g>
        <path class="cls-40" d="M358,265.79c-.71.42-1.57-2.85.57-4.13,0,0,.57-2.71,2.85-3,0,0,1.84-2.56,4.56-2.27,0,0,3.13-2.14,4.27-1.86s4,3,4.13,4a4.12,4.12,0,0,1-.72,3.42c-.85.85-1.42-.14-1.57-1.28,0,0,.58,2.13-1.13,3s-1.57.29-1.71-.86c0,0-.43,2.29-1.57,2.57s-1.85-.57-2.71-.57c0,0,1.43,1.14.43,2a2.35,2.35,0,0,1-2.85-.14c-.71-.72-1.56-2.57-4.56-.86Z" transform="translate(0 0)"/>
        <path class="cls-34" d="M372,260.52a5.59,5.59,0,0,0-5.7-4m3.13,6.12c-.42-.57-.57-1.14-1-1.71-1.28-2.14-4-2-6.27-2.56m3.41,6.41c-.85-.57-1.13-1.71-2-2.13-1.43-.57-2.85-1.28-4.56-1" transform="translate(0 0)"/>
      </g>
    </g>
    <g>
      <path class="cls-41" d="M614.8,231.16c1-.43.71.86.85,1.29.43,1.84.43,3.84,1.14,5.55s1.14,2.14,2.56,2.85c2.28,1.28,9,5,13.68,2a4.63,4.63,0,0,0,1-.71,7.43,7.43,0,0,0,4.13,8.69c1.84,1,21.93,11.54,21.93,11.54a13.46,13.46,0,0,1,.85,9.12c-.28.85-.56,1.56.29,2.13,1.43,1,3.7,3.85,5.27,8.41,0,0,4.13-1.86,4.13-4.56s-1.71-4.13-2.14-6.13c-.28-1.85-1.42-6.55-.85-8,.57-1.57,3-2.14,4-2.71s2.13.56,1.85,1.84-1.14,1.15-2.28,1.43c0,0,1.43,2.7,1.14,4.7l13.1,6.7s-1.71,2.28-2.28,3.27-2,14.25-5.84,20.52-5.13,4.56-5.84,5.41-2,1.85-3,2.71c-.85.71-5.27,1.14-6.27-1.28a12.58,12.58,0,0,0-4.41-5.85c-2.71-2.13-8.26-7.54-8.26-10,0,0-3.28,9.41-2.85,17.24a150.59,150.59,0,0,1-22.65,2.71c-10.68.15-16.1-2.14-16.1-2.14s-1.42-9-.85-10.68a56.88,56.88,0,0,1-2.85,7.83c-1.56,2.42-3.13,7.41-6.12,7.69s-5.56-3-6-4.27v-9.4H580c0-.14-5.27,2-7.12,1.71s-2.56-1.71-1.14-2.28l.57-.43a9.9,9.9,0,0,0-3.56,1h-6c0-.15.15-.58.15-.72.43-1.7,3.56-3.13,6-4.13,2.28-.85,4.7-1.85,6.41-2a28,28,0,0,1,8.69.57c1.13.14,5.55.57,8.11,1.85.72.43,1.57.57,1.14-1.28s-1.71-7.83.43-11.68c1.43-2.71,1.28-5,1.14-7.27s-1.56-7.83-1.56-10.25c0-8,6.12-11.26,11.53-13,6-1.85,10-3.85,9.69-7.4-.15-3.71.85-9.83.28-12.68" transform="translate(0 0)"/>
      <g>
        <path class="cls-42" d="M638.88,215.08c1.28,4.7,1.57,5.83,1.57,7.4s-.72,2-.15,3.85c1,3.42-1,7.12-3.41,11.11-1.14,1.85-2,4.28-3.85,5.42-4.7,3-10.4-.58-13.39-1.86a5.23,5.23,0,0,1-2.84-3,41.07,41.07,0,0,1-1.14-5.55c0-.43.14-1.71-.86-1.29-1.7-2-1.42-2.84-2.13-4.27s1.28-3,2.85-2.71c-.86-2.7-1.28-5.7-.43-8.26.29-.85-.71-3.13.72-2.57,6.4,2.57,13.95,2,20.79,2,.57,0,1-1.14,1.85-1,.14,0,.28.42.42.71" transform="translate(0 0)"/>
        <path class="cls-32" d="M639.45,217.48c.72-.56.29-3.27-.42-6.12-.29-1.42-1.43-2-3-3.56a6.74,6.74,0,0,0-3.13-2c-.86-.29-2.85-.29-3.85-.72-.85-.43-3.13-.14-5.27.15-2.85.42-4.42.28-6.55,1.42s-3.85,2.42-4.56,4.56c-.57,1.57-1.57,3.56-1.14,9.54S613,225.6,613,225.6s1.57-2.27,2.56-.85c0,0-.14-3.14-.42-5a18.22,18.22,0,0,1,.71-6.42,42.53,42.53,0,0,0,12.67,2.43c4.28,0,9.83-.43,10-1.42l1,3.12Z" transform="translate(0 0)"/>
        <path class="cls-34" d="M630.62,224.19c.85,2.43.15,1.71.57,3.28m-14.39,2.84c0,1.14-.85.85-1.43.85" transform="translate(0 0)"/>
        <path class="cls-34" d="M639.59,222.34c-1.28-1-3.7-.28-4.84.15-2.13,1-1,3.13-.28,5.13.28,1,1.42,2.41.71,3.41s-1,.58-2.28.72c.15-.43-1.14,0-1.56,0-.86-.14-1.28.56-2,.28-.85-.43-.71-1.71-.43-2.42m.14-6.27c0-.57-1.85-1.14-3.84-1.28-3.13-.15-3.42.14-5.84,1.85m16.09,12.53c-.56-.85-1.42-1.28-3-.57,0-.28-2.13-.56-2.13-.56a6.2,6.2,0,0,0-3,1m7.82.85c-1.28-.85-4.56-.28-7.83-.28m.28,1.14c2.43.72,4.85,1.14,7.27,0" transform="translate(0 0)"/>
        <g>
          <path class="cls-35" d="M639,224.19c-1-.14-1.42-1.28-4.41.43-1.57.85,2.56,2,2,1.85A1.83,1.83,0,0,0,639,224.9c0-.28.29-.71,0-.71Zm-11.68,1.13c0-1.14-2.56-1.56-4-1.14a5.67,5.67,0,0,0-2.14.86c1.43.28,1,.42,2.14,1s1.57,1.14,3.27.29a2,2,0,0,0,1.14-1.28c-.14.14-.28.28-.43.28Z" transform="translate(0 0)"/>
          <path class="cls-36" d="M637.17,225.9a1.13,1.13,0,0,1-1.14-1.11v0a1.16,1.16,0,0,1,1.14-1.28,1.15,1.15,0,0,1,1,1.28A1.1,1.1,0,0,1,637.17,225.9Zm-12.25.28c-.57,0-1-.57-1-1.28a1.12,1.12,0,0,1,1.13-1.14,1,1,0,0,1,1,1.14A1.15,1.15,0,0,1,624.92,226.18Z" transform="translate(0 0)"/>
        </g>
      </g>
      <g>
        <g>
          <path class="cls-34" d="M564.15,299.11a5.43,5.43,0,0,1,2.56-1.85l2.85-1.42c1-.57,2.43-.71,3.28-1.28m-.57,3.7c.43-.28.71-.43,1.14-.71s1-.14,1.43-.29c.14,0,.14-.28.28-.28a4.92,4.92,0,0,0,3.42-1.85M666.42,282c-1.28,1-4.41,3.14-4.7,7.27a14.65,14.65,0,0,1-1.42,4.27m18.37-11c-.71,2.42-.85,10.4-8.4,18.81m7-29.92c.57,1.57,1.29,3-.28,4.13m-20.23,15c-1.56-3.56-6.41-3.27-6.41-6.69" transform="translate(0 0)"/>
          <path class="cls-34" d="M649.61,290.14c.43-4,1.28-6.26.56-12.11a51.19,51.19,0,0,1,0-11.39s-2.27,11,5.13,13.11m-48.14,17.52a25.08,25.08,0,0,0-1.28-8.7c-1.71-7.83,1.57-10.82.28-12.81-1.14-1.71-2.85-5.28-.57-12.4,0,0-4,14.68,6.27,14.68s10-3.85,10-3.85" transform="translate(0 0)"/>
          <path class="cls-34" d="M650.18,266.63c0,3,0,11.83-12.68,11.83-3.84,0-8-2.71-10.25-4.56m-3.14-3.85a66.86,66.86,0,0,0,.43-9.69m19.09-4.83a81,81,0,0,0-12.54-.85m-.42-8.85c-.72,3.14.42,8.12-5.42,8.83m-6.12-10a30.64,30.64,0,0,1,1.14,6.12m-.29,3.86c-2.42,0-7-1.57-12.67-.43m-2,31.9c-1.14,2.28-1.42,5.27-5,8.69m44.43-16c-.28,1.86,2.43,8,.43,13a17.22,17.22,0,0,0,1.57,15.52m-9.26-26.62c1.14,2.27,3.13,4.56,3.56,6.55M631.81,285c0,1.42,3.85,12.25,6.56,15.24,0,0-5,2-4.27,9.26M623.83,280c0,1.86.29,2.28-1.28,3.42m-3.42,0c-1.85,2.28-7.69,9.12-6.41,13M623,287.3c-.43,1.42-.43,8.83.85,12.54m3-.29a4.45,4.45,0,0,1,4.27,3.84m-12.24-4.28c-1.57-.42-4.7,2.28-4.7,10M592.21,294.7c3,.86,4.27,2.43,3.41,1.57a28.89,28.89,0,0,0,3,2.14" transform="translate(0 0)"/>
        </g>
        <path class="cls-36" d="M642.64,277.18a1.45,1.45,0,0,1-1.57-1.29c0-.57.71-1.14,1.57-1.14a1.23,1.23,0,1,1,0,2.43Zm-32.34.43a1.41,1.41,0,0,1-1.43-1.28,1.3,1.3,0,0,1,1.43-1.14c.85,0,1.56.43,1.56,1.14a1.44,1.44,0,0,1-1.56,1.28Z" transform="translate(0 0)"/>
        <path class="cls-37" d="M655.59,335.72c-1.71-11.11-7-20.37-7.12-21.22a141.74,141.74,0,0,1-14.82,2,68.1,68.1,0,0,1-16.09.28c-4.13-.42-9.54-1.13-9.54-1.13a19.42,19.42,0,0,0-1.85,6.83c-.43,7.27-3.13,38.75-3.42,47.16,0,0-1.14,5-1.14,17.23,0,13.39-3.7,40.6-3.7,55.13l3.7.72s20.22,1.57,20.22-1.14c0-3,1.14-37.89-1.85-59a66.25,66.25,0,0,1,1.85-7.69c1.14-3.42,6.13-14.1,6.13-16.38,0,0,8,22.5,8.4,26.35.43,3.56,1.57,53.7,2.28,57.84,0,0,11.54,8.83,13.11,9.69s12.67-4.71,13-6.13-1.14-18.52-6.41-46.44c-2-10-.86-11.82-.86-14.53s-.14-38.46-1.85-49.57Z" transform="translate(0 0)"/>
        <path class="cls-34" d="M636.36,384.88c.86,3.13,2.28,6.12,5,8.12m3.85-75.08c.42,1.85,3.13,10.25,10,15.24m-19.94-13.68c1.57,5,7.69,31.77,8.83,63.54m.42,10c.29,3,1.85,25.22,2.28,29.06m1.14,4.27c.71,1.57,3.84,14.53,3.84,26.07M606.6,402.11c.29,2.71,1.43,21.94-5,39.17m25.91-120.37c.43,3.13,1.14,23.37,1.14,24.93s-2.28,3.85-3.42,4.28c0,0,2.28.71,2.71,8.4m5.7-18.09c.43,2.42,2.71,12,4.28,15.81m-18.38-35.61s-6.83,1.43-7.26,0c0,0-2.28,41.32-5.41,64.25m15.66-59c0,2.7.85,23.08.85,23.08M620,352s-2.7,3.85-2,5.7m24.93-39.31c-2.29.71-4.28,1.14-4.28,1.14m-7.26,2.28a49.52,49.52,0,0,1,.85,6.41M620,382.6c-.85,1.14-2,2.71-1.14,6.12" transform="translate(0 0)"/>
        <path class="cls-38" d="M649.47,314.22s0-4.56-1.71-6.84c0,0-4.84,1-11.68,1.71s-12.53,1.28-17.66.71A94.18,94.18,0,0,1,608,308s-1.42,6.69-.71,7.69A85.1,85.1,0,0,0,619,317.07c6.27.43,16.66-.57,20.22-1.13,4.71-.58,8.84-1.43,10.26-1.72Z" transform="translate(0 0)"/>
        <path class="cls-37" d="M645.06,314.78l-.85-6.84-1.43.14.28,7.13Zm-30.91-5.7-.15,7.7-1.71-.29.14-7.84Zm21.93,0,.57,7.41h-1l-1-7.41Z" transform="translate(0 0)"/>
        <path class="cls-43" d="M660.86,449.12a50.7,50.7,0,0,1,1.43,7.7c0,.71.71,4.56-1.43,4.7-1.56.14-2-4-2-4s1.43,4.56-.43,5.13c-2.56.56-2.84-5-2.84-5,.28,1.57,2,5.56-.43,6s-3.28-5.41-3.28-5.41,2.14,5.84-.42,6-2.43-5.7-2.43-5.7,1.29,7-2.13,6.41c-1.85-.28-2.28-2.7-2.71-4.13-.57-2.13-1.85-4.84-.28-9.26,1.13-3.27.71-4.13.71-4.13s4,3,7.12,5c1.43.85,9.12-3.28,9.12-3.28ZM619.27,443c.71-.43.57,2.57.85,4s-.28,4.56-5.13,4.27c-4.69-.43-9.4-1.42-12.39-.71a41.3,41.3,0,0,1-9.83,1,14.38,14.38,0,0,1-5.12-.72c-1-.42-3.14.58-4.13.58s-2.57-1.57-2.42-2.57c.14-1.85,1.85-1.85,4.27-2a41.42,41.42,0,0,0,7-1.29,43.33,43.33,0,0,1,8-2.84s6.84.28,8.26.28,9.83.43,10.69,0Z" transform="translate(0 0)"/>
      </g>
      <g>
        <path class="cls-43" d="M688.3,270.91c.71.29,2.71-2.85.71-4.27,0,0-.71-2.71-3-2.85,0,0-1.85-2.71-4.56-2.28,0,0-3-2.14-4.13-2s-4.13,3.13-4.27,4.13a5,5,0,0,0,.71,3.42c.86.71,1.43-.15,1.57-1.43a2.87,2.87,0,0,0,1.14,3.13c1.7,1,1.56.14,1.7-1,0,0,.43,2.28,1.57,2.7s1.85-.57,2.71-.57c0,0-1.43,1.14-.43,1.86a2.16,2.16,0,0,0,2.85-.15c.86-.57.43-2.42,3.42-.71Z" transform="translate(0 0)"/>
        <path class="cls-34" d="M675.49,265.64c.71-2.42,3.13-4.41,5.69-4m-3,6.14a9.52,9.52,0,0,1,.86-1.72c1.28-2.13,4.12-2.13,6.4-2.56m-3.56,6.26c.85-.57,1.14-1.56,2-2a7.35,7.35,0,0,1,4.56-1" transform="translate(0 0)"/>
        <path class="cls-44" d="M675.24,261.47c-1.26,1-2.57,2.52-2.67,3.19a5,5,0,0,0,.7,3.42c.77.64,1.33,0,1.53-1.09a2.72,2.72,0,0,0,1.18,2.8c1.71,1,1.57.13,1.71-1,0,0,.44,2.29,1.58,2.71s1.85-.57,2.71-.57c0,0-1.44,1.13-.44,1.84a2.13,2.13,0,0,0,2.84-.13c.86-.57.42-2.41,3.42-.7.37.15,1.12-.63,1.44-1.62l-10.76-7.74Z" transform="translate(0 0)"/>
        <path class="cls-34" d="M673,263.46c-2.11,3.62.7,5.79,1.63,3.67-.27,3.34,2.24,3.2,3.2,2.15.92,3.52,2.56,2,4.07,1.63-1.72,3.21,2.07,2.25,3,1.52,1.3-1.91,1.9-.39,2.85-.59l1.63-1.74m-11.16-8c-2.36,1.25-3.52,3-3.55,5.18m6.81-3.08c-2.36,1.25-3.52,3-3.55,5.18m7.57-2.45c-2.37,1.25-2.47,2.41-3.49,3.95" transform="translate(0 0)"/>
      </g>
    </g>
  </g>
  <path class="cls-45" d="M406.15,453.12l-.29-6.55,2.71,2.28.71-5c1.14-.29,3,2,3,2l-.29-5,4.13,4.56s-.28-3.85,1.14-6.13c0,0,3.13,2.71,3.13,5.84,0,2.71,2.71-3.85,2.71-3.85.71,2.29,2.28,7.27,2.28,7.27l1.85-2.71,1.56,5.7,3.42-5,2.71,5.85L441,452l.72,3.41,2.7-3,3.56,2.28a23.44,23.44,0,0,1,4.56-.85c1.57,0,3.42,2,3.42,2a9.55,9.55,0,0,1,2.28-2.72c1.13-.71,2.71,1.14,3.13,2.28l2.28-4.13s3,3,3.42,4.13c0,0,.42-3.41,1.14-4.56s1.84.43,2.7,1.86l1.85-6.13a5.93,5.93,0,0,1,3.42,2.71c1.56,2.28,1.56-3.42,1.56-3.42s3.42,4.56,4.27,7.69c0,0-23.58,8.1-40.21,5.88-19.58-2.6-35.7-6.31-35.7-6.31m161.67-.71a15.67,15.67,0,0,1,2.71-4.7s3,3.57,3,4.7a19.19,19.19,0,0,0,2.42-1.56l2.28,2.27,2.71-1.84,2.56,2.27,4.7-2,1.85,2,7.27-.85,2.7,1.14,2.57-3.28,2.42,2.56,3.84-3.84A9.64,9.64,0,0,1,611.1,452s3.13-1.57,3.85-2.71c0,0,3-1.14,3.41.71,0,0,1.86-1.43,1.72-3s2.13-.43,2.84,1.56c0,0,.86-3.13,3.13-3.41a7,7,0,0,1,1.14,5.27s3.42-2.71,5-3a16.64,16.64,0,0,1-.43,7.26s3.56-5.84,4.27-3.84c.29,1.13,1.14,5,.29,7.68l3.13-2,1.14,3.85,3.41-.71s-20.22,3.09-39.27,1.28-36.92-8.55-36.92-8.55m-14.08,14.14c.92-.57-6.37,15-24,15.82-24.59,1.16-45.61-11.11-45.61-11.11s2.57-4.27,4.13-5.42c0,0,3.42,2.71,4.56,6.13a15.6,15.6,0,0,1,1.57-4.27s4.27,2,5,4.7c0,0,1.57-2.71,2.71-3.42,1.14-.86,2.28,3,2.28,5.27,0,0,2.7-2.85,4.27-3,0,0,3,1.42,3.85,6.41,0,0,2.85-2.71,3.84-2.28,0,0,3.42,2.28,2.57,5.41-.43,1.71,3.41-2,8.12-3.13l4.13,3.13s3.84-5.12,5-6.84c0,0,3.14,1.14,3.14,3,0,0,1.42-5.42,2.56-6s2.7,1.71,2.7,3.28c0,0,.43-4.13,2.71-5,0,0,2.28,1.56,2.28,3.13,0,0,2.42-4.7,4.27-5.85Z" transform="translate(0 0)"/>
  <path class="cls-46" d="M406.15,453.12l-.29-6.55,2.71,2.28.71-5c1.14-.28,3,2,3,2l-.29-5,4.13,4.56s-.28-3.85,1.14-6.12c0,0,3.13,2.7,3.13,5.84,0,2.71,2.71-3.85,2.71-3.85.71,2.28,2.28,7.27,2.28,7.27l1.85-2.71,1.56,5.69,3.42-5,2.71,5.84L441,452l.72,3.42,2.7-3,3.56,2.28a23.2,23.2,0,0,1,4.56-.86c1.57,0,3.42,2,3.42,2a9.57,9.57,0,0,1,2.28-2.7c1.14-.71,2.71,1.14,3.13,2.28l2.28-4.13s3,3,3.42,4.13c0,0,.42-3.42,1.14-4.56s1.85.43,2.7,1.85l1.85-6.12a5.89,5.89,0,0,1,3.42,2.7c1.57,2.28,1.57-3.42,1.57-3.42s3.41,4.56,4.27,7.69m85.75-1.14a15.67,15.67,0,0,1,2.71-4.69s3,3.56,3,4.7a20.35,20.35,0,0,0,2.42-1.57l2.28,2.28,2.71-1.85,2.56,2.28,4.7-2,1.85,2,7.26-.85,2.71,1.13,2.57-3.27,2.42,2.56,3.84-3.84a9.71,9.71,0,0,1,2.28,2.7s3.13-1.56,3.85-2.7c0,0,3-1.14,3.41.71,0,0,1.85-1.43,1.71-3s2.14-.43,2.85,1.57c0,0,.85-3.14,3.14-3.43a7.12,7.12,0,0,1,1.13,5.28s3.42-2.71,5-3a16.64,16.64,0,0,1-.43,7.26s3.56-5.84,4.27-3.85c.29,1.14,1.14,5,.29,7.69l3.13-2,1.14,3.85,3.42-.71m-160,11.6s2.56-4.27,4.13-5.42c0,0,3.41,2.71,4.55,6.13a15.6,15.6,0,0,1,1.57-4.27s4.27,2,5,4.7c0,0,1.56-2.71,2.7-3.42,1.14-.86,2.28,3,2.28,5.27,0,0,2.71-2.85,4.28-3,0,0,3,1.42,3.84,6.41,0,0,2.85-2.71,3.85-2.28,0,0,3.41,2.28,2.56,5.41-.43,1.71,3.42-2,8.12-3.13l4.13,3.13s3.84-5.12,5-6.84c0,0,3.14,1.14,3.14,3,0,0,1.42-5.42,2.56-6s2.71,1.71,2.71,3.28c0,0,.42-4.13,2.7-5,0,0,2.28,1.57,2.28,3.14,0,0,2.43-4.7,4.28-5.85" transform="translate(0 0)"/>
  <g>
    <path class="cls-6" d="M524.22,527.77c32,.28,51-11.4,61.39-18.38C610,493,615.09,492.44,619.08,492.72c4.56.43,11.25,2,11.54,6,.43,6.12-9.54,8.83-15.24,8.83s-21.08-3.85-21.08-3.85l-4,2.71c2.7,1.29,33.9,11.68,39.88,1.86,6.12-10,12.25-26.08,12.25-26.08a26.11,26.11,0,0,0-22.08-12.25c-15.38,0-30.34,9.69-40.31,16.95s-22.5,17.24-55.83,17.24-46-10-56-17.24-24.92-16.95-40.16-16.95a26.2,26.2,0,0,0-22.22,12.25s6.12,16.1,12.25,26.07c6,9.83,37.17-.57,39.88-1.85l-3.85-2.71s-15.38,3.85-21.08,3.85-15.81-2.71-15.38-8.83c.28-4,7-5.56,11.53-6,4-.28,9.12.29,33.47,16.67,10.41,7,29.35,18.23,61.54,18.38" transform="translate(0 0)"/>
    <path class="cls-6" d="M472.66,490s0-2.71-.43-6.7c-.57-5.13-3.56-6.41-6-5.7-1.57.57-4.7,4.42-4.7,4.42v.14a44.21,44.21,0,0,0-4.42-2.7c1.14-1.29,7.69-5.27,9.26-5.27s21.08,8,27.35,13.38c1.56,1.43,2.7,10.26,1.85,13.11a67.81,67.81,0,0,1-22.94-10.54V490M463.25,510a18.35,18.35,0,0,0-4.41,12.11c-.15,9.25,6.55,9.68,11,9.54,5.28-.15,9.55-3.13,9.41-13a106.32,106.32,0,0,1-16-8.69M575.64,490s.15-2.71.57-6.7c.57-5.13,3.42-6.41,5.84-5.7,1.57.57,4.7,4.42,4.7,4.42v.14a45.23,45.23,0,0,1,4.41-2.7c-1.13-1.29-7.68-5.27-9.11-5.27s-21.22,8-27.49,13.38c-1.43,1.43-2.56,10.26-1.85,13.11a66.46,66.46,0,0,0,22.93-10.54V490M585,510a18.35,18.35,0,0,1,4.41,12.11c.29,9.25-6.55,9.68-11,9.54-5.28-.15-9.41-3.13-9.41-13A106.85,106.85,0,0,0,585,510" transform="translate(0 0)"/>
  </g>
  <path class="cls-47" d="M454,503.69s-15.25,3.84-20.94,3.84-15.81-2.7-15.38-8.83c.28-4,7-5.55,11.53-6,3.42-.29,7.84.14,24.79,11m140.3,0s15.24,3.84,21.09,3.84c5.69,0,15.66-2.7,15.23-8.83-.28-4-7-5.55-11.53-6-3.42-.29-7.84.14-24.79,11M472.66,490.15c-1.57-1.14-3.13-2.28-4.56-3.42-2.14-1.57-4.27-3-6.55-4.56,0,0,3.13-4,4.69-4.42,2.43-.85,5.41.43,6,5.56.43,4,.43,6.84.43,6.84m-10.39,40.18a12.73,12.73,0,0,0,7.55,1.28c5.27-.14,9.54-3.13,9.4-13a87.85,87.85,0,0,0,17.23,5.84,12.13,12.13,0,0,1,2,6.41c.43,3.56-2,7.4-4.84,7.12,0,0-15-2.7-24.07-4.27-5.28-1-7.27-3.42-7.27-3.42m113.38-40.18,4.7-3.42c2-1.57,4.13-3,6.41-4.56,0,0-3.13-4-4.7-4.41-2.42-.86-5.27.42-5.84,5.55-.43,4-.57,6.84-.57,6.84M586,530.33a12.74,12.74,0,0,1-7.55,1.28c-5.27-.14-9.4-3.13-9.4-13A88.38,88.38,0,0,1,552,524.49a11.45,11.45,0,0,0-2.14,6.41c-.28,3.56,2.14,7.4,4.85,7.12,0,0,15.09-2.7,24.07-4.27,5.27-1,7.26-3.42,7.26-3.42" transform="translate(0 0)"/>
  <g>
    <path class="cls-48" d="M524.22,527.77c32,.28,51-11.4,61.39-18.38C610,493,615.09,492.44,619.08,492.72c4.56.43,11.26,2,11.54,6,.43,6.12-9.54,8.82-15.24,8.82s-21.08-3.84-21.08-3.84l-4,2.71c2.71,1.28,33.9,11.68,39.88,1.85s12.25-26.07,12.25-26.07a26.11,26.11,0,0,0-22.08-12.25c-15.38,0-30.34,9.69-40.31,16.95s-22.5,17.24-55.83,17.24-46-10-56-17.24-24.93-16.95-40.16-16.95a26.2,26.2,0,0,0-22.22,12.25s6.12,16.1,12.25,26.07c6,9.83,37.17-.57,39.88-1.85l-3.84-2.71s-15.39,3.84-21.08,3.84c-5.85,0-15.82-2.7-15.39-8.83.29-4,7-5.55,11.54-6,4-.28,9.11.29,33.47,16.67,10.4,7,29.34,18.23,61.53,18.37Z" transform="translate(0 0)"/>
    <path class="cls-48" d="M454,503.69s-15.25,3.84-20.94,3.84-15.81-2.7-15.38-8.83c.28-4,7-5.56,11.53-6,3.42-.29,7.84.14,24.79,11Zm140.29,0s15.24,3.84,21.08,3.84,15.67-2.7,15.24-8.83c-.28-4-7-5.56-11.53-6-3.42-.29-7.84.14-24.78,11ZM472.66,490.15c-1.57-1.14-3.13-2.28-4.56-3.42-2.13-1.57-4.27-3-6.55-4.56,0,0,3.13-4,4.7-4.42,2.42-.85,5.41.43,6,5.56.44,4,.44,6.84.44,6.84Z" transform="translate(0 0)"/>
    <path class="cls-48" d="M472.66,490s0-2.71-.43-6.7c-.57-5.13-3.56-6.41-6-5.7-1.57.57-4.7,4.42-4.7,4.42v.14a47.43,47.43,0,0,0-4.42-2.7c1.14-1.29,7.69-5.27,9.26-5.27s21.08,8,27.35,13.39c1.57,1.43,2.7,10.25,1.85,13.11a68.19,68.19,0,0,1-22.94-10.55M463.25,510a18.35,18.35,0,0,0-4.41,12.11c-.15,9.25,6.55,9.68,11,9.54,5.28-.15,9.54-3.13,9.41-13a105.8,105.8,0,0,1-16-8.69Z" transform="translate(0 0)"/>
    <path class="cls-48" d="M466.82,512.09a16.9,16.9,0,0,0-4,9.4c-.28,4.56,2.71,7.12,6.56,6.83,5.41-.28,7.55-7.68,5-11.82Z" transform="translate(0 0)"/>
    <path class="cls-48" d="M462.26,530.33a12.79,12.79,0,0,0,7.55,1.28c5.27-.14,9.54-3.13,9.4-13a88.67,88.67,0,0,0,17.23,5.84,12.08,12.08,0,0,1,2,6.41c.43,3.56-2,7.41-4.84,7.12,0,0-15-2.71-24.07-4.27-5.28-1-7.27-3.42-7.27-3.42Zm113.38-40.18,4.7-3.42c2-1.57,4.13-3,6.41-4.56,0,0-3.13-4-4.7-4.42-2.42-.85-5.27.43-5.83,5.56q-.37,3.42-.57,6.84Z" transform="translate(0 0)"/>
    <path class="cls-48" d="M575.64,490s.15-2.71.57-6.7c.57-5.13,3.42-6.41,5.84-5.7,1.57.57,4.7,4.42,4.7,4.42v.14a46.16,46.16,0,0,1,4.42-2.7c-1.14-1.29-7.69-5.27-9.12-5.27s-21.22,8-27.49,13.39c-1.43,1.43-2.56,10.25-1.85,13.11a66.83,66.83,0,0,0,22.93-10.55M585,510a18.35,18.35,0,0,1,4.41,12.11c.29,9.25-6.55,9.68-11,9.54-5.27-.15-9.4-3.13-9.4-13A105.8,105.8,0,0,0,585,510Z" transform="translate(0 0)"/>
    <path class="cls-48" d="M581.48,512.09a16.9,16.9,0,0,1,4,9.4c.43,4.56-2.71,7.12-6.55,6.83-5.42-.28-7.41-7.68-5-11.82Z" transform="translate(0 0)"/>
    <path class="cls-48" d="M586,530.33a12.81,12.81,0,0,1-7.55,1.28c-5.27-.14-9.4-3.13-9.4-13A89.22,89.22,0,0,1,552,524.49a11.36,11.36,0,0,0-2.13,6.41c-.29,3.56,2.13,7.41,4.84,7.12,0,0,15.1-2.71,24.07-4.27,5.27-1,7.26-3.42,7.26-3.42Z" transform="translate(0 0)"/>
  </g>
  <path class="cls-49" d="M495.31,527.05s4.7,3.43-1,7.7m-13.1-10L495.6,531m-12-3,10.54,4.55m-6.83-7.25,8,3.56m57.82-1.86s-4.84,3.43.85,7.7m13.11-10L552.7,531m12.11-3-10.54,4.55m6.7-7.25-7.83,3.56" transform="translate(0 0)"/>
  <path class="cls-50" d="M439,483.23a3,3,0,0,1,.4,1,3.84,3.84,0,0,1,0,1.21,3.43,3.43,0,0,1-1.69,2.4,4.47,4.47,0,0,1-3.16.47,5.39,5.39,0,0,1-1.59-.56,6.64,6.64,0,0,1-1.29-.87c-.16.19-.32.36-.49.55l-.68-.13c.22-1.38.44-2.76.67-4.14l.69.14a8.72,8.72,0,0,0,.24,1.46,5,5,0,0,0,.54,1.3,3.39,3.39,0,0,0,.9,1,3.11,3.11,0,0,0,1.32.56,3,3,0,0,0,1.07,0,1.86,1.86,0,0,0,.79-.29,2,2,0,0,0,.54-.59,2.59,2.59,0,0,0,.29-.84,2.47,2.47,0,0,0-.15-1.42,2.55,2.55,0,0,0-1.05-1.17l-1.19-.74c-.39-.23-.77-.47-1.14-.73a4,4,0,0,1-1.37-1.5,3.12,3.12,0,0,1-.21-2,2.9,2.9,0,0,1,.53-1.22,3.36,3.36,0,0,1,1-.91,3.68,3.68,0,0,1,1.31-.47,4.21,4.21,0,0,1,1.46,0,4.43,4.43,0,0,1,1.46.54,6.74,6.74,0,0,1,1.1.83l.46-.51.69.13-.69,4-.7-.14a13.18,13.18,0,0,0-.17-1.39,5.06,5.06,0,0,0-.4-1.25,2.66,2.66,0,0,0-.75-.95,2.62,2.62,0,0,0-1.25-.54,2,2,0,0,0-1.49.25,1.67,1.67,0,0,0-.81,1.15,2.19,2.19,0,0,0,.13,1.36,2.7,2.7,0,0,0,.91,1.05,12.24,12.24,0,0,0,1.14.74c.37.23.72.45,1.07.69a6.8,6.8,0,0,1,.91.69,4,4,0,0,1,.69.8m17.47,2.45a5.54,5.54,0,0,0-.68-.25,2,2,0,0,0-.81-.13,1.22,1.22,0,0,0-.75.52,8.24,8.24,0,0,0-.83,1.28q-1.29,2.32-2.57,4.65a3.56,3.56,0,0,1-1.23,1.34,3.75,3.75,0,0,1-1.58.53,4.74,4.74,0,0,1-1.6-.11A5.82,5.82,0,0,1,445,493a6.14,6.14,0,0,1-1.6-1.2,4.41,4.41,0,0,1-.91-1.4,3.26,3.26,0,0,1-.22-1.42,3,3,0,0,1,.37-1.29l3.5-6.33a1.4,1.4,0,0,0,.16-.5,1,1,0,0,0-.19-.51,2.11,2.11,0,0,0-.39-.45,4.08,4.08,0,0,0-.45-.34l.3-.54,4.52,2.49-.3.53a4.82,4.82,0,0,0-.57-.22,2.72,2.72,0,0,0-.54-.15.58.58,0,0,0-.51.11,1.27,1.27,0,0,0-.35.41q-1.62,3-3.26,5.91a5,5,0,0,0-.39,1,2.63,2.63,0,0,0-.12,1.08,2.44,2.44,0,0,0,.44,1.12,3.6,3.6,0,0,0,1.26,1,3.93,3.93,0,0,0,1.56.52,2.68,2.68,0,0,0,1.28-.2,3.2,3.2,0,0,0,.91-.6,4.18,4.18,0,0,0,.62-.83l2.42-4.39a7.55,7.55,0,0,0,.64-1.44,1.29,1.29,0,0,0,0-.89,2.26,2.26,0,0,0-.56-.7,4.56,4.56,0,0,0-.65-.51l.3-.53,4.44,2.44-.3.54m6.29,10.88a3,3,0,0,1,.31,1.27,3.13,3.13,0,0,1-1.47,2.51,3.16,3.16,0,0,1-1.37.41,4.38,4.38,0,0,1-1.44-.14,5.51,5.51,0,0,1-1.42-.58l-5.09-2.93.31-.53a5.1,5.1,0,0,0,.56.24,3.1,3.1,0,0,0,.57.18.77.77,0,0,0,.49-.1,1,1,0,0,0,.36-.39c1.46-2.53,2.92-5.08,4.39-7.61a1.74,1.74,0,0,0,.17-.5.8.8,0,0,0-.17-.51,2.55,2.55,0,0,0-.4-.47c-.17-.14-.31-.26-.43-.34l.3-.53,5,2.85a6.74,6.74,0,0,1,1,.75,4.07,4.07,0,0,1,.77,1,2.38,2.38,0,0,1,.32,1.13,2.34,2.34,0,0,1-.33,1.26,2.61,2.61,0,0,1-.78.87,2.37,2.37,0,0,1-1,.42,3.88,3.88,0,0,1-1.08,0,5,5,0,0,1-1.16-.25l0,.07a7.27,7.27,0,0,1,.9.82,4.08,4.08,0,0,1,.74,1.08Zm-.92-2.65a2,2,0,0,0,.8-.48,4,4,0,0,0,.63-.84,2.2,2.2,0,0,0,.3-1.65,2.28,2.28,0,0,0-1.24-1.38l-.61-.34-.62-.33L458.74,493l1,.54a3.68,3.68,0,0,0,1.15.46,1.92,1.92,0,0,0,1-.06Zm-.89,4a2.38,2.38,0,0,0,.25-1.91,2.89,2.89,0,0,0-1.48-1.66l-.82-.47-.51-.26-2.15,3.73a.91.91,0,0,0,0,.93,2.42,2.42,0,0,0,.94.86,2.6,2.6,0,0,0,2.1.35,3.2,3.2,0,0,0,1.7-1.57Zm27.58,6.29a4.23,4.23,0,0,0-.7-.18A2.06,2.06,0,0,0,487,504a1.26,1.26,0,0,0-.69.59,8.79,8.79,0,0,0-.71,1.36l-2.09,4.88a3.49,3.49,0,0,1-1.09,1.46,3.73,3.73,0,0,1-1.52.68,4.53,4.53,0,0,1-1.6.05,5.75,5.75,0,0,1-1.42-.39,6.26,6.26,0,0,1-1.72-1.05,4.41,4.41,0,0,1-1-1.3,3.34,3.34,0,0,1-.37-1.38,3.18,3.18,0,0,1,.25-1.33l2.85-6.65a1.4,1.4,0,0,0,.11-.5,1,1,0,0,0-.23-.5,2.85,2.85,0,0,0-.44-.41,4.08,4.08,0,0,0-.48-.29l.24-.56,4.75,2c-.09.18-.16.37-.25.56A4,4,0,0,0,481,501a3.53,3.53,0,0,0-.55-.1.63.63,0,0,0-.5.16,1.43,1.43,0,0,0-.3.44L477,507.75a5,5,0,0,0-.3,1,2.55,2.55,0,0,0,0,1.1,2.44,2.44,0,0,0,.55,1.07,3.53,3.53,0,0,0,1.36.91,3.89,3.89,0,0,0,1.6.36,2.66,2.66,0,0,0,1.25-.32,3.06,3.06,0,0,0,.85-.69,4,4,0,0,0,.54-.88q1-2.31,2-4.61a7.14,7.14,0,0,0,.49-1.5,1.29,1.29,0,0,0-.07-.89,2,2,0,0,0-.63-.63,4.54,4.54,0,0,0-.69-.45l.24-.56,4.66,2c-.09.19-.17.37-.25.56m13.4,15.74-5.26-1.52.17-.59c.2,0,.44.1.75.15a2,2,0,0,0,.66,0,1.14,1.14,0,0,0,.49-.25,1,1,0,0,0,.26-.47l2.47-8.55-.12,0c-2.3,3-4.66,5.87-7,8.83l-.42-.12c-.28-3.78-.63-7.55-.91-11.33l-.11,0-2,7a7,7,0,0,0-.31,1.58,1.49,1.49,0,0,0,.17.88,2.18,2.18,0,0,0,.67.55,4.8,4.8,0,0,0,.71.39l-.17.59-4.81-1.39c.06-.2.12-.4.17-.59a5.37,5.37,0,0,0,.84.1,1.46,1.46,0,0,0,.72-.08,1.4,1.4,0,0,0,.61-.6,9.21,9.21,0,0,0,.57-1.57l1.73-6a2.54,2.54,0,0,0,.12-.89,1.3,1.3,0,0,0-.2-.64,1.68,1.68,0,0,0-.55-.51,3.13,3.13,0,0,0-.71-.35l.17-.58,4.05,1.17c.27,3.27.61,6.54.87,9.81,1.66-2.19,3.37-4.35,5-6.54a6.1,6.1,0,0,0,.52-.77,4.25,4.25,0,0,0,.29-.56l3.88,1.12-.17.59c-.2,0-.41-.08-.61-.1a5.44,5.44,0,0,0-.57,0,.64.64,0,0,0-.49.23,1.4,1.4,0,0,0-.24.47l-2.45,8.47a1.1,1.1,0,0,0,0,.51.92.92,0,0,0,.28.46,2.09,2.09,0,0,0,.5.31l.59.26c-.06.18-.12.38-.18.58m12.74-3.87a3.05,3.05,0,0,1,.77,1.06,2.72,2.72,0,0,1,.18,1.45A3,3,0,0,1,515,520a3.43,3.43,0,0,1-1.1.9,4.45,4.45,0,0,1-1.38.44,5.67,5.67,0,0,1-1.54,0l-5.82-.73.07-.61h.62a2.07,2.07,0,0,0,.59-.06.75.75,0,0,0,.42-.28,1,1,0,0,0,.18-.49c.36-2.91.73-5.81,1.09-8.72a1.15,1.15,0,0,0,0-.52.75.75,0,0,0-.35-.41,1.93,1.93,0,0,0-.56-.27c-.21-.07-.38-.13-.52-.16l.07-.6,5.68.71a6.33,6.33,0,0,1,1.25.29,3.79,3.79,0,0,1,1.08.59,2.45,2.45,0,0,1,.74.92,2.37,2.37,0,0,1,.17,1.29,2.52,2.52,0,0,1-1.14,1.89,4.19,4.19,0,0,1-1,.46,4.66,4.66,0,0,1-1.16.22l0,.08a7.44,7.44,0,0,1,1.16.41,4.1,4.1,0,0,1,1.08.7ZM512.78,514a2.2,2.2,0,0,0,.55-.75,3.91,3.91,0,0,0,.25-1,2.17,2.17,0,0,0-.35-1.64,2.37,2.37,0,0,0-1.68-.79l-.69-.08-.71-.06c-.2,1.55-.39,3.11-.59,4.66l1.09.14a3.75,3.75,0,0,0,1.25,0,1.88,1.88,0,0,0,.88-.44Zm.72,4a2.44,2.44,0,0,0-.51-1.86,3,3,0,0,0-2-1l-.93-.11-.58-.05-.54,4.28a.92.92,0,0,0,.34.87,2.38,2.38,0,0,0,1.19.42,2.56,2.56,0,0,0,2.07-.49,3.22,3.22,0,0,0,1-2.1Zm16.67,3.85h-3.34c-.73-1.15-1.41-2.12-2-3s-1.26-1.68-2-2.58h-1.27v3.88a1.43,1.43,0,0,0,.1.53.67.67,0,0,0,.41.35,3.2,3.2,0,0,0,.55.11l.66.06v.62h-5.23v-.62l.61-.06a2.58,2.58,0,0,0,.55-.11.76.76,0,0,0,.38-.33,1,1,0,0,0,.11-.55v-8.84a1.48,1.48,0,0,0-.08-.53.61.61,0,0,0-.41-.35,3,3,0,0,0-.57-.15,4.17,4.17,0,0,0-.59-.08v-.61h5.71a6.94,6.94,0,0,1,1.48.15,4.34,4.34,0,0,1,1.25.52,2.56,2.56,0,0,1,.86.9,2.66,2.66,0,0,1,.32,1.34,3.41,3.41,0,0,1-.21,1.25,2.69,2.69,0,0,1-.65.94,4.09,4.09,0,0,1-.94.64,7.81,7.81,0,0,1-1.21.46c.6.81,1.12,1.47,1.52,2l1.49,2A3.6,3.6,0,0,0,529,521a1.85,1.85,0,0,0,.56.17,5.43,5.43,0,0,0,.57.07v.61Zm-4.59-9.1a2.23,2.23,0,0,0-2.47-2.41h-1.48v5.23h1.14a2.66,2.66,0,0,0,2.81-2.82Zm18.86,8.19-5.14.4c0-.21,0-.41,0-.62a4.73,4.73,0,0,0,1.13-.26c.28-.11.43-.22.42-.35s0-.11,0-.19a.7.7,0,0,0-.06-.19c-.4-.89-.83-1.77-1.24-2.65l-4.33.32c-.13.42-.24.77-.31,1.08s-.16.59-.22.85-.08.41-.11.61a1.68,1.68,0,0,0,0,.38c0,.23.21.39.58.49a4.17,4.17,0,0,0,1.26.13l0,.62-4.65.35c0-.2,0-.41,0-.61a2.64,2.64,0,0,0,.55-.15,1.5,1.5,0,0,0,.54-.26,2.1,2.1,0,0,0,.51-.53,2.88,2.88,0,0,0,.32-.72c.49-1.58,1.07-3.35,1.66-5.31s1.16-3.71,1.62-5.25l.69-.05c1.62,3.41,3.3,6.79,4.92,10.2a2.75,2.75,0,0,0,.33.52,2,2,0,0,0,.5.36,1.44,1.44,0,0,0,.54.16,2.33,2.33,0,0,0,.54.06c0,.21,0,.41.05.62Zm-5.35-4.6c-.73-1.53-1.5-3.05-2.23-4.58-.48,1.62-1,3.24-1.49,4.86ZM562,506.68l-.63.17a4.41,4.41,0,0,0-1.12-1.2,1.9,1.9,0,0,0-1.3-.54q-.32,0-.63.12c-.24.06-.51.12-.82.21l-2,.54q.63,2.37,1.28,4.74l1.37-.38a2.91,2.91,0,0,0,.94-.39,1.59,1.59,0,0,0,.48-.55,1.79,1.79,0,0,0,.15-.66,3.25,3.25,0,0,0,0-.88l.63-.17c.43,1.55.85,3.1,1.26,4.64l-.63.18a3.87,3.87,0,0,0-.39-.79,2.2,2.2,0,0,0-.51-.58,1.21,1.21,0,0,0-.74-.26,3.43,3.43,0,0,0-1,.14l-1.38.38,1.11,4.06a1,1,0,0,0,.24.46.84.84,0,0,0,.48.24,3,3,0,0,0,.59,0,4.77,4.77,0,0,0,.66-.09l.16.59L555,518.06l-.16-.59.66-.24a2.06,2.06,0,0,0,.52-.25.72.72,0,0,0,.28-.42,1.1,1.1,0,0,0,0-.54L554,507.51a1.58,1.58,0,0,0-.23-.47.75.75,0,0,0-.48-.23,3.58,3.58,0,0,0-.65,0,3.5,3.5,0,0,0-.65.07l-.16-.59,9.37-2.55.8,3m13.81-1.05,1.35,3.39-8.72,4.21-.27-.55.53-.32a2.24,2.24,0,0,0,.44-.34.81.81,0,0,0,.21-.47,1.31,1.31,0,0,0-.14-.54l-3.81-7.88a1.27,1.27,0,0,0-.31-.42.76.76,0,0,0-.52-.15,2.45,2.45,0,0,0-.6.06,3,3,0,0,0-.59.15c-.08-.18-.17-.37-.26-.55l4.71-2.27.26.55a3.64,3.64,0,0,0-.52.35,3.16,3.16,0,0,0-.45.37.59.59,0,0,0-.21.5,1.08,1.08,0,0,0,.13.52l3.57,7.4a4.34,4.34,0,0,0,.43.76.81.81,0,0,0,.46.33,1.11,1.11,0,0,0,.62-.08,10.37,10.37,0,0,0,1-.44c.2-.09.39-.2.6-.31a6.16,6.16,0,0,0,.57-.35,4.15,4.15,0,0,0,.44-.38.88.88,0,0,0,.24-.36,6.86,6.86,0,0,0,.23-1.45,8.26,8.26,0,0,0,0-1.46l.56-.26m6.52-12.12a6.14,6.14,0,0,1,2.14,1.1,7.34,7.34,0,0,1,1.75,2.05,7.16,7.16,0,0,1,.94,2.51,6.26,6.26,0,0,1-.1,2.41,5.76,5.76,0,0,1-1,2.06,5.62,5.62,0,0,1-1.74,1.55,5.71,5.71,0,0,1-4.59.61,6,6,0,0,1-2.1-1.12,7.39,7.39,0,0,1-1.68-2,7,7,0,0,1-1-2.53,6.06,6.06,0,0,1,.09-2.4,5.63,5.63,0,0,1,1-2.08,5.76,5.76,0,0,1,1.72-1.54,5.86,5.86,0,0,1,2.23-.79,5.71,5.71,0,0,1,2.29.14Zm3.29,8.13a5.79,5.79,0,0,0-.29-1.89,9.47,9.47,0,0,0-.93-2,10.93,10.93,0,0,0-1.38-1.86,5.7,5.7,0,0,0-1.55-1.17,3.5,3.5,0,0,0-1.62-.37,3.31,3.31,0,0,0-1.64.49,3.11,3.11,0,0,0-1.28,1.32,3.81,3.81,0,0,0-.39,1.69,6.17,6.17,0,0,0,.34,1.86,10.71,10.71,0,0,0,.91,1.95,10.23,10.23,0,0,0,1.33,1.82,5.81,5.81,0,0,0,1.51,1.16,3.58,3.58,0,0,0,1.63.41,3.55,3.55,0,0,0,2.92-1.73,3.37,3.37,0,0,0,.44-1.66ZM601,493.31c-.9.65-1.82,1.29-2.72,1.93-1.26-.52-2.38-.91-3.34-1.26s-2-.64-3.07-1l-1,.73,2.24,3.17a1.6,1.6,0,0,0,.38.36.69.69,0,0,0,.54.05,2.24,2.24,0,0,0,.51-.22,6.45,6.45,0,0,0,.58-.34l.35.5-4.27,3c-.12-.16-.23-.33-.35-.5.11-.08.26-.22.46-.4a2.16,2.16,0,0,0,.39-.41.76.76,0,0,0,.11-.49,1,1,0,0,0-.22-.51l-5.11-7.21a1.37,1.37,0,0,0-.38-.38.59.59,0,0,0-.53-.06,4.78,4.78,0,0,0-1.08.49l-.36-.5,4.67-3.3a6.81,6.81,0,0,1,1.29-.73,4.23,4.23,0,0,1,1.32-.3,2.54,2.54,0,0,1,1.21.23,2.57,2.57,0,0,1,1.05.91,3.15,3.15,0,0,1,.54,1.15,2.4,2.4,0,0,1,0,1.13,3.7,3.7,0,0,1-.4,1.07,7.15,7.15,0,0,1-.72,1.07c1,.32,1.77.55,2.41.76s1.44.46,2.36.77a3.72,3.72,0,0,0,1.75.19,1.85,1.85,0,0,0,.56-.19,3.14,3.14,0,0,0,.5-.27l.35.5Zm-9-4.77a2.23,2.23,0,0,0-3.41-.54l-1.21.86,3,4.27.94-.66a2.69,2.69,0,0,0,.65-3.93Zm19.22-2.93c.34,1.15.68,2.31,1,3.46l-9.65,3.58c-.07-.19-.15-.39-.21-.58.16-.07.37-.17.63-.31a3,3,0,0,0,.49-.3.88.88,0,0,0,.25-.45,1.06,1.06,0,0,0-.08-.53l-3.06-8.25a1.34,1.34,0,0,0-.27-.44.85.85,0,0,0-.5-.19,3.16,3.16,0,0,0-.65,0,3.44,3.44,0,0,0-.64.12l-.21-.57,9-3.34,1,2.77-.61.23a3.9,3.9,0,0,0-1.19-1.05,1.85,1.85,0,0,0-1.32-.37,6,6,0,0,0-.62.17l-.81.29-1.82.68,1.68,4.55,1.32-.49a2.9,2.9,0,0,0,.88-.46,1.38,1.38,0,0,0,.36-.57,2.14,2.14,0,0,0,.08-.75,4.28,4.28,0,0,0-.11-.8l.62-.23,1.66,4.5-.61.23a5.52,5.52,0,0,0-.48-.77,2.23,2.23,0,0,0-.54-.51,1.3,1.3,0,0,0-.72-.19,2.83,2.83,0,0,0-.9.22l-1.31.48,1.28,3.45a4,4,0,0,0,.37.79.84.84,0,0,0,.45.34,1.25,1.25,0,0,0,.66,0c.26-.07.61-.18,1.06-.35l.72-.26a7,7,0,0,0,.73-.31c.19-.11.4-.22.6-.36a1,1,0,0,0,.38-.41,5.24,5.24,0,0,0,.36-1.47,7.86,7.86,0,0,0,.1-1.34l.59-.23m10.36-8.48a5.86,5.86,0,0,1,1.54,1.85,7.39,7.39,0,0,1,.8,2.56,7.1,7.1,0,0,1-.12,2.68,6.3,6.3,0,0,1-1,2.19,5.73,5.73,0,0,1-1.71,1.5,5.86,5.86,0,0,1-6.67-.49,6.08,6.08,0,0,1-1.49-1.85,7.2,7.2,0,0,1-.78-2.47,7.12,7.12,0,0,1,.12-2.71,6.45,6.45,0,0,1,1-2.17,5.86,5.86,0,0,1,3.92-2.27,6.26,6.26,0,0,1,2.36.15,5.62,5.62,0,0,1,2,1Zm-.16,8.77a5.74,5.74,0,0,0,.48-1.86,11,11,0,0,0-.62-4.48,5.7,5.7,0,0,0-1-1.68,3.62,3.62,0,0,0-1.35-1,3.3,3.3,0,0,0-1.7-.19,3.09,3.09,0,0,0-1.7.7,3.87,3.87,0,0,0-1,1.41,6,6,0,0,0-.4,1.84,9.65,9.65,0,0,0,.06,2.15,10.06,10.06,0,0,0,.52,2.19,5.28,5.28,0,0,0,.94,1.66,3.29,3.29,0,0,0,1.33,1,3.25,3.25,0,0,0,1.75.2,3.34,3.34,0,0,0,1.61-.64,3.52,3.52,0,0,0,1.06-1.36Z" transform="translate(0 0)"/>
  <path class="cls-51" d="M592.16,299.12v77.35c0,15.38-2.13,76.64-67.94,100.43-65.94-23.79-68.08-85-68.08-100.43V299.12Z" transform="translate(0 0)"/>
  <circle class="cls-52" cx="525.01" cy="348.6" r="227.94"/>
  <path class="cls-53" d="M498.67,106.74c20.62-22.12,39.26,3.43,38.76,15.4s-21.29,38.38-40.1,17.13c19.49,5,25.31-16.81,35.17-17-9.85.21-13.88-21.37-33.83-15.51ZM284.1,280.17c-10.84-28.14,20.5-33.4,31.09-27.65s25.23,36-2.31,43.27c13.15-15.13-3.95-30,.22-38.84-4.17,8.86-25.45,2.88-29,23.22Zm462.5-27.83c28.24,11.06,11,37.55-.44,41.43s-43.76-5.8-30.6-30.91c2.36,19.84,25,17.34,28.72,26.39-3.78-9.05,15-20.58,2.32-36.91ZM377.42,550.4c-30.2-3-20.89-33.16-11-40s43.69-6.27,37.94,21.44c-7.74-18.44-28.77-9.93-34.89-17.6,6.12,7.67-8.81,23.87,7.91,36.14ZM682.7,528.57c.44,30.12-30.81,24.37-38.77,15.36s-11.24-42.37,17.15-39.85c-17.58,9.73-6.67,29.5-13.66,36.4,7-6.9,24.91,6,35.28-11.91ZM306.1,222.94c-2.75-30,28.85-26.65,37.48-18.27s14.48,41.39-14,41c16.79-11,4.38-29.92,10.81-37.33-6.44,7.41-25.28-4.06-34.26,14.56Zm32.37,281.47c-29.93-5-18.58-34.49-8.22-40.63s44-3.32,36.4,23.94c-6.46-18.92-28-11.83-33.61-19.9,5.58,8.07-10.42,23.22,5.43,36.58ZM575,108c27.18-13.41,35.46,17,30.71,28.06s-33.63,28.38-43.62,1.87c16.44,11.54,29.68-6.78,39-3.51-9.3-3.27-5.34-24.87-26.07-26.42Zm57.84,458.3c-13.47,27-38.63,7.72-41.56-3.9s9.49-42.79,33.59-27.68c-20.11.68-19.5,23.22-28.89,26.19,9.39-3,19.4,16.6,36.87,5.39Zm132-260.55c22.84,19.85-2.39,39-14.46,38.87s-39.24-20.07-18.34-39.32c-4.49,19.48,17.62,24.66,18.1,34.43-.49-9.77,21.14-14.36,14.7-34ZM381.37,147.06c6.82-29.36,35.78-16.38,41.35-5.75s.74,43.81-26.23,34.64c19.41-5.28,13.56-27.06,22-32.11-8.44,5-22.75-11.7-37.12,3.22ZM291.59,398.62c-26.6-14.52-6.11-38.63,5.71-41s42.67,11.24,26.42,34.49c.18-20-22.54-20.33-25.13-29.77,2.59,9.44-17.53,18.53-7,36.32ZM675.93,165.87c30.05-4.32,28.33,27.18,20.36,36.17s-40.88,16.55-42-11.72c12,16.05,30.33,2.74,38.13,8.73-7.79-6,2.75-25.28-16.46-33.18ZM505,595.17c-27.72,12.29-34.73-18.48-29.53-29.29s34.78-27,43.66-.09c-15.94-12.2-29.94,5.56-39.09,1.91C489.22,571.35,484.38,592.76,505,595.17Zm248.7-168.06c12.51,27.45-18.46,34.56-29.38,29.45s-27.35-34.39-.3-43.33c-12.21,15.88,5.76,29.68,2.12,38.78,3.63-9.1,25.24-4.39,27.55-24.9ZM279.53,338.7c-17.41-24.68,11.7-37.34,23.38-34.33s33.29,28.79,8.37,42.53c9.05-17.84-11.18-28.11-9.3-37.72-1.88,9.6-24,8.94-22.44,29.52ZM443.29,576.91c-28.49,10.41-33.39-20.76-27.47-31.2s36.54-24.59,43.57,2.83c-15.08-13.23-30.25,3.55-39.13-.7,8.88,4.25,2.59,25.29,23,29.07Zm-8.22-458c16.88-25,39.31-2.7,40.71,9.2s-15,41.21-36.92,23.13c20,1.91,22.36-20.52,32.07-22.26-9.71,1.74-17.08-19-35.86-10.08ZM727,486.67c1.82,30.07-29.67,25.74-38,17.1s-13.19-41.81,15.3-40.58c-17.12,10.51-5.3,29.76-12,37C699,493,717.44,505,727,486.67Zm-7.75-283.56c29.76,6,17.48,35.06,6.92,40.86s-44.11,1.93-35.61-25.07c5.85,19.11,27.63,12.71,33,20.95-5.31-8.24,11.16-22.88-4.26-36.74ZM342.36,181.92c.29-30.13,31.4-23.64,39.13-14.45s10.23,42.63-18.1,39.43c17.82-9.3,7.37-29.33,14.53-36.06-7.16,6.73-24.75-6.56-35.56,11.07ZM304.73,453.47c-27.08-13.61-7.43-38.4,4.3-41.21s43,9.8,27.6,33.58c-.51-20-23.23-19.56-26.14-28.91,2.91,9.35-16.89,19.11-5.76,36.54ZM630,132.73c28.4-10.64,33.57,20.48,27.73,31s-36.33,24.89-43.59-2.47c15.19,13.11,30.22-3.8,39.13.38-8.91-4.18-2.8-25.27-23.27-28.88ZM569.72,591.79c-22.08,20.72-38.92-6-37.6-17.92S556,537,573.3,559.42c-19.1-6.27-26.41,15.1-36.26,14.66,9.85.44,12.39,22.24,32.68,17.71ZM763.26,361.38C784,383.4,757,400,745,398.62s-37-23.88-14.28-40.95c-6.44,18.93,15,26.29,14.54,36.06.5-9.77,22.48-12.19,18-32.35Z" transform="translate(0 0)"/>
  <path class="cls-54" d="M497.33,139.27c19.49,5,24.37-16.54,34.23-16.76C525.81,129.38,510.8,146.9,497.33,139.27Zm1.34-32.53c20.62-22.12,39.26,3.43,38.76,15.4-16.73-29.17-22-24.67-38.75-15.4Zm-185.79,189c13.15-15.13-4.13-29,0-37.89C316.58,266.06,325.74,287.18,312.88,295.78ZM284.1,280.17c-10.84-28.14,20.5-33.4,31.09-27.65C281.43,254.48,283.17,261.13,284.1,280.17Zm431.46-17.31c2.37,19.84,24.36,16.57,28.13,25.61C735.15,285.63,713.27,278.08,715.56,262.86Zm31-10.52c28.24,11.06,11,37.55-.44,41.43C767.5,267.73,761.38,264.51,746.6,252.34ZM404.4,531.87c-7.73-18.44-28-9.34-34.1-17C379.29,515.27,402.42,516.61,404.4,531.87Zm-27,18.53c-30.2-3-20.89-33.16-11-40C353.09,541.24,359.86,542.68,377.42,550.4Zm283.65-46.32c-17.58,9.73-6.16,28.67-13.15,35.57C647.31,530.73,646,507.77,661.07,504.08Zm21.63,24.49c.44,30.12-30.81,24.37-38.77,15.36C676.31,553.61,677,546.76,682.7,528.57ZM329.55,245.7c16.79-11,3.94-29,10.38-36.46C341.23,218.09,344.28,240.88,329.55,245.7ZM306.1,222.94c-2.75-30,28.85-26.65,37.48-18.27C310.55,197.49,310.41,204.36,306.1,222.94Zm60.54,264.78c-6.46-18.92-27.29-11.2-32.86-19.27C342.72,469.47,365.71,472.36,366.64,487.72Zm-28.17,16.69c-29.93-5-18.58-34.49-8.22-40.63C314.82,493.64,321.47,495.53,338.47,504.41Zm223.65-366.5c16.44,11.54,28.71-6.87,38-3.59-7.84,4.39-28.14,15.47-38,3.59ZM575,108c27.18-13.41,35.46,17,30.71,28.06C600.52,102.87,594,105.23,575,108ZM624.9,534.7c-20.12.68-18.68,22.7-28.07,25.67C600.39,552.17,609.81,531.16,624.9,534.7Zm8,31.58c-13.47,27-38.63,7.72-41.56-3.9C615.66,585.66,619.4,579.88,632.86,566.28Zm99.21-261c-4.5,19.48,17.32,23.74,17.81,33.51C742.8,333.27,724.75,318.85,732.07,305.28Zm32.8.45c22.84,19.85-2.39,39-14.46,38.87C779.33,327.2,774.66,322.13,764.87,305.73ZM396.49,176c19.41-5.28,12.88-26.37,21.32-31.42C416.26,153.33,412,175.94,396.49,176Zm-15.12-28.89c6.82-29.36,35.78-16.38,41.35-5.75C393.59,124.25,391.3,130.74,381.37,147.06Zm-57.65,245c.18-20-22.06-19.49-24.64-28.93C307.19,367,327.94,377.26,323.72,392.07Zm-32.13,6.55c-26.6-14.52-6.11-38.63,5.71-41C272.82,380.73,278.48,384.69,291.59,398.62Zm362.67-208.3c12,16.05,29.43,2.36,37.23,8.35C682.66,200.42,659.88,204.66,654.26,190.32Zm21.67-24.45c30.05-4.32,28.33,27.18,20.36,36.17C701.77,168.92,694.85,169.15,675.93,165.87ZM519.16,565.79c-15.95-12.19-29,5.7-38.12,2.05C489.06,563.76,509.8,553.52,519.16,565.79ZM505,595.17c-27.72,12.29-34.73-18.48-29.53-29.29C479.33,599.23,485.93,597.13,505,595.17Zm219-181.93c-12.21,15.88,5.87,28.72,2.24,37.82C722.15,443.12,711.72,422.58,724.05,413.24Zm29.68,13.87c12.51,27.45-18.46,34.56-29.38,29.45C757.94,452.6,755.8,446.06,753.73,427.11Zm-442.45-80.2c9.05-17.85-11.12-27.15-9.24-36.76C307.58,317.19,321.65,335.46,311.28,346.91Zm-31.75-8.21c-17.41-24.68,11.7-37.34,23.38-34.33C270.65,314.43,274,320.46,279.53,338.7ZM459.38,548.55c-15.08-13.24-29.29,3.73-38.17-.52C429.48,544.51,450.88,535.67,459.38,548.55Zm-16.09,28.36c-28.49,10.41-33.39-20.76-27.47-31.2C417.37,579.24,424.09,577.59,443.29,576.91Zm-4.42-425.65c20,1.9,21.47-20.12,31.17-21.86-4.6,7.68-16.67,27.31-31.17,21.86Zm-3.8-32.34c16.88-25,39.31-2.7,40.71,9.2-21.13-26.21-25.59-21-40.71-9.21ZM704.25,463.19c-17.12,10.51-4.84,28.91-11.51,36.12C691.73,490.43,689.38,467.55,704.25,463.19ZM727,486.67c1.82,30.07-29.67,25.74-38,17.1C721.76,512,722.11,505.11,727,486.67ZM690.54,218.89c5.85,19.12,26.92,12.05,32.24,20.29C713.87,237.89,691,234.27,690.54,218.89Zm28.7-15.78c29.76,6,17.48,35.06,6.92,40.86C742.55,214.61,736,212.52,719.24,203.11Zm-355.83,3.78c17.81-9.3,6.85-28.51,14-35.24C377.8,180.58,378.55,203.56,363.41,206.89Zm-21.05-25c.29-30.13,31.4-23.64,39.13-14.45C349.35,157,348.52,163.86,342.36,181.92Zm-5.74,263.92c-.5-20-22.71-18.73-25.62-28.07C319.24,421.37,340.33,430.9,336.62,445.84Zm-31.89,7.63c-27.08-13.61-7.43-38.4,4.3-41.21C285.36,436.23,291.16,440,304.73,453.47ZM614.15,161.22c15.18,13.12,29.25-4,38.17.21C644.08,165,622.75,174,614.15,161.22ZM630,132.73c28.4-10.64,33.57,20.48,27.73,31C655.9,130.19,649.2,131.89,630,132.73Zm-56.7,426.69c-19.1-6.26-25.46,14.91-35.3,14.47,6.21-6.48,22.39-23,35.3-14.47Zm-3.59,32.37c-22.08,20.72-38.92-6-37.6-17.92C546.81,604.07,552.34,599.93,569.72,591.79ZM730.67,357.67C724.23,376.6,745.51,383,745,392.78,738.52,386.58,722,370.44,730.67,357.67Zm32.59,3.71C784,383.4,757,400,745,398.62,775.49,384.18,771.34,378.67,763.26,361.38Z" transform="translate(0 0)"/>
</svg>
