<?xml version="1.0" encoding="utf-8"?>
<!-- Generator: Adobe Illustrator 23.1.0, SVG Export Plug-In . SVG Version: 6.00 Build 0)  -->
<svg version="1.1"
	 id="svg92" xmlns:cc="http://creativecommons.org/ns#" xmlns:dc="http://purl.org/dc/elements/1.1/" xmlns:rdf="http://www.w3.org/1999/02/22-rdf-syntax-ns#" xmlns:svg="http://www.w3.org/2000/svg"
	 xmlns="http://www.w3.org/2000/svg" xmlns:xlink="http://www.w3.org/1999/xlink" x="0px" y="0px" viewBox="0 0 1050 700"
	 style="enable-background:new 0 0 1050 700;" xml:space="preserve">
<style type="text/css">
	.st0{fill:#CE1126;}
	.st1{fill:#FFFFFF;}
	.st2{clip-path:url(#SVGID_2_);}
	.st3{fill:#FF9C10;}
	.st4{fill:#083D9C;stroke:#083D9C;stroke-width:3.5997;}
	.st5{fill:#083D9C;stroke:#083D9C;stroke-width:3.381;}
	.st6{fill:#CE1126;stroke:#630810;stroke-width:3.3808;stroke-linejoin:round;}
	.st7{fill:#630810;stroke:#630810;stroke-width:4.8853;stroke-linecap:round;}
</style>
<rect id="rect5" y="0" class="st0" width="1050" height="700"/>
<rect id="rect7" y="175" class="st1" width="1050" height="350"/>
<g>
	<defs>
		<ellipse id="SVGID_1_" cx="525" cy="351.7" rx="150.2" ry="154.3"/>
	</defs>
	<clipPath id="SVGID_2_">
		<use xlink:href="#SVGID_1_"  style="overflow:visible;"/>
	</clipPath>
	<g id="g90" class="st2">
		<g id="g37">
			<path id="path9" class="st3" d="M485.3,334.3l-25.5-0.7v-10.1L485.3,334.3L485.3,334.3z"/>
			<path id="path11" class="st3" d="M485.2,331.3l-25.4-12.9v-16.8c0,0-3,0.4-2.6-2.9c0.1-7,18.7,12.8,28.2,19.2L485.2,331.3
				L485.2,331.3z"/>
			<path id="path13" class="st3" d="M375.1,375.1l53.6,0.4v-33.2l-61.2-2.9L375.1,375.1L375.1,375.1z"/>
			<path id="path15" class="st3" d="M372.6,329.3l57,5.5l-0.4-23.5l-55.7-21.8L372.6,329.3L372.6,329.3z"/>
			<path id="path17" class="st3" d="M384.1,282.3l43.8,21l6.3-6.5c0,0-4-2.7-3.8-5.3c0.1-2.6,4.1-2.9,4.1-5.7
				c0.1-2.6-4.5-2.9-4.6-5.4c-0.3-2.8,3.5-5.7,3.5-5.7l-39.5-34L384.1,282.3L384.1,282.3z"/>
			<path id="path19" class="st3" d="M671.4,375.6h-56.5l-0.4-32.3l62.1-4.6L671.4,375.6L671.4,375.6z"/>
			<path id="path21" class="st3" d="M672.8,328.8c-0.7-5.3-1.5-10.5-2.7-15.6c-1.6-6.9-3.7-13.7-6.2-20.3c-0.2-0.5-0.5-0.9-0.7-1.4
				l-48.3,20.2l0.4,24L672.8,328.8L672.8,328.8z"/>
			<path id="path23" class="st3" d="M639.8,251.1c-9.6,7.3-19.3,14.6-28.9,21.9c0,2.1,2.1,3.7,2.7,5.7c1.3,2.8-1.3,5.3-3,7.3
				c-1.3,1.8,1.5,2.8,2.5,3.8c2.1,2.2,0.3,5.5-2,6.8c2.7,1.6,4.1,4.6,4.6,7.6c14.4-7.5,28.9-15,43.3-22.5
				C653.9,270.7,647.4,260.4,639.8,251.1L639.8,251.1z"/>
			<path id="path25" class="st3" d="M559.2,335l24.2-1l0.4-9.7L559.2,335L559.2,335z"/>
			<path id="path27" class="st3" d="M559.2,329.8l-0.1-10.9c0,0,23-20.5,27.8-24.3c0,4.2-2.7,7.5-2.7,7.5v16L559.2,329.8
				L559.2,329.8z"/>
			<path id="path29" class="st3" d="M410.4,237.8c0.4,0.4,25.8,28.2,25.8,28.2c0.7-2.6,6.6-3,12.5-2.6c6,0.4,10.7-0.4,10.7,3.8
				c0,4.2-3,3.6-3,6.5s4.5,2.7,4.5,6.5c0,3.8-3.3,3-3.3,5.9c0,2.4,3.4,2.5,3.4,2.5l24.1,23.1l0.1-24.7L435.5,210L410.4,237.8
				L410.4,237.8z"/>
			<path id="path31" class="st3" d="M450.2,208.6c0.4,1.1,33.7,68.1,33.7,68.1s0.4-62.8,6.1-66.2l-9.5-17.2L450.2,208.6L450.2,208.6
				z"/>
			<path id="path33" class="st3" d="M559,201.4c-4.2,14.5-8.4,29-12.6,43.5c3.9,0.5,7.9,0.6,11.8,0.4c3.5,0.3,0.8,3.6,1,5.6
				c0,8.9,0,17.8-0.1,26.7c11.8-20.9,23.7-41.9,35.5-62.8c-8.2-4.3-16.8-7.4-25.6-10.3C565.8,203.2,562.4,202.2,559,201.4L559,201.4
				z"/>
			<path id="path35" class="st3" d="M603.2,219.5c-14.7,22.5-29.3,45.1-44,67.6c0,8.7,0,17.4-0.1,26c9.8-9.3,19.6-18.6,29.4-27.9
				c1.9-2.6-5.9-3.9-2-7.1c3.5-1.1,4.1-6.8,0.4-7.8c-3-4.5,2.7-6.8,6.4-6.3c5.1,0.2,10.3-1.1,15.3,0.3c2.7,2.6,5.3-3.9,7.9-5.4
				c5.3-5.3,10.6-10.7,15.9-16.1C623.8,233.8,613.9,225.9,603.2,219.5L603.2,219.5z"/>
		</g>
		<g id="g57">
			<path id="path39" class="st4" d="M489.8,482c-10.8,0.6-21.6,7.9-26.6,11.8c9.1,4,18.7,7.1,29,9.2c16.4,2.8,32.8,2.7,49.2,2.7
				c2.7-0.3,5.3-0.7,7.9-1.1l34.6-11.6c0,0-16.6-11-29.8-10.5c-13.2,0.5-22.1,13.4-32.7,12.4c-10.6-1-14.9-12.9-30.2-12.9
				C490.7,482,490.3,481.9,489.8,482L489.8,482z"/>
			<path id="path41" class="st5" d="M427,473l196.4,0.8c0,0-17-18.1-37-18.5c-20-0.4-14.5,8.4-29.8,9.7c-15.3,1.3-19.1-9.2-33.2-8.8
				c-14,0.4-22.1,8.8-32.7,9.2c-10.6,0.4-24.2-10.5-32.3-10.1c-8.1,0.4-37,12.6-37,12.6L427,473L427,473z"/>
			<path id="path43" class="st5" d="M401.9,449.9l242.3,0.8c3.8-5.5-11.9-18.5-26.4-19.7c-11.9,0.4-20.4,12.2-30.2,12.6
				c-9.8,0.4-20.8-12.2-31.9-11.8c-11.1,0.4-22.5,11.8-33.6,11.8c-11.1,0-19.1-12.2-33.2-12.2c-14,0-20.4,13.4-31,12.6
				c-10.6-0.8-20-13.4-30.2-13.4c-10.2,0-27.2,15.1-30.6,14.3C393.9,444,401.5,451.2,401.9,449.9L401.9,449.9z"/>
			<path id="path45" class="st5" d="M495.6,426.8l54.1,0c0,0-12.1-18.5-27-17.2C506,410,495.6,426.8,495.6,426.8L495.6,426.8z"/>
			<path id="path47" class="st5" d="M668.1,425.5h-74c0,0,9.6-5.6,12.2-10.8c4.8,2.6,3.5,5.2,13.1,5.6c9.6,0.4,18.7-10.8,27.9-10.3
				C656.3,410.4,668.1,425.9,668.1,425.5L668.1,425.5z"/>
			<path id="path49" class="st5" d="M376.4,425.5h74c0,0-9.6-5.6-12.2-10.8c-4.8,2.6-3.5,5.2-13.1,5.6c-9.6,0.4-18.7-10.8-27.9-10.3
				C388.2,410.4,376.4,425.9,376.4,425.5L376.4,425.5z"/>
			<path id="path51" class="st5" d="M382,402.5l52.7,0.4c0,0-3.4-7.1-3.8-16c-13.6-4.6-24.7,10.1-34.4,10.5
				c-9.8,0.4-20-10.5-20-10.5L382,402.5L382,402.5z"/>
			<path id="path53" class="st5" d="M663.4,402.5l-52.7,0.4c0,0,3.4-7.1,3.8-16c13.6-4.6,24.7,10.1,34.4,10.5
				c9.8,0.4,20-10.5,20-10.5L663.4,402.5L663.4,402.5z"/>
			<path id="path55" class="st5" d="M509.1,402.9l26.8,0c0,0,0.4-8.8-13.6-8.8C508.2,394.1,509.1,402.9,509.1,402.9L509.1,402.9z"/>
		</g>
		<g id="g65">
			<path id="path59" class="st6" d="M495,316.7l55.7,14.7v-78.6c-25.5,1.3-46.8-47.9-1.7-51.3c-44.2-6.3-49.3,5-54.4,17.2L495,316.7
				L495,316.7z"/>
			<path id="path61" class="st6" d="M507.4,387.8c-12.1,19.8-44.5,13.9-52.1,0.1c-2.3-0.6-0.9-85.4-0.9-85.4s-3.6-1.6-3.8-4.2
				c-0.2-2.6,4.9-2.9,4.9-6.2c0-3.4-5.2-2-5.3-5.4c0-3.2,5.5-2.8,5.3-5.8c-0.3-3.4-6.2-2.9-6.4-6c-0.2-2.5,4.2-4.6,5.4-5.7l-4.1-0.1
				l-9.3,0.2c-6.6,0,0.1,1.4,0,5.2c-0.1,2.5-3.3,4.1-3.6,6.2c-0.1,2.2,4.7,3.7,4.8,6.4c0.1,2.3-4.7,2.5-4.5,4.7
				c0.3,3.7,4.2,4.5,4.2,6.7c-0.1,2.2-5.3,3.1-5.3,4.9c0.2,3.4,0.8,87.2,0.8,87.2C445.7,433,493.8,443.9,507.4,387.8L507.4,387.8z"
				/>
			<path id="path63" class="st6" d="M539.1,387.8c12.1,19.8,44.5,13.9,52.1,0.1c2.3-0.6,0.9-85.4,0.9-85.4s3.6-1.6,3.8-4.2
				c0.2-2.6-4.6-2.9-4.6-6.2c0-3.4,4.9-2,5-5.4c0-3.2-5.1-3-4.9-6c0.3-3.4,4.3-3,4.5-6.1c0.2-2.7-2.5-4.3-3.7-5.4l3.9-0.1l9.3,0.2
				c6.6,0-0.1,1.4,0,5.2c0.1,2.5,3.3,4.1,3.6,6.2c0.1,2.2-4.7,3.7-4.8,6.4c-0.1,2.3,4.7,2.5,4.5,4.7c-0.3,3.7-4.2,4.5-4.2,6.7
				c0.1,2.2,5.3,3.1,5.3,4.9c-0.2,3.4-0.8,87.2-0.8,87.2C600.8,433,552.7,443.9,539.1,387.8L539.1,387.8z"/>
		</g>
		<g id="g88">
			<path id="path67" class="st7" d="M492.9,391.5c4.7-2.5,8.9-5,11.9-10.9l-18.3,0.4c0,0-8.5,5-12.8,10.5L492.9,391.5L492.9,391.5z"
				/>
			<path id="path69" class="st7" d="M552,391.5c-4.7-2.5-8.9-5-11.9-10.9l18.3,0.4c0,0,8.5,5,12.8,10.5L552,391.5L552,391.5z"/>
			<path id="path71" class="st7" d="M459.7,373.9l125.8,0.4"/>
			<g id="x">
				<path id="path73" class="st7" d="M465.7,344.1l14.9,19.7"/>
				<path id="path75" class="st7" d="M465.7,363.8l16.2-19.3"/>
				<path id="path77" class="st7" d="M474.2,342.8l-0.4,12.2"/>
			</g>
			<g id="use80">
				<g>
					<path class="st7" d="M489.5,344.1l14.9,19.7"/>
					<path class="st7" d="M489.5,363.8l16.2-19.3"/>
					<path class="st7" d="M498,342.8l-0.4,12.2"/>
				</g>
			</g>
			<g id="use82">
				<g>
					<path class="st7" d="M513.7,344.1l14.9,19.7"/>
					<path class="st7" d="M513.7,363.8l16.2-19.3"/>
					<path class="st7" d="M522.2,342.8l-0.4,12.2"/>
				</g>
			</g>
			<g id="use84">
				<g>
					<path class="st7" d="M538.8,344.1l14.9,19.7"/>
					<path class="st7" d="M538.8,363.8l16.2-19.3"/>
					<path class="st7" d="M547.3,342.8l-0.4,12.2"/>
				</g>
			</g>
			<g id="use86">
				<g>
					<path class="st7" d="M563,344.1l14.9,19.7"/>
					<path class="st7" d="M563,363.8l16.2-19.3"/>
					<path class="st7" d="M571.5,342.8l-0.4,12.2"/>
				</g>
			</g>
		</g>
	</g>
</g>
</svg>
