<svg id="Layer_1" data-name="Layer 1" xmlns="http://www.w3.org/2000/svg" width="370.42mm" height="246.94mm" viewBox="0 0 1050 700">
  <defs>
    <style>
      .cls-1 {
        fill: #3e5eb9;
      }

      .cls-2, .cls-5, .cls-6 {
        fill: #ffd900;
      }

      .cls-3 {
        fill: #b10c0c;
      }

      .cls-4, .cls-7 {
        fill: #fff;
      }

      .cls-10, .cls-12, .cls-13, .cls-4, .cls-5, .cls-6, .cls-7, .cls-9 {
        stroke: #000;
      }

      .cls-4, .cls-5, .cls-6, .cls-8, .cls-9 {
        stroke-miterlimit: 6;
      }

      .cls-4, .cls-5 {
        stroke-width: 1.76px;
      }

      .cls-6 {
        stroke-width: 1.89px;
      }

      .cls-7 {
        stroke-width: 1.76px;
      }

      .cls-8 {
        stroke: #fff;
      }

      .cls-8, .cls-9 {
        stroke-width: 12.12px;
      }

      .cls-10, .cls-12, .cls-13 {
        fill: #3d5da7;
      }

      .cls-10 {
        stroke-width: 1.5px;
      }

      .cls-11 {
        fill: #a70000;
      }

      .cls-12 {
        stroke-width: 1.87px;
      }

      .cls-13 {
        stroke-width: 1.45px;
      }
    </style>
  </defs>
  <path class="cls-1" d="M0,0H1050V700H0Z" transform="translate(0 0)"/>
  <path class="cls-2" d="M0,131.25H1050v437.5H0Z" transform="translate(0 0)"/>
  <path class="cls-3" d="M0,175H1050V525H0Z" transform="translate(0 0)"/>
  <g>
    <g id="a">
      <path class="cls-4" d="M862.49,270,820,285l42.5,15L905,285Z" transform="translate(0 0)"/>
      <path class="cls-5" d="M220.42,280H834.53a5.23,5.23,0,0,1,5.43,5h0a5.23,5.23,0,0,1-5.43,5H220.42a5.23,5.23,0,0,1-5.43-5h0A5.23,5.23,0,0,1,220.42,280Z" transform="translate(0 0)"/>
      <path class="cls-5" d="M825,290a5,5,0,0,0,0-10m-5,10a5,5,0,1,0,0-10m-5,10a5,5,0,0,0,0-10" transform="translate(0 0)"/>
    </g>
    <g>
      <path class="cls-4" d="M821.76,300l-42.5,15,42.5,15,42.5-15Z" transform="translate(0 0)"/>
      <path class="cls-5" d="M179.7,310H793.81a5.23,5.23,0,0,1,5.43,5h0a5.23,5.23,0,0,1-5.43,5H179.7a5.24,5.24,0,0,1-5.44-5h0A5.24,5.24,0,0,1,179.7,310Z" transform="translate(0 0)"/>
      <path class="cls-5" d="M784.3,320a5,5,0,0,0,0-10m-5,10a5,5,0,0,0,0-10m-5,10a5,5,0,0,0,0-10" transform="translate(0 0)"/>
    </g>
    <path class="cls-6" d="M112.06,342.51H947.25a7.45,7.45,0,0,1,7.39,7.5h0a7.45,7.45,0,0,1-7.39,7.5H112.06a7.45,7.45,0,0,1-7.39-7.5h0A7.45,7.45,0,0,1,112.06,342.51Z" transform="translate(0 0)"/>
  </g>
  <path class="cls-7" d="M775,350c-50,50-116.67,150-250,150-116.67,0-200-100-250-150,50-50,133.33-150,250-150C658.31,200,725,300,775,350Z" transform="translate(0 0)"/>
  <path d="M507.53,252.17c13.31,15,2.2,21,16.28,22,14.85,1.09,6.43,15.81,18.92,16.32,8.73.38-.87,35.26,7.53,46.78,8.57,12,15.74,3.51,15.89,12.18.15,9-23.31,8.06-23.72,35.68-.69,15.92-19.79,16.94-20.7,27.18-1.14,9.64,37.64,15,37.12,23.67S517,443.21,515.19,453c-.93,8.81,56.78,16,61.42,41.5C568,497.33,543.5,500,525,500c-116.65.09-200-100-250-150,50-50,133.32-150,250-150,0,0-34.63,31.64-17.45,52.17Z" transform="translate(0 0)"/>
  <g id="d">
    <g id="c">
      <path id="b" class="cls-8" d="M374.38,336.66v-40m24.24,0v40m24.25-40v40" transform="translate(0 0)"/>
      <path class="cls-8" d="M374.38,403.33v-40m24.24,0v40m24.25-40v40" transform="translate(0 0)"/>
    </g>
    <g>
      <path class="cls-8" d="M447.11,336.66v-40m24.24,0v40m24.25-40v40" transform="translate(0 0)"/>
      <path class="cls-8" d="M447.11,403.33v-40m24.24,0v40m24.25-40v40" transform="translate(0 0)"/>
    </g>
  </g>
  <g>
    <g>
      <path class="cls-9" d="M557.71,336.66v-40m24.24,0v40m24.25-40v40" transform="translate(0 0)"/>
      <path class="cls-9" d="M557.71,403.33v-40m24.24,0v40m24.25-40v40" transform="translate(0 0)"/>
    </g>
    <g>
      <path class="cls-9" d="M630.44,336.66v-40m24.24,0v40m24.25-40v40" transform="translate(0 0)"/>
      <path class="cls-9" d="M630.44,403.33v-40m24.24,0v40m24.25-40v40" transform="translate(0 0)"/>
    </g>
  </g>
  <g>
    <path class="cls-10" d="M894.86,344.05c-7.57,13.12,5.81-4.36,38.48,17.6,6,4.08,11.34,14.85,11.34,22.33-1.54-1-2.68-3.32-4.37-4.8-2.37,2.37,2.26,13.26,2.94,18.4-5.11-2.86-4.62-4.21-6.31-7.72.33,4.24-.88,15.93,1.15,20.44-4-1.15-3.76-4.39-5.86-5,1.43,5.09-1.24,10.64-.53,16.37-2.35-2.33-4.86-4.15-6-5.09-.19,2.73-4.53,9.9-4.63,12.48a6.61,6.61,0,0,1-2.87-4.36c-2.48,3.12-11.29,14.63-11.85,18.14-6.8-6-24.19-20.61-26.46-28.36-2,4.4-4.9,5.89-10.63,9.1-2.26-12.29-10.72-26.1-6.2-36.63a107.87,107.87,0,0,0-9.05,6.14c3-17.8,18.52-38.67,40.81-49Z" transform="translate(0 0)"/>
    <path class="cls-11" d="M866.62,409c3.14-6.29,6-8.28,8.07-12.33,3.59-7.11,4.1-12.77,7.23-11.94s3.12,3.74-.93,10.74S875,404,866.62,409Zm21.26,15c-.41-4.79,1-6.79.73-9.87-.43-5.42-2.65-9.14.23-9.41s4.24,1.59,4.24,7.05-.83,6.9-5.2,12.23ZM904,433.37c-1.26-6.68-.31-9.65-1.12-13.95-1.4-7.57-4.18-12.56-1.51-13.25s4.29,1.75,5.3,9.44.48,9.79-2.67,17.76Zm16.79-46.81c-3.95-3-6.24-3.2-8.79-5.12-4.47-3.37-6.74-7-8.18-5.19s-.42,3.75,4.28,6.87,6.28,3.35,12.69,3.44ZM918,408.73c-2.07-4.31-4.26-5.41-5.6-8.18-2.38-4.88-2.38-9.1-5-8s-2.78,3.29,0,8S911.62,406.12,918,408.73Z" transform="translate(0 0)"/>
    <path class="cls-12" d="M141.37,356.68c-.42-3.82.39-4.27-2-7.15,3.42,1.43,3.55,5.23,7.71,2.53,1.53-.79,2.2-.81.34-5.06,4.34.21,18.54,5.08,20.82,5.19,6,.27,16.88-6.28,24.44,1.78,7.27,7.34,4.84,15,4.84,25.13-2.91-1.4-1.51-2.09-4.61-5.72,2.33,8.88-.12,24.91-.12,34.34-1.19-2.27-1-1.29-2.18-3.64-3.1,8.6-6.81,10.37-6.81,20.54-1.12-4,0-3.14-1.28-5.24-3,6.53-23.21,12.12-15.43,18.7-7-4.12-10.1-3.69-13.29-7.39-1.37.89-2.46,2.56-3.73,4.86-12.35-5.68-7.94-17.94-17.61-26.12-1.68,3.43-.91,2.93-2.72,8.52-2-7.76-2.5-12.69-4.7-18.4-1.9,3.16-1.73,1.95-5.18,6.73-1.43-9.45-3.76-11.68-2.84-17.94-3.66,2.59-1.26,1.54-4.93,4.73,3.47-24.22,18.48-42.12,29.24-36.39Z" transform="translate(0 0)"/>
    <path class="cls-11" d="M126.18,396.22c3.18-7.8,6-10.25,8.1-15.27,3.63-8.82,4.23-15.88,7.27-14.8s3,4.71-1.07,13.38-6,10.51-14.3,16.68Zm12,19.51c1.28-7,3.29-9.54,4.12-14,1.47-7.92.65-13.81,3.48-13.5s3.48,3.3,1.59,11.17-3.19,9.74-9.19,16.37Zm14.41,13.56c.36-6.78,2-9.42,2.19-13.79.43-7.68-1-13.17,1.65-13.2s3.67,2.73,2.84,10.41-1.83,9.61-6.68,16.58ZM183.57,385c-5.91-5.89-9.49-7-13.31-10.78-6.72-6.66-10-12.91-12.36-10.69S157,369,164,375.36,173.56,382.62,183.57,385ZM180,407.75c-3.85-5.92-6.68-7.45-9.17-11.26-4.39-6.69-5.9-12.44-8.38-11s-1.93,4.43,2.82,10.92,6.67,7.68,14.73,11.36Z" transform="translate(0 0)"/>
    <path class="cls-13" d="M444.15,226.62c-6.93,13.4,12.13-4.45,42,18,5.53,4.16,13.47,20.62,13.47,28.25-6.36-1.35-17.63-7.63-17.63-7.63s13.22,13.24,13.22,28.5c-4.67-2.92-7-2.48-8.56-6.07,0,4.94,4.16,8.09,4.16,15.72a61.27,61.27,0,0,0-9.08-6.05c4.41,7.63-8,22.43-1.81,27.37-10.88-1.57-22-8.53-26.42-16.16-2.33,1.58-2.58,4.05-2.67,6.68.34.29-16.57-12.55-15-17.48-2.27,3.18-2.59,4.93-3.11,8.52-6.21-6.13-11.9-12.25-14-20.17-2.76,3.58-2.94,3.58-5.7,7.17-2.07-12.55-2.07-12.1,2.07-22.86-2.93,1.95-5.34,3.89-8.28,6.28,2.78-18.17,16.95-39.49,37.32-50Z" transform="translate(0 0)"/>
    <path class="cls-11" d="M427.07,292.07c1.11-9.23,3.52-12.7,4.24-18.65,1.29-10.45-.24-18.1,3.47-17.9s4.77,4,2.94,14.48-3.38,13-10.65,22.08ZM446.41,309c-.75-7.79.69-11.1.21-16.12-.83-8.83-3.55-14.81-.32-15.36s4.86,2.41,5.21,11.33-.52,11.28-5.1,20.15Zm30.18,13.79c-3.28-6.74-6.1-8.75-8.22-13.09-3.74-7.62-4.53-13.85-7.41-12.72s-2.73,4.35,1.44,11.81S468.46,317.76,476.59,322.77ZM487,262.41c-8.36-4.4-12.65-4.45-18-7.28-9.49-5-15-10.56-17-7.48s.65,6.15,10.43,10.66,12.79,4.72,24.58,4.1Zm3.06,25.22c-6.08-5.07-9.68-5.81-13.61-9.07-6.92-5.72-10.36-11.33-12.67-9.05s-.77,5.28,6.49,10.66,9.75,6.06,19.79,7.46Z" transform="translate(0 0)"/>
  </g>
</svg>
