<?xml version="1.0" encoding="utf-8"?>
<!-- Generator: Adobe Illustrator 23.1.0, SVG Export Plug-In . SVG Version: 6.00 Build 0)  -->
<svg version="1.1" id="Layer_1" xmlns="http://www.w3.org/2000/svg" xmlns:xlink="http://www.w3.org/1999/xlink" x="0px" y="0px"
	 viewBox="0 0 1400 700" style="enable-background:new 0 0 1400 700;" xml:space="preserve">
<style type="text/css">
	.st0{fill:#012169;}
	.st1{stroke:#FFFFFF;stroke-width:60;}
	.st2{clip-path:url(#SVGID_2_);stroke:#C8102E;stroke-width:40;}
	.st3{stroke:#FFFFFF;stroke-width:100;}
	.st4{stroke:#C8102E;stroke-width:60;}
	.st5{fill:#69B3E7;}
	.st6{fill:#FFFFFF;}
	.st7{fill:#C8102E;}
	.st8{fill:#FFFFFF;stroke:#000000;stroke-width:0.803;stroke-miterlimit:3;}
	.st9{fill:#FFFFFF;stroke:#000000;stroke-width:0.805;stroke-miterlimit:3;}
	.st10{fill:#FEDD00;stroke:#000000;stroke-width:1.2;stroke-miterlimit:3;}
	.st11{fill:#FFFFFF;stroke:#000000;stroke-width:0.36;stroke-miterlimit:3;}
	.st12{fill:#FFFFFF;stroke:#000000;stroke-width:0.35;stroke-miterlimit:3;}
	.st13{fill:#00AD50;stroke:#000000;stroke-width:0.78;stroke-miterlimit:4.8;}
	.st14{fill:#862633;stroke:#000000;stroke-width:0.78;stroke-miterlimit:4.8;}
	.st15{fill:#862633;stroke:#000000;stroke-width:0.42;stroke-miterlimit:4.8;}
	.st16{stroke:#000000;stroke-width:0.78;stroke-miterlimit:4.8;}
	.st17{fill:#FFFFFF;stroke:#000000;stroke-miterlimit:4.8;}
	.st18{fill:#862633;stroke:#000000;stroke-width:0.48;stroke-miterlimit:4.8;}
	.st19{fill:#FEDD00;stroke:#000000;stroke-width:0.48;stroke-miterlimit:4.8;}
	.st20{fill:#00AD50;stroke:#000000;stroke-width:0.48;stroke-miterlimit:4.8;}
	.st21{fill:none;stroke:#000000;stroke-width:4.2;stroke-miterlimit:4.8;}
</style>
<rect y="0" class="st0" width="1400" height="700"/>
<path class="st1" d="M0,0l700,350 M0,350L700,0"/>
<g>
	<defs>
		<path id="SVGID_1_" d="M0,0v175h816.7v175H700L0,0z M0,350v116.7h350V0h350L0,350z"/>
	</defs>
	<clipPath id="SVGID_2_">
		<use xlink:href="#SVGID_1_"  style="overflow:visible;"/>
	</clipPath>
	<path class="st2" d="M0,0l700,350 M0,350L700,0"/>
</g>
<path class="st3" d="M350,0v466.7 M0,175h816.7"/>
<path class="st4" d="M350,0v466.7 M0,175h816.7"/>
<path class="st5" d="M0,350h700V0h700v700H0V350z"/>
<g id="coa">
	<path class="st6" d="M908.6,167.9v239.3c0,78.3,141.4,124.7,141.4,124.7s141.4-46.5,141.4-124.7V167.9H908.6z"/>
	<path class="st7" d="M1030.4,252v107.7H908.6v39.2h121.8v125.5l19.6,7.5l19.6-7.5V398.9h121.8v-39.2h-121.8V252H1030.4z"/>
	<path class="st7" d="M908.6,167.9h282.8v92.4H908.6L908.6,167.9z"/>
	<g id="lion">
		<g>
			<ellipse class="st8" cx="931.3" cy="224.2" rx="15.9" ry="12.8"/>
			<ellipse class="st9" cx="931.3" cy="217.6" rx="14.1" ry="7.1"/>
			<ellipse class="st9" cx="931.3" cy="231.9" rx="14.1" ry="7.1"/>
			<ellipse class="st9" cx="931.3" cy="224.2" rx="14.1" ry="7.1"/>
		</g>
		<path class="st10" d="M1184.4,242l-2.3-6.4c0,0-6.3-2.6-6.8-6c-1.1-9-4.3-12.3-9.1-13.6c-4.8-1.3-8,0.8-8,0.8
			c-1.4,2.1-8.7,2.1-12.7,2.2c-4,0.2-4.1-1.7-4.1-1.7c-3.1,0-4.4-2.3-4.4-2.3c-2-4.1-3.6-5.6-4.6-6.1c5.2,0.1,9.1-2.3,15-8.5
			c6.4-6.7,11-4.1,11-4.1c-3.1,6.3,1,5.7,1,5.7c8.5-4.3,1.1-15.2-1.4-14.7c-2.6,0.5-3.3-1.2-3.3-1.2c0.1,2-2.8,2.7-2.8,2.7
			c2.2-12.5-5.2-15.8-5.2-15.8c-1.1,1.1-1.8,3.4-1.8,3.4c-2.1,7.5-9,6.4-16.7,2.7c-7.7-3.7-28.2,3.9-34.6,6.4
			c-6.4,2.6-18.1,6.6-28.7,0.6c-10.6-5.9-13.1-4.8-17.3-3.7c-4.2,1.1-11.5,2.9-14.3,1.4c-2.7-1.4-5.8-1.5-5.8-1.5
			c0.7-0.4-0.4-2.2-0.4-2.2c-3.2-4.3,0.4-7,0.4-7s-6,1.7-3.6,11.9l1.1,1.5c0,0,0.8,3.2,2.6,4.2l-0.1,0.7c0,0,1.5-0.7,2,1.4
			c0.5,2.1,2.7,0.2,3.7-1.6c0,0-1.6,9.3,9.9,11.5c0,0-1.3-1.4-0.8-2.4c0.5-1-1.4-1.8-1.3-3.2c0.2-1.4-2.9-2.1-0.5-3.2
			c2.4-1.1,3.5-3.4,8.7-0.3c5.1,3,9.1,2.4,9.1,2.4s-3.1-6.4-1.4-6.4c1.7,0,9.5,9.6,13.3,9.1c3.8-0.5,11.2-4.8,14.9-3.2
			c0,0,0.3-1.9,14.4-4.3c14.1-2.4,31.5-9.4,38-3.3c0,0,0.8,4.9,3.5,6.2c0,0-0.5,10.1-17.9,4.5l-6.3-1.7c0,0-1-3.1-34.2,5.5
			c0,0-2,0.7-3.2,1.6c-1.3,1-3.1-0.5-9.6,1.9c-6.6,2.4-31.1,10.4-46.2,7.5l0,0c-3.3-1-6.4-0.5-6.6-1c-0.2-0.6,1.8,0.2,1.8,0.2
			c-1.1-1.3-1.6-1.4-1.6-1.4c-12.7-1.4-10.4-7.1-10.4-7.1l0.6,1.8c2.1-2.7-0.8-9.1-0.8-9.1l-0.1,0c0-0.2-0.1-0.4-0.1-0.6l1-0.7
			c6.1-5.1,13.1-6.1,13.1-6.1c-4.2-5.1-13-2.4-13-2.4c0.2-6.3-2.4-13.5-2.4-13.5c-8.7,1-13.6,8.2-13.6,8.2
			c-0.3-6.4-8.5-10.1-8.5-10.1c3,3.7,1.1,12.5,1.1,12.5l0.3,0.2c-0.5,0-0.8,0-0.8,0l-0.2,1.9l-0.3-0.1c0,0-3,1.1-6.6,9.1
			c0,0-0.4,1.9-1.7,3.6c0-0.2,0-0.4,0-0.7c0,0-3.9,5.2-13,0c0,0-12.4-7.3-16.7-7.1c-4.3,0.3-7.2,2.3-6.9,3.5c0,0-9.9-0.8-13.3,4.9
			c0,0-7.5,2.7-1.1,8.8c0,0,0.9,2.7,2.7,4.1c0,0-0.3-5.6,1.1-3.9c0,0,0.4,0.6,1,0.9c0.2,0.8,0.8,3,2.1,4.1l1-0.3
			c0.1-1.4,0.4-3.1,0.8-3.9c0.1,0,0.3,0,0.3,0c0,0-0.1,0.1-0.1,0.1l1.8,2.7l2-1.1c1-0.1,2.2,0.8,2.2,0.8l2.3-1.9c0,0,0,0,0,0
			c2.3,0.4,2.9-4,2.9-4c2,0.5,4-0.1,5.6-1c1,3.7,9.1,7.6,9.1,7.6s0.1,0,0.3,0c-0.7,0.4-1.1,0.8-1.1,0.8c3.7,2.6,10.6,1.9,10.6,1.9
			c-2.9,1.1-2.5,6.5-2.5,6.5c-1.7,0.7-1.8,2.4-1.8,2.4c5.6,2.2,9.4,0.4,9.4,0.4c0.3,1.8-0.1,2-0.1,2c-2.2,4.8-3.2,9.5-3.2,9.5
			c0,0,0.1,0,0.2,0c-0.1,0.1-0.2,0.2-0.2,0.4c0,0-9.8,3.4-14.1,8.2c0,0-0.4-1.4-1.6-1.4c-1.2,0-5-3.1-6.8-3.7
			c-1.8-0.5-4.3,0.5-5-0.3c-0.6-0.7-0.3-6.3-1.5-7.2c0,0,0,0,0,0l-1.2-3.4c-0.8,1.8-4.2,1.4-4.2,1.4c-0.1,0.1-0.7,0.5-1.4,1
			c-0.7,0-1.5-0.2-1.5-0.2c-0.3,0.1-0.7,1-0.9,2c-0.1,0.1-0.3,0.2-0.4,0.3v-1c-0.7,0.5-2-0.3-2.6-0.3c-0.3,0-0.6,0.8-0.9,1.6
			c-1.4,0.3-3.2,0.3-3.2,0.3c-0.5,0.3-0.1,4.5-0.1,4.5c-3.9,2.2-2,5.4-2,5.4c2.2,10.6,20.2,5.8,21.6,7.2c1.4,1.4,4.5,1.6,6.1,1.6
			c1.6,0,3.7,3.9,6,4.3c2.3,0.4,0-3.1,10.7-5.7c10.7-2.6,14.3-7,14.3-7c3.4-0.6,4.3-4.7,4.5-6.4c0,0.8,0.1,1.6,0.2,2.6
			c0.5,3.7-2.1,5-2.1,5l9.3-2.8c3.7-1,3.2-4.2,3.2-4.2c3.5,10.1,9.9,10.7,9.9,10.7c1.3-3.8,1.1-5,1.1-5l2.9-0.2
			c0.1-2.2-1.8-3.8-2.9-4.5l4.5,2.7l1.8-0.3c0,1.6,2.4,3,2.4,3l0.3-2.1c2.1,2.7,5.9,1.8,5.9,1.8c-0.1-0.5-0.2-1-0.3-1.5
			c8.2,5.1,21.3-1.4,21.3-1.4c3.5,0.8,4-1.3,4-1.3c4,0.5,4.9-2.3,4.9-2.3c9.4-0.8,16.1-7.5,16.1-7.5c4.6-0.3,4.8-3.6,4.8-3.6
			s4.7,0.9,9.1-4.7c10.4-14.9,26-7.1,26-7.1l-9,0.6c-23.6-0.2-13.8,15.9-13.8,15.9l1.5-0.2c2.2,0.5,9.9,6.6,7.1,11.1
			c0,0.1-0.1,0.2-0.2,0.2c-4.8,6.6-13.7,0.3-16.2-5.2c-2.6-5.6-7.7-4.3-7.7-4.3s-13.3,2.2-7.9,12.8l0.2,0c0.1,2.6,1.7,5.5,6.5,8.4
			c2.7,3.8,11.4,4.2,17.9,2.8c3-0.7,18.8-7.4,18.8-7.4c1.2-3.4,5.1-2.6,8.6-7.6c3.5-5-5-6.7-6.9-9.5c-1.9-2.7,0.5-2.2,0.5-2.2
			c7.7,4.2,8.3-9.1,8.3-9.1c0.8,7.7,7.5,9.8,7.5,9.8c4.2-4.2,1.1-12.7,1.1-12.7c9.9,17.8,16,15,16,15c-5.4-3.3-2.7-7.7-2.7-7.7
			c4.8,18.9,24.5,2.4,24.5,2.4c-1,2.7,0,4.3,1.8,6.1c1.8,1.8,3.8,2.6,2.9,5.8c-1,3.2-10.1,2.6-10.1,2.6s-9-0.5-8.2,7.1
			c0.5,1.8,6.4,2.4,8.6,1.9c0,0-0.9,0.2,2.4,0.6c1.1,0.1,2.5,0.2,3.8,0.1c3.8-0.1,7.9-0.8,7.9-0.8c5.1-1.1,4.3-2.9,4.3-2.9
			C1183.6,247.3,1184.4,242,1184.4,242L1184.4,242z"/>
		<g>
			<path d="M923.9,209.2c0,0,0.4-1,1.2-1.1c0.6-0.1,1.4,0.4,2.1,1.3l0.4-0.3c0,0-2.1-3.1-1.3-5.2c0.4-1,1.3-1.6,2.7-1.9l-0.1-0.5
				c-1.6,0.4-2.7,1.1-3.1,2.3c-0.2,0.4-0.2,0.9-0.2,1.3c0,1.1,0.4,2.1,0.8,2.9c-0.5-0.3-0.9-0.4-1.4-0.4c-0.8,0.1-1.2,0.7-1.4,1.1
				L923.9,209.2z"/>
			<path d="M1171.3,251.2c-5.4,0.8-13.2,1.3-13.8-0.3c-0.1-0.3-0.1-1.4,4.3-4.3l-0.5-0.8c-3.7,2.4-5.1,4.1-4.6,5.4
				c1.1,2.9,12.6,1.3,14.9,0.9L1171.3,251.2z"/>
			<path d="M1068.9,254.3c-1.2-1.9-0.7-4.4,1.6-7.6l-0.8-0.5c-2.6,3.5-3.1,6.4-1.7,8.7L1068.9,254.3z"/>
			<path d="M1061.7,246.2c0.1,3.2,2.4,6.2,6.8,8.9l0.5-0.8c-4.1-2.5-6.2-5.2-6.3-8.1c-0.2-4.4,4.5-7.9,4.6-7.9l-0.5-0.8
				C1066.4,237.6,1061.5,241.2,1061.7,246.2L1061.7,246.2z"/>
			<path d="M1153,247.4c-1.5,2.2-1,4.8-1,4.9l0.9-0.2c0,0-0.4-2.4,0.8-4.2c0.8-1.1,2-1.8,3.6-2.1l-0.2-0.9
				C1155.3,245.2,1153.9,246.1,1153,247.4z"/>
			<path d="M943.7,206.4l-0.3-0.1l0,0.3c0,0-0.4,2.9-1.7,3.6c-0.4,0.2-0.8,0.2-1.2,0.1l-2.2-1.3c-0.4-0.4-0.8-0.7-1.4-0.5
				c-0.1-0.2-0.6-0.8-0.6-1.9c0-0.1,0-0.3,0-0.4c0.2-1.3,1.1-2.5,2.7-3.7l-0.3-0.4c-1.8,1.3-2.7,2.6-2.9,4.1
				c-0.2,1.7,0.8,2.8,0.8,2.9l0.1,0.1l0.2-0.1c0.5-0.2,0.6-0.1,1.1,0.3l2.4,1.4c0.6,0.2,1.2,0.2,1.7-0.1c1.3-0.8,1.8-3.1,1.9-3.8
				c5.7,1.2,10.3-5.7,10.5-6l-0.5-0.3C953.9,200.7,949.2,207.8,943.7,206.4L943.7,206.4z"/>
			<path d="M930.1,205.3c-0.3,1.2-0.1,2.3,0.6,3.4c0.6,1,1.2,1.6,1.9,1.7c0.8,0.1,1.4-0.5,2-1c0.4-0.4,0.8-0.7,1.1-0.7l0.5,0.3
				l0.4-0.3l-0.9-0.5c-0.6,0-1,0.4-1.5,0.8c-0.5,0.5-1,0.9-1.5,0.9c-0.5-0.1-1-0.5-1.5-1.4c-0.6-1-0.8-1.9-0.5-3
				c0.6-2.5,3.6-4.4,3.7-4.4l-0.3-0.5C933.9,200.6,930.8,202.6,930.1,205.3z"/>
			<path d="M922.3,241.5c0.3-1,1-1.8,2.2-2.5c-0.2,0,1.2,1.2,2.4,1.1c0,0,0.5-0.3,0.8-0.4c0.3,0.3,2.4,2.2,2.4,4.7
				c0,0.5-0.1,1-0.3,1.6l0.5,0.2c1.6-3.7-2.4-6.9-2.4-7l-0.1-0.1l-0.2,0.2l-0.7,0.4c-1,0.1-2.3-1-2.3-1c-1.6,0.7-2.5,1.7-2.8,2.8
				L922.3,241.5z"/>
			<path d="M940.4,232.2c-1.2,0.1-4.4,0.7-5.5,2.4c-0.4,0.6-0.4,1.3-0.2,2l0.4,1.1c1,2.7,2.1,5.6,3.2,6.2l0.3-0.5
				c-1-0.5-2-3.4-3-5.9l-0.4-1.1c-0.2-0.6-0.2-1.1,0.1-1.5c0.9-1.4,3.8-2.1,5.1-2.2c0.7-0.1,1,2.7,1.1,4.3l0.5,0
				C941.9,234.6,941.7,232.1,940.4,232.2L940.4,232.2z"/>
			<path d="M931.4,234.8c-0.7,0.6-0.5,1.5-0.5,1.6c0,0.3,0.3,7.1,3.6,8.5l0.2-0.5c-2.9-1.3-3.2-8-3.2-8.1c0,0-0.1-0.7,0.4-1.1
				c0.5-0.4,1.5-0.5,2.8-0.1l0.1-0.5C933.2,234.2,932.1,234.3,931.4,234.8L931.4,234.8z"/>
			<path d="M928.9,235.4c-1.4,1-1.4,3.8-1.4,4l0.5,0c0,0-0.1-2.7,1.1-3.5c0.4-0.3,1-0.3,1.8,0l0.2-0.5
				C930.2,235,929.5,235,928.9,235.4L928.9,235.4z"/>
		</g>
		<g>
			<path d="M1006,197.7c0,0,1.5,3.4,1.5,6.2c0,0.5-0.2,0.8-0.3,1.3c-0.1-0.2-0.6-1.6-0.6-1.6l-0.5,1.2c0,0.1-0.6,1.6,0.4,3.4
				c1.4,2.3,4.9,3.8,10.4,4.4h0c0,0,0.1,0.1,0.1,0.1c-0.2,0-0.4,0.1-0.4,0.1l-0.2,0.2l0,0.5c0.1,0.6,0.8,0.6,2.1,0.6
				c0.2,0,0.6,0.1,0.8,0.1c0.3,0.1,0.6,0.2,0.6,0.2s-0.1-0.1-0.1-0.1c1.2,0.1,2.7,0.4,4.2,1c-0.3,0.1-1.2,0.3-1.2,0.3l1.4,0.5
				c0.1,0,10.1,4.1,14.2,7.4c-1.2,1-6.2,4.8-14.9,2.6l-1.5-0.4l1,1.1c0.1,0.1,5.7,6.5,6.9,10.5c-2,0-9.5,0-12.2-2.3l-0.7,0.6
				c0,0.1,3.6,5.3,4.4,9.5c-1,0.1-3.5,0.2-5-1.7l-0.7-0.9c0,0-0.3,1.8-0.4,2.4c-0.7-0.5-1.6-1.3-1.6-2.2V242c0,0-1.9,0.3-2.1,0.4
				c-0.2-0.1-3.3-2-4.4-2.7c-0.4-0.2-0.6-0.4-0.7-0.4c0,0,0,0,0,0l0,0l-0.5,0.8c0,0,0.5,0.3,0.7,0.4c0.9,0.6,2.6,1.9,2.7,3.7
				c-0.7,0-2.9,0.2-2.9,0.2l0.1,0.5v0.1c0,0.3-0.1,1.5-1,4.3c-1.4-0.3-6.3-2-9.2-10.4l-0.9,0.2c0,0,0,0.1,0,0.3
				c0,0.8-0.3,2.7-2.9,3.3c0,0-4.8,1.5-7.5,2.3c0.5-0.7,1-1.7,1-3.1c0-0.3,0-0.6-0.1-1c-0.2-1.2-0.3-2.2-0.3-3.1
				c0-1.8,0.4-2.8,1.6-3.5l-0.4-0.8c-0.1,0-11.2,4.5-16.7,2.6c0.3-1.1,1.2-4.9,3.1-8.9l-0.2,0.2c0.4-0.2,0.7-0.7,0.4-2.5l-0.1-0.6
				l-0.6,0.3c0,0-3.6,1.6-8.7-0.3c0.1-0.4,0.4-1.2,1.4-1.6l0.3-0.1l0-0.3c0,0,0-0.2,0-0.6c0-1.4,0.2-4.6,2.2-5.4l-0.2-0.9
				c-0.1,0-6,0.5-9.6-1.5c0.9-0.7,2.9-1.9,5.3-2.2l0.4-0.1l0-0.4c0,0,0-0.1,0-0.3c0-0.5-0.2-1.4-0.6-2.4c1.4,0.4,3,0.7,3.6,0.3
				l0.2-0.1l-0.2-3.6l-0.9,0c0,0,0.1,2.4,0.1,3c-0.6,0-2.1-0.3-3.5-0.7l-1.4-0.5l0.9,1.2c0.8,1,0.8,2.2,0.9,2.7
				c-3.3,0.6-5.8,2.6-5.9,2.7l-0.5,0.4l0.5,0.4c2.8,2,7.2,2.1,9.4,2.1c-1.3,1.5-1.5,4-1.5,5.2c0,0.3,0,0.3,0,0.5
				c-1.6,0.9-1.8,2.5-1.8,2.5l0,0.4l0.3,0.1c4.8,1.9,8.1,1,9.2,0.6c0,0.1,0,0.4,0,0.5c0,0.4-0.1,0.6-0.1,0.6c-2.4,5-3.4,9.7-3.4,9.7
				l-0.1,0.4l0.4,0.1c4.5,1.8,12.5-0.7,16-1.9c-0.5,0.8-0.7,1.7-0.7,2.8c0,0.9,0.1,2,0.3,3.2c0,0.3,0.1,0.6,0.1,0.8
				c0,2.7-1.8,3.7-1.9,3.7l0.4,0.9l9.3-2.8c2.1-0.6,3-1.8,3.3-2.9c3.7,8.7,9.4,9.5,9.7,9.5l0.4,0l0.1-0.4c0.9-2.7,1.1-4,1.1-4.7
				c0.6,0,2.9-0.2,2.9-0.2l0-0.4c0-0.1,0-0.1,0-0.2c0-0.8-0.2-1.4-0.6-2.1c0.6,0.4,1.6,1,1.6,1s1.1-0.2,1.5-0.3
				c0.4,1.6,2.2,2.8,2.5,2.9l0.6,0.4c0,0,0.2-1.4,0.3-2c2.3,2.1,5.5,1.4,5.7,1.4l0.4-0.1l-0.1-0.4c-0.5-3.1-2.6-6.9-3.8-8.9
				c4.1,1.9,11.5,1.7,11.9,1.7l0.6,0l-0.1-0.5c-0.7-3.3-4.8-8.5-6.5-10.5c9.6,1.8,14.7-3.2,14.9-3.4l0.3-0.4l-0.4-0.3
				c-3.2-2.8-10.6-6.1-13.6-7.3c0.2,0,1-0.3,1-0.3l-1-0.6c-2.5-1.4-5.1-1.6-6.9-1.7l0,0c-1.1-1.3-1.7-1.5-1.9-1.5
				c-6.5-0.7-8.8-2.5-9.7-3.9c-0.1-0.1,0-0.2-0.1-0.3c0.1-0.2,0.3-0.4,0.3-0.4c0.6-0.8,0.8-1.9,0.8-3.1c0-3-1.5-6.4-1.6-6.6
				L1006,197.7L1006,197.7z"/>
			<path d="M976.3,195.8c0,0.1-0.7,3.6-3.7,5.3c-2.3,1.2-5.3,1.1-8.9-0.3l-0.4-0.2l0,0.4c0,0.1,0.2,2.2,2.2,3.7
				c1.6,1.3,4,1.7,6.9,1.4c-1,1.2-4.1,5.2-4.1,9.1c0,0.2,0,0.4,0,0.6c0.4,0.3,5.3,1.6,7.6-1.3c0.1,1.3,0.4,5.3,2,6.8
				c0.9,0.9,1.1,2.1,1.1,3.1c0,0.9-0.2,1.6-0.2,1.6l-0.2,0.7l0.6-0.4c0.2-0.1,4.7-3.5,6.2-7.8c0,0,0.7-1.1,2.1-1.5
				c0,0.2-0.1,0.4-0.1,0.7c0,1.7,0.7,4.7,5.6,6.6l0.4,0.2l0-0.4c0,0,0-0.3,0-0.8c0-1.2,0.2-3.5,1.3-4.7c0.8-0.8,1-1.6,1-2.4
				c0-0.6-0.1-1.1-0.3-1.4c1,0.3,3.3,1,4.3,2.8c1.4,2.6,6.2,0.5,6.4,0.4l-0.2-0.5c0,0-2,0.5-3.3-0.4c-0.6-0.4-0.9-1-1-1.8l-0.2-2.7
				c0-1.2-0.2-2-0.8-2.6c0.6-0.1,1.9,0,2.5,1.2c0.9,1.9,3.8,2.1,3.9,2.1l1,0.1l-0.8-0.5c0,0-2.6-1.7-2.1-3.9l0.4-1.6
				c0.7-2.9,1.8-7.7,0.9-10.7l-0.5,0.2c0.2,0.7,0.3,1.6,0.3,2.6c0,2.6-0.7,5.8-1.3,7.9l-0.4,1.6c0,0.2-0.1,0.4-0.1,0.6
				c0,1.4,0.9,2.5,1.6,3.2c-0.9-0.2-2.1-0.6-2.5-1.6c-0.7-1.5-2.6-1.6-3.5-1.4l-0.6,0.1l0.5,0.4c0.9,0.6,0.9,1.2,0.9,2.7l0.2,2.8
				c0.1,0.9,0.6,1.7,1.2,2.1c0.6,0.4,1.3,0.5,1.9,0.5c-1.4,0.4-3.4,0.6-4.1-0.7c-1.3-2.5-5-3.2-5.2-3.2l-0.6-0.1l0.3,0.5
				c0,0.1,0.4,0.8,0.4,1.7c0,0.6-0.2,1.4-0.9,2c-1.3,1.3-1.5,3.7-1.5,5c0,0.3,0,0.3,0,0.5c-4.2-1.8-4.9-4.4-4.9-5.9
				c0-0.6,0.1-1,0.1-1.1l0.1-0.4l-0.4,0.1c-2,0.3-2.9,2-2.9,2.1c-1.2,3.5-4.3,6.3-5.5,7.2c0-0.3,0.1-0.6,0.1-1
				c0-1.1-0.2-2.5-1.2-3.5c-1.7-1.7-1.9-7-1.9-7l0-1l-0.5,0.8c-1.8,3.3-7.2,1.7-7.3,1.7c-0.2-4.2,4.5-9.5,4.6-9.6l0.5-0.6l-0.7,0.1
				c-3.1,0.4-5.5,0-7.1-1.2c-1.3-1-1.8-2.3-1.9-2.9c3.6,1.3,6.6,1.4,8.9,0.1c3.2-1.8,3.9-5.5,4-5.6c3.4-7.7,6.4-8.9,6.4-8.9
				l-0.2-0.5C982.9,186.6,979.8,187.8,976.3,195.8L976.3,195.8z"/>
			<path d="M984,184.4l-0.2,0l-2.8,3.8l0.8,0.1c15,1.5,22.9,10.5,23,10.6l0.3,0.4l2.7-2.9l-0.2-0.3
				C1000.1,184.1,984.2,184.4,984,184.4L984,184.4z M984.3,185.4c1.8,0,15.5,0.4,22.4,10.9c-0.3,0.4-1.1,1.2-1.5,1.6
				c-1.6-1.7-9.3-8.8-22.4-10.4C983.2,186.8,984.1,185.6,984.3,185.4L984.3,185.4z"/>
			<path d="M981.9,192.3c-1.3,1.7-2.5,4.3-2.5,5.5c0,0.2,0,0.4,0.1,0.5c0,0,0.1,0,0.1,0c-1.6,1.4-2.5,3.7-2.5,6.4
				c0,1.5,0.3,3,0.8,4.4l0.3,0.8c1.5,4,2.7,7.4,9.1,5.4c6.1-2,6.4-2.3,7.9-4.9l0.4-0.7c0.8-1.4,1.8-1.6,2.7-1.9
				c1.2-0.4,2.4-0.7,3.4-2.8l1-1.5c1.1-1.5,2.5-3.4,2.7-5.9l-0.5,0c-0.2,2.3-1.5,4.1-2.6,5.6l-1.1,1.6c-1,1.9-2,2.2-3.1,2.5
				c-1,0.3-2.1,0.6-3,2.2l-0.4,0.7c-1.5,2.4-1.7,2.8-7.6,4.7c-5.9,1.9-6.9-1-8.4-5.1l-0.3-0.8c-1.7-4.5-0.4-8.9,1.8-10.6l0.7-0.6
				c0,0-0.9,0.1-1,0.1c0,0,0-0.1,0-0.2c0-0.7,0.8-3,2.4-5.2c1.4-1.8,4.5-3.7,4.6-3.7l-0.3-0.5C986.5,188.6,983.3,190.4,981.9,192.3
				L981.9,192.3z"/>
			<path d="M979,208.4c1.1,0.7,2.5,0.7,4.3,0c0,0.6,0.1,2,1.3,3c1.3,1.2,3.5,1.4,6.4,0.7l-0.1-0.5c-2.8,0.7-4.8,0.5-5.9-0.5
				c-1.3-1.1-1.1-2.9-1.1-2.9l0-0.5l-0.4,0.2c-1.8,0.8-3.2,0.8-4.2,0.1c-1.7-1.2-1.6-4.4-1.6-4.4l-0.5,0
				C977.2,203.7,977,207,979,208.4L979,208.4z"/>
			<path d="M982.4,204.2c-0.8,0.2-1,0.8-1,1.3c0,0.1,0,0.2,0,0.3c0.1,1.4,1.6,2.3,3,2.7c1.3,0.4,2.9,0.4,3.6-0.4
				c0.3-0.3,0.4-0.9-0.1-1.9C985.9,202.7,982.6,204.1,982.4,204.2L982.4,204.2z M984.6,208c-1.2-0.3-2.5-1.1-2.6-2.3
				c0-0.1-0.2-0.9,0.5-1l0.1,0c0.1-0.1,3-1.3,4.9,1.8c0.3,0.6,0.4,1,0.2,1.3C987.2,208.3,985.9,208.4,984.6,208L984.6,208z
				 M982.4,204.2C982.4,204.2,982.4,204.2,982.4,204.2L982.4,204.2z"/>
			<path d="M984.3,211.1c-0.3,2.9-0.1,3,0.1,3.1l0.2,0.1l0.2-0.2l1.7-2.2l-2.1-1L984.3,211.1L984.3,211.1z M984.7,211.6
				c0.3,0.1,0.6,0.3,0.9,0.4c-0.2,0.3-0.7,0.9-1,1.3C984.6,212.8,984.7,212.2,984.7,211.6L984.7,211.6z"/>
			<path d="M979.8,208.8l-0.1,2.8l2.3-2.8l-2.2-0.2L979.8,208.8L979.8,208.8z M980.4,209.1c0.2,0,0.4,0,0.6,0.1
				c-0.2,0.3-0.4,0.5-0.7,0.8C980.3,209.6,980.4,209.3,980.4,209.1L980.4,209.1z"/>
			<path d="M978.3,207.9c0,0,1.7,3.4,2,4.6c0.2,0.8,1.2,1.7,2.4,2.1c1.2,0.4,2.3,0.4,3.1-0.2l1.5-1.3c0.5-0.5,0.7-0.6,1.1-0.6
				l0.1-0.5c-0.7-0.1-1,0.2-1.6,0.7l-1.5,1.2c-0.9,0.6-2,0.4-2.6,0.1c-1.1-0.4-1.9-1.2-2-1.7c-0.3-1.3-2-4.6-2.1-4.7L978.3,207.9
				L978.3,207.9z"/>
			<path d="M980.5,197.9c-1.9,0.9-2.7,3.2-2.7,3.3l0.5,0.2c0,0,0.8-2.2,2.4-3c0.8-0.4,1.7-0.4,2.7,0l0.2-0.5
				C982.5,197.4,981.5,197.4,980.5,197.9z"/>
			<path d="M993.2,203.9c0.1,0.1,3.7,2.8,1.7,6.1l0.5,0.3c2.3-3.7-1.8-6.8-1.8-6.8L993.2,203.9L993.2,203.9z"/>
			<path d="M982.5,204.4c0,0-0.6,2,2.3,2.7c0,0-2.7,0-2.8-0.7C981.7,205.7,981.9,204.2,982.5,204.4z"/>
			<path d="M991.2,206.8c0,0.2-0.1,0.3-0.3,0.3c-0.2,0-0.3-0.1-0.3-0.3c0-0.2,0.1-0.3,0.3-0.3C991,206.5,991.2,206.7,991.2,206.8z"
				/>
			<path d="M991.5,208.1c0,0.2-0.1,0.3-0.3,0.3s-0.3-0.1-0.3-0.3c0-0.2,0.1-0.3,0.3-0.3S991.5,207.9,991.5,208.1z"/>
			<circle cx="989.3" cy="207.5" r="0.3"/>
			<path d="M990.2,209.4c0,0.2-0.1,0.3-0.3,0.3c-0.2,0-0.3-0.1-0.3-0.3c0-0.2,0.1-0.3,0.3-0.3C990.1,209,990.2,209.2,990.2,209.4z"
				/>
			<path d="M981.9,200.8c0,0.2-0.1,0.3-0.3,0.3c-0.2,0-0.3-0.1-0.3-0.3c0-0.2,0.1-0.3,0.3-0.3C981.8,200.5,981.9,200.6,981.9,200.8z
				"/>
			<circle cx="981.9" cy="202.1" r="0.3"/>
			<circle cx="980.1" cy="201.5" r="0.3"/>
			<path d="M981,203.3c0,0.2-0.1,0.3-0.3,0.3c-0.2,0-0.3-0.1-0.3-0.3c0-0.2,0.1-0.3,0.3-0.3C980.8,203,981,203.2,981,203.3z"/>
			<path d="M986.5,192.2c0,0,4.1,2.5,0.2,7.3c0,0,1.9-1.4,2.1-3.9C989,193.1,987.4,191.1,986.5,192.2z"/>
			<path d="M1002.2,199c-1.3,0.7-3.2-0.6-4.2-1.8c-0.9-1.2-2.9-1.5-4.1,0.7c-1.2,2.2-3,3-3,3s1.7-1,3.5-2.9c1.8-1.9,2.8-0.4,4.5,0.5
				c1.7,0.9,2,1.1,3.2,0.6L1002.2,199L1002.2,199z"/>
			<path d="M1001.9,199.3c-0.5,0.4-1.5,0.7-2.6-0.1c-1-0.8-1.9-2-3.3-1.3c-1.3,0.7-3.8,2.6-3.8,2.6s4.1-2.8,4.9-2.2
				c0.8,0.6,2.6,2.1,3.7,1.7C1001.9,199.5,1001.9,199.3,1001.9,199.3L1001.9,199.3z"/>
			<path d="M998.8,201.1c-1.3-1-2.6,1.2-3.7,0.9c-1.1-0.3-2-2.1-2-2.1s1,1.9,2.4,1.5c1.4-0.4,2.4-1.3,3.3-0.6
				C999.8,201.4,998.8,201.1,998.8,201.1z"/>
			<path d="M996.8,201.3c-2.5,0.3-2.8-2.1-2.8-2.1c0,0,0.8,2.1,3.1,1.7L996.8,201.3z"/>
			<path d="M996.7,199.7c0.2,0.6,0.1,0.9-0.6,0.9c-0.7,0-1.2-0.2-1.2-0.9C995,199.1,996.6,199.3,996.7,199.7z"/>
			<path d="M987.5,196.2c0,0.4-0.4,0.8-0.8,0.8s-0.5-0.3-0.5-0.7c0-0.4,0.1-0.9,0.5-0.9S987.5,195.7,987.5,196.2z"/>
			<path d="M984.7,193.3c0,0,4.4,0,2.2,5.5c0,0,1.7-2.7,0.6-4.7c-1-2-2.7-1.5-2.7-1.5S984.5,193.1,984.7,193.3z"/>
			<path d="M984.6,195.5c0,1.1,0.7,2.2,2.2,3.4l0.3-0.4c-1.3-1-2-2-2-2.9c0-0.9,0.7-1.5,0.7-1.5l-0.3-0.4
				C985.5,193.7,984.6,194.3,984.6,195.5L984.6,195.5z"/>
			<path d="M985.6,196.4c0.2,0.6,0.7,1.1,1.5,1.4l0.2-0.5c-0.6-0.2-1-0.6-1.1-1.1c-0.3-0.9,0.5-2,0.5-2l-0.4-0.3
				C986.1,194,985.2,195.3,985.6,196.4L985.6,196.4z"/>
			<path d="M991.5,199.5c0,0,0.8,1.8-0.4,3.7c-1.2,1.9-1.2,1.8-1.2,1.8s1.4-2.6,0.9-3.7C990.4,200.1,991.5,199.5,991.5,199.5
				L991.5,199.5z"/>
			<path d="M1008.5,217.9c4.5,0.8,14.6,8.8,14.7,8.9l0.6-0.7c-0.4-0.3-10.4-8.1-15.1-9L1008.5,217.9L1008.5,217.9z"/>
			<path d="M1012.5,229.1c0.3,4,4.6,6.4,4.8,6.5l0.5-0.8c0,0-4.1-2.3-4.3-5.8L1012.5,229.1z"/>
			<path d="M1001.8,229.9c0,4.5,4.2,9.9,4.4,10.1l0.7-0.6c0-0.1-4.2-5.4-4.2-9.5H1001.8L1001.8,229.9z"/>
			<path d="M987.6,230.4c0.7,1.5,0.7,2.2,0.5,2.6c-0.2,0.4-0.7,0.5-0.7,0.5l0.1,0.9c0.3,0,1-0.3,1.4-1c0.4-0.8,0.3-2-0.4-3.5
				L987.6,230.4L987.6,230.4z"/>
		</g>
		<g>
			<path class="st11" d="M923.8,208.4c0,0,0.3,3,2.6,4.8c0,0-0.3-3.3,0.4-4.6C926.8,208.5,925.6,207.2,923.8,208.4L923.8,208.4z"/>
			<path class="st11" d="M928.4,210.3c0,0,0.5,2.7,2.2,3.9l1-0.3c0,0,0.4-3.4,0.9-3.8C933.1,209.8,930.2,211.4,928.4,210.3z"/>
			<path class="st11" d="M932.5,210.2l1.8,2.7l2-1.1l-0.4-3.3C935.9,208.5,934.7,208.3,932.5,210.2L932.5,210.2z"/>
			<path class="st11" d="M940.8,210.7l-2.3,1.9c0,0-1.2-1-2.2-0.8l0.4-3C936.7,208.8,938.4,207.6,940.8,210.7L940.8,210.7z"/>
			<path class="st11" d="M924.4,238.8c0,0-0.4-4.2,0.1-4.5c0,0,1.6,0.5,2.3-0.1c0,0,1,3.4,0.7,4.8
				C927.2,240.3,925.6,239.8,924.4,238.8L924.4,238.8z"/>
			<path class="st11" d="M934.8,234.5c0,0-0.1-3.5,0.5-3.9c0,0,3.4,0.4,4.2-1.4l1.2,3.4C940.8,232.6,937,232.2,934.8,234.5z"/>
			<path class="st12" d="M931.2,235.2c0,0,0.7-3.7,1.4-3.8c0,0,1.8,0.5,2.3-0.1l-0.1,4.5C934.7,235.7,934.8,233.8,931.2,235.2
				L931.2,235.2z"/>
			<path class="st12" d="M927.2,235.7c0,0,0.8-3.3,1.4-3.3c0.5,0,1.9,0.8,2.6,0.3v2.4c0,0-3-0.7-3.4,3.4L927.2,235.7L927.2,235.7z"
				/>
		</g>
	</g>
	<g id="sugarcanes">
		<path class="st13" d="M980.2,303.3c0,0,9.2,8.6,6.8,16.1c0,0,5.9-12.8-0.4-16.5C980.2,299.2,980,302,980.2,303.3L980.2,303.3z"/>
		<path class="st14" d="M968.5,311.7c0,0-2.4,3.3,0.2,5.7c0,0-2.9,4.2-0.7,7.7c0,0-1.8,3.7-1.3,7.7c0,0-1.5,6.2,1.8,9
			c0,0,3.5,1.8,5.1,0.2c0,0,3.1-4.6,1.1-9.5c0,0,2.2-4-0.2-9c0,0,0.7-2.9-1.3-6.2c0,0,1.3-2.2,0.2-4
			C973.4,313.4,969,308.8,968.5,311.7L968.5,311.7z"/>
		<path class="st13" d="M971.2,300.9c0,0-11-21.1-18.7-22c-7.7-0.9-8.1-8.4-8.1-8.4s0.9,3.5,7,3.5c6.2,0,18,8.6,19.3,15.2
			c1.3,6.6,2.6,5.7,2.6,5.7L971.2,300.9L971.2,300.9z"/>
		<path class="st13" d="M971.2,299.4c0,0,4-26.6,21.3-27c17.4-0.4,11.7,1.3,15.8-1.5c0,0-11.6,6.2-18.9,7
			c-7.3,0.9-13.2,14.9-13,17.6c0.2,2.6-4,7.7-5.9,5.9C968.5,299.6,971.2,299.4,971.2,299.4L971.2,299.4z"/>
		<path class="st13" d="M975.1,309.3c0,0,4-10.6,10.8-7c0,0-5.3-10.1-14.7-1.3C971.2,300.9,975.3,306.6,975.1,309.3L975.1,309.3z"/>
		<path class="st13" d="M961.9,298.7c0,0,5.7,23.5-3.1,30.8c0,0,0.2-12.1-5.1-19.3C948.5,302.9,959.1,295,961.9,298.7L961.9,298.7z"
			/>
		<path class="st13" d="M962.6,302.9c0,0,10.3,9.9,11,13.2c0.7,3.3,3.1-9.9-1.8-13.6c-4.8-3.7-10.1-4.4-10.1-4.4L962.6,302.9z"/>
		<path class="st14" d="M943.5,328.8c0,0,0.9,4.2,3.5,5c0,0,0.1,3.1,2.4,4c0,0-1.2,2.5,0.8,4.2c0,0-0.4,5.1,1.5,6.2
			c0,0,4.6-0.3,6.2-1.6c0,0,0.9-3.3-1.6-6.7c0,0,0.4-3.2-2.2-5c0,0,0.8-4.3-2.4-5.9c0,0-0.5-3.5-2.5-5.2
			C949.2,323.7,945.3,329.2,943.5,328.8L943.5,328.8z"/>
		<path class="st13" d="M948.6,323.7c0,0-13.5-5-21,2.1c0,0,11.5,1.6,13,3.9C942,332,949.1,326,948.6,323.7L948.6,323.7z"/>
		<path class="st13" d="M944.5,332.2c0,0-1.1-0.9-2.4-1.9c-1.3-0.9-12.7-4-14.3,7c0,0-4.2-10.9,1.9-12.3
			C935.6,323.5,940.4,326.9,944.5,332.2"/>
		<path class="st13" d="M935.5,309.7c0,0,4.2,9,5.7,9.5c1.5,0.4,2.6-1.1,2.6-1.1S938.4,309.9,935.5,309.7z"/>
		<path class="st13" d="M932.5,295.9c0,0-3.5-11.7-7.7-8.6c-4.2,3.1-3.1,11.4-3.1,11.4s-8.4-8.6-3.5-15.4
			C923,276.5,932.5,284,932.5,295.9L932.5,295.9z"/>
		<path class="st14" d="M941.9,319.8c0,0,0,2.2,1.5,2.9c1.5,0.7,4.4,1.8,4.4,0.4c0-1.3-2.2-6.4-3.1-5.7
			C943.9,318.1,942.4,318.1,941.9,319.8L941.9,319.8z"/>
		<path class="st13" d="M939.3,306.2c0,0-0.4-10.1,6.2-13.9c0,0,1.3,0.2,2-1.8c0,0-5.3,12.7-3.7,19.1l-0.2,0.9"/>
		<path class="st13" d="M940.6,293.9c0,0,11.9-24.6,26.4-16.1c0,0-15.2,3.1-20.7,13.9l-5.5,8.1L940.6,293.9L940.6,293.9z"/>
		<path class="st13" d="M934.2,302.9c0,0-3.5-16.5-5.7-18.7c-2.2-2.2-5.9-4.6-10.3-0.9c0,0,7.7-6.8,15.8-1.1
			c8.1,5.7,6.4,14.7,6.4,14.7l-0.9,11.4l-5.5-5.1"/>
		<path class="st13" d="M947,322.5c0,0-14.5-27.5-24-7.9c0,0-1.8,5.1,0.2,7c0,0-5.3-4-2.9-13.6c2.4-9.7,18.5-5.3,23.1,2.6
			c4.6,7.9,5.9,11.9,5.3,12.3C948.1,323.3,947,322.5,947,322.5L947,322.5z"/>
		<path class="st13" d="M987.9,330.4c0,0,10.6-21.8,16.7-11.9c0,0,1.8,4.8-0.9,6.8c0,0-4.2-5.1-7.9,1.1c-3.7,6.2-2.2,5.7-2.2,5.7
			S989.6,333.2,987.9,330.4L987.9,330.4z"/>
		<path class="st13" d="M1003.7,325.3c0,0,5.7,3.1,3.7,9.2c0,0,7.7-14.7-2.9-16.1C1004.6,318.5,1006.6,323.1,1003.7,325.3
			L1003.7,325.3z"/>
		<path class="st13" d="M1004.4,310.4c0,0,13.9,4,14.3,9.9c0,0,2.4-11.4-5.5-15C1013.2,305.3,1003.7,306.9,1004.4,310.4
			L1004.4,310.4z"/>
		<path class="st13" d="M1010.5,292.1c5.9-11.7,13.4,3.7,13.4,3.7s2.6-12.1-4.8-14.3c-7.5-2.2-12.3,25.7-12.3,25.7l-8.8,2
			c0,0,2.4-24.4,15.6-26.6l1.5,0.2"/>
		<path class="st13" d="M1000,299.1c0,0-8.4-17.1-14.1-18.9c-5.7-1.8,3.1-4.4,6.6-1.1c3.5,3.3,10.1,7.5,9.5,16.3L1000,299.1
			L1000,299.1z"/>
		<path class="st13" d="M991.4,322.7c0,0,2.4-11.6,9-15.2c6.6-3.5,12.8-2.2,12.8-2.2s-7.9,1.8-9.2,5.7c-1.3,4-3.5,4.2-3.5,4.2
			L991.4,322.7L991.4,322.7z"/>
		<path class="st14" d="M987.9,330.4c0,0-3.7,7-2.9,8.1c0,0-4,5.7-2.4,8.6c0,0,4,3.1,5.7,1.8c0,0,4.6-6.4,3.3-9.9c0,0,3.1-4.2,2-6.8
			C993.6,332.1,989,332.4,987.9,330.4L987.9,330.4z"/>
		<g>
			<path d="M968.5,317.8c0.2,0.1,2.5,1.2,4,0.7l1.1-0.9l-0.8-0.4c-0.5,1.1-3,0.2-3.8-0.2L968.5,317.8z"/>
			<path d="M968.2,324.6l-0.2,0.9c0.2,0,4.7,0.9,6.8-1l-0.6-0.7C972.4,325.4,968.2,324.6,968.2,324.6L968.2,324.6z"/>
			<path d="M967,332.4l-0.6,0.8c0.1,0,5.2,3.7,8.6-0.3l-0.7-0.6C971.6,335.6,967.2,332.5,967,332.4z"/>
			<path d="M946.9,333.5l0.2,0.5c0.2-0.1,4.6-1.8,4.9-5.1l-0.5,0C951.2,331.8,947,333.5,946.9,333.5z"/>
			<path d="M949.4,337.5l0,0.5c0.2,0,4.2-0.3,4.9-3.2l-0.5-0.1C953.2,337.2,949.4,337.5,949.4,337.5z"/>
			<path d="M950.2,341.7l0,0.5c0.2,0,4.7,0.2,6.3-2.3l-0.5-0.3C954.7,341.9,950.3,341.7,950.2,341.7z"/>
			<path d="M984.7,338.8c0.1,0.1,2,2,4.3,1.9c1.1,0,2.1-0.6,3-1.5l-0.7-0.6c-0.7,0.8-1.4,1.2-2.3,1.2c-1.9,0.1-3.6-1.6-3.6-1.7
				L984.7,338.8L984.7,338.8z"/>
		</g>
	</g>
	<g id="palm">
		<g>
			<path class="st15" d="M1121.2,354.9c-0.2,0.1-0.5,0.2-0.7,0.5L1121.2,354.9z"/>
			<path class="st15" d="M1137.4,350.9c-0.2-0.4-0.3-0.2-0.5-0.4c-0.3-0.2-0.5-1-0.7-1.3c-0.2-0.2-0.3,0-0.5,0
				c-0.4-0.8-0.8-1.7-1.2-2.5c0.1-0.1,0.1-0.2,0.1-0.4c0,0-0.2-0.7-0.2-0.7c-0.1-0.2-0.3-0.1-0.4-0.3c-0.1-0.3,0-0.8-0.1-1.1
				c0-0.3-0.1-0.4-0.1-0.8c0-0.3,0.2-0.7,0.2-1c0-0.2-0.2-0.6-0.3-0.7c-0.3-0.6-0.5-1.2-0.5-2c0-0.7,0.1-1.1,0.2-1.7
				c0.1-0.7-0.3-1.1-0.3-1.8c0-0.5,0.2-1.1,0.3-1.6c0.1-0.6,0.1-1.5,0-2.2c0-0.6-0.2-1-0.1-1.7c0-0.2,0.1-0.3,0.1-0.5
				c0-0.2,0-0.3,0-0.5v-1c0-0.3,0-0.7,0-1c0-0.3-0.2-0.5-0.2-0.7c0-0.4,0.2-0.5,0.2-1c0-0.3-0.1-0.4-0.2-0.7c-0.2-0.6,0-1.2-0.1-1.8
				c0-0.3-0.1-0.4-0.2-0.7c0-0.4,0.1-0.5,0.1-0.8c0-0.3,0.1-0.6,0-0.9c0-0.4-0.2-0.6-0.2-1l-0.1,4.4c-0.1-3.8-0.3-7.4-0.3-7.4
				l-5.9-2.7c0,0-0.5,10.7-0.4,12.2c0.1,1.5,0.6,11.8,0.4,13c-0.3,1.3-0.9,7.5-0.9,7.5s-2.9,2-4,4.2c-1.1,2.3-0.9,3-1.3,3l2.8-0.4
				l-2.1,1.4c0.4-0.2,0.9-0.1,1.3,0.2c0,0,0.4,0.3,0.4,0.3c0.1,0,0.3-0.3,0.4-0.3c0.4-0.1,0.8,0.7,1.2,0.6c0.2,0,0.5-0.3,0.7-0.5
				c0.1-0.2,0.2-0.5,0.4-0.7c0.1-0.1,0.5,0,0.6,0c0.4,0,0.8,0,1.2,0c0.5,0,1-0.8,1.5-1.2c0.5-0.4,0.8-0.5,1.3-0.5
				c0.5,0,1,0.6,1.6,0.6c0.4,0,0.7,0.1,1.1-0.4c0.2-0.3,0.4-0.8,0.6-1.1l1.4-0.2c0.3,0.1,0.6,0.2,0.8,0.2c0.4,0,0.7-0.1,1.1,0
				c0.1,0,0.4,0.3,0.5,0.3c0.1-0.1,0.2-0.5,0.3-0.6C1137.5,351.4,1137.5,351,1137.4,350.9L1137.4,350.9z"/>
			<path class="st15" d="M1125.6,354.7c0.4,0,0.7-0.1,1,0.2c0,0.1,0.1,0.2,0.1,0.3c0.1,0.1,0.2,0.1,0.3,0c0.2,0.1,0.2,0.2,0.5,0.3
				c0.2,0,0.4,0,0.6,0c0.3,0,0.4,0.1,0.6,0.2c0.4,0.2,0.7,0,1.1-0.3c0.4-0.3,0.6-0.1,1,0.3c0.3,0.3,0.2,0.3,0.5,0.1
				c0-0.1,0.1-0.2,0.1-0.3c0.1-0.1,0.3-0.1,0.4-0.1c0.2-0.1,0.4-0.1,0.7-0.2c0.2-0.1,0.4-0.3,0.6-0.3c0.2,0,0.4,0.2,0.6,0.3
				c0.2,0.1,0.3,0.1,0.4,0.2c0.3-0.6,0.9-0.7,1.3-1c0.4-0.3,0.8,0.1,1.2,0.1c0.2,0,0.3-0.1,0.5-0.2c0.2-0.1,0.4,0,0.6,0
				c0.2-0.1,0.2-0.3,0.4-0.3c0.4,0,0.8,0.6,1.2,0.7c0.2,0.1,1.3,0.3,1.1-0.5c-0.1-0.7-0.8-0.2-0.9-0.7c-0.1-0.3,0.1-0.7,0-1
				c-0.1-0.3-0.4-0.6-0.6-0.7c-0.2-0.1-0.4,0.2-0.6,0c-0.2-0.2-0.2-0.8-0.4-1c-0.2,0.1-0.3,0.3-0.6,0.2c-0.3-0.1-0.3-0.2-0.5-0.5
				c-0.5-0.6-0.8,0.4-1.2,0.2c-0.3-0.1-0.7-1-0.9-1.3c-0.1-0.2-0.5-0.8-0.8-0.7c-0.3,0.2,0,0.9-0.2,1.2c-0.1,0.2-0.6,0-0.8,0
				c-0.3,0.1-0.3,0.1-0.5,0.4c-0.4,0.6-0.6,1.1-1.2,1.1c-0.3,0-0.5-0.3-0.8-0.2c-0.3,0.1-0.5,0.4-0.8,0.5c-0.2,0-0.5,0-0.7-0.1
				c-0.2-0.1-0.5-0.5-0.7-0.6c-0.1-0.1-0.2-0.1-0.3-0.1c0,0-0.3-0.2-0.3-0.2c-0.4-0.1-0.3-0.1-0.5,0.4c-0.1,0.3-0.1,0.6-0.2,0.9
				c-0.1,0.2-0.3,0.5-0.5,0.7c-0.3,0.3-0.4,0.2-0.7,0.3c-0.3,0.1-0.6,0.5-0.8,0c-0.2-0.8,0.6-2-0.3-1.8c-0.2,0.1-0.4,0.1-0.5,0.4
				c-0.2,0.4,0,0.6-0.1,1.1c-0.1,0.5-1.1,1.5-0.9,1.9c0.1,0.3,0.6-0.2,0.7-0.1c0.2,0.1,0.1,0.5,0.3,0.7c0.3,0.5,1.2-0.7,1.3-0.1"/>
			<path class="st15" d="M1121.8,350.5c0-0.1,0-0.1,0-0.2c-0.2,0-0.5-0.3-0.8-0.3c-0.2,0-0.6,0.5-0.8,0.8c-0.5,0.8-0.3,1.8-1.1,1.8
				c-0.2,0-0.6-0.1-0.8,0c-0.3,0.2-0.1,0.8-0.1,1.2c0,0.4,0.2,0,0,0.5c-0.1,0.1-0.2,0.2-0.3,0.4c-0.2,0.7,0.4,0.4,0.6,0.4
				c0.6,0,1.2,0,1.8,0c0.4,0,0.6-0.1,0.9-0.3c0.2-0.1,0.7-0.1,0.9-0.3c0.1-0.1,0.3-0.6,0.3-0.7c0-0.3,0-0.6,0-0.8
				c0.1-0.4,0.4-0.2,0.5-0.7c0.2-1.2-1.1-0.3-0.9-1.5"/>
		</g>
		<g>
			<path class="st16" d="M1136.6,316.5c0,1.6-1.1,2.9-2.4,2.9c-1.3,0-2.4-1.3-2.4-2.9c0-1.6,1.1-2.9,2.4-2.9
				C1135.5,313.6,1136.6,314.9,1136.6,316.5z"/>
			<path class="st16" d="M1128.7,313c0,1.6-1.1,2.9-2.4,2.9c-1.3,0-2.4-1.3-2.4-2.9c0-1.6,1.1-2.9,2.4-2.9
				C1127.6,310.1,1128.7,311.4,1128.7,313z"/>
			<path class="st16" d="M1132.8,314.1c0,1.6-1.1,2.9-2.4,2.9c-1.3,0-2.4-1.3-2.4-2.9c0-1.6,1.1-2.9,2.4-2.9
				C1131.8,311.2,1132.8,312.5,1132.8,314.1z"/>
			<path class="st16" d="M1128.8,316.7c0,1.6-1.1,2.9-2.4,2.9c-1.3,0-2.4-1.3-2.4-2.9c0-1.6,1.1-2.9,2.4-2.9
				S1128.8,315.1,1128.8,316.7z"/>
			<path class="st16" d="M1132.6,318.9c0,1.6-1.1,2.9-2.4,2.9c-1.3,0-2.4-1.3-2.4-2.9s1.1-2.9,2.4-2.9
				C1131.5,316,1132.6,317.3,1132.6,318.9z"/>
		</g>
		<path class="st13" d="M1133.7,287.7c0,0,24.4-34.1,50.6,1.3c0,0,0.2,3.5-2.2,7.3l-0.7-2.9l-1.5,0.4l-0.4-1.8l-2.9-0.2l0.9-3.7
			l-3.1,2.4l0.4-2.6l-3.5,3.5l0.4-7.5l-3.7,6.4l0.4-4.4l-1.3,2l-0.8-2.6l-1.2,2.6l-1.8-1.3v1.8l-3.1-2.6l-1.1,3.5l-1.5-3.7l-0.4,2.6
			l-1.5-3.1l-0.2,3.3l-5.1-2.2l1.1,3.1l-2.4-1.8l0.4,1.8l-3.3-0.7l0.2,2l-3.5-0.7l0.7,1.8l-4.8-0.7l1.8,2l-0.5,0.8
			c0,0,26.4-8.7,28.2,24.3l-4.8,2.4l1.3-2.6l-1.3-0.9l-4-3.1l1.1-4.2l-1.3,0.4l-0.2-2.4l-0.7,0.4l-1.5-2.4l-0.4,0.9l-1.1-2.9l-1.1,2
			l-0.7-4.8l-1.8,3.1l-0.2-1.8l-0.7,1.1l-2.2-2.6l-0.7,1.8l-0.9-1.3l-0.7,1.5l-2.4-2.2v1.8l-1.5-1.3l-0.7,0.9l-3.7-2l-0.2,1.8
			l-2-1.8l-0.7,1.8c0,0,24,13.6,16.5,35.8l-1.3,2.9l-0.4-7.5l-2.2,4l1.5-8.6l-1.5,1.5l-0.2-3.3l-2,3.3l-0.7-3.7l-0.9,1.1l-1.3-5.7
			l-1.1,2.4l-1.8-6.4l-1.3,2.6l-0.9-5.5l-0.9,3.3l-2.6-4.8l-0.4,2l-1.5-4l-0.9,1.3c0,0-4.4-0.2-5.7-1.3c-1.3-1.1-5.1,6.6-5.1,6.6
			l0.4-4.6l-1.5,3.1V313l-2.9,9.2l-0.7-6.6l-1.5,5.7l-0.7-1.8l-0.4,2.4l-0.9-0.9l-0.8,2.6l-1.4-1.1v3.5l-1.3-1.8l-1.1,5.3l-0.7-2.2
			v2.4l-1.1-1.3l-1.1,5.3l-1.5-2.2l-0.2,3.7l0.7,2.9l-1.8-0.9l0.7,4.6c0,0-6.8-12.7,1.3-25.1c8.1-12.3,19.1-15.6,19.1-15.6l-1.1-1.1
			l-0.2-1.1l-6.6,3.3l0.2-2l-1.8,1.5l-0.4-2.2l-1.1,2l-0.2-0.9l-1.5,2.4l-0.9-3.5l-1.1,4.2l-1-2.9l-2.3,6.2v-4.6l-1.8,4.8l-0.7-5.3
			l-1.3,6.2v-5.5l-2,5.5l-1.3-5.3l-0.9,5.1l-1.3-4l-1.3,5.9l-2-5.3l-1.1,7.9l-1.3-3.1l-0.2,5.7l-1.5-3.5l1.5,7.5l-2-2.9l0.7,4.6
			l-2.9-5.1l0.2,5.9l-1.5-2l-0.7,2.2c0,0-0.7-22.9,15-27.3c15.6-4.4,25.7,1.3,25.7,1.3l-5.9-4.8l0.7-1.5h-2.2l0.9-1.8l-4.6,0.2
			l1.3-1.8l-3.5,0.4v-1.1l-2.2,1.8l0.9-2l-3.1,2l-0.2-2.9l-1.6,2.5l-0.9-2.6l-7,7l2-7.3l-1.3,1.5l-0.2-1.5l-2,3.1l-0.4-2.2l-0.9,2.6
			l-0.7-3.1l-1.5,3.1l-1.5-2.9l-0.7,3.7l-1.1-2l-1.3,2.9l-1.8-1.8l-0.2,1.8l-3.5-1.5l0.9,2.6l-2.6-2.2l-0.7,3.5l-1.5-1.8l-1.1,4.4
			l-1.1-4.2l-1.1,3.3c0,0,13.8-35.3,48.5-12.3c0,0,3.8,3.7,4.7,6.3c0.9,2.6,0.2,0.4,0.2,0.4l-0.7-24.4l1.3,10.6l0.9-3.7l-0.2,5.5
			l3.5-7.7c0,0-4.2,12.8-2.6,17.4c0,0,1.5-14.7,6.8-16.5l-4.8,10.6l1.5-0.2l-1.1,2.2h1.3l-1.6,3.5l-0.8,1.8l0.9,1.8L1133.7,287.7
			L1133.7,287.7z"/>
		<g>
			<path d="M1130.1,302l0.7,0.6c0.1-0.1,2.3-2.4,5.9,0.7l0.6-0.7C1133,298.9,1130.1,302,1130.1,302z"/>
			<path d="M1129,290l-0.1,0.8c0,0,1.3-0.5,1.7-0.7c-0.3,0.5-1.2,2-1.2,2s1.8-0.6,2.5-0.8c-1.1,1.4-3.1,4.1-3.1,4.1l0.7,0.6l5-6.5
				c0,0-2.3,0.8-3.1,1c0.3-0.6,1.3-2.3,1.3-2.3s-2,0.9-2.7,1.2c0.2-1.1,0.6-3.4,0.6-3.4l-0.9-0.2L1129,290L1129,290z"/>
			<path d="M1124.4,290.3c0,0,0.6,1.4,1.1,2.4c-0.2-0.1-1.7-0.7-1.7-0.7l5.1,9c0,0,0.6-0.8,0.6-0.8c-0.5,1.3-1,2.6-1,2.6l0.9,0.3
				l2.2-5.6l-0.8-0.5c0,0-1.2,1.5-1.8,2.3c-0.5-0.8-2.2-4-3.1-5.4c0.1,0,1.4,0.6,1.4,0.6s-1-2.1-1.4-3.1c0.6,0.4,1.9,1.2,1.9,1.2
				v-3.3h-0.9v1.7c-0.7-0.5-3.1-1.9-3.1-1.9L1124.4,290.3L1124.4,290.3z"/>
			<path d="M1121.2,301.6l0.4,0.9c1.4-0.6,2.5-0.7,3.4-0.3c1,0.5,1.3,1.5,1.3,1.5l0.9-0.2c0-0.1-0.4-1.5-1.8-2.1
				C1124.2,300.8,1122.8,300.9,1121.2,301.6z"/>
			<rect x="1124.7" y="306.1" transform="matrix(0.9879 -0.1549 0.1549 0.9879 -34.2153 178.024)" width="0.9" height="5"/>
			<rect x="1131.2" y="306.3" transform="matrix(0.9487 -0.3163 0.3163 0.9487 -39.3993 373.7678)" width="0.9" height="4"/>
			<rect x="1133.9" y="309.1" transform="matrix(0.97 -0.2432 0.2432 0.97 -41.5942 285.2051)" width="0.9" height="3.9"/>
		</g>
	</g>
	<g id="dove">
		<g>
			<path class="st13" d="M946.6,425.9c0,0-4.1-1.9-6-0.5c-1.9,1.4-1.6,3.4-3.2,3.2c0,0,6.2,1.4,7.6-0.3c1.4-1.6,1.6-2.1,1.6-2.1"/>
			<path class="st13" d="M947.4,427.6c0,0-2.7,3.6-1.8,5.8c0.9,2.1,2.9,2.3,2.5,3.9c0,0,2.7-5.8,1.4-7.5c-1.3-1.7-1.7-2-1.7-2"/>
			<path class="st13" d="M942.8,417.6c0,0-4.3,1.3-4.8,3.6c-0.5,2.3,1,3.6-0.3,4.6c0,0,5.6-3.1,5.5-5.3c-0.1-2.1-0.2-2.7-0.2-2.7"/>
			<path class="st13" d="M945.4,419.1c0,0,2.1-4,0.8-6c-1.3-1.9-3.3-1.8-3.1-3.4c0,0-1.6,6.2-0.1,7.6c1.6,1.4,2.1,1.7,2.1,1.7"/>
			<path class="st13" d="M941.1,417.6c0,0,0.1-4.5-1.9-5.7c-2-1.2-3.7-0.2-4.3-1.7c0,0,1.2,6.3,3.2,6.9c2,0.6,2.6,0.6,2.6,0.6"/>
			<path class="st13" d="M948.5,425.1c0,0,4.7-1.6,5.1,3.5c0.4,5.1-0.3,3.4-0.3,3.4s-2.5-5.5-5.2-6.4L948.5,425.1z"/>
		</g>
		<g>
			<path d="M947.3,427.7c0,0.1,0.5,4,0.5,4l0.7-0.1l-0.5-3.9c0,0,1.6-8.5,1.6-8.5l-0.7-0.1L947.3,427.7L947.3,427.7z"/>
			<path d="M943,426.4l-0.2,0.6c2.3,0.8,5.4-1.7,5.6-1.8l-0.4-0.5C947.9,424.8,944.9,427.1,943,426.4L943,426.4z"/>
			<rect x="943.4" y="412.4" transform="matrix(0.4514 -0.8923 0.8923 0.4514 144.5128 1071.7046)" width="0.9" height="11.9"/>
			<rect x="940.5" y="418.4" transform="matrix(0.7075 -0.7067 0.7067 0.7075 -20.4651 788.2111)" width="3" height="0.9"/>
			<rect x="943.8" y="413.9" transform="matrix(0.9081 -0.4188 0.4188 0.9081 -87.6545 433.7413)" width="0.9" height="5.4"/>
			<path d="M948.1,425.2l0.1,0.9c2.9-0.2,3.6,1.7,3.6,1.7l0.9-0.2C952.6,427.1,951.4,424.9,948.1,425.2L948.1,425.2z"/>
		</g>
		<path class="st17" d="M996.8,427.3c3.5-2,4.3-8.9,4.3-8.9c-0.8,2.6-7.4,5.1-7.4,5.1c4.8-3,10.6-16.4,10.6-16.4
			c-1.6,4.8-14.2,8.8-22.2,13.3c-8.1,4.5-3.8,17.6-3.8,17.6c-2.3-1.6-6.7-8.5-7.5-14.6c-0.9-6.1-3.3-8.5-8.8-9.2
			c-5.5-0.7-8.8,5.5-8.8,5.5l-8.2,4.3l8.4,0.3c0,0,6,2,6,6.7c0,4.7-5.2,23.4,3.4,33.9c6,7.3,28.2,11.5,28.2,11.5"/>
		<path class="st17" d="M980.5,441.8c0,0,1.7-8.4,7.2-8.1c5.5,0.3,7.1-6.2,10.3-7.2c3.3-1,20.1-5.5,22-13.6c0,0-1.6,13.3-17,20
			c0,0,12.5-4.1,13.9-6.8c0,0-5.5,11.9-19,13.7c0,0,12.6-1,14.4-4.4c0,0-5.7,7.5-15,8.5c0,0,8.6,3.5,10.9,0.6c0,0-4.7,5.5-10.5,5.9
			l1.6,0.4c0,0-5.5,6.5-11.6,2.1c-6.1-4.4-6.2,1.1-6.2,1.1"/>
		<path class="st17" d="M993.1,454.4c0,0,7.1,11.9,7.8,18.3c0,0,13.6,15,18.7,15.9c0,0-2.4,1-6.8-2.7c0,0,3.7,3.8,4.4,4
			c0.7,0.1-3-0.3-3.5-1.3c0,0,1.6,2.3,2.6,2.6c1,0.3-1-0.3-1-0.3s-1.8-0.3-2.7-1c-0.9-0.7-0.3,1.8-0.3,1.8s-2.1-0.6-2.8-1.3
			c-0.7-0.7,0.3,1.6,0.3,1.6l-1.8-0.4l-1.3,0.8c0,0-0.1,0.9-1,0.1c-0.8-0.7-2.4,0-2.4,0s-1.1,1-1.7,0.3c-0.6-0.7-2.7,2.7-2.7,2.7
			l-8.9-21.5"/>
		<g>
			<rect x="995.9" y="470.3" transform="matrix(0.8853 -0.4651 0.4651 0.8853 -110.0081 518.8192)" width="1.3" height="24.2"/>
			<rect x="1001.6" y="466.2" transform="matrix(0.7458 -0.6661 0.6661 0.7458 -65.477 789.8425)" width="1.3" height="29"/>
			<rect x="1004.6" y="464.3" transform="matrix(0.6818 -0.7316 0.7316 0.6818 -30.7406 887.9701)" width="1.3" height="30.1"/>
		</g>
		<g>
			<path d="M960.7,421c0,0-1.4-2.6-2.7-1.6c-1.2,1-2,1.1-2.2,1.1c0,0,1.3,0.1,2-0.6C958.5,419.2,959.7,419.6,960.7,421L960.7,421z"
				/>
			<path d="M952.9,419.8c0,0,0.8,1.6,0.8,1.7c-0.1,0-0.9,2.6-0.9,2.6l0.6,0.2l0.9-2.9c0-0.2-0.8-1.9-0.8-1.9L952.9,419.8
				L952.9,419.8z"/>
			<path d="M960.4,420.6c0,0-1.1,1.3-2.5,0.9c-1.5-0.4-1.5-0.4-1.5-0.4s1.2,0.1,2.1,0.1C959.2,421.3,960.3,420.8,960.4,420.6z"/>
			<path d="M960,420.8c0,0-1.3-1.4-2.2-1c0,0,1.6-0.5,2.5,0.9L960,420.8z"/>
			<path d="M959.8,420.6c0,0-1.5,1-3.1-0.1l-0.1-0.1l0.2-0.1C956.7,420.3,958.8,421.2,959.8,420.6z"/>
			<circle cx="958.5" cy="420.3" r="0.4"/>
		</g>
		<path d="M959.7,459.9c0,0-1.2,2.1-0.6,3.4c0.6,1.3,3.4,2,3.7,3.7c0.4,1.7,1.3,1.7,2.6,1.5c1.3-0.2,1.5-0.3,1.5-0.3
			s-5.4-2.9-6.8-7.5L959.7,459.9z"/>
	</g>
	<g id="bananas">
		<g>
			<path class="st18" d="M1134.1,416.3c0,0,9.8-12.9,18.5-9.5c8.7,3.4,14.4,5,14.4,5s0.2,8.7-4.5,8.7c-4.6,0-9-8.7-13.3-6.1
				c-4.2,2.6-7.7,6.1-8,7.3C1141,423,1130.2,423.3,1134.1,416.3L1134.1,416.3z"/>
			<path class="st14" d="M1096.8,478.8c0,0-2.7,2.9-1.5,3.5c1.2,0.7,3.7-0.1,3.7-1.1C1099,480.3,1097.4,478.5,1096.8,478.8
				L1096.8,478.8z"/>
			<path class="st14" d="M1094.7,481.5c0,0-5-2.9-9,3.9c-4,6.8-7.2,17.8-9.5,19.3c-2.3,1.5,22.4-10.9,22.7-16.1c0,0,1.6-6.7-1-6.5
				C1095.3,482.3,1095.2,482.6,1094.7,481.5L1094.7,481.5z"/>
			<path class="st18" d="M1095.3,482.3c0,0-5.2,1.2-6.3,8.6c-1.1,7.4-8.3,11.2-8.7,11.4"/>
			<path class="st18" d="M1167,411.8c0,0-7.9,2.7-6.5,8.2"/>
		</g>
		<path class="st19" d="M1106.6,427.7c0,0,0.3-18.6,15.5-17.8c2.9,0.3,1.5,3.7,1.5,3.7s3.3-2.3,4.8,1.4c0,0,4.8-2.2,5.3,2.6
			c0,0,5.2-0.7,4.5,3.5c0,0,3.6-0.8,3.4,2.2c0,0,4.1-1.6,3.7,2.6c0,0,4.5-3,3.8,2.4c0,0,4.7-3.3,6.3,2.2c1.6,5.4-4.7,17-10.8,20"/>
		<g>
			<path d="M1148.9,428.9c0,0.1,2.1,14.6-6.1,19.9l0.3,0.5c8.5-5.5,6.4-20.2,6.4-20.4L1148.9,428.9L1148.9,428.9z"/>
			<path d="M1139.1,444.7l0.4,0.4c5.2-5,6.3-18.6,6.3-19.2l-0.5,0C1145.3,426,1144.1,439.8,1139.1,444.7L1139.1,444.7z"/>
			<path d="M1134.2,441.5l0.5,0c0.7-8.4,7.2-18,7.3-18.1l-0.4-0.3C1141.6,423.2,1134.9,432.9,1134.2,441.5L1134.2,441.5z"/>
			<path d="M1130.4,439l0.5,0.1c0.9-10.1,7.6-17.7,7.7-17.8l-0.4-0.4C1138.2,421,1131.4,428.7,1130.4,439L1130.4,439z"/>
			<path d="M1125.1,435.6l0.5,0c0.5-12,8.4-17.8,8.5-17.9l-0.3-0.4C1133.7,417.4,1125.7,423.4,1125.1,435.6L1125.1,435.6z"/>
			<path d="M1120.2,432.6l0.5,0c-0.4-10.9,8-17.4,8.1-17.5l-0.3-0.4C1128.4,414.8,1119.8,421.5,1120.2,432.6L1120.2,432.6z"/>
			<path d="M1111.4,428.7l0.5,0.1c1.5-11.8,11.9-14.8,12-14.9l-0.1-0.5C1123.7,413.4,1112.9,416.5,1111.4,428.7L1111.4,428.7z"/>
		</g>
		<path class="st20" d="M1097.6,450.3c0,0-2.6-17.3,7.8-22.7c0,0,1.9-0.4,3,2c0,0,5.4-2.3,5.6,2.3c0,0,2.7-2.2,3.4,0.8
			c0,0,5.8-1.2,4.8,3.1c0,0,4.9-1.4,4.5,2.9c0,0,4.9-1.8,4.1,1.9c0,0,5.2-1.2,3.9,3c0,0,6.4-0.7,4.5,3.8c0,0,4.8-1.2,3.7,2.5
			c0,0,6.3,1.1,3.4,5c-2.9,3.9-10.1,9.9-17.1,12.5"/>
		<path class="st20" d="M1092.1,467.7c0,0-4.2-14.4,3.8-18.1c0,0,1.5-0.4,1.8,1.1c0,0,1.8-2.3,3.1-0.3c0,0,4.1-1.9,5,1.1
			c0,0,2.7-2.3,4.1,1.1c0,0,2.6-1.1,2.6,1.6c0,0,3.5-1.5,3.5,1.8c0,0,3.4-1.4,2.7,2.3c0,0,5.2,0.8,3.7,3.3c0,0,4.6,1.2,2.9,3.1
			c0,0,5-0.5,2.3,2.9c0,0,3.8-1.2,1.6,3c-2.2,4.2-9,8.8-13.7,9.4"/>
		<path class="st20" d="M1097.1,479.2c0,0-9-8.7-4.8-11.3c0,0,1.9,0.5,2.6,2.4c0,0,2.2-3.1,3.4,0.1c0,0,3.3-1.1,3.3,1.1l2.6,1.9
			c0,0,3-0.3,2.5,1.6c0,0,3.3-0.4,3.1,1.4c0,0,2.9,0.1,2.6,2c0,0,4.9,0.8,2.7,3.3c0,0-8.6,1.8-14.6-0.7
			C1100.5,481.1,1097.4,480,1097.1,479.2L1097.1,479.2z"/>
		<g>
			<path d="M1127.9,464.8l0.2,0.5c5.3-2,14.6-14.7,15-15.2l-0.4-0.3C1142.5,449.9,1133.1,462.8,1127.9,464.8L1127.9,464.8z"/>
			<path d="M1124.9,462.5l0.3,0.5c4.6-2.6,13.8-14.8,14.2-15.3l-0.4-0.3C1138.8,447.4,1129.4,460,1124.9,462.5L1124.9,462.5z"/>
			<path d="M1122.2,461.4l0.3,0.4c4.9-4.1,12-17.5,12.3-18l-0.5-0.3C1134.3,443.7,1127,457.4,1122.2,461.4L1122.2,461.4z"/>
			<path d="M1119.8,458.3l0.5,0.1c0.9-6.8,10.4-17.4,10.5-17.5l-0.4-0.4C1130.1,440.9,1120.8,451.4,1119.8,458.3L1119.8,458.3z"/>
			<path d="M1100.8,450.1l0.5,0c-0.8-9.6,7.2-20.1,7.3-20.2l-0.4-0.3C1108.1,429.6,1100,440.3,1100.8,450.1z"/>
			<path d="M1105.8,450.9l0.5-0.1c-1.3-7.7,7.7-18.6,7.8-18.7l-0.4-0.3C1113.4,432.2,1104.5,443,1105.8,450.9L1105.8,450.9z"/>
			<path d="M1113.6,453.7l0.5,0c-0.3-8.8,8.1-17.5,8.2-17.6l-0.4-0.4C1121.9,435.8,1113.3,444.8,1113.6,453.7L1113.6,453.7z"/>
			<path d="M1095.1,469.6l0.5-0.2c-3.1-8.1,2.2-18.5,2.3-18.6l-0.5-0.2C1097.4,450.7,1092,461.3,1095.1,469.6L1095.1,469.6z"/>
			<path d="M1098.6,470.1l0.5-0.2c-2.7-8.2,1.8-19.3,1.9-19.4l-0.5-0.2C1100.5,450.5,1095.9,461.7,1098.6,470.1L1098.6,470.1z"/>
			<path d="M1113.2,478.4l0.2,0.5c8.7-3.1,14.4-11,14.4-11.1l-0.4-0.3C1127.3,467.5,1121.7,475.3,1113.2,478.4L1113.2,478.4z"/>
			<path d="M1111.4,476.5l0.2,0.5c6.9-3.1,13.4-11.8,13.4-11.9l-0.4-0.3C1124.6,464.8,1118.2,473.4,1111.4,476.5L1111.4,476.5z"/>
			<path d="M1109.7,475.8l0.3,0.4c5.4-3.9,12.4-14,12.4-14.1l-0.4-0.3C1122,462,1115.1,472,1109.7,475.8L1109.7,475.8z"/>
			<path d="M1101.1,470.8l0.5-0.1c-1.2-8.6,4.4-18.9,4.5-19l-0.5-0.3C1105.5,451.5,1099.8,461.9,1101.1,470.8L1101.1,470.8z"/>
			<path d="M1104.8,473.1l0.4,0.4c5.6-5,7.5-18.6,7.6-19.2l-0.5-0.1C1112.2,454.4,1110.3,468.2,1104.8,473.1L1104.8,473.1z"/>
			<path d="M1108.6,474.7l0.3,0.4c7.9-5.7,10-16.7,10-16.8l-0.5-0.1C1118.5,458.4,1116.4,469.1,1108.6,474.7L1108.6,474.7z"/>
			<path d="M1109.6,451.1c0,0.5,0,1,0.1,1.5c0,0-6,19.3-6,19.3l0.5,0.2l6-19.5c-0.9-9.4,7.3-19.7,7.4-19.8l-0.4-0.3
				C1117.1,432.7,1109.6,442.1,1109.6,451.1L1109.6,451.1z"/>
			<path d="M1115.8,455.9c-0.1,0.3-1.9,13.6-9.1,18.5l0.3,0.4c7.4-5,9.2-18.1,9.2-18.7c3.2-3.8,10.5-17,10.6-17.2l-0.5-0.3
				C1126.3,438.8,1119,452,1115.8,455.9L1115.8,455.9z"/>
			<path d="M1094.7,470.4c0.1,0.3,1.3,6.9,2.6,9.2l0.5-0.3c-1.3-2.2-2.5-9-2.6-9L1094.7,470.4L1094.7,470.4z"/>
			<path d="M1098.1,470.5c0.1,3.3,0.1,8.7-0.1,9.2l0.5,0.2c0.3-0.7,0.2-7.9,0.1-9.4L1098.1,470.5L1098.1,470.5z"/>
			<path d="M1098.4,479.9l0.5,0.2c2.3-5,3-8.5,3-8.5l-0.5-0.1C1101.3,471.5,1100.6,474.9,1098.4,479.9z"/>
			<path d="M1098.9,480l0.3,0.5c4.3-2.5,5.3-6.8,5.3-7l-0.5-0.1C1103.9,473.4,1102.9,477.7,1098.9,480L1098.9,480z"/>
			<path d="M1099.7,480.4l0.1,0.5c4.2-0.4,7-5.5,7.2-5.7l-0.5-0.3C1106.4,475,1103.6,480,1099.7,480.4L1099.7,480.4z"/>
			<path d="M1100.1,480.7l0,0.5c6.7-0.4,9.7-4.4,9.9-4.6l-0.4-0.3C1109.5,476.3,1106.5,480.3,1100.1,480.7L1100.1,480.7z"/>
			<path d="M1100.6,480.8l-0.1,0.5c0.4,0.1,8.9,1.9,11.8-2.6l-0.4-0.3C1109.1,482.6,1100.6,480.8,1100.6,480.8L1100.6,480.8z"/>
		</g>
	</g>
	<path class="st21" d="M908.6,167.9v239.3c0,78.3,141.4,124.7,141.4,124.7s141.4-46.5,141.4-124.7V167.9H908.6z"/>
</g>
</svg>
