<svg id="Layer_1" data-name="Layer 1" xmlns="http://www.w3.org/2000/svg" xmlns:xlink="http://www.w3.org/1999/xlink" width="395.11mm" height="246.94mm" viewBox="0 0 1120 700">
  <defs>
    <style>
      .cls-1 {
        fill: #4997d0;
      }

      .cls-2 {
        fill: #fff;
      }

      .cls-13, .cls-17, .cls-3 {
        fill: none;
      }

      .cls-3, .cls-4, .cls-5 {
        stroke: #24420e;
      }

      .cls-3 {
        stroke-width: 0.51px;
      }

      .cls-4 {
        fill: #406325;
      }

      .cls-13, .cls-25, .cls-26, .cls-27, .cls-28, .cls-29, .cls-30, .cls-31, .cls-32, .cls-33, .cls-34, .cls-4, .cls-5 {
        stroke-width: 0.19px;
      }

      .cls-5 {
        fill: #67923d;
      }

      .cls-6, .cls-7 {
        fill: #ba1f3e;
        stroke: #511124;
      }

      .cls-6 {
        stroke-width: 0.22px;
      }

      .cls-11, .cls-12, .cls-18, .cls-36, .cls-37, .cls-38, .cls-7 {
        stroke-width: 0.25px;
      }

      .cls-14, .cls-8, .cls-9 {
        fill: #8c959d;
      }

      .cls-12, .cls-13, .cls-14, .cls-16, .cls-17, .cls-22, .cls-8 {
        stroke: #485654;
      }

      .cls-19, .cls-8 {
        stroke-width: 0.13px;
      }

      .cls-10 {
        fill: #485654;
      }

      .cls-11, .cls-15, .cls-21 {
        fill: #6c301e;
      }

      .cls-11, .cls-15 {
        stroke: #351710;
        stroke-linejoin: round;
      }

      .cls-12, .cls-16, .cls-22 {
        fill: #b2b6ba;
      }

      .cls-14 {
        stroke-width: 0.13px;
      }

      .cls-15, .cls-16 {
        stroke-width: 0.25px;
      }

      .cls-17 {
        stroke-width: 0.19px;
      }

      .cls-18, .cls-19, .cls-20, .cls-23, .cls-24 {
        fill: #fab81c;
      }

      .cls-18, .cls-19, .cls-23, .cls-24 {
        stroke: #6c301e;
      }

      .cls-22, .cls-23 {
        stroke-width: 0.25px;
      }

      .cls-24 {
        stroke-width: 0.13px;
      }

      .cls-25, .cls-26, .cls-27, .cls-28, .cls-29, .cls-30, .cls-31, .cls-32, .cls-33, .cls-34 {
        stroke: #999270;
      }

      .cls-25 {
        fill: url(#radial-gradient);
      }

      .cls-26 {
        fill: url(#radial-gradient-2);
      }

      .cls-27 {
        fill: url(#radial-gradient-3);
      }

      .cls-28 {
        fill: url(#radial-gradient-4);
      }

      .cls-29 {
        fill: #f9f0aa;
      }

      .cls-30 {
        fill: url(#linear-gradient);
      }

      .cls-31 {
        fill: url(#linear-gradient-2);
      }

      .cls-32 {
        fill: url(#radial-gradient-5);
      }

      .cls-33 {
        fill: url(#linear-gradient-3);
      }

      .cls-34 {
        fill: url(#linear-gradient-4);
      }

      .cls-35 {
        fill: #b07e09;
      }

      .cls-36 {
        stroke: #4c0505;
        fill: url(#radial-gradient-6);
      }

      .cls-37, .cls-43 {
        fill: #448127;
      }

      .cls-37 {
        stroke: #34541f;
      }

      .cls-38 {
        fill: #eac102;
        stroke: #a08307;
      }

      .cls-39 {
        fill: #a08307;
      }

      .cls-40 {
        stroke: #000;
        stroke-width: 0.11px;
      }

      .cls-41 {
        fill: url(#radial-gradient-7);
      }

      .cls-42 {
        fill: #34541f;
      }
    </style>
    <radialGradient id="radial-gradient" cx="527.42" cy="341.62" r="16.53" gradientTransform="matrix(1.17, 0, 0, -1.17, -93.33, 758.21)" gradientUnits="userSpaceOnUse">
      <stop offset="0.22" stop-color="#f9f0aa"/>
      <stop offset="1" stop-color="#b07e09"/>
    </radialGradient>
    <radialGradient id="radial-gradient-2" cx="531.56" cy="336.89" r="10.91" xlink:href="#radial-gradient"/>
    <radialGradient id="radial-gradient-3" cx="534.11" cy="341.25" r="9.78" xlink:href="#radial-gradient"/>
    <radialGradient id="radial-gradient-4" cx="538.39" cy="342.83" r="17.35" xlink:href="#radial-gradient"/>
    <linearGradient id="linear-gradient" x1="552.88" y1="397.52" x2="551.08" y2="429.26" gradientTransform="matrix(1, 0, 0, -1, 0, 699.9)" gradientUnits="userSpaceOnUse">
      <stop offset="0.22" stop-color="#b07e09" stop-opacity="0"/>
      <stop offset="1" stop-color="#b07e09"/>
    </linearGradient>
    <linearGradient id="linear-gradient-2" x1="563.64" y1="353.79" x2="566.41" y2="318.87" xlink:href="#linear-gradient"/>
    <radialGradient id="radial-gradient-5" cx="525.98" cy="397.53" r="13.02" xlink:href="#radial-gradient"/>
    <linearGradient id="linear-gradient-3" x1="526.8" y1="408.78" x2="531.26" y2="419.22" gradientTransform="matrix(1, 0, 0, -1, 0, 699.9)" xlink:href="#radial-gradient"/>
    <linearGradient id="linear-gradient-4" x1="552.2" y1="423.1" x2="555.25" y2="384.37" gradientTransform="matrix(1, 0, 0, -1, 0, 699.9)" xlink:href="#radial-gradient"/>
    <radialGradient id="radial-gradient-6" cx="557.86" cy="434.62" r="0.34" gradientTransform="matrix(1.17, 0, 0, -1.17, -93.33, 758.21)" gradientUnits="userSpaceOnUse">
      <stop offset="0.26" stop-color="#a50a0a"/>
      <stop offset="1" stop-color="#4c0505"/>
    </radialGradient>
    <radialGradient id="radial-gradient-7" cx="564.8" cy="442.34" r="0.34" gradientTransform="matrix(1.14, 0, 0, -1.19, -86.32, 779.31)" gradientUnits="userSpaceOnUse">
      <stop offset="0" stop-color="#fff"/>
      <stop offset="1" stop-color="#fff" stop-opacity="0"/>
    </radialGradient>
  </defs>
  <path class="cls-1" d="M0,0H1120V700H0Z" transform="translate(0 0)"/>
  <path class="cls-2" d="M373.33,0H746.67V700H373.33Z" transform="translate(0 0)"/>
  <g>
    <g>
      <path class="cls-3" d="M527.47,440.4a32.56,32.56,0,0,0,7-2.08m2.59-4.73a15.16,15.16,0,0,1,3.49,5.4m-9.47-5.92a18.16,18.16,0,0,1,3.67,4.85M476.94,278.57c-1.21,1.87-3.6,3.18-5.57,4m-.4-.23a30.31,30.31,0,0,1,.06-5.13m-2.31,5.87c.13.43.51,1.63.79,2.36m2.36,1.08c-.44.09-1.77.3-2.37.39m-4.61-1a90,90,0,0,0,.62,9.12m-2.09-1.12a6.89,6.89,0,0,0,1.81,2.2m-5.35,7.54a16.6,16.6,0,0,1,1.52,4.62m4.33-5.4a19.07,19.07,0,0,0-2.25,1.8m1.86,5.13a18.42,18.42,0,0,1-4,2.48m-4.45,47.14a18.43,18.43,0,0,0,4.62,5.46m.68,2a9.14,9.14,0,0,1-3.44-1.13m5.13,9.81,2,1.13m-.51,4.05a21.27,21.27,0,0,1,4.39,4.51M468,388.52a13.87,13.87,0,0,1,3.78,1.24m-1.25,2.82,2.48.08m1.41-6.28a48,48,0,0,1-.56,5m1.18,1.86.5-1.92m5.47,7-.17,3.78m45.74,32.55-1.35,1.86m-2.81-4.56-.79-2.14" transform="translate(0 0)"/>
      <g>
        <path class="cls-4" d="M567.13,449.09a9.83,9.83,0,0,0-3.83-3.1c-9-4.73-18-6.81-28.13-8.45-2.35-.39-4.7-2.59-7.1-3.72-5.79-2.75-12.24-3.83-17.87-6.64a9.16,9.16,0,0,1-2.45-1.8c-2.24-2.6-6.29-3.39-8.8-5.81-9.72-9.18-20.05-17.63-25.4-29.8-6.5-14.82-14.59-30.09-13.49-46.93.7-10.65-.88-21.41,1.74-31.55,3.88-15.05,8.85-29.92,18-42.37l-1.53,1c-9.18,12.45-14.15,27.32-18,42.36-2.62,10.15-1,20.91-1.75,31.56-1.09,16.84,7,32.11,13.49,47,5.36,12.11,15.74,20.56,25.41,29.81,2.51,2.36,6.55,3.15,8.79,5.8a11.84,11.84,0,0,0,2.46,1.8c5.63,2.82,12.08,3.89,17.87,6.59,2.4,1.19,4.75,3.33,7.1,3.72,10.16,1.63,19.12,3.78,28.13,8.45a9.32,9.32,0,0,1,3.83,3.1l1.58-1" transform="translate(0 0)"/>
        <g>
          <path class="cls-5" d="M474.06,386.9c-3.26-7.35-1.59-25.21-.23-27.45C481.57,374.62,479,387.14,474.06,386.9Zm53.51,53c-8.28.43-24.05,10.85-25.51,13.3C519.66,453.28,530.08,444.61,527.57,439.85Zm8.7-5c-8-6.36-16.55-27.61-16.37-30.92C537.53,416.57,542,432.26,536.27,434.85Z" transform="translate(0 0)"/>
          <path class="cls-5" d="M530.38,434.92c-8.11-4.94-18.42-23.47-18.6-26.55C529.52,417.93,535.35,431.85,530.38,434.92ZM512.22,427c1.15-9.13-6.61-28.28-8.85-30.31C499.93,415.91,506.87,428.87,512.22,427Zm-31.86-28.33c-2.69-6.59-.71-22.54.55-24.5C487.35,387.83,484.72,398.94,480.36,398.68Zm-16-89.63c4.19-7.76,21.44-18.33,24.49-18.59C481,307.46,467.81,313.59,464.37,309.05Z" transform="translate(0 0)"/>
          <path class="cls-5" d="M465.2,302.56c2.5-8.5,17.35-22.48,20.25-23.37C481.1,297.47,469.49,306.23,465.2,302.56Zm32.44,115.67c-5.82-7.2-9.35-27.84-8.5-30.75C502.28,402.08,503.17,416.92,497.64,418.23ZM464.22,375.7c-8.06,1.27-24.92-5.41-26.75-7.4C454.43,364.63,465.81,370.72,464.22,375.7Zm-2.59-11.3c1-6.5,10.1-18.44,12.08-19.43C472.42,358.92,465,366.67,461.63,364.4Zm59.88,68.3c-9.89.51-28.73,13-30.48,15.89C512.06,448.76,524.52,438.39,521.51,432.7Z" transform="translate(0 0)"/>
        </g>
        <g>
          <path class="cls-4" d="M474.14,386.72c4.94.25,7.48-12.13-.31-27.27C475.24,373.82,475.24,385.47,474.14,386.72ZM487.19,410c-5.22-6.38-22.61-13.21-25.33-13C472.22,411.14,485.05,414.66,487.19,410ZM458.7,348.23c-1.34-9.38-14.39-26.49-17.2-28C443.27,340.31,453.8,351.42,458.7,348.23Zm9.79,40c-5.83-4.3-22.14-6.24-24.43-5.51C455.88,392.42,467.64,392.6,468.49,388.24Zm-10.92-29c-3.37-6.64-17.28-15.73-19.71-16C444.3,357.74,454.84,363.05,457.57,359.27Zm3.18-55.46c1.06-8.84-6.45-27.36-8.57-29.35C448.84,293,455.59,305.56,460.75,303.81ZM466,286.4c3.1-7.58.88-26.17-.61-28.49-7.47,15.76-4.47,28.76.61,28.49Z" transform="translate(0 0)"/>
          <path class="cls-4" d="M471.82,277.48c3.66-5.57,4.86-20.64,4.07-22.72C467.45,266.1,467.77,276.86,471.82,277.48Zm6.94-7.17c5.14-4.05,10.77-18.08,10.6-20.34C478,258.09,475.1,268.46,478.76,270.31ZM460,320.71c.13,1-1.14-9.54-11.73-21.36C448.79,316.63,455.6,323.17,460,320.71Zm38,100.08c-7.21-5.32-27.29-7.85-30.07-6.92C482.62,426,497,426.18,498,420.79Zm14.08,6.11c-5.3,1.86-12.19-11-8.8-30.19C506.59,413,510.52,426,512.11,426.9Zm15.51,13c2.47,4.76-7.81,13.34-25.41,13.2C516.15,447.41,527,441.61,527.62,439.91Zm8.63-5.21c5.67-2.63,1.28-18.13-16.35-30.77C529.93,419.35,536.77,432.64,536.25,434.7Z" transform="translate(0 0)"/>
          <path class="cls-4" d="M530.33,434.79c5-3.11-.8-16.85-18.54-26.41C522.76,421.42,530.57,432.84,530.33,434.79Zm-49.92-36.16c4.36.26,6.95-10.8.56-24.41C481.8,387,481.45,397.53,480.41,398.63ZM464.36,309.1c3.44,4.55,16.39-1.52,24.31-18.57C476.81,301.42,466.24,309.27,464.36,309.1Z" transform="translate(0 0)"/>
          <path class="cls-4" d="M465.34,302.56c4.29,3.67,15.79-5,20.14-23.31C476,292.37,467.23,302.28,465.34,302.56Zm32.34,115.6c5.53-1.31,4.61-16.08-8.47-30.65C495.06,403.17,498.56,416.4,497.68,418.16ZM464,375.63c1.65-4.95-9.68-10.93-26.6-7.3C451.7,370.89,463.11,374.21,464,375.63Zm-2.26-11.21c3.39,2.2,10.71-5.44,12-19.39C468.28,355.74,463,364,461.73,364.42Zm59.73,68.46c3,5.68-9.28,15.94-30.37,15.77C507.75,441.83,520.7,434.9,521.46,432.88Z" transform="translate(0 0)"/>
          <path class="cls-4" d="M465.92,380.69c-3.1-7.3-17.27-18-19.81-18.48C451.88,378.12,462.73,384.55,465.92,380.69Z" transform="translate(0 0)"/>
        </g>
        <g>
          <path class="cls-5" d="M457.82,319.58c4.76-5.44,20.38-10.66,22.87-10.34C471.31,321.38,459.76,323.84,457.82,319.58Zm29.25,90.52c-2.11,4.57-14.81,1.07-25.25-13C474.52,405.06,485.44,410.52,487.07,410.1Zm-28.45-61.89c-4.9,3.18-15.32-7.86-17.14-27.86C449.21,335.75,456.69,347.63,458.62,348.21Zm9.82,40.06c-.9,4.36-12.47,4.19-24.34-5.5C456.61,386.74,467.13,389,468.44,388.27Zm-11-29.1c-2.72,3.78-13.17-1.49-19.6-15.94C447.36,352.53,455.88,359.27,457.41,359.17Zm3.22-55.48c-5.16,1.82-11.85-10.59-8.51-29.17C455.24,290.25,459.05,302.72,460.63,303.69Zm5.22-17.34c-5,.27-8-12.61-.55-28.37C464.34,272.91,464.71,285.08,465.85,286.35Zm5.88-8.94c-4.05-.62-4.34-11.27,4.11-22.6C472.64,266.45,471,276.24,471.73,277.41Zm7-7.1c-3.66-1.91-.82-12.17,10.54-20.22C482.8,260.17,478.38,269,478.71,270.31Z" transform="translate(0 0)"/>
          <path class="cls-5" d="M460,320.72c-4.44,2.46-11.18-4.08-11.65-21.37C454.26,313,458.34,320.12,460,320.72Zm38,100.1c-1,5.4-15.34,5.14-30-6.87C483.36,418.93,496.29,421.76,498,420.82Zm-9.54-11.06c-4.69-5.06-8.35-20.23-7.87-22.44C491.07,397.52,492.47,408.51,488.42,409.76Zm-19.69-29.15c-4.16-6.75-4.52-24.39-3.41-26.78C475,367.6,473.79,380.18,468.73,380.61Zm-3.07.1c-3.19,3.86-13.92-2.51-19.68-18.47C455.47,372.87,464,380.69,465.66,380.71Z" transform="translate(0 0)"/>
        </g>
        <g>
          <path class="cls-4" d="M457.76,319.67c1.89,4.23,13.36,1.79,22.75-10.36C466.54,317.24,461,320.68,457.76,319.67Zm10.9,60.75c5-.43,6.22-12.87-3.42-26.65C468.35,367.6,469.66,379.06,468.66,380.42Zm19.79,29.3c4.05-1.25,2.62-12.2-7.83-22.38C485.75,398.69,489,408.36,488.45,409.72Z" transform="translate(0 0)"/>
          <path class="cls-4" d="M459.93,340.41c2.41-9.79-2-26.37-5-29.82C449.42,328.59,454.63,341.62,459.93,340.41Z" transform="translate(0 0)"/>
        </g>
        <path class="cls-5" d="M459.58,342.74c-6.87,1.56-10.08-14-4.76-31.59C456.07,327,458.13,341.65,459.58,342.74Z" transform="translate(0 0)"/>
        <path class="cls-5" d="M458.18,342.68c-.65-8.78,8.09-26.93,10.41-28.82C470.94,332.29,463.38,344.55,458.18,342.68Z" transform="translate(0 0)"/>
        <path class="cls-4" d="M458.31,342.55c5.15,1.91,12.66-10.22,10.31-28.66C464.52,329.37,459.93,341.62,458.31,342.55Z" transform="translate(0 0)"/>
        <path class="cls-5" d="M459.82,353.81c0-8.88,9.88-25.93,12.32-27.55C473.11,345.11,464.75,356.39,459.82,353.81Z" transform="translate(0 0)"/>
        <path class="cls-4" d="M459.91,354c4.94,2.57,13.19-8.6,12.22-27.45C467,341.54,461.57,353.26,459.91,354Z" transform="translate(0 0)"/>
      </g>
      <g>
        <circle class="cls-6" cx="462.97" cy="293.16" r="1.27"/>
        <circle class="cls-6" cx="472.74" cy="285.92" r="1.27"/>
        <circle class="cls-6" cx="468.49" cy="282" r="1.27"/>
        <circle class="cls-7" cx="457.92" cy="365.31" r="1.49"/>
        <circle class="cls-7" cx="460.87" cy="346.66" r="1.49"/>
        <circle class="cls-7" cx="476.25" cy="390.21" r="1.49"/>
        <circle class="cls-7" cx="469.46" cy="392.51" r="1.49"/>
        <circle class="cls-7" cx="521.15" cy="428.91" r="1.49"/>
        <circle class="cls-7" cx="524.55" cy="437.17" r="1.49"/>
      </g>
    </g>
    <g>
      <path class="cls-3" d="M654.67,302.14c.73.72,1.37.94,2.68,2.21m-7.73-22.1a40.45,40.45,0,0,0-1.07-5.8m4,3.48a13.21,13.21,0,0,1-1.24,6.42m-4.85-.63a27.22,27.22,0,0,0,6.14,4.54m4.46,1.44a21.91,21.91,0,0,1-.8,6.93m.38,1.76,1.53-2.64M656,312c1.63.34,3.27,2.27,4.08,4.06m.56-1.51,1.91-2.54m2,35.84a28.7,28.7,0,0,1-2.87,4.06m-4.62-.08a21.66,21.66,0,0,0,3,4.7m2.87,6.85a15.45,15.45,0,0,1-5.18,4.7m.16,5.25c-1.27.88-2.83,3.45-4.3,5.5m9.84-23.55-2.47,1m-1.63-8.74,1.46,1.29M650,392.49a10,10,0,0,0-2.48.08m-2.33-2.25.72,1.91m-9,6a22.36,22.36,0,0,0,.24,6.53m5-10.52,1.19,2.63m4.47-.24-3,.48m-36,29.48-1.07,2M621.7,424a18.26,18.26,0,0,1-4.78-.24m-6.37,6.94a31.77,31.77,0,0,0-3.42-1.12m-17.21,3.1a25.82,25.82,0,0,0-3.58,4.78m-.64-5.33c-2.84,1.46-3.71,4.33-5.18,6.77m3.27,3.35a64.57,64.57,0,0,1-6.22-2.39m19.56-.8c-2.7-1.41-5.54-1.27-8.32-1.71m12.55-.4a35.11,35.11,0,0,0-12-.16m9.07-3-1.63-.67m-6.45,6.41L587.65,438m67.6-57.39a21.22,21.22,0,0,0-4.4,4.5M653,292.21l-2.51-.84" transform="translate(0 0)"/>
      <g>
        <path class="cls-4" d="M553.45,449a9.66,9.66,0,0,1,3.83-3.1c9-4.73,18-6.82,28.13-8.45,2.35-.39,4.7-2.59,7.11-3.72,5.79-2.76,12.23-3.83,17.86-6.65a9.11,9.11,0,0,0,2.46-1.8c2.24-2.59,6.28-3.38,8.79-5.8,9.73-9.18,20-17.64,25.4-29.81,6.5-14.81,14.59-30.08,13.5-46.92-.71-10.65.87-21.41-1.75-31.56-3.88-15-8.85-29.91-18-42.36l1.53,1c9.18,12.45,14.15,27.32,18,42.36,2.62,10.14,1,20.9,1.75,31.55,1.09,16.85-7,32.12-13.49,47-5.36,12.11-15.74,20.56-25.41,29.8-2.51,2.37-6.55,3.16-8.79,5.81a11.84,11.84,0,0,1-2.46,1.8c-5.63,2.82-12.07,3.89-17.87,6.59-2.4,1.18-4.75,3.32-7.1,3.72-10.16,1.63-19.12,3.77-28.13,8.45A9.3,9.3,0,0,0,555,450l-1.59-1" transform="translate(0 0)"/>
        <g>
          <path class="cls-4" d="M645.92,390.37c3.2-8.65,0-29-1.73-31.44C636.43,376.87,640.29,391,645.92,390.37Z" transform="translate(0 0)"/>
          <path class="cls-4" d="M637.63,398.59c2.69-6.59.71-22.54-.55-24.5C630.64,387.74,633.27,398.84,637.63,398.59Zm19.61-86.51C653.4,305,637.56,295.26,634.77,295,642,310.62,654.08,316.25,657.24,312.08Z" transform="translate(0 0)"/>
          <path class="cls-4" d="M655.39,302.72c-2.09-7.08-14.47-18.73-16.88-19.47C642.13,298.49,651.81,305.78,655.39,302.72Zm5.53,17.46c-4.13-4.73-17.7-9.25-19.85-9C649.21,321.74,659.23,323.87,660.92,320.18Zm-3.27,54.05c7.15,1.12,22.12-4.8,23.73-6.56C666.33,364.4,656.23,369.81,657.65,374.23Zm-.18-6.58c-.05-6.58-7.46-19.67-9.28-20.92C647.54,360.72,653.8,369.42,657.47,367.65Z" transform="translate(0 0)"/>
          <path class="cls-4" d="M658,351.69c0-8.88-9.88-25.94-12.32-27.56C644.66,343,653,354.26,658,351.69Zm-61.7,87.81c5.22,6.42,22.93,13,25.77,12.72C611.74,438,598.6,434.67,596.25,439.5Z" transform="translate(0 0)"/>
        </g>
        <g>
          <path class="cls-5" d="M645.82,390.18c-5.63.64-9.44-13.35-1.63-31.25C643.62,375.48,644.47,388.83,645.82,390.18Zm-62.27,50.93c8.28.43,24.05,10.85,25.51,13.3C591.46,454.54,581,445.87,583.55,441.11Zm0-9.26C586,422.55,601.06,407.1,604,406c-4.21,20-16,29.79-20.44,25.84Zm24.82-4.94c-1.15-9.12,6.61-28.28,8.85-30.3C620.66,415.82,613.72,428.77,608.37,426.91Zm25-17c5.22-6.38,22.61-13.22,25.33-13C648.37,411.05,635.54,414.57,633.41,410Zm30.08-62.14c1.06-7.38,11.33-20.86,13.54-22C675.64,341.57,667.35,350.32,663.49,347.81Z" transform="translate(0 0)"/>
          <path class="cls-5" d="M649.86,392.22c6.78-5,25.78-7.27,28.46-6.42C664.54,397.08,650.84,397.29,649.86,392.22Zm12-28.61c3.54-7,18.16-16.53,20.71-16.8C675.78,362,664.7,367.58,661.84,363.61Zm-1.73-53.15c-.11-8.9,9.32-26.52,11.63-28.28,1.36,18.83-6.68,30.57-11.63,28.28ZM652,280.22c-2.71-6.16-1.29-21.49-.11-23.42C658.39,269.59,656.2,280.33,652,280.22Zm-4.94-2.55c-6.15-5.46-12.42-23-12.15-25.78C648.65,262.69,651.73,275.64,647.09,277.67Z" transform="translate(0 0)"/>
          <path class="cls-5" d="M660.66,318c-.37.95,3.43-9,16.59-17.86C672.57,316.76,664.36,321.44,660.66,318ZM620.88,422.85c8.17-6,31-8.9,34.1-7.84C638.35,428.72,622.05,429,620.88,422.85Zm16.71-24.31c-4.35.26-7-10.8-.55-24.41C636.2,386.93,636.55,397.44,637.59,398.54Zm19.66-86.41c-3.16,4.17-15-1.41-22.31-17.05C645.83,305.08,655.53,312.28,657.25,312.13Zm-2-9.41c-3.58,3.06-13.17-4.18-16.79-19.42C646.35,294.23,653.69,302.49,655.27,302.72Zm5.7,17.54c-1.64,3.67-11.59,1.55-19.74-9C653.35,318.14,658.16,321.13,661,320.26Zm-3.13,53.91c-1.46-4.39,8.59-9.7,23.61-6.48C668.75,370,658.62,372.91,657.84,374.17Zm-.47-6.53c-3.66,1.71-9.85-6.87-9.2-20.87C652.09,358.14,656.13,367.05,657.37,367.64Z" transform="translate(0 0)"/>
          <path class="cls-5" d="M657.86,351.86c-4.94,2.58-13.19-8.59-12.22-27.44C650.79,339.42,656.2,351.13,657.86,351.86Zm-61.47,87.58c2.35-4.83,15.34-1.6,25.64,12.71C609.2,444.27,598.13,439,596.39,439.44Z" transform="translate(0 0)"/>
        </g>
        <g>
          <path class="cls-4" d="M608.47,426.81c5.3,1.86,12.19-11,8.8-30.2C614,412.89,610.06,425.85,608.47,426.81Z" transform="translate(0 0)"/>
          <path class="cls-4" d="M620.47,420.7c5.06-7.76,6.47-28.65,5.34-31.47C614.21,405.09,614.83,420,620.47,420.7Zm-37,20.46c-2.47,4.76,7.81,13.34,25.41,13.2C595,448.65,584.14,442.86,583.5,441.16Zm.18-9.39C588.1,435.66,599.79,426,604,406,594.51,420.5,585.65,431.44,583.68,431.77ZM633.51,410c2.11,4.57,14.81,1.07,25.25-13C646.06,405,635.15,410.43,633.51,410Zm30-62.22c3.86,2.51,12.06-6.19,13.49-21.94C671,338,665.07,347.33,663.55,347.79Zm-13.64,44.46c1.05,5.08,14.53,4.88,28.37-6.41C663.69,390.47,651.44,393.09,649.91,392.25ZM662,363.51c2.86,4,13.84-1.56,20.61-16.75C672.56,356.53,663.61,363.61,662,363.51Zm-1.76-53.16c4.94,2.35,12.91-9.27,11.55-28.11C667,297.56,661.92,309.56,660.24,310.35Zm-8.12-30.18c4.13.11,6.32-10.54-.16-23.33C653.07,269.09,653,279.1,652.12,280.17Zm-4.94-2.61c4.64-2,1.56-14.83-12.16-25.64C642.58,264.78,647.69,275.93,647.18,277.56ZM660.73,318c3.7,3.46,11.83-1.24,16.51-17.89C668.15,311.89,662.44,317.82,660.73,318ZM621,422.9c1.17,6.12,17.4,5.83,34-7.8C637.51,420.76,622.85,424,621,422.9Z" transform="translate(0 0)"/>
          <path class="cls-4" d="M629,413.88c3.81-5.75,5-21.32,4.15-23.42C624.42,402.22,624.8,413.29,629,413.88Zm22.86-33.38c4.17-6.75,4.52-24.39,3.41-26.78C645.63,367.5,646.8,380.07,651.86,380.5Z" transform="translate(0 0)"/>
        </g>
        <path class="cls-5" d="M620.42,420.64c-5.63-.75-6.22-15.53,5.31-31.35C621.5,405.45,619.36,419,620.42,420.64Zm41-79.72c-1.1-9.06,4.64-23.5,7.74-26.28C672.18,331.43,666.07,342.58,661.44,340.92ZM629,413.82c-4.2-.58-4.55-11.61,4.13-23.34C629.85,402.51,628.18,412.57,629,413.82Zm27.25-121.61c-2.52-6.86,0-23.38,1.45-25.4C663.83,281.11,660.73,292.61,656.21,292.21ZM588.45,432.39c2.89-9.44,18.89-24.6,21.95-25.57C605.34,427.14,592.82,436.6,588.45,432.39Zm63.62-48.53c3.1-7.3,17.27-18,19.81-18.48C666.11,381.29,655.26,387.72,652.07,383.86Zm-.14-3.53c-5-.43-6.22-12.88,3.42-26.65C652.25,367.51,650.93,379,651.93,380.33Z" transform="translate(0 0)"/>
        <path class="cls-4" d="M661.5,343.05c6,2.15,10.59-11.53,7.7-27.9C666.36,329.23,662.92,342.23,661.5,343.05Z" transform="translate(0 0)"/>
        <path class="cls-4" d="M662.4,342.59c.65-8.78-8.09-26.94-10.4-28.83C649.65,332.2,657.2,344.46,662.4,342.59Zm-6.09-50.43c4.47.4,7.55-11,1.38-25.3C658.08,280.21,657.36,291.07,656.31,292.16ZM588.58,432.29c4.42,4.23,16.77-5.15,21.82-25.48-10.31,14.42-19.79,25.22-21.82,25.48Zm63.75-48.4c3.19,3.85,13.92-2.52,19.68-18.47C662.52,376.05,654,383.86,652.33,383.89Z" transform="translate(0 0)"/>
        <path class="cls-5" d="M662.27,342.46c-5.15,1.91-12.66-10.22-10.31-28.66C656.06,329.28,660.65,341.53,662.27,342.46Z" transform="translate(0 0)"/>
      </g>
      <g>
        <circle class="cls-7" cx="658.73" cy="297.39" r="1.27"/>
        <circle class="cls-7" cx="663.15" cy="311.3" r="1.27"/>
        <circle class="cls-7" cx="664.72" cy="355.02" r="1.49"/>
        <circle class="cls-7" cx="658.75" cy="346.85" r="1.49"/>
        <circle class="cls-7" cx="641.56" cy="393.37" r="1.49"/>
        <circle class="cls-7" cx="648.9" cy="396.56" r="1.49"/>
        <circle class="cls-7" cx="599.43" cy="434.31" r="1.49"/>
        <circle class="cls-7" cx="591.26" cy="440.18" r="1.49"/>
        <circle class="cls-7" cx="649.9" cy="290.8" r="1.26"/>
      </g>
    </g>
    <g id="b">
      <path class="cls-8" d="M506.62,392.32a2.2,2.2,0,0,0,2.49,2.42c.45-.09.72-.68.15-.57a1.56,1.56,0,0,1-1.4-.44,2,2,0,0,1-.46-2.24l-.77.83Z" transform="translate(0 0)"/>
      <path class="cls-9" d="M510.11,394.74c-1.18,1.36-3,1.95-4,1a1.9,1.9,0,0,1-.54-2.23c-.52.56-1,1-1.31,1.44a5.22,5.22,0,0,0,2,2.05c1.43.64,3.47-.33,4.69-1.83.86-1.06,1.82-2.83,1.13-4.21a4.67,4.67,0,0,0-2.3-2l-1.19,1.28a1.86,1.86,0,0,1,2,.37c1.49,1.21.63,2.91-.44,4.14Z" transform="translate(0 0)"/>
      <path class="cls-10" d="M510.11,394.74a4.54,4.54,0,0,1-1.35,1.11,2.8,2.8,0,0,1-1.72.37,1.79,1.79,0,0,1-.83-.34,2.6,2.6,0,0,1-.6-.68,1.86,1.86,0,0,1-.28-.86,1.81,1.81,0,0,1,.16-.89l.14.09L504.34,395v-.11a5.75,5.75,0,0,0,1.22,1.51,2.64,2.64,0,0,0,.81.51,2.25,2.25,0,0,0,.93.16,4,4,0,0,0,1.83-.56,6.14,6.14,0,0,0,1.52-1.21,7.67,7.67,0,0,0,1.09-1.62,3.69,3.69,0,0,0,.43-1.86,2,2,0,0,0-.26-.91,3.56,3.56,0,0,0-.58-.76,4.84,4.84,0,0,0-1.6-1.09l.11,0-1.21,1.27-.1-.13a1.67,1.67,0,0,1,.88-.14,2,2,0,0,1,.83.28,2.25,2.25,0,0,1,1.08,1.34,2.41,2.41,0,0,1-.24,1.69,5.94,5.94,0,0,1-1,1.41Zm0,0a6.06,6.06,0,0,0,.93-1.43,2.4,2.4,0,0,0,.19-1.64,2.14,2.14,0,0,0-1.05-1.24,1.69,1.69,0,0,0-1.57-.12l-.09-.14,1.18-1.29.05-.05.06,0A4.8,4.8,0,0,1,511.5,390a3.55,3.55,0,0,1,.62.81,2.48,2.48,0,0,1,.3,1,4.24,4.24,0,0,1-.45,2,8.2,8.2,0,0,1-1.12,1.68,6.45,6.45,0,0,1-1.59,1.26,4.25,4.25,0,0,1-1.95.57,2.73,2.73,0,0,1-1-.17,3.32,3.32,0,0,1-.87-.56,5.87,5.87,0,0,1-1.25-1.59l0-.06,0,0,1.33-1.43.14.1a1.74,1.74,0,0,0-.17.81,1.8,1.8,0,0,0,.26.8,2.44,2.44,0,0,0,.55.65,1.64,1.64,0,0,0,.76.34,2.75,2.75,0,0,0,1.68-.32,4.76,4.76,0,0,0,1.38-1.06Z" transform="translate(0 0)"/>
      <path class="cls-11" d="M601.11,290.8l-46.82,46.1c-3.57,3.54-44.29,42.44-48,46-1.29,1.54-4.94,5.67-5.32,6.24-2.49,2.7-5.18,6.22-8.4,9.37-.57.72-1.33.46-2,.86a27.53,27.53,0,0,0-5.9,5.1l-14.24,15.76c-.92,1-1.16,1.61-.54,2.18l7.73,10.32c1.43,1.42,3.08,2.15,3.72,1,3.68-6.35,12.79-16.05,16.24-23.72,2.06-4.59,4.64-12.91,6.48-14.92,2.27-2.51,8.37-9,13.78-14.82l1.08-1.16,1.11-1.19c27.42-27.94,59.16-61.89,82.28-85.82-.91-.9-.34-.36-1.22-1.21Z" transform="translate(0 0)"/>
      <path class="cls-8" d="M503.87,382.8c-1.43.05-2.36-.82-3.32-1.63,1.36.4,2.73.93,4,.39l-.71,1.24Z" transform="translate(0 0)"/>
      <path class="cls-12" d="M649.89,256.79l-37.1,30.59c-.36.44-.73.31-1.09,0l-3.38-2.82a.59.59,0,0,0,0-.13,1.91,1.91,0,0,0-.09-.54l1.65-1.69c.21-.25.14-.36-.14-.63s-.4-.43-.69-.71-.48,0-.75.21l-1.67,1.72a1.67,1.67,0,0,0-1.58,1.59c-22.44,21.86-41.76,41.35-64.09,62.86l-26.34,25.14c-.94,1.21-5,3.39-7.69,5.14a6.63,6.63,0,0,0-2.12,1.8l-2.15,6.34c-.68,1.4-2.84,4.67-2.93,4.89,2.76,2.79,2.62,2.59,4.51,4.35,2.12-2.36,7.8-8.29,13-13.82.41-.45.44-.5,1-1.14a15.22,15.22,0,0,0-1.63-1.92c-.45-.44-.92-.86-1.4-1.28-.28-.25-.54-.45-.73-.64s.28-.51.49-.74c30.88-29.85,64.12-62.65,91.32-89.36a1.66,1.66,0,0,0,1.2-.12l3.25,3.75a1.62,1.62,0,0,0,2,.46l37.17-33.3Z" transform="translate(0 0)"/>
      <path class="cls-10" d="M502.77,385.46a2.85,2.85,0,0,0,.71,0,1.77,1.77,0,0,0,.67-.19l0,0c.27-.93.55-1.85.84-2.77s.57-1.85.88-2.76v0a1.76,1.76,0,0,0-.86-.58,1.71,1.71,0,0,1,.9.54h0v0c-.26.93-.54,1.85-.83,2.77s-.57,1.85-.88,2.77h0a1.63,1.63,0,0,1-.7.16,3.43,3.43,0,0,1-.71-.08Z" transform="translate(0 0)"/>
      <circle class="cls-13" cx="511.21" cy="382.83" r="0.72"/>
      <circle class="cls-13" cx="506.84" cy="387.2" r="0.72"/>
      <path class="cls-10" d="M514.46,376.12a12.91,12.91,0,0,1-1.05-.91,11.33,11.33,0,0,1-1-1c.37.28.71.59,1,.9A11.45,11.45,0,0,1,514.46,376.12Z" transform="translate(0 0)"/>
      <path class="cls-8" d="M585.86,302.24l4.07,4,.75-.68-4.06-4Z" transform="translate(0 0)"/>
    </g>
    <g>
      <path class="cls-14" d="M610.27,394.36a2.18,2.18,0,0,1-2.6,2.28c-.45-.11-.7-.71-.13-.57a1.53,1.53,0,0,0,1.42-.37,2,2,0,0,0,.58-2.21l.72.86h0Z" transform="translate(0 0)"/>
      <path class="cls-9" d="M606.66,396.6c1.12,1.41,2.9,2.1,4,1.17a1.89,1.89,0,0,0,.65-2.21l1.24,1.5a5.06,5.06,0,0,1-2.09,1.95c-1.46.57-3.45-.49-4.59-2.05-.81-1.1-1.68-2.92-.92-4.26a4.6,4.6,0,0,1,2.39-1.87l1.13,1.34a1.86,1.86,0,0,0-2,.27c-1.55,1.13-.77,2.88.23,4.15Z" transform="translate(0 0)"/>
      <path class="cls-10" d="M606.66,396.6a4.87,4.87,0,0,0,1.3,1.18,2.83,2.83,0,0,0,1.7.45,1.71,1.71,0,0,0,.84-.3,2.59,2.59,0,0,0,.63-.65,1.86,1.86,0,0,0,.33-.84,1.77,1.77,0,0,0-.12-.91l-.14.09,1.22,1.51V397a6,6,0,0,1-1.29,1.46,3.08,3.08,0,0,1-.83.46,2.14,2.14,0,0,1-.94.11,4.11,4.11,0,0,1-1.81-.64,6,6,0,0,1-1.45-1.29,7.29,7.29,0,0,1-1-1.67,3.86,3.86,0,0,1-.34-1.88,2.14,2.14,0,0,1,.3-.89,4,4,0,0,1,.63-.74,4.89,4.89,0,0,1,1.65-1l-.11,0,1.14,1.34.11-.13a1.65,1.65,0,0,0-.87-.18,2.08,2.08,0,0,0-.85.24,2.24,2.24,0,0,0-1.14,1.28,2.54,2.54,0,0,0,.15,1.7,6.21,6.21,0,0,0,.91,1.45Zm0,0a6,6,0,0,1-.85-1.47,2.41,2.41,0,0,1-.11-1.65,2.21,2.21,0,0,1,1.11-1.18,1.68,1.68,0,0,1,1.57,0l.1-.13-1.12-1.35,0-.06-.06,0a4.79,4.79,0,0,0-1.74,1,4.18,4.18,0,0,0-.67.78,2.44,2.44,0,0,0-.34,1,4,4,0,0,0,.35,2,7,7,0,0,0,1,1.74,6.28,6.28,0,0,0,1.52,1.34,4.29,4.29,0,0,0,1.91.67,2.57,2.57,0,0,0,1-.13,3.08,3.08,0,0,0,.9-.51,5.85,5.85,0,0,0,1.33-1.52l0-.07,0-.05-1.25-1.49-.15.09a1.65,1.65,0,0,1,.13.82,1.7,1.7,0,0,1-.3.78,2.45,2.45,0,0,1-.58.62,1.71,1.71,0,0,1-.78.31,2.88,2.88,0,0,1-1.66-.4,5,5,0,0,1-1.33-1.13Z" transform="translate(0 0)"/>
      <path class="cls-15" d="M520.93,288.27l44.48,48.37c3.38,3.71,42.13,44.58,45.62,48.27,1.21,1.6,4.65,5.9,5,6.5,2.35,2.81,4.87,6.47,7.93,9.77.53.75,1.3.53,2,1a27,27,0,0,1,5.64,5.39L645,424c.87,1,1.08,1.66.44,2.21l-8.23,9.93c-1.5,1.34-3.19,2-3.77.76-3.36-6.52-12-16.66-15-24.49-1.83-4.69-4-13.12-5.74-15.22-2.13-2.63-7.91-9.42-13-15.49l-1-1.21-1-1.24c-26-29.27-56-64.75-77.93-89.8,1-.85.35-.34,1.28-1.15Z" transform="translate(0 0)"/>
      <path class="cls-14" d="M613.49,385c1.42.13,2.4-.7,3.4-1.46-1.38.33-2.78.79-4,.19l.64,1.27Z" transform="translate(0 0)"/>
      <path class="cls-16" d="M473.89,251.89l35.55,32.39c.33.45.71.35,1.08.05l3.51-2.64c0-.05,0-.09,0-.13a1.93,1.93,0,0,1,.12-.54l-1.57-1.77c-.19-.26-.12-.37.18-.63s.42-.4.72-.66.48,0,.74.24l1.58,1.8a1.66,1.66,0,0,1,1.5,1.67c21.33,22.94,39.66,43.36,60.9,65.95l25,26.42c.88,1.26,4.83,3.63,7.44,5.52a6.45,6.45,0,0,1,2,1.9l1.84,6.44c.61,1.43,2.6,4.81,2.68,5-2.9,2.64-2.75,2.45-4.72,4.12-2-2.46-7.38-8.67-12.26-14.45-.4-.47-.42-.52-.92-1.18a15.59,15.59,0,0,1,1.72-1.85c.48-.41,1-.81,1.46-1.2.3-.23.57-.43.77-.6s-.26-.53-.46-.77c-29.36-31.34-60.94-65.75-86.78-93.78a1.65,1.65,0,0,1-1.19-.17l-3.43,3.58a1.62,1.62,0,0,1-2,.36l-35.48-35.1Z" transform="translate(0 0)"/>
      <path class="cls-10" d="M614.45,387.7a3.37,3.37,0,0,1-.71,0,1.8,1.8,0,0,1-.66-.23l0,0c-.22-.94-.46-1.88-.69-2.82s-.49-1.86-.75-2.8v0a1.72,1.72,0,0,1,.88-.54,1.76,1.76,0,0,0-.92.49h0v0q.33,1.41.69,2.82c.24.93.48,1.87.74,2.8h0a1.53,1.53,0,0,0,.69.2,3.35,3.35,0,0,0,.71,0Z" transform="translate(0 0)"/>
      <circle class="cls-17" cx="606.16" cy="384.65" r="0.72"/>
      <circle class="cls-17" cx="610.3" cy="389.23" r="0.72"/>
      <path class="cls-10" d="M603.24,377.78a12.89,12.89,0,0,0,1.1-.85,11.47,11.47,0,0,0,1-.95,13.47,13.47,0,0,0-1.1.86A12.9,12.9,0,0,0,603.24,377.78Z" transform="translate(0 0)"/>
      <path class="cls-14" d="M535.59,300.46l-4.26,3.77-.72-.72,4.26-3.77Z" transform="translate(0 0)"/>
    </g>
    <g>
      <path class="cls-5" d="M506.23,426.26c-9.18-3.87-31.37-.78-34.09,1.09C491.14,436.69,506.6,432.68,506.23,426.26Zm103.85,3.87c9.18-3.87,31.38-.78,34.09,1.09C625.17,440.53,609.71,436.56,610.08,430.13Z" transform="translate(0 0)"/>
      <path class="cls-4" d="M506.05,426.4c.38,6.42-14.92,10.37-33.92,1.05C490,428.54,504.56,427.9,506.05,426.4Zm104.21,3.84c-.37,6.42,14.92,10.36,33.92,1.05C626.34,432.38,611.75,431.77,610.26,430.24Z" transform="translate(0 0)"/>
    </g>
    <g id="c">
      <path class="cls-12" d="M593.24,420c-24.19-35.14-60.66-63.72-88.79-79.33,4.15-.19,13.37,4.53,17.12,6.94,27.93,18,51.68,41.77,76.6,69.8a39.67,39.67,0,0,1-4,3.56l-.91-1Z" transform="translate(0 0)"/>
      <path class="cls-9" d="M595.64,419.72,594,421.34c-26.85-34.55-64.28-67.6-89.45-80.65,35.1,16.16,64.62,48.73,91,78.93l.1.09Z" transform="translate(0 0)"/>
      <path class="cls-10" d="M595.65,419.72,594,421.35h0c-6.21-8-12.8-15.62-19.67-23s-14-14.54-21.43-21.4-15.1-13.41-23.11-19.55q-6-4.62-12.3-8.82a139.6,139.6,0,0,0-13-7.76l.11-.22a157.51,157.51,0,0,1,26.11,15.49A247.57,247.57,0,0,1,554,375.47c7.41,6.91,14.49,14.16,21.38,21.58s13.57,15,20.23,22.67Zm0,0c-6.69-7.6-13.41-15.18-20.32-22.58s-14-14.65-21.41-21.54a244.39,244.39,0,0,0-23.37-19.36,157.83,157.83,0,0,0-26.09-15.43l.11-.23a138.65,138.65,0,0,1,13,7.78q6.3,4.22,12.3,8.85c8,6.16,15.69,12.74,23.1,19.6s14.55,14,21.41,21.43,13.4,15.12,19.58,23.1h0l1.69-1.62Z" transform="translate(0 0)"/>
      <g>
        <path class="cls-18" d="M603.75,414.26a21.39,21.39,0,0,0-6.14,2.59c-.26,1.63-2.27,3.45-4.18,3.87l-.69-.9a.15.15,0,0,0-.2-.05c-.16.09-.39.21-.67.4a1.77,1.77,0,0,0-1.93,1.14c-.44,1.13.45,2.62,1.42,3.59s1.62,1.25,2.87,1.08a4,4,0,0,0,2.25-1.79,74,74,0,0,0,13.1,12.42c2.45,0,3.76-1.53,2.94-3.27a1.32,1.32,0,0,0-1.56-.76,1.19,1.19,0,0,0,0-.53c2.88-2.64,4.1-5.93,1.07-11.52-2.59-4.7-5.5-6.29-8.27-6.27Zm7.29,5.28c.51.87.8,1.61,1.19,2.4,1.73,3.5.23,7.7-2.72,9-.15,0-.1,0-.25,0,.48-.8-1-2.51-1.7-1.91.34-.88-.79-2.35-1.71-2,.48-.82-.62-2.22-1.66-1.76a1.37,1.37,0,0,0-1.45-1.95,1.43,1.43,0,0,0-1.57-1.86,1.81,1.81,0,0,0-.6-1.69,39.6,39.6,0,0,1,4-3.2c3.17-1.37,5.13,1.25,6.44,2.94h0Z" transform="translate(0 0)"/>
        <path class="cls-19" d="M612.37,423.24c-.6-.3-.88-.89-.68-1.29s.81-.5,1.42-.21.93.87.73,1.27a1.11,1.11,0,0,1-1.47.23Z" transform="translate(0 0)"/>
        <path class="cls-19" d="M612,422.05c-.6-.3-.88-.89-.68-1.29s.81-.5,1.42-.21.93.87.73,1.27a1.11,1.11,0,0,1-1.47.23Z" transform="translate(0 0)"/>
        <path class="cls-19" d="M611.3,420.73a1.08,1.08,0,0,1-.69-1.29c.2-.4.82-.5,1.42-.21s.94.87.74,1.27a1.11,1.11,0,0,1-1.47.23Z" transform="translate(0 0)"/>
        <path class="cls-19" d="M610.39,419.54a1.08,1.08,0,0,1-.69-1.29c.2-.4.82-.5,1.42-.21s.94.87.74,1.27a1.11,1.11,0,0,1-1.47.23Z" transform="translate(0 0)"/>
        <path class="cls-19" d="M609.19,418.39c-.61-.3-.89-.89-.69-1.29,0-.06,0-.16.06-.14.25.13.76.22.7-.16-.07-.13-.17-.26-.08-.16a2.19,2.19,0,0,1,.74.26c.6.29.94.87.74,1.27a1.11,1.11,0,0,1-1.47.22Z" transform="translate(0 0)"/>
      </g>
      <path class="cls-20" d="M596.48,424.21c.8-2.07,2.39-4,4.09-4.44m-3.82,4.73c1.47.3,3.86-1.45,4.44-3m-3.05,4.71c1.93.45,3.84-1.42,4.59-2.81M599.88,428a4.84,4.84,0,0,0,4.36-2.78m-2.6,4.57a5.12,5.12,0,0,0,4.25-2.83m-2.55,4.46a4.54,4.54,0,0,0,4.22-2.42m-2.31,4.08a4.24,4.24,0,0,0,4-2.17m-1.94,3.86a3.7,3.7,0,0,0,3.66-2.21" transform="translate(0 0)"/>
      <path class="cls-21" d="M596.48,424.21a8.57,8.57,0,0,1,1.53-2.72,6.49,6.49,0,0,1,1.15-1.07,3.94,3.94,0,0,1,1.41-.65,4.53,4.53,0,0,0-1.35.73,7.09,7.09,0,0,0-1.12,1.07,11.15,11.15,0,0,0-1.62,2.64Zm.27.29a2.64,2.64,0,0,0,1.38-.23,5.46,5.46,0,0,0,1.22-.69,7.13,7.13,0,0,0,1-.93,4.63,4.63,0,0,0,.79-1.17,3.56,3.56,0,0,1-.72,1.23,5.76,5.76,0,0,1-1.05,1,5.09,5.09,0,0,1-1.26.67,2.45,2.45,0,0,1-1.41.14Zm1.39,1.69a3,3,0,0,0,1.4-.1,4.41,4.41,0,0,0,1.26-.64,6.31,6.31,0,0,0,1.06-.94,7.53,7.53,0,0,0,.87-1.13,5.34,5.34,0,0,1-.8,1.2,5.74,5.74,0,0,1-1.06,1,4,4,0,0,1-1.3.63,2.58,2.58,0,0,1-1.43,0Zm1.74,1.84a4.62,4.62,0,0,0,1.33-.21,4.25,4.25,0,0,0,1.21-.59,6.08,6.08,0,0,0,1-.89,8.55,8.55,0,0,0,.81-1.09,5.34,5.34,0,0,1-1.75,2.08,4.07,4.07,0,0,1-1.25.58,3.7,3.7,0,0,1-1.36.12Zm1.76,1.79a4.83,4.83,0,0,0,2.46-.89,6,6,0,0,0,1-.87,4.9,4.9,0,0,0,.78-1.07,4,4,0,0,1-.71,1.14,5.76,5.76,0,0,1-1,.9,4.65,4.65,0,0,1-1.2.6,3.58,3.58,0,0,1-1.33.19Zm1.7,1.63a7.73,7.73,0,0,0,1.26-.22,5,5,0,0,0,1.18-.45,4.12,4.12,0,0,0,1-.73,4,4,0,0,0,.76-1,3.3,3.3,0,0,1-.69,1.09,3.91,3.91,0,0,1-1,.77,5.29,5.29,0,0,1-2.5.56Zm1.91,1.66a5.78,5.78,0,0,0,1.19-.14,4.87,4.87,0,0,0,2.09-1.1,3.7,3.7,0,0,0,.74-.93,2.93,2.93,0,0,1-.67,1,4.32,4.32,0,0,1-1,.72,4.24,4.24,0,0,1-1.15.4A3.79,3.79,0,0,1,605.25,433.11Zm2.08,1.69a4.64,4.64,0,0,0,1.12-.14,3.87,3.87,0,0,0,1.89-1.15,4.93,4.93,0,0,0,.65-.92,3.58,3.58,0,0,1-1.45,1.74,3.43,3.43,0,0,1-1.07.43A3.63,3.63,0,0,1,607.33,434.8Z" transform="translate(0 0)"/>
    </g>
    <g>
      <path class="cls-22" d="M525.18,417c26.23-33.63,64.34-60,93.34-73.9-4.13-.44-13.61,3.72-17.49,5.91-28.95,16.31-54.08,38.62-80.62,65.12a40,40,0,0,0,3.8,3.79l1-.91Z" transform="translate(0 0)"/>
      <path class="cls-9" d="M522.8,416.59l1.59,1.73c28.85-32.9,68.18-63.67,94.08-75.2-36,14.05-67.4,44.81-95.57,73.38l-.1.09Z" transform="translate(0 0)"/>
      <path class="cls-10" d="M522.79,416.59l1.59,1.73h0c6.68-7.58,13.71-14.84,21-21.81s14.85-13.68,22.66-20.08,15.87-12.49,24.24-18.15q6.26-4.25,12.8-8.07a142.16,142.16,0,0,1,13.42-7l-.09-.23a156.79,156.79,0,0,0-27,13.91,245.84,245.84,0,0,0-24.48,18c-7.81,6.45-15.31,13.27-22.63,20.27s-14.44,14.21-21.54,21.42Zm0,0c7.13-7.18,14.28-14.36,21.63-21.33s14.83-13.79,22.65-20.23a245.36,245.36,0,0,1,24.48-17.93,157.46,157.46,0,0,1,27-13.86l-.1-.23A140.26,140.26,0,0,0,605,350q-6.54,3.84-12.8,8.11c-8.36,5.67-16.42,11.78-24.23,18.19s-15.35,13.12-22.64,20.12S531,410.71,524.37,418.31h0l-1.59-1.72Z" transform="translate(0 0)"/>
      <g>
        <path class="cls-23" d="M515,410.66a21.35,21.35,0,0,1,6,3c.17,1.64,2.07,3.58,4,4.1l.74-.86a.15.15,0,0,1,.2,0,7,7,0,0,1,.64.44,1.79,1.79,0,0,1,1.87,1.25c.37,1.15-.61,2.59-1.64,3.51s-1.69,1.14-2.93.9A4,4,0,0,1,521.7,421a74.35,74.35,0,0,1-13.82,11.62c-2.45-.13-3.67-1.75-2.74-3.44a1.33,1.33,0,0,1,1.6-.67,1.13,1.13,0,0,1,0-.52c-2.71-2.81-3.74-6.17-.38-11.57,2.87-4.54,5.86-5.95,8.62-5.77Zm-7.59,4.84c-.56.84-.9,1.56-1.33,2.32-1.94,3.39-.69,7.68,2.18,9.14a.38.38,0,0,1,.25,0c-.44-.83,1.11-2.45,1.81-1.81-.3-.9.92-2.3,1.82-1.87-.43-.85.75-2.18,1.76-1.67a1.36,1.36,0,0,1,1.56-1.85,1.44,1.44,0,0,1,1.69-1.77,1.8,1.8,0,0,1,.69-1.65,40.58,40.58,0,0,0-3.82-3.43c-3.08-1.56-5.2.95-6.61,2.55Z" transform="translate(0 0)"/>
        <path class="cls-24" d="M505.89,419.11a1.06,1.06,0,0,0,.76-1.24c-.18-.41-.79-.55-1.41-.29s-1,.81-.81,1.22a1.12,1.12,0,0,0,1.46.32Z" transform="translate(0 0)"/>
        <path class="cls-24" d="M506.31,418a1.07,1.07,0,0,0,.76-1.25c-.17-.41-.79-.55-1.41-.29s-1,.81-.81,1.22a1.11,1.11,0,0,0,1.46.32Z" transform="translate(0 0)"/>
        <path class="cls-24" d="M507.11,416.67a1.06,1.06,0,0,0,.76-1.24c-.17-.41-.79-.55-1.41-.29s-1,.81-.81,1.22a1.12,1.12,0,0,0,1.46.32Z" transform="translate(0 0)"/>
        <path class="cls-24" d="M508.09,415.54a1.07,1.07,0,0,0,.76-1.25c-.18-.41-.79-.55-1.41-.29s-1,.81-.81,1.23a1.12,1.12,0,0,0,1.46.31Z" transform="translate(0 0)"/>
        <path class="cls-24" d="M509.36,414.46a1.08,1.08,0,0,0,.76-1.25s0-.16-.06-.13c-.25.11-.76.17-.69-.2.09-.13.19-.26.1-.17a2.68,2.68,0,0,0-.76.22c-.62.26-1,.81-.81,1.22a1.12,1.12,0,0,0,1.46.32Z" transform="translate(0 0)"/>
      </g>
      <path class="cls-20" d="M521.69,421c-.67-2.12-2.15-4.12-3.82-4.68m3.54,4.95c-1.49.22-3.77-1.68-4.26-3.28m2.77,4.89c-1.95.33-3.75-1.65-4.41-3.08m2.57,4.81a4.84,4.84,0,0,1-4.19-3m2.32,4.72a5.12,5.12,0,0,1-4.08-3.08m2.28,4.61a4.56,4.56,0,0,1-4.07-2.67m2.07,4.21a4.22,4.22,0,0,1-3.89-2.41m1.71,4a3.71,3.71,0,0,1-3.52-2.43" transform="translate(0 0)"/>
      <path class="cls-21" d="M521.69,421a7.65,7.65,0,0,0-.55-1.47,8,8,0,0,0-.81-1.34,6.79,6.79,0,0,0-1.08-1.13,3.93,3.93,0,0,0-1.38-.74,4.78,4.78,0,0,1,1.31.81,7.1,7.1,0,0,1,1.05,1.14,10.85,10.85,0,0,1,1.46,2.73Zm-.28.27a2.67,2.67,0,0,1-1.36-.31,5.41,5.41,0,0,1-1.18-.76,6.69,6.69,0,0,1-1-1,4.67,4.67,0,0,1-.72-1.22,3.85,3.85,0,0,0,.64,1.28,6.49,6.49,0,0,0,1,1,5.27,5.27,0,0,0,1.22.75,2.42,2.42,0,0,0,1.4.22Zm-1.49,1.61a3,3,0,0,1-1.4-.19,4.23,4.23,0,0,1-1.21-.71,6.82,6.82,0,0,1-1-1,7.15,7.15,0,0,1-.79-1.18,5.14,5.14,0,0,0,.72,1.24,6.16,6.16,0,0,0,1,1,4.11,4.11,0,0,0,1.26.7,2.58,2.58,0,0,0,1.43.1Zm-1.84,1.73a4.93,4.93,0,0,1-1.33-.29,4.3,4.3,0,0,1-1.16-.66,5.4,5.4,0,0,1-1-.95,8,8,0,0,1-.74-1.14,5.33,5.33,0,0,0,1.62,2.19,3.93,3.93,0,0,0,1.21.65,3.69,3.69,0,0,0,1.35.2Zm-1.87,1.68a4.79,4.79,0,0,1-2.41-1,6.35,6.35,0,0,1-.95-.92,5.22,5.22,0,0,1-.72-1.12,4,4,0,0,0,.65,1.18,5.34,5.34,0,0,0,.94,1,5,5,0,0,0,1.18.68,3.68,3.68,0,0,0,1.31.26Zm-1.8,1.53a8.92,8.92,0,0,1-1.24-.29A6,6,0,0,1,512,427a4.24,4.24,0,0,1-1-.8,4,4,0,0,1-.7-1.06,3.49,3.49,0,0,0,.63,1.13,3.73,3.73,0,0,0,1,.83,5.23,5.23,0,0,0,2.46.71Zm-2,1.54a5.12,5.12,0,0,1-1.18-.21,4.85,4.85,0,0,1-1.09-.49,4.68,4.68,0,0,1-.93-.73,3.51,3.51,0,0,1-.68-1,2.8,2.8,0,0,0,.61,1,3.91,3.91,0,0,0,.94.78,4.23,4.23,0,0,0,1.12.47A4.12,4.12,0,0,0,512.41,429.39ZM510.23,431a4.63,4.63,0,0,1-1.11-.21,3.9,3.9,0,0,1-1.81-1.26,4.81,4.81,0,0,1-.6-1,3.42,3.42,0,0,0,2.38,2.31A3.66,3.66,0,0,0,510.23,431Z" transform="translate(0 0)"/>
    </g>
    <g>
      <path class="cls-4" d="M477.45,280c8.41-2.76,21.85-18,22.72-20.9C482,264,473.62,275.86,477.45,280Zm170,5.48c-2-8.21-15.5-22.18-18.17-23.23C632.54,280,643.21,288.84,647.48,285.51Z" transform="translate(0 0)"/>
      <path class="cls-5" d="M477.45,280c-3.88-4.17,4.42-15.94,22.56-20.79-12.79,9.8-22.4,18.88-22.56,20.79Zm170,5.48c-4.27,3.38-14.84-5.43-18.07-23.06C637.77,275.37,645.66,285.21,647.48,285.51Z" transform="translate(0 0)"/>
    </g>
    <g>
      <path class="cls-25" d="M527.58,371.12s-7.19.78-9.2-9.13c-2.15-10.61,6.19-11.73,6.19-11.73s9.45-.91,15.34-1.06l2.61,20.94-14.94,1Z" transform="translate(0 0)"/>
      <path class="cls-26" d="M528.52,367.93s-4.65.89-5.61-6.48c-.68-5.22,2.55-6,2.55-6l10.78,1.82.06,9.62-7.78,1Z" transform="translate(0 0)"/>
      <path class="cls-27" d="M525.47,355.49s6.88-.5,10.48-1l1.5,6.67-8.29.51s-.57-6-3.69-6.21Z" transform="translate(0 0)"/>
      <path class="cls-28" d="M524,350.43s8.84-2.17,9.94,7.57c.28,2.54-1.1,8.36-5.44,9.93l16.19-1.7-1.47-17.51-5.45.46s-11.58.4-13.77,1.25Z" transform="translate(0 0)"/>
      <path class="cls-29" d="M527.57,371.12s60.55-4.07,66.75-3.82c18.37-10.07-.09-49.65-15.57-71.78,1.77-5-34.83-16.21-51.38-15.2q-3.12.19-6,.42c-9,.95-9.07,12.47-5.41,19.74,3.55,7,35.37,64.31,13,70.37l-1.37.27Z" transform="translate(0 0)"/>
      <path class="cls-30" d="M592.42,318.9a172.8,172.8,0,0,0-13.67-23.38c1.77-5-34.84-16.21-51.39-15.2-2.08.13-4.09.27-6,.42-9,.95-9.07,12.47-5.41,19.74,1.11,2.21,5,9.38,9.15,18.35" transform="translate(0 0)"/>
      <path class="cls-31" d="M530.88,332.45c6.48,17.09,10.11,35.14-1.92,38.39l-1.37.28c.06,0,60.55-4.08,66.75-3.82,10-5.47,9.1-19.61,3.74-34.94" transform="translate(0 0)"/>
      <path class="cls-32" d="M522,284.08c-4.33,0-5.44,4.15-5.38,6.79.16,6.89,5.38,7.22,5.38,7.22l6.95-.39,3.34-14.19Z" transform="translate(0 0)"/>
      <path class="cls-33" d="M522,284.13l10.29-.57,1.06,10.6-9,.39s2.9-8.48-2.37-10.42Z" transform="translate(0 0)"/>
      <path class="cls-34" d="M578.81,295.51c7.8-1.25,7.69-11.74,2.36-15.95-18.08-.66-41.88-.17-59.07,1.12,2-.06,7.39.44,8,7.6a9.58,9.58,0,0,1-3.57,8.15,8.1,8.1,0,0,1-4.56,1.7,29.57,29.57,0,0,0,4.2-.1c.86-.06,3-.31,3.56-.38a318.65,318.65,0,0,1,49-2.13h.09Z" transform="translate(0 0)"/>
      <path class="cls-35" d="M534.88,312c-.17-.39-.38-.88-.85-.94-.29,0-.75-.06-.66-.46a2.55,2.55,0,0,1,.92-.07c.66,0,1.3-.14,2-.18.4.11.31.63-.12.54-.48.11-.2.66-.09.95.52,1.2,1,2.42,1.55,3.62a1.07,1.07,0,0,0,.84.7,2.32,2.32,0,0,0,1.28-.13c.36-.23.28-.73.23-1.09s.63-.33.58.05c.15.5.32,1,.52,1.48,0,.23-.32.17-.49.2-1.16.08-2.32.15-3.48.26-.37,0-.93.32-1.15-.12s.59-.19.69-.54a3.08,3.08,0,0,0-.36-1.07l-1.36-3.2Zm5.64-.4c-.17-.37-.36-.84-.81-.93-.28,0-.76,0-.71-.43.18-.19.53-.07.78-.11a17.52,17.52,0,0,0,2.05-.17c.34,0,.47.6,0,.52s-.45.47-.27.76c.55,1.33,1.12,2.65,1.68,4,.12.29.28.64.63.69s.75,0,.82.36-.51.14-.74.19a7.85,7.85,0,0,0-1.81.14c-.27.08-.64,0-.65-.31s.68-.08.71-.47a4.82,4.82,0,0,0-.39-1.08l-1.32-3.14Zm5.2.83c.1.26.47.07.68.09s.64-.25.61-.6a2,2,0,0,0-.74-1.38,1.91,1.91,0,0,0-1.37-.19c0,.18.12.36.17.53Zm.78,1.86a3.75,3.75,0,0,0,.66,1.19,1.37,1.37,0,0,0,1,.07.53.53,0,0,0,.45-.71,2,2,0,0,0-1.44-1.67,2.75,2.75,0,0,0-1.07,0c0,.16.11.33.16.5l.26.62Zm-2.37-2.76c-.19-.41-.37-.9-.81-1.09-.28-.09-.75,0-.81-.37s.66-.11.94-.19a9.27,9.27,0,0,1,3,0,2.18,2.18,0,0,1,1.69,1.85,1.07,1.07,0,0,1-.68,1c0-.16.43.07.59.09a2.59,2.59,0,0,1,1.61,1.34,1.4,1.4,0,0,1,.05,1.53,2.33,2.33,0,0,1-1.68.51,15.42,15.42,0,0,0-2.62.2c-.31.06-.53-.56-.1-.52s.47-.48.28-.78l-1.48-3.56Zm8.65-2.23c.38-.06.42.37.53.62s.32.64.41,1c-.33.32-.59-.17-.73-.42a.9.9,0,0,0-.81-.52,9.66,9.66,0,0,0-1.42.08c-.17.19.08.46.13.67.22.52.42,1.05.66,1.57.31,0,.72,0,1-.25s-.32-.87.24-.74c.35.2.31.7.49,1s.45.84.57,1.3c-.31.33-.61-.15-.72-.43s-.73-.35-1.12-.34-.09.2-.05.33a15.56,15.56,0,0,0,.77,1.72c.24.4.76.34,1.16.33s.86,0,1.08-.4-.32-.88.15-1,.4.44.5.71.22.64.34,1-.33.16-.5.19c-1.19.08-2.38.13-3.57.22-.35,0-.94.28-1.05-.23,0-.33.76-.16.65-.63a7.7,7.7,0,0,0-.44-1.16c-.44-1.05-.85-2.1-1.31-3.14-.16-.35-.43-.73-.85-.74s-.7-.15-.54-.47c.41-.08.83,0,1.24-.07l3.24-.19Zm2.69,1.54c-.18-.4-.35-.89-.79-1.08s-.85,0-.81-.46c.29-.22.77,0,1.13-.11a9.45,9.45,0,0,1,2.81,0,2.51,2.51,0,0,1,1.83,2.15,1,1,0,0,1-.8,1c-.34,0,.27.12.36.23a3.9,3.9,0,0,1,1.64,1.72c.09.26.61.81.69.29s.74-.09.57.3a.74.74,0,0,1-.8.68,1.46,1.46,0,0,1-1.33-.72,9.35,9.35,0,0,0-1.47-1.94,1,1,0,0,0-1-.18c-.07.16.08.32.12.48a10.21,10.21,0,0,0,.64,1.43,1.21,1.21,0,0,0,1.08.42c.42.1.31.67-.14.5a9.93,9.93,0,0,0-2,.09c-.32.15-1,0-.76-.43.33,0,.79-.2.56-.61-.39-1-.82-2-1.22-3l-.3-.73Zm1.64,1c.16.38.69.17,1,.14s.41-.6.28-.91c-.19-.55-.44-1.2-1-1.39-.31,0-1-.24-1,.17.22.63.49,1.23.73,1.85l.06.14Zm8.42,2c.13.3.25.71.63.76s.77,0,.83.39-.51.12-.74.16a9,9,0,0,0-1.87.1c-.27.08-.65,0-.61-.37s.76,0,.72-.47a10.15,10.15,0,0,0-.48-1.34c-.45-1.12-.89-2.25-1.34-3.37-.11-.35-.52-.34-.82-.32s-.8.07-.8.48.26.72,0,.86-.42-.32-.5-.57a11.2,11.2,0,0,0-.45-1.08c.05-.25.38-.21.58-.23l4.82-.2a.53.53,0,0,1,.6.56,11.33,11.33,0,0,0,.49,1.13c-.14.39-.6.06-.65-.22a1.42,1.42,0,0,0-1.1-.83c-.3,0-.74-.1-.95.17a2.93,2.93,0,0,0,.26.79l1.43,3.6Zm4.35-1.06c-.22,0-.11.28-.14.42a8.11,8.11,0,0,0,0,1c.15.37.61.28.91.37s.2.59-.16.46a4.83,4.83,0,0,0-1.47,0c-.29.15-.84-.15-.58-.46.24,0,.52-.12.58-.39a10.27,10.27,0,0,0,.05-1.47l0-4.33c.14-.33.6,0,.7.19,1.39,1.77,2.77,3.56,4.19,5.29a1.26,1.26,0,0,0,.9.49c.3,0,.47.62,0,.5a8.24,8.24,0,0,0-1.79,0c-.27,0-.57.13-.81,0s-.08-.51.23-.47c.41-.12,0-.56-.14-.76s-.44-.6-.69-.88c-.2-.1-.43,0-.65,0l-1.23.05Zm1.37-.6c.21,0-.07-.18-.1-.28L569.66,310c.1,0,0,.21.05.3v2l1.54,0Zm3.57-2.16c-.18-.46-.41-1-1-1.14-.28.05-.82-.21-.53-.51.65,0,1.29,0,1.93,0a5.56,5.56,0,0,1,2.43.24,5.06,5.06,0,0,1,3.4,3.87,1.85,1.85,0,0,1-.73,1.91,4.67,4.67,0,0,1-2.88.39,12.78,12.78,0,0,0-1.64.1c-.35,0-.39-.59,0-.53s.42-.49.26-.78l-1.31-3.53Zm2.29,2.91c.18.4.28.88.66,1.14a2,2,0,0,0,1.15.09,1,1,0,0,0,.83-1.06,5,5,0,0,0-.74-2.48,3.09,3.09,0,0,0-2.15-1.6,3.7,3.7,0,0,0-1.15-.06c-.08.15.07.32.1.47Zm-24.62,14.49a1.09,1.09,0,0,0,.93.74c.3.05.82,0,.84.41-.16.27-.62.08-.9.14a10,10,0,0,0-1.81.11,3.24,3.24,0,0,1-1,.06c-.28-.14-.22-.55.13-.5s.7-.16.72-.52a3.48,3.48,0,0,0-.32-.94l-1.34-3.21c-.1-.37-.52-.39-.84-.33s-.72.15-.79-.25.58-.28.82-.46.73-.3,1.1-.41.38.17.44.37l2,4.79Zm.87-5.26c.8,0,1.6.09,2.39,0,.35,0,.11-.58.45-.55s.36.56.39.86a.61.61,0,0,1-.52.68h-.15c-.62,0-1.24-.06-1.86,0a15,15,0,0,0,.52,1.41c0-.16.53-.18.74-.21a3.23,3.23,0,0,1,3,1.8,1.76,1.76,0,0,1,0,1.8,2.37,2.37,0,0,1-1.86.64,1.84,1.84,0,0,1-1.58-.64c-.2-.25-.16-.79.25-.75s.77.31.72.7c.19.26.61.17.9.16a.65.65,0,0,0,.66-.65,2.78,2.78,0,0,0-.53-1.59,1.85,1.85,0,0,0-1.52-.81c-.34-.06-.63.17-1,.17s-.39-.42-.51-.67c-.28-.7-.53-1.41-.76-2.13a.18.18,0,0,1,.21-.2Zm8,1.19c-.18-.46-.43-1-1-1.13-.28.06-.82-.2-.54-.51.65,0,1.31,0,1.95-.07a5.39,5.39,0,0,1,2.46.2,5.08,5.08,0,0,1,3.42,3.95,1.82,1.82,0,0,1-.73,1.83,4.9,4.9,0,0,1-2.83.44,10.3,10.3,0,0,0-1.57.15c-.36,0-.42-.59,0-.54s.4-.51.23-.8C562.3,325.75,561.83,324.57,561.35,323.4Zm2.37,2.87c.19.39.3.88.69,1.13a2.06,2.06,0,0,0,1.13.06,1.05,1.05,0,0,0,.8-1.1,5.1,5.1,0,0,0-.81-2.48,3.1,3.1,0,0,0-2.19-1.56,3.63,3.63,0,0,0-1.14,0c-.08.15.08.32.11.47l1.41,3.5Zm7.51-5c.37-.07.42.34.51.58s.29.65.41,1c-.22.37-.59-.06-.69-.33s-.41-.6-.78-.59a10,10,0,0,0-1.45,0c-.26.11,0,.45.07.66.21.53.4,1.06.63,1.58a1.64,1.64,0,0,0,.93-.17c.21-.25-.31-.86.25-.8.38.14.32.67.48,1s.42.87.58,1.33c-.21.39-.64-.06-.7-.35s-.6-.43-1-.41-.43,0-.27.25a19.09,19.09,0,0,0,.77,1.8c.24.4.76.35,1.16.35s.86,0,1.1-.37-.23-.77.09-.95.49.32.55.61a9.15,9.15,0,0,0,.33,1c0,.23-.32.16-.49.18-1.21.05-2.41.08-3.61.15-.33,0-.8.24-1-.13s.58-.21.62-.62a2.7,2.7,0,0,0-.3-1c-.44-1.13-.87-2.27-1.33-3.39-.16-.36-.43-.77-.87-.79-.27.05-.7-.16-.53-.48.42-.07.85,0,1.27,0l3.24-.12ZM539.41,338c.17.56.78.8,1.29,1a5.31,5.31,0,0,1,2.51,1.35,2.33,2.33,0,0,1,.58,1.57,1.38,1.38,0,0,1-1.08,1.15,2.87,2.87,0,0,1-2-.11c-.31-.13-.2.54-.58.31s-.19-.65-.35-.95a11.9,11.9,0,0,0-.45-1.12c0-.38.56-.18.58.11a2.34,2.34,0,0,0,1.91,1.32c.41,0,.94-.21,1-.68a1.63,1.63,0,0,0-1-1.38c-.74-.39-1.6-.51-2.32-1a2.25,2.25,0,0,1-1.11-1.88,1.2,1.2,0,0,1,.9-1,3,3,0,0,1,1.83-.06c.27.14.39-.32.69-.09.13.23.1.54.23.78s.31.63.39,1c-.19.29-.55,0-.61-.23a1.59,1.59,0,0,0-1.14-.94c-.41,0-.92,0-1.18.33a.72.72,0,0,0,0,.61Zm7.8-1.93c.38-.07.39.37.49.62s.25.61.34.93c-.17.33-.58,0-.63-.25s-.39-.66-.78-.64a9.72,9.72,0,0,0-1.43.09c-.27.11,0,.45,0,.66.18.53.34,1.07.54,1.58a1.66,1.66,0,0,0,.93-.21c.23-.23-.22-.7.16-.81s.41.52.51.8a15.82,15.82,0,0,0,.55,1.5c-.17.37-.62,0-.65-.29a.82.82,0,0,0-.92-.43c-.21,0-.49,0-.32.25.21.59.38,1.2.64,1.76a.8.8,0,0,0,.85.38,2,2,0,0,0,1.35-.33c.28-.27,0-.68.11-1,.29-.24.61.07.58.39s.19.8.31,1.2c0,.23-.34.16-.52.19-1.18.09-2.37.16-3.56.27-.32,0-.8.27-1-.1s.54-.24.63-.59a1.92,1.92,0,0,0-.2-1c-.39-1.15-.76-2.3-1.17-3.43-.13-.36-.38-.77-.81-.78s-.7-.15-.51-.47c.41-.08.83,0,1.25-.08l3.23-.23Zm4.88,4.83c.11.36.31.75.71.82s.78-.09.86.33-.58.18-.83.24a7.55,7.55,0,0,0-1.78.12c-.25,0-.64.13-.71-.22s.54-.17.67-.47a1.64,1.64,0,0,0-.16-.89c-.39-1.17-.77-2.35-1.18-3.52-.13-.34-.31-.78-.73-.82s-.73,0-.65-.43c.2-.19.56-.06.83-.1.85,0,1.69-.22,2.54-.16a2.25,2.25,0,0,1,2,1.43,1.47,1.47,0,0,1-.09,1.49,2.78,2.78,0,0,1-1.85.72c-.25,0,0,.23,0,.35l.37,1.11Zm-.67-2a2,2,0,0,0,.79-.09.64.64,0,0,0,.46-.81,2.62,2.62,0,0,0-.63-1.38,1.49,1.49,0,0,0-1.3-.19c-.16.15,0,.38,0,.55C551,337.57,551.21,338.21,551.42,338.85Zm7.18,1.67c.1.3.2.71.57.76s.77,0,.81.38-.52.13-.75.18a7.78,7.78,0,0,0-1.87.13c-.27.09-.65,0-.58-.37s.76-.05.75-.48a8.65,8.65,0,0,0-.38-1.32L556,336.41c-.09-.36-.5-.33-.8-.31s-.72,0-.8.41,0,.62,0,.91c-.28.19-.55-.11-.53-.39a8.11,8.11,0,0,0-.41-1.17c0-.28.36-.25.56-.27l4.84-.29c.35-.07.57.22.56.55a10.8,10.8,0,0,0,.4,1.13c-.08.33-.57.16-.58-.13-.21-.42-.52-.86-1-.89a1.58,1.58,0,0,0-1,.14c-.06.24.1.47.15.7l1.22,3.72Zm2.45-3.84c-.12-.35-.26-.8-.67-.92s-.76,0-.73-.41c.11-.25.49-.09.71-.14a14.68,14.68,0,0,0,2.09-.14c.31-.14.56.49.17.49s-.63.22-.51.55c.15.62.38,1.22.57,1.83.28.86.54,1.72.83,2.57a.68.68,0,0,0,.58.52c.29,0,.78,0,.69.44-.21.18-.56.07-.83.09a9.81,9.81,0,0,0-1.87.13c-.27.12-.62-.16-.46-.44.24-.11.76-.05.72-.45s-.27-.93-.41-1.4l-.88-2.72Zm6.72-1.86c.37-.07.39.35.47.6s.24.63.33.95c-.17.33-.58,0-.63-.25s-.38-.68-.77-.66a11.56,11.56,0,0,0-1.44.06c-.27.11,0,.45,0,.66.18.53.33,1.07.52,1.59a1.68,1.68,0,0,0,.94-.19c.24-.23-.21-.71.18-.81s.39.52.5.81c.1.52.37,1,.51,1.5-.13.34-.61.05-.61-.25a.79.79,0,0,0-.87-.49c-.17,0-.58-.09-.41.2a16.63,16.63,0,0,0,.62,1.8.77.77,0,0,0,.84.39,2,2,0,0,0,1.36-.3c.29-.26.06-.68.13-1,.3-.22.62.09.58.41a9.39,9.39,0,0,0,.29,1.19c-.05.23-.33.17-.5.19-1.2.07-2.41.11-3.61.2-.32,0-.75.24-1-.08s.45-.29.59-.56,0-.64-.12-1c-.38-1.16-.74-2.33-1.12-3.48-.13-.38-.37-.82-.82-.84-.28.06-.69-.16-.5-.47.4-.08.82,0,1.23-.06l3.28-.17Zm2.33,1.12a.79.79,0,0,0-.85-.73c-.44.12-.59-.66,0-.5a8.14,8.14,0,0,1,1.78,0c.28.31.51.67.77,1l2.54,3.38c-.19,0,0-.21-.07-.35l.42-4.13c.32-.26.85-.15,1.26-.24s1.07-.16.86.41c-.39.06-.89.26-.62.75.42,1.4.86,2.79,1.3,4.18.08.49.57.64,1,.62s.39.65-.06.5a9.55,9.55,0,0,0-2.07.07c-.31.11-1,.07-.75-.41.35-.07.93-.17.69-.67-.37-1.24-.77-2.47-1.15-3.7.08.11,0,.3,0,.44-.11,1.16-.26,2.31-.34,3.46,0,.31.06.67-.08.93s-.45-.13-.59-.32l-3.33-4.31c.11,0,.1.24.16.34.36,1.12.69,2.25,1.06,3.36a.94.94,0,0,0,1,.59c.44.22.12.64-.27.47a6.79,6.79,0,0,0-1.74.1c-.37,0-.39-.6,0-.52s.38-.61.26-.94l-1.2-3.82Zm10.2,1c.07.26.42.09.61.11.34,0,.73-.2.74-.58a1.72,1.72,0,0,0-.58-1.38,1.87,1.87,0,0,0-1.35-.23c-.05.17.07.35.11.53l.47,1.55Zm.57,1.86a3.23,3.23,0,0,0,.52,1.2c.28.21.66.12,1,.1a.55.55,0,0,0,.53-.58,1.94,1.94,0,0,0-1-1.75,2.94,2.94,0,0,0-1.25-.1c-.13.11,0,.33.06.49l.2.64ZM578.8,336c-.14-.4-.26-.9-.69-1.09-.27-.1-.74,0-.77-.39s.64-.09.9-.16a9.82,9.82,0,0,1,3.11.07,2,2,0,0,1,1.49,1.82,1.2,1.2,0,0,1-.8,1c0-.16.42.08.58.11a2.31,2.31,0,0,1,1.43,1.27,1.49,1.49,0,0,1,0,1.55,2.24,2.24,0,0,1-1.7.52,17,17,0,0,0-2.76.13c-.33.05-.46-.58,0-.52s.54-.44.38-.76L578.8,336Zm5.84-.2c-.13-.41-.26-.9-.68-1.1s-.8,0-.77-.43c.22-.3.76-.05,1.11-.12a20.83,20.83,0,0,1,2.37-.05,2.36,2.36,0,0,1,2,1.68,1.18,1.18,0,0,1-.42,1.39c-.1.11-.61.23-.52.22a3.18,3.18,0,0,1,1.65,1.48,3.9,3.9,0,0,0,.54.93c.31.24.35-.19.4-.38.41-.2.62.37.45.68a1,1,0,0,1-1.24.47,1.35,1.35,0,0,1-.88-.75,8.72,8.72,0,0,0-1.2-1.88,1,1,0,0,0-1-.23c-.09.16,0,.34.07.5a10.46,10.46,0,0,0,.45,1.37,1.06,1.06,0,0,0,1,.48c.37,0,.4.65,0,.5a10.82,10.82,0,0,0-2.13,0c-.26,0-.63.15-.79-.12-.25-.49.49-.27.65-.55s-.08-.65-.15-1l-.94-3.16Zm1.53,1.07c.12.38.65.17.94.16a.55.55,0,0,0,.46-.69,2.35,2.35,0,0,0-.64-1.47,1.67,1.67,0,0,0-1.26-.19c-.17.15,0,.4,0,.59Zm8-3c.36-.06.38.34.44.59s.22.64.3,1c-.15.3-.57,0-.6-.24s-.34-.68-.73-.7a12.51,12.51,0,0,0-1.5,0c-.27.1,0,.45,0,.66.16.53.3,1.06.47,1.59a2.16,2.16,0,0,0,.91-.12c.32-.19-.13-.69.22-.82s.42.46.49.74c.08.55.35,1,.48,1.57-.15.33-.62,0-.61-.27a.75.75,0,0,0-.78-.51c-.16,0-.65-.14-.51.16.19.61.32,1.24.57,1.83a.81.81,0,0,0,.84.41,2.11,2.11,0,0,0,1.38-.25c.3-.25.08-.67.17-1,.3-.21.61.1.56.43s.15.79.25,1.19c-.06.22-.34.14-.52.16-1.21,0-2.42,0-3.64.08-.31,0-.7.19-.95-.07-.31-.44.35-.35.55-.54s0-.6,0-.88c-.34-1.2-.67-2.4-1-3.59-.11-.36-.31-.79-.74-.84s-.71-.11-.57-.47a4.34,4.34,0,0,1,1.14,0l3.45-.07Zm-38.29,15.31c-.11-.43-.26-1-.76-1.1-.27,0-.75-.08-.58-.46a5,5,0,0,1,1.17-.09,9,9,0,0,1,2.88,0,4.12,4.12,0,0,1,3,2.76,2.9,2.9,0,0,1-.27,2.61,3.23,3.23,0,0,1-2.58,1,9.68,9.68,0,0,0-2.15.13c-.28.17-.74-.11-.5-.41.31-.09.79-.18.69-.61-.11-.6-.28-1.18-.42-1.78l-.49-2Zm1.91,2.85a2.23,2.23,0,0,0,.47,1.1,1.77,1.77,0,0,0,1.07.09,1.3,1.3,0,0,0,1-1.09,4.59,4.59,0,0,0-.44-2.6,2.42,2.42,0,0,0-1.69-1.42,3.41,3.41,0,0,0-1.35,0c-.1.13,0,.32,0,.47Zm8.24-5.17c.37-.07.36.36.42.6s.18.63.25.95c-.15.31-.57.08-.59-.21s-.31-.68-.69-.69a12.39,12.39,0,0,0-1.49.07c-.27.1-.06.45,0,.67.14.52.25,1.06.39,1.58a1.85,1.85,0,0,0,1-.2c.25-.22-.15-.72.24-.81s.36.53.43.81c.06.51.3,1,.4,1.5-.14.33-.62.07-.6-.25a.71.71,0,0,0-.82-.48c-.17,0-.58-.09-.43.2a15.91,15.91,0,0,0,.48,1.8c.11.34.5.41.81.39a2,2,0,0,0,1.42-.36c.29-.26,0-.7.2-1,.34-.2.57.16.52.47a11,11,0,0,0,.19,1.15c-.07.23-.36.16-.55.19-1.19.08-2.39.13-3.59.23-.29,0-.64.18-.91,0s.12-.47.38-.51.31-.52.22-.79c-.31-1.26-.6-2.52-.91-3.78-.1-.35-.28-.79-.7-.82s-.71-.09-.54-.45a4.67,4.67,0,0,1,1.13-.09Zm7.57,4.79a.85.85,0,0,0,.69.72c.28.12.71,0,.86.28s-.45.28-.69.3a11.12,11.12,0,0,0-2,.07,5.7,5.7,0,0,1-1,.08.27.27,0,0,1,.17-.52c.31-.07.73-.15.82-.51a2.86,2.86,0,0,0-.15-.92c-.25-1.08-.49-2.15-.75-3.23,0-.38-.45-.39-.74-.34s-.68.19-.77-.19.55-.32.79-.48c.43-.14.85-.31,1.29-.44.24-.05.35.18.37.38Zm4.3-3.88c-.08-.42-.32-.91-.8-1a.79.79,0,0,0-.91.4,1.1,1.1,0,0,0,.43,1.2,6.45,6.45,0,0,0,1.05.53,1.48,1.48,0,0,0,.27-.66,1.63,1.63,0,0,0,0-.49Zm1,3.38a1.76,1.76,0,0,0-1.16-1.11c-.22,0-.52-.32-.66-.2a1.21,1.21,0,0,0-.37,1.29,1.41,1.41,0,0,0,1.17,1.16.88.88,0,0,0,1-.55A1.08,1.08,0,0,0,578.92,351.18Zm1-.24a1.42,1.42,0,0,1-.55,1.51,2.79,2.79,0,0,1-2.36.27,1.94,1.94,0,0,1-1.38-1.49,1.42,1.42,0,0,1,.6-1.53c.12-.11.57-.16.2-.25A2.12,2.12,0,0,1,575.2,348a1.35,1.35,0,0,1,.64-1.49,2.3,2.3,0,0,1,3,.79,1.33,1.33,0,0,1,0,1.42,1.25,1.25,0,0,1-.66.52,2.41,2.41,0,0,1,1.43.92,2.05,2.05,0,0,1,.33.74Zm3.8.64a.58.58,0,0,0,.63-.46c.1-.22-.09-.71.3-.69s.33.45.36.71a1.48,1.48,0,0,1-.4,1.32,1.78,1.78,0,0,1-1,.12,13,13,0,0,0-2-.09c-.27,0-.58.34-.84.11s-.09-.6,0-.89a4.15,4.15,0,0,1,1.28-1.79,2.29,2.29,0,0,0,.89-1.33,2.24,2.24,0,0,0-.34-1.38,1.21,1.21,0,0,0-1.63-.37.62.62,0,0,0-.27.86c.24.19.7,0,.82.42s0,.7-.35.69a1,1,0,0,1-1.11-.8,1.4,1.4,0,0,1,.57-1.64,2.67,2.67,0,0,1,2-.2,2,2,0,0,1,1.41,1.33,1.85,1.85,0,0,1-.09,1.56c-.44.84-1.34,1.25-1.94,2a.75.75,0,0,0-.21.68c.09-.24.46-.15.68-.2.4,0,.8.09,1.2.08Zm4.6-.49a.86.86,0,0,0,.68.74c.27.12.66,0,.84.26s-.39.33-.63.32a11.93,11.93,0,0,0-2.07,0,6.7,6.7,0,0,1-1,.05.27.27,0,0,1,.18-.51c.31-.06.74-.13.84-.49a3.25,3.25,0,0,0-.13-.92c-.22-1.07-.44-2.15-.67-3.23,0-.33-.37-.4-.64-.36s-.66.19-.83-.11.4-.4.64-.51c.48-.15.94-.33,1.43-.45.24-.05.34.18.36.38.33,1.6.67,3.2,1,4.8Z" transform="translate(0 0)"/>
    </g>
    <g>
      <path class="cls-36" d="M555.1,256l-4.4,5.23c-1.4,6.11,2.08,10.71,8.92,14.71,5.55,3.44,15.81,4.31,19,1.53l-16-15.25L555.1,256Z" transform="translate(0 0)"/>
      <path class="cls-37" d="M587.51,413.32l-2.38-2.83c-10,13.19-22.45,25-38,33.34C564.67,438.85,576.18,426,587.51,413.32ZM569.5,455c6.2-12.56,13.68-25.13,21.23-37.7-.82-1-1.66-2-2.5-3.07-8.58,14.21-18.64,31.12-18.74,40.77ZM618.18,321.4a73,73,0,0,0-5-15.23c-3.1-6.34-7.72-12.64-13.8-19.6-11-11.87-21.9-23.33-37.25-31.8l.08-.16.09.06h.19l-.18-.24h.54l-.29-.3H563l-.41-.46h.53l-.38-.38h.58l-.32-.43.46,0-.43-.46.64-.12-.52-.33.56-.11-.47-.32.68-.22-.6-.35.76-.34-.74-.53.78-.27-.84-.34.71-.38-.84-.15.57-.66-.82,0,.37-.69-.77.06-.06-.07.43-.52-.79.14.35-.71-.76.38.22-.83-.74.51.12-.84-.68.58.07-.81-.59.63,0-.85-.59.71-.06-.83-.47.65-.23-.79-.4.79-.19-.83-.37.83-.18-.83-.32.83-.24-.79-.25.79-.19-.69-.28.84-.26-.79-.28.9-.34-.81-.15,1-.41-.78-.05.93-.44-.71,0,.92L554,246l0,.8-.51-.42.25.87-.61-.36.23.76-.51-.28.18.73-.45-.14.24.55,0,.07-.35-.07.2.43a10.57,10.57,0,0,0-.41,4.1c0,.27.69.54.8.71a1.15,1.15,0,0,1,.26.77c-1.85,3-3.51,5.34-3.7,8.79,1.49-1.89,3-4.2,5.2-4.2-1.07,1.79-1.58,7.2-.37,8l.9-1.58a7.91,7.91,0,0,0,.45,2.71,19.28,19.28,0,0,1,1.12-2,8,8,0,0,0,.83,3.86,5.29,5.29,0,0,1,1.88-1.83,8.27,8.27,0,0,0-.45,3.16,18.19,18.19,0,0,1,2.25-2.93c-.43,1.85,0,3.23.49,5.27.47-2.42.65-2.68,1.77-3.7.12,2.22-.3,4.24.16,5.48,1-1.95,1.71-1.68,2.32-2.94-.12,1.84-.49,3.84,0,5.49a5.19,5.19,0,0,1,2.27-3.12c.07,2.56.66,2.14-.94,4.32.68.31,3-.44,4.21-1-.6,1.37-.42,2.45-1,3.42A13.71,13.71,0,0,0,574,279c-.49,1.58-1.78,3.16-1.13,4.73a3.74,3.74,0,0,1,2.62-2.9c-.18.82-.3,2.53-1.49,3.36,2.85.29,4-1.63,5.41-3.16-.19,1.59-.13,2.85,1.81,5.09-.39-2.84.28-2.26,1.57-4,.62,2.5,1.33,5.17,3.94,7-1.08-2.64-1.28-4-.67-5.67.34,1.72,2,3.79,2.36,5.42a15.66,15.66,0,0,1,1.12-4.73,23.66,23.66,0,0,1,1.58,6.53,19.63,19.63,0,0,0,1.35-3.6c23,24.06,28.16,54.65,2.94,87,9.06-6.12,11.4-15.83,16.44-24.1-4.92,10.83-7.11,23-15.77,32,8.39-7.24,10.17-13.87,15.21-20.84-5.38,14.59-12.81,30.57-23.12,45.2q2.75,3,5.5,6.05,2.4-4,4.78-8c10.93-18,28.77-43.75,19.73-83Z" transform="translate(0 0)"/>
    </g>
    <path class="cls-38" d="M552,251.18a4.17,4.17,0,0,0-2.46,1.68,14,14,0,0,0,2.94.31c.3,0,.4-.41.33-.68l-.15-1.12c0-.25-.7-.23-1-.1Z" transform="translate(0 0)"/>
    <path class="cls-39" d="M549.55,252.86a10.58,10.58,0,0,1,1.22-.35c.42-.09.84-.17,1.26-.22a12.41,12.41,0,0,1-1.23.35C550.39,252.73,550,252.81,549.55,252.86Z" transform="translate(0 0)"/>
    <ellipse class="cls-40" cx="557.29" cy="251.33" rx="0.9" ry="0.95"/>
    <ellipse class="cls-41" cx="557.5" cy="251.15" rx="0.39" ry="0.41"/>
    <g>
      <path class="cls-42" d="M569.54,454.65c.55-1.75,1.14-3.47,1.78-5.18s1.35-3.4,2.09-5.07c1.47-3.35,3.1-6.62,4.82-9.85s3.55-6.38,5.44-9.51c.94-1.56,1.9-3.12,2.86-4.67l2.93-4.63-2.82,4.7c-.94,1.56-1.88,3.13-2.8,4.7-1.85,3.15-3.67,6.32-5.39,9.53s-3.36,6.48-4.87,9.8c-.75,1.67-1.46,3.34-2.14,5s-1.31,3.41-1.9,5.14Zm-22-11q2.9-1.29,5.7-2.77c1.86-1,3.7-2,5.48-3.16a83.87,83.87,0,0,0,10.19-7.48,99.38,99.38,0,0,0,9.06-8.83q2.13-2.34,4.14-4.79t4-4.94q-1.89,2.55-3.87,5c-1.33,1.65-2.69,3.26-4.1,4.84a95.91,95.91,0,0,1-9,8.89,82.27,82.27,0,0,1-10.25,7.46C557,439,555.2,440,553.31,441s-3.8,1.84-5.75,2.66Zm43.5-34.23c.89-1.25,1.73-2.55,2.56-3.85s1.66-2.6,2.45-3.92q2.4-4,4.62-8t4.38-8.15l4.29-8.2-2,4.16-2.08,4.13q-2.1,4.13-4.33,8.18c-1.5,2.7-3,5.37-4.67,8s-3.33,5.2-5.18,7.67Zm6.87-29.3a68,68,0,0,0,5.47-7.49,70.43,70.43,0,0,0,4.45-8.13,85,85,0,0,0,5.8-17.58c.17-.76.33-1.51.48-2.27a66.89,66.89,0,0,0,.81-6.9,63.73,63.73,0,0,0,0-9.27,59.07,59.07,0,0,0-1.45-9.15,62.16,62.16,0,0,0-2.8-8.84,61.86,61.86,0,0,1,2.92,8.81,59.23,59.23,0,0,1,1.5,9.17,62.63,62.63,0,0,1,.07,9.29,67.08,67.08,0,0,1-.78,6.93c-.15.76-.3,1.52-.47,2.28a84.53,84.53,0,0,1-5.9,17.6,71.41,71.41,0,0,1-4.49,8.13,68.48,68.48,0,0,1-5.58,7.42Z" transform="translate(0 0)"/>
      <path class="cls-42" d="M596,373.42a42,42,0,0,0,5.72-6.82,62.27,62.27,0,0,0,4.43-7.73c1.3-2.67,2.44-5.41,3.53-8.18.54-1.39,1.06-2.78,1.59-4.17l.38-1c.13-.34.24-.7.35-1.05.21-.71.41-1.43.67-2.14v0a48.79,48.79,0,0,0,.94-8.94,53.05,53.05,0,0,0-.67-9,66.07,66.07,0,0,0-2-8.78c-.85-2.89-1.85-5.73-3-8.52,1.17,2.77,2.21,5.61,3.1,8.48a66.52,66.52,0,0,1,2.07,8.8,53.24,53.24,0,0,1,.71,9,47.59,47.59,0,0,1-.91,9h0c-.26.69-.46,1.41-.68,2.12-.11.36-.22.71-.35,1.07l-.4,1c-.52,1.39-1.06,2.78-1.61,4.17-1.1,2.76-2.26,5.5-3.57,8.18a61.78,61.78,0,0,1-4.48,7.72,41.64,41.64,0,0,1-5.82,6.75Z" transform="translate(0 0)"/>
      <path class="cls-42" d="M589.22,407.44c1.4-1.93,2.79-3.88,4.17-5.83l2.08-2.92c.69-1,1.4-1.93,2-3,1.24-2,2.32-4.17,3.38-6.31S603,385.14,604,383c2.08-4.3,4.09-8.64,5.79-13.1a87.67,87.67,0,0,0,4-13.72c1-4.67,1.65-9.41,2.2-14.15a67.59,67.59,0,0,0,0-14.29,61,61,0,0,0-3.17-13.93,85.42,85.42,0,0,0-5.95-13,83.71,83.71,0,0,1,6.06,13,60.68,60.68,0,0,1,3.23,13.95,68,68,0,0,1,0,14.33c-.53,4.75-1.18,9.49-2.16,14.18A88.2,88.2,0,0,1,610,370c-1.72,4.46-3.75,8.8-5.84,13.09-1,2.15-2.12,4.28-3.18,6.43s-2.15,4.27-3.41,6.31c-.62,1-1.35,2-2.05,2.94l-2.1,2.91c-1.4,1.93-2.8,3.87-4.22,5.79Z" transform="translate(0 0)"/>
      <path class="cls-42" d="M592.44,411c2.76-4.48,5.5-9,8.12-13.52s5.23-9.11,7.54-13.83A94.87,94.87,0,0,0,613.93,369c.76-2.51,1.4-5.06,1.93-7.63q.4-1.92.69-3.87c.2-1.3.38-2.6.55-3.9a121.32,121.32,0,0,0,1.08-15.7,85.64,85.64,0,0,0-1.4-15.66,67.28,67.28,0,0,0-4.64-15A62.7,62.7,0,0,0,604,293.78a63,63,0,0,1,8.23,13.41,67.43,67.43,0,0,1,4.7,15,86,86,0,0,1,1.44,15.69,119.87,119.87,0,0,1-1,15.73c-.17,1.31-.36,2.61-.56,3.91s-.43,2.59-.7,3.88q-.81,3.85-2,7.64a95.81,95.81,0,0,1-5.88,14.62c-2.33,4.72-4.94,9.28-7.58,13.82s-5.44,9-8.23,13.46ZM560,257.57a10.11,10.11,0,0,1,1.65.13c.55.09,1.09.21,1.63.35a20.43,20.43,0,0,1,3.13,1.11,29.93,29.93,0,0,1,5.72,3.39,41.57,41.57,0,0,1,5,4.41c.76.8,1.5,1.63,2.22,2.47s1.4,1.72,2,2.61c-.7-.86-1.41-1.7-2.15-2.53s-1.48-1.63-2.26-2.41a44.71,44.71,0,0,0-5-4.35,31.21,31.21,0,0,0-5.65-3.41,21.21,21.21,0,0,0-3.08-1.17,13.8,13.8,0,0,0-3.25-.6Z" transform="translate(0 0)"/>
    </g>
    <g>
      <path class="cls-43" d="M579.11,270.17a18.51,18.51,0,0,1,5.51,5.18,18.51,18.51,0,0,1-9.41-5.43" transform="translate(0 0)"/>
      <path class="cls-42" d="M579.11,270.17a16.9,16.9,0,0,1,1.61,1c.51.38,1,.77,1.49,1.2a15.75,15.75,0,0,1,1.36,1.35,12.31,12.31,0,0,1,1.16,1.53l.16.26-.29-.06a16,16,0,0,1-2.65-.84,18,18,0,0,1-2.5-1.21,15.93,15.93,0,0,1-4.24-3.51,17.44,17.44,0,0,0,4.34,3.35,20.7,20.7,0,0,0,2.48,1.16,17.09,17.09,0,0,0,2.61.8l-.12.19a12.91,12.91,0,0,0-1.13-1.51c-.41-.48-.86-.93-1.31-1.37s-.94-.85-1.44-1.24-1-.77-1.53-1.13Z" transform="translate(0 0)"/>
      <path class="cls-43" d="M571.18,269.15s8.43,5.37,9.65,5.8a12.93,12.93,0,0,0-5.89-5.8" transform="translate(0 0)"/>
      <path class="cls-42" d="M571.18,269.15l4.83,2.9,2.41,1.45c.4.24.81.47,1.22.7a11.09,11.09,0,0,0,1.23.64l-.15.16a13,13,0,0,0-1.08-1.78,17,17,0,0,0-1.33-1.61,13.72,13.72,0,0,0-1.57-1.38,11.76,11.76,0,0,0-1.8-1.08,10.38,10.38,0,0,1,1.86,1,11.81,11.81,0,0,1,1.63,1.35,13.17,13.17,0,0,1,1.39,1.6,13,13,0,0,1,1.12,1.81l.14.3-.29-.13a23.69,23.69,0,0,1-2.49-1.36l-2.41-1.48q-2.39-1.5-4.71-3.08Z" transform="translate(0 0)"/>
      <path class="cls-43" d="M574.54,266.43s4.38,1.86,5.38,5.11c0,0-7.88-3.32-9.29-5.08" transform="translate(0 0)"/>
      <path class="cls-42" d="M574.54,266.43a12.52,12.52,0,0,1,3.27,2,8.75,8.75,0,0,1,1.33,1.39,5.77,5.77,0,0,1,.9,1.72l.07.26-.24-.11c-.82-.35-1.63-.71-2.43-1.09s-1.61-.76-2.39-1.17-1.57-.84-2.33-1.29c-.38-.24-.75-.48-1.11-.74a5,5,0,0,1-1-.9,5.13,5.13,0,0,0,1,.84,13.12,13.12,0,0,0,1.13.69c.77.44,1.56.84,2.35,1.23q2.39,1.17,4.83,2.2l-.17.15a5.48,5.48,0,0,0-.84-1.65,9.76,9.76,0,0,0-1.27-1.38,13.87,13.87,0,0,0-1.5-1.15,14.31,14.31,0,0,0-1.64-1Z" transform="translate(0 0)"/>
      <path class="cls-43" d="M567.89,269.8s7.75,5.55,10,5.55a15.27,15.27,0,0,0-6.28-5.54" transform="translate(0 0)"/>
      <path class="cls-42" d="M567.89,269.8c.8.53,1.61,1.06,2.42,1.57s1.63,1,2.45,1.52,1.66,1,2.52,1.4c.43.21.86.42,1.31.59a4.09,4.09,0,0,0,1.34.35l-.1.18a15.68,15.68,0,0,0-1.25-1.69,19.15,19.15,0,0,0-1.46-1.53,13.93,13.93,0,0,0-1.64-1.32,12.81,12.81,0,0,0-1.83-1.06,12.21,12.21,0,0,1,3.59,2.25,15.79,15.79,0,0,1,2.8,3.23l.12.19h-.23a4.35,4.35,0,0,1-1.44-.35c-.45-.19-.89-.39-1.32-.61q-1.29-.67-2.52-1.44c-.81-.51-1.62-1-2.42-1.58s-1.58-1.11-2.34-1.69Z" transform="translate(0 0)"/>
      <path class="cls-43" d="M567.89,271.54s4,3.4,6.33,3.4a15.34,15.34,0,0,0-6.29-5.54" transform="translate(0 0)"/>
      <path class="cls-42" d="M567.89,271.54c.48.36,1,.72,1.48,1s1,.67,1.53,1a12.9,12.9,0,0,0,1.61.83,5.22,5.22,0,0,0,.84.29,3.29,3.29,0,0,0,.87.14l-.11.19a13.76,13.76,0,0,0-1.25-1.7,17.29,17.29,0,0,0-1.45-1.52,16.26,16.26,0,0,0-1.65-1.33,12.81,12.81,0,0,0-1.83-1.06,12.63,12.63,0,0,1,3.6,2.26,15.27,15.27,0,0,1,1.5,1.51,14.45,14.45,0,0,1,1.29,1.71l.12.19h-.22a4.7,4.7,0,0,1-1.81-.46,13.93,13.93,0,0,1-1.62-.86q-.76-.5-1.5-1.05c-.48-.36-.95-.75-1.4-1.16Z" transform="translate(0 0)"/>
      <path class="cls-43" d="M565.87,263.88s8.41,6,9.4,9.22c0,0-7.61-3.5-9-5.26" transform="translate(0 0)"/>
      <path class="cls-42" d="M565.87,263.88c.91.63,1.81,1.29,2.69,2s1.73,1.39,2.57,2.11a30.82,30.82,0,0,1,2.39,2.32,13.44,13.44,0,0,1,1.07,1.3,5.21,5.21,0,0,1,.8,1.49l.08.27-.25-.12c-.79-.37-1.58-.75-2.36-1.15s-1.56-.8-2.32-1.22-1.52-.87-2.26-1.35c-.37-.24-.73-.49-1.07-.75a5.13,5.13,0,0,1-1-.9,5.84,5.84,0,0,0,1,.85c.35.25.72.48,1.09.7.75.45,1.51.87,2.29,1.28,1.54.81,3.11,1.58,4.69,2.31l-.17.15a5.73,5.73,0,0,0-.76-1.42,14.17,14.17,0,0,0-1-1.28c-.74-.82-1.54-1.58-2.36-2.33s-1.66-1.46-2.52-2.16-1.72-1.39-2.6-2.06Z" transform="translate(0 0)"/>
    </g>
    <g>
      <path class="cls-4" d="M519.19,432.06c-5.7,4.25-21.65,6.33-23.86,5.6C506.93,428,518.35,427.78,519.19,432.06Zm81.39,5.18c6.13,5.56,24.62,9.39,27.38,8.7C615.66,433.38,602.18,432.1,600.58,437.24Z" transform="translate(0 0)"/>
      <path class="cls-5" d="M519.14,432c-.84-4.28-12.2-4-23.77,5.57C507.56,433.58,517.81,431.29,519.14,432Zm81.56,5.15c1.6-5.14,14.93-3.9,27.26,8.7C614.1,440,602.36,436.43,600.7,437.17Z" transform="translate(0 0)"/>
    </g>
  </g>
</svg>
