<?xml version="1.0" encoding="utf-8"?>
<!-- Generator: Adobe Illustrator 23.1.0, SVG Export Plug-In . SVG Version: 6.00 Build 0)  -->
<svg version="1.1"
	 id="Layer_1" xmlns:cc="http://creativecommons.org/ns#" xmlns:dc="http://purl.org/dc/elements/1.1/" xmlns:rdf="http://www.w3.org/1999/02/22-rdf-syntax-ns#"
	 xmlns="http://www.w3.org/2000/svg" xmlns:xlink="http://www.w3.org/1999/xlink" x="0px" y="0px" viewBox="0 0 1050 700"
	 style="enable-background:new 0 0 1050 700;" xml:space="preserve">
<style type="text/css">
	.st0{fill:#CD2A3E;}
	.st1{fill:#006233;}
	.st2{fill:#FFC400;}
</style>
<path class="st0" d="M0,0h1050v700H0V0z"/>
<path class="st1" d="M0,105h1050v490H0V105z"/>
<path class="st2" d="M743.7,225.5C743.2,345.7,645.4,443,525,443s-218.2-97.3-218.7-217.6c-4.8,18.3-7.3,37.4-7.3,57.2
	c0,124.8,101.1,226.1,226.1,226.1s226.1-101.1,226.1-226.1C751.1,262.9,748.5,243.7,743.7,225.5L743.7,225.5z"/>
<path class="st2" d="M525,136.8l-19.6,60.5l-63.6,0l51.4,37.4l-19.6,60.5l51.4-37.4l51.4,37.4l-19.6-60.5l51.4-37.4l-63.6,0
	L525,136.8z"/>
</svg>
