<svg id="Layer_1" data-name="Layer 1" xmlns="http://www.w3.org/2000/svg" width="493.89mm" height="246.94mm" viewBox="0 0 1400 700">
  <defs>
    <style>
      .cls-1 {
        fill: #ce1720;
      }

      .cls-2 {
        fill: #fff;
      }

      .cls-3 {
        fill: #007c30;
      }
    </style>
  </defs>
  <rect class="cls-1" width="1400" height="700"/>
  <path class="cls-2" d="M7.78,0H163.33V700H7.78Z"/>
  <g id="a">
    <path id="b" class="cls-1" d="M89,0V25.36H82.13V0ZM1.56,44.33H13.84V34.22h6.23V21.93h8.71V11.2h7.15V0H57.56V11.2h7V21.93h8.71V34.22h6.22V44.33H89V60H79.49V70.16H73.27V82.44H64.56V93.18h-7v11.51h-5v9.64H40.91v-9.64h-5V93.18H28.78V82.44H20.07V70.16H13.84V60H1.56m0-54.75H13.84v14H1.56m48.22,4.2H43.4V33H37.33V45H31.42V59.73h5.91v12H43.4V81h6.38V71.71h6.06v-12h6.07V45H55.84V33H49.78Zm.62,21.62v14H42.78v-14ZM1.56,81.82H13.84V96.91H1.56M89,83.22v21.31H82.13V83.22Zm-16.8,23.65v10.57h7.46v10.89H89v14.31H79.64v11.05H72.18v10.58H63.47V153.69H56V142.64H49.78V128.33H56V117.44h7.47V106.87ZM1.56,128.33H13.84V117.44h7.47V106.87h8.56v10.57h7.46v10.89h6.23v14.31H37.33v11.05H29.87v10.58H21.31V153.69H13.84V142.64H1.56m69.53-14H64.71v13.54h6.38Zm-42.16,0H22.56v13.54h6.37ZM31.42,352.8v-7.31H26.13V334.44h-7v-6.69H13.84V317H1.56V292.13H13.84v7.16h5.29v10.42h7v12.44h10V311H43.4v-8.24h5.29v-9.8h7V282.49h5.13V271.91h5V261h6.69V246.4H63.62V233.18H54v-7.94H37.8v11.52h9.33v10.42H40.91v12.75H33.6v11.2H24.42v-11.2H16.8V247.18H12.13V236.76H1.56V217H13.84V204.24h4.67v-9.8h4.36v-11.2h6.22v-11h6.07v-7.31h7.31v-11h8.86v11h7.31v7.31h6.23v11h6.06v11.2h5v9.65h5v8.4H89v61.75H79.8v10.43H77.16v10.89H70.31v10.57h-4.2v7.78H61.76v8.24H54.29v8.09H43.56V352.8M89,164.11v21.31H82.13V164.11Zm-87.42,4H13.84v15.08H1.56m0,75.6H13.84v15.09H1.56Zm87.11,38.27V310.8H82.13V297.11Zm-9,55.69v-8.56h-4v-6.69H69.69V317.49H75.6v8.09h6.22V337.4h6.85v15.24m-33.29,0v-9.95h6.53v9.95"/>
    <path class="cls-1" d="M82.13,0V25.36H89V0Zm87.43,44.33H157.27V34.22H151V21.93h-8.71V11.2h-7.15V0H113.56V11.2h-7V21.93H97.84V34.22H91.62V44.33H82.13V60h9.49V70.16h6.22V82.44h8.72V93.18h7v11.51h5v9.64H130.2v-9.64h5V93.18h7.15V82.44H151V70.16h6.23V60h12.29m0-54.75H157.27v14h12.29m-48.23,4.2h6.38V33h6.07V45h5.91V59.73h-5.91v12h-6.07V81h-6.38V71.71h-6.06v-12H109.2V45h6.07V33h6.06Zm-.62,21.62v14h7.62v-14Zm48.85,36.71H157.27V96.91h12.29M82.13,83.22v21.31H89V83.22Zm16.8,23.65v10.57H91.47v10.89H82.13v14.31h9.34v11.05h7.46v10.58h8.71V153.69h7.47V142.64h6.22V128.33h-6.22V117.44h-7.47V106.87Zm70.63,21.46H157.27V117.44H149.8V106.87h-8.56v10.57h-7.46v10.89h-6.22v14.31h6.22v11.05h7.46v10.58h8.56V153.69h7.47V142.64h12.29m-69.54-14h6.38v13.54H100Zm42.16,0h6.38v13.54h-6.38ZM139.69,352.8v-7.31H145V334.44h7v-6.69h5.29V317h12.29V292.13H157.27v7.16H152v10.42h-7v12.44H135V311h-7.31v-8.24h-5.29v-9.8h-7V282.49h-5.13V271.91h-5V261H98.62V246.4h8.87V233.18h9.64v-7.94h16.18v11.52H124v10.42h6.22v12.75h7.31v11.2h9.18v-11.2h7.62V247.18H159V236.76h10.58V217H157.27V204.24H152.6v-9.8h-4.36v-11.2H142v-11H136v-7.31h-7.32v-11h-8.86v11h-7.31v7.31h-6.23v11h-6.06v11.2h-5v9.65h-5v8.4H82.13v61.75h9.18v10.43H94v10.89h6.84v10.57H105v7.78h4.36v8.24h7.46v8.09h10.74V352.8M82.13,164.11v21.31H89V164.11Zm87.43,4H157.27v15.08h12.29m0,75.6H157.27v15.09h12.29ZM82.44,297.11V310.8H89V297.11Zm9,55.69v-8.56h4v-6.69h5.91V317.49H95.51v8.09H89.29V337.4H82.44v15.24m33.29,0v-9.95H109.2v9.95"/>
  </g>
  <g>
    <path class="cls-1" d="M89,700V674.64H82.13V700ZM1.56,655.67H13.84v10.11h6.23v12.29h8.71V688.8h7.15V700H57.56V688.8h7V678.07h8.71V665.78h6.22V655.67H89V640H79.49V629.84H73.27V617.55H64.56V606.82h-7V595.31h-5v-9.64H40.91v9.64h-5v11.51H28.78v10.73H20.07v12.29H13.84V640H1.56m0,54.76H13.84v-14H1.56m48.22-4.2H43.4V667H37.33V655H31.42V640.27h5.91v-12H43.4V619h6.38v9.34h6.06v12h6.07V655H55.84v12H49.78Zm.62-21.62v-14H42.78v14ZM1.56,618.18H13.84V603.09H1.56M89,616.78V595.47H82.13v21.31Zm-16.8-23.65V582.55h7.46V571.67H89V557.35H79.64v-11H72.18V535.73H63.47v10.58H56v11H49.78v14.32H56v10.88h7.47v10.58ZM1.56,571.67H13.84v10.88h7.47v10.58h8.56V582.55h7.46V571.67h6.23V557.35H37.33v-11H29.87V535.73H21.31v10.58H13.84v11H1.56m69.53,14H64.71V557.82h6.38Zm-42.16,0H22.56V557.82h6.37ZM31.42,347.2v7.31H26.13v11h-7v6.69H13.84V383H1.56v24.89H13.84v-7.16h5.29V390.29h7V377.84h10V389H43.4v8.25h5.29v9.8h7v10.42h5.13v10.58h5V439h6.69V453.6H63.62v13.22H54v7.93H37.8V463.24h9.33V452.82H40.91V440.07H33.6v-11.2H24.42v11.2H16.8v12.75H12.13v10.42H1.56V483H13.84v12.75h4.67v9.8h4.36v11.2h6.22v11h6.07v7.31h7.31v11h8.86v-11h7.31V527.8h6.23v-11h6.06v-11.2h5v-9.64h5v-8.4H89V425.75H79.8V415.33H77.16V404.44H70.31V393.87h-4.2v-7.78H61.76v-8.25H54.29v-8.09H43.56V347.2M89,535.89V514.58H82.13v21.31Zm-87.42-4H13.84V516.75H1.56m0-75.6H13.84V426.07H1.56Zm87.11-38.26V389.2H82.13v13.69Zm-9-55.69v8.55h-4v6.69H69.69v20.07H75.6v-8.09h6.22V362.6h6.85V347.35m-33.29,0v10h6.53v-10"/>
    <path class="cls-1" d="M82.13,700V674.64H89V700Zm87.43-44.33H157.27v10.11H151v12.29h-8.71V688.8h-7.15V700H113.56V688.8h-7V678.07H97.84V665.78H91.62V655.67H82.13V640h9.49V629.84h6.22V617.55h8.72V606.82h7V595.31h5v-9.64H130.2v9.64h5v11.51h7.15v10.73H151v12.29h6.23V640h12.29m0,54.76H157.27v-14h12.29m-48.23-4.2h6.38V667h6.07V655h5.91V640.27h-5.91v-12h-6.07V619h-6.38v9.34h-6.06v12H109.2V655h6.07v12h6.06Zm-.62-21.62v-14h7.62v14Zm48.85-36.71H157.27V603.09h12.29M82.13,616.78V595.47H89v21.31Zm16.8-23.65V582.55H91.47V571.67H82.13V557.35h9.34v-11h7.46V535.73h8.71v10.58h7.47v11h6.22v14.32h-6.22v10.88h-7.47v10.58Zm70.63-21.46H157.27v10.88H149.8v10.58h-8.56V582.55h-7.46V571.67h-6.22V557.35h6.22v-11h7.46V535.73h8.56v10.58h7.47v11h12.29m-69.54,14h6.38V557.82H100Zm42.16,0h6.38V557.82h-6.38ZM139.69,347.2v7.31H145v11h7v6.69h5.29V383h12.29v24.89H157.27v-7.16H152V390.29h-7V377.84H135V389h-7.31v8.25h-5.29v9.8h-7v10.42h-5.13v10.58h-5V439H98.62V453.6h8.87v13.22h9.64v7.93h16.18V463.24H124V452.82h6.22V440.07h7.31v-11.2h9.18v11.2h7.62v12.75H159v10.42h10.58V483H157.27v12.75H152.6v9.8h-4.36v11.2H142v11H136v7.31h-7.32v11h-8.86v-11h-7.31V527.8h-6.23v-11h-6.06v-11.2h-5v-9.64h-5v-8.4H82.13V425.75h9.18V415.33H94V404.44h6.84V393.87H105v-7.78h4.36v-8.25h7.46v-8.09h10.74V347.2M82.13,535.89V514.58H89v21.31Zm87.43-4H157.27V516.75h12.29m0-75.6H157.27V426.07h12.29ZM82.44,402.89V389.2H89v13.69Zm9-55.69v8.55h4v6.69h5.91v20.07H95.51v-8.09H89.29V362.6H82.44V347.35m33.29,0v10H109.2v-10"/>
  </g>
  <path class="cls-3" d="M163.33,466.67H1400V700H163.33Z"/>
</svg>
