<svg id="Layer_1" data-name="Layer 1" xmlns="http://www.w3.org/2000/svg" xmlns:xlink="http://www.w3.org/1999/xlink" width="394.27mm" height="333.02mm" viewBox="0 0 1117.61 944">
  <defs>
    <style>
      .cls-1 {
        fill: none;
      }

      .cls-2 {
        fill: #fff;
      }

      .cls-3 {
        fill: red;
      }

      .cls-4 {
        clip-path: url(#clip-path);
      }

      .cls-5 {
        clip-path: url(#clip-path-2);
      }

      .cls-6 {
        clip-path: url(#clip-path-3);
      }

      .cls-7 {
        clip-path: url(#clip-path-4);
      }

      .cls-8 {
        clip-path: url(#clip-path-5);
      }

      .cls-9 {
        clip-path: url(#clip-path-6);
      }

      .cls-10 {
        clip-path: url(#clip-path-7);
      }

      .cls-11 {
        clip-path: url(#clip-path-8);
      }
    </style>
    <clipPath id="clip-path" transform="translate(33.46 121.81)">
      <path class="cls-1" d="M-156,502.62c201.16,0,364.24-163.34,364.24-364.84S45.12-227-156-227H607.48C406.31-227,243.23-63.71,243.23,137.78S406.31,502.62,607.48,502.62Z"/>
    </clipPath>
    <clipPath id="clip-path-2" transform="translate(33.46 121.81)">
      <path class="cls-1" d="M-138.53-244.59c0,201.49,163.08,364.83,364.25,364.83S590-43.1,590-244.59V520.16c0-201.5-163.08-364.84-364.25-364.84S-138.53,318.66-138.53,520.16Z"/>
    </clipPath>
    <clipPath id="clip-path-3" transform="translate(33.46 121.81)">
      <path class="cls-1" d="M443.22,927.44c201.17,0,364.24-163.35,364.24-364.84S644.39,197.77,443.22,197.77h763.52c-201.17,0-364.25,163.34-364.25,364.83s163.08,364.84,364.25,364.84Z"/>
    </clipPath>
    <clipPath id="clip-path-4" transform="translate(33.46 121.81)">
      <path class="cls-1" d="M460.73,180.23c0,201.49,163.08,364.83,364.25,364.83s364.25-163.34,364.25-364.83V945c0-201.5-163.08-364.84-364.25-364.84S460.73,743.48,460.73,945Z"/>
    </clipPath>
    <clipPath id="clip-path-5" transform="translate(33.46 121.81)">
      <path class="cls-1" d="M443.22,502.62c201.17,0,364.24-163.34,364.24-364.84S644.39-227,443.22-227h763.52c-201.17,0-364.25,163.34-364.25,364.83s163.08,364.84,364.25,364.84Z"/>
    </clipPath>
    <clipPath id="clip-path-6" transform="translate(33.46 121.81)">
      <path class="cls-1" d="M460.73-244.59C460.73-43.1,623.81,120.24,825,120.24S1189.23-43.1,1189.23-244.59V520.16c0-201.5-163.08-364.84-364.25-364.84S460.73,318.66,460.73,520.16Z"/>
    </clipPath>
    <clipPath id="clip-path-7" transform="translate(33.46 121.81)">
      <path class="cls-1" d="M-156,927.44c201.16,0,364.24-163.35,364.24-364.84S45.12,197.77-156,197.77H607.48c-201.17,0-364.25,163.34-364.25,364.83S406.31,927.44,607.48,927.44Z"/>
    </clipPath>
    <clipPath id="clip-path-8" transform="translate(33.46 121.81)">
      <path class="cls-1" d="M-138.53,180.23c0,201.49,163.08,364.83,364.25,364.83S590,381.72,590,180.23V945c0-201.5-163.08-364.84-364.25-364.84S-138.53,743.48-138.53,945Z"/>
    </clipPath>
  </defs>
  <rect class="cls-2" x="33.45" y="121.2" width="1050.72" height="701.6"/>
  <path class="cls-3" d="M455.3-.61V280H0V420.35H455.3V701H595.39V420.35h455.32V280H595.39V-.61Z" transform="translate(33.46 121.81)"/>
  <g id="smallcross">
    <g class="cls-4">
      <path id="varm" class="cls-3" d="M33.09,397.38c0-106.56,86.24-192.94,192.63-192.94s192.63,86.38,192.63,192.94V-121.81c0,106.56-86.25,192.94-192.63,192.94S33.09-15.25,33.09-121.81Z" transform="translate(33.46 121.81)"/>
    </g>
    <g class="cls-5">
      <path class="cls-3" d="M-33.46-55.16c106.39,0,192.63,86.39,192.63,192.94S72.93,330.72-33.46,330.72H484.89c-106.38,0-192.63-86.38-192.63-192.94S378.51-55.16,484.89-55.16Z" transform="translate(33.46 121.81)"/>
    </g>
  </g>
  <g>
    <g class="cls-6">
      <path class="cls-3" d="M632.35,822.2c0-106.56,86.24-192.94,192.63-192.94s192.63,86.38,192.63,192.94V303C1017.61,409.57,931.36,496,825,496S632.35,409.57,632.35,303Z" transform="translate(33.46 121.81)"/>
    </g>
    <g class="cls-7">
      <path class="cls-3" d="M565.8,369.66c106.39,0,192.63,86.39,192.63,192.94S672.19,755.54,565.8,755.54h518.35c-106.38,0-192.63-86.38-192.63-192.94s86.25-192.94,192.63-192.94Z" transform="translate(33.46 121.81)"/>
    </g>
  </g>
  <g>
    <g class="cls-8">
      <path class="cls-3" d="M632.35,397.38c0-106.56,86.24-192.94,192.63-192.94s192.63,86.38,192.63,192.94V-121.81c0,106.56-86.25,192.94-192.63,192.94S632.35-15.25,632.35-121.81Z" transform="translate(33.46 121.81)"/>
    </g>
    <g class="cls-9">
      <path class="cls-3" d="M565.8-55.16c106.39,0,192.63,86.39,192.63,192.94S672.19,330.72,565.8,330.72h518.35c-106.38,0-192.63-86.38-192.63-192.94S977.77-55.16,1084.15-55.16Z" transform="translate(33.46 121.81)"/>
    </g>
  </g>
  <g>
    <g class="cls-10">
      <path class="cls-3" d="M33.09,822.2c0-106.56,86.24-192.94,192.63-192.94S418.35,715.64,418.35,822.2V303C418.35,409.57,332.1,496,225.72,496S33.09,409.57,33.09,303Z" transform="translate(33.46 121.81)"/>
    </g>
    <g class="cls-11">
      <path class="cls-3" d="M-33.46,369.66c106.39,0,192.63,86.39,192.63,192.94S72.93,755.54-33.46,755.54H484.89c-106.38,0-192.63-86.38-192.63-192.94s86.25-192.94,192.63-192.94Z" transform="translate(33.46 121.81)"/>
    </g>
  </g>
</svg>
