<svg id="Layer_1" data-name="Layer 1" xmlns="http://www.w3.org/2000/svg" width="370.42mm" height="246.94mm" viewBox="0 0 1050 700">
  <defs>
    <style>
      .cls-1 {
        fill: #c60b1e;
      }

      .cls-2 {
        fill: #ffc400;
      }

      .cls-3, .cls-33, .cls-34, .cls-35, .cls-59, .cls-69, .cls-9 {
        fill: #ad1519;
      }

      .cls-10, .cls-11, .cls-12, .cls-13, .cls-14, .cls-15, .cls-16, .cls-17, .cls-18, .cls-19, .cls-20, .cls-21, .cls-22, .cls-23, .cls-24, .cls-25, .cls-26, .cls-27, .cls-28, .cls-29, .cls-3, .cls-30, .cls-31, .cls-32, .cls-33, .cls-34, .cls-35, .cls-36, .cls-37, .cls-38, .cls-39, .cls-4, .cls-40, .cls-41, .cls-42, .cls-43, .cls-44, .cls-45, .cls-46, .cls-47, .cls-48, .cls-49, .cls-50, .cls-51, .cls-52, .cls-53, .cls-54, .cls-55, .cls-56, .cls-57, .cls-58, .cls-59, .cls-6, .cls-60, .cls-63, .cls-65, .cls-66, .cls-67, .cls-68, .cls-69, .cls-7, .cls-70, .cls-71, .cls-72, .cls-8, .cls-9 {
        stroke: #000;
      }

      .cls-3, .cls-30, .cls-34, .cls-71, .cls-8 {
        stroke-linejoin: round;
      }

      .cls-10, .cls-11, .cls-3, .cls-36, .cls-39, .cls-4, .cls-61, .cls-67, .cls-7, .cls-8, .cls-9 {
        stroke-width: 0.36px;
      }

      .cls-30, .cls-31, .cls-4, .cls-5, .cls-6, .cls-60, .cls-61, .cls-63, .cls-71, .cls-72, .cls-8 {
        fill: #c8b100;
      }

      .cls-6 {
        stroke-width: 0.42px;
      }

      .cls-12, .cls-13, .cls-14, .cls-15, .cls-16, .cls-17, .cls-18, .cls-19, .cls-20, .cls-21, .cls-22, .cls-23, .cls-24, .cls-25, .cls-26, .cls-27, .cls-32, .cls-36, .cls-37, .cls-41, .cls-42, .cls-43, .cls-44, .cls-45, .cls-46, .cls-47, .cls-48, .cls-49, .cls-50, .cls-51, .cls-52, .cls-53, .cls-54, .cls-7 {
        fill: none;
      }

      .cls-10, .cls-55, .cls-58, .cls-62 {
        fill: #058e6e;
      }

      .cls-11, .cls-38, .cls-40 {
        fill: #fff;
      }

      .cls-12 {
        stroke-width: 0.01px;
      }

      .cls-13 {
        stroke-width: 0.03px;
      }

      .cls-14 {
        stroke-width: 0.04px;
      }

      .cls-15 {
        stroke-width: 0.06px;
      }

      .cls-16, .cls-68 {
        stroke-width: 0.07px;
      }

      .cls-17 {
        stroke-width: 0.08px;
      }

      .cls-18 {
        stroke-width: 0.1px;
      }

      .cls-19 {
        stroke-width: 0.11px;
      }

      .cls-20 {
        stroke-width: 0.13px;
      }

      .cls-21 {
        stroke-width: 0.14px;
      }

      .cls-22 {
        stroke-width: 0.15px;
      }

      .cls-23 {
        stroke-width: 0.17px;
      }

      .cls-24 {
        stroke-width: 0.18px;
      }

      .cls-25 {
        stroke-width: 0.2px;
      }

      .cls-26 {
        stroke-width: 0.21px;
      }

      .cls-27 {
        stroke-width: 0.25px;
      }

      .cls-28, .cls-39, .cls-70 {
        fill: #005bbf;
      }

      .cls-28, .cls-29, .cls-30, .cls-31, .cls-32, .cls-33, .cls-34, .cls-40, .cls-55, .cls-65, .cls-66 {
        stroke-width: 0.55px;
      }

      .cls-29, .cls-56 {
        fill: #ccc;
      }

      .cls-35 {
        stroke-width: 0.38px;
      }

      .cls-36 {
        stroke-linecap: round;
      }

      .cls-37, .cls-38 {
        stroke-width: 0.29px;
      }

      .cls-41 {
        stroke-width: 0.32px;
      }

      .cls-42 {
        stroke-width: 0.39px;
      }

      .cls-43 {
        stroke-width: 0.46px;
      }

      .cls-44 {
        stroke-width: 0.52px;
      }

      .cls-45 {
        stroke-width: 0.59px;
      }

      .cls-46, .cls-63 {
        stroke-width: 0.64px;
      }

      .cls-47 {
        stroke-width: 0.71px;
      }

      .cls-48 {
        stroke-width: 0.78px;
      }

      .cls-49 {
        stroke-width: 0.84px;
      }

      .cls-50 {
        stroke-width: 0.88px;
      }

      .cls-51 {
        stroke-width: 0.95px;
      }

      .cls-52 {
        stroke-width: 1.02px;
      }

      .cls-53 {
        stroke-width: 1.08px;
      }

      .cls-54 {
        stroke-width: 1.27px;
      }

      .cls-56, .cls-57, .cls-58, .cls-59, .cls-60 {
        stroke-width: 0.73px;
      }

      .cls-57 {
        fill: #ffd691;
      }

      .cls-61 {
        stroke: #c8b100;
      }

      .cls-64 {
        fill: #0039f0;
      }

      .cls-65 {
        fill: #db4446;
      }

      .cls-66 {
        fill: #ed72aa;
      }

      .cls-69, .cls-70 {
        stroke-width: 0.85px;
      }

      .cls-71, .cls-72 {
        stroke-width: 0.48px;
      }
    </style>
  </defs>
  <rect class="cls-1" width="1050" height="700"/>
  <rect class="cls-2" y="175" width="1050" height="350"/>
  <g id="coa">
    <g id="supporters">
      <g id="crown_left" data-name="crown left">
        <path class="cls-3" d="M235.19,311.14a2.73,2.73,0,0,1-1.11-.23,16.52,16.52,0,0,1-1.58-1.34l-.95-.69-.87-1.19a4.05,4.05,0,0,1-.56-2.92,3.56,3.56,0,0,1,2-2.1,18,18,0,0,1,2.21-.83,13,13,0,0,1,1.58-.59c.39-.08,1.82-.45,1.82-.45a6.83,6.83,0,0,1,.78-.37,7.74,7.74,0,0,1,1.28-.23,10.08,10.08,0,0,1,1.58-.36c.73,0,1.9.14,2.3.14s1.73.07,2.29.07,2.52-.16,3.08-.16a11.88,11.88,0,0,1,1.58,0,9.85,9.85,0,0,1,2.06.61c.32.15,2.21.82,2.93,1.05a29,29,0,0,1,3.25.89,4.61,4.61,0,0,1,1.66,1.54,5.13,5.13,0,0,1,.63,1.47,2.59,2.59,0,0,1,0,1.56,8.79,8.79,0,0,1-.71,1.13l-.87,1.43-1.11.89s-.79.76-1.42.68a91.56,91.56,0,0,0-11.16-1.21,76.8,76.8,0,0,0-10.7,1.21Z" transform="translate(0 0)"/>
        <g>
          <ellipse class="cls-4" cx="245.92" cy="301.95" rx="1.93" ry="3.5"/>
          <ellipse class="cls-4" cx="245.95" cy="301.95" rx="0.9" ry="3.22"/>
          <ellipse class="cls-5" cx="245.95" cy="298.26" rx="1.3" ry="1.22"/>
          <path class="cls-6" d="M247.74,297.84v.81H244.2v-.81h1.32V296h-.87v-.8h.87v-.8h.84v.8h.87v.8h-.87v1.85h1.38" transform="translate(0 0)"/>
          <path class="cls-7" d="M246.32,297.08a1.21,1.21,0,0,1,.9,1.5,1.31,1.31,0,0,1-1.6.85,1.22,1.22,0,0,1-.91-1.5,1.24,1.24,0,0,1,.91-.85" transform="translate(0 0)"/>
          <path class="cls-4" d="M246,310.91h-6.73l-.16-1.65-.32-1.72-.32-2.14c-1.86-2.45-3.57-4.06-4.14-3.71a1.6,1.6,0,0,1,.65-1c1.66-1,5.06,1.37,7.62,5.24.22.35.45.7.64,1.05h5.56c.2-.35.42-.7.65-1.05,2.54-3.87,6-6.22,7.6-5.24a1.57,1.57,0,0,1,.66,1c-.58-.34-2.27,1.26-4.15,3.71l-.32,2.14-.32,1.72-.14,1.65Z" transform="translate(0 0)"/>
          <path class="cls-7" d="M234.57,301.62c1.27-.75,4.23,1.59,6.62,5.23m16.17-5.23c-1.27-.75-4.21,1.59-6.62,5.23" transform="translate(0 0)"/>
        </g>
        <g id="crown_pt1" data-name="crown pt1">
          <path class="cls-4" d="M236,314a6.48,6.48,0,0,0-.81-1.51,44.43,44.43,0,0,1,21.5,0l-.72,1.27a10.54,10.54,0,0,0-.54,1.14,39.48,39.48,0,0,0-19.12,0A7.12,7.12,0,0,0,236,314h0" transform="translate(0 0)"/>
          <path class="cls-4" d="M245.94,317.42a43.92,43.92,0,0,0,8.54-.88c.92-.28,1.47-.69,1.37-1.18a.85.85,0,0,0-.52-.53,40,40,0,0,0-18.8,0,.85.85,0,0,0-.52.53c-.1.49.45.9,1.37,1.18A44.17,44.17,0,0,0,245.94,317.42Z" transform="translate(0 0)"/>
          <path class="cls-4" d="M256.87,310.91l-.82-.74a3,3,0,0,1-1.8.34c-1-.16-1.3-1.36-1.3-1.36a3.56,3.56,0,0,1-2,.87,2.4,2.4,0,0,1-1.5-.87,3.47,3.47,0,0,1-1.86.64,3.16,3.16,0,0,1-1.7-1.16s-.88,1.12-1.75,1.2a2.19,2.19,0,0,1-1.58-.75,2.05,2.05,0,0,1-1.5,1,2.66,2.66,0,0,1-2.06-.87,3.53,3.53,0,0,1-1.38,1.29,2.47,2.47,0,0,1-1.74-.38s-.17.38-.28.6a.64.64,0,0,1-.43.27l.25.65a44.53,44.53,0,0,1,21.2,0l.28-.76Z" transform="translate(0 0)"/>
          <path class="cls-4" d="M246,307.29l.39.07a1.28,1.28,0,0,0-.09.53,1.52,1.52,0,0,0,1.57,1.47,1.59,1.59,0,0,0,1.49-1s.15-.54.21-.54,0,.58.07.58a1.49,1.49,0,0,0,1.54,1.24,1.51,1.51,0,0,0,1.55-1.48,1,1,0,0,0,0-.17l.49-.49.26.62a1.34,1.34,0,0,0-.14.64,1.45,1.45,0,0,0,1.49,1.42,1.53,1.53,0,0,0,1.23-.63l.32-.41v.5c0,.48.2.93.69,1a2.06,2.06,0,0,0,1.27-.53,8.21,8.21,0,0,0,1.12-1l0,.58a5.34,5.34,0,0,1-1.36,1.54,2.07,2.07,0,0,1-1.33.35,1.27,1.27,0,0,1-.93-.85,2.17,2.17,0,0,1-1.12.31,2.14,2.14,0,0,1-2-1.21,2.18,2.18,0,0,1-1.63.7,2.3,2.3,0,0,1-1.76-.81,2.19,2.19,0,0,1-1.53.6,2.27,2.27,0,0,1-1.86-1,2.29,2.29,0,0,1-1.87,1,2.19,2.19,0,0,1-1.53-.6,2.29,2.29,0,0,1-1.75.81,2.19,2.19,0,0,1-1.64-.7,2.14,2.14,0,0,1-2,1.21,2.07,2.07,0,0,1-1.1-.31,1.28,1.28,0,0,1-.95.85,2.08,2.08,0,0,1-1.32-.35,5.82,5.82,0,0,1-1.43-1.54l.1-.58a9.73,9.73,0,0,0,1.13,1,2.06,2.06,0,0,0,1.28.53.9.9,0,0,0,.68-1v-.5l.31.41a1.53,1.53,0,0,0,1.23.63,1.45,1.45,0,0,0,1.49-1.42,1.23,1.23,0,0,0-.14-.64l.26-.62.49.49a1,1,0,0,0,0,.17,1.51,1.51,0,0,0,1.55,1.48,1.52,1.52,0,0,0,1.56-1.24,3.79,3.79,0,0,1,0-.58c.07,0,.2.55.23.54a1.55,1.55,0,0,0,1.48,1,1.52,1.52,0,0,0,1.56-1.47,1.29,1.29,0,0,0-.07-.53l.4-.07Z" transform="translate(0 0)"/>
          <path class="cls-8" d="M245.94,311.12a40.64,40.64,0,0,0-10.74,1.32.42.42,0,0,1-.46-.24.38.38,0,0,1,.25-.45,44.49,44.49,0,0,1,21.91,0,.38.38,0,0,1,.25.45.42.42,0,0,1-.46.24A40.77,40.77,0,0,0,245.94,311.12Z" transform="translate(0 0)"/>
          <path class="cls-4" d="M231.6,309.4s-.53-.67-.91-1a3.39,3.39,0,0,0-.95-.46c0-.12.39-.4.81-.4a.8.8,0,0,1,.63.28l.06-.28a.75.75,0,0,1,.49.45,2.22,2.22,0,0,1,.07,1,1.17,1.17,0,0,1-.2.42Z" transform="translate(0 0)"/>
          <path class="cls-4" d="M234.25,308.31l-.16.92-2,.21-.29-.17.06-.32,1.48-1.22.87.58" transform="translate(0 0)"/>
          <path class="cls-4" d="M231.63,309.05a.56.56,0,0,1,.74.08c.25.21.34.54.17.7a.53.53,0,0,1-.74-.08C231.55,309.54,231.46,309.22,231.63,309.05Z" transform="translate(0 0)"/>
          <path class="cls-4" d="M235.23,309.23a.46.46,0,0,1,.18-.59.52.52,0,0,1,.52.38c.08.27,0,.53-.2.59S235.33,309.5,235.23,309.23Z" transform="translate(0 0)"/>
          <path class="cls-4" d="M236.14,308.06l.71.67,1.71-.93.13-.29-.24-.24-2-.17-.35,1" transform="translate(0 0)"/>
          <path class="cls-4" d="M238.11,304.86l-.94.9,1.21,1.6.32.12.24-.25.42-1.92-1.25-.45" transform="translate(0 0)"/>
          <path class="cls-4" d="M241.3,307l-.36.88-2-.18-.25-.22.14-.31,1.71-.9.72.73" transform="translate(0 0)"/>
          <ellipse class="cls-4" cx="238.71" cy="307.51" rx="0.69" ry="0.66"/>
          <path class="cls-4" d="M242,307.93a.46.46,0,0,1,.29-.55c.2,0,.39.19.42.47s-.1.51-.29.53S242.05,308.2,242,307.93Z" transform="translate(0 0)"/>
          <path class="cls-4" d="M243.29,306.94l.56.79,1.88-.58.19-.26-.21-.28-1.86-.54-.56.87" transform="translate(0 0)"/>
          <path class="cls-4" d="M245.92,304l-1.2.73.9,1.93.3.2.31-.2.9-1.93-1.21-.73" transform="translate(0 0)"/>
          <path class="cls-4" d="M248.57,306.94l-.55.79-1.87-.58-.2-.26.2-.28,1.87-.54.55.87" transform="translate(0 0)"/>
          <ellipse class="cls-4" cx="245.94" cy="306.89" rx="0.69" ry="0.66"/>
          <path class="cls-4" d="M249.9,307.93a.47.47,0,0,0-.31-.55c-.19,0-.39.19-.42.47s.1.51.3.53S249.86,308.2,249.9,307.93Z" transform="translate(0 0)"/>
          <path class="cls-4" d="M250.59,307l.36.88,2-.18.25-.22-.14-.31-1.71-.9-.72.73" transform="translate(0 0)"/>
          <path class="cls-4" d="M253.78,304.86l.94.9-1.21,1.6-.32.12-.24-.25-.42-1.92,1.25-.45" transform="translate(0 0)"/>
          <path class="cls-4" d="M255.75,308.06l-.71.67-1.71-.93-.14-.29.27-.24,2-.17.33,1" transform="translate(0 0)"/>
          <ellipse class="cls-4" cx="253.19" cy="307.51" rx="0.69" ry="0.66"/>
          <path class="cls-4" d="M256.68,309.23a.47.47,0,0,0-.19-.59.51.51,0,0,0-.51.38.44.44,0,0,0,.19.59C256.35,309.67,256.58,309.5,256.68,309.23Z" transform="translate(0 0)"/>
          <path class="cls-4" d="M260,309.4s.53-.67.93-1a3.12,3.12,0,0,1,.93-.46c0-.12-.39-.4-.81-.4a.8.8,0,0,0-.63.28l-.05-.28a.78.78,0,0,0-.51.45,2.34,2.34,0,0,0,0,1,1.17,1.17,0,0,0,.18.42Z" transform="translate(0 0)"/>
          <path class="cls-4" d="M257.38,308.31l.15.92,2,.21.29-.17-.07-.32-1.47-1.22-.86.58" transform="translate(0 0)"/>
          <path class="cls-4" d="M260,309.05a.58.58,0,0,0-.75.08c-.25.21-.33.54-.16.7s.5.14.75-.08A.51.51,0,0,0,260,309.05Z" transform="translate(0 0)"/>
        </g>
        <g id="crown_pt2" data-name="crown pt2">
          <path class="cls-9" d="M235.27,314l.43-.7.91.18-.53.79-.81-.27" transform="translate(0 0)"/>
          <path class="cls-10" d="M239.19,313.33l-1,.16a.47.47,0,0,1-.53-.37.46.46,0,0,1,.38-.49l1-.14,1-.15a.46.46,0,0,1,.52.35.44.44,0,0,1-.38.49l-1,.15" transform="translate(0 0)"/>
          <ellipse class="cls-11" cx="242.47" cy="312.62" rx="0.62" ry="0.57"/>
          <path class="cls-9" d="M246,312.87h-1.34a.44.44,0,1,1,0-.87h2.75a.44.44,0,1,1,0,.87H246" transform="translate(0 0)"/>
          <ellipse class="cls-11" cx="249.42" cy="312.62" rx="0.62" ry="0.57"/>
          <path class="cls-10" d="M252.7,313.33l1,.16a.47.47,0,0,0,.53-.37.45.45,0,0,0-.38-.49l-1-.14-1-.15a.45.45,0,0,0-.52.35.42.42,0,0,0,.38.49l1,.15" transform="translate(0 0)"/>
          <path class="cls-9" d="M256.54,314.06l-.35-.74-.94.08.45.83.84-.17" transform="translate(0 0)"/>
          <path class="cls-3" d="M245.92,316.62a36.5,36.5,0,0,1-8.82-.91,37.72,37.72,0,0,1,8.82-1,37.12,37.12,0,0,1,8.87,1A36.94,36.94,0,0,1,245.92,316.62Z" transform="translate(0 0)"/>
          <path class="cls-12" d="M247.52,316.51v-1.62m-.81,1.68v-1.72m-.6,1.75v-1.77" transform="translate(0 0)"/>
          <path class="cls-13" d="M245.62,316.61v-1.78" transform="translate(0 0)"/>
          <path class="cls-14" d="M245.13,316.61v-1.78" transform="translate(0 0)"/>
          <path class="cls-15" d="M244.68,316.61v-1.78" transform="translate(0 0)"/>
          <path class="cls-15" d="M244.22,316.61v-1.78" transform="translate(0 0)"/>
          <path class="cls-16" d="M243.82,316.61v-1.78" transform="translate(0 0)"/>
          <path class="cls-17" d="M243.05,316.51V314.9m.38,1.64v-1.69" transform="translate(0 0)"/>
          <path class="cls-18" d="M242.34,316.44V315m.36,1.52V314.9" transform="translate(0 0)"/>
          <path class="cls-19" d="M241.39,316.36v-1.3m.32,1.31V315m.32,1.43V315" transform="translate(0 0)"/>
          <path class="cls-20" d="M241.07,316.34v-1.26" transform="translate(0 0)"/>
          <path class="cls-21" d="M240.76,316.29V315.1" transform="translate(0 0)"/>
          <path class="cls-22" d="M240.42,316.25v-1.1" transform="translate(0 0)"/>
          <path class="cls-23" d="M239.74,316.15l0-.87m.37.92v-1" transform="translate(0 0)"/>
          <path class="cls-23" d="M239.39,316.08v-.77" transform="translate(0 0)"/>
          <path class="cls-24" d="M239.06,316v-.64" transform="translate(0 0)"/>
          <path class="cls-25" d="M238.71,315.94v-.51" transform="translate(0 0)"/>
          <path class="cls-26" d="M238.36,315.9v-.38" transform="translate(0 0)"/>
          <path class="cls-27" d="M238,315.81v-.18" transform="translate(0 0)"/>
        </g>
      </g>
      <g id="pillar_left" data-name="pillar left">
        <g>
          <path class="cls-28" d="M267.79,463a11.89,11.89,0,0,1-5.5-1.22,12.19,12.19,0,0,0-5.4-1.14,12.41,12.41,0,0,0-5.48,1.16,12.11,12.11,0,0,1-5.49,1.2,11.85,11.85,0,0,1-5.5-1.26,12.37,12.37,0,0,0-5.3-1.1,11.88,11.88,0,0,0-5.41,1.13,12.05,12.05,0,0,1-5.53,1.23v3.38a12.18,12.18,0,0,0,5.53-1.24,12,12,0,0,1,5.41-1.14,12.25,12.25,0,0,1,5.3,1.12,12.84,12.84,0,0,0,11,.05,12.27,12.27,0,0,1,5.48-1.17,12,12,0,0,1,5.4,1.16,11.89,11.89,0,0,0,5.47,1.22l0-3.38Z" transform="translate(0 0)"/>
          <path class="cls-29" d="M267.79,466.33a12,12,0,0,1-5.5-1.22,12,12,0,0,0-5.4-1.16,12.27,12.27,0,0,0-5.48,1.17,12.84,12.84,0,0,1-11-.05,12.21,12.21,0,0,0-5.3-1.12,12,12,0,0,0-5.41,1.14,12.18,12.18,0,0,1-5.53,1.24v3.37a12.31,12.31,0,0,0,5.53-1.23,11.87,11.87,0,0,1,5.41-1.15,12.25,12.25,0,0,1,5.3,1.12,11.85,11.85,0,0,0,5.5,1.26,12.38,12.38,0,0,0,5.49-1.2,12.27,12.27,0,0,1,5.48-1.18,11.91,11.91,0,0,1,5.4,1.18,12,12,0,0,0,5.47,1.2l0-3.37" transform="translate(0 0)"/>
          <path class="cls-28" d="M267.79,469.7a12.15,12.15,0,0,1-5.5-1.2,11.91,11.91,0,0,0-5.4-1.18,12.27,12.27,0,0,0-5.48,1.18,12.38,12.38,0,0,1-5.49,1.2,11.85,11.85,0,0,1-5.5-1.26,12.21,12.21,0,0,0-5.3-1.12,11.87,11.87,0,0,0-5.41,1.15,12.31,12.31,0,0,1-5.53,1.23v3.36a12.18,12.18,0,0,0,5.53-1.23,12,12,0,0,1,5.41-1.12,12.4,12.4,0,0,1,5.3,1.1,11.85,11.85,0,0,0,5.5,1.25,12.11,12.11,0,0,0,5.49-1.19,12.27,12.27,0,0,1,5.48-1.16,12.05,12.05,0,0,1,5.4,1.15,11.64,11.64,0,0,0,5.47,1.2l0-3.36" transform="translate(0 0)"/>
          <path class="cls-29" d="M267.76,476.45a11.76,11.76,0,0,1-5.47-1.22,12.19,12.19,0,0,0-5.4-1.15,12.41,12.41,0,0,0-5.48,1.16,12.24,12.24,0,0,1-5.49,1.21,12.1,12.1,0,0,1-5.5-1.26,12.07,12.07,0,0,0-5.3-1.11,11.88,11.88,0,0,0-5.41,1.14,12.31,12.31,0,0,1-5.53,1.23v-3.36a12.17,12.17,0,0,0,5.53-1.26,12,12,0,0,1,5.41-1.12,12.4,12.4,0,0,1,5.3,1.1,11.85,11.85,0,0,0,5.5,1.25,12.11,12.11,0,0,0,5.49-1.19,12.27,12.27,0,0,1,5.48-1.16,12.05,12.05,0,0,1,5.4,1.15,11.77,11.77,0,0,0,5.5,1.2l0,3.39" transform="translate(0 0)"/>
          <path class="cls-28" d="M267.76,479.82a12,12,0,0,1-5.47-1.2,11.91,11.91,0,0,0-5.4-1.18,12.27,12.27,0,0,0-5.48,1.18,12.24,12.24,0,0,1-5.49,1.2,12.1,12.1,0,0,1-5.5-1.26,12.07,12.07,0,0,0-5.3-1.12,11.87,11.87,0,0,0-5.41,1.15,12.31,12.31,0,0,1-5.53,1.23v-3.34a12.3,12.3,0,0,0,5.53-1.26,11.88,11.88,0,0,1,5.41-1.14,12.25,12.25,0,0,1,5.3,1.11,12.1,12.1,0,0,0,5.5,1.26,12.24,12.24,0,0,0,5.49-1.21,12.41,12.41,0,0,1,5.48-1.16,12.19,12.19,0,0,1,5.4,1.15,11.83,11.83,0,0,0,5.5,1.22l0,3.37Z" transform="translate(0 0)"/>
        </g>
        <g>
          <path class="cls-30" d="M233.69,449.09a3.74,3.74,0,0,1,.18.87,3.82,3.82,0,0,1-3.93,3.68h32.11a3.63,3.63,0,0,1-3.81-4.55,1.73,1.73,0,0,1-.61.09H234.26A1.84,1.84,0,0,1,233.69,449.09Z" transform="translate(0 0)"/>
          <path class="cls-31" d="M234.26,447h23.37a1.29,1.29,0,0,1,1.43,1.09,1.3,1.3,0,0,1-1.43,1.11H234.26a1.32,1.32,0,0,1-1.43-1.11A1.3,1.3,0,0,1,234.26,447Z" transform="translate(0 0)"/>
          <path class="cls-31" d="M230,461.8h32v-8.16H230Z" transform="translate(0 0)"/>
        </g>
        <path class="cls-29" d="M234.57,445.65h22.75V334.17H234.57Z" transform="translate(0 0)"/>
        <path class="cls-32" d="M250.78,334.32V445.56m2.56-111.24V445.56" transform="translate(0 0)"/>
        <g>
          <path class="cls-31" d="M230.41,325.32h31.21v-8.18H230.41v8.18Z" transform="translate(0 0)"/>
          <path class="cls-30" d="M233.69,330.76a1.29,1.29,0,0,1,.57-.09h23.37a1.83,1.83,0,0,1,.64.11,2,2,0,0,1-1.38-1.85,2,2,0,0,1,1.44-1.86,3,3,0,0,1-.69.11H234.26a2,2,0,0,1-.66-.08l.13,0a1.86,1.86,0,0,1,1.32,1.81,2,2,0,0,1-1.36,1.83Z" transform="translate(0 0)"/>
          <path class="cls-31" d="M234.26,330.67h23.37a1.13,1.13,0,1,1,0,2.19H234.26a1.13,1.13,0,1,1,0-2.19Z" transform="translate(0 0)"/>
          <path class="cls-31" d="M234.26,325.32h23.38c.8,0,1.44.42,1.44.92s-.64.94-1.44.94H234.26c-.78,0-1.43-.42-1.43-.94S233.48,325.32,234.26,325.32Z" transform="translate(0 0)"/>
        </g>
      </g>
      <g id="ribbon_left" data-name="ribbon left">
        <path class="cls-33" d="M227.47,418.07c-3.16,1.82-5.32,3.69-5,4.63.17.86,1.18,1.5,2.62,2.45,2.27,1.58,3.64,4.4,2.56,5.7a8,8,0,0,0-.21-12.78Z" transform="translate(0 0)"/>
        <path class="cls-34" d="M280.56,375.86c-5-2.05-13.4-3.57-23.09-3.89a71.05,71.05,0,0,0-10.9,1c-13.61,2.28-24,7.71-23.16,12.13,0,.09.06.28.07.37s-5.09-11.5-5.18-11.93c-.91-4.91,10.59-10.95,25.69-13.47A77.12,77.12,0,0,1,257.38,359c9.66,0,18.06,1.24,23.12,3.12l.06,13.75" transform="translate(0 0)"/>
        <path class="cls-33" d="M234.53,389.86c-6.32-.45-10.61-2.14-11.12-4.78-.39-2.1,1.75-4.43,5.56-6.55a47.35,47.35,0,0,0,5.6.42l0,10.91" transform="translate(0 0)"/>
        <path class="cls-33" d="M257.36,381.33c3.95.6,6.9,1.58,8.37,2.79l.14.24c.7,1.44-2.75,4.5-8.55,7.93l0-11" transform="translate(0 0)"/>
        <path class="cls-34" d="M220.39,411.36c-.6-1.79,5.56-5.4,14.25-8.59,4-1.42,7.25-2.9,11.33-4.69,12.08-5.35,21-11.48,19.9-13.71l-.12-.24c.64.53,1.65,11.54,1.65,11.54,1.09,2-7.07,8.09-18.2,13.41-3.56,1.71-11.07,4.48-14.62,5.73-6.35,2.19-12.65,6.35-12.08,7.89l-2.11-11.32v0Z" transform="translate(0 0)"/>
      </g>
      <g id="crown_right" data-name="crown right">
        <path class="cls-35" d="M454.79,308.59a5,5,0,0,1-1.79,1.24c-.74.14-1.7-.68-1.7-.68a3.38,3.38,0,0,1-1.51.89c-.82.2-2-.92-2-.92a4.75,4.75,0,0,1-1.5,1.39,2.1,2.1,0,0,1-1.58-.34,2.45,2.45,0,0,1-.91.85c-.25.13-.67-.07-.67-.07l-.84-.53-1-1-.86-.33s-.4-1.28-.44-1.5l-.11-.8c-.18-.91,1.22-2,3.22-2.41a5.7,5.7,0,0,1,2.88,0,7.49,7.49,0,0,1,4.48-1.15,8,8,0,0,1,4.26,1,7.91,7.91,0,0,1,4.24-1,7.43,7.43,0,0,1,4.47,1.15,5.78,5.78,0,0,1,2.9,0c2,.45,3.4,1.5,3.22,2.41,0,0-.09.58-.12.8s-.44,1.5-.44,1.5l-.87.33-.95,1-.82.53s-.42.2-.67.07a2.35,2.35,0,0,1-.92-.85,2.1,2.1,0,0,1-1.58.34,4.52,4.52,0,0,1-1.5-1.39s-1.15,1.12-2,.92a3.38,3.38,0,0,1-1.5-.89s-.95.82-1.69.68a4.8,4.8,0,0,1-1.78-1.24Z" transform="translate(0 0)"/>
        <g>
          <ellipse class="cls-4" cx="454.75" cy="302.68" rx="1.93" ry="2.74"/>
          <ellipse class="cls-4" cx="454.79" cy="302.68" rx="0.88" ry="2.53"/>
          <ellipse class="cls-5" cx="454.78" cy="299.53" rx="1.3" ry="1.23"/>
          <path class="cls-6" d="M456.58,299.1v.81H453v-.81h1.32v-1.82h-.87v-.82h.87v-.81h.85v.81h.85v.82h-.85v1.82h1.37" transform="translate(0 0)"/>
          <path class="cls-7" d="M455.15,298.37a1.21,1.21,0,0,1,.86,1.54,1.31,1.31,0,0,1-1.62.81,1.21,1.21,0,0,1-.86-1.54,1.27,1.27,0,0,1,.91-.83" transform="translate(0 0)"/>
        </g>
        <g>
          <path class="cls-36" d="M440.17,308a4.24,4.24,0,0,1-.3-1.52,4,4,0,0,1,4-4,3.74,3.74,0,0,1,1.92.52" transform="translate(0 0)"/>
          <path class="cls-7" d="M447.27,305.1a2.38,2.38,0,0,1-.4-1.17c0-1.61,1.66-2.92,3.69-2.92a4.42,4.42,0,0,1,2.31.63" transform="translate(0 0)"/>
          <path class="cls-7" d="M462.24,305.14a2.46,2.46,0,0,0,.35-1.21c0-1.61-1.65-2.92-3.7-2.92a4.35,4.35,0,0,0-2.29.63" transform="translate(0 0)"/>
          <path class="cls-36" d="M469.29,308a4,4,0,0,0,.3-1.52,4,4,0,0,0-3.95-4,3.74,3.74,0,0,0-1.93.52" transform="translate(0 0)"/>
          <ellipse class="cls-37" cx="439" cy="306.15" rx="0.63" ry="0.6"/>
          <ellipse class="cls-37" cx="439.24" cy="303.94" rx="0.63" ry="0.6"/>
          <ellipse class="cls-37" cx="440.66" cy="302.26" rx="0.63" ry="0.6"/>
          <ellipse class="cls-37" cx="442.55" cy="301.35" rx="0.63" ry="0.6"/>
          <ellipse class="cls-37" cx="444.57" cy="301.43" rx="0.63" ry="0.6"/>
          <ellipse class="cls-38" cx="445.8" cy="303.91" rx="0.63" ry="0.6"/>
          <ellipse class="cls-37" cx="446.15" cy="301.81" rx="0.63" ry="0.6"/>
          <ellipse class="cls-37" cx="447.73" cy="300.5" rx="0.63" ry="0.6"/>
          <ellipse class="cls-37" cx="449.72" cy="299.87" rx="0.63" ry="0.6"/>
          <ellipse class="cls-37" cx="451.74" cy="299.94" rx="0.63" ry="0.6"/>
          <ellipse class="cls-37" cx="457.72" cy="299.94" rx="0.63" ry="0.6"/>
          <ellipse class="cls-37" cx="459.75" cy="299.87" rx="0.63" ry="0.6"/>
          <ellipse class="cls-37" cx="461.72" cy="300.5" rx="0.63" ry="0.6"/>
          <ellipse class="cls-37" cx="463.3" cy="301.81" rx="0.63" ry="0.6"/>
          <ellipse class="cls-38" cx="463.65" cy="303.91" rx="0.63" ry="0.6"/>
          <ellipse class="cls-37" cx="464.88" cy="301.43" rx="0.63" ry="0.6"/>
          <ellipse class="cls-37" cx="466.91" cy="301.35" rx="0.63" ry="0.6"/>
          <ellipse class="cls-37" cx="468.8" cy="302.26" rx="0.63" ry="0.6"/>
          <ellipse class="cls-37" cx="470.23" cy="303.94" rx="0.63" ry="0.6"/>
          <ellipse class="cls-37" cx="470.47" cy="306.15" rx="0.63" ry="0.6"/>
        </g>
        <g>
          <path class="cls-4" d="M444.85,314a6.48,6.48,0,0,0-.81-1.51,44.43,44.43,0,0,1,21.5,0l-.73,1.27a11.92,11.92,0,0,0-.53,1.14,33.22,33.22,0,0,0-9.52-1.15,32.87,32.87,0,0,0-9.6,1.2,7.12,7.12,0,0,0-.32-.95h0" transform="translate(0 0)"/>
          <path class="cls-4" d="M454.78,317.42a43.92,43.92,0,0,0,8.54-.88c.92-.28,1.47-.69,1.37-1.18a.85.85,0,0,0-.52-.53,40,40,0,0,0-18.8,0,.85.85,0,0,0-.52.53c-.1.49.45.9,1.37,1.18A44.07,44.07,0,0,0,454.78,317.42Z" transform="translate(0 0)"/>
          <path class="cls-4" d="M465.71,310.91l-.83-.74a3,3,0,0,1-1.79.34c-1-.16-1.3-1.36-1.3-1.36a3.6,3.6,0,0,1-2,.87,2.36,2.36,0,0,1-1.49-.87,3.48,3.48,0,0,1-1.87.64c-.86-.08-1.69-1.16-1.69-1.16s-.88,1.12-1.75,1.2a2.19,2.19,0,0,1-1.58-.75,2.05,2.05,0,0,1-1.5,1,2.64,2.64,0,0,1-2.06-.87,3.53,3.53,0,0,1-1.38,1.29,2.47,2.47,0,0,1-1.74-.38s-.17.38-.28.6a.64.64,0,0,1-.43.27l.25.65a44.49,44.49,0,0,1,21.19,0l.28-.76Z" transform="translate(0 0)"/>
          <path class="cls-4" d="M454.8,307.29l.4.07a1.28,1.28,0,0,0-.09.53,1.52,1.52,0,0,0,1.57,1.47,1.58,1.58,0,0,0,1.48-1s.16-.54.21-.54.05.58.07.58a1.57,1.57,0,0,0,3.1-.24.5.5,0,0,0,0-.17l.49-.49.27.62a1.34,1.34,0,0,0-.14.64,1.45,1.45,0,0,0,1.48,1.42,1.54,1.54,0,0,0,1.24-.63l.32-.41v.5c0,.48.19.93.68,1a2.07,2.07,0,0,0,1.28-.53,8.21,8.21,0,0,0,1.12-1l0,.58a5.34,5.34,0,0,1-1.36,1.54,2.07,2.07,0,0,1-1.33.35,1.28,1.28,0,0,1-.94-.85,2.21,2.21,0,0,1-3.1-.9,2.18,2.18,0,0,1-1.63.7,2.28,2.28,0,0,1-1.76-.81,2.19,2.19,0,0,1-1.53.6,2.27,2.27,0,0,1-1.86-1,2.31,2.31,0,0,1-1.88,1,2.18,2.18,0,0,1-1.52-.6,2.29,2.29,0,0,1-1.75.81,2.19,2.19,0,0,1-1.64-.7,2.15,2.15,0,0,1-2,1.21,2.07,2.07,0,0,1-1.1-.31,1.28,1.28,0,0,1-1,.85,2,2,0,0,1-1.31-.35,5.82,5.82,0,0,1-1.43-1.54l.1-.58a8.78,8.78,0,0,0,1.13,1,2.06,2.06,0,0,0,1.28.53.9.9,0,0,0,.68-1v-.5l.31.41a1.52,1.52,0,0,0,1.23.63,1.45,1.45,0,0,0,1.49-1.42,1.23,1.23,0,0,0-.14-.64l.26-.62.49.49a1,1,0,0,0,0,.17,1.5,1.5,0,0,0,1.55,1.48,1.53,1.53,0,0,0,1.56-1.24,3.79,3.79,0,0,1,.05-.58c.07,0,.2.55.23.54a1.55,1.55,0,0,0,1.48,1,1.52,1.52,0,0,0,1.55-1.47,1.29,1.29,0,0,0-.07-.53l.41-.07Z" transform="translate(0 0)"/>
          <path class="cls-8" d="M454.78,311.12A40.64,40.64,0,0,0,444,312.44a.42.42,0,0,1-.46-.24.38.38,0,0,1,.25-.45,44.49,44.49,0,0,1,21.91,0,.38.38,0,0,1,.25.45.43.43,0,0,1-.46.24A40.77,40.77,0,0,0,454.78,311.12Z" transform="translate(0 0)"/>
          <path class="cls-4" d="M440.44,309.4s-.53-.67-.91-1a3.39,3.39,0,0,0-.95-.46c0-.12.39-.4.81-.4a.8.8,0,0,1,.63.28l.06-.28a.75.75,0,0,1,.49.45,2.38,2.38,0,0,1,.07,1,1.17,1.17,0,0,1-.2.42Z" transform="translate(0 0)"/>
          <path class="cls-4" d="M443.09,308.31l-.16.92-2,.21-.29-.17.05-.32,1.49-1.22.87.58" transform="translate(0 0)"/>
          <path class="cls-4" d="M440.47,309.05a.56.56,0,0,1,.74.08c.25.21.34.54.17.7a.53.53,0,0,1-.74-.08C440.38,309.54,440.3,309.22,440.47,309.05Z" transform="translate(0 0)"/>
          <path class="cls-4" d="M444.07,309.23a.46.46,0,0,1,.18-.59.53.53,0,0,1,.52.38c.08.27,0,.53-.2.59S444.16,309.5,444.07,309.23Z" transform="translate(0 0)"/>
          <path class="cls-4" d="M445,308.06l.71.67,1.71-.93.12-.29-.23-.24-2-.17-.35,1" transform="translate(0 0)"/>
          <path class="cls-4" d="M447,304.86l-.94.9,1.21,1.6.32.12.24-.25.42-1.92-1.25-.45" transform="translate(0 0)"/>
          <path class="cls-4" d="M450.14,307l-.36.88-2-.18-.25-.22.14-.31,1.7-.9.73.73" transform="translate(0 0)"/>
          <ellipse class="cls-4" cx="447.55" cy="307.51" rx="0.69" ry="0.66"/>
          <path class="cls-4" d="M450.86,307.93a.44.44,0,0,1,.29-.55c.2,0,.39.19.42.47s-.1.51-.29.53S450.88,308.2,450.86,307.93Z" transform="translate(0 0)"/>
          <path class="cls-4" d="M452.13,306.94l.56.79,1.88-.58.19-.26-.21-.28-1.86-.54-.56.87" transform="translate(0 0)"/>
          <path class="cls-4" d="M454.76,304l-1.2.73.89,1.93.31.2.31-.2.9-1.93-1.21-.73" transform="translate(0 0)"/>
          <path class="cls-4" d="M457.41,306.94l-.55.79-1.87-.58-.2-.26.2-.28,1.87-.54.55.87" transform="translate(0 0)"/>
          <ellipse class="cls-4" cx="454.78" cy="306.89" rx="0.69" ry="0.66"/>
          <path class="cls-4" d="M458.74,307.93a.47.47,0,0,0-.31-.55c-.2,0-.39.19-.42.47s.1.51.29.53S458.7,308.2,458.74,307.93Z" transform="translate(0 0)"/>
          <path class="cls-4" d="M459.42,307l.37.88,2-.18.25-.22-.14-.31-1.71-.9-.73.73" transform="translate(0 0)"/>
          <path class="cls-4" d="M462.62,304.86l.93.9-1.2,1.6-.32.12-.24-.25-.42-1.92,1.25-.45" transform="translate(0 0)"/>
          <path class="cls-4" d="M464.59,308.06l-.71.67-1.71-.93-.14-.29.26-.24,2-.17.34,1" transform="translate(0 0)"/>
          <ellipse class="cls-4" cx="462.03" cy="307.51" rx="0.69" ry="0.66"/>
          <path class="cls-4" d="M465.51,309.23a.46.46,0,0,0-.18-.59.53.53,0,0,0-.52.38c-.08.27,0,.53.2.59S465.42,309.5,465.51,309.23Z" transform="translate(0 0)"/>
          <path class="cls-4" d="M468.86,309.4s.53-.67.92-1a3.25,3.25,0,0,1,.94-.46c0-.12-.39-.4-.81-.4a.8.8,0,0,0-.63.28l-.06-.28a.78.78,0,0,0-.5.45,2.34,2.34,0,0,0,0,1,1,1,0,0,0,.18.42Z" transform="translate(0 0)"/>
          <path class="cls-4" d="M466.21,308.31l.16.92,2,.21.29-.17-.07-.32-1.47-1.22-.87.58" transform="translate(0 0)"/>
          <path class="cls-4" d="M468.87,309.05c-.15-.17-.49-.13-.74.08s-.33.54-.17.7a.56.56,0,0,0,.76-.08C469,309.54,469,309.22,468.87,309.05Z" transform="translate(0 0)"/>
        </g>
        <g>
          <path class="cls-9" d="M444.11,314l.43-.7.91.18-.53.79-.81-.27" transform="translate(0 0)"/>
          <path class="cls-10" d="M448,313.33l-1,.16a.47.47,0,0,1-.53-.37.46.46,0,0,1,.38-.49l1-.14,1-.15a.46.46,0,0,1,.52.35.44.44,0,0,1-.38.49l-1,.15" transform="translate(0 0)"/>
          <ellipse class="cls-11" cx="451.3" cy="312.62" rx="0.62" ry="0.57"/>
          <path class="cls-9" d="M454.82,312.87h-1.35a.44.44,0,1,1,0-.87h2.74a.44.44,0,1,1,0,.87h-1.38" transform="translate(0 0)"/>
          <ellipse class="cls-11" cx="458.26" cy="312.62" rx="0.62" ry="0.57"/>
          <path class="cls-10" d="M461.54,313.33l1,.16a.48.48,0,0,0,.54-.37.46.46,0,0,0-.38-.49l-1-.14-1-.15a.44.44,0,0,0-.51.35.41.41,0,0,0,.37.49l1,.15" transform="translate(0 0)"/>
          <path class="cls-9" d="M465.37,314.06l-.35-.74-.93.08.44.83.84-.17" transform="translate(0 0)"/>
          <path class="cls-3" d="M454.76,316.62a36.5,36.5,0,0,1-8.82-.91,37.72,37.72,0,0,1,8.82-1,37,37,0,0,1,8.86,1A36.8,36.8,0,0,1,454.76,316.62Z" transform="translate(0 0)"/>
          <path class="cls-12" d="M456.36,316.51v-1.62m-.81,1.68v-1.72m-.6,1.75v-1.77" transform="translate(0 0)"/>
          <path class="cls-13" d="M454.45,316.61v-1.78" transform="translate(0 0)"/>
          <path class="cls-14" d="M454,316.61v-1.78" transform="translate(0 0)"/>
          <path class="cls-15" d="M453.52,316.61v-1.78" transform="translate(0 0)"/>
          <path class="cls-15" d="M453.05,316.61v-1.78" transform="translate(0 0)"/>
          <path class="cls-16" d="M452.66,316.61v-1.78" transform="translate(0 0)"/>
          <path class="cls-17" d="M451.89,316.51V314.9m.38,1.64v-1.69" transform="translate(0 0)"/>
          <path class="cls-18" d="M451.18,316.44V315m.36,1.52V314.9" transform="translate(0 0)"/>
          <path class="cls-19" d="M450.23,316.36v-1.3m.32,1.31V315m.32,1.43V315" transform="translate(0 0)"/>
          <path class="cls-20" d="M449.9,316.34v-1.26" transform="translate(0 0)"/>
          <path class="cls-21" d="M449.6,316.29V315.1" transform="translate(0 0)"/>
          <path class="cls-22" d="M449.26,316.25v-1.1" transform="translate(0 0)"/>
          <path class="cls-23" d="M448.57,316.15v-.87m.36.92v-1" transform="translate(0 0)"/>
          <path class="cls-23" d="M448.22,316.08v-.77" transform="translate(0 0)"/>
          <path class="cls-24" d="M447.9,316v-.64" transform="translate(0 0)"/>
          <path class="cls-25" d="M447.55,315.94v-.51" transform="translate(0 0)"/>
          <path class="cls-26" d="M447.2,315.9v-.38" transform="translate(0 0)"/>
          <path class="cls-27" d="M446.82,315.81v-.18" transform="translate(0 0)"/>
        </g>
      </g>
      <g id="pillar_right" data-name="pillar right">
        <g>
          <g>
            <path class="cls-28" d="M476.63,463a11.86,11.86,0,0,1-5.5-1.22,12.24,12.24,0,0,0-5.41-1.14,12.37,12.37,0,0,0-5.47,1.16,12.11,12.11,0,0,1-5.49,1.2,11.82,11.82,0,0,1-5.5-1.26,12.38,12.38,0,0,0-5.31-1.1,11.87,11.87,0,0,0-5.4,1.13A12.05,12.05,0,0,1,433,463v3.38a12.18,12.18,0,0,0,5.53-1.24A12,12,0,0,1,444,464a12.29,12.29,0,0,1,5.31,1.12,12.84,12.84,0,0,0,11,.05,12.23,12.23,0,0,1,5.47-1.17,12.09,12.09,0,0,1,5.41,1.16,11.89,11.89,0,0,0,5.47,1.22l0-3.38Z" transform="translate(0 0)"/>
            <path class="cls-29" d="M476.63,466.33a12,12,0,0,1-5.5-1.22,12.09,12.09,0,0,0-5.41-1.16,12.23,12.23,0,0,0-5.47,1.17,12.84,12.84,0,0,1-11-.05A12.23,12.23,0,0,0,444,464a12,12,0,0,0-5.4,1.14,12.18,12.18,0,0,1-5.53,1.24v3.37a12.31,12.31,0,0,0,5.53-1.23,11.86,11.86,0,0,1,5.4-1.15,12.29,12.29,0,0,1,5.31,1.12,11.82,11.82,0,0,0,5.5,1.26,12.38,12.38,0,0,0,5.49-1.2,12.22,12.22,0,0,1,5.47-1.18,12,12,0,0,1,5.41,1.18,12,12,0,0,0,5.47,1.2l0-3.37" transform="translate(0 0)"/>
            <path class="cls-28" d="M476.63,469.7a12.12,12.12,0,0,1-5.5-1.2,12,12,0,0,0-5.41-1.18,12.22,12.22,0,0,0-5.47,1.18,12.38,12.38,0,0,1-5.49,1.2,11.82,11.82,0,0,1-5.5-1.26,12.23,12.23,0,0,0-5.31-1.12,11.86,11.86,0,0,0-5.4,1.15A12.31,12.31,0,0,1,433,469.7v3.36a12.18,12.18,0,0,0,5.53-1.23,12,12,0,0,1,5.4-1.12,12.45,12.45,0,0,1,5.31,1.1,11.82,11.82,0,0,0,5.5,1.25,12.11,12.11,0,0,0,5.49-1.19,12.23,12.23,0,0,1,5.47-1.16,12.1,12.1,0,0,1,5.41,1.15,11.64,11.64,0,0,0,5.47,1.2l0-3.36" transform="translate(0 0)"/>
            <path class="cls-29" d="M476.6,476.45a11.76,11.76,0,0,1-5.47-1.22,12.23,12.23,0,0,0-5.41-1.15,12.37,12.37,0,0,0-5.47,1.16,12.24,12.24,0,0,1-5.49,1.21,12.07,12.07,0,0,1-5.5-1.26,12.09,12.09,0,0,0-5.31-1.11,11.86,11.86,0,0,0-5.4,1.14,12.31,12.31,0,0,1-5.53,1.23v-3.36a12.17,12.17,0,0,0,5.53-1.26,12,12,0,0,1,5.4-1.12,12.45,12.45,0,0,1,5.31,1.1,11.82,11.82,0,0,0,5.5,1.25,12.11,12.11,0,0,0,5.49-1.19,12.23,12.23,0,0,1,5.47-1.16,12.1,12.1,0,0,1,5.41,1.15,11.74,11.74,0,0,0,5.5,1.2l0,3.39" transform="translate(0 0)"/>
            <path class="cls-28" d="M476.6,479.82a12,12,0,0,1-5.47-1.2,12,12,0,0,0-5.41-1.18,12.22,12.22,0,0,0-5.47,1.18,12.24,12.24,0,0,1-5.49,1.2,12.07,12.07,0,0,1-5.5-1.26,12.08,12.08,0,0,0-5.31-1.12,11.86,11.86,0,0,0-5.4,1.15,12.31,12.31,0,0,1-5.53,1.23v-3.34a12.3,12.3,0,0,0,5.53-1.26,11.86,11.86,0,0,1,5.4-1.14,12.3,12.3,0,0,1,5.31,1.11,12.07,12.07,0,0,0,5.5,1.26,12.24,12.24,0,0,0,5.49-1.21,12.37,12.37,0,0,1,5.47-1.16,12.23,12.23,0,0,1,5.41,1.15,11.83,11.83,0,0,0,5.5,1.22l0,3.37Z" transform="translate(0 0)"/>
          </g>
          <g>
            <path class="cls-30" d="M442.53,449.09a3.74,3.74,0,0,1,.18.87,3.82,3.82,0,0,1-3.94,3.68h32.12a3.63,3.63,0,0,1-3.81-4.55,1.73,1.73,0,0,1-.61.09H443.1A1.79,1.79,0,0,1,442.53,449.09Z" transform="translate(0 0)"/>
            <path class="cls-31" d="M443.1,447h23.37a1.29,1.29,0,0,1,1.42,1.09,1.3,1.3,0,0,1-1.42,1.11H443.1a1.32,1.32,0,0,1-1.43-1.11A1.3,1.3,0,0,1,443.1,447Z" transform="translate(0 0)"/>
            <path class="cls-31" d="M438.82,461.8h32v-8.16h-32Z" transform="translate(0 0)"/>
          </g>
          <path class="cls-29" d="M443.41,445.65h22.75V334.17H443.41Z" transform="translate(0 0)"/>
          <path class="cls-32" d="M459.62,334.32V445.56m2.56-111.24V445.56" transform="translate(0 0)"/>
          <g>
            <path class="cls-31" d="M439.25,325.32h31.21v-8.18H439.25v8.18Z" transform="translate(0 0)"/>
            <path class="cls-30" d="M442.53,330.76a1.29,1.29,0,0,1,.57-.09h23.37a1.91,1.91,0,0,1,.64.11,2,2,0,0,1-1.39-1.85,2,2,0,0,1,1.45-1.86,3.11,3.11,0,0,1-.69.11H443.1a2,2,0,0,1-.66-.08l.13,0a1.85,1.85,0,0,1,1.31,1.81,2,2,0,0,1-1.35,1.83Z" transform="translate(0 0)"/>
            <path class="cls-31" d="M443.1,330.67h23.37a1.13,1.13,0,1,1,0,2.19H443.1a1.13,1.13,0,1,1,0-2.19Z" transform="translate(0 0)"/>
            <path class="cls-31" d="M443.1,325.32h23.38c.8,0,1.44.42,1.44.92s-.64.94-1.44.94H443.1c-.78,0-1.43-.42-1.43-.94S442.32,325.32,443.1,325.32Z" transform="translate(0 0)"/>
          </g>
        </g>
      </g>
      <g id="ribbon_right" data-name="ribbon right">
        <g>
          <path class="cls-33" d="M473.33,418.07c3.16,1.82,5.32,3.69,5,4.63-.17.86-1.18,1.5-2.62,2.45-2.27,1.58-3.64,4.4-2.56,5.7a8,8,0,0,1,.21-12.78Z" transform="translate(0 0)"/>
          <path class="cls-34" d="M420.24,375.86c4.95-2.05,13.4-3.57,23.08-3.89a71.07,71.07,0,0,1,10.91,1c13.61,2.28,24,7.71,23.16,12.13,0,.09-.06.28-.07.37s5.09-11.5,5.18-11.93c.91-4.91-10.59-10.95-25.69-13.47A77.12,77.12,0,0,0,443.42,359c-9.66,0-18.06,1.24-23.13,3.12l-.05,13.75" transform="translate(0 0)"/>
          <path class="cls-33" d="M466.27,389.86c6.31-.45,10.61-2.14,11.12-4.78.39-2.1-1.75-4.43-5.56-6.55a47.52,47.52,0,0,1-5.6.42l0,10.91" transform="translate(0 0)"/>
          <path class="cls-33" d="M443.44,381.33c-3.95.6-6.91,1.58-8.38,2.79l-.14.24c-.7,1.44,2.76,4.5,8.56,7.93l0-11" transform="translate(0 0)"/>
          <path class="cls-34" d="M480.41,411.36c.6-1.79-5.56-5.4-14.25-8.59-4-1.42-7.25-2.9-11.33-4.69-12.08-5.35-21-11.48-19.91-13.71l.13-.24c-.64.53-1.65,11.54-1.65,11.54-1.09,2,7.07,8.09,18.2,13.41,3.55,1.71,11.07,4.48,14.61,5.73,6.36,2.19,12.66,6.35,12.09,7.89l2.11-11.32v0Z" transform="translate(0 0)"/>
        </g>
      </g>
      <g id="plus_ultra" data-name="plus ultra">
        <path class="cls-5" d="M233,370.51c2.78-1,4.6-2.21,3.72-4.4-.57-1.4-2-1.66-4.16-.88l-3.79,1.39,3.42,8.44c.37-.17.75-.34,1.13-.48s.8-.25,1.19-.36l-1.51-3.7Zm-1.65-4.07,1-.35a1.67,1.67,0,0,1,2.1,1.12,1.65,1.65,0,0,1-.7,2.17,6.81,6.81,0,0,1-1,.46l-1.38-3.4" transform="translate(0 0)"/>
        <path class="cls-5" d="M241.89,362.91c-.4.11-.8.22-1.2.31s-.83.12-1.23.16l2,8.8,6.13-1.24a2.1,2.1,0,0,1-.19-.53,2.83,2.83,0,0,1-.06-.57c-1.08.31-2.25.64-3.65.92l-1.77-7.85" transform="translate(0 0)"/>
        <path class="cls-5" d="M254.18,370.48c1.15-3.19,2.55-6.24,3.94-9.34a5,5,0,0,1-.76.1,4.69,4.69,0,0,1-.75,0c-.75,2.26-1.66,4.5-2.62,6.72-1.15-2.11-2.42-4.18-3.4-6.31l-1.45.17c-.47,0-1,0-1.45,0,1.76,2.89,3.47,5.76,5.09,8.73.23-.05.45-.09.7-.12s.47,0,.7,0" transform="translate(0 0)"/>
        <path class="cls-5" d="M267,363.72c.21-.43.43-.84.67-1.25a5.08,5.08,0,0,0-2.53-.88c-2.51-.25-3.94.86-4.11,2.37-.36,3.16,4.64,2.9,4.4,5-.1.89-1.05,1.26-2.07,1.16a2.15,2.15,0,0,1-2.12-1.67l-.3,0a10.21,10.21,0,0,1-.68,1.61,5.9,5.9,0,0,0,2.59.83c2.57.27,4.51-.76,4.69-2.44.33-3-4.71-3.17-4.52-4.95.09-.74.66-1.23,2-1.11a2,2,0,0,1,1.77,1.33l.25,0" transform="translate(0 0)"/>
        <path class="cls-5" d="M434.42,371c.87-3.26,2-6.41,3.07-9.62a4.54,4.54,0,0,1-.75.16c-.23,0-.5.05-.75.07-.52,2.29-1.23,4.6-2,6.91-1.34-2-2.8-4-4-6-.48.1-1,.21-1.43.28s-1,.1-1.46.16c2,2.71,4,5.44,5.88,8.27a7.16,7.16,0,0,1,.7-.17l.69,0" transform="translate(0 0)"/>
        <path class="cls-5" d="M443.07,361.42c-.4,0-.82.06-1.23.05s-.84-.06-1.25-.09l-.16,9,6.28.11a2.8,2.8,0,0,1-.08-.58,2.28,2.28,0,0,1,.1-.56c-1.14.07-2.36.14-3.8.12l.14-8" transform="translate(0 0)"/>
        <path class="cls-5" d="M452.93,362.89c1,.09,2,.27,2.94.44a3.63,3.63,0,0,1,0-.58,2.15,2.15,0,0,1,.14-.54l-8.5-.7a3.57,3.57,0,0,1,0,.56,2.19,2.19,0,0,1-.14.56,25.74,25.74,0,0,1,3.09.07l-.74,8.08c.41,0,.83,0,1.23,0s.83.1,1.24.15l.74-8.08" transform="translate(0 0)"/>
        <path class="cls-5" d="M456.41,371.74c.41.07.83.13,1.24.21s.79.21,1.19.32l1-4.11H460c.22.58.53,1.26.68,1.67L461.9,373c.51.08,1,.15,1.47.25s1,.25,1.46.39l-.44-.94c-.67-1.4-1.38-2.81-2-4.23,1.57.06,2.77-.5,3.08-1.76a1.94,1.94,0,0,0-.95-2.14,8.29,8.29,0,0,0-2.56-.84l-3.42-.74-2.16,8.8m4.4-7.59c1,.23,2.23.38,2.23,1.5a4.19,4.19,0,0,1-.09.67c-.32,1.32-1.31,1.77-3,1.28l.84-3.45" transform="translate(0 0)"/>
        <path class="cls-5" d="M472.6,374.44a26.49,26.49,0,0,1-.44,2.94c.42.2.86.38,1.26.62s.8.48,1.21.73l.84-10.12-.58-.27a3.48,3.48,0,0,1-.51-.34l-8.94,5.67.72.35c.24.13.43.27.66.4.75-.63,1.54-1.15,2.43-1.82l3.35,1.83Zm-2.54-2.32,3-1.92-.35,3.36-2.64-1.44" transform="translate(0 0)"/>
      </g>
    </g>
    <g id="crown_crest" data-name="crown crest">
      <path class="cls-9" d="M349.51,255.81c9.3,0,17.58,1.38,23,3.51a44,44,0,0,0,11.76,3,47.38,47.38,0,0,0,9.59.34,37.36,37.36,0,0,1,14.87,3.47A40.07,40.07,0,0,1,419.62,273l-2.2,2-.63,5.55-6,6.88-3,2.57-7.12,5.69L397,296l-1.11,3.15-46.07-5.41-46.23,5.41L302.48,296l-3.65-.3L291.72,290l-3-2.57-6-6.88-.62-5.55-2.21-2a40.54,40.54,0,0,1,10.92-6.87,37.4,37.4,0,0,1,14.87-3.47,47.38,47.38,0,0,0,9.59-.34,44,44,0,0,0,11.76-3c5.4-2.13,13.21-3.51,22.51-3.51Z" transform="translate(0 0)"/>
      <g>
        <path class="cls-31" d="M315.48,268l1.93,1.55,2.91-4.76a10.44,10.44,0,0,1-5.24-10.39c.3-6.07,7.7-11.08,17.08-11.08a22,22,0,0,1,12.38,3.47c.08-.94.17-1.75.29-2.61A25.44,25.44,0,0,0,332.16,241c-10.79,0-19.23,6.15-19.64,13.4,0,.43-.07.85-.07,1.29a12.94,12.94,0,0,0,4.57,9.78L315.48,268" transform="translate(0 0)"/>
        <path class="cls-31" d="M315.6,268c-3.68-2.75-6-6.49-6-10.61,0-4.73,3.11-9,7.82-11.77a12.41,12.41,0,0,0-4.92,8.72c0,.43-.07.85-.07,1.29a12.94,12.94,0,0,0,4.57,9.78L315.6,268" transform="translate(0 0)"/>
        <path class="cls-31" d="M283.09,272.85a12.82,12.82,0,0,1-3.33-8.57,12.55,12.55,0,0,1,1.28-5.53c3-6.13,12.34-10.6,23.46-10.6a38.29,38.29,0,0,1,8.6.94,15.94,15.94,0,0,0-1.52,2.07,37.31,37.31,0,0,0-7.08-.67c-10.18,0-18.7,4-21.17,9.31a10.23,10.23,0,0,0-1,4.48,10.63,10.63,0,0,0,3.91,8.15l-3.69,6-2-1.57,2.53-4Z" transform="translate(0 0)"/>
        <path class="cls-31" d="M286.86,252.67a15.56,15.56,0,0,0-5.82,6.08,12.55,12.55,0,0,0-1.28,5.53,12.82,12.82,0,0,0,3.33,8.57l-2.24,3.62a15.19,15.19,0,0,1-3.38-9.38c0-5.88,3.73-11,9.39-14.42Z" transform="translate(0 0)"/>
        <path class="cls-31" d="M350.06,239.78a5.15,5.15,0,0,1,5.09,3.82,46,46,0,0,1,.58,6.47c0,.25,0,.49,0,.73s.06.57.07.85a39.14,39.14,0,0,0,1.78,11.93l-7.5,7.19-7.61-7.19a38.7,38.7,0,0,0,1.81-11.93c0-.28.06-.57.06-.85s0-.48,0-.73a43.2,43.2,0,0,1,.58-6.47,5.24,5.24,0,0,1,5.18-3.82Z" transform="translate(0 0)"/>
        <path class="cls-31" d="M350.06,242.12a2.62,2.62,0,0,1,2.61,1.94,39.16,39.16,0,0,1,.56,6.13c0,.23,0,.45,0,.68s0,.54.06.82A36.11,36.11,0,0,0,355,263l-5,4.69L345.06,263a36.71,36.71,0,0,0,1.69-11.27c0-.28.06-.54.06-.82s0-.45,0-.68a41.73,41.73,0,0,1,.56-6.13A2.73,2.73,0,0,1,350.06,242.12Z" transform="translate(0 0)"/>
        <path class="cls-31" d="M384.58,268l-1.95,1.55-2.91-4.76a10.76,10.76,0,0,0,5.34-9.11,9,9,0,0,0-.09-1.28c-.29-6.07-7.7-11.08-17.08-11.08a22,22,0,0,0-12.37,3.47c-.09-.94-.17-1.75-.31-2.61A25.47,25.47,0,0,1,367.89,241c10.8,0,19.24,6.15,19.64,13.4a11,11,0,0,1,.07,1.29,12.94,12.94,0,0,1-4.57,9.78l1.55,2.54" transform="translate(0 0)"/>
        <path class="cls-31" d="M384.45,268c3.69-2.75,6-6.49,6-10.61,0-4.73-3.11-9-7.81-11.77a12.4,12.4,0,0,1,4.91,8.72,11,11,0,0,1,.07,1.29,12.94,12.94,0,0,1-4.57,9.78l1.42,2.59" transform="translate(0 0)"/>
        <path class="cls-31" d="M417,272.85a12.87,12.87,0,0,0,3.33-8.57,12.69,12.69,0,0,0-1.27-5.53c-3-6.13-12.35-10.6-23.46-10.6a38.32,38.32,0,0,0-8.61.94,14.28,14.28,0,0,1,1.52,2.07,37.34,37.34,0,0,1,7.09-.67c10.17,0,18.69,4,21.15,9.31a10.23,10.23,0,0,1,1,4.48,10.62,10.62,0,0,1-3.9,8.15l3.68,6,2-1.57Z" transform="translate(0 0)"/>
        <path class="cls-31" d="M413.2,252.67a15.56,15.56,0,0,1,5.82,6.08,12.69,12.69,0,0,1,1.27,5.53,12.87,12.87,0,0,1-3.33,8.57l2.24,3.62a15.19,15.19,0,0,0,3.38-9.38c0-5.88-3.74-11-9.38-14.42Z" transform="translate(0 0)"/>
        <ellipse class="cls-39" cx="350.07" cy="234.22" rx="6.2" ry="5.88"/>
        <path class="cls-4" d="M348.45,217.76v3.16h-3.39v3.22h3.39v9.25h-4.27c-.05.3-.31.52-.31.83a5.55,5.55,0,0,0,.49,2.3s0,0,0,0h11.37s0,0,0,0a5.71,5.71,0,0,0,.49-2.3c0-.31-.27-.53-.31-.83h-4.14v-9.25h3.39v-3.22h-3.39v-3.16Z" transform="translate(0 0)"/>
      </g>
      <g>
        <ellipse class="cls-40" cx="350.06" cy="264.52" rx="2.67" ry="2.52"/>
        <ellipse class="cls-40" cx="350.06" cy="259.56" rx="2.67" ry="2.52"/>
        <ellipse class="cls-40" cx="350.06" cy="254.24" rx="2.13" ry="2.02"/>
        <ellipse class="cls-40" cx="350.06" cy="249.45" rx="1.54" ry="1.46"/>
        <ellipse class="cls-40" cx="350.06" cy="245.25" rx="1.23" ry="1.16"/>
        <ellipse class="cls-40" cx="278.52" cy="278.14" rx="1.54" ry="1.46"/>
        <ellipse class="cls-40" cx="276.42" cy="274.43" rx="1.54" ry="1.46"/>
        <ellipse class="cls-40" cx="275.02" cy="270.12" rx="1.54" ry="1.46"/>
        <ellipse class="cls-40" cx="274.83" cy="265.5" rx="1.54" ry="1.46"/>
        <ellipse class="cls-40" cx="275.97" cy="260.96" rx="1.54" ry="1.46"/>
        <ellipse class="cls-40" cx="278.33" cy="256.83" rx="1.54" ry="1.46"/>
        <ellipse class="cls-40" cx="281.48" cy="253.43" rx="1.54" ry="1.46"/>
        <ellipse class="cls-40" cx="285.15" cy="250.61" rx="1.54" ry="1.46"/>
        <ellipse class="cls-40" cx="289.52" cy="248.3" rx="1.54" ry="1.46"/>
        <ellipse class="cls-40" cx="294.06" cy="246.67" rx="1.54" ry="1.46"/>
        <ellipse class="cls-40" cx="299.12" cy="245.76" rx="1.54" ry="1.46"/>
        <ellipse class="cls-40" cx="303.94" cy="245.5" rx="1.54" ry="1.46"/>
        <ellipse class="cls-40" cx="308.66" cy="245.67" rx="1.54" ry="1.46"/>
        <ellipse class="cls-40" cx="313.89" cy="266.45" rx="1.54" ry="1.46"/>
        <ellipse class="cls-40" cx="311.28" cy="262.71" rx="1.54" ry="1.46"/>
        <ellipse class="cls-40" cx="309.89" cy="258.65" rx="1.54" ry="1.46"/>
        <ellipse class="cls-40" cx="310.06" cy="254.2" rx="1.54" ry="1.46"/>
        <ellipse class="cls-40" cx="311.02" cy="249.72" rx="1.54" ry="1.46"/>
        <ellipse class="cls-40" cx="313.38" cy="245.67" rx="1.54" ry="1.46"/>
        <ellipse class="cls-40" cx="316.96" cy="242.86" rx="1.54" ry="1.46"/>
        <ellipse class="cls-40" cx="321.15" cy="240.53" rx="1.54" ry="1.46"/>
        <ellipse class="cls-40" cx="325.78" cy="239.15" rx="1.54" ry="1.46"/>
        <ellipse class="cls-40" cx="330.58" cy="238.32" rx="1.54" ry="1.46"/>
        <ellipse class="cls-40" cx="335.3" cy="238.39" rx="1.54" ry="1.46"/>
        <ellipse class="cls-40" cx="340.19" cy="239.22" rx="1.54" ry="1.46"/>
        <ellipse class="cls-40" cx="344.72" cy="240.79" rx="1.54" ry="1.46"/>
        <ellipse class="cls-40" cx="355.32" cy="240.79" rx="1.54" ry="1.46"/>
        <ellipse class="cls-40" cx="359.86" cy="239.22" rx="1.54" ry="1.46"/>
        <ellipse class="cls-40" cx="364.76" cy="238.39" rx="1.54" ry="1.46"/>
        <ellipse class="cls-40" cx="369.46" cy="238.32" rx="1.54" ry="1.46"/>
        <ellipse class="cls-40" cx="374.28" cy="239.15" rx="1.54" ry="1.46"/>
        <ellipse class="cls-40" cx="378.9" cy="240.53" rx="1.54" ry="1.46"/>
        <ellipse class="cls-40" cx="383.1" cy="242.86" rx="1.54" ry="1.46"/>
        <ellipse class="cls-40" cx="386.67" cy="245.67" rx="1.54" ry="1.46"/>
        <ellipse class="cls-40" cx="389.03" cy="249.72" rx="1.54" ry="1.46"/>
        <ellipse class="cls-40" cx="390" cy="254.2" rx="1.54" ry="1.46"/>
        <ellipse class="cls-40" cx="390.17" cy="258.65" rx="1.54" ry="1.46"/>
        <ellipse class="cls-40" cx="388.77" cy="262.71" rx="1.54" ry="1.46"/>
        <ellipse class="cls-40" cx="386.16" cy="266.45" rx="1.54" ry="1.46"/>
        <ellipse class="cls-40" cx="391.4" cy="245.67" rx="1.54" ry="1.46"/>
        <ellipse class="cls-40" cx="396.12" cy="245.5" rx="1.54" ry="1.46"/>
        <ellipse class="cls-40" cx="400.93" cy="245.76" rx="1.54" ry="1.46"/>
        <ellipse class="cls-40" cx="406" cy="246.67" rx="1.54" ry="1.46"/>
        <ellipse class="cls-40" cx="410.54" cy="248.3" rx="1.54" ry="1.46"/>
        <ellipse class="cls-40" cx="414.9" cy="250.61" rx="1.54" ry="1.46"/>
        <ellipse class="cls-40" cx="418.56" cy="253.43" rx="1.54" ry="1.46"/>
        <ellipse class="cls-40" cx="421.71" cy="256.83" rx="1.54" ry="1.46"/>
        <ellipse class="cls-40" cx="424.07" cy="260.96" rx="1.54" ry="1.46"/>
        <ellipse class="cls-40" cx="425.21" cy="265.5" rx="1.54" ry="1.46"/>
        <ellipse class="cls-40" cx="425.04" cy="270.12" rx="1.54" ry="1.46"/>
        <ellipse class="cls-40" cx="423.64" cy="274.43" rx="1.54" ry="1.46"/>
        <ellipse class="cls-40" cx="421.54" cy="278.14" rx="1.54" ry="1.46"/>
      </g>
      <g>
        <path class="cls-31" d="M350.21,316.65c-17.16,0-32.55-2.06-43.53-5.36a1.69,1.69,0,0,1-1.17-1.75,1.63,1.63,0,0,1,1.17-1.64c11-3.3,26.37-5.33,43.53-5.36s32.55,2.06,43.53,5.36a1.63,1.63,0,0,1,1.16,1.64,1.7,1.7,0,0,1-1.16,1.75c-11,3.3-26.35,5.33-43.53,5.36" transform="translate(0 0)"/>
        <path class="cls-31" d="M350.1,302.53c-17.38,0-33,2.21-44,5.6.91-.44.83-1.57-.31-4.48-1.37-3.55-3.5-3.39-3.5-3.39,12.13-3.59,29-5.83,47.83-5.85s35.84,2.26,48,5.85c0,0-2.15-.16-3.52,3.39-1.13,2.91-1.22,4-.29,4.48-11-3.39-26.87-5.56-44.24-5.6" transform="translate(0 0)"/>
        <path class="cls-31" d="M350.17,294.42c-18.8,0-35.7,2.27-47.83,5.85a1.51,1.51,0,0,1-1.93-.84,1.49,1.49,0,0,1,1-1.89c12.2-3.74,29.51-6.09,48.78-6.13s36.66,2.39,48.86,6.13a1.49,1.49,0,0,1,1,1.89,1.51,1.51,0,0,1-1.93.84c-12.14-3.58-29.1-5.82-47.91-5.85" transform="translate(0 0)"/>
        <path class="cls-31" d="M350.28,279.69,352,280a6.53,6.53,0,0,0-.33,2.28,6.71,6.71,0,0,0,6.88,6.51,6.84,6.84,0,0,0,6.54-4.49c.11.07.66-2.35,1-2.33s.21,2.52.31,2.48a6.93,6.93,0,0,0,13.69-1,5.24,5.24,0,0,0-.05-.79l2.15-2.13,1.17,2.71a5.83,5.83,0,0,0-.65,2.85,6.39,6.39,0,0,0,6.57,6.21,6.65,6.65,0,0,0,5.46-2.76l1.38-1.75v2.15c0,2.17.92,4.1,3,4.45,0,0,2.43.14,5.65-2.38a37.3,37.3,0,0,0,5-4.61l.28,2.52s-2.66,4.13-5.56,5.81c-1.6.93-4,1.89-5.92,1.58a5.79,5.79,0,0,1-4.22-3.83,9.79,9.79,0,0,1-5,1.36,9.51,9.51,0,0,1-8.85-5.41,9.7,9.7,0,0,1-7.28,3.15,10.15,10.15,0,0,1-7.79-3.58,10.23,10.23,0,0,1-15.15-1.65A10.22,10.22,0,0,1,335.1,289a10.17,10.17,0,0,1-7.81,3.58,9.67,9.67,0,0,1-7.26-3.15,9.53,9.53,0,0,1-8.85,5.41,9.73,9.73,0,0,1-5-1.36A5.82,5.82,0,0,1,302,297.3c-1.9.31-4.31-.65-5.91-1.58-2.91-1.68-5.57-5.81-5.57-5.81l.28-2.52a37.87,37.87,0,0,0,5,4.61c3.21,2.53,5.63,2.38,5.63,2.38,2.12-.35,3-2.28,3-4.45l0-2.15,1.39,1.75a6.65,6.65,0,0,0,5.46,2.76,6.39,6.39,0,0,0,6.56-6.21,5.94,5.94,0,0,0-.64-2.85l1.16-2.71,2.16,2.13a7,7,0,0,0-.06.79,6.94,6.94,0,0,0,13.71,1c.08,0,.07-2.45.31-2.48s.84,2.4.93,2.33a6.88,6.88,0,0,0,6.56,4.49,6.7,6.7,0,0,0,6.87-6.51,5.72,5.72,0,0,0-.34-2.28l1.81-.31" transform="translate(0 0)"/>
        <path class="cls-31" d="M291.72,288.85a3.2,3.2,0,0,0-1-1.49c-1.11-.95-2.58-1.1-3.3-.35a1.29,1.29,0,0,0-.24.35s-1.56-2.91-3.38-3.89-4.88-.73-4.88-.73a4.07,4.07,0,0,1,4.18-4,4.46,4.46,0,0,1,3.48,1.55l.32-1.5a4.13,4.13,0,0,1,2.77,2.55c.87,2.17-.08,5.32-.08,5.32a9.13,9.13,0,0,1,1.19-2.25,11.62,11.62,0,0,1,3.48-2.33,15.24,15.24,0,0,0,1.92-1.1s0,.25.07.85a7.62,7.62,0,0,1,0,1.16,11.48,11.48,0,0,1,5.36.68,7,7,0,0,1-3.67,3.22,15.55,15.55,0,0,1,1.16,1,5.22,5.22,0,0,1,.62.68l-1.78.27a14.95,14.95,0,0,1-6.2,0" transform="translate(0 0)"/>
        <path class="cls-33" d="M287.41,287c.72-.75,2.19-.6,3.3.35s1.43,2.33.71,3.07-2.19.59-3.3-.35-1.43-2.32-.71-3.07" transform="translate(0 0)"/>
        <path class="cls-40" d="M303,288.27c-.4-1.16-.05-2.31.79-2.56s1.85.46,2.24,1.63,0,2.31-.79,2.57-1.84-.47-2.24-1.64" transform="translate(0 0)"/>
        <path class="cls-31" d="M316.57,282.6a2.54,2.54,0,0,1-.94-1.51,2.44,2.44,0,0,1,.32-1.72,15,15,0,0,0-2.56-1,16.74,16.74,0,0,0-3.32-.28l-1.61,0s.1.24.39.77a9.59,9.59,0,0,0,.7,1,7.33,7.33,0,0,0-4.24,2.93,7.77,7.77,0,0,0,5,1.36,6.9,6.9,0,0,0-.28,1.2,7.45,7.45,0,0,0-.08.85l1.5-.54a16.81,16.81,0,0,0,3-1.35,14.09,14.09,0,0,0,2.07-1.75" transform="translate(0 0)"/>
        <path class="cls-31" d="M316,268.31a7.48,7.48,0,0,1,3.22,4.24,2.57,2.57,0,0,1,1-.82,3.18,3.18,0,0,1,1.52-.45s-.24,1.36-.35,1.85-.12,1.93-.45,3.24a11.31,11.31,0,0,1-.88,2.36,2.76,2.76,0,0,0-2.21-.58,2.65,2.65,0,0,0-1.85,1.26,11.72,11.72,0,0,1-1.69-1.93c-.77-1.13-1.3-2.49-1.58-2.91s-1-1.61-1-1.61a3.16,3.16,0,0,1,1.59-.07,2.63,2.63,0,0,1,1.24.45,7.1,7.1,0,0,1,1.45-5" transform="translate(0 0)"/>
        <path class="cls-31" d="M320.56,281.93a2.37,2.37,0,0,0,.33-1.72,2.4,2.4,0,0,0-.92-1.5A14.85,14.85,0,0,1,322,277a15.93,15.93,0,0,1,3-1.33l1.5-.56a6.64,6.64,0,0,1-.09.85,7.52,7.52,0,0,1-.28,1.22,7.66,7.66,0,0,1,5.06,1.37,7.33,7.33,0,0,1-4.26,2.91,10,10,0,0,1,.7,1c.29.55.39.78.39.78l-1.61,0a16,16,0,0,1-3.32-.28,15.72,15.72,0,0,1-2.57-1" transform="translate(0 0)"/>
        <ellipse class="cls-33" cx="318.32" cy="280.63" rx="3.04" ry="2.88"/>
        <path class="cls-40" d="M332.86,282.48c-.15-1.22.44-2.28,1.31-2.38s1.72.8,1.87,2-.42,2.29-1.3,2.38-1.71-.79-1.88-2" transform="translate(0 0)"/>
        <path class="cls-31" d="M347.9,279.76a2.79,2.79,0,0,1-.74-1.86,2.73,2.73,0,0,1,.71-1.85,15.6,15.6,0,0,0-2.64-1.57,19,19,0,0,0-3.64-.93l-1.8-.34s.06.28.28.94a10.51,10.51,0,0,0,.56,1.3,8.44,8.44,0,0,0-5.33,2.46,8.53,8.53,0,0,0,5.33,2.45,9.53,9.53,0,0,0-.56,1.31,8.75,8.75,0,0,0-.28.93l1.8-.33a19.18,19.18,0,0,0,3.64-.94,18.36,18.36,0,0,0,2.67-1.55" transform="translate(0 0)"/>
        <path class="cls-31" d="M350.15,263.7a8.26,8.26,0,0,1,2.73,5.35,2.75,2.75,0,0,1,1.28-.74,3.82,3.82,0,0,1,1.79-.22s-.55,1.47-.77,2-.55,2.15-1.18,3.55a11.91,11.91,0,0,1-1.47,2.46,3.12,3.12,0,0,0-4.67,0,11.91,11.91,0,0,1-1.47-2.46c-.63-1.4-.94-3-1.18-3.55s-.78-2-.78-2a3.82,3.82,0,0,1,1.79.22,2.84,2.84,0,0,1,1.29.74,8.29,8.29,0,0,1,2.64-5.35" transform="translate(0 0)"/>
        <path class="cls-31" d="M352.46,279.76a2.7,2.7,0,0,0,.75-1.86,2.74,2.74,0,0,0-.72-1.85,15.77,15.77,0,0,1,2.66-1.57,18.51,18.51,0,0,1,3.64-.93l1.77-.34a4.7,4.7,0,0,1-.27.94,10.51,10.51,0,0,1-.56,1.3,8.39,8.39,0,0,1,5.33,2.46,8.46,8.46,0,0,1-5.33,2.45,9.53,9.53,0,0,1,.56,1.31,6.92,6.92,0,0,1,.27.93l-1.77-.33a12.75,12.75,0,0,1-6.33-2.49" transform="translate(0 0)"/>
        <ellipse class="cls-33" cx="350.2" cy="277.9" rx="3.04" ry="2.88"/>
        <path class="cls-40" d="M367.61,282.48c.16-1.22-.42-2.28-1.3-2.38s-1.72.8-1.88,2,.44,2.29,1.31,2.38,1.72-.79,1.87-2" transform="translate(0 0)"/>
        <path class="cls-31" d="M379.93,281.93a2.48,2.48,0,0,1-.35-1.72,2.51,2.51,0,0,1,.94-1.5,14.85,14.85,0,0,0-2.06-1.76,16,16,0,0,0-3-1.33l-1.49-.56a4.82,4.82,0,0,0,.09.85,9.36,9.36,0,0,0,.26,1.22,7.64,7.64,0,0,0-5,1.37,7.31,7.31,0,0,0,4.25,2.91,7.79,7.79,0,0,0-.69,1,5.73,5.73,0,0,0-.39.78l1.59,0a15.87,15.87,0,0,0,3.32-.28,16,16,0,0,0,2.58-1" transform="translate(0 0)"/>
        <path class="cls-31" d="M384.54,268.31a7.6,7.6,0,0,0-3.24,4.24s-.16-.35-1-.82a3.18,3.18,0,0,0-1.53-.45s.24,1.36.37,1.85.12,1.93.43,3.24a10.72,10.72,0,0,0,.9,2.36,2.74,2.74,0,0,1,2.2-.58,2.67,2.67,0,0,1,1.86,1.26,11.72,11.72,0,0,0,1.69-1.93c.76-1.13,1.29-2.49,1.57-2.91s1-1.61,1-1.61a3.19,3.19,0,0,0-1.6-.07,2.54,2.54,0,0,0-1.23.45,7.1,7.1,0,0,0-1.44-5" transform="translate(0 0)"/>
        <path class="cls-31" d="M383.91,282.6a2.45,2.45,0,0,0,.94-1.51,2.38,2.38,0,0,0-.31-1.72,15,15,0,0,1,2.56-1,16.67,16.67,0,0,1,3.3-.28l1.61,0a4.81,4.81,0,0,1-.39.77,8.2,8.2,0,0,1-.68,1,7.42,7.42,0,0,1,4.24,2.93,7.81,7.81,0,0,1-5,1.36,8.53,8.53,0,0,1,.26,1.2,6.64,6.64,0,0,1,.09.85L389,285.7a16.25,16.25,0,0,1-3-1.35,14.75,14.75,0,0,1-2.07-1.75" transform="translate(0 0)"/>
        <ellipse class="cls-33" cx="382.17" cy="280.63" rx="3.04" ry="2.88"/>
        <path class="cls-40" d="M397.54,288.27c.4-1.16,0-2.31-.79-2.56s-1.85.46-2.26,1.63,0,2.31.8,2.57,1.85-.47,2.25-1.64" transform="translate(0 0)"/>
        <path class="cls-31" d="M408.76,288.85a3.2,3.2,0,0,1,1-1.49c1.1-.95,2.59-1.1,3.3-.35a1.33,1.33,0,0,1,.25.35s1.54-2.91,3.36-3.89a10.81,10.81,0,0,1,4.9-.73,4.09,4.09,0,0,0-4.2-4,4.4,4.4,0,0,0-3.46,1.55l-.32-1.5a4.13,4.13,0,0,0-2.77,2.55c-.87,2.17.07,5.32.07,5.32a8.92,8.92,0,0,0-1.18-2.25,11.62,11.62,0,0,0-3.48-2.33,14.45,14.45,0,0,1-1.92-1.1s0,.25-.08.85a8.3,8.3,0,0,0,0,1.16,11.42,11.42,0,0,0-5.36.68,6.86,6.86,0,0,0,3.66,3.22s-.61.5-1.17,1a5.7,5.7,0,0,0-.6.68l1.78.27a23.77,23.77,0,0,0,3.75.31,23.25,23.25,0,0,0,2.44-.31" transform="translate(0 0)"/>
        <path class="cls-33" d="M413.07,287c-.71-.75-2.2-.6-3.3.35s-1.43,2.33-.72,3.07,2.2.59,3.31-.35,1.42-2.32.71-3.07" transform="translate(0 0)"/>
      </g>
      <g>
        <path class="cls-34" d="M350.17,314.4c-15.49,0-29.5-1.81-40.15-4.57,10.65-2.75,24.66-4.43,40.15-4.46s29.58,1.71,40.23,4.46c-10.65,2.76-24.73,4.55-40.23,4.57Z" transform="translate(0 0)"/>
        <path class="cls-16" d="M361.26,314v-8.41M357,314.27l.05-8.92m-3.13,9V305.3" transform="translate(0 0)"/>
        <path class="cls-20" d="M351.33,314.5v-9.2" transform="translate(0 0)"/>
        <path class="cls-25" d="M348.82,314.5v-9.2" transform="translate(0 0)"/>
        <path class="cls-27" d="M346.47,314.5v-9.2" transform="translate(0 0)"/>
        <path class="cls-41" d="M344.13,314.5v-9.2" transform="translate(0 0)"/>
        <path class="cls-42" d="M342.05,314.5v-9.2" transform="translate(0 0)"/>
        <path class="cls-43" d="M338.07,314l-.05-8.36M340,314.1v-8.75" transform="translate(0 0)"/>
        <path class="cls-44" d="M334.4,313.61v-7.7m1.87,7.93-.06-8.21" transform="translate(0 0)"/>
        <path class="cls-45" d="M329.49,313.18V306.4m1.61,6.89v-7.11m1.67,7.34v-7.4" transform="translate(0 0)"/>
        <path class="cls-46" d="M327.77,313.12v-6.55" transform="translate(0 0)"/>
        <path class="cls-47" d="M326.16,312.79v-6.11" transform="translate(0 0)"/>
        <path class="cls-48" d="M324.44,312.63V307" transform="translate(0 0)"/>
        <path class="cls-49" d="M320.91,312.13l-.06-4.51m1.86,4.73v-5.06" transform="translate(0 0)"/>
        <path class="cls-50" d="M319.1,311.75v-4" transform="translate(0 0)"/>
        <path class="cls-51" d="M317.44,311.43v-3.3" transform="translate(0 0)"/>
        <path class="cls-52" d="M315.63,311v-2.59" transform="translate(0 0)"/>
        <path class="cls-53" d="M313.77,310.77v-1.93" transform="translate(0 0)"/>
        <path class="cls-54" d="M311.81,310.32v-.93" transform="translate(0 0)"/>
        <path class="cls-32" d="M308.17,310.32c10.85-3.05,25.6-4.92,42-4.95s31.23,1.9,42.08,4.95" transform="translate(0 0)"/>
        <path class="cls-33" d="M303.41,304l1.71-2.22,4.71.6-3.76,2.74L303.41,304" transform="translate(0 0)"/>
        <path class="cls-40" d="M313.64,301.39a1.54,1.54,0,1,1,1.54,1.46,1.49,1.49,0,0,1-1.54-1.46" transform="translate(0 0)"/>
        <path class="cls-55" d="M327.1,301.1l-3.31.38a1.53,1.53,0,0,1-1.73-1.26,1.44,1.44,0,0,1,1.34-1.61l3.32-.4,3.39-.39a1.46,1.46,0,1,1,.36,2.89l-3.37.39" transform="translate(0 0)"/>
        <path class="cls-40" d="M336.76,298.69a1.54,1.54,0,0,1,3.08,0,1.54,1.54,0,0,1-3.08,0" transform="translate(0 0)"/>
        <path class="cls-33" d="M350.21,299.82H345.6a1.45,1.45,0,1,1,0-2.89h9.3a1.49,1.49,0,0,1,1.54,1.45,1.51,1.51,0,0,1-1.56,1.44h-4.66" transform="translate(0 0)"/>
        <path class="cls-40" d="M360.58,298.69a1.54,1.54,0,1,1,1.54,1.46,1.51,1.51,0,0,1-1.54-1.46" transform="translate(0 0)"/>
        <path class="cls-55" d="M373.32,301.1l3.31.38a1.54,1.54,0,0,0,1.73-1.26,1.46,1.46,0,0,0-1.34-1.61l-3.32-.4-3.39-.39a1.49,1.49,0,0,0-1.7,1.26,1.47,1.47,0,0,0,1.34,1.63l3.37.39" transform="translate(0 0)"/>
        <path class="cls-40" d="M383.7,301.39a1.54,1.54,0,0,1,3.08,0,1.54,1.54,0,0,1-3.08,0" transform="translate(0 0)"/>
        <path class="cls-33" d="M397,304l-1.7-2.22-4.71.6,3.76,2.74L397,304" transform="translate(0 0)"/>
      </g>
    </g>
    <g id="shield">
      <g id="Granada">
        <path class="cls-56" d="M350.69,482.06A119.39,119.39,0,0,1,299,470.11a33.11,33.11,0,0,1-18.71-29.67V393.82H420.84v46.62a33.1,33.1,0,0,1-18.7,29.67,118.16,118.16,0,0,1-51.45,11.95Z" transform="translate(0 0)"/>
        <path class="cls-57" d="M354.07,461.37a5.71,5.71,0,0,1,4.41,5.61c0,3.34-3.22,5.86-7.42,5.86s-7.58-2.52-7.58-5.86c0-2.5,1.4-5.32,4.31-5.51a4.22,4.22,0,0,0-.34-.7l-.89-.93a4.16,4.16,0,0,1,1.75,0,3.61,3.61,0,0,1,1.07.66,5.17,5.17,0,0,1,.73-1.06,3.72,3.72,0,0,1,1-.75,5,5,0,0,1,.86.9,5.15,5.15,0,0,1,.35.83,4.76,4.76,0,0,1,1.1-.69,9.15,9.15,0,0,1,1.18-.36s-.18.64-.31,1a5.09,5.09,0,0,0-.2,1" transform="translate(0 0)"/>
        <path class="cls-58" d="M350.45,476.45s-5.57-3.75-8-4.26c-3.1-.66-6.57-.12-8.07-.21a29.08,29.08,0,0,1,2.58,2.07,14.88,14.88,0,0,0,4.8,2.68,17.05,17.05,0,0,0,8.67-.28" transform="translate(0 0)"/>
        <path class="cls-58" d="M352,476.78s3.56-3.72,7.3-4.22a20.15,20.15,0,0,1,9,.81s-1.41.68-2.18,1.22a9.9,9.9,0,0,1-5.8,2.22c-3.05,0-6.41-.32-6.95-.24l-1.38.21" transform="translate(0 0)"/>
        <path class="cls-59" d="M351,472.19a7.08,7.08,0,0,1,0-10.4,7.12,7.12,0,0,1,0,10.4" transform="translate(0 0)"/>
        <path class="cls-58" d="M349.55,479.79a14.22,14.22,0,0,0,.94-4,14.5,14.5,0,0,0-.21-3h1.12a11.29,11.29,0,0,1,.55,3,29.72,29.72,0,0,1-.26,3.32,5.09,5.09,0,0,0-1,.24c-.26.12-1.12.4-1.12.4" transform="translate(0 0)"/>
      </g>
      <g id="Aragon">
        <path class="cls-59" d="M350.45,440.4c0,18.42-15.63,33.35-35.07,33.35s-35.21-14.93-35.21-33.35V393.71h70.28V440.4" transform="translate(0 0)"/>
        <path class="cls-60" d="M280,439.77a35.63,35.63,0,0,0,8,21.94V392.45h-7.92l-.1,47.32Z" transform="translate(0 0)"/>
        <path class="cls-60" d="M295.51,467.92c2.2,1.16,5.21,3.11,8.44,3.88l-.21-79.74h-8.23Z" transform="translate(0 0)"/>
        <path class="cls-60" d="M311.19,473.55a38.16,38.16,0,0,0,8.22,0V392.06h-8.22Z" transform="translate(0 0)"/>
        <path class="cls-60" d="M326.65,471.8a27.76,27.76,0,0,0,8.44-3.68V392.06h-8.23l-.21,79.74Z" transform="translate(0 0)"/>
        <path class="cls-60" d="M342.73,460.94c3.43-3.06,6.65-10,7.83-17.87l.2-51h-8.22Z" transform="translate(0 0)"/>
      </g>
      <g id="Navarre">
        <path class="cls-59" d="M420.91,393.71V440.4c0,18.42-15.79,33.35-35.24,33.35s-35.22-14.93-35.22-33.35V393.71h70.46" transform="translate(0 0)"/>
        <path id="chains_half" data-name="chains half" class="cls-61" d="M381.79,428.6a3.61,3.61,0,0,1,.27-.56l-6-6.64-2.34,1-4.29-4.75,1.4-2-7.47-8.39c-.1,0-.28,0-.38.06l0,5.63,2.45.7v6.24l-2.45.67,0,5.71a3.71,3.71,0,0,1,2.44,2.34l4.49,0,.71-2.34h6.61l.7,2.34ZM372,402.7V405h3.87V402.7ZM361.8,431.21a1.55,1.55,0,1,0,0-3.09,1.55,1.55,0,1,0,0,3.09Zm22.39-13.62-2.47-.67v-6.24l2.47-.7,0-2.69a3.73,3.73,0,0,1-2.5-2.34h-3.75l-.72,2.34h-6.59l-.72-2.34h-4.32a3.93,3.93,0,0,1-.41.85l7.53,8.35,2.34-1,4.29,4.76-1.4,2,5.85,6.5.39-.17ZM374,415.65l-1.81,1.45,2.48,2.77,1.81-1.47Zm11.2,50.66a3.79,3.79,0,0,1-3.52-2.83,25.13,25.13,0,0,1-6.62-1.82l1.18-2a22.44,22.44,0,0,0,5.71,1.56,3.64,3.64,0,0,1,2.21-2l0-7.87-2.47-.69v-6.24l2.47-.67v-10.7a1,1,0,0,1-.28-.13l-5.58,6.19,1.4,2-4.28,4.76-2.34-1-4.62,5.14a3.41,3.41,0,0,1-.15,4,21.79,21.79,0,0,0,4.53,3.85l-1.17,2a24.78,24.78,0,0,1-5.31-4.51,4,4,0,0,1-3.64-.7,3.47,3.47,0,0,1-.42-5.1l.2-.22a22.08,22.08,0,0,1-1.85-7h2.39a19.72,19.72,0,0,0,1.53,6,4.4,4.4,0,0,1,2,.23l4.65-5.16-1.4-2,4.29-4.76,2.33,1,5.59-6.2a2.85,2.85,0,0,1-.29-.64H378l-.7,2.34h-6.61l-.71-2.34h-4.54a3.71,3.71,0,0,1-2.36,2.26l0,5.66h-2.39v-5.62a3.65,3.65,0,0,1-2.67-3.46,3.69,3.69,0,0,1,2.68-3.47l0-5.67-2.47-.67v-6.24l2.47-.7v-5.67a3.65,3.65,0,0,1-2.58-3.43,3.72,3.72,0,0,1,3.82-3.62,3.83,3.83,0,0,1,3.66,2.5h4.32l.72-2.34h6.59l.72,2.34h3.75a3.78,3.78,0,0,1,3.58-2.5l.1,11.72h-1.19v3.66h1.18l0,30.22h-1.09v3.66h1.09ZM377,440.68l-1.8-1.46L372.67,442l1.8,1.46ZM363,414.86h-2.37v3.66H363Zm12.82,16V428.6h-4v2.24ZM361,444.4l-2.46-.54-.35-6.23,2.45-.82v3.59a22.89,22.89,0,0,0,.36,4Zm2.05-7.73,2.45.58s.12,4,.07,3.11.26,3.13.26,3.13l-2.46.81a20.07,20.07,0,0,1-.34-3.9Zm15.13,23.71.55-2.38a20.39,20.39,0,0,1-5.84-2.93l-1.76,1.55a23.17,23.17,0,0,0,7.05,3.75Zm-1.19,2-1.82,1.71a27.28,27.28,0,0,1-5.77-3l.54-2.48a25.56,25.56,0,0,0,7.05,3.72Z" transform="translate(0 0)"/>
        <path class="cls-61" d="M388.81,428.6a3.61,3.61,0,0,0-.27-.56l6-6.64,2.33,1,4.29-4.75-1.4-2,7.47-8.39c.1,0,.28,0,.38.06l0,5.63-2.45.7v6.24l2.45.67,0,5.71a3.69,3.69,0,0,0-2.43,2.34l-4.5,0-.71-2.34h-6.61l-.7,2.34Zm9.77-25.9V405h-3.86V402.7Zm10.22,28.51a1.55,1.55,0,1,1,0-3.09,1.55,1.55,0,1,1,0,3.09Zm-22.39-13.62,2.47-.67v-6.24l-2.47-.7,0-2.69a3.73,3.73,0,0,0,2.5-2.34h3.76l.71,2.34H400l.72-2.34H405a4.46,4.46,0,0,0,.41.85l-7.53,8.35-2.34-1-4.28,4.76,1.4,2-5.86,6.5-.39-.17Zm10.15-1.94,1.81,1.45-2.48,2.77-1.8-1.47Zm-11.2,50.66a3.79,3.79,0,0,0,3.52-2.83,25,25,0,0,0,6.62-1.82l-1.18-2a22.44,22.44,0,0,1-5.71,1.56,3.64,3.64,0,0,0-2.21-2v-7.87l2.46-.69v-6.24l-2.46-.67v-10.7a1.38,1.38,0,0,0,.28-.13l5.57,6.19-1.4,2,4.28,4.76,2.34-1,4.62,5.14a3.41,3.41,0,0,0,.15,4,21.79,21.79,0,0,1-4.53,3.85l1.17,2a24.78,24.78,0,0,0,5.31-4.51,4,4,0,0,0,3.64-.7,3.47,3.47,0,0,0,.42-5.1l-.2-.22a22.08,22.08,0,0,0,1.85-7H407.5a19.72,19.72,0,0,1-1.53,6,4.42,4.42,0,0,0-2,.23l-4.65-5.16,1.4-2-4.28-4.76-2.34,1-5.59-6.2a3.41,3.41,0,0,0,.3-.64h3.86l.7,2.34h6.61l.71-2.34h4.54a3.73,3.73,0,0,0,2.36,2.26l0,5.66H410v-5.62a3.66,3.66,0,0,0,2.68-3.46A3.7,3.7,0,0,0,410,426.2l0-5.67,2.47-.67v-6.24l-2.47-.7v-5.67a3.63,3.63,0,0,0,2.58-3.43,3.72,3.72,0,0,0-3.82-3.62,3.83,3.83,0,0,0-3.66,2.5h-4.32l-.72-2.34H393.4l-.71,2.34h-3.76a3.78,3.78,0,0,0-3.58-2.5l-.1,11.72h1.19v3.66h-1.18l0,30.22h1.1v3.66h-1.1Zm8.28-25.63,1.8-1.46,2.49,2.77-1.8,1.46Zm13.94-25.82H410v3.66h-2.38Zm-12.82,16V428.6h4v2.24ZM409.6,444.4l2.46-.54.35-6.23-2.45-.82v3.59a22.89,22.89,0,0,1-.36,4Zm-2.05-7.73-2.45.58s-.12,4-.07,3.11-.26,3.13-.26,3.13l2.46.81a20.07,20.07,0,0,0,.34-3.9Zm-15.13,23.71-.55-2.38a20.39,20.39,0,0,0,5.84-2.93l1.76,1.55a23.17,23.17,0,0,1-7.05,3.75Zm1.19,2,1.82,1.71a27.28,27.28,0,0,0,5.77-3l-.54-2.48a25.56,25.56,0,0,1-7.05,3.72Z" transform="translate(0 0)"/>
        <path class="cls-62" d="M381.63,429.72a3.83,3.83,0,1,1,3.83,3.61,3.74,3.74,0,0,1-3.83-3.61" transform="translate(0 0)"/>
      </g>
      <g id="Castile">
        <path class="cls-59" d="M280.17,393.75h70.25v-78H280.17Z" transform="translate(0 0)"/>
        <path class="cls-63" d="M304.28,333.77H303v-1.28h-2.27v5.16H303v3.57h-4.86v10.35h2.59v20.7h-5.18V383h39.79V372.27h-5.17v-20.7h2.59V341.22h-4.86v-3.57h2.27v-5.16h-2.27v1.28h-1.3v-1.28h-2.25v1.28h-1.63v-1.28h-2.26v5.16h2.26v3.57h-4.84V329.9h2.58v-5.18h-2.58V326h-1.3v-1.3H314.3V326H313v-1.3h-2.59v5.18H313v11.32h-4.86v-3.57h2.27v-5.16h-2.27v1.28h-1.28v-1.28h-2.59v1.28ZM295.54,383h39.79m-39.79-2.59h39.79m-39.79-2.59h39.79m-39.79-2.59h39.79m-39.79-2.92h39.79M300.72,370h29.44m-29.44-2.59h29.44m-29.44-2.92h29.44m-29.44-2.57h29.44m-29.44-2.59h29.44m-29.44-2.59h29.44m-29.44-2.59h29.44m-32-2.59h34.62M298.13,349h34.62m-34.62-2.59h34.62m-34.62-2.58h34.62M303,341.22h24.9M313,338.63h4.86M313,336h4.86M313,333.45h4.86M313,330.86h4.86m-7.45-3.23h10m-17.46,11h5.16m-7.43-3.23h9.7M300.72,383v-2.59m0-2.59v-2.59m-2.59,2.59v2.59m4.86,0v-2.59m2.57,5.18v-2.59m0-2.59v-2.59m0-2.92V370m0-2.59V364.5M303,375.19v-2.92m-4.86,2.92v-2.92m10,0v2.92m2.27-2.92V370M303,367.42V370m5.16-2.59V370m4.86-2.59V370m-2.59-2.59V364.5m2.59-2.57v2.57m0-7.75v2.59m-2.59-5.18v2.59m2.59-5.18v2.59m-4.86-2.59v2.59M303,351.57v2.59M300.72,349v2.59m4.84-2.59v2.59m4.86-2.59v2.59m2.59-5.18V349m-4.86-2.59V349M303,346.39V349m-2.27-5.17v2.58m9.7-2.58v2.58m-4.86-7.76v2.59m22.33-2.59h-5.18m7.45-3.23h-9.71M330.16,383v-2.59m0-2.59v-2.59m2.59,2.59v2.59m-4.86,0v-2.59M325.3,383v-2.59m0-2.59v-2.59m0-2.92V370m0-2.59V364.5m2.59,10.69v-2.92m4.86,2.92v-2.92m-10,0v2.92m-2.26-2.92V370m7.44-2.59V370m-5.18-2.59V370m-4.84-2.59V370m2.58-2.59V364.5m-2.58-2.57v2.57m0-7.75v2.59m2.58-5.18v2.59m-2.58-5.18v2.59m4.84-2.59v2.59m5.18-2.59v2.59m2.27-5.18v2.59M325.3,349v2.59M320.45,349v2.59m-2.58-5.18V349m4.84-2.59V349m5.18-2.59V349m2.27-5.17v2.58m-9.71-2.58v2.58m4.85-7.76v2.59m-10,26.2V364.5m0-7.75v-2.59m0,7.77v-2.59m0-7.77V349m0-2.59v-2.58m0-5.18V336m0-2.59v-2.59M303,337.65h5.16M313,329.9h4.86m4.84,7.75h5.18" transform="translate(0 0)"/>
        <path class="cls-63" d="M322.07,383v-6.81c0-1.29-.64-5.18-6.79-5.18-5.82,0-6.47,3.89-6.47,5.18V383Z" transform="translate(0 0)"/>
        <path class="cls-63" d="M311.07,376.47l-3.24-.32c0-1.29.32-3.23,1.3-3.88l2.92,2.27A3.63,3.63,0,0,0,311.07,376.47Z" transform="translate(0 0)"/>
        <path class="cls-63" d="M316.57,373.24l1.62-2.91a6.12,6.12,0,0,0-5.5,0l1.61,2.91Z" transform="translate(0 0)"/>
        <path class="cls-63" d="M319.8,376.47l3.24-.32c0-1.29-.33-3.23-1.29-3.88l-2.91,2.27A3.68,3.68,0,0,1,319.8,376.47Z" transform="translate(0 0)"/>
        <path class="cls-63" d="M310.42,365.16V358a3.56,3.56,0,1,0-7.11,0v7.12Z" transform="translate(0 0)"/>
        <path class="cls-63" d="M320.45,365.16V358a3.56,3.56,0,1,1,7.12,0v7.12Z" transform="translate(0 0)"/>
        <path class="cls-63" d="M308.15,347.69l.33-6.47h-6.15l.66,6.47Z" transform="translate(0 0)"/>
        <path class="cls-63" d="M317.87,347.69l.64-6.47h-6.14l.32,6.47Z" transform="translate(0 0)"/>
        <path class="cls-63" d="M322.71,347.69l-.64-6.47h6.47l-.65,6.47Z" transform="translate(0 0)"/>
        <g>
          <path class="cls-64" d="M319.8,383v-5.83c0-1-.64-3.89-4.52-3.89a3.92,3.92,0,0,0-4.21,3.89V383Z" transform="translate(0 0)"/>
          <path class="cls-64" d="M309.78,364.5v-6.14a2.93,2.93,0,1,0-5.83,0v6.14Z" transform="translate(0 0)"/>
          <path class="cls-64" d="M321.1,364.5v-6.14a2.93,2.93,0,1,1,5.83,0v6.14Z" transform="translate(0 0)"/>
        </g>
      </g>
      <g id="Leon">
        <path class="cls-56" d="M350.39,393.75h70.45v-78H350.39Z" transform="translate(0 0)"/>
        <path class="cls-65" d="M386.3,335l.07-.86.13-.48a13.38,13.38,0,0,1-3.45-.15,8.77,8.77,0,0,1-3.36-1.75c-1.1-1-1.54-1.54-2.33-1.66a5.46,5.46,0,0,0-3.36.56,6.42,6.42,0,0,1,2.49,1.84,6.87,6.87,0,0,0,2.73,2.14,31,31,0,0,0,4.51.1c.79,0,2.57.26,2.57.26Z" transform="translate(0 0)"/>
        <g>
          <path class="cls-66" d="M396.84,331.8s0,1,.12,2-.31,1.74-.16,2.25a8.82,8.82,0,0,0,.42,1.31,5,5,0,0,1,.3,1.31l-1-.75c-.49-.38-.84-.62-.84-.62s.1,1,.14,1.44a4,4,0,0,0,.71,1.74A8.38,8.38,0,0,1,398,342.3a6.62,6.62,0,0,1,.2,2s-.64-1.05-1.22-1.25-1.76-.87-1.76-.87a3.87,3.87,0,0,1,1.1,2.17,7.65,7.65,0,0,1-.44,2.24,7.15,7.15,0,0,0-1.17-1.57,13.87,13.87,0,0,0-1.58-1.26,8.78,8.78,0,0,1,.73,2.73c0,1.11-.21,3.46-.21,3.46a6.39,6.39,0,0,0-1.11-1.34,12.1,12.1,0,0,1-1.42-1.09,4.83,4.83,0,0,1,.75,1.62,15,15,0,0,0,2.69,6.57c1.32,1.91,3.35,5.27,7.7,4.17s2.74-7,1.82-9.69a24.8,24.8,0,0,1-1.32-6.82c.06-1.05.82-4.16.72-4.74a11.82,11.82,0,0,1,.19-4.6,25.89,25.89,0,0,1,1.33-3.36,8.37,8.37,0,0,0,.65-1.87,17.65,17.65,0,0,0,.1-1.92s.81,1.48,1,2a10.11,10.11,0,0,1,.19,2.1,3.42,3.42,0,0,1,1.38-2.34,20,20,0,0,0,3-2,3,3,0,0,0,.46-.71s-.11,2.69-.87,3.74c-.5.68-2.48,2.92-2.48,2.92a7.15,7.15,0,0,1,1.73-.42,7.88,7.88,0,0,1,1.21,0,10.82,10.82,0,0,0-2,2.3c-1.12,1.62-.66,1.76-1.47,3.11s-1.47,1.4-2.49,2.21c-1.51,1.22-.7,6.07-.51,6.8s2.85,6.67,2.9,8.11.3,4.66-2.24,6.72c-1.62,1.33-4.3,1.34-4.91,1.72a4.65,4.65,0,0,0-1.81,4.07c0,2.51.9,2.89,1.61,3.52s1.63.28,1.82.77a2.9,2.9,0,0,0,.62,1.05,1.17,1.17,0,0,1,.4,1.15c-.11.53-1.27,1.72-1.68,2.59a21.38,21.38,0,0,0-1.21,3.45,3.9,3.9,0,0,0,.25,1.92s1.27,1.49.4,1.77c-.56.19-1.09-.35-1.35-.28-.76.19-1.17.65-1.38.63-.5-.1-.5-.35-.56-1.07s0-1-.23-1-.47.26-.52.63-.06,1.25-.41,1.25-.85-.63-1.16-.77-1.16-.28-1.22-.67a1.73,1.73,0,0,1,1.07-1.35c.56-.14,1.06-.42.71-.71a.77.77,0,0,0-1.06,0c-.35.29-1.11.06-1.07-.38a4.6,4.6,0,0,0,.1-1.2c0-.24-.66-.72.14-1.15s1.18.38,2,.24a2,2,0,0,0,1.51-.91,1.93,1.93,0,0,0-.31-2.1c-.54-.63-1.1-.73-1.31-1.12a13.13,13.13,0,0,1-.51-1.29,11.37,11.37,0,0,1,.06,1.92,5.71,5.71,0,0,0-.06,1.24s-.54-.63-1-1.1a7.5,7.5,0,0,1-.91-1.92s0,1.34,0,1.88.6,1,.41,1.2-1.16-1-1.43-1.2a5.52,5.52,0,0,1-1.41-1.49,11.54,11.54,0,0,1-.72-2,6.3,6.3,0,0,1-.1-2.21c.26-.56.66-1.59.66-1.59h-2c-1.07,0-1.82-.32-2.23.4s-.21,2.15.3,4,.81,2.77.67,3.11a4.51,4.51,0,0,1-1.07,1.24,1.86,1.86,0,0,1-1.27,0,3.68,3.68,0,0,0-1.76-.38,12.48,12.48,0,0,1-1.92,0c-.37-.1-1.23-.53-1.64-.43s-1.11.44-.91,1c.31.86-.29,1.05-.71,1a9.13,9.13,0,0,1-1.26-.33c-.51-.16-1.26,0-1.17-.59s.31-.62.56-1,.35-.73.06-.75a1.31,1.31,0,0,0-1,.15c-.28.22-.71.71-1.06.53s-.65-.6-.65-1.51-1-1.68-.07-1.64,2,.67,2.17.18.09-.71-.39-1.09-1.06-.6-.43-1.08.78-.49,1-.75.58-1.11,1-.9c.87.42,0,1,.91,2a2.78,2.78,0,0,0,2.89,1.16c1.45-.15,1.86-.33,1.86-.75a14,14,0,0,0-.17-1.46,8.84,8.84,0,0,1,.21-1.39,3,3,0,0,0-.88.83c-.18.41-.59,1.12-.59,1.12a7.81,7.81,0,0,1-.11-1.53c0-.4.17-1.1.15-1.24a11.62,11.62,0,0,0-.32-1.32,7.84,7.84,0,0,1-.39,1.32,7.06,7.06,0,0,0-.22,1.5,2.39,2.39,0,0,1-.68-2.17c.19-1-.16-2.44.16-2.89s1.05-2.29,2.88-2.36,3.24.07,3.88,0,2.88-.46,2.88-.46-4.15-2.13-5.09-2.78a14.12,14.12,0,0,1-2.9-3,11.41,11.41,0,0,1-.91-2.21,3.71,3.71,0,0,0-1.43.4,7.16,7.16,0,0,0-1.73,1.39,14.53,14.53,0,0,0-1,1.47s.12-1.32.12-1.72-.09-1.21-.09-1.21a5.16,5.16,0,0,1-1.41,2.47c-1,.68-2.06,1.61-2.06,1.61s.11-1,.11-1.23.24-1.39.24-1.39a3,3,0,0,1-1.69,1.2c-1,.19-2.54.16-2.66.79s.28,1.5,0,1.94a2.33,2.33,0,0,1-.76.76,2.49,2.49,0,0,0-1.1-.53,2.08,2.08,0,0,0-1,.22s-.43-.56-.26-.94.93-.92.75-1.16-.84.09-1.23.27-1.23.38-1.15-.27.28-1,.07-1.45-.07-.75.25-.86,1.57,0,1.7-.26-.31-.68-1.15-.86-1.23-.68-.8-1.09a2.9,2.9,0,0,0,.76-.9c.19-.37.28-1.06,1-.71s.59,1.16,1.39,1.41a6,6,0,0,0,3-.33c.39-.23,1.66-1.16,2.1-1.39s2.25-1.57,2.25-1.57-1.06-.74-1.47-1.12a14.48,14.48,0,0,0-1.45-1.47,12.86,12.86,0,0,0-2.69-.89,15.7,15.7,0,0,1-2.41-.67,5.33,5.33,0,0,0,1.11-.49c.26-.23.89-.79,1.21-.75l.4,0a17.91,17.91,0,0,1-2.06-.18,10.71,10.71,0,0,0-1.78-.76,8.5,8.5,0,0,0-1.18.16,6.94,6.94,0,0,1,1.94-.83,8.36,8.36,0,0,1,1.54-.11,4.52,4.52,0,0,1-1.67-.81c-.31-.46-.63-1.12-.87-1.43s-.39-.78-.82-.83-1.19.54-1.63.49-.75-.3-.8-.93,0-.42-.14-.76-.79-1.12-.21-1.3,1.87.11,2-.11-.67-.91-1.19-1.17-1.34-.71-.91-1.09.87-.52,1.11-.85.52-1.28,1-1,1.22,1.76,1.63,1.65.42-1.16.35-1.61,0-1.23.39-1.16.71.6,1.34.64,1.59-.15,1.5.3a3.37,3.37,0,0,1-.87,1.48,2.26,2.26,0,0,0-.35,2.1,5.54,5.54,0,0,0,1.63,2.07c.63.41,1.82.72,2.57,1.19a23.76,23.76,0,0,0,3.08,2,8,8,0,0,1,1.19.45,4.46,4.46,0,0,1,1.59-.29,14,14,0,0,0,3.79-.2c.8-.34,1.82-.9,1.51-1.61s-2.06-1.34-1.9-1.9.8-.61,1.86-.65,2.52.2,2.8-1.31.36-2.36-1.13-2.69-2.62-.38-2.9-1.46-.55-1.36-.24-1.65a3.23,3.23,0,0,1,2-.52,8.76,8.76,0,0,0,2.75-.35c.35-.25.42-1,.85-1.27a8.89,8.89,0,0,1,2.14-.56,27.15,27.15,0,0,1,3.92,2.39,21.2,21.2,0,0,1,3.22,3.12" transform="translate(0 0)"/>
          <path class="cls-32" d="M376.6,340.75a3.32,3.32,0,0,0-1.54.93,2.64,2.64,0,0,0-.48,1.5,2.66,2.66,0,0,1,2.19-.46c1.22.34,1.34.46,1.86.42a11,11,0,0,0,1.78-.49s-1,1.2-.91,2a12,12,0,0,1,.24,1.61,6.54,6.54,0,0,1-.84,2.25,5.37,5.37,0,0,1,1.47-.49,6.43,6.43,0,0,0,2.45-1.13,8.44,8.44,0,0,0,1.26-1.43,5.5,5.5,0,0,0,0,2,12.41,12.41,0,0,1,.32,2.34,7.61,7.61,0,0,1,1.19-.87,3.79,3.79,0,0,0,1.26-1,8.47,8.47,0,0,0,.45-1.48,5.75,5.75,0,0,0,.54,1.87,15.62,15.62,0,0,1,1,2.44,6.71,6.71,0,0,1,.84-1.7,3.81,3.81,0,0,0,1-1.49,6,6,0,0,0-.11-1.19l.55,1.19m-16,.85a5.4,5.4,0,0,1,1.3-1.54c.65-.36,1.52-1,1.75-1.12s1.26-.64,1.26-.64m1.39,7.23s1.53-.77,2-1.05a5.76,5.76,0,0,0,1.63-1.56" transform="translate(0 0)"/>
          <path class="cls-7" d="M395.6,337.26a9.92,9.92,0,0,1-.59-.91,6.44,6.44,0,0,1-.32-.67" transform="translate(0 0)"/>
          <path class="cls-32" d="M389.66,360.37s2.86,1.77,2.77,3.24a8,8,0,0,1-1.58,3.37" transform="translate(0 0)"/>
        </g>
        <path class="cls-67" d="M382.27,330.74s-.24-.68-.28-.87a1.87,1.87,0,0,0-.17-.41s1.23,0,1.19.38-.39.38-.47.52a2.27,2.27,0,0,1-.27.38Z" transform="translate(0 0)"/>
        <path class="cls-68" d="M387.88,328.79l-.08-.6a3.45,3.45,0,0,1,1.58.36,4.05,4.05,0,0,1,1.28,1.47c-.14.13-.76-.38-1.19-.52a3.55,3.55,0,0,1-.63.07c-.33,0-.48-.15-.52-.29a1,1,0,0,1,0-.42Z" transform="translate(0 0)"/>
        <g>
          <path class="cls-67" d="M382.31,336.2l.46-.75.48.69-.94.06" transform="translate(0 0)"/>
          <path class="cls-67" d="M383.45,336.17l.56-.74.6.67-1.16.07" transform="translate(0 0)"/>
          <path class="cls-67" d="M382.94,331.56l1.15.41-1,.53-.11-.94" transform="translate(0 0)"/>
          <path class="cls-67" d="M384.33,331.94l1,.25-.83.65-.19-.9" transform="translate(0 0)"/>
        </g>
        <g>
          <path class="cls-65" d="M366.63,330.51a3.58,3.58,0,0,0,1.19.56,9.41,9.41,0,0,0,1.15.07,2.32,2.32,0,0,0,.15-1.27,2.58,2.58,0,0,0-1.82-2.06s.47,1,.24,1.5a4.42,4.42,0,0,1-.91,1.2Z" transform="translate(0 0)"/>
          <path class="cls-65" d="M363.43,332a2,2,0,0,0-1.87-.94,3.63,3.63,0,0,0-2.1,1.13,5.31,5.31,0,0,1,1.75.19,2.06,2.06,0,0,1,.68,1.2,5,5,0,0,0,1-.76c.22-.29.55-.82.55-.82Z" transform="translate(0 0)"/>
          <path class="cls-65" d="M361.89,336.35a3.05,3.05,0,0,0-1.67.83,3.1,3.1,0,0,0-.5,2s.7-.76,1.33-.76a9.49,9.49,0,0,1,1.62.22,4.76,4.76,0,0,1-.31-1.12,3.83,3.83,0,0,0-.47-1.13Z" transform="translate(0 0)"/>
          <path class="cls-65" d="M365.48,350.52a1.83,1.83,0,0,0-1.62-.45,3,3,0,0,0-1.71,1.36,3.61,3.61,0,0,1,1.4-.11,1.68,1.68,0,0,1,.87.63,5.1,5.1,0,0,0,.63-.63c.15-.23.43-.8.43-.8Z" transform="translate(0 0)"/>
          <path class="cls-65" d="M364.29,354.68a2.25,2.25,0,0,0-1.62.46,2.62,2.62,0,0,0-.78,1.75,2.1,2.1,0,0,1,1.27-.52,5.07,5.07,0,0,1,1.22.38s.11-.72.15-.9a1.89,1.89,0,0,0-.24-1.17Z" transform="translate(0 0)"/>
          <path class="cls-65" d="M366.32,358.51a3,3,0,0,0,.47,1.79,2.56,2.56,0,0,0,1.58.83A5.71,5.71,0,0,1,368,360a1.35,1.35,0,0,1,.47-1.05,1.8,1.8,0,0,0-1-.53,9.7,9.7,0,0,0-1.11.08Z" transform="translate(0 0)"/>
          <path class="cls-65" d="M376.6,368.37a2.36,2.36,0,0,0-1.69-.87,4,4,0,0,0-2,1s1.23-.1,1.55.3.63.94.63.94a6.1,6.1,0,0,0,.8-.49,6.49,6.49,0,0,0,.74-.85Z" transform="translate(0 0)"/>
          <path class="cls-65" d="M373.56,372.3a2.54,2.54,0,0,0-1.94.49,3.07,3.07,0,0,0-.59,1.91s.78-.86,1.5-.79a5.45,5.45,0,0,1,1.51.45s-.13-.74-.21-1.09-.27-1-.27-1Z" transform="translate(0 0)"/>
          <path class="cls-65" d="M376.38,376.46s-.65.9-.17,1.61a3.25,3.25,0,0,0,1.47,1.05,1.43,1.43,0,0,1-.2-1.12c.13-.48.94-1.12.94-1.12l-2-.42Z" transform="translate(0 0)"/>
          <path class="cls-65" d="M393.74,378.15a3,3,0,0,0-1.78.12c-.63.36-1.15,1.94-1.15,1.94s1-.87,1.79-.75a4.27,4.27,0,0,1,1.3.42,2.76,2.76,0,0,0-.16-1.73Z" transform="translate(0 0)"/>
          <path class="cls-65" d="M394.3,382.34s-.87.9-.56,1.65a10,10,0,0,0,.86,1.54s0-1.12.33-1.43a3,3,0,0,1,1.47-.51,6.33,6.33,0,0,0-1-.76C395.16,382.76,394.3,382.34,394.3,382.34Z" transform="translate(0 0)"/>
          <path class="cls-65" d="M398.65,383.66a1.66,1.66,0,0,0,.39,1.79,3.07,3.07,0,0,0,1.56.8s-.65-1.14-.45-1.73a2.18,2.18,0,0,1,.75-1,6.34,6.34,0,0,0-1.19-.31c-.15,0-1.06.45-1.06.45Z" transform="translate(0 0)"/>
        </g>
        <g>
          <path class="cls-4" d="M396,325.79l-.4,0a2.25,2.25,0,0,1-.37.49.88.88,0,0,1-1.2.1.65.65,0,0,1-.2-.57.69.69,0,0,1-.71,0,1,1,0,0,1,0-1.36l0-.44-.49.11-.14.26c-.31.35-.76.44-1,.24a.69.69,0,0,1-.18-.38.5.5,0,0,1-.24.16c-.76.18-1.05-1.47-1.08-1.89l-.24.35a5.78,5.78,0,0,1,.11,1.82,9.94,9.94,0,0,1-.4,1.66,13.62,13.62,0,0,1,4.16,2.31,13.31,13.31,0,0,1,3.27,3.39,10,10,0,0,1,1.65-.71,7.61,7.61,0,0,1,1.91-.28l.31-.3c-.45.07-2.22.14-2.19-.6a.44.44,0,0,1,.11-.25,1,1,0,0,1-.42-.08c-.25-.19-.25-.61,0-1l.25-.18,0-.48-.48.07a1.24,1.24,0,0,1-.21.18.88.88,0,0,1-1.2.05.61.61,0,0,1-.16-.65.81.81,0,0,1-.63-.07.77.77,0,0,1-.15-1.12,2.35,2.35,0,0,1,.43-.45l-.09-.42Z" transform="translate(0 0)"/>
          <g>
            <path class="cls-68" d="M392.88,326.76c.07-.1.21-.08.32,0a.22.22,0,0,1,.09.29c-.07.09-.21.09-.34,0s-.14-.21-.07-.28Z" transform="translate(0 0)"/>
            <path class="cls-68" d="M394.21,327.87l-.46-.35a.18.18,0,0,1-.06-.23.24.24,0,0,1,.26,0l.46.37.46.35c.07.05.11.16.06.22a.21.21,0,0,1-.26,0l-.46-.36" transform="translate(0 0)"/>
            <path class="cls-68" d="M391.78,326.2l-.37-.21a.19.19,0,0,1-.1-.24.18.18,0,0,1,.24,0l.37.23.36.21a.19.19,0,0,1,.1.22.17.17,0,0,1-.24,0l-.36-.21" transform="translate(0 0)"/>
            <path class="cls-68" d="M390.32,325.21a.25.25,0,0,1,.34,0c.11.09.14.22.07.3a.27.27,0,0,1-.33,0,.21.21,0,0,1-.08-.29Z" transform="translate(0 0)"/>
            <path class="cls-68" d="M395.68,328.89c.07-.07,0-.2-.07-.3a.26.26,0,0,0-.33,0,.23.23,0,0,0,.08.3.24.24,0,0,0,.32,0Z" transform="translate(0 0)"/>
            <path class="cls-68" d="M396.48,329.81l.31.3a.2.2,0,0,0,.25,0,.16.16,0,0,0,0-.23l-.3-.29-.31-.29a.21.21,0,0,0-.25,0c-.07,0-.05.16,0,.23l.29.29" transform="translate(0 0)"/>
            <path class="cls-68" d="M397.81,331a.21.21,0,0,0-.07-.3.22.22,0,0,0-.32,0c-.07.08,0,.21.07.31A.25.25,0,0,0,397.81,331Z" transform="translate(0 0)"/>
          </g>
          <path class="cls-4" d="M394,322.5l-.83,0-.15,1.22.08.19h.21l1.07-.72-.38-.7" transform="translate(0 0)"/>
          <path class="cls-4" d="M394,322.5l-.83,0-.15,1.22.08.19h.21l1.07-.72-.38-.7" transform="translate(0 0)"/>
          <path class="cls-4" d="M391.72,323.18l0,.75,1.29.17.21-.1,0-.21-.74-1-.7.38" transform="translate(0 0)"/>
          <path class="cls-4" d="M394.38,324.69l-.69.38-.75-1,0-.21.2-.08,1.3.15,0,.76" transform="translate(0 0)"/>
          <path class="cls-4" d="M392.71,323.75a.42.42,0,0,1,.55-.13.36.36,0,0,1,.14.52.41.41,0,0,1-.55.13A.37.37,0,0,1,392.71,323.75Z" transform="translate(0 0)"/>
          <path class="cls-4" d="M389.7,322.49s-.18-.64-.36-1a2.15,2.15,0,0,0-.55-.61A1.18,1.18,0,0,1,390,321c.53.43,0,1.22,0,1.22a.82.82,0,0,1-.27.25Z" transform="translate(0 0)"/>
          <path class="cls-4" d="M391.15,322.92l-.59.52-.95-.84.08-.11,0-.21,1.29-.1.13.74" transform="translate(0 0)"/>
          <path class="cls-4" d="M389.54,322.41c.07-.21.25-.33.39-.28s.21.25.14.46a.37.37,0,0,1-.41.28C389.51,322.81,389.45,322.62,389.54,322.41Z" transform="translate(0 0)"/>
          <path class="cls-4" d="M397.14,324.48l-.83-.09-.35,1.19.07.2h.21l1.16-.57-.26-.74" transform="translate(0 0)"/>
          <path class="cls-4" d="M394.81,324.84l-.14.76,1.26.32.21-.06,0-.19-.6-1.11-.75.28" transform="translate(0 0)"/>
          <path class="cls-4" d="M397.22,326.7l-.74.28-.59-1.09,0-.21.21,0,1.24.32-.14.74" transform="translate(0 0)"/>
          <path class="cls-4" d="M395.71,325.56a.41.41,0,0,1,.56-.06.36.36,0,0,1,.07.53.43.43,0,0,1-.57.06.36.36,0,0,1-.06-.53Z" transform="translate(0 0)"/>
          <path class="cls-4" d="M399.9,327.05l.15.77-1.22.42-.22-.05,0-.2.51-1.13.8.19" transform="translate(0 0)"/>
          <path class="cls-4" d="M399.69,329.28l-.79.18-.43-1.16,0-.21.21,0,1.19.49-.23.73" transform="translate(0 0)"/>
          <path class="cls-4" d="M397.56,327.12l-.25.73,1.19.48.22,0,0-.2-.42-1.16-.78.18" transform="translate(0 0)"/>
          <path class="cls-4" d="M398.87,328.48a.37.37,0,0,0,0-.54.43.43,0,0,0-.57,0,.37.37,0,0,0,0,.54.41.41,0,0,0,.56,0Z" transform="translate(0 0)"/>
          <path class="cls-4" d="M400.81,331s.7,0,1.1.13a2.51,2.51,0,0,1,.73.38c.08-.06.17-.59-.39-1.11s-1.23.31-1.23.31a1.06,1.06,0,0,0-.21.29Z" transform="translate(0 0)"/>
          <path class="cls-4" d="M400.05,329.76l-.41.64,1.07.71.12-.11L401,331l-.17-1.24-.8.05" transform="translate(0 0)"/>
          <path class="cls-4" d="M400.92,331.14c.19-.1.29-.31.21-.43a.39.39,0,0,0-.51,0c-.19.11-.28.31-.19.43S400.72,331.25,400.92,331.14Z" transform="translate(0 0)"/>
        </g>
      </g>
      <g id="inescutcheon">
        <ellipse class="cls-69" cx="350.6" cy="393.41" rx="22.76" ry="25.62"/>
        <ellipse class="cls-70" cx="350.62" cy="393.36" rx="16.02" ry="18.79"/>
        <g id="fdl">
          <path class="cls-71" d="M343,380.44s-1.89,2.07-1.89,4A8.9,8.9,0,0,0,342,388a2.09,2.09,0,0,0-2-1.32,2,2,0,0,0-2.1,2,3,3,0,0,0,.33,1.08l.69,1.38a1.41,1.41,0,0,1,1.37-.8,1.47,1.47,0,0,1,1.51,1.42,1,1,0,0,1,0,.35H340v1.44h1.52l-1.13,2.26,1.5-.59,1.13,1.27,1.18-1.27,1.5.59-1.12-2.26h1.51v-1.44H344.4a1.34,1.34,0,0,1,0-.35,1.45,1.45,0,0,1,1.49-1.42,1.43,1.43,0,0,1,1.37.8l.68-1.38a3,3,0,0,0,.34-1.08,2,2,0,0,0-2.09-2,2.07,2.07,0,0,0-2,1.32,8.9,8.9,0,0,0,.8-3.56c0-1.93-1.95-4-1.95-4Z" transform="translate(0 0)"/>
          <path class="cls-72" d="M340,393.55h6.1v-1.44H340Z" transform="translate(0 0)"/>
        </g>
        <g>
          <path class="cls-71" d="M357.92,380.44s-1.89,2.07-1.89,4a8.9,8.9,0,0,0,.8,3.56,2.09,2.09,0,0,0-2-1.32,2,2,0,0,0-2.1,2,3,3,0,0,0,.33,1.08l.69,1.38a1.42,1.42,0,0,1,1.37-.8,1.47,1.47,0,0,1,1.51,1.42,1,1,0,0,1-.05.35H354.9v1.44h1.53l-1.14,2.26,1.5-.59,1.13,1.27,1.18-1.27,1.5.59-1.12-2.26H361v-1.44h-1.71a1.34,1.34,0,0,1,0-.35,1.45,1.45,0,0,1,1.49-1.42,1.42,1.42,0,0,1,1.37.8l.69-1.38a3,3,0,0,0,.33-1.08,2,2,0,0,0-2.08-2,2.07,2.07,0,0,0-2,1.32,8.9,8.9,0,0,0,.8-3.56c0-1.93-1.95-4-1.95-4Z" transform="translate(0 0)"/>
          <path class="cls-72" d="M354.9,393.55H361v-1.44h-6.1Z" transform="translate(0 0)"/>
        </g>
        <g>
          <path class="cls-71" d="M350.48,393.23s-1.89,2.07-1.89,4a9,9,0,0,0,.79,3.55,2.08,2.08,0,0,0-2-1.31,2,2,0,0,0-2.1,2,2.9,2.9,0,0,0,.34,1.08l.68,1.39a1.43,1.43,0,0,1,1.37-.8,1.47,1.47,0,0,1,1.52,1.41,1,1,0,0,1-.06.35l-1.71,0v1.44H349l-1.14,2.25,1.5-.58,1.14,1.27,1.17-1.27,1.5.58L352,406.35h1.51v-1.44l-1.71,0a1.94,1.94,0,0,1,0-.35,1.44,1.44,0,0,1,1.48-1.41,1.41,1.41,0,0,1,1.37.8l.69-1.39a2.89,2.89,0,0,0,.33-1.08,2,2,0,0,0-2.08-2,2.06,2.06,0,0,0-2,1.31,8.88,8.88,0,0,0,.8-3.55c0-1.94-1.94-4-1.94-4Z" transform="translate(0 0)"/>
          <path class="cls-72" d="M347.45,406.35h6.11v-1.44h-6.11Z" transform="translate(0 0)"/>
        </g>
      </g>
    </g>
  </g>
</svg>
