<?xml version="1.0" encoding="utf-8"?>
<!-- Generator: Adobe Illustrator 23.1.0, SVG Export Plug-In . SVG Version: 6.00 Build 0)  -->
<svg version="1.1" id="Layer_1" xmlns="http://www.w3.org/2000/svg" xmlns:xlink="http://www.w3.org/1999/xlink" x="0px" y="0px"
	 viewBox="0 0 1050 700" style="enable-background:new 0 0 1050 700;" xml:space="preserve">
<style type="text/css">
	.st0{fill:#EE1C25;}
	.st1{fill:#0B4EA2;}
	.st2{fill:#FFFFFF;}
</style>
<title>Flag of Slovakia</title>
<rect y="0" class="st0" width="1050" height="700"/>
<rect y="0" class="st1" width="1050" height="466.7"/>
<rect y="0" class="st2" width="1050" height="233.3"/>
<g>
	<path id="_x3C_Path_x3E_" class="st2" d="M459.1,164.5h-9.5H314.9H180.2h-9.5l-1,9.4c-0.2,2-5.3,51.3-5.3,159.5
		c0,50.8,17.2,95.7,51.1,133.3c23.7,26.3,54.7,48.5,94.8,67.8l4.6,2.2l4.6-2.2c40-19.3,71-41.5,94.8-67.8
		c33.9-37.6,51.1-82.4,51.1-133.3c0-108.2-5-157.4-5.3-159.5L459.1,164.5L459.1,164.5z"/>
	<path class="st0" d="M314.9,525C257.3,497.3,175,442.2,175,333.4s5.2-158.4,5.2-158.4h134.7h134.7c0,0,5.2,49.5,5.2,158.4
		C454.8,442.2,372.5,497.3,314.9,525L314.9,525z"/>
	<path class="st2" d="M327.2,304.8c15.6,0.3,46,0.9,73.1-8.2c0,0-0.7,9.7-0.7,21c0,11.3,0.7,21,0.7,21c-24.8-8.3-55.5-8.5-73.1-8.3
		v60.1h-24.6v-60.1c-17.6-0.2-48.2-0.1-73.1,8.3c0,0,0.7-9.7,0.7-21c0-11.3-0.7-21-0.7-21c27.1,9.1,57.5,8.5,73.1,8.2v-37.8
		c-14.2-0.1-34.7,0.6-57.8,8.3c0,0,0.7-9.7,0.7-21c0-11.3-0.7-21-0.7-21c23.1,7.7,43.6,8.4,57.8,8.3c-0.7-23.9-7.7-54.1-7.7-54.1
		s14.3,1.1,20.1,1.1c5.7,0,20.1-1.1,20.1-1.1s-7,30.1-7.7,54.1c14.2,0.1,34.6-0.6,57.8-8.3c0,0-0.7,9.7-0.7,21c0,11.3,0.7,21,0.7,21
		c-23.1-7.7-43.6-8.4-57.8-8.3V304.8L327.2,304.8z"/>
	<path class="st1" d="M314.9,383.9c-29,0-44.5,40.2-44.5,40.2s-8.6-19.1-32.3-19.1c-16,0-27.8,14.2-35.3,27.4
		c29.1,46.3,75.6,74.9,112.1,92.5c36.5-17.6,83-46.2,112.1-92.5c-7.5-13.2-19.3-27.4-35.3-27.4c-23.7,0-32.3,19.1-32.3,19.1
		S343.9,383.9,314.9,383.9L314.9,383.9z"/>
</g>
</svg>
