<svg id="Layer_1" data-name="Layer 1" xmlns="http://www.w3.org/2000/svg" width="411.57mm" height="246.94mm" viewBox="0 0 1166.66 700">
  <defs>
    <style>
      .cls-1 {
        fill: #002b7f;
      }

      .cls-2 {
        fill: #ce1126;
      }

      .cls-3, .cls-4, .cls-6 {
        fill: #ffd83d;
      }

      .cls-4, .cls-5, .cls-6, .cls-7 {
        stroke: #000;
        stroke-linecap: round;
        stroke-linejoin: round;
      }

      .cls-4, .cls-5, .cls-7 {
        stroke-width: 1.75px;
      }

      .cls-6 {
        stroke-width: 2.33px;
      }

      .cls-7 {
        fill: none;
      }
    </style>
  </defs>
  <rect class="cls-1" width="1166.66" height="700"/>
  <rect class="cls-2" y="350" width="1166.66" height="350"/>
  <g>
    <g id="half">
      <path class="cls-3" d="M252.44,142.67l-2.15,72.92h-74c-9.11-17.7-16.62-32.73-16.62-53.08,0-17,13.39-30.56,32.7-30.56C212.83,132,235.29,138.83,252.44,142.67Z" transform="translate(0 0)"/>
      <g>
        <path class="cls-4" d="M168.53,146v42.09" transform="translate(0 0)"/>
        <path class="cls-4" d="M174.47,141.73v56" transform="translate(0 0)"/>
        <path class="cls-4" d="M180.42,138.78v66.76" transform="translate(0 0)"/>
        <path class="cls-4" d="M186.36,137.4v52.36" transform="translate(0 0)"/>
        <path class="cls-4" d="M192.3,137.14V190" transform="translate(0 0)"/>
        <path class="cls-4" d="M198.24,135.29V190" transform="translate(0 0)"/>
        <path class="cls-4" d="M204.19,135.29V190" transform="translate(0 0)"/>
        <path class="cls-4" d="M210.13,135.83v54.7" transform="translate(0 0)"/>
        <path class="cls-4" d="M216.07,136.36v54.7" transform="translate(0 0)"/>
        <path class="cls-4" d="M222,139.85v54.7" transform="translate(0 0)"/>
        <path class="cls-4" d="M228,140.39v61.66" transform="translate(0 0)"/>
        <path class="cls-4" d="M233.9,140.39v54.69" transform="translate(0 0)"/>
        <path class="cls-4" d="M239.84,140.39v54.69" transform="translate(0 0)"/>
        <path class="cls-5" d="M205.79,137.58c12.56,2.07,40.14,15,37,32.43-4.46,24.75-18.91,14.82-38.07,11.26l-14.47,4.83c-5.18,5.29-12.81,10.13-18,3.75h-8.57v33.51h94.9v-81Z" transform="translate(0 0)"/>
      </g>
      <circle class="cls-6" cx="248.28" cy="131.81" r="5.76"/>
      <circle class="cls-6" cx="235.33" cy="128.7" r="5.76"/>
      <circle class="cls-6" cx="222.19" cy="125.4" r="5.76"/>
      <circle class="cls-6" cx="209" cy="123.2" r="5.76"/>
      <circle class="cls-6" cx="195.81" cy="121.89" r="5.76"/>
      <circle class="cls-6" cx="182.87" cy="122.63" r="5.76"/>
      <circle class="cls-6" cx="170.54" cy="126.85" r="5.76"/>
      <circle class="cls-6" cx="160.15" cy="134.49" r="5.76"/>
      <circle class="cls-6" cx="152.78" cy="145.15" r="5.76"/>
      <circle class="cls-6" cx="149.23" cy="157.68" r="5.76"/>
      <circle class="cls-6" cx="149.36" cy="170.68" r="5.76"/>
      <circle class="cls-6" cx="151.84" cy="183.42" r="5.76"/>
      <path class="cls-6" d="M250.83,139.45l-.54,7.51c-14.33-2.2-34.66-10.19-53.61-10.19-17.51,0-31.1,7-31.1,24.67,0,17.4,7.37,33.23,17.16,49.32l-10.19,4.83c-9.1-17.7-16.62-32.73-16.62-53.08,0-17,13.4-33.78,36.46-33.78C212.83,128.73,233.68,135.62,250.83,139.45Z" transform="translate(0 0)"/>
    </g>
    <g>
      <path class="cls-3" d="M265.49,142.67l2.14,72.92h74c9.1-17.7,16.62-32.73,16.62-53.08,0-17-13.4-30.56-32.7-30.56C305.1,132,282.64,138.83,265.49,142.67Z" transform="translate(0 0)"/>
      <g>
        <path class="cls-4" d="M349.39,146v42.09" transform="translate(0 0)"/>
        <path class="cls-4" d="M343.45,141.73v56" transform="translate(0 0)"/>
        <path class="cls-4" d="M337.51,138.78v66.76" transform="translate(0 0)"/>
        <path class="cls-4" d="M331.57,137.4v52.36" transform="translate(0 0)"/>
        <path class="cls-4" d="M325.62,137.14V190" transform="translate(0 0)"/>
        <path class="cls-4" d="M319.68,135.29V190" transform="translate(0 0)"/>
        <path class="cls-4" d="M313.74,135.29V190" transform="translate(0 0)"/>
        <path class="cls-4" d="M307.8,135.83v54.7" transform="translate(0 0)"/>
        <path class="cls-4" d="M301.86,136.36v54.7" transform="translate(0 0)"/>
        <path class="cls-4" d="M295.91,139.85v54.7" transform="translate(0 0)"/>
        <path class="cls-4" d="M290,140.39v61.66" transform="translate(0 0)"/>
        <path class="cls-4" d="M284,140.39v54.69" transform="translate(0 0)"/>
        <path class="cls-4" d="M278.09,140.39v54.69" transform="translate(0 0)"/>
        <path class="cls-5" d="M312.13,137.58c-12.56,2.07-40.14,15-37,32.43,4.46,24.75,18.91,14.82,38.06,11.26l14.48,4.83c5.18,5.29,12.81,10.13,18,3.75h8.58v33.51h-94.9v-81Z" transform="translate(0 0)"/>
      </g>
      <circle class="cls-6" cx="269.64" cy="131.81" r="5.76"/>
      <circle class="cls-6" cx="282.59" cy="128.7" r="5.76"/>
      <circle class="cls-6" cx="295.74" cy="125.4" r="5.76"/>
      <circle class="cls-6" cx="308.93" cy="123.2" r="5.76"/>
      <circle class="cls-6" cx="322.12" cy="121.89" r="5.76"/>
      <circle class="cls-6" cx="335.05" cy="122.63" r="5.76"/>
      <circle class="cls-6" cx="347.38" cy="126.85" r="5.76"/>
      <circle class="cls-6" cx="357.77" cy="134.49" r="5.76"/>
      <circle class="cls-6" cx="365.14" cy="145.15" r="5.76"/>
      <circle class="cls-6" cx="368.7" cy="157.68" r="5.76"/>
      <circle class="cls-6" cx="368.56" cy="170.68" r="5.76"/>
      <circle class="cls-6" cx="366.08" cy="183.42" r="5.76"/>
      <path class="cls-6" d="M267.1,139.45l.53,7.51c14.34-2.2,34.67-10.19,53.62-10.19,17.5,0,31.09,7,31.09,24.67,0,17.4-7.37,33.23-17.15,49.32l10.18,4.83c9.11-17.7,16.62-32.73,16.62-53.08,0-17-13.39-33.78-36.45-33.78C305.1,128.73,284.25,135.62,267.1,139.45Z" transform="translate(0 0)"/>
    </g>
    <path class="cls-6" d="M259,62l-6,11.26,6,11.23,6-11.23Zm0,28.44-6,11.23,6,11.26,6-11.26Z" transform="translate(0 0)"/>
    <path class="cls-6" d="M237.52,87.45l9.48,6,9.46-6-9.46-6Zm24,0,9.45,6,9.49-6-9.49-6Z" transform="translate(0 0)"/>
    <circle class="cls-6" cx="258.96" cy="87.58" r="4.56"/>
    <circle class="cls-6" cx="258.96" cy="116.67" r="12.2"/>
    <path class="cls-7" d="M255.9,104.85c0,3.64,0,5.75,0,7.73a72.52,72.52,0,0,0-8.67.91m23.55,0a72.9,72.9,0,0,0-8.68-.91v-7.73m-14.91,14.81a71,71,0,0,1,23.63,0" transform="translate(0 0)"/>
    <path class="cls-6" d="M247,137.3c-1.16,19.93-3.51,40.23-11.26,55l12.61-5.1c4.41-16.72,5.33-38.32,6.67-48.53Zm23.84,0-8,1.35c1.34,10.21,2.27,31.81,6.68,48.53l12.61,5.1C274.39,177.53,272,157.23,270.88,137.3Z" transform="translate(0 0)"/>
    <path class="cls-6" d="M258.94,180.47c-15.06,0-26.13,7.1-26.79,25.19-3.68-6.48-19.26-26.86-33.8-24.13-8.64,1.62-16.28,13.61-15,27.34-7.16-20.57-28.13-23.94-43.42-11.78,13.58,11.17,19.62,44.14,31.06,58.45H346.88c11.44-14.31,17.52-47.28,31.1-58.45-15.3-12.16-36.26-8.79-43.42,11.78,1.3-13.73-6.38-25.72-15-27.34-14.54-2.73-30.08,17.65-33.76,24.13C285.11,187.57,274,180.47,258.94,180.47Z" transform="translate(0 0)"/>
    <g>
      <path class="cls-5" d="M346.62,255.53c0,6.51-39.27,13.67-87.66,13.67S171.3,262,171.3,255.53s39.27-9.92,87.66-9.92S346.62,249,346.62,255.53Z" transform="translate(0 0)"/>
      <circle class="cls-4" cx="258.96" cy="133.52" r="4.09"/>
      <circle class="cls-4" cx="258.96" cy="142.36" r="4.36"/>
      <circle class="cls-4" cx="258.96" cy="151.88" r="4.76"/>
      <circle class="cls-4" cx="258.96" cy="162.47" r="5.43"/>
      <circle class="cls-4" cx="258.96" cy="174.27" r="5.96"/>
      <path d="M256.59,185.74c-.64,0-1.25.54-1.09,1.57.19,1.22.43,3.49.66,5,.25,1.74,1.27,1.32,1.53,0a29.77,29.77,0,0,0,.22-4.74C257.94,186.3,257.24,185.75,256.59,185.74Zm4.74,0c-.64,0-1.34.56-1.31,1.82a29.77,29.77,0,0,0,.22,4.74c.26,1.36,1.27,1.78,1.53,0,.23-1.54.47-3.81.66-5C262.59,186.28,262,185.73,261.33,185.74Zm-9,.66a1.37,1.37,0,0,0-1.16,1.31c.06,1.16.38,2.55.51,4.3s1.4,1.11,1.53.07a23.3,23.3,0,0,0,.14-4.55c0-.75-.37-1.08-.76-1.13A.76.76,0,0,0,252.36,186.4Zm12.95,0c-.39,0-.72.38-.77,1.13a23.14,23.14,0,0,0,.15,4.55c.13,1,1.4,1.74,1.53-.07s.44-3.14.51-4.3a1.39,1.39,0,0,0-1.17-1.31A.7.7,0,0,0,265.31,186.4Zm-18,2a1.31,1.31,0,0,0-.88,1.53,22.71,22.71,0,0,1,.62,4.63c0,1.29,1.1.83,1.17-.07s.18-2.82.18-4.56C248.39,188.67,247.84,188.3,247.3,188.44Zm23,0c-.39.1-.73.55-.73,1.53,0,1.74.11,3.65.18,4.56s1.16,1.36,1.16.07a22.71,22.71,0,0,1,.62-4.63,1.3,1.3,0,0,0-.87-1.53A.55.55,0,0,0,270.27,188.44Zm-68.95.2c-.64,0-1.1.85-.65,1.82.71,1.55,1.46,2.53,2.18,4.19.65,1.49,1.64.56,1.32-.47a38.8,38.8,0,0,0-1.64-4.38C202.16,189,201.71,188.65,201.32,188.64Zm115.28,0c-.38,0-.84.34-1.2,1.16a35.12,35.12,0,0,0-1.64,4.38c-.32,1,.67,2,1.31.47.73-1.66,1.48-2.64,2.19-4.19C317.7,189.49,317.25,188.62,316.6,188.64ZM206,188.71a1,1,0,0,0-.47,1.46c.58,1.42,1.41,2.87,2,4.41.52,1.35,1.66,1,1.28-.26s-.51-1.94-1.28-4.26C207.13,188.9,206.47,188.56,206,188.71Zm105.58,0c-.4.09-.87.48-1.16,1.35-.78,2.32-.89,3-1.28,4.26s.76,1.61,1.28.26c.58-1.54,1.42-3,2-4.41a1,1,0,0,0-.47-1.46A.66.66,0,0,0,311.57,188.71Zm-99.75,1.13c-.6.11-1.06,1-.65,2.15.51,1.42,1.25,2.76,1.89,4.38s1.72,1.28,1.46.25-.57-2.74-1.35-5.32C212.83,190.17,212.29,189.75,211.82,189.84Zm94.28,0c-.46-.09-1,.33-1.35,1.46-.77,2.58-1.09,4.29-1.34,5.32s.81,1.36,1.45-.25,1.38-3,1.9-4.38C307.17,190.87,306.7,190,306.1,189.84Zm-108.71.8a1.4,1.4,0,0,0-.84,1.93c.64,1.3,1,1.73,1.67,3.1s1.36.32,1.1-.58-.59-2-.91-3.24C198.17,190.9,197.77,190.6,197.39,190.64Zm123.15,0c-.39,0-.78.26-1,1.21-.32,1.29-.65,2.34-.91,3.24s.45,2,1.09.58,1-1.8,1.68-3.1A1.41,1.41,0,0,0,320.54,190.64Zm-78.2,3.27a1.42,1.42,0,0,0-1.17,1.75c.39,1.35,1,2.55,1.42,4.3.39,1.55,1.49.78,1.43-.26a35.06,35.06,0,0,0-.7-4.63C243.15,194.25,242.75,193.91,242.34,193.91Zm33.25,0c-.41,0-.82.34-1,1.16a34.6,34.6,0,0,0-.69,4.63c-.06,1,1,1.81,1.42.26.44-1.75,1-3,1.42-4.3A1.41,1.41,0,0,0,275.59,193.91ZM259,195.29c-.84,0-.95,1.13-1,2a14.36,14.36,0,0,1-2.41,7.37c-1.06,1.45-2.63,1.06-4.08.29a25.32,25.32,0,0,1-3.87-2.52c-1.54-1.16-2.72-.48-.87,2.16,5.39,7.67,11.23,14.23,11.23,26.76,0,1.61.28,2.11,1,2.11s1-.5,1-2.11c0-12.53,5.81-19.09,11.2-26.76,1.84-2.64.67-3.32-.88-2.16a25.26,25.26,0,0,1-3.86,2.52c-1.45.77-3,1.16-4.09-.29a14.37,14.37,0,0,1-2.4-7.37C259.92,196.42,259.8,195.29,259,195.29Zm-41.16-1.88a.85.85,0,0,0-.22,0c-.31.1-.52.48-.4,1.13.22,1.17,1,3.46,1.35,4.56s1.67.86,1.35-.62-.31-1.93-.69-3.61A1.78,1.78,0,0,0,217.8,193.41Zm82.32,0a1.78,1.78,0,0,0-1.38,1.5c-.39,1.68-.37,2.12-.69,3.61s1,1.71,1.35.62,1.13-3.39,1.34-4.56c.13-.65-.08-1-.4-1.13A.72.72,0,0,0,300.12,193.41Zm-106.78.48c-.68.05-1.16.9-.48,2.15s2,3,2.59,4,1.59.31.88-.91-1-2.64-1.79-4.38A1.3,1.3,0,0,0,193.34,193.89Zm131.25,0a1.31,1.31,0,0,0-1.21.87c-.83,1.74-1.07,3.15-1.78,4.38s.29,1.88.87.91,1.85-2.66,2.59-4S325.26,193.94,324.59,193.89Zm-168.22,3.88c-.78,0-1,1.37-.29,2.3a22.22,22.22,0,0,0,3,3.17c1,.87,1.25-.26.77-1.13s-1.18-1.76-2.15-3.21C157.19,198.11,156.72,197.79,156.37,197.77Zm205.19,0c-.36,0-.82.34-1.35,1.13-1,1.45-1.67,2.34-2.15,3.21s-.21,2,.76,1.13a22.85,22.85,0,0,0,3-3.17C362.58,199.14,362.34,197.73,361.56,197.77Zm-199.32,1.17c-.62,0-1,.46-.55,1.53.7,1.52,1.61,3.25,2.19,4.41s2.35,1.55,1.64-.25-.85-2.74-1.49-4.42A2,2,0,0,0,162.24,198.94Zm193.45,0a2,2,0,0,0-1.79,1.27c-.64,1.68-.78,2.61-1.49,4.42s1.06,1.41,1.64.25,1.49-2.89,2.18-4.41C356.72,199.4,356.31,199,355.69,198.94Zm-204.83.4c-.9,0-1,.91-.18,1.49,1.07.78,2.34,1.64,3.57,2.63,1.46,1.16,2,.09,1.24-.88a9,9,0,0,0-3.46-2.91A2.65,2.65,0,0,0,150.86,199.34Zm216.2,0a2.65,2.65,0,0,0-1.16.33,9.12,9.12,0,0,0-3.47,2.91c-.77,1-.21,2,1.24.88,1.24-1,2.51-1.85,3.57-2.63C368,200.25,368,199.35,367.06,199.34Zm-127.93.84a1,1,0,0,0-.73,1.38c.39,1.36.83,2.79,1.09,4.2s1.83,1.37,1.57.14-.39-2.76-.84-4.63c-.17-.7-.52-1-.87-1.09A.81.81,0,0,0,239.13,200.18Zm39.45,0c-.35,0-.71.39-.88,1.09-.45,1.87-.58,3.41-.84,4.63s1.31,1.21,1.57-.14.71-2.84,1.1-4.2a1,1,0,0,0-.73-1.38A.81.81,0,0,0,278.58,200.18ZM204,197.86c-.4.11-.62.87-.33,1.93,1.65,5.91,2.15,9,1.86,10.47s-1.09,1.65-2.15,1.16a21.74,21.74,0,0,1-3.28-1.86c-1-.67-2,.14-.58,1.28,7.06,5.81,12,12.44,13.85,20.49.39,1.64,1.42,1.84,1.13,0-1.6-10.14-1.91-18.47.51-23.7.91-2,0-3.85-1.46-.65-1,2.12-2.53,3-3.79,1.13a55.82,55.82,0,0,1-4.63-9c-.29-.84-.65-1.22-1-1.28A.54.54,0,0,0,204,197.86Zm109.7,0c-.3.06-.65.44-.94,1.28a57.49,57.49,0,0,1-4.63,9c-1.26,1.83-2.83,1-3.8-1.13-1.45-3.2-2.36-1.31-1.45.65,2.41,5.23,2.11,13.56.51,23.7-.29,1.84.74,1.64,1.13,0,1.89-8.05,6.79-14.68,13.85-20.49,1.39-1.14.38-2-.58-1.28a21.74,21.74,0,0,1-3.28,1.86c-1.07.49-1.87.29-2.16-1.16s.22-4.56,1.86-10.47c.3-1.06.07-1.82-.32-1.93A.6.6,0,0,0,313.72,197.86Zm-145.21,2.83c-.64,0-1.17.45-.87,1.42.46,1.55,1.42,3.22,1.75,4.19s1.36.52,1.16-.84-.29-2.16-.55-3.64A1.45,1.45,0,0,0,168.51,200.69Zm180.91,0a1.47,1.47,0,0,0-1.5,1.13c-.26,1.48-.35,2.29-.55,3.64s.85,1.81,1.17.84,1.29-2.64,1.75-4.19C350.58,201.14,350.05,200.7,349.42,200.69Zm-159-2c-.74-.13-.85,1.78-.22,2.56.84,1,2,2.28,3.17,3.68,1,1.16,1.57.13,1-.84s-1.44-2-3-4.45C191,199,190.67,198.71,190.42,198.66Zm137.08,0c-.24.05-.56.34-.94,1-1.55,2.45-2.41,3.48-3,4.45s0,2,1,.84c1.17-1.4,2.33-2.65,3.17-3.68C328.35,200.44,328.25,198.53,327.5,198.66Zm-154,4.62c-.45,0-.84.34-.65,1.27.27,1.3.66,2.39,1,3.61s1.17,1,1.17-.14a25.2,25.2,0,0,0-.4-3.69A1.27,1.27,0,0,0,173.5,203.28Zm170.92,0a1.25,1.25,0,0,0-1.09,1.05,23.9,23.9,0,0,0-.4,3.69c0,1.16.84,1.37,1.16.14s.72-2.31,1-3.61C345.27,203.62,344.88,203.24,344.42,203.28Zm-155.64,1.65c-.72.11-1.36.81-.51,1.9,1.36,1.74,2.84,3,3.35,3.61s1.83.41,1-.95-2.15-3.05-2.74-4.08A1,1,0,0,0,188.78,204.93Zm140.07,0a1,1,0,0,0-.8.48c-.58,1-1.88,2.7-2.73,4.08s.47,1.59,1,.95,2-1.87,3.36-3.61c.84-1.09.21-1.79-.51-1.9A1.5,1.5,0,0,0,328.85,204.93ZM164.68,209.8c-.57-.05-.76.41,0,1.46,1.74,2.39,3.66,6,3.79,7.55s-.63,1.53-1.35,1.53c-2.12,0-3.16-1.56-5.1-2s-2.22.57-.84,1.57c7.1,5.16,14.21,10.92,17.06,16.15,1.17,2.13,2.74,2.91,1.86.88-2.66-6.23-3.31-11.5-2.73-14.7s1.37-5.34,1.28-7.18-1.14-1.71-1.57,0a13.62,13.62,0,0,1-1.24,3.28c-.39.58-1.94.91-3.43-1.09a56.4,56.4,0,0,0-6.45-6.82A2.75,2.75,0,0,0,164.68,209.8Zm188.56,0a2.73,2.73,0,0,0-1.27.62,55.63,55.63,0,0,0-6.45,6.82c-1.49,2-3,1.67-3.43,1.09a13.62,13.62,0,0,1-1.24-3.28c-.43-1.71-1.47-1.84-1.57,0s.7,4,1.28,7.18-.07,8.47-2.74,14.7c-.87,2,.7,1.25,1.86-.88,2.86-5.23,10-11,17.06-16.15,1.38-1,1.1-2-.83-1.57s-3,2-5.11,2c-.71,0-1.48,0-1.35-1.53s2.05-5.16,3.79-7.55C354,210.21,353.81,209.75,353.24,209.8Z" transform="translate(0 0)"/>
      <path class="cls-4" d="M175.15,248.09l2.27,7.21m2.41-8.57,2,7.28m3-8.11,1.39,7.42m3.3-8.36,1.48,7.4m4.54-8,1.2,7.46m5.19-7.45,1.3,7.44m4.95-9.55.94,7.5m4.94-7.12.93,7.49m4.75-8.25.94,7.5m4.77-8.09.52,7.54m5.58-7.54.45,7.54m5.08-7.92.38,7.54m5.72-7.92.32,7.54m6.69-7.73.32,7.55m92.22.2-2.28,7.21m-2.4-8.57-2,7.28m-3-8.11-1.39,7.42M328.35,245l-1.48,7.4m-4.53-8-1.21,7.46m-5.19-7.45-1.3,7.44m-4.94-9.55-.94,7.5m-4.94-7.12-.94,7.49m-4.75-8.25-.94,7.5m-4.77-8.09-.51,7.54m-5.59-7.54-.44,7.54m-5.09-7.92-.38,7.54m-5.71-7.92-.32,7.54m-6.7-7.73-.31,7.55m-8.41-8v8.31" transform="translate(0 0)"/>
    </g>
  </g>
</svg>
