<?xml version="1.0" encoding="utf-8"?>
<!-- Generator: Adobe Illustrator 23.1.0, SVG Export Plug-In . SVG Version: 6.00 Build 0)  -->
<svg version="1.1" id="Layer_1" xmlns="http://www.w3.org/2000/svg" xmlns:xlink="http://www.w3.org/1999/xlink" x="0px" y="0px"
	 viewBox="0 0 1050 700" style="enable-background:new 0 0 1050 700;" xml:space="preserve">
<style type="text/css">
	.st0{fill:#FFFFFF;}
	.st1{stroke:#000000;stroke-width:29.1666;stroke-miterlimit:50;}
	.st2{stroke:#FFFFFF;stroke-width:14.5833;stroke-miterlimit:50;}
	.st3{fill:#CD2E3A;}
	.st4{fill:#0047A0;}
</style>
<title>Flag of South Korea</title>
<rect y="0" class="st0" width="1050" height="700"/>
<g transform="rotate(-56.3099325)">
	<g id="b2">
		<path id="b" class="st1" d="M-87.5,266.4l175,0 M-87.5,310.1l175,0 M-87.5,353.9l175,0"/>
		<g>
			<path class="st1" d="M-87.5,908.1l175,0 M-87.5,951.8h175 M-87.5,995.6h175"/>
		</g>
	</g>
	<path class="st2" d="M0,878.9l0,145.8"/>
	<circle class="st3" cx="0" cy="631" r="175"/>
	<path class="st4" d="M0,456c-48.3,0-87.5,39.2-87.5,87.5S-48.3,631,0,631s87.5,39.2,87.5,87.5C87.5,766.8,48.3,806,0,806
		c-96.6,0-175-78.4-175-175S-96.6,456,0,456z"/>
</g>
<g transform="rotate(-123.6900675)">
	<g>
		<g>
			<path class="st1" d="M-669.9-121.9l175,0 M-669.9-78.2l175,0 M-669.9-34.4l175,0"/>
			<g>
				<path class="st1" d="M-669.9,519.8h175 M-669.9,563.5h175 M-669.9,607.3h175"/>
			</g>
		</g>
	</g>
	<path class="st2" d="M-582.4-100v43.7 M-582.4,490.6v51 M-582.4,585.4v43.7"/>
</g>
</svg>
