<svg id="Layer_1" data-name="Layer 1" xmlns="http://www.w3.org/2000/svg" width="419.8mm" height="246.94mm" viewBox="0 0 1190 700">
  <defs>
    <style>
      .cls-1 {
        fill: #003893;
      }

      .cls-2 {
        fill: #fff;
      }

      .cls-3 {
        fill: #cf2027;
      }

      .cls-4 {
        fill: #f7d116;
      }
    </style>
  </defs>
  <path class="cls-1" d="M0,0H1190V700H0Z" transform="translate(0 0)"/>
  <path class="cls-2" d="M0,350H1190V525H0Z" transform="translate(0 0)"/>
  <path class="cls-3" d="M0,408.33H1190v58.34H0Z" transform="translate(0 0)"/>
  <g>
    <g id="d">
      <g id="c">
        <g id="b">
          <path id="a" class="cls-4" d="M446.25,227.5l-10.82,33.29,16.65,5.4" transform="translate(0 0)"/>
          <path class="cls-4" d="M446.25,227.5l10.81,33.29-16.64,5.4" transform="translate(0 0)"/>
        </g>
        <g>
          <path class="cls-4" d="M479.54,251.68h-35v17.5" transform="translate(0 0)"/>
          <path class="cls-4" d="M479.54,251.68l-28.32,20.58L440.93,258.1" transform="translate(0 0)"/>
        </g>
        <g>
          <path class="cls-4" d="M466.82,290.82,456,257.53l-16.65,5.41" transform="translate(0 0)"/>
          <path class="cls-4" d="M466.82,290.82l-28.31-20.58,10.28-14.16" transform="translate(0 0)"/>
        </g>
        <g>
          <path class="cls-4" d="M425.68,290.82,454,270.24l-10.28-14.16" transform="translate(0 0)"/>
          <path class="cls-4" d="M425.68,290.82l10.81-33.29,16.65,5.41" transform="translate(0 0)"/>
        </g>
        <g>
          <path class="cls-4" d="M413,251.68l28.32,20.58,10.28-14.16" transform="translate(0 0)"/>
          <path class="cls-4" d="M413,251.68h35v17.5" transform="translate(0 0)"/>
        </g>
      </g>
      <g>
        <g>
          <path class="cls-4" d="M446.25,577.5l-10.82,33.29,16.65,5.4" transform="translate(0 0)"/>
          <path class="cls-4" d="M446.25,577.5l10.81,33.29-16.64,5.4" transform="translate(0 0)"/>
        </g>
        <g>
          <path class="cls-4" d="M479.54,601.68h-35v17.5" transform="translate(0 0)"/>
          <path class="cls-4" d="M479.54,601.68l-28.32,20.58L440.93,608.1" transform="translate(0 0)"/>
        </g>
        <g>
          <path class="cls-4" d="M466.82,640.81,456,607.53l-16.65,5.41" transform="translate(0 0)"/>
          <path class="cls-4" d="M466.82,640.81l-28.31-20.57,10.28-14.16" transform="translate(0 0)"/>
        </g>
        <g>
          <path class="cls-4" d="M425.68,640.81,454,620.24l-10.28-14.16" transform="translate(0 0)"/>
          <path class="cls-4" d="M425.68,640.81l10.81-33.28,16.65,5.41" transform="translate(0 0)"/>
        </g>
        <g>
          <path class="cls-4" d="M413,601.68l28.32,20.58,10.28-14.16" transform="translate(0 0)"/>
          <path class="cls-4" d="M413,601.68h35v17.5" transform="translate(0 0)"/>
        </g>
      </g>
    </g>
    <g>
      <g>
        <g>
          <path class="cls-4" d="M646,372.61H611v17.5" transform="translate(0 0)"/>
          <path class="cls-4" d="M646,372.61l-28.31,20.57L607.37,379" transform="translate(0 0)"/>
        </g>
        <g>
          <path class="cls-4" d="M633.26,411.74l-10.82-33.29-16.64,5.41" transform="translate(0 0)"/>
          <path class="cls-4" d="M633.26,411.74l-28.32-20.58L615.23,377" transform="translate(0 0)"/>
        </g>
        <g>
          <path class="cls-4" d="M592.11,411.74l28.32-20.58L610.14,377" transform="translate(0 0)"/>
          <path class="cls-4" d="M592.11,411.74l10.82-33.29,16.64,5.41" transform="translate(0 0)"/>
        </g>
        <g>
          <path class="cls-4" d="M579.4,372.61l28.31,20.57L618,379" transform="translate(0 0)"/>
          <path class="cls-4" d="M579.4,372.61h35v17.5" transform="translate(0 0)"/>
        </g>
        <g>
          <path class="cls-4" d="M612.68,348.42l-10.81,33.29,16.64,5.41" transform="translate(0 0)"/>
          <path class="cls-4" d="M612.68,348.42l10.82,33.29-16.64,5.41" transform="translate(0 0)"/>
        </g>
      </g>
      <g>
        <g>
          <path class="cls-4" d="M313.1,480.76h-35v17.5" transform="translate(0 0)"/>
          <path class="cls-4" d="M313.1,480.76l-28.31,20.57L274.5,487.18" transform="translate(0 0)"/>
        </g>
        <g>
          <path class="cls-4" d="M300.39,519.89l-10.82-33.28L272.93,492" transform="translate(0 0)"/>
          <path class="cls-4" d="M300.39,519.89l-28.32-20.57,10.29-14.16" transform="translate(0 0)"/>
        </g>
        <g>
          <path class="cls-4" d="M259.24,519.89l28.32-20.57-10.29-14.16" transform="translate(0 0)"/>
          <path class="cls-4" d="M259.24,519.89l10.82-33.28L286.7,492" transform="translate(0 0)"/>
        </g>
        <g>
          <path class="cls-4" d="M246.53,480.76l28.31,20.57,10.29-14.15" transform="translate(0 0)"/>
          <path class="cls-4" d="M246.53,480.76h35v17.5" transform="translate(0 0)"/>
        </g>
        <g>
          <path class="cls-4" d="M279.81,456.58,269,489.86l16.64,5.41" transform="translate(0 0)"/>
          <path class="cls-4" d="M279.81,456.58l10.82,33.28L274,495.27" transform="translate(0 0)"/>
        </g>
      </g>
    </g>
    <g>
      <g>
        <g>
          <path class="cls-4" d="M569.68,607.39l-10.81-33.28-16.65,5.4" transform="translate(0 0)"/>
          <path class="cls-4" d="M569.68,607.39l-28.31-20.57,10.28-14.16" transform="translate(0 0)"/>
        </g>
        <g>
          <path class="cls-4" d="M528.54,607.39l28.31-20.57-10.28-14.16" transform="translate(0 0)"/>
          <path class="cls-4" d="M528.54,607.39l10.81-33.28,16.65,5.4" transform="translate(0 0)"/>
        </g>
        <g>
          <path class="cls-4" d="M515.82,568.26l28.32,20.57,10.29-14.15" transform="translate(0 0)"/>
          <path class="cls-4" d="M515.82,568.26h35v17.5" transform="translate(0 0)"/>
        </g>
        <g>
          <path class="cls-4" d="M549.11,544.08,538.3,577.36l16.64,5.41" transform="translate(0 0)"/>
          <path class="cls-4" d="M549.11,544.08l10.82,33.28-16.65,5.41" transform="translate(0 0)"/>
        </g>
        <g>
          <path class="cls-4" d="M582.4,568.26h-35v17.5" transform="translate(0 0)"/>
          <path class="cls-4" d="M582.4,568.26l-28.32,20.57L543.8,574.68" transform="translate(0 0)"/>
        </g>
      </g>
      <g>
        <g>
          <path class="cls-4" d="M364,324.24,353.14,291l-16.64,5.41" transform="translate(0 0)"/>
          <path class="cls-4" d="M364,324.24l-28.32-20.58,10.29-14.15" transform="translate(0 0)"/>
        </g>
        <g>
          <path class="cls-4" d="M322.81,324.24l28.32-20.58-10.29-14.15" transform="translate(0 0)"/>
          <path class="cls-4" d="M322.81,324.24,333.63,291l16.64,5.41" transform="translate(0 0)"/>
        </g>
        <g>
          <path class="cls-4" d="M310.1,285.11l28.32,20.57,10.28-14.16" transform="translate(0 0)"/>
          <path class="cls-4" d="M310.1,285.11h35v17.5" transform="translate(0 0)"/>
        </g>
        <g>
          <path class="cls-4" d="M343.39,260.92l-10.82,33.29,16.64,5.41" transform="translate(0 0)"/>
          <path class="cls-4" d="M343.39,260.92l10.81,33.29-16.64,5.41" transform="translate(0 0)"/>
        </g>
        <g>
          <path class="cls-4" d="M376.67,285.11h-35v17.5" transform="translate(0 0)"/>
          <path class="cls-4" d="M376.67,285.11l-28.31,20.57-10.29-14.16" transform="translate(0 0)"/>
        </g>
      </g>
    </g>
    <g>
      <g>
        <g>
          <path class="cls-4" d="M322.81,607.39l28.32-20.57-10.29-14.16" transform="translate(0 0)"/>
          <path class="cls-4" d="M322.81,607.39l10.82-33.28,16.64,5.4" transform="translate(0 0)"/>
        </g>
        <g>
          <path class="cls-4" d="M310.1,568.26l28.32,20.57,10.28-14.15" transform="translate(0 0)"/>
          <path class="cls-4" d="M310.1,568.26h35v17.5" transform="translate(0 0)"/>
        </g>
        <g>
          <path class="cls-4" d="M343.39,544.08l-10.82,33.28,16.64,5.41" transform="translate(0 0)"/>
          <path class="cls-4" d="M343.39,544.08l10.81,33.28-16.64,5.41" transform="translate(0 0)"/>
        </g>
        <g>
          <path class="cls-4" d="M376.67,568.26h-35v17.5" transform="translate(0 0)"/>
          <path class="cls-4" d="M376.67,568.26l-28.31,20.57-10.29-14.15" transform="translate(0 0)"/>
        </g>
        <g>
          <path class="cls-4" d="M364,607.39l-10.82-33.28-16.64,5.4" transform="translate(0 0)"/>
          <path class="cls-4" d="M364,607.39l-28.32-20.57,10.29-14.16" transform="translate(0 0)"/>
        </g>
      </g>
      <g>
        <g>
          <path class="cls-4" d="M528.54,324.24l28.31-20.58-10.28-14.15" transform="translate(0 0)"/>
          <path class="cls-4" d="M528.54,324.24,539.35,291,556,296.36" transform="translate(0 0)"/>
        </g>
        <g>
          <path class="cls-4" d="M515.82,285.11l28.32,20.57,10.29-14.16" transform="translate(0 0)"/>
          <path class="cls-4" d="M515.82,285.11h35v17.5" transform="translate(0 0)"/>
        </g>
        <g>
          <path class="cls-4" d="M549.11,260.92,538.3,294.21l16.64,5.41" transform="translate(0 0)"/>
          <path class="cls-4" d="M549.11,260.92l10.82,33.29-16.65,5.41" transform="translate(0 0)"/>
        </g>
        <g>
          <path class="cls-4" d="M582.4,285.11h-35v17.5" transform="translate(0 0)"/>
          <path class="cls-4" d="M582.4,285.11l-28.32,20.57L543.8,291.52" transform="translate(0 0)"/>
        </g>
        <g>
          <path class="cls-4" d="M569.68,324.24,558.87,291l-16.65,5.41" transform="translate(0 0)"/>
          <path class="cls-4" d="M569.68,324.24l-28.31-20.58,10.28-14.15" transform="translate(0 0)"/>
        </g>
      </g>
    </g>
    <g>
      <g>
        <g>
          <path class="cls-4" d="M246.53,372.61l28.31,20.57L285.13,379" transform="translate(0 0)"/>
          <path class="cls-4" d="M246.53,372.61h35v17.5" transform="translate(0 0)"/>
        </g>
        <g>
          <path class="cls-4" d="M279.81,348.42,269,381.71l16.64,5.41" transform="translate(0 0)"/>
          <path class="cls-4" d="M279.81,348.42l10.82,33.29L274,387.12" transform="translate(0 0)"/>
        </g>
        <g>
          <path class="cls-4" d="M313.1,372.61h-35v17.5" transform="translate(0 0)"/>
          <path class="cls-4" d="M313.1,372.61l-28.31,20.57L274.5,379" transform="translate(0 0)"/>
        </g>
        <g>
          <path class="cls-4" d="M300.39,411.74l-10.82-33.29-16.64,5.41" transform="translate(0 0)"/>
          <path class="cls-4" d="M300.39,411.74l-28.32-20.58L282.36,377" transform="translate(0 0)"/>
        </g>
        <g>
          <path class="cls-4" d="M259.24,411.74l28.32-20.58L277.27,377" transform="translate(0 0)"/>
          <path class="cls-4" d="M259.24,411.74l10.82-33.29,16.64,5.41" transform="translate(0 0)"/>
        </g>
      </g>
      <g>
        <g>
          <path class="cls-4" d="M579.4,480.76l28.31,20.57L618,487.18" transform="translate(0 0)"/>
          <path class="cls-4" d="M579.4,480.76h35v17.5" transform="translate(0 0)"/>
        </g>
        <g>
          <path class="cls-4" d="M612.68,456.58l-10.81,33.28,16.64,5.41" transform="translate(0 0)"/>
          <path class="cls-4" d="M612.68,456.58l10.82,33.28-16.64,5.41" transform="translate(0 0)"/>
        </g>
        <g>
          <path class="cls-4" d="M646,480.76H611v17.5" transform="translate(0 0)"/>
          <path class="cls-4" d="M646,480.76l-28.31,20.57-10.29-14.15" transform="translate(0 0)"/>
        </g>
        <g>
          <path class="cls-4" d="M633.26,519.89l-10.82-33.28L605.8,492" transform="translate(0 0)"/>
          <path class="cls-4" d="M633.26,519.89l-28.32-20.57,10.29-14.16" transform="translate(0 0)"/>
        </g>
        <g>
          <path class="cls-4" d="M592.11,519.89l28.32-20.57-10.29-14.16" transform="translate(0 0)"/>
          <path class="cls-4" d="M592.11,519.89l10.82-33.28,16.64,5.4" transform="translate(0 0)"/>
        </g>
      </g>
    </g>
  </g>
</svg>
