<svg id="Layer_1" data-name="Layer 1" xmlns="http://www.w3.org/2000/svg" xmlns:xlink="http://www.w3.org/1999/xlink" width="370.42mm" height="246.94mm" viewBox="0 0 1050 700">
  <defs>
    <style>
      .cls-1, .cls-13, .cls-16, .cls-8 {
        fill: none;
      }

      .cls-10, .cls-11, .cls-12, .cls-15, .cls-19, .cls-2, .cls-4, .cls-7, .cls-9 {
        fill: #fff;
      }

      .cls-3 {
        fill: #ce1126;
      }

      .cls-10, .cls-11, .cls-12, .cls-13, .cls-14, .cls-15, .cls-16, .cls-4, .cls-6, .cls-7, .cls-8, .cls-9 {
        stroke: #c09300;
      }

      .cls-10, .cls-11, .cls-4, .cls-7, .cls-8, .cls-9 {
        stroke-linejoin: round;
      }

      .cls-4 {
        stroke-width: 1.48px;
      }

      .cls-14, .cls-18, .cls-5, .cls-6 {
        fill: #c09300;
      }

      .cls-6 {
        stroke-miterlimit: 10;
        stroke-width: 1.25px;
      }

      .cls-7 {
        stroke-width: 1.39px;
      }

      .cls-10, .cls-8 {
        stroke-width: 1.48px;
      }

      .cls-10, .cls-11, .cls-9 {
        stroke-linecap: round;
      }

      .cls-9 {
        stroke-width: 2.77px;
      }

      .cls-11 {
        stroke-width: 1.04px;
      }

      .cls-12 {
        stroke-width: 1.42px;
      }

      .cls-13 {
        stroke-width: 1.48px;
      }

      .cls-14 {
        stroke-width: 0.41px;
      }

      .cls-15 {
        stroke-width: 1.34px;
      }

      .cls-16 {
        stroke-width: 1.07px;
      }

      .cls-17 {
        clip-path: url(#clip-path);
      }

      .cls-18, .cls-19 {
        fill-rule: evenodd;
      }
    </style>
    <clipPath id="clip-path" transform="translate(0 0)">
      <path class="cls-1" d="M556.42,313c-.33,0-.65,0-1,0-7.16,0-23.8-3.67-30.21-9.18-6.72,5.09-23.63,9.18-30.68,9.18a5.34,5.34,0,0,1-1-.1c0,1.61.07,3.27.17,4.79a83.9,83.9,0,0,0,2.87,16.79A82,82,0,0,0,525,377.35a82.19,82.19,0,0,0,28.4-42.92,84.61,84.61,0,0,0,2.88-16.8c.09-1.58.17-3.52.17-4.68Z"/>
    </clipPath>
  </defs>
  <path d="M0,0H1050V700H0Z" transform="translate(0 0)"/>
  <path class="cls-2" d="M0,0H1050V466.67H0Z" transform="translate(0 0)"/>
  <path class="cls-3" d="M0,0H1050V233.33H0Z" transform="translate(0 0)"/>
  <g>
    <path class="cls-4" d="M525.94,352.8,605.84,427l-5.69-134.72c-.83-20.41-18.58-15.73-31.46-8.36-13.06,8.36-28,8.36-43.69,2.84-15.73,5.52-30.63,5.52-43.69-2.84-12.88-7.37-30.62-12-31.46,8.36L444.16,427Z" transform="translate(0 0)"/>
    <path id="a" class="cls-5" d="M459,287.58l-5.52,131L444.14,427l5.7-134.72c2.67-1.84,7.36-4.68,9.2-4.68ZM470.27,297l-4.69,109.61-9.37,9.59,5.69-126.57c1.84,1.84,7.36,6.36,8.37,7.36Zm10.2,8.36-3.68,91.42-7.53,7.36L474,299.8c1.84,1.84,5.52,4.52,6.52,5.52Zm11,4.69-3.68,77.92-7.37,6,3.69-86.73C486,308,489.68,310,491.52,310Zm10.21,0-2.68,64.93-7.53,7.37,2.85-71.46c1.83,0,6.52,0,7.36-.84Z" transform="translate(0 0)"/>
    <path class="cls-5" d="M590.94,287.58l5.53,131,9.37,8.37-5.69-134.72c-2.68-1.84-7.37-4.68-9.21-4.68ZM579.72,297l4.69,109.61,9.37,9.59-5.69-126.57c-1.84,1.84-7.37,6.36-8.37,7.36Zm-10.21,8.36,3.68,91.42,7.53,7.36L576,299.8c-1.84,1.84-5.52,4.52-6.53,5.52Zm-11,4.69,3.69,77.92,7.36,6-3.68-86.73C564,308,560.31,310,558.46,310Zm-10.2,0,2.68,64.93,7.53,7.37-2.85-71.46c-1.84,0-6.53,0-7.36-.84Z" transform="translate(0 0)"/>
    <path class="cls-6" d="M528.68,367.57l11.21,51.05-3.68,3.68-3.85-2.84L526,373.94l2.68,45.52L525,424.14l-3.69-4.68L524,373.94l-6.36,45.52-3.85,2.84-3.68-3.68,11.21-51.05Z" transform="translate(0 0)"/>
    <g id="b">
      <path class="cls-7" d="M499.89,345.15l-22.26,79,30.63,4.69,13-59.42-21.42-24.26Z" transform="translate(0 0)"/>
      <path class="cls-8" d="M492.52,372.1l2.68,6.52,14.48-13.82" transform="translate(0 0)"/>
      <path class="cls-8" d="M502.55,355.74l3,28.41,9.21-12m-3.68,4.68,5,17.35m2-6.37L507.93,403.2m3.17,15.42-3.26-15.39L505,387.56l-6.81,9.23-3-10.64-9.54,9.79,4.85,17.79,6.7-11,3.68,11.22,6.87-10.69" transform="translate(0 0)"/>
      <path class="cls-8" d="M484.15,422.3l6.18-8.68,4,13.36,5.52-9.37,3.69,11.22" transform="translate(0 0)"/>
    </g>
    <g>
      <path class="cls-7" d="M550.1,345.15l22.26,79-30.63,4.69-13.05-59.42,21.42-24.26Z" transform="translate(0 0)"/>
      <path class="cls-8" d="M557.46,372.1l-2.68,6.52L540.31,364.8" transform="translate(0 0)"/>
      <path class="cls-8" d="M547.44,355.74l-3,28.41-9.2-12m3.68,4.68-5,17.35m-2-6.37,10.17,15.44m-3.17,15.42,3.25-15.39L545,387.56l6.82,9.23,3-10.64,9.53,9.79-4.85,17.79-6.69-11-3.68,11.22-6.88-10.69" transform="translate(0 0)"/>
      <path class="cls-8" d="M565.84,422.3l-6.18-8.68-4,13.36-5.53-9.37-3.68,11.22" transform="translate(0 0)"/>
    </g>
    <g>
      <path class="cls-9" d="M525,459.45c23.27,0,45.53-1.84,58.58-5.53,5.53-1,5.53-3.84,5.53-7.53,5.52-1.84,2.68-8.36,6.53-8.36-3.85,1-4.69-6.53-9.38-5.52,0-6.53-6.52-7.37-12-5.53-11.05,3.68-30.63,4.52-49.21,4.52-18.58-.84-38-.84-49.21-4.52-5.52-1.84-12-1-12,5.53-4.69-1-5.53,6.52-9.38,5.52,3.85,0,1,6.52,6.53,8.36,0,3.69,0,6.53,5.69,7.53,12.89,3.69,35.15,5.53,58.41,5.53Z" transform="translate(0 0)"/>
      <path class="cls-10" d="M493.36,424.13c7.53,1,15.9,1.84,22.43,1,3.68,0,6.36,6.36-1,7.36-6.53.84-16.74,0-22.26-1-4.69-.84-14.9-2.68-21.43-4.52-6.52-2.85-1.84-8.37,1.84-7.53a122.77,122.77,0,0,0,20.43,4.68Zm63.27,0c-7.53,1-15.9,1.84-22.26,1-3.85,0-6.53,6.36.84,7.36,6.53.84,16.74,0,22.26-1,4.69-.84,14.89-2.68,21.42-4.52,6.53-2.85,1.84-8.37-1.84-7.53a122.41,122.41,0,0,1-20.42,4.68Z" transform="translate(0 0)"/>
      <path class="cls-10" d="M470.26,420.46c-5.69-1-8.36,5.52-6.52,9.2.84-1.84,4.69-1.84,5.52-3.68,1-2.85-.83-2.85,1-5.52Zm22.26,17.11c0-3.68,3.69-3.22,3.69-6.91,0-1.84-1-4.68-2.85-4.68a4,4,0,0,0-3.68,3.68C488.84,433.34,492.52,433.9,492.52,437.57ZM519,427c5.52,0,5,7.37,2.29,11,0-2.68-4.68-3.68-4.68-5.52C516.63,429.66,520.86,429.66,519,427Zm60.7-6.52c5.69-1,8.37,5.52,6.53,9.2-.84-1.84-4.69-1.84-5.52-3.68-1-2.85.83-2.85-1-5.52Zm-22.26,17.11c0-3.68-3.68-3.22-3.68-6.91,0-1.84,1-4.68,2.85-4.68a4,4,0,0,1,3.68,3.68c.84,3.68-2.85,4.24-2.85,7.91ZM531,427c-5.52,0-5,7.37-2.3,11,0-2.68,4.69-3.68,4.69-5.52,0-2.85-4.23-2.85-2.39-5.53Z" transform="translate(0 0)"/>
      <path class="cls-11" d="M472.11,422.3c1.84,0,4.69.84,5.52,1.84l-5.53-1.84Zm9.19,2.85a20.39,20.39,0,0,1,6.53,1.84l-6.53-1.85Zm33.48,3.67c-1.84,0-5.52,0-6.52.84l6.52-.84Zm-10.2,0c-1-1-4.69-1-6.53,0h6.53Zm73.31-6.52c-1.84,0-4.52.84-5.52,1.84Zm-9.21,2.85a20.41,20.41,0,0,0-6.52,1.84l6.53-1.85Zm-33.48,3.67c1.84,0,5.53,0,6.53.84l-6.53-.84Zm10.21,0c1-1,4.69-1,6.53,0h-6.53Z" transform="translate(0 0)"/>
      <g>
        <path class="cls-5" d="M470.56,437a.93.93,0,0,1-.8-1.19c.19-.71.76-1.12,1.3-.93.34.12,1,.75,1,1s-.33.88-.47.88a.33.33,0,0,0-.21.12,1,1,0,0,1-.79.14Zm64.08,4.58a1.37,1.37,0,0,1-.6-.85,1.53,1.53,0,0,1,1.08-1.19,2.11,2.11,0,0,1,1,.51,1,1,0,0,1-.18,1.41,1.84,1.84,0,0,1-1.28.12Zm.42,2.89a.91.91,0,0,1-.71-1c0-.57,0-.65.61-1l.43-.23.4.18c.56.25.81.52.83.89a1.15,1.15,0,0,1-.74,1,.77.77,0,0,1-.82.06Z" transform="translate(0 0)"/>
        <path class="cls-5" d="M475.7,431.77a3,3,0,0,0-1.27.55c-.76.18-1.64.64-2.37.15-.72-.23-1.68-.05-1.79.84a1.26,1.26,0,0,0,1.9.69c.47-.63,1.78-1,1.93.07-.54.81-.48,1.88-.91,2.74a3.85,3.85,0,0,1-.59,1.49,2.91,2.91,0,0,0-1.57.33,2.46,2.46,0,0,0-1.89,1,5.45,5.45,0,0,0-1.06,2.19c.13.84,1.1,1.09,1.82,1.13.78.21,1.56.49,2.34.73,1.26.28,2.45.74,3.72,1,1.85.55,3.79.81,5.65,1.31a3.8,3.8,0,0,0,.58.15c.77.16,1.18-.68,1.24-1.32.38-1.35.68-2.73,1.06-4.08.26-.54.58-1.77-.48-1.49a4.16,4.16,0,0,1-1.86.94c-1,.06-.43,1.11,0,1.53a2.77,2.77,0,0,1-.59,2.05c-.6.38-1.36-.07-2-.22-.67,0-2-.33-1.39-1.24.23-.68.25-1.41.51-2.08a8.89,8.89,0,0,0,.55-2.26c-.42-.91-1.14.3-1.71.4-.4.27-1.88.39-1.1,1.09.68.51.16,1.4,0,2.05,0,.89-1,1.11-1.71.91-.74,0-1.75-.58-1.13-1.39.14-.67.37-1.33.51-2s.51-1.59.8-2.41a6.9,6.9,0,0,1,.73-2c0-.8.56-1.49.55-2.3-.06-.39-.24-.54-.48-.55Zm-4.19,8.46a.44.44,0,0,1,.25,0c.3.12.3.36,0,.62a1.19,1.19,0,0,1-.32.22c-.55-.05-.71-.13-.73-.33s0-.23.4-.4A1.58,1.58,0,0,1,471.51,440.23Zm-1.21,5.86c-.58-.54-.49-.94.37-1.58.37-.27.59-.24,1,.14.64.59.67,1,.1,1.46a.93.93,0,0,1-.73.31A.84.84,0,0,1,470.3,446.09Zm3.56,1.07a1,1,0,0,1-.74-1.21s0,0,0-.06c.15-.5.24-.55,1-.56s1,.13,1,.87c0,.41,0,.5-.24.7a1.25,1.25,0,0,1-1,.26Zm104,.1c-.27-.22-.32-.32-.32-.6,0-.48.27-.83.87-1.11.79-.36,1.12-.31,1.42.22.4.7.38,1-.1,1.46-.26.26-.31.28-.92.28S578.11,447.5,577.82,447.26Zm-99.24,1.34a.88.88,0,0,1-.65-.94c0-.39,0-.45.3-.67a1.53,1.53,0,0,1,.67-.28.72.72,0,0,1,.68.16c.64.45.78.89.41,1.33a1.2,1.2,0,0,1-1.41.4Zm25.58,1.14c-.1-.12-.31-.19-.33-.33a7.38,7.38,0,0,1,.28-1.93,11.41,11.41,0,0,1,.22-1.84c.22-1.08.22-2.19.47-3.27a6.07,6.07,0,0,1,.23-1.64c.18-.84,0-1.72.26-2.55,0-.32.33-1.15.65-.66a10.31,10.31,0,0,0,1.66,1.77c.51.3,0,.73-.31.88a1.09,1.09,0,0,0-.57,1.19,13.89,13.89,0,0,0-.28,1.43c-.1.73-.08,1.47-.18,2.19a11.57,11.57,0,0,0-.2,2.21c0,.46-.21.88-.18,1.35a2,2,0,0,1-.48,1.37,1.09,1.09,0,0,1-1.24-.17Zm34.65-11.43a15.13,15.13,0,0,0-1.57,1.42c-.69.52.57.83.73,1.28a11.44,11.44,0,0,1,.22,2.11,5.25,5.25,0,0,1,.25,2c-.06.72-1,.57-1.42,1-.57.24-.8.81-1.24,1.2a4.9,4.9,0,0,0-.4,1.9c0,.52-.35,1.11,0,1.57l.15.22c.11.16.39,0,.58.07a5.12,5.12,0,0,0,1.75-.18,31.9,31.9,0,0,1,4.26-.33c.88,0,1.72-.28,2.59-.26.69.15,1-.59,1-1.13-.39-.76-.06-1.66-.37-2.44a14.61,14.61,0,0,1-.29-2.48.7.7,0,0,0-1.24-.4c-.4.4-1,.48-1.35,1-.34.71.73.71.91,1.24a6.22,6.22,0,0,1,.19,1.72c.13.69-.62.73-1.1.8-.62.23-1.5.39-1.86-.37a6.33,6.33,0,0,1-.25-1.75c0-1-.27-2.06-.33-3.09-.06-1.28-.28-2.56-.37-3.83,0-.53-.08-1.4-.83-1.24Zm-.73,9.62.36,0,0,.44,0,.43L538,449c-.25.07-.47.11-.47.11a1.7,1.7,0,0,1-.22-.15c-.26-.18-.19-.45.14-.8a.58.58,0,0,1,.59-.22Zm-35-10.82c-.45.15-1,.8-1.46.8-1,.07-.88,1.07-.15,1.42a4.9,4.9,0,0,1,0,1c.14.92-.44,1.66-.33,2.59-.05,1-.36,2-.4,3a31.23,31.23,0,0,0-.47,3.2c-.12,1-.82.63-1.42.37,0-.42,0-.82,0-1.24.25-.95-.52-1.23-1.28-1.35a1,1,0,0,1-1-1.31c.35-.41,1.21-.3,1.75-.37,1.15.24,1.1-1.29.51-1.82-.4-.74-1.4-1.06-1.67-1.82a2.78,2.78,0,0,0-1.39-2.52,3,3,0,0,0-2.7,2.08c-.53.15-1,.31-1.57.51-.82.21-2,1.64-.87,2.19.63.17,2.57.61,1.71,1.49a1.81,1.81,0,0,1-2.22.62c-.85,0-1.79-.41-1.75-1.38a9.7,9.7,0,0,0-.55-2.63c-.17-1-1.28-.75-1.35.15a1.56,1.56,0,0,0-.14,2.37,3.28,3.28,0,0,1-.37,2.62c-.22,1-1.35,1.06-2.15,1.39-.39.15-1.9-.09-1.35.76a5.29,5.29,0,0,0,2.85.37,3.14,3.14,0,0,0,2.26-1.61c.64-.65,1.75-.31,2.59-.32s1.82.63,2.69.21c.26-.65,1.43-1.74,1.79-.62a1.42,1.42,0,0,0,1.75,1.43c1-.06.64.71.62,1.31a2.49,2.49,0,0,0,1.68,2.11,2,2,0,0,0,.94,0c.88-.27,1.82-.66,2.08-1.64a19.57,19.57,0,0,0,.62-2.51,29.67,29.67,0,0,0,.51-4c.32-1.21.23-2.49.48-3.72q.23-1.37.36-2.73c-.11-.49-.32-.57-.58-.47ZM495.21,442c.17,0,.27.24.29.62a.86.86,0,0,0,.51.84c.21.06.19.28,0,.44a1.47,1.47,0,0,1-.8.15,1.91,1.91,0,0,1-1.46-.55l-.22-.22.33-.22a7.21,7.21,0,0,0,.66-.58c.33-.34.55-.5.73-.48Zm77-9.18a9.36,9.36,0,0,0-1.93.29c-1.21-.08-1.82,1.2-.66,1.82.71,1.79,1.8-.37,2.92-.22,1.68.33,1.82,2.14,2.08,3.5a17.68,17.68,0,0,0,.87,3.94c1.13,1.25-.84,2-1.67,1.06-.72-.78-2.24-1.73-3.1-.66-1.06.45-1.1,1.86-2,2.26-1.41.43-1.59-1.3-2.33-2-.69-1-2-1.05-3.07-1.39-.5-1-.24-2.73-1.27-3.42-.87.35-2.47,2-1.13,2.73,1.3,1.12-.57,1.64-1.17,2.41a6,6,0,0,0-1.13,3.46c-1.47.81-1.75-.92-1.93-2-.12-1.3-1.21-.92-2-.44-1.11.45-1.67,1.5-2.44,2.33a20.91,20.91,0,0,0,0,2.37c.26,1,1.41.5,2.12.44,1.14-.48,1.61.73.69,1.42-.62.79-2.59.38-2.41,1.64a9.67,9.67,0,0,0,1.94,0c1.27-.35,2.63-1.24,2.77-2.66.16-1.23,1.94-1,2.91-1.28,1.22-.35,2.68-.44,3,1.1.82.87,2.62,1.85,3.53.65a2.79,2.79,0,0,0,1.32-2.62c-.19-.92,1.48-.95,1.89-.44.61,1,2.51.71,3.43.15,1-.72,1.19-2,2.59-2,2.08-.62,4.24-1,6.27-1.75,1.64-.36-.25-1.4-.66-2-1.25-.62-2.34,1.91-3.75.65-1.09-.83-1-2.42-1.43-3.64-.27-1.59-.2-3.41-1.34-4.67a3.64,3.64,0,0,0-3-1Zm-7.94,11a1.32,1.32,0,0,1,.58.22,1.53,1.53,0,0,1,.87,1.13c0,.25-.06.27-.43.44a2.35,2.35,0,0,1-.59.22c-.21,0-.73-.42-.73-.59a2.49,2.49,0,0,0-.14-.54c-.14-.38-.12-.37.07-.62s.22-.25.36-.26Zm7.62.4a.82.82,0,0,1,.87.44c.21.39.07.68-.47.91a3,3,0,0,1-.51.19,2.6,2.6,0,0,1-.44-.26c-.32-.21-.36-.31-.37-.55s.41-.69.91-.73Zm-10.43.11c.12,0,.24.05.4.19a.9.9,0,0,1,.33.69,2.94,2.94,0,0,1,0,.73c-.06.26-.07.25-.66.25-.75,0-.82-.07-.8-.76,0-.44,0-.56.25-.8a.94.94,0,0,1,.48-.3ZM555.07,446a.67.67,0,0,1,.51.51c.08.37,0,.54-.29.69a1.54,1.54,0,0,1-1,.08.91.91,0,0,1-.22-.22c-.08-.14-.06-.21,0-.29s.14-.14.14-.19a1,1,0,0,1,.18-.32.65.65,0,0,1,.66-.26Zm10.79,1.39a.71.71,0,0,1,.51.18.39.39,0,0,1,0,.65,2.45,2.45,0,0,1-1.32,0,.22.22,0,0,1-.18-.25c0-.17,0-.27.33-.4a1.61,1.61,0,0,1,.69-.18Zm-20,5.62c-.11-.08-.28-.14-.11-.26a1.64,1.64,0,0,1,1-.61,3.9,3.9,0,0,0,1.6-1.3c.06-.39.5-.6.5-1a7.1,7.1,0,0,0-.1-1.66,2.05,2.05,0,0,0-1-1.14c-.3-.23-.78-.3-.89-.71s.29-.71.42-1.06.48-1,.76-1.49.76,0,.92.3a4,4,0,0,1,.53,1.05,3.27,3.27,0,0,1,.79,1.36,2.45,2.45,0,0,1,.43,1.12c0,.49.27.92.26,1.41a5.1,5.1,0,0,1-.23,1.95c-.16.35-.49.55-.7.86a4.47,4.47,0,0,1-1.26.86c-.34.1-.54.49-1,.4a10.82,10.82,0,0,1-1.8,0c0,.06-.19-.11-.15-.07Zm-8,.52c-.29-.29-.35-.41-.35-.7s0-.4.33-.68c.51-.52.76-.53,1.64-.08s1.13.46,1.21.16.56-.56,1-.56a.94.94,0,0,1,.69.24c.29.23.31.26.31.79s0,.56-.34.86a.73.73,0,0,1-.77.26.88.88,0,0,1-.9-.69c-.06-.29-.16-.36-.24-.16a.48.48,0,0,1-.28.18,2.64,2.64,0,0,0-.93.58.85.85,0,0,1-.6.15c-.42,0-.47,0-.79-.35Zm-23.12-10.38a1.83,1.83,0,0,0-1.72,1.42c.18.88.91,1.74.44,2.66.32,1.18-.89,1.63-1.71.95a17.4,17.4,0,0,0-1.5-3.39c-.94-.27-1.35,1.23-2,1.75.32.88,1.27,1.67,1.38,2.77a2.8,2.8,0,0,1-1.35,2.81c-.8.76-1.89.49-2.88.65-1.19.7.88,1,1.42,1a4,4,0,0,0,3.39-.95c.9-.43.83-2,1.9-2.15,1.85-.08,3.69.28,5.54.33,1,.24,2.53-.12,3.21.62,0,1.29,1.1,2.09,2.15,2.59.58.16,1.2-.56,1.79-.7,1.12-.36.78-1.75,1.46-2.29,1.92-.11,3.86-.09,5.79-.11.37,0,.48-.52.73-.73,0-.75-.07-1.49-.18-2.23-.37-.94.06-2.15-.62-2.95-1-.26-1.79.62-2.77.69a3.26,3.26,0,0,0-2,2.7c-.64,1.05-1.67-.18-1.32-1.06a5.55,5.55,0,0,0,0-1.16c-.59-.71-1.63-.48-2.44-.59-1.19.05-2.35-.2-3.54-.18a17.26,17.26,0,0,1-3.14-.18c-1.2,0-1-1.21-1.24-2a1.19,1.19,0,0,0-.73-.22Zm2.33,4.3a10.86,10.86,0,0,1,1.16.11c.51.08,1-.17,1.54,0,1.14.19,2.28.15,3.42.26a1.08,1.08,0,0,1,.73.4v2.4c0,.3.09.7-.18.91a.8.8,0,0,1-.29.15,1.26,1.26,0,0,1-.8-.58,8.56,8.56,0,0,1,0-1.24c0-.11.05-.28,0-.37a1.49,1.49,0,0,0-.84-.29c-1,0-2-.11-3-.14a12.87,12.87,0,0,1-2.48-.15c-.31-.11-.72-.07-.91-.4s.12-.7.4-.84a2.62,2.62,0,0,1,1.17-.22Zm13.16.29c.18,0,.24.06.33.4s.11.49.14.59,0,.18-.22.25c-.57.22-1.15.2-1.34-.07s0-.51.18-.66a1.85,1.85,0,0,1,.91-.51Z" transform="translate(0 0)"/>
      </g>
    </g>
    <g>
      <path class="cls-12" d="M539.36,295.28c.77,0-1.06-4.17-1.06-4.17,2.06,2.11,9.84,2.61,9.84,2.61-4.67-2.06-9.33-17.61-8.78-30s-1.79-17.33-3.62-19.16c-2.33-2.34-9.83-4.4-14.77-4.67-2.79-.14-2.34,2.1-2.34,2.1-5.16-1.32-10.33-1.83-12.67-.27-2.19,1.46-2.65,8.78-1,7.5,3.89-3.11,7.27-.27,9.61,3.11,2.06,3,1.92,11.39-1.06,21.23-3.11,10.33-11.61,20.67-11.61,20.67,4.62,0,11.11-4.11,11.11-4.11l-1.55,6.44a39.79,39.79,0,0,0,8.78-5.94l4.66,4.89a47.61,47.61,0,0,1,4.67-4.89,16.89,16.89,0,0,0,9.84,4.67Z" transform="translate(0 0)"/>
      <path class="cls-13" d="M520.47,265.5s-2.61,19.17-7.5,24.61M524.59,265s-1,19.39-4.4,25.62m8-24.84s0,21.23,1.28,24.84m3.34-23.79s1,17.84,5.44,24.29" transform="translate(0 0)"/>
      <path class="cls-14" d="M515.75,256.22a9.32,9.32,0,0,0-1.23-3.89c-2.34-3.39-5.72-6.22-9.61-3.11,0,0,1.33-4.12,4.17-4.26,2.19-.14,7.18,1.65,11.57,9.15,0,0-3.25-.73-4-.05-1.46,1.29-.87,2.16-.87,2.16Z" transform="translate(0 0)"/>
      <path class="cls-14" d="M504.51,244.14a4.47,4.47,0,0,1,1.46-2.42c2.33-1.56,7.5-1.06,12.67.27,0,0-.46-2.24,2.33-2.1,4.94.27,12.45,2.33,14.78,4.66a9.35,9.35,0,0,1,1.74,2.79h-.09c-1.15-1.6-4.4-1.51-5.17-1.42a20.38,20.38,0,0,0-3.66.51,7.38,7.38,0,0,0-2.61.91c-.5.41-.92,1.92-1.69,1.92-1.24,0-1.15-.32-1.47-.68-.41-.51-.64-1.24-1-1.19-1.28.23-3.34-.78-6-2.84s-3.61-2.56-7-2.33-4.4,2.15-4.4,2.15Z" transform="translate(0 0)"/>
      <circle class="cls-2" cx="523.62" cy="245.79" r="1.37"/>
    </g>
    <path class="cls-15" d="M525,381.77c38.08-29.29,34.81-72.2,34.81-72.2a14.79,14.79,0,0,1-3,.3c-8,0-27-4.57-31.49-10.37-4.76,5.25-24.23,10.37-32.17,10.37a14.57,14.57,0,0,1-3-.3s-3.32,42.91,34.77,72.2Z" transform="translate(0 0)"/>
    <path class="cls-16" d="M556.75,312.71c-.33,0-.66,0-1,0-7.24,0-24.06-3.72-30.54-9.29-6.79,5.15-23.88,9.29-31,9.29a5.36,5.36,0,0,1-1-.11c0,1.63.06,3.31.16,4.84a85.1,85.1,0,0,0,2.91,17A82.9,82.9,0,0,0,525,377.8a83,83,0,0,0,28.7-43.38,85,85,0,0,0,2.92-17c.08-1.61.17-3.57.17-4.74Z" transform="translate(0 0)"/>
    <g class="cls-17">
      <g>
        <path class="cls-18" d="M493,303.06h21.3v75H493Z" transform="translate(0 0)"/>
        <path class="cls-19" d="M514.34,303.06h21.31v75H514.34Z" transform="translate(0 0)"/>
        <path class="cls-18" d="M535.65,303.06H557v75h-21.3Z" transform="translate(0 0)"/>
      </g>
    </g>
  </g>
</svg>
