<?xml version="1.0" encoding="utf-8"?>
<!-- Generator: Adobe Illustrator 23.1.0, SVG Export Plug-In . SVG Version: 6.00 Build 0)  -->
<svg version="1.1" id="Layer_1" xmlns="http://www.w3.org/2000/svg" xmlns:xlink="http://www.w3.org/1999/xlink" x="0px" y="0px"
	 viewBox="0 0 1166.7 700" style="enable-background:new 0 0 1166.7 700;" xml:space="preserve">
<style type="text/css">
	.st0{fill:#00AB39;}
	.st1{fill:#FFFFFF;}
	.st2{fill:#D21034;stroke:#000000;stroke-width:2.5301;}
	.st3{fill:none;stroke:#000000;stroke-width:2.5301;stroke-linejoin:round;}
	.st4{stroke:#000000;stroke-width:2.5301;stroke-linejoin:round;}
</style>
<rect x="0" y="0" class="st0" width="1166.7" height="700"/>
<rect x="0" y="0" class="st1" width="1166.7" height="350"/>
<g transform="translate(1.72,0.97)">
	<path class="st2" d="M761.9,40.5C761.9,40.6,761.9,40.6,761.9,40.5C761.9,40.6,762,40.6,761.9,40.5L761.9,40.5z M761.9,40.6
		c-73.4,40.6-139.2,82.9-203.8,136.7c-31,27.1-22.3,48.7-23.5,73c1,16.3-3.5,31.5-13.6,40.7c-23,4.6-46,9.3-69,14
		c-2.2-6.4-4.4-12.7-6.6-19.1c2.1-9.8,10.2-14.6,27.1-8.4c1.3-12.5-8.8-17.6-20.6-22c-4.1-3.2-9.1-5.6-8.4-16.4
		c-2-24.6,37.4,1.8,37.8,1.8c0.4,0-1.3-24.8-19.4-29.7c-9.9-3.5-14-13.9-10.3-21.6c7.9-15.8,22.8,1.2,34.1,1.8
		c-0.4-10.3-3.4-17.6-12.2-25.9c-4.8-2.9-16.5-5.1-16.8-10.1c-0.2-6.7,11-9.5,26.4-7.7c-3.2-9.4-13.6-15.4-27.8-19.8
		c-2.8-4.9-5.6-9.8-8.4-14.7c-4-7.4-5.8-7.6,3.5-21.6c8.3-5.4,19.4-13,27.7-18.4c-3.1-0.4-6.1-0.7-9.2-1.1c1.2-10,1.4-13.4,3.7-30
		c-8.9,12.2-20.1,10-30.1,15c0,0-28.6,5.1-37.8,17.2c-0.4,0-71.9-3.6-71.9-3.6c-15.2,2.1-28.3,6.4-30.8,21.3
		c-34.8,3.5-71.3,0.4-97.9,33.7c18.1-0.9,33.9-5.2,54.2-2.5c0,0,17.3,0.3,20.9,18.7c0.4,0.7,5.9,0.7,5.9,0.7
		c2.2,1.7,4.4,3.4,6.6,5.1c0.9-2.3,1.7-4.7,2.5-7c2,1.3,3.9,2.7,5.9,4c0.6-2.6,1.2-5.1,1.8-7.7c2,1.3,3.9,2.7,5.8,4
		c0.1-3.1,0.3-6.1,0.4-9.2c2.6,1.8,5.1,3.7,7.7,5.5v-12.1c0,0,28.4-0.1,37,18c0.4,0.4-79.6,14.7-156.9,8.1c7.5-3.7,14.9-7.4,22.4-11
		c-28.2-5.7-54.7-10.9-79.5-30.4c9.4,35.3,57.9,76.8,67.8,76.6c0,0.4-9.5-17.2-9.5-17.2c28,1.2,56,2.4,84,3.6
		c3.1,9.3,1.7,19.7,9.2,27.9c0,0-4.6,15.4,5.7,21.6c0.4,0.7,12.3-31.1,12.3-31.1s3.7,8.6,7.3,14.3c5.3-27.4,35.2-31.9,35.2-31.9
		s6.2,14.3,6.2,14.7c-9.3,1.3-20.9,20.4-14.7,30.8c-6.3,0.1-17.4,18.5-13.9,28.6c-5.3,5.2-18.4,12.2-15,34.1
		c-10.3,2.2-16.4,21.1-13.2,41.1c-16,14.8-12,42.1,2.2,53.1c-5.9,5.3-9.5,9.3-9.5,15.8c-5.6-2.1-10.8-0.3-13.2,3.3
		c-6.9-7.1-16.8-13.2-23.8-6.6c-1.8-8.3-12.7-17.5-24.6-16.5c0.7-8.8-3.9-19.7-16.5-23.5c0,0-2.5-41.3-15.1-54.6
		c-1.2-7.5,0.7-12.6,11-18.7c10.3-5.5,12.5-9.7,11.7-25.3c4.1-10.4,7.1-21-5.5-28.2c0.4,12.4-3.4,18.3-8.4,23.8
		c-6-0.9-8.1,6.1-12.1,9.2c-5.6-7.6,11.9-19.4-1.1-36.3c-0.7-0.7-9.1-22.1-29.7-21.6c9.8,5.7,13.9,15.4,13.9,25.3
		c-6.5,18.3-9.8,32.5-3.3,53.5c-8.6-12.8-13.4-37.2-20.5-41.5c-6.2-1.2-9.3-15.9-33.4-11.7c10.4,2.8,13.7,10.7,16.5,18
		c-6.4,3.3-3.2,12,1.4,18c-0.9,14.1,7.5,22.3,20.2,27.5c-2.1,19.2-4.2,38.3-6.2,57.5c-5-0.6-12.7,18.9-15.8,19.5
		c-4.9,3.1-13.5,11.3-3.6,13.6c-2.9,10.5-5.6,16.9-21.3,19.1c0,0,16.6,9.8,30.3-7c14.7-0.4,9.9-17.9,17-25.7c0-0.4,4-2.9,9.9-18.4
		c2.6,13.8,16.7,56.1,48.8,77c27.9,29.9,50.8,58.1,50.6,97.9c10.9-10.1,17.4-26.2,22.4-41.5c15.1-5.3,36.8-7.3,56.1-6.4
		c-3.3,7-7,13.7-2.2,18.2c-13.5,4.6-16.4,14.4-11,24.2c-14.2,9.7-15.1,15.9-15.4,31.9c-26.3,33.7-42.5,32.6-68.6,23.9
		c-8.6-5-21.8-12.2-27.9-8.4c-11.3-7.5-27.4-8.6-30.1,8.4c8.4-7,13.5-5.6,20.2,1.1c-1.4,3.4-2.5,6.8,2.5,8.8
		c-2.2,2.4-4.4,4.9-6.6,7.3c-12.1-1.9-28.4-1.8-32.6,15.8c6.2-5.2,20-6.4,31.1-1.4c2.1,0.7,4.2,1.5,6.2,2.2c0.2,2.8,0.5,5.6,0.7,8.4
		c0,0-16.5-2.5-20.9,24.2c15.5-16.4,26.4-12.1,26.4-12.1c6,8.7,27.9,7.4,43.7-6.9c22.2-12.4,28.6,5.4,42.9-6.2
		c11.9-8.8,25.9-3,35.5,7.3c11.1,4.2,22.8,7.6,31.9,0c0,0,11.2-7.1,22.4,4.4c0.1-13-9.1-19.9-21.6-20.2l-3.7-3.7
		c-11.7-2.4-24.9-1.5-35.2-7.3c4.8-18.4,11.9-35,25.7-49.2c17-18.2,29.5-26.5,51-54.4c-0.8,15.8,11.2,33.3,17.6,49.3
		c0,0,12.8-20.5,14.7-37.1c0.4,0,16.1-8.2,22.8-15.1c14.1,8.8,37.2-7,52.1-20.1c9.2,3.5,16.1,3.2,26.8,0
		c-8.6,17.4,4.9,33.6,26.4,40.3c2,15.4,17.5,18.6,41.1,18.7c1,9,15,10.3,15,10.3c-8.9,4.1-13.5,8.3-13.2,17.6
		c-9.1,0.1-16,2.3-18.4,12.8c-12.5,0.2-25.2,1.2-35.9,7.3c-11.5-1.8-25.5-6.5-34.5-15.8c-4.6-3.9-5.8-9.6-13.9-11.7
		c-5.1-6.1-11.3-4.7-13.2,1.1c-5.3-4.2-25.3-6.1-28.6,12.8c9.3-6.8,17.7-9.4,23.5-1.1c-3.2,5.8,7.8,9.1,17.2,11.4
		c6.7,0.4,18.6,6.5,22.4,16.9c-8.7,2.6-21.8,1.8-30.4-4.8c-7.7-6.4-18.1-5.7-23.8-1.4c-7.9-5.1-26.8,4.5-27.5,19.8
		c8-7.3,15.2-10.8,22.4-6.2c-3.6,0.9-2.2,1.2-1.8,3.3c6.1,3.5,12.2,7.1,18.3,10.6c-9,2.4-17.4,6-13.5,22.7c0,0,7.3-14.5,23.8-9.1
		c0.4-0.4,2.3,5.2,7,1.5c7.1-8.1,23.4-11.8,37.8-13.2c11.5-1.4,23-4.8,33,1.8c8.9-4.6,18.8-7.7,29-0.4c12,3.8,20.7,17.8,35.9,11.4
		c7.6-5.2,16.9-5.5,26.4,5.1c0.1-13.4-9.9-17.9-24.2-20.9c-3.3-2-6.6-3.9-9.9-5.9c-9.2-1.3-18.4,0.3-27.5-4
		c48-12.4,81.6-39.2,105.3-77.4c7.6,2.7,15.1,5.3,22.7,8c5.4,0.3,5.8,2.2,16.9,5.5c0.4-16.3-6.6-33.1-35.9-34.8l-38.5-14.7
		c-8.2-8.6-11.9-26.9-1.5-37.8c10.2-9.1,12-8,18.7-19.1c8.2-0.7,15.9,7.7,23.5,7.7c3.6,10.7,24.3,20.1,37.4,16.9
		c8.2,7.3,23.9,11.3,41.1,5.5c9.7,8.5,22.4,12.1,37.4,5.5c4,4,12.3,7.1,22,5.1c0.7,0,4.9,10.6,15.4,14.3c-4.6,4.5-1.8,23.8,2.9,30.8
		c-3.2,7.5-4.2,15.4-1.5,23.1c-10.6,6.8-12.8,11.9-8,23.5c-13.9,22.4-30.6,24.9-46.2,18c-5.6-3.5-11.2-7.1-16.9-10.7
		c-6-5.9-12-11.7-18-17.6c-3.1-2.9-9.4-3.8-10.7,2.5c0,0-23.1-5.1-24.9,14.3c9.6-9.3,23.1-1.1,23.1-0.7c0,0.4-3.2,2.6-0.7,6.3
		c0.6-0.5,16.8,6.1,31.3,12.3c7.9,3,9.6,3.9,13,5.8c-3.8-1.7-8.2-3.7-13-5.8c-8.8-3.3-17.4-6-19.9-5.4c-8.2-0.8-16.9-1.8-20.9,4.4
		c-8.8,3.7-22.6,6.7-22,23.1c6-9.8,14.1-9.3,24.6-8.4c-0.2,0.7-0.5,1.5-0.7,2.2c11.3,5.2,9.2-1.4,19.7-2.4
		c8.8-0.8,21.3,2.4,27.9,4.6c-8.3,2.4-19.6,1.4-24.9,7.3c-1,2-4.4,1.2-2.9,5.8c0,0-16.2-0.4-20.6,22c16.5-10.6,29-10.2,29.3-10.2
		c0.4,0,5.1,1.1,5.1,1.1s19.8-13.2,20.2-13.2c0.4,0,19.2-8.3,27.8,1.1c7.6,3.7,15.7,4,23.5-0.7c15.4-6.7,29.8-7.2,44,2.2l12.8,7.7
		c1.8-1.2,3.7-2.5,5.5-3.7c0,0,14.5-4.1,25.2,8.8c-4.4-22.4-20.4-23.1-20.4-23.1c-1.2-1.1-2.5-2.2-3.7-3.3
		c-7.6-2.9-15.1-5.9-22.7-8.8c-3.3-8.2-11.6-14.7-3.3-24.6c8.5-42.1,18.6-73.7,2.2-116.3c15.3,6.6,26.7,27,45.9,19.8
		c0-17.1-63-49.6-111.1-75.7c78.8-4,173.6-62.2,137.2-136.2c5.7-17.8,11.5-35.7,17.2-53.5c8.1,16.3,24.5,28.8,39.3,34.1
		c-12.1-23.2-19.1-94.1-12.1-143c-31.8,39.2-66.9,74.1-104.1,109.5c18.3,4.3,34.4,1.3,52.1-0.9c-5,10.3-9.9,20.6-14.9,30.8
		c-48.5-28.4-105.3-7.1-105.8,30.8c1.7,44.2,56.3,50.4,87.8,35.1c-6.2,40.3-98.8,25.4-98.8,25.4c-32.9-11.3-64.1-9.4-98.7-9.1
		c7.2-22.1,47-41.7,77.4-33c-42.5-47.7,6-106.8,64.5-125.1c-63.8-21-8.9-69.7,38.9-104.5c0,0-137.3,57.8-149.8,57.6
		C736.4,111.7,747,65.5,761.9,40.6L761.9,40.6z M331,96.1c3.2,0,7,0.3,9.9,1.1c6.2,1.5,13.7,2.4,13.6,4.2
		c-2.9,4.8-9.9,10.6-16.8,10.2c-6.9-0.3-10.9-4.5-13.2-14.9C325.2,96.3,327.8,96.1,331,96.1z M908.9,259c9-0.1,19.8,3.7,30.3,14.8
		c-5.1,14.6-49,22.1-51.9,0.5C886.4,267.8,895.7,259.2,908.9,259L908.9,259z"/>
	<path class="st3" d="M376.4,223.5l6.7,9.7 M382.7,233.5c0,0,0,13,2.7,13.3 M379.4,253.8c0.3,0.3,7,11.5,7,11.5 M367.3,268.3
		c0.3,0,8.5,9.4,8.5,9.4 M382.9,270.4c0,0.3,7.7,14.9,8.3,14.9 M372.7,280.4c0,0,2.7,17.6,5.1,17 M361.3,312.6l7.8,11.7
		 M375.8,300.1c0,0,4.2,16.6,7.6,15.1 M386.6,290.1c0.3,0.3,7.9,11.2,10,9.7 M394.8,304l7.3,14.5 M382.7,315.2
		c0.3,0.6,6.1,17.3,6.1,17.3 M368.8,324c0,0,5.4,18.5,10.3,15.4 M366.7,348.5c0,0,0.3,9.7,5.1,10.3 M375.2,343.7c0,0.3,4.8,7,4.8,7
		 M389,332.2l4,6.4 M401.8,320.4l6.1,7.6 M373.7,233.6c0.3,8.2,13.3-2.9,18.4-9.8 M368.2,262c0,0,14.2-10,25.1-25.1 M363.6,285.9
		c10-2.7,28.4-25,32-36.8 M361.5,308c2.7,1.2,37.1-23.5,38-41.7 M360.6,327.1c0-0.3,31.4-8,44.4-42.5 M358.9,353.2
		c0,0,50.1-30.1,52.8-52.2 M750.2,403.6c0,0-3.2,25.9-29.3,29.9 M758.4,450c0.3-0.3,24.8-27.2,18.5-35.4 M815.3,423.9
		c0,0-0.3,18.8-15.7,31.8 M845.9,429.4c0,0,0.6,22.7-9.1,31.8 M874,443c0,0-10.9,21.3-14.8,23.4 M873.6,480.7c0,0,14.3,3.6,18.8-5.8
		 M877.3,511.5c0,0,13.2,2.4,19.3-10.3 M875.8,535.3c0,0,10.7,9,18-2.8 M722.4,360.4c0,0-1.2,46,63.6,55.4
		c72.4,20,106.6,9.4,110.8,90.5c-2.7,30.9-6.6,65.8-29,52.4 M653.7,402.8c0,0,10.3,18.5,22.7,17.3c16.3-4.8,22.4,5.1,22.4,5.1
		 M609.5,421.2c0,0,27.2,13.3,50.6-8.2 M612.5,402.2c2.4,31.8-36.6,49.9-52.1,46.9 M614.4,524c0.3,0,21.2-12.5,16.9-21.3
		 M572.9,505.4c0.6-0.6,35.1-3.9,41.5-16.3 M556.8,454.5c0-0.3,49,0.1,52.3,9.2 M621.9,425.5c0,0-47.8,81.7,40.6,81.7 M571.3,424.3
		c0,0-10.3,30.6-24.8,40.9 M520.5,413.7c0,0,17.8,34.4-0.1,51.3 M474.2,423.4c0.3,0.6,5.8,48.7-6.4,62.4 M451.2,424.9
		c0,0,1.8,30.6-7.3,41.5c-9.1,10.9,2.1,33.5,2.1,33.5 M335.7,514.6c0,0,6.5,11.4,15.6,7.5 M346.7,489.7c0,0,14.5,6.4,19.4,3.9
		 M362.5,438.2c0,0-21.5,6.1-13.3,31.5c12.4,10,24.5,8.5,24.5,8.5 M320.1,546.3c-0.3,0,2.4,20,16.3,4.8
		c9.7-20.3,40.3-77.5,47.2-97.2 M397.9,444.6c0,0-14.8-11.5-14.2,4.5c-0.3,10,4.5,12.4,4.5,12.4c0.6,7.3,7,17.6,12.1,8.2
		c2.1-9.1-1.5-13-1.5-13 M407.3,440.3c-13.3-0.9-20.6,28.5,5.1,10 M421.2,430.3c0,0-3.3,4.5-8.5-0.3c-2.7-4.8-12.4,21.8,4.5,22.7
		c3-7.9,12.4-10,12.4-10 M437.5,417.6c0,0-7.6,3.6-10.3,3c-9.1,2.1-7.3,23.3,4.2,22.1c3.9-4.5,8.2-10.9,8.2-10.9 M366.2,389.9
		c-0.3,0-30,46.8,16.6,59.2 M743.6,319.5c0,0-18.2,15.4-1.2,40.3c-56.3-0.9-86.6,25.1-89,42.7c-71.7-5.1-58.7,16-82,23
		c-31.2-26-76.9-11.5-73.9,14.5c-20.9-29.4-53-15.1-56.9-7.9c-3.9,7.3-2.4-36-2.4-36s-20.9,9.4-35.4,26.6c0.3-11.5,0-30.3,0-36.3
		c-17.5,3.5-34.3,3.7-52.4,3.3 M303.1,376.4c0,0,26,14.5,58.1-5.1 M301,324.1c0,0,20.3,18.2,58.4,12.4 M313.7,282.3
		c0,0,4.5,14.8,48.1,15.7 M328.5,248c0,0,16.4,20.1,38.5,17.1 M342.5,219.3c0,0,6.4,10.9,30.6,12.7 M356.7,187.5
		c0,0,12.7,13.9,27.2,11.5 M432.3,74.4c0,0,5.6-5.6,15-2.8 M428.3,104.1c0,0-17.5-0.6-16.3-7.5c1.3-7.8,18.5-13.4,18.5-13.4
		s22.8-14.7,26.3-19.7 M353.5,143.5l22.2,42.5l10.6-16L392,181l9.1-16l15.6,10l-5.9-19.4l13.1-0.9c0,0-3.4-9.4-15.3-11.3
		c3.1-2.5,14.1-9.7,14.1-9.7s-6.3-7.2-16-7.5c3.1-3.4,7.5-11.9,7.2-11.9c-0.3,0-9.7-2.2-9.7-2.2s22.2,7.2,39.4-2.8 M401.1,75
		c0.3,0.3-1.3,8.8-5.9,13.8 M315.4,98.5c0,0,13.7-3.8,24-1.6c10.2,2.1,23.8,5.7,23.8,5.7s16.3-2.2,21.6-5.9 M281.3,107.5
		c0,0-1.9,6.6-2.5,10.9c0,3.1-10,7.2-10,7.2 M287.5,94.1c0,0,8.8,10.9,9.1,17.2c0.3,6.3-6.6,10.9-6.6,10.9 M197.2,168.8l-9.1-14.7
		l8.1-2.8 M361,371.6c-7.3-9.4,5.4-153.5,32.4-191c-9.4,67.8,21.8,137.1,29.7,136.8 M279.1,140.3c0,0,12.3,4.7,37.7-15.4
		 M351.1,173.6l18.2,0.2 M916.8,60.7c0,0-303.9,142-308.3,149.5c51.3-15.5,268.9-51.8,274.3-48.7c-12.8,3.1-276.9,63.7-289.3,78.3
		c65.9-2.2,203.9,21.2,225.6,43.8c-46.9-10.6-187.1-31.4-230-22.1c31.4,7.5,151.7,85.4,151.7,97.8c-18.1-17.2-162.8-77-168.5-71.2
		c33.2,19.9,80.1,93.8,80.1,111.9c-9.7-15.5-93.3-105.3-98.2-99.5c8.8,12.4,26.4,118.4,17.4,123.3c0-12.8-32.5-105.6-35.1-108.3
		c-6.6,1.8-48,113.2-39.8,123.6c-5.3-37.2,0.9-114.7,11.1-111.6c-18.1,2.7-76,79-69.8,90.9c1.8-19,4.4-31.6,37.1-94.9
		c-36.3,2.2-111.5,49.5-124.3,66.4c10.2-30.1,73.9-80.9,101.7-84.5 M583.5,194.6c32.1-17.8,131.4-54.2,197.6-80.9 M521.2,290.5
		c0,0,21.9-0.3,43.8-59.7c21.6-81.3,192.7-172,196.1-188.9 M231.6,372.3c0,0-5.1,10.8-11.3,14 M256.2,388.7c0,0-6.8,13.2-8.4,19.4
		 M279.7,395.2c0,0,5.7,18,1,26.4 M214.3,348.4c-17.2,9.7,9.8,71,91.4,76.9 M292.6,392.2c0,0-2.2,10.9,13.1,32.8
		c-4.4,24.4,18.5,43.6,27.6,46.7 M286,172.3c0-0.3,2.5-6.6,2.5-6.6l2.8,7.2l4.5-0.1l3-7.2l2.4,7.3h4.5l2.8-8.1l4.2,7.7l3.5,0.2
		l2.8-9.3l5.7,6.7l2.1-0.8l1.8-9.3l5.7,6.5l1.6-1l2.6-9.2l4.7,6.8l2.4-0.8l2.2-7.7l4.4,7.1 M281,173.1l34.1-0.5
		c10.9-0.2,28.7-15.2,48.8-10.5 M209,246.1c0,0,5.6,12.2,13.5,5.3 M195.9,254.3c0,0-10.9,29.4,2.2,36.3 M180.3,221.7
		c0,0,0,6.9,14.4-3.8 M135.5,376.3c0,0,11.6,3.4,9.7,12.2 M139.9,241.1c0,0,7.2,3.4,14.1-7.2 M216.2,579.6
		c11.3-0.6,13.7,4.5,23.9,4.5c11.8,0.4,23.3-4.5,38.3-8.5 M375.1,602.7c-0.3,0-5.3,10.6-0.9,15.9 M214.6,603.6
		c0,0,17.8-14.7,27.2-5.6c9.1,3.1,14.1,2.5,14.1,2.5 M224,561.7c0,0,4.4,11.3-10.3,9.7 M209.3,587.7c0,0,9.4,5.9-1.3,13.8
		 M215,612.1c0,0,12.8,1.9,5.3,12.2 M629.2,534.2c0,0,34.8,3.6,36.4,6.2c4-4.2,35.1-29.4-3.1-33
		C656.1,533.6,629.8,534.6,629.2,534.2L629.2,534.2z M616.8,551.6c13,10.4,7.7,16.6,48.5-10.8 M598.2,564.6c0,0,19.2,20.6,33.2-4.4
		 M561.5,572l-26,13.6 M488.7,604.8c0,0,15.8-13.6,23.2-6.4c7.4,7.2,38.8-6.2,38.8-6.2 M500.5,545.8c0,0,5.4,10.8-5,12.2
		 M479.9,579.6c0,0,5.5,10.2-5.1,13 M492.1,607.2c0,0,16.4,0.8,10.6,13.2 M645.6,605c0,0-9,7.6-2.4,16.2 M776.3,550.4
		c0,0,10.4,5-2,13.6 M763.9,582c0,0,7.8,8.2,2.6,15 M785.7,613.4c0,0,10.8,3,9.6,12 M937,605.4c0,0-9,6.6-4.2,15.2 M776.6,342.4
		c21.6-2.6,52.6,45.4,68.5,54.8 M939.6,274.3c0,0,10.9,9.6,1.3,32.6 M959.9,237.6c3,2.4,14.8,8.7,22.6,23.2 M990,165.6
		c0,0.2-15.2,41-15.2,41 M1007,163.6c0,0-3,36.4-7.4,43.8 M939.2,273.8c-5.1,14.6-49,22-51.9,0.5
		C885.8,263.3,913.3,246.4,939.2,273.8z"/>
	<path class="st4" d="M330.7,96.2l16.9,3.1C347.6,99.4,335.7,115.3,330.7,96.2z"/>
</g>
</svg>
