<svg id="Layer_1" data-name="Layer 1" xmlns="http://www.w3.org/2000/svg" xmlns:xlink="http://www.w3.org/1999/xlink" width="411.57mm" height="246.94mm" viewBox="0 0 1166.66 700">
  <defs>
    <style>
      .cls-1 {
        fill: #002b7f;
      }

      .cls-155, .cls-2 {
        fill: #fff;
      }

      .cls-3 {
        fill: #ce1126;
      }

      .cls-4 {
        fill: #cea849;
      }

      .cls-10, .cls-100, .cls-101, .cls-102, .cls-103, .cls-104, .cls-105, .cls-106, .cls-107, .cls-108, .cls-109, .cls-11, .cls-110, .cls-111, .cls-112, .cls-113, .cls-114, .cls-115, .cls-116, .cls-117, .cls-118, .cls-119, .cls-12, .cls-120, .cls-121, .cls-122, .cls-123, .cls-124, .cls-125, .cls-126, .cls-127, .cls-128, .cls-129, .cls-13, .cls-130, .cls-131, .cls-132, .cls-133, .cls-134, .cls-135, .cls-137, .cls-138, .cls-14, .cls-141, .cls-143, .cls-144, .cls-149, .cls-15, .cls-150, .cls-151, .cls-152, .cls-153, .cls-154, .cls-155, .cls-16, .cls-17, .cls-18, .cls-19, .cls-20, .cls-21, .cls-22, .cls-23, .cls-24, .cls-25, .cls-26, .cls-27, .cls-28, .cls-29, .cls-30, .cls-31, .cls-32, .cls-33, .cls-34, .cls-35, .cls-36, .cls-37, .cls-38, .cls-39, .cls-4, .cls-40, .cls-41, .cls-42, .cls-43, .cls-44, .cls-45, .cls-46, .cls-47, .cls-48, .cls-49, .cls-5, .cls-50, .cls-51, .cls-52, .cls-53, .cls-54, .cls-55, .cls-56, .cls-57, .cls-58, .cls-59, .cls-6, .cls-60, .cls-61, .cls-62, .cls-63, .cls-64, .cls-65, .cls-66, .cls-67, .cls-68, .cls-69, .cls-7, .cls-70, .cls-71, .cls-72, .cls-73, .cls-74, .cls-75, .cls-76, .cls-77, .cls-78, .cls-79, .cls-8, .cls-80, .cls-81, .cls-82, .cls-83, .cls-84, .cls-85, .cls-86, .cls-87, .cls-88, .cls-89, .cls-9, .cls-90, .cls-91, .cls-92, .cls-93, .cls-94, .cls-95, .cls-96, .cls-97, .cls-98, .cls-99 {
        stroke: #000;
      }

      .cls-143, .cls-144, .cls-149, .cls-150, .cls-152, .cls-154, .cls-155, .cls-4, .cls-5, .cls-6 {
        stroke-linecap: round;
        stroke-linejoin: round;
      }

      .cls-10, .cls-11, .cls-12, .cls-151, .cls-152, .cls-153, .cls-154, .cls-155, .cls-4, .cls-6, .cls-7, .cls-8, .cls-9 {
        stroke-width: 0.54px;
      }

      .cls-5 {
        fill: #dca842;
        stroke-width: 0.54px;
      }

      .cls-144, .cls-147, .cls-150, .cls-151, .cls-6 {
        fill: none;
      }

      .cls-10, .cls-100, .cls-101, .cls-102, .cls-103, .cls-104, .cls-105, .cls-106, .cls-107, .cls-108, .cls-109, .cls-11, .cls-110, .cls-111, .cls-112, .cls-113, .cls-114, .cls-115, .cls-116, .cls-117, .cls-118, .cls-119, .cls-12, .cls-120, .cls-121, .cls-122, .cls-123, .cls-124, .cls-125, .cls-126, .cls-127, .cls-128, .cls-129, .cls-13, .cls-130, .cls-131, .cls-132, .cls-133, .cls-134, .cls-135, .cls-137, .cls-138, .cls-14, .cls-141, .cls-15, .cls-151, .cls-153, .cls-16, .cls-17, .cls-18, .cls-19, .cls-20, .cls-21, .cls-22, .cls-23, .cls-24, .cls-25, .cls-26, .cls-27, .cls-28, .cls-29, .cls-30, .cls-31, .cls-32, .cls-33, .cls-34, .cls-35, .cls-36, .cls-37, .cls-38, .cls-39, .cls-40, .cls-41, .cls-42, .cls-43, .cls-44, .cls-45, .cls-46, .cls-47, .cls-48, .cls-49, .cls-50, .cls-51, .cls-52, .cls-53, .cls-54, .cls-55, .cls-56, .cls-57, .cls-58, .cls-59, .cls-60, .cls-61, .cls-62, .cls-63, .cls-64, .cls-65, .cls-66, .cls-67, .cls-68, .cls-69, .cls-7, .cls-70, .cls-71, .cls-72, .cls-73, .cls-74, .cls-75, .cls-76, .cls-77, .cls-78, .cls-79, .cls-8, .cls-80, .cls-81, .cls-82, .cls-83, .cls-84, .cls-85, .cls-86, .cls-87, .cls-88, .cls-89, .cls-9, .cls-90, .cls-91, .cls-92, .cls-93, .cls-94, .cls-95, .cls-96, .cls-97, .cls-98, .cls-99 {
        stroke-miterlimit: 10;
      }

      .cls-7 {
        fill: url(#radial-gradient);
      }

      .cls-8 {
        fill: url(#radial-gradient-2);
      }

      .cls-9 {
        fill: url(#radial-gradient-3);
      }

      .cls-10 {
        fill: url(#radial-gradient-4);
      }

      .cls-11 {
        fill: url(#radial-gradient-5);
      }

      .cls-12 {
        fill: #825123;
      }

      .cls-100, .cls-101, .cls-102, .cls-103, .cls-104, .cls-105, .cls-106, .cls-107, .cls-108, .cls-109, .cls-110, .cls-111, .cls-112, .cls-113, .cls-114, .cls-115, .cls-116, .cls-117, .cls-118, .cls-119, .cls-120, .cls-121, .cls-122, .cls-123, .cls-124, .cls-125, .cls-126, .cls-127, .cls-128, .cls-129, .cls-13, .cls-130, .cls-131, .cls-132, .cls-133, .cls-134, .cls-135, .cls-137, .cls-14, .cls-143, .cls-144, .cls-15, .cls-16, .cls-17, .cls-18, .cls-19, .cls-20, .cls-21, .cls-22, .cls-23, .cls-24, .cls-25, .cls-26, .cls-27, .cls-28, .cls-29, .cls-30, .cls-31, .cls-32, .cls-33, .cls-34, .cls-35, .cls-36, .cls-37, .cls-38, .cls-39, .cls-40, .cls-41, .cls-42, .cls-43, .cls-44, .cls-45, .cls-46, .cls-47, .cls-48, .cls-49, .cls-50, .cls-51, .cls-52, .cls-53, .cls-54, .cls-55, .cls-56, .cls-57, .cls-58, .cls-59, .cls-60, .cls-61, .cls-62, .cls-63, .cls-64, .cls-65, .cls-66, .cls-67, .cls-68, .cls-69, .cls-70, .cls-71, .cls-72, .cls-73, .cls-74, .cls-75, .cls-76, .cls-77, .cls-78, .cls-79, .cls-80, .cls-81, .cls-82, .cls-83, .cls-84, .cls-85, .cls-86, .cls-87, .cls-88, .cls-89, .cls-90, .cls-91, .cls-92, .cls-93, .cls-94, .cls-95, .cls-96, .cls-97, .cls-98, .cls-99 {
        stroke-width: 0.18px;
      }

      .cls-13 {
        fill: url(#radial-gradient-6);
      }

      .cls-14 {
        fill: url(#radial-gradient-7);
      }

      .cls-15 {
        fill: url(#radial-gradient-8);
      }

      .cls-16 {
        fill: url(#radial-gradient-9);
      }

      .cls-17 {
        fill: url(#radial-gradient-10);
      }

      .cls-18 {
        fill: url(#radial-gradient-11);
      }

      .cls-19 {
        fill: url(#radial-gradient-12);
      }

      .cls-20 {
        fill: url(#radial-gradient-13);
      }

      .cls-21 {
        fill: url(#radial-gradient-14);
      }

      .cls-22 {
        fill: url(#radial-gradient-15);
      }

      .cls-23 {
        fill: url(#radial-gradient-16);
      }

      .cls-24 {
        fill: url(#radial-gradient-17);
      }

      .cls-25 {
        fill: url(#radial-gradient-18);
      }

      .cls-26 {
        fill: url(#radial-gradient-19);
      }

      .cls-27 {
        fill: url(#radial-gradient-20);
      }

      .cls-28 {
        fill: url(#radial-gradient-21);
      }

      .cls-29 {
        fill: url(#radial-gradient-22);
      }

      .cls-30 {
        fill: url(#radial-gradient-23);
      }

      .cls-31 {
        fill: url(#radial-gradient-24);
      }

      .cls-32 {
        fill: url(#radial-gradient-25);
      }

      .cls-33 {
        fill: url(#radial-gradient-26);
      }

      .cls-34 {
        fill: url(#radial-gradient-27);
      }

      .cls-35 {
        fill: url(#radial-gradient-28);
      }

      .cls-36 {
        fill: url(#radial-gradient-29);
      }

      .cls-37 {
        fill: url(#radial-gradient-30);
      }

      .cls-38 {
        fill: url(#radial-gradient-31);
      }

      .cls-39 {
        fill: url(#radial-gradient-32);
      }

      .cls-40 {
        fill: url(#radial-gradient-33);
      }

      .cls-41 {
        fill: url(#radial-gradient-34);
      }

      .cls-42 {
        fill: url(#radial-gradient-35);
      }

      .cls-43 {
        fill: url(#radial-gradient-36);
      }

      .cls-44 {
        fill: url(#radial-gradient-37);
      }

      .cls-45 {
        fill: url(#radial-gradient-38);
      }

      .cls-46 {
        fill: url(#radial-gradient-39);
      }

      .cls-47 {
        fill: url(#radial-gradient-40);
      }

      .cls-48 {
        fill: url(#radial-gradient-41);
      }

      .cls-49 {
        fill: url(#radial-gradient-42);
      }

      .cls-50 {
        fill: url(#radial-gradient-43);
      }

      .cls-51 {
        fill: url(#radial-gradient-44);
      }

      .cls-52 {
        fill: url(#radial-gradient-45);
      }

      .cls-53 {
        fill: url(#radial-gradient-46);
      }

      .cls-54 {
        fill: url(#radial-gradient-47);
      }

      .cls-55 {
        fill: url(#radial-gradient-48);
      }

      .cls-56 {
        fill: url(#radial-gradient-49);
      }

      .cls-57 {
        fill: url(#radial-gradient-50);
      }

      .cls-58 {
        fill: url(#radial-gradient-51);
      }

      .cls-59 {
        fill: url(#radial-gradient-52);
      }

      .cls-60 {
        fill: url(#radial-gradient-53);
      }

      .cls-61 {
        fill: url(#radial-gradient-54);
      }

      .cls-62 {
        fill: url(#radial-gradient-55);
      }

      .cls-63 {
        fill: url(#radial-gradient-56);
      }

      .cls-64 {
        fill: url(#radial-gradient-57);
      }

      .cls-65 {
        fill: url(#radial-gradient-58);
      }

      .cls-66 {
        fill: url(#radial-gradient-59);
      }

      .cls-67 {
        fill: url(#radial-gradient-60);
      }

      .cls-68 {
        fill: url(#radial-gradient-61);
      }

      .cls-69 {
        fill: url(#radial-gradient-62);
      }

      .cls-70 {
        fill: url(#radial-gradient-63);
      }

      .cls-71 {
        fill: url(#radial-gradient-64);
      }

      .cls-72 {
        fill: url(#radial-gradient-65);
      }

      .cls-73 {
        fill: url(#radial-gradient-66);
      }

      .cls-74 {
        fill: url(#radial-gradient-67);
      }

      .cls-75 {
        fill: url(#radial-gradient-68);
      }

      .cls-76 {
        fill: url(#radial-gradient-69);
      }

      .cls-77 {
        fill: url(#radial-gradient-70);
      }

      .cls-78 {
        fill: url(#radial-gradient-71);
      }

      .cls-79 {
        fill: url(#radial-gradient-72);
      }

      .cls-80 {
        fill: url(#radial-gradient-73);
      }

      .cls-81 {
        fill: url(#radial-gradient-74);
      }

      .cls-82 {
        fill: url(#radial-gradient-75);
      }

      .cls-83 {
        fill: url(#radial-gradient-76);
      }

      .cls-84 {
        fill: url(#radial-gradient-77);
      }

      .cls-85 {
        fill: url(#radial-gradient-78);
      }

      .cls-86 {
        fill: url(#radial-gradient-79);
      }

      .cls-87 {
        fill: url(#radial-gradient-80);
      }

      .cls-88 {
        fill: url(#radial-gradient-81);
      }

      .cls-89 {
        fill: url(#radial-gradient-82);
      }

      .cls-90 {
        fill: url(#radial-gradient-83);
      }

      .cls-91 {
        fill: url(#radial-gradient-84);
      }

      .cls-92 {
        fill: url(#radial-gradient-85);
      }

      .cls-93 {
        fill: url(#radial-gradient-86);
      }

      .cls-94 {
        fill: url(#radial-gradient-87);
      }

      .cls-95 {
        fill: url(#radial-gradient-88);
      }

      .cls-96 {
        fill: url(#radial-gradient-89);
      }

      .cls-97 {
        fill: url(#radial-gradient-90);
      }

      .cls-98 {
        fill: url(#radial-gradient-91);
      }

      .cls-99 {
        fill: url(#radial-gradient-92);
      }

      .cls-100 {
        fill: url(#radial-gradient-93);
      }

      .cls-101 {
        fill: url(#radial-gradient-94);
      }

      .cls-102 {
        fill: url(#radial-gradient-95);
      }

      .cls-103 {
        fill: url(#radial-gradient-96);
      }

      .cls-104 {
        fill: url(#radial-gradient-97);
      }

      .cls-105 {
        fill: url(#radial-gradient-98);
      }

      .cls-106 {
        fill: url(#radial-gradient-99);
      }

      .cls-107 {
        fill: url(#radial-gradient-100);
      }

      .cls-108 {
        fill: url(#radial-gradient-101);
      }

      .cls-109 {
        fill: url(#radial-gradient-102);
      }

      .cls-110 {
        fill: url(#radial-gradient-103);
      }

      .cls-111 {
        fill: url(#radial-gradient-104);
      }

      .cls-112 {
        fill: url(#radial-gradient-105);
      }

      .cls-113 {
        fill: url(#radial-gradient-106);
      }

      .cls-114 {
        fill: url(#radial-gradient-107);
      }

      .cls-115 {
        fill: url(#radial-gradient-108);
      }

      .cls-116 {
        fill: url(#radial-gradient-109);
      }

      .cls-117 {
        fill: url(#radial-gradient-110);
      }

      .cls-118 {
        fill: url(#radial-gradient-111);
      }

      .cls-119 {
        fill: url(#radial-gradient-112);
      }

      .cls-120 {
        fill: url(#radial-gradient-113);
      }

      .cls-121 {
        fill: url(#radial-gradient-114);
      }

      .cls-122 {
        fill: url(#radial-gradient-115);
      }

      .cls-123 {
        fill: url(#radial-gradient-116);
      }

      .cls-124 {
        fill: url(#radial-gradient-117);
      }

      .cls-125 {
        fill: url(#radial-gradient-118);
      }

      .cls-126 {
        fill: url(#radial-gradient-119);
      }

      .cls-127 {
        fill: url(#radial-gradient-120);
      }

      .cls-128 {
        fill: url(#radial-gradient-121);
      }

      .cls-129 {
        fill: url(#radial-gradient-122);
      }

      .cls-130 {
        fill: url(#radial-gradient-123);
      }

      .cls-131 {
        fill: url(#radial-gradient-124);
      }

      .cls-132 {
        fill: url(#radial-gradient-125);
      }

      .cls-133 {
        fill: url(#radial-gradient-126);
      }

      .cls-134 {
        fill: url(#radial-gradient-127);
      }

      .cls-135, .cls-152 {
        fill: #89c5e3;
      }

      .cls-136 {
        fill: #fcdd09;
      }

      .cls-137 {
        fill: #0f47af;
      }

      .cls-138, .cls-140 {
        fill: #509164;
      }

      .cls-138, .cls-141 {
        stroke-width: 0.18px;
      }

      .cls-139 {
        fill: #034418;
      }

      .cls-141, .cls-153, .cls-154 {
        fill: #078930;
      }

      .cls-142 {
        fill: #865800;
      }

      .cls-143, .cls-145, .cls-149 {
        fill: #704d25;
      }

      .cls-146 {
        fill: #00009e;
      }

      .cls-148 {
        fill: #ff0016;
      }

      .cls-149, .cls-150 {
        stroke-width: 0.12px;
      }
    </style>
    <radialGradient id="radial-gradient" cx="-828.07" cy="-931.98" r="13.01" gradientTransform="matrix(0.15, 0, 0, -0.15, 477.38, 282.17)" gradientUnits="userSpaceOnUse">
      <stop offset="0" stop-color="#fbd55f"/>
      <stop offset="1" stop-color="#cb8e32"/>
    </radialGradient>
    <radialGradient id="radial-gradient-2" cx="-801.12" cy="-932.49" r="8.75" gradientTransform="matrix(0.15, 0, 0, -0.15, 477.38, 282.18)" xlink:href="#radial-gradient"/>
    <radialGradient id="radial-gradient-3" cx="-827.99" cy="-942.23" r="8.66" gradientTransform="matrix(0.15, 0, 0, -0.16, 477.38, 281.94)" xlink:href="#radial-gradient"/>
    <radialGradient id="radial-gradient-4" cx="-855.1" cy="-930.04" r="8.76" gradientTransform="matrix(0.15, 0, 0, -0.15, 477.38, 282.14)" xlink:href="#radial-gradient"/>
    <radialGradient id="radial-gradient-5" cx="-828.22" cy="-890.25" r="8.65" gradientTransform="matrix(0.15, 0, 0, -0.15, 477.38, 282.02)" xlink:href="#radial-gradient"/>
    <radialGradient id="radial-gradient-6" cx="2633.05" cy="-503.61" r="14.05" gradientTransform="translate(693.36 281.74) rotate(180) scale(0.15 0.15)" xlink:href="#radial-gradient"/>
    <radialGradient id="radial-gradient-7" cx="2599.54" cy="-503.36" r="14.05" gradientTransform="translate(693.36 281.52) rotate(180) scale(0.15 0.15)" xlink:href="#radial-gradient"/>
    <radialGradient id="radial-gradient-8" cx="2566.47" cy="-503.61" r="14.05" gradientTransform="translate(693.36 281.74) rotate(180) scale(0.15 0.15)" xlink:href="#radial-gradient"/>
    <radialGradient id="radial-gradient-9" cx="2645.29" cy="-534.95" r="14.04" gradientTransform="translate(693.36 281.68) rotate(180) scale(0.15 0.15)" xlink:href="#radial-gradient"/>
    <radialGradient id="radial-gradient-10" cx="2612.22" cy="-534.95" r="14.05" gradientTransform="translate(693.36 281.68) rotate(180) scale(0.15 0.15)" xlink:href="#radial-gradient"/>
    <radialGradient id="radial-gradient-11" cx="2578.92" cy="-534.95" r="14.05" gradientTransform="translate(693.36 281.68) rotate(180) scale(0.15 0.15)" xlink:href="#radial-gradient"/>
    <radialGradient id="radial-gradient-12" cx="2646.65" cy="-564.38" r="14.05" gradientTransform="translate(693.36 281.79) rotate(180) scale(0.15 0.15)" xlink:href="#radial-gradient"/>
    <radialGradient id="radial-gradient-13" cx="2615.39" cy="-563.22" r="14.05" gradientTransform="translate(693.36 281.79) rotate(180) scale(0.15 0.15)" xlink:href="#radial-gradient"/>
    <radialGradient id="radial-gradient-14" cx="2582.09" cy="-563.22" r="14.05" gradientTransform="translate(693.36 281.79) rotate(180) scale(0.15 0.15)" xlink:href="#radial-gradient"/>
    <radialGradient id="radial-gradient-15" cx="2641.8" cy="-598.51" r="13.29" gradientTransform="translate(693.36 281.69) rotate(180) scale(0.15 0.15)" xlink:href="#radial-gradient"/>
    <radialGradient id="radial-gradient-16" cx="2610.59" cy="-595.89" r="13.24" gradientTransform="translate(693.36 281.8) rotate(180) scale(0.15 0.15)" xlink:href="#radial-gradient"/>
    <radialGradient id="radial-gradient-17" cx="2579.07" cy="-598.64" r="13.28" gradientTransform="translate(693.36 281.68) rotate(180) scale(0.15 0.15)" xlink:href="#radial-gradient"/>
    <radialGradient id="radial-gradient-18" cx="2634.66" cy="-627.93" r="12.7" gradientTransform="translate(693.36 281.84) rotate(180) scale(0.15 0.15)" xlink:href="#radial-gradient"/>
    <radialGradient id="radial-gradient-19" cx="2606.21" cy="-625.01" r="12.71" gradientTransform="translate(693.36 281.82) rotate(180) scale(0.15 0.15)" xlink:href="#radial-gradient"/>
    <radialGradient id="radial-gradient-20" cx="2576.1" cy="-623.22" r="12.69" gradientTransform="translate(693.36 281.83) rotate(180) scale(0.15 0.15)" xlink:href="#radial-gradient"/>
    <radialGradient id="radial-gradient-21" cx="2622.98" cy="-658.35" r="12.2" gradientTransform="translate(693.36 281.78) rotate(180) scale(0.15 0.15)" xlink:href="#radial-gradient"/>
    <radialGradient id="radial-gradient-22" cx="2597.05" cy="-646.06" r="11.6" gradientTransform="translate(693.36 282.03) rotate(180) scale(0.15 0.15)" xlink:href="#radial-gradient"/>
    <radialGradient id="radial-gradient-23" cx="2569.53" cy="-644.09" r="9.48" gradientTransform="translate(693.36 281.98) rotate(180) scale(0.15 0.15)" xlink:href="#radial-gradient"/>
    <radialGradient id="radial-gradient-24" cx="2611.32" cy="-675.06" r="11.6" gradientTransform="translate(693.36 282.03) rotate(180) scale(0.15 0.15)" xlink:href="#radial-gradient"/>
    <radialGradient id="radial-gradient-25" cx="2586.29" cy="-661.05" r="9.74" gradientTransform="translate(693.36 282.21) rotate(180) scale(0.15 0.15)" xlink:href="#radial-gradient"/>
    <radialGradient id="radial-gradient-26" cx="2563.07" cy="-664.82" r="8.21" gradientTransform="translate(693.36 281.97) rotate(180) scale(0.15 0.15)" xlink:href="#radial-gradient"/>
    <radialGradient id="radial-gradient-27" cx="2599.36" cy="-697.59" r="10.89" gradientTransform="translate(693.36 282.02) rotate(180) scale(0.15 0.15)" xlink:href="#radial-gradient"/>
    <radialGradient id="radial-gradient-28" cx="2577.57" cy="-680.8" r="9.09" gradientTransform="translate(693.36 282.18) rotate(180) scale(0.15 0.15)" xlink:href="#radial-gradient"/>
    <radialGradient id="radial-gradient-29" cx="2556.78" cy="-679.91" r="7.75" gradientTransform="translate(693.36 282) rotate(180) scale(0.15 0.15)" xlink:href="#radial-gradient"/>
    <radialGradient id="radial-gradient-30" cx="2583.92" cy="-713.63" r="10.06" gradientTransform="translate(693.36 282.1) rotate(180) scale(0.15 0.15)" xlink:href="#radial-gradient"/>
    <radialGradient id="radial-gradient-31" cx="2565.01" cy="-704.4" r="8.52" gradientTransform="translate(693.36 282.03) rotate(180) scale(0.15 0.15)" xlink:href="#radial-gradient"/>
    <radialGradient id="radial-gradient-32" cx="2546.92" cy="-688.73" r="7.1" gradientTransform="translate(693.36 282.19) rotate(180) scale(0.15 0.15)" xlink:href="#radial-gradient"/>
    <radialGradient id="radial-gradient-33" cx="2571.05" cy="-739.3" r="9.28" gradientTransform="translate(693.36 281.92) rotate(180) scale(0.15 0.15)" xlink:href="#radial-gradient"/>
    <radialGradient id="radial-gradient-34" cx="2554.94" cy="-708.8" r="7.71" gradientTransform="translate(693.36 282.27) rotate(180) scale(0.15 0.16)" xlink:href="#radial-gradient"/>
    <radialGradient id="radial-gradient-35" cx="2539.31" cy="-705.15" r="6.59" gradientTransform="translate(693.36 282.15) rotate(180) scale(0.15 0.15)" xlink:href="#radial-gradient"/>
    <radialGradient id="radial-gradient-36" cx="2555.73" cy="-737.15" r="7.87" gradientTransform="translate(693.36 282.18) rotate(180) scale(0.15 0.16)" xlink:href="#radial-gradient"/>
    <radialGradient id="radial-gradient-37" cx="2542.5" cy="-729.12" r="6.67" gradientTransform="translate(693.36 282.14) rotate(180) scale(0.15 0.15)" xlink:href="#radial-gradient"/>
    <radialGradient id="radial-gradient-38" cx="2529.56" cy="-705.12" r="5.57" gradientTransform="translate(693.36 282.44) rotate(180) scale(0.15 0.16)" xlink:href="#radial-gradient"/>
    <radialGradient id="radial-gradient-39" cx="2542.26" cy="-750.4" r="7.33" gradientTransform="translate(693.36 282.14) rotate(180) scale(0.15 0.16)" xlink:href="#radial-gradient"/>
    <radialGradient id="radial-gradient-40" cx="2531.29" cy="-731.84" r="6.18" gradientTransform="translate(693.36 282.27) rotate(180) scale(0.15 0.16)" xlink:href="#radial-gradient"/>
    <radialGradient id="radial-gradient-41" cx="2520.31" cy="-728.98" r="5.23" gradientTransform="translate(693.36 282.18) rotate(180) scale(0.15 0.16)" xlink:href="#radial-gradient"/>
    <radialGradient id="radial-gradient-42" cx="2529.31" cy="-762.58" r="7.33" gradientTransform="translate(693.36 282.11) rotate(180) scale(0.15 0.15)" xlink:href="#radial-gradient"/>
    <radialGradient id="radial-gradient-43" cx="2518.34" cy="-747.66" r="6.17" gradientTransform="translate(693.36 282.17) rotate(180) scale(0.15 0.16)" xlink:href="#radial-gradient"/>
    <radialGradient id="radial-gradient-44" cx="2509.43" cy="-733.02" r="5.24" gradientTransform="translate(693.36 282.27) rotate(180) scale(0.15 0.16)" xlink:href="#radial-gradient"/>
    <radialGradient id="radial-gradient-45" cx="2499.47" cy="-738.17" r="4.82" gradientTransform="translate(693.36 282.32) rotate(180) scale(0.15 0.16)" xlink:href="#radial-gradient"/>
    <radialGradient id="radial-gradient-46" cx="2507.63" cy="-762.3" r="5.24" gradientTransform="translate(693.36 282.11) rotate(180) scale(0.15 0.15)" xlink:href="#radial-gradient"/>
    <radialGradient id="radial-gradient-47" cx="2516.45" cy="-762.71" r="5.66" gradientTransform="translate(693.36 282.2) rotate(180) scale(0.15 0.16)" xlink:href="#radial-gradient"/>
    <radialGradient id="radial-gradient-48" cx="2488.94" cy="-759.07" r="4.52" gradientTransform="translate(693.36 282.16) rotate(180) scale(0.15 0.16)" xlink:href="#radial-gradient"/>
    <radialGradient id="radial-gradient-49" cx="2495.49" cy="-765.11" r="4.82" gradientTransform="translate(693.36 282.18) rotate(180) scale(0.15 0.16)" xlink:href="#radial-gradient"/>
    <radialGradient id="radial-gradient-50" cx="2503.42" cy="-778.73" r="5.14" gradientTransform="translate(693.36 282.11) rotate(180) scale(0.15 0.15)" xlink:href="#radial-gradient"/>
    <radialGradient id="radial-gradient-51" cx="2478.84" cy="-753.46" r="4.11" gradientTransform="translate(693.36 282.3) rotate(180) scale(0.15 0.16)" xlink:href="#radial-gradient"/>
    <radialGradient id="radial-gradient-52" cx="2484.69" cy="-765.85" r="4.52" gradientTransform="translate(693.36 282.22) rotate(180) scale(0.15 0.16)" xlink:href="#radial-gradient"/>
    <radialGradient id="radial-gradient-53" cx="2491.95" cy="-766.1" r="4.72" gradientTransform="translate(693.36 282.27) rotate(180) scale(0.15 0.16)" xlink:href="#radial-gradient"/>
    <radialGradient id="radial-gradient-54" cx="2470.3" cy="-768.27" r="3.98" gradientTransform="translate(693.36 282.19) rotate(180) scale(0.15 0.16)" xlink:href="#radial-gradient"/>
    <radialGradient id="radial-gradient-55" cx="2475.64" cy="-773.41" r="4.24" gradientTransform="translate(693.36 282.19) rotate(180) scale(0.15 0.16)" xlink:href="#radial-gradient"/>
    <radialGradient id="radial-gradient-56" cx="2480.7" cy="-769.72" r="4.55" gradientTransform="translate(693.36 282.26) rotate(180) scale(0.15 0.16)" xlink:href="#radial-gradient"/>
    <radialGradient id="radial-gradient-57" cx="2462.16" cy="-778.13" r="3.56" gradientTransform="translate(693.36 282.13) rotate(180) scale(0.15 0.16)" xlink:href="#radial-gradient"/>
    <radialGradient id="radial-gradient-58" cx="2466.4" cy="-780.81" r="3.8" gradientTransform="translate(693.36 282.16) rotate(180) scale(0.15 0.16)" xlink:href="#radial-gradient"/>
    <radialGradient id="radial-gradient-59" cx="2470.54" cy="-796.9" r="4.05" gradientTransform="translate(693.36 282.08) rotate(180) scale(0.15 0.15)" xlink:href="#radial-gradient"/>
    <radialGradient id="radial-gradient-60" cx="2453.57" cy="-786.4" r="3.44" gradientTransform="translate(693.36 282.09) rotate(180) scale(0.15 0.15)" xlink:href="#radial-gradient"/>
    <radialGradient id="radial-gradient-61" cx="2456.59" cy="-782.12" r="3.64" gradientTransform="translate(693.36 282.17) rotate(180) scale(0.15 0.16)" xlink:href="#radial-gradient"/>
    <radialGradient id="radial-gradient-62" cx="2460.86" cy="-792.26" r="3.94" gradientTransform="translate(693.36 282.13) rotate(180) scale(0.15 0.16)" xlink:href="#radial-gradient"/>
    <radialGradient id="radial-gradient-63" cx="2445.8" cy="-773.53" r="2.92" gradientTransform="translate(693.36 282.22) rotate(180) scale(0.15 0.16)" xlink:href="#radial-gradient"/>
    <radialGradient id="radial-gradient-64" cx="2448.1" cy="-811.01" r="3.18" gradientTransform="translate(693.36 281.99) rotate(180) scale(0.15 0.15)" xlink:href="#radial-gradient"/>
    <radialGradient id="radial-gradient-65" cx="2451.3" cy="-805.86" r="3.4" gradientTransform="translate(693.36 282.07) rotate(180) scale(0.15 0.15)" xlink:href="#radial-gradient"/>
    <radialGradient id="radial-gradient-66" cx="2546.15" cy="-476.3" r="9.46" gradientTransform="translate(693.08 282.1) rotate(180) scale(0.15 0.15)" xlink:href="#radial-gradient"/>
    <radialGradient id="radial-gradient-67" cx="-426.79" cy="-503.61" r="14.05" gradientTransform="matrix(0.15, 0, 0, -0.15, 477.31, 281.74)" xlink:href="#radial-gradient"/>
    <radialGradient id="radial-gradient-68" cx="-460.31" cy="-503.36" r="14.05" gradientTransform="matrix(0.15, 0, 0, -0.15, 477.31, 281.52)" xlink:href="#radial-gradient"/>
    <radialGradient id="radial-gradient-69" cx="-493.37" cy="-503.61" r="14.05" gradientTransform="matrix(0.15, 0, 0, -0.15, 477.31, 281.74)" xlink:href="#radial-gradient"/>
    <radialGradient id="radial-gradient-70" cx="-414.55" cy="-534.95" r="14.04" gradientTransform="matrix(0.15, 0, 0, -0.15, 477.31, 281.68)" xlink:href="#radial-gradient"/>
    <radialGradient id="radial-gradient-71" cx="-447.63" cy="-534.95" r="14.05" gradientTransform="matrix(0.15, 0, 0, -0.15, 477.31, 281.68)" xlink:href="#radial-gradient"/>
    <radialGradient id="radial-gradient-72" cx="-480.92" cy="-534.95" r="14.05" gradientTransform="matrix(0.15, 0, 0, -0.15, 477.31, 281.68)" xlink:href="#radial-gradient"/>
    <radialGradient id="radial-gradient-73" cx="-413.2" cy="-564.38" r="14.05" gradientTransform="matrix(0.15, 0, 0, -0.15, 477.31, 281.79)" xlink:href="#radial-gradient"/>
    <radialGradient id="radial-gradient-74" cx="-444.45" cy="-563.22" r="14.05" gradientTransform="matrix(0.15, 0, 0, -0.15, 477.31, 281.79)" xlink:href="#radial-gradient"/>
    <radialGradient id="radial-gradient-75" cx="-477.75" cy="-563.22" r="14.05" gradientTransform="matrix(0.15, 0, 0, -0.15, 477.31, 281.79)" xlink:href="#radial-gradient"/>
    <radialGradient id="radial-gradient-76" cx="-418.04" cy="-598.51" r="13.29" gradientTransform="matrix(0.15, 0, 0, -0.15, 477.31, 281.69)" xlink:href="#radial-gradient"/>
    <radialGradient id="radial-gradient-77" cx="-449.26" cy="-595.89" r="13.24" gradientTransform="matrix(0.15, 0, 0, -0.15, 477.31, 281.8)" xlink:href="#radial-gradient"/>
    <radialGradient id="radial-gradient-78" cx="-480.78" cy="-598.64" r="13.28" gradientTransform="matrix(0.15, 0, 0, -0.15, 477.31, 281.68)" xlink:href="#radial-gradient"/>
    <radialGradient id="radial-gradient-79" cx="-425.19" cy="-627.93" r="12.7" gradientTransform="matrix(0.15, 0, 0, -0.15, 477.31, 281.84)" xlink:href="#radial-gradient"/>
    <radialGradient id="radial-gradient-80" cx="-453.63" cy="-625.01" r="12.71" gradientTransform="matrix(0.15, 0, 0, -0.15, 477.31, 281.82)" xlink:href="#radial-gradient"/>
    <radialGradient id="radial-gradient-81" cx="-483.75" cy="-623.22" r="12.69" gradientTransform="matrix(0.15, 0, 0, -0.15, 477.31, 281.83)" xlink:href="#radial-gradient"/>
    <radialGradient id="radial-gradient-82" cx="-436.87" cy="-658.35" r="12.2" gradientTransform="matrix(0.15, 0, 0, -0.15, 477.31, 281.78)" xlink:href="#radial-gradient"/>
    <radialGradient id="radial-gradient-83" cx="-462.79" cy="-646.06" r="11.6" gradientTransform="matrix(0.15, 0, 0, -0.15, 477.31, 282.03)" xlink:href="#radial-gradient"/>
    <radialGradient id="radial-gradient-84" cx="-490.31" cy="-644.09" r="9.48" gradientTransform="matrix(0.15, 0, 0, -0.15, 477.31, 281.98)" xlink:href="#radial-gradient"/>
    <radialGradient id="radial-gradient-85" cx="-448.52" cy="-675.06" r="11.6" gradientTransform="matrix(0.15, 0, 0, -0.15, 477.31, 282.03)" xlink:href="#radial-gradient"/>
    <radialGradient id="radial-gradient-86" cx="-473.55" cy="-661.05" r="9.74" gradientTransform="matrix(0.15, 0, 0, -0.15, 477.31, 282.21)" xlink:href="#radial-gradient"/>
    <radialGradient id="radial-gradient-87" cx="-496.77" cy="-664.82" r="8.21" gradientTransform="matrix(0.15, 0, 0, -0.15, 477.31, 281.97)" xlink:href="#radial-gradient"/>
    <radialGradient id="radial-gradient-88" cx="-460.49" cy="-697.59" r="10.89" gradientTransform="matrix(0.15, 0, 0, -0.15, 477.31, 282.02)" xlink:href="#radial-gradient"/>
    <radialGradient id="radial-gradient-89" cx="-482.27" cy="-680.8" r="9.09" gradientTransform="matrix(0.15, 0, 0, -0.15, 477.31, 282.18)" xlink:href="#radial-gradient"/>
    <radialGradient id="radial-gradient-90" cx="-503.07" cy="-679.91" r="7.75" gradientTransform="matrix(0.15, 0, 0, -0.15, 477.31, 282)" xlink:href="#radial-gradient"/>
    <radialGradient id="radial-gradient-91" cx="-475.93" cy="-713.63" r="10.06" gradientTransform="matrix(0.15, 0, 0, -0.15, 477.31, 282.1)" xlink:href="#radial-gradient"/>
    <radialGradient id="radial-gradient-92" cx="-494.83" cy="-704.4" r="8.52" gradientTransform="matrix(0.15, 0, 0, -0.15, 477.31, 282.03)" xlink:href="#radial-gradient"/>
    <radialGradient id="radial-gradient-93" cx="-512.92" cy="-688.73" r="7.1" gradientTransform="matrix(0.15, 0, 0, -0.15, 477.31, 282.19)" xlink:href="#radial-gradient"/>
    <radialGradient id="radial-gradient-94" cx="-488.8" cy="-739.3" r="9.28" gradientTransform="matrix(0.15, 0, 0, -0.15, 477.31, 281.92)" xlink:href="#radial-gradient"/>
    <radialGradient id="radial-gradient-95" cx="-504.91" cy="-708.8" r="7.71" gradientTransform="matrix(0.15, 0, 0, -0.16, 477.31, 282.27)" xlink:href="#radial-gradient"/>
    <radialGradient id="radial-gradient-96" cx="-520.54" cy="-705.15" r="6.59" gradientTransform="matrix(0.15, 0, 0, -0.15, 477.31, 282.15)" xlink:href="#radial-gradient"/>
    <radialGradient id="radial-gradient-97" cx="-504.11" cy="-737.15" r="7.87" gradientTransform="matrix(0.15, 0, 0, -0.16, 477.31, 282.18)" xlink:href="#radial-gradient"/>
    <radialGradient id="radial-gradient-98" cx="-517.34" cy="-729.12" r="6.67" gradientTransform="matrix(0.15, 0, 0, -0.15, 477.31, 282.14)" xlink:href="#radial-gradient"/>
    <radialGradient id="radial-gradient-99" cx="-530.28" cy="-705.12" r="5.57" gradientTransform="matrix(0.15, 0, 0, -0.16, 477.31, 282.44)" xlink:href="#radial-gradient"/>
    <radialGradient id="radial-gradient-100" cx="-517.59" cy="-750.4" r="7.33" gradientTransform="matrix(0.15, 0, 0, -0.16, 477.31, 282.14)" xlink:href="#radial-gradient"/>
    <radialGradient id="radial-gradient-101" cx="-528.55" cy="-731.84" r="6.18" gradientTransform="matrix(0.15, 0, 0, -0.16, 477.31, 282.27)" xlink:href="#radial-gradient"/>
    <radialGradient id="radial-gradient-102" cx="-539.53" cy="-728.98" r="5.23" gradientTransform="matrix(0.15, 0, 0, -0.16, 477.31, 282.18)" xlink:href="#radial-gradient"/>
    <radialGradient id="radial-gradient-103" cx="-530.54" cy="-762.58" r="7.33" gradientTransform="matrix(0.15, 0, 0, -0.15, 477.31, 282.11)" xlink:href="#radial-gradient"/>
    <radialGradient id="radial-gradient-104" cx="-541.5" cy="-747.66" r="6.17" gradientTransform="matrix(0.15, 0, 0, -0.16, 477.31, 282.17)" xlink:href="#radial-gradient"/>
    <radialGradient id="radial-gradient-105" cx="-550.41" cy="-733.02" r="5.24" gradientTransform="matrix(0.15, 0, 0, -0.16, 477.31, 282.27)" xlink:href="#radial-gradient"/>
    <radialGradient id="radial-gradient-106" cx="-560.37" cy="-738.17" r="4.82" gradientTransform="matrix(0.15, 0, 0, -0.16, 477.31, 282.32)" xlink:href="#radial-gradient"/>
    <radialGradient id="radial-gradient-107" cx="-552.22" cy="-762.3" r="5.24" gradientTransform="matrix(0.15, 0, 0, -0.15, 477.31, 282.11)" xlink:href="#radial-gradient"/>
    <radialGradient id="radial-gradient-108" cx="-543.39" cy="-762.71" r="5.66" gradientTransform="matrix(0.15, 0, 0, -0.16, 477.31, 282.2)" xlink:href="#radial-gradient"/>
    <radialGradient id="radial-gradient-109" cx="-570.91" cy="-759.07" r="4.52" gradientTransform="matrix(0.15, 0, 0, -0.16, 477.31, 282.16)" xlink:href="#radial-gradient"/>
    <radialGradient id="radial-gradient-110" cx="-564.36" cy="-765.11" r="4.82" gradientTransform="matrix(0.15, 0, 0, -0.16, 477.31, 282.18)" xlink:href="#radial-gradient"/>
    <radialGradient id="radial-gradient-111" cx="-556.43" cy="-778.73" r="5.14" gradientTransform="matrix(0.15, 0, 0, -0.15, 477.31, 282.11)" xlink:href="#radial-gradient"/>
    <radialGradient id="radial-gradient-112" cx="-581" cy="-753.46" r="4.11" gradientTransform="matrix(0.15, 0, 0, -0.16, 477.31, 282.3)" xlink:href="#radial-gradient"/>
    <radialGradient id="radial-gradient-113" cx="-575.15" cy="-765.85" r="4.52" gradientTransform="matrix(0.15, 0, 0, -0.16, 477.31, 282.22)" xlink:href="#radial-gradient"/>
    <radialGradient id="radial-gradient-114" cx="-567.89" cy="-766.1" r="4.72" gradientTransform="matrix(0.15, 0, 0, -0.16, 477.31, 282.27)" xlink:href="#radial-gradient"/>
    <radialGradient id="radial-gradient-115" cx="-589.54" cy="-768.27" r="3.98" gradientTransform="matrix(0.15, 0, 0, -0.16, 477.31, 282.19)" xlink:href="#radial-gradient"/>
    <radialGradient id="radial-gradient-116" cx="-584.21" cy="-773.41" r="4.24" gradientTransform="matrix(0.15, 0, 0, -0.16, 477.31, 282.19)" xlink:href="#radial-gradient"/>
    <radialGradient id="radial-gradient-117" cx="-579.15" cy="-769.72" r="4.55" gradientTransform="matrix(0.15, 0, 0, -0.16, 477.31, 282.26)" xlink:href="#radial-gradient"/>
    <radialGradient id="radial-gradient-118" cx="-597.69" cy="-778.13" r="3.56" gradientTransform="matrix(0.15, 0, 0, -0.16, 477.31, 282.13)" xlink:href="#radial-gradient"/>
    <radialGradient id="radial-gradient-119" cx="-593.44" cy="-780.81" r="3.8" gradientTransform="matrix(0.15, 0, 0, -0.16, 477.31, 282.16)" xlink:href="#radial-gradient"/>
    <radialGradient id="radial-gradient-120" cx="-589.3" cy="-796.9" r="4.05" gradientTransform="matrix(0.15, 0, 0, -0.15, 477.31, 282.08)" xlink:href="#radial-gradient"/>
    <radialGradient id="radial-gradient-121" cx="-606.27" cy="-786.4" r="3.44" gradientTransform="matrix(0.15, 0, 0, -0.15, 477.31, 282.09)" xlink:href="#radial-gradient"/>
    <radialGradient id="radial-gradient-122" cx="-603.25" cy="-782.12" r="3.64" gradientTransform="matrix(0.15, 0, 0, -0.16, 477.31, 282.17)" xlink:href="#radial-gradient"/>
    <radialGradient id="radial-gradient-123" cx="-598.98" cy="-792.26" r="3.94" gradientTransform="matrix(0.15, 0, 0, -0.16, 477.31, 282.13)" xlink:href="#radial-gradient"/>
    <radialGradient id="radial-gradient-124" cx="-614.04" cy="-773.53" r="2.92" gradientTransform="matrix(0.15, 0, 0, -0.16, 477.31, 282.22)" xlink:href="#radial-gradient"/>
    <radialGradient id="radial-gradient-125" cx="-611.75" cy="-811.01" r="3.18" gradientTransform="matrix(0.15, 0, 0, -0.15, 477.31, 281.99)" xlink:href="#radial-gradient"/>
    <radialGradient id="radial-gradient-126" cx="-608.55" cy="-805.86" r="3.4" gradientTransform="matrix(0.15, 0, 0, -0.15, 477.31, 282.07)" xlink:href="#radial-gradient"/>
    <radialGradient id="radial-gradient-127" cx="-513.69" cy="-476.3" r="9.46" gradientTransform="matrix(0.15, 0, 0, -0.15, 477.58, 282.1)" xlink:href="#radial-gradient"/>
  </defs>
  <g>
    <path class="cls-1" d="M0,0H1166.66V700H0Z" transform="translate(0 0)"/>
    <path class="cls-2" d="M0,116.67H1166.66V583.33H0Z" transform="translate(0 0)"/>
    <path class="cls-3" d="M0,233.34H1166.66V466.68H0Z" transform="translate(0 0)"/>
    <ellipse class="cls-2" cx="350" cy="350" rx="87.5" ry="102.08"/>
  </g>
  <g>
    <g>
      <path class="cls-4" d="M294.17,336.24l2-3.63-4.66-1.3L290,334.54Zm111.66,0-2-3.63,4.67-1.3,1.43,3.23Z" transform="translate(0 0)"/>
      <path class="cls-5" d="M348.75,290l-7.2.21c-4.59.43-6.34,2.21-3.49,5.56-7.4,1.16-14.65,2.85-21.34,6.39a4.34,4.34,0,0,0-4.7,2.55c-.52,1.47.76,3,3,2.41-1.5,3.94-19.2,3.48-19.65,10.06,1.34-1.15,2.82-2.12,4.29-1.14l-1,3.07c-2.58.77-4.39,1.19-5.47,4s-2.72,7.14-3.83,9.27a4.5,4.5,0,0,0-.91,2.54,2.87,2.87,0,0,0,2.89,2.93c2.06,0,3.07-1.29,3.07-2.58-.12-.9-.47-2-2.65-1.84a11.52,11.52,0,0,1,8.92,1.7c2.93,2.16,3.66,6.35,1.95,9.8s-5.92,5.3-12.26,2.83A9.11,9.11,0,0,0,278.32,353c-7.76,21,5.82,38.07,21.22,48,16,10.35,18.88,13.17,23.17,18.23s8.5,10.84,14.77,10.84a5.85,5.85,0,0,0,2.75-.73c3.95,0,4.2,1.47,9.5,1.56h.53c5.31-.09,5.56-1.56,9.51-1.56a5.82,5.82,0,0,0,2.75.73c6.27,0,10.45-5.78,14.77-10.84s7.15-7.88,23.17-18.23c15.4-9.95,29-27,21.22-48a9.11,9.11,0,0,0-12.06-5.23c-6.34,2.47-10.59.52-12.26-2.83s-1-7.64,1.95-9.8a11.5,11.5,0,0,1,8.91-1.7c-2.17-.12-2.52.94-2.64,1.84,0,1.29,1,2.58,3.07,2.58a2.87,2.87,0,0,0,2.89-2.93,4.43,4.43,0,0,0-.91-2.54c-1.11-2.13-2.72-6.44-3.83-9.27s-2.89-3.25-5.47-4l-1-3.07c1.47-1,2.95,0,4.29,1.14-.45-6.58-18.16-6.12-19.66-10.06,2.27.61,3.55-.94,3-2.41a4.33,4.33,0,0,0-4.7-2.55c-6.68-3.54-13.93-5.23-21.34-6.39,2.85-3.36,1.1-5.13-3.49-5.56l-7.19-.21-1.26,0-1.25,0Z" transform="translate(0 0)"/>
      <g>
        <path class="cls-6" d="M340.83,290.26c6.92,0,5.38,8.28-.9,8.66-7.74.9-17.26.65-22.43,2.78m-17.77,11c6-1.68,12.42-.32,16.33-2.11s4.76-7.7.54-8.48" transform="translate(0 0)"/>
        <path class="cls-6" d="M337.91,295.73c1.38-.31,2.85-.36,3.59-1s.95-1.87-.81-2M315,307.13c1.29-2.16.87-3.67-.81-2.63m45-14.24c-6.93,0-5.39,8.28.89,8.66,7.75.9,17.27.65,22.43,2.78m17.77,11c-6-1.68-12.42-.32-16.33-2.11s-4.75-7.7-.54-8.48" transform="translate(0 0)"/>
        <path class="cls-6" d="M362.09,295.73c-1.38-.31-2.85-.36-3.58-1s-1-1.87.8-2M385,307.13c-1.29-2.16-.87-3.67.81-2.63M314.6,406.79c11.08,7.84,12.69,18,24.15,18.51" transform="translate(0 0)"/>
        <path class="cls-6" d="M338.89,426.9c-6.76,1.45-11.19-2.22-16.52-10.2-2.71-4-9.86-9.67-22.05-17.29-19.16-12-24.84-32.83-18.6-44.27a7.44,7.44,0,0,1,7.73-3.29c5.89,1.59,15.78,0,15.82-9.54,0-5.37-4.36-11.64-10-11.64-3.45,0-5.29,1.14-6.2,2.36" transform="translate(0 0)"/>
        <path class="cls-6" d="M338.05,422.84a1.11,1.11,0,0,1,1.12-1.07,1.3,1.3,0,0,1,1.25,1.31c0,1.6-.91,2.46-2.82,2.08-1.57-.31-2.27-2-1.6-3.71s2.89-2.8,5.29-1.73,2.13,4.78,1.29,6.87a5.86,5.86,0,0,1-2.65,2.87m45.47-22.67c-11.08,7.84-12.68,18-24.18,18.51" transform="translate(0 0)"/>
        <path class="cls-6" d="M361.12,426.9c6.75,1.45,11.18-2.22,16.51-10.2,2.68-4,9.86-9.67,22.05-17.29,19.16-12,24.84-32.83,18.61-44.27a7.46,7.46,0,0,0-7.74-3.29c-5.89,1.59-15.78,0-15.81-9.54,0-5.37,4.35-11.64,10-11.64,3.45,0,5.29,1.14,6.2,2.36" transform="translate(0 0)"/>
        <path class="cls-6" d="M364.25,422.6c0-4.75-8.05-6.24-14.21-6.24s-14.22,1.49-14.22,6.24" transform="translate(0 0)"/>
        <path class="cls-6" d="M362,422.84a1.11,1.11,0,0,0-1.11-1.07,1.31,1.31,0,0,0-1.26,1.31c0,1.6.91,2.46,2.82,2.08,1.57-.31,2.27-2,1.61-3.71s-2.89-2.8-5.3-1.73-2.12,4.78-1.29,6.87a5.9,5.9,0,0,0,2.65,2.87" transform="translate(0 0)"/>
        <path class="cls-6" d="M357.84,427.38c-3.24,0-3.14,3.49-7.84,3.49s-4.56-3.49-7.8-3.49" transform="translate(0 0)"/>
      </g>
    </g>
    <g>
      <path class="cls-7" d="M350,422.17a1.71,1.71,0,1,0,0,3.41,1.71,1.71,0,1,0,0-3.41" transform="translate(0 0)"/>
      <path class="cls-8" d="M354.15,422.8a1.06,1.06,0,1,0,0,2.12,1.06,1.06,0,1,0,0-2.12" transform="translate(0 0)"/>
      <path class="cls-9" d="M351.08,428.06a1.06,1.06,0,1,0-2.12,0,1.06,1.06,0,1,0,2.12,0" transform="translate(0 0)"/>
      <path class="cls-10" d="M345.86,425a1.07,1.07,0,0,0,0-2.14,1.07,1.07,0,1,0,0,2.14" transform="translate(0 0)"/>
      <path class="cls-11" d="M348.92,419.73a1.07,1.07,0,1,0,2.13,0,1.07,1.07,0,0,0-2.13,0" transform="translate(0 0)"/>
    </g>
    <g id="ap">
      <path class="cls-12" d="M302.91,322.48a3.53,3.53,0,0,1,1.15.28,2.35,2.35,0,0,1,1.42,1.39h0c5.72,15.89,2.66,22.66-2.43,32.95-7.35,14.8-2,36.86,14.43,46.51a66.81,66.81,0,0,0,19.06,7.52,40.46,40.46,0,0,1,6.12,1.82,11.22,11.22,0,0,1,4.43,3.44,36.35,36.35,0,0,0-5.66,1c-1.92-2.44-6.75-4.69-11.75-6.39a109.85,109.85,0,0,0-13.05-3.47h0c-9.21-2.67-17.79-8.66-24.25-16.27a39.48,39.48,0,0,1-9-30.14c.3-2.53,1.31-4.08,2.74-4.92a9,9,0,0,1,5.17-.86,17.15,17.15,0,0,0,10.05-2.68c4-2.49,5.69-6.88,5.63-11.65a24.34,24.34,0,0,0-4.73-13.71,5.47,5.47,0,0,1-1.4-3.2,1.56,1.56,0,0,1,1.17-1.51,2,2,0,0,1,.49-.09Z" transform="translate(0 0)"/>
      <path class="cls-13" d="M288.33,356.61a2.06,2.06,0,1,0,0,4.11,2.06,2.06,0,1,0,0-4.11" transform="translate(0 0)"/>
      <path class="cls-14" d="M293.49,356.35a2.06,2.06,0,1,0,0,4.11,2.06,2.06,0,1,0,0-4.11" transform="translate(0 0)"/>
      <path class="cls-15" d="M298.58,356.61a2.06,2.06,0,1,0,0,4.11,2.06,2.06,0,1,0,0-4.11" transform="translate(0 0)"/>
      <path class="cls-16" d="M286.45,361.17a2.05,2.05,0,1,0,0,4.1,2.05,2.05,0,1,0,0-4.1" transform="translate(0 0)"/>
      <path class="cls-17" d="M291.54,361.17a2.05,2.05,0,1,0,0,4.1,2.05,2.05,0,1,0,0-4.1" transform="translate(0 0)"/>
      <path class="cls-18" d="M296.66,361.17a2.05,2.05,0,1,0,0,4.1,2.05,2.05,0,1,0,0-4.1" transform="translate(0 0)"/>
      <path class="cls-19" d="M286.24,365.94a2.06,2.06,0,1,0,0,4.12,2.06,2.06,0,1,0,0-4.12" transform="translate(0 0)"/>
      <path class="cls-20" d="M291.05,365.77a2.06,2.06,0,1,0,0,4.11,2.06,2.06,0,1,0,0-4.11" transform="translate(0 0)"/>
      <path class="cls-21" d="M296.17,365.77a2.06,2.06,0,1,0,0,4.11,2.06,2.06,0,1,0,0-4.11" transform="translate(0 0)"/>
      <path class="cls-22" d="M287,370.82a1.93,1.93,0,1,0,0,3.86,1.93,1.93,0,1,0,0-3.86" transform="translate(0 0)"/>
      <path class="cls-23" d="M291.78,370.82a1.93,1.93,0,0,0,0,3.86,1.93,1.93,0,1,0,0-3.86" transform="translate(0 0)"/>
      <path class="cls-24" d="M296.62,370.82a1.93,1.93,0,0,0,0,3.86,1.93,1.93,0,1,0,0-3.86" transform="translate(0 0)"/>
      <path class="cls-25" d="M288,375.86a1.85,1.85,0,1,0,.17,3.7,1.85,1.85,0,1,0-.17-3.7" transform="translate(0 0)"/>
      <path class="cls-26" d="M292.37,375.34a1.85,1.85,0,1,0,.18,3.7,1.85,1.85,0,1,0-.18-3.7" transform="translate(0 0)"/>
      <path class="cls-27" d="M297,375.14a1.85,1.85,0,1,0,.17,3.69,1.85,1.85,0,1,0-.17-3.69" transform="translate(0 0)"/>
      <path class="cls-28" d="M289.76,380.19a1.76,1.76,0,1,0,.25,3.52,1.76,1.76,0,1,0-.25-3.52" transform="translate(0 0)"/>
      <path class="cls-29" d="M293.77,379.63A1.69,1.69,0,0,0,294,383a1.69,1.69,0,1,0-.21-3.38" transform="translate(0 0)"/>
      <path class="cls-30" d="M298,379.42a1.36,1.36,0,0,0,.17,2.72,1.36,1.36,0,1,0-.17-2.72" transform="translate(0 0)"/>
      <path class="cls-31" d="M291.57,384.09a1.69,1.69,0,0,0,.21,3.38,1.69,1.69,0,1,0-.21-3.38" transform="translate(0 0)"/>
      <path class="cls-32" d="M295.44,383.18a1.42,1.42,0,0,0,.17,2.83,1.42,1.42,0,0,0-.17-2.83" transform="translate(0 0)"/>
      <path class="cls-33" d="M299,382.7a1.17,1.17,0,0,0,.14,2.33,1.17,1.17,0,1,0-.14-2.33" transform="translate(0 0)"/>
      <path class="cls-34" d="M293.18,387.61a1.57,1.57,0,1,0,.69,3.07,1.57,1.57,0,1,0-.69-3.07" transform="translate(0 0)"/>
      <path class="cls-35" d="M296.59,386.25a1.3,1.3,0,1,0,.56,2.54,1.3,1.3,0,1,0-.56-2.54" transform="translate(0 0)"/>
      <path class="cls-36" d="M299.83,385.28a1.09,1.09,0,1,0,.49,2.12,1.09,1.09,0,1,0-.49-2.12" transform="translate(0 0)"/>
      <path class="cls-37" d="M295.41,390.78a1.44,1.44,0,1,0,1,2.72,1.44,1.44,0,1,0-1-2.72" transform="translate(0 0)"/>
      <path class="cls-38" d="M298.4,389.14a1.2,1.2,0,1,0,.8,2.27,1.2,1.2,0,1,0-.8-2.27" transform="translate(0 0)"/>
      <path class="cls-39" d="M301.26,387.93a1,1,0,1,0,.66,1.87,1,1,0,1,0-.66-1.87" transform="translate(0 0)"/>
      <path class="cls-40" d="M297.32,393.47a1.31,1.31,0,1,0,1.12,2.36,1.31,1.31,0,1,0-1.12-2.36" transform="translate(0 0)"/>
      <path class="cls-41" d="M299.9,391.72a1.09,1.09,0,0,0,.9,2,1.09,1.09,0,1,0-.9-2" transform="translate(0 0)"/>
      <path class="cls-42" d="M302.37,390.36a.92.92,0,0,0,.77,1.67.92.92,0,1,0-.77-1.67" transform="translate(0 0)"/>
      <path class="cls-43" d="M299.73,395.7a1.11,1.11,0,0,0,1,2,1.11,1.11,0,1,0-1-2" transform="translate(0 0)"/>
      <path class="cls-44" d="M301.85,394.13a.92.92,0,1,0,.84,1.63.92.92,0,1,0-.84-1.63" transform="translate(0 0)"/>
      <path class="cls-45" d="M303.91,392.87a.76.76,0,0,0,.69,1.36c.91-.45.21-1.88-.69-1.36" transform="translate(0 0)"/>
      <path class="cls-46" d="M301.75,397.64a1,1,0,0,0,1.11,1.71,1,1,0,1,0-1.11-1.71" transform="translate(0 0)"/>
      <path class="cls-47" d="M303.52,396.05a.85.85,0,0,0,.94,1.42c.94-.62,0-2.09-.94-1.42" transform="translate(0 0)"/>
      <path class="cls-48" d="M305.3,394.68a.71.71,0,0,0,.77,1.19.71.71,0,0,0-.77-1.19" transform="translate(0 0)"/>
      <path class="cls-49" d="M303.74,399.25a1,1,0,1,0,1.11,1.7,1,1,0,1,0-1.11-1.7" transform="translate(0 0)"/>
      <path class="cls-50" d="M305.51,397.68a.85.85,0,0,0,.95,1.42.85.85,0,0,0-.95-1.42" transform="translate(0 0)"/>
      <path class="cls-51" d="M307,396.32a.71.71,0,0,0,.77,1.19c.8-.53,0-1.75-.77-1.19" transform="translate(0 0)"/>
      <path class="cls-52" d="M308.54,398a.66.66,0,0,0,.7,1.11c.73-.48,0-1.59-.7-1.11" transform="translate(0 0)"/>
      <path class="cls-53" d="M307.25,399.42a.7.7,0,1,0,.77,1.18.7.7,0,1,0-.77-1.18" transform="translate(0 0)"/>
      <path class="cls-54" d="M305.86,400.89a.76.76,0,1,0,.83,1.28.76.76,0,1,0-.83-1.28" transform="translate(0 0)"/>
      <path class="cls-55" d="M310.18,399.7a.6.6,0,0,0,.66,1,.6.6,0,0,0-.66-1" transform="translate(0 0)"/>
      <path class="cls-56" d="M309.15,401a.64.64,0,1,0,.7,1.08.64.64,0,1,0-.7-1.08" transform="translate(0 0)"/>
      <path class="cls-57" d="M307.9,402.2a.69.69,0,0,0,.76,1.15.69.69,0,1,0-.76-1.15" transform="translate(0 0)"/>
      <path class="cls-58" d="M311.77,400.84c-.6.38,0,1.33.59.91s0-1.32-.59-.91" transform="translate(0 0)"/>
      <path class="cls-59" d="M310.83,402a.61.61,0,0,0,.66,1,.61.61,0,0,0-.66-1" transform="translate(0 0)"/>
      <path class="cls-60" d="M309.7,403.33c-.7.46,0,1.57.69,1.05s0-1.57-.69-1.05" transform="translate(0 0)"/>
      <path class="cls-61" d="M313.07,401.86a.52.52,0,1,0,.63.84c.52-.42-.07-1.26-.63-.84" transform="translate(0 0)"/>
      <path class="cls-62" d="M312.22,403a.56.56,0,0,0,.66.91.56.56,0,1,0-.66-.91" transform="translate(0 0)"/>
      <path class="cls-63" d="M311.41,404.12c-.63.49.07,1.5.73,1s-.07-1.49-.73-1" transform="translate(0 0)"/>
      <path class="cls-64" d="M314.33,402.66a.45.45,0,1,0,.59.67.45.45,0,1,0-.59-.67" transform="translate(0 0)"/>
      <path class="cls-65" d="M313.64,403.82c-.46.41.17,1.18.66.7s-.18-1.19-.66-.7" transform="translate(0 0)"/>
      <path class="cls-66" d="M313,404.92a.52.52,0,1,0,.7.77.52.52,0,1,0-.7-.77" transform="translate(0 0)"/>
      <path class="cls-67" d="M315.65,403.34c-.42.38.18,1,.59.62a.43.43,0,1,0-.59-.62" transform="translate(0 0)"/>
      <path class="cls-68" d="M315.17,404.38a.46.46,0,1,0,.63.66c.45-.42-.18-1.12-.63-.66" transform="translate(0 0)"/>
      <path class="cls-69" d="M314.48,405.53a.5.5,0,1,0,.69.73.5.5,0,1,0-.69-.73" transform="translate(0 0)"/>
      <path class="cls-70" d="M316.88,404.12c-.31.35.21.84.52.49a.36.36,0,1,0-.52-.49" transform="translate(0 0)"/>
      <path class="cls-71" d="M316.5,405.08a.39.39,0,1,0,.59.52.39.39,0,0,0-.59-.52" transform="translate(0 0)"/>
      <path class="cls-72" d="M316,406.08a.42.42,0,1,0,.63.56.42.42,0,1,0-.63-.56" transform="translate(0 0)"/>
      <path class="cls-73" d="M301.43,353.76a1.36,1.36,0,0,0,0,2.72,1.36,1.36,0,1,0,0-2.72" transform="translate(0 0)"/>
    </g>
    <g>
      <path class="cls-12" d="M397.1,322.48a3.58,3.58,0,0,0-1.16.28,2.35,2.35,0,0,0-1.42,1.39h0c-5.73,15.89-2.67,22.66,2.42,32.95,7.35,14.8,2,36.86-14.43,46.51a66.81,66.81,0,0,1-19.06,7.52,40.81,40.81,0,0,0-6.12,1.82,11.22,11.22,0,0,0-4.43,3.44,36.69,36.69,0,0,1,5.67,1c1.92-2.44,6.75-4.69,11.75-6.39a109.78,109.78,0,0,1,13-3.47h0c9.2-2.67,17.78-8.66,24.24-16.27a39.44,39.44,0,0,0,9-30.14c-.3-2.53-1.3-4.08-2.74-4.92a9,9,0,0,0-5.17-.86,17.17,17.17,0,0,1-10.05-2.68c-4-2.49-5.69-6.88-5.62-11.65a24.26,24.26,0,0,1,4.72-13.71,5.56,5.56,0,0,0,1.41-3.2,1.57,1.57,0,0,0-1.18-1.51,2,2,0,0,0-.49-.09h-.38Z" transform="translate(0 0)"/>
      <path class="cls-74" d="M411.67,356.61a2.06,2.06,0,1,1,0,4.11,2.06,2.06,0,1,1,0-4.11" transform="translate(0 0)"/>
      <path class="cls-75" d="M406.51,356.35a2.06,2.06,0,1,1,0,4.11,2.06,2.06,0,1,1,0-4.11" transform="translate(0 0)"/>
      <path class="cls-76" d="M401.43,356.61a2.06,2.06,0,1,1,0,4.11,2.06,2.06,0,1,1,0-4.11" transform="translate(0 0)"/>
      <path class="cls-77" d="M413.55,361.17a2.05,2.05,0,1,1,0,4.1,2.05,2.05,0,1,1,0-4.1" transform="translate(0 0)"/>
      <path class="cls-78" d="M408.46,361.17a2.05,2.05,0,1,1,0,4.1,2.05,2.05,0,1,1,0-4.1" transform="translate(0 0)"/>
      <path class="cls-79" d="M403.34,361.17a2.05,2.05,0,1,1,0,4.1,2.05,2.05,0,1,1,0-4.1" transform="translate(0 0)"/>
      <path class="cls-80" d="M413.76,365.94a2.06,2.06,0,1,1,0,4.12,2.06,2.06,0,1,1,0-4.12" transform="translate(0 0)"/>
      <path class="cls-81" d="M409,365.77a2.06,2.06,0,1,1,0,4.11,2.06,2.06,0,1,1,0-4.11" transform="translate(0 0)"/>
      <path class="cls-82" d="M403.83,365.77a2.06,2.06,0,1,1,0,4.11,2.06,2.06,0,1,1,0-4.11" transform="translate(0 0)"/>
      <path class="cls-83" d="M413,370.82a1.93,1.93,0,1,1,0,3.86,1.93,1.93,0,1,1,0-3.86" transform="translate(0 0)"/>
      <path class="cls-84" d="M408.22,370.82a1.93,1.93,0,1,1,0,3.86,1.93,1.93,0,1,1,0-3.86" transform="translate(0 0)"/>
      <path class="cls-85" d="M403.38,370.82a1.93,1.93,0,1,1,0,3.86,1.93,1.93,0,1,1,0-3.86" transform="translate(0 0)"/>
      <path class="cls-86" d="M412,375.86a1.85,1.85,0,1,1-.17,3.7,1.85,1.85,0,1,1,.17-3.7" transform="translate(0 0)"/>
      <path class="cls-87" d="M407.63,375.34a1.85,1.85,0,1,1-.18,3.7,1.85,1.85,0,1,1,.18-3.7" transform="translate(0 0)"/>
      <path class="cls-88" d="M403,375.14a1.85,1.85,0,1,1-.17,3.69,1.85,1.85,0,1,1,.17-3.69" transform="translate(0 0)"/>
      <path class="cls-89" d="M410.24,380.19a1.76,1.76,0,1,1-.24,3.52,1.76,1.76,0,1,1,.24-3.52" transform="translate(0 0)"/>
      <path class="cls-90" d="M406.24,379.63A1.69,1.69,0,0,1,406,383a1.69,1.69,0,1,1,.21-3.38" transform="translate(0 0)"/>
      <path class="cls-91" d="M402,379.42a1.36,1.36,0,0,1-.18,2.72,1.36,1.36,0,1,1,.18-2.72" transform="translate(0 0)"/>
      <path class="cls-92" d="M408.43,384.09a1.69,1.69,0,0,1-.21,3.38,1.69,1.69,0,1,1,.21-3.38" transform="translate(0 0)"/>
      <path class="cls-93" d="M404.56,383.18a1.42,1.42,0,0,1-.17,2.83,1.42,1.42,0,0,1,.17-2.83" transform="translate(0 0)"/>
      <path class="cls-94" d="M401,382.7a1.17,1.17,0,1,1-.14,2.33,1.17,1.17,0,1,1,.14-2.33" transform="translate(0 0)"/>
      <path class="cls-95" d="M406.83,387.61a1.57,1.57,0,1,1-.7,3.07,1.57,1.57,0,1,1,.7-3.07" transform="translate(0 0)"/>
      <path class="cls-96" d="M403.41,386.25a1.3,1.3,0,1,1-.56,2.54,1.3,1.3,0,1,1,.56-2.54" transform="translate(0 0)"/>
      <path class="cls-97" d="M400.17,385.28a1.09,1.09,0,1,1-.48,2.12,1.09,1.09,0,1,1,.48-2.12" transform="translate(0 0)"/>
      <path class="cls-98" d="M404.6,390.78a1.45,1.45,0,0,1-1,2.72,1.45,1.45,0,1,1,1-2.72" transform="translate(0 0)"/>
      <path class="cls-99" d="M401.6,389.14a1.2,1.2,0,1,1-.8,2.27,1.2,1.2,0,1,1,.8-2.27" transform="translate(0 0)"/>
      <path class="cls-100" d="M398.74,387.93a1,1,0,1,1-.66,1.87,1,1,0,1,1,.66-1.87" transform="translate(0 0)"/>
      <path class="cls-101" d="M402.68,393.47a1.3,1.3,0,1,1-1.11,2.36,1.3,1.3,0,1,1,1.11-2.36" transform="translate(0 0)"/>
      <path class="cls-102" d="M400.1,391.72a1.09,1.09,0,0,1-.9,2,1.09,1.09,0,1,1,.9-2" transform="translate(0 0)"/>
      <path class="cls-103" d="M397.63,390.36a.92.92,0,0,1-.77,1.67.92.92,0,0,1,.77-1.67" transform="translate(0 0)"/>
      <path class="cls-104" d="M400.28,395.7a1.11,1.11,0,0,1-1,2,1.11,1.11,0,1,1,1-2" transform="translate(0 0)"/>
      <path class="cls-105" d="M398.15,394.13a.91.91,0,1,1-.83,1.63.91.91,0,1,1,.83-1.63" transform="translate(0 0)"/>
      <path class="cls-106" d="M396.1,392.87a.76.76,0,0,1-.7,1.36c-.91-.45-.21-1.88.7-1.36" transform="translate(0 0)"/>
      <path class="cls-107" d="M398.26,397.64a1,1,0,0,1-1.12,1.71,1,1,0,1,1,1.12-1.71" transform="translate(0 0)"/>
      <path class="cls-108" d="M396.48,396.05a.85.85,0,0,1-.94,1.42c-.94-.62,0-2.09.94-1.42" transform="translate(0 0)"/>
      <path class="cls-109" d="M394.7,394.68a.71.71,0,1,1-.76,1.19.71.71,0,0,1,.76-1.19" transform="translate(0 0)"/>
      <path class="cls-110" d="M396.26,399.25a1,1,0,1,1-1.11,1.7,1,1,0,1,1,1.11-1.7" transform="translate(0 0)"/>
      <path class="cls-111" d="M394.49,397.68a.85.85,0,0,1-.94,1.42.85.85,0,0,1,.94-1.42" transform="translate(0 0)"/>
      <path class="cls-112" d="M393,396.32a.71.71,0,0,1-.77,1.19c-.8-.53,0-1.75.77-1.19" transform="translate(0 0)"/>
      <path class="cls-113" d="M391.46,398a.65.65,0,0,1-.69,1.11c-.73-.48,0-1.59.69-1.11" transform="translate(0 0)"/>
      <path class="cls-114" d="M392.75,399.42a.7.7,0,1,1-.76,1.18.7.7,0,1,1,.76-1.18" transform="translate(0 0)"/>
      <path class="cls-115" d="M394.15,400.89a.77.77,0,1,1-.84,1.28.77.77,0,1,1,.84-1.28" transform="translate(0 0)"/>
      <path class="cls-116" d="M389.83,399.7a.61.61,0,0,1-.67,1,.61.61,0,0,1,.67-1" transform="translate(0 0)"/>
      <path class="cls-117" d="M390.85,401a.64.64,0,1,1-.69,1.08.64.64,0,1,1,.69-1.08" transform="translate(0 0)"/>
      <path class="cls-118" d="M392.1,402.2a.69.69,0,0,1-.76,1.15.69.69,0,1,1,.76-1.15" transform="translate(0 0)"/>
      <path class="cls-119" d="M388.24,400.84c.59.38,0,1.33-.59.91a.54.54,0,0,1,.59-.91" transform="translate(0 0)"/>
      <path class="cls-120" d="M389.17,402a.61.61,0,0,1-.66,1,.61.61,0,0,1,.66-1" transform="translate(0 0)"/>
      <path class="cls-121" d="M390.31,403.33c.69.46,0,1.57-.7,1.05s0-1.57.7-1.05" transform="translate(0 0)"/>
      <path class="cls-122" d="M386.93,401.86a.52.52,0,0,1-.62.84c-.53-.42.07-1.26.62-.84" transform="translate(0 0)"/>
      <path class="cls-123" d="M387.78,403a.56.56,0,0,1-.66.91.56.56,0,0,1,.66-.91" transform="translate(0 0)"/>
      <path class="cls-124" d="M388.59,404.12c.63.49-.07,1.5-.73,1s.07-1.49.73-1" transform="translate(0 0)"/>
      <path class="cls-125" d="M385.67,402.66a.45.45,0,1,1-.59.67.45.45,0,1,1,.59-.67" transform="translate(0 0)"/>
      <path class="cls-126" d="M386.37,403.82c.45.41-.18,1.18-.66.7a.48.48,0,1,1,.66-.7" transform="translate(0 0)"/>
      <path class="cls-127" d="M387,404.92a.52.52,0,1,1-.69.77.52.52,0,1,1,.69-.77" transform="translate(0 0)"/>
      <path class="cls-128" d="M384.35,403.34a.43.43,0,0,1-.59.62.43.43,0,1,1,.59-.62" transform="translate(0 0)"/>
      <path class="cls-129" d="M384.83,404.38a.46.46,0,1,1-.63.66c-.45-.42.18-1.12.63-.66" transform="translate(0 0)"/>
      <path class="cls-130" d="M385.53,405.53a.51.51,0,1,1-.7.73.51.51,0,1,1,.7-.73" transform="translate(0 0)"/>
      <path class="cls-131" d="M383.12,404.12c.32.35-.21.84-.52.49s.17-.87.52-.49" transform="translate(0 0)"/>
      <path class="cls-132" d="M383.5,405.08a.39.39,0,1,1-.59.52.39.39,0,0,1,.59-.52" transform="translate(0 0)"/>
      <path class="cls-133" d="M384,406.08a.42.42,0,1,1-.63.56.42.42,0,1,1,.63-.56" transform="translate(0 0)"/>
      <path class="cls-134" d="M398.57,353.76a1.36,1.36,0,1,1,0,2.72,1.36,1.36,0,1,1,0-2.72" transform="translate(0 0)"/>
    </g>
    <path class="cls-135" d="M308,351.27c2-6.72,3-15.36.17-26.61,12.58-8.12,21.43-15.54,41.92-15.54s30.1,5.64,41.91,15.54c-2.82,11.25-1.81,19.85.17,26.61H307.88" transform="translate(0 0)"/>
    <path class="cls-136" d="M317.52,334.9l-.93,10.17h0L313,335l1.74,10.64,0,0-4-5.32,2.43,6.32-3-2.06,1.8,3.38-.05.06-2.11-.25,1.3,1.83a6.81,6.81,0,0,0-.4,2.36s0,.08,0,.12h13.93s0-.08,0-.12a6.9,6.9,0,0,0-.41-2.37L326.9,347l-3.45,1.2-.09-.12c.53-.66,5.73-7.05,5.52-7.05s-6.57,5.45-6.79,5.64l0,0,5-11-6.9,9.91-.07,0,2-10.46L318.47,345l-.94-10.14Z" transform="translate(0 0)"/>
    <path class="cls-137" d="M307.89,351.27a75.05,75.05,0,0,1-3.73,9.62c-3.17,7.14-3.83,23.76,7.88,35.5,17.38,17.39,30.62,10.38,37.28,19.86h1.35c6.66-9.48,19.9-2.47,37.28-19.86,11.71-11.74,11.08-28.36,7.88-35.5a78.48,78.48,0,0,1-3.73-9.62H307.86" transform="translate(0 0)"/>
    <path class="cls-2" d="M333.34,335.28c-.2-1-2.48-.79-2.31-2.35-1.52-.25-1.23-2.95,1.59-2.76.3-.54,3.71-1.77,3.3-.07,1.71-1.49,2.95-.13,2,.54.66.66,1,2.17-1,2,.78,1.38-1,1.33-2.22.94,0,.52-.06.94-.74.81-.43.29-.1.66,0,1Zm31.33,1.07c0-1.23-2.3-.86-2.21-2.26-1.26-.19-1.08-2.8,1.52-2.64-.14-.76,3.5-1.72,3.16-.07,1.27-1.34,2.53-.08,1.76.52.63.63,1.4,1.72-.84,2,.9.88-1,1.27-2.12.91,0,.5-.31.67-1,.54-.41.28.15.87.21,1.2Zm18.07,4.25c.21-.93-1.91-.85-1.86-1.91-1-.15-.83-2.12,1.17-2-.11-.57,2.49-1.53,2.32-.14,1-1,2.05,0,1.46.48.48.48,1.07,1.3-.64,1.48.69.66-.76,1-1.64.68,0,.38-.09.44-.59.35-.32.21.38.72.42,1l-.64.09Z" transform="translate(0 0)"/>
    <path class="cls-138" d="M375.48,358.34c.52-2.72,2.76-5.22,3-7.34a10.53,10.53,0,0,1,1.71-4.74A13,13,0,0,0,382,341.9c.35-1.81,1.71-2.2,2.34-.35s1.78,6.48,2.4,7.56a7.27,7.27,0,0,1,1.12,3.31c-.1.73.8,1,1.33,1.54s.59,2.19,2.13,3.65a19.56,19.56,0,0,0,4.67,3.24,28.36,28.36,0,0,1,2,12.3H302.08c0-1.32,0-2.61.07-3.86,8.51-2.2,11.69-7.81,15.28-7.42a53.57,53.57,0,0,1,6-7.15c2-1.77,5.8-8.84,6.78-13.17s2.4-6.58,3.49-6.34,1.53.45,2.82,4.33c1.78,5.32,3,5.95,4.37,9.78,1.18,3.32,3.66,9.27,7.47,12.37,2.37-1.78,5.09-3.76,6-5.16a13.29,13.29,0,0,1,3.18-4c.59-1.77,1.36-4.95,2-5.72a3.92,3.92,0,0,0,.91-2.61,15.69,15.69,0,0,1,2.27-6c1.29-2.12,3-2.82,3.77,0a101.21,101.21,0,0,0,4,12.44,28.8,28.8,0,0,0,4.58,7.74l.29.34a1.2,1.2,0,0,0,.16-.42Z" transform="translate(0 0)"/>
    <g>
      <path class="cls-139" d="M364.49,368.37c-1.78-1.71-4.61-1.32-6-2.68s-3.63-.42-8.45-2.85a14.43,14.43,0,0,1-1.78-1.15c-3.8-3.11-6.28-9.07-7.47-12.37-1.32-3.8-2.58-4.43-4.36-9.8-.94-2.85-1.47-3.73-2.09-4,1.64,1.79.76,4.57,2.09,7.57.52,1.18-.35,1.18-.63.8a1.83,1.83,0,0,0-1.43-.53c.7.6.8,2.1,1.5,3.66s-.52,1.4.91,3.63c.38.62.52,1.56,0,1.94s-1-1.08-1.88-.59a9.26,9.26,0,0,0,1.92,2.16c.66.6,0,.91-.49.64a11.67,11.67,0,0,1-1.67-.88c0,.46.55,1,1.32,1.67s.28,1.15-1.57,1.15a1.1,1.1,0,0,1-.66,1.61c1.15.07,2,2.19,3.45,2.33s1.54,1.08.18,1.32-4.12-1.95-5.48-3.38a1.32,1.32,0,0,1-1.61.42,7.13,7.13,0,0,0,.8,3.31,8,8,0,0,1-2.4-2.23c-.84-1-1.4.49-.67,1.39s1.22,1.64,0,2.34-1.89.42-2.76-.8c-1.22,1-1.71,1.07-2.65.91,0,.58-1,2-1.47,3-1,2,44.89,6.2,43.6,1.32" transform="translate(0 0)"/>
      <path class="cls-139" d="M397.5,368.68c-12.08-1.05-18.74-5.71-22.51-10.17a27.84,27.84,0,0,1-4.57-7.74,99.71,99.71,0,0,1-4.05-12.44,2.51,2.51,0,0,0-1-1.7c-.62-.31-.31.77.14,1.32s.46,1-.17.63-.94.35-.35,1.22a9,9,0,0,1,1.61,2.75,4.27,4.27,0,0,0,.69,2.16c.42.45-1.15.56-1.81-.52,0,.7.17,1.71.63,1.6s.56.31,0,1.36-.52,1.36-.31,1.81c.31.7,1.12-2.06,1.6-.49a11.45,11.45,0,0,0,1.05,2.23c.38.56.35.91-.21.91s-1.05-1.4-1.12-.21.88,1.53,1.82,1.46,1.05.31.91.8a.71.71,0,0,0,.8.88c.49-.14,1.26.31,1.67,1.5s-.27,1.7-1.29.86-2.47-1.63-2.61-2.26-.53.25-.07,1a2.9,2.9,0,0,0,1.22,1.43c.56.28,0,1.43-1,.7s-1.33-.53-1.61.27c-.45,1.3-1.81,1-1.39,1.68a1.56,1.56,0,0,1-.39,2.09c-.66.27-1.43-.14-1.36-1.36a1.51,1.51,0,0,1-1.36.21c-.07,1.71-.56,2.3-1.6,1.84a2.21,2.21,0,0,1-.6,1.54,1.2,1.2,0,0,1,1.5,1.11c.07.49.25.42.91.49s1.43.87.25.66-3,.24-4.12-.55c1.11,1,4.29,1,5.62,2.33,9.67,4,26.7,5.37,33.43,3.52a29.43,29.43,0,0,0-.14-3.24" transform="translate(0 0)"/>
      <path class="cls-139" d="M383.48,340.45a2.05,2.05,0,0,1,.8,1.11c.59,1.85,1.78,6.48,2.41,7.56a7.52,7.52,0,0,1,1.12,3.31c-.11.73.8,1,1.32,1.53s.6,2.2,2.13,3.66a20.1,20.1,0,0,0,4.68,3.24,24.29,24.29,0,0,1,1.81,7.63,42.55,42.55,0,0,1-11.86-2.68,3.64,3.64,0,0,0,0-1.6,1.85,1.85,0,0,1,.73-2,2,2,0,0,0,.11-2.54c-.42-.63-.38-1,0-1.39s.32-1-.41-1.68-.25-1.43.17-2.05a3.43,3.43,0,0,0,.59-3.1c-.45-1.36-1.15.31-1.71-.21a1.25,1.25,0,0,1-.17-1.57,2.37,2.37,0,0,0-.32-2.3c1-.28-.69-3.24-1-4.5s.31-1.88-.35-2.37" transform="translate(0 0)"/>
    </g>
    <path class="cls-140" d="M339.56,351.76a5.26,5.26,0,0,1-.35,1.92,6,6,0,0,1,.91,2.43c.56-.51,1.64-.1,1.89,1.33a13.82,13.82,0,0,1,.35,3.62c.48.42,1.53,1.16,1.71,2s.69.66,1.22.59c1.64-.24,1.5,1.74,3.21,1.46,2.41-.35.91,1.57,3.31,1.5,1.4-.07,3.32.2,4.3,1.57,1.08-1.47,2-.91,3-.53s2.2.25,1.12-.52a6.38,6.38,0,0,0-4.3-.66,4,4,0,0,1-3.45-.83,7,7,0,0,0-3.74-1.72c-1,0-1.29-.09-2.09-1.28a3,3,0,0,0-2.65-1.08c-.6,0-1.05-.8-.35-1.53,1-1.08-.42-1.23.1-1.89s.25-1.53-1.15-1.64-.87-.55-.66-1.53c.49-2.33-2.66-1.95-2.41-3.06m54.83,12.43c.14-1.42-.94-2-1.18-3.1s-1.92-1.12-2.38-.79a1.3,1.3,0,0,1-.21,1.17c-.21.29-.21.46.21.6s.84.21.88.59.24,0,.41-.42,1.37.56,1.51,1.46.59,1.54.73.46m-5.62-1.5c.21.52,1,1.26,1.39,1.26a1.25,1.25,0,0,1,1.16.8c.07.42.42,1,.87,1.08s.21.42-.35.38-1.5-.38-1.57-.8c.21.87-.07,1.26-.63.62s-.8-1.42-1.5-1.53c.52-.1.59-.24.35-.77s0-1.91.28-1" transform="translate(0 0)"/>
    <path class="cls-141" d="M302.16,371.52a3.83,3.83,0,0,1,3.58.24,1.68,1.68,0,0,1,1.95-1c.83-.91,1.53-1.37,2-.91a24.77,24.77,0,0,0,5.25-1.4c1.05-1.36,2.89-1.84,4-1.15a2.05,2.05,0,0,1,2.58-.1c.48.45,1.53-.48,1.94.38.73-.17,2.12-.2,2.4.56a.78.78,0,0,1,1.15-.35,2.25,2.25,0,0,1,2.75-2.44c.76-1.15,2.08-1.63,2.71-1.22.66-.66,2-.21,2.61.6,1.28,0,1.91.55,2.57,1.7a3.38,3.38,0,0,0,3.79,1.33c1.22-.46,2.33-.6,2.75,0a1.41,1.41,0,0,1,2,0c.84.73,1.64-.56,2.13-.07.76.8,1.46-.74,2.81.07a13.54,13.54,0,0,0,6,2c2,0,3.62-2.47,4.9-.73a4.79,4.79,0,0,1,4.59-.55c.8-.73,2.64-1,3.37-.28a3.07,3.07,0,0,1,3.31-1.4,2.57,2.57,0,0,1,4.1.29c.66,0,1.7.59,1.7,1.32.67,0,1.71.42,1.71,1.18a1.47,1.47,0,0,1,1.77,1.15,3.29,3.29,0,0,1,3.31,1.71c.48-.42.2-1.5,1.32-1.71s1.46.17,1.77.56a3.36,3.36,0,0,1,4.35.49c1-.42,2-.24,2.33.27a2.86,2.86,0,0,1,1.91-.51,36.53,36.53,0,0,1-.7,7.59H302.68a37.44,37.44,0,0,1-.66-7.53" transform="translate(0 0)"/>
    <path class="cls-2" d="M350,317.53l-1,3h-3.2l2.61,1.88-1,3,2.54-1.88,2.58,1.88-1-3,2.58-1.81H351l-1-3m-12.2.94-.45,3.14-3.14.49,2.86,1.42-.49,3.13,2.23-2.26,2.82,1.43-1.46-2.82,2.27-2.23-3.14.49-1.46-2.83m-11.88,3,0,3.17-3,1,3.07.95v3.16l1.81-2.61,3,.94L329,325.57l1.85-2.57-3,1-1.92-2.55m-11.08,4.88.56,3.14-2.82,1.5,3.17.42.52,3.13,1.36-2.86,3.14.42-2.3-2.23,1.39-2.83-2.82,1.5-2.3-2.19m47.45-7.8.45,3.14,3.14.49-2.86,1.42.49,3.13-2.23-2.26-2.82,1.43,1.46-2.82-2.23-2.23,3.14.49,1.46-2.83m11.85,3,0,3.17,3,1-3.06.95v3.16l-1.82-2.61-3,.94,1.92-2.55L369.16,323l3,1,1.91-2.55m11.12,4.88-.56,3.14,2.82,1.5-3.17.42-.52,3.13-1.36-2.86-3.13.42,2.3-2.23-1.4-2.83,2.82,1.5,2.3-2.19" transform="translate(0 0)"/>
    <path class="cls-142" d="M344.74,394.24l.35-23.3c0-1.12.21-1.3.25-.07l.07,23.62" transform="translate(0 0)"/>
    <path class="cls-143" d="M344.74,394.24l.35-23.3c0-1.12.21-1.3.25-.07l.07,23.62" transform="translate(0 0)"/>
    <path class="cls-2" d="M345.37,370.9c.8-.69,2.65.88,3.8.22-.7,2.25-3.49.48-3.8,1.32V370.9" transform="translate(0 0)"/>
    <path class="cls-144" d="M345.37,370.9c.8-.69,2.65.88,3.8.22-.7,2.25-3.49.48-3.8,1.32V370.9" transform="translate(0 0)"/>
    <path class="cls-142" d="M352.62,394.28,353,371c0-1.12.2-1.33.24,0l.07,23.58" transform="translate(0 0)"/>
    <path class="cls-143" d="M352.62,394.28,353,371c0-1.12.2-1.33.24,0l.07,23.58" transform="translate(0 0)"/>
    <path class="cls-2" d="M353.28,371c.8-.69,2.65.88,3.8.21-.73,2.26-3.49.49-3.8,1.33V371" transform="translate(0 0)"/>
    <path class="cls-144" d="M353.28,371c.8-.69,2.65.88,3.8.21-.73,2.26-3.49.49-3.8,1.33V371" transform="translate(0 0)"/>
    <path class="cls-142" d="M360.07,395.57l.35-23.31c0-1.12.21-1.29.24,0l.07,23.58" transform="translate(0 0)"/>
    <path class="cls-143" d="M360.07,395.57l.35-23.31c0-1.12.21-1.29.24,0l.07,23.58" transform="translate(0 0)"/>
    <path class="cls-2" d="M360.7,372.26c.8-.7,2.65.87,3.8.18-.73,2.26-3.49.49-3.8,1.32v-1.53" transform="translate(0 0)"/>
    <path class="cls-144" d="M360.7,372.26c.8-.7,2.65.87,3.8.18-.73,2.26-3.49.49-3.8,1.32v-1.5Z" transform="translate(0 0)"/>
    <path class="cls-145" d="M362.75,398.25a2.4,2.4,0,0,1-2.09-1c-.59.56-3.06.87-4,0a4,4,0,0,1-3.76.28c-.84.73-3.31.67-4.6-.1a5.52,5.52,0,0,1-2.82,1.05,21.52,21.52,0,0,0-6.2-5.23c-2.2-1.08-6.59-3.17-8.92-4.18-1.36-.59-2.61-1.61,0-.49,2.76,1.18,7.18,3,10.18,4.29,4.28,1.88,21.39,1.6,24.21,1.35,1.46-.1,3.41-1.21,4.77-2.05,1.05-.63,1.08-.25.07.28a8,8,0,0,0-3.2,2.26c-1.19,1.64-2.82,2.38-3.45,3.45" transform="translate(0 0)"/>
    <path class="cls-143" d="M362.75,398.25a2.4,2.4,0,0,1-2.09-1c-.59.56-3.06.87-4,0a4,4,0,0,1-3.76.28c-.84.73-3.31.67-4.6-.1a5.52,5.52,0,0,1-2.82,1.05,21.52,21.52,0,0,0-6.2-5.23c-2.2-1.08-6.59-3.17-8.92-4.18-1.36-.59-2.61-1.61,0-.49,2.76,1.18,7.18,3,10.18,4.29,4.28,1.88,21.39,1.6,24.21,1.35,1.46-.1,3.41-1.21,4.77-2.05,1.05-.63,1.08-.25.07.28a8,8,0,0,0-3.2,2.26c-1.19,1.64-2.82,2.38-3.45,3.45l-.11.07Z" transform="translate(0 0)"/>
    <path class="cls-2" d="M364.36,376.23l-5.54-.59a6.28,6.28,0,0,0-.59,5.13c1.77-1.68,5-.81,6.58.06-.52-1.46-1.32-3.44-.42-4.56" transform="translate(0 0)"/>
    <path class="cls-144" d="M364.36,376.23l-5.54-.59a6.28,6.28,0,0,0-.59,5.13c1.77-1.68,5-.81,6.58.06-.52-1.46-1.32-3.44-.42-4.56Z" transform="translate(0 0)"/>
    <path class="cls-2" d="M364.78,380.79c-1.64,0-5.54-.06-6.76-.06-1.33,1.7-.6,4.28-.28,5.26,1.46-2.33,6.1-1.09,7.87.59-.9-1.71-1.6-3.17-.8-5.81" transform="translate(0 0)"/>
    <path class="cls-144" d="M364.78,380.79c-1.64,0-5.54-.06-6.76-.06-1.33,1.7-.6,4.28-.28,5.26,1.46-2.33,6.1-1.09,7.87.59-.9-1.71-1.6-3.17-.8-5.81Z" transform="translate(0 0)"/>
    <path class="cls-2" d="M365.58,386.65c-1.6-.28-6.76-.63-7.81-.91a23.93,23.93,0,0,0-1.88,6.17c2.51-2.75,8.33-.73,9.55,1.95-1.22-2.3-2.44-5.78.17-7.21" transform="translate(0 0)"/>
    <path class="cls-144" d="M365.58,386.65c-1.6-.28-6.76-.63-7.81-.91a23.93,23.93,0,0,0-1.88,6.17c2.51-2.75,8.33-.73,9.55,1.95-1.22-2.3-2.44-5.78.17-7.21Z" transform="translate(0 0)"/>
    <path class="cls-2" d="M358.68,374.56l-7.32-1a8.73,8.73,0,0,0-1.7,5.88c1.53-1.46,7.14-.87,8.57,1.23-.49-2.27-1.12-5.12.48-6.18" transform="translate(0 0)"/>
    <path class="cls-144" d="M358.68,374.56l-7.32-1a8.73,8.73,0,0,0-1.7,5.88c1.53-1.46,7.14-.87,8.57,1.23-.49-2.27-1.12-5.12.48-6.18l0,0Z" transform="translate(0 0)"/>
    <path class="cls-2" d="M358.12,380.9,350,379.82c-1.29,1.64-1.22,4-.9,6.45,1.84-1.53,7.87-.7,9.3,1.36-.87-3-1.6-4.78-.24-6.73" transform="translate(0 0)"/>
    <path class="cls-144" d="M358.12,380.9,350,379.82c-1.29,1.64-1.22,4-.9,6.45,1.84-1.53,7.87-.7,9.3,1.36-.87-3-1.6-4.78-.24-6.73Z" transform="translate(0 0)"/>
    <path class="cls-2" d="M358.37,387.63l-8.26-.84a7.08,7.08,0,0,0-1.88,5.64c1.29-2.12,6.76-.59,9.09,1.78-1.39-1.85-1.53-4.5,1.05-6.58" transform="translate(0 0)"/>
    <path class="cls-144" d="M358.37,387.63l-8.26-.84a7.08,7.08,0,0,0-1.88,5.64c1.29-2.12,6.76-.59,9.09,1.78C355.93,392.36,355.79,389.71,358.37,387.63Z" transform="translate(0 0)"/>
    <path class="cls-2" d="M344.92,374.56a12.1,12.1,0,0,0-2.51,3.76c1.53-.62,4.77-.8,6.79.7-.59-1.15-.8-3.17-.28-4a11.52,11.52,0,0,0-4-.42" transform="translate(0 0)"/>
    <path class="cls-144" d="M344.92,374.56a12.1,12.1,0,0,0-2.51,3.76c1.53-.62,4.77-.8,6.79.7-.59-1.15-.8-3.17-.28-4a11.52,11.52,0,0,0-4-.42l0,0Z" transform="translate(0 0)"/>
    <path class="cls-2" d="M341.54,379.44a41.22,41.22,0,0,1,8.36,1c-1.12,1.68-1,4.54-.52,6.31-2.89-2.85-7.67-2.78-10.49-1.94.52-1.3,1.81-4,2.61-5.41" transform="translate(0 0)"/>
    <path class="cls-144" d="M341.54,379.44a41.22,41.22,0,0,1,8.36,1c-1.12,1.68-1,4.54-.52,6.31-2.89-2.85-7.67-2.78-10.49-1.94.52-1.3,1.81-4,2.61-5.41Z" transform="translate(0 0)"/>
    <path class="cls-2" d="M350,387.38a28.14,28.14,0,0,1-9.72-2,31,31,0,0,0-1.29,7.38c2.33-3.13,8.05-1.39,9.86,1.82-.18-1.71-.8-5.89,1.15-7.21" transform="translate(0 0)"/>
    <path class="cls-144" d="M350,387.38a28.14,28.14,0,0,1-9.72-2,31,31,0,0,0-1.29,7.38c2.33-3.13,8.05-1.39,9.86,1.82-.18-1.71-.8-5.89,1.15-7.21Z" transform="translate(0 0)"/>
    <path class="cls-2" d="M344.92,374.56c-5.79,3.49-10.18,10.52-11.81,15.4,1.63,0,3.69.49,4.42,2,1.71-7,4.11-13.48,7.39-17.39" transform="translate(0 0)"/>
    <path class="cls-144" d="M344.92,374.56c-5.79,3.49-10.18,10.52-11.81,15.4,1.63,0,3.69.49,4.42,2,1.71-7,4.11-13.48,7.39-17.39Zm.17-3.38c-4.74,4.77-11.46,13.28-13.9,17.91m33.17-12.86c1.29,6.27,1.6,14.7,1.08,17.81" transform="translate(0 0)"/>
    <path class="cls-146" d="M371.21,387.56c-1.46.73-4.25-1.32-5.56-.39v-.81c1.27-.89,4.06,1.16,5.56.39v.85" transform="translate(0 0)"/>
    <path class="cls-1" d="M371.21,387.56c-1.46.73-4.25-1.32-5.56-.39v-.81c1.27-.89,4.06,1.16,5.56.39v.81Z" transform="translate(0 0)"/>
    <path class="cls-2" d="M371.21,388.41c-1.46.73-4.25-1.32-5.56-.43v-.85c1.27-.89,4.06,1.16,5.56.39v.85" transform="translate(0 0)"/>
    <path class="cls-147" d="M371.21,388.41c-1.46.73-4.25-1.32-5.56-.43v-.85c1.27-.89,4.06,1.16,5.56.39v.89Z" transform="translate(0 0)"/>
    <path class="cls-148" d="M371.21,389.26c-1.46.77-4.25-1.28-5.56-.38V388c1.27-.89,4.06,1.16,5.56.43v.81" transform="translate(0 0)"/>
    <path class="cls-3" d="M371.21,389.26c-1.46.77-4.25-1.28-5.56-.38V388c1.27-.89,4.06,1.16,5.56.43v.81" transform="translate(0 0)"/>
    <path class="cls-2" d="M371.21,390.11c-1.46.77-4.25-1.28-5.56-.38v-.86c1.27-.85,4.06,1.16,5.56.39Z" transform="translate(0 0)"/>
    <path class="cls-147" d="M371.21,390.11c-1.46.77-4.25-1.28-5.56-.38v-.86c1.27-.85,4.06,1.16,5.56.39Z" transform="translate(0 0)"/>
    <path class="cls-146" d="M371.21,390.93c-1.46.77-4.25-1.28-5.56-.39v-.85c1.27-.89,4.06,1.16,5.56.38v.82" transform="translate(0 0)"/>
    <path class="cls-1" d="M371.21,390.93c-1.46.77-4.25-1.28-5.56-.39v-.85c1.27-.89,4.06,1.16,5.56.38v.86Z" transform="translate(0 0)"/>
    <g>
      <path class="cls-142" d="M347.78,352.54l.12-8.27c0-.4.07-.46.09,0l0,8.39" transform="translate(0 0)"/>
      <path class="cls-149" d="M347.78,352.54l.12-8.27c0-.4.07-.46.09,0l0,8.39" transform="translate(0 0)"/>
      <path class="cls-2" d="M348,344.26c.28-.25.94.31,1.35.07-.25.8-1.24.17-1.35.47v-.54" transform="translate(0 0)"/>
      <path class="cls-150" d="M348,344.26c.28-.25.94.31,1.35.07-.25.8-1.24.17-1.35.47v-.54" transform="translate(0 0)"/>
      <path class="cls-142" d="M350.57,352.55l.12-8.26c0-.39.08-.47.09,0l0,8.37" transform="translate(0 0)"/>
      <path class="cls-149" d="M350.57,352.55l.12-8.26c0-.39.08-.47.09,0l0,8.37" transform="translate(0 0)"/>
      <path class="cls-2" d="M350.81,344.28c.28-.24.94.31,1.34.07-.26.81-1.23.18-1.34.48v-.55" transform="translate(0 0)"/>
      <path class="cls-150" d="M350.81,344.28c.28-.24.94.31,1.34.07-.26.81-1.23.18-1.34.48v-.55" transform="translate(0 0)"/>
      <path class="cls-142" d="M353.22,353l.12-8.27c0-.4.07-.46.09,0l0,8.37" transform="translate(0 0)"/>
      <path class="cls-149" d="M353.22,353l.12-8.27c0-.4.07-.46.09,0l0,8.37" transform="translate(0 0)"/>
      <path class="cls-2" d="M353.44,344.74c.28-.25.94.31,1.35.06-.26.81-1.24.18-1.35.47v-.54" transform="translate(0 0)"/>
      <path class="cls-150" d="M353.44,344.74c.28-.25.94.31,1.35.06-.26.81-1.24.18-1.35.47v-.54Z" transform="translate(0 0)"/>
      <path class="cls-145" d="M354.17,354a.83.83,0,0,1-.74-.36,1.49,1.49,0,0,1-1.44,0,1.43,1.43,0,0,1-1.33.09,1.77,1.77,0,0,1-1.63,0,2.12,2.12,0,0,1-1,.37,7.56,7.56,0,0,0-2.2-1.86c-.78-.38-2.33-1.12-3.16-1.48-.48-.21-.93-.57,0-.17s2.54,1,3.61,1.52c1.52.67,7.59.57,8.59.48a4.48,4.48,0,0,0,1.69-.73c.37-.22.38-.09,0,.1a2.83,2.83,0,0,0-1.14.8c-.42.59-1,.84-1.23,1.23" transform="translate(0 0)"/>
      <path class="cls-149" d="M354.17,354a.83.83,0,0,1-.74-.36,1.49,1.49,0,0,1-1.44,0,1.43,1.43,0,0,1-1.33.09,1.77,1.77,0,0,1-1.63,0,2.12,2.12,0,0,1-1,.37,7.56,7.56,0,0,0-2.2-1.86c-.78-.38-2.33-1.12-3.16-1.48-.48-.21-.93-.57,0-.17s2.54,1,3.61,1.52c1.52.67,7.59.57,8.59.48a4.48,4.48,0,0,0,1.69-.73c.37-.22.38-.09,0,.1a2.83,2.83,0,0,0-1.14.8c-.42.59-1,.84-1.23,1.23l0,0Z" transform="translate(0 0)"/>
      <path class="cls-2" d="M354.74,346.15l-2-.21a2.25,2.25,0,0,0-.21,1.82c.63-.6,1.77-.29,2.34,0-.19-.52-.47-1.22-.15-1.62" transform="translate(0 0)"/>
      <path class="cls-150" d="M354.74,346.15l-2-.21a2.25,2.25,0,0,0-.21,1.82c.63-.6,1.77-.29,2.34,0-.19-.52-.47-1.22-.15-1.62Z" transform="translate(0 0)"/>
      <path class="cls-2" d="M354.89,347.77c-.59,0-2,0-2.4,0a2.15,2.15,0,0,0-.1,1.87c.52-.83,2.16-.38,2.79.21a2.33,2.33,0,0,1-.28-2.06" transform="translate(0 0)"/>
      <path class="cls-150" d="M354.89,347.77c-.59,0-2,0-2.4,0a2.15,2.15,0,0,0-.1,1.87c.52-.83,2.16-.38,2.79.21a2.33,2.33,0,0,1-.28-2.06Z" transform="translate(0 0)"/>
      <path class="cls-2" d="M355.17,349.85c-.57-.11-2.4-.23-2.77-.33a8.5,8.5,0,0,0-.67,2.19c.89-1,3-.26,3.39.69-.43-.81-.87-2,.06-2.55" transform="translate(0 0)"/>
      <path class="cls-150" d="M355.17,349.85c-.57-.11-2.4-.23-2.77-.33a8.5,8.5,0,0,0-.67,2.19c.89-1,3-.26,3.39.69-.43-.81-.87-2,.06-2.55Z" transform="translate(0 0)"/>
      <path class="cls-2" d="M352.72,345.55l-2.59-.34a3,3,0,0,0-.61,2.09,2.74,2.74,0,0,1,3,.43c-.17-.8-.39-1.81.17-2.19" transform="translate(0 0)"/>
      <path class="cls-150" d="M352.72,345.55l-2.59-.34a3,3,0,0,0-.61,2.09,2.74,2.74,0,0,1,3,.43c-.17-.8-.39-1.81.17-2.19Z" transform="translate(0 0)"/>
      <path class="cls-2" d="M352.52,347.8l-2.88-.38a3.09,3.09,0,0,0-.32,2.29,3.14,3.14,0,0,1,3.3.48c-.31-1.06-.57-1.69-.08-2.39" transform="translate(0 0)"/>
      <path class="cls-150" d="M352.52,347.8l-2.88-.38a3.09,3.09,0,0,0-.32,2.29,3.14,3.14,0,0,1,3.3.48c-.31-1.06-.57-1.69-.08-2.39Z" transform="translate(0 0)"/>
      <path class="cls-2" d="M352.61,350.19l-2.93-.3a2.53,2.53,0,0,0-.67,2c.46-.76,2.4-.21,3.23.63a1.61,1.61,0,0,1,.37-2.34" transform="translate(0 0)"/>
      <path class="cls-150" d="M352.61,350.19l-2.93-.3a2.53,2.53,0,0,0-.67,2c.46-.76,2.4-.21,3.23.63A1.61,1.61,0,0,1,352.61,350.19Z" transform="translate(0 0)"/>
      <path class="cls-2" d="M347.84,345.55a4.39,4.39,0,0,0-.89,1.34,2.81,2.81,0,0,1,2.41.25,1.79,1.79,0,0,1-.1-1.42,3.78,3.78,0,0,0-1.41-.15" transform="translate(0 0)"/>
      <path class="cls-150" d="M347.84,345.55a4.39,4.39,0,0,0-.89,1.34,2.81,2.81,0,0,1,2.41.25,1.79,1.79,0,0,1-.1-1.42,3.78,3.78,0,0,0-1.41-.15Z" transform="translate(0 0)"/>
      <path class="cls-2" d="M346.64,347.29a14.37,14.37,0,0,1,3,.35,3.11,3.11,0,0,0-.19,2.24,4,4,0,0,0-3.72-.69,19.64,19.64,0,0,1,.93-1.92" transform="translate(0 0)"/>
      <path class="cls-150" d="M346.64,347.29a14.37,14.37,0,0,1,3,.35,3.11,3.11,0,0,0-.19,2.24,4,4,0,0,0-3.72-.69,19.64,19.64,0,0,1,.93-1.92Z" transform="translate(0 0)"/>
      <path class="cls-2" d="M349.63,350.11a10.25,10.25,0,0,1-3.45-.72,11.12,11.12,0,0,0-.46,2.62c.83-1.11,2.86-.5,3.5.64-.06-.6-.28-2.09.41-2.56" transform="translate(0 0)"/>
      <path class="cls-150" d="M349.63,350.11a10.25,10.25,0,0,1-3.45-.72,11.12,11.12,0,0,0-.46,2.62c.83-1.11,2.86-.5,3.5.64-.06-.6-.28-2.09.41-2.56v0Z" transform="translate(0 0)"/>
      <path class="cls-2" d="M347.84,345.55a11,11,0,0,0-4.19,5.47,1.71,1.71,0,0,1,1.57.69,16,16,0,0,1,2.62-6.17" transform="translate(0 0)"/>
      <path class="cls-150" d="M347.84,345.55a11,11,0,0,0-4.19,5.47,1.71,1.71,0,0,1,1.57.69,16,16,0,0,1,2.62-6.17Zm.06-1.2a35.33,35.33,0,0,0-4.93,6.36m11.77-4.56a23,23,0,0,1,.38,6.32" transform="translate(0 0)"/>
      <path class="cls-146" d="M357.17,350.17c-.52.26-1.51-.47-2-.14v-.29c.46-.31,1.45.41,2,.14v.3" transform="translate(0 0)"/>
      <path class="cls-1" d="M357.17,350.17c-.52.26-1.51-.47-2-.14v-.29c.46-.31,1.45.41,2,.14v.3Z" transform="translate(0 0)"/>
      <path class="cls-2" d="M357.17,350.47c-.52.26-1.51-.47-2-.15V350c.46-.32,1.45.41,2,.13v.31" transform="translate(0 0)"/>
      <path class="cls-147" d="M357.17,350.47c-.52.26-1.51-.47-2-.15V350c.46-.32,1.45.41,2,.13v.31Z" transform="translate(0 0)"/>
      <path class="cls-148" d="M357.17,350.77c-.52.28-1.51-.45-2-.14v-.3c.46-.31,1.45.41,2,.15v.29" transform="translate(0 0)"/>
      <path class="cls-3" d="M357.17,350.77c-.52.28-1.51-.45-2-.14v-.3c.46-.31,1.45.41,2,.15v.29" transform="translate(0 0)"/>
      <path class="cls-2" d="M357.17,351.07c-.52.28-1.51-.45-2-.13v-.31c.46-.3,1.45.42,2,.14Z" transform="translate(0 0)"/>
      <path class="cls-147" d="M357.17,351.07c-.52.28-1.51-.45-2-.13v-.31c.46-.3,1.45.42,2,.14Z" transform="translate(0 0)"/>
      <path class="cls-146" d="M357.17,351.36c-.52.28-1.51-.45-2-.13v-.31c.46-.31,1.45.41,2,.14v.29" transform="translate(0 0)"/>
      <path class="cls-1" d="M357.17,351.36c-.52.28-1.51-.45-2-.13v-.31c.46-.31,1.45.41,2,.14Z" transform="translate(0 0)"/>
    </g>
    <path class="cls-151" d="M391.93,324.66c-4.42,17.49.52,28.57,3.94,36.23,3.2,7.14,3.83,23.76-7.88,35.5-17.38,17.39-30.62,10.38-37.28,19.86m-1.42,0c-6.66-9.47-19.9-2.47-37.28-19.85-11.71-11.75-11.08-28.36-7.87-35.51,3.41-7.62,8.36-18.7,3.93-36.23" transform="translate(0 0)"/>
    <g>
      <path class="cls-152" d="M352,280.69c.24,1.14.56,4.19-1.12,4.63,3.07,3.78,7.49,4.32,15.26,4.32,4.88,0,8.82,0,11.71,0,0,1-.32,2-.32,3.21s1.22,1.71,3,1.31,5.58-1.55,7.63.26c3.45,3.09,9.79,3.62,11.5,5.57-.52-2.35-2.75-4.73-5.23-6.71,2.34-.33,5.37-.09,6.41.71-2.65-2.87-7.45-2.94-9.89-4.35a30.36,30.36,0,0,0-6.59-3.12,2,2,0,0,0-.8-1.91c-1.53-1.07-4.53-1.44-7-1.57a2,2,0,0,0,.42-1.48v-3.78c0-1.31.14-1.65-1.36-2.58-5.78-3.55-12.82-6.1-25.64-6.1s-19.82,2.51-25.64,6.1c-1.53.93-1.36,1.27-1.36,2.58v3.78a1.83,1.83,0,0,0,.42,1.48c-2.44.1-5.4.47-7,1.58a2,2,0,0,0-.8,1.9,28.85,28.85,0,0,0-6.58,3.12c-2.44,1.41-7.25,1.48-9.9,4.35,1-.8,4-1.07,6.38-.7-2.44,1.94-4.67,4.32-5.23,6.7,1.71-1.95,8.05-2.48,11.53-5.56,2-1.81,5.82-.71,7.63-.27s3-.1,3-1.3-.31-2.25-.31-3.22c2.85-.07,6.79,0,11.7,0,7.74,0,12.16-.54,15.26-4.32-1.71-.44-1.39-3.46-1.11-4.62-3.63-.81-5.44-2.18-8.36-2.18s-3.42,1.53-3.42,2.11v.47c-2.3,0-5.54-.58-6.34-2.09,4.46-1.8,11.08-3.44,20.17-3.44s15.71,1.64,20.17,3.44c-.8,1.51-4,2.09-6.34,2.09v-.47c0-.54-.49-2.11-3.41-2.11s-4.74,1.34-8.36,2.18H352Z" transform="translate(0 0)"/>
      <g>
        <path class="cls-6" d="M322.1,289.7a19.62,19.62,0,0,0-4.74.44c-1.4.43-1.53,1.17-.63,1.57m19.41-10.59v1.75a3,3,0,0,0,3.1,2.61c4.63,0,5.54-.8,9-.7" transform="translate(0 0)"/>
        <path class="cls-6" d="M348.19,284.68c-3.21-.54-5.75-2.25-8.57-2.25s-3.38,1.27-2.89,1.88m-21.18,2.31v3.45c0,.94.66,2.24,3.17,1.75,2.19-.41,3.62.09,3.62,1" transform="translate(0 0)"/>
        <path class="cls-6" d="M323.35,283.1c.52.54,1.67,1,4.21,1.92,4.67,1.7,15.4,2.87,22.37-.18M370.17,279c.91.37,1.74.74,2.48,1.11,4.35,2.18,4.66,2.68,3.13,3.52m2.09,6.06a19.62,19.62,0,0,1,4.74.44c1.39.43,1.53,1.17.63,1.57M363.8,281.12v1.75a3,3,0,0,1-3.1,2.61c-4.64,0-5.54-.8-9-.7" transform="translate(0 0)"/>
        <path class="cls-6" d="M351.74,284.68c3.21-.54,5.75-2.25,8.57-2.25s3.38,1.27,2.86,1.88m21.22,2.31v3.45c0,.94-.66,2.24-3.17,1.75-2.2-.41-3.63.09-3.63,1" transform="translate(0 0)"/>
        <path class="cls-6" d="M376.58,283.1c-.52.54-1.67,1-4.21,1.92-4.67,1.7-15.4,2.87-22.37-.18" transform="translate(0 0)"/>
      </g>
      <path class="cls-152" d="M350,285.48c2.12,0,2.19-1.6,2.19-3.08s-.07-3-2.19-3-2.2,1.61-2.2,3S347.84,285.48,350,285.48Z" transform="translate(0 0)"/>
      <path class="cls-6" d="M329.92,279c-.93.36-1.79.73-2.54,1.1-4.46,2.18-4.78,2.68-3.21,3.51" transform="translate(0 0)"/>
    </g>
    <g id="aq">
      <path class="cls-153" d="M344.88,308.11c2.93-1.88,6.55-5.05,7.87-7.14,1.81-2.93,2.06-1.5,3.45-1.74A72.49,72.49,0,0,1,346,308.67l-1.08-.56m-24.49,7c-7.32-4.15-10.11.17-11.81.38C310.6,316,312.3,319.26,320.39,315.15Z" transform="translate(0 0)"/>
      <path class="cls-153" d="M323.66,312.75c-7-4.71-10.07-.6-11.81-.49C313.84,312.88,315.3,316.26,323.66,312.75Z" transform="translate(0 0)"/>
      <path class="cls-153" d="M328.64,310c-6.86-4.84-10.06-.8-11.81-.73C318.82,309.92,320.18,313.26,328.64,310Z" transform="translate(0 0)"/>
      <path class="cls-153" d="M332.76,307.49c-6.31-5.58-9.93-1.89-11.64-2C323,306.37,324,309.85,332.76,307.49Z" transform="translate(0 0)"/>
      <path class="cls-153" d="M338,305.67c-6-5.89-9.83-2.37-11.54-2.61C328.33,304,329.17,307.62,338,305.67Z" transform="translate(0 0)"/>
      <path class="cls-153" d="M343.52,305.08c-5-6.76-9.3-3.94-11-4.43C334.19,302,334.43,305.57,343.52,305.08Z" transform="translate(0 0)"/>
      <path class="cls-153" d="M344.43,305.35c-.25-1.52-3.1-3.48-3.35-4.21a.78.78,0,0,0,.53-1.25c-.25-.24-.84-.11-1.15.21a1.36,1.36,0,0,0,.38,2,9.43,9.43,0,0,1,2.79,3.2" transform="translate(0 0)"/>
      <path class="cls-154" d="M313.73,315.64c2-.6,4.5-.32,6.24-.49m-3-2.44c2.06-.45,4.5,0,6.28,0M322,309.78c2.05-.38,4.49.1,6.27.1m-2.09-3.3c2.09-.17,4.46.59,6.2.8m-.91-3c2.09-.07,4.43.8,6.17,1.11m-.35-2.72c2.09.21,4.25,1.53,5.89,2.06" transform="translate(0 0)"/>
    </g>
    <g>
      <path class="cls-153" d="M355.09,308.11c-2.93-1.88-6.55-5.05-7.88-7.14-1.81-2.93-2-1.5-3.45-1.74A73.06,73.06,0,0,0,354,308.67l1.08-.56m24.49,7c7.32-4.15,10.1.17,11.81.38C389.37,316,387.66,319.26,379.58,315.15Z" transform="translate(0 0)"/>
      <path class="cls-153" d="M376.3,312.75c7-4.71,10.07-.6,11.82-.49C386.13,312.88,384.67,316.26,376.3,312.75Z" transform="translate(0 0)"/>
      <path class="cls-153" d="M371.32,310c6.87-4.84,10.07-.8,11.81-.73C381.15,309.92,379.79,313.26,371.32,310Z" transform="translate(0 0)"/>
      <path class="cls-153" d="M367.21,307.49c6.31-5.58,9.93-1.89,11.64-2C377,306.37,376,309.85,367.21,307.49Z" transform="translate(0 0)"/>
      <path class="cls-153" d="M362,305.67c6-5.89,9.83-2.37,11.53-2.61C371.64,304,370.8,307.62,362,305.67Z" transform="translate(0 0)"/>
      <path class="cls-153" d="M356.45,305.08c5-6.76,9.3-3.94,11-4.43C365.78,302,365.54,305.57,356.45,305.08Z" transform="translate(0 0)"/>
      <path class="cls-153" d="M355.54,305.35c.24-1.52,3.1-3.48,3.34-4.21a.78.78,0,0,1-.52-1.25c.25-.24.84-.11,1.15.21a1.36,1.36,0,0,1-.38,2,9.32,9.32,0,0,0-2.79,3.2" transform="translate(0 0)"/>
      <path class="cls-154" d="M386.23,315.64c-2-.6-4.49-.32-6.23-.49m3-2.44c-2.05-.45-4.49,0-6.27,0m1.29-2.93c-2.05-.38-4.49.1-6.27.1m2.09-3.3c-2.09-.17-4.46.59-6.2.8m.91-3c-2.09-.07-4.43.8-6.17,1.11m.35-2.72c-2.09.21-4.25,1.53-5.89,2.06" transform="translate(0 0)"/>
    </g>
    <g>
      <g>
        <path class="cls-155" d="M350,307.73a35.8,35.8,0,0,0,4-.13v-2.34c0-.76,2.72-1.67,6.83-.87,16.1,3.14,18.29,10.42,30.52,14.6.14,0,.6.18,1.12.27.31-.73.66-1.46,1-2.36.21-.67,2-.63,3.56.1,1.81.87,2.61,1.88,2.3,2.41-.32.76-.63,1.39-.91,2,2.86,1,8.05,2.55,6.34,9.41a11.78,11.78,0,0,0-6.51-2.68c-2.27,0-4.71-.87-3.94-3.35a9.81,9.81,0,0,0-1.53-.66,5,5,0,0,1-.28.63c-.53,1.29-2.79,1.75-5.05,1-12.76-4.35-16.69-14-31.74-14.11v.42c0,1.21-1.57,2.33-5.79,2.33s-5.78-1.12-5.78-2.33v-.42c-15,.1-19,9.72-31.74,14.11-2.23.77-4.49.28-5.05-1a4.88,4.88,0,0,0-.28-.63,9.81,9.81,0,0,0-1.53.66c.73,2.45-1.64,3.35-3.94,3.35a11.9,11.9,0,0,0-6.51,2.68c-1.71-6.82,3.41-8.35,6.34-9.41-.28-.62-.56-1.25-.91-2-.28-.53.49-1.54,2.3-2.41,1.57-.77,3.31-.8,3.55-.1.39.87.7,1.6,1.05,2.36.52-.09.94-.24,1.12-.27,12.19-4.18,14.42-11.46,30.51-14.6,4.08-.8,6.83.11,6.83.87v2.34c1,.1,2.41.13,4,.13Z" transform="translate(0 0)"/>
        <path class="cls-155" d="M345.93,307.6c-1.08-.11-1.71-.35-1.71-.77,0-1,1.71-.69,1.71-1.57m-41,13.8c.63,1.5,1.43,3.42,2.16,5.05m-3.69-4.28c.62,1.46,1.81,4,2.16,5" transform="translate(0 0)"/>
      </g>
      <path class="cls-6" d="M300.5,319.44c.41.73,2.61-.35,2.89.35s-.42,1.12-1.95,1.67m4.94-4.56c.32.94-1.88,1.32-1.42,2.16.28.55,1.49.38,2.47.17" transform="translate(0 0)"/>
      <path class="cls-155" d="M344.18,306.8v4.84m9.9-4c1-.11,1.71-.35,1.71-.77,0-1-1.71-.69-1.71-1.57m41,13.8c-.62,1.5-1.42,3.42-2.16,5.05m3.7-4.28c-.63,1.46-1.82,4-2.16,5" transform="translate(0 0)"/>
      <path class="cls-6" d="M399.51,319.44c-.42.73-2.61-.35-2.89.35s.42,1.12,1.95,1.67m-4.95-4.56c-.31.94,1.88,1.32,1.43,2.16-.28.55-1.5.38-2.47.17" transform="translate(0 0)"/>
      <path class="cls-155" d="M355.82,306.8v4.84" transform="translate(0 0)"/>
    </g>
    <path d="M311.86,324.12l-1.35-4.83,1.69-.47a2.28,2.28,0,0,1,.95-.12,1,1,0,0,1,.58.32,1.67,1.67,0,0,1,.4.72,1.51,1.51,0,0,1,0,1,1.28,1.28,0,0,1-.65.65,2.12,2.12,0,0,1,.54.28,5.53,5.53,0,0,1,.67.66l.75.8-.95.27-.88-.89a6.18,6.18,0,0,0-.62-.59.57.57,0,0,0-.29-.13,1,1,0,0,0-.42.06l-.16,0,.56,2Zm0-3,.59-.16a3.45,3.45,0,0,0,.68-.24.51.51,0,0,0,.19-.26.77.77,0,0,0,0-.42.74.74,0,0,0-.19-.34.52.52,0,0,0-.31-.12,2.74,2.74,0,0,0-.66.14l-.62.18Zm4.42,1.71-2.23-4.49,2.74-1.35.37.76-2,1,.49,1,1.85-.91.38.75-1.85.92.6,1.22,2.06-1,.38.76Zm3.61-1.9-2.71-4.21,1.12-.73a3.71,3.71,0,0,1,.85-.46,1.08,1.08,0,0,1,.78.09,1.76,1.76,0,0,1,.73.69,1.79,1.79,0,0,1,.32.87,1.2,1.2,0,0,1-.15.72,2.89,2.89,0,0,1-.81.7l-.46.29,1,1.59ZM318.35,317l.77,1.19.39-.24a1.93,1.93,0,0,0,.49-.4.55.55,0,0,0,.1-.34.75.75,0,0,0-.14-.41.68.68,0,0,0-.32-.29.55.55,0,0,0-.35-.05,2.56,2.56,0,0,0-.6.32Zm1.87-2.18.68-.48,1.56,2.23c.24.34.4.56.49.66a.86.86,0,0,0,.51.27.8.8,0,0,0,.55-.17.77.77,0,0,0,.31-.37.63.63,0,0,0,0-.43,4.6,4.6,0,0,0-.5-.84l-1.59-2.27.68-.48,1.51,2.16a7.17,7.17,0,0,1,.74,1.25,1.21,1.21,0,0,1,0,.88,1.72,1.72,0,0,1-.65.8,1.87,1.87,0,0,1-1,.38,1.31,1.31,0,0,1-.8-.23,4.81,4.81,0,0,1-1-1.17Zm3.46-2.5,1.38-.89a2.45,2.45,0,0,1,.87-.41,1.08,1.08,0,0,1,.62.11,1.34,1.34,0,0,1,.54.49,1.44,1.44,0,0,1,.22.64,1.14,1.14,0,0,1-.12.59,1.11,1.11,0,0,1,.72.06,1.32,1.32,0,0,1,.59.54,1.54,1.54,0,0,1,.28.91,1.07,1.07,0,0,1-.27.73,6.23,6.23,0,0,1-.94.68l-1.18.76Zm1.15.25.63,1,.46-.29a5.13,5.13,0,0,0,.5-.35.5.5,0,0,0,.18-.33.62.62,0,0,0-.11-.39.59.59,0,0,0-.28-.25.37.37,0,0,0-.29,0,4.6,4.6,0,0,0-.69.4Zm1.08,1.67.72,1.13.65-.41a3.27,3.27,0,0,0,.52-.4.5.5,0,0,0,.09-.31.77.77,0,0,0-.14-.38.75.75,0,0,0-.3-.29.53.53,0,0,0-.35,0,2.73,2.73,0,0,0-.63.33Zm3.69.11-2.29-4.41.73-.38,1.9,3.65,1.84-.95.39.75Zm3.1-1.68L330.77,308l.76-.32,1.94,4.62Zm3.31-3,.86.07a2.2,2.2,0,0,1-.25,1.35,1.54,1.54,0,0,1-.92.68,1.56,1.56,0,0,1-1.42-.22,3,3,0,0,1-1.11-1.68,3.15,3.15,0,0,1,0-2.08,1.63,1.63,0,0,1,1.11-1,1.51,1.51,0,0,1,1.25.12,2.13,2.13,0,0,1,.75.81l-.72.46a1.11,1.11,0,0,0-.48-.5.76.76,0,0,0-.59-.05.87.87,0,0,0-.6.59,2.4,2.4,0,0,0,.1,1.34,2.36,2.36,0,0,0,.66,1.2.84.84,0,0,0,.81.18.73.73,0,0,0,.47-.41A1.63,1.63,0,0,0,336,309.65Zm5.41.61-.89.17-.56-1.06-1.61.31-.13,1.18-.86.16.65-5.22.86-.16Zm-1.87-1.67-.9-1.72-.2,1.93Zm7-.23,1.47.11a2.22,2.22,0,0,1,.84.19,1.51,1.51,0,0,1,.49.46,2.27,2.27,0,0,1,.32.8,4.41,4.41,0,0,1,0,1.18,4.12,4.12,0,0,1-.22,1.09,2.26,2.26,0,0,1-.42.71,1.48,1.48,0,0,1-.56.37,2,2,0,0,1-.81.08l-1.52-.12Zm.74.88-.24,3.23.6,0a1.58,1.58,0,0,0,.57,0,.69.69,0,0,0,.3-.2,1.09,1.09,0,0,0,.22-.46,3.62,3.62,0,0,0,.14-.83,3.94,3.94,0,0,0,0-.86,1.18,1.18,0,0,0-.19-.51.83.83,0,0,0-.37-.27,4.71,4.71,0,0,0-.65-.09Zm3.47,4.24-.31-4.88,3-.19.05.83-2.16.13.07,1.09,2-.13.05.82-2,.13.08,1.33,2.24-.15.05.83Zm9.05-4.67.78.35a2.21,2.21,0,0,1-.69,1.2,1.58,1.58,0,0,1-1.09.33,1.6,1.6,0,0,1-1.27-.69,2.92,2.92,0,0,1-.47-1.95,3.13,3.13,0,0,1,.68-2,1.64,1.64,0,0,1,1.38-.55,1.54,1.54,0,0,1,1.13.53,2,2,0,0,1,.43,1l-.83.19a1.15,1.15,0,0,0-.28-.64.79.79,0,0,0-.54-.24.87.87,0,0,0-.76.35,2.35,2.35,0,0,0-.36,1.3,2.49,2.49,0,0,0,.21,1.36.86.86,0,0,0,.71.43.76.76,0,0,0,.58-.22,1.62,1.62,0,0,0,.39-.79Zm1.84-.45a3.72,3.72,0,0,1,.61-1.37,2,2,0,0,1,.88-.68,1.84,1.84,0,0,1,1.07,0,1.78,1.78,0,0,1,1.24,1,3,3,0,0,1,.08,2,3,3,0,0,1-1,1.77,1.9,1.9,0,0,1-2.73-.67A3,3,0,0,1,361.66,308.36Zm.84.17a2.11,2.11,0,0,0,0,1.33,1,1,0,0,0,1.57.4,2.87,2.87,0,0,0,.64-2.53,1,1,0,0,0-1.6-.39A2.18,2.18,0,0,0,362.5,308.53Zm3.49,1.86.78.23c-.16.62,0,1,.45,1.23a.81.81,0,0,0,.62,0,.59.59,0,0,0,.39-.36.56.56,0,0,0,0-.3.59.59,0,0,0-.14-.27,6.52,6.52,0,0,0-.58-.53,2.27,2.27,0,0,1-.58-.62,1.35,1.35,0,0,1-.17-.61,1.54,1.54,0,0,1,.12-.66,1.57,1.57,0,0,1,.46-.61,1.2,1.2,0,0,1,.67-.25,1.65,1.65,0,0,1,.81.16,1.58,1.58,0,0,1,.89.8,1.6,1.6,0,0,1,0,1.21l-.78-.29a.9.9,0,0,0,0-.61.81.81,0,0,0-.41-.35.88.88,0,0,0-.53-.07.44.44,0,0,0-.31.25.46.46,0,0,0,0,.38,2.39,2.39,0,0,0,.57.58,3.14,3.14,0,0,1,.69.7,1.33,1.33,0,0,1,.19.65,1.76,1.76,0,0,1-.17.76,1.57,1.57,0,0,1-.79.85,1.77,1.77,0,0,1-2.21-2.32Zm3.86,3.59,2-3.63-1.07-.6.41-.74,2.85,1.59-.41.74-1.06-.59-2,3.64Zm5.34,3.33-.76-.5.33-1.14-1.37-.9-.91.76-.74-.48,4.09-3.31.73.48Zm-.19-2.5.54-1.86-1.48,1.25Zm1.84,3.69,2.86-4.11,1.43,1a2.3,2.3,0,0,1,.71.65,1,1,0,0,1,.12.66,1.55,1.55,0,0,1-.3.76,1.43,1.43,0,0,1-.77.61A1.3,1.3,0,0,1,380,318a2.16,2.16,0,0,1,.13.59,7.25,7.25,0,0,1-.08.94l-.15,1.09-.81-.56.13-1.24a6.16,6.16,0,0,0,.06-.86.67.67,0,0,0-.09-.31,1.1,1.1,0,0,0-.31-.28l-.14-.1L377.52,319Zm2.33-1.9.51.35a2.67,2.67,0,0,0,.61.37.44.44,0,0,0,.32,0,.85.85,0,0,0,.31-.27.69.69,0,0,0,.14-.37.51.51,0,0,0-.1-.32,3.91,3.91,0,0,0-.53-.41l-.53-.37Zm1.06,4.24,2.75-4.18.69.45-2.75,4.19Zm4.54.63.54.67a2.28,2.28,0,0,1-1.15.75,1.53,1.53,0,0,1-1.13-.2,1.58,1.58,0,0,1-.82-1.18,2.92,2.92,0,0,1,.46-2,3.13,3.13,0,0,1,1.49-1.45,1.64,1.64,0,0,1,1.49.12,1.6,1.6,0,0,1,.77,1,2.08,2.08,0,0,1-.08,1.11l-.83-.2a1.14,1.14,0,0,0,0-.7.8.8,0,0,0-.37-.46.86.86,0,0,0-.84,0,2.21,2.21,0,0,0-.9,1,2.47,2.47,0,0,0-.43,1.31.87.87,0,0,0,.44.71.78.78,0,0,0,.62.06A1.72,1.72,0,0,0,384.77,321.47Zm3.88,3.63-.85-.32.07-1.19-1.54-.57-.71,1-.83-.31,3.25-4.14.83.31Zm-.74-2.39.13-1.94-1.18,1.55Z" transform="translate(0 0)"/>
    <path d="M330.42,277.77l-.69.31-.68-.75-1.26.57.13,1-.68.3-.51-4.42.68-.3Zm-1.87-1-1.08-1.23.22,1.62Zm2.22.89-1.33-4,1-.33,1.5,2.55-.31-2.95,1-.33,1.33,4-.62.2-1-3.17.38,3.39-.64.21-1.69-2.95,1,3.17Zm3.87-1.22-1-4.12,2.5-.62.17.7-1.82.45.22.91,1.7-.42.17.7-1.7.41.28,1.12,1.89-.46.17.69Zm3.15-.76-.75-4.17,1.45-.26a2.19,2.19,0,0,1,.82,0,.94.94,0,0,1,.46.32,1.39,1.39,0,0,1,.28.64,1.32,1.32,0,0,1-.1.83,1.08,1.08,0,0,1-.6.5,1.68,1.68,0,0,1,.43.28,4.38,4.38,0,0,1,.52.61l.56.74-.82.14-.66-.81a5.32,5.32,0,0,0-.48-.55.6.6,0,0,0-.24-.14.88.88,0,0,0-.35,0l-.15,0,.32,1.75Zm.25-2.53.52-.09a3.06,3.06,0,0,0,.59-.15.36.36,0,0,0,.17-.21.55.55,0,0,0,0-.34.59.59,0,0,0-.13-.31.5.5,0,0,0-.25-.13,3.26,3.26,0,0,0-.57.07l-.54.1Zm3.18,2-.57-4.2.69-.1.58,4.2Zm3.43-2,.7.2a1.92,1.92,0,0,1-.42,1.08,1.34,1.34,0,0,1-.88.42,1.38,1.38,0,0,1-1.15-.42,2.54,2.54,0,0,1-.64-1.57,2.69,2.69,0,0,1,.33-1.74,1.4,1.4,0,0,1,1.09-.64,1.31,1.31,0,0,1,1,.3,1.86,1.86,0,0,1,.49.8l-.68.27a.94.94,0,0,0-.31-.5.65.65,0,0,0-.48-.14.73.73,0,0,0-.59.4,1.89,1.89,0,0,0-.14,1.12,2,2,0,0,0,.34,1.11.72.72,0,0,0,.65.28.64.64,0,0,0,.46-.26,1.38,1.38,0,0,0,.22-.71Zm4.56,1.33-.77,0-.34-.95-1.38.05-.25,1-.75,0,1.19-4.29.74,0Zm-1.36-1.63-.54-1.55-.41,1.59Zm5.36.15.67.29a1.91,1.91,0,0,1-.56,1,1.35,1.35,0,0,1-.93.3,1.38,1.38,0,0,1-1.08-.56,2.58,2.58,0,0,1-.43-1.65,2.7,2.7,0,0,1,.55-1.68,1.35,1.35,0,0,1,1.16-.49,1.27,1.27,0,0,1,1,.43,1.68,1.68,0,0,1,.38.85l-.7.18a.91.91,0,0,0-.25-.53.61.61,0,0,0-.46-.2.71.71,0,0,0-.63.31,1.87,1.87,0,0,0-.28,1.1,2.07,2.07,0,0,0,.19,1.15.71.71,0,0,0,.61.35.66.66,0,0,0,.49-.19,1.49,1.49,0,0,0,.31-.68Zm1.23,1.62.36-4.22,2.57.22-.06.72-1.87-.16-.08.93,1.74.15L357,273l-1.74-.15-.1,1.15,1.93.17-.06.71Zm3.23.3.6-4.2.67.1,1,3,.4-2.8.65.09-.6,4.2-.7-.1-1-2.93-.39,2.73Zm4.22.67.7-3.45-1-.2.15-.7,2.7.54-.14.7-1-.2-.69,3.45ZM364,276l1.08-4.1,1.43.38a2.08,2.08,0,0,1,.76.31,1,1,0,0,1,.28.49,1.36,1.36,0,0,1,0,.69,1.24,1.24,0,0,1-.44.71,1,1,0,0,1-.75.2,1.58,1.58,0,0,1,.27.44,5.28,5.28,0,0,1,.21.77l.2.91-.81-.22-.25-1a5.53,5.53,0,0,0-.21-.7.53.53,0,0,0-.15-.22,1,1,0,0,0-.33-.14l-.14,0-.45,1.71Zm1.3-2.19.51.13a2.42,2.42,0,0,0,.59.12.41.41,0,0,0,.25-.11.7.7,0,0,0,.17-.31.61.61,0,0,0,0-.33.41.41,0,0,0-.17-.22,2.57,2.57,0,0,0-.54-.18l-.53-.14Zm5.05,4.12-.72-.25,0-1-1.31-.45-.59.82-.7-.24,2.66-3.57.7.24Zm-.68-2,.06-1.65-1,1.34Zm1,2.16,1.69-3.85.64.28-1.4,3.19,1.6.71-.28.65Z" transform="translate(0 0)"/>
  </g>
</svg>
