<?xml version="1.0" encoding="utf-8"?>
<!-- Generator: Adobe Illustrator 23.1.0, SVG Export Plug-In . SVG Version: 6.00 Build 0)  -->
<svg version="1.1" id="Layer_1" xmlns="http://www.w3.org/2000/svg" xmlns:xlink="http://www.w3.org/1999/xlink" x="0px" y="0px"
	 viewBox="0 0 525 700" style="enable-background:new 0 0 525 700;" xml:space="preserve">
<style type="text/css">
	.st0{fill:#DC143C;stroke:#003893;stroke-width:39.9792;stroke-miterlimit:40.5749;}
	.st1{fill:#DC143C;}
	.st2{fill:#FFFFFF;}
</style>
<title>Flag of Nepal</title>
<desc>
	Coding according to the official construction in &quot;Constitution of the Kingdom of Nepal, Article 5, Shedule 1&quot;, adopted in November 1990
	</desc>
<g>
	<path id="a" class="st0" d="M21.8,338.4h444.5L21.8,34.6v647h444.5L21.8,196.3V338.4z"/>
</g>
<path class="st1" d="M21.8,338.4h444.5L21.8,34.6v647h444.5L21.8,196.3V338.4z"/>
<g>
	<path class="st2" d="M132.9,321.1c48.9,0,88.5-43.3,88.5-96.6c-7.8,21.6-21.9,39.5-39.8,51.1l-7.6-6.1l14.8-12.1l-17.9-5l9.5-17.5
		l-18.5,2.9l2.7-20.1l-16.1,10.5l-4.6-19.8l-11.1,16.2l-11.1-16.2l-4.7,19.7l-16-10.4l2.7,20.2l-18.5-3l9.6,17.5l-18.1,5l14.8,12.1
		l-7.4,6.2c-17.6-11.3-31.9-28.8-39.9-51.1c0,53.4,39.6,96.6,88.5,96.6L132.9,321.1z"/>
	<path class="st2" d="M90.3,463.4l-39.7-5.3l24.1,34.8L37.8,510l36.8,17l-24.1,34.8l39.7-5.3l-4.9,43.4l31.9-26.3l15.7,40.3
		l15.6-40.3l32,26.4l-4.9-43.3l39.7,5.4l-24.1-34.8l36.8-17l-36.8-17.1l24.1-34.8l-39.7,5.3l4.9-43.3l-31.9,26.3l-15.7-40.4
		l-15.6,40.2l-32-26.3L90.3,463.4L90.3,463.4z"/>
</g>
</svg>
