<?xml version="1.0" encoding="utf-8"?>
<!-- Generator: Adobe Illustrator 23.1.0, SVG Export Plug-In . SVG Version: 6.00 Build 0)  -->
<svg version="1.1" id="Layer_1" xmlns="http://www.w3.org/2000/svg" xmlns:xlink="http://www.w3.org/1999/xlink" x="0px" y="0px"
	 viewBox="0 0 1166.7 700" style="enable-background:new 0 0 1166.7 700;" xml:space="preserve">
<style type="text/css">
	.st0{fill:#3A75C4;}
	.st1{fill:#CE1126;}
	.st2{fill:#FFFFFF;}
	.st3{fill:#FFC61E;}
	.st4{fill:#3D8E33;}
</style>
<rect x="0" y="0" class="st0" width="1166.7" height="700"/>
<rect x="0" y="0" class="st1" width="1166.7" height="525"/>
<rect x="0" y="0" class="st2" width="1166.7" height="350"/>
<rect x="0" y="0" class="st3" width="1166.7" height="175"/>
<path class="st4" d="M0,700l583.3-350L0,0V700z"/>
<circle class="st2" cx="198.3" cy="350" r="157.5"/>
<circle class="st4" cx="268.3" cy="350" r="157.5"/>
<path id="star" class="st2" d="M233.4,208.1l17.2,52.7l-44.9-32.5h55.5l-44.9,32.5L233.4,208.1z"/>
<g>
	<path class="st2" d="M233.4,283.3l17.2,52.7l-44.9-32.5h55.5L216.1,336L233.4,283.3z"/>
</g>
<g>
	<path class="st2" d="M233.4,358.4l17.2,52.7l-44.9-32.5h55.5l-44.9,32.5L233.4,358.4z"/>
</g>
<g>
	<path class="st2" d="M233.4,433.6l17.2,52.7l-44.9-32.5h55.5l-44.9,32.5L233.4,433.6z"/>
</g>
</svg>
