<svg id="Layer_1" data-name="Layer 1" xmlns="http://www.w3.org/2000/svg" width="370.42mm" height="246.94mm" viewBox="0 0 1050 700">
  <defs>
    <style>
      .cls-1 {
        fill: #de2910;
      }

      .cls-2 {
        fill: #fff;
      }
    </style>
  </defs>
  <rect class="cls-1" width="1050" height="700"/>
  <g id="petal">
    <path class="cls-2" d="M525,349.9C402.15,298,456.59,138.05,574,146.09c-23.76,12.21-27.21,35-13.64,56.11,15.2,23.63-1.4,61.65-21.94,70.89C504.71,288.29,498,328.8,525,349.9Z" transform="translate(0 0)"/>
    <path class="cls-1" d="M518.32,234.41l-6.91,10.84-2.5-12.62-12.46-3.22,11.23-6.28-.78-12.84,9.43,8.74,12-4.72L522.91,226l8.17,9.92Z" transform="translate(0 0)"/>
    <path class="cls-1" d="M525.65,348.55c-14.85-7.62-26.83-23.51-32-42.5A80.75,80.75,0,0,1,503,241.84l-2.58-1.63a83.89,83.89,0,0,0-9.78,66.64c5.51,20.09,17.75,36.28,33.58,44.41Z" transform="translate(0 0)"/>
  </g>
  <g>
    <path class="cls-2" d="M525.08,349.93c11.41-132.84,180.35-130.49,209-16.3-19-18.83-41.69-15.06-57.57,4.37-17.78,21.75-59.07,17.72-74.21,1-24.88-27.41-65.5-21.32-77.22,10.89Z" transform="translate(0 0)"/>
    <path class="cls-1" d="M632.87,307.92l-12.45-3.21,11.23-6.28-.79-12.85,9.45,8.74,12-4.71-5.39,11.67,8.18,9.92-12.77-1.5-6.91,10.83Z" transform="translate(0 0)"/>
    <path class="cls-1" d="M526.58,350.17c2.66-16.48,14.07-32.78,30.52-43.61a80.77,80.77,0,0,1,64-10.87l.75-2.95A83.85,83.85,0,0,0,555.43,304c-17.4,11.46-29,28.1-31.86,45.67Z" transform="translate(0 0)"/>
  </g>
  <g>
    <path class="cls-2" d="M525.09,350.06c129.86-30.2,179.83,131.2,80.09,193.73,12-23.85,1.44-44.31-21.95-53.41-26.18-10.18-35.11-50.7-23.92-70.25,18.38-32.13,0-68.88-34.22-70.07Z" transform="translate(0 0)"/>
    <path class="cls-1" d="M598.35,439.59l-.79-12.83,9.44,8.73,12-4.71-5.38,11.68,8.17,9.92L609,450.86l-6.91,10.85-2.51-12.61-12.45-3.23Z" transform="translate(0 0)"/>
    <path class="cls-1" d="M525.32,351.55c16.5-2.56,35.53,3.26,50.91,15.55a80.78,80.78,0,0,1,30.11,57.49l3-.19a83.87,83.87,0,0,0-31.25-59.67c-16.27-13-35.69-18.92-53.27-16.18Z" transform="translate(0 0)"/>
  </g>
  <g>
    <path class="cls-2" d="M525,350.11c68.85,114.17-69.2,211.57-159.5,136,26.4,4.09,42.58-12.32,44-37.38,1.6-28.05,37.37-49.06,59.42-44.46,36.24,7.55,65.52-21.25,56.07-54.19Z" transform="translate(0 0)"/>
    <path class="cls-1" d="M462.46,447.44l12-4.71L469,454.41l8.19,9.93-12.78-1.52-6.91,10.85L455,461.05l-12.45-3.22,11.21-6.28L453,438.72Z" transform="translate(0 0)"/>
    <path class="cls-1" d="M523.62,350.79c7.53,14.89,7.88,34.79.94,53.22a80.71,80.71,0,0,1-45.37,46.4l1.13,2.83a83.83,83.83,0,0,0,47.08-48.16c7.35-19.5,7-39.78-1.06-55.67Z" transform="translate(0 0)"/>
  </g>
  <g>
    <path class="cls-2" d="M524.89,350c-87.31,100.76-222.6-.44-178.66-109.66,4.27,26.37,24.87,36.69,49.14,30.3,27.17-7.14,58.21,20.39,60.65,42.78,4,36.8,40.46,55.75,68.87,36.58Z" transform="translate(0 0)"/>
    <path class="cls-1" d="M413,320.63l8.18,9.92L408.4,329l-6.91,10.86L399,327.27,386.54,324l11.22-6.27L397,304.94l9.45,8.72,12-4.7Z" transform="translate(0 0)"/>
    <path class="cls-1" d="M523.82,348.93C512,360.7,493.17,367.18,473.5,366.27a80.76,80.76,0,0,1-58.16-28.81l-2.34,2a83.88,83.88,0,0,0,60.36,29.9c20.81,1,40-5.67,52.61-18.22Z" transform="translate(0 0)"/>
  </g>
</svg>
