<?xml version="1.0" encoding="utf-8"?>
<!-- Generator: Adobe Illustrator 23.1.0, SVG Export Plug-In . SVG Version: 6.00 Build 0)  -->
<svg version="1.1" id="Layer_1" xmlns="http://www.w3.org/2000/svg" xmlns:xlink="http://www.w3.org/1999/xlink" x="0px" y="0px"
	 viewBox="0 0 1400 699.1" style="enable-background:new 0 0 1400 699.1;" xml:space="preserve">
<style type="text/css">
	.st0{fill:#012169;}
	.st1{stroke:#FFFFFF;stroke-width:60;}
	.st2{clip-path:url(#SVGID_2_);stroke:#C8102E;stroke-width:40;}
	.st3{stroke:#FFFFFF;stroke-width:100;}
	.st4{stroke:#C8102E;stroke-width:60;}
	.st5{fill:#CCCC33;}
	.st6{fill:#FFFFFF;}
	.st7{fill:#99CCFF;}
	.st8{fill:#FF9900;}
</style>
<rect y="-0.4" class="st0" width="1400" height="700"/>
<path class="st1" d="M0-0.4l700,350 M700-0.4L0,349.6"/>
<g>
	<defs>
		<path id="SVGID_1_" d="M0-0.4v175h816.7v175H700L0-0.4z M700-0.4H350v408.3H0v-58.3L700-0.4z"/>
	</defs>
	<clipPath id="SVGID_2_">
		<use xlink:href="#SVGID_1_"  style="overflow:visible;"/>
	</clipPath>
	<path class="st2" d="M0-0.4l700,350 M700-0.4L0,349.6"/>
</g>
<path class="st3" d="M350-0.4v408.3 M0,174.6h816.7"/>
<path class="st4" d="M350-0.4v408.3 M0,174.6h816.7"/>
<path class="st0" d="M0,349.6h700v-350h233.3v466.7H0V349.6z"/>
<g>
	<path class="st5" d="M910.7,179.3c0,173.6,13.9,235.3,61.4,282.9c47.5,47.6,65.5,55.1,78.8,62.4c15.3-8.4,32.9-17.7,76-60.7
		c42.6-42.6,63.2-104,63.2-287.5c-31,13.3-46.4,17.6-73.5,17.6c-20.1,2-51-10.9-69.5-19.3c-12.1,7.7-29.7,16.9-61.2,17.9
		C949.3,194,937.8,188.1,910.7,179.3L910.7,179.3z"/>
	<path class="st6" d="M919.1,190.3c0,53.7-3.2,126.9,8.2,169.3c11.4,42.5,14,48.8,22.6,63.6l199.7-1.5c12.3-21.4,13-34.6,22.1-68.8
		c9.1-34,11.4-109.9,11.7-166.4c-20.1,10.2-46.4,17.4-71.9,14.2c-20.5-1.5-39.4-5.9-61.4-17.8c-19.1,10.9-25.8,15.9-57.3,17.2
		C968.2,201.3,948.3,203.2,919.1,190.3L919.1,190.3z"/>
	<path class="st7" d="M950.3,422c14.2,28.5,81.2,83.2,100.8,94.5c22.4-12.9,81.5-66.9,98-94.5H950.3L950.3,422z"/>
	<path class="st8" d="M1054.9,269.8c6.3,14.2,26.6,29.8,32.1,37.5c-7.1,7.7-8.5,6.8-7.6,21.1c12.3-12.3,12.5-13.6,20.5-11.7
		c17.4,16.5,3.1,52-11.2,59.7c-14.3,8.2-11.7-0.3-33.2,10c9.9,8,21.3-1.2,30.6,1.3c5.1,5.7-2.4,16.2,1.5,26
		c8.2-0.8,7.3-16.6,9.2-22.4c6-21.1,42.2-35.8,44.1-55.1c7.6-3.4,15.3-1.1,24.6,3.9c-4.6-18.1-19.9-17.9-24-23.6
		c-9.8-14.2-18.4-30.4-39.3-34.7c-15.8-3.2-14.6,1-24.8-5.6C1071,271.5,1051.9,262.6,1054.9,269.8L1054.9,269.8z"/>
	<path class="st8" d="M1004.3,329.9c10.2-11.9,15.2-36.3,19.7-44.6c10.4,2.4,10.3,4,23.1-3.5c-17.2-4.6-18.4-4.2-20.4-11.8
		c7.2-22.3,46.8-26.9,60.6-18.4c14.3,8.2,5.2,10,24.8,23.3c2.8-12.1-11-17.4-13.1-26.4c3-7,16.1-5.5,23.4-13.5
		c-4.6-6.6-18.8,1.7-25,2.7c-22.4,4.8-52.9-18.9-71.7-11.4c-6.7-4.8-8.1-12.4-7.9-22.5c-14.6,12.4-7.3,25.2-10.7,31.3
		c-8.6,14.9-19.6,29.7-13.8,49.3c4.4,14.8,7.7,11.9,6.4,23.5C998.3,315.5,999.1,335.8,1004.3,329.9L1004.3,329.9z"/>
	<path class="st8" d="M1087.1,338.3c-16-2.1-40.5,6.4-50.2,7c-3.2-9.7-1.8-10.5-15-17c4.7,16.4,5.7,17.2,0,22.8
		c-23.8,5.7-48.3-24.2-47.9-39.9c0-16,6.3-9.4,8.1-32.3c-12.3,3.9-9.9,18-16.9,24.4c-7.8,1.2-13.3-10.3-24.2-12.2
		c-3.6,7.1,11.2,14.5,15.4,19c15.9,15.8,10.4,53,26.9,64.4c-0.9,8-6.9,13-16.2,18.1c18.7,5.6,26.4-7,33.6-7.5
		c17.8-0.7,36.9,0.6,51.4-14.2c11-11.3,6.7-12.5,17.8-17.4C1077.2,350.6,1095.1,339.5,1087.1,338.3L1087.1,338.3z"/>
	<ellipse class="st6" cx="1097.2" cy="285.9" rx="3.3" ry="3.1"/>
	<ellipse class="st6" cx="999.5" cy="286.7" rx="3.3" ry="3.1"/>
	<ellipse class="st6" cx="1050.8" cy="364.5" rx="3.3" ry="3.1"/>
</g>
</svg>
