<svg id="Layer_1" data-name="Layer 1" xmlns="http://www.w3.org/2000/svg" width="370.42mm" height="246.94mm" viewBox="0 0 1050 700">
  <defs>
    <style>
      .cls-1, .cls-6 {
        fill: red;
      }

      .cls-2 {
        fill: #060;
      }

      .cls-3, .cls-4, .cls-7, .cls-8, .cls-9 {
        fill: #ff0;
      }

      .cls-3, .cls-4, .cls-5, .cls-6, .cls-8, .cls-9 {
        stroke: #000;
      }

      .cls-3, .cls-4 {
        stroke-linecap: round;
        stroke-linejoin: round;
        fill-rule: evenodd;
      }

      .cls-3 {
        stroke-width: 1px;
      }

      .cls-4 {
        stroke-width: 0.96px;
      }

      .cls-11, .cls-5 {
        fill: #fff;
      }

      .cls-5 {
        stroke-width: 1.17px;
      }

      .cls-6 {
        stroke-width: 0.89px;
      }

      .cls-8 {
        stroke-width: 0.87px;
      }

      .cls-9 {
        stroke-width: 0.87px;
      }

      .cls-10 {
        fill: #039;
      }
    </style>
  </defs>
  <rect class="cls-1" width="1050" height="700"/>
  <rect class="cls-2" width="420" height="700"/>
  <g>
    <path class="cls-3" d="M556.92,458.57c-52.87-1.59-295.3-152.92-297-177l13.39-22.33c24,34.94,271.88,182.11,296.22,176.89l-12.65,22.44" transform="translate(0 0)"/>
    <path class="cls-3" d="M270.53,256.2C265.79,269,333.79,311,415.61,360.77S568,441.28,573.2,436.87a45.09,45.09,0,0,0,2.37-4.42c-1,1.48-3.37,1.95-7.09.87-22.1-6.37-79.75-32.83-151.15-76.13S283.81,274,274.16,257a10.24,10.24,0,0,1-1.05-5h-.24l-2.05,3.6-.29.56ZM558.16,459.27c-.9,1.63-2.57,1.68-5.74,1.33-19.78-2.19-79.78-31.37-150.78-73.87C319,337.27,250.79,292.21,258.19,280.43l2-3.56.4.13c-6.66,20,134.66,100.76,143,105.91,81.76,50.66,150.7,80.24,156.8,72.55l-2.22,3.82Z" transform="translate(0 0)"/>
    <path class="cls-3" d="M420.3,296.15c52.91-.42,118.21-7.23,155.79-22.21L568,260.79c-22.21,12.29-87.87,20.38-148.14,21.59-71.29-.66-121.61-7.3-146.82-24.21l-7.64,14c46.34,19.62,93.84,23.78,154.91,24" transform="translate(0 0)"/>
    <path class="cls-3" d="M578.27,274.24c-1.29,2.07-25.8,10.52-61.9,16.76a640.38,640.38,0,0,1-96.26,7,683,683,0,0,1-92.2-5.83c-37.9-5.95-57.45-14.21-64.69-17.13.7-1.38,1.14-2.34,1.81-3.63,20.81,8.29,40.46,13.29,63.48,16.83A676,676,0,0,0,420,294.05a642.71,642.71,0,0,0,95.58-7.1c37-6,57.24-13.65,60.08-17.22l2.61,4.51Zm-7.11-13.34c-4,3.23-24,10.32-59.18,15.93a636.42,636.42,0,0,1-91.46,6.42c-36.24,0-65.84-2.41-88.35-5.69-35.73-4.67-54.74-13.08-61.59-15.54.68-1.17,1.37-2.34,2.08-3.52,5.34,2.69,23.69,10.14,59.9,15.27,22.26,3.15,51.91,5.5,88,5.47a628.11,628.11,0,0,0,90.79-6.46c35.36-4.86,54.39-13.91,57.28-16.17l2.58,4.29h0Z" transform="translate(0 0)"/>
    <path class="cls-3" d="M246.54,359.9c32.55,17.51,104.83,26.33,173.24,26.94,62.28.1,143.42-9.63,173.77-25.71l-.84-17.52c-9.49,14.84-96.44,29.07-173.61,28.48s-148.81-12.5-172.7-27.93l.14,15.74" transform="translate(0 0)"/>
    <path class="cls-3" d="M595.21,357.38v4.18c-4.56,5.46-33.15,13.7-69,19.5-27.3,4.19-62.88,7.34-107.21,7.34-42.12,0-75.71-3-101.76-7-41.18-6-67.51-16.5-72.8-19.63l0-4.88c15.88,10.56,58.91,18.29,73.36,20.65,25.88,4,59.27,6.95,101.18,6.95,44.12,0,79.51-3.13,106.63-7.29,25.72-3.71,62.37-13.38,69.59-19.81h0Zm0-14.86v4.18c-4.56,5.45-33.16,13.69-69,19.5-27.29,4.18-62.87,7.34-107.2,7.34-42.13,0-75.72-3-101.76-7-41.18-6-67.52-16.49-72.8-19.62l0-4.88c15.88,10.56,58.91,18.28,73.35,20.64,25.88,4,59.27,7,101.18,7,44.13,0,79.51-3.13,106.63-7.29,25.73-3.72,62.38-13.38,69.59-19.82Z" transform="translate(0 0)"/>
    <path class="cls-3" d="M419.63,455.56c-74.85-.45-139-20.4-152.53-23.7L277,447.32c23.92,10.06,86.49,25.06,143.37,23.4S526.94,464.65,562,447.6l10.13-16c-23.87,11.24-105.12,23.86-152.47,24" transform="translate(0 0)"/>
    <path class="cls-4" d="M565.77,444c-1.48,2.27-3,4.52-4.54,6.7-16.52,5.83-42.56,11.94-53.54,13.73-22.45,4.62-57.17,8-88,8.05-66.31-1-120.59-13.95-146.12-25l-2.06-3.54.33-.54,3.5,1.36c45.41,16.25,96.41,22.73,144.72,23.89,30.69.11,61.42-3.52,86.26-8,38.1-7.63,53.51-13.39,58.23-16l1.2-.67Zm8.78-14.48.12.13c-1.11,1.88-2.26,3.79-3.44,5.71-8.81,3.15-32.72,10.15-67.65,15-23,3.14-37.31,6.17-83.09,7.06-85.77-2.18-141.31-18.95-154.5-23.09l-2-3.75c49.71,13,100.49,22,156.47,23,41.88-.89,59.69-4,82.51-7.08,40.73-6.34,61.24-13,67.4-15a3.69,3.69,0,0,0-.27-.35l4.42-1.65Z" transform="translate(0 0)"/>
    <path class="cls-3" d="M575.45,346.08c.24,49.24-25,93.42-45.25,112.92-28.71,27.58-66.79,45.32-111.25,46.13-49.64.92-96.46-31.45-109-45.67-24.55-27.8-44.54-63.1-45.18-110.68,3-53.74,24.14-91.17,54.72-116.84s71.3-38.17,105.21-37.28c39.13,1,84.83,20.23,116.41,58.33,20.69,25,29.65,52.06,34.35,93.09ZM419.38,177.48c95.34,0,173.76,77.59,173.76,172.73S514.72,522.94,419.38,522.94,246.26,445.35,246.26,350.21,324,177.48,419.38,177.48" transform="translate(0 0)"/>
    <path class="cls-3" d="M419.84,176.89c95.44,0,173.27,77.84,173.27,173.29S515.27,523.46,419.84,523.46,246.57,445.62,246.57,350.18s77.84-173.29,173.27-173.29ZM250.39,350.18c0,93.2,76.53,169.47,169.45,169.47S589.3,443.38,589.3,350.18,512.76,180.7,419.84,180.7,250.39,257,250.39,350.18Z" transform="translate(0 0)"/>
    <path class="cls-3" d="M420,191.29c87,0,158.71,71.44,158.71,158.73S507,508.75,420,508.75,261.27,437.32,261.27,350,333,191.29,420,191.29ZM265.08,350c0,85.2,70,154.92,154.9,154.92S574.88,435.22,574.88,350,504.92,195.1,420,195.1,265.08,264.82,265.08,350Z" transform="translate(0 0)"/>
    <path class="cls-3" d="M427,176.19H412.11l0,348.18H427Z" transform="translate(0 0)"/>
    <path class="cls-3" d="M425.48,174.21h3.78l0,352.18h-3.78l0-352.18Zm-14.74,0h3.81V526.4h-3.81V174.21Z" transform="translate(0 0)"/>
    <path class="cls-3" d="M593.23,356.89V344l-10.48-9.76-59.5-15.75-85.75-8.75L334.25,315l-73.5,17.5-14.84,11v12.87L283.5,339.5l89.25-14H458.5l63,7L565.25,343Z" transform="translate(0 0)"/>
    <path class="cls-3" d="M419.91,323.35c40.92-.08,80.62,3.87,112.12,10,32.49,6.49,55.36,14.62,63.18,23.75v4.51c-9.43-11.35-40.2-19.68-63.91-24.44-31.25-6.08-70.68-10-111.38-9.93-42.94.08-82.93,4.15-113.72,10.16-24.71,4.9-57.66,14.64-61.78,24.25V357c2.26-6.65,26.8-16.59,61.22-23.48,31-6.05,71.09-10,114.28-10.12Zm0-14.86c40.92-.08,80.62,3.88,112.11,10,32.5,6.5,55.37,14.63,63.19,23.75v4.52c-9.43-11.35-40.2-19.68-63.91-24.44-31.25-6.08-70.69-10-111.38-9.93-42.94.08-82.73,4.15-113.53,10.16-23.85,4.52-58.15,14.64-62,24.25v-4.71c2.26-6.58,27.29-16.87,61.22-23.48,31-6.05,71.09-10,114.28-10.12Z" transform="translate(0 0)"/>
    <path class="cls-3" d="M419.09,232.68c64.48-.32,120.73,9,146.47,22.2l9.38,16.24c-22.36-12.06-83.05-24.59-155.76-22.72-59.24.37-122.54,6.53-154.3,23.47l11.2-18.74c26.07-13.52,87.54-20.38,143-20.45" transform="translate(0 0)"/>
    <path class="cls-3" d="M420,246.08c36.78-.09,72.32,2,100.58,7.08,26.32,4.9,51.42,12.25,55,16.21l2.79,4.91c-8.73-5.7-30.46-12-58.35-17.33s-63.52-7-100.1-6.91c-41.51-.15-73.76,2.05-101.44,6.87-29.28,5.48-49.59,13.3-54.6,17l2.73-5.2c9.73-5,25.18-11,51.14-15.62,28.62-5.23,61.22-6.8,102.24-7Zm0-14.84c35.2-.1,69.95,1.87,97,6.74,21.37,4.15,42.5,10.65,50.23,16.43l4.07,6.46c-6.92-7.69-33-15-55.95-19.06-26.88-4.63-60.19-6.47-95.39-6.76-36.94.1-71.08,2.36-97.57,7.19-25.27,4.81-41.58,10.5-48.48,14.95l3.58-5.41c9.53-5,24.91-9.61,44.28-13.38,26.69-4.86,61-7.06,98.19-7.16Z" transform="translate(0 0)"/>
    <path class="cls-3" d="M506,422.2c-31.88-5.95-63.82-6.81-86.13-6.55C312.42,416.91,277.71,437.72,273.47,444l-8-13.1c27.36-19.83,85.87-30.95,155-29.81,35.91.59,66.9,3,93,8L506,422.21" transform="translate(0 0)"/>
    <path class="cls-4" d="M419.26,413.8c29.9.45,59.24,1.69,87.56,7l-2.05,3.62c-26.3-4.86-54.35-6.72-85.4-6.57-39.66-.31-79.78,3.4-114.7,13.42-11,3.07-29.26,10.15-31.12,16l-2-3.37c.58-3.46,11.61-10.64,32.22-16.43,40-11.46,77.42-13.39,115.53-13.65Zm1.36-15c31,.58,63,2,94,8.17l-2.14,3.77c-28.07-5.57-54.9-7.43-91.73-8-39.78.07-82,2.91-120.36,14.07-12.39,3.6-33.77,11.41-34.48,17.58l-2-3.61c.46-5.61,19-12.93,35.63-17.77,38.66-11.25,81-14.14,121.07-14.21Z" transform="translate(0 0)"/>
    <path class="cls-3" d="M573.26,432.91l-12.91,20L523.25,420,427,355.25l-108.5-59.5-56.33-19.27,12-22.26,4.08-2.22,35,8.75,115.5,59.5,66.5,42,56,40.25L574,428.75Z" transform="translate(0 0)"/>
    <path class="cls-3" d="M260.14,277c9.88-6.7,82.49,25.64,158.47,71.46C494.38,394.41,566.79,446.33,560.26,456l-2.15,3.39-1,.77c.21-.15,1.3-1.48-.11-5.08-3.23-10.63-54.59-51.61-139.81-103.07-83.08-49.54-152.32-79.4-159.25-70.86l2.19-4.18ZM575.91,432.63c6.24-12.34-61.11-63.08-144.61-112.48-85.42-48.41-147-76.91-158.23-68.41l-2.5,4.55c0,.25.09-.31.62-.72,2-1.79,5.43-1.67,7-1.69,19.36.29,74.67,25.74,152.26,70.22C464.41,343.9,574,414.21,573.62,434c0,1.7.14,2-.5,2.89l2.79-4.24Z" transform="translate(0 0)"/>
  </g>
  <g>
    <path class="cls-5" d="M316.05,369.27a102.77,102.77,0,0,0,30.55,73.05c18.93,18.86,44.65,30.76,73.16,30.76A104.07,104.07,0,0,0,523.82,369.36h0V230.78L316,230.53l0,138.74Z" transform="translate(0 0)"/>
    <path class="cls-6" d="M319.93,369.46v.08a98.7,98.7,0,0,0,29.36,70,99.48,99.48,0,0,0,140.76.15,98.68,98.68,0,0,0,29.23-70.07h0V235.18l-199.22,0-.12,134.31M479.22,275.4V361l-.08,9.05h0a64.81,64.81,0,0,1-.43,7.41,58.06,58.06,0,0,1-17.05,34.49,59.5,59.5,0,0,1-42.08,17.4c-16.32,0-30.87-6.9-41.7-17.68a59.45,59.45,0,0,1-17.55-41.91l0-94.54,118.9.22Z" transform="translate(0 0)"/>
    <g id="castle3">
      <g id="castle">
        <path class="cls-7" d="M332.83,270.25c.24-9.66,7.09-11.95,7.14-12s7.41,2.46,7.38,12.07l-14.52-.09" transform="translate(0 0)"/>
        <path class="cls-8" d="M326.92,258.46l-1.2,11.1,7.25,0c.07-9.19,6.95-10.72,7.12-10.68s7,2,7.16,10.68h7.27l-1.31-11.19-26.29.06Z" transform="translate(0 0)"/>
        <path class="cls-8" d="M325.24,269.6h29.65A1.28,1.28,0,0,1,356,271a1.27,1.27,0,0,1-1.14,1.36H325.24A1.27,1.27,0,0,1,324.1,271,1.28,1.28,0,0,1,325.24,269.6Z" transform="translate(0 0)"/>
        <path class="cls-8" d="M336,269.55c0-5.8,4-7.44,4-7.43s4.09,1.69,4.13,7.43H336" transform="translate(0 0)"/>
        <path class="cls-8" d="M325.87,253.84H354.3a1.24,1.24,0,0,1,0,2.46H325.87a1.24,1.24,0,0,1,0-2.46Z" transform="translate(0 0)"/>
        <path class="cls-8" d="M326.46,256.32h27.19a1.25,1.25,0,0,1,0,2.47H326.46a1.25,1.25,0,0,1,0-2.47Z" transform="translate(0 0)"/>
        <path class="cls-8" d="M335.25,237.79h2.14v1.53H339v-1.56h2.2v1.55h1.57v-1.56h2.2v3.52a.92.92,0,0,1-1,.91h-7.72a1,1,0,0,1-1-.92v-3.48Z" transform="translate(0 0)"/>
        <path class="cls-8" d="M343.33,242.5l.49,11.29-7.53,0,.5-11.29,6.54,0" transform="translate(0 0)"/>
        <path id="cp1" class="cls-8" d="M334.14,247.73l.23,6.09h-7.22l.21-6.09h6.78Z" transform="translate(0 0)"/>
        <path class="cls-8" d="M352.71,247.73l.23,6.09h-7.22l.2-6.09Z" transform="translate(0 0)"/>
        <path id="cp2" class="cls-8" d="M326,243.32h2.1v1.53h1.54v-1.56h2.15v1.55h1.54v-1.56h2.15v3.52a.91.91,0,0,1-.94.91H327a1,1,0,0,1-1-.92v-3.48Z" transform="translate(0 0)"/>
        <path class="cls-8" d="M344.59,243.32h2.1v1.53h1.53v-1.56h2.16v1.55h1.53v-1.56h2.16v3.52a.9.9,0,0,1-.93.91h-7.56a1,1,0,0,1-1-.92v-3.48Z" transform="translate(0 0)"/>
        <path d="M339.32,246.07a.76.76,0,1,1,1.52,0v2.69h-1.52v-2.69" transform="translate(0 0)"/>
        <path id="cp3" d="M330,250a.72.72,0,1,1,1.44,0v2.08H330V250" transform="translate(0 0)"/>
        <path d="M348.62,250a.72.72,0,1,1,1.44,0v2.08h-1.44V250" transform="translate(0 0)"/>
      </g>
      <g>
        <path class="cls-7" d="M332.83,351.31c.24-9.66,7.09-11.95,7.14-12s7.41,2.46,7.38,12.07l-14.52-.09" transform="translate(0 0)"/>
        <path class="cls-8" d="M326.92,339.52l-1.2,11.1,7.25,0c.07-9.19,6.95-10.72,7.12-10.68s7,2,7.16,10.68h7.27l-1.31-11.19-26.29.06Z" transform="translate(0 0)"/>
        <path class="cls-8" d="M325.24,350.66h29.65A1.28,1.28,0,0,1,356,352a1.27,1.27,0,0,1-1.14,1.36H325.24A1.27,1.27,0,0,1,324.1,352,1.28,1.28,0,0,1,325.24,350.66Z" transform="translate(0 0)"/>
        <path class="cls-8" d="M336,350.61c0-5.8,4-7.44,4-7.43s4.09,1.69,4.13,7.43H336" transform="translate(0 0)"/>
        <path class="cls-8" d="M325.87,334.9H354.3a1.24,1.24,0,0,1,0,2.46H325.87a1.24,1.24,0,0,1,0-2.46Z" transform="translate(0 0)"/>
        <path class="cls-8" d="M326.46,337.38h27.19a1.25,1.25,0,0,1,0,2.47H326.46a1.25,1.25,0,0,1,0-2.47Z" transform="translate(0 0)"/>
        <path class="cls-8" d="M335.25,318.85h2.14v1.53H339v-1.56h2.2v1.55h1.57v-1.56h2.2v3.52a.92.92,0,0,1-1,.91h-7.72a1,1,0,0,1-1-.92v-3.48Z" transform="translate(0 0)"/>
        <path class="cls-8" d="M343.33,323.56l.49,11.29-7.53,0,.5-11.29,6.54,0" transform="translate(0 0)"/>
        <path class="cls-8" d="M334.14,328.79l.23,6.08h-7.22l.21-6.09h6.78Z" transform="translate(0 0)"/>
        <path class="cls-8" d="M352.71,328.79l.23,6.08h-7.22l.2-6.09Z" transform="translate(0 0)"/>
        <path class="cls-8" d="M326,324.38h2.1v1.53h1.54v-1.56h2.15v1.55h1.54v-1.56h2.15v3.52a.91.91,0,0,1-.94.91H327a1,1,0,0,1-1-.92v-3.48Z" transform="translate(0 0)"/>
        <path class="cls-8" d="M344.59,324.38h2.1v1.53h1.53v-1.56h2.16v1.55h1.53v-1.56h2.16v3.52a.9.9,0,0,1-.93.91h-7.56a1,1,0,0,1-1-.92v-3.48Z" transform="translate(0 0)"/>
        <path d="M339.32,327.13a.76.76,0,1,1,1.52,0v2.69h-1.52v-2.69" transform="translate(0 0)"/>
        <path d="M330,331a.72.72,0,1,1,1.44,0v2.08H330V331" transform="translate(0 0)"/>
        <path d="M348.62,331a.72.72,0,1,1,1.44,0v2.08h-1.44V331" transform="translate(0 0)"/>
      </g>
      <g>
        <path class="cls-7" d="M364.44,435.69c-6.69-7-3.48-13.46-3.47-13.51s7-3.52,13.76,3.26l-10.29,10.25" transform="translate(0 0)"/>
        <path class="cls-9" d="M351.9,431.57l7,8.67,5.12-5.13c-6.47-6.52-2.71-12.48-2.57-12.58s6.36-3.52,12.63,2.45l5.12-5.16-8.86-6.95-18.48,18.7Z" transform="translate(0 0)"/>
        <path class="cls-9" d="M358.63,440.62l20.89-21a1.4,1.4,0,0,1,2,1.93l-20.9,21a1.39,1.39,0,0,1-1.94-1.93Z" transform="translate(0 0)"/>
        <path class="cls-9" d="M366.19,432.93c-4.09-4.11-2.49-8.05-2.48-8.06s4.09-1.72,8.19,2.31l-5.71,5.75" transform="translate(0 0)"/>
        <path class="cls-9" d="M347.88,429.06l20-20.17a1.24,1.24,0,0,1,1.75,1.74l-20,20.17a1.24,1.24,0,0,1-1.75-1.74Z" transform="translate(0 0)"/>
        <path class="cls-9" d="M350.07,430.39l19.15-19.29a1.25,1.25,0,0,1,1.75,1.73l-19.16,19.3a1.25,1.25,0,0,1-1.74-1.74Z" transform="translate(0 0)"/>
        <path class="cls-9" d="M343.11,411.1l1.51-1.52,1.08,1.07,1.11-1.11-1.11-1.1,1.55-1.55,1.11,1.09,1.1-1.11-1.1-1.1,1.55-1.56,2.49,2.48a.9.9,0,0,1,0,1.32l-5.44,5.48a1,1,0,0,1-1.35.06l-2.48-2.45Z" transform="translate(0 0)"/>
        <path class="cls-9" d="M352.14,408.68l8.35,7.61-5.32,5.32-7.66-8.31,4.63-4.62" transform="translate(0 0)"/>
        <path class="cls-9" d="M349.38,418.88l4.48,4.13-5.08,5.13-4.18-4.44,4.78-4.82h0Z" transform="translate(0 0)"/>
        <path class="cls-9" d="M362.46,405.71l4.48,4.13L361.86,415l-4.18-4.43,4.78-4.82Z" transform="translate(0 0)"/>
        <path class="cls-9" d="M340.53,421.54l1.48-1.49,1.09,1.08,1.08-1.09-1.11-1.1,1.52-1.52,1.11,1.09,1.08-1.09-1.11-1.1,1.52-1.52,2.5,2.48a.9.9,0,0,1,0,1.3l-5.32,5.36A1,1,0,0,1,343,424l-2.47-2.45Z" transform="translate(0 0)"/>
        <path class="cls-9" d="M353.61,408.37l1.49-1.49,1.08,1.08,1.08-1.09-1.11-1.11,1.52-1.52,1.11,1.1,1.08-1.09-1.11-1.1,1.52-1.53,2.5,2.48a.91.91,0,0,1,0,1.31l-5.32,5.36a1,1,0,0,1-1.34.05l-2.48-2.45Z" transform="translate(0 0)"/>
        <path d="M351.85,414a.76.76,0,1,1,1.07-1.08l1.91,1.9-1.07,1.07L351.85,414" transform="translate(0 0)"/>
        <path d="M348.05,423.41a.73.73,0,1,1,1-1l1.47,1.46-1,1-1.47-1.46" transform="translate(0 0)"/>
        <path d="M361.17,410.19a.73.73,0,1,1,1-1l1.47,1.46-1,1-1.47-1.47" transform="translate(0 0)"/>
      </g>
    </g>
    <g>
      <path class="cls-7" d="M412.83,270.25c.24-9.66,7.09-11.95,7.14-12s7.41,2.46,7.38,12.07l-14.52-.09" transform="translate(0 0)"/>
      <path class="cls-8" d="M406.92,258.46l-1.2,11.1,7.25,0c.07-9.19,6.95-10.72,7.12-10.68s7,2,7.16,10.68h7.27l-1.32-11.19-26.28.06Z" transform="translate(0 0)"/>
      <path class="cls-8" d="M405.24,269.6h29.65A1.28,1.28,0,0,1,436,271a1.27,1.27,0,0,1-1.14,1.36H405.24A1.27,1.27,0,0,1,404.1,271,1.28,1.28,0,0,1,405.24,269.6Z" transform="translate(0 0)"/>
      <path class="cls-8" d="M416,269.55c0-5.8,4-7.44,4-7.43s4.1,1.69,4.14,7.43H416" transform="translate(0 0)"/>
      <path class="cls-8" d="M405.87,253.84h28.42a1.24,1.24,0,0,1,0,2.46H405.87a1.24,1.24,0,0,1,0-2.46Z" transform="translate(0 0)"/>
      <path class="cls-8" d="M406.46,256.32h27.19a1.25,1.25,0,0,1,0,2.47H406.46a1.25,1.25,0,0,1,0-2.47Z" transform="translate(0 0)"/>
      <path class="cls-8" d="M415.25,237.79h2.14v1.53H419v-1.56h2.2v1.55h1.57v-1.56h2.2v3.52a.92.92,0,0,1-1,.91h-7.72a1,1,0,0,1-1-.92v-3.48h0Z" transform="translate(0 0)"/>
      <path class="cls-8" d="M423.33,242.5l.49,11.29-7.53,0,.49-11.29,6.55,0" transform="translate(0 0)"/>
      <path class="cls-8" d="M414.14,247.73l.23,6.09h-7.22l.21-6.09Z" transform="translate(0 0)"/>
      <path class="cls-8" d="M432.71,247.73l.23,6.09h-7.22l.2-6.09Z" transform="translate(0 0)"/>
      <path class="cls-8" d="M406,243.32h2.1v1.53h1.54v-1.56h2.15v1.55h1.54v-1.56h2.15v3.52a.91.91,0,0,1-.94.91H407a1,1,0,0,1-1-.92v-3.48Z" transform="translate(0 0)"/>
      <path class="cls-8" d="M424.59,243.32h2.1v1.53h1.53v-1.56h2.16v1.55h1.53v-1.56h2.16v3.52a.9.9,0,0,1-.94.91h-7.55a1,1,0,0,1-1-.92v-3.48Z" transform="translate(0 0)"/>
      <path d="M419.32,246.07a.76.76,0,1,1,1.52,0v2.69h-1.52v-2.69" transform="translate(0 0)"/>
      <path d="M410,250a.72.72,0,1,1,1.44,0v2.08H410V250" transform="translate(0 0)"/>
      <path d="M428.62,250a.72.72,0,1,1,1.44,0v2.08h-1.44V250" transform="translate(0 0)"/>
    </g>
    <g>
      <g>
        <path class="cls-7" d="M506.8,270.25c-.23-9.66-7.09-11.95-7.14-12s-7.4,2.46-7.38,12.07l14.52-.09" transform="translate(0 0)"/>
        <path class="cls-8" d="M512.72,258.46l1.19,11.1-7.25,0c-.06-9.19-7-10.72-7.12-10.68s-7,2-7.16,10.68h-7.26l1.31-11.19,26.29.06Z" transform="translate(0 0)"/>
        <path class="cls-8" d="M514.4,269.6H484.74a1.28,1.28,0,0,0-1.13,1.38,1.26,1.26,0,0,0,1.13,1.36H514.4a1.26,1.26,0,0,0,1.13-1.36A1.28,1.28,0,0,0,514.4,269.6Z" transform="translate(0 0)"/>
        <path class="cls-8" d="M503.62,269.55c0-5.8-4-7.44-4-7.43s-4.1,1.69-4.13,7.43h8.11" transform="translate(0 0)"/>
        <path class="cls-8" d="M513.77,253.84H485.34a1.24,1.24,0,0,0,0,2.46h28.43a1.24,1.24,0,0,0,0-2.46Z" transform="translate(0 0)"/>
        <path class="cls-8" d="M513.17,256.32H486a1.25,1.25,0,0,0,0,2.47h27.19a1.25,1.25,0,0,0,0-2.47Z" transform="translate(0 0)"/>
        <path class="cls-8" d="M504.39,237.79h-2.15v1.53h-1.57v-1.56h-2.19v1.55H496.9v-1.56h-2.2v3.52a.91.91,0,0,0,1,.91h7.72a1,1,0,0,0,1-.92v-3.48Z" transform="translate(0 0)"/>
        <path class="cls-8" d="M496.3,242.5l-.48,11.29,7.53,0-.5-11.29-6.55,0" transform="translate(0 0)"/>
        <path class="cls-8" d="M505.49,247.73l-.23,6.09h7.22l-.2-6.09Z" transform="translate(0 0)"/>
        <path class="cls-8" d="M486.92,247.73l-.23,6.09h7.22l-.2-6.09Z" transform="translate(0 0)"/>
        <path class="cls-8" d="M513.61,243.32h-2.1v1.53H510v-1.56h-2.16v1.55h-1.53v-1.56h-2.16v3.52a.9.9,0,0,0,.93.91h7.56a1,1,0,0,0,1-.92v-3.48Z" transform="translate(0 0)"/>
        <path class="cls-8" d="M495,243.32H493v1.53h-1.54v-1.56h-2.15v1.55h-1.54v-1.56h-2.15v3.52a.91.91,0,0,0,.94.91h7.55a1,1,0,0,0,1-.92v-3.48h0Z" transform="translate(0 0)"/>
        <path d="M500.31,246.07a.76.76,0,1,0-1.52,0v2.69h1.52v-2.69" transform="translate(0 0)"/>
        <path d="M509.64,250a.73.73,0,1,0-1.45,0v2.08h1.45V250" transform="translate(0 0)"/>
        <path d="M491,250a.73.73,0,1,0-1.45,0v2.08H491V250" transform="translate(0 0)"/>
      </g>
      <g>
        <path class="cls-7" d="M506.8,351.31c-.23-9.66-7.09-11.95-7.14-12s-7.4,2.46-7.38,12.07l14.52-.09" transform="translate(0 0)"/>
        <path class="cls-8" d="M512.72,339.52l1.19,11.1-7.25,0c-.06-9.19-7-10.72-7.12-10.68s-7,2-7.16,10.68h-7.26l1.31-11.19,26.29.06Z" transform="translate(0 0)"/>
        <path class="cls-8" d="M514.4,350.66H484.74a1.28,1.28,0,0,0-1.13,1.38,1.26,1.26,0,0,0,1.13,1.36H514.4a1.26,1.26,0,0,0,1.13-1.36A1.28,1.28,0,0,0,514.4,350.66Z" transform="translate(0 0)"/>
        <path class="cls-8" d="M503.62,350.61c0-5.8-4-7.44-4-7.43s-4.1,1.69-4.13,7.43h8.11" transform="translate(0 0)"/>
        <path class="cls-8" d="M513.77,334.9H485.34a1.24,1.24,0,0,0,0,2.46h28.43a1.24,1.24,0,0,0,0-2.46Z" transform="translate(0 0)"/>
        <path class="cls-8" d="M513.17,337.38H486a1.25,1.25,0,0,0,0,2.47h27.19a1.25,1.25,0,0,0,0-2.47Z" transform="translate(0 0)"/>
        <path class="cls-8" d="M504.39,318.85h-2.15v1.53h-1.57v-1.56h-2.19v1.55H496.9v-1.56h-2.2v3.52a.91.91,0,0,0,1,.91h7.72a1,1,0,0,0,1-.92v-3.48Z" transform="translate(0 0)"/>
        <path class="cls-8" d="M496.3,323.56l-.48,11.29,7.53,0-.5-11.29-6.55,0" transform="translate(0 0)"/>
        <path class="cls-8" d="M505.49,328.79l-.23,6.08h7.22l-.2-6.09Z" transform="translate(0 0)"/>
        <path class="cls-8" d="M486.92,328.79l-.23,6.08h7.22l-.2-6.09Z" transform="translate(0 0)"/>
        <path class="cls-8" d="M513.61,324.38h-2.1v1.53H510v-1.56h-2.16v1.55h-1.53v-1.56h-2.16v3.52a.9.9,0,0,0,.93.91h7.56a1,1,0,0,0,1-.92v-3.48Z" transform="translate(0 0)"/>
        <path class="cls-8" d="M495,324.38H493v1.53h-1.54v-1.56h-2.15v1.55h-1.54v-1.56h-2.15v3.52a.91.91,0,0,0,.94.91h7.55a1,1,0,0,0,1-.92v-3.48h0Z" transform="translate(0 0)"/>
        <path d="M500.31,327.13a.76.76,0,1,0-1.52,0v2.69h1.52v-2.69" transform="translate(0 0)"/>
        <path d="M509.64,331a.73.73,0,1,0-1.45,0v2.08h1.45V331" transform="translate(0 0)"/>
        <path d="M491,331a.73.73,0,1,0-1.45,0v2.08H491V331" transform="translate(0 0)"/>
      </g>
      <g>
        <path class="cls-7" d="M475.2,435.69c6.69-7,3.48-13.46,3.47-13.51s-7-3.52-13.77,3.26l10.3,10.25" transform="translate(0 0)"/>
        <path class="cls-9" d="M487.73,431.57l-7,8.67-5.12-5.13c6.47-6.52,2.7-12.48,2.56-12.58S471.78,419,465.51,425l-5.11-5.16,8.86-6.95,18.47,18.7Z" transform="translate(0 0)"/>
        <path class="cls-9" d="M481,440.62l-20.9-21a1.39,1.39,0,0,0-1.94,1.93l20.89,21a1.4,1.4,0,0,0,1.95-1.93Z" transform="translate(0 0)"/>
        <path class="cls-9" d="M473.45,432.93c4.09-4.11,2.49-8.05,2.47-8.06s-4.09-1.72-8.19,2.31l5.72,5.75" transform="translate(0 0)"/>
        <path class="cls-9" d="M491.75,429.06l-20-20.17a1.17,1.17,0,0,0-1.64.09,1.18,1.18,0,0,0-.11,1.65l20,20.17a1.24,1.24,0,0,0,1.75-1.74Z" transform="translate(0 0)"/>
        <path class="cls-9" d="M489.57,430.39,470.41,411.1a1.25,1.25,0,0,0-1.75,1.73l19.16,19.3a1.25,1.25,0,0,0,1.75-1.74Z" transform="translate(0 0)"/>
        <path class="cls-9" d="M496.53,411.1,495,409.58l-1.08,1.07-1.1-1.11,1.1-1.1-1.55-1.55-1.1,1.09-1.11-1.11,1.11-1.1-1.55-1.56-2.5,2.48a.91.91,0,0,0,0,1.32l5.44,5.48a1,1,0,0,0,1.36.06l2.47-2.45Z" transform="translate(0 0)"/>
        <path class="cls-9" d="M487.49,408.68l-8.35,7.61,5.32,5.32,7.67-8.31-4.64-4.62" transform="translate(0 0)"/>
        <path class="cls-9" d="M490.25,418.88,485.77,423l5.09,5.13L495,423.7l-4.78-4.82h0Z" transform="translate(0 0)"/>
        <path class="cls-9" d="M477.17,405.71l-4.48,4.13,5.09,5.12,4.17-4.43-4.78-4.82Z" transform="translate(0 0)"/>
        <path class="cls-9" d="M499.1,421.54l-1.48-1.49-1.08,1.08L495.46,420l1.1-1.1L495,417.42l-1.1,1.09-1.08-1.09,1.1-1.1-1.52-1.52L490,417.28a.89.89,0,0,0,0,1.3l5.32,5.36a1,1,0,0,0,1.34.05l2.47-2.45Z" transform="translate(0 0)"/>
        <path class="cls-9" d="M486,408.37l-1.48-1.49L483.46,408l-1.09-1.09,1.11-1.11L482,404.24l-1.1,1.1-1.09-1.09,1.11-1.1-1.52-1.53-2.49,2.48a.91.91,0,0,0,0,1.31l5.33,5.36a1,1,0,0,0,1.34.05l2.47-2.45Z" transform="translate(0 0)"/>
        <path d="M487.78,414a.76.76,0,1,0-1.07-1.08l-1.9,1.9,1.06,1.07,1.91-1.89" transform="translate(0 0)"/>
        <path d="M491.59,423.41a.73.73,0,1,0-1-1l-1.48,1.46,1,1,1.48-1.46" transform="translate(0 0)"/>
        <path d="M478.46,410.19a.72.72,0,1,0-1-1L476,410.63l1,1,1.47-1.47" transform="translate(0 0)"/>
      </g>
    </g>
    <g id="quina">
      <path class="cls-10" d="M407.11,354.21h0a14.63,14.63,0,0,0,3.87,10,12.45,12.45,0,0,0,18.56,0,14.61,14.61,0,0,0,3.86-10V335.39l-26.24,0-.05,18.84" transform="translate(0 0)"/>
      <circle class="cls-11" cx="413.13" cy="342.54" r="2.6"/>
      <circle class="cls-11" cx="427.69" cy="342.55" r="2.6"/>
      <circle class="cls-11" cx="420.39" cy="349.54" r="2.6"/>
      <circle class="cls-11" cx="413.13" cy="356.85" r="2.6"/>
      <circle class="cls-11" cx="427.67" cy="356.83" r="2.6"/>
    </g>
    <g>
      <path class="cls-10" d="M407.11,308.68h0a14.63,14.63,0,0,0,3.87,10,12.45,12.45,0,0,0,18.56,0,14.58,14.58,0,0,0,3.86-10V289.86l-26.24,0-.05,18.84" transform="translate(0 0)"/>
      <circle class="cls-11" cx="413.13" cy="297.01" r="2.6"/>
      <circle class="cls-11" cx="427.69" cy="297.02" r="2.6"/>
      <circle class="cls-11" cx="420.39" cy="304.01" r="2.6"/>
      <circle class="cls-11" cx="413.13" cy="311.32" r="2.6"/>
      <circle class="cls-11" cx="427.67" cy="311.31" r="2.6"/>
    </g>
    <g>
      <path class="cls-10" d="M370.71,354.21h0a14.63,14.63,0,0,0,3.87,10,12.45,12.45,0,0,0,18.56,0,14.61,14.61,0,0,0,3.86-10V335.39l-26.24,0-.05,18.84" transform="translate(0 0)"/>
      <circle class="cls-11" cx="376.73" cy="342.54" r="2.6"/>
      <circle class="cls-11" cx="391.29" cy="342.55" r="2.6"/>
      <circle class="cls-11" cx="383.99" cy="349.54" r="2.6"/>
      <circle class="cls-11" cx="376.73" cy="356.85" r="2.6"/>
      <circle class="cls-11" cx="391.27" cy="356.83" r="2.6"/>
    </g>
    <g>
      <path class="cls-10" d="M443.42,354.21h0a14.58,14.58,0,0,0,3.87,10,12.45,12.45,0,0,0,18.56,0,14.65,14.65,0,0,0,3.85-10V335.39l-26.24,0,0,18.84" transform="translate(0 0)"/>
      <circle class="cls-11" cx="449.43" cy="342.54" r="2.6"/>
      <circle class="cls-11" cx="463.99" cy="342.55" r="2.6"/>
      <circle class="cls-11" cx="456.7" cy="349.54" r="2.6"/>
      <circle class="cls-11" cx="449.43" cy="356.85" r="2.6"/>
      <circle class="cls-11" cx="463.97" cy="356.83" r="2.6"/>
    </g>
    <g>
      <path class="cls-10" d="M407.11,399.33h0a14.63,14.63,0,0,0,3.87,10,12.45,12.45,0,0,0,18.56,0,14.58,14.58,0,0,0,3.86-10V380.51l-26.24,0-.05,18.84" transform="translate(0 0)"/>
      <circle class="cls-11" cx="413.13" cy="387.66" r="2.6"/>
      <circle class="cls-11" cx="427.69" cy="387.67" r="2.6"/>
      <circle class="cls-11" cx="420.39" cy="394.66" r="2.6"/>
      <circle class="cls-11" cx="413.13" cy="401.97" r="2.6"/>
      <circle class="cls-11" cx="427.67" cy="401.96" r="2.6"/>
    </g>
  </g>
</svg>
