<?xml version="1.0" encoding="utf-8"?>
<!-- Generator: Adobe Illustrator 23.1.0, SVG Export Plug-In . SVG Version: 6.00 Build 0)  -->
<svg version="1.1" id="Layer_1" xmlns="http://www.w3.org/2000/svg" xmlns:xlink="http://www.w3.org/1999/xlink" x="0px" y="0px"
	 viewBox="0 0 1400 700" style="enable-background:new 0 0 1400 700;" xml:space="preserve">
<style type="text/css">
	.st0{fill:#012169;}
	.st1{stroke:#FFFFFF;stroke-width:64;stroke-miterlimit:10;}
	.st2{clip-path:url(#SVGID_2_);stroke:#E4002B;stroke-width:42.6667;stroke-miterlimit:426.6667;}
	.st3{stroke:#FFFFFF;stroke-width:106.6667;stroke-miterlimit:10;}
	.st4{stroke:#E4002B;stroke-width:64;stroke-miterlimit:10;}
	.st5{fill:#FFFFFF;}
</style>
<path class="st0" d="M0,0h1400v700H0V0z"/>
<path class="st1" d="M0,0l700,350 M700,0L0,350"/>
<g>
	<defs>
		<path id="SVGID_1_" d="M0,0v175h816.7v175H700L0,0z M700,0H350v408.3H0V350L700,0z"/>
	</defs>
	<clipPath id="SVGID_2_">
		<use xlink:href="#SVGID_1_"  style="overflow:visible;"/>
	</clipPath>
	<path class="st2" d="M0,0l700,350 M700,0L0,350"/>
</g>
<path class="st3" d="M350,0v408.3 M0,175h816.7"/>
<path class="st4" d="M350,0v408.3 M0,175h816.7"/>
<path class="st0" d="M0,350h700V0h233.3v466.7H0V350z"/>
<g>
	<g>
		<g id="c" transform="scale(2.1)">
			<path id="a" class="st5" d="M350,420l20.2,63l61.8-23.4l-36.6,55.1l56.9,33.7l-65.9,5.7l9.1,65.5L350,571.7l-45.6,47.9l9.1-65.5
				l-65.9-5.7l56.9-33.7l-36.6-55.1l61.8,23.4L350,420z"/>
		</g>
	</g>
	<g>
		<path class="st5" d="M1050,533.3l9.6,30l29.4-11.2l-17.4,26.2l27.1,16.1l-31.4,2.7l4.3,31.2l-21.7-22.8l-21.7,22.8l4.3-31.2
			l-31.4-2.7l27.1-16.1l-17.4-26.2l29.4,11.2L1050,533.3z"/>
	</g>
	<g>
		<path class="st5" d="M875,256.2l9.6,30l29.4-11.2l-17.4,26.2l27.1,16.1l-31.4,2.7l4.3,31.2L875,328.5l-21.7,22.8l4.3-31.2
			l-31.4-2.7l27.1-16.1l-17.4-26.2l29.4,11.2L875,256.2z"/>
	</g>
	<g>
		<path class="st5" d="M1050,66.7l9.6,30l29.4-11.2l-17.4,26.2l27.1,16.1l-31.4,2.7l4.3,31.2l-21.7-22.8l-21.7,22.8l4.3-31.2
			l-31.4-2.7l27.1-16.1l-17.4-26.2l29.4,11.2L1050,66.7z"/>
	</g>
	<g>
		<path class="st5" d="M1205.6,209.6l9.6,30l29.4-11.2l-17.4,26.2l27.1,16.1l-31.4,2.7l4.3,31.2l-21.7-22.8l-21.7,22.8l4.3-31.2
			l-31.4-2.7l27.1-16.1l-17.4-26.2l29.4,11.2L1205.6,209.6z"/>
	</g>
	<g>
		<path id="d" class="st5" d="M1120,350l7.6,18.7l20.1,1.5l-15.4,13l4.8,19.6l-17.1-10.6l-17.1,10.6l4.8-19.6l-15.4-13l20.1-1.5
			L1120,350z"/>
	</g>
</g>
</svg>
