<svg id="Layer_1" data-name="Layer 1" xmlns="http://www.w3.org/2000/svg" xmlns:xlink="http://www.w3.org/1999/xlink" width="499.41mm" height="257.99mm" viewBox="0 0 1415.65 731.3">
  <defs>
    <style>
      .cls-1, .cls-12 {
        fill: none;
      }

      .cls-2, .cls-20, .cls-21, .cls-25, .cls-26, .cls-27 {
        fill: #fff;
      }

      .cls-22, .cls-3 {
        fill: #012169;
      }

      .cls-4 {
        clip-path: url(#clip-path);
      }

      .cls-10, .cls-11, .cls-5, .cls-8 {
        stroke: #fff;
      }

      .cls-5, .cls-9 {
        stroke-width: 70px;
      }

      .cls-6 {
        clip-path: url(#clip-path-2);
      }

      .cls-7, .cls-9 {
        stroke: #c8102e;
      }

      .cls-7 {
        stroke-width: 46.67px;
      }

      .cls-8 {
        stroke-width: 116.67px;
      }

      .cls-10 {
        fill: #a24300;
      }

      .cls-10, .cls-11 {
        stroke-width: 2px;
      }

      .cls-11 {
        fill: #006d00;
      }

      .cls-12, .cls-13, .cls-14, .cls-15, .cls-16, .cls-17, .cls-18, .cls-19, .cls-20, .cls-21, .cls-22, .cls-23, .cls-24, .cls-25, .cls-26, .cls-27, .cls-28 {
        stroke: #000;
      }

      .cls-13 {
        fill: #9d9d9d;
        stroke-width: 0.6px;
      }

      .cls-13, .cls-14, .cls-22, .cls-24, .cls-25, .cls-26 {
        stroke-miterlimit: 1.01;
      }

      .cls-14, .cls-24 {
        fill: #c8102e;
      }

      .cls-14 {
        stroke-width: 0.96px;
      }

      .cls-15, .cls-16, .cls-17, .cls-18, .cls-19 {
        fill: #f7d917;
      }

      .cls-15 {
        stroke-width: 2.9px;
      }

      .cls-16, .cls-17, .cls-18, .cls-19, .cls-21, .cls-27 {
        stroke-miterlimit: 1.1;
      }

      .cls-16 {
        stroke-width: 0.46px;
      }

      .cls-17 {
        stroke-width: 0.54px;
      }

      .cls-18 {
        stroke-width: 0.32px;
      }

      .cls-19 {
        stroke-width: 0.48px;
      }

      .cls-20 {
        stroke-miterlimit: 10;
        stroke-width: 0.42px;
      }

      .cls-21 {
        stroke-width: 0.64px;
      }

      .cls-22 {
        stroke-width: 0.5px;
      }

      .cls-23 {
        fill: #3e8225;
        stroke-width: 3.5px;
      }

      .cls-24 {
        stroke-width: 0.64px;
      }

      .cls-25 {
        stroke-width: 0.59px;
      }

      .cls-26 {
        stroke-width: 1.01px;
      }

      .cls-27 {
        stroke-width: 1.01px;
      }

      .cls-28 {
        stroke-width: 2.33px;
      }
    </style>
    <clipPath id="clip-path" transform="translate(15.65 31.3)">
      <rect class="cls-1" width="700" height="350"/>
    </clipPath>
    <clipPath id="clip-path-2" transform="translate(15.65 31.3)">
      <path class="cls-1" d="M0,0V175H816.67V350H700ZM700,0H350V466.67H0V350Z"/>
    </clipPath>
  </defs>
  <path class="cls-2" d="M0,0H1400V700H0Z" transform="translate(15.65 31.3)"/>
  <path id="c" class="cls-3" d="M1400,608.72c-15.69,9.44-29.17,31.5-70.84,31.5-83.33,0-104.16-46.44-166.67-46.44-41.66,0-62.49,46.44-104.16,46.44-83.33,0-104.16-46.44-166.66-46.44-41.67,0-62.51,46.44-104.17,46.44-83.33,0-104.17-46.44-166.67-46.44-41.67,0-62.5,46.44-104.16,46.44-83.34,0-104.17-46.44-166.67-46.44-41.67,0-62.5,46.44-104.17,46.44-83.33,0-104.16-46.44-166.66-46.44C37.5,593.78,25,626.87,0,626.87v59.78c25,0,37.5-33.09,79.17-33.09,62.5,0,83.33,46.44,166.66,46.44,41.67,0,62.5-46.44,104.17-46.44,62.5,0,83.33,46.44,166.67,46.44,41.66,0,62.49-46.44,104.16-46.44,62.5,0,83.34,46.44,166.67,46.44,41.66,0,62.5-46.44,104.17-46.44,62.5,0,83.33,46.44,166.66,46.44,41.67,0,62.5-46.44,104.16-46.44,62.51,0,83.34,46.44,166.67,46.44,41.67,0,55.15-13.16,70.84-22.6Z" transform="translate(15.65 31.3)"/>
  <path class="cls-3" d="M1400,492.63c-15.69,9.44-29.17,31.5-70.84,31.5-83.33,0-104.16-46.44-166.67-46.44-41.66,0-62.49,46.44-104.16,46.44-83.33,0-104.16-46.44-166.66-46.44-41.67,0-62.51,46.44-104.17,46.44-83.33,0-104.17-46.44-166.67-46.44-41.67,0-62.5,46.44-104.16,46.44-83.34,0-104.17-46.44-166.67-46.44-41.67,0-62.5,46.44-104.17,46.44-83.33,0-104.16-46.44-166.66-46.44C37.5,477.69,25,510.78,0,510.78v59.78c25,0,37.5-33.09,79.17-33.09,62.5,0,83.33,46.44,166.66,46.44,41.67,0,62.5-46.44,104.17-46.44,62.5,0,83.33,46.44,166.67,46.44,41.66,0,62.49-46.44,104.16-46.44,62.5,0,83.34,46.44,166.67,46.44,41.66,0,62.5-46.44,104.17-46.44,62.5,0,83.33,46.44,166.66,46.44,41.67,0,62.5-46.44,104.16-46.44,62.51,0,83.34,46.44,166.67,46.44,41.67,0,55.15-13.16,70.84-22.6Z" transform="translate(15.65 31.3)"/>
  <path class="cls-3" d="M1400,376.54C1384.31,386,1370.83,408,1329.16,408c-83.33,0-104.16-46.43-166.67-46.43-41.66,0-62.49,46.43-104.16,46.43C975,408,954.17,361.6,891.67,361.6,850,361.6,829.16,408,787.5,408c-83.33,0-104.17-46.43-166.67-46.43-41.67,0-62.5,46.43-104.16,46.43C433.33,408,412.5,361.6,350,361.6c-41.67,0-62.5,46.43-104.17,46.43C162.5,408,141.67,361.6,79.17,361.6,37.5,361.6,25,394.69,0,394.69v59.78c25,0,37.5-33.09,79.17-33.09,62.5,0,83.33,46.44,166.66,46.44,41.67,0,62.5-46.44,104.17-46.44,62.5,0,83.33,46.44,166.67,46.44,41.66,0,62.49-46.44,104.16-46.44,62.5,0,83.34,46.44,166.67,46.44,41.66,0,62.5-46.44,104.17-46.44,62.5,0,83.33,46.44,166.66,46.44,41.67,0,62.5-46.44,104.16-46.44,62.51,0,83.34,46.44,166.67,46.44,41.67,0,55.15-13.16,70.84-22.6Z" transform="translate(15.65 31.3)"/>
  <path class="cls-3" d="M1400,260.45c-15.69,9.44-29.17,31.49-70.84,31.49-83.33,0-104.16-46.44-166.67-46.44-41.66,0-62.49,46.44-104.16,46.44-83.33,0-104.16-46.44-166.66-46.44-41.67,0-62.51,46.44-104.17,46.44-83.33,0-104.17-46.44-166.67-46.44-41.67,0-62.5,46.44-104.16,46.44-83.34,0-104.17-46.44-166.67-46.44-41.67,0-62.5,46.44-104.17,46.44-83.33,0-104.16-46.44-166.66-46.44C37.5,245.5,25,278.6,0,278.6v59.78c25,0,37.5-33.09,79.17-33.09,62.5,0,83.33,46.43,166.66,46.43,41.67,0,62.5-46.43,104.17-46.43,62.5,0,83.33,46.43,166.67,46.43,41.66,0,62.49-46.43,104.16-46.43,62.5,0,83.34,46.43,166.67,46.43,41.66,0,62.5-46.43,104.17-46.43,62.5,0,83.33,46.43,166.66,46.43,41.67,0,62.5-46.43,104.16-46.43,62.51,0,83.34,46.43,166.67,46.43,41.67,0,55.15-13.16,70.84-22.59Z" transform="translate(15.65 31.3)"/>
  <path class="cls-3" d="M1400,144.36c-15.69,9.43-29.17,31.49-70.84,31.49-83.33,0-104.16-46.44-166.67-46.44-41.66,0-62.49,46.44-104.16,46.44-83.33,0-104.16-46.44-166.66-46.44-41.67,0-62.51,46.44-104.17,46.44-83.33,0-104.17-46.44-166.67-46.44-41.67,0-62.5,46.44-104.16,46.44-83.34,0-104.17-46.44-166.67-46.44-41.67,0-62.5,46.44-104.17,46.44-83.33,0-104.16-46.44-166.66-46.44C37.5,129.41,25,162.5,0,162.5v59.79c25,0,37.5-33.09,79.17-33.09,62.5,0,83.33,46.43,166.66,46.43,41.67,0,62.5-46.43,104.17-46.43,62.5,0,83.33,46.43,166.67,46.43,41.66,0,62.49-46.43,104.16-46.43,62.5,0,83.34,46.43,166.67,46.43,41.66,0,62.5-46.43,104.17-46.43,62.5,0,83.33,46.43,166.66,46.43,41.67,0,62.5-46.43,104.16-46.43,62.51,0,83.34,46.43,166.67,46.43,41.67,0,55.15-13.16,70.84-22.59Z" transform="translate(15.65 31.3)"/>
  <path class="cls-3" d="M1400,28.26c-15.69,9.44-29.17,31.5-70.84,31.5-83.33,0-104.16-46.44-166.67-46.44-41.66,0-62.49,46.44-104.16,46.44-83.33,0-104.16-46.44-166.66-46.44-41.67,0-62.51,46.44-104.17,46.44-83.33,0-104.17-46.44-166.67-46.44-41.67,0-62.5,46.44-104.16,46.44C433.33,59.76,412.5,13.32,350,13.32c-41.67,0-62.5,46.44-104.17,46.44-83.33,0-104.16-46.44-166.66-46.44C37.5,13.32,25,46.41,0,46.41V106.2c25,0,37.5-33.09,79.17-33.09,62.5,0,83.33,46.43,166.66,46.43,41.67,0,62.5-46.43,104.17-46.43,62.5,0,83.33,46.43,166.67,46.43,41.66,0,62.49-46.43,104.16-46.43,62.5,0,83.34,46.43,166.67,46.43,41.66,0,62.5-46.43,104.17-46.43,62.5,0,83.33,46.43,166.66,46.43,41.67,0,62.5-46.43,104.16-46.43,62.51,0,83.34,46.43,166.67,46.43,41.67,0,55.15-13.16,70.84-22.59Z" transform="translate(15.65 31.3)"/>
  <path class="cls-2" d="M0,0H700V354.67H0Z" transform="translate(15.65 31.3)"/>
  <g class="cls-4">
    <g>
      <path class="cls-3" d="M0,0H700V350H0Z" transform="translate(15.65 31.3)"/>
      <path class="cls-5" d="M0,0,700,350M700,0,0,350" transform="translate(15.65 31.3)"/>
      <g class="cls-6">
        <path class="cls-7" d="M0,0,700,350M700,0,0,350" transform="translate(15.65 31.3)"/>
      </g>
      <path class="cls-8" d="M350,0V466.67M0,175H816.67" transform="translate(15.65 31.3)"/>
      <path class="cls-9" d="M350,0V466.67M0,175H816.67" transform="translate(15.65 31.3)"/>
    </g>
  </g>
  <path class="cls-10" d="M1041.63,185.57l-5,475c0,25,22.6,25,25,0l-5-475Z" transform="translate(15.65 31.3)"/>
  <g>
    <g id="d">
      <path class="cls-11" d="M1093.32,362.08l-15.73-17.26-3.88,17.44L1066.88,337l-6.39,12.71-1.13-26.88L1053,335.55l-1.14-26.88-6.39,12.71-3.63-31.61-6.39,12.72-3.64-31.61-6.39,12.71L1021.75,252l-1.82-15.8,3.19-6.36,8.21,3.09,13.23,12.54L1071,270.52l-16.42-6.18L1081,289.42l-16.42-6.18,26.45,25.07-16.42-6.18,23.94,20.35-16.42-6.18,23.94,20.36-16.41-6.19,18.23,22L1089,341.56Z" transform="translate(15.65 31.3)"/>
      <path class="cls-12" d="M1093.32,362.08l-70.2-132.26" transform="translate(15.65 31.3)"/>
      <path class="cls-12" d="M1071,270.52l-37.85-21.8-7.76,34.87" transform="translate(15.65 31.3)"/>
      <path class="cls-12" d="M1081,289.42l-37.85-21.81-7.76,34.88" transform="translate(15.65 31.3)"/>
      <path class="cls-12" d="M1091.06,308.31l-37.85-21.81-7.77,34.88" transform="translate(15.65 31.3)"/>
      <path class="cls-12" d="M1098.58,322.48l-35.34-17.08L1053,335.55" transform="translate(15.65 31.3)"/>
      <path class="cls-12" d="M1106.1,336.66l-35.34-17.09-10.27,30.15" transform="translate(15.65 31.3)"/>
      <path class="cls-12" d="M1107.92,352.46,1075.77,329l-2.06,33.24" transform="translate(15.65 31.3)"/>
    </g>
    <g>
      <path class="cls-11" d="M909.07,136.65l25.67,9.79L927.28,127l22.45,22.12-2.12-15.87,18.16,26.51-2.12-15.88,18.16,26.51-2.12-15.87,23.51,30.06-2.12-15.88,23.51,30.06-2.12-15.87L1046,213l11.76,15,1.06,7.94-9.64.84-20.33-6.25L988.17,218l19.27-1.69-40.66-12.49,19.27-1.69-40.66-12.49L964.66,188,929.35,179l19.27-1.69-35.32-9,19.27-1.69-31-13.34,24.62,1.86Z" transform="translate(15.65 31.3)"/>
      <path class="cls-12" d="M909.07,136.65l149.73,99.28" transform="translate(15.65 31.3)"/>
      <path class="cls-12" d="M988.17,218l49.24,3.71-14.94-38.83" transform="translate(15.65 31.3)"/>
      <path class="cls-12" d="M966.78,203.85l49.24,3.71-14.94-38.84" transform="translate(15.65 31.3)"/>
      <path class="cls-12" d="M945.39,189.67l49.24,3.71-14.94-38.84" transform="translate(15.65 31.3)"/>
      <path class="cls-12" d="M929.35,179l43.89.16-9.59-35.29" transform="translate(15.65 31.3)"/>
      <path class="cls-12" d="M913.3,168.39l43.89.17-9.58-35.29" transform="translate(15.65 31.3)"/>
      <path class="cls-12" d="M901.55,153.36l45,8.11L927.28,127" transform="translate(15.65 31.3)"/>
    </g>
    <g>
      <path class="cls-11" d="M1207.54,169.81l-21.39,15.64,23.61,2.63-32.93,7.81,17.57,5.23-35.68,2.59,17.57,5.23-35.67,2.59,17.57,5.23L1116.48,222l17.56,5.23-41.71,5.2,17.57,5.23-41.71,5.19-20.85,2.6-8.79-2.62,3.29-7.83,15.36-13,30.71-26.08-6.57,15.66,30.71-26.09-6.57,15.66L1136.19,175l-6.57,15.66,24.68-23.48-6.57,15.66,24.68-23.48L1165.83,175l27.43-18.25L1180.65,175Z" transform="translate(15.65 31.3)"/>
      <path class="cls-12" d="M1207.54,169.81l-169,73" transform="translate(15.65 31.3)"/>
      <path class="cls-12" d="M1087.91,195.83l-25.22,36.53,47.21,5.25" transform="translate(15.65 31.3)"/>
      <path class="cls-12" d="M1112.05,185.4l-25.21,36.53,47.2,5.25" transform="translate(15.65 31.3)"/>
      <path class="cls-12" d="M1136.19,175,1111,211.51l47.21,5.25" transform="translate(15.65 31.3)"/>
      <path class="cls-12" d="M1154.3,167.16l-19.18,33.92,41.17,7.86" transform="translate(15.65 31.3)"/>
      <path class="cls-12" d="M1172.41,159.34l-19.18,33.92,41.17,7.86" transform="translate(15.65 31.3)"/>
      <path class="cls-12" d="M1193.26,156.75l-28,31.3,44.46,0" transform="translate(15.65 31.3)"/>
    </g>
    <g>
      <path class="cls-11" d="M1204.07,327.83l-26.62-7.71,9.51,18.74-24.72-20.24,3.81,15.63-20.93-24.95,3.81,15.63L1128,300l3.82,15.64-26.64-28.06,3.82,15.63-26.64-28.06,3.81,15.64-26.63-28.07-13.32-14-1.91-7.82,9.51-1.6,20.91,4.61,41.83,9.21-19,3.21,41.83,9.22-19,3.21,41.83,9.22-19,3.21,36.12,6.11-19,3.21,36.13,6.11-19,3.21,32.33,10.82-24.72.1Z" transform="translate(15.65 31.3)"/>
      <path class="cls-12" d="M1204.07,327.83l-159.76-87" transform="translate(15.65 31.3)"/>
      <path class="cls-12" d="M1116.56,253.06l-49.42.21,19,37.49" transform="translate(15.65 31.3)"/>
      <path class="cls-12" d="M1139.38,265.49l-49.42.21,19,37.48" transform="translate(15.65 31.3)"/>
      <path class="cls-12" d="M1162.21,277.92l-49.43.2,19,37.49" transform="translate(15.65 31.3)"/>
      <path class="cls-12" d="M1179.32,287.24l-43.72,3.31,13.33,34.38" transform="translate(15.65 31.3)"/>
      <path class="cls-12" d="M1196.44,296.56l-43.72,3.31,13.33,34.38" transform="translate(15.65 31.3)"/>
      <path class="cls-12" d="M1209.76,310.59l-45.63-4.5L1187,338.86" transform="translate(15.65 31.3)"/>
    </g>
    <g>
      <path class="cls-11" d="M926.69,337.07l13.37-18.67-20.38,2.94,25.17-14.29-16.09-.73,28.94-10.26-16.1-.73,28.94-10.26-16.09-.73,33.22-13.93-16.09-.72,33.22-13.93L988.7,255l33.23-13.93,16.61-7,8,.37-.52,7.69-9.08,15-18.16,30,1-15.38-18.16,30,1-15.38-18.16,30,1-15.37-13.88,26.36,1-15.37-13.87,26.36,1-15.38-17.65,22.35,5.32-19Z" transform="translate(15.65 31.3)"/>
      <path class="cls-12" d="M926.69,337.07l119.9-102.56" transform="translate(15.65 31.3)"/>
      <path class="cls-12" d="M1018.83,287.24l10.63-38.08L988.7,255" transform="translate(15.65 31.3)"/>
      <path class="cls-12" d="M1001.7,301.89l10.63-38.08-40.75,5.88" transform="translate(15.65 31.3)"/>
      <path class="cls-12" d="M984.58,316.54l10.62-38.08-40.75,5.88" transform="translate(15.65 31.3)"/>
      <path class="cls-12" d="M971.73,327.53l6.35-34.41-36.48,2.21" transform="translate(15.65 31.3)"/>
      <path class="cls-12" d="M958.89,338.52l6.34-34.41-36.47,2.21" transform="translate(15.65 31.3)"/>
      <path class="cls-12" d="M942.27,345.49l14.4-34.06-37,9.91" transform="translate(15.65 31.3)"/>
    </g>
    <g id="e">
      <path class="cls-11" d="M1169,90.87l-25.83,17.29-4.24-18.54-15.24,25.64-2.74-12.34-12.45,26.3-1.75-12.11-9.66,27-5.53-13-9.69,32.79-5.52-13-9.69,32.79-5.53-13-9.69,32.8-4.84,16.4,2.76,6.5,10.37-3.4,18-13.3,36-26.6-20.74,6.8,36-26.6-20.74,6.8,35.95-26.59-20.74,6.8,35.93-20.76-24.52,5.91,38.72-20.1-23.53,6.14,28.38-22.54-24.55,11.75Z" transform="translate(15.65 31.3)"/>
      <path class="cls-12" d="M1158.94,100.2l-37.32,32.12-72.27,94" transform="translate(15.65 31.3)"/>
      <path class="cls-12" d="M1105.76,187.05l-41.19,19.51-3.48-30.05" transform="translate(15.65 31.3)"/>
      <path class="cls-12" d="M1121.6,167.4l-41.82,19.36-3.47-30" transform="translate(15.65 31.3)"/>
      <path class="cls-12" d="M1136.51,147.52,1095,167l-3.16-30" transform="translate(15.65 31.3)"/>
      <path class="cls-12" d="M1148.86,132.9l-38.65,14.27-4.48-24.45" transform="translate(15.65 31.3)"/>
      <path class="cls-12" d="M1163.1,118.72l-41.48,13.6L1120,108.55" transform="translate(15.65 31.3)"/>
      <path class="cls-12" d="M1168.62,105.31l-38.35,19.63,7.4-29.76" transform="translate(15.65 31.3)"/>
    </g>
    <g>
      <path class="cls-11" d="M1029,58.47l11.53,26.33,14.88-13.92-2.57,28.71,9.83-9.3-5.35,28,8.85-9.54L1058,136.09l12.61-8.62L1059,159.8l12.61-8.62L1060,183.51l12.6-8.61-11.64,32.32-5.83,16.16-6.3,4.31-6.78-7.55-7.26-19.41-14.53-38.81,13.57,15.1-14.52-38.81,13.56,15.1-14.52-38.81,13.56,15.1-18-33.81,17.32,16-20.82-34.51,16.34,15.79-10.52-31.95,13.81,21Z" transform="translate(15.65 31.3)"/>
      <path class="cls-12" d="M1031.91,70.93l12.33,44.13,4.55,112.63" transform="translate(15.65 31.3)"/>
      <path class="cls-12" d="M1024.54,168.86,1047.83,204,1069,179.89" transform="translate(15.65 31.3)"/>
      <path class="cls-12" d="M1023,145l23.92,35.27,21.22-24.08" transform="translate(15.65 31.3)"/>
      <path class="cls-12" d="M1022.31,121.36l23.61,35.19,20.89-24.16" transform="translate(15.65 31.3)"/>
      <path class="cls-12" d="M1020.65,103.34l24.31,29.5L1063.63,114" transform="translate(15.65 31.3)"/>
      <path class="cls-12" d="M1017.11,84.86l27.13,30.2,15.81-19.55" transform="translate(15.65 31.3)"/>
      <path class="cls-12" d="M1020.54,71l20.81,33.94,11.75-28.71" transform="translate(15.65 31.3)"/>
    </g>
    <g>
      <path class="cls-11" d="M874.19,252.26l33.74-23.36L891,220.19l29.55,5.05-10.15-13.38,28.72,10.73L929,209.2l28.72,10.73-10.15-13.38,34.63,11.74-10.15-13.38,33.79,17.42-10.15-13.39,34.63,11.74,16.9,8.71,5.07,6.69-6.75,4.68L1027,243.41l-30,12.36,5.49-10.72-37.14,5.31L978.85,241l-38,11,13.49-9.34-32.06,12,14.33-15-32.9,17.68,14.33-15-27,18.68,15.16-20.7Z" transform="translate(15.65 31.3)"/>
      <path class="cls-12" d="M884.87,246l34.88-15.07,18.56-2.65,15.5-.27,26.72,1.65,24.08,1,47.68,5.38" transform="translate(15.65 31.3)"/>
      <path class="cls-12" d="M1001.66,250.73l26.65-16.38L1001.15,213" transform="translate(15.65 31.3)"/>
      <path class="cls-12" d="M971.72,248.29l32.89-17.59-27.16-21.32" transform="translate(15.65 31.3)"/>
      <path class="cls-12" d="M950.41,247.81l30.12-18.16-27.39-19.78" transform="translate(15.65 31.3)"/>
      <path class="cls-12" d="M910.49,252.64l27.82-24.37L915.89,216" transform="translate(15.65 31.3)"/>
      <path class="cls-12" d="M898.13,254.29l21.62-23.37-17.24-6.4" transform="translate(15.65 31.3)"/>
      <path class="cls-12" d="M929.06,250l27.47-22-22-14.93" transform="translate(15.65 31.3)"/>
    </g>
  </g>
  <g>
    <path class="cls-13" d="M992.37,519.07l58.24-10.45,60.68,10.45-28.16,11.7-51.93.84Z" transform="translate(15.65 31.3)"/>
    <path class="cls-14" d="M1051.06,425c-10.19,3.54-21.46-5-39.82,8.92,0,0-32-13.69-34.44,17.95-.09,1.28,5.07,9,5.79,8.45,4-3.09-1.91,3-1.91,3.88a3.32,3.32,0,0,0,.79,1.77,5.18,5.18,0,0,1,.78,2.65c.1,1.67-3.62,6.23-2,7.91s1.67,6.49,1.67,7.86,1,5.22,1.67,6a8,8,0,0,1,1.87,4.43c0,1.67.68,6.29.39,7.47s1.77,2.65,3.64,3.24,26,1,59.8.42,45.11,4.76,59.09-.32a3.2,3.2,0,0,0,2.36-3.54c-.2-1,0-4.12.59-4.91s4.53-7.08,3.74-8.26c.74-.67,6.26,3.18,2.74-.26-.9-.88.51-10.18,1-12.13s1.24-5.65,2.14-6.33-1.53-3.25-1.36-3.71a6.34,6.34,0,0,1,1.75-2.56s1.71-8,.65-11.93-4.88-21.63-28.88-18.08C1093.05,433.87,1060.93,421.51,1051.06,425Z" transform="translate(15.65 31.3)"/>
    <g>
      <g id="f">
        <path class="cls-15" d="M1010,445.35c-1.57.56-3.15,14.08-1.79,18.44a35,35,0,0,0,2.72,6.31c-1.35-2.09-4.42-6.09-7.88-5.77-4.36.39-3.2,14.41-3,15.3h0c.15-.35,1.2-6.28,5.51-6.67,2.84-.25,5.46,2.83,6.44,4.16.06.44.12.86.17,1.29-.48,1.38-.5,4.54-2,8.66-1.8,5-9,6.11-10.26,6.27l15.8-1.42h.12l15.8-1.42c-1.24.06-8.74.24-11.71-4.3-2.46-3.76-3.11-6.86-3.91-8.12l-.15-1.3c.64-1.47,2.45-5,5.28-5.21,4.31-.38,6.79,5.23,7,5.55h0v0h0c0-.91-2.28-14.83-6.64-14.44-3.47.31-5.49,4.77-6.31,7a41.31,41.31,0,0,0,1-6.65c.27-4.58-4.6-17.86-6.23-17.71A.21.21,0,0,0,1010,445.35Zm1,24.84c.15.22.27.4.37.57l.34,1.37s1.43,4.68,1.43,4.71C1013,476.67,1011.11,470.46,1011,470.19Zm4.27-.39c-.07.29-.47,6.71-.54,6.9,0,0,.33-6.23.33-6.26l0,1.39C1015.1,471.65,1015.15,470,1015.23,469.8Z" transform="translate(15.65 31.3)"/>
        <path class="cls-15" d="M1011.38,477a5.22,5.22,0,0,1,2.45-1.1,5.55,5.55,0,0,1,2.66.64l.28,2.31a5.55,5.55,0,0,0-2.66-.64,5.22,5.22,0,0,0-2.44,1.1Z" transform="translate(15.65 31.3)"/>
      </g>
      <g>
        <path class="cls-15" d="M1089.65,446.15c-1.66.22-6,13.11-5.59,17.66a34.61,34.61,0,0,0,1.35,6.74c-.89-2.32-3.06-6.87-6.51-7.29-4.35-.52-6.13,13.43-6.1,14.34v0h0c.23-.31,2.49-5.9,6.79-5.38,2.83.34,4.74,3.9,5.43,5.4,0,.44-.07.87-.1,1.3-.75,1.25-1.43,4.34-3.75,8.05-2.79,4.49-10.11,4.1-11.34,4l15.75,1.9h.12l15.75,1.89c-1.22-.19-8.6-1.58-10.56-6.64-1.62-4.18-1.62-7.35-2.14-8.75,0-.44.09-.86.13-1.31.93-1.3,3.42-4.33,6.25-4,4.29.52,5.55,6.53,5.71,6.89h0v0h0c.18-.89.84-15-3.5-15.5-3.46-.42-6.36,3.52-7.64,5.58a40.18,40.18,0,0,0,2.39-6.29c1.21-4.42-.79-18.42-2.4-18.62A.12.12,0,0,0,1089.65,446.15Zm-4.21,24.49c.09.25.18.45.24.64l0,1.41s.42,4.87.42,4.9C1086.08,477.4,1085.53,470.94,1085.44,470.64Zm4.26.51c-.14.27-1.86,6.46-2,6.64,0,0,1.61-6,1.61-6.06l-.26,1.37C1089.19,472.94,1089.56,471.37,1089.7,471.15Z" transform="translate(15.65 31.3)"/>
        <path class="cls-15" d="M1084.43,477.43a5.12,5.12,0,0,1,2.62-.56,5.52,5.52,0,0,1,2.47,1.17l-.21,2.32a5.46,5.46,0,0,0-2.46-1.17,5.09,5.09,0,0,0-2.62.56Z" transform="translate(15.65 31.3)"/>
      </g>
      <g>
        <g>
          <g>
            <path class="cls-16" d="M981,468.55l6.22-7.58h0c-12.75-16.48-13.4-25.94-12-30.73s4.31-10,12-16.36,12.94-2.84,20.11-2.84,9.09,1.6,15.31,2.4,23,1.59,23,1.59v-4.39h0c-7.39-1.37-16.74,0-23-1.59a68.17,68.17,0,0,0-18.18-2c-6.7,0-11.5-1.95-15.81.84a86.71,86.71,0,0,0-13.39,11.58c-3.83,4-5.74,12-5.26,17.16a27,27,0,0,0,5.26,13.56c2.87,4,2.39,7.19,3.35,10S981,469,981,468.55Z" transform="translate(15.65 31.3)"/>
            <path class="cls-16" d="M1119,468.55l-6.22-7.58h0c12.75-16.48,13.39-25.94,12-30.73s-4.31-10-12-16.36-12.94-2.84-20.12-2.84-9.08,1.6-15.3,2.4-23,1.59-23,1.59v-4.39h0c7.4-1.37,16.75,0,23-1.59a68.14,68.14,0,0,1,18.17-2c6.7,0,11.51-1.95,15.81.84a86.31,86.31,0,0,1,13.4,11.58c3.82,4,5.74,12,5.26,17.16a27,27,0,0,1-5.26,13.56c-2.87,4-2.4,7.19-3.35,10S1119,469,1119,468.55Z" transform="translate(15.65 31.3)"/>
            <path class="cls-17" d="M1039.58,407h22.19v45.5h-22.19Z" transform="translate(15.65 31.3)"/>
          </g>
          <g>
            <path class="cls-18" d="M1042.23,366.91a27.53,27.53,0,0,1,4.22,4.45,30.67,30.67,0,0,1,3.11,5.55,31.4,31.4,0,0,1-5.55-3.11,27.22,27.22,0,0,1-4.44-4.22v16.88a27.22,27.22,0,0,1,4.44-4.22,31.4,31.4,0,0,1,5.55-3.11,39.93,39.93,0,0,0-1.62,5.55c-.57,2.73-5.25,9-5.25,9l13.67.92s-2.27-7.22-3.18-9.95a37.63,37.63,0,0,1-1.4-5.55,31.3,31.3,0,0,1,5.56,3.11,27.22,27.22,0,0,1,4.44,4.22V369.58a27.22,27.22,0,0,1-4.44,4.22,31.3,31.3,0,0,1-5.56,3.11,31.4,31.4,0,0,1,3.11-5.55,28,28,0,0,1,4.22-4.45Z" transform="translate(15.65 31.3)"/>
            <path class="cls-18" d="M1061.68,397a11,11,0,1,1-22,0h0a11,11,0,0,1,22,0Z" transform="translate(15.65 31.3)"/>
            <path class="cls-18" d="M1039.92,398.58h21.88s.32-4.24-1.26-5.82h-6.8l-.12-6.35h-6.44l-.12,6.35s-4.57.23-6.68.23c-1,2.59-.81,2.81-.81,2.81Z" transform="translate(15.65 31.3)"/>
          </g>
          <g>
            <path class="cls-19" d="M1036.58,451a45.7,45.7,0,0,1,7.05,7.41,52.17,52.17,0,0,1,5.19,9.27,51.79,51.79,0,0,1-9.27-5.19,46.19,46.19,0,0,1-7.42-7v28.18a46.19,46.19,0,0,1,7.42-7,52.19,52.19,0,0,1,9.27-5.2,52.07,52.07,0,0,1-5.19,9.28,45.7,45.7,0,0,1-7.05,7.41h28.19a45.7,45.7,0,0,1-7-7.41,52.07,52.07,0,0,1-5.19-9.28,52.19,52.19,0,0,1,9.27,5.2,46.19,46.19,0,0,1,7.42,7V455.46a46.19,46.19,0,0,1-7.42,7,51.79,51.79,0,0,1-9.27,5.19,52.17,52.17,0,0,1,5.19-9.27,45.7,45.7,0,0,1,7-7.41Z" transform="translate(15.65 31.3)"/>
            <path class="cls-19" d="M982.9,498.86l13.88-2.45a45.75,45.75,0,0,1-8.23-6.08,52.46,52.46,0,0,1-6.72-8.23,51.74,51.74,0,0,1,10,3.5,45.8,45.8,0,0,1,8.53,5.66L995.5,463.5a46.33,46.33,0,0,1-6.08,8.23,52.46,52.46,0,0,1-8.23,6.72,51.74,51.74,0,0,1,3.5-10,46,46,0,0,1,5.65-8.53l-13.88,2.44Z" transform="translate(15.65 31.3)"/>
            <path class="cls-19" d="M1111,459.89a46,46,0,0,1,5.65,8.53,51.74,51.74,0,0,1,3.5,10,52.18,52.18,0,0,1-8.23-6.73,46.06,46.06,0,0,1-6.08-8.22L1101,491.26a45.8,45.8,0,0,1,8.53-5.66,51.74,51.74,0,0,1,10-3.5,52.18,52.18,0,0,1-6.73,8.23,45.48,45.48,0,0,1-8.22,6.08l13.88,2.45,6.44-36.53Z" transform="translate(15.65 31.3)"/>
            <path class="cls-19" d="M983.05,497.42l.09,20.22s33.79-11.51,67.58-11.51,67.58,11.51,67.58,11.51V497.42s-33.81-11.51-67.63-11.51S983.05,497.42,983.05,497.42Z" transform="translate(15.65 31.3)"/>
          </g>
        </g>
        <g>
          <path id="g" class="cls-20" d="M979.91,457.79a5.15,5.15,0,0,1-10.29.09v-.09a5.15,5.15,0,0,1,10.29-.1Z" transform="translate(15.65 31.3)"/>
          <path class="cls-20" d="M973.31,446.05a5.14,5.14,0,0,1-10.28.1v-.1a5.14,5.14,0,1,1,10.28-.09Z" transform="translate(15.65 31.3)"/>
          <path class="cls-20" d="M971.94,432.3a5.15,5.15,0,1,1-10.29.09v-.09a5.15,5.15,0,0,1,10.29-.09Z" transform="translate(15.65 31.3)"/>
          <path class="cls-20" d="M976.06,419.46a5.14,5.14,0,0,1-10.28.1v-.1a5.14,5.14,0,1,1,10.28-.09Z" transform="translate(15.65 31.3)"/>
          <path class="cls-20" d="M984.77,408.92a5.14,5.14,0,1,1-10.28.09v-.09a5.14,5.14,0,1,1,10.28-.09A.14.14,0,0,1,984.77,408.92Z" transform="translate(15.65 31.3)"/>
          <path class="cls-20" d="M996.69,401.58a5.14,5.14,0,1,1-10.28.1v-.1a5.14,5.14,0,1,1,10.28-.09Z" transform="translate(15.65 31.3)"/>
          <path class="cls-20" d="M1010,402.5a5.15,5.15,0,1,1-10.29.09v-.09a5.15,5.15,0,1,1,10.29-.09Z" transform="translate(15.65 31.3)"/>
          <path class="cls-20" d="M1023.28,404.7a5.14,5.14,0,0,1-10.28.1.17.17,0,0,1,0-.1,5.14,5.14,0,1,1,10.28-.09Z" transform="translate(15.65 31.3)"/>
          <path class="cls-20" d="M1036.58,406.08a5.15,5.15,0,0,1-10.29.09v-.09a5.15,5.15,0,0,1,10.29-.1Z" transform="translate(15.65 31.3)"/>
          <path class="cls-20" d="M1120.08,457.79a5.15,5.15,0,1,0,10.29.09v-.09a5.15,5.15,0,0,0-10.29-.1Z" transform="translate(15.65 31.3)"/>
          <path class="cls-20" d="M1126.68,446.05a5.15,5.15,0,0,0,10.29.1v-.1a5.15,5.15,0,0,0-10.29-.09Z" transform="translate(15.65 31.3)"/>
          <path class="cls-20" d="M1128.06,432.3a5.15,5.15,0,1,0,10.29.09v-.09a5.15,5.15,0,0,0-10.29-.09Z" transform="translate(15.65 31.3)"/>
          <path class="cls-20" d="M1123.93,419.46a5.15,5.15,0,0,0,10.29.1v-.1a5.15,5.15,0,0,0-10.29-.09Z" transform="translate(15.65 31.3)"/>
          <path class="cls-20" d="M1115.22,408.92a5.15,5.15,0,1,0,10.29.09v-.09a5.15,5.15,0,0,0-10.29-.09Z" transform="translate(15.65 31.3)"/>
          <path class="cls-20" d="M1103.3,401.58a5.15,5.15,0,1,0,10.29.1v-.1a5.15,5.15,0,0,0-10.29-.09Z" transform="translate(15.65 31.3)"/>
          <path class="cls-20" d="M1090,402.5a5.15,5.15,0,1,0,10.29.09v-.09a5.15,5.15,0,0,0-10.29-.09Z" transform="translate(15.65 31.3)"/>
          <path class="cls-20" d="M1076.71,404.7a5.15,5.15,0,0,0,10.29.1v-.1a5.15,5.15,0,0,0-10.29-.09Z" transform="translate(15.65 31.3)"/>
          <path class="cls-20" d="M1063.42,406.08a5.15,5.15,0,1,0,10.29.09v-.09a5.15,5.15,0,0,0-10.29-.1Z" transform="translate(15.65 31.3)"/>
          <g>
            <path class="cls-20" d="M1055.82,446.23a5.15,5.15,0,0,1-10.29.1v-.1a5.15,5.15,0,0,1,10.29-.09Z" transform="translate(15.65 31.3)"/>
            <path class="cls-20" d="M1055.82,437.07a5.15,5.15,0,0,1-10.29.09v-.09a5.15,5.15,0,0,1,10.29-.1Z" transform="translate(15.65 31.3)"/>
            <path class="cls-20" d="M1055.82,429.73a5.15,5.15,0,0,1-10.29.1v-.1a5.15,5.15,0,0,1,10.29-.09Z" transform="translate(15.65 31.3)"/>
            <path class="cls-20" d="M1055.82,423a5.15,5.15,0,0,1-10.29.09V423a5.15,5.15,0,0,1,10.29-.09Z" transform="translate(15.65 31.3)"/>
            <path class="cls-20" d="M1055.82,401.58a5.15,5.15,0,1,1-10.29.1v-.1a5.15,5.15,0,1,1,10.29-.09Z" transform="translate(15.65 31.3)"/>
            <path class="cls-20" d="M1055.82,402.5a5.15,5.15,0,0,1-10.29.09v-.09a5.15,5.15,0,1,1,10.29-.09Z" transform="translate(15.65 31.3)"/>
            <path class="cls-20" d="M1055.82,407.27a5.15,5.15,0,0,1-10.29.09v-.09a5.15,5.15,0,1,1,10.29-.09Z" transform="translate(15.65 31.3)"/>
            <path class="cls-20" d="M1055.82,413.78a5.15,5.15,0,0,1-10.29.09v-.09a5.15,5.15,0,1,1,10.29-.09Z" transform="translate(15.65 31.3)"/>
          </g>
          <path id="h" class="cls-21" d="M1057.27,468.38a6.65,6.65,0,1,1-6.65-6.65A6.65,6.65,0,0,1,1057.27,468.38Z" transform="translate(15.65 31.3)"/>
          <path class="cls-21" d="M987.79,480.44a6.65,6.65,0,1,1-6.65-6.65A6.64,6.64,0,0,1,987.79,480.44Z" transform="translate(15.65 31.3)"/>
          <path class="cls-21" d="M1126.42,480.44a6.65,6.65,0,1,1-6.64-6.65A6.64,6.64,0,0,1,1126.42,480.44Z" transform="translate(15.65 31.3)"/>
        </g>
      </g>
    </g>
    <g>
      <g>
        <path class="cls-22" d="M1041,490.94h20.55v9H1041Z" transform="translate(15.65 31.3)"/>
        <path class="cls-23" d="M1073.73,497.58c.07,2.67,4.25,5.26,9.34,5.78s9.16-1.24,9.1-3.91h0c-.07-2.68-4.25-5.27-9.34-5.78s-9.16,1.23-9.1,3.9Z" transform="translate(15.65 31.3)"/>
        <path class="cls-24" d="M983.17,502.29,978,507.43l6,3.45,13.89-3.72-2.48-7.86Z" transform="translate(15.65 31.3)"/>
        <path class="cls-24" d="M1119.4,502.29l5.15,5.14-6,3.45-13.88-3.72,2.47-7.86Z" transform="translate(15.65 31.3)"/>
        <path class="cls-23" d="M1028.83,497.58c-.06,2.67-4.24,5.26-9.34,5.78s-9.16-1.24-9.09-3.91h0c.06-2.68,4.24-5.27,9.33-5.78s9.17,1.23,9.1,3.9Z" transform="translate(15.65 31.3)"/>
        <g>
          <path id="i" class="cls-25" d="M1036.56,491.61a2.53,2.53,0,1,1-2.53-2.53A2.53,2.53,0,0,1,1036.56,491.61Z" transform="translate(15.65 31.3)"/>
          <path class="cls-25" d="M1037.35,499.67a2.53,2.53,0,1,1-2.52-2.53A2.52,2.52,0,0,1,1037.35,499.67Z" transform="translate(15.65 31.3)"/>
          <path class="cls-25" d="M1005,497.3a2.53,2.53,0,1,1-2.53-2.53A2.53,2.53,0,0,1,1005,497.3Z" transform="translate(15.65 31.3)"/>
          <path class="cls-25" d="M1008.11,504.89a2.53,2.53,0,1,1-2.52-2.53A2.52,2.52,0,0,1,1008.11,504.89Z" transform="translate(15.65 31.3)"/>
          <path class="cls-25" d="M1065.88,491.61a2.53,2.53,0,1,0,2.53-2.53A2.53,2.53,0,0,0,1065.88,491.61Z" transform="translate(15.65 31.3)"/>
          <path class="cls-25" d="M1065.09,499.67a2.53,2.53,0,1,0,2.53-2.53A2.53,2.53,0,0,0,1065.09,499.67Z" transform="translate(15.65 31.3)"/>
          <path class="cls-25" d="M1097.49,497.3a2.53,2.53,0,1,0,2.53-2.53A2.53,2.53,0,0,0,1097.49,497.3Z" transform="translate(15.65 31.3)"/>
          <path class="cls-25" d="M1094.33,504.89a2.53,2.53,0,1,0,2.53-2.53A2.53,2.53,0,0,0,1094.33,504.89Z" transform="translate(15.65 31.3)"/>
        </g>
      </g>
      <g>
        <path class="cls-26" d="M1102.33,532.62c1.93-.33,13.59-3.1,16-4.59-1.58-2.85-4.43-5.08-2.21-4.14,1.19.5,2.13-3.43-1.33-6.44-10,3.29-34.09,9.3-64.33,9.3-30.94,0-55.3-6.32-65.34-9.61-3.45,3-2.38,6.42-2.58,7.69a7.3,7.3,0,0,0,.63,2.89c3.4,3.69,14.42,5.51,16.35,5.85,9.07,1.58,18.15,4,50.92,4C1080.8,537.53,1093.26,534.2,1102.33,532.62Z" transform="translate(15.65 31.3)"/>
        <g>
          <path class="cls-27" d="M998.55,511.81c-1.93.33-14.21,4.68-16.67,6.16,0,0,0,0,0,0,.21,1.28-2.13,7.22,1.33,10.23,10-3.29,38.2-13.1,68.44-13.1,30.94,0,56.57,9.81,66.6,13.1,3.45-3,1.11-9,1.32-10.23,0,0,0,0,0,0-2.45-1.48-14.73-5.83-16.66-6.16-9.08-1.58-18.47-7.44-51.24-7.44C1021.35,504.37,1007.63,510.23,998.55,511.81Z" transform="translate(15.65 31.3)"/>
          <g id="j">
            <path id="k" class="cls-28" d="M989.73,519.18a.78.78,0,0,1-.72.86.82.82,0,0,1-.94-.65v0a.78.78,0,0,1,.72-.86.82.82,0,0,1,.94.65Z" transform="translate(15.65 31.3)"/>
            <path class="cls-28" d="M988.78,521.26a.78.78,0,0,1-.72.86.83.83,0,0,1-.94-.65v0a.78.78,0,0,1,.71-.86.82.82,0,0,1,.94.65Z" transform="translate(15.65 31.3)"/>
            <path class="cls-28" d="M990.6,522.39a.76.76,0,0,1-.71.86.82.82,0,0,1-.94-.65v0a.79.79,0,0,1,.72-.86.83.83,0,0,1,.94.66Z" transform="translate(15.65 31.3)"/>
            <path class="cls-28" d="M989,521l7.26-3.36L992.78,520l2.38-.31-2.1,1.18,3.58-.15Z" transform="translate(15.65 31.3)"/>
          </g>
          <g>
            <path class="cls-28" d="M1016.42,511.54a.78.78,0,0,1-.71.86.84.84,0,0,1-1-.65v0a.78.78,0,0,1,.72-.86.83.83,0,0,1,.94.65Z" transform="translate(15.65 31.3)"/>
            <path class="cls-28" d="M1015.48,513.62a.78.78,0,0,1-.72.86.82.82,0,0,1-.94-.65v0a.78.78,0,0,1,.72-.86.82.82,0,0,1,.94.65Z" transform="translate(15.65 31.3)"/>
            <path class="cls-28" d="M1017.3,514.75a.78.78,0,0,1-.72.86.82.82,0,0,1-.94-.65v0a.79.79,0,0,1,.71-.86.84.84,0,0,1,.95.66Z" transform="translate(15.65 31.3)"/>
            <path class="cls-28" d="M1015.7,513.35,1023,510l-3.48,2.33,2.37-.31-2.09,1.18,3.58-.15Z" transform="translate(15.65 31.3)"/>
          </g>
          <g>
            <path class="cls-28" d="M1049.55,508a.79.79,0,0,1-.9.67.82.82,0,0,1-.75-.87v0a.79.79,0,0,1,.9-.67.83.83,0,0,1,.76.86Z" transform="translate(15.65 31.3)"/>
            <path class="cls-28" d="M1048.14,509.75a.79.79,0,0,1-.9.67.83.83,0,0,1-.76-.86v0a.78.78,0,0,1,.9-.66.82.82,0,0,1,.76.86Z" transform="translate(15.65 31.3)"/>
            <path class="cls-28" d="M1049.64,511.29a.79.79,0,0,1-.9.67.83.83,0,0,1-.76-.87v0a.79.79,0,0,1,.9-.67.83.83,0,0,1,.76.86Z" transform="translate(15.65 31.3)"/>
            <path class="cls-28" d="M1048.42,509.55l7.85-1.53-3.94,1.43,2.39.27-2.32.64,3.51.72Z" transform="translate(15.65 31.3)"/>
          </g>
          <g>
            <path class="cls-28" d="M1080.26,514.31a.79.79,0,0,0-.72-.86.83.83,0,0,0-.94.66v0a.78.78,0,0,0,.71.86.83.83,0,0,0,1-.65Z" transform="translate(15.65 31.3)"/>
            <path class="cls-28" d="M1079.31,512.23a.77.77,0,0,0-.71-.86.82.82,0,0,0-.94.66v0a.78.78,0,0,0,.72.86.82.82,0,0,0,.94-.65Z" transform="translate(15.65 31.3)"/>
            <path class="cls-28" d="M1081.14,511.1a.78.78,0,0,0-.72-.86.82.82,0,0,0-.94.65v0a.77.77,0,0,0,.71.86.82.82,0,0,0,.94-.65Z" transform="translate(15.65 31.3)"/>
            <path class="cls-28" d="M1079.54,512.5l7.25,3.36-3.48-2.33,2.38.31-2.09-1.17,3.58.14Z" transform="translate(15.65 31.3)"/>
          </g>
          <g>
            <path class="cls-28" d="M1107.2,521.35a.78.78,0,0,0-.71-.86.82.82,0,0,0-.94.65v0a.78.78,0,0,0,.72.86.83.83,0,0,0,.94-.65Z" transform="translate(15.65 31.3)"/>
            <path class="cls-28" d="M1106.26,519.27a.78.78,0,0,0-.72-.86.82.82,0,0,0-.94.65v0a.78.78,0,0,0,.72.86.82.82,0,0,0,.94-.66Z" transform="translate(15.65 31.3)"/>
            <path class="cls-28" d="M1108.08,518.14a.79.79,0,0,0-.72-.87.84.84,0,0,0-.94.66v0a.79.79,0,0,0,.71.87.85.85,0,0,0,.95-.66Z" transform="translate(15.65 31.3)"/>
            <path class="cls-28" d="M1106.48,519.54l7.26,3.36-3.48-2.33,2.38.31-2.1-1.18,3.58.15Z" transform="translate(15.65 31.3)"/>
          </g>
        </g>
      </g>
    </g>
  </g>
</svg>
