<?xml version="1.0" encoding="utf-8"?>
<!-- Generator: Adobe Illustrator 23.1.0, SVG Export Plug-In . SVG Version: 6.00 Build 0)  -->
<svg version="1.1" id="Layer_1" xmlns="http://www.w3.org/2000/svg" xmlns:xlink="http://www.w3.org/1999/xlink" x="0px" y="0px"
	 viewBox="0 0 1400 700" style="enable-background:new 0 0 1400 700;" xml:space="preserve">
<style type="text/css">
	.st0{fill:#007934;}
	.st1{fill:#FFFFFF;}
</style>
<rect y="0" class="st0" width="1400" height="700"/>
<rect x="426.1" y="0" class="st1" width="547.8" height="700"/>
<path class="st0" d="M705.1,46.5c-1.2,13.2-2.4,26.5-3.7,39.7c-4.5,0.7-9,1.3-13.5,2c0,0,9.3,5.2,11,10.5c0.3,0.8,0.2,1.5-0.2,2.1
	c-0.1,0.2-0.3,0.3-0.5,0.5c-2.7,2.1-10.7,1.1-10.7,1.1c0,0,10.6,8.9,11.4,12.2c0,0.1,0,0.1,0,0.2c0,0.1,0,0.2,0,0.2
	c0,0-0.1,0.1-0.1,0.2c-0.1,0.2-0.2,0.3-0.4,0.5c-2.5,2.3-14.3,2.9-14.3,2.9s13,9.3,13.9,14.6c0.7,4.8,0.1,7.6,0,8.1
	c-0.9-0.8-21.9-18.4-35.5-13.3c-0.7,0.4-1.1,0.7-1.2,1c-0.1,0.2-0.1,0.4,0,0.5c1,2.9,20.1,5.9,33.5,17.5c-0.3,2.9-38.1-9.2-39.5-1.6
	c1.2,2.1,40.7,7.8,43.6,13c-14.5,0.5-44.6-3.2-43.6,1.6c-3,5.5,28.4,2.4,41.6,6.9c3.9,4.4,3.5,8-3.2,8.5c-12.7-6-41.1-10.5-41.2-2.8
	c0,0,0,0,0,0c0,0,0,0,0,0c0,0,0,0.1,0,0.1c0,0,0.1,0.1,0.2,0.1c3.2,1.6,29.7,0.8,39.7,7.4c-14.1,3.2-62.1-6.5-62.4-1.8
	c1.4,2.2,8.9,11.9,22,11.5c13-0.4,43.2,5.3,45.3,9.3c0.1,0.1,0.1,0.3,0,0.4c-0.9,2.8-39.8-8.6-54.7-1.6
	c-15.5,7.3,44.4,2.9,54.2,11.8c9.8,8.9-19.6-0.8-19.6-0.8s-40.8-5.7-46.9-2.8c-6.1,2.8-13.1,9.3-13.1,9.3s4.1,8.1,8.1,6.5
	c0.6-0.2,1-0.3,1.3-0.2c0,0,0,0,0,0c0,0,0,0,0,0c0,0,0,0,0,0c0,0,0,0,0,0c0,0,0,0,0,0c0,0,0,0.1,0,0.2c0.1,1.2-2.8,4.8-2.8,4.8
	s57.1,13.8,69.8,25.9c12.6,12.2-72.6-19.1-72.6-19.1c0,0-34.3,12.6,2,13.4c-4,5.9,1.7,9.5,2,9.7c0,0,60.4,12.6,66.5,22.3
	c6.1,9.7-41.2-9.3-51.8-14.6c-10.2-5.1-38.7,2.7-40.3,5.1c0,0,0,0.1,0,0.1c0,0,0,0,0,0c0,0,0,0.1,0,0.1c0,0,0,0,0,0c0,0,0,0,0,0
	c0,0,0,0,0,0c0,0,0,0,0,0c0,0,0.1,0.1,0.1,0.1c0,0,0,0,0,0c1.8,2,14.5,4.8,14.9,8.2c0,0,0,0,0,0c0,0.2-0.1,0.4-0.1,0.6
	c-1.6,3.1-16.8,4.4-17.4,7.3c0,0,0,0.1,0,0.2c0,3.2,76.3,19.1,96.7,36.1c20.4,17-59.9-20.3-59.9-20.3s4.5,6.1,0,7.7
	c-4.5,1.6-20.4-22.7-46.5-7.7c-4.8,6.2,22.8,11.1,29.8,11.8c-2.4,6.1-4.5,8.1,5.3,14.2c1.1,0.7,1.7,1.1,1.9,1.3c0,0,0,0,0,0l0,0
	c0,0,0,0,0,0c0,0,0,0,0,0c0,0,0,0,0,0c0,0,0,0,0,0c-1.5-0.2-19.1-9.2-20.9-9.6c0,0-0.1,0-0.1,0c0,0,0,0,0,0c0,0.8,2,10.6,2,10.6
	c-9-7.3-20-9.5-30.2-2c0,0.4-0.1,7.4,10.2,11.8c-5.8,11.8,6.5,8.1,26.1,19.1c-29.1-7.6-31.4,6.5-10.6,9.7
	c20.8,3.2,77.9,5.3,91.4,22.7c2.8,3.7,3.6,5.5,3.1,6.1c-2.2,2-22.9-12.8-25.9-13.4c0,0,0,0,0,0c0,0,0,0,0,0c0,0-0.1,0.1-0.1,0.2
	c-0.7,1.6-1.4,8.6-1.4,8.6c-8.7-5-16.7-9.5-27.1-11.6c-0.8,1.6-0.6,3.9-1.5,5.5c-9.4-6.8-17.7-11.5-31.4-12.2
	c-0.5,2.2-1.1,4.4-1.6,6.5c0,0-11.4-14.2-33.9,0c-12.5,8.9,47.3,3.2,57.1,13.8c9.8,10.5,2,12.1,2,12.1c-8.2-3-16.3-5.9-24.4-8.9
	c0,0-29-5.3-37.1,1.2c-8.2,6.5,119.1,22.3,122.7,39.7c2.5,9.5-29.9-9.9-57.9-18.2c-1.1,3.1-2.2,6.2-3.3,9.3
	c-0.7-0.7-11.5-11.1-23.6-12.9c0,0,0,0,0,0c0,0,0,0.1,0,0.1c0,1.3,2.5,10.8,2.5,10.8c0,0-31.4-14.6-47.3-6.9
	c-15.9,7.7,55.4,11.8,62,19.1c0.7,0.8,1,1.4,1,1.8c0,0.1-0.1,0.2-0.1,0.2c-1.6,2.3-22.9-6.2-25-2c-2.4,4.9-37.1-8.9-36.7-2.4
	c0.4,6.5,4.9,10.1,4.9,10.1c0,0,72.2,6.9,74.6,15.4c2.4,8.5-40-4.8-40-4.8s-4.1,6.1-0.8,8.9c0.1,0.1,0.2,0.2,0.3,0.3c0,0,0,0,0,0
	c0,0,0,0,0,0c-1.5-0.5-24.5-15.5-22.2-4c-9-3.6-32.2-14.6-28.9-6.1c3.2,8.4,63.8,20.3,65.6,20.7c-1.6,0.1-27.2,2.3-26,8.9
	c-34.3-20.8-34.2-8.3-33.5-7.3c0,0,0,0,0,0c-1.9-0.3-44.2-10.8-10.6,7.3c18,9.7,22.4,13.5,22.5,14.9c0,0,0,0.1,0,0.1
	c0,0,0,0.1,0,0.1c0,0,0,0,0,0c0,0,0,0.1,0,0.1c0,0,0,0,0,0c0,0,0,0,0,0c0,0,0,0,0,0c0,0,0,0,0,0c-0.7,0.4-2.4,0.3-2.9,0.3
	c0,0-0.1,0-0.1,0c0,0,0,0,0,0l0,0c0.5,0.7,3.1,7.9,3,9.1c0,0,0,0.1,0,0.1c0,0,0,0,0,0c0,0,0,0,0,0c0,0,0,0,0,0c0,0,0,0,0,0
	c0,0,0,0,0,0c-1.5-0.4-23.7-12.2-31.3-13c-7.7-0.8-44.5,10.1-5.3,27.2c39.1,17,63.2-4.1,84.8-1.6c21.6,2.4,31.8,6.1,29.8,13
	c-2,6.9-22.1-22.6-43.2,2.9c-24-4.7-40.3-7.5-27.9,10.1c-39.2-14.6-63.1,4.4-13.8,12.1c48.5,1.4,78.3-11.8,78.3-11.8s8.2,15,20,4.5
	c11.3-10,12.2,2.7,12.6,4c0,0,0,0,0,0c0,0,0,0,0,0c0,0,0,0,0,0c0.9-0.2,11.4-4.9,11.4-4.9c1,0,1.9,0,2.9,0v97.3
	c13.2,0.1,26.3,0.3,39.5,0.4c0,0-12.6-84.7-5.7-96.1c6.7-11,13.1-9.8,13.5-9.7c0,0,25.7,7.7,28.5,6.5c0,0,0.1,0,0.1,0
	c0,0,0.1,0,0.1,0c0,0,0.1-0.1,0.2-0.1c0,0,0,0,0,0c2.1-1.9,0-9.4,13-8.2c4-1.5,2.5-7.8,5.1-9.4c0,0,0.1-0.1,0.2-0.1
	c0.1,0,0.2-0.1,0.4-0.1c0.2,0,0.4-0.1,0.5-0.1c4.1-0.4,82.8,21.9,99.9,0.8c-4.5-11.8-20-0.8-24.1-0.4c-3.7,0-19.2-7.3-28.1,0
	c-8.2-6.1-45.2-10.1-45.2-10.1c-4.9-4.9,88.5,2.4,93.8-1.2c11-10.9-20.4-9.7-25.3-6.1c-8.7-5.3-19.6-4.9-26.3-1.2
	c-3.2-7.6-33.5-4.3-50.4-6.5c-5.4-3.1-4.5-5-0.8-6.9c35.2,1.5,70.2,6.1,105.6,4.5c9.6-12.4-12-17.1-25.3-6.5
	c-7.8-12.7-23.7-0.4-34.3-1.6c-10.6-1.2-5.7-14.2,7.7-12.1c13.5,2,37.5-0.8,42-6.9c4.5-6.1-2.7-12.2-24.9-6.5
	c-7.5-7.3-24,0-31.8,2.4c-10.3-5.7-34.3-0.8-42.4,1.2c-8-4.9,42-13,42-13c19.3-0.3,30.2-3.7,36.3-5.3c29.2-15.5-0.4-17.2-15.7-5.9
	c-9.5-7.4-18.5,0.6-27.1,3.5c-8,2.7-22.9,4.6-24.7,3.8c0,0-0.1,0-0.1,0c0,0,0,0,0,0l0,0c0,0,0,0,0,0c0,0,0,0,0,0c0,0,0-0.1,0-0.1
	c1.2-1.9,23.2-15.3,23.2-15.3c0,0,28.5-2,34.3-2.9c3.5-0.5,15.7-6.2,15.7-8.4c-0.1-1.3-5.2-1.2-20.6,2.7c-13.9,1.2-22,0.4-27.3,0.8
	c-8.5-0.9-12.1-1.8-12.8-2.6c0,0-0.1-0.1-0.1-0.1c-0.1-0.1,0-0.3,0.1-0.4c0,0,0.1-0.1,0.1-0.1c2.1-1.7,15.6-2.9,15.6-2.9
	c0,0,41.2-3.8,43.9-5.9c0,0,0,0,0,0c0,0,0-0.1,0-0.1c0,0,0,0,0,0c0.8-16.7-34.9-9-35.9-8.9c0.1-11.8-32.3-0.2-33.8,0c0,0,0,0,0,0
	c-1.4-0.8-2-1.7-2.1-2.5c0-0.3,0-0.6,0.1-0.9c0.8-2.4,5.7-4.3,5.7-4.3c9-2.2,22.4-2.8,25.9-5.7c0,0,25.3-0.2,28.3-6.9
	c-6.2-17-53.6,3-59.9,6.1c-1.3,0-2-0.3-2.4-0.8c-2.1-3,8.2-13,8.5-13.3c0,0,0,0,0,0c1.6-0.4,39.4-2.4,57.5-26.7
	c1.3-15.1-21.6,8.5-21.6,8.5c-1.7-19.5-24.9,1.2-38.3,2.9c-13.5,1.6-13.8-6.1-4.5-7.3c9.4-1.2,20-0.4,25.3-14.6
	c5.3-14.2,21.2,0.8,24.1-4.4c2.8-5.1-5.2-9.5-5.7-9.7c0,0,11.8-12.2-7.3-11.8c-19,0.4-43.5-2.4-44-2.4c1.2-0.5,20.5-7.7,38.7-7.3
	c18.8,0.4,8.6-13.4-9.4-13.4c-17.9,0-27.3-6.1-27.3-6.1c10.2-3.8,20.4-7.6,30.6-11.4c-0.7-2.8-1.4-5.7-2-8.5c0,0,17.9-14.2-7.3-11
	c-25.3,3.2-28.1,3.7-28.1,3.7c0,0-49.8,7.6-50.9,7.7c0,0,0,0,0,0c-0.5-0.1-5.4-1.6-6.3-3.5c0-0.1-0.1-0.2-0.1-0.2c0-0.1,0-0.2,0-0.3
	c0-0.1,0-0.2,0-0.3c0.2-1,1.7-2.1,5.7-3c13-3.2,59.1-12.6,66.1-10.1c0.9,0.3,1.5,0.2,1.9-0.1c2.6-2.3-6-17.3-27.3-19.4
	c-24.5-2.4-39.5,6.1-39.5,6.1s-15.9-5.7-1.2-10.6c14.7-4.9,37.9,1.6,37.9,1.6c0,0,26.1-7.7,4.5-11c-21.6-3.2-28.4,2.9-38.3,3.3
	c-4-4.9,33.9-6.1,36.3-10.1c-4-7.3-27.4,0-41.2,0c-5.8-2.5-6.2-6.5,0.4-8.9c14-0.5,27.2,0.3,41.2-0.3c-0.4-7.4,0-16.2-0.4-23.7
	c-17.8-3.2-38.6,2.4-48.6,1.9c2.7-8.1,41-10.2,45.3-12.4c8.8-10.9-36.8-0.2-37.9,0c-8.1-1.2-7.6-6.3-2.5-9.3
	c11.8-1.4,38.3,1.7,36.3-6.2c-1.5-7.5-18.4-3.5-25.3-1.8c-6.9,1.6-17.1,0.4-17.1,0.4c-4.4-5.9,40-3.5,39.6-8.1
	c-0.6-5.3-28.2-1.6-37.5-1.2c-7.2-4.9,33.9-8.2,35.9-8.9c0,0,0,0,0,0c1.5-13.5-28.5,0-34.3,0c-1,0-1.7-0.2-2.3-0.7
	c-0.1-0.1-0.3-0.2-0.4-0.4c-2-2.3-0.2-7.5-0.2-7.5s10.7-4.8,11.4-5.9c0,0,0,0,0,0c0,0,0,0,0,0c0,0,0,0,0,0c0,0,0,0,0,0
	c0,0-0.1-0.1-0.1-0.1c-1.3-1-8.6-3.4-9.6-3.5c0,0,0,0,0,0c0,0,0,0,0,0c0,0,0,0,0,0c0,0,0,0,0,0c-0.6-1.1,0.1-9.2,0.1-9.2
	s8.5-6.3,9-8.8c0,0,0-0.1,0-0.1c0,0,0-0.1,0-0.1c0,0,0-0.1,0-0.1c0,0,0-0.1,0-0.1c0,0,0,0,0,0c0,0,0-0.1,0-0.1c0,0,0,0,0,0
	c0,0,0,0,0,0c0,0,0,0,0,0c0,0,0-0.1,0-0.1c0,0,0,0,0,0c0,0-0.1-0.1-0.1-0.1c0,0-0.1,0-0.1,0c-2.1-1-11,2-11,2c0-2.7,0-5.4,0-8.1
	c0,0,7.8-0.8,8.6-4.5c0-0.2,0-0.4,0-0.6c0-0.1,0-0.2,0-0.3c-0.1-0.2-0.1-0.3-0.2-0.5c0,0-0.1-0.1-0.1-0.1c-1.8-2.3-9-2.6-9-2.6
	C707.8,74.9,706.4,60.7,705.1,46.5L705.1,46.5z M697.8,185.5v5.6c0,0-9.1-0.5-10.8-1.9c0,0,0,0,0,0c0,0,0,0,0,0c0,0,0,0,0,0
	c0,0,0,0,0,0c0,0,0-0.1,0-0.1c0,0,0,0,0,0c0,0,0,0,0,0c0,0,0,0,0,0c0,0,0-0.1,0-0.1c0,0,0,0,0,0c0,0,0,0,0,0c0,0,0-0.1,0-0.1
	c0,0,0,0,0,0c0,0,0.1-0.1,0.1-0.1c0,0,0,0,0,0c0,0,0.1-0.1,0.1-0.1c0.1-0.1,0.1-0.1,0.2-0.2c3.1-2.1,9.2-2.1,10.4-2.4c0,0,0,0,0,0
	C697.7,185.6,697.7,185.6,697.8,185.5C697.7,185.6,697.7,185.6,697.8,185.5C697.8,185.6,697.8,185.5,697.8,185.5L697.8,185.5z
	 M710.8,192.9c0.3,0,18.2,0.2,19.8,2.5c0,0,0,0.1,0,0.1c0,0,0,0.1,0,0.1c0,0,0,0.1,0,0.1c0,0,0,0.1,0,0.1c0,0,0,0.1,0,0.1
	c-1.4,2.9-19.5,4.6-19.5,4.6L710.8,192.9L710.8,192.9z M709.7,204C709.7,204,709.8,204,709.7,204C709.8,204,709.8,204,709.7,204
	c1.2,0.3,8.6,0.5,9.5,1.8c0,0,0,0,0,0c0,0,0,0,0,0c0,0,0,0,0,0c0,0,0,0,0,0c0,0,0,0,0,0c0,0,0,0,0,0c0,0,0,0,0,0c0,0,0,0,0,0
	c0,0,0,0,0,0c0,0,0,0,0,0c0,0,0,0.1,0,0.1c0,0,0,0,0,0c0,0,0,0,0,0c-1.5,1.9-8.4,2.4-8.7,2.4c0,0,0,0,0,0c0,0,0,0,0,0c0,0,0,0,0,0
	C710,208,709.7,204,709.7,204L709.7,204z M655.2,218.7c5.8-0.3,17.4,1.1,39.2,7c0,0.5,0.4,6.1,0.3,7c0,0,0,0,0,0c0,0,0,0,0,0
	c0,0,0,0,0,0c-0.3-0.2-39.6-11.4-43.2-11.2c-0.1,0-0.2,0-0.3,0c-0.1,0-0.2,0-0.3,0c-0.1,0-0.2-0.1-0.3-0.1c0,0-0.1,0-0.1,0
	c0,0,0,0,0,0c-0.1-0.1-0.2-0.2-0.3-0.3c0,0,0,0,0,0c0,0,0-0.1,0-0.1c0,0,0,0,0,0c0,0,0-0.1,0-0.1c0,0,0,0,0,0c0,0,0-0.1,0-0.1
	c0,0,0-0.1,0-0.1c0,0,0-0.1,0-0.2c0-0.1,0.1-0.3,0.3-0.4C650.8,219.4,652.3,218.8,655.2,218.7L655.2,218.7z M675.5,235.3
	c6.3-0.2,21.3,3.4,22.1,3.2c0,1.2,0.7,6.8-0.1,8c0,0,0,0,0,0c0,0,0,0,0,0c0,0,0,0,0,0c0,0-0.1,0-0.1,0c0,0,0,0,0,0c0,0-0.1,0-0.1,0
	c0,0,0,0,0,0c-1.3-0.3-23.4-7.3-24.3-10.2c0,0,0-0.1,0-0.2c0-0.1,0.1-0.2,0.1-0.3c0,0,0,0,0,0c0,0,0,0,0,0
	C673.5,235.5,674.4,235.3,675.5,235.3L675.5,235.3z M737.1,250.7c6-0.1,10.2,0.4,8.6,2.2c-4.3,4.9-33.8,9-33.8,9l-0.5-9
	C712.1,252.8,727.1,250.9,737.1,250.7L737.1,250.7z M652.7,278.7c5-0.3,16.7,2.5,42.7,13.4l0.2,6.5c0,0-44.1-13.3-45.6-15.5
	C649.2,282,647.8,278.9,652.7,278.7L652.7,278.7z M739,288.3c1.3-0.1,2.3,0.1,2.6,0.4c0,0,0,0,0,0c0,0,0,0.1,0,0.1c0,0,0,0.1,0,0.1
	c0,0.2-0.2,0.4-0.4,0.7c-4.1,4.6-26.1,9.2-26.1,9.2s0-5.8,0-5.9c0,0,0,0,0,0C716.3,292.9,732.4,288.6,739,288.3L739,288.3z
	 M642.4,289.1c6.6-0.3,21.4,3.1,54.7,18.8c0,0.2,0.3,5.6,0.2,6.1c0,0,0,0,0,0c-2-0.6-59.9-20.9-59.9-20.9
	C637.3,292.9,636.4,289.4,642.4,289.1L642.4,289.1z M752.7,314.4c1.7-0.1,2.8,0.1,3.1,0.4c0,0,0,0.1,0,0.2c0,0.2-0.2,0.4-0.4,0.7
	c-5.3,4.7-38.7,10.4-39.9,10.5c0,0,0,0,0,0c0,0,0,0,0,0c0,0,0,0,0,0c0,0,0-0.1,0-0.1c0,0,0,0,0,0c0,0,0-0.1,0-0.1
	c-0.2-1.1,0.5-4.9,0.5-5.5c0,0,0,0,0,0c0,0,0,0,0,0c0,0,0,0,0,0c0,0,0,0,0,0C718,320.5,743.7,314.8,752.7,314.4L752.7,314.4z
	 M654.2,329.2c10-0.5,40.2,13.3,41.6,13.7c0,0,0,0,0,0c-0.2,0.6-0.2,5.6-0.3,6.4c0,0,0,0.1,0,0.1c0,0,0,0,0,0
	c-0.8-0.4-42.2-17.5-44-16.2C650.4,330.5,651.6,329.3,654.2,329.2L654.2,329.2z M743.3,332.8c2.1-0.1,3.6,0,4.1,0.3
	c0.1,0,0.1,0.1,0.1,0.1c0,0,0,0,0,0c0,0,0,0,0,0c0,0,0,0.1,0,0.1c0,0,0,0,0,0c0,0-0.1,0.1-0.1,0.1c-3.1,2.7-31.6,8.3-31.6,8.3
	s-0.1-5.3-0.1-5.8C716.4,335.9,734.8,333.1,743.3,332.8L743.3,332.8z M741,350.9c2-0.1,3.4,0,3.8,0.4l0,0c0,0,0,0.1,0,0.1
	c0,0,0,0,0,0c0,0,0,0,0,0c0,0,0,0.1,0,0.1c0,0,0,0,0,0c0,0-0.1,0.1-0.1,0.1c0,0-0.1,0.1-0.1,0.1c-3.1,2.6-27.3,7.7-27.3,7.7
	s-0.7-5.8-0.7-5.9C717.3,353.7,733.4,351.2,741,350.9L741,350.9z M638.9,352.4c5.8-0.4,20.3,2,56,14.9l1.2,7
	c0,0-59.4-19.1-61.1-19.7c0,0,0,0,0,0c0,0,0-0.1,0-0.2c0-0.2,0.1-0.4,0.3-0.7C635.7,353.1,636.7,352.5,638.9,352.4L638.9,352.4z
	 M717.2,367.5c0.7,0.2,10.7,0.5,12.5,2c0,0,0,0,0,0c0,0,0,0,0,0c0,0,0,0,0,0c0,0,0,0.1,0,0.1c0,0,0,0,0,0c0,0,0,0.1,0,0.1
	c0,0,0,0,0,0c0,0,0,0,0,0c0,0,0,0.1,0,0.1c0,0,0,0,0,0c0,0,0,0.1,0,0.1c0,0,0,0,0,0c0,0,0,0.1,0,0.1c-1.5,2.4-12,3.3-12,3.3
	S717.5,369,717.2,367.5L717.2,367.5z M741.3,381c2.3-0.1,4,0.2,4.3,0.9c0.2,0.5-0.2,1.1-1.3,2c-8.5,7-27.1,8.3-27.1,8.3v-7.7
	c0,0,0,0,0,0C718.4,384.5,733.6,381.2,741.3,381L741.3,381z M765,388.2c2.9-0.1,4.2,0.4,4.6,1.1c0,0.1,0.1,0.2,0.1,0.2
	c0,0.1,0.1,0.3,0,0.4c-0.1,0.9-1,1.9-1.8,2.6c-2.9,2.7-49.2,17.3-49.2,17.3s-0.3-9.7-0.2-10.5C745.7,391.1,758.9,388.4,765,388.2
	L765,388.2z M735.1,415.6c2.9-0.1,5.2,0.1,5.9,0.7c0,0,0.1,0.1,0.1,0.2c0,0,0,0.1,0,0.1c0,0,0,0.1,0,0.1c0,0.1,0,0.2,0,0.2
	c0,0.1-0.1,0.3-0.2,0.4c-4,3.9-23.2,4.4-23.2,4.4V417C721.4,416.9,729.4,415.8,735.1,415.6L735.1,415.6z M754.4,423.4
	c0.9,0,1.5,0.1,1.5,0.4c0,0,0,0.1,0,0.1c0,0.2-0.3,0.6-0.9,1c-7.7,5.4-36.6,11-36.6,11s0.4-3.8,0.5-4.7
	C719.8,431.2,747.4,423.6,754.4,423.4L754.4,423.4z M770.6,429.5c3.4,0,6,0.5,7.5,1.5c0,0,0,0,0,0c0,0,0,0,0,0c0,0,0,0,0,0
	c0,0,0,0.1,0,0.1c-0.1,1.1-2.3,6-9.9,8.1c-9.5-0.8-49.8,11-50.5,11.2c0,0,0,0,0,0c0,0,0-0.1,0-0.1c0-0.8,0.5-4.8,0.5-4.8
	C732,437.3,757.2,429.6,770.6,429.5L770.6,429.5z M667.5,452.7c0.1,0,0.2,0,0.3,0c17.4,1.9,23.9,8.4,25.8,11
	c-3.5,6.1-31-7.5-28.1-10.4C665.7,452.9,666.4,452.7,667.5,452.7L667.5,452.7z M767.3,453.8c0.7,0,1.3,0.1,1.8,0.4
	c0.2,0.1,0.4,0.3,0.5,0.5c0.2,0.3,0.3,0.6,0.3,1.1c-1.8,2.8-11.2,1.6-11.8,1.5C758.5,457.1,763.9,454,767.3,453.8L767.3,453.8z
	 M730,472.7c1.3-0.1,2.4,0.1,3,0.4c0.1,0,0.2,0.1,0.2,0.2c0,0,0.1,0.1,0.1,0.1c0,0,0.1,0.1,0.1,0.1c0,0,0,0.1,0,0.1
	c0.1,0.3,0.1,0.8-0.2,1.3c-2.7,5.1-14.7,3.2-14.7,3.2v-3.6c0,0,0,0,0,0C719.2,474.7,725.8,472.8,730,472.7L730,472.7z M659.5,486.1
	c3.7-0.2,6.9,2.2,10.3,4.1c7.5-1.5,22.9,1.2,22.9,1.2v6.8c0,0,0,0,0,0c0,0,0,0,0,0c-1.4,0.2-19.5-0.5-23.5-3.1
	c-3.3,0-12.6-4.9-13.3-7.4c0,0,0-0.1,0-0.1c0,0,0-0.1,0-0.1c0,0,0-0.1,0-0.1c0,0,0-0.1,0-0.1c0,0,0,0,0,0c0,0,0-0.1,0-0.1
	c0,0,0,0,0,0C657.1,486.5,658.3,486.2,659.5,486.1L659.5,486.1z M738.5,489.4c2.8-0.2,4,0.7,1.8,3.8c-6.1,8.7-22,5.1-22,5.1
	l-0.7-5.4C723.2,493.2,733.5,489.7,738.5,489.4L738.5,489.4z M679.1,507c6.4-0.3,13.4,2.2,13.4,2.2c0.2,0.3,3.5,6.8,0.5,8.9
	c-0.1,0.1-0.2,0.2-0.4,0.2c-3.6,1.9-20.7-1.5-21.7-8.3C673,508,676,507.1,679.1,507L679.1,507z M612.9,510.3
	c5.9-0.4,12.4,3.2,13.2,3.6c0,0,0,0,0,0c0,0.2-0.2,6.5-0.2,6.5s-11.6-3.2-15.3-9.7C611.3,510.5,612.1,510.4,612.9,510.3L612.9,510.3
	z M724.8,511.2c6.6,0,14.5,1.5,15.6,3.7c0.2,0.5,0.2,0.9-0.3,1.5c-3.2,3.9-21.7,0.4-21.7,0.4V512
	C720.1,511.5,722.4,511.2,724.8,511.2L724.8,511.2z"/>
</svg>
