<?xml version="1.0" encoding="utf-8"?>
<!-- Generator: Adobe Illustrator 23.1.0, SVG Export Plug-In . SVG Version: 6.00 Build 0)  -->
<svg version="1.1" id="Layer_1" xmlns="http://www.w3.org/2000/svg" xmlns:xlink="http://www.w3.org/1999/xlink" x="0px" y="0px"
	 viewBox="0 0 1050 700" style="enable-background:new 0 0 1050 700;" xml:space="preserve">
<style type="text/css">
	.st0{fill:#FFFFFF;}
	.st1{fill:#007168;}
	.st2{fill:#FCE100;}
	.st3{fill:#D21034;}
	
		.st4{fill-rule:evenodd;clip-rule:evenodd;fill:#FFFFFF;stroke:#000000;stroke-width:1.8371;stroke-linecap:round;stroke-linejoin:round;stroke-miterlimit:5.0389;}
	.st5{fill:none;stroke:#000000;stroke-width:1.8371;stroke-linecap:round;stroke-linejoin:round;stroke-miterlimit:5.0389;}
	.st6{stroke:#000000;stroke-width:1.8371;stroke-linecap:round;stroke-linejoin:round;stroke-miterlimit:5.0389;}
	
		.st7{fill-rule:evenodd;clip-rule:evenodd;stroke:#000000;stroke-width:1.8371;stroke-linecap:round;stroke-linejoin:round;stroke-miterlimit:5.0389;}
</style>
<rect y="0" width="1050" height="700"/>
<rect y="0" class="st0" width="1050" height="240.6"/>
<rect y="0" class="st1" width="1050" height="218.7"/>
<rect y="459.1" class="st0" width="1050" height="240.9"/>
<rect y="481.2" class="st2" width="1050" height="218.7"/>
<path class="st3" d="M0,0v700l459.4-350L0,0z"/>
<path class="st2" d="M238.4,481.2l-85.3-62.5l-85.2,62.5l33.1-100.5L15.1,319l105.8,0.4l32.2-100.7l32.3,100.7l105.7-0.5l-85.8,61.9
	L238.4,481.2z"/>
<path class="st4" d="M79,411.2h61.5c4.9,5.5,16,7.8,26.5-0.1c19.3-10.6,56.6,0.1,56.6,0.1l7.3-7.8L213,344.6l-6.4-6.9
	c0,0-13.8-8.3-39.9-5.5c-26.2,2.8-35.3-0.9-35.3-0.9s-22.9,2.8-29.4,6c-0.7,0.6-7.3,7.3-7.3,7.3L79,411.2z"/>
<path class="st5" d="M91.4,396c0,0,58.7-7.3,75.7,15.1c-9.6,6.6-18,7.1-27.1,0.5c1.4-2.4,21.1-22.9,71.1-16.1"/>
<path class="st6" d="M154.3,337.3l-0.5,64.7 M206.6,338.2l11,51.4 M102.6,337.4l-6.1,26.5"/>
<path class="st7" d="M39.1,418.2l14.5,17c1.7,1,3.2,0.9,4.7,0l21.4-25.7l9-11.1c1.4-1.7,1.8-3.5,1.7-5.1l17.2-15.3
	c1.4,0.1,2.2,0.3,3.7,0.4c-1.7-0.4-2.9-1.2-1.6-3.1l3.9-3l3,3.9c0,0-4.3,5.6-4.7,5.6c-0.4,0-4.7,0-4.7,0l-9,8.1l3.9,3.5l5.9,16.2
	l7.3-5.1l-4.7-16.7l10.3-11.1l-3.9-6l2.6-3.4c0,0,35.6,22.4,49.3,16.4c0.4,0.1,0.8-16,0.8-16s-36.9-3.9-37.7-11.1
	c-0.9-7.3,8.1-8.1,8.1-8.1l-3.9-5.6l0.9-3l6.4,8.1l14.6-12.4l85.7,97.7c4.7-1.9,5.7-3,6-7.7c-0.1-0.1-84-96.4-84-96.4l6.4-6.9
	c1.3-1.4,1.7-2,1.7-4.3l9.9-8.6c3,1,4.9,2.8,6.4,5.1l27.1-23c0.7,0.7,2.9,1.4,4.4,0.6l44.8-43l-48.8,34.5l-1.7-1.3
	c0-1.4,1.8-1.8,0-4.3c-1.9-2.3-4.7,2.1-5.1,2.1c-0.4,0-7.1-2.3-8.5-5.3l-0.5,7.9l-12.4,11.6l-9.4-0.4L166.3,307l-1.7,5.1l2.1,4.3
	c0,0-7.3,6.4-7.3,6c0-0.4-1.5-1.9-1.5-2.1l6.3-5.6l0.9-3.9l-2.1-3.3c-0.6,0.5-8.6,8.8-9.1,8c-0.7-0.8-23.1-26.1-23.1-26.1l1.3-4.7
	l-14.6-15.9c-5.3-1.8-13.7-2.1-15.4,9.4c-1.3,2.7-12.4,0.4-12.4,0.4l-6,1.3l-33.9,48l18.9,22.7l38.6-48.9l1.1-13.8l8.1,9
	c2.7,0.3,5.3,0.4,7.7-0.9l22.9,25.5l-3.8,3.7c1.3,1.4,2.2,2.3,3.5,3.8c1.3-0.9,2.5-1.9,3.8-2.7c0.4,0.6,1.1,1.7,1.6,2.2
	c-1.9,1-3.3,2.4-5.2,3.5c-3.1-2-6-4.5-5.8-8.4l-12.9,10.7l-0.4,2.1l-38.1,31.7l-3.4,0.4l-0.9,9.9l24.9-20.6v-3l2.6,2.1l19.3-15.4
	c0,0,1.3,1.7,0.9,1.7c-0.4,0-17.1,15.4-17.1,15.4l-0.4,1.7l-3,2.6l-1.7-1.3l-23.1,20.6H84l-12.9,12.9c-3.3,0.3-6.2,0.6-9,2.6
	L39.1,418.2z"/>
</svg>
