<svg id="Layer_1" data-name="Layer 1" xmlns="http://www.w3.org/2000/svg" width="370.42mm" height="246.94mm" viewBox="0 0 1050 700">
  <defs>
    <style>
      .cls-1 {
        fill: #ed2939;
      }

      .cls-2 {
        fill: #fff;
      }
    </style>
  </defs>
  <rect class="cls-1" width="1050" height="700"/>
  <rect class="cls-2" y="350" width="1050" height="350"/>
  <path class="cls-2" d="M360.13,175A131.62,131.62,0,1,1,228.52,43.39,131.61,131.61,0,0,1,360.13,175Z" transform="translate(0 0)"/>
  <path class="cls-1" d="M401.49,175A124.38,124.38,0,1,1,277.11,50.62,124.38,124.38,0,0,1,401.49,175Z" transform="translate(0 0)"/>
  <path id="star" class="cls-2" d="M244.8,178.18l-17.88-13.72-17.87,13.72,6.88-22.12L198,142.43l22.13,0,6.79-22.15,6.79,22.15,22.14-.06-17.93,13.64Z" transform="translate(0 0)"/>
  <path class="cls-2" d="M385.09,178.18l-17.88-13.72-17.87,13.72,6.88-22.12-17.94-13.63,22.14,0,6.79-22.15L374,142.48l22.14-.06L378.2,156.06Z" transform="translate(0 0)"/>
  <path class="cls-2" d="M315,126.11l-17.88-13.72-17.87,13.73L286.15,104,268.21,90.37l22.13,0,6.79-22.14,6.8,22.14,22.13,0L308.13,104Z" transform="translate(0 0)"/>
  <path class="cls-2" d="M271.05,261.48l-17.88-13.71L235.3,261.49l6.88-22.12-17.93-13.63,22.13,0,6.79-22.15L260,225.78l22.14-.05-17.94,13.64Z" transform="translate(0 0)"/>
  <path class="cls-2" d="M358.84,261.48,341,247.77l-17.87,13.72L330,239.37,312,225.74l22.14,0L341,203.64l6.79,22.14,22.14-.05L352,239.37Z" transform="translate(0 0)"/>
</svg>
