<svg id="Layer_1" data-name="Layer 1" xmlns="http://www.w3.org/2000/svg" width="246.94mm" height="246.94mm" viewBox="0 0 700 700">
  <defs>
    <style>
      .cls-1, .cls-3, .cls-9 {
        fill: #fff;
      }

      .cls-10, .cls-2, .cls-4 {
        fill: #ffe000;
      }

      .cls-10, .cls-11, .cls-3, .cls-4, .cls-5, .cls-6, .cls-7, .cls-8, .cls-9 {
        stroke: #000;
        stroke-linejoin: round;
      }

      .cls-3, .cls-4, .cls-5, .cls-6 {
        stroke-linecap: round;
      }

      .cls-10, .cls-11, .cls-3, .cls-4, .cls-6, .cls-7, .cls-8, .cls-9 {
        stroke-width: 0.9px;
      }

      .cls-5 {
        fill: red;
        stroke-width: 1.12px;
      }

      .cls-6, .cls-8 {
        fill: none;
      }

      .cls-7 {
        fill: #ccc;
      }

      .cls-11 {
        fill: #fa0204;
      }
    </style>
  </defs>
  <rect class="cls-1" width="700" height="700"/>
  <rect class="cls-2" width="350" height="700"/>
  <g id="coa">
    <g id="tiara">
      <g id="band">
        <path class="cls-3" d="M498.7,277.28l4.51,1.08,7.18,1.16,3.3.37-.58,14s-.79,9.29-2.16,13.71a66.72,66.72,0,0,1-4.42,9.29l-2.15,3.29-12.69-11a44.89,44.89,0,0,0,2.95-4.76,55,55,0,0,0,2.15-6.69l1.25-7.25.68-9.17Zm-16,42.41,11.56,10.09a22,22,0,0,1-3.74,2.72,20.77,20.77,0,0,1-8.84,2,16.51,16.51,0,0,1-6.26-1.73c-4.4-2-9.25-4.13-12.08-8.05a8.29,8.29,0,0,1-1.37-4.95c0-1.94,1.76-5.55,1.76-5.55a12.86,12.86,0,0,0,1.43,3.36,13.88,13.88,0,0,0,4.93,3.47,12,12,0,0,0,4.34,1.21,13.72,13.72,0,0,0,5.78-.91,13.08,13.08,0,0,0,2.49-1.7Z" transform="translate(0 0)"/>
        <path class="cls-3" d="M464.42,245.75a23.73,23.73,0,0,1,1.2,2.83,18.82,18.82,0,0,1,.81,5.21,20.61,20.61,0,0,1-.89,5.21,47.9,47.9,0,0,1-2.88,7.37c-.71,1.51-1.7,2.89-2.4,4.4-1.15,2.45-2,5-3,7.54-.84,2.08-1.92,4.09-2.56,6.24a79.4,79.4,0,0,0-2.32,16.51,47.27,47.27,0,0,0,.64,9.13,33.88,33.88,0,0,0,2.72,8.65,24.68,24.68,0,0,0,4.17,6,21.8,21.8,0,0,0,4.72,3.77,34.71,34.71,0,0,0,5,2.16c2.35.93,7.12,2.61,7.12,2.61s-6.59-3.24-8.88-6a19.19,19.19,0,0,1-3.61-8.1,32,32,0,0,1-.32-10.25,54,54,0,0,1,2.57-10.74c1.17-3.7,2.82-7.23,4.32-10.81,1.08-2.58,2.32-5.1,3.37-7.69,1.23-3.07,2.45-6.14,3.44-9.3a26.66,26.66,0,0,0,1.52-5.85,21.16,21.16,0,0,0-.61-6.53,24.8,24.8,0,0,0-3.31-8.59,11.59,11.59,0,0,0-4.13-3.68,8.52,8.52,0,0,0-5.29-1.16,4.22,4.22,0,0,0-1.48,1Z" transform="translate(0 0)"/>
        <path class="cls-3" d="M479.24,264.77a67.47,67.47,0,0,0,1.46-7.62,34.87,34.87,0,0,0-.17-6.62,25.7,25.7,0,0,0-1.36-7.26,19,19,0,0,0-4.36-6.28,19.26,19.26,0,0,0-6.34-4.08,25.85,25.85,0,0,0-7.82-1.36,36,36,0,0,0-6.8.34,19.35,19.35,0,0,0-3.85.79,28,28,0,0,0-3.29,1.59L455.1,248a22.77,22.77,0,0,1,4.08-1.93,15.45,15.45,0,0,1,4.75-.34,13.42,13.42,0,0,1,4.76.91,15.93,15.93,0,0,1,4.92,3.72,20.75,20.75,0,0,1,4.18,6.15,27.16,27.16,0,0,1,1.33,6.78c.07.5.12,1.5.12,1.5Z" transform="translate(0 0)"/>
        <path class="cls-4" d="M480.77,253.87s-1.49-4.64-2.9-6.57a18,18,0,0,0-6.23-5.56C469,240.43,463,240,463,240l3.2,5.92-5.59-.14-2.92-4.88-5.39,2.44L449.58,239l5.72-2.65-2.63-4.26,5.71-.54,2.49,4.12a46,46,0,0,1,6.61.46,15.74,15.74,0,0,1,7.72,4,18.3,18.3,0,0,1,3.32,4,28.64,28.64,0,0,1,1.83,4.68Z" transform="translate(0 0)"/>
        <path class="cls-4" d="M442.86,236.63l8.93,13m-5-15.33-4.21,2.47-4,3,8.65,13.22,3.84-3,4-2.29Z" transform="translate(0 0)"/>
        <path class="cls-4" d="M463.06,290l5-10.33,5.36,2.13,2.17-5.34L470.27,274l2.76-6-3.92-1.76-3,5.73-5.37-2.25-2.36,5.59,5.21,2.19-4.81,10.25Z" transform="translate(0 0)"/>
        <path class="cls-4" d="M503.14,287l5.1-.11v5.89l4.9.23-.83,6-4.58-.29a43.76,43.76,0,0,1-1.43,5.18,45.51,45.51,0,0,1-2.71,4.88l-5.44-1.36a54.57,54.57,0,0,0,2.72-4.76c.67-1.49,1.59-4.65,1.59-4.65l-5.59-.7,1-5.66,5.06.36Z" transform="translate(0 0)"/>
      </g>
      <g>
        <path class="cls-3" d="M542.27,277.28l-4.51,1.08-7.19,1.16-3.29.37.58,14s.79,9.29,2.16,13.71a67.06,67.06,0,0,0,4.41,9.29l2.16,3.29,12.69-11a43.23,43.23,0,0,1-2.95-4.76,55,55,0,0,1-2.15-6.69l-1.25-7.25-.68-9.17Zm16,42.41-11.56,10.09a22,22,0,0,0,3.74,2.72,20.73,20.73,0,0,0,8.84,2,16.41,16.41,0,0,0,6.25-1.73c4.41-2,9.25-4.13,12.09-8.05a8.29,8.29,0,0,0,1.37-4.95c0-1.94-1.76-5.55-1.76-5.55a12.65,12.65,0,0,1-1.44,3.36,13.76,13.76,0,0,1-4.92,3.47,12,12,0,0,1-4.34,1.21,13.72,13.72,0,0,1-5.78-.91,12.74,12.74,0,0,1-2.49-1.7Z" transform="translate(0 0)"/>
        <path class="cls-3" d="M576.55,245.75a23.23,23.23,0,0,0-1.21,2.83,18.8,18.8,0,0,0-.8,5.21,20.6,20.6,0,0,0,.88,5.21,47.94,47.94,0,0,0,2.89,7.37c.7,1.51,1.69,2.89,2.4,4.4,1.14,2.45,2,5,3,7.54.84,2.08,1.92,4.09,2.56,6.24a79.4,79.4,0,0,1,2.32,16.51,47.27,47.27,0,0,1-.64,9.13,33.88,33.88,0,0,1-2.72,8.65,24.68,24.68,0,0,1-4.17,6,22,22,0,0,1-4.72,3.77,35.18,35.18,0,0,1-5,2.16c-2.35.93-7.12,2.61-7.12,2.61s6.58-3.24,8.88-6a19.19,19.19,0,0,0,3.61-8.1,32,32,0,0,0,.32-10.25,54,54,0,0,0-2.57-10.74c-1.17-3.7-2.82-7.23-4.32-10.81-1.08-2.58-2.32-5.1-3.37-7.69-1.24-3.07-2.45-6.14-3.44-9.3a26.66,26.66,0,0,1-1.52-5.85,21.15,21.15,0,0,1,.6-6.53,24.82,24.82,0,0,1,3.32-8.59,11.59,11.59,0,0,1,4.13-3.68,8.51,8.51,0,0,1,5.28-1.16,4.28,4.28,0,0,1,1.49,1Z" transform="translate(0 0)"/>
        <path class="cls-3" d="M561.72,264.77a68.23,68.23,0,0,1-1.45-7.62,34.07,34.07,0,0,1,.17-6.62,25.69,25.69,0,0,1,1.35-7.26,19.55,19.55,0,0,1,10.71-10.36,25.85,25.85,0,0,1,7.82-1.36,36,36,0,0,1,6.8.34,19.35,19.35,0,0,1,3.85.79,28,28,0,0,1,3.29,1.59L585.87,248a22.77,22.77,0,0,0-4.08-1.93,15.51,15.51,0,0,0-4.76-.34,13.41,13.41,0,0,0-4.75.91,15.93,15.93,0,0,0-4.92,3.72,20.78,20.78,0,0,0-4.19,6.15,27.61,27.61,0,0,0-1.32,6.78c-.07.5-.13,1.5-.13,1.5Z" transform="translate(0 0)"/>
        <path class="cls-4" d="M560.19,253.87s1.5-4.64,2.91-6.57a18,18,0,0,1,6.23-5.56C572,240.43,578,240,578,240l-3.2,5.92,5.59-.14,2.92-4.88,5.39,2.44,2.68-4.38-5.72-2.65,2.63-4.26-5.72-.54-2.49,4.12a45.91,45.91,0,0,0-6.6.46,15.74,15.74,0,0,0-7.72,4,18.3,18.3,0,0,0-3.32,4,29,29,0,0,0-1.84,4.68Z" transform="translate(0 0)"/>
        <path class="cls-4" d="M598.11,236.63l-8.93,13m5-15.33,4.21,2.47,4,3-8.65,13.22-3.85-3L586,247.81Z" transform="translate(0 0)"/>
        <path class="cls-4" d="M577.91,290l-5-10.33-5.36,2.13-2.17-5.34L570.7,274l-2.77-6,3.93-1.76,3,5.73,5.38-2.25,2.36,5.59-5.21,2.19,4.8,10.25Z" transform="translate(0 0)"/>
        <path class="cls-4" d="M537.83,287l-5.1-.11v5.89l-4.91.23.84,6,4.58-.29a41.81,41.81,0,0,0,1.43,5.18,45.51,45.51,0,0,0,2.71,4.88l5.44-1.36a54.57,54.57,0,0,1-2.72-4.76,46.84,46.84,0,0,1-1.59-4.65l5.58-.7-1-5.66-5.06.36Z" transform="translate(0 0)"/>
      </g>
      <path class="cls-3" d="M491.86,206l-7.67,8.24,4.72,14.26,2.71,10-7.76,7.23,14.2,19.73,45.15-4.33,14.5-15.55-5.53-5-.12-12.12,4.72-14.26-7.11-7.2-6.43-17.15a50.45,50.45,0,0,0-2.48-7,22.08,22.08,0,0,0-2.56-3.61,26.56,26.56,0,0,0-3.61-3.88,24.14,24.14,0,0,0-4.08-2.53,22.79,22.79,0,0,0-4.72-2.09,32.94,32.94,0,0,0-10.61,0,22.33,22.33,0,0,0-4.72,2.09,23.75,23.75,0,0,0-4.08,2.53,26.56,26.56,0,0,0-3.61,3.88,22.08,22.08,0,0,0-2.56,3.61,50.45,50.45,0,0,0-2.48,7Z" transform="translate(0 0)"/>
      <ellipse id="svg_167" data-name="svg 167" class="cls-5" cx="520.54" cy="272.17" rx="27.33" ry="8.11"/>
      <path class="cls-4" d="M549.71,261.28a16.42,16.42,0,0,0-1.38-1.12,17.58,17.58,0,0,0-3.35-1.7,36.8,36.8,0,0,0-4.87-1.31c-1.87-.43-3.75-.88-5.66-1.13a54.37,54.37,0,0,0-6.74-.45c-2.41,0-7.23.34-7.23.34s-4.8-.37-7.22-.34a54.24,54.24,0,0,0-6.74.45c-1.91.25-3.79.7-5.67,1.13a37.22,37.22,0,0,0-4.87,1.31,17.8,17.8,0,0,0-3.34,1.7,15.46,15.46,0,0,0-1.39,1.12m61.24-12a7,7,0,0,0-2.41-1.66,2.51,2.51,0,0,0-1.84.43,3.69,3.69,0,0,0-1.13,4.25,2.47,2.47,0,0,0,1.16,1.44c1.34.54,4.31-.56,4.31-.56Zm1.44-1a2.66,2.66,0,0,1,2.65,1.81m-68.1-.81-.09,3.9s3,1.1,4.31.56a2.47,2.47,0,0,0,1.16-1.44,3.7,3.7,0,0,0,.17-2.18,3.66,3.66,0,0,0-1.3-2.07,2.48,2.48,0,0,0-1.84-.43,6.94,6.94,0,0,0-2.41,1.66Zm-1.45-1a2.65,2.65,0,0,0-2.64,1.81m55.48.38-2.36-.27m-36.41.27,2.36-.27m21.28.23a6.67,6.67,0,0,1-2.13-1.18m-6.38,1.18a6.67,6.67,0,0,0,2.13-1.18m39.46-5.42a6,6,0,0,1-2,1.08l-.34.18a12.21,12.21,0,0,1-1,2.29,12.79,12.79,0,0,1-1.81,1.75,8.06,8.06,0,0,0-2.17-1.38,2.64,2.64,0,0,0-1.69.06,3.2,3.2,0,0,0-1.33,1.2,3.51,3.51,0,0,0-.72,2,6.32,6.32,0,0,0,1.09,2.29l-.73,1.26-1,.67a25,25,0,0,1-5.31-2.11,5.32,5.32,0,0,1-1.26-2.53,5,5,0,0,0,1.56-1.39,2.6,2.6,0,0,0,.06-2.35,2.88,2.88,0,0,0-2.34-1.15,2.6,2.6,0,0,0-2.48,2.72c.12.69,1.33,1.62,1.33,1.62s-.5,1.28-1.07,1.52a16.36,16.36,0,0,1-4.27,1.36,11,11,0,0,1-4.57,0,4.85,4.85,0,0,1-2.51-1.55,2.42,2.42,0,0,1-.24-.84,9.53,9.53,0,0,0,2.53-1,2.95,2.95,0,0,0,.79-4.76,5.12,5.12,0,0,0-2.11-1.69,4.55,4.55,0,0,0-1.21-.18l-.26.24a4.19,4.19,0,0,1-1.33,1.07l0,0-.05,0-.32.16-.21,0-.69.22a3.52,3.52,0,0,1,1.39.76,2,2,0,0,1,.3.93,3.05,3.05,0,0,1,.06.6,3.44,3.44,0,0,1-.2.93,2.62,2.62,0,0,1-.47,1,2.36,2.36,0,0,1-.44.39l0,0,0,0a3.73,3.73,0,0,1-.94.41,4,4,0,0,1-1.2,0,5,5,0,0,0,2.14-.43l.06,0a3.09,3.09,0,0,0,.91-1.37,3.58,3.58,0,0,0,.14-.65,5.17,5.17,0,0,0,0-.88,2.16,2.16,0,0,0-.62-1.16,5.45,5.45,0,0,0-5.27,0,2.16,2.16,0,0,0-.62,1.16,4.31,4.31,0,0,0,0,.88,3.58,3.58,0,0,0,.14.65,3,3,0,0,0,.91,1.37l.06,0a5,5,0,0,0,2.14.43,4,4,0,0,1-1.2,0,3.58,3.58,0,0,1-.94-.41l0,0,0,0a2.36,2.36,0,0,1-.44-.39,2.48,2.48,0,0,1-.47-1,3.1,3.1,0,0,1-.2-.93,2.45,2.45,0,0,1,.06-.6,2,2,0,0,1,.3-.93,3.52,3.52,0,0,1,1.39-.76l-.69-.22-.21,0-.32-.17h0l0,0a4,4,0,0,1-1.34-1.07l-.26-.24a4.55,4.55,0,0,0-1.21.18,5.06,5.06,0,0,0-2.11,1.69,3.76,3.76,0,0,0-.84,2.59,3.8,3.8,0,0,0,1.63,2.17,9.53,9.53,0,0,0,2.53,1,2.29,2.29,0,0,1-.25.84,4.77,4.77,0,0,1-2.51,1.55,11,11,0,0,1-4.56,0,16.36,16.36,0,0,1-4.27-1.36c-.57-.24-1.07-1.52-1.07-1.52s1.21-.93,1.32-1.62a2.57,2.57,0,0,0-2.46-2.71,2.88,2.88,0,0,0-2.36,1.14,2.66,2.66,0,0,0,.06,2.35,5.15,5.15,0,0,0,1.57,1.39,5.32,5.32,0,0,1-1.27,2.53,24.7,24.7,0,0,1-5.3,2.11l-1-.67-.73-1.26a6.32,6.32,0,0,0,1.09-2.29,3.45,3.45,0,0,0-.73-2,3.12,3.12,0,0,0-1.32-1.2,2.64,2.64,0,0,0-1.69-.06,8.06,8.06,0,0,0-2.17,1.38,6.6,6.6,0,0,1-2.83-4l-.34-.18a6,6,0,0,1-2-1.08l-1.25.27s-1.15.61-1.16,1.16c0,.75,1,1.09,1.52,1.68a19.08,19.08,0,0,1,1.16,1.56,6,6,0,0,1,1,1.56c.18.65-.28,1.4,0,2a2.91,2.91,0,0,0,1.88,1.68c.73.15,2.12-.72,2.12-.72l0,5.57,2.89,2.6,2.72,5.69-1.08,1.44.32,2.8c2.09-2.68,5.74-3.86,9-4.8,4.41-1.27,12.48-1.36,16.24-1.32,1.26,0,2,0,2,0s12.4-.41,18.27,1.28c3.27.94,6.91,2.12,9,4.8l.32-2.8L547,266.93l2.72-5.69,2.89-2.6,0-5.57s1.39.87,2.12.72a2.91,2.91,0,0,0,1.88-1.68c.27-.61-.18-1.36,0-2a6.2,6.2,0,0,1,1-1.56c.37-.53.75-1.06,1.17-1.56s1.54-.93,1.52-1.68c0-.55-1.17-1.16-1.17-1.16l-1.24-.27Zm-41.53-.73a8.15,8.15,0,0,0,1.34,1.07l.07,0a2.93,2.93,0,0,0,.53.21,8.08,8.08,0,0,0,2.25.07h0a8.08,8.08,0,0,0,2.25-.07,4,4,0,0,0,.53-.2.2.2,0,0,1,.08,0,8,8,0,0,0,1.33-1.07,2.65,2.65,0,0,0,.36-.6,3,3,0,0,0,0-2.44c-.43-.85-1.45-1.26-2.27-1.76a20.08,20.08,0,0,0-2.24-1.05,20.21,20.21,0,0,0-2.23,1.05c-.82.5-1.84.91-2.27,1.76a3,3,0,0,0-.06,2.44,3.13,3.13,0,0,0,.37.6Z" transform="translate(0 0)"/>
      <path class="cls-4" d="M554.61,232.34s-3-1.42-4.64-1.93a78.26,78.26,0,0,0-9-2c-3.49-.68-7.07-.86-10.54-1.67-1.09-.25-2.1-.77-3.2-1-1.51-.31-3.1-.81-4.61-.48a7.73,7.73,0,0,0-2.19,1.28,7.73,7.73,0,0,0-2.19-1.28c-1.5-.33-3.09.17-4.6.48-1.1.23-2.12.75-3.21,1-3.46.81-7,1-10.53,1.67a77.31,77.31,0,0,0-8.95,2c-1.6.51-4.65,1.93-4.65,1.93m55.29-12.63a9.34,9.34,0,0,0,2-1.42,2.65,2.65,0,0,0,.74-1.47,2.42,2.42,0,0,0-.62-1.81,2.54,2.54,0,0,0-1.76-.63,2.29,2.29,0,0,0-1.47.51,2.3,2.3,0,0,0-.47,3.07A9.22,9.22,0,0,0,541.64,219.71Zm-42.31,0a9.6,9.6,0,0,0,1.54-1.75,2.6,2.6,0,0,0,.38-1.48,2.53,2.53,0,0,0-.85-1.59,2.29,2.29,0,0,0-1.47-.51,2.54,2.54,0,0,0-1.76.63,2.46,2.46,0,0,0-.62,1.81,2.65,2.65,0,0,0,.74,1.47A9.34,9.34,0,0,0,499.33,219.71Zm-11.5,5-3.35,4.36a4.85,4.85,0,0,0,.23,1.64,6.76,6.76,0,0,0,1.64,1.59l.24,6-3.17,5.49-.27.05,2,1.08.28,0c1.22-.1,2-1.47,3-2.09a41.16,41.16,0,0,1,4.25-2c2-.83,4-1.6,6.09-2.24a50.59,50.59,0,0,1,7.93-2,38.79,38.79,0,0,1,6.19-.41c.69,0,1.37,0,2.06.08a51.65,51.65,0,0,1,5.45,1,52,52,0,0,1,5.46-1,39.27,39.27,0,0,1,8.25.33,50.59,50.59,0,0,1,7.93,2c2.07.64,4.09,1.41,6.09,2.24a41.16,41.16,0,0,1,4.25,2c1.06.62,1.82,2,3,2.09l.28,0,2-1.08-.28-.05-3.16-5.49.24-6a6.76,6.76,0,0,0,1.64-1.59,4.76,4.76,0,0,0,.22-1.64l-3.34-4.36a10.51,10.51,0,0,1-2.77,2,3.05,3.05,0,0,1-1.82,0,6,6,0,0,1-1.81-1.25,23.86,23.86,0,0,1-3.63-3.4,19.92,19.92,0,0,1-1.47-2.43s-3.61,2.84-5.78,3.4a12.63,12.63,0,0,1-6.57-.17,6.42,6.42,0,0,1-1.41-.86,13.53,13.53,0,0,0-14.79,0,6.42,6.42,0,0,1-1.41.86,12.67,12.67,0,0,1-6.58.17c-2.16-.56-5.77-3.4-5.77-3.4a19.12,19.12,0,0,1-1.48,2.43,23.33,23.33,0,0,1-3.62,3.4,6,6,0,0,1-1.82,1.25,3,3,0,0,1-1.81,0,10.51,10.51,0,0,1-2.77-2Z" transform="translate(0 0)"/>
      <path class="cls-4" d="M556.05,223a11.49,11.49,0,0,0,0-2.37,5.68,5.68,0,0,0-.88-2,11.82,11.82,0,0,0-1.58-1.63m-.4,7.75a4,4,0,0,0,1.36-.17,6.92,6.92,0,0,0,1.7-1.76s1.87,1.29,2.89,1.14a1.93,1.93,0,0,0,1.19-1,2.23,2.23,0,0,0,.34-1.58,2.12,2.12,0,0,0-.79-1c-.64-.54-1.79-.47-2.21-1.19a2.67,2.67,0,0,1,0-2,13.3,13.3,0,0,1,2.1-3.57c.49-.73,1.48-1.23,1.59-2.1,0-.47-.57-1.3-.57-1.3a9.44,9.44,0,0,0-2.15.17,7,7,0,0,0-3.14,1.71,8.16,8.16,0,0,0-1.23,2.71c-.27.7-.67,2.15-.67,2.15a8.19,8.19,0,0,0-2.44.34,4.81,4.81,0,0,0-2.44,2.15,3.46,3.46,0,0,0,0,2.55,4.24,4.24,0,0,0,1.7,1.93,9.86,9.86,0,0,0,2.72.79ZM487.42,217a12.45,12.45,0,0,0-1.58,1.63,6.07,6.07,0,0,0-.88,2,11.25,11.25,0,0,0,0,2.37m-4.74-12.73s-.63.83-.57,1.3c.1.87,1.1,1.37,1.59,2.1a13.54,13.54,0,0,1,2.09,3.57,2.62,2.62,0,0,1,.06,2c-.42.72-1.57.65-2.21,1.19a2.06,2.06,0,0,0-.79,1,2.18,2.18,0,0,0,.34,1.58,1.88,1.88,0,0,0,1.19,1c1,.15,2.88-1.14,2.88-1.14a7,7,0,0,0,1.71,1.76,4,4,0,0,0,1.35.17,9.89,9.89,0,0,0,2.73-.79,4.16,4.16,0,0,0,1.69-1.93,3.46,3.46,0,0,0,0-2.55,4.75,4.75,0,0,0-2.43-2.15,8.22,8.22,0,0,0-2.44-.34s-.41-1.45-.68-2.15a7.78,7.78,0,0,0-1.23-2.71,6.92,6.92,0,0,0-3.13-1.71,9.44,9.44,0,0,0-2.15-.17Zm38,4,2.33-.68,2.33.68m-4,5.63a9.42,9.42,0,0,1-2.16-2.78,2.13,2.13,0,0,1,.12-1.53,4.88,4.88,0,0,1,1.64-1.3,7.35,7.35,0,0,1-2.49-1.87,2.38,2.38,0,0,1-.17-1.76,4.66,4.66,0,0,1,1.64-2.26,13.1,13.1,0,0,1,3.14-1.48,13.29,13.29,0,0,1,3.15,1.48,4.73,4.73,0,0,1,1.64,2.26,2.43,2.43,0,0,1-.17,1.76,7.35,7.35,0,0,1-2.49,1.87,5,5,0,0,1,1.64,1.3,2.07,2.07,0,0,1,.11,1.53,9.44,9.44,0,0,1-2.15,2.78l-1.73.11Zm6.34-7.53s3.77,1.6,5,3.11a2.24,2.24,0,0,1,.62,1.53c-.12,1.95-2.89,5.1-2.89,5.1l-5.58-2.32h-3.62l-5.58,2.32s-2.76-3.15-2.89-5.1a2.34,2.34,0,0,1,.62-1.53c1.28-1.51,5-3.11,5-3.11" transform="translate(0 0)"/>
      <path class="cls-4" d="M516.42,187.39l2.26-1.74,1.82,0-1.87,0a5.19,5.19,0,0,1-1.28-1.2,2.6,2.6,0,0,1-.28-1.68,2.94,2.94,0,0,1,1.24-1.91,16.89,16.89,0,0,1,4.34,0,2.86,2.86,0,0,1,1.24,1.91,2.53,2.53,0,0,1-.28,1.68,5,5,0,0,1-1.28,1.2l-1.86,0,1.82,0,2.26,1.74m14.72,1.42-.75,1.3m9.14-5.6-2.11.28m2.39,2.46-3.23.17m-.42-3.85c.41.26,1.16.8,1.29,1.3a2.74,2.74,0,0,1-.88,2.56c-.67.56-2.59.42-2.59.42m-50.87,9.4s3.16-.79,4.74-1.17c2.27-.54,4.51-1.17,6.8-1.58a73.68,73.68,0,0,1,7.84-1c3.28-.23,9.86-.16,9.86-.16s6.58-.07,9.86.16a74.19,74.19,0,0,1,7.85,1c2.29.41,4.53,1,6.79,1.58,1.59.38,4.75,1.17,4.75,1.17m-48-8.44.75,1.3m-9.14-5.6,2.1.28M493,187.25l3.22.17m-1.81,4.5s3.51-.89,5.29-1.26c1.94-.4,3.88-.79,5.85-1,2.25-.29,4.53-.44,6.81-.54,2.69-.13,8.09-.1,8.09-.1s5.4,0,8.1.1c2.27.1,4.55.25,6.81.54,2,.25,3.91.64,5.85,1,1.77.37,5.28,1.26,5.28,1.26m-47.66-4.07s-1.92.14-2.59-.42a2.74,2.74,0,0,1-.88-2.56c.17-.69,1.55-1.46,1.55-1.46m17.68,20.72a82.32,82.32,0,0,0-10,1,61.44,61.44,0,0,0-10.14,2.72c-3.11,1.14-6.4,6.34-9,4.26-.56-.45.21-1.42.48-2.08a12.19,12.19,0,0,1,2.16-3.53c.68-.75,2.23-.85,2.4-1.84.13-.72-1-1.15-1.2-1.84a4.82,4.82,0,0,1-.16-2.81c.35-1.15,1.83-1.73,2.16-2.88.3-1-.71-2.19-.24-3.13.6-1.17,3.18-.77,3.37-2.08.09-.64-1.07-.83-1.28-1.44-.15-.43.08-.91.08-1.36a4.4,4.4,0,0,0-.16-1.85c-.24-.49-1-.59-1.2-1.12a1.58,1.58,0,0,1,.32-1.52c.29-.29,1,.12,1.2-.24.37-.73-.71-1.49-1-2.24a16.2,16.2,0,0,1-1.13-2.73c-.17-.75-.82-1.92-.16-2.32s1.54.91,2.25,1.44a10.73,10.73,0,0,1,2.64,2.33c.47.7.21,1.82.83,2.4s2.17.13,2.94.8a2.7,2.7,0,0,1,1,2.4c-.2.81-2.11.79-1.92,1.61s1.9.89,2.88.72c.57-.1,1-.63,1.44-1a6.92,6.92,0,0,1,1.08-.81,6.49,6.49,0,0,1,1.53-.26l-.61-.14s-.88-.7-1-1.22a1.78,1.78,0,0,1,.46-1.4,2.14,2.14,0,0,1,1.55-.6,1.8,1.8,0,0,1,1.28.52,1.78,1.78,0,0,1,.46,1.34,1.69,1.69,0,0,1-.64,1.06,3.51,3.51,0,0,1-1.28.4l.64.18,1.72,2.37,7.43-.41s.92-.93.74-1.44-.7-.75-1.59-.71c-2.4.1-2.89-1.91-2.8-3.37.07-1.22,1.53-2,2.66-2.5s3,1,3.51-.05-1.63-1.41-2-2.38a1.8,1.8,0,0,1,0-1.33,5.24,5.24,0,0,1,2.64-2.16,5.3,5.3,0,0,1,1.41-.22,5.41,5.41,0,0,1,1.42.22,5.25,5.25,0,0,1,2.63,2.16,1.8,1.8,0,0,1,.06,1.33c-.33,1-2.39,1.45-2,2.38s2.43-.38,3.52.05,2.58,1.28,2.66,2.5c.09,1.46-.4,3.47-2.8,3.37-.89,0-1.4.16-1.59.71s.74,1.44.74,1.44l7.43.41,1.72-2.37.64-.18a3.51,3.51,0,0,1-1.28-.4,1.61,1.61,0,0,1-.64-1.06,1.74,1.74,0,0,1,.46-1.34,1.78,1.78,0,0,1,1.28-.52,2.14,2.14,0,0,1,1.54.6,1.71,1.71,0,0,1,.46,1.4c-.09.52-1,1.22-1,1.22l-.6.14a6.36,6.36,0,0,1,1.52.26,6.48,6.48,0,0,1,1.08.81c.48.33.88.86,1.45,1,1,.17,2.66.24,2.88-.72s-1.73-.8-1.92-1.61a2.7,2.7,0,0,1,1-2.4c.77-.67,2.2-.11,2.94-.8s.35-1.7.82-2.4a10.78,10.78,0,0,1,2.65-2.33c.71-.53,1.48-1.89,2.24-1.44s0,1.57-.16,2.32a16.15,16.15,0,0,1-1.12,2.73c-.33.75-1.42,1.51-1,2.24.18.36.91,0,1.2.24a1.58,1.58,0,0,1,.32,1.52c-.17.53-1,.63-1.2,1.12a4.4,4.4,0,0,0-.16,1.85c0,.45.23.93.08,1.36-.21.61-1.38.8-1.28,1.44.19,1.31,2.76.91,3.36,2.08.47.94-.53,2.13-.24,3.13.34,1.15,1.82,1.73,2.16,2.88a4.74,4.74,0,0,1-.16,2.81c-.23.69-1.32,1.12-1.2,1.84.17,1,1.73,1.09,2.41,1.84a12.19,12.19,0,0,1,2.16,3.53c.27.66,1,1.63.48,2.08-2.58,2.08-5.88-3.12-9-4.26a61.18,61.18,0,0,0-10.14-2.72,82,82,0,0,0-10-1c-2-.12-5.87-.11-5.87-.11s-3.9,0-5.86.11Z" transform="translate(0 0)"/>
      <path class="cls-4" d="M523.34,166.71l-2.86,0-2.85,0m4.74-9.48c.74-1.57-.55-2.73-1.89-3.88-1.33,1.15-2.62,2.31-1.88,3.88m3.93,13.08c1.09.08,2.42,1.19,3.25.48.37-.32.19-1,0-1.48-.44-1.07-2.36-1.3-2.45-2.44s1.46-1.46,1.77-2.41a2.21,2.21,0,0,0,0-1.48c-.77-1.84-4.06-1.95-4.63-3.83-.25-.84,1.66-1.82,1.9-1.92,1.22-.53,2.72.74,3.92.22.81-.35,1.72-1.16,1.7-2s-1-1.77-1.93-2.15c-1.71-.75-4.54,1.65-5.59.11s2.42-3.1,2-4.76c-.22-.78-2-1.47-2-1.47s-1.73.68-2,1.47c-.45,1.66,2.94,3.34,2,4.76s-3.88-.86-5.59-.11c-.89.38-1.91,1.19-1.93,2.15s.89,1.69,1.7,2c1.2.52,2.7-.75,3.92-.22.24.1,2.15,1.08,1.9,1.92-.57,1.88-3.86,2-4.63,3.83a2.21,2.21,0,0,0,0,1.48c.31.95,1.84,1.41,1.76,2.41s-2,1.37-2.44,2.44c-.19.45-.37,1.16,0,1.48.83.71,2.15-.4,3.25-.48.68-.05,2,0,2,0S521.85,170.26,522.53,170.31Z" transform="translate(0 0)"/>
      <path class="cls-6" d="M547.05,267s-2-.85-3-1.22c-1.85-.66-3.71-1.29-5.61-1.81a38.22,38.22,0,0,0-5.61-1.25,109.61,109.61,0,0,0-12.32-.05,109.59,109.59,0,0,0-12.32.05,38.38,38.38,0,0,0-5.6,1.25c-1.9.52-3.77,1.15-5.61,1.81-1,.37-3,1.22-3,1.22m56.53-62.3s-3.34-1.33-5-1.92c-1.43-.5-2.86-1-4.33-1.37-1.79-.43-3.62-.71-5.45-1q-3.95-.54-7.92-.78c-2.41-.14-7.23-.17-7.23-.17s-4.81,0-7.22.17q-4,.24-7.92.78c-1.83.25-3.66.53-5.45,1-1.47.36-2.9.87-4.33,1.37-1.7.59-5.05,1.92-5.05,1.92m-4,33.71s4.92-1.65,7.39-2.42,5.09-1.7,7.71-2.27a89.4,89.4,0,0,1,9.52-1.36c3.09-.33,9.31-.68,9.31-.68s6.22.35,9.32.68a89.4,89.4,0,0,1,9.52,1.36c2.62.57,5.15,1.47,7.7,2.27s7.4,2.42,7.4,2.42" transform="translate(0 0)"/>
    </g>
    <g id="silverkey">
      <g id="keybase">
        <path class="cls-7" d="M429.32,253.13l28.33,24.28s-1.44,3.14-2,4.76a38.14,38.14,0,0,0-1.44,4.55c-.55,2.28-1.16,6.94-1.16,6.94l-33-30.25c.46-6.91,4.35-9.38,9.33-10.28Z" transform="translate(0 0)"/>
        <path class="cls-7" d="M425.32,268.29l-6.8,7.61,4.24,4.09-6.57,6.41L412,282.15l-7.15,7.62-.06,9.44L421,312l5.61-4.16-.32-9.06,4.32,2.41,4.33-2.65.24,8.18-3.52-2.57-3.85,5-.4,9L439.67,329l14.85-13.18-1.12-4-.65-3.55-.35-7,.56-7.68Z" transform="translate(0 0)"/>
        <path class="cls-7" d="M418.52,275.9l-.18,8.4,4.38-4.27Z" transform="translate(0 0)"/>
        <path class="cls-8" d="M440.14,319.32l-.51,9.59m-5.21-39.11.18,8.9m-4.15-4.85.24,7.24m-4-10.17.15,8.1m-6,4.26.08,8.58m6.93-2.71,12.34,10.34,12.61-11.08m-47.88-18.72L421,303.46l5.29-4.72-4.17-3.53,4.65-4.41,3.6,3.13,4.09-4.17,5.29,5.13-4.8,3.77,4.48,4.08-4.25,3.93" transform="translate(0 0)"/>
        <path class="cls-7" d="M532.38,344.22,546,356.7l3,8.8-17.54-1.87-10-9.88-10.63-9.85-45.93-39.79s1-3.67,1.58-5.47c.87-2.6,1.92-5.15,3-7.69.26-.64.81-1.9.81-1.9l51.25,45.43Z" transform="translate(0 0)"/>
        <path class="cls-7" d="M544,346.09c7.58,10.6,20.35,20.62,24.23,25.44s6.37,9.39.72,15.55-12.06,2.66-17.12-.73S537.89,372,525.26,363.57Z" transform="translate(0 0)"/>
        <path class="cls-7" d="M539.48,363.93l-9.85-4.45m11.46-10.72c.68,2.23.16,4.7,1,6.84s3.93,5.59,3.93,5.59a18.46,18.46,0,0,0-2.87.63c-1.33.52-3.35.76-3.69,2.14-.3,1.21,1.13,2.25,2,3.16a12.51,12.51,0,0,0,2.89,2.1,17.15,17.15,0,0,0,5.43,2.5c2.45.44,7-3,7.46-.55.18,1-2.07.36-3,.82-2.17,1.07-3.26,3.39-1.35,5,1.23,1,3.16.66,4.76.79s3.29-.77,4.63,0c1.57.91,3.55,3.1,2.71,4.72s-4.05,1.61-5.58.53c-1.12-.8-.82-2.65-1-4a10.1,10.1,0,0,1,0-1.23" transform="translate(0 0)"/>
        <circle class="cls-7" cx="603.31" cy="414.44" r="36.31" transform="translate(97.58 943.57) rotate(-80.78)"/>
        <path class="cls-9" d="M589.72,416a11.34,11.34,0,1,0,11.33,11.34l3.93-.18a11.33,11.33,0,1,0,11.33-11.33l.17-2.22a11.34,11.34,0,1,0-11.33-11.34l-3.93-.34a11.34,11.34,0,1,0-11.33,11.34Z" transform="translate(0 0)"/>
        <circle class="cls-7" cx="603.31" cy="404.89" r="4.09"/>
        <circle class="cls-7" cx="613.02" cy="414.44" r="4.09"/>
        <circle class="cls-7" cx="603.48" cy="423.14" r="4.09"/>
        <circle class="cls-7" cx="593.42" cy="414.44" r="4.09"/>
        <path class="cls-9" d="M602.62,436.36c-1.49,3.06-3.53,4.46-6.13,6.13,3.71,1.62,8.23,1.32,12.27,0A14.91,14.91,0,0,1,602.62,436.36Zm-21.44-22.47c-3.07-1.49-4.46-3.53-6.14-6.14-1.61,3.71-1.31,8.24,0,12.28a15,15,0,0,1,6.14-6.14Zm44.59,1c3.07-1.49,4.46-3.53,6.14-6.13,1.61,3.71,1.31,8.23,0,12.27a14.93,14.93,0,0,0-6.14-6.14Zm-21.95-22.63c-1.5-3.07-3.54-4.46-6.14-6.14,3.71-1.61,8.23-1.31,12.27,0A14.86,14.86,0,0,0,603.82,392.28Z" transform="translate(0 0)"/>
      </g>
      <g id="keydeco">
        <path class="cls-10" d="M429.37,253.07a6.84,6.84,0,0,0,0-2.08,6.29,6.29,0,0,0-1.84-2.85,5.41,5.41,0,0,0-2.56-1.28,6.91,6.91,0,0,0-3.09.24A11.13,11.13,0,0,0,420,248l-4.16,1.71-1.54,4.95a13.48,13.48,0,0,0-1.1,2.42A6,6,0,0,0,413,260a5.54,5.54,0,0,0,1.76,2.84,5.18,5.18,0,0,0,2.89,1.12,7.73,7.73,0,0,0,2.32-.52c.44-5.21,2.76-9.18,9.37-10.33Z" transform="translate(0 0)"/>
        <path class="cls-10" d="M420.07,248l-10.85-4.77-.88.85,5.92,10.69s1.65-2.44,2.62-3.56,3.19-3.21,3.19-3.21Z" transform="translate(0 0)"/>
        <circle class="cls-10" cx="408.04" cy="242.27" r="4.47"/>
        <path class="cls-10" d="M438.53,261c1,7.83,2.05,15.65,4.49,23.48l8.7,8c-1.86-8.19-5.17-16.37-5.14-24.56Z" transform="translate(0 0)"/>
        <path class="cls-10" d="M451.65,272.28l-23.93-1.79,7.61,7,21.86.95.32-1.12Z" transform="translate(0 0)"/>
        <path class="cls-10" d="M481.14,298.74c-6.28,2.37-8.8,6.24-10.6,10.4-1.78.16-3.45.18-4-1.15,1.49-9.72,8.45-12.76,10-13.37C480.7,293.83,479.93,297.1,481.14,298.74Z" transform="translate(0 0)"/>
        <path class="cls-10" d="M488.85,306c-6.29,2.37-8.8,6.25-10.6,10.41-1.78.15-3.45.17-4-1.16,1.5-9.72,8.46-12.75,10-13.37,4.19-.79,3.41,2.48,4.63,4.12Z" transform="translate(0 0)"/>
        <path class="cls-10" d="M576.42,379.31a20.71,20.71,0,0,0-4.22.42c.09,2.25-.82,4.65-3.3,7.35a9.34,9.34,0,0,1-6.63,3.37h0s-.8,4.94.72,6.51c1.78,1.84,7.6,1.09,7.6,1.09l.49-.32A36.17,36.17,0,0,1,580,386.59l.09-.35s.85-4.63-.6-6a2.37,2.37,0,0,0-3.09,0Z" transform="translate(0 0)"/>
        <circle class="cls-10" cx="631.26" cy="385.12" r="4.94"/>
        <circle class="cls-10" cx="632.97" cy="442.4" r="4.94"/>
        <circle class="cls-10" cx="577.39" cy="445.64" r="4.94" transform="translate(45.02 944.19) rotate(-80.78)"/>
      </g>
    </g>
    <g id="goldkey">
      <g>
        <path class="cls-10" d="M611.79,253.13l-28.33,24.28s1.44,3.14,2,4.76a38.14,38.14,0,0,1,1.44,4.55c.55,2.28,1.16,6.94,1.16,6.94l33-30.25c-.46-6.91-4.35-9.38-9.33-10.28Z" transform="translate(0 0)"/>
        <path class="cls-10" d="M615.79,268.29l6.8,7.61L618.35,280l6.57,6.41,4.24-4.25,7.15,7.62.06,9.44L620.11,312l-5.61-4.16.32-9.06-4.32,2.41-4.33-2.65-.24,8.18,3.52-2.57,3.85,5,.4,9L601.44,329l-14.85-13.18,1.12-4,.65-3.55.35-7-.56-7.68Z" transform="translate(0 0)"/>
        <path class="cls-10" d="M622.59,275.9l.18,8.4L618.39,280Z" transform="translate(0 0)"/>
        <path class="cls-8" d="M601,319.32l.51,9.59m5.21-39.11-.18,8.9m4.15-4.85-.24,7.24m4-10.17-.15,8.1m6,4.26-.08,8.58m-6.93-2.71L601,319.49l-12.61-11.08m47.88-18.72-16.12,13.77-5.29-4.72,4.17-3.53-4.65-4.41-3.6,3.13-4.09-4.17-5.29,5.13,4.8,3.77-4.48,4.08,4.25,3.93" transform="translate(0 0)"/>
        <path class="cls-10" d="M508.73,344.22,495.12,356.7l-3,8.8,17.54-1.87,10-9.88,10.63-9.85,45.93-39.79s-1-3.67-1.58-5.47c-.87-2.6-1.92-5.15-3-7.69-.26-.64-.81-1.9-.81-1.9L519.6,334.48Z" transform="translate(0 0)"/>
        <path class="cls-10" d="M497.16,346.09c-7.58,10.6-20.35,20.62-24.23,25.44s-6.37,9.39-.72,15.55,12.06,2.66,17.12-.73,13.89-14.36,26.52-22.78Z" transform="translate(0 0)"/>
        <path class="cls-10" d="M501.63,363.93l9.85-4.45M500,348.76c-.68,2.23-.16,4.7-1,6.84s-3.93,5.59-3.93,5.59a18.46,18.46,0,0,1,2.87.63c1.33.52,3.35.76,3.69,2.14.3,1.21-1.13,2.25-2,3.16a12.51,12.51,0,0,1-2.89,2.1,17.15,17.15,0,0,1-5.43,2.5c-2.46.44-7-3-7.46-.55-.18,1,2.07.36,3,.82,2.17,1.07,3.26,3.39,1.35,5-1.23,1-3.16.66-4.76.79s-3.29-.77-4.63,0c-1.57.91-3.55,3.1-2.71,4.72s4.05,1.61,5.58.53c1.12-.8.82-2.65,1-4a10.1,10.1,0,0,0,0-1.23" transform="translate(0 0)"/>
        <circle class="cls-10" cx="437.8" cy="414.44" r="36.31" transform="translate(-60.73 75.48) rotate(-9.22)"/>
        <path class="cls-9" d="M451.39,416a11.34,11.34,0,1,1-11.33,11.34l-3.93-.18a11.33,11.33,0,1,1-11.33-11.33l-.17-2.22A11.34,11.34,0,1,1,436,402.25l3.93-.34a11.34,11.34,0,1,1,11.33,11.34Z" transform="translate(0 0)"/>
        <circle class="cls-10" cx="437.8" cy="404.89" r="4.09"/>
        <circle class="cls-10" cx="428.09" cy="414.44" r="4.09"/>
        <circle class="cls-10" cx="437.63" cy="423.14" r="4.09"/>
        <circle class="cls-10" cx="447.69" cy="414.44" r="4.09"/>
        <path class="cls-9" d="M438.49,436.36c1.49,3.06,3.53,4.46,6.13,6.13-3.71,1.62-8.23,1.32-12.27,0A14.91,14.91,0,0,0,438.49,436.36Zm21.44-22.47c3.07-1.49,4.46-3.53,6.14-6.14,1.61,3.71,1.31,8.24,0,12.28a15,15,0,0,0-6.14-6.14Zm-44.59,1c-3.07-1.49-4.46-3.53-6.14-6.13-1.61,3.71-1.31,8.23,0,12.27a14.93,14.93,0,0,1,6.14-6.14Zm22-22.63c1.5-3.07,3.54-4.46,6.14-6.14-3.71-1.61-8.23-1.31-12.27,0A14.86,14.86,0,0,1,437.29,392.28Z" transform="translate(0 0)"/>
      </g>
      <g>
        <path class="cls-7" d="M611.74,253.07a6.84,6.84,0,0,1,0-2.08,6.29,6.29,0,0,1,1.84-2.85,5.41,5.41,0,0,1,2.56-1.28,6.91,6.91,0,0,1,3.09.24,11.13,11.13,0,0,1,1.89.93l4.16,1.71,1.54,4.95a13.48,13.48,0,0,1,1.1,2.42,6,6,0,0,1,.16,2.85,5.6,5.6,0,0,1-1.76,2.84,5.18,5.18,0,0,1-2.89,1.12,7.73,7.73,0,0,1-2.32-.52c-.44-5.21-2.76-9.18-9.37-10.33Z" transform="translate(0 0)"/>
        <path class="cls-7" d="M621,248l10.86-4.77.88.85-5.92,10.69s-1.66-2.44-2.62-3.56S621,248,621,248Z" transform="translate(0 0)"/>
        <circle class="cls-7" cx="633.07" cy="242.27" r="4.47"/>
        <path class="cls-7" d="M602.58,261c-1,7.83-2.05,15.65-4.49,23.48l-8.7,8c1.86-8.19,5.17-16.37,5.14-24.56Z" transform="translate(0 0)"/>
        <path class="cls-7" d="M589.46,272.28l23.93-1.79-7.61,7-21.86.95-.32-1.12Z" transform="translate(0 0)"/>
        <path class="cls-7" d="M560,298.74c6.28,2.37,8.8,6.24,10.6,10.4,1.78.16,3.45.18,4-1.15-1.49-9.72-8.45-12.76-10-13.37C560.41,293.83,561.18,297.1,560,298.74Z" transform="translate(0 0)"/>
        <path class="cls-7" d="M552.26,306c6.29,2.37,8.8,6.25,10.6,10.41,1.78.15,3.45.17,4-1.16-1.5-9.72-8.46-12.75-10-13.37-4.19-.79-3.41,2.48-4.63,4.12Z" transform="translate(0 0)"/>
        <path class="cls-7" d="M464.69,379.31a20.71,20.71,0,0,1,4.22.42c-.09,2.25.82,4.65,3.3,7.35a9.34,9.34,0,0,0,6.63,3.37h0s.8,4.94-.72,6.51c-1.78,1.84-7.6,1.09-7.6,1.09l-.49-.32a36.17,36.17,0,0,0-8.94-11.14l-.09-.35s-.85-4.63.6-6a2.37,2.37,0,0,1,3.09,0Z" transform="translate(0 0)"/>
        <circle class="cls-7" cx="409.85" cy="385.12" r="4.94"/>
        <circle class="cls-7" cx="408.14" cy="442.4" r="4.94"/>
        <circle class="cls-7" cx="463.72" cy="445.64" r="4.94" transform="translate(-65.4 80.03) rotate(-9.22)"/>
      </g>
    </g>
    <g id="cord">
      <g>
        <path id="piece1" class="cls-11" d="M523.37,329.22c0,1.5-1.26,2.09-3.71,2.09s-3.58-.71-3.58-2.22,1.14-1.88,3.58-1.88S523.37,327.71,523.37,329.22Z" transform="translate(0 0)"/>
        <path class="cls-11" d="M525.16,333.22c0,1.51-1.26,2.09-3.71,2.09s-3.58-.71-3.58-2.21,1.14-1.88,3.58-1.88S525.16,331.72,525.16,333.22Z" transform="translate(0 0)"/>
        <path class="cls-11" d="M525.65,338.43c-.49,1.42-1.87,1.56-4.18.75s-3.15-1.85-2.66-3.27,1.69-1.4,4-.59,3.34,1.69,2.84,3.11Z" transform="translate(0 0)"/>
        <path id="piece2" class="cls-11" d="M525.7,342.3c-.3,1.48-1.65,1.8-4.05,1.32s-3.36-1.41-3.07-2.89,1.48-1.61,3.88-1.13,3.54,1.23,3.24,2.7Z" transform="translate(0 0)"/>
        <path class="cls-11" d="M526.81,346.82c-.3,1.48-1.65,1.8-4,1.32s-3.37-1.41-3.07-2.89,1.48-1.61,3.88-1.13,3.54,1.23,3.24,2.7Z" transform="translate(0 0)"/>
        <path class="cls-11" d="M538.08,340.54c-.72-.2-.64-1.49-.44-2.21.31-1.11,2.34-2.55,2.34-2.55a5.56,5.56,0,0,1,.27,2.29c-.33,1-1.11,2.75-2.17,2.47Z" transform="translate(0 0)"/>
        <path class="cls-11" d="M535.44,342.84c-.79-.18-.89-1.55-.68-2.33.32-1.21,2.7-2.61,2.7-2.61a6.22,6.22,0,0,1,.14,2.47c-.35,1-1.09,2.7-2.16,2.47Z" transform="translate(0 0)"/>
        <path class="cls-11" d="M532.42,347.2c-1.2-.32-1.06-2.45-.74-3.65.26-1,1-2.56,2-2.31,1.16.28,1.15,2.33.87,3.5s-1.11,2.74-2.17,2.46Z" transform="translate(0 0)"/>
        <path class="cls-11" d="M528.84,350.61c-1.18-.26-1.68-2.14-1.44-3.32s1.5-2.92,2.74-2.64,1.68,2.34,1.38,3.58S530,350.87,528.84,350.61Z" transform="translate(0 0)"/>
        <path class="cls-11" d="M528.22,352.68c-.3,1.43-2.1,1.92-3.21,1.56s-2.68-2-2.36-3.51,2.29-1.9,3.45-1.46,2.42,2,2.12,3.41Z" transform="translate(0 0)"/>
        <path class="cls-11" d="M504.41,338.88a9.9,9.9,0,0,1,2.06,1.34c.65.67,1.43.93,1,1.94s-1.64.67-2.28,0-.82-3.24-.82-3.24Z" transform="translate(0 0)"/>
        <path class="cls-11" d="M511.51,341.34c1.46.29,1.43,2,.69,3s-3.05,2.52-4.58,2.21-1.36-2.17-.5-3.26,2.95-2.27,4.39-2Z" transform="translate(0 0)"/>
        <path id="piece3" class="cls-11" d="M516.39,344.55c1.36.61,1,2.26,0,3.12s-3.53,1.78-4.95,1.14-.84-2.41.23-3.29,3.38-1.57,4.72-1Z" transform="translate(0 0)"/>
        <path class="cls-11" d="M520.31,347.54c1.36.61,1,2.26,0,3.11s-3.53,1.79-4.95,1.15-.85-2.42.23-3.3,3.38-1.56,4.72-1Z" transform="translate(0 0)"/>
        <path class="cls-11" d="M521.63,350.19c1.34.21,1.7,2.08,1.28,3.27s-2.09,3-3.49,2.77-1.68-2.28-1.18-3.54,2.07-2.71,3.39-2.5Z" transform="translate(0 0)"/>
        <path class="cls-11" d="M525,354.29c1.11.65.85,2.69.11,3.79s-2.75,2.42-3.92,1.74-.76-2.89.06-4,2.65-2.14,3.75-1.5Z" transform="translate(0 0)"/>
        <path class="cls-11" d="M500.92,343.12c1.19-.1,2,1.67,2,3s-.93,3.47-2.18,3.58-2-1.88-2-3.25,1-3.19,2.15-3.3Z" transform="translate(0 0)"/>
        <path class="cls-11" d="M504.81,346.54c1.17.26,1.41,2.2,1,3.43s-1.94,3-3.16,2.75-1.38-2.41-.89-3.7,1.9-2.74,3.05-2.48Z" transform="translate(0 0)"/>
        <path class="cls-11" d="M508.42,349c1.38.32,1.67,2.73,1.18,4.26s-2.29,3.75-3.74,3.41-1.63-3-1.06-4.59,2.26-3.4,3.62-3.08Z" transform="translate(0 0)"/>
        <path class="cls-11" d="M511.34,351.9c1.4-.18,2.52,2,2.6,3.58s-.83,4.32-2.3,4.51-2.58-2.23-2.61-3.93.92-4,2.31-4.16Z" transform="translate(0 0)"/>
        <path id="piece4" class="cls-11" d="M514.8,354.38c1.28-.15,2.3,1.64,2.37,3s-.76,3.58-2.09,3.74-2.35-1.85-2.37-3.26.83-3.3,2.09-3.45Z" transform="translate(0 0)"/>
        <path class="cls-11" d="M518.38,357.28c1.28-.15,2.3,1.64,2.37,3s-.75,3.59-2.09,3.74-2.35-1.84-2.37-3.25.83-3.3,2.1-3.45Z" transform="translate(0 0)"/>
        <path id="piece5" class="cls-11" d="M540.2,350.25c-.91.79-2.72.08-3.54-.81s-1.46-2.94-.5-3.77,2.88,0,3.7,1,1.23,2.78.34,3.57Z" transform="translate(0 0)"/>
        <path class="cls-11" d="M538.24,353.83c-.91.79-2.72.09-3.54-.81s-1.46-2.93-.5-3.77,2.88,0,3.7,1,1.23,2.78.34,3.57Z" transform="translate(0 0)"/>
        <path class="cls-11" d="M534.74,356.81c-.9.8-2.72.09-3.53-.8s-1.46-2.94-.5-3.77,2.88,0,3.7,1,1.23,2.78.33,3.56Z" transform="translate(0 0)"/>
        <path class="cls-11" d="M533.45,358.73c-.32,1.17-2.22,1.57-3.39,1.28s-2.84-1.65-2.5-2.87,2.42-1.56,3.65-1.2S533.77,357.58,533.45,358.73Z" transform="translate(0 0)"/>
        <path class="cls-11" d="M528.41,357.89c1,.71.78,3,.11,4.17s-2.54,2.66-3.61,1.91-.7-3.17.06-4.43,2.43-2.35,3.44-1.65Z" transform="translate(0 0)"/>
        <path class="cls-11" d="M523.49,360.51c1.11.65.85,2.69.12,3.79s-2.76,2.42-3.92,1.74-.77-2.89.06-4,2.65-2.13,3.74-1.5Z" transform="translate(0 0)"/>
        <path id="piece6" class="cls-11" d="M512.77,367.61c-.95.91-.21,3.16.78,4.28s3.3,2.27,4.3,1.32.08-3.37-1-4.52-3.13-2-4.07-1.08Z" transform="translate(0 0)"/>
        <path class="cls-11" d="M510.72,371.47c-.94.91-.21,3.16.78,4.28s3.3,2.27,4.3,1.32.08-3.37-1-4.52-3.13-2-4.07-1.08Z" transform="translate(0 0)"/>
        <path id="piece7" class="cls-11" d="M509.83,375.07c-1.22.49-1.36,2.86-.86,4.27s2.23,3.33,3.5,2.81,1.33-3.1.74-4.57-2.18-3-3.38-2.51Z" transform="translate(0 0)"/>
        <path class="cls-11" d="M506.88,379.23c-1.22.49-1.37,2.86-.87,4.26s2.23,3.34,3.51,2.82,1.32-3.1.74-4.57-2.18-3-3.38-2.51Z" transform="translate(0 0)"/>
        <path id="piece8" class="cls-11" d="M504.74,383.89c-1.28.29-1.8,2.6-1.52,4.07s1.67,3.64,3,3.34,1.8-2.85,1.45-4.4-1.67-3.3-2.94-3Z" transform="translate(0 0)"/>
        <path class="cls-11" d="M501.91,388.35c-1.28.29-1.8,2.6-1.53,4.07s1.67,3.64,3,3.34,1.79-2.85,1.45-4.4-1.68-3.3-2.94-3Z" transform="translate(0 0)"/>
        <path id="piece9" class="cls-11" d="M499.54,392.92c-1.32.05-2.26,2.23-2.26,3.72s1,3.89,2.34,3.84,2.3-2.47,2.24-4.05-1-3.55-2.32-3.51Z" transform="translate(0 0)"/>
        <path class="cls-11" d="M496.64,398.29c-1.31,0-2.25,2.22-2.25,3.72s1,3.88,2.34,3.83,2.29-2.46,2.24-4-1-3.55-2.33-3.5Z" transform="translate(0 0)"/>
        <path class="cls-11" d="M493.27,403.29c-1.31,0-2.25,2.22-2.26,3.72s1,3.88,2.34,3.83,2.3-2.46,2.25-4-1-3.55-2.33-3.5Z" transform="translate(0 0)"/>
        <path class="cls-11" d="M489.77,407.57c-1.31.05-2.25,2.22-2.25,3.72s1,3.89,2.34,3.83,2.29-2.46,2.24-4-1-3.56-2.33-3.51Z" transform="translate(0 0)"/>
        <path class="cls-11" d="M486.15,411.55c-1.31,0-2.25,2.22-2.25,3.71s1,3.89,2.34,3.84,2.3-2.47,2.24-4.05-1-3.55-2.33-3.5Z" transform="translate(0 0)"/>
        <path class="cls-11" d="M482.18,414.8c-1.31.05-2.25,2.22-2.26,3.72s1,3.89,2.34,3.84,2.3-2.47,2.25-4.05-1-3.56-2.33-3.51Z" transform="translate(0 0)"/>
        <path class="cls-11" d="M478.38,418.3c-1.31,0-2.25,2.22-2.26,3.71s1,3.89,2.35,3.84,2.29-2.47,2.24-4.05-1-3.55-2.33-3.5Z" transform="translate(0 0)"/>
        <path class="cls-11" d="M474,420.05l-1.47,5.76s.82,2.06,1.68,2c1.53-.15,1.95-2.53,2.24-4C476.7,421.37,474,420.05,474,420.05Z" transform="translate(0 0)"/>
        <path class="cls-11" d="M564.82,423.71c.45,1.71,4.27,3.17,4.27,3.17l-1.86-7.78C565.63,419.15,564.57,422.59,564.82,423.71Z" transform="translate(0 0)"/>
        <path class="cls-11" d="M564.48,417.47c-1.22-.49-3,1.13-3.56,2.5s-.67,3.94.61,4.45,3.09-1.34,3.68-2.81.48-3.67-.73-4.15Z" transform="translate(0 0)"/>
        <path id="piece10" class="cls-11" d="M560.23,414c-1.31-.07-2.44,2-2.58,3.5s.62,4,2,4,2.5-2.25,2.59-3.84-.72-3.63-2-3.69Z" transform="translate(0 0)"/>
        <path class="cls-11" d="M556.48,410.19c-1.31-.07-2.44,2-2.58,3.5s.62,4,2,4,2.51-2.25,2.6-3.83-.72-3.63-2-3.7Z" transform="translate(0 0)"/>
        <path class="cls-11" d="M553,405.84c-1.31-.07-2.44,2-2.57,3.51s.61,3.95,2,4,2.5-2.25,2.59-3.83-.71-3.63-2-3.7Z" transform="translate(0 0)"/>
        <path class="cls-11" d="M549.4,402.18c-1.31-.07-2.44,2-2.57,3.5s.62,4,2,4,2.51-2.25,2.59-3.84-.71-3.63-2-3.69Z" transform="translate(0 0)"/>
        <path class="cls-11" d="M546.51,397.15c-1.31-.07-2.44,2-2.58,3.5s.62,4,2,4,2.51-2.25,2.6-3.83-.72-3.63-2-3.7Z" transform="translate(0 0)"/>
        <path class="cls-11" d="M543.35,392.63c-1.31-.07-2.44,2-2.58,3.51s.62,3.95,2,4,2.5-2.25,2.59-3.83-.72-3.63-2-3.7Z" transform="translate(0 0)"/>
        <path class="cls-11" d="M540.45,387.86c-1.31-.07-2.44,2-2.57,3.5s.61,4,2,4,2.5-2.25,2.59-3.83-.71-3.63-2-3.7Z" transform="translate(0 0)"/>
        <path class="cls-11" d="M537.9,382.32c-1.31-.07-2.44,2-2.58,3.5s.62,4,2,4,2.51-2.25,2.6-3.84-.72-3.63-2-3.69Z" transform="translate(0 0)"/>
        <path class="cls-11" d="M535.08,377.29c-1.31-.07-2.44,2-2.57,3.5s.61,4,2,4,2.5-2.25,2.59-3.83-.71-3.63-2-3.7Z" transform="translate(0 0)"/>
        <path class="cls-11" d="M532.78,371.32c-1.31-.07-2.44,2-2.58,3.5s.62,4,2,4,2.5-2.25,2.59-3.83-.72-3.63-2-3.7Z" transform="translate(0 0)"/>
        <path class="cls-11" d="M527.48,365.28s-.46,7.47,2.25,8c1.69.29,3-4.18,3-4.18Z" transform="translate(0 0)"/>
        <path id="piece11" class="cls-11" d="M521.36,451c-.8,1,.26,3.15,1.4,4.12s3.6,1.75,4.45.67-.42-3.35-1.66-4.32-3.39-1.49-4.19-.47Z" transform="translate(0 0)"/>
        <path class="cls-11" d="M526.49,450.41c-.81,1,.25,3.15,1.4,4.11s3.6,1.76,4.44.67-.41-3.34-1.66-4.32-3.39-1.49-4.18-.46Z" transform="translate(0 0)"/>
        <path class="cls-11" d="M531.67,449.38c-.8,1,.26,3.16,1.4,4.12s3.6,1.76,4.44.67-.41-3.34-1.66-4.32-3.38-1.49-4.18-.47Z" transform="translate(0 0)"/>
        <path id="piece12" class="cls-11" d="M536.53,449.06c-.64,1.15.73,3.08,2,3.86s3.82,1.2,4.5,0-.92-3.24-2.3-4-3.57-1-4.2.16Z" transform="translate(0 0)"/>
        <path class="cls-11" d="M542.14,448.16c-.65,1.15.72,3.08,2,3.86s3.82,1.2,4.49,0-.91-3.25-2.29-4-3.57-1-4.21.16Z" transform="translate(0 0)"/>
        <path id="piece13" class="cls-11" d="M547,446.72c-.53,1.2,1,3,2.35,3.66s3.92.84,4.48-.42-1.21-3.15-2.65-3.79-3.65-.63-4.18.55Z" transform="translate(0 0)"/>
        <path class="cls-11" d="M552.28,445.15c-.54,1.2,1,3,2.35,3.66s3.91.84,4.47-.42-1.21-3.14-2.65-3.79-3.65-.63-4.17.55Z" transform="translate(0 0)"/>
        <path id="piece14" class="cls-11" d="M557.55,443.49c-.46,1.23,1.18,2.93,2.56,3.51s4,.61,4.45-.68-1.4-3.07-2.88-3.63-3.67-.42-4.13.8Z" transform="translate(0 0)"/>
        <path class="cls-11" d="M562.92,441.74c-.46,1.23,1.18,2.93,2.56,3.52s4,.6,4.44-.69-1.39-3.07-2.87-3.63-3.68-.41-4.13.8Z" transform="translate(0 0)"/>
        <path class="cls-11" d="M568.1,439.57c-.46,1.23,1.18,2.93,2.56,3.52s4,.6,4.44-.69-1.39-3.07-2.87-3.63-3.68-.41-4.13.8Z" transform="translate(0 0)"/>
        <path class="cls-11" d="M573.65,437.28c-.46,1.23,1.18,2.93,2.56,3.52s4,.6,4.44-.69-1.39-3.07-2.87-3.63-3.68-.41-4.13.8Z" transform="translate(0 0)"/>
        <path class="cls-11" d="M579.25,435.47c-.46,1.23,1.18,2.94,2.56,3.52s4,.6,4.45-.69-1.4-3.06-2.88-3.63-3.67-.41-4.13.8Z" transform="translate(0 0)"/>
        <path class="cls-11" d="M579.92,431.07c-.47,1.23,1.18,2.94,2.56,3.52s4,.6,4.44-.69-1.39-3.06-2.87-3.63-3.68-.41-4.13.8Z" transform="translate(0 0)"/>
        <path class="cls-11" d="M578.68,429.77s3.79.55,4.14-.81c.46-1.81-4.32-3.57-4.32-3.57Z" transform="translate(0 0)"/>
        <path id="piece15" class="cls-11" d="M476.45,441.16c-1.11.69-.86,3-.12,4.35s2.76,2.9,3.93,2.18.78-3.28-.05-4.63-2.66-2.58-3.76-1.9Z" transform="translate(0 0)"/>
        <path class="cls-11" d="M481.76,443.33c-1.12.69-.86,3.05-.13,4.35s2.77,2.9,3.94,2.18.77-3.28-.06-4.63-2.65-2.58-3.75-1.9Z" transform="translate(0 0)"/>
        <path class="cls-11" d="M486.82,444.12c-1.11.69-.86,3-.12,4.35s2.76,2.9,3.93,2.17.78-3.28-.05-4.63-2.66-2.57-3.76-1.89Z" transform="translate(0 0)"/>
        <path class="cls-11" d="M492.37,445.5c-1.12.69-.86,3.05-.13,4.35s2.76,2.9,3.93,2.18.78-3.28-.05-4.63-2.65-2.58-3.76-1.9Z" transform="translate(0 0)"/>
        <path class="cls-11" d="M497.37,446.23c-1.12.69-.86,3-.12,4.34s2.76,2.91,3.93,2.18.77-3.28-.05-4.63-2.66-2.57-3.76-1.89Z" transform="translate(0 0)"/>
        <path class="cls-11" d="M502.31,447.25c-1.12.69-.86,3.05-.12,4.35s2.76,2.9,3.93,2.17.78-3.27-.05-4.62-2.66-2.58-3.76-1.9Z" transform="translate(0 0)"/>
        <path class="cls-11" d="M507.37,448.64c-1.11.69-.86,3-.12,4.34s2.76,2.91,3.93,2.18.78-3.28-.05-4.63-2.65-2.57-3.76-1.89Z" transform="translate(0 0)"/>
        <path class="cls-11" d="M512.38,449.54c-1.12.69-.86,3-.13,4.35s2.77,2.9,3.94,2.17.77-3.27-.06-4.62-2.65-2.58-3.75-1.9Z" transform="translate(0 0)"/>
        <path class="cls-11" d="M517.5,450.33c-1.12.69-.86,3-.12,4.34s2.76,2.91,3.93,2.18.78-3.28,0-4.63-2.66-2.58-3.76-1.89Z" transform="translate(0 0)"/>
        <path class="cls-11" d="M461.48,424.9c-1.16-.6-3.05.84-3.78,2.14s-1.07,3.86.16,4.49,3.21-1,3.94-2.43.84-3.6-.32-4.2Z" transform="translate(0 0)"/>
        <path class="cls-11" d="M459.76,429.63c-1.23-.44-2.91,1.23-3.47,2.62s-.54,4,.76,4.43,3-1.44,3.58-2.93.35-3.68-.87-4.12Z" transform="translate(0 0)"/>
        <path class="cls-11" d="M461.37,434c-1.27-.32-2.79,1.49-3.22,2.93s-.18,4,1.16,4.34,2.9-1.71,3.29-3.25,0-3.7-1.23-4Z" transform="translate(0 0)"/>
        <path class="cls-11" d="M465.46,435.77c-1.26-.37-2.83,1.4-3.31,2.81s-.31,4,1,4.38,2.95-1.62,3.4-3.13.14-3.7-1.11-4.06Z" transform="translate(0 0)"/>
        <path id="piece16" class="cls-11" d="M468.13,436.47c-1.27.31-1.74,2.63-1.44,4.1s1.75,3.6,3.09,3.27,1.73-2.89,1.36-4.42-1.75-3.27-3-2.95Z" transform="translate(0 0)"/>
        <path class="cls-11" d="M472.84,438.21c-1.28.32-1.75,2.64-1.45,4.11s1.75,3.6,3.09,3.27,1.73-2.89,1.36-4.43-1.75-3.26-3-3Z" transform="translate(0 0)"/>
        <path class="cls-11" d="M515.19,364.48c-1,.91-.22,3.16.77,4.28s3.3,2.27,4.3,1.32.08-3.37-1-4.52-3.13-2-4.07-1.08Z" transform="translate(0 0)"/>
        <path class="cls-11" d="M514.08,369.43c-1,.9-.21,3.15.78,4.27s3.3,2.27,4.29,1.32.09-3.37-1-4.52-3.13-2-4.07-1.07Z" transform="translate(0 0)"/>
        <path class="cls-11" d="M514.15,375.08c-.95.91-.21,3.16.78,4.28s3.3,2.27,4.29,1.32.09-3.37-1-4.52-3.13-2-4.07-1.08Z" transform="translate(0 0)"/>
        <path class="cls-11" d="M514.08,381c-1,.9-.21,3.15.78,4.28s3.3,2.27,4.29,1.31.09-3.36-1-4.51-3.13-2-4.07-1.08Z" transform="translate(0 0)"/>
        <path class="cls-11" d="M514.33,386.81c-1,.91-.21,3.16.78,4.28s3.3,2.27,4.3,1.32.08-3.37-1-4.52-3.13-2-4.07-1.08Z" transform="translate(0 0)"/>
        <path class="cls-11" d="M513.4,392.18c-.95.91-.22,3.16.77,4.28s3.3,2.27,4.3,1.32.08-3.37-1-4.52-3.13-2-4.06-1.08Z" transform="translate(0 0)"/>
        <path class="cls-11" d="M514.08,398.15c-1,.91-.21,3.16.78,4.28s3.3,2.27,4.29,1.32.09-3.37-1-4.52-3.13-2-4.07-1.08Z" transform="translate(0 0)"/>
        <path class="cls-11" d="M513.4,403c-.95.9-.22,3.15.77,4.28s3.3,2.27,4.3,1.31.08-3.36-1-4.51-3.13-2-4.06-1.08Z" transform="translate(0 0)"/>
        <path class="cls-11" d="M514.08,407.78c-1,.91-.21,3.16.78,4.28s3.3,2.27,4.29,1.32.09-3.37-1-4.52-3.13-2-4.07-1.08Z" transform="translate(0 0)"/>
        <path class="cls-11" d="M514.08,413.49c-1,.91-.21,3.16.78,4.28s3.3,2.27,4.29,1.32.09-3.37-1-4.52-3.13-2-4.07-1.08Z" transform="translate(0 0)"/>
        <path class="cls-11" d="M513.74,419.12c-1,.91-.21,3.16.77,4.28s3.31,2.27,4.3,1.32.08-3.37-1-4.52-3.13-2-4.07-1.08Z" transform="translate(0 0)"/>
        <path class="cls-11" d="M513.82,424.49c-1,.91-.21,3.16.78,4.28s3.3,2.27,4.3,1.32.08-3.37-1-4.52-3.13-2-4.07-1.08Z" transform="translate(0 0)"/>
        <path class="cls-11" d="M514,430.2c-1,.91-.21,3.16.78,4.28s3.3,2.27,4.3,1.32.08-3.37-1-4.52-3.13-2-4.07-1.08Z" transform="translate(0 0)"/>
        <path class="cls-11" d="M514,435.74c-1,.91-.21,3.16.78,4.28s3.3,2.27,4.3,1.32.08-3.37-1-4.52-3.13-2-4.07-1.08Z" transform="translate(0 0)"/>
        <path class="cls-11" d="M513.82,441.28c-1,.91-.21,3.16.78,4.28s3.3,2.27,4.3,1.32.08-3.37-1-4.52-3.13-2-4.07-1.08Z" transform="translate(0 0)"/>
        <path class="cls-11" d="M513.48,446.91c-1,.9-.21,3.15.78,4.28s3.3,2.27,4.29,1.31.09-3.36-1-4.51-3.13-2-4.07-1.08Z" transform="translate(0 0)"/>
        <path class="cls-11" d="M513.48,453c-1,.91-.21,3.16.78,4.28s3.3,2.27,4.29,1.32.09-3.37-1-4.52-3.13-2-4.07-1.08Z" transform="translate(0 0)"/>
        <path class="cls-11" d="M513.31,459.44c-.95.9-.21,3.15.78,4.28s3.3,2.27,4.3,1.31.08-3.36-1-4.51-3.13-2-4.07-1.08Z" transform="translate(0 0)"/>
        <path class="cls-11" d="M513.31,465.4c-.95.91-.21,3.16.78,4.28s3.3,2.27,4.3,1.32.08-3.37-1-4.52-3.13-2-4.07-1.08Z" transform="translate(0 0)"/>
        <path class="cls-11" d="M513.31,471c-.95.9-.21,3.15.78,4.27s3.3,2.27,4.3,1.32.08-3.37-1-4.52-3.13-2-4.07-1.07Z" transform="translate(0 0)"/>
        <path class="cls-11" d="M513.14,477.17c-.95.91-.21,3.16.78,4.28s3.3,2.27,4.3,1.32.08-3.37-1-4.52-3.13-2-4.07-1.08Z" transform="translate(0 0)"/>
        <path id="piece17" class="cls-11" d="M527,364.89c.68,1-.37,3-1.45,3.91s-3.33,1.53-4.05.44.52-3.21,1.69-4.09,3.13-1.29,3.81-.26Z" transform="translate(0 0)"/>
        <path class="cls-11" d="M527.79,369.41c.69,1-.37,3-1.44,3.91s-3.34,1.53-4.05.44.52-3.21,1.69-4.1,3.13-1.28,3.8-.25Z" transform="translate(0 0)"/>
        <path class="cls-11" d="M527.71,374.44c.68,1-.37,3-1.45,3.91s-3.33,1.53-4,.44.52-3.21,1.69-4.1,3.13-1.28,3.81-.25Z" transform="translate(0 0)"/>
        <path class="cls-11" d="M527.62,379.55c.69,1-.37,3-1.44,3.91s-3.34,1.53-4,.44.52-3.21,1.69-4.09,3.13-1.28,3.8-.26Z" transform="translate(0 0)"/>
        <path class="cls-11" d="M527.54,384.24c.68,1-.37,3-1.45,3.91s-3.34,1.53-4.05.44.52-3.21,1.69-4.09,3.13-1.28,3.81-.26Z" transform="translate(0 0)"/>
        <path class="cls-11" d="M527.79,389.27c.69,1-.37,3-1.44,3.91s-3.34,1.53-4.05.44.52-3.21,1.69-4.09,3.13-1.29,3.8-.26Z" transform="translate(0 0)"/>
        <path class="cls-11" d="M527.45,394.13c.69,1-.37,3-1.44,3.91s-3.34,1.53-4.06.44.53-3.21,1.7-4.1,3.13-1.28,3.8-.25Z" transform="translate(0 0)"/>
        <path class="cls-11" d="M527.31,399.3c.75,1.07-.41,3.13-1.6,4s-3.68,1.58-4.47.46.58-3.32,1.87-4.24,3.45-1.32,4.2-.26Z" transform="translate(0 0)"/>
        <path id="piece18" class="cls-11" d="M527,404.2c.95.91.22,3.16-.77,4.28s-3.3,2.27-4.3,1.32-.08-3.37,1-4.52,3.13-2,4.06-1.08Z" transform="translate(0 0)"/>
        <path class="cls-11" d="M527.16,409.91c.94.91.21,3.16-.78,4.28s-3.3,2.27-4.3,1.32-.08-3.37,1-4.52,3.13-2,4.07-1.08Z" transform="translate(0 0)"/>
        <path class="cls-11" d="M527.24,415.54c1,.9.21,3.15-.77,4.28s-3.31,2.27-4.3,1.31-.08-3.36,1-4.51,3.13-2,4.07-1.08Z" transform="translate(0 0)"/>
        <path class="cls-11" d="M527.07,421.59c.95.91.21,3.16-.78,4.28s-3.3,2.27-4.29,1.32-.08-3.37,1-4.52,3.13-2,4.07-1.08Z" transform="translate(0 0)"/>
        <path class="cls-11" d="M527.24,427.22c1,.9.21,3.15-.77,4.28s-3.31,2.27-4.3,1.31-.08-3.36,1-4.51,3.13-2,4.07-1.08Z" transform="translate(0 0)"/>
        <path class="cls-11" d="M527.07,432.93c.95.91.21,3.16-.78,4.28s-3.3,2.27-4.29,1.32-.08-3.37,1-4.52,3.13-2,4.07-1.08Z" transform="translate(0 0)"/>
        <path class="cls-11" d="M527.16,438.64c.94.9.21,3.15-.78,4.28s-3.3,2.27-4.3,1.31-.08-3.36,1-4.51,3.13-2,4.07-1.08Z" transform="translate(0 0)"/>
        <path class="cls-11" d="M527.16,444.43c.94.91.21,3.16-.78,4.28s-3.3,2.27-4.3,1.32-.08-3.37,1-4.52,3.13-2,4.07-1.08Z" transform="translate(0 0)"/>
        <path class="cls-11" d="M526.9,450.23c1,.91.21,3.16-.78,4.28s-3.3,2.27-4.29,1.32-.09-3.37,1-4.52,3.13-2,4.07-1.08Z" transform="translate(0 0)"/>
        <path class="cls-11" d="M527.24,455.52c1,.9.21,3.15-.77,4.28s-3.31,2.27-4.3,1.31-.08-3.36,1-4.51,3.13-2,4.07-1.08Z" transform="translate(0 0)"/>
        <path class="cls-11" d="M527.24,461.06c1,.9.21,3.15-.77,4.28s-3.31,2.27-4.3,1.31-.08-3.36,1-4.51,3.13-2,4.07-1.08Z" transform="translate(0 0)"/>
        <path class="cls-11" d="M527.07,467c.95.9.21,3.15-.78,4.27s-3.3,2.27-4.29,1.32-.08-3.37,1-4.52,3.13-2,4.07-1.07Z" transform="translate(0 0)"/>
        <path class="cls-11" d="M527.07,472.91c.95.9.21,3.15-.78,4.27s-3.3,2.27-4.29,1.32-.08-3.37,1-4.52,3.13-2,4.07-1.07Z" transform="translate(0 0)"/>
      </g>
      <g>
        <path class="cls-11" d="M517.9,517.51c5.57,1.55,8.89,1.47,13.5.12l-4.88-7.83" transform="translate(0 0)"/>
        <path class="cls-10" d="M528.73,497.32,519.85,495s.1-9.85,5.71-9c4.65.72,3.35,11.3,3.17,11.27Z" transform="translate(0 0)"/>
        <circle class="cls-10" cx="524.41" cy="482.43" r="3.62"/>
        <path class="cls-11" d="M527.9,501.72c2,5,3.19,9.31,1.33,14.95m2.13,1c-2.87-2.31-10.25-1.63-13.44-.09-1.25,0-4.6-23.31,7.2-22.74,10.85.53,7,22.94,6.24,22.83Z" transform="translate(0 0)"/>
      </g>
      <g>
        <path class="cls-11" d="M508.26,522.57c5.4,3.43,10.42,3.12,15.18.12l-11.27-11.75" transform="translate(0 0)"/>
        <circle class="cls-10" cx="516.15" cy="486.71" r="3.62"/>
        <path class="cls-10" d="M520.61,498.4l-9.16-.18s-1.19-7.45,4.52-7.77c4.74-.27,4.83,7.94,4.64,7.95Z" transform="translate(0 0)"/>
        <path class="cls-11" d="M516.21,521c-1.75-3.9-1.94-8.69-1.45-13.87m-2.65,14.11c-2.15-3.69-2.55-8.41-.84-14.35m12.15,15.86c-1.38-1.73-11.26-2.47-15.15-.11-1.4,0-5.19-26.28,8.12-25.63,12.23.6,7.88,25.86,7,25.74Z" transform="translate(0 0)"/>
      </g>
    </g>
  </g>
</svg>
