<?xml version="1.0" encoding="utf-8"?>
<!-- Generator: Adobe Illustrator 23.1.0, SVG Export Plug-In . SVG Version: 6.00 Build 0)  -->
<svg version="1.1" id="Layer_1" xmlns="http://www.w3.org/2000/svg" xmlns:xlink="http://www.w3.org/1999/xlink" x="0px" y="0px"
	 viewBox="0 0 1272.7 700" style="enable-background:new 0 0 1272.7 700;" xml:space="preserve">
<style type="text/css">
	.st0{fill:#0038A8;}
	.st1{fill:#FFFFFF;}
	.st2{fill:#D52B1E;}
	.st3{fill:#FFFFFF;stroke:#000000;stroke-width:3.9104;stroke-miterlimit:10;}
	.st4{fill:#009B3A;stroke:#000000;stroke-width:1.0447;}
	.st5{fill:none;stroke:#000000;stroke-width:1.5644;stroke-miterlimit:10;}
	.st6{fill:#FEDF00;stroke:#000000;stroke-width:0.6385;}
	.st7{fill:#009B3A;stroke:#000000;stroke-width:0.7997;}
	.st8{fill:#009B3A;stroke:#000000;stroke-width:0.6385;}
	.st9{fill:#009B3A;stroke:#000000;stroke-width:0.8421;}
	.st10{fill:#009B3A;stroke:#000000;stroke-width:0.8909;}
	.st11{fill:#009B3A;stroke:#000000;stroke-width:0.91;}
	.st12{fill:#009B3A;stroke:#000000;stroke-width:0.8782;}
	.st13{fill:#009B3A;stroke:#000000;stroke-width:1.0436;}
	.st14{fill:#009B3A;stroke:#000000;stroke-width:0.8888;}
	.st15{fill:#009B3A;stroke:#000000;stroke-width:0.683;}
	.st16{fill:#009B3A;stroke:#000000;stroke-width:0.8867;}
	.st17{fill:#009B3A;stroke:#000000;stroke-width:0.8167;}
</style>
<path class="st0" d="M0,0h1272.7v700H0V0z"/>
<path class="st1" d="M0,0h1272.7v466.7H0V0z"/>
<path class="st2" d="M0,0h1272.7v233.3H0V0z"/>
<path class="st3" d="M725.1,350c0,49-39.7,88.7-88.7,88.7c-49,0-88.7-39.7-88.7-88.7c0-49,39.7-88.7,88.7-88.7
	C685.4,261.3,725.1,301,725.1,350z"/>
<path class="st4" d="M679.3,336.2c-2.2-0.1-2.2,2.3-2.2,2.3s0.1-0.7,0,0.1c0,0.8,0.4,2.7,1.9,2.9c1.7,0.1,2.2-1.8,2.3-2.8
	C681.3,338.3,681.2,336.3,679.3,336.2"/>
<path d="M580.7,385.5l-0.8-1.3c-0.1-0.1-0.3-0.4-0.6-0.7c-0.2-0.2-0.4-0.3-0.6-0.3c-0.2,0-0.5,0-0.7,0.1c-0.3,0.2-0.5,0.4-0.5,0.7
	c-0.1,0.3,0.1,0.7,0.4,1.3l0.8,1.3L580.7,385.5z M588.2,385.1l-9.7,5.7l-2.9-5c-0.5-0.9-0.9-1.7-1-2.3c-0.2-0.6-0.1-1.1,0.2-1.7
	c0.2-0.6,0.7-1,1.3-1.4c0.5-0.3,1-0.5,1.6-0.5c0.5,0,1,0.1,1.5,0.4c0.3,0.2,0.6,0.4,1,0.8c-0.1-0.4-0.1-0.7-0.1-1
	c0-0.1,0.1-0.4,0.2-0.8c0.1-0.4,0.3-0.6,0.3-0.8l2-3.1l2,3.4l-2,3.3c-0.2,0.4-0.4,0.7-0.4,1c0,0.3,0.1,0.6,0.2,0.9l0.2,0.3l3.9-2.3
	L588.2,385.1z M571.2,377.2l-2.9-8.8l2.3-0.8l1.8,5.5l1.7-0.6l-1.7-5.1l2.2-0.7l1.7,5.1l2.1-0.7l-1.9-5.7l2.4-0.8l3,9L571.2,377.2z
	 M571.5,359.3l-0.1-0.8c-0.1-0.7-0.2-1.1-0.5-1.4c-0.3-0.2-0.6-0.3-1-0.3c-0.3,0.1-0.6,0.2-0.8,0.4c-0.2,0.3-0.3,0.7-0.2,1.4l0.1,1
	L571.5,359.3z M567.2,363.3l-0.7-5.7c-0.1-1.2,0-2.2,0.6-2.9c0.5-0.7,1.3-1.1,2.4-1.2c1.1-0.1,2.1,0.1,2.8,0.7
	c0.7,0.6,1.1,1.6,1.3,3l0.2,1.9l4.1-0.5l0.4,3.5L567.2,363.3z M566.8,341.4l0.4-3.4l6.7,0.7c0.6,0.1,1.2,0.2,1.8,0.5
	c0.6,0.3,1.1,0.6,1.4,1.1c0.4,0.5,0.7,1,0.8,1.5c0.2,0.7,0.2,1.5,0.1,2.4c-0.1,0.6-0.2,1.2-0.3,1.8c-0.1,0.6-0.4,1.2-0.6,1.6
	c-0.3,0.4-0.7,0.8-1.1,1.1c-0.4,0.3-0.9,0.5-1.4,0.6c-0.7,0.2-1.4,0.2-1.9,0.1l-6.6-0.7l0.4-3.5l6.8,0.7c0.6,0.1,1.1-0.1,1.5-0.4
	c0.4-0.3,0.6-0.7,0.7-1.3c0.1-0.6-0.1-1.1-0.4-1.5c-0.3-0.4-0.8-0.6-1.4-0.7L566.8,341.4z M577.9,332l0.6-1.7c0.2-0.6,0.2-1,0.1-1.3
	c-0.1-0.3-0.4-0.5-0.7-0.6c-0.3-0.1-0.6-0.1-0.9,0.1c-0.3,0.2-0.5,0.5-0.7,1.1l-0.6,1.7L577.9,332z M573.8,330.5l0.5-1.4
	c0.2-0.5,0.2-0.9,0.1-1.2c-0.1-0.3-0.3-0.5-0.6-0.6c-0.3-0.1-0.6-0.1-0.8,0c-0.2,0.1-0.4,0.5-0.6,0.9l-0.5,1.4L573.8,330.5z
	 M568.5,332.4l2.1-6.1c0.4-1,0.9-1.7,1.6-2.1c0.7-0.4,1.5-0.4,2.2-0.2c0.6,0.2,1.1,0.6,1.4,1.2c0.2,0.4,0.3,0.8,0.3,1.4
	c0.4-0.7,1-1.1,1.5-1.3c0.6-0.2,1.2-0.2,1.9,0c0.5,0.2,1,0.5,1.3,0.9c0.3,0.4,0.6,0.9,0.7,1.4c0.1,0.3,0,0.8-0.1,1.4
	c-0.2,0.8-0.3,1.3-0.4,1.5l-2,5.7L568.5,332.4z M574.2,318l1.8-3l7.2,4.4l2.8-4.6l2.4,1.4l-4.6,7.6L574.2,318z M581.6,307l2.2-2.7
	l8.6,7.2l-2.2,2.7L581.6,307z M597.1,300.9l2.9-1.2c0.4,0.8,0.6,1.5,0.6,2.3c0,0.7-0.1,1.4-0.4,2c-0.3,0.6-0.9,1.3-1.6,1.9
	c-1,0.8-1.8,1.3-2.7,1.5c-0.8,0.2-1.7,0.2-2.7-0.2c-1-0.3-1.9-1-2.8-2.1c-1.2-1.4-1.7-2.8-1.6-4.2c0.1-1.4,0.9-2.7,2.3-3.8
	c1.1-0.9,2.1-1.4,3.1-1.5c1-0.1,2,0.2,3.1,0.9l-1.9,2.5c-0.3-0.2-0.5-0.3-0.7-0.4c-0.3-0.1-0.6-0.1-0.9,0c-0.3,0.1-0.6,0.2-0.9,0.4
	c-0.6,0.5-0.9,1.1-0.8,1.9c0.1,0.6,0.4,1.2,1,2c0.8,1,1.5,1.5,2.1,1.6c0.6,0.1,1.2,0,1.7-0.5c0.5-0.4,0.8-0.9,0.8-1.4
	C597.6,302.1,597.5,301.6,597.1,300.9 M608.5,294.2l-2.9-3l0.7,4.2L608.5,294.2z M610.2,296l-3.5,1.8l0.4,1.9l-3.2,1.6l-1.3-11.9
	l3.4-1.7l8.9,8.1l-3.2,1.7L610.2,296z M623.9,284.3l0.9,6.1l0.8-0.1c0.7-0.1,1.2-0.2,1.5-0.4c0.3-0.2,0.5-0.5,0.6-0.9
	c0.1-0.4,0.1-1.1,0-2c-0.2-1.2-0.5-2-0.9-2.3c-0.4-0.4-1.1-0.5-2-0.4L623.9,284.3z M620.1,282.3l5.1-0.7c1-0.1,1.8-0.1,2.5,0.1
	c0.7,0.2,1.2,0.5,1.7,1c0.5,0.5,0.9,1,1.1,1.7c0.3,0.7,0.5,1.4,0.6,2.1c0.2,1.2,0.2,2.1,0,2.8c-0.2,0.7-0.5,1.3-0.9,1.8
	c-0.4,0.5-0.9,0.9-1.4,1.1c-0.6,0.3-1.3,0.5-2,0.6l-5.1,0.7L620.1,282.3z M635.4,280.1l9.3,0.7l-0.2,2.4l-5.8-0.4l-0.1,1.8l5.4,0.4
	l-0.2,2.3l-5.3-0.4l-0.2,2.2l6,0.4L644,292l-9.4-0.7L635.4,280.1z M649.6,281.5l3.3,0.9l-2.3,8.2l5.2,1.5l-0.8,2.6l-8.5-2.4
	L649.6,281.5z M668.6,293.9l0.7,0.5c0.6,0.4,1,0.5,1.4,0.5c0.3,0,0.7-0.2,0.8-0.5c0.2-0.3,0.3-0.6,0.2-0.9c-0.1-0.3-0.4-0.7-0.9-1
	l-0.8-0.6L668.6,293.9z M668.3,288l4.8,3.2c1,0.7,1.7,1.5,1.8,2.3c0.2,0.8,0,1.7-0.6,2.7c-0.6,0.9-1.4,1.5-2.3,1.6
	c-0.9,0.1-2-0.1-3.1-0.9l-1.6-1.1l-2.3,3.5l-2.9-1.9L668.3,288z M680.5,305.1l2-3.7l-3.7,2L680.5,305.1z M679.3,307.3l-2.8-2.8
	l-1.7,0.9l-2.5-2.5l5.2-2.4l5.7-2.6l2.7,2.7l-4.9,11l-2.6-2.6L679.3,307.3z M689.7,312.2l0.8,1.2c0.1,0.1,0.3,0.4,0.6,0.7
	c0.2,0.2,0.4,0.3,0.6,0.3c0.2,0,0.5,0,0.7-0.2c0.3-0.2,0.5-0.4,0.5-0.7c0-0.3-0.1-0.7-0.5-1.2l-0.8-1.3L689.7,312.2z M682.2,312.8
	l9.5-6l3.1,4.9c0.6,0.9,0.9,1.6,1.1,2.2c0.1,0.6,0.1,1.2-0.1,1.7c-0.2,0.6-0.6,1-1.2,1.4c-0.5,0.3-1,0.5-1.6,0.5
	c-0.5,0-1-0.1-1.5-0.3c-0.4-0.2-0.7-0.5-1-0.8c0.1,0.4,0.2,0.7,0.1,1c0,0.3-0.1,0.5-0.2,0.8c-0.1,0.3-0.2,0.5-0.3,0.8l-1.8,3.2
	l-2.1-3.3l1.9-3.4c0.3-0.5,0.4-0.8,0.4-1c0-0.3,0-0.6-0.2-0.9l-0.2-0.3l-3.8,2.5L682.2,312.8z M695.4,327.9l3.4-2.5l-4.2,0.2
	L695.4,327.9z M693.4,329.4l-1.3-3.7l-1.9,0.1l-1.2-3.3l12,0.1l1.3,3.5l-9.1,7.8l-1.2-3.4L693.4,329.4z M698.8,341.4l2.3-0.3
	l0.7,5.3L697,347c-0.8-0.9-1.4-1.8-1.7-2.5c-0.4-0.8-0.6-1.7-0.7-2.7c-0.2-1.3-0.1-2.4,0.3-3.3c0.3-0.9,0.9-1.6,1.8-2.2
	c0.8-0.6,1.8-0.9,3-1.1c1.2-0.2,2.3,0,3.3,0.4c1,0.4,1.7,1,2.3,1.9c0.5,0.7,0.8,1.7,0.9,3c0.2,1.2,0.2,2.2,0,2.8
	c-0.1,0.6-0.4,1.2-0.8,1.7c-0.5,0.5-1,0.9-1.6,1.1l-1-3.2c0.4-0.2,0.7-0.5,0.9-0.8c0.2-0.3,0.2-0.8,0.2-1.3c-0.1-0.8-0.4-1.3-1-1.7
	c-0.6-0.4-1.5-0.5-2.6-0.4c-1.2,0.1-2,0.5-2.5,1c-0.4,0.5-0.6,1.2-0.5,2c0,0.4,0.2,0.7,0.3,1.1c0.2,0.3,0.4,0.7,0.7,1.2l1.1-0.1
	L698.8,341.4z M705.9,358.2l-0.4,3.4l-6.6-0.7c-0.6-0.1-1.3-0.2-1.8-0.5c-0.6-0.3-1-0.7-1.4-1.1c-0.4-0.5-0.6-1-0.8-1.5
	c-0.2-0.7-0.2-1.5-0.1-2.5c0.1-0.5,0.2-1.1,0.3-1.8c0.2-0.6,0.4-1.2,0.7-1.6c0.3-0.4,0.7-0.8,1.1-1.1c0.5-0.3,0.9-0.5,1.4-0.6
	c0.7-0.1,1.4-0.2,1.9-0.1l6.6,0.8l-0.4,3.4l-6.8-0.8c-0.6-0.1-1.1,0-1.5,0.3c-0.4,0.3-0.6,0.7-0.7,1.3c-0.1,0.6,0,1.1,0.3,1.5
	c0.3,0.4,0.7,0.6,1.4,0.7L705.9,358.2z M695.5,371l4.2,0.2l-3.4-2.5L695.5,371z M693,370.8l1.3-3.7l-1.6-1.1l1.2-3.3l9.2,7.7
	l-1.3,3.6l-11.9,0.3l1.2-3.4L693,370.8z M699.2,381.2l-2,3.3l-4.4,0l2.1,3.9l-1.9,3.3l-3.4-7.1l-4-2.4l1.8-3l4,2.4L699.2,381.2z"/>
<path class="st5" d="M710.6,350c0,41-33.3,74.3-74.3,74.3c-41,0-74.3-33.3-74.3-74.3c0-41,33.2-74.3,74.3-74.3
	C677.4,275.7,710.6,309,710.6,350L710.6,350z"/>
<path class="st5" d="M691.6,349.7c0,30.5-24.7,55.3-55.3,55.3c-30.5,0-55.3-24.7-55.3-55.3c0-30.5,24.7-55.3,55.3-55.3
	C666.9,294.5,691.6,319.2,691.6,349.7L691.6,349.7z"/>
<path class="st6" d="M636.4,329.9l4.6,13.3l14,0.3l-11.2,8.5l4.1,13.5l-11.6-8l-11.6,8l4-13.5l-11.2-8.5l14.1-0.3L636.4,329.9z"/>
<path class="st7" d="M661.9,387.9c-0.5,0.4-2.4,0.6-2.9,0.7c-0.5,0.1-2.5,0.1-3.3,0.1c-0.5,0-1.4,0.2-1.8,0.2
	C649.8,388.4,660.5,388.5,661.9,387.9 M651.2,384.8c0.3-0.5,1.6-3.4,2.1-4.3c0.5-0.8,1.6-3,2.2-3.9c0.3-0.5,1.7-1.9,2-1.3
	c-2.3,2-4.1,5.5-5.1,7.8c-0.1,0.3-0.9,1.6-1.2,1.9c-0.3,0.3-0.2,1-0.6,1c-0.4,0.1-0.1,0.1-0.1,0.1S650.9,385.3,651.2,384.8
	L651.2,384.8z M666.5,387c0,0-1.8-0.3-3-0.7c-1.1-0.4-3-0.7-4.7-0.6c-1.6,0-3.1,0.5-4.4,1c-1.3,0.5-3,0.5-3,0.5s-1,0.1-0.5-0.1
	c0.4-0.2,1.9-1.4,1.9-1.4l1-1.3c0.3-0.1,5.1-6.4,4.6-8.2c0.7-1.3,1.6-3.5,1.3-3.9c-0.2-0.2-3.8,1.1-4.6,1.9
	c-0.9,0.8-1.6,2.5-1.8,3.4c-0.3,0.9-1.7,1.7-1.7,1.7c-1.1,0.8-2,3.4-2.3,5.5c-0.4,2.1-5.5,3.2-5.5,3.2s-1.4,0.5-0.2,0.9
	c0.2,0.1,0.8,1,1.2,1c0.6,0.1,3.8-1.3,4.3-1.2c1.1,0.2,2.2,0.5,3.2,0.9c1.2,0.4,2.2,0.6,3.1,0.3c0.9-0.3,2.1-0.2,3,0
	c0.9,0.2,1.9,0.1,2.5-0.1c0.6-0.2,2.3-1.1,2.3-1.1s1.8-0.8,2.8-1.3C667.2,387.2,666.5,387,666.5,387"/>
<path class="st8" d="M652.6,393.2c0,0-7.1-3.7-7.4-3.8c-0.2,0-3.2-1.7-4.6-2.1c-1-0.3-2.3-0.4-2.8-0.4c-1.2,0.1-3.1,0.6-3.1,0.6
	l1.8,0.7c0,0,1.6,0.8,2.5,1.2c1.2,0.6,1.2,1.4,1.2,1.4l6.4,2.8l1.3,0.9C647.8,394.6,649,393,652.6,393.2"/>
<path class="st9" d="M659.7,378.5c2.2-2,3.3-4.8,5.1-6.4c0.3,0.2,0.3,0.6-0.1,1.2c-0.3,0.6-0.8,0.8-1,1.1c-0.4,0.5-1.5,1.4-1.8,2
	c-0.3,0.5-0.6,1.3-1.6,1.8c-1,0.6-0.7,1.5-0.7,1.9c-0.1,0.4-1.6,1.5-2.3,2.8c-0.1,1.4-0.2,0.8-1,1.3
	C657.9,382,658.6,380.5,659.7,378.5 M654.7,384.8c-0.1,0.3-4.5,2.8-3.2,2.4c1.4-0.4,5.4-1.8,6.6-2.3c1.4-0.6,2.3-1.9,3.3-3
	c1.1-1.1,4.4-4.3,5-5.5c0.6-1.3,1.1-3-1.2-7c0,0-0.4,0.8-1.2,1.5c-0.8,0.8-2.1,1.6-2.1,1.6l-1.5,1.4
	C660.5,373.9,655.4,383.3,654.7,384.8"/>
<path class="st7" d="M672.5,381.5c0,0-2.8-0.3-3.1-0.3c-0.3,0-1.8-0.2-4-0.2c-2.2,0-3,0.8-3.6,1.4c-0.6,0.7-2.4,2.3-2.4,2.3l0.9-0.1
	c2.2-1.7,4-1.1,4.7-1.2c0.7,0,1.6,0,3.8-0.7c2.3-0.8,2.1-0.1,1.9,0c-1.1,0.4-2.2,0.6-3.4,0.7c-1.7,0.1-3.2,0.4-3.8,0.4
	c-0.7,0-5.6,1.4-5.6,1.4s5.3,0.3,5.9,0.5c0.6,0.2,1.5,0.1,2.2-0.2c2-0.9,3-1.1,3.8-1.3c0.8-0.2,1.9-0.7,1.9-0.7s0.5-0.3,1-1.2
	C673.3,381.2,672.5,381.5,672.5,381.5 M675.1,366.8c0.3-0.8,1.2-2.8,2.1-3.6c0.5-0.5,1.5-0.7,2-0.9c0.2-0.1,1.7-0.1-0.2,0.4
	c-0.8,0.2-1.9,0.7-2.3,1.5c-0.7,1.9-1.3,3.5-2.5,4.7c-0.9,1-1.5,2.2-1.5,2.2l-1,0.3C673.5,370.3,674.3,368.3,675.1,366.8
	L675.1,366.8z M683.8,365.8c-1,0.3-1.4,0.6-1.4,0.6c-2.3,0.7-3.2,2.1-4.2,3.3c-0.5,0.6-1.2,1.1-3.6,2.1c-2.2,0.9-3.9,2.4-4,2.4
	c0,0-0.7,0.1-0.6,0.5c0.1,0.2,0.6,0,0.6,0s4.5-0.6,6.4-1.8c1.2-0.8,1.9-1.3,3-3.1c0.5-0.8,1.1-2.3,1.1-1.3c0.1,2.5-3.8,5-5.5,5.7
	c-0.9,0.4-2.1,0.5-3.7,0.8c-1.6,0.3-2.5,0.2-2.4-0.1c0.2-0.5,0.3-0.6,0.8-1.1c0.7-0.9,2.6-1.2,3.9-1.8c1.6-0.7,3.1-1.7,3.8-2.6
	c0.8-0.9,1-1.2,1.2-2c0.6-2,0.6-3.1,1.2-3.8c1.9-2.4,2.2-3.1,2.3-4.2c0-0.2-1,0.6-1.5,0.9c-1,0.6-1.4,0.6-3.5,1.2
	c-2.2,0.5-2.1,1.9-2.4,2.6c-0.1,0.3-1,1.4-1.4,1.6c-0.4,0.2-1.4,1.7-1.8,2.6c-0.3,0.6-0.8,1.1-1.2,1c-0.4-0.1,0.8-4.7,1.1-5.4
	c0.3-0.8,0.3-2.2,0.3-2.7c0-0.5,0-1.7-0.8-1.9c-0.8-0.1-0.9-1.3-0.9-1.3c-2,1.7-0.9,4.8-0.7,6.6c0.2,1.8-0.4,5.1-0.4,5.1
	c1.9,0.8,0.4,3.2-0.2,3.9c-0.6,0.8-1.8,0.9-2.4,1.6c-0.6,0.7-4.6,6.3-4.6,6.3l5-1.4c0,0,0.5,0.1-0.3-0.5c-0.8-0.5,0.2-2.6,0.9-3.2
	c1.2-1,2.9-0.3,2.9-0.3s2.3,0.4,5.2-0.8c2.4-0.9,3.4-2.5,4.5-3.6c0.6-0.6,1.7-2.7,2.4-3.9C683.5,367,684.3,365.6,683.8,365.8"/>
<path class="st10" d="M669.6,379.3c0.4-0.2,0.4-0.2,1.1-1c0.7-0.8,0.1-2.1-1-2c-0.5,0-1.1-0.1-2.1,1.3c-1,1.4,0.5,1.9,1,1.9
	C668.9,379.5,669.3,379.4,669.6,379.3"/>
<path class="st11" d="M667,370.5c-0.7,1.1-1,2.4-0.5,2.8c0.1,0.1,0.6,0.5,1,0.5c0.4,0,1.5-0.5,2.1-1.5c0.6-0.9,1.1-1.9-0.1-2.6
	C668.3,369.1,667.5,369.7,667,370.5"/>
<path class="st7" d="M670.8,357c0,0,0.1-0.2-0.3-0.6c-0.7-0.7-1.6-2-1.6-2c-1.4,0.8-1.8,2.3-1.8,2.9c0,0.6,0.2,2,0,3.4
	c-0.1,0.5-0.2,1-0.8,2.7c-0.7,1.7,0.1,3.3,0.3,3.8c0.1,0.5,0.7,2.2,0.7,2.2s0.5-0.3,0.7-0.4c0.2-0.1,0.9,0,0.9,0s0.8-1.5,0.9-2.3
	c0-0.6-0.1-1.7-0.4-3.3c-0.4-2.3-0.4-3-0.1-4.3C669.6,357.8,670.8,357,670.8,357"/>
<path class="st12" d="M672.9,359.3c0,0,0.8-0.2,1.2-0.9c0.5-0.9,0.4-1.8,0.4-1.8c-1.2-2.3-2.8-0.5-2.8-0.5
	C670.1,359.2,672.9,359.3,672.9,359.3"/>
<path class="st13" d="M677,355c-1.8,0.1-2.7,3.3-2.7,3.3s-0.3,0.8-1.3,1.4c-1,0.6-0.4,1.5-0.4,3.2c0,1.6-1.1,4.5-1.1,4.5l-0.4,1
	c0,0,0,0.7,0.7-0.6c1.1-2.2,2.3-1.7,2.8-4.1c0.3-1.8,3.2-2.3,3.2-2.3l-0.8-0.2c-3.1-1.4,0.2-5,0.7-5.6
	C678.3,354.9,678.8,354.9,677,355"/>
<path class="st14" d="M676.5,358.9c-0.8,1.8,1.5,1.9,2.1,1.6c0.2-0.1,0.7-0.7,0.7-0.7c1-1.4,0.1-2.3-0.4-2.4
	C678.4,357.1,677.4,357,676.5,358.9"/>
<path class="st7" d="M672,352c0.6,1.2,2.3,4.4,2.7,4.2c0.3-0.1,0.1-0.8,0.1-0.8s-0.1-0.9-0.3-1.9c-0.3-1.1-0.2-2.4-0.8-3.3
	c-0.5-0.9-1.8-1.9-2.3-3.3c-0.5-1.4-0.1-4-0.1-4.3c0.1-0.3,0.2-0.1-0.1-0.4c-0.3-0.3-2.4-1.5-2.4-1.5s0.1,0.8,0.1,2.4
	c0,0.4-0.1,0.8-0.2,1.4c-0.1,0.6,0.3,1.4,1.2,3.2C671,349.7,671.5,351,672,352 M685.1,336.7c0,0-0.6,1-0.9,1.3
	c-0.2,0.2-3.8,3.3-4,3.4c-0.2,0.1-2,0.7-3.7,5.3c-1.7,4.6-1,8.8-1,8.8l0.8-0.1l0.1-0.4c0,0,0.3-1.5,0.5-2.7c0.2-1.1,1.5-2.7,2.3-3.9
	c0.8-1.1,1.4-2.8,1.4-2.8c1-1.9,1.4-3.6,2.4-5c0,1.6-6,11.4-6.7,14.7l1.8-0.3c1.4-1.3,3.3-4.1,4.6-5.8c1.3-1.8,1.8-4.6,2.1-5.8
	C685.1,342.3,685.1,336.7,685.1,336.7"/>
<path class="st7" d="M673,337.7c-0.9-0.8-1.6-1.1-1.6-1.1s0.2,1.7,0.2,2.7c0,1,0.1,2.7,0,3.6c0,0.9-0.5,2.4,0.2,3.9
	c0.7,1.4,1.4,2.2,1.9,3.1c0.5,0.9,1.4,5.5,1.4,5.5s-0.3-6.3,0-8c0.3-1.7,0.3-4.5-0.1-5.8C674.6,340.2,673.9,338.6,673,337.7
	 M677.2,331.6c0.3-0.5,0.9-1.6,1.2-3.3c0.1-0.7,0.2-1.9,0.1-2.7c0-0.5-0.2-1.5,0-1.5c0.2-0.1,0,0.3,0.2,1.1c0.1,0.3-0.1,1.1-0.2,2.1
	c0,0.8-0.1,1.5-0.4,2.6c-0.3,1,0,2-0.2,2.3c-0.2,0.3-0.8,1.5-0.8,1.5s-0.3,0.9-0.3,1.8c0,0.9,0.1,1.8,0.1,1.8s0.4-0.7,1.3-0.9
	c0,0,0.2-1.5,0.2-1.9c0-0.5,0.6-3.4,0.9-4.3c0.4-1.3,0.7-3.6,0-6.3c-0.2-0.7-0.3-3-0.3-3s-0.9,0.7-1.4,3.3c-0.2,0.8,0.2,2.9,0,5.2
	c-0.1,1.2-1.2,6.3-1.4,6.6"/>
<path class="st7" d="M677.2,331.6c0,0.1-0.1,0.1-0.1,0.1S677.2,331.7,677.2,331.6"/>
<path class="st7" d="M673.8,318.5c0.5,0,0.5,0.5,0.4,0.9c-0.1,0.4-0.1,1.2-0.1,1.3c0,0.2,0.2,1.2,0.3,1.8c0.2,0.6,0.5,0.8,0.3,1.9
	c-0.1,0.7-0.8,1.6-0.6,2.8c0.1,0.6,0.6,1.3,0.8,1.9c0.2,0.4,0.1,1.3,0.1,2.1c0,0.8,0.4,1.3,0.4,1.3s-0.5,1-0.7-0.2
	c-0.2-1.4-0.2-2-0.5-2.6c-0.4-1-0.8-2.9-0.2-4.3c0.1-0.3,0.2-0.8,0.2-1.4c0-0.6-0.4-1.7-0.5-2.3c-0.1-0.5,0-1.6,0-2 M671.6,325.4
	c0.1,0.8,0.4,1.2,1.2,2.9c0.3,0.6,0.9,2,1,2.4c0.1,0.5,0.2,1,0.2,1.1c0,0.1,0.1,1.2,0.1,1.2v0.4c0,0-2.4-1.4-3.5-2.2
	c-1.1-0.8-2.3-1.8-3-2.4c-0.9-0.7-3-3.2-3-5.2l-1-0.9c0,0-0.7,4.4,2.7,7.2c1,0.8,2.1,1.7,4.4,2.8c2.3,1.1,2,2,3,4.1
	c1,2.1,1.5,3.2,1.7,3.8c0.1,0.6-0.3,9.4-0.3,9.4l0.1,0.8c0,0,2.1-8.1,3.1-9c0,0-2-0.3-1.9-3.5l-0.4-2.1c0,0-0.4-2.5,0.4-4.1
	c0,0,0.9-2.9,0.6-5.3c-0.2-1.5-0.3-1.9-0.4-3.3c-0.3-2.2-1.2-5.4-1.3-5.7c-0.3-1.1-0.4-1.3-0.8-2.2c-0.1-0.3-0.3-1.3-0.6-1.3
	c-0.2,0-0.5,1.3-0.5,1.3s-0.4,1.4-0.5,1.8c-0.3,1.2-0.9,2.1-1.2,4.8c-0.1,0.5-0.1,1.8-0.2,1.9C671.6,324.4,671.5,325.1,671.6,325.4"
	/>
<path class="st7" d="M673.4,336.5c0,0-0.4-0.8-0.7-1.2c-0.7-0.9-1.7-1.6-4.5-2.9c-2.8-1.4-3.5-3.6-4.9-4.6c-0.6-0.4-1.9-0.7-1.9-0.7
	s1.2,1.7,1.5,2.3c0.4,0.7,0.5,1.2,2,2.7c1.5,1.4,3.3,1.9,4.5,2.3C671.2,334.9,673.4,336.5,673.4,336.5 M664.7,323.5
	c0.1,0.2,0.8,2.6,2.3,4.5c2.3,2.9,6.7,4.9,6.7,4.9c-0.4-1.8-1.1-3.9-1.7-4.8c-2-3.2-7.3-4.8-7.3-4.8S664.6,323.2,664.7,323.5
	 M671,324.8c1.2-2.6-2.3-5.1-3.3-6.9c0.4-0.3,0.8,0.5,1.2,1c0.6,0.8,2.2,3,2.2,3l0.5-2.4l-4.2-3.8c-0.1,0.6-1.3,1-1.3,1
	C665.4,320.3,671,324.8,671,324.8"/>
<path class="st7" d="M663.7,318.8c-1,0.5-1.4,0.5-1.4,0.5l0.6,1.5l0.3,0.4c0,0,1.3,1.9,2.1,2.1c0.3,0.1,1.5,0.3,2.7,0.8
	c1.5,0.6,4,2.8,4,2.8s-4.1-4.6-5.7-8.1l-0.5-2l-1.5,0.1C664.3,317,664.7,318.4,663.7,318.8"/>
<path class="st7" d="M648.3,315.9c0.7,0.6,1.4,1.2,2.2,1.7c0.9,0.5,3.5,2.1,5.5,2.5c0.5,0.1,2.9,0.4,2.9,0.4
	c0.1-1.1,1.3-1.2,1.3-1.2l-3.5-0.4c-2.8-0.2-5-1.4-6.6-3.3c2.2,1.4,5.4,3.5,8,3.4c10.7-1-3.2-1.3-4.4-2.1c-1.3-0.8-2.4-2.1-2.4-2.1
	l-3.1-0.1C648.2,314.6,646.7,314.5,648.3,315.9"/>
<path class="st7" d="M660.9,321.9c0.7-0.1,1.2-0.2,1.3-0.9c0.1-0.8-0.2-1.5-1.2-1.7c-0.6-0.1-1.6-0.2-2,0.8c-0.4,1,1.2,1.7,1.2,1.7
	S660.5,322,660.9,321.9 M662.1,315.8c-0.9,0-1.2,0.7-1,2.2c0.2,1.5,2.5,0.8,2.5,0.8l0.4-0.2c0,0,0.3-0.2,0.1-1.4
	C663.9,316,663,315.8,662.1,315.8 M665.7,316.8L665.7,316.8C665.7,316.8,665.7,316.8,665.7,316.8"/>
<path class="st7" d="M665.7,316.8c0,0,0.1,0,0.3-0.1c0.5-0.2,0.9-1.3,0.9-1.3c0.2-1.5-0.8-1.9-0.8-1.9c-1.8-0.4-1.9,1.2-1.9,1.2
	C663.7,316.9,665.4,316.8,665.7,316.8 M657.6,309.7c0.1,0.7,1.1,1.7,1.2,1.9c0.2,0.2,1.4,1.5,1.8,2c0.4,0.6,1.8,3.2,1.8,3.2
	s0.2,0,0.3-0.2c0.2-0.4-0.9-3.6-1.1-3.8c-0.4-1-1.1-1.7-1.9-2.5c-0.2-0.1-0.7-0.9-1.4-1.7c1.3,1.6,4.5,6.2,5.5,8.3
	c0,0-0.1-2.2-0.2-3.4c-0.4-3.4-1.3-4.5-1.6-5c-0.5-0.9-1.8-1.8-2.7-2.1c-0.9-0.3-2-0.8-3.2-1.2c-1.2-0.4-0.3,0.7,0.2,1.6
	C657.1,308.1,657.5,309,657.6,309.7"/>
<path class="st7" d="M653.2,315.3c1.2,1,1.7,1.7,4.2,2.1c2.5,0.4,2.7,0.2,2.7,0.2s1.3-0.6,0.6-1.2c-3.6-1.6-7.1-3.5-8.8-5.6
	c0,0,0.3-0.3,1.6,1c0.7,0.7,1.2,1.1,1.7,1.5c1.3,0.9,1.9,1.2,3.2,1.9c0.7,0.4,2.5,0.8,2.5,0.8s0.2-0.5,0.5-0.6
	c0.2-0.1-0.1-0.9-1.7-2.1c-0.8-0.7-1.6-1.5-2.2-2.4c0,0-1.8-0.4-3.8-0.7c-1.5-0.2-4.2-2.4-4.1-1.8c0,0.6,0.4,2.4,1.1,3.6
	C651.3,313.1,652,314.3,653.2,315.3"/>
<path class="st8" d="M632.8,389.2c-1.1,0.3-9.1,3.3-9.1,3.3l-2.2,0.9c3.1-0.7,5.5,0.9,5.5,0.9l8.9-4.1c0,0,0-0.1-0.2-0.3
	C635.4,389.6,633.8,388.8,632.8,389.2"/>
<path class="st15" d="M621.1,393.6c-0.1,0.1-0.1,0.3,0,0.3c0.4,0.2,0.3,0.3,2.4,0.6c2,0.2,3.4-0.2,3.7-0.6
	C627.6,393.6,622.1,392.7,621.1,393.6"/>
<path class="st16" d="M608.3,364.8l-0.4-2.5c0,0-0.5-6.8-1.2-8.1c-0.1-0.3-0.1-1-0.6-1c-0.9-0.1-0.9,2.1-1,4.1
	c-1.5,10.1,6.5,17.8,6.5,17.8L608.3,364.8z"/>
<path class="st17" d="M648,394.6c0,0-0.8-0.2-0.3-0.8c0.5-0.6,2-1,2.3-1c0.3,0,1.2,0.1,1.8,0.2c0.6,0.2,1.5,0.7,1.3,1.1
	c-0.3,0.4-1.1,0.9-2.3,0.9c-1,0-1.5,0-2-0.2C648.4,394.8,648,394.6,648,394.6"/>
<path class="st8" d="M639.3,389.8c0,0-2.8-1.3-5.4-2.5c-3.4-1.7-7.6-4-10.5-8.3c-3.6-5.3-6.8-8.1-7.5-8.7c-0.8-0.6-0.9-0.8-1.2-0.4
	c-0.3,0.3-0.1,0.7,0.1,1c0.7,1.2,2.6,3.5,3.2,4.7c1.1,2.2,3.5,4.6,3.4,6c0,0.2-0.7-0.1-0.7-0.1s-5.5-1.9-7.7-8.5
	c-1.6-4.8-0.9-6.2-1.3-8.6c-0.6-4.3-0.8-4.6-2.9-9.4c-0.1-0.1-1.3-2.1-1.5-1.7c-0.2,0.6,0.2,2.7,0.2,2.7l0.2,2.5
	c0,0-0.2,5.5-0.2,5.8c0,0.3-1.4,3.7,4.5,9.5c0,0,0.1,1-0.7,0.1c-0.6-0.6-4.7-3.8-6-9.1c-1.3-5.3-1.5-10.6-0.5-12.8
	c0.9-2,2.7-6.8,1.9-11.1c-0.1-0.4-0.2-1.7-0.5-1.4c-0.1,0.2-0.6,2.3-1,3.1c-0.4,1-1.1,2-1.3,2.7c-0.4,1.2-2.4,3-2,6.4
	c0.4,3.9,0.7,4.5,1.2,5.9c0.2,0.5,0.6,1.8,0.3,1.9c-0.2,0.1-1.1-1.5-1.1-1.5s-3.7-7.3-1.4-13.2c2.3-5.9,8.1-11.4,8.1-11.4
	s4.7-3.9,5.7-4.8c0.4-0.3,0.3-0.6,0.2-0.6c-1.2,0.3-10.2,2.2-13.4,12.9c0,0-0.2,0.5-0.4,0.3c-0.3-0.1,0-0.6,0-0.6s2-7.6,7.6-11.1
	c6.1-3.8,5.4-3.2,7.4-4.4c1.3-0.8,2.4-1.8,3.8-4.2c0.1-0.3,0.7-1.6,0.6-1.9c-0.1-0.2-0.3,0.1-0.5,0.5c0,0-1.7,2.7-4.3,3.6
	c-2.6,0.9-4.7-0.4-7.3,2.5c-2.6,2.9-4.7,6.9-4.7,6.9s-0.7,1-0.8,1c-0.3-0.1,0.1-1.1,0.1-1.1s3.5-7.4,6.3-8.9c2.8-1.5,5.3-3,6.9-4.2
	c1.9-1.5,5.3-5.2,6.5-6.5c0.3-0.3,2-2.1,2.4-2.7c0.2-0.3,0.8-0.8,0.7-0.9c-0.3-0.2-2,0.6-2,0.6s-9.2,2.5-15,11.2
	c-0.3,0.4-0.9,1.2-1.2,1.6c-0.6,0.6-0.9,1.7-0.9,1.7c-0.4-0.3,3.2-4.8,3.2-4.8l0.6-2.9c0,0,1.1-4.4,3.3-7.5c0.2-0.3,1.6-1.6,1.8-1.9
	c0.4-0.5-0.8,0.4-0.6,0.2c0,0-8.6,6.2-8.6,14c0,1.4-0.9,2.7-2.1,4.4c-1.4,2-1.9,3.3-2.5,6.3c-0.3,1.3-0.5,2.5-0.8,3.8
	c0,0,0.1,1.1-0.3,1c-0.4-0.1-0.2-1-0.2-1s0.9-5.8,1.5-7.6c0.6-1.7,1-2.9,1-2.9s-0.4-4.4,0.6-6.7c0.8-2.1,2.9-4.8,3.2-5.5
	c0.1-0.3,1.1-2.3,1.4-4.5c0-0.3-0.2-0.1-0.6,0.8c-0.9,2.1-1.7,2.7-3.3,4.7c0,0-4,2.9-5.4,11.5c0,0,0,3.2-0.5,8.2
	c-0.4,3.7-0.1,7.1,0.4,9.2c0.3,1.3,0.8,1.3,0.5,1.4c-0.2,0.1,0.1,0-0.3-0.9c-0.6-1.2-1-2.9-1-5.4c0-4.5,0.4-8.1,0.4-8.1
	s0.3-7.2-2.7-10.5c-0.1-0.2,0.5,1.5,0.8,3.1c0.4,2-0.3,4.8-0.5,5.9c-0.2,1.1-2.2,5.9-1.5,10.4c0,0,1.7,7.6,3.9,11.3
	c0,0,1.4,1.6,0.2,0.1c-1.2-1.5-3.6-7.4-3.8-7.9c-0.2-0.5-1.9-4.2-3.6-5.7c-0.9-0.8-3.2-2.2-3.2-2.2s-1.3-1-0.3,0.3
	c0.8,1,1.8,2.8,2.3,3.6c1,1.6,1.9,3.4,2.7,5.1c0.8,1.7,2.6,6.8,2.6,6.8l1.2,3.2c0,0,2,1.1,3,2.3c0.9,1,2.7,3.2,4.2,7.1
	c0.7,1.7,2,3.3,2,3.3s-0.3,0.6-1.5-1.5c-1.2-2.1-2.3-6.1-5.2-9.1c-2.2-2.4-8-4.7-8-4.7s3.7,6.5,4.7,7.7c1.6,1.9,3.9,4.5,4.4,5.2
	c0.6,0.7,4.1,5.1,4.7,5.8c0.8,1.1,1.4,1.6,1.8,2c0.9,1,3.7,2.8,3.9,3.1c0,0.3,0.1,0.1-0.1-0.1c-1.2-0.7-2.7-1.9-4.2-2.9
	c-1.5-1-7.3-3.5-11.2-8.9c-0.9-1.6-1.4-2.2-1.7-2.1c-0.5,0.3,2.6,10.5,9,13.8c0,0,7.1,3.1,8.6,4.1c0.9,0.5,2.6,1.3,3.4,1.9
	c0.5,0.4-0.4,0.4-0.5,0.3c-3.7-0.3-9.1-0.8-12.4-2.7c0,0-1.4-1-0.3,0.4c0.9,1.1,2.7,3.7,6.1,5.3c3.4,1.5,8.3,2.4,10.1,2.4
	c1.8,0.1,8.1,0.1,9.3,0.5c1.2,0.4,3.2,1.7,4.4,2.1c1,0.3,4.2,1.6,4.2,1.6s1,0.5,1.5,0.7c0.6,0.2,2.9,0.2,3.1-0.2
	C640.2,390.5,639.3,389.8,639.3,389.8"/>
<path class="st7" d="M680.3,336.3c0.7,0.3,1,2.4,1,2.4s-0.1-1.2-0.1-1.8c0-0.6-0.3-2.9-0.3-2.9l-0.6,0.5c-0.8,0.6-1.2,1.7-1.2,1.7
	S679.6,336,680.3,336.3"/>
</svg>
