<svg id="Layer_1" data-name="Layer 1" xmlns="http://www.w3.org/2000/svg" width="493.89mm" height="246.94mm" viewBox="0 0 1400 700">
  <defs>
    <style>
      .cls-1 {
        fill: #060;
      }

      .cls-2 {
        fill: #fff;
      }

      .cls-3 {
        fill: #c00;
      }

      .cls-4 {
        fill: #f8c300;
      }

      .cls-5 {
        fill: none;
        stroke: #f8c300;
        stroke-miterlimit: 3.43;
        stroke-width: 16px;
      }
    </style>
  </defs>
  <rect class="cls-1" width="1400" height="700"/>
  <rect class="cls-2" width="1400" height="500"/>
  <rect class="cls-3" width="1400" height="200"/>
  <g>
    <path class="cls-4" d="M672,340.7a12.5,12.5,0,0,1,23.3,5.9v50h9.4v-50a12.5,12.5,0,0,1,23.3-5.9,29.5,29.5,0,1,0-56,0" transform="translate(0 0)"/>
    <path class="cls-2" d="M678.7,327.65A20,20,0,0,1,700,337.2a20,20,0,0,1,21.3-9.55,21.5,21.5,0,0,0-42.6,0" transform="translate(0 0)"/>
    <path id="w" class="cls-4" d="M695.3,376.63a38,38,0,0,1-63.85,24.31,39.5,39.5,0,0,1-59.73,17.47c3.65,36.43,58.25,29,62.32-6.43,17.15,30.12,54.87,21.49,65.91-15.4Z" transform="translate(0 0)"/>
    <path class="cls-4" d="M704.7,376.63a38,38,0,0,0,63.84,24.31,39.5,39.5,0,0,0,59.74,17.47C824.63,454.84,770,447.4,766,412c-17.16,30.12-54.88,21.49-65.91-15.4Z" transform="translate(0 0)"/>
    <path id="r" class="cls-4" d="M658.84,441.31c-7.62,16.45-22.85,19.27-36.17,6a32.43,32.43,0,0,1,11.09-4.82c-1.07-4.58,1.13-10.9,4.24-14.33,3.25,2.23,7.8,6.69,9,11.88,8-1,11.88,1.28,11.88,1.28Z" transform="translate(0 0)"/>
    <path class="cls-4" d="M718.44,439.45c-10.2,15-25.68,15.29-36.66,0a32.32,32.32,0,0,1,11.72-3c-.31-4.69,2.89-10.57,6.51-13.45,2.86,2.73,6.61,7.87,6.91,13.18,8.09.28,11.52,3.2,11.52,3.2Z" transform="translate(0 0)"/>
    <path class="cls-4" d="M777.54,447.31c-12.49,13.13-27.82,10.91-36.17-5.94a32.48,32.48,0,0,1,12-1c.45-4.67,4.57-10,8.61-12.2,2.37,3.15,5.24,8.84,4.67,14.12,7.94,1.6,10.84,5,10.84,5Z" transform="translate(0 0)"/>
    <path class="cls-5" d="M603,478a340,340,0,0,1,194,0" transform="translate(0 0)"/>
    <g>
      <polygon id="s" class="cls-4" points="700 215 714.69 260.23 676.22 232.27 723.77 232.27 685.3 260.23 700 215"/>
      <g id="h">
        <polygon class="cls-4" points="630 233.76 644.69 278.98 606.22 251.03 653.77 251.03 615.3 278.98 630 233.76"/>
        <polygon class="cls-4" points="578.75 285 593.45 330.23 554.98 302.27 602.53 302.27 564.06 330.23 578.75 285"/>
        <polygon class="cls-4" points="560 355 574.69 400.23 536.22 372.27 583.77 372.27 545.3 400.23 560 355"/>
      </g>
      <g>
        <polygon class="cls-4" points="770 233.76 755.3 278.98 793.77 251.03 746.22 251.03 784.69 278.98 770 233.76"/>
        <polygon class="cls-4" points="821.24 285 806.55 330.23 845.02 302.27 797.47 302.27 835.94 330.23 821.24 285"/>
        <polygon class="cls-4" points="840 355 825.3 400.23 863.77 372.27 816.22 372.27 854.69 400.23 840 355"/>
      </g>
    </g>
  </g>
</svg>
