<?xml version="1.0" encoding="utf-8"?>
<!-- Generator: Adobe Illustrator 23.1.0, SVG Export Plug-In . SVG Version: 6.00 Build 0)  -->
<svg version="1.1" id="Layer_1" xmlns="http://www.w3.org/2000/svg" xmlns:xlink="http://www.w3.org/1999/xlink" x="0px" y="0px"
	 viewBox="0 0 1050 700" style="enable-background:new 0 0 1050 700;" xml:space="preserve">
<style type="text/css">
	.st0{fill:#FFD520;}
	.st1{fill:#FF4E12;}
	.st2{fill:#FFFFFF;stroke:#000000;stroke-width:0.521;}
	.st3{fill:none;stroke:#000000;stroke-width:0.521;}
	.st4{fill:none;stroke:#000000;stroke-width:0.521;stroke-linecap:round;}
	.st5{fill:none;stroke:#000000;stroke-width:0.521;stroke-linecap:round;stroke-linejoin:round;}
	.st6{fill:#FFFFFF;stroke:#000000;stroke-width:0.521;stroke-linecap:round;}
</style>
<g>
	<path class="st0" d="M0,0h1050v700H0V0z"/>
	<path class="st1" d="M0,700h1050V0L0,700z"/>
	<g>
		<g>
			<path class="st2" d="M562,218.9c-5.8-2.1-9.6,0.9-9.4,8.5c0.2,7.5,4.1,11.8,10,9L562,218.9L562,218.9z"/>
			<path class="st2" d="M567.1,204.8c-4.8-3.8-9.4-2.2-11.6,5c-2.2,7.2,0.1,12.5,6.5,11.7L567.1,204.8L567.1,204.8z"/>
			<path class="st2" d="M575.2,191.2c-4.2-4.6-8.9-3.7-12.3,3.1c-3.4,6.7-1.9,12.4,4.6,12.6L575.2,191.2z M569.9,257.4
				c-7.1,2.6-7.9,12.4-3.4,18.4c4.5,6,12.8,7.1,17.3,0L569.9,257.4L569.9,257.4z"/>
			<path class="st2" d="M561.7,236.7c-6.8-2.3-12.9,6.8-13.9,15c-1.3,10.3-16,13.7-7.9,29.3c1.7-10,8.3-15.4,13.5-15.8
				c5.3-0.4,13.1-1.5,16.5-7.9L561.7,236.7z M583.1,276.9c-7.9,1.9-9,12.4-3.4,19.9c4.8,6.4,19.9,4.9,19.5-1.5L583.1,276.9z
				 M605.4,340.2c0.4-6.8-10.5-9.4-15.8-8.1c-5.3,1.3-15.3-0.2-17.7-5.8c-1.9,4.5,0.8,9.4,8.5,11.8c5.8,1.8,5.6,6,3.9,7.9
				C588.7,346.8,601.5,346.8,605.4,340.2L605.4,340.2z"/>
			<path class="st2" d="M599.2,297c-7.7-3.4-12.3,1.8-15.2,6.8c-4.3,7.3-17.7-2.1-22.2,7.7c6.1-2.6,12.3,3,15.2,4.9
				c8.3,5.4,24.2,3.8,26.5-9L599.2,297L599.2,297z"/>
			<path class="st2" d="M603.7,306c-7.7,5.8-10.7,12.8-10.5,17.5c0.2,4.7,6.8,15,13.9,15.6C611.2,330.6,613.3,312.8,603.7,306
				L603.7,306z M571.8,342.2c0-2.8,4.1-3.9,6.9-3c2.8,0.9,7.1,3.8,5.6,6.8L571.8,342.2z M529.4,326.8c-0.7-3.4,4.7-9.2,12-6
				c7.3,3.2,8.3,9.4,5.3,11.8L529.4,326.8L529.4,326.8z"/>
			<path class="st2" d="M547.2,333c-0.6-1.9,4.7-5.6,13.7-3.4c9,2.3,11.2,8.1,10.9,12.6L547.2,333L547.2,333z M528.4,326.8
				c4.7-3.6,2.9-10.3-1.3-12.4c-7.7-3.8-4.9-13.5-9.8-15.4c-4.9-1.9-9.6-5.3-9.8-8.6c-2.4,4.7-0.9,9,2.4,12c3.4,3-2.6,15.2,1.7,18.4
				L528.4,326.8L528.4,326.8z M427.7,324.2c-3.9-6.2-13.3-5.1-17.3-0.8c-3.9,4.3-3.4,10.7,0.4,13.5L427.7,324.2z M450.3,315
				c-1.5-8.3-11.5-9.2-16.9-7.1c-5.4,2.1-9.2,10.3-5.6,16.3L450.3,315L450.3,315z"/>
			<path class="st2" d="M465.3,313.9c3.6-6.9-3.4-17.3-11.3-18.8c-6.6-1.3-14.4-1.2-16.9-7.7c-1.6,5.6,2.6,9.2,7.5,12.4
				c4.9,3.2-0.9,11.5,6.9,16.2L465.3,313.9L465.3,313.9z"/>
			<path class="st2" d="M464.6,314.1c-1.6-5,1.7-11.6,8.4-11.1c6.7,0.5,10.6,5.4,7.6,11.5L464.6,314.1L464.6,314.1z"/>
			<path class="st2" d="M479.6,314.5c-0.9-5.2,3.3-11.2,9.9-9.8c6.6,1.4,9.7,6.8,5.9,12.5L479.6,314.5z"/>
			<path class="st2" d="M494.5,316.9c-0.7-5.2,3.9-11.1,10.4-9.3c6.5,1.7,9.4,7.3,5.3,12.7L494.5,316.9z M381.2,402.9
				c-12.6,0-15.7,3-17.5,16C361.5,435,383.4,436.9,381.2,402.9z"/>
			<path class="st2" d="M386.8,386c-19.3-7.3-29.9,23.3-49,17.8c6.9,10.9,23.5,0,29.7,1.1C378,406.8,400.7,402.9,386.8,386
				L386.8,386z M374.2,427.9c-9.6-4.3-19.9,10.3-18,16.7C358.6,452.7,380.4,446.1,374.2,427.9z M329.5,491
				c5.3,1.5,11.6,4.5,10.5,14.6c-1.1,10.1-20.3,30.8-37.6,31.9s-23.5,22-38.3,16.1c13.9-2.6,13.9-18.4,24.8-23.3
				c-7.9-2.8-12,15-22.2,15c-10.1,0-15,16.1-27.4,15c-12.4-1.1-13.7,19.7-38.5,19.9c-19,0.2-42.4,22.3-50.9,12.8
				c18.4-2.6,25.8-12.8,36.8-24c17.7-18,37.6-10,44.3-25.9c-8.1,5.4-17.5,8.1-26.7,7.9c-11.6-0.2-24.2,18.4-37.2,10.1
				c7.5-0.9,12.4-4.1,20.3-12.4c8.1-8.5,19.9-3,29.3-11.6c14.6-13.5,27.2-2.3,41.3-19.2c-3.9-1.9-12.4-0.6-20.3,3.6
				c-7.9,4.1-18-2.8-27,2.1c1.1-11.1,22.2-4.7,35.3-12.4c14.8-8.6,27.1-6.1,38.9-5.1c-16.3-0.1-22.7-15.6-45.3-11.1
				c-9.8,2-17.7-13.5-27.4-5.6c0.3-5.8,10.5-10.5,21-4.9c10.5,5.6,14.8-4.9,35.7,8.3c8.6,5.4,23.5-3.4,32.9,2.4
				c-1.2-3.6-6.6-5.8-12.9-5.4C293,481.9,318.4,482.9,329.5,491L329.5,491z"/>
			<path class="st2" d="M346.2,478.8c-8.3-6.4-19.7,1.3-27.6-1.7c0,5.3,2.6,13.1,11.3,16.2C332.5,491.4,344.4,481,346.2,478.8z"/>
			<path class="st2" d="M359.2,460.6c-13-6.6-15.2,9.8-25.4,6.4c0.4,4.7,4.1,10.5,12.4,11.8L359.2,460.6L359.2,460.6z"/>
			<path class="st2" d="M366.9,445.7c-19.2-7.5-21.6,10.9-32.9,7.3c2.6,6.4,18.8,9.8,27,7.5L366.9,445.7L366.9,445.7z M393.2,365.2
				c-5.1-7.1-15.8-1.3-17.5,7.1c-1.7,8.5,2.4,20.3,9.6,17.7L393.2,365.2L393.2,365.2z"/>
			<path class="st2" d="M406.2,342.6c-8.8-2.1-19-1.1-17.8,7.5c-3.4,1.5-4.3,12.6,4.9,15L406.2,342.6L406.2,342.6z"/>
			<path class="st2" d="M412,336.8c-8.6-10.1-18.3-9.9-23.7-5.6c-10,7.9-19.6,3.4-19.9,11.3c6-4.6,11.3,0.9,16.2-0.8
				c4.9-1.7,8.5,7.7,22,3.8L412,336.8L412,336.8z M391.1,488.4c1.3,2.4,9.4,3.6,13.3-0.6c5.2-5.5-0.6-20.7-8.8-21.8
				C387.4,464.9,386.6,483.1,391.1,488.4L391.1,488.4z"/>
			<path class="st2" d="M381.7,488.7c11.8,4.3,16.9-5.4,10.5-11.6C390.6,479.2,384.4,486.7,381.7,488.7z"/>
			<path class="st2" d="M337.4,504.9c-2.3,6.8-13.9,7.9-27,28.9c-13.1,21-25.7,12.2-28.9,26.7c15.8-12.8,28.2-4.3,37.6-16.9
				c14.3-19.2,26-16.4,31.6-29.3c7.9-18.4,42.4-18,44.3-47C383.2,465.1,346.4,496.2,337.4,504.9L337.4,504.9z M633.8,220.9
				c15,4.9,15.4,24.4,32.7,30.8c17.3,6.4,19,21.8,33.1,18c-13.1-3.6-12.2-18.8-25.9-22.5c-16.1-4.4-22.2-28.9-34.9-32.7
				 M702.7,322.9c2.6,6,2.3,16.7-7.1,19.5c5.1,3.2,12.6,0.2,16.7-6.8c-6.2,13.7-2.1,26.1,7.7,28.5c-4.7-9.6,5.8-14.1,2.4-20.3
				c6.2,2.6,11.6,11.1,11.5,16.3c8.1-9-6-21-3.4-29.5L702.7,322.9L702.7,322.9z M605.4,419.4c-9.2-8.1-13.1,2.1-17.7-1.4
				c-4.2-3.3-9.9-3.8-12-0.5c7.9,0.3,4,6.4,19.3,7.9c-15.3,1-12.5,18.1-22.7,17.3c10.9,10.3,16.5-9.2,25.4-6
				c-2.6,0.8,4.1,6.9-0.6,15.2c7.6-0.2,10.7-10.7,11.6-16.2L605.4,419.4L605.4,419.4z M402.8,507.1c-3.4-2.8-13.1-4.1-16.9-1.9
				c-3.8,2.3-2.4,2.8,2.1,3.2c4.5,0.4,10.3,7.7,0.6,8.1c-4.5,0.2-3,11.1-12.4,11.8c3.8,4.7,14.8,1.6,18.8-3.6
				c-0.8,4.2,4.9,8.1,2.6,13.1c6.9,0.8,2.9-14.1,13.9-13.3c-4.5,0.6-2.6,10.7,5.3,8.1c-4.7,2.3-2.3,7.7,3,6.4
				c-3.4,1.1-4.5,5.4,0.2,7.9C424.4,540.8,419.3,518.6,402.8,507.1L402.8,507.1z M811.8,299.9c14.4,0,26-11.7,26-26
				c0-14.4-11.7-26-26-26c-14.4,0-26,11.7-26,26C785.8,288.3,797.4,299.9,811.8,299.9z"/>
			<path class="st2" d="M675.8,331.4c7.9-7.5,19.9-11.3,28.2-5.6c8.3,5.6,35.7,12.4,49.2,3c13.5-9.4,19.9-14.3,25.9-13.1
				c4.5,6.8,10,10,16.7,10.5c2.1,2.3,9.4,4.1,13.5,3.6c6,1.5,13.3-0.4,19.2-6.8c9,1.3,17.5-5.4,20.7-15.6c9.6-1.1,10.1-11.8,4.1-19
				c-5.6-1.1-1.3-20.1-21.8-16.3c8.6,5.3,2.1,15.8,9.2,20.7c-4.9,0-11.2,2.1-12.7,9.4c1.9-5.1-0.3-8.5-1.6-9.6
				c0.2-4.3-9.4-14.9-18.4-11.1c6.5,1.4,2.8,11.8,7.5,15.8c-3.4,0.2-7,1.9-9,4.9c-2.4-4.3-11.1-8.8-16.3-9.2c0-1.5-0.3-4.5-0.9-6
				c-2.3-4.5-4.3-9.9-3.4-16.7c-4.5,4.9-8.3,11.6-10.5,16.5c-7.1-4.9-24.8,2.3-33.1,4.1c-8.3,1.9-36.1-2.6-42.4-9.4
				c-6.4-6.8-18.8-10.9-30.4-14.3c-16-4.6-16.2-22.2-33.8-34.2C635.3,254.7,668.3,323.8,675.8,331.4L675.8,331.4z M491.8,497.4
				c13.9,0,25.2-11.3,25.2-25.2S505.7,447,491.8,447s-25.2,11.3-25.2,25.2C466.6,486.1,477.9,497.4,491.8,497.4L491.8,497.4z"/>
			<path class="st2" d="M431.7,478c5.1,6.6,13.7,6.2,17.3,5.6c3,7.9,12.6,7.7,16.7,12c4.1,4.3,18.2,3.9,22.3,1.5
				c-3.8-0.4-8.6-2.6-13.3-6.6c-5.7-4.8-3-14.3-7.5-17.7c3.4-3.8,3.9-10,3.2-12.4c3.6-2.1,6.2-5.4,6.6-7.1c6.2-0.4,11.6-3.6,13.9-6
				c3.2,3,11.3-0.9,15.6,4.1c0.9-12.4-10.9-19-18.8-14.8c-3.2-1.7-11.6-0.6-13.1,1.7c-2.6-1.1-10,2.6-13.3,5.1
				c3.8-2.1,4.3-8.3,2.8-10.5c3.2-1.3,6.8-5.6,7.1-8.8c4.5,0.8,11.3-2.3,14.3-1.5c-4.9-6.4-13-8.6-21.2-8.1
				c-8.5,0.5-12.2,6.5-13.3,13c-5.1,3-6.8,13.1-4.9,16.7c-2.9-0.1-5.6,2.7-6.8,4.3c-3.9-1.7-9.6-2.9-13.6-2.9 M427.4,435.4
				c-1.7-4.9,0.5-9.3,1.7-13.1c2.9-9.9,1.1-12.4-7.7-11.1C420.6,415.9,425.1,431.3,427.4,435.4z"/>
			<path class="st2" d="M420.9,411.7c2.3,2.3,10.2,3.3,11.1-3.8c1-8.2-2.3-11.4-9.5-8.2C421.9,401.6,421.3,409.3,420.9,411.7
				L420.9,411.7z"/>
			<path class="st2" d="M422.6,399.4c3,1.2,9.5,3.7,13.1-3.3c3-5.8-0.9-10.3-7.1-10C427,387.9,424,393.9,422.6,399.4L422.6,399.4z"
				/>
			<path class="st2" d="M428.1,385.6c0.8,2.3,8.5,9.8,14.1,4.3c5.6-5.4,5.6-13.5-2.8-16.5C437.1,373.8,430.4,381.7,428.1,385.6
				L428.1,385.6z"/>
			<path class="st2" d="M439.4,373.4c1.7,4.7,6.9,12.8,16.7,9c9.8-3.8,5.6-16,1.1-18.4C454.6,364.2,443.9,369.1,439.4,373.4z"/>
			<path class="st2" d="M457.2,364c-0.8,4.1,0,15.4,13.3,15.2c13.3-0.2,9.6-15.8,6.2-18C471.3,361.2,462.1,361.4,457.2,364
				L457.2,364z"/>
			<path class="st2" d="M477.3,361.8c-1.5,3.2-4.9,24.2,21.2,18.4C501.9,379.4,510.8,360.1,477.3,361.8z"/>
			<path class="st2" d="M491.6,363.6c-2.6,2.6,4.1,23.9,21.8,20.3C531,380.4,516.2,360.3,491.6,363.6z"/>
			<path class="st2" d="M506.6,366.8c-2.8,5.8,1.4,23.1,23.2,23.1C549.6,389.9,528.8,367.2,506.6,366.8z"/>
			<path class="st2" d="M523.7,371.9c-1.4,3.2-3.1,21.5,22.5,23.1C564.8,396.1,560.3,369.9,523.7,371.9z"/>
			<path class="st2" d="M551.3,379.6c-3.2,5.6-6.6,19.7,21.6,20.8C591,401.2,579.9,380,551.3,379.6z"/>
			<path class="st2" d="M574.8,383.9c-4.1,5.6-1.1,16.7,9.4,18.8c13.1,2.6,15-9.8,6-15.8C581.2,380.9,574.8,383.9,574.8,383.9
				L574.8,383.9z"/>
			<path class="st2" d="M587.6,386.6c-3,5.3-1.1,18,18.8,18C610.5,404.6,626.3,388.4,587.6,386.6z M433.4,631.5
				c16.1,0,29.2-13.1,29.2-29.2c0-16.1-13.1-29.2-29.2-29.2c-16.1,0-29.2,13.1-29.2,29.2C404.2,618.4,417.3,631.5,433.4,631.5z"/>
			<path class="st2" d="M647.7,206.7c-2.3,2.3-6.9,9-7.9,11.6c-9.8,29.3,16.3,51.2,31.6,82.6c12,24.8,10.5,63.9-8.3,88.6
				c-6.4,8.5-4.5,10.9-12.8,19.5c-3.2,3.3-6.8,7.5-5.6,19.5c5.3-1.9,12.8,3,14.3,7.1c3.8-1.9,9-1.1,10.9,1.1
				c6.4-3,11.6-1.5,17.3,4.5c4.9-0.8,10.1,0,15,5.3c2.6-5.3,7.9-7.1,11.6-6c-0.4-6.8,6.4-11.6,12.4-9c-1.9-9,6.4-15.8,14.3-13.1
				c6.8-5.3,20.3-5.6,27,2.3c-12-3.4-11.6,9.4-21.8,8.3c2.6,7.5-4.1,11.8-10.9,14.3c4.3-2.1,9-4.5,10.5-1.9
				c3.8-3.3,11.3-2.1,13.1-0.4c5-1.6,9.8-0.4,12,5.6c6.8,4.1,11.3,14.6,6.4,22.5c-1.5-8.3-7.1-7.9-9.4-11.3
				c-5.3,1.9-10.5,1.9-12-1.5c-3,3-13.1,5.6-17.7,1.1c-1.7,6.8-7.5,12.4-14.3,12.4c1.9,5.3-3.4,14.3-7.5,18.8
				c6.4,3.4,4.5,10.9,3,15.4c9.8,1.5,1.5,10.1,18.4,15.8c-8.3,2.6-24.4,0-26.7-10.1c-8.3-0.4-13.9-8.6-13.5-17.3
				c-6.4-6-7.3-14.6,1.5-20.7c-7.5,2.3-11.6-9.8-22.5-4.9c-5.4,2.4-19.7-1.7-19.5-6.8c-2.3,3.8-16,2.3-17.8-4.1
				c-4.5,2.4-15-1.7-14.8-7.9c-5.8,2.6-13.7-2.1-13.3-8.1c-5.4-0.8-6-5.6-5.6-9.8c-4.9-2.3-3.6-6.9-1.7-12.6
				c-3.4-3.8-1.9-9,0.8-13.9c-3.8-3.8-3-8.3-1.9-13.5c-18-1.5-40.6-5.9-92.4-21.8c-78.1-24-99.2,32.3-81.9,67.6
				c19.9,40.7-2.3,49.6,4.5,80c7.1,1.5,10.9,7.5,10.5,13.9c4.2,0.2,7.2,4.1,5.7,11.6c3.6-0.7,8.2,0.4,11.2,3.4
				c2.6-4.9,11.3-6,15.8-0.4c9.8-0.8,14.6,7.1,14.3,16.9c5.3,9.4,3.4,20.8-2.3,28.2c0.6-3.9,0-9.6-0.2-13c-0.3-6.2-9-7.5-8.1-12.6
				c-4.5,0.4-8.8-2.1-10.3-5.4c-2.6,2.3-6.4,3-9.6,1.9c5.1,2.3,9,11.3,7.5,17.3c2.6,4.5,2.1,12.8-1.1,16.3c-1.5,7.3-7.1,10-14.5,6.8
				c4.1-2.6,5.6-7.3,5.4-11.3c-2.6-2.3-3.9-6.6-4.1-9.2c-7.3,1.1-17.5-5.1-19.3-7.5c-16.1,0-29.2,13.1-29.2,29.2
				c-0.8-6-8.4-11.9-7.4-17c-4.5-13.9,1.9-26.9,20.3-29.5c-2.3-5.3,5.6-10.7,2.6-16.7c-3.8-7.7-10.9-17.7-21.4-29.3
				c6.4-10.9,4.5-25.5,0.8-34.6c-5.4-12.9-10.5-9.8-29.7,11.3c-31.2,34.3-72.9,24.8-109.7,47.3c-9.8,6-19.5,8.3-9-2.3
				c10.5-10.5,38.3-21,56.3-30c33.8-16.9,62.4-45.1,73.6-99.9c26.5-128.9,123.9-86.4,185.5-62.4c57.8,22.6,47.3-28.5,18-59.3
				c-35.2-37-28.2-66.1-11.6-89.4C602.2,186.4,659.1,196.7,647.7,206.7L647.7,206.7z"/>
			<path class="st2" d="M752.3,523.2c17.8,0,32.1-14.4,32.1-32.1c0-17.8-14.4-32.1-32.1-32.1c-17.8,0-32.1,14.4-32.1,32.1
				C720.1,508.8,734.5,523.2,752.3,523.2L752.3,523.2z"/>
		</g>
		<g>
			<path class="st3" d="M629.6,208.1c-7.1,31.6-1.1,45.8,9.4,59.7c21.7,28.7,39.1,94.3,14.3,137.1"/>
			<g>
				<path class="st4" d="M667.2,368c3-1.1,8.6-4.7,10-10.9 M669.5,354.3c0.9-5.4,9.4-7.8,9.6-13.6 M669.6,333
					c-0.6-5.6,8.5-10.7,7.1-16.3 M664.8,312.8c-0.8-3.2,7.5-9.2,5.3-14.3 M658.6,293c-1.7-3.6,3.9-7.7,1.5-11.5 M649.6,277.3
					c-0.6-2.4,2.9-7.8,1-11 M640.5,258.7c0.7-0.9,3.8-3.2,2.5-6 M634.3,245.1c1.2-0.7,4.9-1.8,4.4-4.5"/>
				<path class="st5" d="M446.3,599.2c-7.5-2.6-16.9,1.1-18.8,7.5 M433.2,612.5c0.9-6.4,10.7-9.2,13.7-6.2c-6.2-3.4-9.2,8.6-3.8,9
					 M493.7,463.9c-4.5,2.3-5.8,10.5,0,16.7 M500.4,465.8c-3.2,2.6-3,10.5,1.7,12.4c-3.9-2.8,0-7.7,2.8-7.9c2.8-0.2,4.7,3.2,1.3,6.6
					 M764.3,484.4c-10.5-2.8-19,9.4-9.4,20.3c-0.2-10.5,7.3-17.5,16.5-15.6 M767.2,496.4c-2.6,0-4,2-4,4c0,2.1,1.8,4,4.7,4
					c1.9,0,3.4-2.2,3.4-3.8 M804.3,265.8c1.7,6.4,10.5,9,17.5,7.5 M821.8,269.2c-5.4,0.2-10-4.9-9.6-9.2c0,3.2,7.3,4.7,9.6,2.6"/>
				<path class="st4" d="M449,483.7c-1.5-3.8,4.5-7.5,4.7-11.1c0.2-3.6,6.8-6.4,13.5,0.4 M464,433c-1.3,0.6-2.4,1.3-3.6,1.7
					 M477,453.4c-1.6,0.1-4.9-0.1-6.7-1.3 M470.4,460.6c-1.3,0.7-4.2,1.8-5.9,2.2 M406,574c-0.2,3.4,3.2,8.3,5.1,9.8 M420.6,565.9
					c-1.9,2.8-3,7.7-1.9,11.1 M448.6,577.2c-3.4-2.3-1.1-8.1-1.5-11.8c-0.4-3.8,3.9-9.8,12.4-4.7 M417,555.8
					c3.4-0.6,6.9-0.4,9.2,0.6 M459.9,545.1c-1.5,2.1-1.9,4.3-2.1,5.8 M475.6,544.7c-2.6,0-4.9,1.9-6,3.8 M439.2,448.5
					c3,1,10.8,5.8,11.1,10.8 M471.1,424.1c-9.2-0.2-12.8-9.6-5.8-9.6 M487.7,436.7c-3.6,1.5-1.9,7.7,3.2,10.7 M465.7,495.7
					c-1.8-2.3,0.6-8.8,6.4-6.9 M479.4,564.2c0.4-5.7,7.6-9.1,10.5-2.6 M452.7,580.6c-0.5-6.3,2.7-8.4,5.5-8.7c2.8-0.4,6.9,2,8.7,6.1
					 M396.8,585.3c0.4-3.8,3.6-7.7,6.9-7.1 M740.4,418.5c-2.4,1.8-4,9.8,5.3,10.5 M726.2,431.6c0,0.9,1.2,2.3,2,2.8 M770.5,446.7
					c-2.4-1.9-8.7,5.7-3,11.3 M710.8,509.8c-1.4-5.4,3.6-6.8,8.3-5.6 M698.8,471.8c2.8-1.9,5.6-3.9,9.2-4.9 M697.3,492.5
					c0-4.5,2.3-8.3,4.3-9.4 M713.8,440.7c-0.4,5.4,1.9,10.7,3.6,13.5 M758.5,441c-2.7,0.8-5.2,1.9-6.2,4.1 M755.5,456.4
					c1.3-1.1,2.8-2.4,3.5-3.4 M826.5,292.5c0,5.3-6.6,8.1-10.9,4.7 M840.7,292.7c2.9,2.3,13,0.1,10.6-5.7 M828.5,322.9
					c-2.1-0.4-5.6-2.6-7.1-4.5 M849.2,307.3c-3.4,0.8-5.6,0-7.3-0.8 M795.9,326.1c1.9,0,6.4-0.8,9.5-2.3 M790.2,292.9
					c-2.4-0.3-4.2,0.2-5.6,1.1 M828.1,302c-0.7,2.3-2.3,6-4.4,7.6"/>
				<path class="st5" d="M783.8,310.3c4.7-2.1,10.5,13.9,21.8,8.3 M806.6,302c-1.5,2.1-2.4,5.3-2.6,8.1"/>
			</g>
			<path class="st3" d="M581.9,277.6c1.5-0.2,4.1-0.8,4.7-2.6 M388.7,452.5c5.6,3.2,9.6,8.6,7.1,16.7 M646.9,260.4
				c1.7,1.1,8.1,1.1,11.6-0.2 M663.1,264.1c-0.2,2.6,0.6,12.6-4.5,14.6 M660.4,277.5c4.7,1.5,14.1,0.9,17.1-7.7 M671,277.1
				c2.4,3.8,3.2,11.1-4.1,15 M672.8,283.3c5.4,1.9,18,2.1,16.7-8.6 M685.2,283.3c3.8,5.3,20.3,11.5,17.7,0.6 M670,298.5
				c6.4,1.5,15.4-2.8,11.6-14.1 M699.7,290c0.9,4.3,22,8.8,19.2-0.9 M714.9,294.7c3.9,9,24.8,8.3,18.2-3.8 M729.7,300.4
				c4.1,5.1,22.5,2.1,15.2-10.1 M744.8,300.2c11.5,8.6,24.8-3.8,10.3-12.8 M761.7,297.4c10.1,8.1,22.5-6.6,13.7-10.7 M681.5,294
				c3.2,0.9,10,0.6,11.5-5.3 M690.4,292.7c-0.4,8.5,14,11.8,17.7,2 M703.3,300c2.6,5.6,15.2,7.9,17.3-0.2 M718.5,303.6
				c2.1,5.6,13,5.1,16-0.8 M730.5,306.6c3.4,7.3,17.3,7.3,20.5-3.4 M748.5,307.9c5.4,3.4,17.1,2.1,16.1-8.5 M762.4,306.9
				c8.1,6.6,19.5,0.2,13.9-10.9 M775.8,315.6c4.3-0.8,6.6-9.4,2.1-11.6 M675.7,317.1c9-4.9,10.7-13.1,4.5-21.2 M683.4,308.8
				c5.6,3.4,16.3-0.2,18.2-8.5 M691.1,309.7c3.2,4.1,3.8,9.2-0.4,13.9 M693.7,315c10-6.2,22.3,5.3,13.1,12.2 M705.1,314.5
				c2.3-0.6,6.2-4.7,6.6-9.4 M709.6,318.8c4.1-4.3,32.3,4.5,14.5,13.5 M722.8,306.9c5.4,2.1,8.3,9.8,0,12.4 M729.9,325.7
				c6-6.2,24.8-2.3,18,5.6 M743.5,323.3c3.4-11.5,23.5-4.3,16.9,0.4 M739.3,311.8c0.6,2.3,0.7,7.9-3,10.9 M756.2,309.6
				c0.7,1.9,0.6,5.4-1.1,7.7 M769,309.7c1.1,2.1,3,6-1.1,9.2 M608.2,223.4c0.2,10.7,3.9,17.8,18.4,11.1 M612.7,236.1
				c-7.1,9.6,0.9,19.9,15,9.6 M590.8,240.8c9.8,10.5,27.2,2.8,16-13.1 M618.6,249.8c-1.9,10.3,6.6,12.4,13.5,7.7 M582.1,242.5
				c1.8,10.4,12.4,18.6,22.7,12.2 M594.9,256.8c0,14.8,20.5,16.5,25.2,1.1 M612.7,267.3c6.6,13.5,20.8,8.1,25.5-0.2 M598.3,245.7
				c2.6,6.6,7.9,13.9,20.1,8.5 M560.7,242.5c1.7,5.4,11.5,12,22.7,4.5 M567.7,249.5c-6,8.8,6,17.1,20.5,3.9 M574.8,260.4
				c2.4,12.4,7.3,22.3,25,6.4 M591,273.1c6.4,7.9,16.2,12.8,25.4-0.6"/>
			<path class="st3" d="M623.1,275.4c-0.6,9.4,1.3,14.1,8.6,13.7c5.8-0.3,11.3-4.9,14.5-9.8 M630.4,289.1c-0.2,10.7,8.3,19.2,24,8.3
				 M637,301.7c-3,8.1,6,21.2,23.7,14.5 M599.6,280.3c-1.1,10.3,8.5,17.3,23.9,3.9 M607.1,291.7c0.6,8.5,10.1,18.6,24.2,3.9
				 M613.9,302.4c-1.1,14.5,12.2,18.6,23.5,7.5 M593.8,291.7c3,0.2,5.4-2.4,6.9-4.3 M600.2,302.2c2.6,0.6,7.1-1.9,8.6-4.9
				 M606.7,319.3c3,3.2,13.1,0.9,14.5-3.4 M618,319.1c5.6,13.1,20.7,12.6,26.9-2.3 M642,322.2c2.8,7.7,10,12.6,21.6,10 M647.7,330
				c-6.6,10.7,2.1,23.3,16.7,10.9 M651.2,346c-0.7,6.8,5.4,14.5,13.9,15.4 M623.4,326.3c-2.3,15.2,8.6,22.5,22.4,14.5 M607.5,333.6
				c3.6,2.8,10,3.2,16,0.9 M630.8,343.4c-3.4,12.8,9.8,22,21,7.7 M612.6,335.7c0.2,6.6,6.6,13.7,17.7,11.6 M661.2,360.5
				c-7.5,5.1-9,14.1,1.5,19.9 M642.8,357.8c0.4,7.7,3.9,12,12.4,12.8 M631.7,353.9c-11.3,10.3-0.2,22.3,13.1,12.2 M639.6,369.3
				c-3.8,11.8,10.3,19,17.8,6.9 M616.3,344.1c-4.1,11.6,1.1,19.3,10.7,18.6 M601.5,341.9c0.6,6.9,6.6,9.4,13.3,7.9 M605.8,349.2
				c-5.1,9.8,2.6,15,12.8,11.3 M649.4,382.2c-1.7,6.2-0.8,10.7,8.4,12.8 M649.9,391.1c-11.1,5.1-12,15.8-3.4,22.7 M641,379.2
				c-5.8,5.3-4.7,14.4,1.7,17.9 M591.7,344.9c-6.4,6.3-0.3,23.7,13.8,14.2 M628.3,366.8c-8.6,7.1-4.7,20.1,9.6,16.5 M614.1,361.4
				c-4.5,12.8-0.2,17.3,10,17.5"/>
			<path class="st3" d="M582.3,344.3c-7.7,5.8-5.6,14.1-2.3,17.8c3.4,3.8,9.8,2.1,11.8-2.8 M566.2,339.2c-8.6,11.1,0,24.2,12.2,20.3
				 M612.4,372.1c-8.8,3.2-15.6,11.2-10.1,18.2c3.2,4.1,17.1,4.7,21-11.3 M596.4,361.8c-5.1,7.3-3.4,14.3,6,17.8 M595.8,375.5
				c-5.4,3-9,6.6-7.7,13.1 M583.6,364c-2.1,8.8,0.4,14.3,5.8,16.9 M583.4,374.5c-8.5-0.6-12.8,3-10,11.3 M574.2,376.6
				c-8.3-3-9.6-10.1-6-17.7 M567.1,370c-9,0.4-13,4.9-13,11.1"/>
			<path class="st3" d="M554.9,334.9c-6.6,2.8-8.6,11.6-6.2,16.5c2.4,4.9,10.1,5.3,14.8,2.1 M536.5,328c-6,6.8,0.9,19.9,11.6,16.7
				 M521.1,322.7c-5.6,7.9,0.6,21,15,17.3 M536.9,376.6c-1.5-9.4,8.3-15.6,20.3-3.4 M551.3,354.3c-3.6,3.2-5.3,8.3-4.7,12.4
				 M505.7,318.2c-6.2,10.5,1.3,20.1,14.7,16.3 M540.4,344.3c-8.8,8.8-5.8,17.7,0.7,22.7 M534.8,354.6c-13.3,0.2-14.1,15.6-3.2,20.5
				 M524.7,339.2c-5.4,3.8-7.1,14.1,2.3,18.2 M524.3,362.3c-5.6-2.6-12.4,0.6-11.8,7.1 M515.8,362.5c-5.1-12-19.9-10-18.6,2.4
				 M520,347.7c-3.2,0.6-9.6,2.4-12,7.3 M508.9,334.2c-6,6.8-1.3,14.8,3.6,16.5 M491,315.2c-1.1,8.1,2.1,12,12.2,11.3 M494.6,325.5
				c-3.9,9.8,1.3,14.1,11.5,13.5 M496.9,337.6c-6,7.1-1.9,14.8,3.9,18 M494,346.6c-10.7-1.3-12.4,11.1-8.8,16.9"/>
			<path class="st3" d="M485.4,314.3c-6.6,2.8-10.3,11.1-6.8,16.2c3.6,5.1,10.7,3.4,14.6,0.8 M480.9,332.7
				c-5.4,8.3-0.6,14.5,5.3,16.9"/>
			<path class="st3" d="M459.9,313.3c-4.3,4.5-1.7,13.7,8.8,13.9c8.5,0.2,12.8-7.9,10.1-13.5 M467.2,327.2
				c-3.4,7.5-1.3,15.6,11.5,14.3 M484.1,353.3c-7.9-3.6-18.4,0-13.9,9.4 M469.1,340c-3.2,4.5-2.1,10.9,1.5,14.8 M468.5,352
				c-5.3,0.9-10.3,3.8-7.1,12 M460.6,357.3c-6.8-2.1-15.4,2.8-10.1,9.8 M449.4,360.5c-5.8-0.9-12.8,5.3-7.1,11.5 M440,366.8
				c-5.3,1.3-11.5,7.3-6,12 M466.4,337.4c-7.5,3.4-8.3,11.8-4.7,18 M458.5,321.8c-11.3,4.3-11.1,19.3,1.3,24 M454.6,342.4
				c-6.8,3.9-8.1,11.5-3.6,16.3 M442.8,316.1c-4.5,1.5-4.1,15.4,7.9,15 M430.4,320.8c-9,6,1.9,21.2,16.5,10.3 M438.8,334.9
				c-1.3,6.2,0.4,13,10.3,13.7 M439.4,343.2c-7.1,2.6-8.5,17.3,4.5,18.4 M416.7,329.9c-9.2,8.5,7.5,15.8,13.7,3.6 M403.9,343.9
				c-4.5,5.4,11.3,19.7,18.2-4.1 M423.8,339.4c0.4,5.6,3.8,9,10.7,9.4 M434.3,354.3c-11.1,1.7-14.6,15.6-2.3,18.6 M413.9,352.4
				c-0.4,5.3,5.1,9.6,11.3,8.6 M430.8,372.5c-10.1,2.3-11.5,15.4-2.4,14.6 M423.6,399.3c-8.5-2.5-8.6-12.6-1.1-16.3"/>
			<path class="st3" d="M416.7,390.5c-7.1,4.3-4.3,14.6-0.6,16.2c3.8,1.5,6.8-0.4,7.1-3.6 M422.7,417.5c0.8,4.9-17.4,3-8.1-12.2
				 M414.5,418.4c-6.1,9.6,3.8,17.4,10.1,9.2 M415.4,430c-2.4,7.7,6.9,13.2,12.9,7.2 M395.1,357.8c-3.4,6.9,13.5,9.6,14.6-4.7
				 M390.4,368.2c-3.4,13.5,22.2,10.7,15.6-6.8 M406.5,370.4c3.6,2.1,14.3,2.3,16.9-9.2 M415.7,370.8c0.8,3.6,3.9,7.9,6.9,9.2
				 M403.5,374.4c-1.1,7.3,6.2,13.3,14.6,12.8 M404.8,381.5c-4.1,5.6-5.4,16.5,7.5,17.3 M385.1,383.4c-2.1,5.8,10.1,11.8,17.3,2.3
				 M381.4,398.2c-1,4.4,10,10.3,16.2-8.5 M392.6,399.3c2.6,4.7,11.5,8.5,16.9-0.8 M400.7,404.2c-2.3,6.6,3.9,12.8,11.5,10.9
				 M386.6,402.7c-1.5,9.4,9.4,14.8,16.2,10 M379.5,406.9c-3.2,12,12.2,16.5,18,7.5 M393.6,417.9c0.6,6.8,11.1,12.6,19.3,6.9
				 M374.8,423.6c-0.8,3,11.8,6,13.7-4.5 M382.1,426.2c3,7.7,13.1,9.6,19,0.2 M397.7,430.1c1.3,7.1,10.5,11.1,18.6,6.2 M419.7,439.2
				c-2.1,9.6,7.9,17.3,14.1,12 M403.7,437.5c-3,10.5,10.1,16.5,17.5,10.7 M387.9,432.2c-0.8,9.8,6.9,15.6,15.8,11.3 M371.2,433.1
				c-2.6,6.4,11.3,11.6,17.8,6.2 M362.6,450.6c3.6,4.1,16,0,17.1-9.2 M376.3,448.2c4.5,5.3,15.2,8.1,19.5-3.2 M392.1,450.8
				c-0.2,8.1,14.3,13.9,19-0.9 M428,452.8c-1.3,3.9,1.8,10.2,8.3,11 M416.1,450.3c-0.9,4.5,5.6,10.8,12.6,8.3 M430,460.5
				c-1.9,4.9-0.3,11.9,6.3,11.8 M430.7,469.6c-4.9,4.1-2.8,11.5,4.2,11.7 M428.1,476.5c-6.9,4.7-4.5,15,4.7,14.5 M407.1,456.6
				c0,10.1,12.6,11.6,15,2.3 M417.2,464.9c-1.9,6,3,11.8,10.7,10.1 M418.7,537.4c1.7,2.4,8.6-1.7,6.8-5.8c-1.9-4.1-9.2-1.9-8.5,2.4
				 M423.8,529.9c0.9-8.3-8.8-9.6-11.3-2.4 M416.1,523.3c2.4-4.1-5.8-9.8-9.2-3.8 M409.9,517.1c2.3-6-7.1-8.6-7.9-3.2 M400,506
				c1.1-3,11.6-1.1,7.1,5.1 M415.2,518.6c4.1-3.8-2.8-11.5-7.1-8.6 M443,530.1c-3.3,0.4-6.7,2.5-4.2,9.5c1.7,4.8,8.9,5.1,10,2.2"/>
			<path class="st3" d="M438.2,533.5c-3.2-2.1-10.1,1.4-6.9,8.2c2.4,5.1,8.5,3,9.4,0.4 M420.2,543.2c1.6,2.8,9.6,1.6,11-1.5
				 M425.7,533.9c1.7-1.1,4.8,0.3,5.4,1.7 M425.1,487.6c-5.4,3.6-2.1,14.5,6.4,11.6 M423.4,496.4c-4.3,3.4-0.4,13.9,7.7,10
				 M424.7,506.4c-3,3-0.1,11.4,7.7,9.8 M423.6,510.5c-1.7-0.8-6.1-0.2-8,2.6 M418.7,472.5c-4.1,3.9-2.2,12,5.5,12.7 M417.2,480.7
				c-5.9,2.9-5.9,14.6,5.9,15.1 M416.8,494c-3.3,2.6-1.7,12.8,6.8,11.5 M419.5,505.1c-1.2,1.2-1.4,4.3-0.4,5.6 M415.7,501.2
				c-3,0.1-6.9,2.3-8,5.4 M402.3,495.7c1.1-3,10.4-2.8,11.1,6 M414.3,491.2c-1.3,0.3-3.8,1.5-4.5,4 M410.3,463.7
				c-4,3.7-6,15.2,6.3,17.5 M402.1,487.5c0-3.1,8.4-5.7,11.3-1.1 M396.8,470.7c1.2,2.3,7,5.5,10.6,2.9 M366.5,452.3
				c-0.2,5.4,4.3,10.3,10.5,9.6c6.2-0.8,7.5-6.2,5.6-9.8 M378,462.1c-4.1,5.1,0.9,12.2,5.6,10.1 M382.7,458.5
				c2.4-0.9,10.5-2.1,13,1.7 M356.6,460c-1.9,2.8,9.8,5.6,13.7,0.2 M366.3,463c-0.4,3.8,1.5,10.1,11.1,7.5"/>
			<path class="st3" d="M378.9,476.3c1.5-3.2-5.6-8.5-11.1-2.6c-5.4,5.8,0.8,12.4,4.1,10.1 M353.9,463.8c-2.8,4.9,8.1,13.8,14.3,5.5
				"/>
			<path class="st3" d="M346.7,472.2c-3.9,4,0.9,11.5,6.9,9.2c5.9-2.3,5.4-8.5,3.9-10"/>
			<path class="st3" d="M339.1,479.7c-3.2,2.9-0.1,9.8,4.3,9.8c4.4,0,7.1-3.5,6.3-7.9 M357,479.2c-0.6,4.3,5.8,7.3,10,3.3
				 M367.2,474.6c0.6-0.9,0.1-2.5-0.8-3.3 M332.3,485.5c-3.7,2.9,4.2,11,9.2,3.6 M360.5,483.9c-2.3,2.3,1.4,8.2,5.2,6.4
				 M347.7,488.1c0.6,4,8.5,7,13.4,0.8 M352,492.1c-1.2,2.5,1.2,6.6,4.2,6 M426.7,515.3c-2.9,5.7,6.4,12.4,13.1,5.4 M433.5,523.9
				c-1.4,3.1,0.3,7.4,2.8,9 M424.7,530.3c0.7-2.8,4.7-5.4,8.4-4.1 M419.8,522.9c0.6-2.5,3.9-5.1,6.5-4.4 M640.9,405.7
				c-13.3,0.2-7.7,21.6,3.8,17.3 M636.6,421.5c-2.6,4.3,2.4,11.2,8.1,7.1 M643.2,429.5c-3.9,6.6,10.1,16.6,15.8,6.3 M654.4,439.7
				c0.2,6.2,18.2,10.1,15.6-2.3 M668.3,444.2c4.3,7.3,20.5,8.1,18.8-2.8 M683.5,448.9c3.4,4.9,19.2,7.9,18.6-2.3 M619.5,387.1
				c2.3,5.8,10,7.9,18.4,4.5 M614.6,391.3c5.3,3.4-2.4,18.8-10.5,12.6 M614.6,400.8c5.8,2.8,13,0.8,15-7.5 M626.1,399.7
				c0.6,4.3,6.8,7.7,14.8,6 M611.6,404.2c7.5,6.4-3.4,19.5-8.3,13.5 M614.4,409.1c3.6,2.6,12.8,1.1,13.7-5.8 M624,409.1
				c0.8,4.5,4.3,6.2,9.4,6.4 M612.4,415.3c3.8,5.3,13.1,6.8,17.3-0.2 M625.5,419.1c-0.4,5.1,5.3,9.2,11.1,8.1 M605,430.3
				c4.9,2.4,10.1-6.8,6-13.1 M610.7,440.1c5.8,0.4,6.6-8.5,1.1-13.3 M624,448.2c4.9-1.1,3.4-11.8-8.5-12.8 M638.8,456.1
				c4.7-1.3,0.9-13.1-12-12.4 M656.7,460.2c3.2-4.9-7.3-13.1-16-8.8 M665.5,466.9c5.8,1.7,9.8-13.7-8.6-11.3 M676.2,466.9
				c5.1-1.3,8.6-10.5-6.2-7.5 M687.5,467.7c4.5,2.3,6.6-10.9-7.1-7.3 M611.8,426.8c5.6,3.2,14.5-0.6,13.7-7.7 M623.3,425.3
				c1.9,3.4,1.1,10-2.4,11.6 M623.8,433.1c3.8,1.5,8.8,0.2,11.8-5.8 M630.4,433.1c1.1,2.6,1.5,7.9-0.9,10.5 M631.3,437.7
				c4.1,2.3,9-0.8,11.1-5.1 M639.8,436.3c3,1.9,5.6,10.7,0.6,14.3 M643.2,446.5c3.6,0.2,8.8,0.2,12.2-4.3 M652.9,444.6
				c3.2,0.9,6.9,6.2,5.6,10.9 M658.8,453.8c3.6-0.4,9.8-2.8,11.5-7.1 M668.5,449.5c3,1.7,5.1,5.3,4.7,9.4 M673.2,455.9
				c3.6-0.2,6.8-2.1,7.7-6 M680,452.5c2.6,0.9,5.8,3.9,6,7.5 M685.6,457.7c2.6-0.4,4.5-2.1,6.2-4.7 M698.9,452.7
				c3.4,3.4-1.1,14.6-8.1,12.6 M626.8,225c-7,4.1-26.7,2.8-16.9-13.5 M628.7,214c-13.7,5.4-30.6-5.1-13-16.5 M611.1,193.7
				c-11.5,0-19.2,18.4-3.8,24.8 M566.5,201.4c-3,5.8,7.7,12.2,15,6.4c5.7-4.5,5.3-16.7,1.9-21.4 M560.7,215.3
				c-3.8,12.4,23.9,13.1,19.5-6.6 M559.2,233.7c0.9,9.4,26.5,6.4,18.2-12.6 M580.4,215.8c2.1,2.8,7.7,7.7,17.3,6.8 M584.9,202.5
				c0.8,3.4,6.6,6,13.9,3.5 M328.7,488.3c-6.5,4.6,3.5,11.8,7.1,3.8 M323.6,491.8c-6.5,4.6,3.5,11.8,7.1,3.8 M318.3,495.3
				c-6.5,4.6,3.5,11.8,7.1,3.8 M312.6,498.5c-6.2,3.3,1,11.4,7.3,4.2 M306.5,501.6c-6.2,3.3,1,11.4,7.3,4.2 M338,491.9
				c-0.1,4.8,9,6.8,12.3-0.4 M343.7,496.3c-2.8,3.6,2.3,8,5.2,6.4 M331.6,495.7c-0.3,4,7.6,6.4,11.5,2 M335.9,499.9
				c-2.5,3.3,2.4,7.7,5.6,6.4 M326.3,499.3c0.3,3.2,4.8,6.9,9.7,4.8 M329.2,503.7c-1.9,1.7-0.9,5.6,1.7,6.9 M319.5,503.4
				c-0.8,2.9,4.2,8.1,9.3,4.7 M320.5,506.8c-3,2.3-2.6,5.9,1.2,6.4 M313.3,506.4c-0.4,2,2.2,5.2,5.4,4.8 M297.2,506.2
				c-3,1.6,4.7,9.8,9.5,2.2 M289.8,509.6c-3.8,1.8,5.5,10.8,9.7,1.6 M314.1,509.2c-2.9,0.7-4.8,4.9-2.3,6.6 M304.6,510.7
				c-0.4,1.7,3.2,4.5,6.1,3.5 M302.2,511.5c-2.8,1.8-1.3,6.8,2,6 M292.2,514.7c-2.6,2-0.8,5.9,2.8,5 M296.9,514.5
				c0.1,1,2.4,2.6,4.4,2 M283,512.8c-3.3,1.4-3.1,9.7,8,5.2 M275.6,516.1c-4.6,2.3-3.1,8.5,6.9,2.5 M283.4,519.1
				c-1.2,0.9-2.5,5.1,2.1,3.5 M275,521c-1.9,1.7-0.7,5.2,3.5,3.8 M265.3,521.6c-3.4,2,4,4.6,9-0.7 M267.6,524
				c-1.5,1.5-1.5,5.9,2.4,4.3 M258,525.8c-2.3,1.7,1.6,3.9,8.6,0.8 M260.8,528.3c-2.6,2.2-2.3,4.9,1.5,4 M253,529.5
				c-2.9,2.6,1.3,4.4,6.4,2.3 M253.1,532.4c-5,2.3-2.8,6.4,0.3,4.8 M419.3,546.8c-1.2,2.5,2.6,4.5,6.2,3.9c3.4-0.5,6.7-3.4,4.1-7.3
				 M429.8,548.3c3.4,2.6,9.4-0.4,9.4-4.3"/>
		</g>
		<g>
			<path class="st2" d="M637,150.3c-15-7.5-46.2-21.4-55-10.1c8.1-3.4,31.7,0.2,51.3,18.2L637,150.3L637,150.3z"/>
			<path class="st2" d="M646.1,149.5c-17.4-20.2-27.6-15.7-40.1-22.7c-11.7-6.5-30.4-7.9-34,2.5c17.1-8.3,32.9,4.5,42.6,6
				c13.3,2.1,20.8,12.4,24.7,17.1L646.1,149.5L646.1,149.5z M711.5,146.9c-9-20.7-28.3-15.3-36.8-24c-12.4-12.8-43.8-24.6-56.7-15.8
				c28.5-1.5,40.7,19.7,56,27C684.9,139.4,696.5,150.7,711.5,146.9L711.5,146.9z"/>
			<path class="st2" d="M677.7,144.7c-15.4-19.2-39.1-36.1-50-29.7c14.3,0.8,18.8,10.7,28.9,17.1
				C666.8,138.5,662.3,147.7,677.7,144.7z M604.5,178.5c-16.2-6-47.7-9-62.4,9.4C566.5,192,603.3,189.7,604.5,178.5z"/>
			<path class="st2" d="M601.5,185.6c-16.2-7.5-28.8,3-43.9,1.5c-28.9-2.8-49.6-1.1-52.2,12.8c16.5-14.8,44.3-2.6,55.6-5.6
				s53-0.4,66.1,5.3C620.3,191.3,609.7,189,601.5,185.6z M652.2,142.6c-3.8-12.4-3.6-25.5,15-24.6c-4.7-5.8-22-8.8-24.8,13
				c-20.5-15-42.8-17.7-46.9-4.7c10.5-9,26.9-2.4,46.4,19.7C643.5,145,648,143.2,652.2,142.6L652.2,142.6z"/>
			<path class="st2" d="M624,159.7c-11.6-7.5-27.4-19.7,0.2-24.6c-11.8-6.4-29.1-3.6-27.2,18.2c-31.6-12.8-54.2-8.5-59,4.1
				c-5.3,13.9,14.3,21.6,17.7,12.8c-3.6,1.5-15.8-2.6-9.4-10.5c6.4-7.9,39.1-2,70.2,14.3C625.1,178.5,654.8,177.7,624,159.7
				L624,159.7z"/>
			<path class="st2" d="M615.7,180.4c-9-18.3-38.1-1.7-44-19.5C563.7,186.9,613.2,172.5,615.7,180.4z M801.1,200.3
				c6.1,3,11.4-1.7,2-5.5c6.1,3,11.4-1.6,2.1-5.4c6.1,3,11.4-1.6,2.1-5.4C804.9,186.5,801.3,195.8,801.1,200.3z M804.3,165
				c13.5-14.3-1.1-19.2,15.4-33.8c13.5-12,2.6-20,15.4-29.3c4.1-3,13.1-9,13.9-15c5.4,13.5-16.9,15.4-15.4,37.2
				c1,13.9-8.4,12.7-12,36.1C820.8,165,817.4,175.8,804.3,165L804.3,165z"/>
			<path class="st2" d="M810.3,171.3c7.5-16.2,16.1-15.8,20.3-22.2c7.9-12,24.6,2.1,38.7-8.6c-2.4,15.2-21.4,9.8-29.7,19.5
				C831.4,169.8,824.6,174.3,810.3,171.3L810.3,171.3z"/>
			<path class="st2" d="M812.2,176.6c13.1-10.5,22.8-3.5,31.9-9c22.9-13.9,32.1,2.8,52.6-3.8c-5.4,13.1-35.7,1.9-48.8,11.6
				C834.7,185.2,788.5,194.6,812.2,176.6z M773.9,251.5c-0.2-6-5.8-13.7-13.7-14.6c-7.9-0.9-11.3-9.2-17.3-9.6
				c-6-0.4-10-12.4-18.2-12.2c-8.3,0.2-11.6,10.9,7.7,20.7C751.7,245.5,773.1,256.8,773.9,251.5L773.9,251.5z M749.5,256.6
				c-8.3,0.4-9.4,12.4-17.3,12.8c10.9,5.8,18.8-2.6,24.4-10.1L749.5,256.6L749.5,256.6z"/>
			<path class="st2" d="M756.2,258.1c-7.1,6-9.2,18.6,1.1,22.2c-6.2-8.5,10.9-12.4,5.6-20.3L756.2,258.1L756.2,258.1z"/>
			<path class="st2" d="M763.4,258.5c-5.6,10.9,8.8,12.2,5.1,20.5c8.3-1.9,9.6-17.5,2.1-21.6L763.4,258.5z"/>
			<path class="st2" d="M708.1,235.2c13.5-0.8,25.9,6.6,34.2,18.4c5.3,7.5,22.9,10.5,28.9,4.5c6-6,2.6-18.8-12.4-14.6
				c-3.8-6.4-14.7-4.1-19.9-9.4C733.7,228.8,713.4,213.8,708.1,235.2L708.1,235.2z"/>
			<path class="st6" d="M758.9,243.5c-3.6,0.8-4.7,6.9-2.4,10.1 M766.6,247.2c1.1,1.9,0.4,4.5-0.2,5.8 M729.6,235.8
				c6.9,0.4,8.3,5.4,15.8,7.3"/>
			<path class="st2" d="M725,218.7c24,6,43,11.3,54.8,18c11.8,6.8,30.1,8.6,46.1,4.1c16-4.5,46.8-8.6,45.3,11.3
				c8.4-10-2.3-20.7-23.6-22.5c0.4-9.8-10.1-18.6-17.6-12.8c7-0.9,12.9,12-0.8,17.3c2.7-9.8-7-18.6-17.1-14.3
				c6.5,1.9,13,12.7-1.5,16.9c-9.1,2.6-22.5-0.8-32.4-6.8C768.4,223.9,712.8,202.1,725,218.7L725,218.7z"/>
			<path class="st2" d="M785.5,208.9c-7.5,3.4-2.6,11.3-14.3,15.8c-11.6,4.5-19.7,14.8-17.1,23.7c7.9-17.3,21.8-16.5,26.7-23.3
				C785.7,218.3,792.9,208.3,785.5,208.9L785.5,208.9z"/>
			<path class="st2" d="M787.6,210c-0.4,13.7-11.2,8.7-7,28c1.3,6,3.8,15.8-0.4,25.5c12.1-8.8,4.3-27.4,9.8-34.4
				c2.6-3.4,6-8.6,7.3-13.1c-2.8,7.9-2.6,22.5,5.1,26.3c-6.2-14.6,16.7-26.7,0.9-43.6C801.1,202.9,794,210.2,787.6,210L787.6,210z
				 M749.3,196.3c1.9,2.8,3.8,10,2.1,13.9c3.8-2.3,9.2-8.1,10.9-12c7.7,1.1,10.7,10.7,3.4,14.8c4.5,0,12.2,0,16.5-5.1
				C776.9,202.1,760.6,193.1,749.3,196.3L749.3,196.3z"/>
			<path class="st2" d="M632.5,169.4c-1.2-1.1-3.3-2.2-6.9-2.9c-11.4-2.3-5.5-12.6,4.2-12.5c20.7-22.5,32.3-5.2,57.4-12.3
				c8.8-2.5,14.9-1.8,19.7,0.3c11.3-7.5,24.5-5.4,34.1,3.4c1.1-1.7,2.5-3,4.5-3.5c8.8-2.4,16,5.1,18.4,14.8
				c6.9-1.3,14.7,2.1,19.9,6.8c7.2-3.7,12.1-3.8,13.9-0.1c6.4-3,14.7-4.9,18.8,5.3c4.1,10.1-9.8,7.1-12,28.5
				c-1.4,13.2-16.1,18.4-27.8,10.5c-18.6-12.6-36.8-14.6-45.8,4.5c-9,19.2-16.1,30.3-37.9,24c-7.9-2.3-18,0.8-24.4,9.4
				c-6.4,8.6-16.2,0.6-27.8,1.5c14.6-2.3,9-5.9,21.8-6.8c11.6-0.8,8.6-11.6,16.1-13.1c-29.3,7.5-28.2-3.4-52.2,4.1
				c10.5-13.5,27-6,35.3-13.9c-21.8-0.4-31.5-14.6-41.3-8.6c-15.4,9.4-8.6,36.1-48.8,33.8c-19.5-1.1-31.9,1.5-43.6,13.1
				c20.3-42.1,47.9-19,61.2-32.3c7.9-7.9,13.9-13.9,18-21.4c1.5-2.6,3.4-4.2,5.9-4.7C579.6,186.9,599.8,170.5,632.5,169.4
				L632.5,169.4z"/>
			<path class="st6" d="M797.5,163.5c0.5,1.1,0.8,2.4,0.8,4.1c0,8.3-12.4,8.6-13.1,20.8c-0.4,6.4-1.1,10-5.4,9.2
				c-4.3-0.8-8.1-7.5-3.9-15.4"/>
			<path class="st2" d="M638.7,157.1c-3.1-2.2-6.2-3.1-9-3.1 M706.7,141.9c9.9,4.3,14.8,14.6,29.2,15.1c13.9,0.5,22.5,20.7,45.8,7.5
				c0.6-0.4,1.2-0.7,1.8-1 M740.8,145.4c-2.1,3.3-2.5,7.9-2,12 M695.4,187.9c-17.7,0-22.2,9-22.2,17.7s8.3,19.9,22.9,19.9
				c14.6,0,22.5-9,22.5-18.8C718.7,196.9,709.7,187.9,695.4,187.9L695.4,187.9z"/>
			<path class="st2" d="M698.6,225c-0.4-4.9-9.2-4.1-8.8-7.9c0.4-3.8,4.9-5.3,4.9-10.5c0-5.3,7.9-5.6,10.5-1.5
				c2.6,4.1,10.5,12.2,12.2,8.1 M705.1,205.1c-4.1,4.1-6,12.6-0.6,19.2 M710.8,211.5c-1.3,2.8-1.7,7.1-0.2,9.8"/>
			<path class="st3" d="M780.9,197.7c13.8,1.1,16.2-14.1,5.8-15 M763.9,156.7c-4.8-6.1-15.8-8.2-16,4.8"/>
			<path class="st2" d="M746.7,176.2c-4.7-11.6-16.7-13.3-23.1-7.5c-5.3,4.8-5.4,17.5,6,20.1C733.5,184.1,741.2,177.9,746.7,176.2
				L746.7,176.2z M741.5,168.9c-6.8-6-16.7,5.4-7.7,15.8 M612.9,197.4c4.5-1.1,11.1,1.1,21.3,5.9c6.4,3,25.5,9.4,37.6,3
				c-12.4,4.5-21.8-14.3-31.2-12c-9.4,2.3-26.6,5.7-33.8-1.1c17.7,1.1,27.1-12.9,47.3-0.8c5.6,3.4,12.8,5.6,19.2,5.3
				c-16.5-19.9-38.3-7.1-40.6-23.3c10,10.7,34.3-2.4,46.7,17.7 M636.2,177.3c-2.3-2.9-1.3-5.8-3.8-8.1"/>
		</g>
		<path d="M763.9,156.7c-4.1-4.4-13.1-0.9-10.6,8C755.3,160.5,759.5,157.1,763.9,156.7z M738.4,180.8c2.8-2.1,5.8-3.8,8.3-4.5
			c-1.4-3.3-3.3-5.9-5.6-7.6C738.9,167.1,732.8,175.4,738.4,180.8z"/>
		<g>
			<path class="st4" d="M727.3,165.5c-6.8-4.5-13-4.1-15-0.4c-4.9-0.2-8.9,3.4-9.1,10.5 M713.6,178.7c-8.1-5.5-19.2-3.5-18.4,8.9
				 M690.3,194.6c3.9-3.2,9.6-5.4,13.9,0.2 M750.6,182.4c-1.5,2.1-2.6,5.3-0.2,10.1c-3-3.9-10.5-3.9-18.6,6.6 M768.4,181.9
				c-9.8,1.1-9.6,7.5-1.7,10.3 M698.9,158c-8.3-1.7-14.3,3.2-2.8,7.3 M714.7,152.4c-11.6-2.8-16.3,0.2-11.1,2.8 M681.1,199.1
				c-0.4,4.1,1.9,9.6,8.6,3.4 M683.4,211.5c0,1.1-0.2,2.4-0.9,3.4 M656.3,156.5c-7.1-2.1-8.4-8.6-0.2-8.1 M653.9,171.7
				c-7.9-2.6-7.9-10.3-1.3-9.6 M668.5,167.8c-9.2-2.3-9.6-8.6-2.6-7.7 M669.6,148.2c-4.9-0.4-12.4,5.1,0.2,8.3 M683.4,159.1
				c-11.5-1.7-11.3,3-4.5,6 M692,148.2c-8.8-1.7-11.8,3.6-5.8,5.8 M664.2,180.7c-2.2-1.8-3.9-10.3,6.4-7.8 M685.6,178.1
				c-6.9-1.9-13.5,4.9-7.1,8.8 M694.8,170c-7.3-1.3-13.5,0.8-9.6,3.4"/>
		</g>
		<path class="st2" d="M763.5,156.7c-4.1,0.8-7.8,3.2-10.2,8"/>
	</g>
</g>
</svg>
