<svg id="Layer_1" data-name="Layer 1" xmlns="http://www.w3.org/2000/svg" width="493.89mm" height="246.94mm" viewBox="0 0 1400 700">
  <defs>
    <style>
      .cls-1 {
        fill: #0021ad;
      }

      .cls-2 {
        fill: #1c8a42;
      }

      .cls-3 {
        fill: #ffc639;
      }

      .cls-4 {
        fill: #fff;
      }
    </style>
  </defs>
  <rect class="cls-1" width="1400" height="700"/>
  <path class="cls-2" d="M0,0H1400V700Z" transform="translate(0 0)"/>
  <circle class="cls-3" cx="700" cy="350" r="126.45"/>
  <path class="cls-2" d="M622.77,293.2c8.65,11.87,21.76,31.77,32.31,26.57,8.22,0,12.47.61,13.58,6.08,19.41,3.31,52-4.88,72.31-31.31,0,0,1.71.23,1.11-9.82.12-4.37,6-3.5,6.13-2.07.82,2.17.68,3.79,1.78,3.85,2.49-.83,5.91-6.44,8.77-10,.78-1.57.36-3.22.54-5.2,1.51-3.71,5.28-2.9,6.07-.95.72,1.25.73,2.21,1.44,3.47,3.82,2.55,10.72.17,11.26.17.68-3.12,2.68-2.83,2.68-2.83,2.55-.56,1.55-.34,3.23.54-1.48,16.81,3.3,17.55,2.91,26.18.17,9.62-2.91,12.36-2.91,16,1,4.48,15.17,4.64,10.17,8.43-4.38,2.35,0,6.73-6.59,8.44-19.21,9.75-22.9,18.12-22.9,18.12S759.84,358,759.3,358c-3.22,6.08-7.3,2.76-9.57,5.73-1.13,3.72-2.4,12-.14,16.27,1.13,5.9-.14,9.11-1.55,15-1.27,12.31-6.15,14.17-6.72,18.49-2.26,4.61.48,26.29-1.66,26.29-14.31.28-25.28-2.74-30.93-3.87,5.51-23.78,3.37-44.66,3.37-46.81-1.41-17-25.47-12.87-29.16-15.12-3-.65-5-3.14-6-4.21-3.41-.37-4.68-1.14-8.08-1.5-1.69.85-.67,1.73-4.46,2.9-9.59,1.15-13.82-8.37-13.82-8.37.46-3.2-21.58.65-33.56-2.13-4.91,2.74-7.06,10.84-11.08,11.8-.11,2.51-6.62-2.06-7.93-4.53-.27-7.19,6.27-10.36,6.27-10.36,5.19-3.66,8.27-4.25,10.76-6.77,1.26-6.26.62-10.88,3.29-15.58,2.26-3.59,5.59-1.91,7.85-3.52,2.42-1.61,3.45-12.13,1.21-15,0,0-9.71-8.76-10.24-9.3-3.16-9.06,3.69-14.9,5.65-14.24Z" transform="translate(0 0)"/>
  <path class="cls-3" d="M1229.1,136.58c-5.73-22.67-57-71.5-95.55-102.57-9.2-6.27-15.19-2.54-14,6.4,4.79,8,8.39,16.8,13.19,24.8,1.34,5.33,3.87,9.07,5.21,14.4,0,0,.39,9.2,1.2,10,12,13.21,13.6,24.41,13.6,24.41,6.93,13.33,13.07,23.07,25.2,34,13.61,8.54,3.6,35.07,4,49.21,0,8.93-6.4,7.87-12,6.8-44.14-40.54-87.88-40.67-126.42-52.41-15.07-1.59-15.34,5.6-10.4,9.6,26.94,28.81,52.27,48.41,85.61,64.81l16.81,10.41q9.59,8,19.19,16c14.8,9.6,16,18.4,16,19.2.39,18-9.22,32-12,37.6-5,19.09-15.2,22.41-15.2,22.41-82.42,55.61-125.63,70-259.25,52.8-2-1.06-14.8,1.08,0,6.41,34,11.33,117.54,29.51,198.36-8.76,19.41-13.61,32.39-9.15,46.44-17.29,23.09-14.24,56.05-32,62.05-33.95,18-9.61,68.41-20.41,80-30,13.32-1.07,27.15-2.82,28.08-14.28,4.38-2.83,10.79-.76,15.54-10.1,10.57-1.83,8.79-5.61,8.79-5.61-2.67-7.47-12.54-10.55-19.6-16-10.41-3.47-17.61-4.54-25.21-.8l-7.2,3.2s-11.21-1.61-11.21-2.4c-24.89-1.37-22.46-83.86-31.27-118.27Z" transform="translate(0 0)"/>
  <path class="cls-2" d="M1287.48,271.61c-.72,2-3.94,2.81-7.18,1.79s-5.29-3.47-4.57-5.48h0c.71-2,3.93-2.8,7.18-1.78S1288.2,269.61,1287.48,271.61Z" transform="translate(0 0)"/>
  <g>
    <path id="s" class="cls-4" d="M263.42,267.32l-17.85-16.71-18.06,16.47,1.93-24.36-24.15-3.86,20.27-13.68L213.51,203.9l23.34,7.31L246,188.52l8.84,22.81,23.42-7-12.32,21.12L286,239.38l-24.2,3.54,1.62,24.4Z" transform="translate(0 0)"/>
    <path class="cls-4" d="M326.75,469.74l-19.26-12.83-18.74,13.53,6.59-21.8-19-13.18,23.33-.62,7-21.7,7.84,21.42,23.33-.22-18.49,13.87,7.43,21.53Z" transform="translate(0 0)"/>
    <path class="cls-4" d="M267,644,249.1,627.29,231,643.77,233,619.4l-24.15-3.85,20.27-13.69L217,580.59l23.34,7.3,9.12-22.68,8.84,22.8,23.42-7-12.32,21.12,20.09,13.94-24.2,3.55L267,644Z" transform="translate(0 0)"/>
    <path class="cls-4" d="M106.53,439.83,88.68,423.12,70.62,439.59l1.93-24.36L48.4,411.37l20.27-13.68L56.62,376.41,80,383.72,89.08,361l8.83,22.8,23.43-7L109,398l20.09,13.94-24.2,3.54,1.62,24.4Z" transform="translate(0 0)"/>
    <path class="cls-4" d="M415.22,386.35l-17.85-16.71L379.3,386.12l1.94-24.37-24.15-3.85,20.27-13.68-12.05-21.28,23.33,7.31,9.13-22.69,8.83,22.8,23.43-7-12.32,21.12,20.09,13.95L413.6,362l1.62,24.39Z" transform="translate(0 0)"/>
  </g>
</svg>
