<svg id="Layer_1" data-name="Layer 1" xmlns="http://www.w3.org/2000/svg" xmlns:xlink="http://www.w3.org/1999/xlink" width="498.61mm" height="257.09mm" viewBox="0 0 1413.38 728.75">
  <defs>
    <style>
      .cls-1, .cls-12 {
        fill: none;
      }

      .cls-2 {
        clip-path: url(#clip-path);
      }

      .cls-3 {
        fill: #012169;
      }

      .cls-4, .cls-7 {
        stroke: #fff;
      }

      .cls-4, .cls-6, .cls-7, .cls-8 {
        stroke-miterlimit: 8;
      }

      .cls-4, .cls-8 {
        stroke-width: 69.82px;
      }

      .cls-5 {
        clip-path: url(#clip-path-2);
      }

      .cls-6, .cls-8 {
        stroke: #c8102e;
      }

      .cls-6 {
        stroke-width: 46.55px;
      }

      .cls-7 {
        stroke-width: 116.37px;
      }

      .cls-14, .cls-9 {
        fill: #f7e017;
      }

      .cls-10, .cls-11, .cls-12, .cls-13, .cls-15, .cls-16, .cls-17, .cls-18, .cls-9 {
        stroke: #000;
        stroke-miterlimit: 160;
        stroke-width: 0.7px;
      }

      .cls-10 {
        fill: #337321;
      }

      .cls-11 {
        fill: #316d3a;
      }

      .cls-13 {
        fill: #006ec7;
      }

      .cls-15 {
        fill: #fff;
      }

      .cls-16 {
        fill: #e5e5e5;
      }

      .cls-17 {
        fill: #96877d;
      }

      .cls-18 {
        fill: #c8102e;
      }
    </style>
    <clipPath id="clip-path" transform="translate(13.38 28.75)">
      <rect class="cls-1" x="2.2" y="2.49" width="1397.79" height="697.51"/>
    </clipPath>
    <clipPath id="clip-path-2" transform="translate(13.38 28.75)">
      <path class="cls-1" d="M2.2,2.49V176.87H817.58V351.24H701.1Zm698.9,0H351.65v465H2.2V351.24Z"/>
    </clipPath>
  </defs>
  <g class="cls-2">
    <rect class="cls-3" x="15.59" y="31.24" width="1397.79" height="697.51"/>
    <g>
      <path class="cls-4" d="M2.2,2.49,701.1,351.24m0-348.75L2.2,351.24" transform="translate(13.38 28.75)"/>
      <g class="cls-5">
        <path class="cls-6" d="M2.2,2.49,701.1,351.24m0-348.75L2.2,351.24" transform="translate(13.38 28.75)"/>
      </g>
      <path class="cls-7" d="M351.65,2.49v465M2.2,176.87H817.58" transform="translate(13.38 28.75)"/>
      <path class="cls-8" d="M351.65,2.49v465M2.2,176.87H817.58" transform="translate(13.38 28.75)"/>
      <path class="cls-3" d="M701.1,2.49V351.24H2.2V700H1400V2.49Z" transform="translate(13.38 28.75)"/>
    </g>
    <g>
      <path class="cls-9" d="M934.9,372.36c-14.9,12.6-29.12,31-32.61,47.66-9.83,46.82-22.88,57.24-43,47.2,0,25.15,22.09,27.06,31.78,12.37,0,23.57,8.57,44,27.91,61.47,8.15,7.35,9.69,2.32,5.82-5.81s-3.86-34.41-11.6-49.48c12.4,8.88,30.61,3.86,29.08-20.51-15.89,9.3-31.69,8.93-33.32-13.16C907,426.2,917.06,388.58,934.9,372.36Z" transform="translate(13.38 28.75)"/>
      <path class="cls-9" d="M916,186.12c1.08-9.3-.93-18.83-7.73-24.83-13.14-11.53-26-7.72-35.6,1.58-14.35-7.72-21.94,19.67-38.2,15.07,2.7,8.88,7,12.74,15.09,9.67-8.52,7.72,0,17-10.06,26.27,18.22,5.81,27.91-4.23,27.12-21.67,7,6.19,17.79,5.82,23.62-1.16-9.69-3.12-9.74-11.49-5.83-19.34C890.27,160.13,917.57,160.59,916,186.12Z" transform="translate(13.38 28.75)"/>
      <path class="cls-10" d="M958.06,320.65c-20.55,10.83-58.1,6.18-61.59-20.51s22.45-38.69,29.44-42.13c10.86-5.44,19.39,4.23,15.89,15.49,12-4.24,14.72-18.19,8.9-26.28,15.89,1.17,30.61-10.83,36.81-27.85-5.59,5.3-20.78,1.72-33.27.93,3.87-4.23,3.82-12.51,2.66-16.79-13.14,13.49-32.15,7.3-57.31,46.36,3.86-13.53,11.23-40.59,15.51-58.4a50.84,50.84,0,0,0,1-5.35c1.49-25.53-25.76-26-31.59-14.37,6.38,7.16,3,15.53.75,28.23-2.71,15.06-8.53,49.89-13.56,61.47-1.54-18.18-13.56-19.34-15.89-28.22-3.49,2.32-5.4,8.51-4.66,12.74-4.29-4.65-19,1.16-24.41-5.82-5.83,11.58,3.49,23.21,13.18,28.23-5.64.37-7,7.16-13.18,7.16,8.34,9.67,16.86,13.53,26.74,14.32s17.24,4.47,23.25,16.42C886.4,325.67,923.3,338.22,958.06,320.65Z" transform="translate(13.38 28.75)"/>
      <path class="cls-9" d="M1009.22,297c-11.6,32.09-43.38,54.92-57.73,58.41-24.41,5.91-74.17,30-87.5,42.45a15.31,15.31,0,0,1-5.5-2.23c-6.57-4.65-12-19.71-.37-32.5,36.44-34,75.57-19.35,100-42.55-20.55,10.84-58.1,6.19-61.6-20.51,22.09,5.82,62,6.19,93.75-27.85C994.5,276.94,1006.89,291.63,1009.22,297Z" transform="translate(13.38 28.75)"/>
      <path class="cls-10" d="M934.9,372.36c-18.4,15.57-27.95,53.84-26,79.74.56,7.21,2.56,12.09,5.63,15.07,1.35-14.69,11.61-52.68,37.74-69.61,22.09-14.32,56.57-46.41,69.38-83.14-2.33-6.56-6.2-11.21-13.56-15.86C995.38,333.25,961.42,349.9,934.9,372.36Z" transform="translate(13.38 28.75)"/>
      <path class="cls-11" d="M997.39,282.14c-6.57,9.86-21.53,23.39-35.83,28.84a18.8,18.8,0,0,0,4.24-11.58c-18.22,7-54.66,6.18-69.38.79,22.08,5.81,62,6.18,93.74-27.86C993.33,275.77,996,278.84,997.39,282.14Z" transform="translate(13.38 28.75)"/>
      <path class="cls-10" d="M858.12,363.15c-29.63,27.67-10.06,51.8,1.54,57.24-3.08,19.35,15.09,17,14.72,33.25,7.36-4.23,9.32-15.49,8.15-24.37,9.32,10.05,33-1.16,38,17.39,3.12-20.5-12.77-41-32.52-39.06,8.15-7.34,3.49-19.34-4.24-22.41-1.54,15.07-18.59,15.07-25.21,10.46S846.47,375.94,858.12,363.15Z" transform="translate(13.38 28.75)"/>
      <path class="cls-9" d="M922.23,539.11c-3.21,1.86-3,6-1,8.69,4.06,5.4-2.89,17.67,10.25,20.32,3.87.79,6.85-1.58,8.34-6,4.06-12.18-8.9-13.53-10.06-19.34S924.93,537.57,922.23,539.11Z" transform="translate(13.38 28.75)"/>
      <path class="cls-9" d="M933.27,561.94c-4.33,2-8.15,4.83-6.38,18.74.7,5.76.37,19.71-4.66,19.9,3.08,1.54,9.69,3.21,12.4-.37,2.6,4.37,8.52,3.11,10.85-2.33,3.08,2.51,7.36-1.72,7.36-5.39,2.71,1.72,8.16-.79,6.76-9.07,3.31,1.16,7.55-1.16,9.09-3.3-4.85-1-17.06-7.53-20-12.74S938.31,559.61,933.27,561.94Z" transform="translate(13.38 28.75)"/>
      <g>
        <path class="cls-12" d="M866.13,170.82a52.31,52.31,0,0,1,6.57-7.95" transform="translate(13.38 28.75)"/>
        <path class="cls-12" d="M939.84,222c3.41-2,8.62-2.19,14.4-1.81" transform="translate(13.38 28.75)"/>
        <path class="cls-12" d="M934.63,600.21c-1.36-2-1.87-10.05-.89-15" transform="translate(13.38 28.75)"/>
        <path class="cls-12" d="M945.48,597.88c-2.14-1.62-6.2-7.25-6.89-12.18" transform="translate(13.38 28.75)"/>
        <path class="cls-12" d="M952.84,592.49c-2.7-1.26-9.32-9.77-10.76-15.25" transform="translate(13.38 28.75)"/>
        <path class="cls-12" d="M959.6,583.38c-3.22-.7-13-7.07-17.05-13.82" transform="translate(13.38 28.75)"/>
      </g>
      <path class="cls-9" d="M1138.24,363.57c47.66,39.85,50.74,71.52,43.38,90.12-3.87-17.4-23.63-44.46-44.17-51.43Z" transform="translate(13.38 28.75)"/>
      <path class="cls-10" d="M1053,341.11h88.34V445.5c0,89-49.58,141.55-100,169.36-50.37-27.86-100-80.45-100-169.36V341.11h62c.09,5.39.6,13.53,7,21.67C1025,361.34,1041.56,350.41,1053,341.11Z" transform="translate(13.38 28.75)"/>
      <path class="cls-13" d="M1141.36,341.11V445.5c0,26.83-4.52,50.41-12.21,70.91l-87.73-160.65L953.68,516.41c-7.69-20.55-12.21-44.08-12.21-70.91V341.11Z" transform="translate(13.38 28.75)"/>
      <path class="cls-14" d="M1131.81,508.74c-1.54,4.75-4.38,12.42-6.53,17.16l-83.86-155.59L957.55,525.9A181.12,181.12,0,0,1,951,508.74l90.43-167.31Z" transform="translate(13.38 28.75)"/>
      <path class="cls-9" d="M1081.25,566c2.33,1.17,6.62,3.31,8.53,4.1,4.66-9.3,5.41-22.42,3.87-34-5,12.79-22.09,12.37-26.75,20.09a60.76,60.76,0,0,1,7.78,4.93c-5.82,5.81-19.42,15.53-27.16,17.85V496c0-5.81-2-10.64-2-15.48V463.31c0-3.86-.79-9.49-4.24-9.49s-4.24,5.63-4.24,9.49v17.16c0,4.84-1.95,10.46-1.95,15.48v83c-4.24-12.37-21-8.14-28.7-20.51a21.83,21.83,0,0,1,9.31-.37C1009.92,538.32,994,536.78,991,531c0,8.14-3.5,27.06,1.95,35.2a20.29,20.29,0,0,1,5.27-4.28c6.57,14.32,36.2,14.37,43.19,38C1047,591.14,1067.14,581.1,1081.25,566Z" transform="translate(13.38 28.75)"/>
      <path class="cls-9" d="M1041.37,497c6.57,0,27.49-2.14,35.08-2.14,2,0,3.59-2.93,3.59-6.56s-1.58-6.55-3.59-6.55c-7.54,0-28.46-2.14-35.08-2.14s-27.49,2.14-35.08,2.14c-2,0-3.59,2.92-3.59,6.55s1.58,6.56,3.59,6.56C1013.88,494.84,1034.8,497,1041.37,497Z" transform="translate(13.38 28.75)"/>
      <path class="cls-9" d="M1037.13,463a8.35,8.35,0,0,0-5.26-1.82c-4.38,0-8,3.26-8,7.26s3.54,7.25,8,7.25,7.92-3.25,7.92-7.25a2.26,2.26,0,1,1,4.52,0c0,6.27-5.6,11.34-12.44,11.34s-12.45-5.07-12.45-11.34,5.6-11.35,12.45-11.35a13.65,13.65,0,0,1,5.73,1.26A35.07,35.07,0,0,0,1037.13,463Z" transform="translate(13.38 28.75)"/>
      <path class="cls-9" d="M1006.33,494.84c2,0,3.54-2.93,3.54-6.56s-1.58-6.55-3.54-6.55" transform="translate(13.38 28.75)"/>
      <path class="cls-9" d="M1009.22,494.84c2,0,3.54-2.93,3.54-6.56s-1.58-6.55-3.54-6.55" transform="translate(13.38 28.75)"/>
      <path class="cls-9" d="M1028.37,496.19c2.38,0,4.29-3.54,4.29-7.91s-1.91-7.9-4.29-7.9" transform="translate(13.38 28.75)"/>
      <path class="cls-9" d="M1032.8,496.51c2.47,0,4.47-3.72,4.47-8.27s-2-8.28-4.47-8.28" transform="translate(13.38 28.75)"/>
      <path class="cls-9" d="M1047.71,496.61c2.51,0,4.52-3.77,4.52-8.37s-2-8.37-4.52-8.37" transform="translate(13.38 28.75)"/>
      <path class="cls-9" d="M1052.37,496.37c2.47,0,4.47-3.62,4.47-8.09s-2-8.09-4.47-8.09" transform="translate(13.38 28.75)"/>
      <path class="cls-9" d="M1073.19,494.93c2,0,3.64-3,3.64-6.69s-1.63-6.7-3.64-6.7" transform="translate(13.38 28.75)"/>
      <path class="cls-9" d="M998.18,561.89a28.83,28.83,0,0,1,8.29-3.44" transform="translate(13.38 28.75)"/>
      <path class="cls-9" d="M1077,562.68c-.69-.51-1.49-1-2.28-1.62" transform="translate(13.38 28.75)"/>
      <path class="cls-9" d="M1081.25,566c5.41-5.81,9.93-12.36,12.44-19.9" transform="translate(13.38 28.75)"/>
      <path class="cls-15" d="M1023.62,415c0-1.91,1.54-2.7,3.35-4.05,2.19-1.62,3.08-2.41,5-2.41h25.43c1.87,0,2.33.46,2.33,2.23v34.46c0,1.72-.41,2.23-2.33,2.23h-33.82V414.58" transform="translate(13.38 28.75)"/>
      <path class="cls-16" d="M1051.15,450.43c3.36,0,2.75-.09,5.08-2.42s2.24-2.23,2.24-4.46V412c0-1.62-.42-2.09-2.14-2.09H1032.8c-1.87,0-2.66.75-4.66,2.28-1.68,1.26-3.08,2-3.08,3.81v34.46Z" transform="translate(13.38 28.75)"/>
      <path class="cls-15" d="M1053.67,449.69c0,1.72-.42,2.23-2.33,2.23H1025.9c-1.91,0-2.28-.47-2.28-2.23V415.18c0-1.72.42-2.23,2.28-2.23h25.44c1.91,0,2.33.47,2.33,2.23Z" transform="translate(13.38 28.75)"/>
      <path class="cls-17" d="M1103,320.88a19.42,19.42,0,0,1,3.86,20.18h-7.36c3.08-9.3,1.17-18.13-12-19.3-19.71-1.72-42.63,36.37-77.11,41-10.06-12-9.55-34.83,3.26-45.66-6.62-19-20.55-39.95-30.24-49A94.87,94.87,0,0,0,965,266.85c5-10.84,19.39-22.23,31-26.88,1.86-2.74,3.91-5.4,5.77-7.77,1.17-14.88,72.08-7.9,87.18,1.35C1089,250.25,1095.6,305.81,1103,320.88Z" transform="translate(13.38 28.75)"/>
      <g>
        <path d="M1017.05,331.06c-1.68-25.76-12.12-47-26.79-61.47,7,2,21.29,2,31-5,12.77-8.51,46.13-23.39,58.34-17a19.18,19.18,0,0,1,.79,10c-2.89-7.72-35.09,4.23-44.17,7.91-8.71,4-12.58,9.48-9.51,21.67-5-4.23-3.3-8.33-8.52-11.4,2.09,5,3.82,14.09,4.42,21.44-2-5.21-5.4-16.41-13-23,6.57,12.74,12.3,43.39,9.6,59.66,5.22,0,16.78-5.11,21.39-8.79-4.06,5.82-15.8,9.86-23.34,11.4-3.41,4-5.74,14.51-5.55,20.32C1011.18,349.62,1013.41,332.18,1017.05,331.06Z" transform="translate(13.38 28.75)"/>
        <path d="M1103,320.88c-6.43-7.11-18.41-11-33.69-6.84a48.55,48.55,0,0,1,11.83-3.86c-.55-4-4.24-21.48-4.84-25.71l4.29-1.72c2.14,10.46,4.84,22.41,6.56,27.25a36.33,36.33,0,0,1,7.18,2.32c-1.16-4-7.73-33.24-7.55-36.36l5.83-3.12C1094.86,288.7,1098.54,311.72,1103,320.88Z" transform="translate(13.38 28.75)"/>
      </g>
      <path class="cls-17" d="M1099.52,341.11c3.07-9.3,1.16-18.14-12-19.3-10.21-.88-21.3,9-34.39,19.3Z" transform="translate(13.38 28.75)"/>
      <path class="cls-17" d="M1013.88,257.78c-5.82.79-18.78-.37-25.39-2.51a29.29,29.29,0,0,1,1.91-5.49c-4.06,2.7-11.79,8-14.73,11.67C985,263.41,1004.19,264.38,1013.88,257.78Z" transform="translate(13.38 28.75)"/>
      <path class="cls-12" d="M1013.65,317.11a61.38,61.38,0,0,1,3.72,17.44" transform="translate(13.38 28.75)"/>
      <path class="cls-12" d="M996.08,240c-3.49,5.11-6.57,10.6-7.59,15.25,6.57,2.14,19.57,3.3,25.39,2.51" transform="translate(13.38 28.75)"/>
      <path class="cls-12" d="M983.41,268.15a68,68,0,0,1,6.85,1.44c7,2,21.29,2,31-5s36-28.6,65.88-30.93" transform="translate(13.38 28.75)"/>
      <path class="cls-12" d="M975.72,261.45c9.32,2,28.52,2.89,38.16-3.67,22.46-15.25,44.17-24.18,65.88-25.34" transform="translate(13.38 28.75)"/>
      <path class="cls-10" d="M1138.24,363.57c32.52,22.41,56.56,44.08,63.55,78.86s20.18,44.08,36.44,34.78c-3.87,20.09-24,22.42-41,7,1.54,23.2-7.74,51.06-31.78,61.1-1.54-13.9,7.69-24.92,5-36.36-1.16-5-1.53-16.65,5-22-12.77,4.23-33-3.86-34.86-22.84,14.73,7,33.69,8.14,41.05-10.46S1185.9,403.37,1138.24,363.57Z" transform="translate(13.38 28.75)"/>
      <path class="cls-10" d="M1179.33,182.59c10.07-26.28,36.44-23.58,45.34-12.37,25.95-14.7,29.44,18.55,51.53,12-.37,6.18-7.73,12-15.89,11.57,8.53,7.72-3.49,19.35,14.72,26.28-15.51,7.72-37.18-.38-43-21.67-5,10-23.25,10-30.61,1.95,15.89-4.23,14.72-18.93,5.82-24.74S1182.41,172.12,1179.33,182.59Z" transform="translate(13.38 28.75)"/>
      <path class="cls-10" d="M1100.73,240.48c7.22,23.25,22.18,44.92,38.3,59.66,18.59,17,46.69,12.74,62.39-3.49.37,32.37-33.22,34.88-51.91,24.74-8.24-4.46-14.91-2.14-7,5,12,10.84,38.3,18.88,69.33,25.53,54.24,11.58,34.9,54.55,19,54.13,4.57-.09,8.3-4.84,1.73-10.74-47.06-42.27-142.76-25.62-141.23-120-10.06,24.73-51.53,15.06-32.14-14.33,6.19,5,17,5.4,20.17-2.32,2.42-6,.84-16.46-10-25.48,1.77-.14,5.64,0,5.22-4.47.47,2.61,2.84,6.47,9,5.16,1.72,2.75,3.58,4.56,6,3.58.47-.18,2-.93,1.36-3.67C1091.41,239,1097.51,240.85,1100.73,240.48Z" transform="translate(13.38 28.75)"/>
      <path class="cls-9" d="M1149.47,321.39c22.45,14.7,47.89,14.7,71.28-12.37,7.37-8.51,19-15.85,27.12-16.65s7.74-8.5,13.93-10c-3.86-1.16-5.4-5.81-11.23-5.21,14.54-5,10.25-16.64,17.43-22.22-5.82,2.13-14.91-6.56-23.25,4.46,2.14-5-.79-11-2.89-13.35.79,5.82-11.41,7-13.74,21.67-1.31,8.23-5.83,7.72-6.57-5-.56-9.35-5-35.2-10.44-48.31s-6.66-31.2.7-33.9a14.27,14.27,0,0,0-4.57-4.74c-9-5.86-24.79-3.49-27.91,7-10.06,26.27,18.22,41.39,15.89,70-4.24-21.25-38.76-26.69-38.35-47.57-11.22,5-9.69,14.33-5.4,21.67-7-10.83-22.88,7-36.44-7.72-1.53,19.35,15.52,26.69,29.45,27.44-7,12.37,2.33,22.83,11.6,26.27.38-21.67,44.87-12.79,45.34,24.37C1201.79,328.74,1167.68,331.44,1149.47,321.39Z" transform="translate(13.38 28.75)"/>
      <path class="cls-9" d="M1211.85,351.94c54.24,11.58,34.9,54.55,19,54.13-10.11-.23-19.75-8.7-20.36-16-11.6,6.18-8.52,18.36.38,23.2-24.42-2.88-34.67,13.16-35.28,30.74,4.48-8.14,18-8.7,23.07-7s18,2.7,23.25-3.11c-4.29,3.67,2.7,12.18-3.31,18.74,20.36-.79,29.26-19.72,25.77-28C1270.75,400.67,1265.72,361.61,1211.85,351.94Z" transform="translate(13.38 28.75)"/>
      <path class="cls-9" d="M1170.57,535.67c3.54,2.18,3.08,6.83.7,9.76-4.8,5.86,2.42,19.86-12.35,22.23-4.38.7-7.59-2.09-9-7.07-4-13.76,10.53-14.69,12.06-21.16S1167.59,533.81,1170.57,535.67Z" transform="translate(13.38 28.75)"/>
      <path class="cls-9" d="M1157.25,560.64c4.75,2.41,8.85,5.76,6.33,21.2-1.07,6.42-1.3,22,4.34,22.41-3.54,1.59-11,3.12-13.84-1-3.12,4.74-9.65,3.07-12-3.07-3.59,2.65-8.16-2.28-8-6.37-3.12,1.81-9-1.21-7.17-10.42-3.73,1.16-8.39-1.63-10-4,5.45-.89,19.33-7.68,22.83-13.4S1151.7,557.85,1157.25,560.64Z" transform="translate(13.38 28.75)"/>
      <path class="cls-12" d="M1154,603.32c1.59-2.09,2.52-11.16,1.63-16.69" transform="translate(13.38 28.75)"/>
      <path class="cls-12" d="M1142.06,600.26c2.47-1.73,7.22-7.82,8.2-13.3" transform="translate(13.38 28.75)"/>
      <path class="cls-12" d="M1134,593.88c3.08-1.3,10.81-10.5,12.68-16.6" transform="translate(13.38 28.75)"/>
      <path class="cls-12" d="M1126.87,583.47c3.59-.61,14.82-7.3,19.61-14.7" transform="translate(13.38 28.75)"/>
      <path class="cls-9" d="M1091.36,275.4c-.65,39.62,15.85,59.71,38.72,72.73-8.48-5.07-4.8-22.46-16.26-28.09,2.7-.18,7,3.68,13.75,2.14-3.31-7.35-8.72-18.55-21.3-20.09,3.31-.37,10.49.79,15.1-1C1114.8,291,1097.38,295.86,1091.36,275.4Z" transform="translate(13.38 28.75)"/>
      <path class="cls-9" d="M1087.26,237.69c-1.39-.46-2.56-1.86-3.72-3.67-6.11,1.3-8.48-2.56-9-5.16.37,4.46-3.45,4.27-5.26,4.41,10.9,9,12.48,19.49,10.06,25.48-3.12,7.72-13.93,7.35-20.17,2.33-.8,16.41,20.54,21.86,28.28,1.16,0,3.49,4.47,3.12,5.64,7.72C1098.63,261.08,1094.44,248.29,1087.26,237.69Z" transform="translate(13.38 28.75)"/>
      <path class="cls-10" d="M1053.2,159.2c-9.69-8.88-14.16-23.76-13.74-32.27s3.87-17.81,16.26-13.91c-3.87,0-1.16,7.72-5.22,8.51,3.31,1.16,7.74-1.53,8.34-3.3.79,2.7,5.83,2,6.2,5,2-1.53-.19-9.07-3.08-10.65,2.15-1.16,3.31-7.16,2.33-10-2,.37-4.84,3.12-5.4,7,1-3.11-.19-10.83-5.64-12-1.54,2.14-2,7.34.19,10.23-5-1.16-12.4,2.14-14.17,6.37.38-5.12,1.12-12.42,4.29-17,1.07-1.54-1.54-4.23-3.59-.56-3.77-7.35-13.84-11.21-18.31-7.53s-10.44-1.72-14.12,4S991.38,99.49,992,105.63c.37,3.67-.51,9.35-2.33,11.39-4.47,5,2.14,8.7,3.31,13.16-.8-14.69,22.64-43.29,46.12-32.08-2.14,3.67-4,11-4.66,19.9-1,13.16,1,31.71,13.75,42.55Z" transform="translate(13.38 28.75)"/>
      <path class="cls-18" d="M1060.15,113.16c-.14-3.49,5.91-8,14-7.9,9.79.09,17.33,9,25.16,8.13s4,3.49,2.33,4.65a4.56,4.56,0,0,0-2.05,5c.56,2.14-.42,3.53-3.59,1.53-7-4.37-13.93,1.72-23.15-1.63C1065,120,1060.38,118.37,1060.15,113.16Z" transform="translate(13.38 28.75)"/>
      <path class="cls-17" d="M1020.26,204.44c-3.86-12.18-18.59-25.53-25.76-28.6l-.38-6.55c3.87-1.54,13.19-8.88,17.43-13,29.07,13.91,68.59-5.81,86.8-26.27l7,4.23-3.49,4.65-3.68-1.95c-4.48,5.39-21.11,21-26.14,24.32,6.75,1.72,16,2.88,18.59,2.74,16.26-11.62,29-22,35.22-22.83l5.22,7-4.66,3.3-3.68-2.14c-17.42,14.32-37.18,45.62-45,66.5C1067,213.51,1028.18,215,1020.26,204.44Z" transform="translate(13.38 28.75)"/>
      <path class="cls-12" d="M1072,161.29a28.39,28.39,0,0,1-6-2.09c-3.12,2.88-10.86,5.39-20.74,5.81" transform="translate(13.38 28.75)"/>
      <path class="cls-12" d="M1021.8,200.16c-2.61-14.41,1.54-30.36,8.9-35.2,16.07,10.65,43.61,10.65,59.87-1" transform="translate(13.38 28.75)"/>
      <path class="cls-12" d="M1021.8,192.63c12.39-.37,39.33,1.72,45.9,2.7s17.61,3.67,16.07,7" transform="translate(13.38 28.75)"/>
      <path class="cls-12" d="M1027.53,190.59l3.59-3.54-3.59-3.53L1024,187Z" transform="translate(13.38 28.75)"/>
      <path class="cls-10" d="M1036,118.6c-4.48-6.18-16.73-8.14-19.39.19-1.16,3.67-2.89,7.53-5.82,9.3s-2.24,7-1,9.3c3.08,5.63.37,11,6.38,14.69,0-4.46,6.57-9.06,12.21-10.23s14.12-6.18,15.28-11.81S1046.82,119.72,1036,118.6Z" transform="translate(13.38 28.75)"/>
      <path class="cls-17" d="M1008.06,174.26h1.53l0,10.56a3.51,3.51,0,0,1,.93.46l9.13-5.25.8,1.35-9.18,5.3a3.88,3.88,0,0,1,0,1l9.14,5.26-.8,1.35-9.22-5.21a2.29,2.29,0,0,1-.89.56v10.5h-1.53V189.61a3.31,3.31,0,0,1-.94-.47L998,194.4l-.79-1.35,9.18-5.3a3.9,3.9,0,0,1,0-1l-9.13-5.26.79-1.35,9.18,5.26a2.08,2.08,0,0,1,.89-.56V174.26Z" transform="translate(13.38 28.75)"/>
      <path class="cls-17" d="M1021.85,200.12a18.35,18.35,0,1,1,1.54-24,41,41,0,0,0-2.15,9.81,12.54,12.54,0,1,0-12.48,13.76,12.84,12.84,0,0,0,12.25-9.39C1021.06,192.68,1021.15,198.21,1021.85,200.12Z" transform="translate(13.38 28.75)"/>
      <path class="cls-10" d="M1001.07,217.56c-1.17-1.35-3.31-5-3.08-7.72a10.09,10.09,0,0,1,6.57,2.51c-.18-2-1-6.19-.56-8.14,2.15.79,6.57,3.3,8.16,6.18-.38-1.95-1.17-7-.38-10,2.33,1.35,6.2,5,7,7.53.19-3.86,1.54-10.23,2.71-11.81,1.72,1.72,4.47,3.3,6.19,5.63.37-3.12,2-6.79,4.24-7.72a22.37,22.37,0,0,1,5,11.39c1.73-.56,4.06-3.49,5-5a10.65,10.65,0,0,1,1.35,7.53c2.14-1.95,4.66-4.65,5.22-7,1.53,1.16,4.47,4,5.21,7.16-.37-2.51-.18-7-1-9.49a11.24,11.24,0,0,1,5.82,7.16c.79-2.69,2.52-7.53,4.05-8.69,1.54,3.11,3.12,6.79,2.89,9.86,1-2,2.52-5.4,4.06-6.19,1.35,2.14,1.16,6.79.79,9.3a18.61,18.61,0,0,1,5.4-5,15.88,15.88,0,0,1,0,5.21c1.73-1,4.66-6.19,5.64-8.88,2.7,1.35,5.41,6,5.64,8.32a21.2,21.2,0,0,0,7-6.18c0,1.34.6,5-.19,7.9a23,23,0,0,0,2.89-4.46c.79,2,.19,6.55-.61,9.06a10.26,10.26,0,0,1,5.83-2.51c.18,3.3-2.15,9.07-4.29,13.35C1079.16,221.65,1040.21,219.69,1001.07,217.56Z" transform="translate(13.38 28.75)"/>
      <path class="cls-14" d="M1065.92,115.16c-.09-1.44,3.08-4.65,8.81-4.6,6.85,0,13.19,5.07,18.64,4.69s2.79,1.45,1.63,1.91-1.82,1.21-1.45,2-.28,1.44-2.51.65c-4.89-1.77-9.79.7-16.22-.65C1069.28,118,1066.06,117.3,1065.92,115.16Z" transform="translate(13.38 28.75)"/>
      <path class="cls-9" d="M1007.08,229.18c-5.83,7-11.6,5.81-12.77,1.35s3.12-6.56,1.54-10.46,2.51-5.63,4.47-3.86,8.16-3.86,10.86,1.95,4.84,9.86,3.31,12.18S1008.24,231.51,1007.08,229.18Z" transform="translate(13.38 28.75)"/>
      <path class="cls-9" d="M1032.05,218.72c-1.07-2.56,4.94-7.44,8.06-3.95s8-3.77,10.67,1.72,3.59,8.41,4.94,11.48-7.36,4.74-10.06,2.05c.37,1.81-7.55,3.25-9.69-2C1034.8,225.32,1033.54,222.11,1032.05,218.72Z" transform="translate(13.38 28.75)"/>
      <path class="cls-9" d="M1072.35,221.93c-1.44-2.7,5.64-6.56,9.32-1.63,1-2.05,8-2.42,8.44,3.49s.7,9.39.88,11.71-4.24,4.47-7.45-1.44c-5.73,1.17-8.34-2-9-5.39A24.42,24.42,0,0,0,1072.35,221.93Z" transform="translate(13.38 28.75)"/>
      <path class="cls-10" d="M1010.85,218.07c-.88-2,4.94-5.82,8.9-2.89s9.46-2.51,11.84,2.7c4.75,10.56,5,11.3,3.58,13.35s-7.64,1.25-9.22-1.54c-.28,2-5.64,1.63-8.44.1C1014.35,228,1012.11,221.55,1010.85,218.07Z" transform="translate(13.38 28.75)"/>
      <path class="cls-10" d="M1051.62,218.53c-1.35-3,7.74-5.62,11.74-.37,2.05-1.86,6.48-1.95,9,3.77s2.89,8.88,1.08,10.32c-1.31,1-6,1.81-7.55-.79-2.14,1.35-8.71.19-10.16-3.49A95.13,95.13,0,0,0,1051.62,218.53Z" transform="translate(13.38 28.75)"/>
      <path class="cls-10" d="M1090.2,224.25c-.19-2.7,4.75-3.95,6.57,0s7.73.37,8.25,7c.09,1.25-.7,6.09-2.52,8.41s-10.86,0-11.41-4.93S1090.29,227,1090.2,224.25Z" transform="translate(13.38 28.75)"/>
      <g>
        <path class="cls-12" d="M1007.08,229.18c-2.15-2.88-5-7.53-8.72-2.51" transform="translate(13.38 28.75)"/>
        <path class="cls-12" d="M1026,229.65a23.19,23.19,0,0,1-3.49-6.47" transform="translate(13.38 28.75)"/>
        <path class="cls-12" d="M1045.66,230.06a16.14,16.14,0,0,1-4.48-4.92" transform="translate(13.38 28.75)"/>
        <path class="cls-12" d="M1043.89,219.88c3.4.37,5.73,3.58,6.75,5s3.31,4,5,4.37" transform="translate(13.38 28.75)"/>
        <path class="cls-12" d="M1065.88,231.51c-1.17-1.86-2.33-3.49-2.61-4.84" transform="translate(13.38 28.75)"/>
        <path class="cls-12" d="M1063.36,218.16a22.22,22.22,0,0,1,2.7,4.56" transform="translate(13.38 28.75)"/>
        <path class="cls-12" d="M1083.49,234c-1.54-2.89-4-5.72-6-6.65" transform="translate(13.38 28.75)"/>
        <path class="cls-12" d="M1082.74,223.37c.19,5.72,7.83,6.09,8.16,10.14" transform="translate(13.38 28.75)"/>
        <path class="cls-12" d="M1096.77,224.25a11,11,0,0,1,1.16,5.3" transform="translate(13.38 28.75)"/>
      </g>
    </g>
  </g>
</svg>
