<svg id="svg585" xmlns="http://www.w3.org/2000/svg" xmlns:xlink="http://www.w3.org/1999/xlink" width="370.42mm" height="262.86mm" viewBox="0 0 1050 745.11">
  <defs>
    <style>
      .cls-1 {
        fill: none;
      }

      .cls-2 {
        clip-path: url(#clip-path);
      }

      .cls-3 {
        fill: #00843d;
      }

      .cls-4 {
        fill: #fff;
      }

      .cls-5 {
        fill: #d22630;
      }

      .cls-6 {
        fill: #383739;
      }

      .cls-7 {
        fill: #ffc72c;
      }
    </style>
    <clipPath id="clip-path" transform="translate(0 45.11)">
      <rect class="cls-1" y="1.04" width="1050" height="698.96"/>
    </clipPath>
  </defs>
  <g class="cls-2">
    <rect id="rect2" class="cls-3" y="46.15" width="1050" height="698.96"/>
    <g id="g14">
      <path id="crescent" class="cls-4" d="M521.29,78.56a87,87,0,1,1-90.76,146.17A87,87,0,0,0,521.29,78.56Z" transform="translate(0 45.11)"/>
      <path id="star" class="cls-4" d="M438.22,142.49l9.87-30.33L422.25,130.9h31.93l-25.83-18.74Z" transform="translate(0 45.11)"/>
      <g id="use6">
        <path class="cls-4" d="M438.22,97.75l9.87-30.32L422.25,86.17h31.93L428.35,67.43Z" transform="translate(0 45.11)"/>
      </g>
      <g id="use8">
        <path class="cls-4" d="M482.48,120.68l9.87-30.33-25.84,18.74h31.93L472.61,90.35Z" transform="translate(0 45.11)"/>
      </g>
      <g id="use10">
        <path class="cls-4" d="M394,164.3,403.83,134,378,152.71h31.94L384.09,134Z" transform="translate(0 45.11)"/>
      </g>
      <g id="use12">
        <path class="cls-4" d="M438.22,187.22l9.87-30.33-25.84,18.75h31.93l-25.83-18.75Z" transform="translate(0 45.11)"/>
      </g>
    </g>
    <rect id="rect16" class="cls-5" x="126" y="46.15" width="189" height="698.96"/>
    <g id="ornm">
      <path id="path18" class="cls-6" d="M126-45.11v6.85l10.63,9.93L133-25l7.6,7-3.33,3v-4.38h-6.49v5.25L145.46-.38h7.42l.8-4.81h-4.26l4.63-4.32L165.67,1,154.05,11.65l-4.63-4.31h4.26l-.8-4.88h-7.42l-14.64,13.7V21.4h6.49V17l3.33,3-7.6,7,3.59,3.39L126,40.35V47.2l18-16.73-3.58-3.39,7.53-7L141.45,14l4.32-3.95,8.28,7.65L172.22,1,154.05-15.62,145.77-7.9l-4.32-4,6.48-6-7.53-7L144-28.33,126-45.11Zm0,33.26V13.94l4.2-4.26v-5h4.45L138.23,1l-3.58-3.58H130.2V-7.6L126-11.85Zm30.65,9.13L156,.8l.62,3.57L160.48.8Z" transform="translate(0 45.11)"/>
      <path id="path20" class="cls-7" d="M126-44.37v5.43l11.37,10.61L133.78-25l7.6,7-4.57,4.26v-5.13h-5.5v4.57L145.71-.87h6.67l.68-3.83h-4.94l5.93-5.55L166.41,1,154.05,12.33l-5.93-5.49h4.94L152.38,3h-6.67l-14.4,13.39v4.57h5.5V15.79l4.57,4.26-7.6,7,3.59,3.39L126,41v5.43l17.24-16-3.59-3.39,7.54-7L140.7,14l5.07-4.69L154.05,17,171.41,1l-17.36-16-8.28,7.71-5.07-4.69,6.49-6-7.54-7,3.59-3.33L126-44.37Zm0,33.26V13.2l3.71-3.7V4.13h4.75L137.55,1,134.46-2h-4.75V-7.41Zm31,9.38L156.59.8,157,3.33,159.74.8Z" transform="translate(0 45.11)"/>
    </g>
    <g id="use23">
      <g>
        <path class="cls-6" d="M126,82.11V89l10.63,9.93L133,102.22l7.6,7-3.33,3V107.9h-6.49v5.24l14.64,13.7h7.42l.8-4.81h-4.26l4.63-4.32,11.62,10.55-11.62,10.61-4.63-4.32h4.26l-.8-4.87h-7.42l-14.64,13.7v5.24h6.49v-4.38l3.33,3-7.6,7,3.59,3.39L126,167.56v6.85l18-16.72-3.58-3.39,7.53-7-6.48-6,4.32-3.95,8.28,7.65,18.17-16.66L154.05,111.6l-8.28,7.71-4.32-4,6.48-6-7.53-7L144,98.89,126,82.11Zm0,33.25v25.8l4.2-4.26v-5h4.45l3.58-3.64-3.58-3.58H130.2v-5.06l-4.2-4.26Zm30.65,9.14L156,128l.62,3.58,3.83-3.58Z" transform="translate(0 45.11)"/>
        <path class="cls-7" d="M126,82.85v5.43l11.37,10.61-3.59,3.33,7.6,7-4.57,4.25v-5.12h-5.5V113l14.4,13.39h6.67l.68-3.83h-4.94l5.93-5.55,12.36,11.29-12.36,11.29-5.93-5.49h4.94l-.68-3.89h-6.67l-14.4,13.39v4.57h5.5V143l4.57,4.25-7.6,7,3.59,3.39L126,168.24v5.43l17.24-16-3.59-3.39,7.54-7-6.49-6,5.07-4.69,8.28,7.71,17.36-16-17.36-16L145.77,120l-5.07-4.69,6.49-6-7.54-7,3.59-3.33L126,82.85Zm0,33.25v24.32l3.71-3.71v-5.36h4.75l3.09-3.09-3.09-3.09h-4.75v-5.36Zm31,9.38-.43,2.53.43,2.53,2.72-2.53Z" transform="translate(0 45.11)"/>
      </g>
    </g>
    <g id="use25">
      <g>
        <path class="cls-6" d="M126,213.51v6.85l10.63,9.93L133,233.62l7.6,7-3.33,3V239.3h-6.49v5.24l14.64,13.7h7.42l.8-4.81h-4.26l4.63-4.32,11.62,10.55-11.62,10.61L149.42,266h4.26l-.8-4.88h-7.42l-14.64,13.7V280h6.49v-4.38l3.33,3-7.6,7,3.59,3.39L126,299v6.84l18-16.72-3.58-3.39,7.53-7-6.48-6.05,4.32-3.95,8.28,7.65,18.17-16.66L154.05,243l-8.28,7.72-4.32-4,6.48-6-7.53-7,3.58-3.33-18-16.78Zm0,33.26v25.79l4.2-4.26v-5h4.45l3.58-3.64-3.58-3.58H130.2V251l-4.2-4.25Zm30.65,9.13-.62,3.52.62,3.57,3.83-3.57Z" transform="translate(0 45.11)"/>
        <path class="cls-7" d="M126,214.25v5.43l11.37,10.61-3.59,3.33,7.6,7-4.57,4.26v-5.13h-5.5v4.57l14.4,13.39h6.67l.68-3.83h-4.94l5.93-5.55,12.36,11.29L154.05,271l-5.93-5.49h4.94l-.68-3.89h-6.67L131.31,275v4.57h5.5v-5.12l4.57,4.26-7.6,7,3.59,3.39L126,299.64v5.43l17.24-16-3.59-3.39,7.54-7-6.49-6.05,5.07-4.69,8.28,7.71,17.36-16-17.36-16-8.28,7.71-5.07-4.69,6.49-6-7.54-7,3.59-3.33-17.24-16Zm0,33.26v24.31l3.71-3.71v-5.36h4.75l3.09-3.09-3.09-3.08h-4.75v-5.37Zm31,9.38-.43,2.53.43,2.52,2.72-2.52Z" transform="translate(0 45.11)"/>
      </g>
    </g>
    <g id="use27">
      <g>
        <path class="cls-6" d="M126,344.91v6.85l10.63,9.93L133,365l7.6,7-3.33,3V370.7h-6.49v5.24l14.64,13.7h7.42l.8-4.81h-4.26l4.63-4.32,11.62,10.55-11.62,10.61-4.63-4.31h4.26l-.8-4.88h-7.42l-14.64,13.7v5.24h6.49V407l3.33,3-7.6,7,3.59,3.39L126,430.37v6.84l18-16.72-3.58-3.39,7.53-7L141.45,404l4.32-3.95,8.28,7.65,18.17-16.66L154.05,374.4l-8.28,7.72-4.32-4,6.48-6-7.53-7,3.58-3.33-18-16.78Zm0,33.26V404l4.2-4.26v-5h4.45l3.58-3.64-3.58-3.58H130.2v-5.06l-4.2-4.25Zm30.65,9.13-.62,3.51.62,3.58,3.83-3.58Z" transform="translate(0 45.11)"/>
        <path class="cls-7" d="M126,345.65v5.43l11.37,10.61L133.78,365l7.6,7-4.57,4.26v-5.13h-5.5v4.57l14.4,13.39h6.67l.68-3.83h-4.94l5.93-5.55,12.36,11.29-12.36,11.29-5.93-5.49h4.94l-.68-3.89h-6.67l-14.4,13.39v4.57h5.5v-5.12l4.57,4.26-7.6,7,3.59,3.39L126,431v5.43l17.24-16-3.59-3.39,7.54-7L140.7,404l5.07-4.69,8.28,7.71,17.36-16-17.36-16-8.28,7.71-5.07-4.69,6.49-6-7.54-7,3.59-3.33-17.24-16Zm0,33.26v24.31l3.71-3.71v-5.36h4.75l3.09-3.09L134.46,388h-4.75v-5.37Zm31,9.38-.43,2.52.43,2.53,2.72-2.53Z" transform="translate(0 45.11)"/>
      </g>
    </g>
    <g id="use29">
      <g>
        <path class="cls-6" d="M126,476.31v6.85l10.63,9.93L133,496.42l7.6,7-3.33,3V502.1h-6.49v5.24L145.46,521h7.42l.8-4.81h-4.26l4.63-4.32,11.62,10.55-11.62,10.61-4.63-4.31h4.26l-.8-4.88h-7.42l-14.64,13.7v5.24h6.49v-4.38l3.33,3-7.6,7,3.59,3.39L126,561.77v6.84l18-16.72-3.58-3.39,7.53-7-6.48-6.05,4.32-3.95,8.28,7.65,18.17-16.66L154.05,505.8l-8.28,7.72-4.32-4,6.48-6-7.53-7,3.58-3.33-18-16.78Zm0,33.26v25.79l4.2-4.26v-5h4.45l3.58-3.64-3.58-3.58H130.2v-5.06l-4.2-4.25Zm30.65,9.13-.62,3.51.62,3.58,3.83-3.58Z" transform="translate(0 45.11)"/>
        <path class="cls-7" d="M126,477.05v5.43l11.37,10.61-3.59,3.33,7.6,7-4.57,4.25v-5.12h-5.5v4.57l14.4,13.39h6.67l.68-3.83h-4.94l5.93-5.55,12.36,11.29-12.36,11.29-5.93-5.49h4.94l-.68-3.89h-6.67l-14.4,13.39v4.57h5.5v-5.12l4.57,4.26-7.6,7,3.59,3.39L126,562.44v5.43l17.24-16-3.59-3.39,7.54-7-6.49-6.05,5.07-4.69,8.28,7.71,17.36-16-17.36-16-8.28,7.71-5.07-4.69,6.49-6-7.54-7,3.59-3.33-17.24-16Zm0,33.26v24.31l3.71-3.71v-5.36h4.75l3.09-3.09-3.09-3.08h-4.75V514Zm31,9.38-.43,2.52.43,2.53,2.72-2.53Z" transform="translate(0 45.11)"/>
      </g>
    </g>
    <g id="use32">
      <g id="g1693">
        <path id="path1689" class="cls-6" d="M315-45.11v6.85l-10.63,9.93L308-25l-7.6,7,3.34,3v-4.38h6.49v5.25L295.53-.38h-7.41l-.81-4.81h4.27l-4.64-4.32L275.33,1l11.61,10.61,4.64-4.31h-4.27l.81-4.88h7.41l14.65,13.7V21.4h-6.49V17l-3.34,3,7.6,7-3.58,3.39L315,40.35V47.2L297,30.47l3.58-3.39-7.54-7L299.55,14l-4.33-3.95-8.28,7.65L268.78,1l18.16-16.66,8.28,7.72,4.33-4-6.49-6,7.54-7L297-28.33l18-16.78Zm0,33.26V13.94l-4.2-4.26v-5h-4.45L302.76,1l3.59-3.58h4.45V-7.6l4.2-4.25ZM284.35-2.72,285,.8l-.62,3.57L280.52.8Z" transform="translate(0 45.11)"/>
        <path id="path1691" class="cls-7" d="M315-44.37v5.43L303.63-28.33,307.21-25l-7.6,7,4.57,4.26v-5.13h5.5v4.57L295.28-.87h-6.67l-.68-3.83h4.95l-5.94-5.55L274.58,1l12.36,11.29,5.94-5.49h-4.95L288.61,3h6.68l14.39,13.39v4.57h-5.5V15.79l-4.57,4.26,7.6,7-3.58,3.39L315,41v5.43l-17.24-16,3.58-3.39-7.54-7L300.29,14l-5.07-4.69L286.94,17,269.58,1l17.36-16,8.28,7.71,5.07-4.69-6.49-6,7.54-7-3.58-3.33,17.24-16Zm0,33.26V13.2l-3.71-3.7V4.13h-4.76L303.44,1,306.53-2h4.76V-7.41ZM284-1.73,284.41.8,284,3.33,281.26.8Z" transform="translate(0 45.11)"/>
      </g>
      <g id="use1695">
        <g>
          <path class="cls-6" d="M315,82.11V89l-10.63,9.93,3.58,3.33-7.6,7,3.34,3V107.9h6.49v5.24l-14.65,13.7h-7.41l-.81-4.81h4.27l-4.64-4.32-11.61,10.55,11.61,10.61,4.64-4.32h-4.27l.81-4.87h7.41l14.65,13.7v5.24h-6.49v-4.38l-3.34,3,7.6,7-3.58,3.39L315,167.56v6.85l-18-16.72,3.58-3.39-7.54-7,6.49-6-4.33-3.95-8.28,7.65-18.16-16.66,18.16-16.66,8.28,7.71,4.33-4-6.49-6,7.54-7L297,98.89l18-16.78Zm0,33.25v25.8l-4.2-4.26v-5h-4.45l-3.59-3.64,3.59-3.58h4.45v-5.06l4.2-4.26Zm-30.65,9.14L285,128l-.62,3.58L280.52,128Z" transform="translate(0 45.11)"/>
          <path class="cls-7" d="M315,82.85v5.43L303.63,98.89l3.58,3.33-7.6,7,4.57,4.25v-5.12h5.5V113l-14.4,13.39h-6.67l-.68-3.83h4.95L286.94,117l-12.36,11.29,12.36,11.29,5.94-5.49h-4.95l.68-3.89h6.68l14.39,13.39v4.57h-5.5V143l-4.57,4.25,7.6,7-3.58,3.39L315,168.24v5.43l-17.24-16,3.58-3.39-7.54-7,6.49-6-5.07-4.69-8.28,7.71-17.36-16,17.36-16,8.28,7.71,5.07-4.69-6.49-6,7.54-7-3.58-3.33,17.24-16Zm0,33.25v24.32l-3.71-3.71v-5.36h-4.76l-3.09-3.09,3.09-3.09h4.76v-5.36Zm-31,9.38.43,2.53-.43,2.53L281.26,128Z" transform="translate(0 45.11)"/>
        </g>
      </g>
      <g id="use1697">
        <g>
          <path class="cls-6" d="M315,213.51v6.85l-10.63,9.93,3.58,3.33-7.6,7,3.34,3V239.3h6.49v5.24l-14.65,13.7h-7.41l-.81-4.81h4.27l-4.64-4.32-11.61,10.55,11.61,10.61,4.64-4.31h-4.27l.81-4.88h7.41l14.65,13.7V280h-6.49v-4.38l-3.34,3,7.6,7-3.58,3.39L315,299v6.84l-18-16.72,3.58-3.39-7.54-7,6.49-6.05-4.33-3.95-8.28,7.65-18.16-16.66L286.94,243l8.28,7.72,4.33-4-6.49-6,7.54-7L297,230.29l18-16.78Zm0,33.26v25.79l-4.2-4.26v-5h-4.45l-3.59-3.64,3.59-3.58h4.45V251l4.2-4.25Zm-30.65,9.13.62,3.52-.62,3.57-3.83-3.57Z" transform="translate(0 45.11)"/>
          <path class="cls-7" d="M315,214.25v5.43l-11.37,10.61,3.58,3.33-7.6,7,4.57,4.26v-5.13h5.5v4.57l-14.4,13.39h-6.67l-.68-3.83h4.95l-5.94-5.55-12.36,11.29L286.94,271l5.94-5.49h-4.95l.68-3.89h6.68L309.68,275v4.57h-5.5v-5.12l-4.57,4.26,7.6,7-3.58,3.39L315,299.64v5.43l-17.24-16,3.58-3.39-7.54-7,6.49-6.05-5.07-4.69-8.28,7.71-17.36-16,17.36-16,8.28,7.71,5.07-4.69-6.49-6,7.54-7-3.58-3.33,17.24-16Zm0,33.26v24.31l-3.71-3.71v-5.36h-4.76l-3.09-3.09,3.09-3.08h4.76v-5.37Zm-31,9.38.43,2.53-.43,2.52-2.72-2.52Z" transform="translate(0 45.11)"/>
        </g>
      </g>
      <g id="use1699">
        <g>
          <path class="cls-6" d="M315,344.91v6.85l-10.63,9.93L308,365l-7.6,7,3.34,3V370.7h6.49v5.24l-14.65,13.7h-7.41l-.81-4.81h4.27l-4.64-4.32-11.61,10.55,11.61,10.61,4.64-4.31h-4.27l.81-4.88h7.41l14.65,13.7v5.24h-6.49V407l-3.34,3,7.6,7-3.58,3.39L315,430.37v6.84l-18-16.72,3.58-3.39-7.54-7,6.49-6.05-4.33-3.95-8.28,7.65-18.16-16.66,18.16-16.66,8.28,7.72,4.33-4-6.49-6,7.54-7L297,361.69l18-16.78Zm0,33.26V404l-4.2-4.26v-5h-4.45l-3.59-3.64,3.59-3.58h4.45v-5.06l4.2-4.25Zm-30.65,9.13.62,3.51-.62,3.58-3.83-3.58Z" transform="translate(0 45.11)"/>
          <path class="cls-7" d="M315,345.65v5.43l-11.37,10.61,3.58,3.33-7.6,7,4.57,4.26v-5.13h5.5v4.57l-14.4,13.39h-6.67l-.68-3.83h4.95l-5.94-5.55-12.36,11.29,12.36,11.29,5.94-5.49h-4.95l.68-3.89h6.68l14.39,13.39v4.57h-5.5v-5.12l-4.57,4.26,7.6,7-3.58,3.39L315,431v5.43l-17.24-16,3.58-3.39-7.54-7,6.49-6.05-5.07-4.69L286.94,407l-17.36-16,17.36-16,8.28,7.71,5.07-4.69-6.49-6,7.54-7-3.58-3.33,17.24-16Zm0,33.26v24.31l-3.71-3.71v-5.36h-4.76l-3.09-3.09,3.09-3.08h4.76v-5.37Zm-31,9.38.43,2.52-.43,2.53-2.72-2.53Z" transform="translate(0 45.11)"/>
        </g>
      </g>
      <g id="use1701">
        <g>
          <path class="cls-6" d="M315,476.31v6.85l-10.63,9.93,3.58,3.33-7.6,7,3.34,3V502.1h6.49v5.24L295.53,521h-7.41l-.81-4.81h4.27l-4.64-4.32-11.61,10.55,11.61,10.61,4.64-4.31h-4.27l.81-4.88h7.41l14.65,13.7v5.24h-6.49v-4.38l-3.34,3,7.6,7-3.58,3.39L315,561.77v6.84l-18-16.72,3.58-3.39-7.54-7,6.49-6.05-4.33-3.95-8.28,7.65-18.16-16.66,18.16-16.66,8.28,7.72,4.33-4-6.49-6,7.54-7L297,493.09l18-16.78Zm0,33.26v25.79l-4.2-4.26v-5h-4.45l-3.59-3.64,3.59-3.58h4.45v-5.06l4.2-4.25Zm-30.65,9.13.62,3.51-.62,3.58-3.83-3.58Z" transform="translate(0 45.11)"/>
          <path class="cls-7" d="M315,477.05v5.43l-11.37,10.61,3.58,3.33-7.6,7,4.57,4.25v-5.12h5.5v4.57l-14.4,13.39h-6.67l-.68-3.83h4.95l-5.94-5.55-12.36,11.29,12.36,11.29,5.94-5.49h-4.95l.68-3.89h6.68l14.39,13.39v4.57h-5.5v-5.12l-4.57,4.26,7.6,7-3.58,3.39L315,562.44v5.43l-17.24-16,3.58-3.39-7.54-7,6.49-6.05-5.07-4.69-8.28,7.71-17.36-16,17.36-16,8.28,7.71,5.07-4.69-6.49-6,7.54-7-3.58-3.33,17.24-16Zm0,33.26v24.31l-3.71-3.71v-5.36h-4.76l-3.09-3.09,3.09-3.08h4.76V514Zm-31,9.38.43,2.52-.43,2.53-2.72-2.53Z" transform="translate(0 45.11)"/>
        </g>
      </g>
    </g>
    <path id="branch" class="cls-7" d="M141.33,619.41c.93,4,4.09,7,4.85,11.09,1.5-4.3,2.89-7.89,1.86-12.59-.75-3.36-3.58-5.75-3.9-9.21-3.09,2.77-3.75,6.7-2.81,10.71ZM140.55,636a26,26,0,0,0,10.27,8.17c-.79-3.14.69-5.5,2.34-8,2-3,3-6,1.33-9.4a21.14,21.14,0,0,1-3,4.82,14.11,14.11,0,0,0-3.19,7.59c-2-1.5-2.92-3.75-4-5.92a18.73,18.73,0,0,0-7.4-7.42c.81,3.49,1.44,7.19,3.61,10.15Zm14.67,10.68a18.55,18.55,0,0,0-.93,6,41.88,41.88,0,0,0-6.07-4.76c-2.79-2.25-6.05-3.84-8.33-6.71a13.56,13.56,0,0,0,5.59,10.24c3.63,2.71,8,4.17,11.59,7-.54-3.84.87-6.92,2.08-10.44a9.78,9.78,0,0,0-2.26-9.37c0,2.85-.86,5.29-1.67,8Zm8.15,13c.76,2.91,2.85,5.28,4.27,7.88-3.85-1.19-7.24-3.27-10.72-5.24-4.14-2.25-8.64-3.68-12.4-6.66,1.87,6.9,6.5,10.9,13.27,12.94,4.63,1.4,8.53.7,14.14,3a39.1,39.1,0,0,0-3.57-11.32,40.65,40.65,0,0,1-3.81-7.64,9.21,9.21,0,0,0-1.18,7.07Zm14.16,10.56a17.71,17.71,0,0,0,5.25,5.68c-5.47.35-9.86-3.11-15.19-3.26-3.29-.09-6.41.93-9.77.62,4,2.68,8.15,5,13,5.65,6.3.82,12.11-.77,19.07-.15-3.25-2.29-4.88-5.35-6.9-8.65-2.64-4.11-5.13-7-10.26-7.7,2.06,2.31,3.26,5.17,4.8,7.81Zm19.41,9.06c-9.63,1.63-18.85,3.74-28.68,3.84,11,3.83,21.37,4.52,32.28.57,5.9-2.14,10.42-3.28,14.88-3,6.51.46,14.42,3,23.17,12.25l3.44-2.75c-12.55-11.17-29-13.69-45.09-11Z" transform="translate(0 45.11)"/>
    <path id="path37" class="cls-6" d="M149.64,83,134.5,73.71V51.42l15.14-9.27V30.35L164,21.74h11.44L197.14,9.53h46.71l21.76,12.21H277l14.31,8.61v11.8l15.14,9.27V73.71L291.35,83v11.8L277,103.38H265.61L243.85,115.6H197.14l-21.75-12.22H164l-14.31-8.6Z" transform="translate(0 45.11)"/>
    <path id="path39" class="cls-3" d="M197.25,10.05,175.49,22.27H164.12l-14,8.39V42.44L135,51.7V73.42l15.14,9.25V94.52l13.9,8.39h11.43l21.76,12.22h46.46l21.76-12.22H276.9l14-8.39V82.67L306,73.42V51.7l-15.14-9.26V30.66l-14-8.39H265.47L243.71,10.05Zm1.29,4.5h43.94l21.75,12.22H275.6l10.57,6.36V44.91l15.2,9.26V71l-15.2,9.26V92L275.6,98.35H264.23l-21.75,12.21H198.54L176.79,98.35H165.42L154.79,92V80.21L139.65,71V54.17l15.14-9.26V33.13l10.63-6.36h11.37Z" transform="translate(0 45.11)"/>
    <path id="path41" class="cls-7" d="M220.25,62.81V15H198.66L176.9,27.26H165.56L155.3,33.43V45.2l-15.15,9.27v7.84h80.6v47.78h21.59l21.75-12.22h11.35L285.7,91.7V79.93l15.14-9.27V62.81Z" transform="translate(0 45.11)"/>
    <path id="path43" class="cls-4" d="M140.15,62.81v7.85l15.15,9.27V91.7l10.26,6.17H176.9l21.75,12.22h21.6V62.31h80.59V54.47L285.7,45.2V33.43l-10.26-6.17H264.09L242.34,15H220.75V62.81Z" transform="translate(0 45.11)"/>
    <g id="carp1h">
      <g id="carp1q">
        <path id="path45" class="cls-6" d="M173.19,31.66l-3.73-3.47-3.69,2.27,3.73,3.48-4.79,3h10.46l9,8.5,2.88-3L178.3,34.1V28.49Z" transform="translate(0 45.11)"/>
        <path id="path47" class="cls-6" d="M190.83,30.13l-3.72-3.47-3.7,2.28,3.74,3.47-4.8,3h10.47l9,8.49,2.89-3L196,32.57V27Z" transform="translate(0 45.11)"/>
        <path id="path49" class="cls-6" d="M171.9,41.62l-3.73-3.47-3.7,2.28,3.74,3.47-4.8,3h10.47l9,8.49,2.89-3L177,44.06v-5.6Z" transform="translate(0 45.11)"/>
        <path id="path51" class="cls-6" d="M220.5,14.54h-9.45l-4.94,4.76h-9.63L189.37,23,191,27l6.34-3.33h2.78l9.73,11.24,10.62-6.45Z" transform="translate(0 45.11)"/>
        <path id="path53" class="cls-5" d="M169.4,28.81l3.35,3.12-2.81,1.74-3.35-3.13Zm8.4.58v4.92l8.57,8.07-2.2,2.31-8.8-8.28h-8.91l11.34-7Z" transform="translate(0 45.11)"/>
        <path id="path55" class="cls-5" d="M187,27.29l3.35,3.12-2.8,1.73L184.23,29Zm8.41.57v4.93L204,40.85l-2.2,2.32L193,34.88h-8.9l11.34-7Z" transform="translate(0 45.11)"/>
        <path id="path57" class="cls-5" d="M168.11,38.78l3.35,3.12-2.81,1.73-3.36-3.12Zm8.4.57v4.93l8.56,8.06-2.2,2.32-8.79-8.29h-8.91l11.34-7Z" transform="translate(0 45.11)"/>
        <path id="path59" class="cls-5" d="M220.25,15h-9l-4.94,4.76H196.6L190,23.22l1.28,3.11,6-3.13h3.13L210,34.29l10.27-6.24Z" transform="translate(0 45.11)"/>
      </g>
      <g id="use62">
        <g>
          <path class="cls-6" d="M173.19,93.47l-3.73,3.47-3.69-2.27,3.73-3.48-4.79-3h10.46l9-8.49,2.88,3L178.3,91v5.6Z" transform="translate(0 45.11)"/>
          <path class="cls-6" d="M190.83,95l-3.72,3.47-3.7-2.27,3.74-3.48-4.8-3h10.47l9-8.5,2.89,3L196,92.55v5.61Z" transform="translate(0 45.11)"/>
          <path class="cls-6" d="M171.9,83.5,168.17,87l-3.7-2.27,3.74-3.48-4.8-3h10.47l9-8.5,2.89,3L177,81.06v5.61Z" transform="translate(0 45.11)"/>
          <path class="cls-6" d="M220.5,110.58h-9.45l-4.94-4.75h-9.63l-7.11-3.69,1.66-4,6.34,3.33h2.78l9.73-11.24,10.62,6.46Z" transform="translate(0 45.11)"/>
          <path class="cls-5" d="M169.4,96.32l3.35-3.12-2.81-1.74-3.35,3.12Zm8.4-.58V90.81l8.57-8.06-2.2-2.32-8.8,8.29h-8.91l11.34,7Z" transform="translate(0 45.11)"/>
          <path class="cls-5" d="M187,97.84l3.35-3.12L187.59,93l-3.36,3.12Zm8.41-.58V92.34L204,84.28,201.81,82,193,90.25h-8.9l11.34,7Z" transform="translate(0 45.11)"/>
          <path class="cls-5" d="M168.11,86.35l3.35-3.12-2.81-1.74-3.36,3.13Zm8.4-.58V80.85l8.56-8.06-2.2-2.32-8.79,8.28h-8.91l11.34,7Z" transform="translate(0 45.11)"/>
          <path class="cls-5" d="M220.25,110.09h-9l-4.94-4.76H196.6l-6.6-3.42,1.28-3.11,6,3.13h3.13L210,90.84l10.27,6.24Z" transform="translate(0 45.11)"/>
        </g>
      </g>
      <path id="path64" class="cls-6" d="M166.9,47.3l-4.51-1.68-.1.08-5.82,4v1.08l-9.31,11.75,9.31,11.76V75.4l5.92,4.1,4.51-1.68L164.15,76V72.55l1.09-1.3h4.88V53.88h-4.88l-1.09-1.3V49.12Z" transform="translate(0 45.11)"/>
      <path id="path66" class="cls-5" d="M157,50l5.49-3.81,3.34,1.25-2.15,1.42v3.91L165,54.38h4.61V70.75H165l-1.36,1.62v3.91l2.15,1.42L162.46,79,157,75.14v-1L147.8,62.56,157,51Z" transform="translate(0 45.11)"/>
    </g>
    <g id="use69">
      <g>
        <g>
          <path class="cls-6" d="M267.8,31.66l3.73-3.47,3.69,2.27-3.73,3.48,4.8,3H265.82l-9,8.5-2.88-3,8.77-8.26V28.49Z" transform="translate(0 45.11)"/>
          <path class="cls-6" d="M250.16,30.13l3.73-3.47,3.69,2.28-3.74,3.47,4.8,3H248.18l-9,8.49-2.89-3L245,32.57V27Z" transform="translate(0 45.11)"/>
          <path class="cls-6" d="M269.1,41.62l3.72-3.47,3.7,2.28-3.74,3.47,4.8,3H267.12l-9,8.49-2.89-3L264,44.06v-5.6Z" transform="translate(0 45.11)"/>
          <path class="cls-6" d="M220.5,14.54h9.44l4.94,4.76h9.63L251.63,23,250,27l-6.35-3.33h-2.78l-9.73,11.24L220.5,28.48Z" transform="translate(0 45.11)"/>
          <path class="cls-5" d="M271.59,28.81l-3.35,3.12,2.81,1.74,3.36-3.13Zm-8.4.58v4.92l-8.56,8.07,2.19,2.31,8.8-8.28h8.91l-11.34-7Z" transform="translate(0 45.11)"/>
          <path class="cls-5" d="M254,27.29l-3.35,3.12,2.8,1.73L256.76,29Zm-8.41.57v4.93L237,40.85l2.2,2.32,8.8-8.29h8.91l-11.35-7Z" transform="translate(0 45.11)"/>
          <path class="cls-5" d="M272.89,38.78l-3.35,3.12,2.8,1.73,3.36-3.12Zm-8.41.57v4.93l-8.56,8.06,2.2,2.32,8.8-8.29h8.9l-11.34-7Z" transform="translate(0 45.11)"/>
          <path class="cls-5" d="M220.75,15h9l4.94,4.76h9.71l6.6,3.42-1.28,3.11-6-3.13h-3.13L231,34.29l-10.26-6.24Z" transform="translate(0 45.11)"/>
        </g>
        <g>
          <path class="cls-6" d="M267.8,93.47l3.73,3.47,3.69-2.27-3.73-3.48,4.8-3H265.82l-9-8.49-2.88,3L262.69,91v5.6Z" transform="translate(0 45.11)"/>
          <path class="cls-6" d="M250.16,95l3.73,3.47,3.69-2.27-3.74-3.48,4.8-3H248.18l-9-8.5-2.89,3L245,92.55v5.61Z" transform="translate(0 45.11)"/>
          <path class="cls-6" d="M269.1,83.5,272.82,87l3.7-2.27-3.74-3.48,4.8-3H267.12l-9-8.5-2.89,3L264,81.06v5.61Z" transform="translate(0 45.11)"/>
          <path class="cls-6" d="M220.5,110.58h9.44l4.94-4.75h9.63l7.12-3.69-1.66-4-6.35,3.33h-2.78l-9.73-11.24L220.5,96.65Z" transform="translate(0 45.11)"/>
          <path class="cls-5" d="M271.59,96.32l-3.35-3.12,2.81-1.74,3.36,3.12Zm-8.4-.58V90.81l-8.56-8.06,2.19-2.32,8.8,8.29h8.91l-11.34,7Z" transform="translate(0 45.11)"/>
          <path class="cls-5" d="M254,97.84l-3.35-3.12L253.4,93l3.36,3.12Zm-8.41-.58V92.34L237,84.28l2.2-2.32,8.8,8.29h8.91l-11.35,7Z" transform="translate(0 45.11)"/>
          <path class="cls-5" d="M272.89,86.35l-3.35-3.12,2.8-1.74,3.36,3.13Zm-8.41-.58V80.85l-8.56-8.06,2.2-2.32,8.8,8.28h8.9l-11.34,7Z" transform="translate(0 45.11)"/>
          <path class="cls-5" d="M220.75,110.09h9l4.94-4.76h9.71l6.6-3.42-1.28-3.11-6,3.13h-3.13L231,90.84l-10.26,6.24Z" transform="translate(0 45.11)"/>
        </g>
        <path class="cls-6" d="M274.1,47.3l4.5-1.68.11.08,5.81,4v1.08l9.31,11.75-9.31,11.76V75.4l-5.92,4.1-4.5-1.68L276.84,76V72.55l-1.09-1.3h-4.88V53.88h4.88l1.09-1.3V49.12Z" transform="translate(0 45.11)"/>
        <path class="cls-5" d="M284,50l-5.49-3.81-3.34,1.25,2.15,1.42v3.91L276,54.38h-4.62V70.75H276l1.35,1.62v3.91l-2.15,1.42L278.53,79,284,75.14v-1l9.17-11.59L284,51Z" transform="translate(0 45.11)"/>
      </g>
    </g>
    <path id="path71" class="cls-6" d="M158.9,72.43l-2.53-2.19v-1l-5.44-6.63,5.44-6.62v-1l2.53-2.19,4.56,3.69-2.63,0,3.88,3.94h8.87l7-5.45V40.49H198l20.27-12.42V24.81l-3.1-2.06h-1L210.82,25l-.52,1.68-2.64-3.6,5.13-4.3h.82l5.79-4.25h2.19l5.79,4.25h.82l5.13,4.3-2.64,3.6L230.17,25l-3.38-2.26h-1l-3.1,2.06v3.26L243,40.49h17.45V54.86l7,5.45h8.87l3.88-3.94-2.63,0,4.56-3.69,2.53,2.19v1l5.44,6.62-5.44,6.63v1l-2.53,2.19-4.56-3.7,2.63,0-3.88-3.94h-8.87l-7,5.45V84.64H243L222.71,97.06v3.25l3.1,2.07h1l3.38-2.26.52-1.68,2.64,3.6-5.13,4.3h-.82l-5.79,4.24H219.4l-5.79-4.24h-.82l-5.13-4.3,2.64-3.6.52,1.68,3.38,2.26h1l3.1-2.07V97.06L198,84.64H180.56V70.27l-7-5.45h-8.87l-3.88,3.94,2.63,0Z" transform="translate(0 45.11)"/>
    <path id="path73" class="cls-7" d="M220.75,102.76l2.21,1.7-2.21,1.69v-3.39Zm-7.06,3.08h.09l5.79,4.25h.67v-3.31l-3-2.32,3-2.32V95.92L198.56,82.63h-16V69.28l-8.28-6.47H161.76l-3.14,3.55-3.13-3.55h-3.71l5.09,6.2v1l2,1.75,3.24-2.52-1.9,0v-.63l4.23-4.31h9.31l7.3,5.71V84.14h17.09l20.63,12.64v3.8l-3.45,2.29h-1.28l-3.65-2.43-.28-.91L208.34,102l4.63,3.88ZM158.63,59.53l2.47,2.78h-4.94ZM220.25,19,218,20.67l2.22,1.69Zm59.64,43.83,2.47,2.79,2.48-2.79ZM227.21,19.28,221.42,15h-.67v3.31l3,2.32-3,2.32v6.22L242.43,42.5h16V55.85l8.27,6.46h12.49l3.13-3.54,3.14,3.54h3.71l-5.09-6.19v-1l-2-1.74-3.24,2.51h1.9v.63l-4.23,4.31h-9.31l-7.3-5.71V41H242.84L222.21,28.35v-3.8l3.45-2.3h1.28l3.65,2.44.28.91,1.78-2.43L228,19.28Z" transform="translate(0 45.11)"/>
    <path id="path75" class="cls-4" d="M220.25,106.15,218,104.46l2.22-1.7ZM161.1,62.81l-2.47,2.79-2.47-2.79Zm66.2,43h-.09l-5.79,4.25h-.67v-3.31l3-2.32-3-2.32V95.92l21.68-13.29h16V69.28l8.27-6.47h12.49l3.13,3.55,3.14-3.55h3.71L284.12,69v1l-2,1.75-3.24-2.52,1.9,0v-.63l-4.23-4.31h-9.31L259.93,70V84.14H242.84L222.21,96.78v3.8l3.45,2.29h1.28l3.65-2.43.28-.91,1.78,2.43L228,105.84Zm55.06-46.31-2.47,2.78h4.95ZM213.78,19.28,219.57,15h.68v3.31l-3,2.32,3,2.32v6.22L198.56,42.5h-16V55.85l-8.28,6.46H161.76l-3.14-3.54-3.13,3.54h-3.71l5.09-6.19v-1l2-1.74,3.24,2.51h-1.9v.63l4.23,4.31h9.31l7.3-5.71V41h17.1l20.62-12.64v-3.8l-3.45-2.3h-1.28l-3.65,2.44-.28.91-1.78-2.43L213,19.28Zm7,3.08L223,20.67,220.75,19Z" transform="translate(0 45.11)"/>
    <path id="path77" class="cls-3" d="M220.25,62.81v-33L198.7,43H183V56.09l-8,6.22h45.69v33l21.54-13.2H258V69l8-6.22Z" transform="translate(0 45.11)"/>
    <path id="path79" class="cls-5" d="M175.06,62.81,183,69v13.1H198.7l21.55,13.2v-33h45.68l-8-6.22V43H242.29L220.75,29.79v33Z" transform="translate(0 45.11)"/>
    <path id="path81" class="cls-6" d="M197.3,46.55l-3.72-3.47-3.7,2.27,3.74,3.48-4.8,3h10.47l9,8.49,2.89-3L202.42,49V43.38Z" transform="translate(0 45.11)"/>
    <path id="path83" class="cls-6" d="M243.68,78.58l3.73,3.47,3.7-2.28-3.74-3.47,4.8-3H241.7l-9-8.49-2.89,3,8.77,8.26v5.6Z" transform="translate(0 45.11)"/>
    <path id="path85" class="cls-6" d="M197.3,78.58l-3.72,3.47-3.7-2.28,3.74-3.47-4.8-3h10.47l9-8.49,2.89,3-8.77,8.26v5.6Z" transform="translate(0 45.11)"/>
    <path id="path87" class="cls-6" d="M243.68,46.55l3.73-3.47,3.7,2.27-3.74,3.48,4.8,3H241.7l-9,8.49-2.89-3L238.57,49V43.38Z" transform="translate(0 45.11)"/>
    <path id="path89" class="cls-5" d="M247.48,81.42l-3.35-3.11,2.8-1.74,3.36,3.12Zm-8.41-.57V75.92l-8.56-8.06,2.2-2.32,8.8,8.29h8.9l-11.34,7ZM193.52,43.7l3.35,3.12-2.81,1.74-3.36-3.13Zm8.4.58V49.2l8.56,8.07-2.2,2.31-8.79-8.28h-8.91l11.34-7Z" transform="translate(0 45.11)"/>
    <path id="path91" class="cls-3" d="M247.48,43.7l-3.35,3.12,2.8,1.74,3.36-3.13Zm-8.41.58V49.2l-8.56,8.07,2.2,2.31,8.8-8.28h8.9l-11.34-7ZM193.52,81.42l3.34-3.11-2.8-1.74-3.36,3.12Zm8.4-.57V75.92l8.56-8.06-2.2-2.32-8.79,8.29h-8.91l11.34,7Z" transform="translate(0 45.11)"/>
    <path id="path93" class="cls-6" d="M243.66,62.56,220.5,78,197.33,62.56,220.5,47.15Z" transform="translate(0 45.11)"/>
    <path id="path95" class="cls-4" d="M220.25,47.91,198.6,62.31h43.79l-21.64-14.4V77.22l21.64-14.41H198.6l21.65,14.41Z" transform="translate(0 45.11)"/>
    <path id="path97" class="cls-6" d="M226.69,67.87v4.24H214.3V67.87h-8V57.26h8V53h12.39v4.24h8V67.87Z" transform="translate(0 45.11)"/>
    <path id="path99" class="cls-5" d="M214.8,53.52v4.24h-8v4.55h13.47V53.52Zm5.95,8.79h13.46V57.76h-8V53.52h-5.44v8.79Zm-14,.5v4.56h8v4.24h5.45v-8.8Zm14,8.8h5.44V67.37h8V62.81H220.75v8.8Z" transform="translate(0 45.11)"/>
    <path id="path102" class="cls-6" d="M260,238.23v-6.79h18.66v-6.79h18.65V163.28H278.68v-6.79H260V149.7H241.37v-6.8H199.62v6.8H181v6.79H162.32v6.79H143.66v61.37h18.66v6.79H181v6.79h18.65V245h41.75v-6.79Z" transform="translate(0 45.11)"/>
    <path id="path104" class="cls-7" d="M200.15,143.39v6.79H181.49V157H162.83v6.79H144.16v60.41h18.67v6.78h18.66v6.79h18.66v6.79h40.72v-6.79h18.66v-6.79H278.2v-6.78h18.66V163.75H278.2V157H259.53v-6.78H240.87v-6.79Zm4.94,4.93h30.84v6.79h18.66v6.79h18.66v6.79h18.66v50.53H273.25V226H254.59v6.78H235.93v6.79H205.09v-6.79H186.43V226H167.77v-6.79H149.11V168.69h18.66V161.9h18.66v-6.79h18.66Z" transform="translate(0 45.11)"/>
    <path id="path106" class="cls-5" d="M186.91,232.3v-6.79H168.26v-6.79H149.6V169.21h18.66v-6.79h18.65v-6.79h18.65v-6.8h29.87v6.8h18.65v6.79h18.66v6.79h18.65v49.51H272.74v6.79H254.08v6.79H235.43v6.79H205.56V232.3Z" transform="translate(0 45.11)"/>
    <path id="path108" class="cls-6" d="M191.24,160.65,186.41,157v7l-4.63,2.93v-4.38l-4.44,4-4.43-4,0,4.38-5.12-3.25v6.49l-4.15,3v-4l-4.92,3.56-4.92-3.56v4l-4.65-3.36v19.67h-5.44v8.95h5.44v19.67l4.65-3.36v4l4.92-3.56,4.92,3.56v-4l4.15,3v6.5l5.12-3.26,0,4.39,4.43-4,4.44,4V221l4.63,2.94v7l4.83-3.65v4.9l4.74-4.23,4.73,4.23v-4.9l4.33,3.27V238l6.48-5.89V239l9-5.75,8.95,5.75v-6.92l6.48,5.89v-7.47l4.33-3.27v4.9l4.74-4.23,4.73,4.23v-4.9l4.83,3.65v-7l4.63-2.94v4.39l4.44-4,4.44,4V221l5.13,3.26v-6.5l4.14-3v4l4.92-3.56,4.93,3.56v-4l4.64,3.36V198.44h5.44v-8.95h-5.44V169.82l-4.64,3.36v-4l-4.93,3.56-4.92-3.56v4l-4.14-3v-6.49l-5.13,3.25v-4.38l-4.44,4-4.44-4v4.38L254.58,164v-7l-4.83,3.64v-4.89L245,160l-4.74-4.23v4.89l-4.33-3.27v-7.46l-6.47,5.89v-6.93l-9,5.75-9-5.75v6.93l-6.48-5.89v7.46l-4.33,3.27v-4.89L196,160l-4.74-4.23Z" transform="translate(0 45.11)"/>
    <g id="g118">
      <path id="path110" class="cls-3" d="M154.24,174.16l0-4,4.42,3.2.15-.1,4.28-3.1v4l4.64-3.36v46.33l-4.64-3.36v4l-4.43-3.2-4.42,3.2,0-4-4.64,3.36V197.94h-5.44V190h5.44V170.8Z" transform="translate(0 45.11)"/>
      <path id="path112" class="cls-3" d="M191.75,156.88l4.24,3.78,4.23-3.78v4.78l4.83-3.65v71.91l-4.83-3.65v4.78L196,227.27l-4.24,3.78v-4.78l-4.83,3.65V158l4.83,3.65Z" transform="translate(0 45.11)"/>
      <path id="path114" class="cls-3" d="M249.25,156.88,245,160.66l-4.24-3.78v4.78L235.93,158v71.91l4.83-3.65v4.78l4.24-3.78,4.24,3.78v-4.78l4.83,3.65V158l-4.83,3.65Z" transform="translate(0 45.11)"/>
      <path id="path116" class="cls-3" d="M286.75,174.16v-4l-4.43,3.2-.15-.1-4.27-3.1v4l-4.64-3.36v46.33l4.64-3.36v4l4.42-3.2,4.43,3.2v-4l4.64,3.36V197.94h5.44V190h-5.44V170.8Z" transform="translate(0 45.11)"/>
    </g>
    <g id="g126">
      <path id="path120" class="cls-7" d="M173.39,163.68l3.94,3.53,3.94-3.53,0,4.17,5.12-3.25v58.73l-5.12-3.25,0,4.17-3.94-3.53-3.94,3.53v-4.17l-5.12,3.25V164.6l5.12,3.25Z" transform="translate(0 45.11)"/>
      <path id="path122" class="cls-7" d="M212,156.94l-6.48-5.89v85.83L212,231v7.14l8.46-5.43h0l8.45,5.43V231l6.48,5.89V151.05L229,156.94V149.8l-8.45,5.43h0L212,149.8Z" transform="translate(0 45.11)"/>
      <path id="path124" class="cls-7" d="M267.6,163.68l-3.94,3.53-3.94-3.53v4.17l-5.13-3.25v58.73l5.13-3.25v4.17l3.94-3.53,3.94,3.53v-4.17l5.13,3.25V164.6l-5.13,3.25Z" transform="translate(0 45.11)"/>
    </g>
    <g id="carp2h">
      <g id="carp2q">
        <path id="path128" class="cls-6" d="M156.67,185.53a2.78,2.78,0,0,0,4,0c1.77-1.79,1.83-5,1.82-7.33l-2.42,2.55-1.41-2.42-1.41,2.42-2.42-2.55c0,2.32.05,5.54,1.82,7.33Z" transform="translate(0 45.11)"/>
        <path id="path130" class="cls-6" d="M176.13,180.53l-1.5-1.48v-3l-3.42,3.17,6.12,6.12,6.13-6.12L180,176.08v3l-1.49,1.48v-5.25l2.64-2.27-3.85-3.3-3.85,3.3,2.65,2.27Z" transform="translate(0 45.11)"/>
        <path id="path132" class="cls-6" d="M194.78,174.64l-1.49-1.49v-3l-3.43,3.18,6.13,6.11,6.12-6.11-3.43-3.18v3l-1.49,1.49v-5.26l2.65-2.26-3.85-3.3-3.85,3.3,2.64,2.26Z" transform="translate(0 45.11)"/>
        <path id="path134" class="cls-4" d="M158.68,179.32l1.31,2.26,2-2.1c-.07,2.62-.65,4.69-1.65,5.69a2.26,2.26,0,0,1-1.66.72,2.29,2.29,0,0,1-1.66-.71c-1-1-1.57-3.08-1.64-5.7l2,2.1,1.31-2.26Z" transform="translate(0 45.11)"/>
        <path id="path136" class="cls-4" d="M196.69,169.16v6.69l2.5-2.49v-2l2.2,2-5.4,5.4-5.41-5.4,2.21-2v2l2.49,2.49v-6.69l-2.38-2,3.09-2.64,3.08,2.64Z" transform="translate(0 45.11)"/>
        <path id="path138" class="cls-5" d="M178,175.05v6.69l2.49-2.49v-2l2.21,2-5.41,5.4-5.4-5.4,2.2-2v2l2.5,2.49v-6.69l-2.38-2,3.08-2.64,3.09,2.64Z" transform="translate(0 45.11)"/>
      </g>
      <g id="use141">
        <g>
          <path class="cls-6" d="M284.33,185.53a2.79,2.79,0,0,1-4,0c-1.77-1.79-1.83-5-1.81-7.33l2.42,2.55,1.4-2.42,1.41,2.42,2.42-2.55c0,2.32,0,5.54-1.81,7.33Z" transform="translate(0 45.11)"/>
          <path class="cls-6" d="M264.87,180.53l1.49-1.48v-3l3.43,3.17-6.13,6.12-6.13-6.12,3.43-3.17v3l1.49,1.48v-5.25L259.81,173l3.85-3.3,3.85,3.3-2.64,2.27Z" transform="translate(0 45.11)"/>
          <path class="cls-6" d="M246.22,174.64l1.49-1.49v-3l3.43,3.18L245,179.47l-6.13-6.11,3.43-3.18v3l1.49,1.49v-5.26l-2.64-2.26,3.85-3.3,3.85,3.3-2.64,2.26Z" transform="translate(0 45.11)"/>
          <path class="cls-4" d="M282.31,179.32c-.3.53-1.31,2.26-1.31,2.26l-2-2.1c.07,2.62.64,4.69,1.65,5.69a2.24,2.24,0,0,0,1.65.72,2.29,2.29,0,0,0,1.66-.71c1-1,1.58-3.08,1.65-5.7l-2,2.1-1.31-2.26Z" transform="translate(0 45.11)"/>
          <path class="cls-4" d="M244.3,169.16v6.69l-2.49-2.49v-2l-2.21,2,5.41,5.4,5.4-5.4-2.2-2v2l-2.49,2.49v-6.69l2.37-2L245,164.48l-3.08,2.64Z" transform="translate(0 45.11)"/>
          <path class="cls-5" d="M263,175.05v6.69l-2.49-2.49v-2l-2.21,2,5.41,5.4,5.41-5.4-2.21-2v2l-2.49,2.49v-6.69l2.37-2-3.08-2.64L260.58,173Z" transform="translate(0 45.11)"/>
        </g>
      </g>
      <path id="path143" class="cls-6" d="M227.83,176.87l-2-2.77,5.15-4.74-4.8-3.94v2.79l-2,1.72v-5.06l4.54-3.34-8.2-6-8.21,6,4.54,3.34v5.06l-2-1.72v-2.79l-4.8,3.94,5.15,4.74-2,2.77Z" transform="translate(0 45.11)"/>
      <path id="path145" class="cls-5" d="M214.14,176.37l1.7-2.33-5.05-4.66,3.53-2.9v2l3,2.57v-6.39l-4.19-3.09,7.36-5.41,7.35,5.41-4.19,3.09V171l3-2.57v-2l3.54,2.9L225.16,174l1.69,2.33Z" transform="translate(0 45.11)"/>
      <path id="path147" class="cls-6" d="M216.75,161.53l3.75,2.76,3.74-2.76-3.74-2.75-.15.1Z" transform="translate(0 45.11)"/>
      <path id="path149" class="cls-3" d="M220.5,159.4l2.9,2.13-2.9,2.14-2.91-2.14Z" transform="translate(0 45.11)"/>
    </g>
    <g id="use152">
      <g>
        <g>
          <path class="cls-6" d="M156.67,202.4a2.78,2.78,0,0,1,4,0c1.77,1.78,1.83,5,1.82,7.33l-2.42-2.55-1.41,2.42-1.41-2.42-2.42,2.55c0-2.32.05-5.55,1.82-7.33Z" transform="translate(0 45.11)"/>
          <path class="cls-6" d="M176.13,207.39l-1.5,1.49v3l-3.42-3.17,6.12-6.12,6.13,6.12L180,211.85v-3l-1.49-1.49v5.26l2.64,2.26-3.85,3.31-3.85-3.31,2.65-2.26Z" transform="translate(0 45.11)"/>
          <path class="cls-6" d="M194.78,213.29l-1.49,1.49v3l-3.43-3.17,6.13-6.12,6.12,6.12-3.43,3.17v-3l-1.49-1.49v5.25l2.65,2.27-3.85,3.3-3.85-3.3,2.64-2.27Z" transform="translate(0 45.11)"/>
          <path class="cls-4" d="M158.68,208.61l1.31-2.26,2,2.1c-.07-2.62-.65-4.69-1.65-5.7a2.3,2.3,0,0,0-3.32,0c-1,1-1.57,3.08-1.64,5.7l2-2.1,1.31,2.26Z" transform="translate(0 45.11)"/>
          <path class="cls-4" d="M196.69,218.77v-6.69l2.5,2.49v2l2.2-2-5.4-5.4-5.41,5.4,2.21,2v-2l2.49-2.49v6.69l-2.38,2,3.09,2.64,3.08-2.64Z" transform="translate(0 45.11)"/>
          <path class="cls-5" d="M178,212.88v-6.69l2.49,2.49v2l2.21-2-5.41-5.39-5.4,5.39,2.2,2v-2l2.5-2.49v6.69l-2.38,2,3.08,2.65,3.09-2.65Z" transform="translate(0 45.11)"/>
        </g>
        <g>
          <path class="cls-6" d="M284.33,202.4a2.79,2.79,0,0,0-4,0c-1.77,1.78-1.83,5-1.81,7.33l2.42-2.55,1.4,2.42,1.41-2.42,2.42,2.55c0-2.32,0-5.55-1.81-7.33Z" transform="translate(0 45.11)"/>
          <path class="cls-6" d="M264.87,207.39l1.49,1.49v3l3.43-3.17-6.13-6.12-6.13,6.12,3.43,3.17v-3l1.49-1.49v5.26l-2.64,2.26,3.85,3.31,3.85-3.31-2.64-2.26Z" transform="translate(0 45.11)"/>
          <path class="cls-6" d="M246.22,213.29l1.49,1.49v3l3.43-3.17L245,208.45l-6.13,6.12,3.43,3.17v-3l1.49-1.49v5.25l-2.64,2.27,3.85,3.3,3.85-3.3-2.64-2.27Z" transform="translate(0 45.11)"/>
          <path class="cls-4" d="M282.31,208.61c-.3-.53-1.31-2.26-1.31-2.26l-2,2.1c.07-2.62.64-4.69,1.65-5.7a2.28,2.28,0,0,1,3.31,0c1,1,1.58,3.08,1.65,5.7l-2-2.1-1.31,2.26Z" transform="translate(0 45.11)"/>
          <path class="cls-4" d="M244.3,218.77v-6.69l-2.49,2.49v2l-2.21-2,5.41-5.4,5.4,5.4-2.2,2v-2l-2.49-2.49v6.69l2.37,2L245,223.45l-3.08-2.64Z" transform="translate(0 45.11)"/>
          <path class="cls-5" d="M263,212.88v-6.69l-2.49,2.49v2l-2.21-2,5.41-5.39,5.41,5.39-2.21,2v-2l-2.49-2.49v6.69l2.37,2-3.08,2.65-3.08-2.65Z" transform="translate(0 45.11)"/>
        </g>
        <path class="cls-6" d="M227.83,211.05l-2,2.77,5.15,4.75-4.8,3.93v-2.78l-2-1.72v5.06l4.54,3.34-8.2,6-8.21-6,4.54-3.34V218l-2,1.72v2.78l-4.8-3.93,5.15-4.75-2-2.77Z" transform="translate(0 45.11)"/>
        <path class="cls-5" d="M214.14,211.55l1.7,2.34-5.05,4.65,3.53,2.91v-2l3-2.57v6.39l-4.19,3.08,7.36,5.42,7.35-5.42-4.19-3.08v-6.39l3,2.57v2l3.54-2.91-5.05-4.65,1.69-2.34Z" transform="translate(0 45.11)"/>
        <path class="cls-6" d="M216.75,226.39l3.75-2.75,3.74,2.75-3.74,2.76-.15-.11Z" transform="translate(0 45.11)"/>
        <path class="cls-3" d="M220.5,228.53l2.9-2.14-2.9-2.13-2.91,2.13Z" transform="translate(0 45.11)"/>
      </g>
    </g>
    <path id="path154" class="cls-6" d="M286.89,191.1h-8.22v-3.27H253.58l-17.47-11.46H204.88l-17.47,11.46H162.32v3.27h-8.21v5.73h8.21v3.27h25.09l17.47,11.46h31.23l17.47-11.46h25.09v-3.27h8.22Z" transform="translate(0 45.11)"/>
    <path id="path156" class="cls-5" d="M205,176.89l-17.49,11.42H162.83v3.27h-8.22v4.75h8.22v3.27h24.71L205,211.07h31l17.43-11.47H278.2v-3.27h8.21v-4.75H278.2v-3.27H253.42L236,176.89Zm.37,1.67h30.16l16,10.49v1.6h17.86v6.66H251.56v1.61l-16,10.43H205.4l-15.94-10.43v-1.61H171.54v-6.66h17.92v-1.6Z" transform="translate(0 45.11)"/>
    <path id="path158" class="cls-5" d="M235.43,179.07,251,189.31v1.81h17.89v5.69H251v1.81l-15.61,10.24H205.56L190,198.62v-1.81H172.06v-5.69H190v-1.81l15.61-10.24Z" transform="translate(0 45.11)"/>
    <g id="g176">
      <path id="path160" class="cls-6" d="M197.81,199.78l6.76,5.06,4.44-3.33-2.58-1.94-1.86,1.4L203,199.78l25.45-19.08h-5.17Zm14.75,7.45h5.17l25.45-19.08-6.76-5.06L232,186.42l2.58,1.94,1.86-1.4,1.59,1.19Zm10.7,0h5.17L203,188.15l1.59-1.19,1.86,1.4,2.58-1.94-4.44-3.33-6.76,5.06ZM238,199.78,236.42,201l-1.86-1.4L232,201.51l4.44,3.33,6.76-5.06L217.73,180.7h-5.17Z" transform="translate(0 45.11)"/>
      <path id="path162" class="cls-6" d="M192.69,194l4.54,3,4.55-3-4.55-3Z" transform="translate(0 45.11)"/>
      <path id="path164" class="cls-6" d="M216,194l4.55,3,4.54-3-4.54-3Z" transform="translate(0 45.11)"/>
      <path id="path166" class="cls-6" d="M248.3,194l-4.54,3-4.54-3,4.54-3Z" transform="translate(0 45.11)"/>
      <path id="path168" class="cls-7" d="M242.35,199.78l-5.92,4.44-3.62-2.71,1.75-1.31,1.87,1.39,2.42-1.81L214.06,181.2h3.5Zm-15.42,6.95h-3.5l-24.79-18.58,5.93-4.44,3.61,2.71-1.75,1.31-1.86-1.39-2.42,1.81Zm-9.37,0h-3.5l24.79-18.58-2.42-1.81-1.87,1.39-1.75-1.31,3.62-2.71,5.92,4.44Zm5.87-25.53h3.5l-24.78,18.58,2.42,1.81,1.86-1.39,1.75,1.31-3.61,2.71-5.93-4.44Z" transform="translate(0 45.11)"/>
      <path id="path170" class="cls-3" d="M197.23,191.55l3.64,2.41-3.64,2.42L193.59,194Z" transform="translate(0 45.11)"/>
      <path id="path172" class="cls-3" d="M220.5,191.55l3.64,2.41-3.64,2.42L216.86,194Z" transform="translate(0 45.11)"/>
      <path id="path174" class="cls-3" d="M243.76,191.55,240.12,194l3.64,2.42L247.4,194Z" transform="translate(0 45.11)"/>
    </g>
    <g id="g219">
      <path id="path179" class="cls-6" d="M140.6,320.41l-1.78,2.52,3.19,2.43-3.19,2.44,1.78,2.52,3.71.43,3.6-2.77,9,5.68v-4.72l-5.64-3.58,5.64-3.57v-4.72l-9,5.68-3.6-2.77Z" transform="translate(0 45.11)"/>
      <path id="path181" class="cls-6" d="M140.6,304l-1.78,2.52L142,309l-3.19,2.43,1.78,2.52,3.71.43,3.6-2.77,9,5.68v-4.72L151.23,309l5.64-3.58v-4.72l-9,5.68-3.6-2.77Z" transform="translate(0 45.11)"/>
      <path id="path183" class="cls-6" d="M140.6,346.72l-1.78-2.52,3.19-2.43-3.19-2.44,1.78-2.52,3.71-.43,3.6,2.77,9-5.68v4.72l-5.64,3.58,5.64,3.57v4.72l-9-5.68-3.6,2.77Z" transform="translate(0 45.11)"/>
      <path id="path185" class="cls-6" d="M300.4,320.41l1.78,2.52-3.2,2.43,3.2,2.44-1.78,2.52-3.72.43L293.09,328l-9,5.68v-4.72l5.64-3.58-5.64-3.57v-4.72l9,5.68,3.59-2.77Z" transform="translate(0 45.11)"/>
      <path id="path187" class="cls-6" d="M300.4,304l1.78,2.52L299,309l3.2,2.43-1.78,2.52-3.72.43-3.59-2.77-9,5.68v-4.72l5.64-3.57-5.64-3.58v-4.72l9,5.68,3.59-2.77Z" transform="translate(0 45.11)"/>
      <path id="path189" class="cls-6" d="M300.4,346.72l1.78-2.52-3.2-2.43,3.2-2.44-1.78-2.52-3.72-.43-3.59,2.77-9-5.68v4.72l5.64,3.58-5.64,3.57v4.72l9-5.68,3.59,2.77Z" transform="translate(0 45.11)"/>
      <path id="path191" class="cls-6" d="M264.51,275.65v6.82h5v3h4.89V280H270v-4.35Z" transform="translate(0 45.11)"/>
      <path id="path193" class="cls-6" d="M279.16,286.41v6.82h5v3H289v-5.49h-4.35v-4.35Z" transform="translate(0 45.11)"/>
      <path id="path195" class="cls-6" d="M176.48,275.65v6.82h-5v3h-4.88V280H171v-4.35Z" transform="translate(0 45.11)"/>
      <path id="path197" class="cls-6" d="M264.51,375.08v-6.82h5v-3h4.89v5.49H270v4.35Z" transform="translate(0 45.11)"/>
      <path id="path199" class="cls-6" d="M176.48,375.08v-6.82h-5v-3h-4.88v5.49H171v4.35Z" transform="translate(0 45.11)"/>
      <path id="path201" class="cls-6" d="M279.16,364.32V357.5h5v-3H289V360h-4.35v4.34Z" transform="translate(0 45.11)"/>
      <path id="path203" class="cls-6" d="M161.83,286.41v6.82h-5v3H152v-5.49h4.35v-4.35Z" transform="translate(0 45.11)"/>
      <path id="path205" class="cls-6" d="M161.83,364.32V357.5h-5v-3H152V360h4.35v4.34Z" transform="translate(0 45.11)"/>
      <path id="path207" class="cls-6" d="M238.88,275.49l-3.79-3.67-3.73,3.44,3.25,3.15-4.19,4.06h6.22l2.24-2.17,2.24,2.17h6.22l-4.19-4.06,3.24-3.15-3.72-3.44-3.79,3.67Z" transform="translate(0 45.11)"/>
      <path id="path209" class="cls-6" d="M220.5,275.49l-3.79-3.67L213,275.26l3.25,3.15L212,282.47h6.22l2.24-2.17,2.24,2.17H229l-4.19-4.06,3.24-3.15-3.72-3.44-3.79,3.67Z" transform="translate(0 45.11)"/>
      <path id="path211" class="cls-6" d="M202.12,275.49l3.79-3.67,3.73,3.44-3.25,3.15,4.19,4.06h-6.22l-2.24-2.17-2.24,2.17h-6.22l4.19-4.06-3.25-3.15,3.73-3.44,3.79,3.67Z" transform="translate(0 45.11)"/>
      <path id="path213" class="cls-6" d="M238.88,375.24l-3.79,3.67-3.73-3.44,3.25-3.15-4.19-4.06h6.22l2.24,2.17,2.24-2.17h6.22l-4.19,4.06,3.24,3.15-3.72,3.44-3.79-3.67Z" transform="translate(0 45.11)"/>
      <path id="path215" class="cls-6" d="M220.5,375.24l-3.79,3.67L213,375.47l3.25-3.15L212,368.26h6.22l2.24,2.17,2.24-2.17H229l-4.19,4.06,3.24,3.15-3.72,3.44-3.79-3.67Z" transform="translate(0 45.11)"/>
      <path id="path217" class="cls-6" d="M202.12,375.24l3.79,3.67,3.73-3.44-3.25-3.15,4.19-4.06h-6.22l-2.24,2.17-2.24-2.17h-6.22l4.19,4.06-3.25,3.15,3.73,3.44,3.79-3.67Z" transform="translate(0 45.11)"/>
    </g>
    <g id="g261">
      <path id="path221" class="cls-3" d="M156.37,329.22v3.53l-8.49-5.38-3.71,2.86-3.29-.38-1.38-1.94,3.33-2.54-3.33-2.55,1.38-1.94,3.29-.38,3.71,2.86,8.49-5.38v3.53l-6.08,3.86Z" transform="translate(0 45.11)"/>
      <path id="path223" class="cls-3" d="M156.37,312.82v3.54L147.88,311l-3.71,2.86-3.29-.38-1.38-1.94,3.33-2.54-3.33-2.55,1.38-1.94,3.29-.38,3.71,2.86,8.49-5.38v3.53L150.29,309Z" transform="translate(0 45.11)"/>
      <path id="path225" class="cls-3" d="M156.37,337.91v-3.53l-8.49,5.38-3.71-2.86-3.29.38-1.38,1.94,3.33,2.55-3.33,2.54,1.38,1.94,3.29.38,3.71-2.86,8.49,5.39v-3.54l-6.08-3.85Z" transform="translate(0 45.11)"/>
      <path id="path227" class="cls-3" d="M284.63,329.22v3.53l8.49-5.38,3.71,2.86,3.29-.38,1.37-1.94-3.33-2.54,3.33-2.55-1.37-1.94-3.29-.38-3.71,2.86L284.63,318v3.53l6.07,3.86Z" transform="translate(0 45.11)"/>
      <path id="path229" class="cls-3" d="M284.63,312.82v3.54l8.49-5.39,3.71,2.86,3.29-.38,1.37-1.94L298.16,309l3.33-2.55-1.37-1.94-3.29-.38L293.12,307l-8.49-5.38v3.53L290.7,309Z" transform="translate(0 45.11)"/>
      <path id="path231" class="cls-3" d="M284.63,337.91v-3.53l8.49,5.38,3.71-2.86,3.29.38,1.37,1.94-3.33,2.55,3.33,2.54-1.37,1.94-3.29.38-3.71-2.86-8.49,5.39v-3.54l6.07-3.85Z" transform="translate(0 45.11)"/>
      <path id="path233" class="cls-3" d="M269.51,276.15v4.35h4.36V285H270v-3h-5v-5.82Z" transform="translate(0 45.11)"/>
      <path id="path235" class="cls-3" d="M284.16,286.91v4.34h4.35v4.5h-3.88v-3h-5v-5.82Z" transform="translate(0 45.11)"/>
      <path id="path237" class="cls-3" d="M171.48,276.15v4.35h-4.35V285H171v-3h5v-5.82Z" transform="translate(0 45.11)"/>
      <path id="path239" class="cls-3" d="M269.51,374.58v-4.35h4.36v-4.49H270v3h-5v5.82Z" transform="translate(0 45.11)"/>
      <path id="path241" class="cls-3" d="M171.48,374.58v-4.35h-4.35v-4.49H171v3h5v5.82Z" transform="translate(0 45.11)"/>
      <path id="path243" class="cls-3" d="M284.16,363.82v-4.34h4.35V355h-3.88v3h-5v5.82Z" transform="translate(0 45.11)"/>
      <path id="path245" class="cls-3" d="M156.83,286.91v4.34h-4.35v4.5h3.88v-3h5v-5.82Z" transform="translate(0 45.11)"/>
      <path id="path247" class="cls-3" d="M156.84,363.82v-4.34h-4.36V355h3.88v3h5v5.82Z" transform="translate(0 45.11)"/>
      <path id="path249" class="cls-3" d="M235.08,272.5l3.8,3.69,3.8-3.69c.29.28,2.66,2.47,3,2.77l-3.24,3.14,3.68,3.56h-4.79l-2.44-2.36L236.44,282h-4.79l3.68-3.56s-2.91-2.81-3.24-3.14l3-2.77Z" transform="translate(0 45.11)"/>
      <path id="path251" class="cls-3" d="M216.7,272.5l3.8,3.69,3.8-3.69c.29.28,2.66,2.47,3,2.77l-3.24,3.14,3.68,3.56h-4.79l-2.44-2.36L218.05,282h-4.78l3.67-3.56-3.23-3.14Z" transform="translate(0 45.11)"/>
      <path id="path253" class="cls-3" d="M205.92,272.5l-3.8,3.69-3.8-3.69-3,2.77c.33.33,3.24,3.14,3.24,3.14L194.89,282h4.79l2.44-2.36,2.44,2.36h4.79l-3.68-3.56,3.24-3.14C208.58,275,206.21,272.78,205.92,272.5Z" transform="translate(0 45.11)"/>
      <path id="path255" class="cls-3" d="M235.08,378.23l3.8-3.69,3.8,3.69,3-2.77-3.24-3.14,3.68-3.56h-4.79l-2.44,2.37-2.44-2.37h-4.79l3.68,3.56-3.24,3.14,3,2.77Z" transform="translate(0 45.11)"/>
      <path id="path257" class="cls-3" d="M216.7,378.23l3.8-3.69,3.8,3.69,3-2.77-3.24-3.14,3.68-3.56h-4.79l-2.44,2.37-2.45-2.37h-4.78l3.67,3.56-3.23,3.14Z" transform="translate(0 45.11)"/>
      <path id="path259" class="cls-3" d="M205.92,378.23l-3.8-3.69-3.8,3.69-3-2.77c.33-.33,3.24-3.14,3.24-3.14l-3.68-3.56h4.79l2.44,2.37,2.44-2.37h4.79l-3.68,3.56,3.24,3.14Z" transform="translate(0 45.11)"/>
    </g>
    <path id="path263" class="cls-6" d="M171,358v10.76h99V358h14.65V292.73H270V282H171v10.76H156.37V358Z" transform="translate(0 45.11)"/>
    <path id="path265" class="cls-7" d="M171.54,282.46V293.2H156.89v64.29h14.65v10.74h97.94V357.49h14.65V293.2H269.48V282.46Zm6.3,4.14h85.34V297l3.52,2.6H280V351.2H266.64l-3.46,2.53v10.43H177.84V353.79l-3.52-2.59H161V299.56h13.29l3.58-2.6V286.6Z" transform="translate(0 45.11)"/>
    <path id="path267" class="cls-5" d="M178.34,287.09v9.5l12.85-9.5Zm71.43,0,12.85,9.5v-9.5Zm-88.24,13v8.88l12.11-8.88Zm105.79,0L279.49,309v-8.95Zm12.17,41.65-12.17,9h12.17Zm-118,.06v8.95h12.11Zm16.81,12.4v9.44h12.79Zm84.28,0-12.79,9.44h12.79Z" transform="translate(0 45.11)"/>
    <path id="path269" class="cls-3" d="M248.94,287.1l30.55,22.53V341.1l-30.55,22.53H192.05L161.5,341.1V309.63l30.55-22.53Z" transform="translate(0 45.11)"/>
    <path id="path271" class="cls-6" d="M168.78,344.72l-3.51-4.07,3.29-3.82L165.27,333l3.29-3.82-3.29-3.82,3.29-3.83-3.29-3.82,3.29-3.82-3.29-3.82,3.51-4.07H272.22l3.51,4.07-3.3,3.82,3.3,3.82-3.3,3.82,3.3,3.83-3.3,3.82,3.3,3.82-3.3,3.82,3.3,3.82-3.51,4.07Zm71.1-52.7-4.08-3.5L232,291.81l-3.83-3.29-3.83,3.29-3.82-3.29-3.83,3.29-3.83-3.29L209,291.81l-3.83-3.29-4.08,3.5v66.69l4.08,3.51,3.83-3.3,3.82,3.29,3.83-3.29,3.83,3.29,3.82-3.29,3.83,3.29,3.83-3.29,3.82,3.3,4.08-3.51Z" transform="translate(0 45.11)"/>
    <g id="g283">
      <path id="path273" class="cls-7" d="M231.73,292.25l-3.58-3.08-3.58,3.08v66.23l3.58,3.07,3.58-3.07Z" transform="translate(0 45.11)"/>
      <path id="path275" class="cls-7" d="M216.42,292.25l-3.58-3.08-3.57,3.08v66.23l3.57,3.07,3.58-3.07Z" transform="translate(0 45.11)"/>
      <path id="path277" class="cls-7" d="M169,344.22l-3.08-3.57,3.08-3.57H272l3.08,3.57L272,344.22Z" transform="translate(0 45.11)"/>
      <path id="path279" class="cls-7" d="M272,321.79l3.08,3.58L272,328.94H169l-3.08-3.57,3.08-3.58Z" transform="translate(0 45.11)"/>
      <path id="path281" class="cls-7" d="M272,313.65l3.08-3.57L272,306.51H169l-3.08,3.57,3.08,3.57Z" transform="translate(0 45.11)"/>
    </g>
    <g id="g295">
      <path id="path285" class="cls-5" d="M239.38,292.25l-3.58-3.08-3.57,3.08v66.23l3.57,3.07,3.58-3.07Z" transform="translate(0 45.11)"/>
      <path id="path287" class="cls-5" d="M208.77,292.25l-3.58-3.08-3.58,3.08v66.23l3.58,3.07,3.58-3.07Z" transform="translate(0 45.11)"/>
      <path id="path289" class="cls-5" d="M169,336.58,165.93,333l3.08-3.57H272l3.08,3.57L272,336.58Z" transform="translate(0 45.11)"/>
      <path id="path291" class="cls-5" d="M169,321.29l-3.08-3.57,3.08-3.57H272l3.08,3.57L272,321.29Z" transform="translate(0 45.11)"/>
      <path id="path293" class="cls-5" d="M224.07,358.48l-3.57,3.07-3.58-3.07V292.25l3.58-3.08,3.57,3.08Z" transform="translate(0 45.11)"/>
    </g>
    <path id="path297" class="cls-6" d="M255.07,293.54H185.68v5.51h-8.87v52.63h8.87v5.51h69.64v-5.51h8.87V299.05h-8.87v-5.51Z" transform="translate(0 45.11)"/>
    <path id="path299" class="cls-5" d="M186.18,294.06v5.5h-8.89V351.2h8.89v5.49h7.3L179,344.54V306.22l14.53-12.16Zm61.37,0L262,306.22v38.32l-14.46,12.15h7.29V351.2h8.83V299.56h-8.83v-5.5Z" transform="translate(0 45.11)"/>
    <g id="g327">
      <path id="path301" class="cls-3" d="M194.28,294.06l-14.83,12.4v37.83l14.83,12.4h52.46c.14-.12,14.59-12.26,14.77-12.4V306.46c-.18-.14-14.63-12.28-14.77-12.4Zm.74,2.1h50.92l13.47,11.29V343.3l-13.47,11.23H195L181.61,343.3V307.45Z" transform="translate(0 45.11)"/>
      <path id="path303" class="cls-3" d="M208.51,343.87l2.28,1,.41,2.66L208.34,350l4.16,4h-4l-2.86-2.75-2.87,2.75h-4l4.17-4-2.87-2.52.42-2.66,2.27-1,2.89,2.3.15-.13Z" transform="translate(0 45.11)"/>
      <path id="path305" class="cls-3" d="M223.38,343.87l2.28,1,.42,2.66L223.21,350l4.17,4h-4l-2.87-2.75-2.87,2.75h-4l4.17-4-2.87-2.52.42-2.66,2.28-1,2.88,2.3.15-.13Z" transform="translate(0 45.11)"/>
      <path id="path307" class="cls-3" d="M232.49,343.87l-2.28,1-.42,2.66,2.87,2.52-4.17,4h4l2.87-2.75,2.87,2.75h4l-4.17-4,2.87-2.52-.42-2.66-2.28-1-2.88,2.3-.16-.13Z" transform="translate(0 45.11)"/>
      <path id="path309" class="cls-3" d="M208.51,306.86l2.28-1,.41-2.66-2.86-2.52,4.16-4h-4l-2.86,2.75-2.87-2.75h-4l4.17,4-2.87,2.52.42,2.66,2.27,1,2.89-2.3.15.13Z" transform="translate(0 45.11)"/>
      <path id="path311" class="cls-3" d="M223.38,306.86l2.28-1,.42-2.66-2.87-2.52,4.17-4h-4l-2.87,2.75-2.87-2.75h-4l4.17,4-2.87,2.52.42,2.66,2.28,1,2.88-2.3.15.13Z" transform="translate(0 45.11)"/>
      <path id="path313" class="cls-3" d="M232.49,306.86l-2.28-1-.42-2.66,2.87-2.52-4.17-4h4l2.87,2.75,2.87-2.75h4l-4.17,4,2.87,2.52-.42,2.66-2.28,1-2.88-2.3-.16.13Z" transform="translate(0 45.11)"/>
      <path id="path315" class="cls-3" d="M258.88,311.11,256.61,313l2.27,1.88V318l-3.49-2.88-2.52,2.27-2.69-.34-1-1.75,2.32-2.3-2.32-2.31,1-1.75,2.69-.33,2.52,2.27,3.49-2.88Z" transform="translate(0 45.11)"/>
      <path id="path317" class="cls-3" d="M258.88,323.48l-2.27,1.89,2.27,1.88v3.11l-3.49-2.88-2.52,2.28-2.69-.34-1-1.75,2.32-2.3-2.32-2.31,1-1.75,2.69-.34,2.52,2.28,3.49-2.88Z" transform="translate(0 45.11)"/>
      <path id="path319" class="cls-3" d="M258.88,339.62l-2.27-1.88,2.27-1.88v-3.12l-3.49,2.88-2.52-2.27-2.69.34-1,1.75,2.32,2.3-2.32,2.31,1,1.75,2.69.33,2.52-2.27,3.49,2.88Z" transform="translate(0 45.11)"/>
      <path id="path321" class="cls-3" d="M182.11,311.11l2.28,1.88-2.28,1.88V318l3.5-2.88,2.51,2.27,2.69-.34.95-1.75-2.31-2.3s2.08-2.07,2.31-2.31l-.95-1.75-2.69-.33-2.51,2.27-3.5-2.88Z" transform="translate(0 45.11)"/>
      <path id="path323" class="cls-3" d="M182.11,323.48l2.28,1.89-2.28,1.88v3.11l3.5-2.88,2.51,2.28,2.69-.34.95-1.75-2.31-2.3,2.31-2.31-.95-1.75-2.69-.34-2.51,2.28-3.5-2.88Z" transform="translate(0 45.11)"/>
      <path id="path325" class="cls-3" d="M182.11,339.62l2.28-1.88-2.28-1.88v-3.12l3.5,2.88,2.51-2.27,2.69.34.95,1.75-2.31,2.3,2.31,2.31-.95,1.75-2.69.33-2.51-2.27-3.5,2.88Z" transform="translate(0 45.11)"/>
    </g>
    <path id="path329" class="cls-5" d="M195.21,296.66l-12.92,10.79c1.1.92,2.17,1.87,3.28,2.78l2.41-2.16,3.15.43,1.23,2.28L190.14,313l2.22,2.22-1.23,2.28-3.15.37s-2.13-1.84-2.41-2.1l-3.46,2.9v1c1.16,1,2.29,1.94,3.46,2.9l2.41-2.1,3.15.37,1.23,2.28-2.22,2.23,2.22,2.22-1.23,2.34-3.15.37-2.41-2.16-3.46,2.9v1.05l3.46,2.9,2.41-2.16,3.15.43,1.23,2.29-2.22,2.22,2.22,2.22-1.23,2.28-3.15.43-2.41-2.16-3.28,2.72L195.21,354h2.84l4.14-4-2.66-2.35.5-3.21,2.78-1.17,2.84,2.22,2.78-2.22,2.78,1.17.56,3.21L209.05,350l4,3.82,4-3.82-2.72-2.35.5-3.21,2.84-1.17,2.78,2.22,2.84-2.22,2.78,1.17.5,3.21L223.94,350l4,3.88,4-3.88-2.66-2.35.5-3.21,2.84-1.17,2.78,2.22,2.78-2.22,2.85,1.17.49,3.21L238.83,350l4.14,4h2.78l12.92-10.8c-1.1-.91-2.17-1.81-3.28-2.72l-2.34,2.16-3.16-.43L248.6,340l2.22-2.22-2.22-2.22,1.29-2.29,3.16-.43,2.34,2.16,3.46-2.9V331l-3.46-2.9-2.34,2.16-3.16-.37-1.29-2.34,2.22-2.22-2.22-2.23,1.29-2.28,3.16-.37,2.34,2.1,3.46-2.84v-1.11l-3.46-2.84-2.34,2.1-3.16-.37-1.29-2.28,2.22-2.22-2.22-2.23,1.29-2.28,3.16-.43,2.34,2.16c1.11-.91,2.23-1.8,3.34-2.72l-13-10.86H243l-4.14,4,2.66,2.34-.49,3.21-2.85,1.23-2.78-2.22-2.78,2.22-2.84-1.23-.5-3.21,2.66-2.34L228,296.84l-4,3.83L226.6,303l-.5,3.21-2.78,1.23-2.84-2.22-2.78,2.22-2.84-1.23-.5-3.21,2.72-2.34-4-3.83-4,3.83,2.72,2.34-.56,3.21-2.78,1.23-2.78-2.22-2.84,2.22L200,306.22l-.5-3.21,2.66-2.34-4.2-4Zm-13.1,27.45v2.53l1.48-1.29Z" transform="translate(0 45.11)"/>
    <g id="g355">
      <path id="path331" class="cls-4" d="M205.65,352l-2.16,2h4.26Z" transform="translate(0 45.11)"/>
      <path id="path333" class="cls-4" d="M220.48,352l-2.1,2h4.26Z" transform="translate(0 45.11)"/>
      <path id="path335" class="cls-4" d="M235.37,352l-2.16,2h4.32Z" transform="translate(0 45.11)"/>
      <path id="path337" class="cls-4" d="M203.42,296.66l2.23,2.09,2.16-2.09Z" transform="translate(0 45.11)"/>
      <path id="path339" class="cls-4" d="M218.32,296.66l2.16,2.09,2.22-2.09Z" transform="translate(0 45.11)"/>
      <path id="path341" class="cls-4" d="M233.21,296.66l2.16,2.09,2.16-2.09Z" transform="translate(0 45.11)"/>
      <path id="path343" class="cls-4" d="M258.85,311.77,257.37,313l1.48,1.17Z" transform="translate(0 45.11)"/>
      <path id="path345" class="cls-4" d="M258.85,324.11l-1.48,1.24,1.48,1.23Z" transform="translate(0 45.11)"/>
      <path id="path347" class="cls-4" d="M258.85,336.51l-1.48,1.24,1.48,1.23Z" transform="translate(0 45.11)"/>
      <path id="path349" class="cls-4" d="M182.11,311.71v2.53l1.48-1.23Z" transform="translate(0 45.11)"/>
      <path id="path351" class="cls-4" d="M182.11,324.11v2.53l1.48-1.29Z" transform="translate(0 45.11)"/>
      <path id="path353" class="cls-4" d="M182.11,336.45V339l1.48-1.23Z" transform="translate(0 45.11)"/>
    </g>
    <g id="g375">
      <path id="path357" class="cls-6" d="M233.22,321.23v-4.42h-4.48V312H212.25v4.84h-4.47v4.42h-6.19v8.27h6.19v4.42h4.47v4.84h16.49v-4.84h4.48V329.5h6.18v-8.27Z" transform="translate(0 45.11)"/>
      <path id="path359" class="cls-7" d="M220.25,312.47v5l-7.09,4v3.63H202.09v-3.39h6.19v-4.42h4.47v-4.84Z" transform="translate(0 45.11)"/>
      <path id="path361" class="cls-7" d="M220.75,338.26v-5l7.08-4v-3.63H238.9V329h-6.18v4.42h-4.48v4.84Z" transform="translate(0 45.11)"/>
      <path id="path363" class="cls-4" d="M227.83,325.12v-3.63l-7.08-4v-5h7.49v4.84h4.48v4.42h6.18v3.39Z" transform="translate(0 45.11)"/>
      <path id="path365" class="cls-4" d="M202.1,325.62h11.06v3.63l7.09,4v5h-7.5v-4.84h-4.47V329H202.1Z" transform="translate(0 45.11)"/>
      <path id="path367" class="cls-5" d="M213.66,325.62V329l6.59,3.74v-7.1Z" transform="translate(0 45.11)"/>
      <path id="path369" class="cls-3" d="M220.25,318l-6.59,3.74v3.37h6.59Z" transform="translate(0 45.11)"/>
      <path id="path371" class="cls-5" d="M227.33,325.12v-3.37L220.75,318v7.11Z" transform="translate(0 45.11)"/>
      <path id="path373" class="cls-3" d="M220.75,332.72l6.58-3.74v-3.36h-6.58Z" transform="translate(0 45.11)"/>
    </g>
    <path id="path378" class="cls-5" d="M160.59,413.11v13.65h-13v12.38h-13.2v35.25h13.2v12.38h13v13.65H208l8.33,5-4,2.4H195.39l-1.46-1.64h15.31l-4.31-4.34H183L193,512.15h20.53l7-4.2,7,4.2H248L258,501.84H236.07l-4.31,4.34h15.3l-1.46,1.64H228.71l-4-2.4,8.33-5h47.37V486.77h13V474.39h13.2V439.14h-13.2V426.76h-13V413.11H233l-8.33-5,4-2.41H245.6l1.46,1.64h-15.3l4.31,4.34H258L248,401.38H227.51l-7,4.21-7-4.21H193L183,411.69h21.9l4.31-4.34H193.93l1.46-1.64h16.89l4,2.41-8.33,5Z" transform="translate(0 45.11)"/>
    <path id="path380" class="cls-7" d="M232.9,499.9h47V486.26h13v-12.4h13.23V439.62H292.9V427.28h-13V413.64h-47l-19.53-11.78h-20.2l-9,9.31h20.51l3.34-3.33H192.8l2.34-2.65h17.31l22.12,13.32H275v13.64h13v12.4h13.22V469H288v12.4H275V495H234.57l-22.12,13.27H195.14l-2.34-2.59h15.26l-3.34-3.33H184.21l9,9.31h20.2ZM206.39,495H166V481.39H153V469H139.78V444.55H153v-12.4h13V418.51h40.41l22.18-13.32h17.25l2.34,2.65H233l3.34,3.33h20.51l-9-9.31h-20.2l-19.53,11.78h-47v13.64h-13v12.34H134.83v34.24h13.23v12.4h13V499.9h47l19.53,11.78h20.2l9-9.31H236.3L233,505.7h15.2l-2.34,2.59H228.57Z" transform="translate(0 45.11)"/>
    <path id="path382" class="cls-1" d="M220.48,410.62l-14,8.39h-40v13.64h-13v12.4H140.27V468.5H153.5v12.4h13v13.63h40l14,8.33,14-8.33h40V480.9h13V468.5h13.22V445.05H287.53v-12.4h-13V419h-40Zm0,3.45,13.16,7.9h37.94v13.64h13V448h13.16v17.58H284.62v12.41h-13v13.63H233.64l-13.16,7.9-13.1-7.9H169.44V477.94h-13V465.53H143.18V448H156.4V435.61h13V422h37.94Z" transform="translate(0 45.11)"/>
    <path id="path384" class="cls-3" d="M271.07,477.44v13.65H233.5l-13,7.8-13-7.8H169.93V477.44h-13V465.06H143.7V448.47h13.2V436.09h13V422.44h37.56l13-7.8,13,7.8h37.57v13.65h13v12.38h13.2v16.59h-13.2v12.38Z" transform="translate(0 45.11)"/>
    <g id="g402">
      <path id="path386" class="cls-6" d="M174.85,472.66v13.21H195.5L174.85,472.2Z" transform="translate(0 45.11)"/>
      <path id="path388" class="cls-6" d="M174.85,440.87V427.66H195.5l-20.65,13.67Z" transform="translate(0 45.11)"/>
      <path id="path390" class="cls-6" d="M266.15,472.66v13.21H245.5l20.65-13.67Z" transform="translate(0 45.11)"/>
      <path id="path392" class="cls-6" d="M266.15,440.87V427.66H245.5l20.65,13.67Z" transform="translate(0 45.11)"/>
      <path id="path394" class="cls-5" d="M175.35,473.13l18.49,12.24H175.35Z" transform="translate(0 45.11)"/>
      <path id="path396" class="cls-5" d="M175.35,440.41l18.49-12.25H175.35Z" transform="translate(0 45.11)"/>
      <path id="path398" class="cls-5" d="M265.65,473.13l-18.49,12.24h18.49Z" transform="translate(0 45.11)"/>
      <path id="path400" class="cls-5" d="M265.65,440.41l-18.49-12.25h18.49Z" transform="translate(0 45.11)"/>
    </g>
    <g id="carp4y">
      <path id="path404" class="cls-6" d="M201.19,453.14V446.4h-2.31l-11-6.9-.14.08-10.92,6.82h-2.3v6.74h-5.2v7.25h5.2v6.74h2.3L187.83,474l11-6.91h2.31v-6.74h7.91v-7.25Z" transform="translate(0 45.11)"/>
      <path id="path406" class="cls-5" d="M187.83,440.08l10.11,6.32H177.71Zm10.11,27.06-10.11,6.31-10.11-6.31Z" transform="translate(0 45.11)"/>
      <path id="path408" class="cls-5" d="M195.49,453.64v6.25H182.88v-6.25Z" transform="translate(0 45.11)"/>
      <g id="g422">
        <path id="path410" class="cls-7" d="M200.69,460.39v6.25H188.08v-6.25Z" transform="translate(0 45.11)"/>
        <path id="path412" class="cls-7" d="M187.58,460.39v6.25H175v-6.25Z" transform="translate(0 45.11)"/>
        <path id="path414" class="cls-7" d="M208.6,453.64v6.25H196v-6.25Z" transform="translate(0 45.11)"/>
        <path id="path416" class="cls-7" d="M182.38,453.64v6.25H169.77v-6.25Z" transform="translate(0 45.11)"/>
        <path id="path418" class="cls-7" d="M200.69,446.9v6.24H188.08V446.9Z" transform="translate(0 45.11)"/>
        <path id="path420" class="cls-7" d="M187.58,446.9v6.24H175V446.9Z" transform="translate(0 45.11)"/>
      </g>
      <g id="g438">
        <path id="path424" class="cls-6" d="M178.91,455v3.47h-5.67V455Z" transform="translate(0 45.11)"/>
        <path id="path426" class="cls-6" d="M184.1,448.28v3.48h-5.66v-3.48Z" transform="translate(0 45.11)"/>
        <path id="path428" class="cls-6" d="M197.21,448.28v3.48h-5.66v-3.48Z" transform="translate(0 45.11)"/>
        <path id="path430" class="cls-6" d="M192,455v3.47h-5.67V455Z" transform="translate(0 45.11)"/>
        <path id="path432" class="cls-6" d="M205.13,455v3.47h-5.67V455Z" transform="translate(0 45.11)"/>
        <path id="path434" class="cls-6" d="M197.21,461.78v3.47h-5.66v-3.47Z" transform="translate(0 45.11)"/>
        <path id="path436" class="cls-6" d="M184.1,461.78v3.47h-5.66v-3.47Z" transform="translate(0 45.11)"/>
      </g>
      <g id="g454">
        <path id="path440" class="cls-4" d="M178.37,455.56h-4.6V458h4.6Z" transform="translate(0 45.11)"/>
        <path id="path442" class="cls-4" d="M183.57,448.82H179v2.4h4.6Z" transform="translate(0 45.11)"/>
        <path id="path444" class="cls-4" d="M196.68,448.82h-4.6v2.4h4.6Z" transform="translate(0 45.11)"/>
        <path id="path446" class="cls-4" d="M191.48,455.56h-4.6V458h4.6Z" transform="translate(0 45.11)"/>
        <path id="path448" class="cls-4" d="M204.59,455.56H200V458h4.6Z" transform="translate(0 45.11)"/>
        <path id="path450" class="cls-4" d="M196.68,462.31h-4.6v2.41h4.6Z" transform="translate(0 45.11)"/>
        <path id="path452" class="cls-4" d="M183.57,462.31H179v2.41h4.6Z" transform="translate(0 45.11)"/>
      </g>
    </g>
    <g id="use457">
      <g>
        <path class="cls-6" d="M239.81,453.14V446.4h2.3l11.06-6.9.13.08,10.92,6.82h2.31v6.74h5.2v7.25h-5.2v6.74h-2.31L253.17,474l-11.06-6.91h-2.3v-6.74H231.9v-7.25Z" transform="translate(0 45.11)"/>
        <path class="cls-5" d="M253.17,440.08l-10.12,6.32h20.23Zm-10.11,27.06,10.11,6.31,10.11-6.31Z" transform="translate(0 45.11)"/>
        <path class="cls-5" d="M245.5,453.64v6.25h12.62v-6.25Z" transform="translate(0 45.11)"/>
        <g>
          <path class="cls-7" d="M240.31,460.39v6.25h12.61v-6.25Z" transform="translate(0 45.11)"/>
          <path class="cls-7" d="M253.42,460.39v6.25H266v-6.25Z" transform="translate(0 45.11)"/>
          <path class="cls-7" d="M232.39,453.64v6.25H245v-6.25Z" transform="translate(0 45.11)"/>
          <path class="cls-7" d="M258.61,453.64v6.25h12.62v-6.25Z" transform="translate(0 45.11)"/>
          <path class="cls-7" d="M240.31,446.9v6.24h12.61V446.9Z" transform="translate(0 45.11)"/>
          <path class="cls-7" d="M253.42,446.9v6.24H266V446.9Z" transform="translate(0 45.11)"/>
        </g>
        <g>
          <path class="cls-6" d="M262.09,455v3.47h5.66V455Z" transform="translate(0 45.11)"/>
          <path class="cls-6" d="M256.89,448.28v3.48h5.66v-3.48Z" transform="translate(0 45.11)"/>
          <path class="cls-6" d="M243.78,448.28v3.48h5.66v-3.48Z" transform="translate(0 45.11)"/>
          <path class="cls-6" d="M249,455v3.47h5.66V455Z" transform="translate(0 45.11)"/>
          <path class="cls-6" d="M235.87,455v3.47h5.66V455Z" transform="translate(0 45.11)"/>
          <path class="cls-6" d="M243.78,461.78v3.47h5.66v-3.47Z" transform="translate(0 45.11)"/>
          <path class="cls-6" d="M256.89,461.78v3.47h5.66v-3.47Z" transform="translate(0 45.11)"/>
        </g>
        <g>
          <path class="cls-4" d="M262.62,455.56h4.6V458h-4.6Z" transform="translate(0 45.11)"/>
          <path class="cls-4" d="M257.42,448.82H262v2.4h-4.6Z" transform="translate(0 45.11)"/>
          <path class="cls-4" d="M244.31,448.82h4.6v2.4h-4.6Z" transform="translate(0 45.11)"/>
          <path class="cls-4" d="M249.51,455.56h4.6V458h-4.6Z" transform="translate(0 45.11)"/>
          <path class="cls-4" d="M236.4,455.56H241V458h-4.6Z" transform="translate(0 45.11)"/>
          <path class="cls-4" d="M244.31,462.31h4.6v2.41h-4.6Z" transform="translate(0 45.11)"/>
          <path class="cls-4" d="M257.42,462.31H262v2.41h-4.6Z" transform="translate(0 45.11)"/>
        </g>
      </g>
    </g>
    <g id="carp4r">
      <path id="path459" class="cls-6" d="M233.86,441.87v6.75h-2.31l-11.05,6.9-.14-.08-10.92-6.82h-2.3v-6.75h-6.56v-7.24h6.56v-6.75h2.3L220.5,421l11.05,6.9h2.31v6.75h6.55v7.24Z" transform="translate(0 45.11)"/>
      <path id="path461" class="cls-7" d="M220.5,454.93l10.11-6.31H210.39Zm10.11-27.05-10.11-6.31-10.11,6.31Z" transform="translate(0 45.11)"/>
      <g id="g477">
        <path id="path463" class="cls-5" d="M233.36,434.63v-6.25H220.75v6.25Z" transform="translate(0 45.11)"/>
        <path id="path465" class="cls-5" d="M220.25,434.63v-6.25H207.64v6.25Z" transform="translate(0 45.11)"/>
        <path id="path467" class="cls-5" d="M239.91,441.37v-6.24H227.3v6.24Z" transform="translate(0 45.11)"/>
        <path id="path469" class="cls-5" d="M226.8,441.37v-6.24H214.19v6.24Z" transform="translate(0 45.11)"/>
        <path id="path471" class="cls-5" d="M213.69,441.37v-6.24H201.08v6.24Z" transform="translate(0 45.11)"/>
        <path id="path473" class="cls-5" d="M233.36,448.12v-6.25H220.75v6.25Z" transform="translate(0 45.11)"/>
        <path id="path475" class="cls-5" d="M220.25,448.12v-6.25H207.64v6.25Z" transform="translate(0 45.11)"/>
      </g>
      <g id="g493">
        <path id="path479" class="cls-6" d="M216.77,429.77v3.47h-5.66v-3.47Z" transform="translate(0 45.11)"/>
        <path id="path481" class="cls-6" d="M229.88,429.77v3.47h-5.66v-3.47Z" transform="translate(0 45.11)"/>
        <path id="path483" class="cls-6" d="M210.22,436.52V440h-5.67v-3.47Z" transform="translate(0 45.11)"/>
        <path id="path485" class="cls-6" d="M223.33,436.52V440h-5.66v-3.47Z" transform="translate(0 45.11)"/>
        <path id="path487" class="cls-6" d="M236.44,436.52V440h-5.66v-3.47Z" transform="translate(0 45.11)"/>
        <path id="path489" class="cls-6" d="M216.77,443.26v3.47h-5.66v-3.47Z" transform="translate(0 45.11)"/>
        <path id="path491" class="cls-6" d="M229.88,443.26v3.47h-5.66v-3.47Z" transform="translate(0 45.11)"/>
      </g>
      <g id="g509">
        <path id="path495" class="cls-4" d="M216.24,430.3h-4.6v2.41h4.6Z" transform="translate(0 45.11)"/>
        <path id="path497" class="cls-4" d="M229.35,430.3h-4.6v2.41h4.6Z" transform="translate(0 45.11)"/>
        <path id="path499" class="cls-4" d="M209.69,437.05h-4.6v2.4h4.6Z" transform="translate(0 45.11)"/>
        <path id="path501" class="cls-4" d="M222.8,437.05h-4.6v2.4h4.6Z" transform="translate(0 45.11)"/>
        <path id="path503" class="cls-4" d="M235.91,437.05h-4.6v2.4h4.6Z" transform="translate(0 45.11)"/>
        <path id="path505" class="cls-4" d="M216.24,443.79h-4.6v2.41h4.6Z" transform="translate(0 45.11)"/>
        <path id="path507" class="cls-4" d="M229.35,443.79h-4.6v2.41h4.6Z" transform="translate(0 45.11)"/>
      </g>
    </g>
    <g id="use512">
      <g>
        <path class="cls-6" d="M233.86,478.9v6.75h-2.31l-11.05,6.9-.14-.08-10.92-6.82h-2.3V478.9h-6.56v-7.24h6.56v-6.75h2.3L220.5,458l11.05,6.9h2.31v6.75h6.55v7.24Z" transform="translate(0 45.11)"/>
        <path class="cls-7" d="M220.5,492l10.11-6.31H210.39Zm10.11-27L220.5,458.6l-10.11,6.31Z" transform="translate(0 45.11)"/>
        <g>
          <path class="cls-5" d="M233.36,471.66v-6.25H220.75v6.25Z" transform="translate(0 45.11)"/>
          <path class="cls-5" d="M220.25,471.66v-6.25H207.64v6.25Z" transform="translate(0 45.11)"/>
          <path class="cls-5" d="M239.91,478.41v-6.25H227.3v6.25Z" transform="translate(0 45.11)"/>
          <path class="cls-5" d="M226.8,478.41v-6.25H214.19v6.25Z" transform="translate(0 45.11)"/>
          <path class="cls-5" d="M213.69,478.41v-6.25H201.08v6.25Z" transform="translate(0 45.11)"/>
          <path class="cls-5" d="M233.36,485.15V478.9H220.75v6.25Z" transform="translate(0 45.11)"/>
          <path class="cls-5" d="M220.25,485.15V478.9H207.64v6.25Z" transform="translate(0 45.11)"/>
        </g>
        <g>
          <path class="cls-6" d="M216.77,466.8v3.47h-5.66V466.8Z" transform="translate(0 45.11)"/>
          <path class="cls-6" d="M229.88,466.8v3.47h-5.66V466.8Z" transform="translate(0 45.11)"/>
          <path class="cls-6" d="M210.22,473.55V477h-5.67v-3.47Z" transform="translate(0 45.11)"/>
          <path class="cls-6" d="M223.33,473.55V477h-5.66v-3.47Z" transform="translate(0 45.11)"/>
          <path class="cls-6" d="M236.44,473.55V477h-5.66v-3.47Z" transform="translate(0 45.11)"/>
          <path class="cls-6" d="M216.77,480.29v3.47h-5.66v-3.47Z" transform="translate(0 45.11)"/>
          <path class="cls-6" d="M229.88,480.29v3.47h-5.66v-3.47Z" transform="translate(0 45.11)"/>
        </g>
        <g>
          <path class="cls-4" d="M216.24,467.33h-4.6v2.41h4.6Z" transform="translate(0 45.11)"/>
          <path class="cls-4" d="M229.35,467.33h-4.6v2.41h4.6Z" transform="translate(0 45.11)"/>
          <path class="cls-4" d="M209.69,474.08h-4.6v2.4h4.6Z" transform="translate(0 45.11)"/>
          <path class="cls-4" d="M222.8,474.08h-4.6v2.4h4.6Z" transform="translate(0 45.11)"/>
          <path class="cls-4" d="M235.91,474.08h-4.6v2.4h4.6Z" transform="translate(0 45.11)"/>
          <path class="cls-4" d="M216.24,480.82h-4.6v2.41h4.6Z" transform="translate(0 45.11)"/>
          <path class="cls-4" d="M229.35,480.82h-4.6v2.41h4.6Z" transform="translate(0 45.11)"/>
        </g>
      </g>
    </g>
    <path id="path515" class="cls-6" d="M149,559.45,198,533.09h45L292,559.45V602.9L243,629.26H198L149,602.9Z" transform="translate(0 45.11)"/>
    <path id="path517" class="cls-3" d="M198.17,533.59l-48.69,26.16v42.82l48.69,26.16h44.68l48.69-26.16V559.75l-48.69-26.16Zm.87,3.52H242l46.1,24.74v38.69L242,625.28H199l-46.1-24.74V561.85Z" transform="translate(0 45.11)"/>
    <path id="path519" class="cls-7" d="M220.75,580.92v43.85h21.11l45.71-24.56V581.42H220.25V537.58H199.14l-45.72,24.56v18.78Z" transform="translate(0 45.11)"/>
    <path id="path521" class="cls-4" d="M220.25,580.92v43.85H199.14l-45.72-24.56V581.42h67.33V537.58h21.11l45.71,24.56v18.78Z" transform="translate(0 45.11)"/>
    <path id="path523" class="cls-6" d="M224.6,622.32V609.64l-4.1,2.6-4.11-2.6v12.68H203.63l8.61-6.31v-9l-13.14-8.32h-9.18v-35h9.18l13.14-8.32v-9L203.63,540h12.76v12.68l4.11-2.6,4.1,2.6V540h12.77l-8.62,6.31v9l13.14,8.32h9.18v35h-9.18L228.75,607v9l8.62,6.31Z" transform="translate(0 45.11)"/>
    <path id="path525" class="cls-7" d="M225.11,540.56v13.08l-4.38-2.77v3.7l20.08,12.77h6.61v13.57h3.15V564.13h-8.83l-13.47-8.51v-9.51l7.6-5.55Zm-34.66,40.85v16.78h8.77l13.54,8.58v9.5l-7.6,5.55h10.75V608.74l4.32,2.78v-3.83L200.15,595H193.6V581.41Z" transform="translate(0 45.11)"/>
    <path id="path527" class="cls-4" d="M205.15,540.56l7.61,5.55v9.51l-13.54,8.51h-8.77v16.78h3.15V567.34h6.55l20.08-12.71v-3.76l-4.32,2.77V540.56Zm42.27,40.85V595h-6.61l-20.08,12.65v3.83l4.38-2.78v13.08h10.76l-7.6-5.55v-9.5l13.47-8.58h8.83V581.41Z" transform="translate(0 45.11)"/>
    <path id="path529" class="cls-5" d="M194.08,594.52h6.22l20.2,12.8,20.19-12.8h6.23V567.83h-6.23L220.5,555l-20.2,12.79h-6.22Z" transform="translate(0 45.11)"/>
    <path id="path531" class="cls-6" d="M234.47,587.52h4.31v-2h-3.24v-3.7h6.93v9.44h-6.64v6.44H222.15v-9.25h6v3.7h-2.33V594h6.3v-3.54l-25.62-15.59h-4.31v2h3.24v3.7h-6.93v-9.44h6.64v-6.44h13.68v9.25h-6v-3.7h2.33v-1.85h-6.3v3.54Zm-2.33-15.59v-3.54h-6.3v1.85h2.33v3.7h-6v-9.25h13.68v6.44h6.64v9.44h-6.93v-3.7h3.24v-2h-4.31l-25.62,15.59V594h6.3v-1.85h-2.33v-3.7h6v9.25H205.16v-6.44h-6.64v-9.44h6.93v3.7h-3.24v2h4.31Z" transform="translate(0 45.11)"/>
    <path id="path533" class="cls-4" d="M232.64,590.14v4.32h-7.3v-2.85h2.33v-2.7h-5v8.25h12.68v-6.44H242v-8.44H236V585h3.24v3h-4.95l-26-15.81v-4.32h7.3v2.85h-2.33v2.7h5v-8.25H205.66v6.44H199v8.44H205v-2.7h-3.24v-3h4.95Zm1.69-15.81h5v3H236v2.7H242v-8.44h-6.64v-6.44H222.65v8.25h5v-2.7h-2.33v-2.85h7.3v4.32l-26,15.81h-4.95v-3H205v-2.7H199v8.44h6.64v6.44h12.68v-8.25h-5v2.7h2.33v2.85h-7.3v-4.32Z" transform="translate(0 45.11)"/>
    <g id="g559">
      <path id="path535" class="cls-6" d="M277.72,583.37v13.7h-5.84v-4.84H266v4.84h-5.84v-13.7H266v4.84h5.89v-4.84Z" transform="translate(0 45.11)"/>
      <path id="path537" class="cls-6" d="M256.82,601.56v13.7H251v-4.84h-5.89v4.84h-5.83v-13.7h5.83v4.84H251v-4.84Z" transform="translate(0 45.11)"/>
      <path id="path539" class="cls-6" d="M277.72,579v-13.7h-5.84v4.84H266v-4.84h-5.84V579H266v-4.84h5.89V579Z" transform="translate(0 45.11)"/>
      <path id="path541" class="cls-6" d="M163.28,583.37v13.7h5.84v-4.84H175v4.84h5.84v-13.7H175v4.84h-5.88v-4.84Z" transform="translate(0 45.11)"/>
      <path id="path543" class="cls-6" d="M163.28,579v-13.7h5.84v4.84H175v-4.84h5.84V579H175v-4.84h-5.88V579Z" transform="translate(0 45.11)"/>
      <path id="path545" class="cls-6" d="M256.82,560.79v-13.7H251v4.84h-5.89v-4.84h-5.83v13.7h5.83V556H251v4.84Z" transform="translate(0 45.11)"/>
      <path id="path547" class="cls-6" d="M184.17,601.56v13.7H190v-4.84h5.89v4.84h5.84v-13.7H195.9v4.84H190v-4.84Z" transform="translate(0 45.11)"/>
      <path id="path549" class="cls-6" d="M184.17,560.79v-13.7H190v4.84h5.89v-4.84h5.84v13.7H195.9V556H190v4.84Z" transform="translate(0 45.11)"/>
      <path id="path551" class="cls-6" d="M260.3,551.19v10.4h19.37Z" transform="translate(0 45.11)"/>
      <path id="path553" class="cls-6" d="M180.69,611.16v-10.4H161.33Z" transform="translate(0 45.11)"/>
      <path id="path555" class="cls-6" d="M180.69,551.19v10.4H161.33Z" transform="translate(0 45.11)"/>
      <path id="path557" class="cls-6" d="M260.3,611.16v-10.4h19.37Z" transform="translate(0 45.11)"/>
    </g>
    <g id="g577">
      <path id="path561" class="cls-5" d="M272.38,591.74v4.83h4.84v-12.7h-4.84v4.84h-6.89v-4.84h-4.84v12.7h4.84v-4.83Z" transform="translate(0 45.11)"/>
      <path id="path563" class="cls-5" d="M251.48,609.92v4.84h4.84v-12.7h-4.84v4.84h-6.89v-4.84h-4.84v12.7h4.84v-4.84Z" transform="translate(0 45.11)"/>
      <path id="path565" class="cls-5" d="M272.38,570.61v-4.83h4.84v12.7h-4.84v-4.84h-6.89v4.84h-4.84v-12.7h4.84v4.83Z" transform="translate(0 45.11)"/>
      <path id="path567" class="cls-5" d="M168.62,591.74v4.83h-4.84v-12.7h4.84v4.84h6.88v-4.84h4.84v12.7H175.5v-4.83Z" transform="translate(0 45.11)"/>
      <path id="path569" class="cls-5" d="M168.62,570.61v-4.83h-4.84v12.7h4.84v-4.84h6.88v4.84h4.84v-12.7H175.5v4.83Z" transform="translate(0 45.11)"/>
      <path id="path571" class="cls-5" d="M251.48,552.43v-4.84h4.84v12.7h-4.84v-4.84h-6.89v4.84h-4.84v-12.7h4.84v4.84Z" transform="translate(0 45.11)"/>
      <path id="path573" class="cls-5" d="M189.51,609.92v4.84h-4.84v-12.7h4.84v4.84h6.89v-4.84h4.84v12.7H196.4v-4.84Z" transform="translate(0 45.11)"/>
      <path id="path575" class="cls-5" d="M189.51,552.43v-4.84h-4.84v12.7h4.84v-4.84h6.89v4.84h4.84v-12.7H196.4v4.84Z" transform="translate(0 45.11)"/>
    </g>
    <path id="path579" class="cls-7" d="M260.83,552v9.07H277.7Zm-97.51,49.24,16.87,9.07v-9.07Z" transform="translate(0 45.11)"/>
    <path id="path581" class="cls-4" d="M180.19,552l-16.87,9.07h16.87Zm80.64,49.24v9.07l16.87-9.07Z" transform="translate(0 45.11)"/>
    <path id="path1986" class="cls-7" d="M299.71,619.41c-.93,4-4.09,7-4.84,11.09-1.51-4.3-2.9-7.89-1.86-12.59.74-3.36,3.57-5.75,3.9-9.21,3.08,2.77,3.74,6.7,2.8,10.71Zm.78,16.63a26,26,0,0,1-10.27,8.17c.79-3.14-.69-5.5-2.34-8-2-3-2.95-6-1.33-9.4a21.5,21.5,0,0,0,2.95,4.82,14.11,14.11,0,0,1,3.19,7.59c2-1.5,2.92-3.75,4-5.92a18.73,18.73,0,0,1,7.4-7.42c-.81,3.49-1.44,7.19-3.61,10.15Zm-14.67,10.68a18.55,18.55,0,0,1,.93,6,41.43,41.43,0,0,1,6.08-4.76c2.79-2.25,6-3.84,8.32-6.71a13.56,13.56,0,0,1-5.59,10.24c-3.63,2.71-8,4.17-11.59,7,.54-3.84-.87-6.92-2.08-10.44a9.78,9.78,0,0,1,2.26-9.37c0,2.85.87,5.29,1.67,8Zm-8.15,13c-.75,2.91-2.84,5.28-4.27,7.88,3.85-1.19,7.24-3.27,10.72-5.24,4.15-2.25,8.65-3.68,12.4-6.66-1.87,6.9-6.5,10.9-13.27,12.94-4.62,1.4-8.52.7-14.14,3a38.82,38.82,0,0,1,3.58-11.32,41.22,41.22,0,0,0,3.8-7.64,9.21,9.21,0,0,1,1.18,7.07Zm-14.16,10.56a17.71,17.71,0,0,1-5.25,5.68c5.47.35,9.86-3.11,15.19-3.26,3.29-.09,6.41.93,9.77.62-4,2.68-8.15,5-13,5.65-6.3.82-12.11-.77-19.06-.15,3.25-2.29,4.87-5.35,6.9-8.65,2.63-4.11,5.12-7,10.25-7.7-2.06,2.31-3.26,5.17-4.8,7.81Zm-19.41,9.06c9.63,1.63,18.85,3.74,28.68,3.84-11,3.83-21.37,4.52-32.28.57-5.9-2.14-10.42-3.28-14.88-3-6.5.46-14.42,3-23.17,12.25L199,690.26c12.55-11.17,29-13.69,45.09-11Z" transform="translate(0 45.11)"/>
  </g>
</svg>
