<svg id="Layer_1" data-name="Layer 1" xmlns="http://www.w3.org/2000/svg" width="370.42mm" height="246.94mm" viewBox="0 0 1050 700">
  <defs>
    <style>
      .cls-1 {
        fill: #20603d;
      }

      .cls-2 {
        fill: #fad201;
      }

      .cls-3 {
        fill: #00a1de;
      }

      .cls-4, .cls-5 {
        fill: #e5be01;
      }

      .cls-5 {
        stroke: #00a1de;
        stroke-width: 3.31px;
      }
    </style>
  </defs>
  <rect class="cls-1" width="1050" height="700"/>
  <rect class="cls-2" width="1050" height="525"/>
  <rect class="cls-3" width="1050" height="350"/>
  <g>
    <g id="h">
      <path id="q" class="cls-4" d="M974.75,182.87l-78.18,4.57,74.33,24.65-76.69-15.82,65.42,43-70-35.13,52.05,58.51-58.51-52.05,35.13,70-43-65.42,15.82,76.69-24.65-74.32-4.57,78.17-1-113.85Z" transform="translate(0 0)"/>
      <path class="cls-4" d="M974.75,182.87l-78.18-4.56,74.33-24.65-76.69,15.82,65.42-43-70,35.13,52.05-58.51-58.51,52.05,35.13-70-43,65.42,15.82-76.69-24.65,74.32L861.87,70l-1,113.85Z" transform="translate(0 0)"/>
    </g>
    <g>
      <path class="cls-4" d="M749,182.87l78.17,4.57-74.33,24.65,76.7-15.82-65.42,43,70-35.13-52.05,58.51,58.51-52.05-35.13,70,43-65.42L832.66,291.9l24.65-74.32,4.56,78.17,1-113.85Z" transform="translate(0 0)"/>
      <path class="cls-4" d="M749,182.87l78.17-4.56-74.33-24.65,76.7,15.82-65.42-43,70,35.13-52.05-58.51,58.51,52.05-35.13-70,43,65.42L832.66,73.85l24.65,74.32L861.87,70l1,113.85Z" transform="translate(0 0)"/>
    </g>
    <circle class="cls-5" cx="861.87" cy="182.87" r="33.35"/>
  </g>
</svg>
