<?xml version="1.0" encoding="utf-8"?>
<!-- Generator: Adobe Illustrator 23.1.0, SVG Export Plug-In . SVG Version: 6.00 Build 0)  -->
<svg version="1.1" id="Layer_1" xmlns="http://www.w3.org/2000/svg" xmlns:xlink="http://www.w3.org/1999/xlink" x="0px" y="0px"
	 viewBox="0 0 1166.7 700" style="enable-background:new 0 0 1166.7 700;" xml:space="preserve">
<style type="text/css">
	.st0{fill:#CE1126;}
	.st1{clip-path:url(#SVGID_2_);fill:#1EB53A;stroke:#FFFFFF;stroke-width:80;stroke-miterlimit:40;}
	.st2{fill:#FFFFFF;}
	.st3{fill:#CE1126;stroke:#1EB53A;stroke-width:3.6;stroke-miterlimit:40;}
</style>
<title>Flag of Burundi</title>
<path class="st0" d="M0,0h1166.7v700H0V0z"/>
<g>
	<defs>
		<rect id="SVGID_1_" x="0" y="0" width="1166.7" height="700"/>
	</defs>
	<clipPath id="SVGID_2_">
		<use xlink:href="#SVGID_1_"  style="overflow:visible;"/>
	</clipPath>
	<path class="st1" d="M-116.7-70v840l1400-840v840L-116.7-70z"/>
</g>
<circle class="st2" cx="583.3" cy="350" r="198.3"/>
<path id="s" class="st3" d="M595.6,226.1h24.5l-12.2,21.2l12.2,21.2h-24.5l-12.3,21.2l-12.2-21.2h-24.5l12.2-21.2l-12.2-21.2h24.5
	l12.2-21.2L595.6,226.1z"/>
<g>
	<path class="st3" d="M506.7,380.1h24.5l-12.2,21.2l12.2,21.2h-24.5l-12.2,21.2l-12.2-21.2h-24.5l12.2-21.2l-12.2-21.2h24.5
		l12.2-21.2L506.7,380.1z"/>
</g>
<g>
	<path class="st3" d="M684.5,380.1H709l-12.2,21.2l12.2,21.2h-24.5l-12.3,21.2L660,422.6h-24.5l12.3-21.2l-12.3-21.2H660l12.2-21.2
		L684.5,380.1z"/>
</g>
</svg>
