<svg id="Layer_1" data-name="Layer 1" xmlns="http://www.w3.org/2000/svg" width="469.19mm" height="246.94mm" viewBox="0 0 1330 700">
  <defs>
    <style>
      .cls-1 {
        fill: #75b2dd;
      }

      .cls-2 {
        fill: #fff;
      }
    </style>
  </defs>
  <rect class="cls-1" width="1330" height="700"/>
  <g id="star">
    <g id="c">
      <path id="t" class="cls-2" d="M665,70l-21.63,66.57,33.28,10.82" transform="translate(0 0)"/>
      <path class="cls-2" d="M665,70l21.63,66.57-33.29,10.82" transform="translate(0 0)"/>
    </g>
    <g>
      <path class="cls-2" d="M731.57,118.37h-70v35" transform="translate(0 0)"/>
      <path class="cls-2" d="M731.57,118.37l-56.63,41.14L654.37,131.2" transform="translate(0 0)"/>
    </g>
    <g>
      <path class="cls-2" d="M706.14,196.63l-21.63-66.57-33.28,10.81" transform="translate(0 0)"/>
      <path class="cls-2" d="M706.14,196.63l-56.63-41.14,20.58-28.32" transform="translate(0 0)"/>
    </g>
    <g>
      <path class="cls-2" d="M623.85,196.63l56.63-41.14-20.57-28.32" transform="translate(0 0)"/>
      <path class="cls-2" d="M623.85,196.63l21.64-66.57,33.28,10.81" transform="translate(0 0)"/>
    </g>
    <g>
      <path class="cls-2" d="M598.42,118.37l56.64,41.14,20.57-28.31" transform="translate(0 0)"/>
      <path class="cls-2" d="M598.42,118.37h70v35" transform="translate(0 0)"/>
    </g>
  </g>
  <g>
    <g>
      <path class="cls-2" d="M945,350l-66.58-21.63-10.81,33.29" transform="translate(0 0)"/>
      <path class="cls-2" d="M945,350l-66.58,21.63-10.81-33.29" transform="translate(0 0)"/>
    </g>
    <g>
      <path class="cls-2" d="M896.63,416.57v-70h-35" transform="translate(0 0)"/>
      <path class="cls-2" d="M896.63,416.57l-41.15-56.63,28.32-20.57" transform="translate(0 0)"/>
    </g>
    <g>
      <path class="cls-2" d="M818.37,391.14l66.57-21.63-10.81-33.28" transform="translate(0 0)"/>
      <path class="cls-2" d="M818.37,391.14l41.14-56.63,28.32,20.58" transform="translate(0 0)"/>
    </g>
    <g>
      <path class="cls-2" d="M818.37,308.85l41.14,56.64,28.32-20.58" transform="translate(0 0)"/>
      <path class="cls-2" d="M818.37,308.85l66.57,21.64-10.81,33.28" transform="translate(0 0)"/>
    </g>
    <g>
      <path class="cls-2" d="M896.63,283.43l-41.15,56.63,28.32,20.57" transform="translate(0 0)"/>
      <path class="cls-2" d="M896.63,283.43v70h-35" transform="translate(0 0)"/>
    </g>
  </g>
  <g>
    <g>
      <path class="cls-2" d="M665,630l21.63-66.57-33.29-10.82" transform="translate(0 0)"/>
      <path class="cls-2" d="M665,630l-21.63-66.57,33.28-10.82" transform="translate(0 0)"/>
    </g>
    <g>
      <path class="cls-2" d="M598.42,581.63h70v-35" transform="translate(0 0)"/>
      <path class="cls-2" d="M598.42,581.63l56.64-41.14,20.57,28.31" transform="translate(0 0)"/>
    </g>
    <g>
      <path class="cls-2" d="M623.85,503.37l21.64,66.57,33.28-10.81" transform="translate(0 0)"/>
      <path class="cls-2" d="M623.85,503.37l56.63,41.14-20.57,28.32" transform="translate(0 0)"/>
    </g>
    <g>
      <path class="cls-2" d="M706.14,503.37l-56.63,41.14,20.58,28.32" transform="translate(0 0)"/>
      <path class="cls-2" d="M706.14,503.37l-21.63,66.57-33.28-10.81" transform="translate(0 0)"/>
    </g>
    <g>
      <path class="cls-2" d="M731.57,581.63l-56.63-41.14L654.37,568.8" transform="translate(0 0)"/>
      <path class="cls-2" d="M731.57,581.63h-70v-35" transform="translate(0 0)"/>
    </g>
  </g>
  <g>
    <g>
      <path class="cls-2" d="M385,350l66.57,21.63,10.82-33.29" transform="translate(0 0)"/>
      <path class="cls-2" d="M385,350l66.57-21.63,10.82,33.29" transform="translate(0 0)"/>
    </g>
    <g>
      <path class="cls-2" d="M433.37,283.43v70h35" transform="translate(0 0)"/>
      <path class="cls-2" d="M433.37,283.43l41.14,56.63L446.2,360.63" transform="translate(0 0)"/>
    </g>
    <g>
      <path class="cls-2" d="M511.63,308.85l-66.57,21.64,10.81,33.28" transform="translate(0 0)"/>
      <path class="cls-2" d="M511.63,308.85l-41.14,56.64-28.32-20.58" transform="translate(0 0)"/>
    </g>
    <g>
      <path class="cls-2" d="M511.63,391.14l-41.14-56.63-28.32,20.58" transform="translate(0 0)"/>
      <path class="cls-2" d="M511.63,391.14l-66.57-21.63,10.81-33.28" transform="translate(0 0)"/>
    </g>
    <g>
      <path class="cls-2" d="M433.37,416.57l41.14-56.63L446.2,339.37" transform="translate(0 0)"/>
      <path class="cls-2" d="M433.37,416.57v-70h35" transform="translate(0 0)"/>
    </g>
  </g>
</svg>
