<?xml version="1.0" encoding="utf-8"?>
<!-- Generator: Adobe Illustrator 23.1.0, SVG Export Plug-In . SVG Version: 6.00 Build 0)  -->
<svg version="1.1" id="Layer_1" xmlns="http://www.w3.org/2000/svg" xmlns:xlink="http://www.w3.org/1999/xlink" x="0px" y="0px"
	 viewBox="0 0 1120 700" style="enable-background:new 0 0 1120 700;" xml:space="preserve">
<style type="text/css">
	.st0{fill:#74ACDF;}
	.st1{fill:#FFFFFF;}
	.st2{fill:#F6B40E;stroke:#85340A;stroke-width:1.5562;}
	.st3{fill:#85340A;}
	.st4{fill:#F6B40E;stroke:#85340A;stroke-width:2.1;}
	.st5{fill:#843511;}
</style>
<rect x="0" y="0" class="st0" width="1120" height="700"/>
<rect x="0" y="233.3" class="st1" width="1120" height="233.3"/>
<g id="rays">
	<path id="ray1" class="st2" d="M555.6,351.8l39.8,86.8c0,0,0.7,1.7,1.8,1.2c1.1-0.5,0.4-2.1,0.4-2.1l-33.2-89.5 M563.5,381.9
		c-0.5,13.2,7.6,20.5,6.6,32.2c-1.1,11.8,5.4,18.5,6.9,23c1.5,4.6-1.6,7.3-0.3,8c1.3,0.7,4.3-3,3.3-9.5c-1-6.5-5.9-8.5-4.7-22.8
		c1.2-14.4-5.9-17.7-4.2-30.9"/>
	<g transform="rotate(22.5 400,250)">
		<path class="st2" d="M555.2,350l3.6,95.4c0,0,0,1.8,1.2,1.8c1.2,0,1.2-1.8,1.2-1.8l3.6-95.4 M551,380.8c-5.5,12-0.8,21.8-6.3,32.3
			c-5.5,10.5-2.1,19.1-2.4,23.9c-0.4,4.8-4.3,6.1-3.3,7.3c1,1.1,5.1-1.1,6.7-7.5c1.6-6.4-2.2-10.1,4.4-22.9
			c6.6-12.9,1.4-18.7,8-30.1"/>
	</g>
	<g transform="rotate(45 400,250)">
		<path class="st2" d="M555.6,348.2l-33.2,89.5c0,0-0.7,1.7,0.4,2.1c1.1,0.5,1.8-1.2,1.8-1.2l39.8-86.8 M539.9,375
			c-9.7,9-9.1,19.9-18.2,27.4c-9.1,7.6-9.2,16.9-11.4,21.2c-2.2,4.3-6.3,4-5.8,5.4c0.5,1.4,5.1,0.9,9.1-4.3
			c3.9-5.3,1.8-10.2,12.8-19.5c11-9.4,8.4-16.7,18.9-24.8"/>
	</g>
	<g transform="rotate(67.5 400,250)">
		<path class="st2" d="M556.6,346.6l-64.9,70c0,0-1.3,1.3-0.4,2.1c0.8,0.8,2.1-0.4,2.1-0.4l70-64.9 M531.8,365.4
			c-12.4,4.6-16,14.9-27.3,18.4c-11.3,3.5-15,12.1-18.6,15.2c-3.7,3.1-7.4,1.3-7.5,2.8c-0.1,1.5,4.4,2.8,10-0.5
			c5.7-3.4,5.5-8.7,19.3-13.1c13.7-4.4,14.1-12.2,26.9-15.7"/>
	</g>
	<path id="ray2" class="st3" d="M566,384.2c0.6,12.7,7.8,18.3,6.4,29.8c3.1-9.1-4.4-16.2-3.9-29.7 M557.8,351l27.3,59.6l-22.9-61.4"
		/>
	<g transform="rotate(22.5 400,250)">
		<path class="st3" d="M552.5,383.9c-4.3,12,0.2,19.9-5.5,30c6.4-7.3,2.2-16.7,7.7-29 M557.6,350.1l2.4,65.5l2.4-65.5"/>
	</g>
	<g transform="rotate(45 400,250)">
		<path class="st3" d="M540.1,378.4c-8.5,9.4-7.4,18.5-16.6,25.6c8.7-4.3,8.4-14.6,18.2-23.8 M557.7,349.2l-22.9,61.4l27.3-59.6"/>
	</g>
	<g transform="rotate(67.5 400,250)">
		<path class="st3" d="M530.7,368.7c-11.5,5.4-13.9,14.2-25.1,17.3c9.6-0.6,13.3-10.2,25.9-15 M558.2,348.4l-44.6,48l48-44.6"/>
	</g>
</g>
<g transform="rotate(90 400,250)">
	<g>
		<path class="st2" d="M558.2,345.6l-86.8,39.8c0,0-1.7,0.7-1.2,1.8c0.5,1.1,2.1,0.4,2.1,0.4l89.5-33.2 M528.1,353.5
			c-13.2-0.5-20.5,7.6-32.2,6.6c-11.8-1.1-18.5,5.4-23,6.9c-4.6,1.5-7.3-1.6-8-0.3c-0.7,1.3,3,4.3,9.5,3.3c6.5-1,8.5-5.9,22.8-4.7
			c14.4,1.2,17.7-5.9,30.9-4.2"/>
		<g transform="rotate(22.5 400,250)">
			<path class="st2" d="M560,345.2l-95.4,3.6c0,0-1.8,0-1.8,1.2c0,1.2,1.8,1.2,1.8,1.2l95.4,3.6 M529.2,341
				c-12-5.5-21.8-0.8-32.3-6.3c-10.5-5.5-19.1-2.1-23.9-2.4c-4.8-0.4-6.1-4.3-7.3-3.3c-1.1,1,1.1,5.1,7.5,6.7
				c6.4,1.6,10.1-2.2,22.9,4.4c12.9,6.6,18.7,1.4,30.1,8"/>
		</g>
		<g transform="rotate(45 400,250)">
			<path class="st2" d="M561.8,345.6l-89.5-33.2c0,0-1.7-0.7-2.1,0.4c-0.5,1.1,1.2,1.8,1.2,1.8l86.8,39.8 M535,329.9
				c-9-9.7-19.9-9.1-27.4-18.2c-7.6-9.1-16.9-9.2-21.2-11.4c-4.3-2.2-4-6.3-5.4-5.8c-1.4,0.5-0.9,5.1,4.3,9.1
				c5.3,3.9,10.2,1.8,19.5,12.8c9.4,11,16.7,8.4,24.8,18.9"/>
		</g>
		<g transform="rotate(67.5 400,250)">
			<path class="st2" d="M563.4,346.6l-70-64.9c0,0-1.3-1.3-2.1-0.4c-0.8,0.8,0.4,2.1,0.4,2.1l64.9,70 M544.6,321.8
				c-4.6-12.4-14.9-16-18.4-27.3c-3.5-11.3-12.1-15-15.2-18.6c-3.1-3.7-1.3-7.4-2.8-7.5c-1.5-0.1-2.8,4.4,0.5,10
				c3.4,5.7,8.7,5.5,13.1,19.3c4.4,13.7,12.2,14.1,15.7,26.9"/>
		</g>
		<path class="st3" d="M525.8,356c-12.7,0.6-18.3,7.8-29.8,6.4c9.1,3.1,16.2-4.4,29.7-3.9 M559,347.8l-59.6,27.3l61.4-22.9"/>
		<g transform="rotate(22.5 400,250)">
			<path class="st3" d="M526.1,342.5c-12-4.3-19.9,0.2-30-5.5c7.3,6.4,16.7,2.2,29,7.7 M559.9,347.6l-65.5,2.4l65.5,2.4"/>
		</g>
		<g transform="rotate(45 400,250)">
			<path class="st3" d="M531.6,330.1c-9.4-8.5-18.5-7.4-25.6-16.6c4.3,8.7,14.6,8.4,23.8,18.2 M560.8,347.7l-61.4-22.9l59.6,27.3"/>
		</g>
		<g transform="rotate(67.5 400,250)">
			<path class="st3" d="M541.3,320.7c-5.4-11.5-14.2-13.9-17.3-25.1c0.6,9.6,10.2,13.3,15,25.9 M561.6,348.2l-48-44.6l44.6,48"/>
		</g>
	</g>
</g>
<g transform="rotate(180 400,250)">
	<g>
		<path class="st2" d="M564.4,348.2l-39.8-86.8c0,0-0.7-1.7-1.8-1.2c-1.1,0.5-0.4,2.1-0.4,2.1l33.2,89.5 M556.5,318.1
			c0.5-13.2-7.6-20.5-6.6-32.2c1.1-11.8-5.4-18.5-6.9-23c-1.5-4.6,1.6-7.3,0.3-8c-1.3-0.7-4.3,3-3.3,9.5c1,6.5,5.9,8.5,4.7,22.8
			c-1.2,14.4,5.9,17.7,4.2,30.9"/>
		<g transform="rotate(22.5 400,250)">
			<path class="st2" d="M564.8,350l-3.6-95.4c0,0,0-1.8-1.2-1.8c-1.2,0-1.2,1.8-1.2,1.8l-3.6,95.4 M569,319.2
				c5.5-12,0.8-21.8,6.3-32.3c5.5-10.5,2.1-19.1,2.4-23.9c0.4-4.8,4.3-6.1,3.3-7.3c-1-1.1-5.1,1.1-6.7,7.5
				c-1.6,6.4,2.2,10.1-4.4,22.9c-6.6,12.9-1.4,18.7-8,30.1"/>
		</g>
		<g transform="rotate(45 400,250)">
			<path class="st2" d="M564.4,351.8l33.2-89.5c0,0,0.7-1.7-0.4-2.1c-1.1-0.5-1.8,1.2-1.8,1.2l-39.8,86.8 M580.1,325
				c9.7-9,9.1-19.9,18.2-27.4c9.1-7.6,9.2-16.9,11.4-21.2c2.2-4.3,6.3-4,5.8-5.4c-0.5-1.4-5.1-0.9-9.1,4.3
				c-3.9,5.3-1.8,10.2-12.8,19.5c-11,9.4-8.4,16.7-18.9,24.8"/>
		</g>
		<g transform="rotate(67.5 400,250)">
			<path class="st2" d="M563.4,353.4l64.9-70c0,0,1.3-1.3,0.4-2.1c-0.8-0.8-2.1,0.4-2.1,0.4l-70,64.9 M588.2,334.6
				c12.4-4.6,16-14.9,27.3-18.4c11.3-3.5,15-12.1,18.6-15.2c3.7-3.1,7.4-1.3,7.5-2.8c0.1-1.5-4.4-2.8-10,0.5
				c-5.7,3.4-5.5,8.7-19.3,13.1c-13.7,4.4-14.1,12.2-26.9,15.7"/>
		</g>
		<path class="st3" d="M554,315.8c-0.6-12.7-7.8-18.3-6.4-29.8c-3.1,9.1,4.4,16.2,3.9,29.7 M562.2,349l-27.3-59.6l22.9,61.4"/>
		<g transform="rotate(22.5 400,250)">
			<path class="st3" d="M567.5,316.1c4.3-12-0.2-19.9,5.5-30c-6.4,7.3-2.2,16.7-7.7,29 M562.4,349.9l-2.4-65.5l-2.4,65.5"/>
		</g>
		<g transform="rotate(45 400,250)">
			<path class="st3" d="M579.9,321.6c8.5-9.4,7.4-18.5,16.6-25.6c-8.7,4.3-8.4,14.6-18.2,23.8 M562.3,350.8l22.9-61.4L557.9,349"/>
		</g>
		<g transform="rotate(67.5 400,250)">
			<path class="st3" d="M589.3,331.3c11.5-5.4,13.9-14.2,25.1-17.3c-9.6,0.6-13.3,10.2-25.9,15 M561.8,351.6l44.6-48l-48,44.6"/>
		</g>
	</g>
</g>
<g transform="rotate(270 400,250)">
	<g>
		<path class="st2" d="M561.8,354.4l86.8-39.8c0,0,1.7-0.7,1.2-1.8c-0.5-1.1-2.1-0.4-2.1-0.4l-89.5,33.2 M591.9,346.5
			c13.2,0.5,20.5-7.6,32.2-6.6c11.8,1.1,18.5-5.4,23-6.9c4.6-1.5,7.3,1.6,8,0.3c0.7-1.3-3-4.3-9.5-3.3c-6.5,1-8.5,5.9-22.8,4.7
			c-14.4-1.2-17.7,5.9-30.9,4.2"/>
		<g transform="rotate(22.5 400,250)">
			<path class="st2" d="M560,354.8l95.4-3.6c0,0,1.8,0,1.8-1.2c0-1.2-1.8-1.2-1.8-1.2l-95.4-3.6 M590.8,359
				c12,5.5,21.8,0.8,32.3,6.3c10.5,5.5,19.1,2.1,23.9,2.4c4.8,0.4,6.1,4.3,7.3,3.3c1.1-1-1.1-5.1-7.5-6.7
				c-6.4-1.6-10.1,2.2-22.9-4.4c-12.9-6.6-18.7-1.4-30.1-8"/>
		</g>
		<g transform="rotate(45 400,250)">
			<path class="st2" d="M558.2,354.4l89.5,33.2c0,0,1.7,0.7,2.1-0.4c0.5-1.1-1.2-1.8-1.2-1.8l-86.8-39.8 M585,370.1
				c9,9.7,19.9,9.1,27.4,18.2c7.6,9.1,16.9,9.2,21.2,11.4c4.3,2.2,4,6.3,5.4,5.8c1.4-0.5,0.9-5.1-4.3-9.1
				c-5.3-3.9-10.2-1.8-19.5-12.8c-9.4-11-16.7-8.4-24.8-18.9"/>
		</g>
		<g transform="rotate(67.5 400,250)">
			<path class="st2" d="M556.6,353.4l70,64.9c0,0,1.3,1.3,2.1,0.4c0.8-0.8-0.4-2.1-0.4-2.1l-64.9-70 M575.4,378.2
				c4.6,12.4,14.9,16,18.4,27.3c3.5,11.3,12.1,15,15.2,18.6c3.1,3.7,1.3,7.4,2.8,7.5c1.5,0.1,2.8-4.4-0.5-10
				c-3.4-5.7-8.7-5.5-13.1-19.3c-4.4-13.7-12.2-14.1-15.7-26.9"/>
		</g>
		<path class="st3" d="M594.2,344c12.7-0.6,18.3-7.8,29.8-6.4c-9.1-3.1-16.2,4.4-29.7,3.9 M561,352.2l59.6-27.3l-61.4,22.9"/>
		<g transform="rotate(22.5 400,250)">
			<path class="st3" d="M593.9,357.5c12,4.3,19.9-0.2,30,5.5c-7.3-6.4-16.7-2.2-29-7.7 M560.1,352.4l65.5-2.4l-65.5-2.4"/>
		</g>
		<g transform="rotate(45 400,250)">
			<path class="st3" d="M588.4,369.9c9.4,8.5,18.5,7.4,25.6,16.6c-4.3-8.7-14.6-8.4-23.8-18.2 M559.2,352.3l61.4,22.9L561,347.9"/>
		</g>
		<g transform="rotate(67.5 400,250)">
			<path class="st3" d="M578.7,379.3c5.4,11.5,14.2,13.9,17.3,25.1c-0.6-9.6-10.2-13.3-15-25.9 M558.4,351.8l48,44.6l-44.6-48"/>
		</g>
	</g>
</g>
<circle class="st4" cx="560" cy="350" r="38.9"/>
<path id="loweyecontour" class="st5" d="M573.3,341.7c-2.7,0-5.2,1.2-6.7,3.5c3,2.7,9.6,3,14.1-0.3
	C578.7,342.8,575.9,341.7,573.3,341.7L573.3,341.7z M573.2,342.3c2.6,0,5,1.1,5.3,2.3c-3,3.3-7.8,3-10.8,0.6
	C569.1,343.1,571.2,342.3,573.2,342.3L573.2,342.3z"/>
<g transform="matrix(-1 0 0 1 800.25 0)">
	<path id="uppalpebra" class="st3" d="M573.8,339.8c-3.9,0-4.8,0.9-6.6,2.4c-1.8,1.5-2.7,1.2-3,1.5c-0.3,0.3,0,1.2,0.6,0.9
		c0.6-0.3,1.8-0.9,3.6-2.4c1.8-1.5,3.6-1.5,5.4-1.5c5.4,0,8.4,4.5,9,4.2C583.3,344.6,579.7,339.8,573.8,339.8L573.8,339.8z"/>
</g>
<g transform="matrix(-1 0 0 1 800.25 0)">
	<path id="eyebrow_nose" class="st3" d="M584.5,341.6c-6.9-6-15.6-6.9-20.3-2.4c-1.2,1.6-1.9,3.2-2.2,5c-0.6,3.4,0.5,7.1,3.1,10.9
		c-0.3,0-0.9,0.3-1.2,0.6c-2.4-4.5-3.2-9.2-2.4-13.6c0.2-1.2,0.5-2.3,0.9-3.4C569,333.3,577.9,332.7,584.5,341.6L584.5,341.6z"/>
</g>
<g transform="translate(18.862)">
	<circle id="pupil" class="st3" cx="573.2" cy="344.6" r="2.7"/>
</g>
<g transform="matrix(-1 0 0 1 800.25 0)">
	<path id="lowpalpebra" class="st3" d="M580.9,346.4c-5.1,3.9-10.2,3.6-13.2,1.8c-3-1.8-3-2.4-2.4-2.4c0.6,0,1.2,0.6,3.6,1.8
		C571.4,348.8,575,348.8,580.9,346.4L580.9,346.4z"/>
</g>
<path class="st3" d="M554,355.4c-1.3,0.2-2.2,1.4-2.2,2.7c0,1.5,1.2,2.7,2.7,2.7c0.9,0,1.7-0.4,2.2-1.1c1,0.8,2.5,0.9,3.2,0.9
	c0.1,0,0.3,0,0.4,0c0.8,0,2.2-0.1,3.2-0.9c0.5,0.7,1.3,1.1,2.2,1.1c1.5,0,2.7-1.2,2.7-2.7c0-1.3-0.9-2.4-2.2-2.7
	c0.7,0.3,1.2,0.9,1.2,1.7c0,1-0.8,1.8-1.8,1.8c-1,0-1.7-0.8-1.8-1.7c-0.3,0.6-1.4,2.3-3.7,2.4c-2.3-0.1-3.4-1.8-3.7-2.4
	c-0.1,1-0.8,1.7-1.8,1.7c-1,0-1.8-0.8-1.8-1.8C552.9,356.3,553.3,355.6,554,355.4L554,355.4z"/>
<path class="st3" d="M557,363.3c-3,0-4.2,2.7-6.9,4.5c1.5-0.6,2.7-1.8,4.8-3c2.1-1.2,3.9,0.3,5.1,0.3h0c1.2,0,3-1.5,5.1-0.3
	c2.1,1.2,3.3,2.4,4.8,3c-2.7-1.8-3.9-4.5-6.9-4.5c-0.6,0-1.8,0.3-3,0.9h0C558.8,363.7,557.6,363.3,557,363.3z"/>
<path class="st3" d="M556,366.9c-1.2,0.1-2.7,0.3-5,1c5.4-1.2,6.6,0.6,9,0.6h0c2.4,0,3.6-1.8,9-0.6c-6-1.8-7.2-0.6-9-0.6h0
	C558.8,367.2,557.9,366.8,556,366.9L556,366.9z"/>
<path class="st3" d="M551.2,367.8c-0.3,0-0.7,0-1.1,0c6.3,0.6,3.3,4.2,9.8,4.2h0c6.6,0,3.6-3.6,9.9-4.2c-6.6-0.6-4.5,3.3-9.9,3.3h0
	C554.9,371.1,556.5,367.7,551.2,367.8L551.2,367.8z"/>
<path class="st3" d="M565.4,377.5c0-3-2.4-5.4-5.4-5.4c-3,0-5.4,2.4-5.4,5.4c0.6-2.5,2.8-4.3,5.4-4.3
	C562.6,373.3,564.8,375,565.4,377.5L565.4,377.5L565.4,377.5z"/>
<path class="st3" d="M535.8,341.6c6.9-6,15.6-6.9,20.3-2.4c1.2,1.6,1.9,3.2,2.2,5c0.6,3.4-0.5,7.1-3.1,10.9c0.3,0,0.9,0.3,1.2,0.6
	c2.4-4.5,3.2-9.2,2.4-13.6c-0.2-1.2-0.5-2.3-0.9-3.4C551.4,333.3,542.4,332.7,535.8,341.6L535.8,341.6z"/>
<path class="st3" d="M546.6,339.8c3.9,0,4.8,0.9,6.6,2.4c1.8,1.5,2.7,1.2,3,1.5c0.3,0.3,0,1.2-0.6,0.9c-0.6-0.3-1.8-0.9-3.6-2.4
	c-1.8-1.5-3.6-1.5-5.4-1.5c-5.4,0-8.4,4.5-9,4.2C537,344.6,540.6,339.8,546.6,339.8L546.6,339.8z"/>
<g transform="translate(-19.181)">
	<path class="st5" d="M546.4,341.7c-2.7,0-5.2,1.2-6.7,3.5c3,2.7,9.6,3,14.1-0.3C551.9,342.8,549.1,341.7,546.4,341.7L546.4,341.7z
		 M546.4,342.3c2.6,0,5,1.1,5.3,2.3c-3,3.3-7.8,3-10.8,0.6C542.2,343.1,544.3,342.3,546.4,342.3L546.4,342.3z"/>
</g>
<circle class="st3" cx="546.8" cy="344.6" r="2.7"/>
<path class="st3" d="M539.4,346.4c5.1,3.9,10.2,3.6,13.2,1.8c3-1.8,3-2.4,2.4-2.4c-0.6,0-1.2,0.6-3.6,1.8
	C549,348.8,545.4,348.8,539.4,346.4L539.4,346.4z"/>
</svg>
