<svg id="Layer_1" data-name="Layer 1" xmlns="http://www.w3.org/2000/svg" xmlns:xlink="http://www.w3.org/1999/xlink" width="499.41mm" height="257.99mm" viewBox="0 0 1415.65 731.3">
  <defs>
    <style>
      .cls-1 {
        fill: none;
      }

      .cls-2 {
        clip-path: url(#clip-path);
      }

      .cls-3, .cls-4, .cls-6, .cls-7, .cls-8 {
        fill: #012169;
      }

      .cls-4, .cls-7 {
        stroke: #fff;
      }

      .cls-4, .cls-6, .cls-7, .cls-8 {
        stroke-miterlimit: 400;
      }

      .cls-4, .cls-8 {
        stroke-width: 70px;
      }

      .cls-5 {
        clip-path: url(#clip-path-2);
      }

      .cls-6, .cls-8 {
        stroke: #c8102e;
      }

      .cls-6 {
        stroke-width: 46.67px;
      }

      .cls-7 {
        stroke-width: 116.67px;
      }

      .cls-9 {
        fill: #fff;
      }
    </style>
    <clipPath id="clip-path" transform="translate(15.65 31.3)">
      <rect class="cls-1" width="1400" height="700"/>
    </clipPath>
    <clipPath id="clip-path-2" transform="translate(15.65 31.3)">
      <path class="cls-1" d="M0,0V175H933.33V466.67ZM700,0H350V466.67H-233.33Z"/>
    </clipPath>
  </defs>
  <g class="cls-2">
    <g>
      <path class="cls-3" d="M0,0H1400V700H0Z" transform="translate(15.65 31.3)"/>
      <path class="cls-4" d="M0,0,700,350M0,350,700,0" transform="translate(15.65 31.3)"/>
      <g class="cls-5">
        <path class="cls-6" d="M0,0,700,350M0,350,700,0" transform="translate(15.65 31.3)"/>
      </g>
      <path class="cls-7" d="M350,0V466.67M0,175H816.67" transform="translate(15.65 31.3)"/>
      <path class="cls-8" d="M350,0V466.67M0,175H816.67" transform="translate(15.65 31.3)"/>
      <path class="cls-3" d="M0,350H700V0h700V700H0Z" transform="translate(15.65 31.3)"/>
    </g>
  </g>
  <g>
    <g id="t">
      <path id="s" class="cls-9" d="M1050,59.5l11.81,36.31h38.06l-30.77,22.31,11.81,36.32L1050,132.12l-30.92,22.32,11.81-36.32-30.77-22.31h38.07Z" transform="translate(15.65 31.3)"/>
      <path class="cls-9" d="M1168.15,84.61l-4,38L1199,138.07l-37.19,7.87-4,38-19.16-33-37.32,7.81,25.56-28.37-19-32.9L1142.59,113Z" transform="translate(15.65 31.3)"/>
      <path class="cls-9" d="M1265.88,155.62l-19.08,33.07L1272.27,217,1235.1,209,1216,242.12l-4.11-37.91-37.27-8,34.89-15.52-4-37.8L1231,171.14Z" transform="translate(15.65 31.3)"/>
    </g>
    <g>
      <path class="cls-9" d="M1326.28,260.23l-30.89,22.46,11.77,36.2-30.73-22.37L1245.54,319l11.67-36.3-30.77-22.51,38.18,0L1276.33,224l11.76,36.2Z" transform="translate(15.65 31.3)"/>
      <path class="cls-9" d="M1338.91,380.36l-37.35,8-4,37.85-19-32.93-37.35,7.95,25.42-28.42-19-33.08,34.88,15.55L1308,327l-4,37.85Z" transform="translate(15.65 31.3)"/>
      <path class="cls-9" d="M1301.58,495.25l-37.36-7.93-19,33-3.93-37.81-37.36-7.92,34.78-15.62L1234.82,421l25.54,28.38,34.71-15.49-19,33Z" transform="translate(15.65 31.3)"/>
    </g>
    <g>
      <path class="cls-9" d="M1220.75,585l-30.9-22.44L1159.06,585l11.78-36.14-30.91-22.44,38.13-.12L1190,490l11.79,36.32,38,0L1209,548.7Z" transform="translate(15.65 31.3)"/>
      <path class="cls-9" d="M1110.4,634.15l-19.11-33.06L1054.06,609l25.46-28.22-19.1-33.06,34.88,15.39,25.6-28.25-4,38,34.74,15.43-37.23,7.92Z" transform="translate(15.65 31.3)"/>
      <path class="cls-9" d="M989.6,634.15l-4-38-37.24-7.92,34.74-15.43-4-38,25.6,28.25,34.88-15.39-19.1,33.06L1045.93,609l-37.23-7.91Z" transform="translate(15.65 31.3)"/>
    </g>
    <g>
      <path class="cls-9" d="M879.25,585,891,548.7l-30.79-22.37,38,0L910,490l11.89,36.22,38.13.12-30.9,22.44L940.94,585l-30.79-22.38Z" transform="translate(15.65 31.3)"/>
      <path class="cls-9" d="M798.42,495.25,824,466.86l-19-33,34.71,15.49L865.18,421l-3.87,37.93,34.78,15.62-37.35,7.92-3.94,37.81-19-33Z" transform="translate(15.65 31.3)"/>
      <path class="cls-9" d="M761.09,380.36,796,364.82,792,327l25.41,28.27,34.88-15.55-19,33.08,25.42,28.42-37.35-7.95-19,32.93-4-37.85Z" transform="translate(15.65 31.3)"/>
    </g>
    <g>
      <path class="cls-9" d="M773.72,260.23H811.9L823.66,224l11.72,36.16,38.18,0-30.77,22.51L854.45,319l-30.88-22.45-30.73,22.37,11.76-36.2Z" transform="translate(15.65 31.3)"/>
      <path class="cls-9" d="M834.11,155.62,869,171.14l25.47-28.29-4,37.8,34.89,15.52-37.26,8L884,242.12,864.9,209,827.73,217l25.47-28.29Z" transform="translate(15.65 31.3)"/>
      <path class="cls-9" d="M931.84,84.61,957.4,113,992.17,97.5l-19,32.9,25.56,28.37L961.38,151l-19.17,33-4-38-37.18-7.87,34.77-15.48Z" transform="translate(15.65 31.3)"/>
    </g>
  </g>
</svg>
