<?xml version="1.0" encoding="utf-8"?>
<!-- Generator: Adobe Illustrator 23.1.0, SVG Export Plug-In . SVG Version: 6.00 Build 0)  -->
<svg version="1.1" id="Layer_1" xmlns="http://www.w3.org/2000/svg" xmlns:xlink="http://www.w3.org/1999/xlink" x="0px" y="0px"
	 viewBox="0 0 1400 700" style="enable-background:new 0 0 1400 700;" xml:space="preserve">
<style type="text/css">
	.st0{fill:#012169;}
	.st1{stroke:#FFFFFF;stroke-width:69.9999;}
	.st2{clip-path:url(#SVGID_2_);stroke:#C8102E;stroke-width:46.6666;}
	.st3{stroke:#FFFFFF;stroke-width:116.6665;}
	.st4{stroke:#C8102E;stroke-width:69.9999;}
	.st5{fill:#FFFFFF;}
	.st6{fill:#006129;stroke:#000000;stroke-width:2.2018;}
	.st7{fill:none;stroke:#FFC72C;stroke-width:2.2018;}
	.st8{fill:#FFC72C;stroke:#000000;stroke-width:1.101;}
	.st9{fill:url(#SVGID_3_);stroke:#000000;stroke-width:1.101;}
	.st10{fill:url(#SVGID_4_);stroke:#000000;stroke-width:1.101;}
	.st11{fill:url(#SVGID_5_);stroke:#000000;stroke-width:1.101;}
	.st12{fill:url(#SVGID_6_);stroke:#000000;stroke-width:1.101;}
	.st13{fill:url(#SVGID_7_);stroke:#000000;stroke-width:1.101;}
	.st14{fill:url(#SVGID_8_);stroke:#000000;stroke-width:1.101;}
	.st15{fill:url(#SVGID_9_);stroke:#000000;stroke-width:1.101;}
	.st16{fill:url(#SVGID_10_);stroke:#000000;stroke-width:1.101;}
	.st17{fill:url(#SVGID_11_);stroke:#000000;stroke-width:1.101;}
	.st18{fill:url(#SVGID_12_);stroke:#000000;stroke-width:1.101;}
	.st19{fill:url(#SVGID_13_);stroke:#000000;stroke-width:1.101;}
	.st20{fill:url(#SVGID_14_);stroke:#000000;stroke-width:1.101;}
	.st21{fill:#FFC6B5;stroke:#000000;stroke-width:1.101;}
	.st22{fill:#FFFFFF;stroke:#000000;stroke-width:1.101;}
	.st23{fill:#9C5100;stroke:#000000;stroke-width:1.101;}
	.st24{fill:none;stroke:#000000;stroke-width:1.101;}
	.st25{fill:none;stroke:#000000;stroke-width:1.101;stroke-linejoin:round;}
	.st26{fill:none;stroke:#000000;stroke-width:1.9817;stroke-linejoin:round;}
	.st27{fill:#FFC72C;stroke:#000000;stroke-width:2.2018;}
	.st28{fill:none;stroke:#000000;stroke-width:2.2018;}
</style>
<rect y="0" class="st0" width="1400" height="700"/>
<path class="st1" d="M0,0l700,350 M700,0L0,350"/>
<g>
	<defs>
		<path id="SVGID_1_" d="M0,0v175h816.7v175H700L0,0z M700,0H350v408.3H0V350L700,0z"/>
	</defs>
	<clipPath id="SVGID_2_">
		<use xlink:href="#SVGID_1_"  style="overflow:visible;"/>
	</clipPath>
	<path class="st2" d="M0,0l700,350 M700,0L0,350"/>
</g>
<path class="st3" d="M350,0v408.3 M0,175h816.7"/>
<path class="st4" d="M350,0v408.3 M0,175h816.7"/>
<path class="st0" d="M0,350h700V0h700v700H0V350z"/>
<g>
	<path class="st5" d="M905.6,168.1l292.1-1.1l-0.5,260.2c0,0,10.3,39.6-122.5,99.7c47.7-4.9,99.7-55.8,99.7-55.8
		s21.1-27.1,31.4-11.9c10.3,15.2,20.1,22.8,27.6,28.7c7.6,6,13.5,22.2,2.2,34.1s-29.3,13.5-34.1-1.1c-7.6,3.8-54.2,60.2-149.6,62.9
		c-97-1.6-150.1-63.4-150.1-63.4s-13,20.6-31.4,4.3c-17.9-21.1-4.3-34.7-4.3-34.7s15.2-8.7,19.5-14.6c7-8.1,9.2-19,21.1-19
		c14.1,1.1,19.5,12.5,19.5,12.5s48.8,51.5,101.4,58c-118.7-56.9-123-92.1-122.5-100.8L905.6,168.1L905.6,168.1z"/>
	<path class="st6" d="M912.7,175.1l278.6-1.6v250.4c0.5,32.5-54.2,65.6-139.8,107.9c-88.3-45.5-139.3-73.2-139.8-108.4L912.7,175.1
		L912.7,175.1z"/>
	<g id="lamp">
		<path class="st7" d="M950.6,212.1L967,188l16.5,24.2"/>
		<path class="st8" d="M970.3,203.1c0,1.8-1.5,3.3-3.3,3.3s-3.3-1.5-3.3-3.3c0-1.8,1.5-3.3,3.3-3.3S970.3,201.3,970.3,203.1z"/>
		<path class="st8" d="M953.7,230l25.5,0.1c0,0,0.4-3.3-2.7-5.3c13.4-1.8,9.9-13.6,21.1-14.3c2.2,0.3-5.8,5-5.8,5s-6.7,4.8-3.7,7.2
			c2.4,1.9,3.5-1.2,3.8-3.5c0.3-2.3,10.8-3.8,9.3-10.5c-2.5-5.5-17.2,3.7-17.2,3.7l-10.5-0.1c-0.7-1.2-3.5-5.9-6.5-5.9
			c-3.5,0.1-6,6-6,6h-15.2h-8.5c0,0-0.8,6.1,11.2,7.2c2.7,3.5,4.8,4.5,7.2,5.4C954.1,226.3,953.7,227.9,953.7,230L953.7,230z"/>
		<path class="st8" d="M955.5,224.8l21.2-0.1"/>
		<path class="st8" d="M945.8,212.3c0,0,1.7,9.9,9.5,12.3"/>
		
			<linearGradient id="SVGID_3_" gradientUnits="userSpaceOnUse" x1="237.1975" y1="617.2938" x2="224.9104" y2="621.3911" gradientTransform="matrix(0.9961 0 0 -2.2526 705.3929 1590.4203)">
			<stop  offset="0" style="stop-color:#FF0000"/>
			<stop  offset="1" style="stop-color:#FFFF00"/>
		</linearGradient>
		<path class="st9" d="M944.5,212.1c0.8-3.8,2.2-4.4,3.8-9.3c0.3-4.7-3.8-4.2-2.6-7.2c2.1-3.3,1-6.4-2.9-8.9
			c0.8,4.3-5.1,8.4-5.1,11.9c0,3.5,3,2.7,2.6,8.1c0.3,3.1-0.8,2.4-1,5.4L944.5,212.1L944.5,212.1z"/>
		<path class="st8" d="M970.1,188.6c0,1.7-1.3,3-3,3s-3-1.3-3-3c0-1.7,1.3-3,3-3C968.7,185.6,970.1,186.9,970.1,188.6z"/>
	</g>
	<g>
		<g>
			<path class="st7" d="M949.7,260.3l16.4-24.2l16.5,24.2"/>
			<path class="st8" d="M969.4,251.3c0,1.8-1.5,3.3-3.3,3.3c-1.8,0-3.3-1.5-3.3-3.3c0-1.8,1.5-3.3,3.3-3.3
				C968,248,969.4,249.5,969.4,251.3z"/>
			<path class="st8" d="M952.8,278.2l25.5,0.1c0,0,0.4-3.3-2.7-5.3c13.4-1.8,9.9-13.6,21.1-14.3c2.2,0.3-5.8,5-5.8,5
				s-6.7,4.8-3.7,7.2c2.4,1.9,3.5-1.2,3.8-3.5c0.3-2.3,10.8-3.8,9.3-10.5c-2.5-5.5-17.2,3.7-17.2,3.7l-10.5-0.1
				c-0.7-1.2-3.5-5.9-6.5-5.9c-3.5,0.1-6,6-6,6h-15.2h-8.5c0,0-0.8,6.1,11.2,7.2c2.7,3.5,4.8,4.5,7.2,5.4
				C953.2,274.5,952.8,276,952.8,278.2L952.8,278.2z"/>
			<path class="st8" d="M954.6,273l21.2-0.1"/>
			<path class="st8" d="M944.9,260.5c0,0,1.7,9.9,9.5,12.3"/>
			
				<linearGradient id="SVGID_4_" gradientUnits="userSpaceOnUse" x1="237.0683" y1="614.2377" x2="224.7812" y2="618.335" gradientTransform="matrix(0.9961 0 0 -2.2526 704.6207 1631.7242)">
				<stop  offset="0" style="stop-color:#FF0000"/>
				<stop  offset="1" style="stop-color:#FFFF00"/>
			</linearGradient>
			<path class="st10" d="M943.6,260.3c0.8-3.8,2.2-4.4,3.8-9.3c0.3-4.7-3.8-4.2-2.6-7.2c2.1-3.3,1-6.4-2.9-8.9
				c0.8,4.3-5.1,8.4-5.1,11.9c0,3.5,3,2.7,2.6,8.1c0.3,3.1-0.8,2.4-1,5.4H943.6L943.6,260.3z"/>
			<path class="st8" d="M969.2,236.8c0,1.7-1.3,3-3,3c-1.7,0-3-1.3-3-3c0-1.7,1.3-3,3-3S969.2,235.1,969.2,236.8z"/>
		</g>
	</g>
	<g>
		<g>
			<path class="st7" d="M949.3,307.8l16.4-24.2l16.5,24.2"/>
			<path class="st8" d="M969.1,298.8c0,1.8-1.5,3.3-3.3,3.3c-1.8,0-3.3-1.5-3.3-3.3c0-1.8,1.5-3.3,3.3-3.3
				C967.6,295.5,969.1,297,969.1,298.8z"/>
			<path class="st8" d="M952.4,325.7l25.5,0.1c0,0,0.4-3.3-2.7-5.3c13.4-1.8,9.9-13.6,21.1-14.3c2.2,0.3-5.8,5-5.8,5
				s-6.7,4.8-3.7,7.2c2.4,1.9,3.5-1.2,3.8-3.5c0.3-2.3,10.8-3.8,9.3-10.5c-2.5-5.5-17.2,3.7-17.2,3.7l-10.5-0.1
				c-0.7-1.2-3.5-5.9-6.5-5.9c-3.5,0.1-6,6-6,6h-15.2h-8.5c0,0-0.8,6.1,11.2,7.2c2.7,3.5,4.8,4.5,7.2,5.4
				C952.8,322,952.4,323.5,952.4,325.7L952.4,325.7z"/>
			<path class="st8" d="M954.2,320.5l21.2-0.1"/>
			<path class="st8" d="M944.5,308c0,0,1.7,9.9,9.5,12.3"/>
			
				<linearGradient id="SVGID_5_" gradientUnits="userSpaceOnUse" x1="237.0153" y1="611.2256" x2="224.7281" y2="615.323" gradientTransform="matrix(0.9961 0 0 -2.2526 704.3036 1672.4332)">
				<stop  offset="0" style="stop-color:#FF0000"/>
				<stop  offset="1" style="stop-color:#FFFF00"/>
			</linearGradient>
			<path class="st11" d="M943.2,307.8c0.8-3.8,2.2-4.4,3.8-9.3c0.3-4.7-3.8-4.2-2.6-7.2c2.1-3.3,1-6.4-2.9-8.9
				c0.8,4.3-5.1,8.4-5.1,11.9c0,3.5,3,2.7,2.6,8.1c0.3,3.1-0.8,2.4-1,5.4H943.2L943.2,307.8z"/>
			<path class="st8" d="M968.8,284.3c0,1.7-1.3,3-3,3s-3-1.3-3-3c0-1.7,1.3-3,3-3C967.5,281.3,968.8,282.6,968.8,284.3z"/>
		</g>
	</g>
	<g>
		<g>
			<path class="st7" d="M980.5,359.2l16.4-24.2l16.5,24.2"/>
			<path class="st8" d="M1000.2,350.2c0,1.8-1.5,3.3-3.3,3.3c-1.8,0-3.3-1.5-3.3-3.3c0-1.8,1.5-3.3,3.3-3.3
				C998.8,347,1000.2,348.4,1000.2,350.2z"/>
			<path class="st8" d="M983.6,377.1l25.5,0.1c0,0,0.4-3.3-2.7-5.3c13.4-1.8,9.9-13.6,21.1-14.3c2.2,0.3-5.8,5-5.8,5
				s-6.7,4.8-3.7,7.2c2.4,1.9,3.5-1.2,3.8-3.5c0.3-2.3,10.8-3.8,9.3-10.5c-2.5-5.5-17.2,3.7-17.2,3.7l-10.5-0.1
				c-0.7-1.2-3.5-5.9-6.5-5.9c-3.5,0.1-6,6-6,6h-15.2h-8.5c0,0-0.8,6.1,11.2,7.2c2.7,3.5,4.8,4.5,7.2,5.4
				C984,373.4,983.6,375,983.6,377.1L983.6,377.1z"/>
			<path class="st8" d="M985.4,371.9l21.2-0.1"/>
			<path class="st8" d="M975.7,359.4c0,0,1.7,9.9,9.5,12.3"/>
			
				<linearGradient id="SVGID_6_" gradientUnits="userSpaceOnUse" x1="241.4852" y1="607.9638" x2="229.198" y2="612.0611" gradientTransform="matrix(0.9961 0 0 -2.2526 731.0197 1716.5193)">
				<stop  offset="0" style="stop-color:#FF0000"/>
				<stop  offset="1" style="stop-color:#FFFF00"/>
			</linearGradient>
			<path class="st12" d="M974.4,359.3c0.8-3.8,2.2-4.4,3.8-9.3c0.3-4.7-3.8-4.2-2.6-7.2c2.1-3.3,1-6.4-2.9-8.9
				c0.8,4.3-5.1,8.4-5.1,11.9c0,3.5,3,2.7,2.6,8.1c0.3,3.1-0.8,2.4-1,5.4H974.4L974.4,359.3z"/>
			<path class="st8" d="M1000,335.7c0,1.7-1.3,3-3,3c-1.7,0-3-1.3-3-3c0-1.7,1.3-3,3-3C998.6,332.7,1000,334.1,1000,335.7z"/>
		</g>
	</g>
	<g>
		<g>
			<path class="st7" d="M945.3,401.3l16.4-24.2l16.5,24.2"/>
			<path class="st8" d="M965,392.3c0,1.8-1.5,3.3-3.3,3.3c-1.8,0-3.3-1.5-3.3-3.3c0-1.8,1.5-3.3,3.3-3.3
				C963.5,389,965,390.5,965,392.3z"/>
			<path class="st8" d="M948.3,419.2l25.5,0.1c0,0,0.4-3.3-2.7-5.3c13.4-1.8,9.9-13.6,21.1-14.3c2.2,0.3-5.8,5-5.8,5
				s-6.7,4.8-3.7,7.2c2.4,1.9,3.5-1.2,3.8-3.5c0.3-2.3,10.8-3.8,9.3-10.5c-2.5-5.5-17.2,3.7-17.2,3.7l-10.5-0.1
				c-0.7-1.2-3.5-5.9-6.5-5.9c-3.5,0.1-6,6-6,6h-15.2H932c0,0-0.8,6.1,11.2,7.2c2.7,3.5,4.8,4.5,7.2,5.4
				C948.8,415.5,948.3,417,948.3,419.2L948.3,419.2z"/>
			<path class="st8" d="M950.2,414l21.2-0.1"/>
			<path class="st8" d="M940.5,401.5c0,0,1.7,9.9,9.5,12.3"/>
			
				<linearGradient id="SVGID_7_" gradientUnits="userSpaceOnUse" x1="236.4322" y1="605.2954" x2="224.145" y2="609.3928" gradientTransform="matrix(0.9961 0 0 -2.2526 700.8187 1752.5833)">
				<stop  offset="0" style="stop-color:#FF0000"/>
				<stop  offset="1" style="stop-color:#FFFF00"/>
			</linearGradient>
			<path class="st13" d="M939.1,401.3c0.8-3.8,2.2-4.4,3.8-9.3c0.3-4.7-3.8-4.2-2.6-7.2c2.1-3.3,1-6.4-2.9-8.9
				c0.8,4.3-5.1,8.4-5.1,11.9c0,3.5,3,2.7,2.6,8.1c0.3,3.1-0.8,2.4-1,5.4L939.1,401.3L939.1,401.3z"/>
			<path class="st8" d="M964.7,377.8c0,1.7-1.3,3-3,3c-1.7,0-3-1.3-3-3c0-1.7,1.3-3,3-3C963.4,374.8,964.7,376.1,964.7,377.8z"/>
		</g>
	</g>
	<g>
		<g>
			<path class="st7" d="M946.2,451l16.4-24.2l16.5,24.2"/>
			<path class="st8" d="M965.9,442c0,1.8-1.5,3.3-3.3,3.3c-1.8,0-3.3-1.5-3.3-3.3c0-1.8,1.5-3.3,3.3-3.3
				C964.5,438.7,965.9,440.2,965.9,442z"/>
			<path class="st8" d="M949.3,468.9l25.5,0.1c0,0,0.4-3.3-2.7-5.3c13.4-1.8,9.9-13.6,21.1-14.3c2.2,0.3-5.8,5-5.8,5
				s-6.7,4.8-3.7,7.2c2.4,1.9,3.5-1.2,3.8-3.5c0.3-2.3,10.8-3.8,9.3-10.5c-2.5-5.5-17.2,3.7-17.2,3.7l-10.5-0.1
				c-0.7-1.2-3.5-5.9-6.5-5.9c-3.5,0.1-6,6-6,6h-15.2h-8.5c0,0-0.8,6.1,11.2,7.2c2.7,3.5,4.8,4.5,7.2,5.4
				C949.7,465.2,949.3,466.8,949.3,468.9L949.3,468.9z"/>
			<path class="st8" d="M951.1,463.7l21.2-0.1"/>
			<path class="st8" d="M941.4,451.2c0,0,1.7,9.9,9.5,12.3"/>
			
				<linearGradient id="SVGID_8_" gradientUnits="userSpaceOnUse" x1="236.5647" y1="602.1428" x2="224.2776" y2="606.2401" gradientTransform="matrix(0.9961 0 0 -2.2526 701.6107 1795.1932)">
				<stop  offset="0" style="stop-color:#FF0000"/>
				<stop  offset="1" style="stop-color:#FFFF00"/>
			</linearGradient>
			<path class="st14" d="M940.1,451c0.8-3.8,2.2-4.4,3.8-9.3c0.3-4.7-3.8-4.2-2.6-7.2c2.1-3.3,1-6.4-2.9-8.9
				c0.8,4.3-5.1,8.4-5.1,11.9c0,3.5,3,2.7,2.6,8.1c0.3,3.1-0.8,2.4-1,5.4L940.1,451L940.1,451z"/>
			<path class="st8" d="M965.7,427.5c0,1.7-1.3,3-3,3c-1.7,0-3-1.3-3-3c0-1.7,1.3-3,3-3S965.7,425.8,965.7,427.5z"/>
		</g>
	</g>
	<g>
		<g>
			<path class="st7" d="M1121.3,212.9l16.4-24.2l16.5,24.2"/>
			<path class="st8" d="M1141,203.9c0,1.8-1.5,3.3-3.3,3.3c-1.8,0-3.3-1.5-3.3-3.3c0-1.8,1.5-3.3,3.3-3.3
				C1139.5,200.6,1141,202.1,1141,203.9z"/>
			<path class="st8" d="M1124.3,230.8l25.5,0.1c0,0,0.4-3.3-2.7-5.3c13.4-1.8,9.9-13.6,21.1-14.3c2.2,0.3-5.8,5-5.8,5
				s-6.7,4.8-3.7,7.2c2.4,1.9,3.5-1.2,3.8-3.5s10.8-3.8,9.3-10.5c-2.5-5.5-17.2,3.7-17.2,3.7l-10.5-0.1c-0.7-1.2-3.5-5.9-6.5-5.9
				c-3.5,0.1-6,6-6,6h-15.2h-8.5c0,0-0.8,6.1,11.2,7.2c2.7,3.5,4.8,4.5,7.2,5.4C1124.8,227.1,1124.3,228.6,1124.3,230.8
				L1124.3,230.8z"/>
			<path class="st8" d="M1126.2,225.6l21.2-0.1"/>
			<path class="st8" d="M1116.5,213.1c0,0,1.7,9.9,9.5,12.3"/>
			
				<linearGradient id="SVGID_9_" gradientUnits="userSpaceOnUse" x1="261.6716" y1="617.244" x2="249.3844" y2="621.3414" gradientTransform="matrix(0.9961 0 0 -2.2526 851.6727 1591.0923)">
				<stop  offset="0" style="stop-color:#FF0000"/>
				<stop  offset="1" style="stop-color:#FFFF00"/>
			</linearGradient>
			<path class="st15" d="M1115.1,212.9c0.8-3.8,2.2-4.4,3.8-9.3c0.3-4.7-3.8-4.2-2.6-7.2c2.1-3.3,1-6.4-2.9-8.9
				c0.8,4.3-5.1,8.4-5.1,11.9c0,3.5,3,2.7,2.6,8.1c0.3,3.1-0.8,2.4-1,5.4L1115.1,212.9L1115.1,212.9z"/>
			<path class="st8" d="M1140.7,189.4c0,1.7-1.3,3-3,3s-3-1.3-3-3c0-1.7,1.3-3,3-3S1140.7,187.7,1140.7,189.4z"/>
		</g>
	</g>
	<g>
		<g>
			<path class="st7" d="M1119.7,260.2l16.4-24.2l16.5,24.2"/>
			<path class="st8" d="M1139.4,251.2c0,1.8-1.5,3.3-3.3,3.3c-1.8,0-3.3-1.5-3.3-3.3c0-1.8,1.5-3.3,3.3-3.3
				C1138,247.9,1139.4,249.4,1139.4,251.2z"/>
			<path class="st8" d="M1122.8,278.1l25.5,0.1c0,0,0.4-3.3-2.7-5.3c13.4-1.8,9.9-13.6,21.1-14.3c2.2,0.3-5.8,5-5.8,5
				s-6.7,4.8-3.7,7.2c2.4,1.9,3.5-1.2,3.8-3.5c0.3-2.3,10.8-3.8,9.3-10.5c-2.5-5.5-17.2,3.7-17.2,3.7l-10.5-0.1
				c-0.7-1.2-3.5-5.9-6.5-5.9c-3.5,0.1-6,6-6,6h-15.2h-8.5c0,0-0.8,6.1,11.2,7.2c2.7,3.5,4.8,4.5,7.2,5.4
				C1123.2,274.4,1122.8,275.9,1122.8,278.1L1122.8,278.1z"/>
			<path class="st8" d="M1124.6,272.9l21.2-0.1"/>
			<path class="st8" d="M1114.9,260.4c0,0,1.7,9.9,9.5,12.3"/>
			
				<linearGradient id="SVGID_10_" gradientUnits="userSpaceOnUse" x1="261.4468" y1="614.2441" x2="249.1596" y2="618.3414" gradientTransform="matrix(0.9961 0 0 -2.2526 850.3287 1631.6383)">
				<stop  offset="0" style="stop-color:#FF0000"/>
				<stop  offset="1" style="stop-color:#FFFF00"/>
			</linearGradient>
			<path class="st16" d="M1113.6,260.2c0.8-3.8,2.2-4.4,3.8-9.3c0.3-4.7-3.8-4.2-2.6-7.2c2.1-3.3,1-6.4-2.9-8.9
				c0.8,4.3-5.1,8.4-5.1,11.9c0,3.5,3,2.7,2.6,8.1c0.3,3.1-0.8,2.4-1,5.4L1113.6,260.2L1113.6,260.2z"/>
			<path class="st8" d="M1139.2,236.7c0,1.7-1.3,3-3,3s-3-1.3-3-3c0-1.7,1.3-3,3-3S1139.2,235,1139.2,236.7z"/>
		</g>
	</g>
	<g>
		<g>
			<path class="st7" d="M1117.6,308.6l16.4-24.2l16.5,24.2"/>
			<path class="st8" d="M1137.3,299.5c0,1.8-1.5,3.3-3.3,3.3c-1.8,0-3.3-1.5-3.3-3.3c0-1.8,1.5-3.3,3.3-3.3
				C1135.9,296.3,1137.3,297.7,1137.3,299.5z"/>
			<path class="st8" d="M1120.7,326.4l25.5,0.1c0,0,0.4-3.3-2.7-5.3c13.4-1.8,9.9-13.6,21.1-14.3c2.2,0.3-5.8,5-5.8,5
				s-6.7,4.8-3.7,7.2c2.4,1.9,3.5-1.2,3.8-3.5c0.3-2.3,10.8-3.8,9.3-10.5c-2.5-5.5-17.2,3.7-17.2,3.7l-10.5-0.1
				c-0.7-1.2-3.5-5.9-6.5-5.9c-3.5,0.1-6,6-6,6h-15.2h-8.5c0,0-0.8,6.1,11.2,7.2c2.7,3.5,4.8,4.5,7.2,5.4
				C1121.1,322.7,1120.7,324.3,1120.7,326.4L1120.7,326.4z"/>
			<path class="st8" d="M1122.5,321.2l21.2-0.1"/>
			<path class="st8" d="M1112.8,308.7c0,0,1.7,9.9,9.5,12.3"/>
			
				<linearGradient id="SVGID_11_" gradientUnits="userSpaceOnUse" x1="261.1469" y1="611.1777" x2="248.8598" y2="615.275" gradientTransform="matrix(0.9961 0 0 -2.2526 848.5367 1673.0813)">
				<stop  offset="0" style="stop-color:#FF0000"/>
				<stop  offset="1" style="stop-color:#FFFF00"/>
			</linearGradient>
			<path class="st17" d="M1111.5,308.6c0.8-3.8,2.2-4.4,3.8-9.3c0.3-4.7-3.8-4.2-2.6-7.2c2.1-3.3,1-6.4-2.9-8.9
				c0.8,4.3-5.1,8.4-5.1,11.9c0,3.5,3,2.7,2.6,8.1c0.3,3.1-0.8,2.4-1,5.4H1111.5L1111.5,308.6z"/>
			<path class="st8" d="M1137.1,285c0,1.7-1.3,3-3,3s-3-1.3-3-3c0-1.7,1.3-3,3-3S1137.1,283.4,1137.1,285z"/>
		</g>
	</g>
	<g>
		<g>
			<path class="st7" d="M1119.9,356.1l16.4-24.2l16.5,24.2"/>
			<path class="st8" d="M1139.7,347.1c0,1.8-1.5,3.3-3.3,3.3s-3.3-1.5-3.3-3.3c0-1.8,1.5-3.3,3.3-3.3S1139.7,345.3,1139.7,347.1z"/>
			<path class="st8" d="M1123,374l25.5,0.1c0,0,0.4-3.3-2.7-5.3c13.4-1.8,9.9-13.6,21.1-14.3c2.2,0.3-5.8,5-5.8,5s-6.7,4.8-3.7,7.2
				c2.4,1.9,3.5-1.2,3.8-3.5c0.3-2.3,10.8-3.8,9.3-10.5c-2.5-5.5-17.2,3.7-17.2,3.7l-10.5-0.1c-0.7-1.2-3.5-5.9-6.5-5.9
				c-3.5,0.1-6,6-6,6h-15.2h-8.5c0,0-0.8,6.1,11.2,7.2c2.7,3.5,4.8,4.5,7.2,5.4C1123.5,370.3,1123,371.9,1123,374L1123,374z"/>
			<path class="st8" d="M1124.9,368.8l21.2-0.1"/>
			<path class="st8" d="M1115.1,356.3c0,0,1.7,9.9,9.5,12.3"/>
			
				<linearGradient id="SVGID_12_" gradientUnits="userSpaceOnUse" x1="261.4843" y1="608.1612" x2="249.1971" y2="612.2585" gradientTransform="matrix(0.9961 0 0 -2.2526 850.5527 1713.8513)">
				<stop  offset="0" style="stop-color:#FF0000"/>
				<stop  offset="1" style="stop-color:#FFFF00"/>
			</linearGradient>
			<path class="st18" d="M1113.8,356.2c0.8-3.8,2.2-4.4,3.8-9.3c0.3-4.7-3.8-4.2-2.6-7.2c2.1-3.3,1-6.4-2.9-8.9
				c0.8,4.3-5.1,8.4-5.1,11.9c0,3.5,3,2.7,2.6,8.1c0.3,3.1-0.8,2.4-1,5.4L1113.8,356.2L1113.8,356.2z"/>
			<path class="st8" d="M1139.4,332.6c0,1.7-1.3,3-3,3c-1.7,0-3-1.3-3-3c0-1.7,1.3-3,3-3S1139.4,330.9,1139.4,332.6z"/>
		</g>
	</g>
	<g>
		<g>
			<path class="st7" d="M1119.4,403.7l16.4-24.2l16.5,24.2"/>
			<path class="st8" d="M1139.2,394.7c0,1.8-1.5,3.3-3.3,3.3c-1.8,0-3.3-1.5-3.3-3.3c0-1.8,1.5-3.3,3.3-3.3
				C1137.7,391.4,1139.2,392.9,1139.2,394.7z"/>
			<path class="st8" d="M1122.5,421.5l25.5,0.1c0,0,0.4-3.3-2.7-5.3c13.4-1.8,9.9-13.6,21.1-14.3c2.2,0.3-5.8,5-5.8,5
				s-6.7,4.8-3.7,7.2c2.4,1.9,3.5-1.2,3.8-3.5c0.3-2.3,10.8-3.8,9.3-10.5c-2.5-5.5-17.2,3.7-17.2,3.7l-10.5-0.1
				c-0.7-1.2-3.5-5.9-6.5-5.9c-3.5,0.1-6,6-6,6h-15.2h-8.5c0,0-0.8,6.1,11.2,7.2c2.7,3.5,4.8,4.5,7.2,5.4
				C1122.9,417.8,1122.5,419.4,1122.5,421.5L1122.5,421.5z"/>
			<path class="st8" d="M1124.3,416.4l21.2-0.1"/>
			<path class="st8" d="M1114.6,403.8c0,0,1.7,9.9,9.5,12.3"/>
			
				<linearGradient id="SVGID_13_" gradientUnits="userSpaceOnUse" x1="261.4093" y1="605.1447" x2="249.1221" y2="609.2419" gradientTransform="matrix(0.9961 0 0 -2.2526 850.1047 1754.6212)">
				<stop  offset="0" style="stop-color:#FF0000"/>
				<stop  offset="1" style="stop-color:#FFFF00"/>
			</linearGradient>
			<path class="st19" d="M1113.3,403.7c0.8-3.8,2.2-4.4,3.8-9.3c0.3-4.7-3.8-4.2-2.6-7.2c2.1-3.3,1-6.4-2.9-8.9
				c0.8,4.3-5.1,8.4-5.1,11.9c0,3.5,3,2.7,2.6,8.1c0.3,3.1-0.8,2.4-1,5.4L1113.3,403.7L1113.3,403.7z"/>
			<path class="st8" d="M1138.9,380.2c0,1.7-1.3,3-3,3s-3-1.3-3-3c0-1.7,1.3-3,3-3S1138.9,378.5,1138.9,380.2z"/>
		</g>
	</g>
	<g>
		<g>
			<path class="st7" d="M1119.7,451.5l16.4-24.2l16.5,24.2"/>
			<path class="st8" d="M1139.4,442.5c0,1.8-1.5,3.3-3.3,3.3c-1.8,0-3.3-1.5-3.3-3.3c0-1.8,1.5-3.3,3.3-3.3
				C1138,439.2,1139.4,440.7,1139.4,442.5z"/>
			<path class="st8" d="M1122.8,469.4l25.5,0.1c0,0,0.4-3.3-2.7-5.3c13.4-1.8,9.9-13.6,21.1-14.3c2.2,0.3-5.8,5-5.8,5
				s-6.7,4.8-3.7,7.2c2.4,1.9,3.5-1.2,3.8-3.5c0.3-2.3,10.8-3.8,9.3-10.5c-2.5-5.5-17.2,3.7-17.2,3.7l-10.5-0.1
				c-0.7-1.2-3.5-5.9-6.5-5.9c-3.5,0.1-6,6-6,6h-15.2h-8.5c0,0-0.8,6.1,11.2,7.2c2.7,3.5,4.8,4.5,7.2,5.4
				C1123.2,465.7,1122.8,467.2,1122.8,469.4L1122.8,469.4z"/>
			<path class="st8" d="M1124.6,464.2l21.2-0.1"/>
			<path class="st8" d="M1114.9,451.7c0,0,1.7,9.9,9.5,12.3"/>
			
				<linearGradient id="SVGID_14_" gradientUnits="userSpaceOnUse" x1="261.4468" y1="602.1115" x2="249.1596" y2="606.2089" gradientTransform="matrix(0.9961 0 0 -2.2526 850.3287 1795.6152)">
				<stop  offset="0" style="stop-color:#FF0000"/>
				<stop  offset="1" style="stop-color:#FFFF00"/>
			</linearGradient>
			<path class="st20" d="M1113.6,451.5c0.8-3.8,2.2-4.4,3.8-9.3c0.3-4.7-3.8-4.2-2.6-7.2c2.1-3.3,1-6.4-2.9-8.9
				c0.8,4.3-5.1,8.4-5.1,11.9c0,3.5,3,2.7,2.6,8.1c0.3,3.1-0.8,2.4-1,5.4H1113.6L1113.6,451.5z"/>
			<path class="st8" d="M1139.2,428c0,1.7-1.3,3-3,3s-3-1.3-3-3c0-1.7,1.3-3,3-3S1139.2,426.3,1139.2,428z"/>
		</g>
	</g>
	<g>
		<path class="st8" d="M1068.5,474c0,0,6.7,15.3,14.2,5.9c7.6-9.4,4.8-13.5,4.8-13.5l-17-9.2l-5,10.5L1068.5,474L1068.5,474z"/>
		<path class="st21" d="M1083.1,472c0,0,1.1,0.2,2-1.5c0.9-1.7-2-2.4-3.3-4.3l-1.5,3L1083.1,472z"/>
		<path class="st21" d="M1044.6,467.9l-15,8.1c0,0-7.4,1.5-7.9,0c-0.6-1.5,0.2-2.8,4.1-3c3.9-0.2,14.4-9.8,14.4-9.8L1044.6,467.9
			L1044.6,467.9z"/>
		<path class="st21" d="M1044.8,202c0,0,0.4,3.5,0.6,5.4c0.2,1.8-3,5.7-3.1,5.5c-0.2-0.2-1.7,0.2-1.5,1.3c0.2,1.1,2.4,1.5,2.4,1.5
			s-0.9,3.9,0,4.1c0.9,0.2-2.4,5,0,6.3c2.4,1.3,6.5,3,8.3,2.6c1.8-0.4,0,7.2,0,7.2l-5.2,11.1l28.5-3l-5.9-9.4c0,0-2.8-1.8-2-7.2
			c0.7-5.4-0.4-29.6-0.4-29.6l-20.3-2.8L1044.8,202L1044.8,202z"/>
		<path class="st21" d="M1039.7,244.1c0,0-9.2,4.3-8.9,15.7c-2.4,11.1-3.7,22.2-3.7,22.2s-10.9,12.4-14.2,16.8
			c-3.3,4.4-8.3,13.5-10.2,15.9c-1.8,2.4-9.1,10.3-8.9,13.3c0.2,3-1.7,16.1,5.5,17.6c1.8,0.7,7.8-15.2,7.8-15.2s0.4-6.8-1.7-8.1
			c-2-1.3,4.4-5.7,4.4-5.7s12.4-9.1,15.2-11.3c2.8-2.2,10.3-10.7,10.3-10.7L1039.7,244.1L1039.7,244.1z"/>
		<path class="st22" d="M1050.2,235.5c0,0,2.4,6.5,7.8,5.4c5.4-1.1,11.6-6.1,11.6-6.1s5-0.2,5.7,0.6c0.7,0.7,13.5,13.1,13.1,17
			c-0.4,3.9-5.9,2.8-7.9,5.4c-2,2.6-5.4,9.1-4.4,13.9s3.7,11.1,3.3,13.5c-0.4,2.4-2.4,3.1-2.4,4.4c0,1.3,1.7,3.5,1.7,5.9
			c0,2.4-2.2,5.9-1.8,8.3c0.4,2.4,0.6,9.4,0.6,9.4l-0.6,32.5c0,0,1.8,1.1,2,3c0.2,1.8,12.6,55.6,12.6,55.6s-0.6,1.7-1.8,1.5
			c-1.3-0.2,5,8.3,5.2,10.7c0.2,2.4,6.5,21.3,6.3,23.8c-0.2,2.6-1.1,8.3-1.7,8.5c-0.6,0.2,4.1,11.8,3.3,13.7
			c-0.7,1.8-8.3,1.7-8.3,1.7l-2-0.4c0,0,0.2,2.4-1.3,2.6c-1.5,0.2-12.4-0.6-12.4-0.6s-3.1,4.8-5,4.6c-1.8-0.2-4.3-3.5-4.8-3
			c-0.6,0.6,1.7,3.7,1.1,4.6c-0.6,0.9-10,3-11.8-1.5c-1.8-4.4,1.1-3.3,0.6-4.3c-0.6-0.9-4.8-3.3-6.1-2.6c-1.3,0.7,3.3,1.8,3.1,3.7
			c-0.2,1.8-4.1,4.6-5.5,4.6s-5-6.8-10.2-6.1c-5.2,0.7-8.5,2-8.5,2s-6.1,2.6-8.7,2c-2.6-0.6-3.7-2.6-3.7-3.7c0-1.1,1.8-5.9,1.7-7.4
			c-0.2-1.5-1.7-3-1.7-5.2c0-2.2,4.3-9.8,4.3-9.8l-0.2-34c0,0-3.9,0-4.1-2.4c-0.2-2.4,5.9-53.8,6.8-57.1c0.9-3.3,3.3-15.2,3.3-15.2
			s-2.8,1.3-3,0s8.3-30.7,8.3-30.7s1.5-14.6,1.5-18.5c0-3.9-0.7-9.2-0.7-9.2s-7.6-3.2-7.8-8.1c-0.7-7.8,7.2-12.2,8.1-14.8
			c0.9-2.6,3.7-10.3,3.7-10.3S1043.5,236.6,1050.2,235.5z"/>
		<path class="st8" d="M1047.4,470.2c0,0-17.9,9.4-20.5,10.2c-2.6,0.7-4.3-3.1-1.7-3.9c2.6-0.7,6.7-1.1,6.7-1.1s-6.1-4.8-5.9-5
			c0.2-0.2,8.3-3.1,8.5-3.1s2.6,4.8,4.3,4.4c1.7-0.4,6.5-4.1,6.5-4.1S1047.8,470.5,1047.4,470.2z"/>
		<path class="st21" d="M1072.7,475.3c1.7,2.2,2.4,6,6.2,3.8c3.9-2.2-2-6.3-2-6.3L1072.7,475.3L1072.7,475.3z"/>
		<path class="st21" d="M1079.8,475c0,0,1.8,1.5,3.5-0.2c1.7-1.7-3.3-5.2-3.3-5.2l-2.4,2.8L1079.8,475z"/>
		<path class="st21" d="M1087.7,253.1c0.2,0,6.1,18.3,6.8,22.9c0.7,4.6,3.1,23.1,2.2,25.7c-0.9,2.6-10.3,15-11.5,18.1
			c-1.1,3.1-7.8,15.2-7.8,15.2s-1.7,11.8-2.4,12.4c-0.7,0.6,1.9,3.5,1.7,4.4c-0.4,1.1-5.4,6.3-7.6,5.7c-2.2-0.6-5.7-3.1-5.9-5.5
			c-0.2-2.4,0.2-10.3,1.8-12.4c1.7-2,10.3-22.5,10.9-23.8c0.6-1.3,7.9-17.4,8.1-20.1c0.2-2.8-2.3-9.2-4.9-11.5
			C1073.5,267,1075.7,256.6,1087.7,253.1L1087.7,253.1z"/>
		<path class="st23" d="M1044.3,200.9c0,0,4.1,0.6,6.3-0.7c2.2-1.3,4.8-1.8,6.7,0.7c1.8,2.6,3.1,2.4,3.1,2.4s-2.8,6.8,0,7.6
			c2.8,0.7,4.1,0.7,4.3,1.7c0.2,0.9-2.4,3-1.7,3.9c0.7,0.9,2,2,2.2,2.8s-1.7,3.9-1.1,4.6c0.6,0.7,2.2,3.7,3.3,3.7
			c1.1,0,0.4,4.6,3.7,3.5c3.3-1.1,3.1-4.1,3.1-4.1s3.5-0.6,4.4-3.7c0.9-3.1,3.1-3.9,3.1-3.9s4.4-2.4-1.5-6.1c0-25.9-17-23.1-17-23.1
			s-2-4.6-5.4-4.1c-3.3,0.6-3.5,4.4-5.9,4.1c-2.4-0.4-3-2-3.1-1.8c-0.2,0.2-2.2,3.9-2.2,4.8c0,0.9-6.5-1.3-5.9,3.5
			C1041.3,201.5,1044.5,201.3,1044.3,200.9L1044.3,200.9z"/>
		<g>
			<path class="st24" d="M1074.2,242.7c0,0-16.4,10.5-16.1,14.2"/>
			<path class="st24" d="M1077.9,244.5c0,0-3.7,4.1-3.9,4.1"/>
			<path class="st24" d="M1082.9,248.9c0,0-8.1,6.7-6.8,10.9"/>
			<path class="st24" d="M1044.5,241.7c0,0-2.4,5-1.8,6.7c0.6,1.7,4.6,7.9,5.2,11.8c0.6,3.9,0,6.7,0,6.7"/>
			<path class="st24" d="M1040.2,251c0,0,0.7,5.9,1.8,7c1.1,1.1,4.1,6.1,4.4,8.1"/>
			<path class="st24" d="M1038.7,275.6c0,0,4.8,2.4,9.2-6.8"/>
			<path class="st24" d="M1055.2,262.3c-0.2,0-3.5,9.1,2.4,12.4c5.9,3.3,10.3,3,12.9,2c2.6-0.9,5.4-2.6,5.4-2.6"/>
			<path class="st24" d="M1052.6,273.3c0,0,0.4,12.2,18.3,24.2"/>
			<path class="st24" d="M1053.3,284.8c0,0-0.2,10.7,6.8,15.5"/>
			<path class="st24" d="M1049.6,272.2c0,0-5.4,15.9-9.6,17.6"/>
			<path class="st24" d="M1048,283.9c0,0-0.2,11.5-1.7,15.5"/>
			<path class="st24" d="M1044.8,302.2c0,0,3.7,4.6,7.8,4.3c4.1-0.4,5.7-5.2,8.5-4.4c2.8,0.7,5.4,3,11.8,2.4"/>
			<path class="st24" d="M1063.7,309.2c0,0,0,9.4,1.7,10.3c1.7,0.9,0.9,9.6,0.9,9.6"/>
			<path class="st24" d="M1041.1,304.8c0,0-0.2,8.9-1.3,12c-1.1,3.1-3.3,8.5-3,13.1"/>
			<path class="st24" d="M1029.9,335.1c0.9-0.4,4.1-3.1,4.1-3.1"/>
			<path class="st24" d="M1035.6,334c0,0-7.9,34-5.7,54.3"/>
			<path class="st24" d="M1037.4,335.6c0,0-4.1,25.5-2.2,30.3"/>
			<path class="st24" d="M1035.4,334.9c0.2,0,15.5,1.1,15.5,1.1"/>
			<path class="st24" d="M1053.1,334c0,0,4.3,2.2,10.2,1.8"/>
			<path class="st24" d="M1051.3,346.3c0,0-0.7,43.6-1.8,53.2"/>
			<path class="st24" d="M1074,356.3c0,0,4.8,38.3,7.6,41.8"/>
			<path class="st24" d="M1064.8,361.1c0,0,3,33.8,4.6,36.8"/>
			<path class="st24" d="M1022.8,409.7c0,0,5.7-1.8,10.9-7.4c5.9,7.9,15,0.4,15,0.4s14,9.6,20.3-1.1c9.6,6.3,14.4-0.9,14.4-0.9
				s3.5,5.4,6.1,4.8"/>
			<path class="st24" d="M1074.2,409.2c0,0,7.2,33.8,17.9,43.4"/>
			<path class="st24" d="M1037.1,405.7c0,0,0.9,28.3,2.6,48.2"/>
			<path class="st24" d="M1035.8,437.6c0,0-0.9,18.5-2,19.8"/>
			<path class="st24" d="M1024.9,459.2c0,0,2,7.9,12.2,0.6c10.2-7.4,10.3,2.8,10.7,3.9c0.4,1.1,2,9.1,5.9,2.4"/>
			<path class="st24" d="M1061.8,455.2c0,0-1.7,16.4,12.9,4.4s17-0.2,17.4,3.5"/>
			<path class="st24" d="M1062,194.6c0,0-1.3,8.1,7.4,7.4c-1.1,4.4,2.2,5.9,2.2,5.9"/>
			<path class="st24" d="M1078.1,212.9c0.2,0,3.9,2.4-0.2,5.4"/>
			<path class="st24" d="M1065.5,219.4c0,0,1.8,2.2,3.9,1.7c2-0.6,5.4,2,5.4,2s2.8,0.9,3.1,0.4"/>
			<path class="st24" d="M1054.3,226.4c0,0,6.3,2.4,10.3-7.6"/>
			<path class="st24" d="M1042.6,215.9l3.7,0.2"/>
			<path class="st24" d="M1001.6,332.4l0.3,8.1"/>
			<path class="st24" d="M994,331.8c0,0,5.2,8.7,4.8,13.3"/>
			<path class="st25" d="M1043.2,219.6h3.3l-3,1.3"/>
			<path class="st25" d="M1063.6,350c0,0,3.9-0.4,3.8,6.1c2.5-8.1,7.5-8.2,7.5-8.2"/>
			<path class="st26" d="M1047.8,209.2c0.6,0,2.6-0.7,3-0.2C1051.1,209.6,1048.5,210,1047.8,209.2z"/>
		</g>
	</g>
	<g>
		<path class="st27" d="M1050.3,535c78-2.2,128.5-58.5,127.9-59.1c-0.5-0.5,10.3-15.7,19-13.5c8.7,2.2,21.1,27.6,36.3,33.1
			c7.6,11.9-2.2,22.8-5.4,24.9c-3.3,2.2-17.9,8.1-20.1-0.5c-2.2-8.7-6.5-7-6.5-7s-69.4,67.7-149.6,65c-82.9,0.5-151.2-65-151.2-65
			l-6,6.5c0,0-6.5,7-9.8,6.5s-17.3-9.8-18.4-19c-1.1-9.2,8.7-15.2,8.7-15.2s23.8-18.4,26.6-28.2c5.4-5.4,15.7,3.8,15.7,3.8
			S980.4,539.3,1050.3,535L1050.3,535z"/>
		<path class="st28" d="M873.7,493.1c0,0,6.4-1.7,8.8,1c2.4,2.7,18.6,18.6,18.6,18.6"/>
		<path class="st28" d="M888.4,500.6l-6.4,4.8c0,0,16.2,3.2,12.6,13.9"/>
		<path class="st28" d="M1227.7,492.5c0,0-3.2-1.7-8.3,2c-5.1,3.8-17.8,18.1-17.8,18.1"/>
		<path class="st28" d="M1213.2,500.2l7,5.4c0,0-14.6,1-11.4,14.8"/>
	</g>
	<g>
		<path d="M956.3,510.3c-0.4,1.2-1.5,0-2.5,0.2c-2.4,0.1-4.5,1.7-6.6,2.8c-7.2,4.2-14.3,8.3-21.5,12.5c-0.7-0.2-0.6-0.8-0.4-1.4
			c1.9-8.9,3.9-17.9,5.7-26.8c0.3-1.6,0.8-3.5-0.7-4.7c-0.6-0.4,0.4-1.3,0.8-0.5c3.7,2.6,7.3,5.2,11,7.8c-0.4,1-1,0.3-1.6-0.1
			c-1.5-1.5-3.4-0.1-3.3,1.7c-1.3,5.9-2.6,11.8-3.9,17.7c4.9-2.9,9.8-5.7,14.6-8.6c1.7-0.8,3-3.1,1.2-4.5c-0.7-0.4-1.8-1.5-0.7-1.7
			C951.1,506.6,953.7,508.4,956.3,510.3z"/>
		<path d="M964,547.6c-0.2,0.7-0.5,0.8-1.1,0.3c-4.3-2.4-8.6-4.7-12.9-7.1c0.2-0.7,0.5-0.8,1.1-0.3c1.2,0.8,3.1,1.1,3.9-0.3
			c1.7-2.7,3.2-5.6,4.7-8.5c2.2-4,4.4-7.9,6.5-12c1-1.4-0.1-3.2-1.5-3.8c-0.5-0.3-1.2-0.4-0.6-1c0.3-0.4,0.9,0.4,1.3,0.5
			c4.1,2.3,8.3,4.5,12.4,6.8c-0.2,0.7-0.5,0.8-1.1,0.3c-1.2-0.8-3.1-1.1-3.9,0.3c-1.7,2.7-3.2,5.6-4.7,8.5c-2.2,4-4.4,7.9-6.5,12
			c-1,1.4,0.1,3.2,1.5,3.8C963.4,547.3,963.7,547.5,964,547.6z"/>
		<path d="M1013.7,536c-1.2,3.3-2.3,6.6-3.5,9.9c-1.4-0.2-0.5-2-0.9-3c-0.5-4.4-3.8-8.6-8.2-9.5c-3.4-0.9-7,0.8-9,3.6
			c-3,4.1-4.9,9.2-5.1,14.3c-0.2,2.9,1.2,5.9,3.7,7.4c2,1.3,4.5,1.9,6.8,1.8c0.8-2.5,1.8-4.9,2.6-7.4c0.3-1.6-1.4-2.6-2.8-3
			c-0.2-0.5,0.3-1.1,0.9-0.5c4.3,1.5,8.6,3.1,12.9,4.6c-0.2,1.6-1.9-0.1-2.9,0.5c-1.6,0.6-1.7,2.5-2.3,3.9c-0.5,1.5-1,2.9-1.6,4.4
			c-5.8,0.4-11.7-0.8-16.7-3.7c-4.9-3.1-8.2-9-7.2-14.8c0.7-5,3.9-9.7,8.4-11.9c4.2-2.2,9.4-2.2,13.8-0.5c2.4,0.8,4.5,2.3,6.3,4
			c1.1,1.5,3.3,1.5,4.2-0.2C1013.2,535.8,1013.4,535.9,1013.7,536"/>
		<path d="M1034.6,569.6c0,0.5-0.1,1-0.7,0.7c-4.9-0.7-9.8-1.5-14.7-2.2c0-0.5,0.1-1,0.7-0.7c1.3,0.3,3,0.2,3.6-1.1
			c0.6-2,0.7-4.1,1.1-6.1c0.8-5.7,1.7-11.3,2.6-17c0.3-1.2-0.1-2.6-1.4-3.1c-0.7-0.3-1.5-0.4-2.3-0.5c0-0.5,0.1-1,0.7-0.7
			c4.9,0.7,9.8,1.5,14.7,2.2c0,0.5-0.1,1-0.7,0.7c-1.3-0.3-3-0.2-3.6,1.1c-0.6,2-0.7,4.1-1.1,6.1c-0.8,5.7-1.7,11.3-2.6,17
			c-0.3,1.2,0.1,2.6,1.4,3.1C1033.1,569.4,1033.9,569.4,1034.6,569.6L1034.6,569.6z"/>
		<path d="M1074.4,559.9c-0.2,3.5-0.4,7-0.6,10.5c-8.8,0.4-17.5,0.9-26.3,1.3c-0.2-0.6,0-1,0.7-0.8c1.3,0,3-0.5,3.2-2
			c0.1-2.6-0.2-5.2-0.3-7.8c-0.3-5.2-0.5-10.4-0.8-15.5c0.1-1.5-1.2-2.7-2.7-2.6c-0.5-0.2-1.7,0.5-1.6-0.4c-0.2-0.7,0.7-0.3,1.1-0.5
			c4.9-0.2,9.8-0.5,14.6-0.7c0.2,0.6,0,1-0.7,0.8c-1.4,0-3.1,0.3-3.5,1.8c-0.2,2.2,0.1,4.5,0.2,6.8c0.3,5.4,0.5,10.8,0.9,16.2
			c-0.1,1.4,1,2.7,2.5,2.4c2.1-0.1,4.3,0,6.4-0.6c2.9-0.8,4.5-3.7,5.3-6.4c0.5-0.7,0.1-2.6,1.2-2.5
			C1074.2,559.9,1074.3,559.9,1074.4,559.9"/>
		<path d="M1095,534.6c-0.7,0-0.4,0.9-0.6,1.4c-1.2,8.7-2.3,17.5-3.5,26.2c-0.3,1.9-0.8,4.2-2.7,5.2c-0.7,0.2-0.1,1.4,0.6,0.7
			c2.9-0.9,5.9-1.8,8.8-2.6c-0.1-1.5-1.8-0.1-2.7-0.4c-2,0-2.3-2.4-2-4c0.1-1,0.2-2.1,0.4-3.1c3.4-1,6.7-2,10.1-3
			c1.3,1.6,2.7,3.1,3.9,4.8c0.9,1.6-1.2,2.4-2.5,2.7c-0.6,0.1-0.1,1.3,0.5,0.7c4.4-1.3,8.8-2.6,13.2-4c0-1.5-2-0.1-2.8-1.1
			c-2.5-1.9-4.3-4.4-6.3-6.7C1104.5,545.8,1099.7,540.2,1095,534.6L1095,534.6z M1094.9,545.1c2.4,2.8,4.8,5.7,7.1,8.5
			c-2.9,0.9-5.7,1.7-8.6,2.6C1093.9,552.4,1094.4,548.7,1094.9,545.1z"/>
		<path d="M1139.9,514.9c1.3,2.4,2.5,4.7,3.8,7.1c-1.2,1-1.8-1.3-2.9-1.7c-1.8-1.5-4.4-1.8-6.4-0.5c-0.8,0.4-1.6,0.9-2.4,1.3
			c3.8,7.1,7.6,14.2,11.5,21.2c0.6,1.8,2.8,2.2,4.3,1.1c0.6-0.4,1.1-0.6,1.2,0.2c-1.9,1.1-4.1,2.2-6.1,3.3c-2.5,1.4-5.1,2.7-7.6,4.1
			c-0.6-0.6-0.2-0.9,0.5-1.2c1.8-0.7,2.5-2.9,1.3-4.4c-3.7-7-7.5-14-11.3-21c-2.1,1.2-4.8,2.2-5.3,4.8c-0.6,1.6,0.3,3.7,0.3,5.1
			c-0.6,0.7-0.8-0.2-1.1-0.7c-1.1-2-2.2-4-3.2-6C1124.3,523.4,1132.1,519.1,1139.9,514.9L1139.9,514.9z"/>
		<path d="M1157.7,504.4c2.4,3.2,4.8,6.4,7.3,9.6c1.7-1.1,3.1-3,2.6-5.1c0.2-1.6-2.1-3.5-1.3-4.6c0.5-0.3,0.8,0.9,1.3,1.2
			c2.8,3.7,5.5,7.3,8.3,11c-1.1,1.2-1.9-1.3-3-1.6c-1.6-1.2-3.9-1.7-5.6-0.5c-1.3,0.4-1.2,1.1-0.4,1.9c1.9,2.5,3.8,5.1,5.8,7.6
			c1.3,1.2,2.9-0.1,3.9-0.9c2.8-1.9,5.2-4.9,5.1-8.4c0.2-1.6-0.8-3.3-0.8-4.6c0.6-0.8,0.8,0.5,1.2,0.9c1.3,2.4,2.6,4.7,3.9,7.1
			c-6.8,5.1-13.6,10.3-20.5,15.4c-0.9-0.6,0-1,0.5-1.4c1.9-1.2,1.3-3.6-0.1-4.9c-4.4-5.8-8.7-11.6-13.1-17.3
			c-1.1-1.5-3.2-0.7-4.4,0.3c-0.5,0.7-1.2-0.7-0.3-0.8c6.4-4.9,12.9-9.7,19.3-14.6c1.8,2.3,3.5,4.7,5.3,7c-1.2,1.2-2.3-1.5-3.7-1.7
			c-2.5-1.3-5.6-0.3-7.6,1.4C1160.2,502.5,1159,503.5,1157.7,504.4"/>
	</g>
</g>
</svg>
