<?xml version="1.0" encoding="utf-8"?>
<!-- Generator: Adobe Illustrator 23.1.0, SVG Export Plug-In . SVG Version: 6.00 Build 0)  -->
<svg version="1.1" id="Layer_1" xmlns="http://www.w3.org/2000/svg" xmlns:xlink="http://www.w3.org/1999/xlink" x="0px" y="0px"
	 viewBox="0 0 1166.7 700" style="enable-background:new 0 0 1166.7 700;" xml:space="preserve">
<style type="text/css">
	.st0{fill:#0067C6;}
	.st1{fill:#FFFFFF;}
	.st2{fill:#C8A400;}
	.st3{clip-path:url(#SVGID_2_);}
	.st4{opacity:0.62;fill:#17C0EB;stroke:#17C0EB;stroke-width:0.1505;enable-background:new    ;}
	.st5{fill:#FF0000;}
	.st6{fill:#FF6600;}
	.st7{fill:#FFFF00;}
	.st8{fill:#00FF00;}
	.st9{fill:#00CCFF;}
	.st10{fill:#0000FF;}
	.st11{fill:#800080;}
	.st12{fill:#510000;}
	.st13{fill:url(#SVGID_3_);}
	.st14{fill:#FF2A2A;}
	.st15{fill:url(#SVGID_4_);}
	.st16{fill:#910000;}
	.st17{fill:#FF3A3A;}
	.st18{fill:url(#h_1_);}
	.st19{fill:url(#SVGID_5_);}
	.st20{fill:url(#SVGID_6_);}
	.st21{fill:url(#SVGID_7_);}
	.st22{fill:url(#SVGID_8_);}
	.st23{fill:url(#SVGID_9_);}
	.st24{fill:url(#SVGID_10_);}
	.st25{fill:url(#SVGID_11_);}
	.st26{fill:url(#SVGID_12_);}
	.st27{fill:url(#SVGID_13_);}
	.st28{fill:url(#SVGID_14_);}
	.st29{fill:#97C924;}
	.st30{fill:#EDE71F;}
	.st31{fill:#C6CB24;}
	.st32{fill:#9ECB34;}
	.st33{fill:url(#SVGID_15_);}
	.st34{fill:url(#SVGID_16_);}
	.st35{fill:url(#SVGID_17_);}
	.st36{fill:#93BC30;}
	.st37{fill:#CCD11E;}
	.st38{fill:url(#SVGID_18_);}
	.st39{fill:url(#SVGID_19_);}
	.st40{fill:url(#m_1_);}
	.st41{fill:url(#SVGID_20_);}
	.st42{fill:url(#SVGID_21_);}
	.st43{fill:url(#SVGID_22_);}
	.st44{fill:url(#SVGID_23_);}
	.st45{fill:url(#SVGID_24_);}
	.st46{fill:url(#SVGID_25_);}
	.st47{fill:url(#SVGID_26_);}
	.st48{fill:url(#SVGID_27_);}
</style>
<path class="st0" d="M0,0h1166.7v700H0V0z"/>
<path class="st1" d="M0,233.3h1166.7v233.3H0V233.3z"/>
<g>
	<path class="st2" d="M478.3,349.2L490,350c0-0.6,0.1-1.1,0.1-1.7l-4.6-0.3c0.1-1.9,0.3-3.7,0.4-5.6c1.6-1.2,3.2-2.3,4.9-3.5
		l0.1-2.2l-5.1,3.7c-0.2-1.2-0.8-2.5-2.1-2.9c-1.1-0.4-2.4-0.5-3.3,0.3c-1.2,0.9-1.4,2.4-1.5,3.7
		C478.7,344.1,478.5,346.7,478.3,349.2L478.3,349.2z M480.1,347.6c0.1-1.9,0.2-3.8,0.4-5.7c0.1-0.9,0.3-2,1.1-2.6
		c0.7-0.5,1.8-0.1,2.2,0.7c0.6,1.5,0.3,3.1,0.3,4.6l-0.2,3.3C482.6,347.8,481.4,347.7,480.1,347.6L480.1,347.6z M479.8,331.3
		l11.4,2.7l2.6-11.1l-1.6-0.4L490,332l-3.5-0.8l2-8.5l-1.6-0.4l-2,8.5l-3.1-0.7l2.1-9.1l-1.6-0.4L479.8,331.3L479.8,331.3z
		 M483.9,316.1l11,3.8l0.6-1.6l-4.3-1.5c0.6-1.7,1.2-3.3,1.7-5c0.4-1.4,0.7-3-0.1-4.3c-0.7-0.9-1.8-1.5-3-1.5
		c-1.3,0.1-2.3,1-2.9,2.1c-0.8,1.6-1.3,3.3-1.9,4.9L483.9,316.1L483.9,316.1z M486.1,315c0.6-1.7,1.1-3.3,1.8-5
		c0.4-0.9,0.9-1.9,1.9-2.2c0.8-0.2,1.7,0.4,1.8,1.3c0.2,1.6-0.5,3-1,4.5l-0.9,2.6L486.1,315z M490,302c2.1,1.2,4.1,2.4,6.2,3.6
		c1.2,0.6,2.7,1,3.9,0.3c1.7-0.9,2.7-2.6,3.6-4.3c0.7-1.4,1.1-3.2,0.3-4.6c-0.9-1.4-2.5-2.1-3.9-3l-4-2.4l-0.9,1.5
		c2,1.2,4,2.3,5.9,3.5c0.9,0.6,1.7,1.6,1.6,2.8c-0.2,1.4-1,2.6-1.8,3.7c-0.6,0.9-1.7,1.6-2.9,1.4c-1.2-0.2-2.2-1-3.2-1.6l-4-2.3
		L490,302L490,302z M498.4,288.2l9.3,7.1c1.4-1.9,2.9-3.8,4.3-5.6c0.8-1.2,1.6-2.7,1-4.2c-0.5-1.2-1.7-2.1-3-2.1
		c-0.6-0.1-1.3,0.4-1.6,0.6c0.3-1.2-0.7-2.4-1.8-2.7c-1.4-0.5-2.8,0.4-3.7,1.4c-1.1,1.2-2,2.5-3,3.7L498.4,288.2L498.4,288.2z
		 M500.8,287.9c1.1-1.4,2.1-2.8,3.2-4.2c0.5-0.6,1.4-1.3,2.2-0.8c0.7,0.3,0.9,1.3,0.6,1.9c-0.6,1.2-1.5,2.2-2.3,3.3l-1.3,1.7
		L500.8,287.9L500.8,287.9z M504.6,290.8c1.1-1.4,2.2-2.9,3.4-4.3c0.6-0.6,1.4-1.4,2.3-1.3c0.8,0.2,1.4,1.1,1.1,1.9
		c-0.5,1.5-1.6,2.7-2.5,4l-1.4,1.9L504.6,290.8L504.6,290.8z M508.9,275.9l8,8.5l6.9-6.5l-1.1-1.2l-5.5,5.2L517,282l-0.1-0.1
		l-6.8-7.2L508.9,275.9z M519.2,266.9l7.1,9.2l1.4-1.1l-7.1-9.2L519.2,266.9z M529.7,259.8c-1.2,0.7-2.1,1.6-2.8,2.5
		c-0.7,1-1.1,2-1.2,3.1c-0.1,1.1,0.2,2.1,0.9,3.1c0.6,0.9,1.4,1.7,2.3,2.2c1,0.5,2,0.7,3.1,0.6c1.1-0.1,2.4-0.6,3.8-1.5
		c1.4-0.8,2.3-1.8,2.9-2.9c0.6-1.1,0.7-2.2,0.5-3.4l-1.6,0.6c0.4,2.3-1.1,3.5-2.8,4.5c-2.6,1.6-5.2,1.5-6.8-0.9
		c-1.6-2.7,0.2-5,2.4-6.4c1.6-1,3.2-1.7,4.7-0.7l1.3-1.1c-0.9-0.6-1.9-0.9-3-0.8C532.2,258.5,531,259,529.7,259.8L529.7,259.8z
		 M543.4,252.9l-1.2,13.1l1.8-0.7l0.4-4.1l0,0l5.9-2.4l3.1,2.7l1.8-0.7l-9.9-8.6L543.4,252.9L543.4,252.9z M545,254.2l3.9,3.4
		l-4.3,1.8L545,254.2L545,254.2z M569,245.7l0.7,11.6c2.1-0.1,4.2-0.2,6.3-0.4c1.7-0.2,3.4-0.6,4.6-1.9c1.5-1.6,1.7-4,1-6.1
		c-0.5-1.8-2.1-3.1-3.9-3.5c-1.8-0.3-3.6-0.1-5.4,0L569,245.7L569,245.7z M570.8,247.2c1.7-0.1,3.3-0.3,5-0.3c1,0,1.9,0.3,2.7,0.8
		c1.2,0.8,1.9,2.2,1.7,3.6c-0.1,1.6-1.3,3.1-2.9,3.5c-0.9,0.2-1.8,0.3-2.8,0.4l-3.3,0.2L570.8,247.2L570.8,247.2z M585.3,245
		l-0.7,11.6l11.3,0.6l0.1-1.7c-3.2-0.2-6.4-0.4-9.6-0.6c0.1-1.2,0.1-2.4,0.2-3.5l8.7,0.5l0.1-1.6c-2.9-0.2-5.8-0.3-8.7-0.5l0.2-3.1
		c3.1,0.2,6.2,0.4,9.3,0.5l0.1-1.7L585.3,245L585.3,245z M615.7,249.9l-4.2,10.9l1.5,0.6l3.3-8.6l0.2-0.4l0.2,0.5l4,11.6l2,0.8
		l4.2-10.9l-1.5-0.6l-3.3,8.6l-0.2,0.4l-0.2-0.5l-4-11.6L615.7,249.9z M631.4,256.6l-5.3,10.4l-1.6-0.8l5.3-10.4L631.4,256.6z
		 M640.2,261.7c-1.1-0.7-2.3-1.2-3.5-1.5c-1.2-0.2-2.3-0.2-3.3,0.2c-1,0.4-1.8,1.1-2.5,2.1c-0.6,0.9-0.9,1.9-1,3
		c-0.1,1.1,0.2,2.1,0.8,3.1c0.6,1,1.6,1.9,3,2.8c1.3,0.9,2.6,1.4,3.9,1.4c1.2,0.1,2.3-0.3,3.3-1l-1.2-1.2c-1.9,1.4-3.6,0.5-5.3-0.6
		c-2.6-1.7-3.5-4.1-2-6.5c1.8-2.6,4.6-1.9,6.8-0.5c1.6,1,2.8,2.2,2.6,3.9l1.5,0.7c0.2-1,0-2.1-0.5-3
		C642.4,263.5,641.5,262.6,640.2,261.7L640.2,261.7z M651.3,270.1l-12.2,4.9l1.5,1.3l3.8-1.5l0,0l4.8,4.2l-1,4l1.5,1.3l3.1-12.8
		L651.3,270.1L651.3,270.1z M650.8,272.2l-1.2,5l-3.5-3.1L650.8,272.2L650.8,272.2z M660.1,278.2l-9,7.4l1.1,1.3l3.5-2.9
		c1.2,1.4,2.4,2.9,3.6,4.3c-0.4,2-0.8,3.9-1.1,5.9l1.4,1.7l1.2-6.2c1,0.8,2.5,1.2,3.7,0.6c1-0.5,1.9-1.4,2-2.6
		c0.1-1.6-1-2.9-1.9-4.1C663.1,281.8,661.6,280,660.1,278.2z M659.9,280.6c1.3,1.6,2.6,3.1,3.8,4.7c0.6,0.8,1.2,2,0.6,2.9
		c-0.5,0.8-1.7,0.8-2.4,0.2c-1.4-1-2.4-2.4-3.5-3.7L657,283L659.9,280.6L659.9,280.6z M673.8,296.8l-13.1,0.6l1,1.7l4.1-0.2l0,0
		l3.2,5.5l-2.2,3.4l1,1.7l7.1-11L673.8,296.8L673.8,296.8z M672.7,298.6l-2.8,4.3l-2.3-4.1L672.7,298.6L672.7,298.6z M681.3,312.2
		c-0.7-2-1.9-4-3.8-5c-2.2-1.1-5-0.6-6.6,1.3c-1.3,1.6-1.4,3.8-1.1,5.8c0.4,2.2,1.4,4.4,3,6.1l-0.9,0.3l0.6,1.6l5.5-2l-2.1-5.9
		l-1.3,0.5l1.6,4.3l-1.9,0.7c-1.6-1.4-2.5-3.5-3-5.5c-0.4-1.5-0.4-3.4,0.8-4.6c1.3-1.4,3.7-1.8,5.4-0.6c1.6,1.2,2.5,3.1,3,4.9
		c0.3,1.2,0.3,2.7-0.7,3.7c-0.3,0.2,0.2,0.5,0.2,0.7l0.4,0.7c1-0.8,1.6-2,1.6-3.3C682,314.6,681.7,313.4,681.3,312.2L681.3,312.2z
		 M684.6,321.4l-6.5,1.3c-1.2,0.2-2.1,0.6-2.7,1.1c-0.6,0.5-1,1.2-1.2,2.2c-0.2,0.9-0.2,2.1,0.1,3.5c0,0,0,0,0,0
		c0.3,1.4,0.7,2.5,1.2,3.3c0.5,0.8,1.2,1.3,1.9,1.6c0.8,0.2,1.7,0.3,2.9,0l6.5-1.3l-0.3-1.7l-6.4,1.2c-2.9,0.6-3.8-0.9-4.3-3.5l0,0
		c-0.5-2.6-0.2-4.3,2.7-4.9l6.4-1.2L684.6,321.4L684.6,321.4z M688.2,341.2l-12.1-5.2l0.1,2l3.7,1.6v0l0.5,6.3l-3.5,2.1l0.1,2
		l11.2-6.8L688.2,341.2L688.2,341.2z M686.4,342.3L682,345l-0.3-4.7L686.4,342.3L686.4,342.3z M487.4,371.4l-1.7,0.4l1.9,7.1
		l1.7-0.4L487.4,371.4z M679.3,371.4l1.7,0.4l-1.9,7.1l-1.7-0.4L679.3,371.4z M505.4,401.3l-13,1.5l1.1,1.6l4-0.5l0,0l3.5,5.3
		l-2,3.6l1.1,1.6l6.3-11.5L505.4,401.3z M504.4,403.2l-2.5,4.5l-2.6-3.9L504.4,403.2z M510.4,408.4l-8.3,7.8l1.1,1.2l7-6.6
		l-3.7,10.1l1.3,1.4l10-3l-6.9,6.4l1.1,1.2l8.3-7.8l-1.7-1.8l-10.2,3l3.8-9.9L510.4,408.4z M522.5,420.8l-7,9.3l9.1,6.8l1-1.3
		l-7.7-5.8l2.1-2.8l7,5.2l1-1.3l-7-5.2l1.9-2.5l7.4,5.6l1-1.3L522.5,420.8L522.5,420.8z M533.9,429.2l-5.5,10.3
		c0.5,0.3,1,0.5,1.5,0.8l2.2-4c1.7,0.9,3.3,1.8,5,2.6c0.4,2,0.8,3.9,1.2,5.9l1.9,1l-1.3-6.2c1.2,0.4,2.8,0.2,3.6-0.9
		c0.7-0.8,1.2-2,0.9-3.1c-0.4-1.5-1.9-2.3-3.2-3.1C538.2,431.4,536,430.3,533.9,429.2L533.9,429.2z M534.7,431.4
		c1.8,1,3.6,1.8,5.3,2.9c0.8,0.5,1.8,1.3,1.7,2.4c-0.1,1-1.1,1.5-2,1.3c-1.7-0.3-3.1-1.3-4.7-2.1l-2.1-1.1L534.7,431.4L534.7,431.4z
		 M547.1,436l-4.4,10.8l1.6,0.7l4.4-10.8L547.1,436z M557.6,439.7c-1.3-0.4-2.5-0.6-3.7-0.5c-1.2,0.1-2.2,0.4-3.1,1.1
		s-1.5,1.5-1.8,2.6c-0.3,1-0.4,2.1-0.2,3.1c0.2,1.1,0.7,2,1.6,2.8c0.8,0.8,2,1.4,3.6,2c1.5,0.5,2.9,0.6,4.1,0.4
		c1.2-0.2,2.2-0.9,3-1.8l-1.5-0.8c-1.5,1.8-3.3,1.4-5.2,0.8c-2.9-1-4.5-3.1-3.6-5.8c1-3,3.9-3.1,6.5-2.3c1.8,0.6,3.3,1.4,3.5,3.1
		l1.7,0.3c-0.1-1.1-0.5-2-1.3-2.8C560.2,440.8,559.1,440.2,557.6,439.7L557.6,439.7z M569.4,442.3l-7.6,10.7l1.9,0.3l2.4-3.3h0
		l6.3,0.9l1.3,3.8l1.9,0.3l-4.3-12.4L569.4,442.3z M570.1,444.3l1.7,4.9l-4.6-0.7L570.1,444.3L570.1,444.3z M596.7,442.4
		c-1.3,0.3-2.5,0.7-3.5,1.4c-1,0.7-1.7,1.5-2.2,2.4c-0.4,1-0.5,2-0.3,3.2c0.2,1.1,0.7,2,1.4,2.8c0.7,0.8,1.6,1.4,2.7,1.7
		c1.1,0.3,2.5,0.3,4.1,0c1.6-0.3,2.8-0.9,3.8-1.7c0.9-0.8,1.5-1.8,1.7-3l-1.7,0c-0.4,2.3-2.2,2.8-4.2,3.2c-3,0.6-5.4-0.5-6-3.3
		c-0.6-3.1,1.9-4.6,4.5-5.1c1.8-0.4,3.5-0.4,4.6,1l1.6-0.6c-0.6-0.9-1.4-1.5-2.5-1.8C599.5,442.1,598.2,442.1,596.7,442.4
		L596.7,442.4z M604.5,441l3.3,11.2l10.9-3.2l-0.5-1.6l-9.3,2.7l-1-3.4l8.3-2.5l-0.5-1.6l-8.3,2.5l-0.9-3l8.9-2.6l-0.5-1.6
		L604.5,441z M617.1,437l4.9,10.6l1.5-0.7l-4.1-8.8c3.8,1.7,7.5,3.5,11.3,5.2c0.3,0.2,0.5,0.1,0.8-0.1l1.5-0.7L628,432l-1.5,0.7
		l4.1,8.8c-3.9-1.8-7.7-3.6-11.6-5.3L617.1,437L617.1,437z M629.9,431l0.9,1.4l4.2-2.7l0.2-0.1l0.1,0.1l5.4,8.2l1.4-0.9l-5.4-8.2
		l-0.1-0.1l0.2-0.1l4.2-2.8l-0.9-1.4L629.9,431z M641.7,423l7.9,8.6l1.3-1.2l-3.1-3.4c1.4-1.3,2.8-2.5,4.1-3.8c2,0.3,4,0.5,5.9,0.8
		l1.6-1.5l-6.3-0.8c0.8-1.1,1.1-2.5,0.4-3.7c-0.5-1-1.5-1.9-2.7-1.9c-1.6,0-2.9,1.2-4,2.2C645.1,419.9,643.4,421.4,641.7,423
		L641.7,423z M644.1,423.1c1.5-1.3,2.9-2.7,4.4-4c0.8-0.6,1.9-1.4,2.9-0.8c0.9,0.5,0.8,1.6,0.3,2.4c-0.9,1.5-2.3,2.5-3.5,3.7
		l-1.6,1.5L644.1,423.1z M655.2,409.4l5.2,12l1.2-1.5l-1.6-3.7l0,0l4-4.9l4,0.9l1.2-1.5l-12.8-2.7L655.2,409.4L655.2,409.4z
		 M657.3,409.8l5,1.1l-3,3.6L657.3,409.8L657.3,409.8z M660.3,402.8l9.8,6.3l5.1-7.9l-1.4-0.9l-4.1,6.3l-0.1,0.2l-0.1-0.1l-8.3-5.4
		L660.3,402.8z"/>
</g>
<g>
	<defs>
		<polygon id="SVGID_1_" points="583.3,264.1 509,392.8 657.6,392.8 		"/>
	</defs>
	<clipPath id="SVGID_2_">
		<use xlink:href="#SVGID_1_"  style="overflow:visible;"/>
	</clipPath>
	<g class="st3">
		<path class="st1" d="M583.3,264.1l-36.7,63.6l-18,31.2H638l-17.2-29.7L583.3,264.1L583.3,264.1z"/>
		<g id="d">
			<g id="c">
				<path class="st4" d="M583.3,264.1l-2.7,4.8l2.7,64.1l2.7-64.1L583.3,264.1z"/>
				<path class="st1" d="M583.3,323.7l-0.2,0l0.2,3.6l0.2-3.6L583.3,323.7z"/>
			</g>
			<g transform="rotate(72 500.001 285.467)">
				<g>
					<path class="st4" d="M648.9,311.8l-5.4-1.1L583.3,333l61.9-17.2L648.9,311.8z"/>
					<path class="st1" d="M592.2,330.2l-0.1-0.1l-3.4,1.3l3.5-1L592.2,330.2z"/>
				</g>
			</g>
			<g transform="rotate(144 500.001 285.467)">
				<g>
					<path class="st4" d="M623.8,388.8l-0.6-5.5L583.3,333l35.5,53.5L623.8,388.8z"/>
					<path class="st1" d="M588.8,340.6l0.1-0.1l-2.3-2.8l2,3L588.8,340.6z"/>
				</g>
			</g>
			<g transform="rotate(216 500.001 285.467)">
				<g>
					<path class="st4" d="M542.8,388.8l5-2.2l35.5-53.5l-39.9,50.3L542.8,388.8z"/>
					<path class="st1" d="M577.9,340.6l0.1,0.1l2-3l-2.3,2.8L577.9,340.6z"/>
				</g>
			</g>
			<g transform="rotate(288 500.001 285.467)">
				<g>
					<path class="st4" d="M517.8,311.8l3.7,4.1l61.9,17.2l-60.2-22.4L517.8,311.8z"/>
					<path class="st1" d="M574.5,330.2l0,0.1l3.5,1l-3.4-1.3L574.5,330.2z"/>
				</g>
			</g>
		</g>
		<g transform="rotate(8 500.001 285.467)">
			<g>
				<g>
					<path class="st4" d="M592.9,264.8l-3.4,4.3l-6.2,63.9l11.6-63.1L592.9,264.8z"/>
					<path class="st1" d="M584.6,323.8l-0.2,0l-0.4,3.6l0.7-3.6L584.6,323.8z"/>
				</g>
				<g transform="rotate(72 500.001 285.467)">
					<g>
						<path class="st4" d="M651.2,321.1l-5.2-1.9L583.3,333l63.6-8.4L651.2,321.1z"/>
						<path class="st1" d="M592.5,331.4l0-0.2l-3.5,0.8l3.6-0.5L592.5,331.4z"/>
					</g>
				</g>
				<g transform="rotate(144 500.001 285.467)">
					<g>
						<path class="st4" d="M615.7,393.9l0.2-5.5L583.3,333L611,391L615.7,393.9z"/>
						<path class="st1" d="M587.7,341.3l0.1-0.1l-1.8-3.1l1.6,3.3L587.7,341.3z"/>
					</g>
				</g>
				<g transform="rotate(216 500.001 285.467)">
					<g>
						<path class="st4" d="M535.5,382.6l5.3-1.5l42.6-48l-46.5,44.2L535.5,382.6z"/>
						<path class="st1" d="M576.9,339.8l0.1,0.1l2.4-2.7l-2.6,2.5L576.9,339.8z"/>
					</g>
				</g>
				<g transform="rotate(288 500.001 285.467)">
					<g>
						<path class="st4" d="M521.4,302.8l3.1,4.6l58.9,25.6l-56.4-30.6L521.4,302.8z"/>
						<path class="st1" d="M575,329l-0.1,0.1l3.3,1.5l-3.2-1.7L575,329z"/>
					</g>
				</g>
			</g>
		</g>
		<g transform="rotate(16 500.001 285.467)">
			<g>
				<g>
					<path class="st4" d="M602.3,266.8l-4,3.8l-15,62.4l20.3-60.9L602.3,266.8z"/>
					<path class="st1" d="M585.9,324.1l-0.2,0l-0.9,3.5l1.2-3.4L585.9,324.1z"/>
				</g>
				<g transform="rotate(72 500.001 285.467)">
					<g>
						<path class="st4" d="M652.2,330.6l-4.9-2.6l-64,5l64.2,0.5L652.2,330.6z"/>
						<path class="st1" d="M592.7,332.7l0-0.2l-3.6,0.3l3.6,0L592.7,332.7z"/>
					</g>
				</g>
				<g transform="rotate(144 500.001 285.467)">
					<g>
						<path class="st4" d="M606.9,397.8l1-5.4L583.3,333l19.4,61.2L606.9,397.8z"/>
						<path class="st1" d="M586.5,341.8l0.1-0.1l-1.4-3.4l1.1,3.5L586.5,341.8z"/>
					</g>
				</g>
				<g transform="rotate(216 500.001 285.467)">
					<g>
						<path class="st4" d="M529,375.5l5.4-0.8l48.8-41.7l-52.2,37.3L529,375.5z"/>
						<path class="st1" d="M576,338.8l0.1,0.1l2.8-2.4l-3,2.1L576,338.8z"/>
					</g>
				</g>
				<g transform="rotate(288 500.001 285.467)">
					<g>
						<path class="st4" d="M526.2,294.5l2.4,4.9l54.7,33.6l-51.6-38.1L526.2,294.5z"/>
						<path class="st1" d="M575.6,327.8l-0.1,0.1l3.1,1.9l-2.9-2.2L575.6,327.8z"/>
					</g>
				</g>
			</g>
		</g>
		<g transform="rotate(24 500.001 285.467)">
			<g>
				<g>
					<path class="st4" d="M611.4,270.1l-4.4,3.2L583.3,333l28.6-57.5L611.4,270.1z"/>
					<path class="st1" d="M587.1,324.5l-0.1-0.1l-1.3,3.4l1.6-3.3L587.1,324.5z"/>
				</g>
				<g transform="rotate(72 500.001 285.467)">
					<g>
						<path class="st4" d="M651.9,340.2l-4.4-3.2l-64.1-4l63.5,9.4L651.9,340.2z"/>
						<path class="st1" d="M592.6,334l0-0.2l-3.6-0.2l3.6,0.5L592.6,334z"/>
					</g>
				</g>
				<g transform="rotate(144 500.001 285.467)">
					<g>
						<path class="st4" d="M597.7,400.4l1.7-5.2l-16-62.2l10.6,63.3L597.7,400.4z"/>
						<path class="st1" d="M585.3,342.2l0.2,0l-0.9-3.5l0.6,3.6L585.3,342.2z"/>
					</g>
				</g>
				<g transform="rotate(216 500.001 285.467)">
					<g>
						<path class="st4" d="M523.7,367.5l5.5,0l54.2-34.5l-56.9,29.7L523.7,367.5z"/>
						<path class="st1" d="M575.3,337.7l0.1,0.1l3.1-2l-3.2,1.7L575.3,337.7z"/>
					</g>
				</g>
				<g transform="rotate(288 500.001 285.467)">
					<g>
						<path class="st4" d="M532.1,286.9l1.7,5.2l49.5,40.9l-45.8-45L532.1,286.9z"/>
						<path class="st1" d="M576.4,326.8l-0.1,0.1l2.8,2.3l-2.6-2.5L576.4,326.8z"/>
					</g>
				</g>
			</g>
		</g>
		<g transform="rotate(32 500.001 285.467)">
			<g>
				<g>
					<path class="st4" d="M619.8,274.6l-4.9,2.6L583.3,333l36.3-52.9L619.8,274.6z"/>
					<path class="st1" d="M588.3,325.1l-0.1-0.1l-1.8,3.2l2.1-3L588.3,325.1z"/>
				</g>
				<g transform="rotate(72 500.001 285.467)">
					<g>
						<path class="st4" d="M650.2,349.7l-4-3.8L583.3,333l61.6,18.2L650.2,349.7z"/>
						<path class="st1" d="M592.4,335.3l0-0.2l-3.6-0.7l3.5,1L592.4,335.3z"/>
					</g>
				</g>
				<g transform="rotate(144 500.001 285.467)">
					<g>
						<path class="st4" d="M588.1,401.8l2.4-4.9l-7.2-63.8l1.7,64.2L588.1,401.8z"/>
						<path class="st1" d="M584,342.3l0.2,0l-0.4-3.6l0.1,3.6L584,342.3z"/>
					</g>
				</g>
				<g transform="rotate(216 500.001 285.467)">
					<g>
						<path class="st4" d="M519.4,358.9l5.4,0.8l58.4-26.6l-60.5,21.5L519.4,358.9z"/>
						<path class="st1" d="M574.7,336.5l0.1,0.1l3.3-1.5l-3.4,1.2L574.7,336.5z"/>
					</g>
				</g>
				<g transform="rotate(288 500.001 285.467)">
					<g>
						<path class="st4" d="M539,280.3l1,5.4l43.3,47.4l-39.1-50.9L539,280.3z"/>
						<path class="st1" d="M577.3,325.9l-0.1,0.1l2.5,2.7l-2.2-2.9L577.3,325.9z"/>
					</g>
				</g>
			</g>
		</g>
		<g transform="rotate(40 500.001 285.467)">
			<g>
				<g>
					<path class="st4" d="M627.6,280.3l-5.2,1.9L583.3,333l43.3-47.4L627.6,280.3z"/>
					<path class="st1" d="M589.3,325.9l-0.1-0.1l-2.2,2.9l2.5-2.7L589.3,325.9z"/>
				</g>
				<g transform="rotate(72 500.001 285.467)">
					<g>
						<path class="st4" d="M647.2,358.9l-3.4-4.3L583.3,333l58.4,26.6L647.2,358.9z"/>
						<path class="st1" d="M592,336.5l0.1-0.1l-3.4-1.2l3.3,1.5L592,336.5z"/>
					</g>
				</g>
				<g transform="rotate(144 500.001 285.467)">
					<g>
						<path class="st4" d="M578.5,401.8l3.1-4.6l1.7-64.2l-7.2,63.8L578.5,401.8z"/>
						<path class="st1" d="M582.7,342.3l0.2,0l0.1-3.6l-0.4,3.6L582.7,342.3z"/>
					</g>
				</g>
				<g transform="rotate(216 500.001 285.467)">
					<g>
						<path class="st4" d="M516.5,349.7l5.3,1.5l61.6-18.2l-62.9,12.8L516.5,349.7z"/>
						<path class="st1" d="M574.3,335.3l0,0.2l3.5-1l-3.6,0.7L574.3,335.3z"/>
					</g>
				</g>
				<g transform="rotate(288 500.001 285.467)">
					<g>
						<path class="st4" d="M546.8,274.6l0.2,5.5l36.3,52.9l-31.7-55.9L546.8,274.6z"/>
						<path class="st1" d="M578.4,325.1l-0.1,0.1l2.1,3l-1.8-3.2L578.4,325.1z"/>
					</g>
				</g>
			</g>
		</g>
		<g transform="rotate(48 500.001 285.467)">
			<g>
				<g>
					<path class="st4" d="M634.5,286.9l-5.4,1.1l-45.8,45l49.5-40.9L634.5,286.9z"/>
					<path class="st1" d="M590.3,326.8l-0.1-0.1l-2.6,2.5l2.8-2.3L590.3,326.8z"/>
				</g>
				<g transform="rotate(72 500.001 285.467)">
					<g>
						<path class="st4" d="M643,367.5l-2.7-4.8L583.3,333l54.2,34.5L643,367.5z"/>
						<path class="st1" d="M591.4,337.7l0.1-0.1l-3.2-1.7l3.1,2L591.4,337.7z"/>
					</g>
				</g>
				<g transform="rotate(144 500.001 285.467)">
					<g>
						<path class="st4" d="M569,400.4l3.7-4.1l10.6-63.3l-16,62.2L569,400.4z"/>
						<path class="st1" d="M581.4,342.2l0.2,0l0.6-3.6l-0.9,3.5L581.4,342.2z"/>
					</g>
				</g>
				<g transform="rotate(216 500.001 285.467)">
					<g>
						<path class="st4" d="M514.8,340.2l5,2.2l63.5-9.4l-64.1,4L514.8,340.2z"/>
						<path class="st1" d="M574.1,334l0,0.2l3.6-0.5l-3.6,0.2L574.1,334z"/>
					</g>
				</g>
				<g transform="rotate(288 500.001 285.467)">
					<g>
						<path class="st4" d="M555.3,270.1l-0.6,5.5l28.6,57.5l-23.6-59.7L555.3,270.1z"/>
						<path class="st1" d="M579.5,324.5l-0.1,0.1l1.6,3.3l-1.3-3.4L579.5,324.5z"/>
					</g>
				</g>
			</g>
		</g>
		<g transform="rotate(56 500.001 285.467)">
			<g>
				<g>
					<path class="st4" d="M640.5,294.5l-5.5,0.4L583.3,333l54.7-33.6L640.5,294.5z"/>
					<path class="st1" d="M591.1,327.8l-0.1-0.1l-2.9,2.2l3.1-1.9L591.1,327.8z"/>
				</g>
				<g transform="rotate(72 500.001 285.467)">
					<g>
						<path class="st4" d="M637.6,375.5l-2.1-5.1L583.3,333l48.8,41.7L637.6,375.5z"/>
						<path class="st1" d="M590.7,338.8l0.1-0.1l-3-2.1l2.8,2.4L590.7,338.8z"/>
					</g>
				</g>
				<g transform="rotate(144 500.001 285.467)">
					<g>
						<path class="st4" d="M559.8,397.8l4.2-3.5l19.4-61.2l-24.5,59.3L559.8,397.8z"/>
						<path class="st1" d="M580.1,341.8l0.1,0.1l1.1-3.5l-1.4,3.4L580.1,341.8z"/>
					</g>
				</g>
				<g transform="rotate(216 500.001 285.467)">
					<g>
						<path class="st4" d="M514.5,330.6l4.7,2.9l64.2-0.5l-64-5L514.5,330.6z"/>
						<path class="st1" d="M574,332.7l0,0.2l3.6,0l-3.6-0.3L574,332.7z"/>
					</g>
				</g>
				<g transform="rotate(288 500.001 285.467)">
					<g>
						<path class="st4" d="M564.3,266.8l-1.3,5.3l20.3,60.9l-15-62.4L564.3,266.8z"/>
						<path class="st1" d="M580.8,324.1l-0.1,0l1.2,3.4l-0.9-3.5L580.8,324.1z"/>
					</g>
				</g>
			</g>
		</g>
		<g transform="rotate(64 500.001 285.467)">
			<g>
				<g>
					<path class="st4" d="M645.3,302.8l-5.5-0.4L583.3,333l58.9-25.6L645.3,302.8z"/>
					<path class="st1" d="M591.7,329l-0.1-0.1l-3.2,1.7l3.3-1.5L591.7,329z"/>
				</g>
				<g transform="rotate(72 500.001 285.467)">
					<g>
						<path class="st4" d="M631.2,382.6l-1.3-5.3L583.3,333l42.6,48L631.2,382.6z"/>
						<path class="st1" d="M589.8,339.8l0.1-0.1l-2.6-2.5l2.4,2.7L589.8,339.8z"/>
					</g>
				</g>
				<g transform="rotate(144 500.001 285.467)">
					<g>
						<path class="st4" d="M551,393.9l4.7-2.9l27.7-57.9l-32.5,55.3L551,393.9z"/>
						<path class="st1" d="M579,341.3l0.1,0.1l1.6-3.3l-1.8,3.1L579,341.3z"/>
					</g>
				</g>
				<g transform="rotate(216 500.001 285.467)">
					<g>
						<path class="st4" d="M515.5,321.1l4.2,3.5l63.6,8.4l-62.7-13.8L515.5,321.1z"/>
						<path class="st1" d="M574.2,331.4l0,0.2l3.6,0.5l-3.5-0.8L574.2,331.4z"/>
					</g>
				</g>
				<g transform="rotate(288 500.001 285.467)">
					<g>
						<path class="st4" d="M573.7,264.8l-2.1,5.1l11.6,63.1l-6.2-63.9L573.7,264.8z"/>
						<path class="st1" d="M582,323.8l-0.2,0l0.7,3.6l-0.4-3.6L582,323.8z"/>
					</g>
				</g>
			</g>
		</g>
		<g>
			<path class="st5" d="M583.3,310.2c-12.4,0-24.4,4.4-33.8,12.5l-17.1,29.6c-0.6,3.2-0.9,6.4-0.9,9.6h5.9
				c0-25.3,20.6-45.9,45.9-45.9c25.3,0,45.9,20.6,45.9,45.9h5.9c0-3.3-0.3-6.5-0.9-9.6l-17.1-29.6
				C607.7,314.6,595.7,310.1,583.3,310.2z"/>
			<path class="st6" d="M583.3,311.1c-13.7,0-26.2,5.5-35.3,14.3l-14,24.3c-1,4-1.5,8.1-1.5,12.2h5c0-25.3,20.6-45.9,45.9-45.9
				c25.3,0,45.9,20.6,45.9,45.9h5c0-4.2-0.5-8.4-1.5-12.3l-14-24.3C609.5,316.6,597.1,311.1,583.3,311.1L583.3,311.1z"/>
			<path class="st7" d="M583.3,312c-14.8,0-28.1,6.4-37.3,16.7l-10.2,17.6c-1.7,5-2.5,10.3-2.5,15.6h4c0-25.3,20.6-45.9,45.9-45.9
				s45.9,20.6,45.9,45.9h4c0-5.5-0.9-10.7-2.5-15.6l-10.2-17.6C611.4,318.5,598.1,312,583.3,312L583.3,312z"/>
			<path class="st8" d="M583.3,313c-17,0-31.9,8.6-40.7,21.8l-3.3,5.7c-3.3,6.7-5,14.1-5,21.5h3.1c0-25.3,20.6-45.9,45.9-45.9
				c25.3,0,45.9,20.6,45.9,45.9h3.1c0-7.5-1.7-14.8-5-21.5l-3.3-5.8C615.2,321.6,600.3,313,583.3,313L583.3,313z"/>
			<path class="st9" d="M583.3,313.9c-26.5,0-48.1,21.5-48.1,48.1h2.2c0-25.3,20.6-45.9,45.9-45.9c25.3,0,45.9,20.6,45.9,45.9h2.2
				C631.4,335.4,609.9,313.9,583.3,313.9z"/>
			<path class="st10" d="M583.3,314.8c-26,0-47.1,21.1-47.1,47.1h1.6c0-25.2,20.4-45.5,45.5-45.5c25.2,0,45.5,20.4,45.5,45.5h1.6
				C630.5,335.9,609.4,314.8,583.3,314.8z"/>
			<path class="st11" d="M583.3,315.8c-25.5,0-46.2,20.7-46.2,46.2c0,0.3,0,0.6,0,0.9h0.9c0-0.3,0-0.6,0-0.9
				c0-25,20.3-45.3,45.3-45.3s45.3,20.3,45.3,45.3c0,0.3,0,0.6,0,0.9h0.9c0-0.3,0-0.6,0-0.9C629.5,336.4,608.8,315.8,583.3,315.8z"
				/>
		</g>
		<g>
			<path class="st12" d="M583.8,336.2c-0.8-0.1-1.4-0.6-2.1-0.7c-0.9,0.8-1,1.7-0.9,2.4c0.3,0.2,0.4,0.4,1,1
				c0.7,0.6,0.6,0.9,0.5,2.3c0,0.6,0.1,1.8,0.7,2c0.6,0.1,1.1-0.4,1.3-1.4c0.2-0.9,0.5-1.4,0.8-2C585.6,337.6,585,336.9,583.8,336.2
				L583.8,336.2z"/>
			<path class="st5" d="M580,330.8c-0.7,0-1.8,1.2-2.3,0.6c-0.3-0.4-0.3-1.1,0-1.6c0.7-1.3,1.3-2,2.5-2.7c2.8-1.6,4.5-1.1,5.9,1.2
				c1.3,2.1,2.5,4.4,2.6,6.3c0,0.6,0.3,1.6-0.2,2.2c-1.6,1.6-5.4-1.7-7.6-1.2c-0.7,0.2-1.6,0.7-2.3,0.3c-0.5-0.4-0.1-1.2,0.3-1.5
				c0.7-0.6,1.8-2.8,1.6-3.7C580.6,330,580.5,330.8,580,330.8L580,330.8z"/>
			
				<linearGradient id="SVGID_3_" gradientUnits="userSpaceOnUse" x1="582.7011" y1="362.3763" x2="584.9037" y2="368.9504" gradientTransform="matrix(1 0 0 -1 0 699.8885)">
				<stop  offset="0" style="stop-color:#510000"/>
				<stop  offset="0.3" style="stop-color:#8A0000"/>
				<stop  offset="1" style="stop-color:#AA0000"/>
			</linearGradient>
			<path class="st13" d="M579.7,329.6c-1.3,0.5-1.1,1.3-1.8,1.9c0.2,0.1,0.9,0.4,1.6-0.4c0.3-0.2,0.6-0.3,0.8-0.4
				c-0.4,0.3-0.6,0.6-0.8,0.8c-0.5,0.4-1.2,1.3-1.6,2.2c-0.4,0.9-0.5,2-0.4,2.1c0.1,0.1,0.5,0.9,1.8,1.4c2.4,0.9,2.8,2.8,5.2,2.8
				c1.9,0,1.6-1.2,3.1-1c1.3,0.2,2-0.8,0.7-1.4c-1.6-0.5-4.8-0.2-6.3,0c-0.5-4.8-0.1-3.1-0.2-5.1c-0.1-2-0.7-2.2,0.1-3.8
				C581.4,329.7,580.6,329.6,579.7,329.6L579.7,329.6z"/>
			<path class="st14" d="M584.4,326.4c0,0.3-0.1,0.6-0.1,0.7c0.1,0.4,0.2,0.8,0.3,1.2c0.1,0.4,0.2,0.7,0.3,1.1
				c0.1,0.4,0.5,0.6,0.8,0.8c0.4,0.3,0.1,1.2,0.4,1.2c0.2,0,0.6-1.3,0.6-1.5c0-0.3,0-0.5,0-0.8c-0.2-0.3-0.3-0.7-0.5-1c0,0,0,0,0,0
				c-0.1-0.1-0.1-0.3-0.2-0.4c-0.3-0.4-0.6-0.7-0.9-1l-0.1-0.1c-0.1-0.1-0.2-0.2-0.3-0.2C584.6,326.5,584.5,326.5,584.4,326.4
				L584.4,326.4z"/>
			
				<linearGradient id="SVGID_4_" gradientUnits="userSpaceOnUse" x1="582.5937" y1="360.8696" x2="584.3239" y2="365.4476" gradientTransform="matrix(1 0 0 -1 0 699.8885)">
				<stop  offset="0" style="stop-color:#FF2A2A"/>
				<stop  offset="1" style="stop-color:#FF0000"/>
			</linearGradient>
			<path class="st15" d="M584.8,335.3c-0.8-0.2-1.7-0.6-2.4-0.8c-1.4-0.4-2.9-1.3-3.9-0.9c-0.4,0.2-0.3,0.5-0.5,1.1
				c0,0.6-0.7,1.5-0.2,1.2c0.8-0.4,2.9,0.9,3.6,1.3c0.3,0.2,1,0.6,1.3,1.2c0.2,0.6,0.1,2,0,2.7c-0.1,0.7,0.1,2.1,0.8,2.3
				c0.7,0.2,1.3-0.4,1.5-1.4c0.3-1,0.5-1.6,0.9-2.2c0.4-0.6,0.9-0.9,1.5-1c0.7-0.1,1.6,0.5,1.6-0.2c0-0.5-0.4-1-0.3-1.7
				c0.1-0.6-0.5-0.4-1-0.7C586.7,335.6,585.6,335.5,584.8,335.3L584.8,335.3z"/>
			<path class="st16" d="M581.4,337.1c-0.4-0.2-2.7-1.7-3.6-1.2c-0.3,0.1-0.4,0-0.4-0.3c0-0.3,0.1-0.7,0.2-1
				c0.1-0.3,0.2-0.9,0.6-1.2c0.8-0.7,2.6,0.7,3.6,1C581.9,334.8,581.4,337,581.4,337.1L581.4,337.1z"/>
			<path class="st17" d="M585.4,339.9c1.1-1.9,1.8-1.6,3-1.6c0.4,0,0.6-0.4,0.5-0.8c-0.3,0.7-1.9-0.1-2.8,0.3
				c-1.8,0.8-1.5,4.4-2.4,4.7C584.6,343.4,585,340.6,585.4,339.9L585.4,339.9z"/>
		</g>
		<g>
			<path class="st1" d="M528.6,358.9L517,379h132.7L638,358.9H528.6L528.6,358.9z"/>
			<g id="i">
				
					<linearGradient id="h_1_" gradientUnits="userSpaceOnUse" x1="518.5924" y1="324.1959" x2="740.1443" y2="324.1959" gradientTransform="matrix(1 0 0 -1 0 699.8885)">
					<stop  offset="0" style="stop-color:#002255"/>
					<stop  offset="0.5" style="stop-color:#0044AA"/>
					<stop  offset="1" style="stop-color:#002255"/>
				</linearGradient>
				<path id="h" class="st18" d="M524.7,374.9c-1.9,0-3.7,0.2-5.5,0.4l-0.6,1c2.8-0.3,5.5-0.8,8.3-0.8c3.8,0.1,7.3,1,11.4,1
					c1.8,0,3.5,0,5.3,0c4.1,0,7.6-0.9,11.4-1c3.8,0.1,7.4,1,11.4,1c1.8,0,3.7,0,5.3,0c4.1,0,7.6-0.9,11.4-1c3.8,0.1,7.3,1,11.4,1
					c1.8,0,3.5,0,5.3,0c4.1,0,7.6-0.9,11.4-1c3.8,0.1,7.3,1,11.4,1c1.8,0,3.5,0,5.3,0c4.1,0,7.6-0.9,11.4-1c3,0.1,5.7,0.6,8.7,0.8
					l-0.6-1c-1.6-0.2-3.3-0.4-5.1-0.4c-1.8,0-3.5,0-5.3,0c-4.1,0-7.6,0.9-11.4,1c-3.8-0.1-7.3-1-11.4-1c-1.8,0-3.5,0-5.3,0
					c-4.1,0-7.6,0.9-11.4,1c-3.8-0.1-7.3-1-11.4-1c-1.8,0-3.5,0-5.3,0c-4.1,0-7.6,0.9-11.4,1c-3.8-0.1-7.3-1-11.4-1
					c-1.8,0-3.5,0-5.3,0c-4.1,0-7.6,0.9-11.4,1c-3.8-0.1-7.3-1-11.4-1C528.2,374.9,526.4,375,524.7,374.9L524.7,374.9z"/>
				<g>
					
						<linearGradient id="SVGID_5_" gradientUnits="userSpaceOnUse" x1="518.5924" y1="324.3814" x2="740.1443" y2="324.3814" gradientTransform="matrix(1 0 0 -1 0 698.7755)">
						<stop  offset="0" style="stop-color:#002255"/>
						<stop  offset="0.5" style="stop-color:#0044AA"/>
						<stop  offset="1" style="stop-color:#002255"/>
					</linearGradient>
					<path class="st19" d="M524.7,373.6c-1.9,0-3.7,0.2-5.5,0.4l-0.6,1c2.8-0.3,5.5-0.8,8.3-0.8c3.8,0.1,7.3,1,11.4,1
						c1.8,0,3.5,0,5.3,0c4.1,0,7.6-0.9,11.4-1c3.8,0.1,7.4,1,11.4,1c1.8,0,3.7,0,5.3,0c4.1,0,7.6-0.9,11.4-1c3.8,0.1,7.3,1,11.4,1
						c1.8,0,3.5,0,5.3,0c4.1,0,7.6-0.9,11.4-1c3.8,0.1,7.3,1,11.4,1c1.8,0,3.5,0,5.3,0c4.1,0,7.6-0.9,11.4-1c3,0.1,5.7,0.6,8.7,0.8
						l-0.6-1c-1.6-0.2-3.3-0.4-5.1-0.4c-1.8,0-3.5,0-5.3,0c-4.1,0-7.6,0.9-11.4,1c-3.8-0.1-7.3-1-11.4-1c-1.8,0-3.5,0-5.3,0
						c-4.1,0-7.6,0.9-11.4,1c-3.8-0.1-7.3-1-11.4-1c-1.8,0-3.5,0-5.3,0c-4.1,0-7.6,0.9-11.4,1c-3.8-0.1-7.3-1-11.4-1
						c-1.8,0-3.5,0-5.3,0c-4.1,0-7.6,0.9-11.4,1c-3.8-0.1-7.3-1-11.4-1C528.2,373.6,526.4,373.7,524.7,373.6L524.7,373.6z"/>
				</g>
				<g>
					
						<linearGradient id="SVGID_6_" gradientUnits="userSpaceOnUse" x1="518.5924" y1="324.5675" x2="740.1443" y2="324.5675" gradientTransform="matrix(1 0 0 -1 0 697.6585)">
						<stop  offset="0" style="stop-color:#002255"/>
						<stop  offset="0.5" style="stop-color:#0044AA"/>
						<stop  offset="1" style="stop-color:#002255"/>
					</linearGradient>
					<path class="st20" d="M524.7,372.3c-1.9,0-3.7,0.2-5.5,0.4l-0.6,1c2.8-0.3,5.5-0.8,8.3-0.8c3.8,0.1,7.3,1,11.4,1
						c1.8,0,3.5,0,5.3,0c4.1,0,7.6-0.9,11.4-1c3.8,0.1,7.4,1,11.4,1c1.8,0,3.7,0,5.3,0c4.1,0,7.6-0.9,11.4-1c3.8,0.1,7.3,1,11.4,1
						c1.8,0,3.5,0,5.3,0c4.1,0,7.6-0.9,11.4-1c3.8,0.1,7.3,1,11.4,1c1.8,0,3.5,0,5.3,0c4.1,0,7.6-0.9,11.4-1c3,0.1,5.7,0.6,8.7,0.8
						l-0.6-1c-1.6-0.2-3.3-0.4-5.1-0.4c-1.8,0-3.5,0-5.3,0c-4.1,0-7.6,0.9-11.4,1c-3.8-0.1-7.3-1-11.4-1c-1.8,0-3.5,0-5.3,0
						c-4.1,0-7.6,0.9-11.4,1c-3.8-0.1-7.3-1-11.4-1c-1.8,0-3.5,0-5.3,0c-4.1,0-7.6,0.9-11.4,1c-3.8-0.1-7.3-1-11.4-1
						c-1.8,0-3.5,0-5.3,0c-4.1,0-7.6,0.9-11.4,1c-3.8-0.1-7.3-1-11.4-1C528.2,372.3,526.4,372.4,524.7,372.3L524.7,372.3z"/>
				</g>
			</g>
			<g>
				<g>
					
						<linearGradient id="SVGID_7_" gradientUnits="userSpaceOnUse" x1="518.5924" y1="324.7532" x2="740.1443" y2="324.7532" gradientTransform="matrix(1 0 0 -1 0 696.5445)">
						<stop  offset="0" style="stop-color:#002255"/>
						<stop  offset="0.5" style="stop-color:#0044AA"/>
						<stop  offset="1" style="stop-color:#002255"/>
					</linearGradient>
					<path class="st21" d="M524.7,371c-1.9,0-3.7,0.2-5.5,0.4l-0.6,1c2.8-0.3,5.5-0.8,8.3-0.8c3.8,0.1,7.3,1,11.4,1
						c1.8,0,3.5,0,5.3,0c4.1,0,7.6-0.9,11.4-1c3.8,0.1,7.4,1,11.4,1c1.8,0,3.7,0,5.3,0c4.1,0,7.6-0.9,11.4-1c3.8,0.1,7.3,1,11.4,1
						c1.8,0,3.5,0,5.3,0c4.1,0,7.6-0.9,11.4-1c3.8,0.1,7.3,1,11.4,1c1.8,0,3.5,0,5.3,0c4.1,0,7.6-0.9,11.4-1c3,0.1,5.7,0.6,8.7,0.8
						l-0.6-1c-1.6-0.2-3.3-0.4-5.1-0.4c-1.8,0-3.5,0-5.3,0c-4.1,0-7.6,0.9-11.4,1c-3.8-0.1-7.3-1-11.4-1c-1.8,0-3.5,0-5.3,0
						c-4.1,0-7.6,0.9-11.4,1c-3.8-0.1-7.3-1-11.4-1c-1.8,0-3.5,0-5.3,0c-4.1,0-7.6,0.9-11.4,1c-3.8-0.1-7.3-1-11.4-1
						c-1.8,0-3.5,0-5.3,0c-4.1,0-7.6,0.9-11.4,1c-3.8-0.1-7.3-1-11.4-1C528.2,371,526.4,371.1,524.7,371L524.7,371z"/>
					<g>
						
							<linearGradient id="SVGID_8_" gradientUnits="userSpaceOnUse" x1="518.5924" y1="324.9387" x2="740.1443" y2="324.9387" gradientTransform="matrix(1 0 0 -1 0 695.4315)">
							<stop  offset="0" style="stop-color:#002255"/>
							<stop  offset="0.5" style="stop-color:#0044AA"/>
							<stop  offset="1" style="stop-color:#002255"/>
						</linearGradient>
						<path class="st22" d="M524.7,369.7c-1.9,0-3.7,0.2-5.5,0.4l-0.6,1c2.8-0.3,5.5-0.8,8.3-0.8c3.8,0.1,7.3,1,11.4,1
							c1.8,0,3.5,0,5.3,0c4.1,0,7.6-0.9,11.4-1c3.8,0.1,7.4,1,11.4,1c1.8,0,3.7,0,5.3,0c4.1,0,7.6-0.9,11.4-1c3.8,0.1,7.3,1,11.4,1
							c1.8,0,3.5,0,5.3,0c4.1,0,7.6-0.9,11.4-1c3.8,0.1,7.3,1,11.4,1c1.8,0,3.5,0,5.3,0c4.1,0,7.6-0.9,11.4-1c3,0.1,5.7,0.6,8.7,0.8
							l-0.6-1c-1.6-0.2-3.3-0.4-5.1-0.4c-1.8,0-3.5,0-5.3,0c-4.1,0-7.6,0.9-11.4,1c-3.8-0.1-7.3-1-11.4-1c-1.8,0-3.5,0-5.3,0
							c-4.1,0-7.6,0.9-11.4,1c-3.8-0.1-7.3-1-11.4-1c-1.8,0-3.5,0-5.3,0c-4.1,0-7.6,0.9-11.4,1c-3.8-0.1-7.3-1-11.4-1
							c-1.8,0-3.5,0-5.3,0c-4.1,0-7.6,0.9-11.4,1c-3.8-0.1-7.3-1-11.4-1C528.2,369.7,526.4,369.8,524.7,369.7L524.7,369.7z"/>
					</g>
					<g>
						
							<linearGradient id="SVGID_9_" gradientUnits="userSpaceOnUse" x1="518.5924" y1="325.1249" x2="740.1443" y2="325.1249" gradientTransform="matrix(1 0 0 -1 0 694.3145)">
							<stop  offset="0" style="stop-color:#002255"/>
							<stop  offset="0.5" style="stop-color:#0044AA"/>
							<stop  offset="1" style="stop-color:#002255"/>
						</linearGradient>
						<path class="st23" d="M524.7,368.4c-1.9,0-3.7,0.2-5.5,0.4l-0.6,1c2.8-0.3,5.5-0.8,8.3-0.8c3.8,0.1,7.3,1,11.4,1
							c1.8,0,3.5,0,5.3,0c4.1,0,7.6-0.9,11.4-1c3.8,0.1,7.4,1,11.4,1c1.8,0,3.7,0,5.3,0c4.1,0,7.6-0.9,11.4-1c3.8,0.1,7.3,1,11.4,1
							c1.8,0,3.5,0,5.3,0c4.1,0,7.6-0.9,11.4-1c3.8,0.1,7.3,1,11.4,1c1.8,0,3.5,0,5.3,0c4.1,0,7.6-0.9,11.4-1c3,0.1,5.7,0.6,8.7,0.8
							l-0.6-1c-1.6-0.2-3.3-0.4-5.1-0.4c-1.8,0-3.5,0-5.3,0c-4.1,0-7.6,0.9-11.4,1c-3.8-0.1-7.3-1-11.4-1c-1.8,0-3.5,0-5.3,0
							c-4.1,0-7.6,0.9-11.4,1c-3.8-0.1-7.3-1-11.4-1c-1.8,0-3.5,0-5.3,0c-4.1,0-7.6,0.9-11.4,1c-3.8-0.1-7.3-1-11.4-1
							c-1.8,0-3.5,0-5.3,0c-4.1,0-7.6,0.9-11.4,1c-3.8-0.1-7.3-1-11.4-1C528.2,368.4,526.4,368.5,524.7,368.4L524.7,368.4z"/>
					</g>
				</g>
			</g>
			<g>
				<g>
					
						<linearGradient id="SVGID_10_" gradientUnits="userSpaceOnUse" x1="518.5924" y1="325.311" x2="740.1443" y2="325.311" gradientTransform="matrix(1 0 0 -1 0 693.1975)">
						<stop  offset="0" style="stop-color:#002255"/>
						<stop  offset="0.5" style="stop-color:#0044AA"/>
						<stop  offset="1" style="stop-color:#002255"/>
					</linearGradient>
					<path class="st24" d="M524.7,367.1c-1.9,0-3.7,0.2-5.5,0.4l-0.6,1c2.8-0.3,5.5-0.8,8.3-0.8c3.8,0.1,7.3,1,11.4,1
						c1.8,0,3.5,0,5.3,0c4.1,0,7.6-0.9,11.4-1c3.8,0.1,7.4,1,11.4,1c1.8,0,3.7,0,5.3,0c4.1,0,7.6-0.9,11.4-1c3.8,0.1,7.3,1,11.4,1
						c1.8,0,3.5,0,5.3,0c4.1,0,7.6-0.9,11.4-1c3.8,0.1,7.3,1,11.4,1c1.8,0,3.5,0,5.3,0c4.1,0,7.6-0.9,11.4-1c3,0.1,5.7,0.6,8.7,0.8
						l-0.6-1c-1.6-0.2-3.3-0.4-5.1-0.4c-1.8,0-3.5,0-5.3,0c-4.1,0-7.6,0.9-11.4,1c-3.8-0.1-7.3-1-11.4-1c-1.8,0-3.5,0-5.3,0
						c-4.1,0-7.6,0.9-11.4,1c-3.8-0.1-7.3-1-11.4-1c-1.8,0-3.5,0-5.3,0c-4.1,0-7.6,0.9-11.4,1c-3.8-0.1-7.3-1-11.4-1
						c-1.8,0-3.5,0-5.3,0c-4.1,0-7.6,0.9-11.4,1c-3.8-0.1-7.3-1-11.4-1C528.2,367.1,526.4,367.2,524.7,367.1L524.7,367.1z"/>
					<g>
						
							<linearGradient id="SVGID_11_" gradientUnits="userSpaceOnUse" x1="518.5924" y1="325.4965" x2="740.1443" y2="325.4965" gradientTransform="matrix(1 0 0 -1 0 692.0845)">
							<stop  offset="0" style="stop-color:#002255"/>
							<stop  offset="0.5" style="stop-color:#0044AA"/>
							<stop  offset="1" style="stop-color:#002255"/>
						</linearGradient>
						<path class="st25" d="M524.7,365.8c-1.9,0-3.7,0.2-5.5,0.4l-0.6,1c2.8-0.3,5.5-0.8,8.3-0.8c3.8,0.1,7.3,1,11.4,1
							c1.8,0,3.5,0,5.3,0c4.1,0,7.6-0.9,11.4-1c3.8,0.1,7.4,1,11.4,1c1.8,0,3.7,0,5.3,0c4.1,0,7.6-0.9,11.4-1c3.8,0.1,7.3,1,11.4,1
							c1.8,0,3.5,0,5.3,0c4.1,0,7.6-0.9,11.4-1c3.8,0.1,7.3,1,11.4,1c1.8,0,3.5,0,5.3,0c4.1,0,7.6-0.9,11.4-1c3,0.1,5.7,0.6,8.7,0.8
							l-0.6-1c-1.6-0.2-3.3-0.4-5.1-0.4c-1.8,0-3.5,0-5.3,0c-4.1,0-7.6,0.9-11.4,1c-3.8-0.1-7.3-1-11.4-1c-1.8,0-3.5,0-5.3,0
							c-4.1,0-7.6,0.9-11.4,1c-3.8-0.1-7.3-1-11.4-1c-1.8,0-3.5,0-5.3,0c-4.1,0-7.6,0.9-11.4,1c-3.8-0.1-7.3-1-11.4-1
							c-1.8,0-3.5,0-5.3,0c-4.1,0-7.6,0.9-11.4,1c-3.8-0.1-7.3-1-11.4-1C528.2,365.8,526.4,365.9,524.7,365.8L524.7,365.8z"/>
					</g>
					<g>
						
							<linearGradient id="SVGID_12_" gradientUnits="userSpaceOnUse" x1="518.5924" y1="325.6827" x2="740.1443" y2="325.6827" gradientTransform="matrix(1 0 0 -1 0 690.9675)">
							<stop  offset="0" style="stop-color:#002255"/>
							<stop  offset="0.5" style="stop-color:#0044AA"/>
							<stop  offset="1" style="stop-color:#002255"/>
						</linearGradient>
						<path class="st26" d="M524.7,364.5c-1.9,0-3.7,0.2-5.5,0.4l-0.6,1c2.8-0.3,5.5-0.8,8.3-0.8c3.8,0.1,7.3,1,11.4,1
							c1.8,0,3.5,0,5.3,0c4.1,0,7.6-0.9,11.4-1c3.8,0.1,7.4,1,11.4,1c1.8,0,3.7,0,5.3,0c4.1,0,7.6-0.9,11.4-1c3.8,0.1,7.3,1,11.4,1
							c1.8,0,3.5,0,5.3,0c4.1,0,7.6-0.9,11.4-1c3.8,0.1,7.3,1,11.4,1c1.8,0,3.5,0,5.3,0c4.1,0,7.6-0.9,11.4-1c3,0.1,5.7,0.6,8.7,0.8
							l-0.6-1c-1.6-0.2-3.3-0.4-5.1-0.4c-1.8,0-3.5,0-5.3,0c-4.1,0-7.6,0.9-11.4,1c-3.8-0.1-7.3-1-11.4-1c-1.8,0-3.5,0-5.3,0
							c-4.1,0-7.6,0.9-11.4,1c-3.8-0.1-7.3-1-11.4-1c-1.8,0-3.5,0-5.3,0c-4.1,0-7.6,0.9-11.4,1c-3.8-0.1-7.3-1-11.4-1
							c-1.8,0-3.5,0-5.3,0c-4.1,0-7.6,0.9-11.4,1c-3.8-0.1-7.3-1-11.4-1C528.2,364.5,526.4,364.6,524.7,364.5L524.7,364.5z"/>
					</g>
				</g>
			</g>
			
				<linearGradient id="SVGID_13_" gradientUnits="userSpaceOnUse" x1="518.5924" y1="338.1996" x2="740.1443" y2="338.1996" gradientTransform="matrix(1 0 0 -1 0 699.8885)">
				<stop  offset="0" style="stop-color:#002255"/>
				<stop  offset="0.5" style="stop-color:#0044AA"/>
				<stop  offset="1" style="stop-color:#002255"/>
			</linearGradient>
			<path class="st27" d="M528.8,358.7l-0.1,0.3H638l-0.1-0.3H528.8z M528.5,359.1l-0.1,0.3h109.9l-0.1-0.3H528.5L528.5,359.1z
				 M528.3,359.5L528,360h110.6l-0.2-0.4H528.3L528.3,359.5z M527.9,360.2l-0.3,0.5h111.4l-0.3-0.5L527.9,360.2L527.9,360.2z
				 M527.4,361l-0.3,0.5h112.4l-0.3-0.5H527.4z M527,361.8l-0.3,0.5H640l-0.3-0.5H527z M526.5,362.6l-0.3,0.5h114.2l-0.3-0.5H526.5z
				 M526,363.5l-0.4,0.6H641l-0.4-0.6H526L526,363.5z M533.6,364.3c4,0.8,4.4,0,4.4,0H533.6z M628.7,364.3c0,0,0.4,0.8,4.4,0H628.7z
				"/>
		</g>
		<g>
			<g id="k">
				
					<linearGradient id="SVGID_14_" gradientUnits="userSpaceOnUse" x1="616.5537" y1="336.2286" x2="616.5537" y2="329.301" gradientTransform="matrix(1 0 0 -1 0 699.8885)">
					<stop  offset="0" style="stop-color:#F5F549"/>
					<stop  offset="1" style="stop-color:#97C924"/>
				</linearGradient>
				<path class="st28" d="M619.1,346.5c-2,0-2.6,1-2.6,1c-3.2,12.3-13.8,24.9-26.4,24.9h-9.4V385c0,0,0,0,0,0h71.7l-7.2-12.8
					c-11.3-1.7-20.6-13.3-23.5-24.7C621.7,347.6,621.1,346.5,619.1,346.5L619.1,346.5z"/>
				<path class="st29" d="M619.1,347c-0.9,0-1.5,0.2-1.8,0.4c-0.3,0.2-0.4,0.3-0.4,0.3c0,0,0,0,0,0c-1.6,6.2-5.1,12.4-9.7,17.2
					c-4.7,4.7-10.6,8-17,8h-9v11.6h71l-6.6-11.7c-5.5-0.7-10.5-3.7-14.5-7.8c-4.7-4.7-8.1-10.9-9.7-17.2l0,0c0,0-0.1-0.1-0.4-0.3
					C620.5,347.3,620,347,619.1,347L619.1,347z"/>
				<path class="st30" d="M619.1,347c0.2,0,0.3,0,0.5,0c0,3.5,0,9.5,0,12.6c0,2.7-1,4.9-2.3,7.5c-0.6,1.8-1.2,1.1-2.7,3.3
					c-2.1,0.8-3.7,1.1-6,1.4c-2.9,0.5-9.5,0.9-12.7,0.2c4.2-1.2,8.1-3.8,11.4-7.1c0.9-0.9,1.7-1.8,2.5-2.8c1.3-1.6,2.5-3.4,3.5-5.2
					c0.4-0.7,0.8-1.5,1.2-2.2c0.5-1.1,1-2.3,1.5-3.4c0.1-0.4,0.3-0.8,0.4-1.2c0.3-0.8,0.5-1.6,0.7-2.3c0,0,0,0,0,0
					c0,0,0.1-0.1,0.4-0.3c0.2-0.1,0.4-0.2,0.7-0.3h0C618.3,347.1,618.6,347,619.1,347L619.1,347z"/>
				<path class="st31" d="M618.3,348.7c-0.5,7-2.7,15.4-7.8,20.8c-1.9,1.6-4.3,3-6.6,2.6C611.8,365.7,616.6,355.9,618.3,348.7z"/>
				<path class="st32" d="M611.9,360.8c-1.2,3.2-5.6,7.9-10.3,11.7c-1.3,0-2.1,0.1-3.3,0C601.2,372.3,607.9,366.7,611.9,360.8
					L611.9,360.8z"/>
			</g>
			<g>
				<g>
					
						<linearGradient id="SVGID_15_" gradientUnits="userSpaceOnUse" x1="613.9969" y1="336.2286" x2="613.9969" y2="329.301" gradientTransform="matrix(1 0 0 -1 -15.341 699.8885)">
						<stop  offset="0" style="stop-color:#F5F549"/>
						<stop  offset="1" style="stop-color:#97C924"/>
					</linearGradient>
					<path class="st33" d="M601.2,346.5c-2,0-2.6,1-2.6,1c-3.2,12.3-13.8,24.9-26.4,24.9h-9.4V385c0,0,0,0,0,0h71.7l-7.2-12.8
						c-11.3-1.7-20.6-13.3-23.5-24.7C603.8,347.6,603.2,346.5,601.2,346.5L601.2,346.5z"/>
					<path class="st29" d="M601.2,347c-0.9,0-1.5,0.2-1.8,0.4c-0.3,0.2-0.4,0.3-0.4,0.3c0,0,0,0,0,0c-1.6,6.2-5.1,12.4-9.7,17.2
						c-4.7,4.7-10.6,8-17,8h-9v11.6h71l-6.6-11.7c-5.5-0.7-10.5-3.7-14.5-7.8c-4.7-4.7-8.1-10.9-9.7-17.2l0,0c0,0-0.1-0.1-0.4-0.3
						C602.6,347.3,602.1,347,601.2,347L601.2,347z"/>
					<path class="st30" d="M601.2,347c0.2,0,0.3,0,0.5,0c0,3.5,0,9.5,0,12.6c0,2.7-1,4.9-2.3,7.5c-0.6,1.8-1.2,1.1-2.7,3.3
						c-2.1,0.8-3.7,1.1-6,1.4c-2.9,0.5-9.5,0.9-12.7,0.2c4.2-1.2,8.1-3.8,11.4-7.1c0.9-0.9,1.7-1.8,2.5-2.8c1.3-1.6,2.5-3.4,3.5-5.2
						c0.4-0.7,0.8-1.5,1.2-2.2c0.5-1.1,1-2.3,1.5-3.4c0.1-0.4,0.3-0.8,0.4-1.2c0.3-0.8,0.5-1.6,0.7-2.3c0,0,0,0,0,0
						c0,0,0.1-0.1,0.4-0.3c0.2-0.1,0.4-0.2,0.7-0.3h0C600.4,347.1,600.7,347,601.2,347L601.2,347z"/>
					<path class="st31" d="M600.4,348.7c-0.5,7-2.7,15.4-7.8,20.8c-1.9,1.6-4.3,3-6.6,2.6C593.9,365.7,598.7,355.9,600.4,348.7z"/>
					<path class="st32" d="M594,360.8c-1.2,3.2-5.6,7.9-10.3,11.7c-1.3,0-2.1,0.1-3.3,0C583.3,372.3,590,366.7,594,360.8L594,360.8z
						"/>
				</g>
			</g>
			<g>
				
					<linearGradient id="SVGID_16_" gradientUnits="userSpaceOnUse" x1="583.3032" y1="336.2286" x2="583.3032" y2="329.301" gradientTransform="matrix(1 0 0 -1 0 699.8885)">
					<stop  offset="0" style="stop-color:#F5F549"/>
					<stop  offset="1" style="stop-color:#97C924"/>
				</linearGradient>
				<path class="st34" d="M585.9,347.6c3.2,12.3,13.8,24.9,26.3,24.9h9.4V385c0,0,0,0,0,0h-76.8c0,0,0,0,0,0v-12.6h9.4
					c12.6,0,23.2-12.6,26.4-24.9c0,0,0.6-1,2.6-1S585.9,347.6,585.9,347.6L585.9,347.6z"/>
				<path class="st29" d="M583.3,347c0.9,0,1.5,0.2,1.8,0.4c0.3,0.2,0.4,0.3,0.4,0.3l0,0c1.6,6.2,5.1,12.4,9.7,17.2
					c4.7,4.7,10.6,8,17.1,8h8.9v11.6h-75.8v-11.6h9c6.5,0,12.4-3.2,17-8c4.6-4.7,8.1-10.9,9.7-17.2c0,0,0,0,0,0c0,0,0.1-0.1,0.4-0.3
					C581.8,347.3,582.4,347,583.3,347z"/>
				<path class="st30" d="M582.5,347.1c-0.1,0-0.2,0-0.3,0.1h0c-0.2,0.1-0.5,0.2-0.7,0.3c-0.3,0.2-0.4,0.3-0.4,0.3c0,0,0,0,0,0
					c-0.2,0.8-0.4,1.6-0.7,2.3c-0.1,0.4-0.3,0.8-0.4,1.2c-0.4,1.2-0.9,2.3-1.5,3.4c-0.4,0.7-0.8,1.5-1.2,2.2c-1,1.8-2.2,3.6-3.5,5.2
					c-0.8,1-1.6,1.9-2.5,2.8c-3.3,3.3-7.1,5.9-11.4,7.1c3.2,0.7,4.7-0.1,7.6-0.5c2.3-0.4,4.9-0.7,7.1-1.4c1.6-2.2,1-1.5,1.7-3.3
					c1.4-2.6,3.4-4.9,3.9-7.8C582.1,355.5,582.5,349,582.5,347.1L582.5,347.1z"/>
				<path class="st31" d="M582.5,348.7c-0.5,7-2.7,15.4-7.8,20.8c-1.9,1.6-4.3,3-6.6,2.6C576,365.7,580.8,355.9,582.5,348.7z"/>
				<path class="st32" d="M576.1,360.8c-1.2,3.2-5.6,7.9-10.3,11.7c-1.3,0-2.1,0.1-3.3,0C565.4,372.3,572.1,366.7,576.1,360.8
					L576.1,360.8z"/>
				<path class="st30" d="M584.4,347.2L584.4,347.2c0.3,0.1,0.5,0.2,0.7,0.3c0.3,0.2,0.4,0.3,0.4,0.3c0,0,0,0,0,0
					c0.2,0.8,0.4,1.6,0.7,2.3c0.1,0.4,0.3,0.8,0.4,1.2c0.4,1.2,0.9,2.3,1.5,3.4c0.4,0.8,0.8,1.5,1.2,2.2c1,1.8,2.2,3.6,3.5,5.2
					c0.8,1,1.6,1.9,2.5,2.8c3.3,3.3,7.1,6.4,11.4,7.6c-8.5,0-12.1-0.7-15.2-4.7c-3.1-4-4.2-5.7-4.8-8.1
					C586,357.4,584.3,352.1,584.4,347.2L584.4,347.2z"/>
				<path class="st31" d="M585.1,348.7c0.5,7,2.6,14,7.7,19.4c1.9,1.6,4.3,3,6.6,2.6C590.8,364.9,586.7,355.9,585.1,348.7
					L585.1,348.7z"/>
			</g>
			<g id="l">
				
					<linearGradient id="SVGID_17_" gradientUnits="userSpaceOnUse" x1="560.8403" y1="336.2286" x2="560.8403" y2="329.301" gradientTransform="matrix(1 0 0 -1 0 699.8885)">
					<stop  offset="0" style="stop-color:#F5F549"/>
					<stop  offset="1" style="stop-color:#97C924"/>
				</linearGradient>
				<path class="st35" d="M565.5,346.5c-2,0-2.6,1-2.6,1c-2.9,11.4-13.8,26-25.1,27.8l-5.6,9.7h57.2v-13.2
					c-10.3-2.8-18.5-13.6-21.3-24.2C568.1,347.6,567.5,346.5,565.5,346.5L565.5,346.5z"/>
				<path class="st29" d="M565.5,347c-0.9,0-1.5,0.2-1.8,0.4c-0.3,0.2-0.4,0.3-0.4,0.3l0,0c-1.6,6.2-5.5,12.5-9.4,17.5
					c-4,5-11.3,10.1-16.4,10.6l-5,8.6h56.1V372c-4.1-1.3-7.9-3.8-11.1-7.1c-4.6-4.7-8.1-10.9-9.7-17.2c0,0,0,0,0,0
					c0,0-0.1-0.1-0.4-0.3C567,347.3,566.5,347,565.5,347L565.5,347z"/>
				<path class="st36" d="M564,348.7c-0.7,10.6-6.6,23.9-13.2,26.2c-2.2,0.7-5.9,1-7.3,1.2C555.1,370.5,562,357.6,564,348.7z"/>
				<path class="st30" d="M565.5,347c-0.2,0-0.3,0-0.5,0c0,3.5,0,9.5,0,12.6c0,2.7,1,4.9,2.3,7.5c0.1,0.2,0.2,0.4,0.2,0.6
					c0.5,1.3,0.8,1.7,2.7,3.1c5.8,4.4,13,5.1,17.3,4.7c-1.3-1-2.8-2-4-2.9c2-0.1,3.9-0.3,5.3-0.6c-4.2-1.2-8.1-3.8-11.4-7.1
					c-0.6-0.6-1.1-1.2-1.6-1.8c-0.2-0.3-0.6-0.8-0.7-0.9c-1.3-1.6-2.6-3.4-3.7-5.3c-0.4-0.7-0.8-1.5-1.2-2.2c-0.7-1.5-1.3-3-1.9-4.6
					c-0.3-0.8-0.5-1.5-0.7-2.3c0,0,0,0,0,0c0,0-0.1-0.1-0.4-0.3c-0.2-0.1-0.4-0.2-0.7-0.3h0C566.3,347.1,565.9,347,565.5,347
					L565.5,347z"/>
				<path class="st37" d="M566.4,348.7c0.5,7,2.7,15.4,7.8,20.8c1.9,1.6,4.3,3,6.6,2.6C572.8,365.7,568,355.9,566.4,348.7z"/>
				<path class="st32" d="M571.2,358.5c2.8,6.8,9.8,13.2,17,17.4c1.3,0,1.7,0,3-0.1C586,373.1,577.7,369.1,571.2,358.5z"/>
			</g>
			<g>
				<g>
					
						<linearGradient id="SVGID_18_" gradientUnits="userSpaceOnUse" x1="558.2686" y1="336.2286" x2="558.2686" y2="329.301" gradientTransform="matrix(1 0 0 -1 -15.43 699.8885)">
						<stop  offset="0" style="stop-color:#F5F549"/>
						<stop  offset="1" style="stop-color:#97C924"/>
					</linearGradient>
					<path class="st38" d="M547.5,346.5c-2,0-2.6,1-2.6,1c-2.9,11.4-13.8,26-25.1,27.8l-5.6,9.7h57.2v-13.2
						c-10.3-2.8-18.5-13.6-21.3-24.2C550.1,347.6,549.5,346.5,547.5,346.5L547.5,346.5z"/>
					<path class="st29" d="M547.5,347c-0.9,0-1.5,0.2-1.8,0.4c-0.3,0.2-0.4,0.3-0.4,0.3l0,0c-1.6,6.2-5.5,12.5-9.4,17.5
						c-4,5-11.3,10.1-16.4,10.6l-5,8.6h56.1V372c-4.1-1.3-7.9-3.8-11.1-7.1c-4.6-4.7-8.1-10.9-9.7-17.2c0,0,0,0,0,0
						c0,0-0.1-0.1-0.4-0.3C549,347.3,548.5,347,547.5,347L547.5,347z"/>
					<path class="st36" d="M546,348.7c-0.7,10.6-6.6,23.9-13.2,26.2c-2.2,0.7-5.9,1-7.3,1.2C537.1,370.5,544,357.6,546,348.7z"/>
					<path class="st30" d="M547.5,347c-0.2,0-0.3,0-0.5,0c0,3.5,0,9.5,0,12.6c0,2.7,1,4.9,2.3,7.5c0.1,0.2,0.2,0.4,0.2,0.6
						c0.5,1.3,0.8,1.7,2.7,3.1c5.8,4.4,13,5.1,17.3,4.7c-1.3-1-2.8-2-4-2.9c2-0.1,3.9-0.3,5.3-0.6c-4.2-1.2-8.1-3.8-11.4-7.1
						c-0.6-0.6-1.1-1.2-1.6-1.8c-0.2-0.3-0.6-0.8-0.7-0.9c-1.3-1.6-2.6-3.4-3.7-5.3c-0.4-0.7-0.8-1.5-1.2-2.2
						c-0.7-1.5-1.3-3-1.9-4.6c-0.3-0.8-0.5-1.5-0.7-2.3c0,0,0,0,0,0c0,0-0.1-0.1-0.4-0.3c-0.2-0.1-0.4-0.2-0.7-0.3h0
						C548.3,347.1,547.9,347,547.5,347L547.5,347z"/>
					<path class="st31" d="M548.4,348.7c0.5,7,2.7,15.4,7.8,20.8c1.9,1.6,4.3,3,6.6,2.6C554.8,365.7,550,355.9,548.4,348.7z"/>
					<path class="st32" d="M553.2,358.5c2.8,6.8,9.8,13.2,17,17.4c1.3,0,1.7,0,3-0.1C568,373.1,559.7,369.1,553.2,358.5z"/>
				</g>
			</g>
		</g>
		<g>
			<path class="st1" d="M649.2,378.8c-0.7,0.2-5.2-0.2-7.5-0.1l-1.5,0.4c-1.3,0-2.6,0-3.9,0c-4.2,0-7.8,1.1-11.8,1.1
				c-4,0-7.5-1.1-11.8-1.1c-1.3,0-2.6,0-3.9,0c-4.2,0-7.8,1.1-11.8,1.1c-4,0-7.6-1.1-11.8-1.1c-1.3,0-2.6,0-3.9,0
				c-4.2,0-7.7,1.1-11.7,1.1c-4,0-7.5-1.1-11.7-1.1c-0.3,0-0.6,0-0.9,0c-0.2,0-0.4,0-0.6,0c-0.1,0-0.3,0-0.4,0c-0.1,0-0.3,0-0.4,0
				c-0.2,0-0.4,0-0.6,0c-0.3,0-0.6,0-0.9,0c-4.2,0-7.7,1.1-11.8,1.1c-4,0-7.6-1.1-11.8-1.1c-0.3,0-0.6,0-0.9,0c-0.2,0-0.4,0-0.6,0
				c-0.1,0-0.3,0-0.4,0c-0.1,0-0.3,0-0.4,0c-0.2,0-0.4,0-0.6,0c-0.3,0-0.6,0-0.9,0c-3.4,0-7.3,0.7-10.4,1l-7.3,12.7l73.5,0l75.1,0
				L649.2,378.8z"/>
			
				<linearGradient id="SVGID_19_" gradientUnits="userSpaceOnUse" x1="283.5085" y1="748.9602" x2="284.6752" y2="748.9602" gradientTransform="matrix(116.197 0 0 -5.8491 -32428.541 4761.0869)">
				<stop  offset="0" style="stop-color:#002255"/>
				<stop  offset="0.5" style="stop-color:#0044AA"/>
				<stop  offset="1" style="stop-color:#002255"/>
			</linearGradient>
			<path class="st39" d="M639.3,377c-0.2,0-0.5,0-0.7,0c-3.8,0.1-6.5,1.3-13.1,1.3c-6.6,0-7.3-1.2-14.7-1c-6.9,0.2-9.9,1.5-13.6,1.4
				c-3.8-0.1-9.9-0.8-14.6-0.3c-4.7,0.5-10.3,1.5-14,1.5c-4.6,0-9.1-0.9-13.9-0.4c-4.8,0.5-7,1.8-12.9,1.7c-5.1,0-10.6-0.8-14.9-0.8
				c-4,0-8.5,1.1-11.8,1.7l-1,1.7c2.6-0.3,10-1.4,12.6-1.5c2.7-0.1,12.5,0.6,17.9,0.4c5.4-0.2,6-1.4,12.4-1.4
				c4.4,0,7.8,0.5,12.3,0.5c2.8,0,5.4-1.4,9.7-1.4c1.1,0,2.2-0.1,3.3-0.1c3.6-0.6,9.8,0.1,14.1,0.3c3.9,0.2,6.4-0.7,10.4-0.9
				c1.7-0.1,3.5-0.1,5.2-0.2c4-0.1,7.5,0.7,11.3,0.7c3.8-0.2,7.5-1.1,11.5-1.2c1.8-0.1,3.5-0.1,5.2-0.2c2.7-0.1,6.8,0.1,9.7,0.6
				l-1-1.7C646.1,377.6,642.7,377,639.3,377L639.3,377z"/>
			<g id="n">
				
					<linearGradient id="m_1_" gradientUnits="userSpaceOnUse" x1="283.6545" y1="686.9991" x2="284.8211" y2="686.9991" gradientTransform="matrix(126.726 0 0 -1.522 -35436.9961 1437.0146)">
					<stop  offset="0" style="stop-color:#002255"/>
					<stop  offset="0.5" style="stop-color:#0044AA"/>
					<stop  offset="1" style="stop-color:#002255"/>
				</linearGradient>
				<path id="m" class="st40" d="M525.4,390.5c-4,0-7.5,1-11.3,1.1c-1.4,0-2.8-0.2-4.1-0.4l-0.6,1c0.6,0,1.1,0.1,1.7,0.1
					c1.8,0,3.5,0,5.2,0c4,0,7.4-1,11.2-1.1c3.8,0.1,7.2,1.1,11.3,1.1c1.8,0,3.5,0,5.2,0c4,0,7.5-1,11.3-1.1
					c3.8,0.1,7.3,1.1,11.3,1.1c1.7,0,3.5,0,5.2,0c4,0,7.5-1,11.3-1.1c3.8,0.1,7.2,1.1,11.3,1.1c1.8,0,3.5,0,5.2,0
					c4,0,7.5-1,11.3-1.1c3.8,0.1,7.2,1.1,11.3,1.1c1.7,0,3.5,0,5.2,0c4,0,7.5-1,11.3-1.1c3.8,0.1,7.2,1.1,11.3,1.1
					c1.8,0,3.5,0,5.2,0c0.7,0,1.4,0,2.1-0.1l-0.5-0.9c-1.2,0.2-2.5,0.3-3.8,0.4c-3.8-0.1-7.2-1.1-11.3-1.1c-1.8,0-3.5,0-5.2,0
					c-4,0-7.5,1-11.3,1.1c-3.8-0.1-7.2-1.1-11.3-1.1c-1.7,0-3.5,0-5.2,0c-4,0-7.5,1-11.3,1.1c-3.8-0.1-7.2-1.1-11.3-1.1
					c-1.8,0-3.5,0-5.2,0c-4,0-7.5,1-11.3,1.1c-3.8-0.1-7.2-1.1-11.3-1.1c-1.8,0-3.5,0-5.2,0c-4,0-7.5,1-11.3,1.1
					c-3.8-0.1-7.2-1.1-11.3-1.1C528.8,390.5,527.1,390.6,525.4,390.5L525.4,390.5z"/>
				<g>
					
						<linearGradient id="SVGID_20_" gradientUnits="userSpaceOnUse" x1="283.6545" y1="687.1403" x2="284.8211" y2="687.1403" gradientTransform="matrix(126.726 0 0 -1.522 -35436.9961 1435.7257)">
						<stop  offset="0" style="stop-color:#002255"/>
						<stop  offset="0.5" style="stop-color:#0044AA"/>
						<stop  offset="1" style="stop-color:#002255"/>
					</linearGradient>
					<path class="st41" d="M525.4,389c-4,0-7.5,1-11.3,1.1c-1.4,0-2.8-0.2-4.1-0.4l-0.6,1c0.6,0,1.1,0.1,1.7,0.1c1.8,0,3.5,0,5.2,0
						c4,0,7.4-1,11.2-1.1c3.8,0.1,7.2,1.1,11.3,1.1c1.8,0,3.5,0,5.2,0c4,0,7.5-1,11.3-1.1c3.8,0.1,7.3,1.1,11.3,1.1
						c1.7,0,3.5,0,5.2,0c4,0,7.5-1,11.3-1.1c3.8,0.1,7.2,1.1,11.3,1.1c1.8,0,3.5,0,5.2,0c4,0,7.5-1,11.3-1.1
						c3.8,0.1,7.2,1.1,11.3,1.1c1.7,0,3.5,0,5.2,0c4,0,7.5-1,11.3-1.1c3.8,0.1,7.2,1.1,11.3,1.1c1.8,0,3.5,0,5.2,0
						c0.7,0,1.4,0,2.1-0.1l-0.5-0.9c-1.2,0.2-2.5,0.3-3.8,0.4c-3.8-0.1-7.2-1.1-11.3-1.1c-1.8,0-3.5,0-5.2,0c-4,0-7.5,1-11.3,1.1
						c-3.8-0.1-7.2-1.1-11.3-1.1c-1.7,0-3.5,0-5.2,0c-4,0-7.5,1-11.3,1.1c-3.8-0.1-7.2-1.1-11.3-1.1c-1.8,0-3.5,0-5.2,0
						c-4,0-7.5,1-11.3,1.1c-3.8-0.1-7.2-1.1-11.3-1.1c-1.8,0-3.5,0-5.2,0c-4,0-7.5,1-11.3,1.1c-3.8-0.1-7.2-1.1-11.3-1.1
						C528.8,389,527.1,389.1,525.4,389L525.4,389z"/>
				</g>
				<g>
					
						<linearGradient id="SVGID_21_" gradientUnits="userSpaceOnUse" x1="283.6545" y1="687.2811" x2="284.8211" y2="687.2811" gradientTransform="matrix(126.726 0 0 -1.522 -35436.9961 1434.4397)">
						<stop  offset="0" style="stop-color:#002255"/>
						<stop  offset="0.5" style="stop-color:#0044AA"/>
						<stop  offset="1" style="stop-color:#002255"/>
					</linearGradient>
					<path class="st42" d="M525.4,387.5c-4,0-7.5,1-11.3,1.1c-1.4,0-2.8-0.2-4.1-0.4l-0.6,1c0.6,0,1.1,0.1,1.7,0.1
						c1.8,0,3.5,0,5.2,0c4,0,7.4-1,11.2-1.1c3.8,0.1,7.2,1.1,11.3,1.1c1.8,0,3.5,0,5.2,0c4,0,7.5-1,11.3-1.1
						c3.8,0.1,7.3,1.1,11.3,1.1c1.7,0,3.5,0,5.2,0c4,0,7.5-1,11.3-1.1c3.8,0.1,7.2,1.1,11.3,1.1c1.8,0,3.5,0,5.2,0
						c4,0,7.5-1,11.3-1.1c3.8,0.1,7.2,1.1,11.3,1.1c1.7,0,3.5,0,5.2,0c4,0,7.5-1,11.3-1.1c3.8,0.1,7.2,1.1,11.3,1.1
						c1.8,0,3.5,0,5.2,0c0.7,0,1.4,0,2.1-0.1l-0.5-0.9c-1.2,0.2-2.5,0.3-3.8,0.4c-3.8-0.1-7.2-1.1-11.3-1.1c-1.8,0-3.5,0-5.2,0
						c-4,0-7.5,1-11.3,1.1c-3.8-0.1-7.2-1.1-11.3-1.1c-1.7,0-3.5,0-5.2,0c-4,0-7.5,1-11.3,1.1c-3.8-0.1-7.2-1.1-11.3-1.1
						c-1.8,0-3.5,0-5.2,0c-4,0-7.5,1-11.3,1.1c-3.8-0.1-7.2-1.1-11.3-1.1c-1.8,0-3.5,0-5.2,0c-4,0-7.5,1-11.3,1.1
						c-3.8-0.1-7.2-1.1-11.3-1.1C528.8,387.5,527.1,387.6,525.4,387.5L525.4,387.5z"/>
				</g>
			</g>
			<g>
				<g>
					
						<linearGradient id="SVGID_22_" gradientUnits="userSpaceOnUse" x1="283.6545" y1="687.4226" x2="284.8211" y2="687.4226" gradientTransform="matrix(126.726 0 0 -1.522 -35436.9961 1433.1477)">
						<stop  offset="0" style="stop-color:#002255"/>
						<stop  offset="0.5" style="stop-color:#0044AA"/>
						<stop  offset="1" style="stop-color:#002255"/>
					</linearGradient>
					<path class="st43" d="M525.4,386c-4,0-7.5,1-11.3,1.1c-1.4,0-2.8-0.2-4.1-0.4l-0.6,1c0.6,0,1.1,0.1,1.7,0.1c1.8,0,3.5,0,5.2,0
						c4,0,7.4-1,11.2-1.1c3.8,0.1,7.2,1.1,11.3,1.1c1.8,0,3.5,0,5.2,0c4,0,7.5-1,11.3-1.1c3.8,0.1,7.3,1.1,11.3,1.1
						c1.7,0,3.5,0,5.2,0c4,0,7.5-1,11.3-1.1c3.8,0.1,7.2,1.1,11.3,1.1c1.8,0,3.5,0,5.2,0c4,0,7.5-1,11.3-1.1
						c3.8,0.1,7.2,1.1,11.3,1.1c1.7,0,3.5,0,5.2,0c4,0,7.5-1,11.3-1.1c3.8,0.1,7.2,1.1,11.3,1.1c1.8,0,3.5,0,5.2,0
						c0.7,0,1.4,0,2.1-0.1l-0.5-0.9c-1.2,0.2-2.5,0.3-3.8,0.4c-3.8-0.1-7.2-1.1-11.3-1.1c-1.8,0-3.5,0-5.2,0c-4,0-7.5,1-11.3,1.1
						c-3.8-0.1-7.2-1.1-11.3-1.1c-1.7,0-3.5,0-5.2,0c-4,0-7.5,1-11.3,1.1c-3.8-0.1-7.2-1.1-11.3-1.1c-1.8,0-3.5,0-5.2,0
						c-4,0-7.5,1-11.3,1.1c-3.8-0.1-7.2-1.1-11.3-1.1c-1.8,0-3.5,0-5.2,0c-4,0-7.5,1-11.3,1.1c-3.8-0.1-7.2-1.1-11.3-1.1
						C528.8,386,527.1,386.1,525.4,386L525.4,386z"/>
					<g>
						
							<linearGradient id="SVGID_23_" gradientUnits="userSpaceOnUse" x1="283.6545" y1="687.5637" x2="284.8211" y2="687.5637" gradientTransform="matrix(126.726 0 0 -1.522 -35436.9961 1431.8586)">
							<stop  offset="0" style="stop-color:#002255"/>
							<stop  offset="0.5" style="stop-color:#0044AA"/>
							<stop  offset="1" style="stop-color:#002255"/>
						</linearGradient>
						<path class="st44" d="M525.4,384.5c-4,0-7.5,1-11.3,1.1c-1.4,0-2.8-0.2-4.1-0.4l-0.6,1c0.6,0,1.1,0.1,1.7,0.1
							c1.8,0,3.5,0,5.2,0c4,0,7.4-1,11.2-1.1c3.8,0.1,7.2,1.1,11.3,1.1c1.8,0,3.5,0,5.2,0c4,0,7.5-1,11.3-1.1
							c3.8,0.1,7.3,1.1,11.3,1.1c1.7,0,3.5,0,5.2,0c4,0,7.5-1,11.3-1.1c3.8,0.1,7.2,1.1,11.3,1.1c1.8,0,3.5,0,5.2,0
							c4,0,7.5-1,11.3-1.1c3.8,0.1,7.2,1.1,11.3,1.1c1.7,0,3.5,0,5.2,0c4,0,7.5-1,11.3-1.1c3.8,0.1,7.2,1.1,11.3,1.1
							c1.8,0,3.5,0,5.2,0c0.7,0,1.4,0,2.1-0.1l-0.5-0.9c-1.2,0.2-2.5,0.3-3.8,0.4c-3.8-0.1-7.2-1.1-11.3-1.1c-1.8,0-3.5,0-5.2,0
							c-4,0-7.5,1-11.3,1.1c-3.8-0.1-7.2-1.1-11.3-1.1c-1.7,0-3.5,0-5.2,0c-4,0-7.5,1-11.3,1.1c-3.8-0.1-7.2-1.1-11.3-1.1
							c-1.8,0-3.5,0-5.2,0c-4,0-7.5,1-11.3,1.1c-3.8-0.1-7.2-1.1-11.3-1.1c-1.8,0-3.5,0-5.2,0c-4,0-7.5,1-11.3,1.1
							c-3.8-0.1-7.2-1.1-11.3-1.1C528.8,384.5,527.1,384.6,525.4,384.5L525.4,384.5z"/>
					</g>
					<g>
						
							<linearGradient id="SVGID_24_" gradientUnits="userSpaceOnUse" x1="283.6545" y1="687.7046" x2="284.8211" y2="687.7046" gradientTransform="matrix(126.726 0 0 -1.522 -35436.9961 1430.5726)">
							<stop  offset="0" style="stop-color:#002255"/>
							<stop  offset="0.5" style="stop-color:#0044AA"/>
							<stop  offset="1" style="stop-color:#002255"/>
						</linearGradient>
						<path class="st45" d="M525.4,383c-4,0-7.5,1-11.3,1.1c-1.4,0-2.8-0.2-4.1-0.4l-0.6,1c0.6,0,1.1,0.1,1.7,0.1c1.8,0,3.5,0,5.2,0
							c4,0,7.4-1,11.2-1.1c3.8,0.1,7.2,1.1,11.3,1.1c1.8,0,3.5,0,5.2,0c4,0,7.5-1,11.3-1.1c3.8,0.1,7.3,1.1,11.3,1.1
							c1.7,0,3.5,0,5.2,0c4,0,7.5-1,11.3-1.1c3.8,0.1,7.2,1.1,11.3,1.1c1.8,0,3.5,0,5.2,0c4,0,7.5-1,11.3-1.1
							c3.8,0.1,7.2,1.1,11.3,1.1c1.7,0,3.5,0,5.2,0c4,0,7.5-1,11.3-1.1c3.8,0.1,7.2,1.1,11.3,1.1c1.8,0,3.5,0,5.2,0
							c0.7,0,1.4,0,2.1-0.1l-0.5-0.9c-1.2,0.2-2.5,0.3-3.8,0.4c-3.8-0.1-7.2-1.1-11.3-1.1c-1.8,0-3.5,0-5.2,0c-4,0-7.5,1-11.3,1.1
							c-3.8-0.1-7.2-1.1-11.3-1.1c-1.7,0-3.5,0-5.2,0c-4,0-7.5,1-11.3,1.1c-3.8-0.1-7.2-1.1-11.3-1.1c-1.8,0-3.5,0-5.2,0
							c-4,0-7.5,1-11.3,1.1c-3.8-0.1-7.2-1.1-11.3-1.1c-1.8,0-3.5,0-5.2,0c-4,0-7.5,1-11.3,1.1c-3.8-0.1-7.2-1.1-11.3-1.1
							C528.8,383,527.1,383.1,525.4,383L525.4,383z"/>
					</g>
				</g>
			</g>
			<g>
				<g>
					
						<linearGradient id="SVGID_25_" gradientUnits="userSpaceOnUse" x1="283.6545" y1="687.8455" x2="284.8211" y2="687.8455" gradientTransform="matrix(126.726 0 0 -1.522 -35436.9961 1429.2856)">
						<stop  offset="0" style="stop-color:#002255"/>
						<stop  offset="0.5" style="stop-color:#0044AA"/>
						<stop  offset="1" style="stop-color:#002255"/>
					</linearGradient>
					<path class="st46" d="M525.4,381.5c-4,0-7.5,1-11.3,1.1c-1.4,0-2.8-0.2-4.1-0.4l-0.6,1c0.6,0,1.1,0.1,1.7,0.1
						c1.8,0,3.5,0,5.2,0c4,0,7.4-1,11.2-1.1c3.8,0.1,7.2,1.1,11.3,1.1c1.8,0,3.5,0,5.2,0c4,0,7.5-1,11.3-1.1
						c3.8,0.1,7.3,1.1,11.3,1.1c1.7,0,3.5,0,5.2,0c4,0,7.5-1,11.3-1.1c3.8,0.1,7.2,1.1,11.3,1.1c1.8,0,3.5,0,5.2,0
						c4,0,7.5-1,11.3-1.1c3.8,0.1,7.2,1.1,11.3,1.1c1.7,0,3.5,0,5.2,0c4,0,7.5-1,11.3-1.1c3.8,0.1,7.2,1.1,11.3,1.1
						c1.8,0,3.5,0,5.2,0c0.7,0,1.4,0,2.1-0.1l-0.5-0.9c-1.2,0.2-2.5,0.3-3.8,0.4c-3.8-0.1-7.2-1.1-11.3-1.1c-1.8,0-3.5,0-5.2,0
						c-4,0-7.5,1-11.3,1.1c-3.8-0.1-7.2-1.1-11.3-1.1c-1.7,0-3.5,0-5.2,0c-4,0-7.5,1-11.3,1.1c-3.8-0.1-7.2-1.1-11.3-1.1
						c-1.8,0-3.5,0-5.2,0c-4,0-7.5,1-11.3,1.1c-3.8-0.1-7.2-1.1-11.3-1.1c-1.8,0-3.5,0-5.2,0c-4,0-7.5,1-11.3,1.1
						c-3.8-0.1-7.2-1.1-11.3-1.1C528.8,381.5,527.1,381.6,525.4,381.5L525.4,381.5z"/>
					<g>
						
							<linearGradient id="SVGID_26_" gradientUnits="userSpaceOnUse" x1="283.6545" y1="687.9866" x2="284.8211" y2="687.9866" gradientTransform="matrix(126.726 0 0 -1.522 -35436.9961 1427.9967)">
							<stop  offset="0" style="stop-color:#002255"/>
							<stop  offset="0.5" style="stop-color:#0044AA"/>
							<stop  offset="1" style="stop-color:#002255"/>
						</linearGradient>
						<path class="st47" d="M525.4,380c-4,0-7.5,1-11.3,1.1c-1.4,0-2.8-0.2-4.1-0.4l-0.6,1c0.6,0,1.1,0.1,1.7,0.1c1.8,0,3.5,0,5.2,0
							c4,0,7.4-1,11.2-1.1c3.8,0.1,7.2,1.1,11.3,1.1c1.8,0,3.5,0,5.2,0c4,0,7.5-1,11.3-1.1c3.8,0.1,7.3,1.1,11.3,1.1
							c1.7,0,3.5,0,5.2,0c4,0,7.5-1,11.3-1.1c3.8,0.1,7.2,1.1,11.3,1.1c1.8,0,3.5,0,5.2,0c4,0,7.5-1,11.3-1.1
							c3.8,0.1,7.2,1.1,11.3,1.1c1.7,0,3.5,0,5.2,0c4,0,7.5-1,11.3-1.1c3.8,0.1,7.2,1.1,11.3,1.1c1.8,0,3.5,0,5.2,0
							c0.7,0,1.4,0,2.1-0.1l-0.5-0.9c-1.2,0.2-2.5,0.3-3.8,0.4c-3.8-0.1-7.2-1.1-11.3-1.1c-1.8,0-3.5,0-5.2,0c-4,0-7.5,1-11.3,1.1
							c-3.8-0.1-7.2-1.1-11.3-1.1c-1.7,0-3.5,0-5.2,0c-4,0-7.5,1-11.3,1.1c-3.8-0.1-7.2-1.1-11.3-1.1c-1.8,0-3.5,0-5.2,0
							c-4,0-7.5,1-11.3,1.1c-3.8-0.1-7.2-1.1-11.3-1.1c-1.8,0-3.5,0-5.2,0c-4,0-7.5,1-11.3,1.1c-3.8-0.1-7.2-1.1-11.3-1.1
							C528.8,380,527.1,380.1,525.4,380L525.4,380z"/>
					</g>
					<g>
						
							<linearGradient id="SVGID_27_" gradientUnits="userSpaceOnUse" x1="283.6545" y1="688.1275" x2="284.8211" y2="688.1275" gradientTransform="matrix(126.726 0 0 -1.522 -35436.9961 1426.7107)">
							<stop  offset="0" style="stop-color:#002255"/>
							<stop  offset="0.5" style="stop-color:#0044AA"/>
							<stop  offset="1" style="stop-color:#002255"/>
						</linearGradient>
						<path class="st48" d="M525.4,378.5c-4,0-7.5,1-11.3,1.1c-1.4,0-2.8-0.2-4.1-0.4l-0.6,1c0.6,0,1.1,0.1,1.7,0.1
							c1.8,0,3.5,0,5.2,0c4,0,7.4-1,11.2-1.1c3.8,0.1,7.2,1.1,11.3,1.1c1.8,0,3.5,0,5.2,0c4,0,7.5-1,11.3-1.1
							c3.8,0.1,7.3,1.1,11.3,1.1c1.7,0,3.5,0,5.2,0c4,0,7.5-1,11.3-1.1c3.8,0.1,7.2,1.1,11.3,1.1c1.8,0,3.5,0,5.2,0
							c4,0,7.5-1,11.3-1.1c3.8,0.1,7.2,1.1,11.3,1.1c1.7,0,3.5,0,5.2,0c4,0,7.5-1,11.3-1.1c3.8,0.1,7.2,1.1,11.3,1.1
							c1.8,0,3.5,0,5.2,0c0.7,0,1.4,0,2.1-0.1l-0.5-0.9c-1.2,0.2-2.5,0.3-3.8,0.4c-3.8-0.1-7.2-1.1-11.3-1.1c-1.8,0-3.5,0-5.2,0
							c-4,0-7.5,1-11.3,1.1c-3.8-0.1-7.2-1.1-11.3-1.1c-1.7,0-3.5,0-5.2,0c-4,0-7.5,1-11.3,1.1c-3.8-0.1-7.2-1.1-11.3-1.1
							c-1.8,0-3.5,0-5.2,0c-4,0-7.5,1-11.3,1.1c-3.8-0.1-7.2-1.1-11.3-1.1c-1.8,0-3.5,0-5.2,0c-4,0-7.5,1-11.3,1.1
							c-3.8-0.1-7.2-1.1-11.3-1.1C528.8,378.5,527.1,378.6,525.4,378.5L525.4,378.5z"/>
					</g>
				</g>
			</g>
		</g>
		<path class="st29" d="M517.8,378.8l-2.8,4.9c3.3-0.5,8.3-2,12.4-2c4.3,0,9.4,1.1,14.5,1.1c5.9,0,8.1-1.3,12.9-1.7
			c4.8-0.5,9.3,0.6,13.9,0.6c3.7,0,9.3-1.3,14-1.8c4.7-0.5,9,0.3,14.7,0.4c5.7,0.1,6.6-1.4,13.5-1.5c7.4-0.2,8.1,1,14.7,1
			c4.9,0.3,9.2-1,13.6-1.3c4.4-0.3,6.5,0.1,9.7,0.1l-2.1-3.8c0,0-0.1,0-0.1,0l-118.1,2.6L517.8,378.8z"/>
		<path class="st1" d="M641.7,378.8c0,0,3.2,0.2,4.5,0.3c1.1,0.1,2.3,0.2,3.4,0.3l-0.4-0.6C648.6,379,644.1,378.6,641.7,378.8z"/>
	</g>
</g>
<path class="st2" d="M583.3,262.4l-37.5,65l-38.3,66.4l75,0l76.7,0l-37.5-65L583.3,262.4z M583.3,265.9l36.8,63.8l36,62.3l-73.6,0
	l-72,0l36.8-63.8L583.3,265.9z"/>
</svg>
