<svg id="Layer_1" data-name="Layer 1" xmlns="http://www.w3.org/2000/svg" width="493.89mm" height="246.94mm" viewBox="0 0 1400 700">
  <defs>
    <style>
      .cls-1 {
        fill: #00afca;
      }

      .cls-2, .cls-3 {
        fill: #fec50c;
      }

      .cls-3 {
        stroke: #00afca;
        stroke-miterlimit: 2;
        stroke-width: 0.27px;
      }
    </style>
  </defs>
  <path class="cls-1" d="M0,0H1400V700H0Z" transform="translate(0 0)"/>
  <g>
    <circle class="cls-2" cx="756.33" cy="294" r="94.18"/>
    <g id="c">
      <g id="b">
        <path id="a" class="cls-2" d="M756.33,187c5.6-.07,7.7-3.57,7.7-7.77,0-5.6-7.7-32.27-7.7-32.27s-7.7,26.67-7.7,32.27C748.63,183.4,750.73,187,756.33,187Z" transform="translate(0 0)"/>
        <path class="cls-2" d="M863.36,294c.07,5.6,3.57,7.7,7.77,7.7,5.6,0,32.27-7.7,32.27-7.7s-26.67-7.7-32.27-7.7C866.93,286.3,863.36,288.4,863.36,294Z" transform="translate(0 0)"/>
        <path class="cls-2" d="M756.33,401c-5.6.07-7.7,3.57-7.7,7.77,0,5.6,7.7,32.27,7.7,32.27S764,414.4,764,408.8C764,404.6,761.93,401,756.33,401Z" transform="translate(0 0)"/>
        <path class="cls-2" d="M649.3,294c-.07-5.6-3.57-7.7-7.77-7.7-5.6,0-32.27,7.7-32.27,7.7s26.67,7.7,32.27,7.7C645.73,301.7,649.3,299.6,649.3,294Z" transform="translate(0 0)"/>
      </g>
      <g>
        <path class="cls-2" d="M797.29,195.12c5.2,2.08,8.48-.35,10.08-4.24,2.15-5.17,5.24-32.76,5.24-32.76s-17.32,21.7-19.46,26.87C791.54,188.87,792.11,193,797.29,195.12Z" transform="translate(0 0)"/>
        <path class="cls-2" d="M855.21,335c-2.08,5.2.35,8.48,4.23,10.09,5.18,2.14,32.76,5.23,32.76,5.23S870.51,333,865.34,330.82C861.46,329.21,857.35,329.78,855.21,335Z" transform="translate(0 0)"/>
        <path class="cls-2" d="M715.37,392.88c-5.2-2.08-8.48.35-10.09,4.23-2.14,5.18-5.23,32.76-5.23,32.76s17.32-21.69,19.46-26.86C721.12,399.13,720.54,395,715.37,392.88Z" transform="translate(0 0)"/>
        <path class="cls-2" d="M657.45,253c2.07-5.2-.36-8.48-4.24-10.09-5.17-2.14-32.76-5.23-32.76-5.23s21.7,17.32,26.87,19.46C651.2,258.79,655.3,258.21,657.45,253Z" transform="translate(0 0)"/>
      </g>
      <g>
        <path class="cls-2" d="M832,218.32c4,3.91,8,2.92,10.94,0,4-4,17.37-28.26,17.37-28.26s-24.3,13.41-28.26,17.37C829.09,210.35,828.05,214.36,832,218.32Z" transform="translate(0 0)"/>
        <path class="cls-2" d="M832,369.68c-3.91,4-2.92,8,0,10.94,4,4,28.26,17.37,28.26,17.37s-13.41-24.3-17.37-28.26C840,366.76,836,365.72,832,369.68Z" transform="translate(0 0)"/>
        <path class="cls-2" d="M680.65,369.68c-4-3.91-8-2.92-10.94.05-4,4-17.37,28.26-17.37,28.26s24.3-13.41,28.26-17.37C683.57,377.65,684.61,373.64,680.65,369.68Z" transform="translate(0 0)"/>
        <path class="cls-2" d="M680.65,218.32c3.91-4,2.92-8,0-10.94-4-4-28.26-17.37-28.26-17.37s13.41,24.3,17.37,28.26C672.68,221.24,676.69,222.28,680.65,218.32Z" transform="translate(0 0)"/>
      </g>
      <g>
        <path class="cls-2" d="M855.21,253c2.21,5.15,6.25,5.75,10.13,4.14,5.17-2.14,26.86-19.46,26.86-19.46s-27.58,3.09-32.76,5.23C855.56,244.56,853.07,247.87,855.21,253Z" transform="translate(0 0)"/>
        <path class="cls-2" d="M797.29,392.88c-5.15,2.21-5.75,6.25-4.14,10.13,2.14,5.17,19.46,26.86,19.46,26.86s-3.09-27.58-5.24-32.76C805.77,393.23,802.46,390.74,797.29,392.88Z" transform="translate(0 0)"/>
        <path class="cls-2" d="M657.45,335c-2.21-5.15-6.25-5.75-10.13-4.14-5.17,2.14-26.87,19.46-26.87,19.46s27.59-3.09,32.76-5.23C657.09,343.44,659.59,340.13,657.45,335Z" transform="translate(0 0)"/>
        <path class="cls-2" d="M715.37,195.12c5.15-2.21,5.75-6.25,4.14-10.13-2.14-5.17-19.46-26.87-19.46-26.87s3.09,27.59,5.23,32.76C706.89,194.77,710.2,197.26,715.37,195.12Z" transform="translate(0 0)"/>
      </g>
    </g>
    <g>
      <g>
        <path class="cls-2" d="M777.21,189c5.51,1,8.25-2,9.07-6.12,1.09-5.49-1.26-33.15-1.26-33.15s-12.75,24.65-13.85,30.14C770.35,184,771.72,187.93,777.21,189Z" transform="translate(0 0)"/>
        <path class="cls-2" d="M861.3,314.88c-1,5.51,2,8.25,6.12,9.07,5.49,1.09,33.15-1.26,33.15-1.26s-24.65-12.75-30.14-13.85C866.31,308,862.39,309.39,861.3,314.88Z" transform="translate(0 0)"/>
        <path class="cls-2" d="M735.45,399c-5.51-1-8.25,2-9.07,6.12-1.09,5.49,1.26,33.15,1.26,33.15s12.75-24.65,13.84-30.14C742.3,404,740.94,400.07,735.45,399Z" transform="translate(0 0)"/>
        <path class="cls-2" d="M651.36,273.12c1-5.51-2-8.25-6.12-9.07-5.5-1.09-33.15,1.26-33.15,1.26s24.65,12.75,30.14,13.85C646.35,280,650.26,278.61,651.36,273.12Z" transform="translate(0 0)"/>
      </g>
      <g>
        <path class="cls-2" d="M815.79,205c4.7,3.05,8.39,1.31,10.72-2.19,3.11-4.65,11.53-31.1,11.53-31.1s-21.22,17.89-24.33,22.55C811.37,197.76,811.14,201.9,815.79,205Z" transform="translate(0 0)"/>
        <path class="cls-2" d="M845.32,353.46c-3.05,4.7-1.31,8.39,2.18,10.72,4.66,3.11,31.11,11.53,31.11,11.53s-17.89-21.22-22.55-24.33C852.57,349,848.43,348.81,845.32,353.46Z" transform="translate(0 0)"/>
        <path class="cls-2" d="M696.87,383c-4.7-3.05-8.39-1.31-10.72,2.18-3.11,4.66-11.53,31.11-11.53,31.11s21.22-17.89,24.33-22.55C701.29,390.24,701.52,386.1,696.87,383Z" transform="translate(0 0)"/>
        <path class="cls-2" d="M667.34,234.54c3-4.7,1.31-8.39-2.19-10.72-4.65-3.11-31.1-11.53-31.1-11.53s17.89,21.22,22.55,24.33C660.09,239,664.23,239.19,667.34,234.54Z" transform="translate(0 0)"/>
      </g>
      <g>
        <path class="cls-2" d="M845.32,234.54c3.17,4.61,7.25,4.42,10.74,2.08,4.66-3.11,22.55-24.33,22.55-24.33s-26.45,8.42-31.11,11.53C844,226.15,842.21,229.88,845.32,234.54Z" transform="translate(0 0)"/>
        <path class="cls-2" d="M815.79,383c-4.62,3.17-4.42,7.25-2.08,10.74,3.11,4.66,24.33,22.55,24.33,22.55s-8.42-26.45-11.53-31.11C824.18,381.68,820.45,379.88,815.79,383Z" transform="translate(0 0)"/>
        <path class="cls-2" d="M667.34,353.46c-3.17-4.62-7.25-4.42-10.74-2.08-4.66,3.11-22.55,24.33-22.55,24.33s26.45-8.42,31.1-11.53C668.65,361.85,670.45,358.12,667.34,353.46Z" transform="translate(0 0)"/>
        <path class="cls-2" d="M696.87,205c4.61-3.17,4.42-7.25,2.08-10.74-3.11-4.66-24.33-22.55-24.33-22.55s8.42,26.45,11.53,31.1C688.48,206.32,692.21,208.12,696.87,205Z" transform="translate(0 0)"/>
      </g>
      <g>
        <path class="cls-2" d="M861.3,273.12c1.16,5.48,5,6.85,9.13,6,5.49-1.1,30.14-13.85,30.14-13.85s-27.66-2.35-33.15-1.26C863.3,264.87,860.21,267.63,861.3,273.12Z" transform="translate(0 0)"/>
        <path class="cls-2" d="M777.21,399c-5.48,1.16-6.86,5-6,9.13,1.1,5.49,13.85,30.14,13.85,30.14s2.35-27.66,1.26-33.15C785.46,401,782.7,397.88,777.21,399Z" transform="translate(0 0)"/>
        <path class="cls-2" d="M651.36,314.88c-1.17-5.48-5-6.86-9.13-6-5.49,1.1-30.14,13.85-30.14,13.85S639.74,325,645.24,324C649.36,323.13,652.45,320.37,651.36,314.88Z" transform="translate(0 0)"/>
        <path class="cls-2" d="M735.45,189c5.48-1.16,6.85-5,6-9.13-1.09-5.49-13.84-30.14-13.84-30.14s-2.35,27.66-1.26,33.15C727.2,187,730,190.12,735.45,189Z" transform="translate(0 0)"/>
      </g>
    </g>
  </g>
  <g>
    <path class="cls-2" d="M739.53,498a29.3,29.3,0,0,0-7.38,1.23c-3.29.45-6.44,1.59-9.7,2.13l-1.31.21-2.19.21a8,8,0,0,1,.23,1.82,6,6,0,0,1-.23,1.75,4.34,4.34,0,0,1-.94,1.47,5,5,0,0,1-1.54,1.23,4.93,4.93,0,0,1-1.82.45,4.69,4.69,0,0,1-1.89-.24,5.27,5.27,0,0,1-1.75-1.07,15.54,15.54,0,0,1-2,.35,8.08,8.08,0,0,1-1.84,0c-.65-.19-1.33-.4-2-.65a12.14,12.14,0,0,1-1.82-1c-2.38,1.4-5,2.73-6.49,5.18a7.78,7.78,0,0,0-1.16,3.73,10.15,10.15,0,0,0,1,4.88c.26.44.47-1.61,1.26-1.89a12.3,12.3,0,0,1,4.67-2.33c1.42-.73,1.23,0,.65,1.16-.14.59-.93,2.8.14,1.68,4.74-2.1,10-2.52,15.1-2.91,7.42-.77,14.86-.94,22.3-1,7,.09,14,.19,21,.44,3.34.1,6.7.84,10,.28.79-.21,2-.25,2.5-.72-1.5-.86-3.25-.89-4.9-1.1H756.14c-3.71-.37-7.58-.42-11.08-1.82-.94-.37-1.8-1.26-2.69-.3a15.15,15.15,0,0,1-11.31-.35c1.63-2.26,3.59-4.25,5.39-6.35-1.45-.23-2.85-.53-4.3-.88,2.55-1.75,4.9-3.74,7.38-5.6Z" transform="translate(0 0)"/>
    <path class="cls-2" d="M848.54,522.21c-5.07,3-8.94-2.36-13.18-4-3,1.65-3.31,7.15-6.14,9.75-3.39,3.86-7.53-1.07-7.23-4.87-4,3.41-6.09,11.14-12.64,10.11-3.1-2.53-5.4-7.84-7.77-1.79-1.93,3-7.08,7.16-9.74,2.69-.83-3.94-2.8-8.57-4.94-2.31-1.48,4.43-6.2,7.68-10.77,5.74-2.5-2,2-9.6-1.18-9.07-4.76,3.15-7.53,11-14.17,10.34-2.58-2.9,1.57-7.8-1.26-11-3.34,4.29-7,10.57-12.82,11-2.79-2.26.11-8.75-1.68-9.71-5.92,3.55-12.18,9.89-19.63,7.9,2.9-11.11,15-15,25.25-15.87,17.56-2.16,36,1.81,52.94-4.53,2.73-1.66,9.34-4,7-7.87-2.09-3,5.42-1.85,6.15-5.41-.45-4.5,3.44-3.88,7.25-4.27,17.06-.74,33.92,2.85,50.93,3.46,1.29,8.29-7.91,14.11-15.31,11.55-3.54.58-8.84-8.13-7.8-1.79-.71,3.32-.21,7.71-3.25,9.93m-145.18-17c3.95,3.62,6.72-.68,10.41-2.25,12.39-4.26,23.19-11.7,33.84-19.14,6.46-5.34,12-12.27,20.72-14,16.91-5.11,34.88-4.49,51.86-9.21,12.92-17.69,34.88-24,53.27-34.18,4.12-1.28,5.72-4.68,7-8.43a85,85,0,0,1,27.89-27.61c5.35-2.92,11.73-4.61,17.79-3.27-.43,7.21-4.57,13.61-9.57,18.6,4.09-.09,7.61-2.67,11.74-2.53,1.41,7.41-6.58,11.28-10.84,15.89,2.37.55,11.45,1.24,6.5,3.61-6.3,4.38-13.5,7.38-19.32,12.46,5.37,1,6,2.11.52,4.05-3,2-8.63,2.7-9.18,6.61,4.05,2.49-1.87,5-4.16,5.77-4.37,1-9,2.92-3.15,6.24-2.2,3.31-6.91,4-10.75,3.69,1.17,3.76,2.85,8-2,9.63-10.93,8.26-23.77,14.28-37.51,15.65,17.17,1.33,34.86-1.86,49.54-11.2,1.93-2.29,12.09-4.76,6.41-6.68-2.68-1.12-8.41-2.35-8.8-4.39,7.95-4.91,18-3.16,26.52-6.08.22-2.76-6.51-2-9-2.62-6-.49-5.63-2,.13-2.59,7.3-1.93,15.56-2.31,21.7-7.06-5-2.32-11.28-.28-16.62-2.17,9-4,19.7-4.35,27.81-10.29,3.7-4.11-4.73-2.83-7.18-2.73-5,.87-7.32-1.52-1.64-3.6,9.71-7.16,22-11.81,28.83-22.19,1.61-2.32,3.8-9.32-1.35-6.81-6.78,2.26-12.74,9.87-20.46,7.52,15.21-11.79,29.69-25.22,40.08-41.53.54-4.71-6.85-5.22-8.77-1.52-9.77,9.41-18.62,20.53-31.13,26.44,12-11.57,21.89-25.27,30.54-39.46,1.85-4.23,6.83-9.3,4.13-14-4.36-3.61-9.81-.31-12.08,4-7.59,9.92-13.36,21.49-23.13,29.57,8.55-16.32,17.41-33.7,17.62-52.53,0-3.88-.8-9.58-6.07-8.86-4.17.75-3.18,7-4.9,10.15-3.79,12.87-5.57,26.8-13.33,38.06,1.74-10.45,4.8-21.35,2.45-31.9-1.09-4.72-8.71-2.69-7.73,2-9.1,46.1-40,86.42-80.49,109.74a173.51,173.51,0,0,1-60.27,20.3c-5.66,1.24-11.79.52-17.2,2.45C750.91,468.88,743,485.71,726.37,491c-7.44,3.7-17.15,4.45-22.47,11.36a6,6,0,0,0-.54,2.89" transform="translate(0 0)"/>
    <path class="cls-2" d="M753.06,458.46c-2.45,4.45-3.89,9.56-7,13.55-9.48-8.63-23.22-8.34-35.25-8.92-9.92-.53-20.71-1.44-28.39-8.52-8.08-6.62-14.67-15.21-23.7-20.58-8.23-2.24-16.54-5-23.16-10.68-14.16-11.54-22.26-28.66-36.09-40.56a83.08,83.08,0,0,0-8.7-6.81c-2.81.69-1.54,6.75-5,3.66-1.86-1.33-6.54-1.46-7,.4,4.23,5.57,8.46,11.93,9.05,19.06-2.89.29-8-.61-9.44.46a59.23,59.23,0,0,0,14.31,14.89c-2.67.43-7.94.19-9,1.27,5.54,4.51,11.47,9.12,18.72,10.28,1.49,2-2.17,5.74.91,7.41,1.78.72,7.66,1.94,3.61,4a3.3,3.3,0,0,0,1.8,6.14c2.25,1.15,7.3,1.43,7.69,3.41-2,2-8.19,4.43-2.91,6.33a36.33,36.33,0,0,0,16.17,4.7c-2.82,2.38-6.3,3.73-9.21,6,13,7.62,27.38,12.62,41.6,17.45a132.58,132.58,0,0,0,17.27,4.76c-17.06-1-33.55-6-49.09-12.94-8-3.54-16.15-6.95-24.41-10,3.62-1.88,7.81-2.34,11.56-4-7.79-1.56-16.3-2.07-23.15-6.36,1.05-1.87,5-2,7.23-2.91,4.14-1,6.71-2.19.87-2.55-5.88-1.6-12.63-.88-17.82-4.43.34-2.13,5.77-1.39,8-2.31,2.78-.48,5.87-.88,8.1-2.75-9.1-3.77-21-1.1-28.12-9.13-1.64-3.06,5.1-.6,7-1.11,4.88,0,10.13,1.55,14.78-.41-13.26-5.82-27.45-11.27-37.56-22-1.12-1.73-4.49-6.46-1.77-7.05,7.86,1.05,13.56,9.63,22,8.3,1.12-1.51-4.89-4-6.38-6.13-12.27-10.53-24.18-22-32.78-35.75-.59-4.61,6.65-5.3,8.55-1.74,9.39,9,17.86,19.58,29.55,25.75,4.15,2-2.38-2.38-3.25-4-10.8-12.54-21.08-25.78-28.63-40.55-1.35-2.66-3.59-7.48.45-8.9,4-2,8,.74,10.1,4.21,7.94,10,13.79,21.91,23.68,30.25-8.43-16.35-17.43-33.56-17.64-52.38.19-3.64.43-9.16,5.37-9,4.16-.63,3.5,4.69,4.86,7.22,4.09,13.83,5.88,28.79,14.09,41-1.82-10.25-4.48-20.81-2.71-31.24.41-3.42,4.26-4.46,6.78-2.39,2,5,2.45,11.13,4.31,16.45,10.54,36.06,34.21,67.78,65,89.06A171.26,171.26,0,0,0,744.71,458c2.78.25,5.57.33,8.35.5" transform="translate(0 0)"/>
    <circle class="cls-2" cx="714" cy="504.62" r="1.66"/>
    <circle class="cls-3" cx="713.86" cy="504.35" r="0.68"/>
  </g>
  <g>
    <g id="f">
      <g id="e">
        <path class="cls-2" d="M84,51.05s-6.73-5.66-9-2.82c-3.68,4.56,11.3,27.28,11.3,35.27,0,13.14-8.77,16.71-19.59,18.58-7.25,1.26-19.08-.52-19.08-.52,2.23-3,3.68-3.88,7.43-4.12a15.61,15.61,0,0,1-8.43-14.19c0-11.3,4.65-16,4.65-28.69,0-7.07-5.79-16.06-5.79-16.06,10.24,1,15.31,10.51,12.43,18.08a5,5,0,0,0,4.38-1.33c.74,2.1-.44,4.53-2,6.63,1.27.69,2.21.28,4.24-.14-.19,2.16-1.49,4.46-4.66,6.63,9.21-2.4,14.87,4,14.87,10.74,0,5.07-3.55,8.71-7,8.71A7.05,7.05,0,0,1,64,86.66a5.7,5.7,0,0,0,.36,4.66c-2.55-.67-4.17-2.18-3-5.33a6.47,6.47,0,0,1-4.57-2.1,5.41,5.41,0,0,1,4.57-2.1c-1.42-2.94.17-4.59,2.48-5.92,0,0-1.47,5.92,2.28,5.92,1.69,0,3.23-.55,3.23-3,0-2.17-1.89-5.17-6.27-5s-7.94,3-7.94,10c0,6.45,5.21,9.66,12.07,9.87C73.36,93.84,78,90.49,78,84.11c0-8.49-12.26-27.84-12.26-35.4,0-5.68,5.1-8.85,10.1-8.85,6.48,0,11.94,6.41,11.94,6.41L84,51Z" transform="translate(0 0)"/>
        <path id="d" class="cls-2" d="M85.41,204.5c0,14.19-12.73,21.48-22.74,21.48C49.18,226,42,217.92,42,207.36c0-6,1.09-9.74,3.85-15.46,0,0,22.25-46.27,30.91-64.16,1.08-2.23,1.43-4.77,1.43-8.5,0-5.75-5.58-10.45-11.43-10.59-5.33-.14-11.14,5-11.14,10.78,0,7.07,3.66,10.22,7.43,10.22,4.63,0,6.47-1.91,6.47-5.16,0-2.26-1.09-3.24-2.66-3.24-4,0-2.86,5.34-2.86,5.34a3.64,3.64,0,0,1-2.67-5,7.21,7.21,0,0,1-3.86-2.29,7.27,7.27,0,0,1,3.86-2.1c-.93-3.07.31-4.57,3-5.21a5.39,5.39,0,0,0-.38,3.3c4.23-1.2,10.72.71,10.72,8s-5,13.36-14.48,11.84a6.73,6.73,0,0,1,3.62,5.72,13.54,13.54,0,0,0-3.62-.76c1.1,1.95,2.64,3.62,2.57,7.45-1.75-.8-3.38-2.27-5.62-1.34,3.52,6.93-.8,16.46-11.81,18.71,4-4.72,6-9.82,6-14.89,0-16.45-4.57-19.21-4.57-30.65A16.9,16.9,0,0,1,54.09,106v.19a9.78,9.78,0,0,1-6.47-4.6c7.36-2.09,18.06-2,23.81.21A17.65,17.65,0,0,1,84,110.17c1.36,2.57,4,11.87,0,20.24-4.38,9.16-25,52.89-31.43,66.64a21.89,21.89,0,0,0-2.19,9.36c0,8.42,7.71,11.36,12.09,11.36,5.24,0,10.58-4,10.58-9,0-3.16-1.72-5.06-4.2-5.06-5.92,0-5.56,5-4.38,8.21-3.68-1.65-5.82-4.61-5.23-7.73a9.47,9.47,0,0,1-5.91-3.34,7.41,7.41,0,0,1,5.91-3.25c-1.18-4.84,2-6.88,5.23-8-1,3.55-1.66,7.64,4.38,7.64,4.41,0,7.89.76,9.91,3.63.12-3.82.48-18.9.48-18.9.25-5.67-7.59-5.51-12.57-3.82,1.88-6.53,5.73-10.06,14.66-9.17a7,7,0,0,1-4.48-6.87c0-5.32,4.32-11.21,7.15-13l1.41,55.34Z" transform="translate(0 0)"/>
        <path class="cls-2" d="M85.41,247.06c0-14.19-12.73-21.48-22.74-21.48-13.49,0-20.67,8.06-20.67,18.61,0,6,1.09,9.74,3.85,15.47,0,0,22.25,46.26,30.91,64.16,1.08,2.23,1.43,4.77,1.43,8.49,0,5.75-5.58,10.46-11.43,10.6-5.33.13-11.14-5-11.14-10.79,0-7.06,3.66-10.21,7.43-10.21,4.63,0,6.47,1.9,6.47,5.15,0,2.27-1.09,3.25-2.66,3.25-4,0-2.86-5.35-2.86-5.35a3.65,3.65,0,0,0-2.67,5,7.15,7.15,0,0,0-3.86,2.29,7.27,7.27,0,0,0,3.86,2.1c-.93,3.07.31,4.57,3,5.2a5.36,5.36,0,0,1-.38-3.29c4.23,1.2,10.72-.71,10.72-8s-5-13.37-14.48-11.84a6.73,6.73,0,0,0,3.62-5.73,13.1,13.1,0,0,1-3.62.76c1.1-1.94,2.64-3.62,2.57-7.44-1.75.79-3.38,2.27-5.62,1.34,3.52-6.93-.8-16.46-11.81-18.72,4,4.72,6,9.82,6,14.9,0,16.44-4.57,19.21-4.57,30.64a16.88,16.88,0,0,0,7.33,13.46v-.19c-3.22.87-5.28,2.45-6.47,4.61,7.36,2.08,18.06,2.05,23.81-.21A17.68,17.68,0,0,0,84,341.38c1.36-2.57,4-11.86,0-20.24-4.38-9.16-25-52.89-31.43-66.63a21.92,21.92,0,0,1-2.19-9.36c0-8.42,7.71-11.36,12.09-11.36,5.24,0,10.58,4,10.58,9,0,3.16-1.72,5.06-4.2,5.06-5.92,0-5.56-5-4.38-8.21-3.68,1.66-5.82,4.62-5.23,7.74a9.38,9.38,0,0,0-5.91,3.34,7.4,7.4,0,0,0,5.91,3.24c-1.18,4.84,2,6.89,5.23,8-1-3.55-1.66-7.64,4.38-7.64,4.41,0,7.89-.76,9.91-3.62.12,3.82.48,18.9.48,18.9.25,5.67-7.59,5.51-12.57,3.82,1.88,6.53,5.73,10.06,14.66,9.16a7.05,7.05,0,0,0-4.48,6.88c0,5.31,4.32,11.2,7.15,12.94l1.41-55.33Z" transform="translate(0 0)"/>
      </g>
      <g>
        <path class="cls-2" d="M84,51.05s6.73-5.66,9-2.82c3.68,4.56-11.3,27.28-11.3,35.27,0,13.14,8.77,16.71,19.58,18.58,7.26,1.26,19.09-.52,19.09-.52-2.23-3-3.68-3.88-7.43-4.12a15.61,15.61,0,0,0,8.43-14.19c0-11.3-4.65-16-4.65-28.69,0-7.07,5.79-16.06,5.79-16.06-10.24,1-15.31,10.51-12.43,18.08a5,5,0,0,1-4.38-1.33c-.75,2.1.44,4.53,2,6.63-1.27.69-2.21.28-4.24-.14.19,2.16,1.49,4.46,4.66,6.63-9.21-2.4-14.87,4-14.87,10.74,0,5.07,3.55,8.71,7,8.71a7.05,7.05,0,0,0,3.7-1.16,5.7,5.7,0,0,1-.36,4.66c2.55-.67,4.17-2.18,3-5.33a6.47,6.47,0,0,0,4.57-2.1,5.41,5.41,0,0,0-4.57-2.1c1.42-2.94-.17-4.59-2.48-5.92,0,0,1.47,5.92-2.28,5.92-1.69,0-3.23-.55-3.23-3,0-2.17,1.89-5.17,6.27-5s7.94,3,7.94,10c0,6.45-5.21,9.66-12.07,9.87C94.64,93.84,90,90.49,90,84.11c0-8.49,12.26-27.84,12.26-35.4,0-5.68-5.1-8.85-10.1-8.85-6.48,0-11.94,6.41-11.94,6.41L84,51Z" transform="translate(0 0)"/>
        <path class="cls-2" d="M82.59,204.5c0,14.19,12.73,21.48,22.74,21.48,13.49,0,20.67-8.06,20.67-18.62,0-6-1.1-9.74-3.85-15.46,0,0-22.25-46.27-30.91-64.16-1.08-2.23-1.43-4.77-1.43-8.5,0-5.75,5.58-10.45,11.43-10.59,5.33-.14,11.14,5,11.14,10.78,0,7.07-3.66,10.22-7.43,10.22-4.63,0-6.47-1.91-6.47-5.16,0-2.26,1.09-3.24,2.66-3.24,4,0,2.86,5.34,2.86,5.34a3.65,3.65,0,0,0,2.67-5,7.15,7.15,0,0,0,3.85-2.29,7.2,7.2,0,0,0-3.85-2.1c.93-3.07-.31-4.57-3-5.21a5.39,5.39,0,0,1,.38,3.3c-4.23-1.2-10.72.71-10.72,8s5,13.36,14.48,11.84a6.73,6.73,0,0,0-3.62,5.72,13.54,13.54,0,0,1,3.62-.76c-1.1,1.95-2.64,3.62-2.57,7.45,1.75-.8,3.38-2.27,5.62-1.34-3.52,6.93.8,16.46,11.81,18.71-4-4.72-6-9.82-6-14.89,0-16.45,4.57-19.21,4.57-30.65A16.9,16.9,0,0,0,113.91,106v.19a9.78,9.78,0,0,0,6.47-4.6c-7.36-2.09-18.06-2-23.81.21A17.65,17.65,0,0,0,84,110.17c-1.36,2.57-4,11.87,0,20.24,4.38,9.16,25,52.89,31.43,66.64a21.89,21.89,0,0,1,2.19,9.36c0,8.42-7.71,11.36-12.09,11.36-5.24,0-10.58-4-10.58-9,0-3.16,1.72-5.06,4.2-5.06,5.92,0,5.56,5,4.38,8.21,3.68-1.65,5.82-4.61,5.23-7.73a9.47,9.47,0,0,0,5.91-3.34,7.41,7.41,0,0,0-5.91-3.25c1.18-4.84-2.05-6.88-5.23-8,1,3.55,1.66,7.64-4.38,7.64-4.41,0-7.89.76-9.91,3.63-.12-3.82-.48-18.9-.48-18.9-.25-5.67,7.59-5.51,12.57-3.82-1.88-6.53-5.73-10.06-14.66-9.17a7,7,0,0,0,4.47-6.87c0-5.32-4.31-11.21-7.14-13L82.59,204.5Z" transform="translate(0 0)"/>
        <path class="cls-2" d="M82.59,247.06c0-14.19,12.73-21.48,22.74-21.48,13.49,0,20.67,8.06,20.67,18.61,0,6-1.1,9.74-3.85,15.47,0,0-22.25,46.26-30.91,64.16-1.08,2.23-1.43,4.77-1.43,8.49,0,5.75,5.58,10.46,11.43,10.6,5.33.13,11.14-5,11.14-10.79,0-7.06-3.66-10.21-7.43-10.21-4.63,0-6.47,1.9-6.47,5.15,0,2.27,1.09,3.25,2.66,3.25,4,0,2.86-5.35,2.86-5.35a3.66,3.66,0,0,1,2.67,5,7.08,7.08,0,0,1,3.85,2.29,7.2,7.2,0,0,1-3.85,2.1c.93,3.07-.31,4.57-3,5.2a5.36,5.36,0,0,0,.38-3.29c-4.23,1.2-10.72-.71-10.72-8s5-13.37,14.48-11.84a6.73,6.73,0,0,1-3.62-5.73,13.1,13.1,0,0,0,3.62.76c-1.1-1.94-2.64-3.62-2.57-7.44,1.75.79,3.38,2.27,5.62,1.34-3.52-6.93.8-16.46,11.81-18.72-4,4.72-6,9.82-6,14.9,0,16.44,4.57,19.21,4.57,30.64a16.88,16.88,0,0,1-7.33,13.46v-.19c3.22.87,5.28,2.45,6.47,4.61-7.36,2.08-18.06,2.05-23.81-.21A17.68,17.68,0,0,1,84,341.38c-1.36-2.57-4-11.86,0-20.24,4.38-9.16,25-52.89,31.43-66.63a21.92,21.92,0,0,0,2.19-9.36c0-8.42-7.71-11.36-12.09-11.36-5.24,0-10.58,4-10.58,9,0,3.16,1.72,5.06,4.2,5.06,5.92,0,5.56-5,4.38-8.21,3.68,1.66,5.82,4.62,5.23,7.74a9.38,9.38,0,0,1,5.91,3.34,7.4,7.4,0,0,1-5.91,3.24c1.18,4.84-2.05,6.89-5.23,8,1-3.55,1.66-7.64-4.38-7.64-4.41,0-7.89-.76-9.91-3.62-.12,3.82-.48,18.9-.48,18.9-.25,5.67,7.59,5.51,12.57,3.82-1.88,6.53-5.73,10.06-14.66,9.16a7,7,0,0,1,4.47,6.88c0,5.31-4.31,11.2-7.14,12.94l-1.41-55.33Z" transform="translate(0 0)"/>
      </g>
    </g>
    <g>
      <g>
        <path class="cls-2" d="M84,649s-6.73,5.66-9,2.82c-3.68-4.56,11.3-27.28,11.3-35.28,0-13.13-8.77-16.7-19.59-18.57-7.25-1.26-19.08.52-19.08.52,2.23,3,3.68,3.88,7.43,4.11a15.64,15.64,0,0,0-8.43,14.2c0,11.3,4.65,16,4.65,28.69,0,7.07-5.79,16.06-5.79,16.06,10.24-1,15.31-10.51,12.43-18.08a5,5,0,0,1,4.38,1.33c.74-2.1-.44-4.54-2-6.64,1.27-.68,2.21-.27,4.24.15-.19-2.16-1.49-4.46-4.66-6.63,9.21,2.39,14.87-4,14.87-10.74,0-5.07-3.55-8.71-7-8.71a7.05,7.05,0,0,0-3.7,1.16,5.7,5.7,0,0,1,.36-4.66c-2.55.67-4.17,2.18-3,5.33a6.47,6.47,0,0,0-4.57,2.1,5.44,5.44,0,0,0,4.57,2.1c-1.42,2.94.17,4.59,2.48,5.92,0,0-1.47-5.92,2.28-5.92,1.69,0,3.23.55,3.23,3,0,2.17-1.89,5.17-6.27,5s-7.94-3-7.94-10c0-6.45,5.21-9.66,12.07-9.87,6.18-.19,10.85,3.16,10.85,9.54,0,8.49-12.26,27.84-12.26,35.4,0,5.68,5.1,8.85,10.1,8.85,6.48,0,11.94-6.41,11.94-6.41L84,649Z" transform="translate(0 0)"/>
        <path class="cls-2" d="M85.41,495.5c0-14.19-12.73-21.48-22.74-21.48C49.18,474,42,482.08,42,492.64c0,6,1.09,9.74,3.85,15.46,0,0,22.25,46.27,30.91,64.16,1.08,2.23,1.43,4.77,1.43,8.5,0,5.75-5.58,10.45-11.43,10.59-5.33.14-11.14-5-11.14-10.79,0-7.06,3.66-10.21,7.43-10.21,4.63,0,6.47,1.9,6.47,5.16,0,2.26-1.09,3.24-2.66,3.24-4,0-2.86-5.35-2.86-5.35a3.65,3.65,0,0,0-2.67,5,7.15,7.15,0,0,0-3.86,2.29,7.27,7.27,0,0,0,3.86,2.1c-.93,3.07.31,4.57,3,5.2a5.35,5.35,0,0,1-.38-3.29c4.23,1.2,10.72-.71,10.72-8s-5-13.36-14.48-11.84a6.73,6.73,0,0,0,3.62-5.73,13.33,13.33,0,0,1-3.62.77c1.1-2,2.64-3.63,2.57-7.45-1.75.8-3.38,2.27-5.62,1.34,3.52-6.93-.8-16.46-11.81-18.71,4,4.72,6,9.81,6,14.89,0,16.45-4.57,19.21-4.57,30.65A16.9,16.9,0,0,0,54.09,594v-.19a9.78,9.78,0,0,0-6.47,4.6c7.36,2.09,18.06,2,23.81-.21A17.68,17.68,0,0,0,84,589.83c1.36-2.57,4-11.87,0-20.24C79.62,560.43,59,516.7,52.57,503a21.92,21.92,0,0,1-2.19-9.36c0-8.42,7.71-11.36,12.09-11.36,5.24,0,10.58,4,10.58,9,0,3.15-1.72,5.06-4.2,5.06-5.92,0-5.56-5-4.38-8.21-3.68,1.65-5.82,4.61-5.23,7.73a9.43,9.43,0,0,0-5.91,3.34,7.41,7.41,0,0,0,5.91,3.25c-1.18,4.83,2,6.88,5.23,8-1-3.56-1.66-7.64,4.38-7.64,4.41,0,7.89-.77,9.91-3.63.12,3.82.48,18.9.48,18.9.25,5.67-7.59,5.51-12.57,3.82,1.88,6.53,5.73,10.06,14.66,9.17a7,7,0,0,0-4.48,6.87c0,5.32,4.32,11.21,7.15,13l1.41-55.34Z" transform="translate(0 0)"/>
        <path class="cls-2" d="M85.41,452.94c0,14.19-12.73,21.48-22.74,21.48C49.18,474.42,42,466.36,42,455.8c0-6,1.09-9.73,3.85-15.46,0,0,22.25-46.26,30.91-64.16,1.08-2.23,1.43-4.77,1.43-8.49,0-5.76-5.58-10.46-11.43-10.6-5.33-.13-11.14,5-11.14,10.79,0,7.06,3.66,10.21,7.43,10.21,4.63,0,6.47-1.9,6.47-5.15,0-2.27-1.09-3.25-2.66-3.25-4,0-2.86,5.35-2.86,5.35a3.65,3.65,0,0,1-2.67-5,7.15,7.15,0,0,1-3.86-2.29,7.27,7.27,0,0,1,3.86-2.1c-.93-3.07.31-4.57,3-5.2a5.36,5.36,0,0,0-.38,3.29c4.23-1.2,10.72.71,10.72,8s-5,13.37-14.48,11.84a6.73,6.73,0,0,1,3.62,5.73,13.33,13.33,0,0,0-3.62-.77c1.1,2,2.64,3.63,2.57,7.45-1.75-.8-3.38-2.27-5.62-1.34,3.52,6.93-.8,16.46-11.81,18.72,4-4.73,6-9.82,6-14.9,0-16.44-4.57-19.21-4.57-30.64a16.91,16.91,0,0,1,7.33-13.47v.2c-3.22-.87-5.28-2.45-6.47-4.61,7.36-2.09,18.06-2.05,23.81.21A17.65,17.65,0,0,1,84,358.62c1.36,2.56,4,11.86,0,20.23-4.38,9.17-25,52.9-31.43,66.64a21.92,21.92,0,0,0-2.19,9.36c0,8.42,7.71,11.36,12.09,11.36,5.24,0,10.58-4,10.58-9,0-3.16-1.72-5.06-4.2-5.06-5.92,0-5.56,5-4.38,8.21-3.68-1.66-5.82-4.62-5.23-7.74a9.38,9.38,0,0,1-5.91-3.34,7.38,7.38,0,0,1,5.91-3.24c-1.18-4.84,2-6.89,5.23-8-1,3.55-1.66,7.63,4.38,7.63,4.41,0,7.89.77,9.91,3.63.12-3.82.48-18.9.48-18.9.25-5.67-7.59-5.51-12.57-3.82,1.88-6.53,5.73-10.06,14.66-9.17a7,7,0,0,1-4.48-6.87c0-5.31,4.32-11.2,7.15-12.94l1.41,55.33Z" transform="translate(0 0)"/>
      </g>
      <g>
        <path class="cls-2" d="M84,649s6.73,5.66,9,2.82c3.68-4.56-11.3-27.28-11.3-35.28,0-13.13,8.77-16.7,19.58-18.57,7.26-1.26,19.09.52,19.09.52-2.23,3-3.68,3.88-7.43,4.11a15.64,15.64,0,0,1,8.43,14.2c0,11.3-4.65,16-4.65,28.69,0,7.07,5.79,16.06,5.79,16.06-10.24-1-15.31-10.51-12.43-18.08a5,5,0,0,0-4.38,1.33c-.75-2.1.44-4.54,2-6.64-1.27-.68-2.21-.27-4.24.15.19-2.16,1.49-4.46,4.66-6.63-9.21,2.39-14.87-4-14.87-10.74,0-5.07,3.55-8.71,7-8.71a7.05,7.05,0,0,1,3.7,1.16,5.7,5.7,0,0,0-.36-4.66c2.55.67,4.17,2.18,3,5.33a6.47,6.47,0,0,1,4.57,2.1,5.44,5.44,0,0,1-4.57,2.1c1.42,2.94-.17,4.59-2.48,5.92,0,0,1.47-5.92-2.28-5.92-1.69,0-3.23.55-3.23,3,0,2.17,1.89,5.17,6.27,5s7.94-3,7.94-10c0-6.45-5.21-9.66-12.07-9.87-6.18-.19-10.85,3.16-10.85,9.54,0,8.49,12.26,27.84,12.26,35.4,0,5.68-5.1,8.85-10.1,8.85-6.48,0-11.94-6.41-11.94-6.41L84,649Z" transform="translate(0 0)"/>
        <path class="cls-2" d="M82.59,495.5c0-14.19,12.73-21.48,22.74-21.48,13.49,0,20.67,8.06,20.67,18.62,0,6-1.1,9.74-3.85,15.46,0,0-22.25,46.27-30.91,64.16-1.08,2.23-1.43,4.77-1.43,8.5,0,5.75,5.58,10.45,11.43,10.59,5.33.14,11.14-5,11.14-10.79,0-7.06-3.66-10.21-7.43-10.21-4.63,0-6.47,1.9-6.47,5.16,0,2.26,1.09,3.24,2.66,3.24,4,0,2.86-5.35,2.86-5.35a3.66,3.66,0,0,1,2.67,5,7.08,7.08,0,0,1,3.85,2.29,7.2,7.2,0,0,1-3.85,2.1c.93,3.07-.31,4.57-3,5.2a5.35,5.35,0,0,0,.38-3.29c-4.23,1.2-10.72-.71-10.72-8s5-13.36,14.48-11.84a6.73,6.73,0,0,1-3.62-5.73,13.33,13.33,0,0,0,3.62.77c-1.1-2-2.64-3.63-2.57-7.45,1.75.8,3.38,2.27,5.62,1.34-3.52-6.93.8-16.46,11.81-18.71-4,4.72-6,9.81-6,14.89,0,16.45,4.57,19.21,4.57,30.65A16.9,16.9,0,0,1,113.91,594v-.19a9.78,9.78,0,0,1,6.47,4.6c-7.36,2.09-18.06,2-23.81-.21A17.68,17.68,0,0,1,84,589.83c-1.36-2.57-4-11.87,0-20.24,4.38-9.16,25-52.89,31.43-66.64a21.92,21.92,0,0,0,2.19-9.36c0-8.42-7.71-11.36-12.09-11.36-5.24,0-10.58,4-10.58,9,0,3.15,1.72,5.06,4.2,5.06,5.92,0,5.56-5,4.38-8.21,3.68,1.65,5.82,4.61,5.23,7.73a9.43,9.43,0,0,1,5.91,3.34,7.41,7.41,0,0,1-5.91,3.25c1.18,4.83-2.05,6.88-5.23,8,1-3.56,1.66-7.64-4.38-7.64-4.41,0-7.89-.77-9.91-3.63-.12,3.82-.48,18.9-.48,18.9-.25,5.67,7.59,5.51,12.57,3.82-1.88,6.53-5.73,10.06-14.66,9.17a7,7,0,0,1,4.47,6.87c0,5.32-4.31,11.21-7.14,13L82.59,495.5Z" transform="translate(0 0)"/>
        <path class="cls-2" d="M82.59,452.94c0,14.19,12.73,21.48,22.74,21.48,13.49,0,20.67-8.06,20.67-18.62,0-6-1.1-9.73-3.85-15.46,0,0-22.25-46.26-30.91-64.16-1.08-2.23-1.43-4.77-1.43-8.49,0-5.76,5.58-10.46,11.43-10.6,5.33-.13,11.14,5,11.14,10.79,0,7.06-3.66,10.21-7.43,10.21-4.63,0-6.47-1.9-6.47-5.15,0-2.27,1.09-3.25,2.66-3.25,4,0,2.86,5.35,2.86,5.35a3.66,3.66,0,0,0,2.67-5,7.08,7.08,0,0,0,3.85-2.29,7.2,7.2,0,0,0-3.85-2.1c.93-3.07-.31-4.57-3-5.2a5.36,5.36,0,0,1,.38,3.29c-4.23-1.2-10.72.71-10.72,8s5,13.37,14.48,11.84a6.73,6.73,0,0,0-3.62,5.73,13.33,13.33,0,0,1,3.62-.77c-1.1,2-2.64,3.63-2.57,7.45,1.75-.8,3.38-2.27,5.62-1.34-3.52,6.93.8,16.46,11.81,18.72-4-4.73-6-9.82-6-14.9,0-16.44,4.57-19.21,4.57-30.64a16.91,16.91,0,0,0-7.33-13.47v.2c3.22-.87,5.28-2.45,6.47-4.61-7.36-2.09-18.06-2.05-23.81.21A17.65,17.65,0,0,0,84,358.62c-1.36,2.56-4,11.86,0,20.23,4.38,9.17,25,52.9,31.43,66.64a21.92,21.92,0,0,1,2.19,9.36c0,8.42-7.71,11.36-12.09,11.36-5.24,0-10.58-4-10.58-9,0-3.16,1.72-5.06,4.2-5.06,5.92,0,5.56,5,4.38,8.21,3.68-1.66,5.82-4.62,5.23-7.74a9.38,9.38,0,0,0,5.91-3.34,7.38,7.38,0,0,0-5.91-3.24c1.18-4.84-2.05-6.89-5.23-8,1,3.55,1.66,7.63-4.38,7.63-4.41,0-7.89.77-9.91,3.63-.12-3.82-.48-18.9-.48-18.9-.25-5.67,7.59-5.51,12.57-3.82-1.88-6.53-5.73-10.06-14.66-9.17a7,7,0,0,0,4.47-6.87c0-5.31-4.31-11.2-7.14-12.94l-1.41,55.33Z" transform="translate(0 0)"/>
      </g>
    </g>
  </g>
</svg>
