<?xml version="1.0" encoding="utf-8"?>
<!-- Generator: Adobe Illustrator 23.1.0, SVG Export Plug-In . SVG Version: 6.00 Build 0)  -->
<svg version="1.1" id="Layer_1" xmlns="http://www.w3.org/2000/svg" xmlns:xlink="http://www.w3.org/1999/xlink" x="0px" y="0px"
	 viewBox="0 0 1400 700" style="enable-background:new 0 0 1400 700;" xml:space="preserve">
<style type="text/css">
	.st0{fill:#D82126;}
	.st1{fill:#F8E92E;}
</style>
<title>Flag of North Macedonia</title>
<path class="st0" d="M0,0h1400v700H0V0z"/>
<path class="st1" d="M0,420V280l1400,140V280L0,420z M630,0h140l-70,275L630,0z M770,700H630l70-275L770,700z M0,0h210l554.3,388.6
	L0,0z M0,700h210l554.3-388.6L0,700z M1400,0h-210L635.7,388.6L1400,0z M1400,700h-210L635.7,311.4L1400,700z"/>
<circle class="st0" cx="700" cy="350" r="125"/>
<circle class="st1" cx="700" cy="350" r="100"/>
</svg>
