<?xml version="1.0" encoding="utf-8"?>
<!-- Generator: Adobe Illustrator 23.1.0, SVG Export Plug-In . SVG Version: 6.00 Build 0)  -->
<svg version="1.1" id="Layer_1" xmlns="http://www.w3.org/2000/svg" xmlns:xlink="http://www.w3.org/1999/xlink" x="0px" y="0px"
	 viewBox="0 0 1050 700" style="enable-background:new 0 0 1050 700;" xml:space="preserve">
<style type="text/css">
	.st0{fill:#E32118;}
	.st1{fill:#FFFFFF;}
	.st2{fill:#3E9A00;}
	.st3{fill:#0073CE;}
	.st4{fill:#FFFFFF;stroke:#000000;stroke-width:1.4;stroke-miterlimit:1.3333;}
	.st5{fill:#73452B;stroke:#000000;stroke-width:0.2917;stroke-miterlimit:1.3333;}
	.st6{fill:#A36629;stroke:#000000;stroke-width:0.2917;stroke-miterlimit:1.3333;}
	.st7{fill:none;stroke:#000000;stroke-width:0.2917;stroke-miterlimit:1.3333;}
	.st8{fill:#009A3B;stroke:#000000;stroke-width:0.2917;stroke-miterlimit:1.3333;}
	.st9{fill:#FFD700;stroke:#000000;stroke-width:1.0208;stroke-miterlimit:1.3333;}
	.st10{fill:#FFFFFF;stroke:#000000;stroke-width:1.0208;stroke-miterlimit:1.3333;}
</style>
<title>Flag of Equatorial Guinea</title>
<rect x="0" y="0" class="st0" width="1050" height="700"/>
<rect x="0" y="0" class="st1" width="1050" height="466.7"/>
<rect x="0" y="0" class="st2" width="1050" height="233.3"/>
<path class="st3" d="M0,0v700l262.5-350L0,0z"/>
<g>
	<g id="shield">
		<path class="st4" d="M469,279.6h111.7v117c0,39.4-51.3,9-55.7,30c-7.6-21.6-55.7,9.6-55.7-32.4C469.3,353.5,469,279.6,469,279.6z"
			/>
		<path class="st5" d="M532.9,408c0,0-1.5,1.5-4.1,0.3c-2.6-1.2-2.9-75-2.9-75c5.8-6.4,10.5-8.5,10.5-8.5l3.5,2.9
			c-13.1,6.7-12,16.3-10.8,33c0.3,6.1,0.3,14,1.8,21.6c2,9.6,6.1,17.8,6.4,23.9C537.5,410.1,532.9,408,532.9,408z"/>
		<path class="st5" d="M523.8,323.2h5.3c-4.4,42.3-0.6,67.4-0.6,79.6c0,4.1,2.3,5.5,2,5.5c-5.3,5.8-7.9-0.3-7.9-0.3L523.8,323.2z"/>
		<path class="st6" d="M515.7,408c-5,2.3-5.5-2.3-5.3-2.9c10.8-21.9,15.5-70,5.5-75.2l0.6-4.7c3.8,1.2,7.3,6.1,7.3,6.1
			c1.5,54,0,76.1-0.9,77c-5.3,5.5-7.3-0.9-7.6-1.5"/>
		<path class="st7" d="M515.4,407.2c-0.9-4.7,7.6-16.6,7-29.2"/>
		<path class="st7" d="M529.7,388.2c2.6,7.3,3.8,13.7,3.2,19.8"/>
		<path class="st8" d="M541,303.3c1.8-2,1.8-2,5-2c0.6-4.4,7.9-4.4,8.5,1.2c5.8-1.2,7,2.3,4.7,5.8c5.5-1.5,10.5,0,9,6.4
			c9.9,2.6,6.1,9.6,1.8,11.1c-0.6,4.4-4.7,5.8-10.2,4.1c-7,5-11.1,3.2-14.3-1.8c-7.9,1.2-8.5-0.6-12-5c-6.1,2.6-7.3,2.6-12.5-0.6
			c-0.3,4.1-1.8,2.9-4.4,2.6c0.3,5.2-1.8,7.6-6.4,5.8c3.5,7.3-5.5,10.5-9.9,4.4c-4.1,0.3-4.4-0.9-6.4-2.3c-1.8,5.8-8.2,5-9.3,1.8
			c-8.2-1.2-7.3-5.5-0.6-5.8c0.6-4.7,4.7-3.8,7.3-3.2c0.3-2.9,2-2.3,3.5-1.8c-0.9-2-0.3-3.2,2.3-3.8c-3.8-5-1.5-6.7,2.3-8.5
			c-2-4.7,1.5-4.4,4.1-4.7c-0.3-5,1.2-5.8,6.4-6.4c-0.6-1.8,0.3-3.2,3.2-3.2c-1.8-5,0.6-6.1,5.8-5.3c0.9-7.2,16.3-3.8,15.2,6.1
			C538.4,299,539.9,299.8,541,303.3z"/>
		<g>
			<path class="st7" d="M509.8,300.7c1.2,0.6,2.6,0,2.9,3.2c2.3-4.1,5.3-1.8,5.3,2.9"/>
			<path class="st7" d="M534,298.4c-1.2,1.7-5.5,1.7-5,6.4c-1.5-2-4.4-2.6-5.5-0.6"/>
			<path class="st7" d="M541,303.3c0,1.2-0.3,4.7-1.5,6.4"/>
			<path class="st7" d="M559.1,308.3c0.3,0.3-4.1,0-6.1,1.5"/>
			<path class="st7" d="M569.9,325.8c-1.2-0.6-3.5-2-5.3,0.3c0-1.2,0-4.4-3.2-4.4"/>
			<path class="st7" d="M559.7,329.9c0-2.9-0.6-3.8-1.2-4.7"/>
			<path class="st7" d="M550.1,325.8c-2.3-1.8-4.7,0.9-4.7,2.3"/>
			<path class="st7" d="M533.2,323.2c0-1.2-0.9-3.5,1.2-4.4"/>
			<path class="st7" d="M499.9,335.4c0.6-2.9,2.6-2.9,2.3-4.4c-0.3-2.3-2.9-4.4-6.1-1.2"/>
			<path class="st7" d="M502.2,331c1.8-0.6,3.5-0.3,4.1,0.6"/>
			<path class="st7" d="M497.3,320.2c1.2-1.2,4.1-0.9,5.8,0"/>
			<path class="st7" d="M503.1,313.2c1.5,0,4.1-0.6,5,2c3.2-5,5.5-4.4,6.1-3.2"/>
			<path class="st7" d="M520,311.5c2.3-0.9,6.4,1.5,8.7,5.5c1.2-3.2,2.9-2.6,4.7-2.9"/>
			<path class="st7" d="M544.5,317c3.8-1.8,6.1,1.8,7.3,3.2c1.8-2.3,3.2-2.3,5-2.3"/>
			<path class="st7" d="M509.2,324c0.9-1.5,2.9-1.8,4.4-0.9c-0.3-2.6,1.5-3.8,2.6-3.2"/>
		</g>
	</g>
	<g id="stars">
		<path class="st9" d="M521.2,263.3l-6.4,0.3l-3.2,5.7l-3.5-5.5l-6.4,0.3l2.9-5.8l-3.5-5.5l6.7-0.3l2.9-5.7l3.5,5.5l6.4-0.3
			l-2.9,5.8L521.2,263.3z"/>
		<path class="st9" d="M493.8,265.4l-6.4,1.6l-1.8,6.2l-4.7-4.7l-6.1,1.5l1.8-6.2l-4.4-4.7l6.1-1.5l1.8-6.2l4.7,4.7l6.4-1.5l-2,6.2
			L493.8,265.4z"/>
		<path class="st9" d="M467.2,270.8l-5.8,2.9l-0.3,6.5l-5.5-3.6l-5.8,2.9l0.6-6.5l-5.5-3.6l5.8-2.9l0.6-6.5l5.2,3.6l5.8-2.9
			l-0.3,6.5L467.2,270.8z"/>
		<path class="st9" d="M529.7,263.3l6.4,0.3l2.9,5.7l3.5-5.5l6.4,0.3l-2.9-5.8l3.5-5.5l-6.4-0.3l-3.2-5.7l-3.5,5.5L530,252l2.9,5.8
			L529.7,263.3z"/>
		<path class="st9" d="M557.1,265.4l6.1,1.6l1.8,6.2l4.7-4.7l6.1,1.5l-1.8-6.2l4.7-4.7l-6.4-1.5l-1.8-6.2l-4.7,4.7l-6.1-1.5l1.8,6.2
			L557.1,265.4z"/>
		<path class="st9" d="M583.3,270.8l5.8,2.9l0.3,6.5l5.5-3.6l5.8,2.9l-0.3-6.5l5.3-3.6l-5.8-2.9l-0.3-6.5l-5.5,3.6l-5.8-2.9l0.6,6.5
			L583.3,270.8z"/>
	</g>
	<g id="motto">
		<g>
			<path class="st10" d="M591.2,394.3l7.3,10.5l6.7-9.9l-4.7-8.5L591.2,394.3z"/>
			<path class="st10" d="M544.8,425l0.6,10.5c0,0,2.9,0,5.5-0.9c2.3-0.9,4.4-2.6,4.4-2.6l-0.3-5.5L544.8,425z"/>
			<path class="st10" d="M505.7,425l-0.6,10.2c0,0-2.6,0-5.3-0.6c-2.3-0.6-4.4-2-4.4-2l-2.9-7L505.7,425z"/>
			<path class="st10" d="M458.8,394.3l-7.6,10.5l-8.2-13.4l6.1-6.4L458.8,394.3z"/>
			<path class="st10" d="M495.2,446c0,9.9,60.1,9.9,60.1,0v-14c0,7.3-60.1,5.8-60.1,0V446z"/>
			<path class="st10" d="M441.6,413.6c5.3,26.8,53.7,27.4,53.7,27.4v-9c-1.2-3.5,0.9-4.7,8.8-5.8c3.2-0.3,1.8-5,1.8-5
				s-21,3.8-35.9-2c-20.1-8.2-23-23.9-23-23.9S445.4,407.5,441.6,413.6z"/>
			<path class="st10" d="M608.7,413.6c-5,26.8-53.4,27.4-53.4,27.4v-9c0.9-3.5-1.2-4.7-9-5.8c-3.2-0.3-1.5-5-1.5-5s21,3.8,35.9-2
				c19.8-8.2,22.2-23.9,22.2-23.9S604.9,407.5,608.7,413.6z"/>
			<path class="st10" d="M445.4,403.4c-13.4-7.3-2.9-14.9-1.8-36.5c2,13.1,16.9,18.7,15.2,27.1c-6.1,0.3-9-9-12,1.2L445.4,403.4z"/>
			<path class="st10" d="M604.9,403.4c13.4-7.6,2.3-14.9,1.2-36.5c-2,13.1-16.6,18.7-14.9,27.1c5.8,0.3,8.8-9,11.7,1.2l2,7.9V403.4z
				"/>
		</g>
		<g>
			<path d="M453.5,413.3l1.5,1.2l-3.2,3.5c-1.3,1.4-1.6,2.3-0.7,3.2c1.1,1.1,1.9,0.7,3-0.6l3.5-3.8l1.2,1.2l-3.5,4.1
				c-1.9,2.2-3.7,1.7-5.1,0.3c-1.3-1.2-2-2.9-0.1-5.1L453.5,413.3L453.5,413.3z"/>
			<path d="M459.4,418.2l1.5,0.9l-0.3,7l3.2-5l1.5,0.9l-4.7,7.6l-1.8-0.9l0.3-7l-3.2,5l-1.5-0.9L459.4,418.2z"/>
			<path d="M462,430.5l4.1-8.2l1.5,0.9l-3.8,7.9L462,430.5z"/>
			<path d="M468.4,423.5l-3.2,8.5l3.2,1.2c3,1.1,4.4-0.2,5.4-2.8c1-2.6,0.5-4.5-2.5-5.7L468.4,423.5z M469.6,425.5
				c3,1,3.2,2.2,2.4,4.3c-0.8,2-1.5,2.7-4.4,1.3L469.6,425.5z"/>
			<path d="M478,426.7l-5.3,7.9l2,0.6l1.2-2l3.5,0.9l0.3,2l2,0.3l-2-9.3L478,426.7z M478.6,428.8l0.6,3.5l-2.3-0.3L478.6,428.8z"/>
			<path d="M483,427.5l-0.3,9l3.4,0.1c3.2,0.1,4.1-1.6,4.2-4.3c0.1-2.8-0.9-4.4-4.2-4.6L483,427.5L483,427.5z M484.8,429
				c3.2,0,3.7,1,3.6,3.3c-0.1,2.1-0.6,3.1-3.8,2.6L484.8,429L484.8,429z"/>
			<path d="M513.6,440.1v9.3h2V446c0,0,1.8,0.1,3.2-0.3c1.1-0.3,1.9-1,2-2.8c0-1.8-1-2.7-2.8-2.7H513.6L513.6,440.1z M515.7,441.6
				l2.1,0c1.7,0,1.4,2.6,0.1,2.6h-2.1L515.7,441.6L515.7,441.6z"/>
			<path d="M524.1,440.1l-3.8,9.3h2l0.9-2.3h3.8l0.9,2.3h2l-3.8-9.3L524.1,440.1L524.1,440.1z M525,442.2l1.5,3.5h-2.6L525,442.2z"
				/>
			<path d="M530,447.7l5-6.1h-4.4v-1.5h7v1.5l-5.3,6.1h5.3v1.8H530V447.7z"/>
			<path d="M559.4,429.6l1.8-0.3l0.9,5.2c0.3,1.9-0.5,3.1-1.9,3.6c-1.5,0.6-3.4,0-3.7-2.5l1.5-0.3c0.3,1.5,0.9,1.6,1.6,1.4
				c0.6-0.2,0.8-1.1,0.7-2L559.4,429.6z"/>
			<path d="M562.3,429.1l1.7-0.3l0.8,4.4c0.3,1.9,0.9,2.7,2.1,2.5c1.5-0.3,1.7-1.1,1.4-2.8l-1.1-4.7l1.8-0.3l1.2,4.8
				c0.7,2.8-0.8,4-2.8,4.3c-1.7,0.3-3.6-0.1-4.2-2.9L562.3,429.1z"/>
			<path d="M571.4,433.1l1.5-0.6c0.7,1.3,1.8,1.2,2.7,0.8c1.2-0.5,1.3-1.6,0.7-1.9c-0.9-0.5-2.9,0.2-4-0.2c-1.3-0.5-1.9-1.2-1.8-2.3
				c0.1-1.4,1.3-2.1,2.6-2.5c1.5-0.5,2.9-0.3,3.8,1.5l-1.8,0.6c-0.6-1-1.3-0.9-2-0.6c-0.5,0.3-1.4,0.7-0.9,1.5
				c0.4,0.6,2.5,0.2,3.6,0.3c1.2,0,2.1,0.8,2.3,2c0.2,1.6-0.4,2.4-2.2,3.1C573.8,435.6,571.8,434.6,571.4,433.1L571.4,433.1z"/>
			<path d="M579.2,425.8l-2.3,1.2l-0.6-1.5l6.4-2.6l0.6,1.2l-2.3,1.2l2.6,6.4l-1.5,0.9L579.2,425.8z"/>
			<path d="M583,422.6l1.5-0.9l4.1,7.6l-1.5,0.9L583,422.6z"/>
			<path d="M593,423.2l1.8-0.6c0.8,1.7-0.4,4.9-3.4,4.8c-4.4-0.1-4.9-5-4.2-6.6c1.2-2.7,4.4-2.6,5.9-1.2l-1.5,1.2
				c-0.9-1.2-3-0.4-3.1,0.7c-0.2,1.8,0.6,3.4,2.1,4.2C591.9,426.4,594,424.7,593,423.2L593,423.2z"/>
			<path d="M592.1,417.1l1.5-1.2l5.3,7l-1.5,1.2L592.1,417.1z"/>
			<path d="M597.6,412.7l-1.5,1.2l3.2,8.8l1.5-1.5l-0.9-1.8l2.6-2.3l1.8,0.9l1.5-1.2L597.6,412.7z M598.2,414.8l2.9,1.5l-1.8,1.8
				L598.2,414.8z"/>
		</g>
	</g>
</g>
</svg>
