<?xml version="1.0" encoding="utf-8"?>
<!-- Generator: Adobe Illustrator 23.1.0, SVG Export Plug-In . SVG Version: 6.00 Build 0)  -->
<svg version="1.1" id="Layer_1" xmlns="http://www.w3.org/2000/svg" xmlns:xlink="http://www.w3.org/1999/xlink" x="0px" y="0px"
	 viewBox="0 0 1050 700" style="enable-background:new 0 0 1050 700;" xml:space="preserve">
<style type="text/css">
	.st0{fill:#FCDC04;}
	.st1{fill:#D90000;}
	.st2{fill:#FFFFFF;}
	.st3{fill:#D90000;stroke:#000000;stroke-width:1.1667;}
	.st4{fill:#FCDC04;stroke:#000000;stroke-width:1.1667;}
	.st5{stroke:#000000;stroke-width:1.1667;}
	.st6{fill:#9CA69C;stroke:#9CA69C;stroke-width:1.1667;}
	.st7{fill:#FFFFFF;stroke:#FFFFFF;stroke-width:1.1667;}
	.st8{fill:#9CA69C;stroke:#000000;stroke-width:1.1667;}
	.st9{fill:#FFFFFF;stroke:#000000;stroke-width:1.1667;}
	.st10{stroke:#FFFFFF;stroke-width:1.1667;}
</style>
<rect y="0" width="1050" height="700"/>
<rect y="116.7" class="st0" width="1050" height="233.3"/>
<rect y="233.3" class="st1" width="1050" height="116.7"/>
<rect y="466.7" class="st0" width="1050" height="233.3"/>
<rect y="583.3" class="st1" width="1050" height="116.7"/>
<circle class="st2" cx="525" cy="350" r="109.1"/>
<g>
	<path class="st3" d="M505.8,266.5l-7.1-13c2.7-2.7,7.3-4.8,14.6-4.8c0,0.5-0.7,14.3-0.7,14.3L505.8,266.5z"/>
	<path class="st4" d="M512.6,263l1-14.4c0,0,14.6-0.9,22.6,8.7c0.1-0.1-7.8,11.2-7.8,11.2L512.6,263z"/>
	<path class="st3" d="M528.6,268.3l7.2-11.2c4.8,5.1,6.8,8.7,7.6,14.1c0.1,0.1-11.4,2.9-11.4,2.7S528.7,268.4,528.6,268.3z"/>
	<path class="st5" d="M509.4,452.8c0,0,13.5-15.5,39.8-12.2c-4-6.5-16.8-5.7-16.8-5.7s-4-30.2-0.9-31.6c3.1-1.5,16.3,0.1,16.3,0.1
		c1.7,0,4.7-4.7,2.4-7.7c-2.4-3-9.3-14.4-6.5-16.6c2.9-2.2,18.4,1.2,18.4,1.2l-43.8-56.1c0,0-4.5-21.1,4.5-31.3
		c10.8-8.9,9.7-18.6,9.3-18.5c-1.5-9.8-16.4-16.9-26.4-7.8c-6,7.2-2,12.7-2,12.7s-15.6,4.2-16.3,7c-0.6,2.7,17.6-0.5,17.6-0.5
		l-1.7,12.5c0,0-35.5,32.3-8.3,60.2c0.2-0.1,0.9-1.2,0.9-1.2s9.6,11.8,19.6,14.4c9.4,9.7,8.6,8.2,8.6,8.2s1.9,15.3,0.1,18.2
		c-2.4-0.7-26.4-1.6-30-0.2c-3.2,1-15.6,0.4-12.5,20.6c2.4-5.5,4.5-10.3,4.5-10.3s-0.4,7.3,2.6,9.9c-0.5-7.7,2.9-12.9,2.9-12.9
		s0.6,8.4,2.5,9.7c1.9,1.2,1.9-13.7,12.2-12.4c10.3,1.2,17.7,0.9,17.7,0.9s3.5,29.2,2.4,31.9c-7.4-1.7-25.2,0.7-26.3,5.2
		c10.4-0.6,15.3,0.6,15.3,0.6S506.8,448.4,509.4,452.8z"/>
	<path class="st6" d="M513.6,293.6c0,0-25.8,28.5-14.7,50.3c0.6-3,0.3-4.9,0.7-4.8c-0.6-0.4,3.2,2.6,2.9,2c0.1-1.6-1.2-5-1.2-5
		c1.2,0.3,2.3,0.6,3.5,0.9c-0.7-1.3-1.4-2.5-2-3.8c1.7,0.2,3.3,0.4,5,0.6c0,0-1.7-4.7-1.2-4.7c0.6,0,4.1,0.3,4.1,0.3
		C503.3,316.2,510.2,305.3,513.6,293.6z"/>
	<path class="st6" d="M522.5,269.2c0,0,1.4,9.8-4,12.7c-0.9,0.6-4.2,1.7-3.7,3.7c0.6,2.7,2.1,2.2,4.2,1.7
		C524.6,286.3,531.1,274.4,522.5,269.2z"/>
	<circle class="st2" cx="511" cy="277.7" r="2.1"/>
	<path class="st3" d="M504.7,285.8c-1.4,1.1-8.6,8.6-1.5,11.3c7.3-2,5.3-3.4,7-5C510.2,288.8,506.5,287.9,504.7,285.8z"/>
	<path class="st6" d="M520.3,356.2c-0.4,1.6-2,7.6,0.2,12.2c6.2-2.6,9.1-1.9,11.2-0.5C526.6,363.8,524.6,362,520.3,356.2z"/>
	<path class="st7" d="M531,384.4l0.4,13.9c0,0,4.8,0.9,7.1,0C540.6,397.4,538.3,388.6,531,384.4z"/>
	<path class="st8" d="M566.1,386.1c0,0-8.9-21.6-31.8-27.1c-22.8-5.5-19.9-29.8-18-31.3c1-2.1,1.7-5.3,8.3-2.2
		c6.6,3.1,36.9,18.4,41.2,19.1C570.2,345.4,566.5,386.6,566.1,386.1z"/>
	<path class="st3" d="M544.4,358.9c-0.4,0.2,30.5,18.2,21.2,33.8c8.8-5.8,6-16,6-16s7.2,18.7-10.3,27.9c1.9,1.6,3.1,1.2,3.1,1.2
		l-3,3c0,0-1.4,2.2,10.4-3.5c-3.2,2.6-3.5,4.5-3.5,4.5s0.9,2.5,8.6-4.2c-6.2,6.7-7.6,10.2-7.6,10.1c16.8-1.5,53.2-56-11.5-72.1
		c3.5,3.6,3,3.1,3,3.1L544.4,358.9z"/>
	<path class="st9" d="M545.7,353.6c4.2,3,5.7,4,6.2,5.5c-3.8-0.9-7.3-0.6-7.3-0.6s-8.3-7.9-9.8-8.6c-1.1,0-7.6-4.1-7.6-4.1
		c-3.2-1.6-6.2-12.8,5.7-9.6c12.3,5.8,14,6.3,14,6.3c4.9,1.5,9.8,3.1,14.6,4.6c2.8,3.1,5.6,6.3,8.4,9.4c0,0-15-7.4-16.9-7.6
		c4.1,3.4,6.5,7.9,6.5,7.9C554.9,355.6,550.7,354.3,545.7,353.6z"/>
	<path class="st10" d="M487.3,286.9c0,0,14.4-3.5,16.1-3"/>
</g>
</svg>
