<?xml version="1.0" encoding="utf-8"?>
<!-- Generator: Adobe Illustrator 23.1.0, SVG Export Plug-In . SVG Version: 6.00 Build 0)  -->
<svg version="1.1" id="Layer_1" xmlns="http://www.w3.org/2000/svg" xmlns:xlink="http://www.w3.org/1999/xlink" x="0px" y="0px"
	 viewBox="0 0 1050 700" style="enable-background:new 0 0 1050 700;" xml:space="preserve">
<style type="text/css">
	.st0{fill:#CF142B;}
	.st1{fill:#FFFFFF;}
	.st2{fill:#E60D2E;}
	.st3{fill:#96877D;}
	.st4{fill:#CCCCCC;}
	.st5{fill:#D0D0D0;}
	.st6{fill:none;stroke:#96877D;stroke-width:0.5997;}
	.st7{fill:#96877D;stroke:#000000;stroke-width:0.2368;}
</style>
<rect y="0" class="st0" width="1050" height="700"/>
<rect y="0" class="st1" width="525" height="700"/>
<g>
	<path class="st2" d="M25.9,96.6v53h53c0,8.8,8.8,17.7,17.7,17.7v53h53v-53c8.8,0,17.7-8.8,17.7-17.7h53v-53h-53
		c0-8.8-8.8-17.7-17.7-17.7v-53h-53v53C87.8,79,79,87.8,79,96.6C79,96.6,25.9,96.6,25.9,96.6z"/>
	<path class="st3" d="M29.5,100.2v46h53c0,8.8,8.8,17.7,17.7,17.7v53h46v-53c8.8,0,17.7-8.8,17.7-17.7h53v-46h-53
		c0-8.8-8.8-17.7-17.7-17.7v-53h-46v53c-8.8,0-17.7,8.8-17.7,17.7C82.5,100.2,29.5,100.2,29.5,100.2z"/>
	<path class="st4" d="M31.2,101.9v42.4h53c0,8.8,8.8,17.7,17.7,17.7v53h42.4v-53c8.8,0,17.7-8.8,17.7-17.7h53v-42.4h-53
		c0-8.8-8.8-17.7-17.7-17.7v-53h-42.4v53c-8.8,0-17.7,8.8-17.7,17.7H31.2z"/>
	<g id="vi">
		<path class="st3" d="M98.6,83.6c3.1,3.1,2.3,9-1.9,13.1c-4.1,4.1-10,5-13.1,1.9c-3.1-3.1-2.3-9,1.9-13.1
			C89.6,81.4,95.5,80.5,98.6,83.6z"/>
		<path class="st5" d="M83,93l1.2-1.3l5,2.5l-2.5-5L88,88l5,10L83,93L83,93z"/>
		<path class="st5" d="M90.5,85.5l1.2-1.2l7.5,7.5L98,93L90.5,85.5z"/>
	</g>
	<g transform="rotate(90,105.555,105.557)">
		<g>
			<path class="st3" d="M162.7,98.6c-3.1,3.1-9,2.3-13.1-1.9c-4.1-4.1-5-10-1.9-13.1c3.1-3.1,9-2.3,13.1,1.9
				C164.9,89.6,165.8,95.5,162.7,98.6z"/>
			<path class="st5" d="M153.3,83l1.3,1.2l-2.5,5l5-2.5l1.3,1.2l-10,5L153.3,83L153.3,83z"/>
			<path class="st5" d="M160.8,90.5l1.2,1.2l-7.5,7.5l-1.2-1.2L160.8,90.5z"/>
		</g>
	</g>
	<g transform="rotate(180,105.555,105.557)">
		<g>
			<path class="st3" d="M147.7,162.7c-3.1-3.1-2.3-9,1.9-13.1c4.1-4.1,10-5,13.1-1.9c3.1,3.1,2.3,9-1.9,13.1
				C156.7,164.9,150.8,165.8,147.7,162.7z"/>
			<path class="st5" d="M163.3,153.3l-1.2,1.3l-5-2.5l2.5,5l-1.2,1.3l-5-10L163.3,153.3L163.3,153.3z"/>
			<path class="st5" d="M155.8,160.8l-1.2,1.2l-7.5-7.5l1.2-1.2L155.8,160.8z"/>
		</g>
	</g>
	<g transform="rotate(270,105.555,105.557)">
		<g>
			<path class="st3" d="M83.6,147.7c3.1-3.1,9-2.3,13.1,1.9c4.1,4.1,5,10,1.9,13.1c-3.1,3.1-9,2.3-13.1-1.9
				C81.4,156.7,80.5,150.8,83.6,147.7z"/>
			<path class="st5" d="M93,163.3l-1.3-1.2l2.5-5l-5,2.5l-1.3-1.2l10-5L93,163.3L93,163.3z"/>
			<path class="st5" d="M85.5,155.8l-1.2-1.2l7.5-7.5l1.2,1.2L85.5,155.8z"/>
		</g>
	</g>
	<g>
		<circle class="st6" cx="123.1" cy="123.1" r="37.1"/>
		<circle class="st6" cx="123.1" cy="123.1" r="28.3"/>
	</g>
	<g>
		<circle cx="109" cy="153.2" r="1.8"/>
		<circle cx="137.3" cy="153.2" r="1.8"/>
		<path d="M122,153.2v1.8h-2.4c-2.4,0-2.4,1.8,0,1.8h2.4v1.8c0,1.9,2.1,2.1,2.2,0.2l0.1-2h2.4c2.4,0,2.4-1.8,0-1.8h-2.4v-1.8
			C124.3,151.4,122,151.4,122,153.2L122,153.2z"/>
		<path d="M88.6,132.3l2.4-0.6l-0.3-1.1c-0.1-0.3-0.2-0.4-0.3-0.5c-0.1-0.1-0.4-0.1-0.7-0.1l0-0.2l2.1-0.5l0,0.2
			c-0.2,0.1-0.4,0.1-0.5,0.2c-0.1,0.1-0.2,0.2-0.2,0.3c0,0.1,0,0.3,0,0.5l0.3,1.1l1.9-0.5c0.3-0.1,0.5-0.1,0.6-0.2
			c0.1,0,0.1-0.1,0.2-0.2c0-0.2,0-0.3,0-0.4l-0.1-0.2l0.2,0l0.6,2.7l-0.2,0l-0.1-0.2c-0.1-0.3-0.2-0.4-0.4-0.5c-0.1,0-0.4,0-0.7,0.1
			l-4,1c-0.3,0.1-0.5,0.1-0.6,0.2c-0.1,0-0.1,0.1-0.2,0.2c0,0.1,0,0.3,0,0.4l0.1,0.2l-0.2,0l-1.1-4.6l1.3-0.4l0,0.2
			c-0.3,0.1-0.5,0.3-0.6,0.4c-0.1,0.1-0.2,0.3-0.2,0.5c0,0.2,0,0.4,0.1,0.7L88.6,132.3L88.6,132.3z M87,121.3c0-0.8,0.4-1.5,1.1-2.1
			c0.7-0.6,1.5-0.8,2.4-0.8c1,0.1,1.7,0.4,2.4,1c0.6,0.6,0.9,1.4,0.8,2.3c0,0.9-0.4,1.6-1.1,2.1c-0.7,0.6-1.5,0.8-2.5,0.8
			c-1-0.1-1.8-0.4-2.4-1.2C87.2,122.9,87,122.2,87,121.3L87,121.3z M87.4,121.4c0,0.6,0.2,1,0.6,1.4c0.5,0.5,1.3,0.7,2.3,0.8
			c1,0.1,1.8-0.1,2.4-0.5c0.4-0.3,0.7-0.8,0.7-1.3c0-0.6-0.2-1.1-0.6-1.5c-0.4-0.4-1.2-0.7-2.2-0.7c-1.1-0.1-1.9,0.1-2.5,0.5
			C87.7,120.4,87.4,120.8,87.4,121.4L87.4,121.4z M96.6,109.8l-0.6,1.6l-3.5,1c-0.1,0.2-0.1,0.3-0.1,0.4c0,0,0,0.1,0,0.1
			c0,0,0,0.1-0.1,0.1l1.7,0.7c0.4,0.1,0.6,0.2,0.7,0.1c0.2-0.1,0.3-0.2,0.4-0.4l0.1-0.2l0.2,0.1l-1,2.5l-0.2-0.1l0.1-0.2
			c0.1-0.3,0.1-0.5,0-0.6c-0.1-0.1-0.3-0.2-0.6-0.3l-3.8-1.5c-0.4-0.1-0.6-0.2-0.7-0.1c-0.2,0.1-0.3,0.2-0.4,0.4l-0.1,0.2l-0.2-0.1
			l0.8-2.2c0.2-0.6,0.5-1.1,0.7-1.3c0.2-0.3,0.5-0.5,0.8-0.6s0.7-0.1,1,0c0.4,0.1,0.6,0.4,0.8,0.7c0.2,0.3,0.2,0.8,0.1,1.3l2.2-0.6
			c0.5-0.1,0.8-0.3,1.1-0.4c0.2-0.2,0.4-0.4,0.5-0.7L96.6,109.8L96.6,109.8z M91.9,112.9c0-0.1,0-0.1,0.1-0.1c0,0,0-0.1,0-0.1
			c0.2-0.6,0.3-1,0.1-1.4c-0.1-0.4-0.4-0.6-0.8-0.8c-0.4-0.1-0.7-0.1-1,0c-0.3,0.1-0.6,0.4-0.7,0.8c-0.1,0.2-0.1,0.4-0.2,0.7
			L91.9,112.9L91.9,112.9z M105.5,91.8l1.2,1.6l-0.1,0.1c-0.4-0.3-0.8-0.5-1.2-0.6c-0.5-0.1-1,0-1.5,0.3c-0.7,0.4-1,1-1,1.8
			c0,0.6,0.2,1.3,0.6,1.9c0.3,0.5,0.7,0.9,1.2,1.2c0.5,0.3,0.9,0.4,1.4,0.4c0.4,0,0.8-0.1,1.2-0.3c0.2-0.1,0.4-0.3,0.5-0.4
			c0.2-0.2,0.3-0.4,0.4-0.6l-1-1.5c-0.2-0.3-0.3-0.4-0.4-0.5c-0.1-0.1-0.2-0.1-0.3-0.1c-0.1,0-0.3,0.1-0.5,0.2l-0.1-0.1l2.1-1.3
			L108,94l-0.1,0.1c-0.2,0.1-0.3,0.3-0.3,0.5c0,0.1,0.1,0.3,0.3,0.6l1.1,1.6c-0.2,0.4-0.4,0.7-0.7,0.9c-0.2,0.3-0.5,0.5-0.9,0.7
			c-1,0.7-2,0.8-3,0.5c-0.7-0.2-1.3-0.7-1.7-1.3c-0.3-0.5-0.5-1-0.5-1.6c-0.1-0.7,0-1.3,0.3-1.9c0.2-0.5,0.6-0.9,1.2-1.2
			c0.2-0.1,0.4-0.2,0.6-0.3c0.2-0.1,0.4-0.1,0.8-0.2c0.2,0,0.3-0.1,0.3-0.1c0,0,0.1-0.1,0.1-0.2c0-0.1,0-0.2-0.1-0.3L105.5,91.8
			L105.5,91.8z M115.8,92.5l-2.4,0.6l-0.2,1.1c0,0.3,0,0.5,0,0.6c0,0.1,0.1,0.2,0.2,0.2c0.1,0,0.3,0,0.6,0l0,0.2l-1.9,0.5l0-0.2
			c0.2-0.1,0.4-0.2,0.5-0.3c0.1-0.2,0.2-0.5,0.3-1l0.8-5.6l0.2,0l3.5,4.5c0.3,0.4,0.5,0.6,0.7,0.7c0.2,0.1,0.4,0.1,0.6,0.1l0,0.2
			l-2.4,0.6l0-0.2c0.2-0.1,0.4-0.2,0.5-0.3c0.1-0.1,0.1-0.2,0.1-0.3c0-0.1-0.2-0.3-0.3-0.6L115.8,92.5L115.8,92.5z M115.6,92.2
			l-1.7-2.2l-0.4,2.8L115.6,92.2L115.6,92.2z M126.8,92.2l0.2,0l-0.6,1.7l-4.9-0.2l0-0.2l0.2,0c0.3,0,0.5-0.1,0.6-0.2
			c0.1-0.1,0.1-0.3,0.1-0.7l0.2-4.1c0-0.4,0-0.6-0.1-0.8c-0.1-0.1-0.3-0.2-0.5-0.2l-0.2,0l0-0.2l2.9,0.1l0,0.2c-0.3,0-0.6,0-0.7,0.1
			c-0.1,0.1-0.2,0.1-0.3,0.2c-0.1,0.1-0.1,0.3-0.1,0.7l-0.2,4c0,0.3,0,0.4,0.1,0.5c0,0.1,0.1,0.1,0.2,0.2c0.1,0,0.3,0.1,0.7,0.1
			l0.5,0c0.5,0,0.8,0,1-0.1c0.2-0.1,0.4-0.2,0.6-0.4C126.5,92.9,126.6,92.6,126.8,92.2L126.8,92.2z M135.3,94.5l0.1,0.1l-1.1,1.5
			l-4.7-1.5l0.1-0.2l0.2,0.1c0.3,0.1,0.5,0.1,0.6-0.1c0.1-0.1,0.2-0.3,0.3-0.6l1.3-3.9c0.1-0.4,0.2-0.6,0.1-0.7
			c-0.1-0.2-0.2-0.3-0.5-0.4l-0.2-0.1l0.1-0.2l2.7,0.9l-0.1,0.2c-0.3-0.1-0.6-0.2-0.7-0.1c-0.1,0-0.3,0.1-0.3,0.1
			c-0.1,0.1-0.2,0.3-0.3,0.7l-1.3,3.8c-0.1,0.2-0.1,0.4-0.1,0.5c0,0.1,0.1,0.1,0.1,0.2c0.1,0.1,0.3,0.1,0.7,0.3l0.4,0.1
			c0.5,0.2,0.8,0.2,1,0.2c0.2,0,0.4-0.1,0.6-0.2C134.8,95,135,94.8,135.3,94.5L135.3,94.5z M142.1,98.1l-2-1.4l-0.9,0.6
			c-0.2,0.1-0.4,0.3-0.4,0.4c-0.1,0.1-0.1,0.2,0,0.3c0,0.1,0.2,0.3,0.4,0.5l-0.1,0.1l-1.6-1.2l0.1-0.1c0.2,0.1,0.4,0.2,0.5,0.1
			c0.2,0,0.5-0.2,1-0.4l4.8-3l0.1,0.1l-1.2,5.6c-0.1,0.4-0.1,0.8-0.1,1c0,0.2,0.2,0.4,0.4,0.5l-0.1,0.1l-2-1.4l0.1-0.1
			c0.2,0.1,0.4,0.2,0.5,0.2c0.1,0,0.2-0.1,0.3-0.1c0.1-0.1,0.2-0.3,0.2-0.6L142.1,98.1L142.1,98.1z M142.2,97.7l0.6-2.7l-2.4,1.5
			L142.2,97.7L142.2,97.7z M149.7,99.1l1,1.4l-1.5,6l2.9-2.2c0.3-0.2,0.5-0.4,0.5-0.5c0-0.2,0-0.4-0.2-0.6l-0.1-0.2l0.1-0.1l1.3,1.8
			l-0.1,0.1l-0.1-0.2c-0.2-0.2-0.3-0.3-0.5-0.3c-0.1,0-0.3,0.1-0.6,0.3l-4.3,3.2l-0.1-0.1l1.6-6.4l-3.1,2.3
			c-0.3,0.2-0.5,0.4-0.5,0.5c0,0.2,0,0.4,0.2,0.6l0.1,0.2l-0.1,0.1l-1.3-1.8l0.1-0.1l0.1,0.2c0.2,0.2,0.3,0.3,0.5,0.3
			c0.1,0,0.3-0.1,0.6-0.3l3.6-2.6c0.1-0.3,0.1-0.5,0.1-0.6c0-0.1,0-0.3-0.1-0.5c0-0.1-0.1-0.2-0.2-0.4L149.7,99.1L149.7,99.1z
			 M157.8,113.9l-1.4,0.6l-0.1-0.2c0.2-0.1,0.4-0.2,0.5-0.3c0.1-0.2,0.2-0.3,0.2-0.5c0-0.2,0-0.4-0.1-0.6l-0.3-0.8l-4.6,1.6
			c-0.4,0.1-0.6,0.3-0.6,0.4c-0.1,0.2-0.1,0.4,0,0.6l0.1,0.2l-0.2,0.1l-0.9-2.5l0.2-0.1l0.1,0.2c0.1,0.3,0.2,0.4,0.4,0.5
			c0.1,0,0.3,0,0.7-0.1l4.6-1.6l-0.3-0.7c-0.1-0.3-0.2-0.5-0.3-0.6c-0.1-0.1-0.3-0.2-0.5-0.3c-0.2-0.1-0.4,0-0.7,0l-0.1-0.2l1.4-0.4
			L157.8,113.9L157.8,113.9z M152.7,125.2l-0.1-1.7l2.9-2.3c0-0.2,0-0.3,0-0.4c0,0,0-0.1,0-0.1c0,0,0-0.1,0-0.1l-1.8,0.1
			c-0.4,0-0.6,0.1-0.7,0.2c-0.1,0.1-0.2,0.3-0.2,0.5l0,0.2l-0.2,0l-0.1-2.7l0.2,0l0,0.2c0,0.3,0.1,0.5,0.3,0.6
			c0.1,0.1,0.3,0.1,0.7,0.1l4.1-0.2c0.4,0,0.6-0.1,0.7-0.2c0.1-0.1,0.2-0.3,0.2-0.6l0-0.2l0.2,0l0.1,2.3c0,0.7,0,1.2-0.1,1.5
			c-0.1,0.3-0.2,0.6-0.5,0.8c-0.3,0.2-0.6,0.4-0.9,0.4c-0.4,0-0.7-0.1-1-0.3c-0.3-0.2-0.5-0.6-0.7-1.2l-1.8,1.4
			c-0.4,0.3-0.7,0.6-0.8,0.8c-0.1,0.2-0.2,0.5-0.2,0.9L152.7,125.2L152.7,125.2z M155.8,120.5c0,0.1,0,0.1,0,0.2c0,0,0,0.1,0,0.1
			c0,0.6,0.2,1.1,0.5,1.3c0.3,0.3,0.6,0.4,1,0.4c0.4,0,0.7-0.2,0.9-0.4c0.2-0.3,0.3-0.6,0.3-1c0-0.2-0.1-0.4-0.1-0.7L155.8,120.5
			L155.8,120.5z M157.5,133.6l-0.6,2.1l-0.2,0l0-0.1c0-0.1,0-0.2,0-0.4c0-0.2-0.1-0.3-0.2-0.5c-0.1-0.2-0.3-0.4-0.5-0.6l-1.9-2.1
			l-1.5-0.4c-0.4-0.1-0.6-0.1-0.7-0.1c-0.2,0.1-0.3,0.2-0.3,0.5l-0.1,0.2l-0.2,0l0.7-2.6l0.2,0l-0.1,0.2c-0.1,0.3,0,0.5,0.1,0.6
			c0.1,0.1,0.3,0.2,0.6,0.3l1.5,0.4l3-1c0.4-0.1,0.6-0.2,0.7-0.3c0.1-0.1,0.2-0.2,0.4-0.4c0-0.1,0.1-0.1,0.1-0.3l0.2,0l-0.7,2.6
			l-0.2,0l0-0.1c0-0.1,0-0.3,0-0.4c0-0.1-0.1-0.2-0.3-0.3c-0.1,0-0.3,0-0.7,0.1l-2.3,0.8l1.6,1.7c0.2,0.3,0.4,0.4,0.6,0.4
			c0.1,0,0.2,0,0.2,0c0.1,0,0.1-0.1,0.2-0.1c0.1-0.1,0.1-0.2,0.2-0.4L157.5,133.6L157.5,133.6z"/>
	</g>
	<g>
		<path class="st7" d="M143.3,128.6c0.6-0.2,1.6,0,1.6,0s0.1,0.4-0.2,0.6c0.3,0.2,1.4,0.1,1.4,0.1s-0.4,0.3-0.6,0.4
			c0.4,0,0.9,0.5,0.9,0.5s-0.9,0.1-1.3-0.1c0.2,0.5,0.2,0.9,0.2,0.9s-1.4-0.4-2-1.3"/>
		<path class="st7" d="M140.9,127.7c-0.4,0.9-2.9-0.7-2.9-0.7s1.1,1.8,2.8,2"/>
		<path class="st7" d="M108.7,144.3h30.2l2.3-1.9l-3.9-2.1l-6-2L129,137l-4.4,0.2l-3.7,2l-5.1,0.6l-1.2,1.4l-3.8,0.3l-5.9-0.1
			l9.9,1.6l-8.1-0.4L108.7,144.3L108.7,144.3z"/>
		<path class="st7" d="M125,135.6c-3.8-2-4.9,3-6.5,4.2c2.2,0.4,3.9-1.7,5.7-2.7c1.4,3.9,3.7,1.3,3.7,1.3s2.3,3.7,5.5,2
			c0.9,0.6,1.8,0.1,1.8,0.1s1.1,0.2,1.4-0.3c0.6,0.2,1.3-0.5,1.3-0.5s1.3,0,1.6-0.7c1.9,0.3,4.5-3.9,4.5-3.9l0.8-1.5l1.1-0.2
			c0,0,0.1-0.7-0.5-0.7c0-0.4-0.4-0.7-1-0.6c0.1-0.3-0.3-0.5-0.3-0.5c-1.1,0.3-1.1,3-1.1,3s-1.9,1.4-2.6,1.8c0-1.6-2.6-3.7-2.1-4.7
			c0.5-1,2.2,1.5,3.7,1.1c1.5-0.5,2.2-2.4,2.3-3.9c-0.4-1-1.4-2.7-1.4-2.7l-1-0.1l-0.8-2c0,0-1.8,1.2-1.7,2.2c0,1,1.9,1.9,1.9,1.9
			s-1.1,0.7-2,0.4c-0.1,1,1.2,0.8,1.7,0.8c0.2,0.7,1,1.1,1,1.1s0.4,1.1-0.7,1c-1.2-0.1-2.5-2.8-4.2-1.6c-1.7,1.3,0.8,3.7,0.8,3.7
			s-1.5,0.8-2.5,2.9C131.3,133.3,129.1,134.8,125,135.6L125,135.6z"/>
		<path class="st7" d="M119.5,130.3c1.6,1.5,0.5,3.9,1.1,4.4c0.6,0.5,1.6-0.2,1.6-0.2c1.6,0.4,4.5-0.5,4.5-0.5
			c1.3,0.7,0.8-0.3,1.6-0.3c0.7,1.8,3,1.4,3,1.4s-2.1-2.2-3.4-2.7c-1,0.6-3.9,0.7-4.4,0.6c-0.6-0.1-0.2-0.8-0.5-1.2
			c1.1-1,0.2-3.6-0.4-4.6C120.2,125.5,117.4,128.2,119.5,130.3L119.5,130.3z"/>
		<path class="st7" d="M109.2,125.9c-2,0.5-5.3-2.5-6.9-1.4c-1.6,1.2-0.8,4.1,0.2,5.5c1,1.4-1.5,1.9-2.2,2.7
			c-0.6,0.8,0.2,1.7,0.2,1.7l0.7,0.5l-0.1,1.1l0.4,1.3c0,0,0.3,0.3,0.5-0.1c0.3,0.3,0,1.3,0.8,1.4c-0.3-0.6,0.2-2.3,0.2-2.3
			s1.4,0.1,1.8-0.5c0.4-0.6-0.3-1.9-0.3-1.9h0.4c-0.5-0.3-0.6-1.3-0.6-1.3s2-0.6,1.9-2.1c0-1.5-3.2-3.1-2-3.8
			c1.3-0.9,3.5,2.2,5.5,0.8c1.9-1.4,0.7,0,0.7,0S111.1,125.4,109.2,125.9L109.2,125.9z"/>
		<path class="st7" d="M119.3,105c-2.6-1.1-8-1.2-10.9-2.6c-1.3,0.1-1.9,1.1-1.9,1.5c-1.4-0.1-2.3,2.1-2.1,2.5
			c-2.5-1-3.6,2.9-2.8,3.7c-2.1,0.1-1.9,2.8-2.1,3.6c-0.7,1.7,0.2,2.2,1.5,1.6c0.2,0.7-0.1,1.1-0.7,1.3c3.7,4.2,5.8-2.6,9-2.6
			c4-1.2,5.6-3.2,5.6-3.2l1.6,0.2L119.3,105L119.3,105z"/>
		<circle class="st7" cx="122.7" cy="101.9" r="3.9"/>
		<path class="st7" d="M115.9,132.3c-2.4-0.4-6.4-2.9-6.8-6.2c2.2-8.7,13.7-4.2,14.7-10.8c-0.3-4.3,0.5-8.6,2.9-12.3
			c1.1-1.4,2.6-1.8,2.6-1.8s0.3,0.9-0.1,1.6c1.9-0.2,4.5,0.9,6.3,1c0.5,1.1,0.5,1.4,0.4,2.1c-0.1,0.6-0.8,0.5-0.8,0.5
			c-0.5,0.4-1,0.9-2.3,0.7c-0.9,0.7-2.9,0.9-2.9,0.9s4.2,4.4,3.5,5.7c0.9,0.4,2.2,2.3,2.2,2.3s2.8-1.5,3.8-2.9
			c1.6,0,4.3,1.7,5.7,1.9c1.6,1.3,3.3,2.7,3.3,2.7s-2,1.3-2.8-0.4c-1,0.1-3.3-2.4-6.3-1.6c-0.1,2.7-3.1,4.7-3.1,4.7s2.8-0.4,4.4,0.5
			c1.6,1.3,3.9,3.2,3.9,3.2l2.1,3.6c0,0-1.9,0.3-2.6-2.2c-0.7,2-0.7-1.2-3.6-2.7c-0.9,0.1-1.3,0.2-2-0.4c-2,0.6-4.5,1.7-7.4,1.4
			c-2,0.6-3.5,2.3-5.6,3.3c-2.1,0.9-2.7,0.5-2.7,0.5l-1.7,0.1c-0.2,1-0.1,2.5-1,2.8c0.6,0.6-0.4,3.3-1.4,3.8
			c0.5,1.7,1.9,2.2,3.3,3.1c0,0,1.3-0.6,2.2,0.2c0.9,0.8,1.7,3,1.7,3s-1.8,0.1-2.3-0.1c-0.6-0.2-0.6-0.8-1.3-0.7
			c-4.1-3.6-6.2-2.2-6.6-3C114.9,135.9,116.3,133.7,115.9,132.3L115.9,132.3z"/>
		<path class="st7" d="M106.2,116.3c0.2-0.3,1.7,0.3,1.7,0.3l2.7,1.7l5.5,3.6l1.9,2.8l-3.5-1.1l-4.9-4.2l-2.6-1.7
			C107,117.6,105.9,116.5,106.2,116.3L106.2,116.3z"/>
		<path class="st7" d="M138.7,125.3c-1.9-0.5-6.6,5.2-6.6,5.2l3.5,3.8C135.6,134.3,135.7,127.8,138.7,125.3z"/>
		<path class="st7" d="M115.5,109.4c-1,1.3-1.1,4,0.2,5.1c0.1,1.6,1.5,4.9,2.6,5.2c1.2,0.3,5.9,1.4,7.8,1.1c-0.4,3,2,5.4,4.2,7
			c0,0.3,0,0.6,0.2,0.9c0.2,0.3,1.4,0.4,1.4,0.2c0.5,0.7,3,1,3.2,0.7c0.2-0.3-3.6-3-4.5-3.8c-0.7-1.3-2.1-4.3-2.4-6.7
			c-1.9-2.2-5.1-2.2-5.1-2.2l0.1-4.3l0.2-4.9l-1.7-0.9c0,0,0.3-0.2,0.5-0.4c0.4,0.2,1.2-0.7,1.3-0.9c0.4,0.1,0.8,0.1,0.8-0.1
			c0.1-0.2,0.1-1,0.3-1.5c1.3-1.2-0.2-3.6-2.2-3.6c-2,0-2.4,2.4-2.4,2.5c0.2,0.8,0.1,1.1,0,1.3c-0.1,0.2-0.8,0.6-0.8,0.6
			s-1.1-0.5-2.5,0s-2.9,1.2-2.9,2.1c-0.6,0.1-1.6,0.9-1.8,1.6c-0.5-0.1-1.2,0.3-2.4,2.2c-2.1,0.9-2.2,5.3-2.2,5.3s-0.6,0.8-0.6,1.2
			c0,0.4,0.2,0.8,0.5,0.7c0,0.3,0.4,0.5,0.6,0.4c0.1,0.3,0.5,0.4,0.7,0.4c0,0.2,0.8,0.1,0.9,0c0.1-0.2-0.1-1.2,0-1.2
			c0.1-0.1,0.7,0.4,0.9,0.3c0.2-0.1,0-0.6-0.1-0.7c-0.1-0.1-0.7-0.3-0.8-1c-0.1-0.7,0.4-1.7,0.4-1.7s2.2-1.8,2.5-3.3
			C114.2,111.5,115,110,115.5,109.4L115.5,109.4z"/>
		<path class="st7" d="M111.6,103.1c0.5-1.3,2.4-1.1,2.4-1.1s0.7-1.7,3.2-0.7c0.9-0.7,3.4,0.3,3.4,0.3s0.9-1.2,2.1-1.1
			c2.2,0.3,2.6,2.3,2.5,2.7c-1.2,0.3-3.4-1-5-0.6c-0.9,0.5-2.5,1.1-3,1.9C115.6,104.6,114,103,111.6,103.1L111.6,103.1z"/>
		<path class="st7" d="M116.3,105.2c0.6-0.3,1.9-0.9,2.9-0.2c1,1.1,2.5,2,2.5,2l1.7,0.7l0.8,0.5l-0.5,7.8c-1.6-1.6-3.1-1.9-4.2-3.8
			c-0.6-0.8-0.1-2.8-1.2-4.1C117.2,106.8,116.1,106,116.3,105.2L116.3,105.2z"/>
		<path class="st7" d="M120.4,107.4c0,0,0.9-0.2,1.1,0c0.3,0.1,0.6,0.2,0.7,0.5c0.3,0.1,0.6,0.3,0.6,0.5c0.3,0.1,0.4,0.7,0.4,0.7
			l-0.3,0.4c0,0-0.3-0.3-0.4-0.7c-0.2-0.1-0.7-0.2-0.8-0.5c-0.4,0-0.6-0.2-0.7-0.5C120.8,107.9,120.4,107.4,120.4,107.4L120.4,107.4
			z"/>
		<path class="st7" d="M128,102.3c-0.5-0.6-1.4-0.1-1.4-0.1l-2.4,4.1l-1,0.9l-0.1,3.2l0.9,3l-0.3,2.3c0,0,1.2-1.1,1.3-1.8
			c0.1-0.6-0.4-2.6-0.4-2.6s-0.7-1.2,0.1-3.5C125.5,105.7,127.5,103.8,128,102.3L128,102.3z"/>
		<path class="st7" d="M133.9,106c0,0-3.7,5.3-9.8,7.2c-1.7,0.4-1.1-3.9-1.1-3.9l-0.4,0.1c0,0-0.9,4.3,1.3,4.3
			c6.1-1.2,10.8-7.7,10.8-7.7L133.9,106L133.9,106z"/>
		<path class="st7" d="M136.4,136.7c0,0-0.6,0.4-1.3,0c-0.4-0.9-1.4-1-1.4-1s-0.7-1.9-1.7-1.4c-0.2-1-1.3-0.5-1.3-0.5s0-1.4-1.4-1.3
			c0.4-1.7-1.9-1.6-1.9-1.6s-0.1-1.9-3.5-1.5c7.3-3.3,13.1,5.1,13.1,5.1"/>
		<path class="st7" d="M139.9,137.4c0,0,1.7,1.9,2.6,1.9c0.9,0,1-1.9,1-1.9s0.3,0.8,0.7,0.6c0,0.6,0.5,0.7,0.5,0.7s-1.5,3.5-5.9,0.2
			"/>
		<path class="st7" d="M126.6,138.1l-0.6,2.5c0,0-0.8,0.7-0.5,0.8c0.2,0.1,1.4-0.2,1.4-0.2s1.9-0.2,2.5-0.8c0.4,0.9,1.3,1,1.3,1
			s0.1-0.4-0.1-0.6c0.4,0.1,0.8-0.1,0.8-0.1s0.2-0.7-0.3-1c0.1-0.5,0.3-1-0.6-0.9c-0.7,0.7-2.3,1.5-2.7,1.3
			c-0.4-0.3,1.6-1.2,1.1-2.4"/>
	</g>
</g>
</svg>
