<svg id="Layer_1" data-name="Layer 1" xmlns="http://www.w3.org/2000/svg" xmlns:xlink="http://www.w3.org/1999/xlink" width="513.71mm" height="267.7mm" viewBox="0 0 1456.17 758.85">
  <defs>
    <style>
      .cls-1, .cls-10, .cls-14, .cls-19, .cls-4, .cls-6, .cls-7, .cls-8 {
        fill: none;
      }

      .cls-2 {
        clip-path: url(#clip-path);
      }

      .cls-3 {
        fill: #002868;
      }

      .cls-10, .cls-4, .cls-7 {
        stroke: #fff;
      }

      .cls-4, .cls-6, .cls-7, .cls-8 {
        stroke-miterlimit: 40;
      }

      .cls-4, .cls-8 {
        stroke-width: 69.97px;
      }

      .cls-5 {
        clip-path: url(#clip-path-2);
      }

      .cls-6, .cls-8 {
        stroke: #ce1126;
      }

      .cls-6 {
        stroke-width: 46.65px;
      }

      .cls-7 {
        stroke-width: 116.62px;
      }

      .cls-20, .cls-9 {
        fill: #fcd116;
      }

      .cls-11, .cls-12, .cls-13, .cls-14, .cls-15, .cls-18, .cls-20, .cls-21, .cls-22, .cls-9 {
        stroke: #000;
      }

      .cls-10, .cls-9 {
        stroke-miterlimit: 10;
      }

      .cls-9 {
        stroke-width: 9.33px;
      }

      .cls-10 {
        stroke-width: 8.16px;
      }

      .cls-11 {
        fill: #fcad56;
      }

      .cls-11, .cls-12, .cls-13, .cls-14, .cls-15, .cls-16, .cls-18, .cls-19, .cls-20, .cls-21, .cls-22 {
        stroke-linecap: round;
        stroke-linejoin: round;
      }

      .cls-11, .cls-12, .cls-13, .cls-14, .cls-15, .cls-18, .cls-19, .cls-20, .cls-21, .cls-22 {
        stroke-width: 0.32px;
      }

      .cls-12 {
        fill: #ffa1a1;
      }

      .cls-13 {
        fill: #f1b2dc;
      }

      .cls-15, .cls-16, .cls-17 {
        fill: #9e540a;
      }

      .cls-16 {
        stroke: #fcd116;
        stroke-width: 1.75px;
      }

      .cls-18 {
        fill: #009e49;
      }

      .cls-19 {
        stroke: #009e49;
      }

      .cls-21 {
        fill: #ce1126;
      }
    </style>
    <clipPath id="clip-path" transform="translate(56.18 58.85)">
      <rect class="cls-1" x="2.07" y="-0.48" width="1397.93" height="700.48"/>
    </clipPath>
    <clipPath id="clip-path-2" transform="translate(56.18 58.85)">
      <path class="cls-1" d="M2.07-.48V174.64H759.28V349.76H701Zm699,0H351.55V408.13H2.07V349.76Z"/>
    </clipPath>
  </defs>
  <g class="cls-2">
    <g>
      <path class="cls-3" d="M2.07-.48H701C797.54,193,719.31,428.16,526.29,524.88S98.58,543.19,2.07,349.76Z" transform="translate(56.18 58.85)"/>
      <g>
        <path class="cls-4" d="M2.07-.48,701,349.76m-699,0L701-.48" transform="translate(56.18 58.85)"/>
        <g class="cls-5">
          <path class="cls-6" d="M2.07-.48,701,349.76m-699,0L701-.48" transform="translate(56.18 58.85)"/>
        </g>
        <path class="cls-7" d="M351.55-58.85v467M-56.18,174.64H759.28" transform="translate(56.18 58.85)"/>
        <path class="cls-8" d="M351.55-.48V408.13M2.07,174.64H759.28" transform="translate(56.18 58.85)"/>
      </g>
      <path class="cls-3" d="M2.07,349.76H701V-.48h699V700H2.07" transform="translate(56.18 58.85)"/>
    </g>
    <g>
      <path id="s" class="cls-9" d="M1172.83,203.83V308.9c0,70.05-34.94,145.49-122.31,186.36C963.15,454.39,928.2,379,928.2,308.9V203.83Z" transform="translate(56.18 58.85)"/>
      <path class="cls-10" d="M1172.83,203.83V308.9c0,70.05-34.94,145.49-122.31,186.36C963.15,454.39,928.2,379,928.2,308.9V203.83Z" transform="translate(56.18 58.85)"/>
      <g>
        <g>
          <path class="cls-11" d="M1006.39,319.55c-3.2,5.4-8.59,6.57-12.81,4.82-4.37-1.75-8.3-12-12.67-17.51-4.22-5.4-5.39-3.07-8.3-6.28-2.77-3.06-7.13-5.4-14-8.61-3.78-1.75-7.72-3.35-10.34-10.07a11.39,11.39,0,0,1,6-6c2.19-.73,3.93-3.94,4.23-6.71s2.62-5.55,5.82-7.74a10,10,0,0,1-6-1.31,3.94,3.94,0,0,0-4.81.14,7.28,7.28,0,0,1-5.24.88c.88-.73,2.48-2.34,2.62-3.79s1.9-2.19,5.25-2.19,5.38-3.8,8-3.8c-1.9,0-1.46-3.21-.44-3.35-4.66-.88-4.08-4.67-2.19-4.67-.14-.59-.72-1.17-2.91-1.9-2-.73-1-2.63.58-3.8-1.45-2.91-.14-5.1,2.19-7-3.21-.15.29-4.67,1.16-7.15s1.31-2.63,2.33-1.17,3.79,4.38,6.85,5.26c2.91.87,4.66,2.48,5.24,5s1.75,3.94,4.95,5.1c3.35,1,7.86,3.8,7.28,10.07a10,10,0,0,1,6.12,2.19" transform="translate(56.18 58.85)"/>
          <path class="cls-12" d="M1014.4,240.46a9.25,9.25,0,0,0,3.64,7.44c2.19,1.75,4.08,3.21,3.64,5.4s.44,3.79,2.33,5.25,3.5,3.21,2.92,6.13a9,9,0,0,0,1,6.86c1.16,2.19,3.2,3.94,2.33,7.44s-.44,8.18.72,10.51,0,3.94-2,7.88-3.2,5.25-7.42,6.71-4.66,3.94-4.66,8.47-3.06,7-8.74,6.13c-5.82,4.81-9.46-.88-10.92-8s-1.75-14.88-10.34-21.16c-8.44-6.42-5.1-17.22,2-21.6,7.14-4.23,6.26-16.78,5.39-24.51s4.37-12.12,8.3-16.35C1007.85,229.07,1014.4,237.1,1014.4,240.46Z" transform="translate(56.18 58.85)"/>
          <path class="cls-13" d="M1002,290.22c-1.61-3.79-3.35-7.59.87-15.76s1.6-14.59.29-18.83c-1.31-4.08-1.6-7.88,0-9.63a6.47,6.47,0,0,0,2.62-5.4c.15-2.62,2.33-1.75,2.62-.43s.59,3.5-1.74,7.44,6.55,14,2.47,24.66c-2.77,7.44.87,16.93,2.33,23.5s2.33,22.32-7.28,24.66C1010.76,317.22,1004.65,296.35,1002,290.22Z" transform="translate(56.18 58.85)"/>
          <path class="cls-14" d="M958.78,289.05a2.46,2.46,0,0,0,2.91-1.6c.44-1,.73-1.61,2.18-1.75s3.79-.44,4.37-1.61S970.43,284,972,281s2.47-6.57,6.41-7.88m10.77-25.4c-1.45,0-5.68.15-7.43,3.94m-12.08-22c3.49,1,2,3.35,3.78,4.67,3.21,2.48.3,5.11,2.92,5.84s2.47,1.16,1.89,4.08c-.87,3.36,2.33,3.5,1.16,5.69m-15.14,11.53c2-1.9,7.14-3.35,8.3-5.4m-8.44-4.67c3.05-.14,7.13,1,7.71-.14m-8.15-3.21c1.45,0,4.51-1,5.09-3.07m-7.28-1.6a9.64,9.64,0,0,0,6.12-1.76m-8.45-3.94c1.31-1,3.64.15,5.83-1.31m-3.64-5.69c1,0,3.2-.29,3.2,1" transform="translate(56.18 58.85)"/>
        </g>
        <g>
          <g id="L1">
            <path class="cls-15" d="M1100.75,257.39s-10.19-8.61-18.64-14.45-18.63-13-18.63-14.45c1.6-1.17,10.19,4.38,22,11.53a96.9,96.9,0,0,1,18.64,14.45Zm-.72,5.83A192.85,192.85,0,0,0,1080.37,253c-10.2-4.23-25.49-4.23-27.09-5.69,0-1.46,17.77-2.34,30.44,2.77a188.59,188.59,0,0,1,19.66,10.21Zm-.15,9.93a122.89,122.89,0,0,0-21.26-7.3c-10.19-2.34-24.75-1.46-26.5-2.77,0-1.46,18.05-4.38,31.6,0s19.51,7.15,19.51,7.15Zm-.58,10.07a46.1,46.1,0,0,0-18.93-6.72c-10.2-1-23.74,6.72-25.49,5.26,0-1.46,11.8-10.07,26.51-8.61,14.41,1.46,21.26,7.15,21.26,7.15Zm3.35-31.82s-10.34-9.48-10.34-15.9c0-5.7,6.26-14.45,9-14.45-1.46,2.92-6.27,8.75-6.27,14.45s10.93,13,10.93,13Z" transform="translate(56.18 58.85)"/>
            <path class="cls-15" d="M1102.65,251.4s2-9.48,2-15.9c0-8.61-6.12-16.49-5.54-18.68,2.19,2.19,8.3,8.61,8.3,18.68,0,8.75-1.45,13-1.45,13Z" transform="translate(56.18 58.85)"/>
            <g>
              <path id="ant" class="cls-16" d="M1105.12,248.34a10.45,10.45,0,0,0-2.76-7.15c-2.33-2.78-5.83-3.65-9.47-3.07a13.8,13.8,0,0,0-10.05,7.45c-2.91,5.39-3.2,11.23-3.35,16.92,0,19.7.73,27.73,1.31,47.14.15,5.69,1.17,17.37-1.45,26.56a66.36,66.36,0,0,1-3.93,11.38c1.16-4.81,1.74-7.29,2.33-10.94,1.6-9.49,1.16-18.39.87-27.15-.58-18-1.6-27.14-2.18-48.88-.15-6.57.43-11.53,3.49-16.79s8.74-9.34,15-9.34a12.76,12.76,0,0,1,7,1.76c4.37,2.33,6.41,7.15,6.41,12Z" transform="translate(56.18 58.85)"/>
              <path class="cls-17" d="M1105.12,248.34a10.45,10.45,0,0,0-2.76-7.15c-2.33-2.78-5.83-3.65-9.47-3.07a13.8,13.8,0,0,0-10.05,7.45c-2.91,5.39-3.2,11.23-3.35,16.92,0,19.7.73,27.73,1.31,47.14.15,5.69,1.17,17.37-1.45,26.56a66.36,66.36,0,0,1-3.93,11.38c1.16-4.81,1.74-7.29,2.33-10.94,1.6-9.49,1.16-18.39.87-27.15-.58-18-1.6-27.14-2.18-48.88-.15-6.57.43-11.53,3.49-16.79s8.74-9.34,15-9.34a12.76,12.76,0,0,1,7,1.76c4.37,2.33,6.41,7.15,6.41,12Z" transform="translate(56.18 58.85)"/>
            </g>
            <path class="cls-15" d="M1106,318.68s-4.08,7.29-7.14,12.55-5.53,6.42-7.86,4.81-.29-5.83,1.45-7.88S1104,316.63,1104,316.63Z" transform="translate(56.18 58.85)"/>
            <path class="cls-15" d="M1107,319.26s-1.61,8.32-2.92,14.3c-1.16,6-3.2,8-5.68,7.3s-2.18-5.4-1.16-7.88,7.13-15,7.13-15Z" transform="translate(56.18 58.85)"/>
            <path class="cls-15" d="M1108.76,319.55v14.6c0,6.13-1.45,8.61-4.22,8.46-2.62-.15-3.2-4.82-2.62-7.59s4.08-16.2,4.08-16.2Z" transform="translate(56.18 58.85)"/>
          </g>
          <g>
            <path class="cls-15" d="M1116.77,257.39s10.2-8.61,18.64-14.45,18.64-13,18.64-14.45c-1.6-1.17-10.19,4.38-22,11.53a96.9,96.9,0,0,0-18.64,14.45Zm.73,5.83A191.61,191.61,0,0,1,1137.16,253c10.19-4.23,25.48-4.23,27.08-5.69,0-1.46-17.76-2.34-30.43,2.77a188.59,188.59,0,0,0-19.66,10.21Zm.15,9.93a122.53,122.53,0,0,1,21.26-7.3c10.19-2.34,24.75-1.46,26.5-2.77,0-1.46-18.06-4.38-31.6,0-13.69,4.23-19.51,7.15-19.51,7.15Zm.58,10.07a46,46,0,0,1,18.93-6.72c10.19-1,23.73,6.72,25.48,5.26,0-1.46-11.79-10.07-26.5-8.61-14.42,1.46-21.26,7.15-21.26,7.15Zm-3.35-31.82s10.34-9.48,10.34-15.9c0-5.7-6.26-14.45-9-14.45,1.46,2.92,6.26,8.75,6.26,14.45s-10.92,13-10.92,13Z" transform="translate(56.18 58.85)"/>
            <path class="cls-15" d="M1114.88,251.4s-2-9.48-2-15.9c0-8.61,6.12-16.49,5.53-18.68-2.18,2.19-8.3,8.61-8.3,18.68,0,8.75,1.46,13,1.46,13Z" transform="translate(56.18 58.85)"/>
            <g>
              <path class="cls-16" d="M1112.4,248.34a10.41,10.41,0,0,1,2.77-7.15c2.33-2.78,5.82-3.65,9.47-3.07a13.78,13.78,0,0,1,10,7.45c2.92,5.39,3.21,11.23,3.35,16.92,0,19.7-.73,27.73-1.31,47.14-.14,5.69-1.16,17.37,1.46,26.56a65.52,65.52,0,0,0,3.93,11.38c-1.17-4.81-1.75-7.29-2.33-10.94-1.6-9.49-1.17-18.39-.87-27.15.58-18,1.6-27.14,2.18-48.88.15-6.57-.44-11.53-3.49-16.79-3.21-5.4-8.74-9.34-15-9.34a12.74,12.74,0,0,0-7,1.76c-4.37,2.33-6.41,7.15-6.41,12Z" transform="translate(56.18 58.85)"/>
              <path class="cls-17" d="M1112.4,248.34a10.41,10.41,0,0,1,2.77-7.15c2.33-2.78,5.82-3.65,9.47-3.07a13.78,13.78,0,0,1,10,7.45c2.92,5.39,3.21,11.23,3.35,16.92,0,19.7-.73,27.73-1.31,47.14-.14,5.69-1.16,17.37,1.46,26.56a65.52,65.52,0,0,0,3.93,11.38c-1.17-4.81-1.75-7.29-2.33-10.94-1.6-9.49-1.17-18.39-.87-27.15.58-18,1.6-27.14,2.18-48.88.15-6.57-.44-11.53-3.49-16.79-3.21-5.4-8.74-9.34-15-9.34a12.74,12.74,0,0,0-7,1.76c-4.37,2.33-6.41,7.15-6.41,12Z" transform="translate(56.18 58.85)"/>
            </g>
            <path class="cls-15" d="M1111.53,318.68s4.08,7.29,7.13,12.55,5.54,6.42,7.87,4.81.29-5.83-1.46-7.88-11.5-11.53-11.5-11.53Z" transform="translate(56.18 58.85)"/>
            <path class="cls-15" d="M1110.51,319.26s1.6,8.32,2.91,14.3,3.21,8,5.68,7.3c2.62-.58,2.19-5.4,1.17-7.88s-7.14-15-7.14-15Z" transform="translate(56.18 58.85)"/>
            <path class="cls-15" d="M1108.76,319.55v14.6c0,6.13,1.46,8.61,4.23,8.46,2.62-.15,3.2-4.82,2.62-7.59s-4.08-16.2-4.08-16.2Z" transform="translate(56.18 58.85)"/>
          </g>
          <g id="L2">
            <path class="cls-15" d="M1108.76,319.41c-7.71-.15-8.44-2.92-8.44-2.92a35.29,35.29,0,0,1-1.17-5.69c-.14-.29-2.18-4.67-1.6-6.57-.73-1.75-2.48-6-.87-6.71-.73-2-1.9-4.38-2-6.57-.58-1.61-2-5.11-.88-6.28,0,0-2.76-5.83-1.45-7.29,0,0-1.31-5.69,0-7.15,0,0,0-5.84,1.45-7.3,0,0,0-5.69,1.31-7.15,0,.29,4.08-8,13.69-8l-.14,12.41h.14Z" transform="translate(56.18 58.85)"/>
            <path class="cls-14" d="M1108.76,287.59c-12.37-.14-15-2.92-15-2.92m15-4.37c-12.37,0-16.45-2.92-16.45-2.92m16.45-4.23c-12.37-.15-16.45-2.92-16.45-2.92m16.45-4.38c-12.37-.15-15-2.92-15-2.92m14.86-2.77c.14,0-9.32,0-10.78-1.46l-2.77-2.77m13.69,57.64c-3.64,0-7.71-.58-9.61-2.77m9.61-3.07a20.72,20.72,0,0,1-10.92-2.77,7.18,7.18,0,0,1-.29-.73m11.21-3.65c-9-.14-11.5-2-12.08-3.06m12.08-2.78c-12.37,0-13.69-2.91-13.69-2.91l-.43-.88" transform="translate(56.18 58.85)"/>
          </g>
          <g>
            <path class="cls-15" d="M1108.76,319.41c7.72-.15,8.45-2.92,8.45-2.92a34.55,34.55,0,0,0,1.16-5.69c.15-.29,2.19-4.67,1.61-6.57.72-1.75,2.47-6,.87-6.71.73-2,1.89-4.38,2-6.57.58-1.61,2-5.11.87-6.28,0,0,2.77-5.83,1.46-7.29,0,0,1.31-5.69,0-7.15,0,0,0-5.84-1.46-7.3,0,0,0-5.69-1.31-7.15,0,.29-4.08-8-13.69-8l.15,12.41h-.15Z" transform="translate(56.18 58.85)"/>
            <path class="cls-14" d="M1108.76,287.59c12.38-.14,15-2.92,15-2.92m-15-4.37c12.38,0,16.46-2.92,16.46-2.92m-16.46-4.23c12.38-.15,16.46-2.92,16.46-2.92m-16.46-4.38c12.38-.15,15-2.92,15-2.92m-14.85-2.77c-.15,0,9.32,0,10.77-1.46l2.77-2.77m-13.69,57.64c3.64,0,7.72-.58,9.61-2.77m-9.61-3.07a20.68,20.68,0,0,0,10.92-2.77,5.88,5.88,0,0,0,.3-.73m-11.22-3.65c9-.14,11.51-2,12.09-3.06m-12.09-2.78c12.38,0,13.69-2.91,13.69-2.91l.44-.88" transform="translate(56.18 58.85)"/>
          </g>
        </g>
        <g>
          <g id="L3">
            <path class="cls-18" d="M1050.52,453.66c-6.27,5.84-18.35,2-22.14-.58-3.93,1.31-14.41-2.77-17.18-7.3-7.57,1-10.19-9.77-8.88-12.55,2-4.08-1.61-6.71,1-9.48,3.64-3.5-2-6.86,1.45-9.2s-.87-6.56,2.62-9.19-1.89-6.57,1.9-8.46-.44-6.86,2.76-8.76-1.89-6.71,2.48-8.9.44-6,3.78-7.59c3.65-1.9.3-5.84,3.65-7.15,3.78-1.61,1-5.84,4.22-7,2.76-1,1-3.65,2.76-6h21.56" transform="translate(56.18 58.85)"/>
            <path class="cls-14" d="M1036.1,352.39c-2.91,2.92.58,5.11-2.33,8.61s-.29,5.54-2.77,8.75,1.17,4.82-1.6,8.47c-2.77,3.5.58,5.69-2.47,8.61s.58,5.69-2.48,8.9.58,5.55-2.33,8.46c-3.06,3.07.44,6.28-2.47,9.2s.58,6.86-2.77,10.36.58,6.27-2,8.9-.29,5.55-2.18,7.44-2.19,4.53-1.46,5.69m30.58-92.37c-2.62,3.65,1.46,5.25-1,8.17-2.48,3.07,1,4.09-.87,7.59s1.45,4.38-1,7.88,1.31,6.28-1.31,9.78,1.31,5.4-1.17,8.9,1.17,5.55-1,8.17c-2.18,2.77,1.6,5.4-1.16,8.76-2.62,3.21,1.16,5.69-1,8.61s.87,6.27-1,8.75,1.31,6-1.46,9.2.58,5.4-1,7.59-2.91,5.4-1.31,6.27" transform="translate(56.18 58.85)"/>
          </g>
          <g>
            <path class="cls-18" d="M1050.52,453.66c6.26,5.84,18.34,2,22.13-.58,3.93,1.31,14.42-2.77,17.18-7.3,7.57,1,10.2-9.77,8.89-12.55-2-4.08,1.6-6.71-1-9.48-3.64-3.5,2-6.86-1.46-9.2s.87-6.56-2.62-9.19,1.89-6.57-1.89-8.46.43-6.86-2.77-8.76,1.89-6.71-2.48-8.9-.43-6-3.78-7.59c-3.64-1.9-.29-5.84-3.64-7.15-3.79-1.61-1-5.84-4.23-7-2.76-1-1-3.65-2.76-6h-21.55" transform="translate(56.18 58.85)"/>
            <path class="cls-14" d="M1064.93,352.39c2.91,2.92-.58,5.11,2.33,8.61s.29,5.54,2.77,8.75-1.17,4.82,1.6,8.47c2.77,3.5-.58,5.69,2.48,8.61s-.59,5.69,2.47,8.9-.58,5.55,2.33,8.46c3.06,3.07-.44,6.28,2.48,9.2s-.59,6.86,2.76,10.36-.58,6.27,2,8.9.29,5.55,2.19,7.44,2.18,4.53,1.45,5.69m-30.58-92.37c2.62,3.65-1.45,5.25,1,8.17,2.48,3.07-1,4.09.88,7.59s-1.46,4.38,1,7.88-1.32,6.28,1.31,9.78-1.31,5.4,1.16,8.9-1.16,5.55,1,8.17c2.18,2.77-1.6,5.4,1.17,8.76,2.62,3.21-1.17,5.69,1,8.61s-.87,6.27,1,8.75-1.31,6,1.46,9.2-.58,5.4,1,7.59,2.91,5.4,1.31,6.27" transform="translate(56.18 58.85)"/>
          </g>
          <path class="cls-19" d="M1050.52,453.66V351.51" transform="translate(56.18 58.85)"/>
          <path class="cls-14" d="M1050.52,356.77c-1.31,5.69,1.89,10.65,0,15.46s1.31,6.57.29,10.37,1.31,6.56-.29,10.65,2.18,7.3,0,12.69,1.45,6.57,0,12c-1.61,6.13,2.76,9.34,0,13.72s2.47,5.4.29,10.36,1.31,6.71-.29,11.67" transform="translate(56.18 58.85)"/>
          <path class="cls-20" d="M1052.7,375.15c-.73,1.61,2.18,5.4.58,8.32-1.74,2.77.88,7.15-.87,10.65s2.77,7.88,1,12,.87,9.19,0,13,1.89,11.09,0,13.72,1.89,3.5-.29,10.21-3.64,1-2.33-1c2.76-4.52-3.06-6-.29-10.36s-1.61-7.59,0-13.72c1.45-5.4-2.19-6.71,0-12s-1.61-8.61,0-12.69-.88-6.86.29-10.65-2.19-5.7-.29-10.37C1052,367.56,1053.43,373.55,1052.7,375.15Zm-12.23,4.67c-1,1.75,1.75,5.11-.73,8.47-1.75,2.33,1.17,5.1-1.31,8.46-1.6,2.34,1.6,5.25-.58,8.61-1.46,1.9,1,5.55-.73,8.32-1.75,2.92.87,5.25-2.19,9.05-1.74,2,1.32,7.15-.58,8.75s-.14,7.88-1.45,8.76,0,5.54-3.21,6.57c1.6-2.19-1.6-4.38,1-7.59s-.43-6.86,1.46-9.2-1.17-5.69,1-8.75-1.6-5.4,1-8.61c2.76-3.36-1-6,1.16-8.76,2.19-2.62-1.31-4.52,1-8.17s-1.6-5.4,1.17-8.9-1.17-6.28,1.31-9.78-.88-4.38,1-7.88C1043.38,370.48,1041.63,378.07,1040.47,379.82Zm-7.28-9.48c-1.46,2.33.58,5.1-1.6,8s0,6.86-2.19,9.34.58,7-2.18,8.91-1,7.58-3.21,9.48,0,7.3-2.47,10.07-1.31,8.46-2.77,9.78c-1.31,1.31,1.89,4.08-.44,6s-2.47,5.69-5.67,8.17c1.89-1.89-.59-4.67,2.18-7.44s-1.17-5.4,2-8.9-.15-7.3,2.77-10.36-.59-6.13,2.47-9.2c2.91-2.91-.58-5.1,2.33-8.46s-.44-5.84,2.48-8.9-.3-5.11,2.47-8.61c2.77-3.65-.87-5.26,1.6-8.47a5.55,5.55,0,0,0,1.17-3.94C1033.92,361.29,1033.92,369.17,1033.19,370.34Z" transform="translate(56.18 58.85)"/>
          <path class="cls-21" d="M1030.28,354.87c0-30.65,4.22-41.3,20.24-41.3s20.24,10.65,20.24,41.3Z" transform="translate(56.18 58.85)"/>
          <path class="cls-22" d="M1030.28,354.87c0-30.65,4.22-41.3,20.24-41.3-7.28,0-11.8,5.69-13,9.49s-.59,3.5,1,2,.87,1.75-.59,3.5c-1.31,1.75-2.62,6.86-.73,5.25s3.35.15,1.32,3.07c-2,2.77-3.79,9.48-1.75,7.15s2.47,1.46,1.16,3.36-1,3.64,0,2.77c1.17-.88,1,3.06,0,4.67Zm27.81-.59c0-4.52.14-15.17-2.33-18.67-1.75-2.78-1.75-5.7.29-2.49s3.06,1.61,1.6-1.6c-1.75-4.09-4.08-8.61-3.49-9.49s1.16-.58,2.62,1.61,1.74-1,.14-3.21-1.45-2.48,1.9-1c6,2.48,8.88,9.63,8.88,33.71Z" transform="translate(56.18 58.85)"/>
          <path class="cls-21" d="M1050.52,359.25c-6.41,0-13.4-1-18.06-2.92-5.53-2.19-5.83-4.09-3.93-6.42,1.45-1.75,4.37-.73,7.28.58s10.63,2,14.71,2,11.94-.87,14.7-2.19c2.92-1.16,5.83-2.18,7.28-.43,1.9,2.33,1.61,4.23-3.93,6.42C1063.91,358.22,1056.92,359.25,1050.52,359.25Z" transform="translate(56.18 58.85)"/>
        </g>
      </g>
    </g>
  </g>
</svg>
