<svg id="svg5238" xmlns="http://www.w3.org/2000/svg" width="370.42mm" height="246.94mm" viewBox="0 0 1050 700">
  <defs>
    <style>
      .cls-1 {
        fill: #fff;
      }

      .cls-2 {
        fill: #0038a8;
      }

      .cls-11, .cls-3, .cls-6, .cls-8 {
        fill: #fcd116;
      }

      .cls-10, .cls-11, .cls-3, .cls-4, .cls-5, .cls-6, .cls-8, .cls-9 {
        stroke: #7b3f00;
      }

      .cls-3, .cls-4, .cls-8, .cls-9 {
        stroke-linecap: square;
      }

      .cls-3, .cls-4, .cls-5 {
        stroke-miterlimit: 77;
      }

      .cls-3, .cls-5 {
        stroke-width: 2.57px;
      }

      .cls-4, .cls-7, .cls-9 {
        fill: #7b3f00;
      }

      .cls-4 {
        stroke-width: 1.17px;
      }

      .cls-10, .cls-5 {
        fill: none;
      }

      .cls-6 {
        stroke-miterlimit: 77;
        stroke-width: 2.57px;
      }

      .cls-10, .cls-8, .cls-9 {
        stroke-miterlimit: 77;
      }

      .cls-10, .cls-8 {
        stroke-width: 2.57px;
      }

      .cls-9 {
        stroke-width: 1.17px;
      }

      .cls-11 {
        stroke-miterlimit: 77;
        stroke-width: 2.57px;
      }
    </style>
  </defs>
  <path id="rect5188" class="cls-1" d="M0,0H1050V700H0Z" transform="translate(0 0)"/>
  <g id="g5198">
    <path id="rect5190" class="cls-2" d="M388.89,77.78H1050v77.78H388.89Z" transform="translate(0 0)"/>
    <path id="rect5192" class="cls-2" d="M388.89,233.33H1050v77.78H388.89Z" transform="translate(0 0)"/>
    <path id="rect5194" class="cls-2" d="M0,388.89H1050v77.78H0Z" transform="translate(0 0)"/>
    <path id="rect5196" class="cls-2" d="M0,544.44H1050v77.78H0Z" transform="translate(0 0)"/>
  </g>
  <g id="g5223">
    <g id="u">
      <g id="t">
        <g id="s">
          <g id="g5206">
            <path id="path5200" class="cls-3" d="M185.64,232.47l12.87,19.22c-52.9,38.28-20.6,60.92-58.09,73.17,23.32-22.75-3.67-24.67,16-72.09" transform="translate(0 0)"/>
            <path id="path5202" class="cls-4" d="M185.64,232.47l-8.47,5.89.37.22c-14.47,23.86-16.93,42.21-19,56.4-1.06,7.09-2,13.18-4.44,18.38a24.21,24.21,0,0,1-7,8.87c26.81-12.76,2.1-34.84,51.42-70.53Z" transform="translate(0 0)"/>
            <path id="path5204" class="cls-5" d="M176.44,237.92c-29.19,48.1-10.05,74.55-36,86.94" transform="translate(0 0)"/>
          </g>
          <path id="path5208" class="cls-6" d="M194.44,194.44H168.78l25.66,141.17,25.67-141.17H194.44V335.61" transform="translate(0 0)"/>
          <path id="path5210" class="cls-7" d="M194.44,194.44h0V335.61l25.67-141.17" transform="translate(0 0)"/>
        </g>
        <g id="use5213">
          <g>
            <g>
              <path class="cls-8" d="M161.33,215.11l-4.49,22.69C92.37,227.47,99.2,266.31,64,248.47c32.58.39,14.85-20.05,62.28-39.69" transform="translate(0 0)"/>
              <path class="cls-9" d="M161.33,215.11l-10.16-1.83.11.42c-27.1,6.64-41.82,17.87-53.34,26.41C92.17,244.38,87.2,248,81.8,250a24.34,24.34,0,0,1-11.19,1.35c28,9.93,26.12-23.16,86.23-13.52Z" transform="translate(0 0)"/>
              <path class="cls-10" d="M151,212.45c-54.65,13.38-59.82,45.62-86.95,36" transform="translate(0 0)"/>
            </g>
            <path class="cls-11" d="M194.44,194.44,176.3,176.3l-81.68,118,118-81.67-18.15-18.15L94.62,294.26" transform="translate(0 0)"/>
            <path class="cls-7" d="M194.44,194.44l18.15,18.15-18.15-18.15L94.62,294.26l118-81.67" transform="translate(0 0)"/>
          </g>
        </g>
      </g>
      <g id="use5216">
        <g>
          <g>
            <g>
              <path class="cls-3" d="M156.42,185.64,137.2,198.51c-38.29-52.9-60.92-20.6-73.18-58.09,22.76,23.32,24.68-3.67,72.1,16" transform="translate(0 0)"/>
              <path class="cls-4" d="M156.42,185.64l-5.89-8.47-.22.37c-23.86-14.47-42.21-16.93-56.4-19-7.09-1.06-13.18-2-18.38-4.44a24.21,24.21,0,0,1-8.87-7c12.75,26.81,34.84,2.1,70.53,51.42Z" transform="translate(0 0)"/>
              <path class="cls-5" d="M151,176.44c-48.1-29.19-74.55-10.05-86.95-36" transform="translate(0 0)"/>
            </g>
            <path class="cls-6" d="M194.44,194.44V168.78L53.28,194.44l141.16,25.67V194.44H53.28" transform="translate(0 0)"/>
            <path class="cls-7" d="M194.44,194.44v0H53.28l141.16,25.67" transform="translate(0 0)"/>
          </g>
          <g>
            <g>
              <path class="cls-8" d="M173.78,161.33l-22.69-4.49C161.42,92.37,122.58,99.2,140.42,64c-.4,32.58,20,14.85,39.69,62.28" transform="translate(0 0)"/>
              <path class="cls-9" d="M173.78,161.33l1.83-10.16-.42.11c-6.64-27.1-17.88-41.82-26.41-53.34-4.27-5.77-7.9-10.74-9.87-16.14a24.21,24.21,0,0,1-1.35-11.19c-9.94,28,23.15,26.12,13.52,86.23Z" transform="translate(0 0)"/>
              <path class="cls-10" d="M176.44,151c-13.38-54.65-45.62-59.82-36-86.95" transform="translate(0 0)"/>
            </g>
            <path class="cls-11" d="M194.44,194.44l18.15-18.14-118-81.68,81.68,118,18.14-18.15L94.62,94.62" transform="translate(0 0)"/>
            <path class="cls-7" d="M194.44,194.44,176.3,212.59l18.14-18.15L94.62,94.62l81.68,118" transform="translate(0 0)"/>
          </g>
        </g>
      </g>
    </g>
    <g id="use5219">
      <g>
        <g>
          <g>
            <g>
              <path class="cls-3" d="M203.25,156.42,190.38,137.2C243.27,98.91,211,76.28,248.47,64c-23.32,22.76,3.67,24.68-16,72.1" transform="translate(0 0)"/>
              <path class="cls-4" d="M203.25,156.42l8.47-5.89-.37-.22c14.47-23.86,16.93-42.21,19-56.4,1.06-7.09,2-13.18,4.43-18.38a24.24,24.24,0,0,1,7-8.87c-26.81,12.75-2.11,34.84-51.42,70.53Z" transform="translate(0 0)"/>
              <path class="cls-5" d="M212.45,151c29.19-48.1,10.05-74.55,36-86.95" transform="translate(0 0)"/>
            </g>
            <path class="cls-6" d="M194.44,194.44h25.67L194.44,53.28,168.78,194.44h25.66V53.28" transform="translate(0 0)"/>
            <path class="cls-7" d="M194.44,194.44h0V53.28L168.78,194.44" transform="translate(0 0)"/>
          </g>
          <g>
            <g>
              <path class="cls-8" d="M227.56,173.78l4.49-22.69c64.47,10.33,57.64-28.51,92.81-10.67-32.57-.4-14.84,20-62.27,39.69" transform="translate(0 0)"/>
              <path class="cls-9" d="M227.56,173.78l10.15,1.83-.1-.42c27.1-6.64,41.81-17.88,53.34-26.41,5.77-4.27,10.74-7.9,16.13-9.87a24.27,24.27,0,0,1,11.2-1.35c-28-9.94-26.13,23.15-86.24,13.52Z" transform="translate(0 0)"/>
              <path class="cls-10" d="M237.92,176.44c54.65-13.38,59.82-45.62,86.94-36" transform="translate(0 0)"/>
            </g>
            <path class="cls-11" d="M194.44,194.44l18.15,18.15,81.67-118-118,81.68,18.14,18.14,99.82-99.82" transform="translate(0 0)"/>
            <path class="cls-7" d="M194.44,194.44,176.3,176.3l18.14,18.14,99.82-99.82-118,81.68" transform="translate(0 0)"/>
          </g>
        </g>
        <g>
          <g>
            <g>
              <path class="cls-3" d="M232.47,203.25l19.22-12.87c38.28,52.89,60.92,20.6,73.17,58.09-22.75-23.32-24.67,3.67-72.09-16" transform="translate(0 0)"/>
              <path class="cls-4" d="M232.47,203.25l5.89,8.47.22-.37c23.86,14.47,42.21,16.93,56.4,19,7.09,1.06,13.18,2,18.38,4.43a24.24,24.24,0,0,1,8.87,7c-12.76-26.81-34.84-2.11-70.53-51.42Z" transform="translate(0 0)"/>
              <path class="cls-5" d="M237.92,212.45c48.1,29.19,74.55,10.05,86.94,36" transform="translate(0 0)"/>
            </g>
            <path class="cls-6" d="M194.44,194.44v25.67l141.17-25.67L194.44,168.78v25.66H335.61" transform="translate(0 0)"/>
            <path class="cls-7" d="M194.44,194.44v0H335.61L194.44,168.78" transform="translate(0 0)"/>
          </g>
          <g>
            <g>
              <path class="cls-8" d="M215.11,227.56l22.69,4.49c-10.33,64.47,28.51,57.64,10.67,92.81.39-32.57-20.05-14.84-39.69-62.27" transform="translate(0 0)"/>
              <path class="cls-9" d="M215.11,227.56l-1.83,10.15.42-.1c6.64,27.1,17.87,41.81,26.41,53.34,4.27,5.77,7.9,10.74,9.87,16.13a24.4,24.4,0,0,1,1.35,11.2c9.93-28-23.16-26.13-13.52-86.24Z" transform="translate(0 0)"/>
              <path class="cls-10" d="M212.45,237.92c13.38,54.65,45.62,59.82,36,86.94" transform="translate(0 0)"/>
            </g>
            <path class="cls-11" d="M194.44,194.44,176.3,212.59l118,81.67-81.67-118-18.15,18.14,99.82,99.82" transform="translate(0 0)"/>
            <path class="cls-7" d="M194.44,194.44l18.15-18.14-18.15,18.14,99.82,99.82-81.67-118" transform="translate(0 0)"/>
          </g>
        </g>
      </g>
    </g>
    <circle id="circle5221" class="cls-6" cx="194.44" cy="194.44" r="47.06"/>
  </g>
  <g id="g5236">
    <g id="right">
      <path id="path5225" class="cls-7" d="M229.09,175.62c-3,3.42-4.7-2.56-15.4-2.56s-12.4,6.41-14.11,5.13,9-9,12.4-9.41,13.26,3,17.11,6.84m-12.4,3.85c3,2.57.43,8.13-2.57,8.13s-8.55-5.13-6-8.56" transform="translate(0 0)"/>
      <path id="path5227" class="cls-7" d="M202.57,183.32c.43-5.13,4.71-6,11.55-6s9.84,5.14,12.41,6.42c-3,0-5.56-4.28-12.41-4.28s-6.84,0-11.55,4.28m1.29.86c1.71-2.57,3.85,2.56,8.55,2.56a15.61,15.61,0,0,0,10.27-3.42c3-2.14-4.28,5.13-9,5.13s-11.12-2.56-9.83-4.27" transform="translate(0 0)"/>
      <path id="path5229" class="cls-7" d="M218.4,187.17c5.56-3,2.14-7.27,0-8.13.86.86,4.28,5.14,0,8.13m-24,25.67c2.57,0,3.43-.86,6.85-.86s11.55,4.71,16.25,3c-9.83,3.85-6,1.28-23.1,1.28h-2.13m26.95,2.57c-1.72-3-1.29-2.14-4.71-6.85,3.42,2.57,4.28,3.85,4.71,6.85m-24.82,4.28c10.7,0,9-2.14,23.1-8.13-10.26,1.28-12.4,4.7-23.1,4.7h-2.13m2.13-12.4c3,0,3.85-2.14,7.28-2.14s8.12,1.28,10.26,3c.43.43-1.28-3.42-4.7-3.85s-2.14-6-6-6.84c0,1.71,1.28,1.28,1.71,3.85,0,2.14-3.85,2.14-4.71,0,.86,3.42-1.71,3.42-3.85,3.42" transform="translate(0 0)"/>
    </g>
    <g id="use5232">
      <g>
        <path class="cls-7" d="M159.79,175.62c3,3.42,4.71-2.56,15.4-2.56s12.41,6.41,14.12,5.13-9-9-12.4-9.41-13.27,3-17.12,6.84m12.41,3.85c-3,2.57-.43,8.13,2.57,8.13s8.55-5.13,6-8.56" transform="translate(0 0)"/>
        <path class="cls-7" d="M186.32,183.32c-.43-5.13-4.71-6-11.55-6s-9.84,5.14-12.41,6.42c3,0,5.56-4.28,12.41-4.28s6.84,0,11.55,4.28m-1.29.86c-1.71-2.57-3.85,2.56-8.55,2.56a15.61,15.61,0,0,1-10.27-3.42c-3-2.14,4.28,5.13,9,5.13s11.13-2.56,9.84-4.27" transform="translate(0 0)"/>
        <path class="cls-7" d="M170.49,187.17c-5.56-3-2.14-7.27,0-8.13-.86.86-4.28,5.14,0,8.13m23.95,25.67c-2.56,0-3.42-.86-6.84-.86s-11.55,4.71-16.26,3c9.84,3.85,6,1.28,23.1,1.28h2.14m-27,2.57c1.71-3,1.29-2.14,4.71-6.85-3.42,2.57-4.28,3.85-4.71,6.85m24.81,4.28c-10.69,0-9-2.14-23.1-8.13,10.27,1.28,12.41,4.7,23.1,4.7h2.14m-2.14-12.4c-3,0-3.85-2.14-7.27-2.14s-8.13,1.28-10.26,3c-.43.43,1.28-3.42,4.7-3.85s2.14-6,6-6.84c0,1.71-1.28,1.28-1.71,3.85,0,2.14,3.85,2.14,4.7,0-.85,3.42,1.72,3.42,3.85,3.42" transform="translate(0 0)"/>
      </g>
    </g>
    <path id="path5234" class="cls-7" d="M194.44,227c-2.13,0-7.7,1.28,0,1.28s2.14-1.28,0-1.28" transform="translate(0 0)"/>
  </g>
</svg>
