<svg id="Layer_1" data-name="Layer 1" xmlns="http://www.w3.org/2000/svg" width="493.89mm" height="246.94mm" viewBox="0 0 1400 700">
  <defs>
    <style>
      .cls-1 {
        fill: #0b2f83;
      }

      .cls-2 {
        fill: #fff;
      }
    </style>
  </defs>
  <rect class="cls-1" width="1400" height="700"/>
  <rect class="cls-2" y="233.33" width="1400" height="233.33"/>
  <g id="star">
    <g id="cone">
      <polygon id="triangle" class="cls-1" points="700 311.11 687.98 348.1 706.47 354.11 700 311.11"/>
      <g id="use12">
        <polygon class="cls-1" points="700 311.11 712.02 348.1 693.52 354.11 700 311.11"/>
      </g>
    </g>
    <g id="use14">
      <g>
        <polygon class="cls-1" points="736.98 337.98 698.1 337.98 698.1 357.43 736.98 337.98"/>
        <polygon class="cls-1" points="736.98 337.98 705.52 360.84 694.09 345.11 736.98 337.98"/>
      </g>
    </g>
    <g id="use16">
      <g>
        <polygon class="cls-1" points="663.01 337.98 694.48 360.84 705.9 345.11 663.01 337.98"/>
        <polygon class="cls-1" points="663.01 337.98 701.9 337.98 701.9 357.43 663.01 337.98"/>
      </g>
    </g>
    <g id="use18">
      <g>
        <polygon class="cls-1" points="722.86 381.46 710.84 344.48 692.35 350.48 722.86 381.46"/>
        <polygon class="cls-1" points="722.86 381.46 691.39 358.6 702.82 342.87 722.86 381.46"/>
      </g>
    </g>
    <g id="use20">
      <g>
        <polygon class="cls-1" points="677.14 381.46 708.6 358.6 697.17 342.87 677.14 381.46"/>
        <polygon class="cls-1" points="677.14 381.46 689.16 344.48 707.65 350.48 677.14 381.46"/>
      </g>
    </g>
  </g>
  <g>
    <g>
      <polygon class="cls-1" points="894.44 248.89 882.43 285.87 900.92 291.88 894.44 248.89"/>
      <polygon class="cls-1" points="894.44 248.89 906.46 285.87 887.97 291.88 894.44 248.89"/>
    </g>
    <g>
      <polygon class="cls-1" points="931.43 275.76 892.54 275.76 892.54 295.2 931.43 275.76"/>
      <polygon class="cls-1" points="931.43 275.76 899.97 298.62 888.54 282.89 931.43 275.76"/>
    </g>
    <g>
      <polygon class="cls-1" points="857.46 275.76 888.92 298.62 900.35 282.89 857.46 275.76"/>
      <polygon class="cls-1" points="857.46 275.76 896.35 275.76 896.35 295.2 857.46 275.76"/>
    </g>
    <g>
      <polygon class="cls-1" points="917.3 319.24 905.28 282.25 886.79 288.26 917.3 319.24"/>
      <polygon class="cls-1" points="917.3 319.24 885.84 296.38 897.27 280.65 917.3 319.24"/>
    </g>
    <g>
      <polygon class="cls-1" points="871.59 319.24 903.05 296.38 891.62 280.65 871.59 319.24"/>
      <polygon class="cls-1" points="871.59 319.24 883.6 282.25 902.1 288.26 871.59 319.24"/>
    </g>
  </g>
  <g>
    <g>
      <polygon class="cls-1" points="894.44 365.56 882.43 402.54 900.92 408.55 894.44 365.56"/>
      <polygon class="cls-1" points="894.44 365.56 906.46 402.54 887.97 408.55 894.44 365.56"/>
    </g>
    <g>
      <polygon class="cls-1" points="931.43 392.43 892.54 392.43 892.54 411.87 931.43 392.43"/>
      <polygon class="cls-1" points="931.43 392.43 899.97 415.29 888.54 399.55 931.43 392.43"/>
    </g>
    <g>
      <polygon class="cls-1" points="857.46 392.43 888.92 415.29 900.35 399.55 857.46 392.43"/>
      <polygon class="cls-1" points="857.46 392.43 896.35 392.43 896.35 411.87 857.46 392.43"/>
    </g>
    <g>
      <polygon class="cls-1" points="917.3 435.9 905.28 398.92 886.79 404.93 917.3 435.9"/>
      <polygon class="cls-1" points="917.3 435.9 885.84 413.05 897.27 397.32 917.3 435.9"/>
    </g>
    <g>
      <polygon class="cls-1" points="871.59 435.9 903.05 413.05 891.62 397.32 871.59 435.9"/>
      <polygon class="cls-1" points="871.59 435.9 883.6 398.92 902.1 404.93 871.59 435.9"/>
    </g>
  </g>
  <g>
    <g>
      <polygon class="cls-1" points="505.56 248.89 493.54 285.87 512.03 291.88 505.56 248.89"/>
      <polygon class="cls-1" points="505.56 248.89 517.57 285.87 499.08 291.88 505.56 248.89"/>
    </g>
    <g>
      <polygon class="cls-1" points="542.54 275.76 503.65 275.76 503.65 295.2 542.54 275.76"/>
      <polygon class="cls-1" points="542.54 275.76 511.08 298.62 499.65 282.89 542.54 275.76"/>
    </g>
    <g>
      <polygon class="cls-1" points="468.57 275.76 500.03 298.62 511.46 282.89 468.57 275.76"/>
      <polygon class="cls-1" points="468.57 275.76 507.46 275.76 507.46 295.2 468.57 275.76"/>
    </g>
    <g>
      <polygon class="cls-1" points="528.41 319.24 516.4 282.25 497.9 288.26 528.41 319.24"/>
      <polygon class="cls-1" points="528.41 319.24 496.95 296.38 508.38 280.65 528.41 319.24"/>
    </g>
    <g>
      <polygon class="cls-1" points="482.7 319.24 514.16 296.38 502.73 280.65 482.7 319.24"/>
      <polygon class="cls-1" points="482.7 319.24 494.71 282.25 513.21 288.26 482.7 319.24"/>
    </g>
  </g>
  <g>
    <g>
      <polygon class="cls-1" points="505.56 365.56 493.54 402.54 512.03 408.55 505.56 365.56"/>
      <polygon class="cls-1" points="505.56 365.56 517.57 402.54 499.08 408.55 505.56 365.56"/>
    </g>
    <g>
      <polygon class="cls-1" points="542.54 392.43 503.65 392.43 503.65 411.87 542.54 392.43"/>
      <polygon class="cls-1" points="542.54 392.43 511.08 415.29 499.65 399.55 542.54 392.43"/>
    </g>
    <g>
      <polygon class="cls-1" points="468.57 392.43 500.03 415.29 511.46 399.55 468.57 392.43"/>
      <polygon class="cls-1" points="468.57 392.43 507.46 392.43 507.46 411.87 468.57 392.43"/>
    </g>
    <g>
      <polygon class="cls-1" points="528.41 435.9 516.4 398.92 497.9 404.93 528.41 435.9"/>
      <polygon class="cls-1" points="528.41 435.9 496.95 413.05 508.38 397.32 528.41 435.9"/>
    </g>
    <g>
      <polygon class="cls-1" points="482.7 435.9 514.16 413.05 502.73 397.32 482.7 435.9"/>
      <polygon class="cls-1" points="482.7 435.9 494.71 398.92 513.21 404.93 482.7 435.9"/>
    </g>
  </g>
</svg>
