<svg id="Layer_1" data-name="Layer 1" xmlns="http://www.w3.org/2000/svg" width="493.89mm" height="246.94mm" viewBox="0 0 1400 700">
  <defs>
    <style>
      .cls-1, .cls-15 {
        fill: #db161b;
      }

      .cls-11, .cls-12, .cls-13, .cls-14, .cls-16, .cls-17, .cls-18, .cls-19, .cls-2, .cls-20, .cls-21, .cls-22, .cls-23, .cls-24, .cls-4, .cls-5, .cls-6, .cls-7, .cls-8, .cls-9 {
        fill: #fff;
      }

      .cls-3 {
        fill: green;
      }

      .cls-10, .cls-11, .cls-12, .cls-13, .cls-14, .cls-15, .cls-16, .cls-17, .cls-18, .cls-19, .cls-20, .cls-21, .cls-22, .cls-23, .cls-24, .cls-4, .cls-5, .cls-6, .cls-7, .cls-8, .cls-9 {
        stroke: #db161b;
      }

      .cls-4 {
        stroke-width: 0.44px;
      }

      .cls-11, .cls-12, .cls-13, .cls-16, .cls-18, .cls-19, .cls-22, .cls-23, .cls-4, .cls-5, .cls-6, .cls-8, .cls-9 {
        fill-rule: evenodd;
      }

      .cls-5 {
        stroke-width: 0.41px;
      }

      .cls-6 {
        stroke-width: 0.26px;
      }

      .cls-15, .cls-7 {
        stroke-width: 1.56px;
      }

      .cls-8 {
        stroke-width: 0.66px;
      }

      .cls-10, .cls-24, .cls-9 {
        stroke-width: 0.38px;
      }

      .cls-10 {
        fill: none;
      }

      .cls-11, .cls-14 {
        stroke-width: 0.52px;
      }

      .cls-12 {
        stroke-width: 0.46px;
      }

      .cls-13 {
        stroke-width: 0.52px;
      }

      .cls-16 {
        stroke-width: 0.47px;
      }

      .cls-17 {
        stroke-width: 5.21px;
      }

      .cls-18 {
        stroke-width: 0.29px;
      }

      .cls-19 {
        stroke-width: 0.5px;
      }

      .cls-20, .cls-23 {
        stroke-width: 0.42px;
      }

      .cls-21 {
        stroke-width: 0.44px;
      }

      .cls-22 {
        stroke-width: 0.42px;
      }
    </style>
  </defs>
  <path class="cls-1" d="M0,0H1400V700H0Z" transform="translate(0 0)"/>
  <path class="cls-2" d="M350,0H1400V233.33H350Z" transform="translate(0 0)"/>
  <path class="cls-3" d="M350,466.67H1400V700H350Z" transform="translate(0 0)"/>
  <g id="a">
    <path class="cls-4" d="M80.58,119.75h37.61a3.64,3.64,0,0,1,3.75,3.51V141a3.64,3.64,0,0,1-3.75,3.52H80.58A3.64,3.64,0,0,1,76.83,141V123.26A3.64,3.64,0,0,1,80.58,119.75Z" transform="translate(0 0)"/>
    <path class="cls-5" d="M81.55,120.77h35.68a3.41,3.41,0,0,1,3.56,3.23v16.24a3.41,3.41,0,0,1-3.56,3.22H81.55A3.4,3.4,0,0,1,78,140.24V124A3.41,3.41,0,0,1,81.55,120.77Z" transform="translate(0 0)"/>
    <path class="cls-6" d="M97.89,127l2.16.07.1,1,1.77.9,1.37-1.12,1.67.89-1.57,1,.39,1.36,2-.07v1.81l-1.57-.09-.79,1.14,1.77,1.28-1.38,1.05L102.31,135l-2.16.45.1,1.66-2.36.15-.3-1.59-2-.82L94.55,136l-1.67-.83,1-1.28-1.18-.83H91l-.1-2.34,1.67.16,1.18-1.36-1.38-1.05,1.77-1.21,1.28,1,2.16-.29Z" transform="translate(0 0)"/>
    <ellipse class="cls-7" cx="98.54" cy="131.85" rx="2.37" ry="2.03"/>
    <path class="cls-5" d="M83.77,121.81,80.3,124.9m5.78-3.09-3.47,3.09m5.79-3.09-3.47,3.09m5.78-3.09-3.47,3.09M93,121.81l-3.47,3.09m5.79-3.09-3.47,3.09m5.78-3.09-3.47,3.09m5.79-3.09-3.48,3.09m5.79-3.09-3.47,3.09m5.78-3.09-3.47,3.09m5.79-3.09-3.47,3.09m5.78-3.09-3.47,3.09M100,121.81l-3.48,3.09m15-3.09-3.47,3.09m5.79-3.09-3.47,3.09m5.78-3.09-3.47,3.09m5.78-3.09L115,124.9m0-3.09,3.47,3.09m-5.78-3.09,3.47,3.09m-5.78-3.09,3.47,3.09m-5.79-3.09,3.47,3.09m-5.78-3.09,3.47,3.09m-5.78-3.09,3.47,3.09m-5.79-3.09,3.47,3.09m-5.78-3.09,3.47,3.09m-5.79-3.09L100,124.9m-5.79-3.09,3.47,3.09m-5.78-3.09,3.47,3.09m-5.79-3.09L93,124.9m5.79-3.09,3.47,3.09m-15-3.09,3.47,3.09m-5.78-3.09,3.47,3.09m-5.79-3.09,3.47,3.09m-5.78-3.09,3.47,3.09m0,14.43-3.47,3.11m5.78-3.11-3.47,3.11m5.79-3.11-3.47,3.11m5.78-3.11-3.47,3.11M93,139.33l-3.47,3.11m5.79-3.11-3.47,3.11m5.78-3.11-3.47,3.11m5.79-3.11-3.48,3.11m5.79-3.11-3.47,3.11m5.78-3.11-3.47,3.11m5.79-3.11-3.47,3.11m5.78-3.11-3.47,3.11M100,139.33l-3.48,3.11m15-3.11-3.47,3.11m5.79-3.11-3.47,3.11m5.78-3.11-3.47,3.11m5.78-3.11L115,142.44m0-3.11,3.47,3.11m-5.78-3.11,3.47,3.11m-5.78-3.11,3.47,3.11m-5.79-3.11,3.47,3.11m-5.78-3.11,3.47,3.11m-5.78-3.11,3.47,3.11m-5.79-3.11,3.47,3.11m-5.78-3.11,3.47,3.11m-5.79-3.11,3.48,3.11m-5.79-3.11,3.47,3.11m-5.78-3.11,3.47,3.11m-5.79-3.11L93,142.44m5.79-3.11,3.47,3.11m-15-3.11,3.47,3.11m-5.78-3.11,3.47,3.11m-5.79-3.11,3.47,3.11m-5.78-3.11,3.47,3.11" transform="translate(0 0)"/>
  </g>
  <g>
    <path class="cls-4" d="M269.42,119.75H231.81a3.64,3.64,0,0,0-3.75,3.51V141a3.64,3.64,0,0,0,3.75,3.52h37.61a3.64,3.64,0,0,0,3.75-3.52V123.26A3.64,3.64,0,0,0,269.42,119.75Z" transform="translate(0 0)"/>
    <path class="cls-5" d="M268.45,120.77H232.77a3.41,3.41,0,0,0-3.56,3.23v16.24a3.41,3.41,0,0,0,3.56,3.22h35.68a3.4,3.4,0,0,0,3.56-3.22V124A3.41,3.41,0,0,0,268.45,120.77Z" transform="translate(0 0)"/>
    <path class="cls-6" d="M252.11,127,250,127l-.1,1-1.77.9-1.37-1.12-1.67.89,1.57,1-.39,1.36-2-.07v1.81l1.57-.09.79,1.14-1.77,1.28,1.38,1.05,1.47-1.13,2.16.45-.1,1.66,2.36.15.3-1.59,2-.82,1.08,1.13,1.67-.83-1-1.28,1.18-.83H259l.1-2.34-1.67.16-1.18-1.36,1.37-1.05-1.76-1.21-1.28,1-2.16-.29Z" transform="translate(0 0)"/>
    <ellipse class="cls-7" cx="251.46" cy="131.85" rx="2.37" ry="2.03"/>
    <path class="cls-5" d="M266.23,121.81l3.47,3.09m-5.78-3.09,3.47,3.09m-5.79-3.09,3.47,3.09m-5.78-3.09,3.47,3.09M257,121.81l3.47,3.09m-5.79-3.09,3.47,3.09m-5.78-3.09,3.47,3.09M250,121.81l3.47,3.09m-5.78-3.09,3.47,3.09m-5.78-3.09,3.47,3.09m-5.79-3.09,3.47,3.09m-5.78-3.09,3.47,3.09m5.78-3.09,3.47,3.09m-15-3.09,3.47,3.09m-5.79-3.09,3.47,3.09m-5.78-3.09,3.47,3.09m-5.79-3.09L235,124.9m0-3.09-3.48,3.09m5.79-3.09-3.47,3.09m5.78-3.09-3.47,3.09m5.79-3.09-3.47,3.09m5.78-3.09-3.47,3.09m5.78-3.09-3.47,3.09m5.79-3.09-3.47,3.09m5.78-3.09-3.47,3.09m5.78-3.09L250,124.9m5.79-3.09-3.47,3.09m5.78-3.09-3.47,3.09m5.79-3.09L257,124.9m-5.79-3.09-3.47,3.09m15-3.09-3.47,3.09m5.78-3.09-3.47,3.09m5.79-3.09-3.47,3.09m5.78-3.09-3.47,3.09m0,14.43,3.47,3.11m-5.78-3.11,3.47,3.11m-5.79-3.11,3.47,3.11m-5.78-3.11,3.47,3.11M257,139.33l3.47,3.11m-5.79-3.11,3.47,3.11m-5.78-3.11,3.47,3.11M250,139.33l3.47,3.11m-5.78-3.11,3.47,3.11m-5.78-3.11,3.47,3.11m-5.79-3.11,3.47,3.11m-5.78-3.11,3.47,3.11m5.78-3.11,3.47,3.11m-15-3.11,3.47,3.11m-5.79-3.11,3.47,3.11m-5.78-3.11,3.47,3.11m-5.79-3.11,3.48,3.11m0-3.11-3.48,3.11m5.79-3.11-3.47,3.11m5.78-3.11-3.47,3.11m5.79-3.11-3.47,3.11m5.78-3.11-3.47,3.11m5.78-3.11-3.47,3.11m5.79-3.11-3.47,3.11m5.78-3.11-3.47,3.11m5.78-3.11L250,142.44m5.79-3.11-3.47,3.11m5.78-3.11-3.47,3.11m5.79-3.11L257,142.44m-5.79-3.11-3.47,3.11m15-3.11-3.47,3.11m5.78-3.11-3.47,3.11m5.79-3.11-3.47,3.11m5.78-3.11-3.47,3.11" transform="translate(0 0)"/>
  </g>
  <g id="b">
    <path class="cls-8" d="M147.59,171.64c-56.13,54.89-80.07,61.83-68.84,66.25s47.39-23.9,85-61.54,60.65-71.11,49.41-75.54S207.29,113.25,147.59,171.64Z" transform="translate(0 0)"/>
    <path class="cls-9" d="M100.34,211.53,120,216.68c-18.5,17.54-39.32,24.76-45.11,21.67S85.3,228,100.34,211.53Z" transform="translate(0 0)"/>
    <path class="cls-9" d="M100.34,213.59l16.2,4.13c-18,16.86-35.86,21.66-40.48,19.6S85.69,229.46,100.34,213.59Z" transform="translate(0 0)"/>
    <path class="cls-10" d="M160.75,169.24c0,.26-.17,1.44-.29,1.91a11.45,11.45,0,0,1-.14,1.66c-.18.44-.15.85-.72,1a2.22,2.22,0,0,1-1.14.9,6.29,6.29,0,0,1-1.45.76,3,3,0,0,1-1.72.13c-.51-.32-.87-.63-1.29-.89-.11-.41-.19-1-.29-1.4A5.87,5.87,0,0,1,154,175a2.85,2.85,0,0,1-.57,1.4m2,1.4-.14-.12c.34.3.2.16-.58-.25a6.54,6.54,0,0,0-1.87-.51h-2a6.66,6.66,0,0,0-1.87.25c-.41.37-1,.56-1.43.89a2.27,2.27,0,0,0-.87,1c-.39.35-.65.88-1,1.15-.15.58-.49.56-.71,1a2.21,2.21,0,0,1,1.57.5c.61.28-.5-.27-.71-.5a3.43,3.43,0,0,0-1.3-.26c-.65-.19-1,.15-1.72.26a1.73,1.73,0,0,1-1,.25m5.9,2.67a6,6,0,0,1-2.16,0,2.13,2.13,0,0,1-1.3-.89c-.17-.34,0,.61,0,1-.06.75-.31.76-.71,1.27a13.17,13.17,0,0,1-1.29.76,4.64,4.64,0,0,1-1.3.64,6.44,6.44,0,0,0-1.29.63c-.48.31-.44.68-.72,1.15a1.5,1.5,0,0,0,.58,1.28,3.34,3.34,0,0,0,.86,1.14c.35.59.75.86-.15,1-.49.19-.76,0-1.29,0m-.29.89c-.35-.07-1.61-.45-2.16-.63h-2a3.91,3.91,0,0,0-1.59.5,4.2,4.2,0,0,1-1.29.9,8.85,8.85,0,0,0-1.15,1.4,4.6,4.6,0,0,0-.29,1.65,12.62,12.62,0,0,0,.29,1.53,3.79,3.79,0,0,0,.87,1.52.3.3,0,0,0,.28.25m.19,1.67c-.05,0-.19.33-.4.61a1.21,1.21,0,0,1-1.23.5c-.63,0-.57-.24-1-.41a11,11,0,0,1-.72-1,7.2,7.2,0,0,0-.51-.9c-.19-.3-.42-.52-.62-.8a1.19,1.19,0,0,0-.5-.2c.58.09.63.29,1,.59.17.29.36.59.51.91a7.7,7.7,0,0,1,.2,1.31,3.2,3.2,0,0,1-.2,1.4,4.77,4.77,0,0,1-.71.71,5.43,5.43,0,0,0-.73.79L126,206a2.65,2.65,0,0,1-1.12.41,2.88,2.88,0,0,1-1.22-.41c-.39-.28-.69-.45-1-.7a3.58,3.58,0,0,1-.71-.8,1.2,1.2,0,0,0-1.22.19,3,3,0,0,0-.72.7c-.17.09-.44.33-.61.41m1.21.24c.16.07.75.47,1,.63a8,8,0,0,1,.51,1.37,7.24,7.24,0,0,1,.12,1.76,7.79,7.79,0,0,1-.63,1.63,9,9,0,0,1-1.14.75,11.13,11.13,0,0,1-1.64.13,2.5,2.5,0,0,1-1.53,0,4.37,4.37,0,0,1-1.39-.5c-.47-.27-.76-.51-1.27-.76-.25-.36-.64-.69-1-1.13a5.53,5.53,0,0,1-.76-1.12c.19.54.47,1,.63,1.51a2.69,2.69,0,0,1,.51,1.37,5.61,5.61,0,0,1,.13,1.75,7,7,0,0,1-.25,1.51v.38m-12,2v.18c0-.49,0-.24.21.73a2.22,2.22,0,0,0,2,.36c.66-.48.64-.85,1.83-1.09a4.41,4.41,0,0,1,2.25.73,3,3,0,0,1,1.63,1.27c.25.62.39,1-.41,1.27a5.35,5.35,0,0,1-2.24.74c-1,0-1.62-.11-2,.36-.65.59-.61,1-.61,2a11.37,11.37,0,0,0-.41,1.65,3.94,3.94,0,0,1-1.84.36,21.86,21.86,0,0,1-.61-2.18,5.05,5.05,0,0,0-.61-2,5.25,5.25,0,0,0-1.43-1.27,2.52,2.52,0,0,0-1.23-.72c.8.36.92.75,1,1.63a3.68,3.68,0,0,1-2,.55,2,2,0,0,1-1.83-.91,9.75,9.75,0,0,1-.61,2c-.42.55-.6,1.11-1,1.81.18.89.57.92.62,2,.26.71.23,1.39.81,1.82.26.28.45.34,1,.36a4.92,4.92,0,0,1-2.65-.55c-.61-.32-1.06-.74-1.63-1.08a8.31,8.31,0,0,0-2.45-1.1c-.94,0-1.62-.09-2,.36a3.26,3.26,0,0,0-1.23,1.82c-.18.95-.26,1.58.21,2.18a1.59,1.59,0,0,1,0,1.82c-.48.6-1.18.67-2.25.91a7.47,7.47,0,0,1-2-.36" transform="translate(0 0)"/>
    <path class="cls-11" d="M211.64,122.1c24.91-43,41.44-79.59,36.89-81.68s-28.43,31.11-53.34,74.1Z" transform="translate(0 0)"/>
    <path class="cls-12" d="M210,121.34c24-41.48,40.58-76.5,36.95-78.17s-26.08,30.63-50.11,72.11" transform="translate(0 0)"/>
    <path class="cls-13" d="M205.87,99.7c-2.93,4.85-6,10.4-9,15.58L210,121.34c3-5.18,6.28-10.65,9-15.58Z" transform="translate(0 0)"/>
    <path class="cls-13" d="M207,101.38c-2.92,4.85-5,8.56-8,13.74l9.86,4.54c3-5.18,5.23-8.81,8-13.74Z" transform="translate(0 0)"/>
    <path class="cls-14" d="M214.14,107l-6.58-3L201.72,114l6.58,3Z" transform="translate(0 0)"/>
    <path class="cls-13" d="M214.14,107l-12.41,7m6.57,3-.74-13.1m36.31-48.29-6.58-3" transform="translate(0 0)"/>
    <ellipse class="cls-15" cx="243.46" cy="49.3" rx="1.91" ry="1.68" transform="translate(-4.82 56.94) rotate(-13.21)"/>
  </g>
  <g>
    <path class="cls-8" d="M202.4,171.64c56.14,54.89,80.08,61.83,68.84,66.25s-47.38-23.9-85-61.54-60.65-71.11-49.41-75.54S142.71,113.25,202.4,171.64Z" transform="translate(0 0)"/>
    <path class="cls-9" d="M249.66,211.53,230,216.68c18.5,17.54,39.32,24.76,45.11,21.67S264.7,228,249.66,211.53Z" transform="translate(0 0)"/>
    <path class="cls-9" d="M249.66,213.59l-16.2,4.13c18,16.86,35.86,21.66,40.48,19.6S264.31,229.46,249.66,213.59Z" transform="translate(0 0)"/>
    <path class="cls-10" d="M189.24,169.24c0,.26.18,1.44.3,1.91a11.45,11.45,0,0,0,.14,1.66c.18.44.15.85.72,1a2.18,2.18,0,0,0,1.14.9,6.29,6.29,0,0,0,1.45.76,3,3,0,0,0,1.71.13c.52-.32.88-.63,1.3-.89.1-.41.19-1,.29-1.4A5.87,5.87,0,0,0,196,175a2.85,2.85,0,0,0,.57,1.4m-2,1.4a.81.81,0,0,0,.14-.12c-.33.3-.19.16.59-.25a6.56,6.56,0,0,1,1.86-.51h2a6.66,6.66,0,0,1,1.87.25c.41.37,1,.56,1.43.89a2.27,2.27,0,0,1,.87,1c.39.35.65.88,1,1.15.15.58.49.56.71,1a2.21,2.21,0,0,0-1.57.5c-.61.28.5-.27.71-.5a3.37,3.37,0,0,1,1.29-.26c.66-.19,1.05.15,1.73.26a1.71,1.71,0,0,0,1,.25m-5.89,2.67a6,6,0,0,0,2.16,0,2.19,2.19,0,0,0,1.3-.89c.17-.34,0,.61,0,1,.05.75.31.76.71,1.27a13.17,13.17,0,0,0,1.29.76,4.51,4.51,0,0,0,1.3.64,6.44,6.44,0,0,1,1.29.63c.48.31.43.68.71,1.15a1.47,1.47,0,0,1-.57,1.28,3.47,3.47,0,0,1-.86,1.14c-.35.59-.75.86.15,1,.49.19.76,0,1.28,0m.3.89c.35-.07,1.61-.45,2.15-.63h2a4,4,0,0,1,1.59.5,4.2,4.2,0,0,0,1.29.9,8.85,8.85,0,0,1,1.15,1.4,4.6,4.6,0,0,1,.29,1.65,14.91,14.91,0,0,1-.29,1.53,3.79,3.79,0,0,1-.87,1.52.31.31,0,0,1-.28.25m-.2,1.67c.06,0,.2.33.41.61a1.21,1.21,0,0,0,1.23.5c.63,0,.57-.24,1-.41a9.4,9.4,0,0,0,.71-1,8.79,8.79,0,0,1,.52-.9c.18-.3.42-.52.62-.8a1.19,1.19,0,0,1,.5-.2c-.59.09-.63.29-1,.59-.17.29-.36.59-.51.91a7.7,7.7,0,0,0-.2,1.31,3.2,3.2,0,0,0,.2,1.4,4.34,4.34,0,0,0,.71.71,4.85,4.85,0,0,1,.72.79c.32.2.55.37.91.61a2.75,2.75,0,0,0,1.12.41,2.88,2.88,0,0,0,1.23-.41c.38-.28.69-.45,1-.7a3.85,3.85,0,0,0,.71-.8,1.2,1.2,0,0,1,1.22.19,2.78,2.78,0,0,1,.71.7c.18.09.45.33.62.41m-1.21.24c-.16.07-.75.47-1,.63a8,8,0,0,0-.5,1.37,7.23,7.23,0,0,0-.13,1.76,8.39,8.39,0,0,0,.63,1.63,10,10,0,0,0,1.15.75,11.13,11.13,0,0,0,1.64.13,2.5,2.5,0,0,0,1.53,0,4.46,4.46,0,0,0,1.39-.5c.47-.27.76-.51,1.27-.76.25-.36.64-.69,1-1.13a5.53,5.53,0,0,0,.76-1.12c-.19.54-.47,1-.64,1.51a2.77,2.77,0,0,0-.5,1.37,5.61,5.61,0,0,0-.13,1.75,7,7,0,0,0,.25,1.51v.38m12,2v.18c0-.49,0-.24-.21.73a2.22,2.22,0,0,1-2,.36c-.66-.48-.64-.85-1.83-1.09a4.41,4.41,0,0,0-2.25.73,3,3,0,0,0-1.63,1.27c-.25.62-.39,1,.41,1.27a5.35,5.35,0,0,0,2.24.74c1,0,1.62-.11,2,.36.65.59.61,1,.61,2a11.37,11.37,0,0,1,.41,1.65,3.94,3.94,0,0,0,1.84.36,21.86,21.86,0,0,0,.61-2.18,5.05,5.05,0,0,1,.61-2,5.25,5.25,0,0,1,1.43-1.27,2.52,2.52,0,0,1,1.23-.72c-.8.36-.92.75-1,1.63a3.68,3.68,0,0,0,2,.55,2,2,0,0,0,1.83-.91,9.75,9.75,0,0,0,.61,2c.42.55.6,1.11,1,1.81-.18.89-.57.92-.62,2-.26.71-.23,1.39-.81,1.82-.26.28-.46.34-1,.36a4.92,4.92,0,0,0,2.65-.55c.6-.32,1.06-.74,1.63-1.08a8.31,8.31,0,0,1,2.45-1.1c.94,0,1.62-.09,2,.36a3.2,3.2,0,0,1,1.22,1.82c.19.95.27,1.58-.2,2.18a1.59,1.59,0,0,0,0,1.82c.48.6,1.18.67,2.25.91a7.54,7.54,0,0,0,2-.36" transform="translate(0 0)"/>
    <path class="cls-11" d="M138.35,122.1c-24.9-43-41.44-79.59-36.89-81.68s28.44,31.11,53.34,74.1Z" transform="translate(0 0)"/>
    <path class="cls-12" d="M140,121.34c-24-41.48-40.58-76.5-36.95-78.17s26.08,30.63,50.11,72.11" transform="translate(0 0)"/>
    <path class="cls-13" d="M144.13,99.7c2.93,4.85,6,10.4,9,15.58L140,121.34c-3-5.18-6.28-10.65-9-15.58Z" transform="translate(0 0)"/>
    <path class="cls-13" d="M143,101.38c2.92,4.85,5,8.56,8,13.74l-9.86,4.54c-3-5.18-5.23-8.81-8-13.74Z" transform="translate(0 0)"/>
    <path class="cls-14" d="M135.86,107l6.58-3L148.28,114l-6.58,3Z" transform="translate(0 0)"/>
    <path class="cls-13" d="M135.86,107l12.41,7m-6.57,3,.74-13.1M106.13,55.68l6.58-3" transform="translate(0 0)"/>
    <ellipse class="cls-15" cx="106.54" cy="49.3" rx="1.68" ry="1.91" transform="translate(34.2 141.76) rotate(-76.79)"/>
  </g>
  <path class="cls-16" d="M157.8,99.12c0,36.1.21,49.7-2.45,51.57s-72.74,0-72.74,10.31,57.84,20.63,75.19,20.63q34.71,0,34.71-30.94V99.12Z" transform="translate(0 0)"/>
  <path class="cls-5" d="M157.8,109.43v5.16a117.39,117.39,0,0,0,34.71,0v-5.16A117.39,117.39,0,0,1,157.8,109.43Zm0-10.31v5.15a117.39,117.39,0,0,0,34.71,0V99.12A117.39,117.39,0,0,1,157.8,99.12Z" transform="translate(0 0)"/>
  <path class="cls-5" d="M157.8,104.27v5.16a117.39,117.39,0,0,0,34.71,0v-5.16A117.39,117.39,0,0,1,157.8,104.27Zm0,10.32v5.16a118.07,118.07,0,0,0,34.71,0v-5.16A117.39,117.39,0,0,1,157.8,114.59Z" transform="translate(0 0)"/>
  <ellipse class="cls-17" cx="159.38" cy="107.21" rx="1.58" ry="1.11"/>
  <ellipse class="cls-17" cx="165.69" cy="107.76" rx="1.58" ry="1.11"/>
  <ellipse class="cls-17" cx="172" cy="108.32" rx="1.58" ry="1.11"/>
  <ellipse class="cls-17" cx="178.31" cy="108.32" rx="1.58" ry="1.11"/>
  <ellipse class="cls-17" cx="184.62" cy="107.76" rx="1.58" ry="1.11"/>
  <ellipse class="cls-17" cx="190.93" cy="107.21" rx="1.58" ry="1.11"/>
  <path class="cls-5" d="M157.8,124.9l34.71,27.85M161.27,124.9l31.24,24.75M165.9,125.93l26.61,20.63m-23.13-20.63,23.13,17.53m-19.67-17.53,19.67,14.44m-16.2-14.44,16.2,11.35m-12.73-11.35,12.73,8.25m-9.26-8.25,9.26,6.19m-5.79-6.19,5.79,4.13m-2.32-4.13,2.32,2.06m-34.71,0,34.71,27.85m0-30.94-38.17,30.94M189,124.9l-33.54,26.81m28.92-25.78L157.8,146.56m23.14-20.63L157.8,143.46m19.67-17.53L157.8,140.37M174,125.93l-16.2,11.35m12.73-11.35-12.73,8.25m9.25-8.25-9.25,6.19m5.79-6.19-5.79,4.13m2.31-4.13L157.8,128m34.71,0-38.17,30.94m38.17-27.84L154.34,162m38.17-27.85-38.17,30.95m38.17-27.85-38.17,30.94m38.17-27.85-38.17,30.94m38.17-27.85L154.34,174.4m38.17-27.84L154.34,177.5m38.17-27.84L154.34,180.6m38.17-27.85-35.86,28.88m35.86-25.79-32.4,25.79M191.34,160,165.9,180.6m24.29-16.51L169.38,180.6m18.5-11.35-10.41,8.25M157.8,131.09l33.54,26.82M157.8,134.18,191.34,161M157.8,137.28l32.39,25.78M157.8,140.37l32.39,25.79m-32.39-22.7L189,168.22m-32.38-22.69,31.23,24.76m-31.23-21.67,28.92,22.69m-30.08-20.62,28.92,22.69m-30.07-20.63,27.75,21.65m-27.75-18.56,26.6,20.63m-26.6-17.54,23.13,18.57" transform="translate(0 0)"/>
  <path class="cls-5" d="M157.8,119.75v5.15a117.39,117.39,0,0,0,34.71,0v-5.15A118.07,118.07,0,0,1,157.8,119.75ZM154.34,162l20.81,16.5m-20.81-13.4,18.5,14.43m-18.5-11.34,16.19,12.38m-16.19-9.29,11.56,9.29m-11.56-6.2,9.25,7.23m-9.25-4.13,5.77,4.13" transform="translate(0 0)"/>
  <ellipse class="cls-17" cx="159.38" cy="122.68" rx="1.58" ry="1.11"/>
  <ellipse class="cls-17" cx="165.69" cy="123.23" rx="1.58" ry="1.11"/>
  <ellipse class="cls-17" cx="172" cy="123.79" rx="1.58" ry="1.11"/>
  <ellipse class="cls-17" cx="178.31" cy="123.79" rx="1.58" ry="1.11"/>
  <ellipse class="cls-17" cx="184.62" cy="123.23" rx="1.58" ry="1.11"/>
  <ellipse class="cls-17" cx="190.93" cy="122.68" rx="1.58" ry="1.11"/>
  <path class="cls-5" d="M108.06,173.38l41.65-21.67m-44,20.63,39.32-20.63m-40.48,18.58,35.86-18.58m-37,16.51,31.23-16.51m-33.55,14.45L130,151.71m-27.76,11.35,19.66-10.31M101.12,161l15-8.25m-15,5.16,10.41-5.16m0,21.65,39.33-20.62M115,175.44l37-19.6m-33.55,20.63,34.7-18.56M121.94,177.5,150.86,162M126.57,177.5,152,164.09m-22,14.44,22-11.35m-18.51,12.38,17.35-9.27m-12.73,9.27L152,172.34m-9.26,8.26,9.26-5.16m-4.62,5.16,5.77-3.1" transform="translate(0 0)"/>
  <path class="cls-5" d="M155.49,150.69h-5.78a83.39,83.39,0,0,0,0,30.94h5.78A83.39,83.39,0,0,1,155.49,150.69ZM87.24,165.13l13.88-10.31m-13.88,3.09,13.88,12.38" transform="translate(0 0)"/>
  <path class="cls-18" d="M108.06,152.75l-6.94,1a37.86,37.86,0,0,0,0,18.56l6.94,2.06a51.31,51.31,0,0,1,0-21.65Z" transform="translate(0 0)"/>
  <path class="cls-19" d="M192.46,101.18V96c-5.19,0-8.66-3-8.66-6.19l-17.33,0c0,3.1-3.46,6.19-8.67,6.19v5.16Z" transform="translate(0 0)"/>
  <path class="cls-20" d="M167.71,83.65h14.85v6.18H167.71Zm1.23-6.19h12.39v6.19H168.94Zm0-6.19h12.39v6.19H168.94Z" transform="translate(0 0)"/>
  <path class="cls-20" d="M170.18,63h9.91v8.25h-9.91Z" transform="translate(0 0)"/>
  <path class="cls-21" d="M169.76,55.8h10.76V63H169.76Z" transform="translate(0 0)"/>
  <ellipse class="cls-7" cx="175.73" cy="49.1" rx="14.34" ry="9.8"/>
  <path class="cls-22" d="M182.91,48.58c0,2.71,3.58,7.22,3.58,7.22a20.45,20.45,0,0,1-10.76,3.09c-3.95,0-8.89-.73-10.75-3.09,0,0,3.58-4.51,3.58-7.22S165,42.39,165,42.39a20.26,20.26,0,0,1,21.51,0S182.91,45.88,182.91,48.58Z" transform="translate(0 0)"/>
  <path class="cls-22" d="M180.52,48.58c0,2.71,3.58,8.25,3.58,8.25-2.59,1.78-4.41,2.06-8.37,2.06s-6.49.3-8.36-2.06c0,0,3.58-5.54,3.58-8.25s-3.58-7.22-3.58-7.22c2.59-1.77,4.41-2.06,8.36-2.06s5.78.29,8.37,2.06C184.1,41.36,180.52,45.88,180.52,48.58Z" transform="translate(0 0)"/>
  <ellipse class="cls-7" cx="161.39" cy="49.61" rx="3.59" ry="3.09"/>
  <ellipse class="cls-7" cx="190.08" cy="49.61" rx="3.59" ry="3.09"/>
  <ellipse class="cls-7" cx="175.73" cy="49.61" rx="3.59" ry="3.09"/>
  <ellipse class="cls-7" cx="175.73" cy="39.3" rx="3.59" ry="3.09"/>
  <ellipse class="cls-7" cx="165.23" cy="98.09" rx="3.71" ry="3.09"/>
  <ellipse class="cls-7" cx="185.04" cy="98.09" rx="3.71" ry="3.09"/>
  <path class="cls-23" d="M166.47,89.83H183.8l-8.66,9.29Z" transform="translate(0 0)"/>
  <ellipse class="cls-7" cx="175.13" cy="97.06" rx="4.95" ry="4.13"/>
  <path class="cls-24" d="M157.51,128h23.72c.79,0,1.44.49,1.44,1.09v4c0,.6-.65,1.09-1.44,1.09H157.51c-.8,0-1.45-.49-1.45-1.09v-4C156.06,128.5,156.71,128,157.51,128Z" transform="translate(0 0)"/>
  <path class="cls-9" d="M190.77,122.85a5.58,5.58,0,0,0-5.78,5.39v4.69a5.8,5.8,0,0,0,11.57,0v-4.69A5.58,5.58,0,0,0,190.77,122.85Zm0,2.06c-1.92,0-3.47,1.93-3.47,4.32V132c0,2.39,1.55,4.3,3.47,4.3s3.47-1.91,3.47-4.3v-2.72C194.24,126.84,192.7,124.91,190.77,124.91Zm-30.07-1c-1.93,0-3.47,1.91-3.47,4.3V133c0,2.39,1.54,4.31,3.47,4.31s3.46-1.92,3.46-4.31v-4.79C164.16,125.8,162.62,123.89,160.7,123.89Zm0-2.07a5.59,5.59,0,0,0-5.79,5.39V134a5.8,5.8,0,0,0,11.57,0v-6.76A5.59,5.59,0,0,0,160.7,121.82Z" transform="translate(0 0)"/>
  <path class="cls-9" d="M151.44,125.94c-1.92,0-3.47,1.93-3.47,4.32v1.12c0,2.39,1.55,4.31,3.47,4.31s3.47-1.92,3.47-4.31v-1.12C154.91,127.87,153.37,125.94,151.44,125.94Zm0-2a5.58,5.58,0,0,0-5.78,5.39v3.09a5.8,5.8,0,0,0,11.57,0v-3.09A5.59,5.59,0,0,0,151.44,123.89Z" transform="translate(0 0)"/>
  <path class="cls-9" d="M137.56,123.09c-3.46,0-6.24,2.15-6.24,4.82v5.35c0,2.67,2.78,4.81,6.24,4.81s6.24-2.14,6.24-4.81v-5.35C143.8,125.24,141,123.09,137.56,123.09Zm0-2.31c-5.76,0-10.41,2.7-10.41,6v7.54c0,3.34,4.65,6,10.41,6s10.41-2.68,10.41-6v-7.54C148,123.48,143.32,120.78,137.56,120.78Zm75.19,3.34c-3.46,0-6.25,2.16-6.25,4.83v5.34c0,2.68,2.79,4.82,6.25,4.82S219,137,219,134.29V129C219,126.28,216.21,124.12,212.75,124.12Zm0-2.3c-5.77,0-10.42,2.69-10.42,6v7.55c0,3.34,4.65,6,10.42,6s10.41-2.68,10.41-6v-7.55c0-3.33-4.64-6-10.41-6Z" transform="translate(0 0)"/>
  <path class="cls-24" d="M193.84,128h12.37c.42,0,.75.49.75,1.09v4c0,.6-.33,1.09-.75,1.09H193.84c-.42,0-.76-.49-.76-1.09v-4C193.08,128.5,193.42,128,193.84,128Z" transform="translate(0 0)"/>
  <path class="cls-24" d="M180.81,127H188c.25,0,.44.65.44,1.46v5.33c0,.81-.19,1.46-.44,1.46h-7.21c-.25,0-.44-.65-.44-1.46v-5.33C180.37,127.63,180.56,127,180.81,127Z" transform="translate(0 0)"/>
  <path class="cls-24" d="M142.63,127h7.22c.24,0,.44.65.44,1.46v5.33c0,.81-.2,1.46-.44,1.46h-7.22c-.24,0-.44-.65-.44-1.46v-5.33C142.19,127.63,142.39,127,142.63,127Z" transform="translate(0 0)"/>
  <path class="cls-24" d="M117.61,125.94h14.44c.49,0,.88.82.88,1.82v6.67c0,1-.39,1.82-.88,1.82H117.61c-.48,0-.87-.81-.87-1.82v-6.67C116.74,126.76,117.13,125.94,117.61,125.94Z" transform="translate(0 0)"/>
  <path class="cls-24" d="M218.19,127h13.4c.46,0,.82.82.82,1.82v6.67c0,1-.36,1.82-.82,1.82h-13.4c-.45,0-.82-.81-.82-1.82V128.8C217.37,127.8,217.74,127,218.19,127Z" transform="translate(0 0)"/>
</svg>
