<?xml version="1.0" encoding="utf-8"?>
<!-- Generator: Adobe Illustrator 23.1.0, SVG Export Plug-In . SVG Version: 6.00 Build 0)  -->
<svg version="1.1" id="Layer_1" xmlns="http://www.w3.org/2000/svg" xmlns:xlink="http://www.w3.org/1999/xlink" x="0px" y="0px"
	 viewBox="0 0 1166.7 700" style="enable-background:new 0 0 1166.7 700;" xml:space="preserve">
<style type="text/css">
	.st0{fill:#FF0000;}
	.st1{fill:#FFFF00;}
</style>
<path class="st0" d="M0,0h1166.7v700H0V0z"/>
<path class="st1" d="M530.7,302.5c-13-8.1-26.9-14.8-41.1-20.3c-12.2,18.2-19.4,39.9-19.4,63.4c0,11.7,1.8,22.9,5.1,33.6
	c5.9-13.6,13.4-26.9,22.5-39.5C507.6,325.8,518.6,313.3,530.7,302.5L530.7,302.5z M495.9,273.8c15.4,5.3,30.2,12.2,44.5,20.3
	c3.2-2.8,6.5-5.1,9.7-7.5c-15-8.3-31-15-47.4-20.2C500.3,268.9,497.9,271.3,495.9,273.8z M509.7,259.8c17.8,4.7,34.8,11.3,50.8,19.8
	c3.8-2.4,7.5-4.5,11.1-6.7c-17-8.7-35-15-53.5-19.6C515.1,255.3,512.3,257.4,509.7,259.8L509.7,259.8z M526.5,248
	c19.6,4,38.5,10.3,56.3,19c18-8.7,36.9-15,56.3-19c-16.4-9.7-35.8-15.2-56.3-15.2S543.1,238.3,526.5,248L526.5,248z M647.6,253.5
	c-18.6,4.3-36.6,10.9-53.5,19.4c3.8,2.2,7.3,4.3,11.1,6.7c16.2-8.5,33.2-15,50.8-19.8C653.4,257.4,650.6,255.3,647.6,253.5
	L647.6,253.5z M663.1,266.7c-16.4,4.9-32.2,11.7-47.4,20c3.4,2.4,6.7,4.9,9.9,7.5c14-8.1,28.8-15,44.3-20.3
	C667.8,271.3,665.6,268.9,663.1,266.7L663.1,266.7z M676.1,282.3c-14.2,5.3-27.9,12.1-40.9,20.2c12.1,10.9,22.9,23.3,32.8,37.1
	c8.9,12.6,16.4,25.9,22.5,39.5c3.2-10.9,4.9-21.9,4.9-33.6C695.5,322,688.3,300.3,676.1,282.3L676.1,282.3z M666.4,359.8
	c-11.9-19.2-26.1-36.2-41.9-50.6c-3.6,2.6-7.3,5.1-10.7,7.7c26.7,24.9,48.2,56.1,61.8,92.5c3.2-4.7,6.1-9.7,8.5-14.6
	C679.3,382.9,673.3,371.2,666.4,359.8z M603.8,308.4c3.6-2.6,7.1-5.1,10.9-7.5c-3.2-2.8-6.5-5.3-9.9-7.9c-3.8,2.4-7.5,4.7-11.3,7.3
	h0.2C597.1,302.9,600.4,305.6,603.8,308.4L603.8,308.4z M582.8,292.6c3.8-2.4,7.7-4.7,11.3-6.9c-3.8-2.4-7.5-4.7-11.3-6.9
	c-3.8,2.2-7.3,4.5-11.1,6.9C575.5,287.9,579.1,290.2,582.8,292.6z M572.2,300.3c-3.8-2.6-7.3-4.9-11.1-7.3
	c-3.4,2.6-6.7,5.1-10.1,7.7c3.8,2.6,7.3,4.9,10.9,7.5C565.3,305.4,568.6,302.9,572.2,300.3L572.2,300.3z M582.8,308.2
	c-3.4,2.6-6.7,5.3-10.3,8.3c3.6,2.8,6.9,5.7,10.3,8.7c3.4-3,6.7-5.9,10.3-8.7C589.8,313.7,586.4,310.8,582.8,308.2z M582.8,345.2
	c-15,16.2-28.3,34.8-38.9,55.5c-7.3,13.8-13,28.3-17.4,42.7c16.6,9.3,35.8,14.8,56.3,14.8c20.5,0,39.7-5.5,56.3-14.8
	c-4.3-14.4-10.1-28.8-17.4-42.7C611.1,379.9,598.1,361.4,582.8,345.2L582.8,345.2z M517.6,420c12.8-32.8,31.8-61.4,55.1-85.2
	c-3.4-3.2-6.7-6.1-10.3-9.3c-27.1,26.3-48.8,58.9-62,96.6c3.8,4.1,7.7,7.9,12.1,11.5C514.1,429.1,515.9,424.6,517.6,420L517.6,420z
	 M592.9,334.9c23.3,23.7,42.3,52.4,55.3,85.2c1.8,4.5,3.4,9.1,4.9,13.6c4.3-3.6,8.5-7.3,12.2-11.5c-13.4-37.7-35.2-70.3-62.2-96.6
	C599.6,328.8,596.3,331.7,592.9,334.9L592.9,334.9z M490,409.4c13.6-36.4,35.2-67.4,62-92.3c-3.6-2.8-7.1-5.3-10.9-7.9
	c-15.8,14.6-30,31.6-41.9,50.8c-6.9,11.3-12.8,22.9-17.8,34.8C483.9,399.9,486.8,404.6,490,409.4L490,409.4z M583.4,223.7
	c69.5,0,126.2,56.7,126.2,126.2S653,476.1,583.4,476.1c-69.5,0-126.2-56.7-126.2-126.2S513.9,223.7,583.4,223.7z M639.1,196
	c-3.6,4.1-7.5,9.5-11.5,18c-1-2.2-1-4.7-0.4-7.5c1-9.1,3.6-14.6,8.3-22.3c1.6-2.8,3.2-5.1,4-8.1c3-8.9,2.4-20.7-4.1-30
	c1,10.5-2.2,19.2-5.7,24.5c-0.6,1-1.2,1.6-2,2.4c-3.8,3.8-7.9,7.5-13.2,16.2c-3,4.7-5.9,10.5-8.7,19.6c-1.2-2-1.6-4.3-1.4-7.1
	c-0.4-9.3,1.2-15,4.5-23.5c1.2-3,2.4-5.5,2.8-8.7c1.4-9.1-1-20.7-8.9-28.8c2.6,10.1,1,19.2-1.8,25.1c-0.6,1-1,1.8-1.6,2.6
	c-3.2,4.3-6.5,8.7-10.7,18c-2,5.3-4.1,11.5-5.3,20.7c-1.6-1.8-2.4-4.1-2.6-6.9c-1.8-9.1-1.2-15,0.8-23.9c0.8-3,1.6-5.7,1.4-8.9
	c0-9.3-4.1-20.3-13.2-27.3c4.1,9.7,4,19,2.2,25.3c-0.4,0.8-0.8,1.8-1.2,2.6c-2.4,4.9-5.1,9.7-7.7,19.6c-1.2,5.5-2.4,12.1-2.2,21.3
	c-1.6-1.6-2.8-3.8-3.6-6.3c-3.2-8.9-3.6-14.6-2.8-23.9c0.2-3.2,0.4-5.9,0-8.9c-1.6-9.3-7.5-19.6-17.4-24.9
	c5.5,8.9,6.7,18.2,5.9,24.5c-0.2,1-0.4,2-0.6,3c-1.6,5.1-3.6,10.3-4.5,20.5c-0.4,5.5-0.6,12.1,1.2,21.3c-2-1.4-3.4-3.4-4.5-5.7
	c-4.5-8.3-5.7-14-6.5-23.1c-0.2-3.2-0.4-5.9-1.6-8.9c-2.8-8.9-10.3-18.2-20.9-21.7c6.9,7.7,9.7,16.6,9.7,23.1c0,1,0,2-0.2,3
	c-0.8,5.3-1.8,10.9-1.2,20.9c0.6,5.5,1.4,12.1,4.5,20.9c-2.2-1-4-2.8-5.5-4.9c-5.7-7.3-7.7-12.8-9.9-21.7c-0.8-3.2-1.4-5.7-3-8.7
	c-4.1-8.1-13-16.2-24.1-18.2c7.9,6.7,12.1,15.2,13.2,21.5c0.2,1,0.2,2,0.2,3c0.2,5.3,0,10.9,2.2,20.9c1.4,5.3,3.2,11.7,7.7,19.8
	c-2.2-0.6-4.1-2-6.1-4c-6.9-6.3-9.9-11.5-13.2-20c-1.2-3-2.4-5.5-4.1-8.1c-5.5-7.3-15.4-13.8-26.9-14c9.1,5.3,14.4,12.8,16.6,19
	c0.2,1,0.4,2,0.6,3c1,5.3,1.6,10.9,5.3,20.3c2.2,5.1,5.1,11.1,10.9,18.4c-2.4-0.2-4.5-1.4-6.7-3c-7.7-5.1-11.5-9.9-16.4-17.6
	c-1.6-2.8-3-5.1-5.3-7.3c-6.5-6.5-17.4-11.5-28.6-9.9c9.7,4,16.2,10.7,19.4,16.4c0.4,0.8,0.8,1.8,1.2,2.8c1.8,4.9,3.2,10.3,8.3,19.2
	c3,4.7,6.7,10.1,13.6,16.6c-2.4,0-4.7-0.8-7.1-2c-8.5-4-12.8-7.9-18.8-14.8c-2.2-2.4-4-4.5-6.5-6.5c-7.5-5.3-19-8.5-29.8-5.1
	c10.3,2.4,17.8,7.9,21.5,13c0.8,0.8,1.2,1.6,1.6,2.6c2.6,4.7,4.9,9.9,11.5,17.6c3.6,4.3,8.1,9.1,15.8,14.4c-2.2,0.4-4.5,0-7.3-1
	c-8.9-2.4-13.8-5.7-20.7-11.7c-2.4-2-4.5-3.8-7.3-5.3c-8.3-4.1-20.2-5.3-30.4-0.4c10.5,0.6,18.8,5.1,23.5,9.5
	c0.6,0.8,1.2,1.4,1.8,2.4c3.4,4.1,6.3,8.9,14,15.6c4.1,3.6,9.5,7.5,18,11.7c-2.2,0.8-4.7,0.8-7.3,0.2c-9.3-1-14.6-3.6-22.5-8.3
	c-2.8-1.6-5.1-3.2-8.1-4c-8.9-3-20.5-2.4-29.8,4.1c10.3-1,19.2,2.2,24.5,5.7c0.8,0.6,1.6,1.2,2.2,2c4,3.8,7.7,7.9,16.2,13.2
	c4.7,3,10.7,6.1,19.6,8.7c-2,1.2-4.3,1.6-7.1,1.6c-9.3,0.2-15-1.4-23.5-4.7c-3-1.2-5.5-2.4-8.7-2.8c-9.1-1.4-20.7,1-28.8,8.9
	c10.1-2.6,19.4-1,25.1,1.8c1,0.6,1.8,1,2.6,1.6c4.3,3.2,8.7,6.5,18.2,10.7c5.1,2,11.3,4.1,20.5,5.3c-1.8,1.6-4.1,2.4-6.7,2.6
	c-9.3,2-15,1.2-24.1-0.8c-3-0.8-5.7-1.4-8.9-1.4c-9.3,0-20.3,4.1-27.1,13.2c9.5-4.1,18.8-4,25.1-2.2c1,0.4,1.8,0.8,2.8,1.2
	c4.7,2.4,9.7,5.1,19.6,7.7c5.3,1.2,11.9,2.4,21.1,2.2c-1.6,1.6-3.8,2.8-6.3,3.6c-8.7,3.2-14.6,3.6-23.7,2.8c-3.2-0.2-5.9-0.4-9.1,0
	c-9.1,1.6-19.4,7.5-24.7,17.6c8.7-5.7,18-6.9,24.5-6.1c1,0.2,1.8,0.4,2.8,0.6c5.1,1.8,10.3,3.6,20.5,4.5c5.5,0.4,12.1,0.6,21.3-1.2
	c-1.4,2-3.4,3.4-5.7,4.5c-8.1,4.5-14,5.7-23.1,6.5c-3.2,0.4-5.9,0.6-8.9,1.6c-8.9,2.8-18,10.3-21.7,20.9c7.9-6.9,16.8-9.5,23.3-9.7
	c1,0,2,0,3,0.2c5.1,0.8,10.7,1.8,20.9,1.2c5.5-0.4,12.1-1.4,20.7-4.5c-0.8,2.2-2.6,4-4.9,5.5c-7.3,5.7-12.8,7.7-21.7,9.9
	c-3,0.8-5.7,1.4-8.5,3c-8.3,4.1-16.2,13-18.2,24.1c6.5-7.9,15-12.1,21.3-13.2c1-0.2,2-0.2,3-0.2c5.3-0.2,11.1,0,20.9-2.2
	c5.3-1.4,11.7-3.2,20-7.7c-0.6,2.2-2.2,4.3-4.1,6.1c-6.3,6.9-11.5,9.9-20,13.2c-2.8,1.4-5.3,2.4-7.9,4.1c-7.5,5.5-14,15.4-14.2,26.9
	c5.3-9.1,13-14.4,19.2-16.6c1-0.2,1.8-0.4,2.8-0.6c5.3-1,10.9-1.6,20.3-5.3c5.1-2.2,11.1-5.1,18.6-10.7c-0.4,2.2-1.4,4.3-3.2,6.5
	c-5.1,7.7-9.7,11.5-17.6,16.4c-2.6,1.6-4.9,3-7.3,5.3c-6.5,6.5-11.3,17.4-9.7,28.6c3.8-9.7,10.5-16.2,16.2-19.4
	c1-0.4,1.8-0.8,2.8-1.2c5.1-1.6,10.5-3.2,19.2-8.3c4.7-3,10.1-6.7,16.6-13.6c0.2,2.4-0.6,4.7-2,7.1c-4,8.5-7.9,12.8-14.8,18.8
	c-2.4,2.2-4.5,4-6.3,6.5c-5.3,7.5-8.5,19-5.1,29.8c2.2-10.3,7.7-17.8,13-21.5c0.8-0.6,1.6-1.2,2.4-1.6c4.7-2.6,9.9-4.9,17.8-11.5
	c4.1-3.6,8.9-8.1,14.2-15.8c0.4,2.2,0,4.7-0.8,7.3c-2.6,8.9-5.7,13.8-11.9,20.7c-2,2.4-3.8,4.5-5.1,7.5c-4.1,8.3-5.5,20-0.6,30.2
	c0.8-10.5,5.1-18.8,9.7-23.3c0.6-0.8,1.4-1.4,2.2-2c4.3-3.4,8.9-6.3,15.6-14c3.6-4.1,7.5-9.5,11.7-18c0.8,2.2,0.8,4.7,0.4,7.3
	c-1.2,9.3-3.6,14.6-8.3,22.5c-1.8,2.8-3.2,5.1-4.1,8.1c-2.8,8.9-2.2,20.7,4.3,30c-1-10.5,2-19.4,5.7-24.7c0.6-0.8,1.2-1.6,1.8-2.2
	c3.8-4,7.9-7.7,13.4-16.2c2.8-4.7,5.9-10.7,8.5-19.6c1.2,2,1.6,4.3,1.6,7.1c0.4,9.3-1.2,15-4.7,23.5c-1.2,3-2.2,5.5-2.8,8.7
	c-1.4,9.1,1,20.7,8.9,28.8c-2.6-10.1-1-19.4,2-25.1c0.4-1,0.8-1.8,1.4-2.6c3.2-4.3,6.7-8.7,10.7-18.2c2.2-5.1,4.3-11.3,5.5-20.5
	c1.4,1.8,2.2,4.1,2.6,6.7c1.8,9.3,1.2,15-1,24.1c-0.8,3-1.4,5.7-1.4,8.9c0,9.3,4.3,20.3,13.4,27.1c-4.1-9.5-4.1-18.8-2.2-25.1
	c0.2-1,0.6-1.8,1-2.8c2.4-4.7,5.1-9.7,7.7-19.6c1.2-5.3,2.4-11.9,2.2-21.1c1.8,1.6,2.8,3.8,3.6,6.3c3.4,8.7,3.6,14.6,3,23.9
	c-0.4,3-0.6,5.7,0,8.9c1.4,9.3,7.3,19.6,17.4,24.9c-5.5-8.9-6.9-18.2-5.9-24.5c0-1,0.2-2,0.6-3c1.6-5.1,3.6-10.3,4.5-20.5
	c0.2-5.5,0.4-12.1-1.2-21.3c1.8,1.4,3.4,3.4,4.5,5.7c4.5,8.1,5.7,14,6.5,23.1c0.2,3.2,0.4,5.9,1.4,8.9c3,8.9,10.3,18,21.1,21.7
	c-6.9-7.9-9.7-16.8-9.9-23.3c0-1,0-2,0.2-3c0.8-5.1,2-10.7,1.2-20.9c-0.4-5.5-1.4-12.1-4.3-20.7c2,1,3.8,2.6,5.3,4.9
	c5.7,7.3,7.9,12.8,10.1,21.7c0.6,3,1.4,5.7,2.8,8.5c4.3,8.3,13,16.2,24.3,18.2c-8.1-6.5-12.2-15-13.4-21.3c-0.2-1-0.2-2-0.2-3
	c0-5.3,0.2-10.9-2-20.9c-1.4-5.3-3.4-11.7-7.9-20c2.4,0.6,4.3,2.2,6.1,4.1c6.9,6.3,9.9,11.5,13.4,20c1.2,2.8,2.2,5.3,4.1,7.9
	c5.5,7.5,15.4,14,26.7,14.2c-8.9-5.3-14.2-13-16.4-19.2c-0.4-1-0.6-1.8-0.8-2.8c-0.8-5.3-1.6-10.9-5.3-20.3
	c-2.2-5.1-4.9-11.1-10.7-18.4c2.4,0.2,4.5,1.2,6.7,3c7.7,5.1,11.5,9.7,16.2,17.6c1.6,2.6,3.2,5.1,5.3,7.3
	c6.5,6.5,17.4,11.3,28.6,9.7c-9.7-3.8-16.2-10.5-19.2-16.2c-0.6-1-1-1.8-1.2-2.8c-1.8-5.1-3.4-10.5-8.5-19.2
	c-3-4.7-6.7-10.1-13.4-16.6c2.2,0,4.5,0.6,7.1,2c8.3,4,12.8,7.9,18.8,14.8c2,2.4,3.8,4.5,6.3,6.3c7.5,5.5,19,8.5,29.8,5.3
	c-10.1-2.4-17.6-7.9-21.5-13.2c-0.6-0.8-1.2-1.6-1.6-2.4c-2.6-4.7-4.7-9.9-11.3-17.8c-3.8-4.1-8.3-8.9-16-14.2
	c2.4-0.4,4.7,0,7.3,0.8c8.9,2.6,13.8,5.9,20.9,11.9c2.4,2,4.5,3.8,7.3,5.1c8.3,4.1,20,5.5,30.2,0.6c-10.5-0.8-18.6-5.1-23.3-9.7
	c-0.8-0.6-1.4-1.4-2-2.2c-3.2-4.3-6.3-8.9-13.8-15.6c-4.3-3.6-9.7-7.5-18-11.7c2.2-0.8,4.5-0.8,7.3-0.4c9.1,1.2,14.6,3.6,22.3,8.5
	c2.8,1.6,5.1,3,8.1,4c8.9,2.8,20.7,2.2,30-4.3c-10.5,1-19.2-2-24.5-5.7c-0.8-0.6-1.6-1.2-2.4-1.8c-3.8-3.8-7.5-7.9-16.2-13.4
	c-4.7-2.8-10.5-5.9-19.6-8.5c2-1.2,4.5-1.6,7.1-1.6c9.5-0.4,15.2,1.2,23.5,4.7c3,1.2,5.5,2.2,8.7,2.8c9.1,1.4,20.7-1,28.8-8.9
	c-10.1,2.6-19.2,1-25.1-2c-0.8-0.4-1.8-0.8-2.6-1.4c-4.3-3.2-8.7-6.5-18-10.7c-5.1-2-11.5-4.1-20.7-5.5c1.8-1.4,4.1-2.2,6.9-2.6
	c9.1-1.8,15-1.2,23.9,1c3,0.8,5.7,1.4,8.9,1.4c9.3,0,20.3-4.3,27.3-13.2c-9.7,4-19,4-25.1,2c-1-0.2-2-0.6-2.8-1
	c-4.9-2.4-9.7-5.1-19.6-7.7c-5.5-1.2-11.9-2.4-21.3-2.2c1.6-1.8,3.8-2.8,6.3-3.6c8.9-3.4,14.8-3.6,23.9-3c3.2,0.4,5.9,0.6,9.1,0
	c9.1-1.4,19.4-7.3,24.7-17.4c-8.9,5.5-18,6.9-24.5,6.1c-1-0.2-2-0.4-3-0.8c-5.1-1.6-10.3-3.6-20.3-4.5c-5.5-0.2-12.2-0.4-21.3,1.4
	c1.2-2,3.2-3.6,5.7-4.7c8.1-4.5,13.8-5.7,22.9-6.5c3.2-0.2,5.9-0.4,8.9-1.4c8.9-3,18.2-10.3,21.7-21.1c-7.7,6.9-16.6,9.7-23.1,9.9
	c-1,0-2,0-3-0.2c-5.3-0.8-10.9-2-20.9-1.2c-5.5,0.4-12.1,1.4-20.9,4.5c1-2.2,2.8-4,4.9-5.5c7.3-5.7,12.8-7.9,21.7-10.1
	c3.2-0.6,5.7-1.4,8.7-2.8c8.1-4.3,16.2-13,18.2-24.3c-6.7,8.1-15,12.2-21.5,13.4c-1,0.2-2,0.2-3,0.2c-5.3,0-10.9-0.2-20.7,2
	c-5.5,1.4-11.9,3.4-20,7.9c0.6-2.4,2-4.3,4-6.1c6.3-6.9,11.5-9.9,20-13.4c3-1.2,5.5-2.2,8.1-4.1c7.3-5.5,13.8-15.4,14-26.7
	c-5.3,8.9-12.8,14.2-19,16.4c-1,0.4-2,0.6-3,0.8c-5.3,1-10.9,1.6-20.3,5.3c-4.9,2.2-10.9,4.9-18.4,10.7c0.2-2.2,1.4-4.5,3-6.7
	c5.1-7.7,9.9-11.5,17.6-16.2c2.8-1.6,5.1-3.2,7.3-5.3c6.5-6.5,11.5-17.4,9.9-28.6c-4,9.7-10.7,16.2-16.4,19.4
	c-0.8,0.4-1.8,0.8-2.6,1c-5.1,1.8-10.5,3.4-19.4,8.5c-4.7,3-10.1,6.7-16.6,13.4c0-2.2,0.8-4.5,2-6.9c4-8.5,7.9-12.8,14.8-19
	c2.4-2,4.5-3.8,6.5-6.3c5.3-7.5,8.5-19,5.1-29.8c-2.4,10.1-7.9,17.6-13,21.5c-0.8,0.6-1.6,1.2-2.6,1.6c-4.7,2.6-9.9,4.7-17.6,11.3
	c-4.3,3.8-9.1,8.3-14.2,16c-0.6-2.2-0.2-4.7,0.8-7.3c2.6-8.9,5.7-13.8,11.7-20.9c2-2.4,4-4.3,5.3-7.3c4.1-8.3,5.3-20,0.4-30.2
	c-0.6,10.5-4.9,18.6-9.5,23.3c-0.8,0.8-1.4,1.4-2.2,2C650.6,185.1,645.9,188.3,639.1,196L639.1,196z"/>
</svg>
