<svg id="Layer_1" data-name="Layer 1" xmlns="http://www.w3.org/2000/svg" width="370.42mm" height="246.94mm" viewBox="0 0 1050 700">
  <defs>
    <style>
      .cls-1 {
        fill: #fff;
      }

      .cls-2 {
        fill: #4e5b31;
      }

      .cls-3 {
        fill: #d57800;
      }
    </style>
  </defs>
  <rect class="cls-1" width="1050" height="700"/>
  <path id="branch" class="cls-2" d="M540.28,591.2a1.21,1.21,0,0,1-.4-.29l-.15-.14a26.39,26.39,0,0,1-1.84-1.91c-1.56-1.77-3.64-4.35-5.47-6.64-3.64-4.53-6.64-8.43-7.21-9.16l-.92-1.21-9.06-2.79L508.61,566l3.54-4,12.14,5.2,9.06,1.86,16.76,12.32h0s-2.43,2-4.82,4.2c-1.07,1-2.41,2.21-3.36,3.25a12.68,12.68,0,0,0-1.08,1.33,3.67,3.67,0,0,0-.3.55l1-.65,1.13.88-2.29.21-.11,0Zm-62.23-18.69a46.25,46.25,0,0,1-23.21-6.5h0a11.89,11.89,0,0,1,3.36-3.61c2.26-1.67,6.35-3.65,12.95-3.68h.13c7.82,0,17.39,2.66,28.44,7.9a42,42,0,0,1-21.66,5.9h0Zm-34.26-7.6a5,5,0,0,1-3.7-1.55,7.52,7.52,0,0,1-1.66-3.36,17.31,17.31,0,0,1-.41-4.92,5,5,0,0,1,1.83-.41H440c2.93,0,5.23,2.54,6.22,5.06a5.09,5.09,0,0,1,.32,3.58,2.81,2.81,0,0,1-2.73,1.6Zm60.29-7c-20.25-2.89-28.83-10.21-32.47-15.84a18.28,18.28,0,0,1-3.07-11.62v0h0a13,13,0,0,1,3.1-.35c5.39,0,19.17,2.71,32.43,27.82v0l0,0Zm-41.51-4c-8.65,0-15.24-1.49-19.58-4.44a12.09,12.09,0,0,1-4.3-4.81,8.14,8.14,0,0,1-.69-2.36,26.35,26.35,0,0,1,9.06-1.93c.45,0,.9,0,1.37,0,6.69,0,16.86,2.18,27.59,12.58h0a105.25,105.25,0,0,1-13.45,1Zm-41.89-1.61c-9.13,0-21.66-2.79-29.48-10.6h0a91.75,91.75,0,0,1,18.11-2.4c.57,0,1.14,0,1.72,0,8.55,0,15.1,1.65,19.46,4.92,1.53,1.15,2.36,2.21,2.54,3.25a2.65,2.65,0,0,1-1.23,2.51c-2,1.48-5.47,2.27-10.43,2.35l-.7,0Zm-29.57-15.17a3.73,3.73,0,0,1-2.89-1.36,6.8,6.8,0,0,1-1.29-2.94,16.64,16.64,0,0,1-.34-4.29v0a3.48,3.48,0,0,1,1.42-.32h0a4.48,4.48,0,0,1,3,1.35,8.09,8.09,0,0,1,2,3.09,4.63,4.63,0,0,1,.21,3.07,2.22,2.22,0,0,1-2.1,1.41Zm68.29-1.54a5,5,0,0,1-3.7-1.55,7.52,7.52,0,0,1-1.66-3.36,17.29,17.29,0,0,1-.41-4.92,5,5,0,0,1,1.83-.41h.13c2.93,0,5.23,2.54,6.22,5a5.09,5.09,0,0,1,.32,3.58,2.81,2.81,0,0,1-2.73,1.6Zm-33.26-1.37c-18.36-.65-27.89-5.87-32.65-10.13a21.32,21.32,0,0,1-4.95-6.36,13.72,13.72,0,0,1-1.06-2.84h0a15.76,15.76,0,0,1,4.53-.68h.43c6.19,0,18.8,2.6,33.66,20h0Zm19.94-1.86c-14.77-2.25-23.14-8.59-27.56-13.51a28,28,0,0,1-6.08-10.2,21.43,21.43,0,0,1,4.55-.55h1.25c7.43.17,20.93,3.53,27.83,24.25h0Zm-75.84-7.09a57.32,57.32,0,0,1-13.95-1.67c-7.74-1.93-11.05-4.88-12.48-7a7.42,7.42,0,0,1-1.2-3,4.81,4.81,0,0,1,0-1.25h0a52.57,52.57,0,0,1,12.21-1.55h.85a51.36,51.36,0,0,1,10,1,31.75,31.75,0,0,1,18.73,11.83h0a57.35,57.35,0,0,1-14.14,1.66Zm34.29-12.46a5,5,0,0,1-3.7-1.52,7.68,7.68,0,0,1-1.66-3.4,17,17,0,0,1-.41-4.88,5,5,0,0,1,1.83-.41h.13c2.92,0,5.23,2.54,6.23,5.06a5,5,0,0,1,.28,3.54,2.75,2.75,0,0,1-2.7,1.61Zm-25.78-3.54a56,56,0,0,1-14-6.09c-6.47-4-14.38-11-15.35-22h0A7.86,7.86,0,0,1,351,481h.39c1.93,0,5.89.55,10.67,4.18,6.09,4.65,11.71,12.74,16.74,24.09Zm16.83-.62a45.18,45.18,0,0,1-11-7.09A70.9,70.9,0,0,1,365,474.34a9.14,9.14,0,0,1,3.37-.84h.9c2.81.08,7.1,1.25,11.84,6.37,5.46,5.89,10.33,15.57,14.48,28.76v0h-.05ZM352,507.38c-5.62,0-7.55-3.05-8.11-4.36a9,9,0,0,1-.65-4.33v0a12.08,12.08,0,0,1,2.8-.36h.19a11.55,11.55,0,0,1,9.43,4.49c.3.44,1.21,2,.46,3.17-.61.94-2,1.42-4.12,1.42ZM339.5,491.67a74.48,74.48,0,0,1-13-1.11c-5-.91-7.85-5.17-9.34-8.58a29.22,29.22,0,0,1-2.1-7.3h0c15.5.45,22.82,5,26.23,8.7a13.67,13.67,0,0,1,3.74,8.07h0s-2.21.21-5.53.21Zm16.14-16.13s-1.79-2.21-3.54-4.93-3.53-5.83-3.53-8.26-.56-7.31-.89-10.06c-.42-3.48-.84-6.46-.87-6.71h0c.4.14,9.7,3.63,9.7,12.36s-.87,17.51-.87,17.6h0Zm-12.06-.82-.29,0c-2.75-.46-7.58-2.56-12.92-5.62-5.92-3.4-10.74-7-13.55-10.26-2.57-2.93-4.09-7.53-4.53-13.68a51,51,0,0,1,.1-8.35,4.82,4.82,0,0,1,1.54-.24c2.06,0,4.25,1,7.22,3a58.21,58.21,0,0,1,7.57,6.44,115,115,0,0,1,8.4,9.3l0,0c.3.56,3,5.33,5,10a32.1,32.1,0,0,1,2.36,6.7,3.71,3.71,0,0,1,0,2.08,1.07,1.07,0,0,1-.45.52,1.31,1.31,0,0,1-.52.11Z" transform="translate(0 0)"/>
  <path class="cls-2" d="M509.71,591.2a1.26,1.26,0,0,0,.41-.29l.14-.14a24,24,0,0,0,1.85-1.91c1.55-1.77,3.64-4.35,5.47-6.64,3.64-4.53,6.64-8.43,7.2-9.16l.93-1.21,9.06-2.79,6.62-3.09-3.54-4-12.14,5.2-9.06,1.86-16.76,12.32h0s2.44,2,4.83,4.2c1.06,1,2.41,2.21,3.36,3.25a14.11,14.11,0,0,1,1.08,1.33,3.67,3.67,0,0,1,.3.55l-1.05-.65-1.12.88,2.29.21.11,0Zm62.23-18.69a46.19,46.19,0,0,0,23.21-6.5h0a11.89,11.89,0,0,0-3.36-3.61c-2.26-1.67-6.35-3.65-12.95-3.68h-.14c-7.81,0-17.38,2.66-28.43,7.9a42,42,0,0,0,21.66,5.9h0Zm34.27-7.6a5,5,0,0,0,3.7-1.55,7.63,7.63,0,0,0,1.66-3.36,17.73,17.73,0,0,0,.41-4.92,5,5,0,0,0-1.83-.41H610c-2.93,0-5.24,2.54-6.23,5.06a5.09,5.09,0,0,0-.32,3.58,2.82,2.82,0,0,0,2.73,1.6Zm-60.29-7c20.25-2.89,28.83-10.21,32.47-15.84a18.36,18.36,0,0,0,3.07-11.62v0h0a13.15,13.15,0,0,0-3.1-.35c-5.39,0-19.17,2.71-32.43,27.82v0l0,0Zm41.51-4c8.65,0,15.23-1.49,19.57-4.44a11.93,11.93,0,0,0,4.3-4.81,8,8,0,0,0,.7-2.36,26.35,26.35,0,0,0-9.06-1.93c-.45,0-.9,0-1.37,0-6.69,0-16.86,2.18-27.59,12.58h0a105.4,105.4,0,0,0,13.46,1Zm41.89-1.61c9.12,0,21.66-2.79,29.47-10.6h0a91.75,91.75,0,0,0-18.11-2.4c-.57,0-1.14,0-1.72,0-8.56,0-15.1,1.65-19.47,4.92-1.52,1.15-2.35,2.21-2.54,3.25a2.68,2.68,0,0,0,1.24,2.51c2,1.48,5.47,2.27,10.43,2.35l.7,0Zm29.56-15.17a3.74,3.74,0,0,0,2.9-1.36,6.8,6.8,0,0,0,1.29-2.94,16.64,16.64,0,0,0,.34-4.29v0a3.48,3.48,0,0,0-1.42-.32h0a4.43,4.43,0,0,0-3,1.35,8.23,8.23,0,0,0-2,3.09,4.76,4.76,0,0,0-.21,3.07,2.24,2.24,0,0,0,2.1,1.41Zm-68.28-1.54a5,5,0,0,0,3.7-1.55,7.63,7.63,0,0,0,1.66-3.36,17.71,17.71,0,0,0,.41-4.92,5,5,0,0,0-1.83-.41h-.13c-2.93,0-5.24,2.54-6.23,5a5.09,5.09,0,0,0-.32,3.58,2.81,2.81,0,0,0,2.73,1.6Zm33.26-1.37c18.36-.65,27.89-5.87,32.65-10.13a21.08,21.08,0,0,0,4.94-6.36,13.09,13.09,0,0,0,1.06-2.84h0a15.76,15.76,0,0,0-4.53-.68h-.43c-6.19,0-18.8,2.6-33.66,20h0Zm-19.94-1.86c14.77-2.25,23.14-8.59,27.56-13.51a28.22,28.22,0,0,0,6.08-10.2,21.43,21.43,0,0,0-4.55-.55h-1.25c-7.43.17-20.93,3.53-27.83,24.25h0Zm75.83-7.09a57.34,57.34,0,0,0,14-1.67c7.73-1.93,11-4.88,12.47-7a7.47,7.47,0,0,0,1.21-3,4.81,4.81,0,0,0,0-1.25h0a52.57,52.57,0,0,0-12.21-1.55h-.85a51.36,51.36,0,0,0-10,1,31.71,31.71,0,0,0-18.73,11.83h0a57.35,57.35,0,0,0,14.14,1.66Zm-34.28-12.46a5,5,0,0,0,3.7-1.52,7.57,7.57,0,0,0,1.65-3.4,16.65,16.65,0,0,0,.41-4.88,4.93,4.93,0,0,0-1.82-.41h-.13c-2.92,0-5.24,2.54-6.23,5.06a5,5,0,0,0-.28,3.54,2.74,2.74,0,0,0,2.69,1.61Zm25.78-3.54a56,56,0,0,0,14-6.09c6.47-4,14.38-11,15.35-22h0a7.86,7.86,0,0,0-1.49-.18h-.39c-1.93,0-5.89.55-10.67,4.18-6.09,4.65-11.72,12.74-16.74,24.09Zm-16.84-.62a44.9,44.9,0,0,0,11.05-7.09A70.79,70.79,0,0,0,685,474.34a9,9,0,0,0-3.36-.84h-.9c-2.81.08-7.1,1.25-11.85,6.37-5.45,5.89-10.32,15.57-14.47,28.76v0h0ZM698,507.38c5.62,0,7.55-3.05,8.11-4.36a9.18,9.18,0,0,0,.65-4.33v0a12.14,12.14,0,0,0-2.8-.36h-.19a11.56,11.56,0,0,0-9.44,4.49c-.29.44-1.21,2-.45,3.17.61.94,2,1.42,4.12,1.42Zm12.46-15.71a74.31,74.31,0,0,0,13-1.11c5-.91,7.85-5.17,9.35-8.58a29.74,29.74,0,0,0,2.1-7.3h0c-15.5.45-22.82,5-26.23,8.7a13.67,13.67,0,0,0-3.74,8.07h0s2.21.21,5.53.21Zm-16.14-16.13s1.79-2.21,3.54-4.93,3.53-5.83,3.53-8.26.56-7.31.89-10.06c.41-3.48.84-6.46.87-6.71h0c-.4.14-9.7,3.63-9.7,12.36s.86,17.51.87,17.6h0Zm12-.82a1.36,1.36,0,0,0,.29,0c2.75-.46,7.58-2.56,12.92-5.62,5.93-3.4,10.75-7,13.56-10.26,2.56-2.93,4.09-7.53,4.53-13.68a52.3,52.3,0,0,0-.1-8.35,4.91,4.91,0,0,0-1.54-.24c-2.06,0-4.25,1-7.22,3a58.21,58.21,0,0,0-7.57,6.44,115,115,0,0,0-8.4,9.3l0,0c-.31.56-3,5.33-5,10a32.1,32.1,0,0,0-2.36,6.7,3.62,3.62,0,0,0,0,2.08,1.07,1.07,0,0,0,.45.52,1.26,1.26,0,0,0,.51.11Z" transform="translate(0 0)"/>
  <path class="cls-3" d="M848.32,121.29l-2.75,1.1-1.08.43-3.32-.19-3.12,1.5-5.53,3.78-.25.18-2.06.53-1.91-.82-1.09.49-.38,2.24-1,1.61-1.27.9-4.42.45-3.72,1.92-4.84-1.3-2.25.88-4.78,4.31-2.45,1.16-.85-.05-3.24-.17-1.37.45-2,2-3.87.3-1.21.84-1.88,3.8-2.05,2.11-1.17.25-1.27-.47-1,.17-.43,2.44-.93,1-2.59.9-2.06,1.72-1.82.93-2.43-.06h-.56l-2.42,1.34-4.56.4-1.89,1.8-.42.39-.88.53-1.45.87-.36.21-1.74-.31-2,.81-.83-1.27-1.41.85-1.87.08-2.33-1-1.78-.79-1.3.19-.45,2.26,0,.24L744.21,165l-2.55,1.54-.34.45-2.9,3.75-5.51,5.79-4.66,2.36-4.83,1.47L720,183.12l-8.86,4.4-14,7-2.86.91-4.11.66-7.32,2.7-6.46,1.95-.36.11-1.28.38L665.68,204l-4.24-.45-2.51.91-6.54-.72-4.55.09-2.88.6L639.55,207l-9.13,4.39-3,2.76-4.7,2.45-5.5,1.74,0-2.31,0-.1-1.9.61-1.38.43-4.46.69H607l-1.54-.45-.24.08-9.12,3-10.17,1-5.09,1.63-3.8-.06-2.38.71-4.66.57-1.67-.44-.37-.11-13.71.6-6.27-.71-3,.68-5-1.69-7.32-.84-1.71-.52-3.84-1.14-1.74,1-1.3.13L520.91,220l-1.12,0-2.57.93-1.48-.38-1.37-1.1-3.22-.48-2-1.65-11,1.46-3-.88-10-2.91-1.59.08-2,1.49-3,1.08-2.58.67-3.51.12-4.08-1.07-4.21-2-1.56-.37-3.47.35-1.06.1-6.38-3.42-8.21-5.14-5.58-2.68-2.09-.34-.28,1,1,3.27.35,3.24-.1,3-.06,1.85.52,1.66,2,2.23.84,2.24.61,6.17v6.25l-1,10-.33,1.52-1.17,5.17-1.07,4.74-4.13,12.64-1.14,1.57-2.79,1.9L423,276.47l-4.66,2.68-1.47.61-3.78.29-2.35-.13-2.93-1.58-2.88-.75-3.77-2.71L397,274l-4.59-2.66-1.2-1.44-2.51-.24-3.47-1h0l-1.27-.39L383,268h0l-4.43-.13-4.13-1.9-2.17-.53-3-.15-3.11,1.45h0l-1.57.74-2-.79-1.44.09-1.63,2.46-.24.39-1.13.59-1.4,0-1.09,0-1.19.52-1.59.69h0l-1.41.61-.69.3h0l-.43.08-.75.13-.93.18-1.65-1-.87-.52-1.47-.29-.79.57-.15,2.68-.72,1.61-2.29,2-2.33,2.05-1.62,2.39L332.53,292,329.85,296l-.84.92L326.2,300l-2.49,1.94L318,306.36l-5.44,2-4.68,1h-2.27l-4.32-.57-3.87-1.19-4.26-2.66-4.67-3.76-6.76-6.67-1-.58-.2-.13-2.13-1.36-1.58,0-.62,1-.33,1.47-.29,1.31-.77,7.43.05.43.41,3.06,5.13,7.17,1.59,3.81.26.44,1.06,1.78.8,1.35.09.14,1.75,5.24-1.23,2.95.62,2-1.56,1.21-.28,1.71,4.6,5.78,1,2.55L288,346.83l-1.79,1.95-.51.54.26,1.49,2.12,1.91,3.6,3.21,1.92,4.76,1.46,1.28,1.7-.36.95.72,1.43,0,1.41,1.41.91.44,1.44.72,1.14,1.48.26,4.56,2.12,5.67,0,3.08,0,.43,1.32,2.28.41,1.79-.7,4.75,1.69,1.52,1.82-.37,1.18.18,1.9,1.58,2.3,3.51,2.25-.33,1.42.68,6.89,6.23,1.56.79.09,0,1.12.57,1.4,1.41,2.16-1.44.24,0,2.36-.21,1,.69,2,1.34,2.6,0,5.66,1.73,2.47.64,5,3.09,2.11,1.3,1.25,1,1.66,1.35,3.32,1.43,2.85.68,1.54.37,1.16.45,0-.08h0l0,.07,6.16,2.36,3.34.78,3.09,1.14,2.25.82,1.65,0,2.33-2,2.26-.13,1.88.47,1.83-.31,2.9-1.78.57-.84,2.05-1,6.94-.86,2,.66,5.21-2.27,3.48,1,3.09-1.09,6.74,1.5,1.79,1.26,2,2.29h.24l2.23,0-.93,1.56,2.94,3.09,2.66,4,.18.53,1.94,5.67,1.43,2,1,2.81.05,1.83-1.57,1.19-.25.68-.09.25.32.76.59-.32,1.12-.62,1.36-.21,2.41.26,1.59.16,2.51-1.24,1.67-.83,2.67,1.15,2.94,0,1.24.55,3.49,1.58,1.79.17.66-.43.42-1-.22-1.17-1.34-1.54-3-3.43L459,434.91l-.92-2.55-.28-3.26-.21-2.2L458,424l.79-1,.59-2.29h0l.15-.61,1.64-2.17,4.34-2.79,4.67-4.18,3.69-2.44,3.8-1.64.1-.46.43.17,9.67-3.29.16,0,4.31-.75,29.07,2.05,1.08-.33h0l1-2.72.52-.5.35-.33,3.2-1.41,1.49-.21,4.15,1,1.7.41,2.72-1.52,1.93,0,4-2.17,2.46.06.94-.38,4.79-3.45,4.62-1.32,1.21-.64.42-.23,4.74-2.5,3-2.31,2.6-1.38,2.85-.74,7.44-.52,1.5-2.5,3.2-.42,1.93-2.18,2.21-.9,1.59-2.29,1.33-1.91,1.85-1.08,6-.37,7.06.87.93-.56,1.59-5.69,1.67-1.07,4.49-6.54,0-2.39v-2l.74-2.84-.5-5.12.59-5.19,2.8-6.59L620,332l4-2.69,2-.87,2.86-.48h0l.42-.07.73-.13,9.84-.13c.13-.1,3.57-.05,3.57-.05l3.28-.05,8.3,1.48.59.1,2.81.91,3.24,2.52,3.42,3.35.65.62,2.21.93.67.3,1.84-.3,2.61-1.36,2-1.66,2.68-1.47.07-.09,1.51-2.27,0-.05h0l.6-.9,5.19-2,6.1-.35.69-.37.38-.21,1.61-1.89h1.51l3.66,1.32,2.57-.51,2,.82,1.59-.19,3-.36,3.21,2.27,1.88.23,6.6,3.87.34.05.18,0,.37.07.79-.24,1.16-.33.16-.05.14.2.75,1.06,1,.15,1.22-1.63-.48-.73-.19-.27L723,330l-2.12-3.62,2-2.17-3.16-3.88-.52-.64-.18-.28-1.1-1.66-5.53-8.44-7.22-5.76h0l-2.52-2h0l-.88-.7L697.9,297l-2.75-3.65-.36-.79-.57-1.23-1.64-3.6-2.88-2.21-2.34-2.55-.11-.15-4.83-6.57-.79-1.1-1.15-.66h-2.41l-.22-.23-.14-.14.08-.09,1.16-1.15,1.29-.32.55-1.27-2.46-7.12v-.25l-.19-2.28,2-10.33.26-1.26,3.41-7,2.12-1.73,2.31-4.54,2-2.91,1.89-1.84.33-.2,3.43-2.07,2.87-.4,2.74-.39,4.78,1.47,4.56-.08.88-.1,2.07-.24,3.39-1.07,1.61-1,.83-1.28,1.73-5.82.56-1.85,1.07-2,6.19-7.13,4.68-4.33,10.52-7.71,5.15-3.08,2.63-1.57,23.48-10.44,6.11-6.18,3.17-3.22,5.63-3.77,6.58-2.7,5.66-4.48,1.24-1.56,1.56-5,1.3-.31L808,153l.33-.72L813,149l.53-.26,18-9,2.61.36,1.4-2.1,5.22-.87,1-.17,1.29-.64,1.09-1.86v-.37l.15-5,1.12-1.35.61-3.28.57-.76.6-.79,1.48-1-.26-.62Z" transform="translate(0 0)"/>
</svg>
