<svg id="Layer_1" data-name="Layer 1" xmlns="http://www.w3.org/2000/svg" width="493.89mm" height="246.94mm" viewBox="0 0 1400 700">
  <defs>
    <style>
      .cls-1 {
        fill: #d3ae3b;
      }

      .cls-2 {
        fill: #c40308;
      }

      .cls-3 {
        fill: #b96b29;
      }

      .cls-4 {
        fill: #d4af3a;
      }

      .cls-5 {
        fill: #1d5e91;
      }

      .cls-6 {
        fill: #6d8c3e;
      }

      .cls-7 {
        fill: #c52126;
      }
    </style>
  </defs>
  <rect class="cls-1" width="1400" height="700"/>
  <rect class="cls-2" x="35" y="35" width="1330" height="630"/>
  <g>
    <path class="cls-3" d="M852.34,344.31c4.1-1.16,18.35-5.32,28.39-13.47s12-14.68,12.82-18.21,1.15-6.3-1.45-4.27-10.39,8.15-15.7,11.1a58.72,58.72,0,0,1-13.1,5.14c-2.89.81-5.2,1.33-2.42.23s11.83-4.28,18.81-11.27,12.5-17.47,12.62-23.91-.34-6-2.41-4.37-9.42,10.69-13.56,14.14a130.41,130.41,0,0,1-14.13,10c-3.34,2-8.05,4.14-1.5-.34s19-15.05,24-28.72,4.14-21.72,4-23.1-1.26-4.14-2.41-1.61-9.43,19.08-16.09,26.2-5.06,5.75-6.55,6.89-4,3.22-.8-.8,9.88-13.33,13.33-22.52a75.38,75.38,0,0,0,4.48-23.67c.11-5.29-2.18-12.64-3.22-14.82s-2.07-3.8-2.42-1.27-5.62,18.84-8.5,26.77S858,269.32,856.81,271s-4.14,5.28-.92-.69,9.42-23.56,10.22-40.22-1.49-25.85-3.79-30.45-4.29-6.22-4.29-6.22.4,11.37-3,27.71-8.35,25-8.35,25-2.09,2.36-.66-1.57a69.73,69.73,0,0,0,3.88-18.28c1-10.32,1.07-22.07-1.94-32.07-3.28-10.89-9-16.45-9-16.45-1.59,15.62-1.27,35.75-7,52.07-1.07-1-2.49-2.73-3.05.87A92.34,92.34,0,0,1,818.75,259c-7.06,12.82-9.92,14.52-9.92,14.52s-1.31-3.14-2.23-4.84-1.43-2.62-2.61-.26a90.39,90.39,0,0,1-13.7,21.31c-8.62,9.93-13.45,14.77-13.19,22.22s4.18,11.25,9.4,14.64,6.14,5.23,5.35,9.28-5.48,5.49-9.52,5.63-9.14-.27-11,.78-2,3.66-3.79,5.49-2.6,2.87-4.3,3.14c-.6.09-1.09.15-1.46.19-.38-19.66,7.24-28.42,7.24-28.42l-21.29-25c-1.1.54-2.2,1.05-3.3,1.52a5.8,5.8,0,0,0-.62-.94c-2.84-3.62-3.76-6.69-3.76-11.33,1,.11,3.18.88,5.11.49s.48-2.32-.1-4.16a37.75,37.75,0,0,1-.77-10.64c.38-2.42.57-3.39.57-3.39s3.1,3.39,5,3.39,1.74-1.94,2-4.07c.44-3.21,1.95-7.26,4.44-9.48a14.45,14.45,0,0,0,7.24,2.32,19,19,0,0,0,13.21-5c4.15-4,4-4.93,4-4.93s7.72,2.71,13.6,3,12.16-.68,15.15-6.87-.87-11.9-1.54-12.87-2.61-1.74-2.61,0,.1,6.38-3.47,8.71-6.37,2.22-9.74,1.16-8.11-2.42-13.51-1.65c-4.85.69-5.5,1.08-5.59,1.15.26-.26,4.66-4.77,9-6.08s7,.48,8.5,2.22,2.7,4.55,3.86.48a15.11,15.11,0,0,0-1.45-11.7c-1.93-3-6.08-4.94-10.42-4.45a23,23,0,0,0-5.88,1.16s-2.22-6.29-7.82-7.45c-6.82-1.42-14.35,1.15-20.26,4.45a20.85,20.85,0,0,1-9.35-.29,30.52,30.52,0,0,1-8-4c.54-1.81,1.59-5.15,1.59-5.15s1.36-.41,2.77-.94,1.12-1,1.3-2.18-2.66-3.23-2.66-3.23-.41-3.54,4.24-6,4.15-2,4.15-2,2.73.5,3.84-.31,1.11-1.31,1.11-1.31a6.08,6.08,0,0,0,2.82-1.92,5.38,5.38,0,0,0,.34-4.48c-.55-1.45-1.24-1.73-.48-2.42a6,6,0,0,0,1.51-3.52c.07-1.18.07-1.45.07-1.45s1.59-.55,1.51-3-1.37-3.39-2.13-3.6a5.4,5.4,0,0,0-1.24-.2,8.33,8.33,0,0,0-1.37-3.38,17.37,17.37,0,0,0-2.07-2.76,2,2,0,0,0,.41-2.28,4.24,4.24,0,0,0-2.68-2.9,4.47,4.47,0,0,0-2.27,0s-3.64-2.21-5.36-3.1-2.14-1.1-2.14-1.1a5.13,5.13,0,0,0-.69-2.35,3.93,3.93,0,0,0-2.82-1.18,4.16,4.16,0,0,0-1.58.42s-6.19-1.59-8.74-2-2.68-.63-2.68-.63-5.51-2.62-7.64-3-2.75-.62-2.75-.62a11.2,11.2,0,0,0,2.36-5.8,8.64,8.64,0,0,0-4.12-7.35c-1.24-.73-1.91-.86-2.31-1.11l0-2.14,4.14.42.34-6.66-4,.51.62-4-8.44-.1.62,4-4.06-.28.35,6.56,4.26-.55-.41,2.48a7.57,7.57,0,0,0-2.89,1.24,7.83,7.83,0,0,0-3.92,7,13.12,13.12,0,0,0,2,5.87s-.55.13-2.68.55-7.64,3-7.64,3-.14.21-2.68.62-8.74,2-8.74,2a4.09,4.09,0,0,0-1.58-.42,4,4,0,0,0-2.82,1.18,5.07,5.07,0,0,0-.69,2.34l-2.13,1.11c-1.73.89-5.37,3.1-5.37,3.1a4.47,4.47,0,0,0-2.27,0,4.22,4.22,0,0,0-2.68,2.9,2,2,0,0,0,.41,2.28,17.37,17.37,0,0,0-2.07,2.76,8.52,8.52,0,0,0-1.37,3.38,5.33,5.33,0,0,0-1.24.2c-.76.21-2.06,1.18-2.13,3.59s1.51,3,1.51,3,0,.27.07,1.45a6.15,6.15,0,0,0,1.51,3.52c.76.69.07,1-.48,2.41a5.4,5.4,0,0,0,.34,4.49,6,6,0,0,0,2.82,1.91s0,.51,1.11,1.32,3.84.3,3.84.3-.5-.4,4.15,2,4.24,6,4.24,6-2.83,2.05-2.65,3.22-.12,1.65,1.29,2.18,2.77.95,2.77.95,1.06,3.33,1.6,5.15a30.68,30.68,0,0,1-8,4,21.06,21.06,0,0,1-9.36.29c-5.9-3.31-13.43-5.87-20.26-4.45-5.59,1.16-7.81,7.44-7.81,7.44a23.57,23.57,0,0,0-5.89-1.15c-4.34-.49-8.49,1.45-10.42,4.44a15.1,15.1,0,0,0-1.44,11.71c1.15,4.07,2.41,1.26,3.86-.48s4-3.58,8.49-2.23,8.7,5.83,9,6.09c-.09-.07-.74-.46-5.59-1.15-5.4-.78-10.13.58-13.5,1.64s-6.18,1.17-9.75-1.16-3.47-7-3.47-8.7-1.93-1-2.6,0-4.54,6.67-1.55,12.87,9.26,7.16,15.15,6.87,13.6-3,13.6-3-.09,1,4.05,4.93a19,19,0,0,0,13.22,5,14.43,14.43,0,0,0,7.23-2.32c2.5,2.22,4,6.27,4.44,9.48.29,2.13.1,4.06,2,4.06s5-3.39,5-3.39.19,1,.57,3.39a37.8,37.8,0,0,1-.77,10.65c-.58,1.84-2,3.77-.09,4.16s4-.38,5.11-.49a16.36,16.36,0,0,1-3.76,11.33,5.8,5.8,0,0,0-.6.89c-1-.47-2.11-.95-3.16-1.47l-21.29,25s7.65,8.8,7.24,28.56v-.13c-.39,0-.9-.1-1.55-.2-1.7-.27-2.48-1.31-4.31-3.14s-2-4.44-3.78-5.49-6.92-.65-11-.78-8.74-1.57-9.53-5.63.13-5.88,5.35-9.28,9.14-7.19,9.4-14.64-4.56-12.29-13.18-22.22A90.57,90.57,0,0,1,596,268.37c-1.17-2.36-1.69-1.44-2.61.26s-2.22,4.84-2.22,4.84-2.87-1.7-9.92-14.52a91.7,91.7,0,0,1-10.18-28.24c-.57-3.6-2-1.83-3.05-.87-5.74-16.32-5.42-36.45-7-52.07,0,0-5.7,5.56-9,16.45-3,10-2.9,21.75-1.94,32.07A69.34,69.34,0,0,0,554,244.57c1.43,3.93-.65,1.57-.65,1.57s-5-8.63-8.36-25-3-27.71-3-27.71-2,1.63-4.29,6.22-4.59,13.79-3.79,30.45,7,34.24,10.23,40.22.23,2.41-.92.69-6.89-10.69-9.77-18.62-8.15-24.24-8.5-26.77-1.38-.92-2.42,1.27-3.33,9.53-3.21,14.82a74.81,74.81,0,0,0,4.48,23.67c3.45,9.19,10.11,18.5,13.33,22.52s.69,1.95-.81.8.12.23-6.55-6.89-14.94-23.67-16.08-26.2-2.3.23-2.42,1.61-1,9.42,4,23.1,17.47,24.24,24,28.72,1.84,2.3-1.49.34a131.43,131.43,0,0,1-14.14-10c-4.13-3.45-11.49-12.53-13.55-14.14s-2.53-2.06-2.42,4.37,5.64,16.91,12.62,23.91,16,10.17,18.82,11.27.46.58-2.43-.23a58.9,58.9,0,0,1-13.1-5.14c-5.31-3-13.1-9.08-15.7-11.1s-2.25.75-1.44,4.27,2.77,10.06,12.81,18.21,24.3,12.31,28.39,13.47,1.22,1.15,1.22,1.15-1.62-.22-9.93-2.08-20.9-8.43-24.3-10.57-3.92-2.95-3.46,1.56,5.25,14.16,12.93,18.67,21.53,6.82,25.1,7,2.66.69,1,.81a75.07,75.07,0,0,1-12.12-.63c-5.34-.62-13.28-3.22-16-4.14-.3-1.15-.58-2.26-.7-2.95-.32-1.72-1.21-1.46-1.78-1.08a17.25,17.25,0,0,1-2.79,1.65c-1.91,1-2-.18-2-.76s-.44-3.06-.51-4.33-.76-1.34-1.64-1-5.15,2.16-6.74,2.87-.12,2,.7,3.49,2.1,3.76,2.1,3.76-4,1.09-5.27,1.41-.89,1.21-.58,2.1,2.29,5.35,2.8,6.62a1.05,1.05,0,0,0,1.65.51l4-2.35,1.39,5.34a14.64,14.64,0,0,0-3.87,1.85c-2,1.41-1.51,3.24.91,3.95s5.26,1.93,8.39,7.6,3.94,15.92,5.86,32,12.23,24.33,13.65,25.35.61,1.82.61,1.82a7.16,7.16,0,0,0-.81,5.18,7.76,7.76,0,0,0,4.75,5.47,1.58,1.58,0,0,1,1,1.93,34.21,34.21,0,0,0,0,9.73c.7,6.28,5.86,13.38,7.28,14.6s1.51,1.82,1.31,2.33-1.11.1-2.83,1.42a17.82,17.82,0,0,0-4.85,5.37c-1.21,2.23-.81,3.55-.41,6.59s4.86,5.78,4.86,5.78-.81.21-1,2.44,1.41,4.76,3.43,6.38,5.87,2.44,5.87,2.44.3,1.92.5,3.24,2.73,2.63,4.35,3.55,4.75.4,6.06-.21,2.22.1,3,1.42.51,6.39.51,8.42-1.22,4.15-.51,5.17,2.63.3,4.55-.81,2.43-.31,4.15.81,4.44,2.13,5.15,2,.41-1.93.41-3.45.27-5,1-5.47c.33-.24,3.31-.46,5.59-1.43,1.06-.44,2.42-.91,2.52-1.92s-1.41-1-4.75-2.74-3.94-2.74-6.06-4.16-1.11-1.92-1.11-2.53,1-1.32,1.41-2.13a6.37,6.37,0,0,0,.2-2.63s1.72-1.73,2.53-2.64a28.59,28.59,0,0,1,2.93-3.24c1.11-.91,2.83-5.27,3.94-6.7s3.64-2.94,5.16-4.86,5.56-5.07,7.88-6.59,8.59-4.47,8.59-4.47-.1,3.76,1.52,5.58,3.74-1.42,10.91-6.49A54.26,54.26,0,0,1,640,474.53s1.51,2.33,3.43,4.76,3.64-.1,12.44-12.26a158.73,158.73,0,0,1,19.62-21.65l1.95.88c-.17.46-.35,1-.54,1.57-.81,2.52-2.11,4.14-3.83,7.66s-4.33,4.33-7.35,9.07-3.42,7.95-3.73,12.79,2.42,5.84,2.42,5.84-4.43,4.33-5.74,7.55-2,9.77-2,9.77-.7.3-2.31,3.63-4.54,3.82-8.76,8.06-9,6-11.19,7.35-1.61,2.62-1,4.33,3.62,3.42,7.15,4.73,4.73.81,7.15.71.51,1.81-.5,2.81-2.32,4.54-2.12,8.47,3.13,3,6.75,2.41a41,41,0,0,0,7.86-2.41l-.4,1.11c-.4,1.1-.61,1.91-.61,5s.51,4.64,1.41,5.44,2.73-.9,4-1.31a44.64,44.64,0,0,1,6.75-2.41,8.37,8.37,0,0,0,4.43-2.12,6.34,6.34,0,0,0-1,3.22,25.78,25.78,0,0,0,.4,7.46,13.65,13.65,0,0,0,4.13,6.24c2.21,2,2.72,1.11,4.33-1.41a41.56,41.56,0,0,1,4.93-5.74s.2.8,2.42,8S700,577.16,700,577.16s7.25-5.94,9.46-13.09,2.42-8,2.42-8a41.35,41.35,0,0,1,4.94,5.74c1.61,2.52,2.11,3.43,4.33,1.41a13.82,13.82,0,0,0,4.13-6.24,26.13,26.13,0,0,0,.4-7.46,6.28,6.28,0,0,0-1-3.22s1.21,1.41,4.44,2.12a45.56,45.56,0,0,1,6.74,2.41c1.31.41,3.13,2.12,4,1.31s1.41-2.32,1.41-5.44-.2-3.93-.6-5l-.4-1.11A41,41,0,0,0,748.1,543c3.63.6,6.55,1.51,6.75-2.41s-1.11-7.45-2.11-8.47-2.92-2.91-.51-2.81,3.63.6,7.15-.71,6.55-3,7.16-4.73,1.21-3-1-4.33-6.95-3.12-11.18-7.35-7.15-4.73-8.76-8.06-2.32-3.63-2.32-3.63-.7-6.55-2-9.77-5.75-7.55-5.75-7.55,2.73-1,2.42-5.84-.7-8.06-3.72-12.79-5.65-5.54-7.36-9.07-3-5.14-3.83-7.66c-.16-.5-.33-1-.51-1.52.86-.38,1.73-.77,2.6-1.14a159.33,159.33,0,0,1,19.66,21.68c8.79,12.17,10.51,14.71,12.43,12.27s3.44-4.76,3.44-4.76a54.1,54.1,0,0,1,12.63,6.89c7.18,5.07,9.3,8.31,10.92,6.49a6.79,6.79,0,0,0,1.15-3.78s4.12,1.2,8.84,2.86c2.83,1,6,2.24,8.32,3.23,6.21,2.63,6.89,4,11.83,7.89s12,3.53,18.66,1.5,24.43-7.88,31.54-11,12.22-5.78,13-7.21a22.66,22.66,0,0,0,1.57-6.84,6.91,6.91,0,0,0-2.1-3.91c-.52-.38-.29-1.5-.15-2.4a7.51,7.51,0,0,0-1.42-4.82c-1.12-1.2-1-1.65-.82-5.11.32-7.33-4.92-16.57-12.33-19.51a2.83,2.83,0,0,0-.8-1.36,8.46,8.46,0,0,0-1.6-.95s.15-4.22.1-5.12.35-.8.86-.55a8.46,8.46,0,0,0,2.49,1.55c1.21.3,2-.55,2.21-1.9a52.92,52.92,0,0,1,1.7-5.42c.45-1.36-.11-1.56-.66-1.71s-2.34-.35-3.2-.55-.85-.25-.65-.7a19.47,19.47,0,0,1,1.6-2.86c1.1-1.71.1-1.76-.95-2.11s-5.8-1.81-7.1-2a1.34,1.34,0,0,0-1.6,1.46c0,.55.05,3,.1,3.86s-.8.65-1.3.4a18.19,18.19,0,0,1-2.55-1.65c-.9-.7-1.55-.05-1.91.95s-1.44,5.12-1.79,6.33-.26,2.15.24,2.35a29.54,29.54,0,0,0,4.26,0c1.4,0,.59.81.59.81s-1.5,2.45-2,3.41-1.35,1.1-2.5,1.1h-3.08s-7.68.29-13.34,4.5-7.25,7.68-8.13,9.71-1.88,1.59-2.75,2.32-3.34,3.34-3.34,4.94.58,2.46-1.88,4.06-4.5,8.56-1.16,12.18,4.64,7.25,5.66,9,0,2.47-.88,2.47-2.68-1.48-4.2-2.61-9.18-7.12-12.47-9.57-.87-2.18-.87-2.18a6.7,6.7,0,0,0,2.76-.73c1.91-.81,2.22-1.83.3-2.44a24.11,24.11,0,0,1-6.67-3.75c-1-1-1.52-2.13.4-3.14s6.17-3.75,2.83-4.66-7.28-1.63-10.51-2.54-3.54-1.82-3.54-1.82l2.13-3.05s1.71-2.43-.31-2.73a45.53,45.53,0,0,1-11.32-2.84c-8.88-3.85-14.45-10.38-16.51-18.34l.15-.2c1.66,3.29,5.52,9.42,11.34,9.61,8,.27,8.88-2.22,7.05-4.83s-3.91-5-4.43-5.76-.66-1.83,1.43.14,6.07,8.62,18.08,7.84,12-3.14,12-3.79c0-2.31-2.45-2.67-3.89-4.12-.75-.75-1.21-1.85,1.21-.92s8.37,2,16.45.28c3.19-.68,11.65-4.37,12.47-8.66a32.33,32.33,0,0,1-9.12-1.91c-3.75-1.62-6-2.95-2-2.14s11.72,2.42,18.53.12c4-1.36,9.12-4.58,9.12-10.47,0,0-7.39-1.56-10.1-2.54a12.46,12.46,0,0,1-3.58-1.73s10.55,3.35,20.14-1.51,10-11.5,10-13.06a5.42,5.42,0,0,0-.23-2s-8.71,2.15-15.23,2.09-8.55-.64-8.55-.64,18.24-.52,27.42-6.13,9.7-16.65,9.7-16.65-10.39,3.7-16.91,4.46a72.63,72.63,0,0,1-12.12.63c-1.62-.11-2.54-.63,1-.81s17.42-2.48,25.1-7,12.47-14.17,12.93-18.67-.05-3.7-3.46-1.56-16,8.73-24.3,10.57-9.92,2.09-9.92,2.09-3.2-.16.91-1.29ZM524,365.27l-3.68,2.1s-1.46-3-1.84-3.88-.19-1.28.31-1.28,2-.44,3.24-.57a4.56,4.56,0,0,0,.47-.08,24.7,24.7,0,0,0,1.63,3.64.34.34,0,0,1-.13.09Zm112,65.56c-2.23,4.16-8.29,8.52-12.74,10.44a44.54,44.54,0,0,1-11.32,2.84c-2,.3-.3,2.74-.3,2.74l2.12,3s-.3.91-3.54,1.83-7.17,1.62-10.51,2.53.91,3.65,2.83,4.67,1.42,2.13.41,3.14a24.63,24.63,0,0,1-6.67,3.75c-1.92.61-1.62,1.63.3,2.43a56.4,56.4,0,0,0,7.18,1.83,33.31,33.31,0,0,1-3.34,2.63c-3.23,2.44-8.9,4.06-12.63,4.26a167.12,167.12,0,0,1-17.16.1c-7.49-.34-8.35-.51-8.35-.51s-.26-2.5-.78-6.21A31.55,31.55,0,0,0,557,459c-1.73-2.42-5.34-7.24-5.34-7.24a18.59,18.59,0,0,1,.34-2.24c.26-1.21.09-2.5-.79-4.78s-5.26-5.61-5.26-5.61-.17-2.45-.17-4.73a80.86,80.86,0,0,0-3-15.42c-1.4-4.2-8.24-15.24-11.39-20.5s-5-13-6-19.09-.57-8-.25-9.62a7.71,7.71,0,0,1,.71-1.89,19.07,19.07,0,0,0,5.07,4.55c9.18,5.61,27.42,6.13,27.42,6.13s-2,.58-8.54.64-15.24-2.09-15.24-2.09a5.42,5.42,0,0,0-.23,2c0,1.56.41,8.21,10,13.06s20.14,1.5,20.14,1.5a12.44,12.44,0,0,1-3.58,1.74c-2.71,1-10.1,2.54-10.1,2.54,0,5.89,5.14,9.11,9.12,10.46,6.81,2.31,14.54.7,18.53-.11s1.73.51-2,2.14a32.33,32.33,0,0,1-9.12,1.91c.82,4.29,9.28,8,12.47,8.66,8.08,1.74,14,.64,16.45-.28s2,.17,1.21.92c-1.44,1.45-3.89,1.81-3.89,4.12,0,.65-.06,3,12,3.79s16-5.88,18.07-7.85,2-.91,1.44-.13-2.61,3.14-4.44,5.75-.91,5.11,7.05,4.84c5.86-.19,9.75-6.41,11.38-9.67l.11.15.32.42a74.43,74.43,0,0,1-3.45,7.75ZM732.81,171c-1.08-2.07-1.66-3-1.66-3a26,26,0,0,1,7.22,5.16,11,11,0,0,1,3,6.15c.4,1.5,0,4.25-.4,6.84s-.4,4.13.12,5a6.68,6.68,0,0,0,1,1.38,39.26,39.26,0,0,0-3.9,1.26c-1.89.75-4.35,1.44-5.72.29s-1.72-1.95-.86-2.7,4.06-1.66,4.47-7.18-2.17-11.14-3.26-13.21Zm-24.67,15c1-2.62,1.45-5.12.66-10.48-.66-4.51-1.53-8.37-1.76-13.23,0,0,3.35.73,8.15,5.12s5.89,8.9,5.89,11.1-1.16,4.87-1.34,7a9.57,9.57,0,0,0,.61,4A20.63,20.63,0,0,0,717,191.4a7,7,0,0,1-5.1,1.65c-2.44-.12-3.9-1.22-5.29-2a7.8,7.8,0,0,0-2.31-.85,9.74,9.74,0,0,0,3.81-4.21Zm-23.41-18.59c4.8-4.39,8.14-5.12,8.14-5.12-.22,4.86-1.09,8.72-1.76,13.23-.79,5.36-.36,7.86.67,10.48a9.73,9.73,0,0,0,3.83,4.21,7.8,7.8,0,0,0-2.31.85c-1.4.73-2.86,1.83-5.29,2a7,7,0,0,1-5.1-1.65,21,21,0,0,0-3.35-1.82,9.57,9.57,0,0,0,.61-4c-.18-2.14-1.34-4.82-1.34-7s1.12-6.71,5.91-11.1Zm-17.3,26.68c-1.38,1.15-3.84.46-5.73-.29a39.26,39.26,0,0,0-3.9-1.26,6.91,6.91,0,0,0,1-1.38c.51-.91.51-2.47.11-5s-.8-5.34-.4-6.84a10.94,10.94,0,0,1,3-6.15,25.88,25.88,0,0,1,7.21-5.16s-.57,1-1.66,3-3.66,7.7-3.26,13.21,3.61,6.43,4.46,7.18.51,1.55-.87,2.7Zm64,46.11c-4.73,2.61-7.43,2-7.24,4s4.44,3.38,4.44,3.38a51.36,51.36,0,0,1-7.72,6.78,39.75,39.75,0,0,1-7.34,3.48s-1.34.2-.57,2.32a7.85,7.85,0,0,0,3.18,4.16,12.09,12.09,0,0,0,1.64.78s-5.88,6.29-8.49,8.32a22.15,22.15,0,0,1-6.17,3.58c-2.12.87-1.06,4.35-.58,5.91s2.31,3.67,3.38,4,1.44,1.06.09,3.2c-1,1.58-4.37,5.81-6,8.14l-.1,0c-1.59-2.32-5-6.6-6-8.19-1.35-2.14-1-2.91.1-3.2s2.89-2.42,3.37-4,1.55-5-.58-5.91a22.15,22.15,0,0,1-6.17-3.58c-2.61-2-8.49-8.32-8.49-8.32a12.09,12.09,0,0,0,1.64-.78,7.91,7.91,0,0,0,3.19-4.16c.77-2.12-.58-2.32-.58-2.32a40.07,40.07,0,0,1-7.34-3.48,51.63,51.63,0,0,1-7.71-6.78s4.24-1.45,4.43-3.38-2.5-1.36-7.23-4-6.27-5.9-6.27-5.9a15.5,15.5,0,0,0,8.2-7.36,10.22,10.22,0,0,0,1.08-5.22l.21.07c8.78,2.85,19,4,28.22,4s19.42-1.15,28.18-4l.21-.07a10.22,10.22,0,0,0,1.08,5.22,15.5,15.5,0,0,0,8.2,7.36s-1.53,3.3-6.25,5.93Z" transform="translate(0 0)"/>
    <g>
      <path class="cls-4" d="M760.09,346.72c0-14.84,6.83-24.23,6.83-24.23l-18.58-21.28c-17.69,6.84-33.91,7.25-48.34-.09-14.43,7.34-30.64,6.93-48.33.09l-18.59,21.28s6.83,9.39,6.83,24.23-2.87,25.85-4.55,33-3.11,20.58.72,30.16,7.9,17.95,24.42,24.9,25.14,10.53,30.88,15.32a57.54,57.54,0,0,1,8.62,8.61,57.54,57.54,0,0,1,8.62-8.61c5.74-4.79,14.36-8.38,30.88-15.32s20.59-15.33,24.42-24.9,2.39-23,.71-30.16-4.52-18.18-4.52-33Z" transform="translate(0 0)"/>
      <path class="cls-3" d="M754.25,352.84c-2.33-14.17,5.84-26.66,5.84-26.66l-15.9-18.6c-12.26,6.89-29.31,6-44.13-.86-14.82,6.82-31.88,7.75-44.13.86L640,326.18s8.17,12.49,5.84,26.66-7.36,36.61-6.1,45.76,7.72,19.74,14.36,25.31,16.5,10.23,23.5,12.74,13.82,7.35,17,9.87a62.23,62.23,0,0,1,5.38,4.67,63.46,63.46,0,0,1,5.39-4.67c3.23-2.52,10-7.36,17-9.87s16.88-7.18,23.51-12.74,13.1-16.16,14.36-25.31-3.78-31.61-6.13-45.78Z" transform="translate(0 0)"/>
      <path class="cls-5" d="M752.72,354.53a47.35,47.35,0,0,1,4.6-27.64L743,310.9c-12.13,6.23-26.88,4.62-43-.95-16.06,5.57-30.81,7.18-42.94.95l-14.36,16a47.4,47.4,0,0,1,4.61,27.64c-2.31,15.31-5.83,32.64-5.15,42.81,0,.69.12,1.41.22,2.12h13.07a6.47,6.47,0,0,1,2.22-1.5,6.71,6.71,0,0,0,1.87-1s.27-2.64,1.87-3.19a7.46,7.46,0,0,1,2.91-.56,2.37,2.37,0,0,0,1.87-.9,14.13,14.13,0,0,0,3.73-5.28c.91-2.64,1.46-3.68,1.46-5.42a26.85,26.85,0,0,1,.62-4.51s-.34-.84-1.66-.35-1.52-.83-1.66-2.15-.07-4,.69-5.28,1-1.67,1-1.67l-.55-2.08s-8.31,1.66-9.77-4.8-1.73-9.59-1.94-10.28-.41-1-1.52-1-3.46-.69-5.13-4-1.8-4.72-1.31-6,1.38-.84,1.66-.42,2.49,3.61,3.39,2.71.42-.91-.83-3.41a6,6,0,0,1-.69-4.58,21.79,21.79,0,0,0-.41-3.62,1.05,1.05,0,0,1,1.52-.9,5.56,5.56,0,0,1,1.8,1.32c.34.42.48,1.05,1.18.63s.27-2.71.27-3.47.9-1.32,2-.7a3.27,3.27,0,0,1,1.66,2.64c0,.83.07,1.6.49,1.6s.9-1.25,1-2.09.55-2.08,1.32-1a5.57,5.57,0,0,1,.76,4.17c-.28,1.59.27.76-.28,3.54a23.8,23.8,0,0,0-.76,6.12,13.88,13.88,0,0,0,1.18,5.83c1,2.57,1.86,5.56,3.8,5.63s2.5.07,2.5.07,2.14-4.17,3.81-5.15,4-1.11,5.68-1.32,2.35-.69,2.35-1.11S683,345.3,681,345s-3.67-.77-3.74-2.3.35-2.84-1-2.91-4.57-1.12-5.74-3.27-.91-2.64-.77-3.82,1.67-3.54,2.64-1.32,1.59,2.5,2.42,3,1.94.63,1.39-.91a7.69,7.69,0,0,1-.77-3.6,2.06,2.06,0,0,1,1.81-1.81c.9-.21,3.6-1.05,5-1.32s1.46-.41,1.46-.41.13-1,1.93-1.53a13,13,0,0,1,4.3-.63,7.26,7.26,0,0,0,4-.63,8.41,8.41,0,0,1,4.23-.9,5.43,5.43,0,0,1,2.77,1c.83.56.55,1.33.55,2.09s.14,1.18,1.32,1.18a8.91,8.91,0,0,1,3.33.42c1.11.41,2.63,1,1.66,2.22s-1,2.5-1.66,2.43-.56.63-.84,1-.48.77.22,1.19.76.83,1.73,1.73,2.42,1.88,1,3.34a16.84,16.84,0,0,1-4,2.64s-1.46.69.21,1.67,2.42,3,3,3.33,1.25.9,1.67,1.11.34,1.6.34,1.6a11.86,11.86,0,0,1-2.14,1.11,11.21,11.21,0,0,1-3.74,1c-1.18,0-1.8,0-1.32,1.11s1.32,2.3,1.52,2.92.49,1.74.49,1.74A20.83,20.83,0,0,0,708,358a41.91,41.91,0,0,0,6.3-.34,29.52,29.52,0,0,1,8.59-.14c3.68.41,4.22.28,5.2.62A20.63,20.63,0,0,1,730,359a52.93,52.93,0,0,0,8-.7c2.84-.62,3.53-2.43,3.12-3.4s-.35-2.43-5.34-3.13-7-.42-10.94-1.18-10.11-2.78-11.22-7.71,2.91-7,4.92-8,6.37-2.5,8.38-3.33a19.2,19.2,0,0,1,9.56-1.11c3.87.55,6.09,1.59,7.62.69s2.77-.21,2.49,1.18-1.8,4.24-6.17,5.56-9.62,1.46-12.46.7-5-1.88-6.72-1.26-3.67,2.78-1.8,5.35,11.43,3.34,14,3.61,12-.41,14.75,4.31.55,10-2.63,11.19a41.72,41.72,0,0,1-8.31,2.29l-2.42.34A14.42,14.42,0,0,1,736,368c0,1-.13,3,1,3.75a7.44,7.44,0,0,0,4.85,1.11c2-.21,4.43,1.18,4.57,3s.69,4.3.89,7.92a57.56,57.56,0,0,1,0,6.6,12.11,12.11,0,0,1-.62,2.71c-.48,1.32-3,6.43-3,6.43h13.95c.1-.71.17-1.42.22-2.12.57-10.31-3-27.63-5.25-42.94Z" transform="translate(0 0)"/>
      <path class="cls-6" d="M644,406.26a40,40,0,0,0,17,20.89c11.92,7.18,17.07,6.23,28.32,13.55s10.56,8.53,10.7,8.53-.54-1.22,10.71-8.53,16.39-6.37,28.31-13.55A39.94,39.94,0,0,0,756,406.26H644Z" transform="translate(0 0)"/>
      <path class="cls-4" d="M653.8,345.91a4.26,4.26,0,0,0,4.18,1.55c1.95-.21,2.42,1.22,2.76,2.76s.34,5.19,1.75,8.56,6.13,3.57,6.13,3.57a20.89,20.89,0,0,1,1.42-5.59c.13-.32.74-1.82-.95-1.82s-1.61-.67-2.62-2.29A31.61,31.61,0,0,1,663,344c-.47-2.77.41-6.88.88-8.36s.54-2.49,0-2.76a3.09,3.09,0,0,0-1.62,0s.41,1.28-.07,1.48-.87-.67-1.21-1.61-.74-.81-1.41-.75-.68.68-.21,1.35a2.88,2.88,0,0,1,.21,1.88,20.48,20.48,0,0,0-2.09-1.34,1.87,1.87,0,0,0-2.16,1.08,5.57,5.57,0,0,0,1.82,4c1.28,1.08,1.28,3.3.87,4.32s-2.29.87-2.69.4a1.15,1.15,0,0,0-1.75,0c-.55.61-1.1,1,.19,2.3Z" transform="translate(0 0)"/>
      <path class="cls-4" d="M653.06,342.34a9.06,9.06,0,0,1-1-.94c-.26-.34-.8-1.08-.8-1.08a3.36,3.36,0,0,0-.14,1.15,3,3,0,0,0,.87,1.68l1.08-.81Z" transform="translate(0 0)"/>
      <path class="cls-4" d="M655.88,333c.61-.27,1.08-.41.61-1.08s-.88-1.41-1.35-1.55a2.24,2.24,0,0,0-.88-.06,11.21,11.21,0,0,1,.67,1.95c.13.75.35,1,.94.75Z" transform="translate(0 0)"/>
      <path class="cls-4" d="M659.4,330.14c-.07.6.07.87.6.6a1.18,1.18,0,0,0,.48-1.55,2.89,2.89,0,0,0-.88-.94l-.4-.27c-.05,0,.24,1.55.17,2.14Z" transform="translate(0 0)"/>
      <path class="cls-4" d="M664.43,331a3.71,3.71,0,0,0-.2-1.42,2.64,2.64,0,0,1-.34,1.29c-.34.47-.27.33.07.74s.39.06.46-.62Z" transform="translate(0 0)"/>
      <path class="cls-4" d="M672.35,365.2c1,2.3,3.51-1.3,5.8-4.21s2.21-.68,1.9,1.69a11.12,11.12,0,0,0,1.53,6.5c.91,1.6,1.68.69,2-.46s.69-3.52,1.45-4.66,1.53-.16,1.61.84a11,11,0,0,0,2.43,4.51c1.15,1.3,1.68-.46,2.06-2.06s.84-4.06,1.15-5.06,1.37-.15,1.37-.15.76.77,2.29,2.22,1.67-.84,1.83-2-.23-3.68.23-4.06,1.75.53,3.73,1.53,1.91-.92,1.68-2a10.77,10.77,0,0,0-3-4.89c-1.6-1.38-1.83-3-1.3-3.68s2.44-.08,3.66-.23,1.83-.3,2.75-.45a1.11,1.11,0,0,0,.91-1.08,10.87,10.87,0,0,0-2-2.29c-1.3-1.15-2-2.06-3.66-2.45a11.56,11.56,0,0,0-3.81,0l-.23-.46c-.23-.45-.69-.45-1,0a12,12,0,0,1-1.68,1.61c-.61.53-1,.84-1.37.61s.3-.77.3-.77a6.11,6.11,0,0,0,1.6-2.14c.77-1.53,1-3,.38-3.67s-2.28,0-3.2,0-1.45.15-1.52-.31.91-.23,2.06-.38,1.83-1.53,2.21-2.68.68-1,1.37-.31,1.3.54,1.45.08a15.72,15.72,0,0,1,1.52-2.76c.77-1.14,1.22-2.75.38-3.82s-2.89-.92-3.73-.23a4.1,4.1,0,0,0-1.6,3.06c-.23,1.68-.69.76-.69.23s-.68-1.38-.38-2.07a2.06,2.06,0,0,0,0-1.45,2.1,2.1,0,0,0-1.75-1.76,12.54,12.54,0,0,0-5,.46,1.5,1.5,0,0,0-1.3,1.76s-1.22.07-2.51.23a33.71,33.71,0,0,0-4.05,1c-1.21.31-1.67.46-1.67,1.07a9.45,9.45,0,0,0,.23,1.61,3.89,3.89,0,0,1,1.52.3c.53.31.23.85-.38,1.08s-.84.3-.84,1.07.31.92.91.92a8.08,8.08,0,0,1,3.44.68,2.73,2.73,0,0,1,1.75,2.83c-.15.77-2.29,1.76-3.36,1.76s-1.37.23-1.37.92,1.3.61,1.3.61,1.29.08,3.81.38a5.65,5.65,0,0,1,4,1.84c1.14,1,.3,1.23-.23,1.53a14.85,14.85,0,0,1-2.21,1.3c-.84.31-1.38.92-2.14,1.07a21,21,0,0,0-6.18,1.46c-3.51,1.37-4.73,6-4.73,6a20,20,0,0,0,2.06-1c1.6-.84,3.59-1.76,5.42-2.91s1.82.54.91,2.14.84,1.3,1.37.85a14.72,14.72,0,0,1,3-1.84c1.75-.92,1.14.53,1.14.53a10.31,10.31,0,0,0-.68,3.6c-.16,2.53,2.51.15,3.73-1.45s1.76,0,.84,1.84-2.67,3.28-3.66,3.28a2.12,2.12,0,0,1-1.83-1.68c-.08-.61.31-2.45-.3-2.91s-2.37.08-3.67.84-1.6.16-1.9-.53.45-.92.15-1.38-1,0-1.53.23-1.75.92-4.11,2.14-2.22,1.91-2.22,3.67.44,2.17,1.43,4.47Z" transform="translate(0 0)"/>
      <path class="cls-4" d="M695.23,326.9a10.71,10.71,0,0,1,1.4-.68s1.12-.27,2.16-.4.85-.73.63-1.22-.63-.68-2-.68a6.81,6.81,0,0,0-3,1,14.3,14.3,0,0,1-1.67.55s.18.22.68.94a1.21,1.21,0,0,0,1.72.53Z" transform="translate(0 0)"/>
      <path class="cls-4" d="M700.74,332.37a2.82,2.82,0,0,0,1.13-.32,17.84,17.84,0,0,1,1.89-.81,2.43,2.43,0,0,0,1.8-1.53c.54-1.08-.59-1.08-2.16-1.48s-2.34.13-2.52.71a7.75,7.75,0,0,1-.77,2.39c-.63,1.12.09,1,.64,1Z" transform="translate(0 0)"/>
      <path class="cls-4" d="M700.24,333.75c-1.53,0-3.24,2.29-3.87,2.7s-.27.81-.27.81a8.76,8.76,0,0,1,.62,1.84,17.78,17.78,0,0,1,.23,2.44,3.91,3.91,0,0,0,1.13.09,3.71,3.71,0,0,0,2.29-1.08,5.91,5.91,0,0,1,2.75-1.09,8.89,8.89,0,0,0,3.15-1.16c1.36-.72-.72-2-2.16-3.16a5.39,5.39,0,0,0-3.87-1.35Z" transform="translate(0 0)"/>
      <path class="cls-4" d="M679.87,339c1.22-.14,1.76-.74,1.76-1.41s-.62-1.42-2.16-1.28c-3.8.33-7.48-1-8.15-4.79,0,0-1.28,2.36,1.07,5s6.28,2.62,7.51,2.49Z" transform="translate(0 0)"/>
      <path class="cls-4" d="M667,398.8a1.59,1.59,0,0,0,.67.67h5.81c1-.28,1-1.19,1.05-1.82s.63-2.88,1.43-6.75a47.14,47.14,0,0,1,2.76-8.18c.57-1.56-.57-2.07-1-3.05a26.3,26.3,0,0,1-1.2-3.57c-.18-.87-1.56-.75-2.3-.7s-.87,1.27-1,2.42-.63,4.56-1.21,7.5-3.91,6.86-4.82,7.72a3.61,3.61,0,0,1-2.3,1.21,6.53,6.53,0,0,0-2.71.4,3.49,3.49,0,0,0-1.43,2.37c-.06.86,1.32,1.32,1.32,1.32a6.86,6.86,0,0,0,1.5-1.15c.4-.52,1.32-.63,2.24-.8s1,.17.69.63-.24.54.46,1.77Z" transform="translate(0 0)"/>
      <path class="cls-4" d="M658,398.5a2,2,0,0,0-1,.95h3.8a1.93,1.93,0,0,0-.37-.95C660.06,397.93,658.83,398.21,658,398.5Z" transform="translate(0 0)"/>
      <path class="cls-4" d="M663.21,398.39a4,4,0,0,0-1.31,1.07H666a1.08,1.08,0,0,0-.31-1.3c-.92-.77-1.84-.13-2.47.22Z" transform="translate(0 0)"/>
      <path class="cls-4" d="M698.69,396.7c-.45,0-.85.4-1.49.84a2.48,2.48,0,0,0-.94,1.69.45.45,0,0,0,0,.24H698a.34.34,0,0,0,.11-.24c0-.5.2-.94.94-1.59s.07-.94-.37-.94Z" transform="translate(0 0)"/>
      <path class="cls-4" d="M702.1,398.58c0-.54-.2-1-.59-1s-1,.75-1.58,1.14a3.64,3.64,0,0,0-.7.74h2.57a2.36,2.36,0,0,0,.31-.9Z" transform="translate(0 0)"/>
      <path class="cls-4" d="M717.89,379.71c1.23-.9,1-1.14,1.09-2.08s0-1.24-.45-1.59a8.57,8.57,0,0,0-4-1.14c-1.72,0-5,.4-6.22,1.24s-1.83,3.86-1.83,5.44.25,1.84.69,1.84,1.19-1.14,1.19-1.14,1.63,2.13,2.62,3.62.54,2.07.1,3.21-2.08,4.16-3.36,4.81-2.27,0-3.8-.2a3.29,3.29,0,0,0-3.26,1.09c-.89.89-.05,1.59.49,1.59a2.07,2.07,0,0,1,1.88.69c.41.51.13,1.69-.08,2.36h7.57c1.29-.57,2.18-2.34,2.53-3.31s2-2.52,2.82-3.26.88-1.24.88-2.88a7.08,7.08,0,0,0-1-3.71,6.83,6.83,0,0,1-.84-3.71c.13-1,1.78-2,3-2.93Z" transform="translate(0 0)"/>
      <path class="cls-4" d="M705.45,360.83c.75,1.23.38,1.46-.71,1.69a12.31,12.31,0,0,1-4,.29c-1.7-.14-1.65.09-1.7.94a7.39,7.39,0,0,1-1.18,4,2,2,0,0,1-3,.28c-.76-.52-1.18-.38-1.46.56a16.42,16.42,0,0,1-1.61,3c-.8,1.42-1.32,1.47-1.88,1.32s-1.09-1-1.66-1-1.46-1.18-2.31-2.55-1.27.14-1.84,1.32-1.13,2-2.21,1.88-2.31-2.16-2.93-3.39-1-2.41-1.93-2.36-2.5,2-3.54,2.54-1.32.34-1.79-.32-1.09.24-1.7,1.79a2.56,2.56,0,0,0,.9,3.3c.85.43,2.54-.8,3.68-1.56s1.65-.56,2.83-.56,1.08,1.94,1.6,4.76,2.17,3.21,2.17,3.21.57.47,1.84-1.69,1.41-4.3,2.64-4.3,1.33.28,2.55,2,2.26,3,3,1.7,1.32-3.16,2.12-3.82,1.56-.85.71.38-1.23,2.54.52,2,8.4-3.21,11.08-3.73c0,0,3.16-.52,6.8-.71s4.52-.42,5.94-.42,1.46-.15,1.56-1.09-.66-.75-3.31-.75a37.55,37.55,0,0,0-6.32.61c-1.84.28-2.68.24-2.36-.23s.85-.81,3-1.14,6.46-.56,8.72-.61,1.56.66,1.37,2.17a26.4,26.4,0,0,0,.33,5.14,6.72,6.72,0,0,0,1.41,3.82c1.23,2,5.47,3.21,6.7,3.87s1,0,1-1.18,1-1.13,2-.52a19.24,19.24,0,0,0,4.15,1.47c1.27.32,1.46.56,1.46,1.22s.14,2.13.29,3.5a3.16,3.16,0,0,1-.48,2.64,41.9,41.9,0,0,1-3,3.3,16.16,16.16,0,0,0-3.39.57c-2.32.56-3,1.65-3.26,2.59s.43,1.23.52,1.6a5.33,5.33,0,0,1,0,1.14h.54a10.66,10.66,0,0,1,.83-1.23c.8-1,2.83-1.28,4.15-.66a1.64,1.64,0,0,1,.78,1.89h5.29c.71-1.38,2.4-4.67,2.84-5.67a8.41,8.41,0,0,0,1-3.82c0-1.74.23-8.49-.1-8.87s.1-1.51,0-3.39,0-3.31-3.49-3.63a7.74,7.74,0,0,1-5.75-3c-1.19-1.17-.9-3.91-1.84-7.21s-3.26-3.82-7.36-4.63a34.5,34.5,0,0,0-10.19-.61,63.47,63.47,0,0,1-9,.52c-2.08-.26-1.75.35-1,1.58Z" transform="translate(0 0)"/>
      <path class="cls-4" d="M725.26,398.71a2.79,2.79,0,0,0-.75.75h3.56a1.37,1.37,0,0,0-.35-1c-.52-.66-1.57-.28-2.45.28Z" transform="translate(0 0)"/>
      <path class="cls-4" d="M731.65,398.47a3.29,3.29,0,0,0-1.18,1h3.61a1.13,1.13,0,0,0,0-.41c-.1-.57-1.2-1.19-2.4-.57Z" transform="translate(0 0)"/>
      <path class="cls-4" d="M642.58,400.73a33.11,33.11,0,0,0,.79,3.39H756.65a33,33,0,0,0,.78-3.39Z" transform="translate(0 0)"/>
      <path class="cls-4" d="M718.92,346.61c3.58,2.38,14.94,2.51,20.28,3.58s5,5.14,3.32,7.28S733.39,359.86,732,360a11,11,0,0,1,1.82,2.07l3.08-.25c2.25-.19,6.21-.75,8.91-3s2.51-5.9.13-8.35-6.34-2.7-10.36-3.14-7.16-.75-11.68-1.5-6.71-2.58-6.71-5.21,2.45-4,4.2-4.52,4.58-1.25,7.1-.32,5.46,1.07,10.42.44,6.09-4.08,6.09-4.08a9,9,0,0,1-3.14.38c-2.51.06-4.34-1.07-8.91-1.14s-6.22,1.58-8.36,2.33-7.84,1.32-9.54,5,.27,5.47,3.85,7.86Z" transform="translate(0 0)"/>
      <ellipse class="cls-3" cx="689.15" cy="329.52" rx="2.14" ry="2.1"/>
      <path class="cls-3" d="M735,333.11a27.67,27.67,0,0,0-6.53.5,2.53,2.53,0,0,0,1.63.51,20.63,20.63,0,0,1,5.4.37,7,7,0,0,0,4.77-.82s-2.45-.3-5.27-.56Z" transform="translate(0 0)"/>
      <path class="cls-5" d="M708.18,385.83c-.69-1.09-.89-1-1.68-.29s-1.59-1.69-1.69-3.17a48.62,48.62,0,0,1,.59-6s-3.86.79-5.93,1.48a53.58,53.58,0,0,1-5.74,1.29c-1.68.4-2.57.79-3.46.6a24.94,24.94,0,0,0-4.26-.3c-1.48,0-1.38.3-2.87,1.78s-1.88,2.27-3.06,5.05a29.2,29.2,0,0,0-2,8.7,22.57,22.57,0,0,1-1,4.52h17.74c.21-.57.49-1.29.73-1.82a4.38,4.38,0,0,1,2.14-2c.69-.32,1.3-.32,1.62-1.11a4.06,4.06,0,0,1,2.14-1.86c.93-.42,2.56-.19,4,.23s2-.6,2.42-1.16a26.41,26.41,0,0,1,1.4-2.37,1.71,1.71,0,0,0,.19-1.95,5.62,5.62,0,0,1-1.42-1.58Z" transform="translate(0 0)"/>
      <path class="cls-5" d="M736.64,386.31c-.23-1-.14-1.16-.74-1.3a15.09,15.09,0,0,1-2.51-.7c-.88-.37-.79,2-.79,2a22.48,22.48,0,0,1-4.46,0c-2.37-.28-5.16-2.42-6.13-3.12a10.87,10.87,0,0,1-2-2.27,9.15,9.15,0,0,1-1.49,1.11c-.74.42-1.16,1.91-1.3,3.39s1.72,3.3,1.86,4.79-1.63,4.46-2.51,5.67a22.65,22.65,0,0,0-1.81,3.62h8.56a4.4,4.4,0,0,1,.92-1.44,4.65,4.65,0,0,1,2.37-1.07,3.57,3.57,0,0,1,.32-1.16c.32-.79,1.21-1.71,3.35-2.55a17.49,17.49,0,0,1,4.69-1,9.52,9.52,0,0,0,1.77-2c.74-1.15.19-2.9-.05-3.93Z" transform="translate(0 0)"/>
    </g>
    <g>
      <path class="cls-4" d="M665.33,480.75c1.59.53,4.57-.64,6.06-2.45s2-4.58,3.09-6.17,1.83-2.78,1.83-2.78a23.94,23.94,0,0,1-1.64,6.15,22.65,22.65,0,0,0-1.26,9.93c.64,3.93,3.19,4.57,4.68,4,1.13-.4,2.85-2.15,4.42-4.76.5-.83.84-2,1.33-2.9,1-1.91,1.91-5.05,2.36-5,1,.19.35,2.4,0,3.89-.74,3-2.23,7.35-2.34,10s.22,7.44,2.87,7.66,4-2.13,5.53-7.56,1.82-7.13,2.45-7.13.64,3.72.64,5.32a26.61,26.61,0,0,0,.24,3.58c.41,2.91,1.26,6.4,2.1,7.17a3.36,3.36,0,0,0,4.68,0c1.28-1.17,2.34-9.15,2.34-10.75s0-5.32.64-5.32,1,1.71,2.45,7.13,2.87,7.77,5.53,7.56,3-5,2.87-7.66-1.59-7-2.34-10,.32-2.76,2.34,1.07c.63,1.19,1.29,2.66,1.93,3.68,1.41,2.26,2.79,3.61,3.82,4,1.48.53,4-.11,4.68-4s-2.34-15.22-2.34-15.22l1.27,1.92c1.07,1.59,1.6,4.36,3.09,6.17s4.47,3,6.06,2.44,1.81-3.51.64-8.83-6-8.3-9.36-12.56c-3.13-3.91-5.55-10.79-5.91-11.87a39.49,39.49,0,0,0-11.44,8.07c-7,7.35-8.57,9.19-8.57,9.19s-1.53-1.84-8.57-9.19A39.52,39.52,0,0,0,680,447.44c-.39.91-3.32,7.48-6.48,11.44-1.58,2-3.75,3.45-5.29,5.34a18.27,18.27,0,0,0-3.5,7.69c-1.14,5.29-.92,8.27.67,8.81Z" transform="translate(0 0)"/>
      <path class="cls-4" d="M665.13,498.77c2.06-1.81,3.12-2.81,3.12-2.81s1.5-1.25,1.13,1.12-1.19,7.25-.69,9.37.75,3.93,3.37,2.37a16.43,16.43,0,0,0,4.5-3.81c1.24-1.31,2.55-1.87,2.24.19s-1.25,5.18-.81,9.36,2.5,4.81,5.18,1.25a46.87,46.87,0,0,0,5.12-8.55c.81-1.75,2.43-3.25,2.43,0,0,7,1.61,17.14,9.3,19.85,7.71-2.71,9.31-12.87,9.31-19.85,0-3.25,1.61-1.75,2.42,0a47.67,47.67,0,0,0,5.13,8.55c2.68,3.56,4.74,2.93,5.18-1.25s-.51-7.3-.82-9.36,1-1.5,2.25-.19a16.28,16.28,0,0,0,4.5,3.81c2.62,1.56,2.87-.25,3.37-2.37s-.32-7-.69-9.37,1.12-1.12,1.12-1.12,1.06,1,3.13,2.81a8.72,8.72,0,0,0,4.88,1.92s1.33-7.33-1.73-11.71-4.17-5.8-4.17-5.8a12,12,0,0,1-3.06-.61,12.92,12.92,0,0,1-2.6-1.46v4.05s3.74,3.56,4.62,4.62,2.62,2.87.06,1.12-4.68-3.49-4.68-3.49-.51,3.68-1.57,4.62a3.61,3.61,0,0,1-3.18.81l-.62-.26-.19,1.44s2.31,4.31,2.62,6.06-.19,1.56-1.25-.69-3.12-5.12-4-6.68-2.31-2.62-2.19-.62a17.85,17.85,0,0,1-1.37,6.93,8,8,0,0,1-1.12,1.74s1.43,5.06,1.62,6,.06,2-.75.81-3.13-6.18-3.13-6.18-3-.13-3.93-1a20.74,20.74,0,0,1-2.24-4.24s-1.25,4.3-2.29,5.68a14.2,14.2,0,0,1-3.45,2.75s-.17,7.47-.34,8.79-.23,1.9-.79,1.9-.61-.58-.79-1.9-.34-8.79-.34-8.79a14.2,14.2,0,0,1-3.45-2.75c-1-1.38-2.28-5.68-2.28-5.68a20.9,20.9,0,0,1-2.25,4.24c-.87.87-3.93,1-3.93,1s-2.31,5-3.12,6.18-.94.12-.75-.81,1.62-6,1.62-6a7.5,7.5,0,0,1-1.12-1.74,17.85,17.85,0,0,1-1.37-6.93c.12-2-1.26-.94-2.19.62s-3,4.44-4.06,6.68-1.56,2.44-1.24.69,2.62-6.06,2.62-6.06l-.19-1.44-.62.26a3.63,3.63,0,0,1-3.19-.81c-1.06-.94-1.56-4.62-1.56-4.62s-2.12,1.74-4.68,3.49-.81-.06.06-1.12,4.62-4.62,4.62-4.62v-4.05a12.92,12.92,0,0,1-2.6,1.46,12,12,0,0,1-3.06.61S665,484.6,662,489s-1.73,11.71-1.73,11.71a8.74,8.74,0,0,0,4.9-1.88Z" transform="translate(0 0)"/>
      <path class="cls-4" d="M702.69,547.57a26.52,26.52,0,0,1-2.63-3.45,26.52,26.52,0,0,1-2.63,3.45,62.45,62.45,0,0,1-6.59,5.93s.42,6.09,2.64,9.38c1.87,2.77,3.66,5.31,6.58,7.24,2.91-1.93,4.71-4.47,6.58-7.24,2.22-3.29,2.63-9.38,2.63-9.38a62.86,62.86,0,0,1-6.58-5.93Z" transform="translate(0 0)"/>
      <path class="cls-3" d="M699.06,555c.18,1.42.06,5,.92,5s.73-3.58.92-5,.24-4.8.24-4.8h-2.33s.09,3.37.26,4.79Z" transform="translate(0 0)"/>
      <path class="cls-4" d="M700,220.65c-8.24.14-17.91-1-23.23-3l-5.67,1.24c8.77,3.31,16.09,4.59,28.9,4.71,12.8-.12,20.12-1.4,28.88-4.71l-5.67-1.24c-5.31,2-15,3.1-23.23,3Z" transform="translate(0 0)"/>
      <path class="cls-4" d="M729.92,213.78a60.14,60.14,0,0,0-5.38-3.71c-1-.49-.21-1.8,0-2.34s4.4-1.75,6.74-2.35,2-1.09,2-1.09-1.37-1.58-9.84-2.5-23.37-.71-23.37-.71-14.89-.22-23.37.71-9.83,2.5-9.83,2.5-.38.49,2,1.09,6.57,1.8,6.73,2.35.93,1.85-.05,2.34a60.14,60.14,0,0,0-5.38,3.71c-.65.54-.7,1.41.33,1.47s1,0,4-.55a141.81,141.81,0,0,1,51.31,0c2.91.58,2.93.6,4,.55s1-.93.33-1.47Z" transform="translate(0 0)"/>
      <path class="cls-4" d="M720.28,217.38A120.56,120.56,0,0,0,700,216a145.36,145.36,0,0,0-20.28,1.35c3.66,1.47,9.59,2.21,20.28,2.21s16.62-.75,20.28-2.21Z" transform="translate(0 0)"/>
      <polygon class="cls-4" points="698.21 137.57 702.65 137.21 702.23 133.33 707 133.99 707.2 130.16 702.19 130.62 703.06 126.49 697.55 126.44 698.51 130.62 693.65 130.16 693.65 133.99 698.47 133.43 698.21 137.57"/>
      <path class="cls-4" d="M707.9,143.85h-6v-5.09a9.22,9.22,0,0,0-1.76-.17,9,9,0,0,0-1.56.14v5.12h-6.16a6.66,6.66,0,0,0-.32,2.05,8.11,8.11,0,0,0,0,.86h16a6.11,6.11,0,0,0,.06-.86,7.65,7.65,0,0,0-.35-2.05Z" transform="translate(0 0)"/>
      <path class="cls-5" d="M700.17,153.19a8,8,0,0,0,7.63-5H692.55a8,8,0,0,0,7.63,5Z" transform="translate(0 0)"/>
      <path class="cls-5" d="M703.45,139.23v3.5h4a7.67,7.67,0,0,0-4-3.5Z" transform="translate(0 0)"/>
      <path class="cls-5" d="M696.87,139.23a7.79,7.79,0,0,0-4,3.5h4Z" transform="translate(0 0)"/>
      <path class="cls-3" d="M704.75,204.12C703.24,203.41,700,202,700,202s-3.12,1.53-4.82,2.39-1.47.6-2,1.83.05,1.68.79,2,6.1,3.08,6.1,3.08,5.31-2.47,6.59-3.08,1-1.2.69-2.14-1.07-1.26-2.56-2Z" transform="translate(0 0)"/>
      <polygon class="cls-4" points="694.84 205.68 700.09 208.36 705.27 205.68 699.96 203.19 694.84 205.68"/>
      <path class="cls-4" d="M700,185.17a9.75,9.75,0,0,1-1,2.64,3,3,0,0,0-.87,2.44,1.93,1.93,0,0,0,3.81,0,3,3,0,0,0-.87-2.44,10.34,10.34,0,0,1-1-2.64Z" transform="translate(0 0)"/>
      <circle class="cls-4" cx="700" cy="193.72" r="0.99"/>
      <path class="cls-4" d="M696.48,188.65a21,21,0,0,0,2.33-3.1c.64-1.19,1.15-2.27,1.15-2.27s.51,1.08,1.14,2.27a22.15,22.15,0,0,0,2.34,3.1s2.4-1.26,3.79-5.87-.32-9.47-1-14.71-1.14-14.26-1.14-14.26a10.69,10.69,0,0,1-5.18,1.51,10.8,10.8,0,0,1-5.19-1.51s-.5,9-1.14,14.26-2.33,10.1-.94,14.71,3.78,5.87,3.78,5.87Z" transform="translate(0 0)"/>
      <ellipse class="cls-3" cx="699.96" cy="178.29" rx="4.14" ry="4"/>
      <ellipse class="cls-3" cx="699.96" cy="168.92" rx="3.99" ry="3.85"/>
      <ellipse class="cls-3" cx="699.96" cy="159.95" rx="3.8" ry="3.67"/>
      <ellipse class="cls-4" cx="699.96" cy="177.58" rx="2.2" ry="2.12"/>
      <ellipse class="cls-4" cx="699.96" cy="168.23" rx="2.11" ry="2.04"/>
      <ellipse class="cls-4" cx="699.96" cy="159.29" rx="1.85" ry="1.79"/>
      <path class="cls-3" d="M699.85,490.09c.25.05.3-.61.35-1.83a56.2,56.2,0,0,1,.51-5.88c.3-1.73-.46-1.62-.92-1.52s-.7,1.42-.7,2.18.2,5.12.2,6,.3,1,.56,1Z" transform="translate(0 0)"/>
    </g>
    <g id="g4017">
      <path class="cls-4" d="M656.86,523.71c1.84-1.17,3.44-2.46,7.61-5.23a17.24,17.24,0,0,0,5.7-5.85H668.7c-.8,0-1.47-1.11-1.53-2.22a40.33,40.33,0,0,1,.31-6,12.25,12.25,0,0,0-.43-4.8,22.72,22.72,0,0,1-4.48,3.08c-2.7,1.41-3.81.74-3.81.74l-.67-2.71s-1.17,2.46-2.83,5.35-6.13,6.1-9.32,8.49-6.69,4.93-9.33,5.85-1.1,2.16-1.1,2.16,2.64,2.64,9.45,3.87,10.06-1.53,11.9-2.7Z" transform="translate(0 0)"/>
      <path class="cls-4" d="M680.68,521.06c-2.43-.25-3.88-1.17-4.35-3.82-.31-1.72.12-8.3.12-8.3a15.11,15.11,0,0,0-1.72,1.78,5.39,5.39,0,0,1-3,1.36,12.23,12.23,0,0,1-1.22,2.39,13.52,13.52,0,0,1-4.42,4.74,75,75,0,0,0-6.81,4.68,41.78,41.78,0,0,1-6.2,4.5,10.18,10.18,0,0,0-5.22,6.82c-.79,3.45-.18,4.56,2.52,4.38a26.46,26.46,0,0,0,7.36-1.05c4.36-1.11,10.55-6,15.09-8.86s7.86-8.62,7.86-8.62Z" transform="translate(0 0)"/>
      <path class="cls-4" d="M692.76,525a15.48,15.48,0,0,1-2.52-5c-.67-2.65-2-7.88-2-7.88s-.61,1.66-2.09,4.8a7.14,7.14,0,0,1-4,3.88s-.13,1.35-2.21,4a30.86,30.86,0,0,1-8.29,6.95c-3.13,1.84-7.18,4.37-9.39,7.51s-2.39,6.4-1.34,7.81,2.51-.18,4.6-1.23,8-2,16.26-6.4S692.76,525,692.76,525Z" transform="translate(0 0)"/>
      <path class="cls-4" d="M696.32,543.46c2.27-3.38,2.64-11.63,2.64-11.63s-.79-.55-1.9-1.48a29.62,29.62,0,0,1-3.25-4.18s-1.35,2.83-2.82,5.48-2.21,3.57-5.28,6.4-7.24,5.6-9,8.61-.8,9.05.37,11.08,2.82,1.35,4.54-.31,2.27-2.09,5.27-4.67,7.19-5.91,9.45-9.3Z" transform="translate(0 0)"/>
      <path class="cls-3" d="M669.33,474.45a58.18,58.18,0,0,1,3.68-7,21.59,21.59,0,0,0,1.88-3.26,29,29,0,0,0-4.09,4.57,20.71,20.71,0,0,0-2.42,5.77C667.86,476.6,668.12,476.91,669.33,474.45Z" transform="translate(0 0)"/>
      <path class="cls-3" d="M681,476.55c.47-1.63.74-2.72.74-2.72s.47-1.57.21-1.68-1.47,1-2.31,3.66-2.1,6.56-1.84,6.71,2.73-4.35,3.2-6Z" transform="translate(0 0)"/>
      <path class="cls-3" d="M690.18,483.94a11.82,11.82,0,0,0,.52-1.21,29.93,29.93,0,0,0,.95-3.67c0-.63-.32-1.36-1.1.21a12.92,12.92,0,0,0-1,3.78c-.16.68-1,3-.79,3.25s.89-1.2,1.42-2.36Z" transform="translate(0 0)"/>
      <path class="cls-3" d="M661.65,511.94l-1.23-.74a24.17,24.17,0,0,1-1.78,2.09c-1,1.11-2.21,1.54-3,2.59a11.55,11.55,0,0,1-3.93,3.32c-1.9,1-2.64,1.3-2.27,1.6s1.66-.43,1.66-.43a10.55,10.55,0,0,0,2.82-1.41,21.73,21.73,0,0,0,4.29-3.39A40.81,40.81,0,0,0,661.65,511.94Z" transform="translate(0 0)"/>
      <path class="cls-3" d="M671.61,523.71c.85-.92,1.77-1.54,1.28-2s-1.1-.42-1.9.25-3.07,2.83-4.11,3.76-1.9,1.47-2.94,2.27a49.19,49.19,0,0,1-4.42,2.65c-1.11.61-.06.68-.06.68a14,14,0,0,1,1.78-.74c.91-.31,3.55-1.48,3.55-1.48a18.1,18.1,0,0,0,2.46-1.48,34.46,34.46,0,0,0,4.35-3.87Z" transform="translate(0 0)"/>
      <path class="cls-3" d="M683.07,531.65c.73-1.48-.06-1-1.29-.55s-4,3.51-5.58,4.61a29.12,29.12,0,0,1-4.3,2.22c-1.35.68-1.35,1-1.28,1.35s.61.31,1.16.06,2.45-1.35,2.45-1.35a9.32,9.32,0,0,1,1.54-.31c.74-.06,1.78-.87,3.44-2.28s3.12-2.27,3.86-3.75Z" transform="translate(0 0)"/>
      <path class="cls-3" d="M688.41,542.17c-2,1.23-5.53,4-6.45,5.85s-1.53,3.14-1.23,3.44,1.29-.31,1.72-1a18.17,18.17,0,0,1,1.35-1.85,51.7,51.7,0,0,1,4.79-4.24,12.19,12.19,0,0,0,3.86-4.43,2.88,2.88,0,0,0,.13-2.1,18.4,18.4,0,0,1-4.17,4.37Z" transform="translate(0 0)"/>
      <path class="cls-7" d="M634.35,247.8a32.47,32.47,0,0,0-12.15-3.67,37.54,37.54,0,0,0-13.82,1.54,15.27,15.27,0,0,1-8.24.3c-3.8-1-6.75-4.44-7.75-8.64a7.88,7.88,0,0,0,.08,9.37,10.51,10.51,0,0,0,6.25,4.27c7.43,1.5,14.73-3,20.92-3.44a17,17,0,0,1,10.62,3.39,3,3,0,0,0,3.39,0C635.63,249.77,636.21,248.89,634.35,247.8Z" transform="translate(0 0)"/>
      <path class="cls-4" d="M612.94,463s-.73-.08-1.76-.23a20.92,20.92,0,0,1-3.87-1.17A2,2,0,0,0,605,462a66.22,66.22,0,0,1-6,3.88h8.85c3.07,0,5.12-2.85,5.12-2.85Z" transform="translate(0 0)"/>
      <path class="cls-4" d="M637.85,461.5v-.89l-1.18-2.54a16.82,16.82,0,0,0-2.71,2.25,68.66,68.66,0,0,0-4.42,5.38c-1.47,1.88-3.53,3.66-1.76.64s2.35-4.31,3.77-6.32,2.47-2.89,2.3-3a32.7,32.7,0,0,0-5-.77,18.69,18.69,0,0,1-7.72-2.9c-1.71-1-4.78-2.66-4.78-2.66s-6.3,2.66-8.66,3.25-3.77.95-1.47,2.07,4.24,1.48,5.36,2.18a17,17,0,0,0,6.72,1.84c2.12,0,5.71.05,4.3,1.53s-3,4.32-4.54,8.63a29.57,29.57,0,0,0-1.59,10.05,35.86,35.86,0,0,0,.23,3.78s2.6-2.89,9.55-7.26,9.54-5.86,10.84-6.45,1.95-.59,1.71-2.24-.94-5.73-.94-6.56Z" transform="translate(0 0)"/>
      <path class="cls-4" d="M664.41,440.36l-1.29-.58a1.33,1.33,0,0,0-.32.11c-.82.41-5.06,3.27-6.77,6s-3.43,3-1.55,0a26,26,0,0,1,4.73-6c.57-.5,1.07-.92,1.48-1.24a77.76,77.76,0,0,1-10.7-6.14,11.09,11.09,0,0,1-7.1,6.49,21.77,21.77,0,0,0,3.51-4.73,21,21,0,0,0,1.14-3.55,45.65,45.65,0,0,1-7-6.7,26,26,0,0,1-6,10.74c-5.46,6.12-16.4,9.21-16.4,9.21s-3.83.41-.73,1.23,5.3,2.2,11.34,1.14,6.44-1.3,7.26-1.55,3-.08,0,1.06a42.24,42.24,0,0,1-12.72,2c-2.7-.24-6.37-.81-2.53,1.23s5.46,2.85,7.83,2.85,3.34.74,5.63.74a16.62,16.62,0,0,0,4.57-.74c1.63-.32,2.69.24,2.69.9s-2.2,2.44-2.12,6.93a38.27,38.27,0,0,0,.81,8.73,34.16,34.16,0,0,0,2,4.65c.65,1.22.9,2.44,1.55-.16s2.12-6.37,2.69-8.89.9-2.61,1.14-3.92,1.64-2.28,1,.08-1.38,5.39-1.87,7.51-1.63,6,.32,2.93,9.3-11.33,10.52-12.8,2.21-2.86,3.1-4.08,3.43-2.86,4.65-4.65A42.44,42.44,0,0,1,671,443.2c-2.07-.88-4.26-1.8-6.57-2.84Z" transform="translate(0 0)"/>
      <path class="cls-4" d="M563,252.07c.19,4.49,5.17,13.09,8,17.69s3.61,6.44,3.12,6.74-1.66-2.05-3.22-4.1-4.59-6.84-7.12-10.46-6.25-12.22-6.74-13-.68-1.27-1.95-.29-3.71,10.45-.78,16.91,7.32,11.13,9.17,13.38,4.3,5.77,3.91,6.06-1.08-.59-3.32-2.93-6-6.35-8.39-9.28a69.07,69.07,0,0,1-5.61-9c-.36-.65-.82-.47-1.16-.13-.8.8-2.09,2.68-1.53,7.8.78,7.14,4.49,11.24,7.81,14.86s6.64,6.64,6.15,7.13-3.9-2.54-6.25-4.79-8.1-7.81-9.36-9.38-3.13-.78-3,5.38,6.93,12.41,9.76,15.83,6.34,5.47,6,6.15-3.12-1.07-5-2.34-8.78-5.77-10.14-6.75-2,.88-.3,6.75,6.83,10.55,9.86,12.7,7.9,4.79,7.61,5.47-2.34-.19-5.17-1.56a57,57,0,0,0-8.69-3.32c-2.44-.69-2.44,1.07-2.44,1.07a12.72,12.72,0,0,0,3.12,9A19.38,19.38,0,0,0,559,334c3.91.69,4.49.88,4.4,1.47s-.49.68-1.37.68-4.49.4-7.81.4-5.07.77-5.07,2.24-.1,3.42,4.88,6.74,10.54,3.82,12.88,4.31,2.44.68,2,1.37-1.56.58-5.27,1-6,1.86-6.44,2.83.29,3.92,3.32,6,6.93,2.73,12.78,2.34,7.32-.49,7.52.49-1.76,1.27-4.69,1.76-5.17.49-6.83,1.86-.39,4.2,2.44,6.25,9.86,2.05,12.78,1.86,7.42-1.27,7.71-.49-2.14,2-5.17,3-3.9,1.76-4.49,3-.09,2.44,3.52,3.81,8.87,1.37,11.61.1,4.19-1.76,4.68-1.27,0,1-.58,1.66a13.51,13.51,0,0,1-6,3.33c-3,.78-3.31.78-4.39,3.22s1.66,4.4,7.12,4.6,12.79-2,15.13-3.33,3.22-1.66,3.61-1.17.29.78-.88,1.66-4.88,3.52-6.73,4-2,1.85-2,3.12-.49,3.81,4.39,5a19.63,19.63,0,0,0,15.91-3.42,12.23,12.23,0,0,0,3.24-3,40.67,40.67,0,0,1,.39-11.58,19.28,19.28,0,0,1-5-1.22c-2.93-1.17-4.1-3.9-4.78-5.37s-1.66-1.47-2.83-1.08a9.6,9.6,0,0,1-4,.79,11.51,11.51,0,0,1-7.71-4c-2.54-3-2.06-6-2.15-7.43s-2.44-.39-3.61-.39a15.22,15.22,0,0,1-7.71-2.64c-3.12-2.15-3.12-5.08-3.41-6.25a4.1,4.1,0,0,0-2.54-2.35,14,14,0,0,1-4.69-2.54c-2.14-1.76-2.92-5.18-3-6.35s-1.37-1.27-5.76-3.52-4-6.93-3.8-8.79,2.24-3.42,2.24-4.11-1.46-.87-2.93-1.76-5.17-2.34-5.26-7.81,3.51-6.06,3.51-6.06a22,22,0,0,1-2.15-1.17c-1.46-.89-5.46-3.62-5.46-6.85a6.18,6.18,0,0,1,2.53-5.47,17.52,17.52,0,0,1,4-1.56,7.12,7.12,0,0,1-2.63-3.72c-.78-2.54-1.08-5.66.78-7.91s5-2.25,6.63-2.25,3.13.88,3.71.4.68-.88.1-2.16a9.59,9.59,0,0,1-.2-5.47c.49-1.07.59-3.22,4.79-4.59s8.58,1.47,10,2.25.78-1.08.78-2.44-2.83-4.79-6-9.68a107.52,107.52,0,0,1-8.3-14.86,96.07,96.07,0,0,1-6.44-19.44c-.48-2.45-1.46-1.28-1.46-1.28s-1,.4-3.22,6.06A36.37,36.37,0,0,0,563,252.07Z" transform="translate(0 0)"/>
      <path class="cls-4" d="M636.61,352c-2.52-.13-5.79-1.51-8.3-5.16s-6.28-4.53-12.82-4.41-9.55-3-11.19-7.55.25-9.69,6.91-13,9.68-6.93,9.93-12.59-6.65-12.72-13.57-20.65-12.32-19.13-12.32-19.13a10.34,10.34,0,0,0-2,5.29c0,2.64,1,5.41,0,6.16s-1.38-1.13-5.4-2.89-7.29-2-9.81.88,0,7.93,2.27,10.32,4.14,4.16,3.52,5-4-1.38-5.16-2.14-3.77-3.65-7.66-3.27-5.29,1.51-5.66,4.78,3.52,6.16,6,7.43,3.52,2.39,2.89,2.89-1.26,0-2.39-.38a11.82,11.82,0,0,0-6.28,0c-2,.76-5.28,3.53-2.26,6.93s9.3,4.66,10.56,4.9,1.88-.12,2,.88-2.64,1-6,1.14-4.4,3.4-3.89,5.92,6.15,5.28,9.3,5.79,4.27,0,4.52.88-.37,1.25-2.14,1.76-5.15.88-5.78,3.65-.75,4,1.89,6.42,6.91,2,8.17,1.76,2.77-1.63,4-.37-1.13,2.26-3.27,3.77-2,4.41,1.64,6.43a11.21,11.21,0,0,0,8.79.75c1.51-.5,3.52-2.89,4.53-1.38s-3.14,2-4.91,4.15-1.13,5.66,2.39,7.8,9.3.63,10.31-.25,2.26-1.25,3-.5-.38,2.76-1.14,4.53-2.13,6.92,3.15,8.94,10-2.52,10.93-3.41a2.09,2.09,0,0,1,2.52-.62c.75.38.38,1.13-.25,2a5.32,5.32,0,0,0,1.75,7.3,9.27,9.27,0,0,0,6.91,1.41c.79-2.95,1.81-6.1,2.85-10.51h-.79c-.5,0-.6.76-.6,1.06s.15.55-.31.55-.5.25-1.15.71-1.26,1-1.62.75,1.36-1.16,1.82-1.71,1.36-1.41,1.41-2,.35-1,1.26-1.72a3.24,3.24,0,0,0,.67-.78c.61-2.94,1.2-6.37,1.74-10.53.37-2.83.58-5.49.66-8l-1.65-.09Z" transform="translate(0 0)"/>
      <path class="cls-4" d="M529.18,273.55a57.1,57.1,0,0,0,13.54,17.75s-1-2.82-1.5-4.76a12.21,12.21,0,0,1-.1-4.14s-2-2.55-5.67-8.22-5.62-14-5.62-14A125.2,125.2,0,0,0,535.91,273a69.61,69.61,0,0,0,5.72,8.07s1.07-3.93,1.84-4.14,1.33.41,2,1.28,1.23.78,1.23.78-.91-1.87-2.3-4.12c-.64-1-1.56-2.12-2.22-3.16-2.09-3.3-6.6-9.59-8.92-15.88s-7.38-22-8.26-26.69-1.76-2.09-2.64,1.33A40.28,40.28,0,0,0,521,246a78,78,0,0,0,8.15,27.57Z" transform="translate(0 0)"/>
      <path class="cls-4" d="M536.44,304.22c2.09,1.54,5.18,3.63,5.18,3.63a16.25,16.25,0,0,1-.8-2.5,33.64,33.64,0,0,1-.44-4.19s-2.46-2.16-4.18-3.65a61.46,61.46,0,0,1-8.14-8.73c-4.26-5.28-.83-2.11,2.64,1.68a132.28,132.28,0,0,0,10.12,9.29s0-.08,0-1.23a4.55,4.55,0,0,1,1-2.77c.61-.8.29-.91-3.46-3.77S525,278.19,521,271.68s-8.26-15.33-8.26-15.33-2.09,13,5.84,27.35S534.35,302.67,536.44,304.22Z" transform="translate(0 0)"/>
      <path class="cls-4" d="M578.05,386.31a5,5,0,0,0,3.15-6c0-.07-2.66.85-5.11,1.76s-8.49,2.67-10.87,2.73-2.38-.27-2.45-.63,1.82,0,5.25-.63,9.47-3.79,10.52-4.49.91-.84-.63-1a6.68,6.68,0,0,1-3.44-1.33c-.56-.5-2.17.21-6.09,1.12a94.53,94.53,0,0,1-18.29,2.32,72.66,72.66,0,0,1-13-1.27c-1-.21-2,.35,1,5.41s13.6,7.79,21,7.72,14.71-4,19.06-5.69Z" transform="translate(0 0)"/>
      <path class="cls-4" d="M558.49,375.88c7.59.06,10.42-2.19,10.42-2.19s0-.39-1-1.94a7.91,7.91,0,0,1-.83-4.18s-1.81.32-5,.77a33.61,33.61,0,0,1-10.87.19c-4.05-.7-2.31-1.16.9-.77s9.39-.77,11.39-1.48,1.15-1.35-.19-1.81a39.73,39.73,0,0,1-5-2.77,86.75,86.75,0,0,1-17.75.2c-8.56-1-14-3.16-15.7-3.42s-1.68.46-1.68.46-.45.77,2.51,5.4,8.75,7.67,13.64,9.09a73.66,73.66,0,0,0,19.17,2.45Z" transform="translate(0 0)"/>
      <path class="cls-4" d="M556.54,358.09a7.69,7.69,0,0,1-.77-2,2.84,2.84,0,0,1,.84-2.7,58.22,58.22,0,0,0-7.4-1.23c-5.66-.7-6-1.15-9.46-1.93S534,348.43,534,348s1.15.2,3.21,1,10.75,1.67,14.41,2.19,5.73.9,6.37.51a17.8,17.8,0,0,1,2.89-1,34.57,34.57,0,0,0-3.47-.78,12.15,12.15,0,0,1-4.69-1.87c-1-.7-1.36-.9-6-1.41s-8.36-2-16.66-5-14.54-6.63-16.21-8-1.54-.39-1.09,1.35.38,3.93,4.56,8.82,6.24,7,16.79,10.89,22.39,3.35,22.39,3.35Z" transform="translate(0 0)"/>
      <path class="cls-4" d="M525.35,332.39a59.35,59.35,0,0,0,22.58,9.28c.52-.61-.57-2.8-.07-4.13.6-1.59,1.61-1.61,3.86-1.74s.77-.58.26-.58-.64-.06-4.38-1-7.52-1.55-12.67-3.48-6.68-3.35-6.56-3.74,2.38,1.23,7.14,3,10.3,2.51,13.32,3.16.38-.65-1-1.48-3.41-3.93-3.41-3.93a79.42,79.42,0,0,1-8.81-2.26,70.32,70.32,0,0,1-14.6-6.12,56.41,56.41,0,0,1-4.73-3.2c-3.13-2.25-6.27-4.54-7.5-5.43-1.86-1.35-1.28-.26-1.09.58a31.1,31.1,0,0,0,4.44,9C515.06,324.53,516,325.82,525.35,332.39Z" transform="translate(0 0)"/>
      <path class="cls-4" d="M523.82,313.91A61.55,61.55,0,0,0,542.28,324c1.35.58,1.22-.19,1-1a23.14,23.14,0,0,1-.45-3.28s-3.28-1.87-6.95-4-7.72-5-10.42-6.89-1.09-1.74-.25-1,4.56,2.9,8.29,5.22,9.39,5.67,9.39,5.67a3.77,3.77,0,0,1,.9-2c.78-.77,2.7-.58,2.7-.58a13.64,13.64,0,0,1-1.54-1.86c-.58-.91-3.6-1.87-7-3.49s-9.52-6.11-14-9.92a183,183,0,0,1-13.82-14.1c-.58-.78-1-.65-1,.32s-.39,1.61.57,6S514.62,306.63,523.82,313.91Z" transform="translate(0 0)"/>
      <path class="cls-4" d="M556.37,245.07c1,2.16,2.18,3.8,3,5.21,1.24,2.13,1.94,3.51,1.94,3.51a4.69,4.69,0,0,0,0-2,16.12,16.12,0,0,1,0-5.17,16.07,16.07,0,0,0,.37-3.27,14.56,14.56,0,0,0-.61-2.78c-.3-1.24-1.62-6.6-2.26-10.39a84.45,84.45,0,0,1-1.28-14c.05-4.78.74-2.37.74,0a88.26,88.26,0,0,0,1,11.32,130.94,130.94,0,0,0,3,13.79,14.6,14.6,0,0,1,.84-3.11c.69-1.82,1.82-3.88,2.7-6.15s.58-2.64.58-2.64-3.23-15.46-4.08-22.76-2.21-26.51-2.21-26.51c-4.72,4.75-8.24,17.27-8.86,29.1-.47,8.91,1,17.16,1.39,20.51.82,6.62,2,11.79,3.71,15.4Z" transform="translate(0 0)"/>
      <path class="cls-4" d="M545.89,269.46c.15-3.5,1-6.15,3.21-6.93a56.12,56.12,0,0,1-3.74-8.49,66.09,66.09,0,0,1-2.68-11.17c-1.24-8.29-2.23-16.82.24-2.84s5.43,18.91,5.43,18.91l3.59,5.81a25,25,0,0,1-.48-7.13,45.43,45.43,0,0,1,1.34-9.56,110.47,110.47,0,0,1-7-19c-2.71-10.39-4.27-19.84-4.32-25.47-.25-5.45-.37-7.55-.37-7.55s-4.44,3.34-5.92,20.28,3,33.14,5.18,39.33,5.56,13.85,5.56,13.85Z" transform="translate(0 0)"/>
      <path class="cls-4" d="M594.36,398.65s-.7-.49-2.8-1.83-1.47-5.33-1.47-5.33-.56.42-2.1,1.48a27.74,27.74,0,0,1-5.4,3.08c-2.1.85-3.15,1.41-4.48,1.83s-1-.14.14-.78a23.1,23.1,0,0,1,4.28-2.1c2.8-1.12,8.4-6,8.4-6s-1.33-.14-3.64-.21a18.81,18.81,0,0,1-5.26-1.26s-2.31,2.11-11.63,6.1a72.76,72.76,0,0,1-17.24,5.06s1,4.77,5.47,6.39c3.71,1.61,8.83,2.59,18.85.21a63.62,63.62,0,0,0,16.88-6.6Z" transform="translate(0 0)"/>
      <path class="cls-4" d="M606.64,408.21a8.53,8.53,0,0,0-1.48-6.67,14.29,14.29,0,0,0-1.89,1.54,28.14,28.14,0,0,1-7.35,5.61c-3.93,2-5.33,1.83-1.55-.21s9.32-7.79,9.32-7.79l-1.47-.56c-1.47-.56-4,.42-14.5,6.74S571,413.4,571,413.4s4.69,5.68,17.45,5.26,17.38-6.52,18.15-10.45Z" transform="translate(0 0)"/>
      <path class="cls-4" d="M630.74,403.64a14.65,14.65,0,0,1-3.29,3.22c-1.89,1.27-6.94,2-6.94,2a8.47,8.47,0,0,1-1.19,1.82c-1,1.27-3.15,4.29-5.39,5.9s-5.75,2.67-6,2.24,2-1.26,4.2-2.59,4.14-3.79,5.61-5.48-.63-1.4-.63-1.4-2.66.07-5.12-.14-2,0-2.66,1.19a33.14,33.14,0,0,1-3.5,4.36c-2.23,2.56-4.34,4.89-6.45,7.43-1.4,1.69-.35,2.18-.35,2.18s.63,1,6.31,1.68a17.9,17.9,0,0,0,11.29-2.35,34.27,34.27,0,0,0,7.63-6.56c6.79-7.44,6.44-13.54,6.44-13.54Z" transform="translate(0 0)"/>
      <path class="cls-4" d="M633.76,419a29,29,0,0,1-2.17,2.6,29.3,29.3,0,0,1,1.82-4.42c.45-.75.93-1.46,1.29-2a38.43,38.43,0,0,1-2.27-6.82c-.63,2-2.57,7.95-5,11.8-2.94,4.7-5.53,6.38-3.85,7.64s5,1.55,8.69-.28,4.62-4.83,5.13-7.31a35.07,35.07,0,0,1-1.76-3.05,7.17,7.17,0,0,0-1.9,1.8Z" transform="translate(0 0)"/>
      <ellipse class="cls-4" cx="632.93" cy="231.33" rx="2.61" ry="2.39"/>
      <path class="cls-4" d="M627.44,226.82c2.38-.06,3.66-1.18,6.29-.93,3.1.3,7.3,2.11,12.4,4.82A21.26,21.26,0,0,0,660.45,232a20.51,20.51,0,0,0,4.18-2c6.2-3.52,4.7-10.44,4.7-10.44a24.36,24.36,0,0,1-15.5,4.72,14.57,14.57,0,0,1,1.3,1.2c.9.9,2.55,1.95,2,2.41s-2.8-1.71-4.7-3.11a28.18,28.18,0,0,0-9.5-4.71c-4.8-1.41-10.2-1.51-13.8.49s-3.9,4.52-3.4,5.53C626,226.66,626.67,226.84,627.44,226.82Z" transform="translate(0 0)"/>
      <path class="cls-4" d="M694.84,277.37a11,11,0,0,1-5.5-2.9,103,103,0,0,1-9.21-10.14c-.7-1.2-.4-2.31,1.3-3a7.33,7.33,0,0,0,2.9-2.91,32.41,32.41,0,0,1-6.2-3.21c-2.5-1.8-8.3-7-9.1-8.33s-.4-1.5.8-1.9a2.36,2.36,0,0,0,1.5-1.21,63.43,63.43,0,0,1-5.2-3.71c-2.5-2-5.9-5.32-5.9-5.32-3.74,1.51-9.62.87-12.8.31a34.15,34.15,0,0,1-9.7-3.32,17.78,17.78,0,0,1-.9,2.61c-.7,1.71-3.3,2.71-5.91,1s-2-5.42-2-5.42a40,40,0,0,0-6.4-2.91c-4.3-1.61-7.8-1.81-11.3-.2s-5.2,6.42-5.2,10,1.9,2.11,2.3,1.6,1.2-3.11,5.6-3.81,8.4,1.41,13.4,5.52,6.1,4.41,8.6,7,.51,4-3.79,5.42-9.81-1.4-10-1.3c-.83.41,1.86,4.24,5.57,5.68s8.45.51,12.14-1c2.5-1,3,0,3.7.81,4.06,4.27,5.12,8.27,5.8,13.14a5.91,5.91,0,0,0,3.8-4.41c.14-.82.4-2.61,1.8-1.31s2.5,8.53,2.5,11.84a42.85,42.85,0,0,1-1,7.72l1-.1a16.91,16.91,0,0,0,3.4-1.7c1.6-.91,1.7.1,1.7,1.91s.6,5.21,3,11.33,5.9,8.13,5.9,8.13a17.45,17.45,0,0,0,1.41-3.61,48.68,48.68,0,0,0,1.2-11.24c0-4.11-1.1-12.94-1.1-12.94s5,6.12,10.2,7.63,10.4.6,12.6-1.91.2-3.61-.9-3.92Z" transform="translate(0 0)"/>
      <path class="cls-4" d="M660.62,293.21a46,46,0,0,1-2.44,4.74,5,5,0,0,1-1.24,1.44,12.27,12.27,0,0,0,3.88,2.06c2.3.72,4.35,1.14,4.35,1.14a32.52,32.52,0,0,1-3.49-6,24.09,24.09,0,0,1-1.06-3.35Z" transform="translate(0 0)"/>
      <path class="cls-4" d="M691.86,291.16c-.77-2-1.24-3.07-1.24-3.07-3.2.64-9.25-.86-11.88-2.44,0,0,2.4,4.88,4.79,6.56a19.21,19.21,0,0,0,2.73,1.77s-2.39.38-5.6-2.78a22.12,22.12,0,0,1-4.65-6.8s.72,8.43-.57,13.6-1.58,5.84-1.58,5.84a36,36,0,0,0,14.36-.91c7.57-2.11,8.14-2.78,8.14-2.78s.91-.24-.29-1.81a41.74,41.74,0,0,1-4.21-7.18Z" transform="translate(0 0)"/>
      <path class="cls-3" d="M678.12,272.65a17.57,17.57,0,0,1-2.56-3.32,1.61,1.61,0,0,0-.11,2,24.16,24.16,0,0,0,6.28,5.35,16.25,16.25,0,0,0,4.54,1.69l-.12-.47S680.45,275.32,678.12,272.65Z" transform="translate(0 0)"/>
      <path class="cls-3" d="M668.89,290.22s-.58-10.59-.58-12.16-1-1.17-1-1.17l-1.16.53s2,13.5,2.28,15.48c.24,1.66,1.06,1.52,1.48,1.45-.83-.43-1-3.65-1-4.13Z" transform="translate(0 0)"/>
      <path class="cls-3" d="M654.61,244.39c-.87-.86-2.81-1.51-.94.57s4.32,4.69,5,6.85,1.15,4.82-.07,4.24-2.09-.57-3.38-1.65a21.47,21.47,0,0,0-4.75-3.17c-1-.29-2.81,0-1.37,1.58a35.6,35.6,0,0,0,5.76,5.11c2.74,2,4.32,2.88,5.76,3.89s2.88,1.87,2.88,1.87-1.3-8.64-3.68-12.45A37.82,37.82,0,0,0,654.61,244.39Z" transform="translate(0 0)"/>
      <path class="cls-3" d="M607.93,389.09a12.39,12.39,0,0,1-4.06,1.87s-1.09,0-1.09.37,1.28,0,2.61-.24A11.93,11.93,0,0,0,609.2,389c.66-.48,1.63-1.09,1.33-1.94s-.85.67-2.6,2Z" transform="translate(0 0)"/>
      <path class="cls-3" d="M623,397.16c-.36.42-3.27,2.6-3.27,2.6a10.12,10.12,0,0,1-1.87,1,2.1,2.1,0,0,0-1.21.91s.18.24,1.21-.06a24.58,24.58,0,0,0,5-3.27c1-.85,1.39-1.09,1-1.45s-.55-.12-.91.3Z" transform="translate(0 0)"/>
      <path class="cls-3" d="M561.9,288.6c.54.66,1.21,1.56,1.51,1.26s-.06-.6-.79-1.45-1.14-1.26-1.14-1.26a18.11,18.11,0,0,0-1.62-2.23c-.6-.6-1.51-.91-.36.48S561.36,287.93,561.9,288.6Z" transform="translate(0 0)"/>
      <path class="cls-3" d="M557.26,298.77a25.18,25.18,0,0,1,2,1.93c.72.78,1.26,1.62,1.68,1.2s-1.08-1.32-1.74-2.17a11.05,11.05,0,0,0-2.05-2.05,14.35,14.35,0,0,0-1.86-1.2,27.24,27.24,0,0,0,2,2.29Z" transform="translate(0 0)"/>
      <path class="cls-3" d="M559,315.2c1.15,1.21,2.84,1.57,3.09,1.09s-.12-.88-1.09-1.36a33.92,33.92,0,0,1-3.31-2.05,16.06,16.06,0,0,1-2.1-1.68c-.54-.54-1.19-1-1.39-.85s1.6,2.12,2.14,2.42A15,15,0,0,1,559,315.2Z" transform="translate(0 0)"/>
      <path class="cls-3" d="M562.32,328.34c0-.48.12-.72-.85-.78s-2.3-.24-2.3-.24-1.87-.73-2-.37,1.58,1.1,2.3,1.22a7.68,7.68,0,0,1,2.06.6c.42.24.79.05.79-.43Z" transform="translate(0 0)"/>
      <path class="cls-3" d="M563.76,342.63c-2,0-3.81-.49-3.93-.19s1,.79,2,1.15a18.07,18.07,0,0,0,4.29.55c1.33.06,1.58-.24,1.52-.91S565.82,342.63,563.76,342.63Z" transform="translate(0 0)"/>
      <path class="cls-3" d="M579.86,358.27c-.3-.3-1-.06-2.18.18a19.76,19.76,0,0,1-4.11.55c-1.09-.06-3.45-.12-3.45-.12l-1.33.3c0,.3,1.75.24,4.3.54a16.38,16.38,0,0,0,5.44-.42c1.21-.18,1.64-.73,1.33-1Z" transform="translate(0 0)"/>
      <path class="cls-3" d="M586.51,369.4a8.09,8.09,0,0,1-3.14.61,27.94,27.94,0,0,0-3.27.42s-1.09.12-.91.55.55,0,1.51-.13,1.7,0,3.39-.05a20.45,20.45,0,0,0,3.69-.67c1-.19,2.18-.73,1.63-1.4s-1.63.19-2.9.67Z" transform="translate(0 0)"/>
      <path class="cls-3" d="M599.46,377.82a39.63,39.63,0,0,1-3.51,2.61,10.89,10.89,0,0,1-1.63,1c-1.09.54-1,.79-.85,1.09s.85-.42,1.45-.67a23.55,23.55,0,0,0,3.63-2.42c1-.85,2.36-1.52,2.12-2.12s-.48-.18-1.21.54Z" transform="translate(0 0)"/>
      <path class="cls-3" d="M577.91,268.78a26.91,26.91,0,0,0,2.48,3.35c2.23,2.79,1,.15.48-.56s-3.83-5.35-5-6.62-1.28-.64-.72.15S577.91,268.78,577.91,268.78Z" transform="translate(0 0)"/>
      <path class="cls-3" d="M573.21,283.13c.32-.32-.4-.64-1.67-2.24s-3.83-4.86-3.83-4.86-.72-1.52-1-1.36.87,2.55,1.91,3.59,2.39,3,3.11,3.91,1.12,1.28,1.44,1Z" transform="translate(0 0)"/>
      <path class="cls-3" d="M579.4,310c0-.78-2.52-.66-3.67-.9l-3.19-.66s-2.4-.42-2.46-.12.48.6,1.8.84,3.31.84,4.82,1.08,2.7.55,2.7-.24Z" transform="translate(0 0)"/>
      <path class="cls-3" d="M573.21,295.51a22.19,22.19,0,0,0,3.67,2.47c.88.48,1.6,1.2,2.08.64s-.4-1-1.84-1.6a11.07,11.07,0,0,1-2.15-1.19s-.8-.4-1.52-.8-1.92-.88-.24.48Z" transform="translate(0 0)"/>
      <path class="cls-3" d="M587.65,285.93a12.86,12.86,0,0,0-1.92-1.36s-1.27-1.2-1.51-.8,1.43,1.6,2.23,2.31,2.24,2.8,2.95,2.4S588.68,286.8,587.65,285.93Z" transform="translate(0 0)"/>
      <path class="cls-3" d="M578.22,323.42l-2.3.61c-.9.24-1,.66.67.66a17.53,17.53,0,0,0,3.93-.73c1.63-.3,2.18-.48,1.94-1s-1.09-.37-1.76-.19S578.22,323.42,578.22,323.42Z" transform="translate(0 0)"/>
      <path class="cls-3" d="M580.76,337c-.12.3,1.15,0,2-.31s2.6-1.21,3.63-1.51,1-.49,1-1.09-1.09-.12-2.42.3a12.55,12.55,0,0,0-3,1.76s-1.09.54-1.21.85Z" transform="translate(0 0)"/>
      <path class="cls-3" d="M598.24,345.23c1.21-.73,1.45-1.27,1-1.64s-.78-.3-1.75.49-2.84,2.12-2.84,2.12-1,.36-1.69.73-1.64,1-1.4,1.33,1.76,0,2.54-.67,2.91-1.64,4.12-2.36Z" transform="translate(0 0)"/>
      <path class="cls-3" d="M606.48,356.15c.49-.43,1.94-.91,2.6-1.4s1.09-1.94.55-2.12-.85.61-2,1.45-5.08,3.46-5.08,3.46l-1,.42c-1.09.42-.6.73.31.61a4.35,4.35,0,0,0,2.6-1C605.51,356.75,606,356.57,606.48,356.15Z" transform="translate(0 0)"/>
      <path class="cls-3" d="M618.69,366.49a14.61,14.61,0,0,0,3.27-2.42c.72-.67,1.63-1.51,1.09-1.94s-1.15.13-2,.91-3.09,3.15-3.09,3.15a5.62,5.62,0,0,0-1.51,1c-1.21,1,.06.79.49.36a4.41,4.41,0,0,1,1.75-1.09Z" transform="translate(0 0)"/>
      <polygon class="cls-4" points="668.46 211.29 673.38 207.79 667.58 206.31 663.86 209.27 668.46 211.29"/>
      <ellipse class="cls-3" cx="684.21" cy="207.19" rx="4.69" ry="4.53"/>
      <ellipse class="cls-4" cx="684.21" cy="206.23" rx="2.83" ry="2.71"/>
      <path class="cls-4" d="M674.41,191.64a6.82,6.82,0,0,0,2.77.25s.48-2.08-.67-3.09-2.19-1.75-2.86-2.42a10,10,0,0,1-.84-.9s0,1.8-.09,2.92.48,2.79,1.68,3.24Z" transform="translate(0 0)"/>
      <ellipse class="cls-4" cx="676.9" cy="193.92" rx="0.86" ry="0.82"/>
      <path class="cls-4" d="M670.49,193.05c-.37.5-1.15,1.32-1.15,1.32a3.55,3.55,0,0,1,1.74.59,4.2,4.2,0,0,0,2.72.93,1.28,1.28,0,0,0,1.12-1.61c-.19-.62-.64-1.26-2.16-1.83S670.85,192.54,670.49,193.05Z" transform="translate(0 0)"/>
      <path class="cls-4" d="M673.77,198.53c-2.95.26-6.84-3-6.84-3-.37,2.62-2,4-4.47,4.48l.23.11a18.73,18.73,0,0,0,5,1.6,10.43,10.43,0,0,0,3.65-.29,15.74,15.74,0,0,0,4.37-1.38c1.77-1.1,1.24-4,1.24-4s-.26,2.16-3.21,2.43Z" transform="translate(0 0)"/>
      <path class="cls-4" d="M662.29,195.57a23.06,23.06,0,0,0-3.79-1.37c-.75,0-1.85-.22-1.66,1.18s1.62,2.09,3,2.12a5.29,5.29,0,0,0,2.95-.91C663.65,196.18,663.5,196,662.29,195.57Z" transform="translate(0 0)"/>
      <path class="cls-4" d="M653.06,190.56a7.64,7.64,0,0,0-2.5-1.21s-.87,2.28-.38,3.68a2.48,2.48,0,0,0,2.76,1.74c1.25,0,3.1-.68,2.57-1.63A7.46,7.46,0,0,0,653.06,190.56Z" transform="translate(0 0)"/>
      <ellipse class="cls-4" cx="654.26" cy="196.96" rx="1.02" ry="0.73"/>
      <path class="cls-4" d="M657.08,185.64c-.82-3.88-.68-8.1,3-13.48s10.07-7.56,10.07-7.56A20.48,20.48,0,0,1,672.4,162a43.16,43.16,0,0,1,6.2-4.9s-4.82,1.19-7.56,2.07v.14a3.34,3.34,0,0,1-3.3,3.38,3.29,3.29,0,0,1-1.88-.6c-1.49.28-6.44,3.24-7.71,4.3a3.48,3.48,0,0,1,.5,1.78,3.35,3.35,0,0,1-3.31,3.37,3.22,3.22,0,0,1-1.51-.38c-.15.24-.29.47-.42.72a33.53,33.53,0,0,0-2.37,5.42,3.53,3.53,0,0,1,1.41,2.92,3.14,3.14,0,0,1-2.8,3.37,11.47,11.47,0,0,0-.06,2.18c.14,1.09.54,1.77,2.45,2.31s4.5,3.88,4.5,3.88c.18,0,1.54-2.45.54-6.33Z" transform="translate(0 0)"/>
      <path class="cls-4" d="M668.81,160.79a1.25,1.25,0,0,0,.26-1.92,1.79,1.79,0,0,0-2.25.13,1.26,1.26,0,0,0-.27,1.93A1.81,1.81,0,0,0,668.81,160.79Z" transform="translate(0 0)"/>
      <path class="cls-4" d="M656.47,169.13a1.68,1.68,0,0,0,.3-2.41,1.88,1.88,0,0,0-2.55.16,1.68,1.68,0,0,0-.29,2.41A1.87,1.87,0,0,0,656.47,169.13Z" transform="translate(0 0)"/>
      <ellipse class="cls-4" cx="649.12" cy="179.61" rx="1.91" ry="1.87"/>
      <path class="cls-4" d="M690.24,153.16a23.65,23.65,0,0,0-5.55,2.25h0c1.9,0,3.38,1.21,3.38,2.79a3.73,3.73,0,0,1-3.63,3.29,3.26,3.26,0,0,1-3.2-3.23,2.43,2.43,0,0,1,.25-1.06c-.82.51-1.68,1.06-2.6,1.68-6.07,4.09-7.49,6.06-10.49,11.65s-4.09,11.71-2.79,15.32,6.06,4.35,6.13,4.35a2.86,2.86,0,0,1-.62-1.22,10.74,10.74,0,0,1,.34-2.38,14.93,14.93,0,0,0,.07-3,2.06,2.06,0,0,1,1.7.62c.62.74,1.5,1.63,2.11,2.38a31,31,0,0,0,2.25,2.18,5.87,5.87,0,0,0,1-3c0-1.63-1.09-3.4-1.3-6.27s1.3-8,4.09-11.71a32.91,32.91,0,0,1,9.6-7.9,3,3,0,0,0,1.9-2.58c.07-.68.21-1.16.34-2.86s-1.42-1.64-3-1.3Z" transform="translate(0 0)"/>
      <path class="cls-4" d="M684.23,159.63a2.1,2.1,0,0,0,2-1.85,1.73,1.73,0,0,0-1.9-1.57,1.81,1.81,0,0,0-2,1.6A1.84,1.84,0,0,0,684.23,159.63Z" transform="translate(0 0)"/>
      <path class="cls-4" d="M693.24,195.23a4.52,4.52,0,0,0,3.89-.26,1.64,1.64,0,0,0,.11-2.6,2.94,2.94,0,0,0-3.13-.26c-.85.48-2.76,1.82-2.76,1.82A4,4,0,0,0,693.24,195.23Z" transform="translate(0 0)"/>
      <path class="cls-4" d="M697.92,196.87a2.54,2.54,0,0,1-2.54,1.38c-1.62.07-3.38,0-4.44-1.1a11,11,0,0,1-1.8-2.54l-1.83,0s-.6,2.55-1.41,3.25-3.64.82-4.87-.1-2.36-2.05-2.57-1.91,0,1.06,1.27,2.16a5.52,5.52,0,0,0,4.19,1.77h11.64s2.36.13,3-1.28.7-2.3.39-2.65-.53.25-1.06,1.06Z" transform="translate(0 0)"/>
      <path class="cls-4" d="M680.22,194.9c1.75,1,2.71.38,3.35-.4a4.2,4.2,0,0,0,.75-1.13,20.14,20.14,0,0,1-2.45-1.07c-.8-.47-1.34-.92-2.14-.83s-.92.22-.92.22a3.29,3.29,0,0,0,1.41,3.21Z" transform="translate(0 0)"/>
      <ellipse class="cls-3" cx="671.8" cy="177.71" rx="3.88" ry="3.85"/>
      <path class="cls-3" d="M678.54,164.38a3.91,3.91,0,0,0-5.1.93A3.16,3.16,0,0,0,674,170a3.91,3.91,0,0,0,5.1-.93A3.17,3.17,0,0,0,678.54,164.38Z" transform="translate(0 0)"/>
      <ellipse class="cls-4" cx="671.65" cy="177.21" rx="2.26" ry="2.15"/>
      <path class="cls-4" d="M676.92,164.8a2.6,2.6,0,0,0-2.76,1.1c-.52.88,0,1.82,1.37,2.09,2.45.5,3.62-2.58,1.39-3.19Z" transform="translate(0 0)"/>
    </g>
    <g>
      <path class="cls-4" d="M617.62,465.21a85.88,85.88,0,0,1-7.9,3.38,12.5,12.5,0,0,1-2.34.52,55.4,55.4,0,0,1-7.1,5.5,26.69,26.69,0,0,1-10.38,3.6c-4.69.51-17.56.36-23.34.14s-9.36,1.17-11.85,4-3.07,6.83.08,9.91,6.65,1.54,7.82-.37a6.14,6.14,0,0,0,.08-5.43c-.51-1.1,1-1.47,2.63-1.54a42.34,42.34,0,0,1,6.8.51,35.21,35.21,0,0,1,8.78,2.87c1.9,1,.81,1.17-.51.95a28.94,28.94,0,0,1-5.12-1.61,20.42,20.42,0,0,0-5.78-1.4c-1.46-.07-1,.74-.66,1.25a24.18,24.18,0,0,1,1.32,2.35,8.41,8.41,0,0,1-.44,2.78l.73,1.4a19.09,19.09,0,0,0,1.17-2.13c.29-.74-.07-2.13.22-2.79s1.53-.66,2.49.44a9.83,9.83,0,0,1,2.56,5.21,8.39,8.39,0,0,1-.44,4.77,5.6,5.6,0,0,1,1.39,1.61,13,13,0,0,1-.3,3.31s.81.51,1.54-1a35.29,35.29,0,0,0,1.83-5.21c.22-1,.88-2.71,2.05-1.39a10.88,10.88,0,0,1,2.19,3.74,6.17,6.17,0,0,1,.22,1.47,30.13,30.13,0,0,0,3.51-4,24.63,24.63,0,0,1,5.19-5.72c2.49-2.06,6.81-6.16,8.93-7.56s7.53-4.33,9.21-5.36,2-1.09,2.27-4,1.69-5.42,2.34-7.41.79-2.71.79-2.71Z" transform="translate(0 0)"/>
      <path class="cls-4" d="M521.7,357.7c-.05-.49-1-2.2-1.27-3.08s-1.12-.34-1.12-.34a19,19,0,0,1-3.32,1.46c-1.41.4-1.61-.14-1.76-.87s-.48-3-.73-4.65-.58-1.51-1.17-1.27-2.34.88-3.56,1.42-.82,1.12-.44,1.8,1.81,3.57,2.44,4.6.05,1.47-.68,1.81-1.81.49-3.27,1-1.36.83-1.22,1.32a29.21,29.21,0,0,0,1.66,3.42c.53.93,1,.3,1,.3a15.36,15.36,0,0,1,2.88-2.06c1.32-.63,1.41-.44,1.75.54s1.86,6.12,2.15,7.09.78.88,1.46.59,1.61-.44,2.39-.68,1.08-1.81,1.08-1.81-2.88-5.19-3.66-6.51,0-1.61.58-1.71,2.29-.34,3.76-.68,1.05-1.21,1-1.71Z" transform="translate(0 0)"/>
      <path class="cls-4" d="M554.2,498.53c-.22-1.25,0-2.5-1-3.45a11.91,11.91,0,0,1-2.56-4.4c-.44-1.54.37-2.28.22-3.16s-1.32-.88-2.49.08-2.7,1.83-2.7,4.62,1,6.09,4.9,7.26,3.81.31,3.59-.94Z" transform="translate(0 0)"/>
      <path class="cls-4" d="M558.14,497.2s-.81-.52-1.17.22-.29,1.1.73,2.71a7,7,0,0,0,2.85,2.71c1.17.74.37-.73.22-1.17s0-1-.29-1.39a2.89,2.89,0,0,1-.44-2c0-1.16-1.9-1.1-1.9-1.1Z" transform="translate(0 0)"/>
      <path class="cls-4" d="M562.89,510.41c.73-1.11,1.39-1.4,3.14-2.2a22,22,0,0,1,6.07-1.32c1.1-.08,3.59-2.2,3.22-4.41a4,4,0,0,0-3.37-3.37c-1.39-.3-2.63-.3-3.07.36a5.1,5.1,0,0,1-2.78,2.06c-1.53.51-1.75,1-2.7,1.32s-.22.88-1,1.54-1.9,0-3.14-.37a8.55,8.55,0,0,0-2.71-.66l-5-.29a3.05,3.05,0,0,0-1-.07c-.8,0-.87.14-1.24,1a5.48,5.48,0,0,0,1,4.19c.88,1.09,3.73,1.61,5.63,2.2a33.42,33.42,0,0,0,4.47,1.09c1.66.29,1.88,0,2.6-1.11Z" transform="translate(0 0)"/>
      <path class="cls-4" d="M580.67,512.16c1.54-1,.66-2.79.29-3.89s-2.48-1.32-3.58-1.32-1.68,0-2.27.51a7.75,7.75,0,0,1-3,1.77c-1.6.51-2.85,1.09-5.05,2s-2.85,2.35-3.8,2.94-2.78,0-2.78,0-1.32-.37-1.75,0,0,1.1.87,2.05,2.56.88,4.46,1.47,2.27.15,3-.37,1.32-1.61,2.64-2.42,4.17-1,5.56-1.09a13.67,13.67,0,0,0,5.44-1.62Z" transform="translate(0 0)"/>
      <path class="cls-4" d="M580.67,505.49c.66.59,1.39,1.39,2,.44s1.53-2.94.87-4.11a20.51,20.51,0,0,0-1.46-2.2,40.57,40.57,0,0,1-1.61,4.25c-.48.9-.41,1,.24,1.62Z" transform="translate(0 0)"/>
      <path class="cls-4" d="M574.74,495.36a10.81,10.81,0,0,0-1.31-4.26,17,17,0,0,1-1.25,3.3,10.27,10.27,0,0,1-1.61,2.35,16.74,16.74,0,0,0,2.64.51c.73,0,1.55,0,1.55-1.88Z" transform="translate(0 0)"/>
      <path class="cls-4" d="M563.78,499.41a8.61,8.61,0,0,0,4-2,3.56,3.56,0,0,0,.8-3.74,4.78,4.78,0,0,0-2.63-2.13h-1.1a10.08,10.08,0,0,1-1.39,2.86c-.8.95-1.75,1.61-1.68,2.86s-.09,2.54,2,2.1Z" transform="translate(0 0)"/>
      <path class="cls-4" d="M567.94,490.09a3.51,3.51,0,0,0-1-2.64l-1.1-1.1s-.15,1.46-.29,2.27a5.21,5.21,0,0,1-.22.95,4.29,4.29,0,0,0,1.1.81c.5.2,1.38.66,1.44-.3Z" transform="translate(0 0)"/>
      <path class="cls-4" d="M542.65,438.05,544,429.4c-1-8.64-5.53-16.82-9.1-22.47a108,108,0,0,1-8.88-19.25,54.63,54.63,0,0,1-2.69-14.59A8.41,8.41,0,0,1,524.8,368s.63-.92.05-1.5-1.49,0-2.41.87a11,11,0,0,0-2.27,3.82,6.63,6.63,0,0,0-.39,1.65,16.89,16.89,0,0,0-4.77-.19c-3,.24-4.35.48-4.44,1.11s.38,1.12,2.51,2,3.47,1.31,4.53,2.57,3.78,7.58,4.61,10.63a145.87,145.87,0,0,1,3.32,17.83,70.94,70.94,0,0,0,6,20.94c1,2.17,6.49,12.4,11.13,10.35Z" transform="translate(0 0)"/>
      <path class="cls-4" d="M548,453.27c-2,1.12-1.93,9.3-1,13.54s5,9.52,6.3,10.93,1.56,1.42,2.23,1a2.39,2.39,0,0,1,1-.37,12,12,0,0,0,3.12-1.63c1.33-1,.81-3.65.59-5.95s-2-6.93-5.26-12.28-4.88-6.41-6.87-5.29Z" transform="translate(0 0)"/>
      <path class="cls-4" d="M550.22,446.64a4.83,4.83,0,0,0-5-4.68,4.6,4.6,0,0,0-3.06.93c-2.7,2.44-1.07,8.52,2.83,8.52a6,6,0,0,0,4.09-1.22,4.76,4.76,0,0,0,1.11-3.54Z" transform="translate(0 0)"/>
      <path class="cls-4" d="M588.9,523.51c-1.07-.19-1.7-.62-3.27-1.69s-4.08-3.26-4.52-4.33-.44-1.13-1.94-.63a21,21,0,0,1-5.28.5c-1.63.07.19,1.89,1.32,3.59s.75,7.4.75,7.4a5,5,0,0,1-.25,1.32c-.25.82-.06,1.38.38,1.57s.69-.19,1.82-1.51a51.46,51.46,0,0,0,3.2-4.77s.32.06,2.07.51a13.76,13.76,0,0,0,6-.26c1.49-.43.79-1.51-.29-1.7Z" transform="translate(0 0)"/>
      <path class="cls-4" d="M582.18,527.93c-.75-.13-1.07-.19-1.44.31a8.84,8.84,0,0,0-.88,2,1.08,1.08,0,0,0,.31,1.32c.44.38,1.07.82,1.07.82a5.24,5.24,0,0,0,1.26,1c.63.31.75-.63.75-1.32s.38-2,.38-2.76-.66-1.21-1.43-1.32Z" transform="translate(0 0)"/>
      <path class="cls-5" d="M867.6,472.74a6.44,6.44,0,0,1-2.61-1.13s-.78-.09-1.4,1a11.07,11.07,0,0,1-3,2.62s-3.32.87-3.75,3.14,1.13,3.06,2.7,2.79,5.41-1,7.06-3.05a12.17,12.17,0,0,0,2.27-3.93c.31-.76.5-1-1.33-1.46Z" transform="translate(0 0)"/>
      <path class="cls-5" d="M872.75,454.67c-1.2-5-4.45-11.28-10.73-14.4,0,0-2.36,8.29-3.06,10.91s-.7,2.53,1.31,3.06,8.46,1.91,9.77,2.26,3.5,1.47,2.71-1.86Z" transform="translate(0 0)"/>
      <path class="cls-5" d="M842.82,450c1.48.26,1.31-.35,1.83-2.36s3.14-11.95,3.14-11.95a29.54,29.54,0,0,0-12.39,2.53,19.29,19.29,0,0,0-8.28,7.94,37.75,37.75,0,0,0,5.41,1.48c3.94.86,8.81,2.08,10.3,2.34Z" transform="translate(0 0)"/>
      <path class="cls-5" d="M827.46,463.66a32.3,32.3,0,0,1-3.22-.7s1.48,5.67,3.92,8.82,5.15,4.71,10.21,4.79,8.9-2.7,9.51-4.88a16.11,16.11,0,0,1,1.66-3.84s-9.16-1.22-12.91-2.09-6.85-1.67-9.21-2.1Z" transform="translate(0 0)"/>
      <path class="cls-4" d="M825.89,460.07c2.27.53,20.94,4.1,22.51,4.45s2.88.7,3.31.26a5.21,5.21,0,0,1,2.36-1.31,2.35,2.35,0,0,0,1.57-2.26,22.58,22.58,0,0,0,.61-3.15c.18-1.56,1-2.09,2.88-.17s2.18,4.71,2.53,7.42,4.63,3.4,6.28,3.66,2.44-.26,3.4-1.83,1.49-4.71,1.75-6.72.09-1.83-2-2.35-11.77-2.71-13.52-3.15-1.4-1.57-1.14-2.79,4.1-13.52,4.1-13.52c-2.73-1.69-6.57-2.7-11.16-3.23,0,0-2.79,12.56-3.32,14.49s-1.75,1.91-3.75,1.56-16.49-3.74-16.49-3.74l-1.13,2.7A22.41,22.41,0,0,0,823,458c0,1.65.59,1.62,2.84,2.12Z" transform="translate(0 0)"/>
      <path class="cls-4" d="M875.44,471.43c-1.93-1.26-3.34-1.59-4.35.75s-1.08,5.77-3.59,8.2-6,4.93-9.52,4.68-5.51-1.09-4.68-5.1,6.18-5.27,7.43-7.36a4.65,4.65,0,0,0-.92-6.11c-1.83-1.59-4.51-1.92-5.26-1.42a11.66,11.66,0,0,0-4,5.35c-1.08,3-1.75,5.44-4.09,7.37s-8.35,3.84-13,2.75-6.34-2.5-8.1-7.1-3.84-12.22-4.76-13.05-2.09-1.51-4.09-.09-2.17,3.51-2.42,5.19,0,3.6,2,6,4.09,4.85,4.85,7.36,3,6.36-.17,6.53-4.59.25-7-2.09-11.86-8.79-14.45-10.88a43.63,43.63,0,0,0-3.67-2.76c-4.37-.08-8.75-1.87-13.11-4.85a92.74,92.74,0,0,1,3,8.86,16.1,16.1,0,0,1,.42,3.77s9.52,4.85,13.28,6.69,11.36,6.19,15,8.45,6.77,5.77,13.28,4.43,19.71-5.35,24-6.61,16-4.18,20.38-7.19,4.76-2.84,5.51-5.85,0-4.62-1.92-5.89Z" transform="translate(0 0)"/>
      <path class="cls-4" d="M850.3,426.39c.73-.1,1-.2,3.24-.49s1.4,1.84,1,2.66a42.84,42.84,0,0,1-2,4c-.92,1.55.29,1.79.92,2s1.54.34,3.33.82,1.45-.82,1.5-1.5.14-4.21.34-5.46,1.35-.92,1.78-.68,1.55.87,2.47,1.35a1,1,0,0,0,1.54-.58,27.47,27.47,0,0,0,1-2.9c.38-1.4-.49-1.12-1.36-1.12s-2.12,0-3.57,0-.53-1.45-.53-1.45,1.06-1.74,1.88-3.05.53-1.5-.29-1.74-3.38-.83-4.1-1-1.06-.1-1.06.39-.1,3-.1,4-.1,1.54-1.36,1.59-2-.68-3-1.79-1.45-.68-1.54-.24-.92,3.63-1.12,4.5.24.81,1,.7Z" transform="translate(0 0)"/>
      <path class="cls-4" d="M857.3,458.08a22.34,22.34,0,0,1-.35,3.41c-.26.87-.87,2.18.18,2.53a5.81,5.81,0,0,0,2.61.61c.61-.18.35-1.4,0-2.44a9.37,9.37,0,0,0-1.66-3.23l-.76-.86Z" transform="translate(0 0)"/>
      <path class="cls-4" d="M872.66,468.19a2.24,2.24,0,0,0,1.57,1.14c.52.17,1.22.17,1.22-.79a4.92,4.92,0,0,0-.6-3.23c-.79-1.05-1.21-1.81-1.66-.26s-.88,2.38-.53,3.15Z" transform="translate(0 0)"/>
      <path class="cls-4" d="M819.17,458c.44.08,2.1.61,2.1.61a25.49,25.49,0,0,1,.34-4.11c.35-1.65,1-2.78.44-2.78s-1,.52-1.4,1.22-1.66.87-2.09,2.88.18,2.07.61,2.16Z" transform="translate(0 0)"/>
      <circle class="cls-3" cx="829.65" cy="453.8" r="3.4"/>
      <circle class="cls-3" cx="839.23" cy="456.16" r="3.49"/>
      <circle class="cls-3" cx="867.17" cy="462.09" r="3.49"/>
      <circle class="cls-3" cx="848.84" cy="458.43" r="3.49"/>
      <circle class="cls-3" cx="851.37" cy="450.06" r="3.49"/>
      <circle class="cls-3" cx="853.82" cy="441.68" r="3.49"/>
      <circle class="cls-4" cx="829.89" cy="453.47" r="1.7"/>
      <circle class="cls-4" cx="839.5" cy="455.81" r="1.75"/>
      <circle class="cls-4" cx="867.43" cy="461.74" r="1.74"/>
      <circle class="cls-4" cx="849.1" cy="458.08" r="1.74"/>
      <circle class="cls-4" cx="851.64" cy="449.71" r="1.74"/>
      <circle class="cls-4" cx="854.09" cy="441.33" r="1.75"/>
    </g>
    <g>
      <path class="cls-4" d="M743.06,523.71c-1.84-1.17-3.44-2.46-7.61-5.23a17.24,17.24,0,0,1-5.7-5.85h1.47c.8,0,1.47-1.11,1.53-2.22a40,40,0,0,0-.3-6,12,12,0,0,1,.43-4.8,22.44,22.44,0,0,0,4.47,3.08c2.7,1.41,3.81.74,3.81.74l.68-2.71s1.16,2.46,2.82,5.35,6.13,6.1,9.32,8.49,6.69,4.93,9.33,5.85,1.1,2.16,1.1,2.16-2.63,2.64-9.44,3.87-10.07-1.53-11.91-2.7Z" transform="translate(0 0)"/>
      <path class="cls-4" d="M719.24,521.06c2.43-.25,3.89-1.17,4.36-3.82.31-1.72-.13-8.3-.13-8.3a15.11,15.11,0,0,1,1.72,1.78,5.39,5.39,0,0,0,3,1.36,12.76,12.76,0,0,0,1.23,2.39,13.43,13.43,0,0,0,4.42,4.74,76.17,76.17,0,0,1,6.8,4.68,42.31,42.31,0,0,0,6.2,4.5,10.18,10.18,0,0,1,5.22,6.82c.8,3.45.18,4.56-2.52,4.38a26.5,26.5,0,0,1-7.36-1.05c-4.36-1.11-10.55-6-15.09-8.86s-7.86-8.62-7.86-8.62Z" transform="translate(0 0)"/>
      <path class="cls-4" d="M707.16,525a15.26,15.26,0,0,0,2.52-5c.68-2.65,2-7.88,2-7.88s.62,1.66,2.09,4.8a7.15,7.15,0,0,0,4,3.88s.12,1.35,2.21,4a30.66,30.66,0,0,0,8.28,6.95c3.13,1.84,7.18,4.37,9.39,7.51s2.39,6.4,1.35,7.81-2.52-.18-4.6-1.23-8-2-16.26-6.4S707.16,525,707.16,525Z" transform="translate(0 0)"/>
      <path class="cls-4" d="M703.6,543.46c-2.27-3.38-2.64-11.63-2.64-11.63s.79-.55,1.9-1.48a29.62,29.62,0,0,0,3.25-4.18s1.35,2.83,2.82,5.48,2.22,3.57,5.28,6.4,7.24,5.6,9,8.61.8,9.05-.37,11.08-2.82,1.35-4.54-.31-2.27-2.09-5.27-4.67-7.18-5.91-9.45-9.3Z" transform="translate(0 0)"/>
      <path class="cls-3" d="M730.59,474.45a59.76,59.76,0,0,0-3.67-7,22.16,22.16,0,0,1-1.89-3.26,29,29,0,0,1,4.09,4.57,20.42,20.42,0,0,1,2.42,5.77C732.06,476.6,731.8,476.91,730.59,474.45Z" transform="translate(0 0)"/>
      <path class="cls-3" d="M718.93,476.55c-.47-1.63-.73-2.72-.73-2.72s-.48-1.57-.22-1.68,1.48,1,2.32,3.66,2.1,6.56,1.83,6.71-2.72-4.35-3.2-6Z" transform="translate(0 0)"/>
      <path class="cls-3" d="M709.75,483.94a11.69,11.69,0,0,1-.53-1.21,30.19,30.19,0,0,1-.94-3.67c0-.63.31-1.36,1.1.21a12.92,12.92,0,0,1,1,3.78c.15.68,1,3,.78,3.25s-.89-1.2-1.41-2.36Z" transform="translate(0 0)"/>
      <path class="cls-3" d="M738.27,511.94l1.23-.74a24.17,24.17,0,0,0,1.78,2.09c1,1.11,2.21,1.54,3,2.59a11.4,11.4,0,0,0,3.92,3.32c1.9,1,2.64,1.3,2.27,1.6s-1.65-.43-1.65-.43A10.45,10.45,0,0,1,746,519a21.73,21.73,0,0,1-4.29-3.39A42.48,42.48,0,0,1,738.27,511.94Z" transform="translate(0 0)"/>
      <path class="cls-3" d="M728.32,523.71c-.86-.92-1.78-1.54-1.29-2s1.1-.42,1.9.25,3.07,2.83,4.11,3.76,1.9,1.47,3,2.27a47.68,47.68,0,0,0,4.41,2.65c1.11.61.06.68.06.68a14.24,14.24,0,0,0-1.77-.74c-.92-.31-3.56-1.48-3.56-1.48a18.85,18.85,0,0,1-2.46-1.48,35.17,35.17,0,0,1-4.35-3.87Z" transform="translate(0 0)"/>
      <path class="cls-3" d="M716.85,531.65c-.73-1.48.07-1,1.29-.55s4,3.51,5.59,4.61a28.57,28.57,0,0,0,4.29,2.22c1.35.68,1.35,1,1.29,1.35s-.61.31-1.17.06-2.45-1.35-2.45-1.35a9.32,9.32,0,0,0-1.54-.31c-.73-.06-1.78-.87-3.43-2.28s-3.13-2.27-3.87-3.75Z" transform="translate(0 0)"/>
      <path class="cls-3" d="M711.52,542.17c2,1.23,5.52,4,6.44,5.85s1.54,3.14,1.23,3.44-1.29-.31-1.72-1a18.17,18.17,0,0,0-1.35-1.85,52.63,52.63,0,0,0-4.78-4.24,12.22,12.22,0,0,1-3.87-4.43,2.83,2.83,0,0,1-.12-2.1,18.18,18.18,0,0,0,4.17,4.37Z" transform="translate(0 0)"/>
      <path class="cls-7" d="M765.57,247.8a32.54,32.54,0,0,1,12.15-3.67,37.54,37.54,0,0,1,13.82,1.54,15.27,15.27,0,0,0,8.24.3c3.8-1,6.75-4.44,7.75-8.64a7.86,7.86,0,0,1-.08,9.37A10.51,10.51,0,0,1,801.2,251c-7.43,1.5-14.72-3-20.92-3.44a16.94,16.94,0,0,0-10.61,3.39,3,3,0,0,1-3.39,0C764.29,249.77,763.72,248.89,765.57,247.8Z" transform="translate(0 0)"/>
      <path class="cls-4" d="M787,463s.73-.08,1.75-.23a21.27,21.27,0,0,0,3.88-1.17A2,2,0,0,1,795,462a66.22,66.22,0,0,0,6,3.88H792.1C789,465.86,787,463,787,463Z" transform="translate(0 0)"/>
      <path class="cls-4" d="M762.07,461.5v-.89l1.18-2.54a16.63,16.63,0,0,1,2.72,2.25c1.72,1.8,3.58,4.31,4.41,5.38,1.47,1.88,3.53,3.66,1.77.64s-2.36-4.31-3.77-6.32-2.48-2.89-2.3-3a32.38,32.38,0,0,1,5-.77,18.58,18.58,0,0,0,7.71-2.9c1.71-1,4.78-2.66,4.78-2.66s6.3,2.66,8.66,3.25,3.77.95,1.47,2.07-4.24,1.48-5.36,2.18a16.85,16.85,0,0,1-6.71,1.84c-2.12,0-5.72.05-4.31,1.53s3,4.32,4.54,8.63a29.57,29.57,0,0,1,1.59,10.05,35.86,35.86,0,0,1-.23,3.78s-2.59-2.89-9.55-7.26-9.54-5.86-10.84-6.45-2-.59-1.71-2.24.94-5.73.94-6.56Z" transform="translate(0 0)"/>
      <path class="cls-4" d="M735.51,440.36l1.29-.58a1.33,1.33,0,0,1,.32.11c.82.41,5.06,3.27,6.77,6s3.43,3,1.56,0a26.29,26.29,0,0,0-4.74-6c-.56-.5-1.07-.92-1.48-1.24a77.84,77.84,0,0,0,10.71-6.14,16,16,0,0,0,2.36,3.63A16.72,16.72,0,0,0,757,439a14.75,14.75,0,0,1-4.65-8.28,45.65,45.65,0,0,0,7-6.7,26,26,0,0,0,6,10.74c5.46,6.12,16.4,9.21,16.4,9.21s3.83.41.73,1.23-5.3,2.2-11.34,1.14-6.44-1.3-7.26-1.55-3-.08,0,1.06a42.3,42.3,0,0,0,12.73,2c2.69-.24,6.36-.81,2.53,1.23s-5.47,2.85-7.84,2.85-3.34.74-5.63.74a16.48,16.48,0,0,1-4.56-.74c-1.64-.32-2.69.24-2.69.9s2.2,2.44,2.12,6.93a38.67,38.67,0,0,1-.82,8.73,34.16,34.16,0,0,1-2,4.65c-.65,1.22-.9,2.44-1.55-.16s-2.12-6.37-2.69-8.89-.9-2.61-1.14-3.92-1.63-2.28-1,.08,1.39,5.39,1.87,7.51,1.64,6-.32,2.93-9.3-11.33-10.52-12.8-2.2-2.86-3.1-4.08-3.43-2.86-4.65-4.65a42.44,42.44,0,0,0-5.74-5.92c2.07-.88,4.26-1.8,6.57-2.84Z" transform="translate(0 0)"/>
      <path class="cls-4" d="M836.93,252.07c-.2,4.49-5.17,13.09-8,17.69s-3.6,6.44-3.12,6.74,1.66-2.05,3.22-4.1,4.59-6.84,7.13-10.46,6.24-12.22,6.73-13,.68-1.27,2-.29,3.71,10.45.78,16.91-7.32,11.13-9.17,13.38-4.3,5.77-3.9,6.06,1.07-.59,3.31-2.93,6-6.35,8.39-9.28a69.25,69.25,0,0,0,5.62-9c.35-.65.81-.47,1.15-.13.8.8,2.09,2.68,1.53,7.8-.78,7.14-4.49,11.24-7.81,14.86s-6.63,6.64-6.15,7.13,3.91-2.54,6.25-4.79,8.1-7.81,9.37-9.38,3.12-.78,3,5.38-6.93,12.41-9.75,15.83-6.35,5.47-6.06,6.15,3.13-1.07,5-2.34,8.78-5.77,10.15-6.75,2.05.88.29,6.75S850,314.9,847,317.05s-7.91,4.79-7.61,5.47,2.34-.19,5.17-1.56a57,57,0,0,1,8.68-3.32c2.44-.69,2.44,1.07,2.44,1.07a12.72,12.72,0,0,1-3.12,9A19.35,19.35,0,0,1,840.93,334c-3.91.69-4.49.88-4.39,1.47s.48.68,1.36.68,4.49.4,7.81.4,5.07.77,5.07,2.24.1,3.42-4.88,6.74-10.53,3.82-12.88,4.31-2.43.68-1.95,1.37,1.56.58,5.27,1,5.95,1.86,6.44,2.83-.29,3.92-3.32,6-6.92,2.73-12.78,2.34-7.32-.49-7.51.49,1.75,1.27,4.68,1.76,5.17.49,6.83,1.86.39,4.2-2.44,6.25-9.85,2.05-12.78,1.86-7.42-1.27-7.71-.49,2.15,2,5.17,3,3.91,1.76,4.49,3,.1,2.44-3.51,3.81-8.88,1.37-11.61.1-4.2-1.76-4.69-1.27,0,1,.59,1.66a13.4,13.4,0,0,0,5.95,3.33c3,.78,3.32.78,4.39,3.22s-1.66,4.4-7.12,4.6-12.79-2-15.13-3.33-3.22-1.66-3.61-1.17-.29.78.88,1.66,4.88,3.52,6.73,4,2.05,1.85,2.05,3.12.49,3.81-4.39,5a19.61,19.61,0,0,1-15.9-3.42,11.92,11.92,0,0,1-3.24-3,41,41,0,0,0-.4-11.58,19.19,19.19,0,0,0,5-1.22c2.93-1.17,4.1-3.9,4.79-5.37s1.65-1.47,2.83-1.08a9.53,9.53,0,0,0,4,.79,11.53,11.53,0,0,0,7.71-4c2.53-3,2-6,2.14-7.43s2.44-.39,3.61-.39a15.19,15.19,0,0,0,7.71-2.64c3.12-2.15,3.12-5.08,3.42-6.25a4.06,4.06,0,0,1,2.53-2.35,14,14,0,0,0,4.69-2.54c2.15-1.76,2.92-5.18,3-6.35s1.37-1.27,5.76-3.52,4-6.93,3.8-8.79-2.24-3.42-2.24-4.11,1.47-.87,2.93-1.76,5.17-2.34,5.27-7.81-3.52-6.06-3.52-6.06a22,22,0,0,0,2.15-1.17c1.47-.89,5.46-3.62,5.46-6.85a6.18,6.18,0,0,0-2.53-5.47,17.52,17.52,0,0,0-4-1.56,7.12,7.12,0,0,0,2.63-3.72c.78-2.54,1.08-5.66-.78-7.91s-5-2.25-6.63-2.25-3.12.88-3.71.4-.68-.88-.1-2.16a9.5,9.5,0,0,0,.2-5.47c-.49-1.07-.59-3.22-4.79-4.59s-8.58,1.47-10,2.25-.78-1.08-.78-2.44,2.83-4.79,6.05-9.68a106.49,106.49,0,0,0,8.3-14.86,96.07,96.07,0,0,0,6.44-19.44c.49-2.45,1.46-1.28,1.46-1.28s1,.4,3.22,6.06a36.56,36.56,0,0,1,2.44,15.35Z" transform="translate(0 0)"/>
      <path class="cls-4" d="M763.32,352c2.51-.13,5.78-1.51,8.29-5.16s6.29-4.53,12.82-4.41,9.56-3,11.19-7.55-.25-9.69-6.91-13S779,315,778.78,309.34s6.66-12.72,13.57-20.65,12.32-19.13,12.32-19.13a10.34,10.34,0,0,1,2,5.29c0,2.64-1,5.41,0,6.16s1.38-1.13,5.4-2.89,7.29-2,9.81.88,0,7.93-2.26,10.32-4.15,4.16-3.52,5,4-1.38,5.15-2.14,3.77-3.65,7.67-3.27,5.28,1.51,5.65,4.78-3.52,6.16-6,7.43-3.52,2.39-2.89,2.89,1.26,0,2.39-.38a11.82,11.82,0,0,1,6.28,0c2,.76,5.28,3.53,2.27,6.93s-9.31,4.66-10.56,4.9-1.89-.12-2,.88,2.64,1,6,1.14,4.4,3.4,3.9,5.92-6.16,5.28-9.3,5.79-4.28,0-4.53.88.38,1.25,2.14,1.76,5.15.88,5.78,3.65.75,4-1.89,6.42-6.91,2-8.17,1.76-2.76-1.63-4-.37,1.13,2.26,3.27,3.77,2,4.41-1.63,6.43a11.24,11.24,0,0,1-8.8.75c-1.51-.5-3.52-2.89-4.52-1.38s3.14,2,4.9,4.15,1.13,5.66-2.39,7.8-9.3.63-10.31-.25-2.26-1.25-3-.5.37,2.76,1.13,4.53,2.13,6.92-3.15,8.94-10.05-2.52-10.93-3.41a2.08,2.08,0,0,0-2.51-.62c-.76.38-.38,1.13.25,2a5.33,5.33,0,0,1-1.76,7.3,9.26,9.26,0,0,1-6.91,1.41c-.78-2.95-1.8-6.1-2.85-10.51h.79c.5,0,.61.76.61,1.06s-.16.55.3.55.5.25,1.16.71,1.25,1,1.61.75-1.36-1.16-1.81-1.71-1.37-1.41-1.42-2-.35-1-1.25-1.72a3.08,3.08,0,0,1-.68-.78c-.61-2.94-1.2-6.37-1.74-10.53-.37-2.83-.57-5.49-.65-8l1.65-.09Z" transform="translate(0 0)"/>
      <path class="cls-4" d="M870.75,273.55A57.2,57.2,0,0,1,857.2,291.3s1-2.82,1.5-4.76a12.21,12.21,0,0,0,.1-4.14s2-2.55,5.67-8.22,5.62-14,5.62-14A125.2,125.2,0,0,1,864,273a69.61,69.61,0,0,1-5.72,8.07s-1.07-3.93-1.84-4.14-1.33.41-2,1.28-1.23.78-1.23.78.91-1.87,2.31-4.12c.63-1,1.56-2.12,2.21-3.16,2.09-3.3,6.61-9.59,8.92-15.88s7.38-22,8.26-26.69,1.76-2.09,2.64,1.33A40.28,40.28,0,0,1,878.89,246a78.18,78.18,0,0,1-8.14,27.57Z" transform="translate(0 0)"/>
      <path class="cls-4" d="M863.48,304.22c-2.09,1.54-5.17,3.63-5.17,3.63a16.92,16.92,0,0,0,.79-2.5,33.64,33.64,0,0,0,.44-4.19l4.18-3.65a60.85,60.85,0,0,0,8.14-8.73c4.26-5.28.83-2.11-2.64,1.68a130.3,130.3,0,0,1-10.12,9.29s0-.08,0-1.23a4.6,4.6,0,0,0-1-2.77c-.62-.8-.29-.91,3.45-3.77s13.44-13.79,17.4-20.3,8.26-15.33,8.26-15.33,2.09,13-5.84,27.35S865.57,302.67,863.48,304.22Z" transform="translate(0 0)"/>
      <path class="cls-4" d="M821.88,386.31a5,5,0,0,1-3.16-6c0-.07,2.67.85,5.12,1.76s8.48,2.67,10.86,2.73,2.38-.27,2.45-.63-1.82,0-5.25-.63-9.46-3.79-10.51-4.49-.91-.84.63-1a6.68,6.68,0,0,0,3.43-1.33c.56-.5,2.17.21,6.1,1.12a94.31,94.31,0,0,0,18.29,2.32,72.63,72.63,0,0,0,13-1.27c1-.21,2,.35-1,5.41s-13.6,7.79-20.95,7.72-14.72-4-19.06-5.69Z" transform="translate(0 0)"/>
      <path class="cls-4" d="M841.43,375.88c-7.59.06-10.42-2.19-10.42-2.19s0-.39,1-1.94a8,8,0,0,0,.84-4.18s1.8.32,5,.77a33.61,33.61,0,0,0,10.87.19c4.06-.7,2.32-1.16-.9-.77s-9.39-.77-11.39-1.48-1.15-1.35.2-1.81a39.43,39.43,0,0,0,5-2.77,86.83,86.83,0,0,0,17.76.2c8.55-1,14-3.16,15.69-3.42s1.68.46,1.68.46.45.77-2.51,5.4-8.75,7.67-13.64,9.09a73.66,73.66,0,0,1-19.17,2.45Z" transform="translate(0 0)"/>
      <path class="cls-4" d="M843.38,358.09a7.69,7.69,0,0,0,.77-2,2.84,2.84,0,0,0-.83-2.7,57.66,57.66,0,0,1,7.39-1.23c5.67-.7,6-1.15,9.46-1.93s5.79-1.8,5.73-2.19-1.16.2-3.22,1-10.74,1.67-14.41,2.19-5.72.9-6.37.51a17.8,17.8,0,0,0-2.89-1,34.57,34.57,0,0,1,3.47-.78,12.27,12.27,0,0,0,4.7-1.87c1-.7,1.35-.9,6-1.41s8.36-2,16.66-5,14.54-6.63,16.21-8,1.55-.39,1.1,1.35-.39,3.93-4.57,8.82-6.24,7-16.79,10.89-22.39,3.35-22.39,3.35Z" transform="translate(0 0)"/>
      <path class="cls-4" d="M874.57,332.39A59.33,59.33,0,0,1,852,341.67c-.52-.61.56-2.8.06-4.13-.6-1.59-1.61-1.61-3.86-1.74s-.77-.58-.26-.58.65-.06,4.38-1,7.52-1.55,12.67-3.48,6.69-3.35,6.56-3.74-2.38,1.23-7.14,3-10.29,2.51-13.32,3.16-.38-.65,1-1.48,3.41-3.93,3.41-3.93a79.42,79.42,0,0,0,8.81-2.26A70.64,70.64,0,0,0,879,319.37c1.56-.89,3.08-2,4.72-3.2,3.13-2.25,6.27-4.54,7.5-5.43,1.87-1.35,1.28-.26,1.09.58a31.24,31.24,0,0,1-4.43,9C884.87,324.53,883.9,325.82,874.57,332.39Z" transform="translate(0 0)"/>
      <path class="cls-4" d="M876.1,313.91A61.3,61.3,0,0,1,857.64,324c-1.35.58-1.22-.19-1-1a23.14,23.14,0,0,0,.45-3.28s3.28-1.87,7-4,7.72-5,10.42-6.89,1.09-1.74.26-1-4.57,2.9-8.3,5.22-9.39,5.67-9.39,5.67a3.77,3.77,0,0,0-.9-2c-.77-.77-2.7-.58-2.7-.58A13.64,13.64,0,0,0,855,314.3c.58-.91,3.61-1.87,7-3.49s9.53-6.11,14-9.92a185.58,185.58,0,0,0,13.83-14.1c.58-.78,1-.65,1,.32s.38,1.61-.58,6S885.31,306.63,876.1,313.91Z" transform="translate(0 0)"/>
      <path class="cls-4" d="M843.55,245.07c-1,2.16-2.18,3.8-3,5.21-1.25,2.13-1.95,3.51-1.95,3.51a4.69,4.69,0,0,1-.05-2,15.84,15.84,0,0,0,.05-5.17,16.07,16.07,0,0,1-.37-3.27,15.37,15.37,0,0,1,.61-2.78c.3-1.24,1.63-6.6,2.27-10.39a84.51,84.51,0,0,0,1.27-14c0-4.78-.73-2.37-.73,0a88.81,88.81,0,0,1-1,11.32,130.94,130.94,0,0,1-3,13.79,14.6,14.6,0,0,0-.84-3.11c-.69-1.82-1.82-3.88-2.7-6.15s-.57-2.64-.57-2.64,3.22-15.46,4.07-22.76,2.21-26.51,2.21-26.51c4.73,4.75,8.24,17.27,8.87,29.1.46,8.91-1,17.16-1.39,20.51-.83,6.62-2,11.79-3.72,15.4Z" transform="translate(0 0)"/>
      <path class="cls-4" d="M854,269.46c-.14-3.5-.95-6.15-3.21-6.93a56.7,56.7,0,0,0,3.75-8.49,67.06,67.06,0,0,0,2.68-11.17c1.23-8.29,2.22-16.82-.25-2.84s-5.43,18.91-5.43,18.91L848,264.75a25,25,0,0,0,.47-7.13,45.43,45.43,0,0,0-1.34-9.56,110.47,110.47,0,0,0,7-19c2.71-10.39,4.27-19.84,4.32-25.47.25-5.45.37-7.55.37-7.55s4.44,3.34,5.93,20.28-3,33.14-5.19,39.33S854,269.46,854,269.46Z" transform="translate(0 0)"/>
      <path class="cls-4" d="M805.56,398.65s.7-.49,2.8-1.83,1.47-5.33,1.47-5.33.56.42,2.1,1.48a28.35,28.35,0,0,0,5.4,3.08c2.1.85,3.15,1.41,4.48,1.83s1-.14-.14-.78a23.23,23.23,0,0,0-4.27-2.1c-2.8-1.12-8.41-6-8.41-6s1.33-.14,3.64-.21a18.7,18.7,0,0,0,5.26-1.26s2.31,2.11,11.63,6.1a72.76,72.76,0,0,0,17.24,5.06s-1,4.77-5.47,6.39c-3.71,1.61-8.83,2.59-18.85.21a63.62,63.62,0,0,1-16.88-6.6Z" transform="translate(0 0)"/>
      <path class="cls-4" d="M793.29,408.21a8.5,8.5,0,0,1,1.47-6.67,14.29,14.29,0,0,1,1.89,1.54,28.06,28.06,0,0,0,7.36,5.61c3.92,2,5.32,1.83,1.54-.21s-9.32-7.79-9.32-7.79l1.47-.56c1.47-.56,4,.42,14.51,6.74s16.68,6.53,16.68,6.53-4.7,5.68-17.45,5.26-17.38-6.52-18.15-10.45Z" transform="translate(0 0)"/>
      <path class="cls-4" d="M769.18,403.64a14.65,14.65,0,0,0,3.29,3.22c1.9,1.27,6.94,2,6.94,2a8.47,8.47,0,0,0,1.19,1.82c1,1.27,3.15,4.29,5.4,5.9s5.74,2.67,6,2.24-2-1.26-4.2-2.59-4.14-3.79-5.61-5.48.63-1.4.63-1.4,2.67.07,5.12-.14,2,0,2.66,1.19a32.58,32.58,0,0,0,3.51,4.36c2.22,2.56,4.33,4.89,6.44,7.43,1.4,1.69.35,2.18.35,2.18s-.63,1-6.3,1.68a17.93,17.93,0,0,1-11.3-2.35,34.5,34.5,0,0,1-7.63-6.56c-6.79-7.44-6.44-13.54-6.44-13.54Z" transform="translate(0 0)"/>
      <path class="cls-4" d="M766.16,419a27.65,27.65,0,0,0,2.18,2.6,29.73,29.73,0,0,0-1.83-4.42c-.45-.75-.93-1.46-1.29-2a37.65,37.65,0,0,0,2.28-6.82c.62,2,2.56,7.95,5,11.8,2.94,4.7,5.54,6.38,3.85,7.64s-5,1.55-8.69-.28-4.62-4.83-5.13-7.31c.63-1,1.22-2,1.77-3.05a7.32,7.32,0,0,1,1.89,1.8Z" transform="translate(0 0)"/>
      <ellipse class="cls-4" cx="766.99" cy="231.33" rx="2.61" ry="2.39"/>
      <path class="cls-4" d="M772.48,226.82c-2.38-.06-3.66-1.18-6.28-.93-3.1.3-7.3,2.11-12.4,4.82A21.29,21.29,0,0,1,739.47,232a20.76,20.76,0,0,1-4.18-2c-6.2-3.52-4.7-10.44-4.7-10.44a24.36,24.36,0,0,0,15.5,4.72,14.57,14.57,0,0,0-1.3,1.2c-.9.9-2.55,1.95-2,2.41s2.8-1.71,4.7-3.11a28.18,28.18,0,0,1,9.5-4.71c4.8-1.41,10.21-1.51,13.81.49s3.9,4.52,3.4,5.53A1.72,1.72,0,0,1,772.48,226.82Z" transform="translate(0 0)"/>
      <path class="cls-4" d="M705.09,277.37a11,11,0,0,0,5.5-2.9,104,104,0,0,0,9.2-10.14c.7-1.2.4-2.31-1.3-3a7.33,7.33,0,0,1-2.9-2.91,32.41,32.41,0,0,0,6.2-3.21c2.5-1.8,8.3-7,9.1-8.33s.4-1.5-.8-1.9a2.36,2.36,0,0,1-1.5-1.21,63.43,63.43,0,0,0,5.2-3.71c2.5-2,5.9-5.32,5.9-5.32,3.75,1.51,9.63.87,12.8.31a34.15,34.15,0,0,0,9.71-3.32,17.78,17.78,0,0,0,.9,2.61c.7,1.71,3.3,2.71,5.9,1s2-5.42,2-5.42a40,40,0,0,1,6.4-2.91c4.3-1.61,7.8-1.81,11.3-.2s5.2,6.42,5.2,10-1.9,2.11-2.3,1.6-1.2-3.11-5.6-3.81-8.4,1.41-13.4,5.52-6.1,4.41-8.6,7-.5,4,3.8,5.42,9.8-1.4,10-1.3c.83.41-1.85,4.24-5.56,5.68s-8.46.51-12.15-1c-2.5-1-3,0-3.69.81-4.07,4.27-5.12,8.27-5.81,13.14a5.91,5.91,0,0,1-3.8-4.41c-.14-.82-.4-2.61-1.8-1.31s-2.5,8.53-2.5,11.84a42.85,42.85,0,0,0,1,7.72l-1-.1a16.91,16.91,0,0,1-3.4-1.7c-1.6-.91-1.7.1-1.7,1.91s-.6,5.21-3,11.33-5.9,8.13-5.9,8.13a17.89,17.89,0,0,1-1.4-3.61,48.07,48.07,0,0,1-1.21-11.24c0-4.11,1.1-12.94,1.1-12.94s-5,6.12-10.2,7.63-10.4.6-12.6-1.91-.19-3.61.91-3.92Z" transform="translate(0 0)"/>
      <path class="cls-4" d="M739.3,293.21a46,46,0,0,0,2.44,4.74,5,5,0,0,0,1.24,1.44,12.15,12.15,0,0,1-3.87,2.06c-2.3.72-4.36,1.14-4.36,1.14a31.93,31.93,0,0,0,3.49-6,24.09,24.09,0,0,0,1.06-3.35Z" transform="translate(0 0)"/>
      <path class="cls-4" d="M708.06,291.16c.77-2,1.25-3.07,1.25-3.07,3.19.64,9.24-.86,11.87-2.44,0,0-2.39,4.88-4.79,6.56a19.21,19.21,0,0,1-2.73,1.77s2.4.38,5.61-2.78a22.19,22.19,0,0,0,4.64-6.8s-.72,8.43.57,13.6,1.58,5.84,1.58,5.84a36,36,0,0,1-14.36-.91c-7.56-2.11-8.14-2.78-8.14-2.78s-.9-.24.29-1.81a40.49,40.49,0,0,0,4.21-7.18Z" transform="translate(0 0)"/>
      <path class="cls-3" d="M721.8,272.65a16.88,16.88,0,0,0,2.56-3.32,1.62,1.62,0,0,1,.12,2,24.4,24.4,0,0,1-6.29,5.35,16.24,16.24,0,0,1-4.53,1.69l.11-.47S719.47,275.32,721.8,272.65Z" transform="translate(0 0)"/>
      <path class="cls-3" d="M731,290.22s.58-10.59.58-12.16,1-1.17,1-1.17l1.16.53-2.27,15.48c-.25,1.66-1.07,1.52-1.49,1.45.83-.43,1-3.65,1-4.13Z" transform="translate(0 0)"/>
      <path class="cls-3" d="M745.31,244.39c.87-.86,2.81-1.51.94.57s-4.32,4.69-5,6.85-1.15,4.82.07,4.24,2.09-.57,3.38-1.65a21.51,21.51,0,0,1,4.76-3.17c1-.29,2.8,0,1.36,1.58a35.6,35.6,0,0,1-5.76,5.11c-2.73,2-4.32,2.88-5.76,3.89s-2.88,1.87-2.88,1.87,1.3-8.64,3.68-12.45A37.82,37.82,0,0,1,745.31,244.39Z" transform="translate(0 0)"/>
      <path class="cls-3" d="M792,389.09a12.29,12.29,0,0,0,4,1.87s1.09,0,1.09.37-1.27,0-2.6-.24a11.82,11.82,0,0,1-3.81-2.06c-.67-.48-1.64-1.09-1.33-1.94s.84.67,2.6,2Z" transform="translate(0 0)"/>
      <path class="cls-3" d="M776.92,397.16c.37.42,3.27,2.6,3.27,2.6a10.4,10.4,0,0,0,1.88,1,2.09,2.09,0,0,1,1.2.91s-.18.24-1.2-.06a24,24,0,0,1-5-3.27c-1-.85-1.4-1.09-1-1.45s.54-.12.9.3Z" transform="translate(0 0)"/>
      <path class="cls-3" d="M838,288.6c-.54.66-1.2,1.56-1.5,1.26s.06-.6.78-1.45,1.14-1.26,1.14-1.26a17.44,17.44,0,0,1,1.63-2.23c.6-.6,1.5-.91.36.48S838.56,287.93,838,288.6Z" transform="translate(0 0)"/>
      <path class="cls-3" d="M842.66,298.77c-.66.6-1.26,1.14-2,1.93s-1.26,1.62-1.68,1.2,1.08-1.32,1.74-2.17a11.7,11.7,0,0,1,2-2.05,14.11,14.11,0,0,1,1.87-1.2,27.94,27.94,0,0,1-2,2.29Z" transform="translate(0 0)"/>
      <path class="cls-3" d="M840.93,315.2c-1.15,1.21-2.84,1.57-3.08,1.09s.12-.88,1.08-1.36a32.76,32.76,0,0,0,3.31-2.05,16.91,16.91,0,0,0,2.11-1.68c.54-.54,1.18-1,1.38-.85s-1.6,2.12-2.14,2.42a15.41,15.41,0,0,0-2.66,2.43Z" transform="translate(0 0)"/>
      <path class="cls-3" d="M837.6,328.34c0-.48-.11-.72.85-.78s2.3-.24,2.3-.24,1.88-.73,2-.37-1.57,1.1-2.3,1.22a7.49,7.49,0,0,0-2.05.6c-.43.24-.8.05-.8-.43Z" transform="translate(0 0)"/>
      <path class="cls-3" d="M836.16,342.63c2.05,0,3.81-.49,3.93-.19s-1,.79-2,1.15a18.07,18.07,0,0,1-4.29.55c-1.33.06-1.57-.24-1.51-.91S834.1,342.63,836.16,342.63Z" transform="translate(0 0)"/>
      <path class="cls-3" d="M820.06,358.27c.3-.3,1-.06,2.18.18a19.85,19.85,0,0,0,4.11.55c1.09-.06,3.45-.12,3.45-.12l1.33.3c0,.3-1.75.24-4.29.54a16.45,16.45,0,0,1-5.45-.42c-1.21-.18-1.63-.73-1.33-1Z" transform="translate(0 0)"/>
      <path class="cls-3" d="M813.41,369.4a8.11,8.11,0,0,0,3.15.61,28,28,0,0,1,3.26.42s1.09.12.91.55-.54,0-1.51-.13-1.69,0-3.39-.05a20.45,20.45,0,0,1-3.69-.67c-1-.19-2.17-.73-1.63-1.4s1.63.19,2.9.67Z" transform="translate(0 0)"/>
      <path class="cls-3" d="M800.46,377.82a41.19,41.19,0,0,0,3.51,2.61,10.89,10.89,0,0,0,1.63,1c1.09.54,1,.79.85,1.09s-.85-.42-1.45-.67a24,24,0,0,1-3.63-2.42c-1-.85-2.36-1.52-2.11-2.12s.47-.18,1.2.54Z" transform="translate(0 0)"/>
      <path class="cls-3" d="M822,268.78a25.24,25.24,0,0,1-2.48,3.35c-2.23,2.79-1,.15-.48-.56s3.83-5.35,5-6.62,1.28-.64.72.15S822,268.78,822,268.78Z" transform="translate(0 0)"/>
      <path class="cls-3" d="M826.71,283.13c-.32-.32.4-.64,1.68-2.24s3.83-4.86,3.83-4.86.72-1.52.95-1.36-.87,2.55-1.91,3.59-2.39,3-3.11,3.91-1.12,1.28-1.44,1Z" transform="translate(0 0)"/>
      <path class="cls-3" d="M820.52,310c0-.78,2.53-.66,3.67-.9l3.19-.66s2.41-.42,2.47-.12-.49.6-1.81.84-3.31.84-4.81,1.08-2.71.55-2.71-.24Z" transform="translate(0 0)"/>
      <path class="cls-3" d="M826.71,295.51A21.78,21.78,0,0,1,823,298c-.88.48-1.59,1.2-2.08.64s.4-1,1.84-1.6a10.68,10.68,0,0,0,2.15-1.19s.8-.4,1.52-.8,1.92-.88.24.48Z" transform="translate(0 0)"/>
      <path class="cls-3" d="M812.27,285.93a12.86,12.86,0,0,1,1.92-1.36s1.27-1.2,1.52-.8-1.44,1.6-2.24,2.31-2.23,2.8-3,2.4S811.24,286.8,812.27,285.93Z" transform="translate(0 0)"/>
      <path class="cls-3" d="M821.7,323.42l2.3.61c.91.24,1,.66-.67.66a17.53,17.53,0,0,1-3.93-.73c-1.63-.3-2.18-.48-1.93-1s1.09-.37,1.75-.19Z" transform="translate(0 0)"/>
      <path class="cls-3" d="M819.16,337c.12.3-1.14,0-2-.31s-2.6-1.21-3.63-1.51-1-.49-1-1.09,1.09-.12,2.42.3a12.55,12.55,0,0,1,3,1.76s1.09.54,1.21.85Z" transform="translate(0 0)"/>
      <path class="cls-3" d="M801.69,345.23c-1.22-.73-1.46-1.27-1-1.64s.78-.3,1.75.49,2.84,2.12,2.84,2.12,1,.36,1.7.73,1.63,1,1.39,1.33-1.76,0-2.54-.67-2.91-1.64-4.11-2.36Z" transform="translate(0 0)"/>
      <path class="cls-3" d="M793.44,356.15c-.48-.43-1.93-.91-2.6-1.4s-1.09-1.94-.55-2.12.85.61,2,1.45,5.08,3.46,5.08,3.46l1,.42c1.09.42.6.73-.3.61a4.3,4.3,0,0,1-2.6-1C794.41,356.75,793.92,356.57,793.44,356.15Z" transform="translate(0 0)"/>
      <path class="cls-3" d="M781.23,366.49a14.61,14.61,0,0,1-3.27-2.42c-.72-.67-1.63-1.51-1.08-1.94s1.14.13,2,.91,3.09,3.15,3.09,3.15a5.62,5.62,0,0,1,1.51,1c1.21,1-.06.79-.48.36a4.55,4.55,0,0,0-1.76-1.09Z" transform="translate(0 0)"/>
      <polygon class="cls-4" points="731.47 211.29 726.54 207.79 732.34 206.31 736.06 209.27 731.47 211.29"/>
      <ellipse class="cls-3" cx="715.72" cy="207.19" rx="4.69" ry="4.53"/>
      <ellipse class="cls-4" cx="715.72" cy="206.23" rx="2.83" ry="2.71"/>
      <path class="cls-4" d="M725.52,191.64a6.87,6.87,0,0,1-2.78.25s-.48-2.08.67-3.09,2.19-1.75,2.86-2.42a10,10,0,0,0,.84-.9s0,1.8.09,2.92-.48,2.79-1.68,3.24Z" transform="translate(0 0)"/>
      <ellipse class="cls-4" cx="723.02" cy="193.92" rx="0.86" ry="0.82"/>
      <path class="cls-4" d="M729.43,193.05c.37.5,1.15,1.32,1.15,1.32a3.55,3.55,0,0,0-1.74.59,4.16,4.16,0,0,1-2.72.93,1.28,1.28,0,0,1-1.12-1.61c.19-.62.64-1.26,2.16-1.83S729.07,192.54,729.43,193.05Z" transform="translate(0 0)"/>
      <path class="cls-4" d="M726.15,198.53c3,.26,6.85-3,6.85-3,.36,2.62,2,4,4.46,4.48l-.23.11a18.58,18.58,0,0,1-5,1.6,10.43,10.43,0,0,1-3.65-.29,15.55,15.55,0,0,1-4.36-1.38c-1.78-1.1-1.25-4-1.25-4s.26,2.16,3.21,2.43Z" transform="translate(0 0)"/>
      <path class="cls-4" d="M737.64,195.57a23,23,0,0,1,3.78-1.37c.76,0,1.85-.22,1.66,1.18s-1.62,2.09-3,2.12a5.29,5.29,0,0,1-2.95-.91C736.28,196.18,736.43,196,737.64,195.57Z" transform="translate(0 0)"/>
      <path class="cls-4" d="M746.87,190.56a7.54,7.54,0,0,1,2.5-1.21s.86,2.28.37,3.68a2.48,2.48,0,0,1-2.76,1.74c-1.25,0-3.1-.68-2.57-1.63A7.41,7.41,0,0,1,746.87,190.56Z" transform="translate(0 0)"/>
      <ellipse class="cls-4" cx="745.66" cy="196.96" rx="1.02" ry="0.73"/>
      <path class="cls-4" d="M742.84,185.64c.82-3.88.68-8.1-3-13.48s-10.08-7.56-10.08-7.56a20.48,20.48,0,0,0-2.25-2.59,43.16,43.16,0,0,0-6.2-4.9s4.83,1.19,7.57,2.07c0,0,0,.09,0,.14a3.3,3.3,0,0,0,5.19,2.78c1.48.28,6.44,3.24,7.7,4.3a3.48,3.48,0,0,0-.5,1.78,3.35,3.35,0,0,0,3.31,3.37,3.26,3.26,0,0,0,1.52-.38l.42.72a34.44,34.44,0,0,1,2.37,5.42,3.51,3.51,0,0,0-1.42,2.92,3.14,3.14,0,0,0,2.81,3.37,12.07,12.07,0,0,1,.05,2.18c-.13,1.09-.54,1.77-2.45,2.31s-4.49,3.88-4.49,3.88c-.19,0-1.55-2.45-.55-6.33Z" transform="translate(0 0)"/>
      <path class="cls-4" d="M731.12,160.79a1.24,1.24,0,0,1-.27-1.92,1.79,1.79,0,0,1,2.25.13,1.26,1.26,0,0,1,.27,1.93A1.79,1.79,0,0,1,731.12,160.79Z" transform="translate(0 0)"/>
      <path class="cls-4" d="M743.45,169.13a1.68,1.68,0,0,1-.29-2.41,1.87,1.87,0,0,1,2.54.16,1.68,1.68,0,0,1,.3,2.41A1.88,1.88,0,0,1,743.45,169.13Z" transform="translate(0 0)"/>
      <ellipse class="cls-4" cx="750.8" cy="179.61" rx="1.91" ry="1.87"/>
      <path class="cls-4" d="M709.68,153.16a23.48,23.48,0,0,1,5.55,2.25h-.05c-1.9,0-3.38,1.21-3.38,2.79a3.73,3.73,0,0,0,3.63,3.29,3.26,3.26,0,0,0,3.2-3.23,2.57,2.57,0,0,0-.24-1.06c.81.51,1.67,1.06,2.6,1.68,6.06,4.09,7.49,6.06,10.48,11.65s4.09,11.71,2.8,15.32-6.07,4.35-6.13,4.35a3,3,0,0,0,.61-1.22,10.74,10.74,0,0,0-.34-2.38,15.81,15.81,0,0,1-.07-3,2.06,2.06,0,0,0-1.7.62c-.62.74-1.5,1.63-2.11,2.38a29,29,0,0,1-2.25,2.18,5.91,5.91,0,0,1-.95-3c0-1.63,1.09-3.4,1.29-6.27s-1.29-8-4.08-11.71a33.17,33.17,0,0,0-9.6-7.9,3,3,0,0,1-1.91-2.58c-.07-.68-.2-1.16-.34-2.86s1.43-1.64,3-1.3Z" transform="translate(0 0)"/>
      <path class="cls-4" d="M715.7,159.63a2.1,2.1,0,0,1-2.05-1.85,1.73,1.73,0,0,1,1.91-1.57,1.8,1.8,0,0,1,1.94,1.6A1.84,1.84,0,0,1,715.7,159.63Z" transform="translate(0 0)"/>
      <path class="cls-4" d="M706.68,195.23a4.5,4.5,0,0,1-3.88-.26,1.64,1.64,0,0,1-.12-2.6,2.94,2.94,0,0,1,3.13-.26c.85.48,2.76,1.82,2.76,1.82A4,4,0,0,1,706.68,195.23Z" transform="translate(0 0)"/>
      <path class="cls-4" d="M702,196.87a2.54,2.54,0,0,0,2.54,1.38c1.62.07,3.39,0,4.44-1.1a11,11,0,0,0,1.8-2.54l1.84,0s.59,2.55,1.4,3.25,3.64.82,4.87-.1,2.36-2.05,2.57-1.91,0,1.06-1.26,2.16a5.53,5.53,0,0,1-4.2,1.77H704.37s-2.37.13-3-1.28-.7-2.3-.38-2.65.52.25,1,1.06Z" transform="translate(0 0)"/>
      <path class="cls-4" d="M719.7,194.9c-1.75,1-2.71.38-3.35-.4a4.59,4.59,0,0,1-.75-1.13,20.14,20.14,0,0,0,2.45-1.07c.8-.47,1.34-.92,2.14-.83s.92.22.92.22a3.29,3.29,0,0,1-1.41,3.21Z" transform="translate(0 0)"/>
      <ellipse class="cls-3" cx="728.12" cy="177.71" rx="3.88" ry="3.85"/>
      <path class="cls-3" d="M721.38,164.38a3.91,3.91,0,0,1,5.1.93A3.17,3.17,0,0,1,726,170a3.92,3.92,0,0,1-5.11-.93A3.17,3.17,0,0,1,721.38,164.38Z" transform="translate(0 0)"/>
      <ellipse class="cls-4" cx="728.27" cy="177.21" rx="2.26" ry="2.15"/>
      <path class="cls-4" d="M723,164.8a2.6,2.6,0,0,1,2.76,1.1c.52.88,0,1.82-1.36,2.09-2.46.5-3.63-2.58-1.4-3.19Z" transform="translate(0 0)"/>
    </g>
  </g>
</svg>
