<svg id="Layer_1" data-name="Layer 1" xmlns="http://www.w3.org/2000/svg" width="493.89mm" height="246.94mm" viewBox="0 0 1400 700">
  <defs>
    <style>
      .cls-1 {
        fill: #1eb53a;
      }

      .cls-2 {
        fill: #0099b5;
      }

      .cls-3 {
        fill: #ce1126;
      }

      .cls-4 {
        fill: #fff;
      }
    </style>
  </defs>
  <path class="cls-1" d="M0,0H1400V700H0Z" transform="translate(0 0)"/>
  <path class="cls-2" d="M0,0H1400V350H0Z" transform="translate(0 0)"/>
  <path class="cls-3" d="M0,224H1400V476H0Z" transform="translate(0 0)"/>
  <path class="cls-4" d="M0,238H1400V462H0Z" transform="translate(0 0)"/>
  <circle class="cls-4" cx="196" cy="112" r="84"/>
  <circle class="cls-2" cx="224" cy="112" r="84"/>
  <g>
    <g id="e">
      <g id="d">
        <g id="c">
          <g id="b">
            <path id="a" class="cls-4" d="M380.8,162.4l-5.19,16,8,2.59" transform="translate(0 0)"/>
            <path class="cls-4" d="M380.8,162.4l5.19,16L378,181" transform="translate(0 0)"/>
          </g>
          <g>
            <path class="cls-4" d="M396.78,174H380v8.4" transform="translate(0 0)"/>
            <path class="cls-4" d="M396.78,174l-13.59,9.87-4.94-6.79" transform="translate(0 0)"/>
          </g>
        </g>
        <g>
          <path class="cls-4" d="M364.82,174l13.59,9.87,4.94-6.79" transform="translate(0 0)"/>
          <path class="cls-4" d="M364.82,174h16.8v8.4" transform="translate(0 0)"/>
        </g>
        <g>
          <g>
            <path class="cls-4" d="M390.67,192.79l-5.19-16-8,2.6" transform="translate(0 0)"/>
            <path class="cls-4" d="M390.67,192.79l-13.59-9.87,4.94-6.8" transform="translate(0 0)"/>
          </g>
          <g>
            <path class="cls-4" d="M370.92,192.79l13.6-9.87-4.94-6.8" transform="translate(0 0)"/>
            <path class="cls-4" d="M370.92,192.79l5.2-16,8,2.6" transform="translate(0 0)"/>
          </g>
        </g>
      </g>
      <g>
        <g>
          <g>
            <path class="cls-4" d="M380.8,95.2l-5.19,16,8,2.59" transform="translate(0 0)"/>
            <path class="cls-4" d="M380.8,95.2l5.19,16-8,2.59" transform="translate(0 0)"/>
          </g>
          <g>
            <path class="cls-4" d="M396.78,106.81H380v8.4" transform="translate(0 0)"/>
            <path class="cls-4" d="M396.78,106.81l-13.59,9.87-4.94-6.79" transform="translate(0 0)"/>
          </g>
        </g>
        <g>
          <path class="cls-4" d="M364.82,106.81l13.59,9.87,4.94-6.79" transform="translate(0 0)"/>
          <path class="cls-4" d="M364.82,106.81h16.8v8.4" transform="translate(0 0)"/>
        </g>
        <g>
          <g>
            <path class="cls-4" d="M390.67,125.59l-5.19-16-8,2.6" transform="translate(0 0)"/>
            <path class="cls-4" d="M390.67,125.59l-13.59-9.87,4.94-6.8" transform="translate(0 0)"/>
          </g>
          <g>
            <path class="cls-4" d="M370.92,125.59l13.6-9.87-4.94-6.8" transform="translate(0 0)"/>
            <path class="cls-4" d="M370.92,125.59l5.2-16,8,2.6" transform="translate(0 0)"/>
          </g>
        </g>
      </g>
      <g>
        <g>
          <g>
            <path class="cls-4" d="M380.8,28l-5.19,16,8,2.59" transform="translate(0 0)"/>
            <path class="cls-4" d="M380.8,28,386,44l-8,2.59" transform="translate(0 0)"/>
          </g>
          <g>
            <path class="cls-4" d="M396.78,39.61H380V48" transform="translate(0 0)"/>
            <path class="cls-4" d="M396.78,39.61l-13.59,9.87-4.94-6.79" transform="translate(0 0)"/>
          </g>
        </g>
        <g>
          <path class="cls-4" d="M364.82,39.61l13.59,9.87,4.94-6.79" transform="translate(0 0)"/>
          <path class="cls-4" d="M364.82,39.61h16.8V48" transform="translate(0 0)"/>
        </g>
        <g>
          <g>
            <path class="cls-4" d="M390.67,58.39l-5.19-16-8,2.6" transform="translate(0 0)"/>
            <path class="cls-4" d="M390.67,58.39l-13.59-9.87,4.94-6.8" transform="translate(0 0)"/>
          </g>
          <g>
            <path class="cls-4" d="M370.92,58.39l13.6-9.87-4.94-6.8" transform="translate(0 0)"/>
            <path class="cls-4" d="M370.92,58.39l5.2-16,8,2.6" transform="translate(0 0)"/>
          </g>
        </g>
      </g>
    </g>
    <g>
      <g>
        <g>
          <g>
            <path class="cls-4" d="M448,162.4l-5.19,16,8,2.59" transform="translate(0 0)"/>
            <path class="cls-4" d="M448,162.4l5.19,16-8,2.59" transform="translate(0 0)"/>
          </g>
          <g>
            <path class="cls-4" d="M464,174h-16.8v8.4" transform="translate(0 0)"/>
            <path class="cls-4" d="M464,174l-13.59,9.87-4.94-6.79" transform="translate(0 0)"/>
          </g>
        </g>
        <g>
          <path class="cls-4" d="M432,174l13.59,9.87,4.94-6.79" transform="translate(0 0)"/>
          <path class="cls-4" d="M432,174h16.8v8.4" transform="translate(0 0)"/>
        </g>
        <g>
          <g>
            <path class="cls-4" d="M457.87,192.79l-5.19-16-8,2.6" transform="translate(0 0)"/>
            <path class="cls-4" d="M457.87,192.79l-13.59-9.87,4.94-6.8" transform="translate(0 0)"/>
          </g>
          <g>
            <path class="cls-4" d="M438.12,192.79l13.6-9.87-4.94-6.8" transform="translate(0 0)"/>
            <path class="cls-4" d="M438.12,192.79l5.2-16,8,2.6" transform="translate(0 0)"/>
          </g>
        </g>
      </g>
      <g>
        <g>
          <g>
            <path class="cls-4" d="M448,95.2l-5.19,16,8,2.59" transform="translate(0 0)"/>
            <path class="cls-4" d="M448,95.2l5.19,16-8,2.59" transform="translate(0 0)"/>
          </g>
          <g>
            <path class="cls-4" d="M464,106.81h-16.8v8.4" transform="translate(0 0)"/>
            <path class="cls-4" d="M464,106.81l-13.59,9.87-4.94-6.79" transform="translate(0 0)"/>
          </g>
        </g>
        <g>
          <path class="cls-4" d="M432,106.81l13.59,9.87,4.94-6.79" transform="translate(0 0)"/>
          <path class="cls-4" d="M432,106.81h16.8v8.4" transform="translate(0 0)"/>
        </g>
        <g>
          <g>
            <path class="cls-4" d="M457.87,125.59l-5.19-16-8,2.6" transform="translate(0 0)"/>
            <path class="cls-4" d="M457.87,125.59l-13.59-9.87,4.94-6.8" transform="translate(0 0)"/>
          </g>
          <g>
            <path class="cls-4" d="M438.12,125.59l13.6-9.87-4.94-6.8" transform="translate(0 0)"/>
            <path class="cls-4" d="M438.12,125.59l5.2-16,8,2.6" transform="translate(0 0)"/>
          </g>
        </g>
      </g>
      <g>
        <g>
          <g>
            <path class="cls-4" d="M448,28l-5.19,16,8,2.59" transform="translate(0 0)"/>
            <path class="cls-4" d="M448,28l5.19,16-8,2.59" transform="translate(0 0)"/>
          </g>
          <g>
            <path class="cls-4" d="M464,39.61h-16.8V48" transform="translate(0 0)"/>
            <path class="cls-4" d="M464,39.61l-13.59,9.87-4.94-6.79" transform="translate(0 0)"/>
          </g>
        </g>
        <g>
          <path class="cls-4" d="M432,39.61l13.59,9.87,4.94-6.79" transform="translate(0 0)"/>
          <path class="cls-4" d="M432,39.61h16.8V48" transform="translate(0 0)"/>
        </g>
        <g>
          <g>
            <path class="cls-4" d="M457.87,58.39l-5.19-16-8,2.6" transform="translate(0 0)"/>
            <path class="cls-4" d="M457.87,58.39l-13.59-9.87,4.94-6.8" transform="translate(0 0)"/>
          </g>
          <g>
            <path class="cls-4" d="M438.12,58.39l13.6-9.87-4.94-6.8" transform="translate(0 0)"/>
            <path class="cls-4" d="M438.12,58.39l5.2-16,8,2.6" transform="translate(0 0)"/>
          </g>
        </g>
      </g>
    </g>
    <g>
      <g>
        <g>
          <g>
            <path class="cls-4" d="M515.2,162.4l-5.19,16,8,2.59" transform="translate(0 0)"/>
            <path class="cls-4" d="M515.2,162.4l5.19,16-8,2.59" transform="translate(0 0)"/>
          </g>
          <g>
            <path class="cls-4" d="M531.18,174h-16.8v8.4" transform="translate(0 0)"/>
            <path class="cls-4" d="M531.18,174l-13.59,9.87-4.94-6.79" transform="translate(0 0)"/>
          </g>
        </g>
        <g>
          <path class="cls-4" d="M499.22,174l13.59,9.87,4.94-6.79" transform="translate(0 0)"/>
          <path class="cls-4" d="M499.22,174H516v8.4" transform="translate(0 0)"/>
        </g>
        <g>
          <g>
            <path class="cls-4" d="M525.07,192.79l-5.19-16-8,2.6" transform="translate(0 0)"/>
            <path class="cls-4" d="M525.07,192.79l-13.59-9.87,4.94-6.8" transform="translate(0 0)"/>
          </g>
          <g>
            <path class="cls-4" d="M505.32,192.79l13.6-9.87-4.94-6.8" transform="translate(0 0)"/>
            <path class="cls-4" d="M505.32,192.79l5.2-16,8,2.6" transform="translate(0 0)"/>
          </g>
        </g>
      </g>
      <g>
        <g>
          <g>
            <path class="cls-4" d="M515.2,95.2l-5.19,16,8,2.59" transform="translate(0 0)"/>
            <path class="cls-4" d="M515.2,95.2l5.19,16-8,2.59" transform="translate(0 0)"/>
          </g>
          <g>
            <path class="cls-4" d="M531.18,106.81h-16.8v8.4" transform="translate(0 0)"/>
            <path class="cls-4" d="M531.18,106.81l-13.59,9.87-4.94-6.79" transform="translate(0 0)"/>
          </g>
        </g>
        <g>
          <path class="cls-4" d="M499.22,106.81l13.59,9.87,4.94-6.79" transform="translate(0 0)"/>
          <path class="cls-4" d="M499.22,106.81H516v8.4" transform="translate(0 0)"/>
        </g>
        <g>
          <g>
            <path class="cls-4" d="M525.07,125.59l-5.19-16-8,2.6" transform="translate(0 0)"/>
            <path class="cls-4" d="M525.07,125.59l-13.59-9.87,4.94-6.8" transform="translate(0 0)"/>
          </g>
          <g>
            <path class="cls-4" d="M505.32,125.59l13.6-9.87-4.94-6.8" transform="translate(0 0)"/>
            <path class="cls-4" d="M505.32,125.59l5.2-16,8,2.6" transform="translate(0 0)"/>
          </g>
        </g>
      </g>
      <g>
        <g>
          <g>
            <path class="cls-4" d="M515.2,28,510,44l8,2.59" transform="translate(0 0)"/>
            <path class="cls-4" d="M515.2,28l5.19,16-8,2.59" transform="translate(0 0)"/>
          </g>
          <g>
            <path class="cls-4" d="M531.18,39.61h-16.8V48" transform="translate(0 0)"/>
            <path class="cls-4" d="M531.18,39.61l-13.59,9.87-4.94-6.79" transform="translate(0 0)"/>
          </g>
        </g>
        <g>
          <path class="cls-4" d="M499.22,39.61l13.59,9.87,4.94-6.79" transform="translate(0 0)"/>
          <path class="cls-4" d="M499.22,39.61H516V48" transform="translate(0 0)"/>
        </g>
        <g>
          <g>
            <path class="cls-4" d="M525.07,58.39l-5.19-16-8,2.6" transform="translate(0 0)"/>
            <path class="cls-4" d="M525.07,58.39l-13.59-9.87,4.94-6.8" transform="translate(0 0)"/>
          </g>
          <g>
            <path class="cls-4" d="M505.32,58.39l13.6-9.87L514,41.72" transform="translate(0 0)"/>
            <path class="cls-4" d="M505.32,58.39l5.2-16,8,2.6" transform="translate(0 0)"/>
          </g>
        </g>
      </g>
    </g>
    <g>
      <g>
        <g>
          <path class="cls-4" d="M246.4,162.4l-5.19,16,8,2.59" transform="translate(0 0)"/>
          <path class="cls-4" d="M246.4,162.4l5.19,16-8,2.59" transform="translate(0 0)"/>
        </g>
        <g>
          <path class="cls-4" d="M262.38,174h-16.8v8.4" transform="translate(0 0)"/>
          <path class="cls-4" d="M262.38,174l-13.59,9.87-4.94-6.79" transform="translate(0 0)"/>
        </g>
      </g>
      <g>
        <path class="cls-4" d="M230.42,174,244,183.88l4.94-6.79" transform="translate(0 0)"/>
        <path class="cls-4" d="M230.42,174h16.8v8.4" transform="translate(0 0)"/>
      </g>
      <g>
        <g>
          <path class="cls-4" d="M256.27,192.79l-5.19-16-8,2.6" transform="translate(0 0)"/>
          <path class="cls-4" d="M256.27,192.79l-13.59-9.87,4.94-6.8" transform="translate(0 0)"/>
        </g>
        <g>
          <path class="cls-4" d="M236.52,192.79l13.6-9.87-4.94-6.8" transform="translate(0 0)"/>
          <path class="cls-4" d="M236.52,192.79l5.2-16,8,2.6" transform="translate(0 0)"/>
        </g>
      </g>
    </g>
    <g>
      <g>
        <g>
          <path class="cls-4" d="M313.6,162.4l-5.19,16,8,2.59" transform="translate(0 0)"/>
          <path class="cls-4" d="M313.6,162.4l5.19,16-8,2.59" transform="translate(0 0)"/>
        </g>
        <g>
          <path class="cls-4" d="M329.58,174h-16.8v8.4" transform="translate(0 0)"/>
          <path class="cls-4" d="M329.58,174,316,183.88l-4.94-6.79" transform="translate(0 0)"/>
        </g>
      </g>
      <g>
        <path class="cls-4" d="M297.62,174l13.59,9.87,4.94-6.79" transform="translate(0 0)"/>
        <path class="cls-4" d="M297.62,174h16.8v8.4" transform="translate(0 0)"/>
      </g>
      <g>
        <g>
          <path class="cls-4" d="M323.47,192.79l-5.19-16-8,2.6" transform="translate(0 0)"/>
          <path class="cls-4" d="M323.47,192.79l-13.59-9.87,4.94-6.8" transform="translate(0 0)"/>
        </g>
        <g>
          <path class="cls-4" d="M303.72,192.79l13.6-9.87-4.94-6.8" transform="translate(0 0)"/>
          <path class="cls-4" d="M303.72,192.79l5.2-16,8,2.6" transform="translate(0 0)"/>
        </g>
      </g>
    </g>
    <g>
      <g>
        <g>
          <path class="cls-4" d="M313.6,95.2l-5.19,16,8,2.59" transform="translate(0 0)"/>
          <path class="cls-4" d="M313.6,95.2l5.19,16-8,2.59" transform="translate(0 0)"/>
        </g>
        <g>
          <path class="cls-4" d="M329.58,106.81h-16.8v8.4" transform="translate(0 0)"/>
          <path class="cls-4" d="M329.58,106.81,316,116.68l-4.94-6.79" transform="translate(0 0)"/>
        </g>
      </g>
      <g>
        <path class="cls-4" d="M297.62,106.81l13.59,9.87,4.94-6.79" transform="translate(0 0)"/>
        <path class="cls-4" d="M297.62,106.81h16.8v8.4" transform="translate(0 0)"/>
      </g>
      <g>
        <g>
          <path class="cls-4" d="M323.47,125.59l-5.19-16-8,2.6" transform="translate(0 0)"/>
          <path class="cls-4" d="M323.47,125.59l-13.59-9.87,4.94-6.8" transform="translate(0 0)"/>
        </g>
        <g>
          <path class="cls-4" d="M303.72,125.59l13.6-9.87-4.94-6.8" transform="translate(0 0)"/>
          <path class="cls-4" d="M303.72,125.59l5.2-16,8,2.6" transform="translate(0 0)"/>
        </g>
      </g>
    </g>
  </g>
</svg>
