<?xml version="1.0" encoding="utf-8"?>
<!-- Generator: Adobe Illustrator 23.1.0, SVG Export Plug-In . SVG Version: 6.00 Build 0)  -->
<svg version="1.1"
	 id="svg613" xmlns:cc="http://creativecommons.org/ns#" xmlns:dc="http://purl.org/dc/elements/1.1/" xmlns:rdf="http://www.w3.org/1999/02/22-rdf-syntax-ns#" xmlns:svg="http://www.w3.org/2000/svg"
	 xmlns="http://www.w3.org/2000/svg" xmlns:xlink="http://www.w3.org/1999/xlink" x="0px" y="0px" viewBox="0 0 1400 700"
	 style="enable-background:new 0 0 1400 700;" xml:space="preserve">
<style type="text/css">
	.st0{fill:#012169;}
	.st1{stroke:#FFFFFF;stroke-width:69.9999;}
	.st2{clip-path:url(#SVGID_2_);stroke:#C8102E;stroke-width:46.6666;}
	.st3{stroke:#FFFFFF;stroke-width:116.6665;}
	.st4{stroke:#C8102E;stroke-width:69.9999;}
	.st5{fill:#128BBF;}
	.st6{fill:#E8ECE9;}
	.st7{fill:#69522B;}
	.st8{fill:#BCA76B;}
	.st9{fill:#CFA763;}
	.st10{fill:#D7C99C;}
	.st11{fill:#7FB8C1;}
	.st12{fill:none;stroke:#000000;stroke-width:2.3333;}
	.st13{fill:none;stroke:#000000;stroke-width:0.7659;stroke-miterlimit:5.2518;}
	.st14{fill:#666666;}
	.st15{fill:#BCA76B;stroke:#472B1F;stroke-width:0.4395;stroke-miterlimit:5.2518;}
	.st16{fill:#333333;stroke:#000000;stroke-width:1.5318;stroke-miterlimit:5.2518;}
	.st17{fill:#472B1F;}
	.st18{fill:#FFFFFF;}
	.st19{fill:#C8102E;}
	.st20{fill:none;stroke:#472B1F;stroke-width:1.5318;stroke-miterlimit:5.2518;}
	.st21{fill:#BCA76B;stroke:#472B1F;stroke-width:0.4595;stroke-miterlimit:5.2518;}
	.st22{fill:#BCA76B;stroke:#472B1F;stroke-width:0.4436;stroke-miterlimit:5.2518;}
	.st23{fill:#BCA76B;stroke:#472B1F;stroke-width:0.6088;stroke-miterlimit:5.2518;}
	.st24{fill:#BCA76B;stroke:#472B1F;stroke-width:0.7439;stroke-miterlimit:5.2518;}
	.st25{fill:#BCA76B;stroke:#472B1F;stroke-width:0.637;stroke-miterlimit:5.2518;}
	.st26{fill:#BCA76B;stroke:#472B1F;stroke-width:0.6167;stroke-miterlimit:5.2518;}
	.st27{fill:#BCA76B;stroke:#472B1F;stroke-width:0.6498;stroke-miterlimit:5.2518;}
	.st28{fill:#BCA76B;stroke:#472B1F;stroke-width:0.7941;stroke-miterlimit:5.2518;}
	.st29{fill:#BCA76B;stroke:#472B1F;stroke-width:0.6799;stroke-miterlimit:5.2518;}
	.st30{fill:#BCA76B;stroke:#472B1F;stroke-width:0.6582;stroke-miterlimit:5.2518;}
	.st31{fill:#BCA76B;stroke:#472B1F;stroke-width:0.6662;stroke-miterlimit:5.2518;}
	.st32{fill:#BCA76B;stroke:#472B1F;stroke-width:0.8141;stroke-miterlimit:5.2518;}
	.st33{fill:#BCA76B;stroke:#472B1F;stroke-width:0.6971;stroke-miterlimit:5.2518;}
	.st34{fill:#BCA76B;stroke:#472B1F;stroke-width:0.6748;stroke-miterlimit:5.2518;}
	.st35{fill:#BCA76B;stroke:#472B1F;stroke-width:0.392;stroke-miterlimit:5.2518;}
	.st36{stroke:#000000;stroke-width:0.4595;stroke-miterlimit:5.2518;}
	.st37{fill:#BCA76B;stroke:#472B1F;stroke-width:0.4413;stroke-miterlimit:5.2518;}
	.st38{fill:#BCA76B;stroke:#472B1F;stroke-width:0.3808;stroke-miterlimit:5.2518;}
	.st39{fill:#BCA76B;stroke:#472B1F;stroke-width:0.3477;stroke-miterlimit:5.2518;}
	.st40{fill:#BCA76B;stroke:#472B1F;stroke-width:0.3753;stroke-miterlimit:5.2518;}
	.st41{fill:#333333;}
	.st42{fill:#BCA76B;stroke:#472B1F;stroke-width:0.4107;stroke-miterlimit:5.2518;}
	.st43{fill:#BCA76B;stroke:#472B1F;stroke-width:0.5315;stroke-miterlimit:5.2518;}
	.st44{stroke:#000000;stroke-width:1.0722;stroke-miterlimit:5.2518;}
	.st45{fill:#BCA76B;stroke:#472B1F;stroke-width:0.5058;stroke-miterlimit:5.2518;}
	.st46{fill:#BCA76B;stroke:#472B1F;stroke-width:0.6181;stroke-miterlimit:5.2518;}
	.st47{fill:#BCA76B;stroke:#472B1F;stroke-width:0.5292;stroke-miterlimit:5.2518;}
	.st48{fill:#BCA76B;stroke:#472B1F;stroke-width:0.5123;stroke-miterlimit:5.2518;}
	.st49{fill:#BCA76B;stroke:#472B1F;stroke-width:0.7016;stroke-miterlimit:5.2518;}
	.st50{fill:#BCA76B;stroke:#472B1F;stroke-width:0.5843;stroke-miterlimit:5.2518;}
	.st51{fill:#BCA76B;stroke:#472B1F;stroke-width:0.5972;stroke-miterlimit:5.2518;}
	.st52{fill:#BCA76B;stroke:#472B1F;stroke-width:0.6122;stroke-miterlimit:5.2518;}
	.st53{fill:#BCA76B;stroke:#472B1F;stroke-width:0.8757;stroke-miterlimit:5.2518;}
	.st54{fill:#BCA76B;stroke:#472B1F;stroke-width:0.6406;stroke-miterlimit:5.2518;}
	.st55{fill:#BCA76B;stroke:#472B1F;stroke-width:0.6351;stroke-miterlimit:5.2518;}
	.st56{fill:#BCA76B;stroke:#472B1F;stroke-width:0.663;stroke-miterlimit:5.2518;}
	.st57{fill:#BCA76B;stroke:#472B1F;stroke-width:0.8101;stroke-miterlimit:5.2518;}
	.st58{fill:#BCA76B;stroke:#472B1F;stroke-width:0.6937;stroke-miterlimit:5.2518;}
	.st59{fill:#BCA76B;stroke:#472B1F;stroke-width:0.7333;stroke-miterlimit:5.2518;}
	.st60{fill:#BCA76B;stroke:#472B1F;stroke-width:0.3196;stroke-miterlimit:5.2518;}
	.st61{fill:#BCA76B;stroke:#472B1F;stroke-width:0.3291;stroke-miterlimit:5.2518;}
	.st62{fill:none;stroke:#000000;stroke-width:1.5318;stroke-miterlimit:5.2518;}
	.st63{fill:#69737C;stroke:#000000;stroke-width:0.8502;stroke-miterlimit:1.9433;}
	.st64{fill:#66452B;stroke:#000000;stroke-width:0.8502;stroke-miterlimit:1.9433;}
	.st65{fill:#69737C;}
	.st66{fill:none;stroke:#000000;stroke-width:0.8502;stroke-miterlimit:1.9433;}
	.st67{stroke:#000000;stroke-width:0.5668;stroke-miterlimit:1.9433;}
</style>
<path id="path5" class="st0" d="M0,0h1400v700H0V0z"/>
<path id="path7" class="st1" d="M0,0l700,350 M700,0L0,350"/>
<g>
	<defs>
		<path id="SVGID_1_" d="M0,0v175h816.7v175H700L0,0z M700,0H350v408.3H0V350L700,0z"/>
	</defs>
	<clipPath id="SVGID_2_">
		<use xlink:href="#SVGID_1_"  style="overflow:visible;"/>
	</clipPath>
	<path id="path9" class="st2" d="M0,0l700,350 M700,0L0,350"/>
</g>
<path id="path11" class="st3" d="M350,0v408.3 M0,175h816.7"/>
<path id="path13" class="st4" d="M350,0v408.3 M0,175h816.7"/>
<path id="path15" class="st0" d="M0,350h700V0h700v700H0V350z"/>
<path id="path17" class="st5" d="M1166.1,299.8c-0.2,79.2-12.8,164.4-116.1,205.1C946.8,464.3,934.2,379,933.9,299.8H1166.1z"/>
<path id="path19" class="st6" d="M1050,504.9c46.8-18.4,75.8-48.5,92.6-80.5c-2.7-0.9-7.9-1-10.1-0.2c-2.5-0.2-99.8-7.3-111.2-11.5
	c-9.9-3.6-47.9,3.1-65.6,9.3C972.3,456.1,1000.9,485.6,1050,504.9z"/>
<path id="path21" class="st7" d="M977.8,455.8c1.6-0.5,4.6-0.4,5.8-0.2c1.4,0.3,1.7,0.4,2.2-1.1c0.5-1.5,1.7-1.1,2.5-0.4
	c0.9,0.8,3.2,0.4,4.1-0.9c0.9-1.3,1.1-1.1,2-0.3c0.9,0.9,1.3,0.6,2.2,0.4c0.9-0.2,2.4-1.3,3.2-2.6c0.8-1.4,1.9-1.9,2.5-1.1
	c0.6,0.8,1.3,1.1,2.2,1c0.9-0.1,1.1,0.8,1,1.9c-0.1,1.1,0.4,1.4,2.5-0.4c1.9,1.9,2.5,1.1,2.5-0.9c0-2-0.5-9.4-1.3-10.5
	c-0.8-1-1.5-3.9-1.7-6.2c-0.2-4.3-0.3-4.5-5.5-7.2c0-1.5-0.4-2.1-4.1-1.9c0.1-0.5-0.5-2-1.3-2.6c-0.8-0.6-0.9-0.9-0.5-2.6
	c1.5,0.1,3.2-0.1,4.1-1.4c0.9-1.3,3.8-1,5.6-0.3c1.8,0.8,4.1,0.9,7.5,0.4c1.3-1,3.4-2.1,5.7-3.4c2.3-1.3,2.9-1.8,3-3.5
	c0.3-4.5-1.3-9.7-2.5-12.1c-1.3-2.4-1.6-5.4-3.4-9.2c-1.9-4.1-1.9-5.2-4.1-7.7c-0.6-0.7-1.3-1.3-1.4-2.6c-0.1-1.4-0.6-3.3-2.2-4.7
	c-3.8-3.5-5.3-14.7-6.9-23.1c-0.9-4.8-0.3-16-2.3-17.8c-3.4-2.8-5.1-2.3-7.4-3.2c-1.7-2.3-2.4-6.8-3.9-10.8
	c-2.4,0.4-4.1,2.9-5.7,3.8c-1.7,0.9-1.9,0.9-1.9,3.2c0,2.3-1.3,5.4-3.6,8.9c-2.3,3.5-6.1,2.5-9.3,7.8c-7-8.4-7.1-10.8-7.6-13.2
	c-0.5-2.4-1.7-2.9-5.6-6.3c0-1-0.5-5-0.1-7.3c-2.9-2.4-5.1-2-6.5-0.3c-1.4,1.8-2.4,4.4-4.6,5.4c-1.3,1.6-5.2,5.8-8.4,10.7
	C937.9,377.5,947.9,421,977.8,455.8L977.8,455.8z"/>
<path id="path23" class="st8" d="M1166.1,299.8c0.1-29.8-1.6-58.8-0.8-84.1c-38.6-17.1-89.3-20.7-115.2-20.7
	c-25.9,0-76.7,3.5-115.2,20.7c0.8,25.4-0.9,54.3-0.8,84.1H1166.1z"/>
<path id="path27" class="st9" d="M940.2,334.4c1.3,2,3.6,5.5,3.8,7.4c0.9-1.8,1.6-2.6,1.8-3.8c0.2-1.1,1.5-3.3,1-4.5
	c-0.5-1.2-0.9-2.1,0.5-1.3c1.4,0.9,1.1,2.4,0.8,4.7c-0.8,6.2-3.4,7.4-3.8,11.6c3.7,8.8,1,11.9,5,20.5c0.6,0.4,2.3-0.3,2.8-0.2
	c2.2-1.5,3.8-1,6.8-0.3c3,0.6,4.7,2.8,4.7,4.7c0,1.9,0,2.4,0.6,3.5c0.6,1.1,1.9,2.9,1.7,4.2c-0.3,1.3,0.3,2,0.6,2.6
	c0.4,0.6-0.1,2-0.5,2.9c-0.4,0.9-0.3,2,1.3,3.9c1.5,1.9,5.1,9.8,5.1,14.5c0,4.7,0.3,6.8,2.2,7.7c1.9,0.9,2.5,1.6,2.3,3.7
	c-0.3,2,0.9,12.5,1.1,14.1c0.3,1.6,0.9,1.3,1.7,2.1c0.8,0.9,1.3,1.9,3.8,1.9s5-0.3,6.6-0.1c2.3,3.2,3.7,7.4,4.2,10.1
	c0.5,2.6,0.5,6.3,1.4,6.3c0.9,0,1.8,0.1,1.5-3.2c-0.3-3.3-0.5-3.8-1.7-5.4c-1.1-1.6-1.8-2.4-1.1-3.4c0.6-1,0.8-2.6,0.5-3.9
	c-0.3-1.3-0.6-3.1,1.5-0.6c2.2,2.5,2.8,3.2,3.4,4c0.6,0.9,0.9,2.5,0.8,4c-0.1,1.5,0.1,2.1,1,1.4c0.9-0.8,2,0.5,1.5,2.1
	c-0.5,1.6,0.1,2.6,1.7,3.2c1.5,0.5,2.2,0.9,2.5,2c0.4,1.1,1.7,1.6,1.7-0.6c0-2.3-0.9-7.1-1.5-8.6c-0.6-1.5-1.1-4.8-1.3-6.7
	c-0.1-1.9-0.5-2.4-1.4-2.8c-0.9-0.4-1.7-1-1.8-1.9c-0.1-0.9-0.9-1.2-1.5-1.2c-0.6,0-1.1-0.4-1.4-1.1c-0.3-0.6-0.6-0.7-1.3-0.8
	c-0.6-0.1-1.7,0.3-2-0.7c-0.3-1-0.8-2.5-1.4-3.3c-0.6-0.8-1.2-1.1-1.3-3.9c-0.1-2.8-0.1-3.2-1-4.2c-0.9-1-2.4-3.6-3-4.8
	c-0.6-1.1-1.3-2.3-1.3,0.1c0,2.4,0,3.6,1.5,4.5c1.5,0.9,1.9,0.9,1.3,2.1c-0.6,1.3,0,2.1,0.3,3c0.3,0.9,0.8,1.8,0,2.6
	c-0.8,0.9-1.5,0.6-1.4-0.8c0.1-1.4-0.4-3-1-4.2c-0.6-1.1-1.1-1.9-1.9-1.3c-0.8,0.6-1.4-0.1-0.9-0.6c0.5-0.5,0.4-0.9,0-1.3
	c-0.4-0.4-0.5-0.8,0.1-1.5c0.6-0.8,0.6-1.1,0.3-2.9c-0.4-1.8-3.2-10.6-4.4-12.6s-1.1-3.5,0.5-1.5c1.7,2,3,3.8,3.2,5.4
	c0.1,1.6,0.5,2.6,1,3.3c0.5,0.6,0.9,0.4,1.1-1c0.3-1.4,1.3-0.9-0.5-3.5c-1.8-2.6-5.1-7.1-6.3-15c-1.3-7.9-1.8-13.2-3-15.4
	c-1.3-2.1-1.6-2.6-1.8-4.7c-0.1-2,0-4-0.9-5.5c-0.9-1.5-1.5-1.8-1.7,0.5c-0.1,2.3,0.1,7.3,0.8,8.2c0.6,0.9,0.3,3.1,0.1,4.4
	c-0.1,1.3-2.1,2.5,2,5c1.7,1,1.4,2.4,1.1,3.3c-0.3,0.9-0.5,0.8-1.4-0.6c-0.9-1.4-1.8-2.5-2.7-3.3c-0.9-0.8-1-1.3-0.9-3s0.5-3,0-3.6
	c-0.5-0.6-0.8-0.1-1,0.9c-0.3,1-0.5,3.8-1,4.5c-0.5,0.8-0.8,0.3-1.1-1.4c-0.4-1.6,0.1-4.2,1-7.1c0.9-2.9,1.4-5.9,0.6-9.7
	c-0.8-3.8-0.4-4.9-3.3-8.1c-2.9-3.2-6.2-6.2-7.6-10.1c-1.4-3.9-1.7-7.3-3.2-9.1c-1.5-1.8-3.7-4-5.1-4.7c0-3,0-4.4,0-5.8
	c0-1.4-0.6-2.3-2.3-2c-1.7,0.3-2.7,1.6-3.7,3.5c-1,1.9-1.8,1-3.2,4.3C942.3,329.2,940.2,330.8,940.2,334.4L940.2,334.4z"/>
<path id="path29" class="st9" d="M949.4,371.3c1,0.6,2,1.1,3.5,0.3c1.5-0.8,3.3-2.9,5.4-0.8c2,2.1,3.2,5.7,3.2,8.4
	c0,2.8,0,7.9,3.2,10.8c3.2,2.9,4.8,5.9,4.9,9.7c0.1,3.8,1.5,9.6,1.9,11.1c0.4,1.5,1.3,3.3,2.3,4.3c1,1,1.8,3.9,1.9,6.9
	c0.1,3-0.4,5.2,0,6.7c0.4,1.5,0,2.8-1.1,2c-1.1-0.8-1.4-1.1-2-2.4c-0.6-1.3-1.4-1-0.8,0.9c0.6,1.9,2.5,3.6,4.2,3.6s2.2,0.3,3.2,1.3
	c1,1,1.1,1.5,2.9,1.5c1.8,0,2,0,3.7,0.5c1.7,0.5,1.7,0.3,2.5,0c0.9-0.3,1.8,0.5,2.4,2.1c0.6,1.6,2.2,6.2,2.2,7.4
	c0,1.3,0,2.5,0.9,3.8c0.9,1.3,0.6,2.5-0.4,1.8c-1-0.8-1-0.5-1.8-0.4c-0.8,0.1-1.3-0.3-2.3-0.9c-1-0.6-0.4-0.5-1.4-2
	c-1-1.5-1.7-2-1.7-0.9s-0.1,2.5-0.9,1.9c-0.8-0.6-1.1-0.6-1.8,0c-0.6,0.6-0.9,1.1-1.7-0.1c-0.8-1.3-1.7-1.3-2.4-1.5
	c-0.8-0.3-0.8-0.3-1.1-1.4c-0.4-1.1-1.5-1.4-2.5-1.4c-1,0-1.5-0.5-1.7-1.3c-0.1-0.8-0.8-1.3-1.3-1.6c-0.5-0.4-0.3-1.3-0.4-2.1
	s-0.9-0.5-1.4-0.8c-0.5-0.3-0.9-0.1-0.9-1.4s-0.5-1.6-0.9-2.5c-0.4-0.9,0-1.8,0.3-2.8c0.3-1,0.1-1.6-0.6-2.5
	c-0.8-0.9-0.1-1.8-2.2-3.5c-2-1.8-3-0.3-3.7-4.4c-0.6-4.2-1.9-12.7-3-14.1c-1.1-1.4-1.9-2.4-3-2.8c-1.1-0.4-1.9-0.1-2-2.5
	c-0.1-2.4-0.9-5.4-2.4-6.9c-1.5-1.5-2.2-2-2.9-2.6c-0.8-0.6-1-1.8,0-3.9c1-2.1,0.6-5,0.5-6.4c-0.1-1.4-0.5-3.1-0.3-4.7
	c0.3-1.5,0.1-3.4-0.3-4.4C949.2,372.3,948.7,372,949.4,371.3L949.4,371.3z"/>
<path id="path95" class="st10" d="M987.9,440.2c-0.8,1.5-1.7,1-2.4,0.3c-0.8-0.8-1.7-0.8-1.3-2.1c0.4-1.4,0.3-1.6-0.8-2.4
	c-0.1-0.1-0.2-0.2-0.4-0.2c-0.3,0-0.7,0-1.2,0c-1.8,0-1.9-0.5-2.9-1.5c-0.2-0.2-0.4-0.4-0.6-0.6c0,0.2,0,0.6,0,0.9
	c0,1.4,0,1.1-1.4,1.5c-1.4,0.4-1.1-1.4-1.4-2.5c-0.1-0.3-0.1-0.5-0.2-0.7c-1.5-0.3-3.1-1.9-3.7-3.6c-0.6-1.9,0.1-2.1,0.8-0.9
	s0.9,1.6,2,2.4c1.1,0.8,1.5-0.5,1.1-2c-0.1-0.5-0.2-1-0.1-1.7c-0.3-0.5-0.6-0.9-1.1-1.1c-2-0.9-1.4-1.1-1.3-2.8
	c0.1-1.6-0.3-1.6-1.5-0.8c-1.3,0.9-1.4-0.1-1.4-2.6c0-2.5-1.7-2.5-2-0.8c-0.4,1.8-1,0.6-1.8-1.9c-0.8-2.5-1.8-3.2-1.9-0.8
	c-0.1,2-0.7,2.5-2,1.4c0.2,1.5,0.4,2.8,0.6,3.9c0.6,4.2,1.7,2.6,3.7,4.4c2,1.8,1.4,2.6,2.2,3.5c0.8,0.9,0.9,1.5,0.6,2.5
	c-0.3,1-0.6,1.9-0.3,2.8c0.4,0.9,0.9,1.3,0.9,2.5c0,1.3,0.4,1.1,0.9,1.4c0.3,0.2,0.7,0.1,1,0.2c0.3-0.4,0.6-0.9,1-1.3
	c1.5-1.5,3.8,0.1,4.6,2c0.8,1.9,1.6,2.4,2.8,0.9c1.1-1.5,0.8-1.3,2,0.1c1.3,1.4,1.8,1.1,1.8,1.1s1.3-0.5,2.2,0.3s1.4,0.6,3-1.8
	C991.1,437.9,988.7,438.7,987.9,440.2L987.9,440.2z"/>
<g id="g187" transform="translate(-8e-5,-2.56e-4)">
	<path id="path97" class="st11" d="M989.1,457.8c3-0.3,11.3-2.6,12.2-3.4c2,1.4,5.6,3.3,7.1,3.3c-2.9,0.6-4.8,0.3-5.6-0.3
		c0.4,0.9,1.4,2.3,2,2.4c-2.8-0.1-6-0.8-7-1.8C995.4,459.1,991.4,459.3,989.1,457.8L989.1,457.8z"/>
	<path id="path99" class="st11" d="M994.5,461.6c1.1,0.3,6.5,1.2,7.2,1.2c-1.8,1.5-0.3,3,2.7,2.7c-1.5,0.2-3.1,0.7-2,0.9
		c2.6,0.5,9.6-1.4,11-2.1C1011.1,467.4,999.4,470.2,994.5,461.6L994.5,461.6z"/>
	<path id="path101" class="st11" d="M999.4,469.3c1.5-0.8,5.1-0.5,6.8,0.3C1004.2,470.3,1000.5,470.3,999.4,469.3z"/>
	<path id="path103" class="st11" d="M1004.8,469.1c2.6-0.4,10,1.3,12.6-0.3c-0.9,2.3-5.5,2.6-7.1,2.1c-1.6-0.5-3.1-1.1-4.2-1.1
		C1006.7,469.6,1005.7,469.6,1004.8,469.1L1004.8,469.1z"/>
	<path id="path105" class="st11" d="M1007.5,472.7c2,0.3,9-0.6,11.2-1.4c2.3,0.8,6.8,1.9,7.8,1.8c-2.2,1.3-6.3,0.6-7.6,0
		C1015,474.4,1011.9,474.8,1007.5,472.7z"/>
	<path id="path107" class="st11" d="M1010.8,473.9c2.8,0.6,5.2,0.2,8-0.7c0.9,0.4,2.9,0.8,4.8,0.7c1.3,0.7,3,1.7,4.6,1.9
		c-1.7,0.7-8,0-9.3-0.7c-3.2,0.1-8.6,0.8-10,1.8C1009,476,1009.6,474.8,1010.8,473.9z"/>
	<path id="path109" class="st11" d="M1007.5,459.7c2.2,0.7,10.2,0.4,14.2-1.5c1.6-0.7,2.6,0.5,0.8,1.1c-6.6,2.3-11.8,3.2-15.6,1.1
		C1005.3,459.6,1005.2,458.9,1007.5,459.7L1007.5,459.7z"/>
	<path id="path111" class="st11" d="M1046.4,449c-9.8,4.5-16.2,5.9-29.8,1.8c-1.3-0.4-2.2,0-0.8,0.9c1.4,0.9,8.9,2.9,10.7,3
		c1.8,0.1,1.1,0.9,0.1,1.3c-1.1,0.3-1.4,1.1,0.1,0.5c1.5-0.6,9.6-0.8,12.9,0.9c1.5,0.8,1.8,0.6,1.7,0.1c-0.1-0.6,0.6-0.9,1.7-1.1
		c1.1-0.1,1.7-0.5,0.9-0.8c-0.8-0.3-1-0.5-0.3-0.8c0.6-0.3,0.7-0.6-0.3-0.8c-1-0.2-1.6-0.4-0.7-0.9c0.9-0.4,2.2-0.8,3.2-0.9
		C1046.1,451.4,1045.7,449.6,1046.4,449z"/>
	<path id="path113" class="st11" d="M1030.2,450.1c5.6,0.4,15.9-2.1,21.3-7.4c1.9,1.1,4.6,2.4,6,2.6c1.4,0.3,2.7,1.5,0.5,1.5
		s-5.2-0.9-6.6-1.5c-7.2,4.4-15.7,5.9-21.1,5.4C1028.8,450.6,1028.4,450,1030.2,450.1z"/>
	<path id="path115" class="st11" d="M1021.4,434.4c-0.8,0.1-4,0.9-4.9,0.8c-0.9-0.1-1.8,0.2-1.7,0.8c0.1,0.6,0.3,1-1,0.9
		c-1.3-0.1-2.5,0.4-2.8,0.8s-0.6,0.8,0.8,0.9c1.3,0.1,2,0.3,3.6-0.4c1.5-0.7,3-1.8,4.6-1.8C1021.6,436.2,1023.2,434.1,1021.4,434.4z
		"/>
	<path id="path117" class="st11" d="M1016.8,438.3c1.4,0.9,8.2,3.2,10.7,3c2.5-0.2,2,1,0.1,1.4c-3.9,0.8-8.6-0.9-11.8-3.4
		C1014.3,438,1015.7,437.6,1016.8,438.3L1016.8,438.3z"/>
	<path id="path119" class="st11" d="M1049.3,441.6c-5.2,1.7-10.6,1.1-12.8,0.5c-2.2-0.6-4.1-0.7-2.7,0.7c1.5,1.4,6.2,2.3,8.8,1.6
		c-9.5,2.1-11.9,2-14.3,1.6c-2.3-0.4-6.8-0.3-8.6-0.1c-1.4,0.1-3.3-0.1-4.1-0.6c-0.8-0.5-1.1-1.4,1.4-1.2c2.5,0.3,2.8-0.3,0.6-0.6
		c-2.2-0.3-5.1,0.6-2.2,2.4c2.9,1.8,9.3-0.1,13.4,1c4.1,1.1,12.7,2,20.9-4.6C1050.2,442,1050.9,441.1,1049.3,441.6L1049.3,441.6z"/>
	<path id="path121" class="st11" d="M1037.1,436.4c-1.1,0.1-3-0.6-4-1.1s-2.5-0.5-1.4,0.9c1.1,1.4,5.8,2.3,7.4,1.6
		c1.7-0.7,1-1.4,2.6-0.4c1.7,1,3.4,1.7,4.6,1.7s1.7,0,0.3-0.8c-1.3-0.8-2-0.9-2.1-1.6c-0.1-0.6-0.3-1,0.9-0.6s2.6,1.1,3.6,0.6
		c1-0.5,2.7-1.6,4.3-1.6l0.4-0.9c-2.3-0.2-3.7,0.5-4.4,0.8s-1.8,0.4-3,0.2c-1.2-0.2-2.8-0.3-3.2-0.6c-0.4-0.3-0.4-0.6,0.6-0.8
		c1-0.2,1.3-0.9-0.1-0.6c-1.4,0.3-5.1,0.1-7.1-0.5c-2-0.6-2.8-0.7-3.6-0.4c-0.8,0.3-0.7,1.2,0.5,1.3c1.2,0.1,3.9,0.3,4.9,1.2
		c1,0.9,0.8,0.9-0.3,0.5C1037,434.7,1035,434.9,1037.1,436.4L1037.1,436.4z"/>
	<path id="path123" class="st11" d="M1083,433c-3.8,2.8-8.4,3.4-13.8,3.8c-1.6,0.1-1.1,0.6,0.3,0.7c5.7,0.6,12.3-1.5,14.5-3.8
		C1084.5,433,1084.4,431.9,1083,433z"/>
	<path id="path125" class="st11" d="M1057,439.4c1.7,0.1,7.4,1.5,9.2,2.1c1.4-0.1,1.8-0.4,1.5-0.9c-0.3-0.5-0.4-1.1,2.1-0.9
		c2.5,0.1,8.4,0.1,9.5,0.1c0.9-0.4,2.9-1.9,3.7-2c-2.3,0.1-11.8,0.6-13,0.5c-1.2-0.1-1.8,0-2.6,0.4c-0.8,0.4-1.2,0.6-2.2,0.3
		c-1-0.4-2.7-0.9-3.6-0.3C1060.7,439.2,1058.8,438.7,1057,439.4L1057,439.4z"/>
	<path id="path127" class="st11" d="M1079.3,439.7c0.9-0.4,2.9-1.9,3.7-2c1.7-0.1,3.6,0.6,4.4,0.7s1.8-0.1,1.2-0.8
		c-0.6-0.7-0.1-1.9,2.5-1.6c2.6,0.3,3.9,0.8,6.5,0.5c2.5-0.3,3.7,1.6,8.5-0.3c-0.4,1.9,0.5,2,1.4,1.6c0.9-0.4,1.9-0.3,3.4,0.9
		s10.8,1.3,12.9,0.9c2.2-0.4,3.3,0.8,1.6,1.3c-1.6,0.5-2,1.3-1.6,1.8c0.4,0.5,0.8,1.1-1.3,0.9c-2-0.3-2.4,0.4-3.4,1.1
		c-1,0.8-1.3,1-4.1,0.5c-2.8-0.5-3.3-0.1-4.8,0.1c-1.5,0.3-1.9,0.3-3.4-0.3c-1.5-0.5-4.8-1-6.9-0.4c-2,0.6-3.6,1.3-5.3,0.8
		c-1.8-0.5-1.9-0.3-0.8-1.4c1.1-1.1,1.4-1,3.6-1.3c2.2-0.2,3.8-0.9,2.3-1.8s-2-0.8-4.1,0.3c-2,1-3,1.6-5.3,0.4c-2.3-1.3-3.4-1-5-0.6
		C1084,441.5,1081.5,440.7,1079.3,439.7L1079.3,439.7z"/>
	<path id="path129" class="st11" d="M1086.9,443.5c-2.9,0.4-3.7-1.4-6.7-1.1c-1,0.1-2.7,1.4-0.4,1.2c2.3-0.2,4.9,1.1,7.2,0.9
		C1089.3,444.3,1088.3,443.3,1086.9,443.5z"/>
	<path id="path131" class="st11" d="M1083.6,445.7c1.5-0.6,4.7,0.5,6,0.3c1.3-0.3,2.6,0.6,1.2,1c-1.4,0.4-4.8-0.8-6.3-0.4
		C1083,447,1081.5,446.5,1083.6,445.7L1083.6,445.7z"/>
	<path id="path133" class="st11" d="M1053.2,453.8c2.1,0.1,9.6-0.3,12.6-6.5c0.2-0.5,0.4-0.7,1.4-0.1c1,0.6,4.4,2.7,11,3.3
		c1.8,0.2,3.8,1.1,0.1,0.8c-3.7-0.3-9.5-1.3-11.5-2.5c-3.3,5.2-9.2,5.8-13.6,5.7C1050.6,454.5,1051.2,453.8,1053.2,453.8
		L1053.2,453.8z"/>
	<path id="path135" class="st11" d="M1069.5,445.3c-1,1.4-4.5,3.8-6.1,3.9c-1.6,0.1-6.3-0.3-7.5-0.8c-1.2-0.4-2.7-0.3-1,0.9
		c1.7,1.2,6,2,7.7,1.6c1.7-0.4,3.7-0.9,5-0.1c1.3,0.8,3.8,2.4,5.3,2.1c1.5-0.3,4.4-0.3,5.4,0.1c1,0.4,2.6,1.8,0.1,1
		s-4.5-0.1-5.7-0.6c1.3,1.8,4.2,4.6,6.6,4.6c0.6,0,1,1-0.3,1.6c1.2,0.6,4,1,5.5-0.3c-0.4,0.5-0.2,0.8,0.4,1.1s1.4,0.8,0.3,0.9
		c-1.1,0.1-3.7,0.4-4.5,0.1c2.5,1.6,8.9,4.1,15.4,2.8c1.2-0.2,1.9-0.8-0.1-0.7c-4.2,0.1-4.4,0.1-5.2-0.4c-0.8-0.4-0.6-0.8,0.6-1.2
		c1.2-0.4,4.2-0.8,5.5-0.8c1.3,0,2.5-0.5-0.1-0.5s-5.8,0-7-0.4c-1.3-0.4-2.2-1-0.9-1.9c1.3-0.9,2.7-0.6,3.4-1.4
		c-4.2-0.1-9.3-2.3-6.5-4.3c0.7-0.5,0.4-0.5-0.6-0.6c-1.1-0.1-4.2-1-5.6-1.8c-1.3-0.8-0.4-1.4,0.6-1.6
		C1077.8,449,1072.8,447.7,1069.5,445.3L1069.5,445.3z"/>
	<path id="path137" class="st11" d="M1106.8,445.1c-2.3,1.7-6.6,2.4-8.4,2.4s-2.1,0.6-0.6,0.8c1.5,0.2,3,0.4,3.7,0.2
		c0.6-0.2,1-0.3,2,0.2c1,0.4,3,0.7,4.8,0.1c1.8-0.6,4.7-0.8,5.9-0.8s2.5,0.1,0.1-0.6c-2.4-0.7-6.3-0.2-7.3,0.1
		c-1,0.3-3.6,0.1-2.2-0.4c1.4-0.4,2.6-1.1,3.3-1.7C1107.5,445.4,1107.2,445.3,1106.8,445.1L1106.8,445.1z"/>
	<path id="path139" class="st11" d="M1105.6,450c-2,1.4-4.8,2.8-7.7,3c2.7,0.9,4.9,3.7,6.6,3.5c-0.8,0.5-1.8,1.3-2.9,1.4
		c1.7,0.4,4.4-0.1,6.7-1.3c3.8,1.1,8.8,0.4,10.4-1c-2.5,0-5.5-0.9-6.8-2c1.2,0,2.3-0.8,2.9-1.4C1111.9,452.6,1107,451.2,1105.6,450
		L1105.6,450z"/>
	<path id="path141" class="st11" d="M1101.5,457.9c1.1-0.1,2.1-0.9,2.9-1.4c-2.1,0.7-11.2-0.8-14-3.2c-2.7-2.4-2.7-0.6-0.8,1.1
		S1094.9,458.8,1101.5,457.9z"/>
	<path id="path143" class="st11" d="M1108.3,463.7c-1.1,0.6-6.6,1-8.4,0.6s-2.5-0.2-2.1,0.5c0.4,0.7,0.6,1.3-0.8,1.1
		s-4.1,0.1-5.1,0.5c-1.1,0.4-2.4,1.3-0.1,0.9c2.3-0.4,4.4-0.8,6.1-0.4c1.7,0.4,7.8,0.6,9,0.1c1.2-0.5,0.4-0.5-0.2-0.5
		c-0.6,0-0.8-0.4,0-0.8C1107.4,465.5,1108.1,464.4,1108.3,463.7L1108.3,463.7z"/>
	<path id="path145" class="st11" d="M1055.5,456.4c-2.3,1-9.9,3-11.9,3.2c-2.5,1.1-4.6,1.8-5.8,1.8c0.9,0.8,4.3,1.5,5.7,1.1
		c-0.8,0.8-2.5,1.6-3.2,2c2-0.3,4.4,0.3,5.5,0.4c-2.7,1.5-6.3,2-8.2,1.8c0.6,0.9,1.5,1.8,2.7,1.8c-2.4,0.6-5.3,0.6-6.9,0.1
		c0.6,1.3,1.3,2,2.2,2.1c-2,0.3-4.6,0.6-6.7-0.6c1.6,2.1,5.3,2.9,10.8,2.3c5.5-0.6,10-3,11.3-4c-2.3,0.3-5.3,0.4-6.9,0.1
		c3-0.8,9.6-3.5,10.8-4.7c-1.3,0-2.5-0.4-3.4-1c1.8,0.3,8-0.5,9.9-1.3c-2.3-0.5-3.7-1.9-4.3-2.8c8,2.5,16.9,1.7,21.2,0.6
		c1-0.3,1.1-1.5-0.9-1.4c-3.6,0.3-10.4-0.8-12.2-1.6c1.7,1.3,3.7,2,5.1,2.3C1066.8,459.4,1062.2,460.1,1055.5,456.4L1055.5,456.4z"
		/>
	<path id="path147" class="st11" d="M1040.2,464.5c0.6-0.4,2.4-1.3,3.2-2c-1.4,0.4-4.8-0.4-5.7-1.1c1.3,0,3.3-0.6,5.8-1.8
		c-4.6-0.1-7.7-0.1-9.4-1c-1.7-0.9-4.7-0.6-5.8-0.4s-0.8,2.1,4.1,1.6c-2,1.4-7.5,1.9-9.5,1.4c0.5,1.6,0.9,3.3,0.4,4.2
		c2.7,1.5,9.6,3.4,13.1,3.2c-3-1.1-4.7-2.4-2.2-2.6C1036.7,465.6,1038.1,465.1,1040.2,464.5L1040.2,464.5z"/>
	<path id="path149" class="st11" d="M1032.4,472.7c6.1-0.5,14.2-0.6,20.7-6c1.7-1.4,2.8-0.9,1.1,0.5c-3.4,3-11.9,7.2-20.1,7.3
		C1030.8,474.5,1029.3,472.9,1032.4,472.7z"/>
	<path id="path151" class="st11" d="M1077.9,462.7c-1.5,0.6-5.8,1.3-7,1.1c-1.3-0.2-3.1-0.3-4.1,0.4c-1,0.6-1.1,1,0.3,1.1
		c1.4,0.1,3.2,0.3,4.1,0.2c-1.1,0.6-1.9,1.5-2.2,1.9c2-0.5,5.8,0.4,6.9,1c-0.8,0.3-1.8-0.1-2.5-0.4c3.4,3.6,13.6,3.6,15.2,3
		c-0.8,0.6-1.5,1.1-2.2,1.3c2.9,0.5,6.2,0.4,9.4-1.4c-1.1,0.2-4.3-0.1-5.1-0.2c0.6-0.6,1.6-1.2,2.5-1.4c-1.3-0.3-5.3-0.1-6.2,0.4
		c0.4-0.8,1.1-1.7,1.8-2c-5,0-11.1-0.1-13.3-1.3c3.6,0.4,7.5-1.7,9.1-1.7C1081.7,464.5,1078.6,463.8,1077.9,462.7L1077.9,462.7z"/>
	<path id="path153" class="st11" d="M1065.1,465.5c-2.5,0.5-6.2,1.5-7.2,2.1c-1,0.6-2.1,0.9,0.1,0.9c2.2,0,8.2,0.3,9.6,0.4
		c-3.4-0.5-7.9-0.6-8.8-0.6s-1.9-0.1-0.3-0.6S1062.3,466,1065.1,465.5L1065.1,465.5z"/>
	<path id="path155" class="st11" d="M1060.1,471.3c0.9,0,4.8,0,6.3-1.3c1.6,1.2,4.6,2.9,6.6,2.9c2,0,1.8,0.5,0.1,0.7
		c-1.7,0.2-5.1-0.8-6.8-2.1C1064,472.3,1062.1,471.7,1060.1,471.3L1060.1,471.3z"/>
	<path id="path157" class="st11" d="M1030.7,488.3c3.9,1.5,9.1,2.6,12.9,1.4c2.2,1.9,6.6,2,9,1.5c2.4-0.5,4.6-0.8,7.2,0.1
		c2.7,0.9,8.1,0.9,9.6,2.2c-1.4,0.1-4.4,0-5.1,0.2c-0.7,0.2-0.3,0.6,1,1.3c-4.3-0.3-11.7,1.6-14,3.5c0.8-2,3.4-4.6,7.4-4.6
		c-2.3-0.8-9.6-0.9-11.9,0.6c-0.7-0.8-1.5-2-1.6-2.5C1041.4,494.2,1033.8,491,1030.7,488.3L1030.7,488.3z"/>
	<path id="path159" class="st11" d="M1020.6,481.2c4.7-0.7,7.9-2.1,9.3-3.5c0.8,0.8,4.2,1.5,8,0.4c-0.8,0.6-0.8,1.6-0.5,2.2
		c-2.5,0.1-7.2,1.3-8.8,2.1c-1.6,0.8-6.2,1.4-7.7,0.6C1019.4,482.1,1019.3,481.4,1020.6,481.2L1020.6,481.2z"/>
	<path id="path161" class="st11" d="M1037.4,480.3c-2.5,0.1-7.2,1.3-8.8,2.1c0.3,0.6,0.5,1.6,0.6,2.3c4.6-1.6,15-2.6,19-2
		c-1.9,0.1-5.5,2.1-7.5,2.3c4.9-0.4,9.8,0.6,11,0.9c1.3,0.3,1.5,1.3,0.6,2.1c-1,0.9-1.4,1,0.6,1.1c2,0.1,6.2-0.2,8.1-2
		c-0.8-0.8-2.7-0.5-3.3-1.1c1.3-0.4,2.9-1.4,3.4-2.1c-3.4-0.1-4.7-0.1-5.8-0.4c-1.1-0.2-2-0.6-0.6-1.3c1.4-0.8,2-1.4,2.5-1.9
		c-2.5,0.7-6.3,1.3-9.6-1.3c1.2,0.3,4.1,0.1,5.1-0.3c-1.1-0.6-2-1-2.9-1c2.6-1.3,7.7-2.4,14.1,0.1c3.2-0.3,6.6-0.1,9,0.5
		c1-1,3.2-3.4,4.3-4c-7.5,0.6-20.9-0.8-20.7-4.7c-2.4,3.1-8,4.9-10.4,4.4c-0.3,1.1,0.8,2.5,1.7,3.3c-2.5,0.5-6.9,0.9-8.9,0.5
		c1.1,1.1,3.3,2.1,4.6,2C1040.9,480,1039.5,480.5,1037.4,480.3L1037.4,480.3z"/>
	<path id="path163" class="st11" d="M1052.9,489.2c2,0.1,6.2-0.2,8.1-2c-0.8-0.8-2.7-0.5-3.3-1.1c1.3-0.4,2.9-1.4,3.4-2.1
		c5.3-0.4,10.1-0.2,12.4-0.9c2.3-0.7,8.1-0.3,9.3-0.6c-5.1,0.8-6.1,1.3-6.3,2.1c-0.3,0.8,1.7,1.5,2.9,1.5c-2.3-0.1-5.1,2.3-5.4,3.2
		c-3-1.8-4.5,0.3-4.8,1c-1.3-0.5-5.5-0.4-7.6,1.4c-2.8-0.8-4.6-1.3-7.4-0.8C1055.8,490.5,1055.5,489.4,1052.9,489.2L1052.9,489.2z"
		/>
	<path id="path165" class="st11" d="M1077.3,474.4c1.7-0.1,5.5,0.1,6.8-0.1c-0.9,0.4-2,1.3-2.3,1.6c4.3-0.5,10.2-0.8,11.9-0.6
		c-2.1-0.3-4.2,1-5.3,1.7s-0.4,1.1,1,1.3c1.5,0.2,3.4,1.3,0.8,0.9c-2.7-0.4-7.9-0.4-9.2-0.2c-1.3,0.2-2-0.4-0.1-0.7
		c1.8-0.3,3.1-0.9,4-1.4c-1.5,0.4-4.4,0.4-5.3,0.1c-0.9-0.3-1.5-0.8-0.4-1s0.3-0.6-0.8-0.5c-1.1,0.1-3.8,1.3-5.3,2.7
		C1074.6,476.8,1076.1,475.2,1077.3,474.4L1077.3,474.4z"/>
	<path id="path167" class="st11" d="M1057.9,477.3c2.1,2.3,4.6,3.7,8.5,3.8c0.8,0,2.4,1.1,0.4,1.2c-5.3,0.2-8-1.1-10.3-4.5
		C1056,477.1,1056.9,476.1,1057.9,477.3z"/>
	<path id="path169" class="st11" d="M1125.6,448.6c-1.6,1.1-3.7,3-2.3,5.6c0.2-0.1,0.3-0.2,0.5-0.3c6.2-7.5,11.5-15.3,16.1-23.4
		c0.1-0.3,0.1-0.5,0.1-0.8c-1.8,1.5-4.6,3-5.7,3.4c0.8,2-2.8,4.7-4.7,5.4c0.8,1.3,0.5,3.2-1.1,3.5c0.4,1.1-0.9,1.1-2.4,1.8
		c-1.5,0.6-2.3,1.1-2.8,1.9c0.8-0.4,2-0.8,2.6-0.6s0.8,1.1-0.4,1.4c-1.1,0.3-1.9,0.9-2.3,1.4
		C1124.8,447.2,1127.2,447.5,1125.6,448.6L1125.6,448.6z"/>
	<path id="path171" class="st11" d="M1013.7,419.9c1.9,1.3,5.3,3.5,9.6,3.2c2.2,1.7,5.5,3.2,7,3.5c-2.9,1.2-6.1,2.2-6.9,3.2
		c-1.3-1.3-3-1.1-3.5-1.7c-1.3,1-1.1,1.6-0.3,2.1c0.8,0.5,7.2,1.6,8.8,1.1c1.6-0.4,2,0.9,0.7,1.3c-3.4,1.2-10.1,0.1-12.4-3.6
		c-2.3-3.7-4.3-5-10.5-1.7c-0.7-1.8-0.7-2.2-1.9-2.2c-1.2,0-3.4-1.6-1.7-1.5S1009.6,422.9,1013.7,419.9L1013.7,419.9z"/>
	<path id="path173" class="st11" d="M1015.2,428c-1.1,0.3-4.1,1.9-5.1,2c-1.1,0.1-3,1.6-1,1.7c2,0.1,4.5-2.1,5.9-2.3
		C1016.4,429.3,1016.5,427.7,1015.2,428z"/>
	<path id="path175" class="st11" d="M1023.5,433.9c0.2,0.6,0.2,1.3,0,1.8c-0.2,0.4-0.2,1,0.6,0.4c0.8-0.6,1.3-1.4,2.2-0.9
		c0.8,0.4,2.9,0.4,3.9,0.3c1-0.1,1.3-0.3-0.1-0.9c-1.4-0.6-2.8-0.8-3.6-0.7c-0.8,0.1-1.7-0.1-2.3-0.4
		C1023.5,433.2,1023.3,433.3,1023.5,433.9L1023.5,433.9z"/>
	<path id="path177" class="st11" d="M1053.6,434.1l-0.4,0.9c2.3-0.1,8.1,0.5,9.9,1.6c1.8-1.4,1.5-1.8,2.7-1.6
		c1.3,0.3,2.9,0.7,3.6,0.3c0.7-0.4,1.2-0.3,2-0.2c0.8,0.1,2.4-0.2,3.4-0.8c1-0.6,2.9-1.3,4.1-1.3s2.5-0.3,0.4-0.6
		c-2.1-0.3-5.3,0.3-6.3,0.7c-1.1,0.4-4.3,0.6-6.2,0.6s-4.5,0.9-6.7,0.4C1057.9,433.7,1054.9,434.1,1053.6,434.1L1053.6,434.1z"/>
	<path id="path179" class="st11" d="M1089.7,433.2c2.8,1.3,8.4,2.5,12.8,2.3c0.8,0,2.3,0.8,0.4,0.9c-4.9,0.4-9.4-0.2-13.5-2.5
		C1088.3,433.3,1088.6,432.7,1089.7,433.2L1089.7,433.2z"/>
	<path id="path181" class="st11" d="M1092.6,433.2c4.3-0.1,7.5-0.1,8.9,1.2c2.5-0.8,6.9-1.2,7.9-1c1,0.2,2.2-0.3-0.2-0.8
		c-2.3-0.6-7.8-0.8-9.5-0.4c-1.7,0.3-7,0.5-8.8,0.3C1091.6,432.5,1092.1,432.7,1092.6,433.2L1092.6,433.2z"/>
	<path id="path183" class="st11" d="M1109.3,434.9c2-1.1,7.9-0.1,9.6-0.8c-1.3,1.5,4.1,1.6,8.7,0.4c-1.8,1.1-5.6,1.3-7.2,2
		c-1.7,0.7-2.5,0.2-3.8-0.4C1115.4,435.6,1112.1,434.4,1109.3,434.9L1109.3,434.9z"/>
	<path id="path185" class="st11" d="M1127.7,434.5c-4.6,1.2-10,1.1-8.7-0.4c-1.8,0.8-7.6-0.3-9.6,0.8c2.1-1.3,3.7-0.3,5.2-2.8
		c1,0.2,3.2,0.3,3.9-0.7c1.3,0.3,3.7,0.9,4.4,1.6c0.7,0.7,1.8-0.2,0.9-1.3c2.1-0.8,0.8,0.9,5.7-0.3c1-0.3,3.5-0.7,4.3-0.8
		C1132,431.9,1130.1,433.4,1127.7,434.5L1127.7,434.5z"/>
</g>
<path id="path191" class="st12" d="M1166.1,299.8c-0.2,79.2-12.8,164.4-116.1,205.1C946.8,464.3,934.2,379,933.9,299.8H1166.1z"/>
<g id="g207" transform="translate(-8e-5,-2.56e-4)">
	<path id="path193" class="st9" d="M979.9,335.4c-1.7,2.2-3.6,4-5.9,5.7c-2.4,1.7-5.4,3-3.7,5.9c1.7,2.9,3,3.2,3.4,5.4
		c0.3,2.2,0.8,4,2.5,4.5c1.7,0.5,2.4,0.2,2.4,3.7c0,3.5,0,4.9,1.5,6.2c1.5,1.3,1.4,2.7,2,5.9c0.7,3.2,0.7,10.1,2.7,14.8
		c2,4.7,6.6,13.6,6.1,15.5c-0.5,1.8-1.2,3.2,0.8,5.4c2,2.2,3.4,5.4,3.6,7.2c0.2,1.9,0.5,2.5,2.5,1.9c2-0.7,3-1.3,3.7-2.2
		c0.7-0.8,2-0.7,3.9,0.3c1.9,1,4.7,2,6.4,1c1.7-1,2.5-2.5,4.1-2.5c2.4-1.7,3.2-5.2,3.7-6.2c0.5-1,0.2-1-0.8-2c-1-1-0.5-2.7-0.7-4.4
		c-0.2-1.7-0.8-4.2-2.9-7.9c-2-3.7-3.2-8.2-4.6-9.4c-1.4-1.2-2-4-2.2-5.4c-0.2-1.3-1.7-2.5-2.7-3.5c-1-1-2-2.5-3.2-8.4
		c-1.2-5.9-2-10.1-2-11.1s-0.2-1.2-1.2-1.5c-1-0.3-1.5-2-1.2-2.9c0.3-0.8-0.3-1.7-0.7-2.7s0-2.9,0.7-3.9c0.7-1,0.5-3.9-0.2-6.2
		c-0.7-2.4-1.4-4.4-4.1-4.7c-2.7-0.3-3.2-1-4.2-3.2c-1-2.2-2-6-2.4-6.9c-0.3-0.8-0.8-1-2.9,0.7c-2,1.7-2.7,2.2-2.7,5.4
		c0,2,0.3,2.7,1,3.9c0.7,1.2,0.8,1.5,1.4,4.7c0.5,3.2,3.4,8.2-0.3,11.1c-3.7,2.9-3.2,3.5-3,5.5c0.2,2-1,3.4-1.7,0.5
		c-0.7-2.9,0-4.5,2-5.9c2-1.3,3.9-3,2.5-4.9c-1.4-1.8-1.9-6.2-2-8.2C981.5,334.6,981.1,333.9,979.9,335.4L979.9,335.4z"/>
	<g id="g205">
		<path id="path195" class="st10" d="M949.8,378.3c-0.1,1.4,0.2,2.9,0.3,4.1c0.1,1.4,0.5,4.3-0.5,6.4c-1,2.1-0.8,3.3,0,3.9
			c0,0,0.1,0.1,0.1,0.1c2.1-0.7,2.3-3,1.8-4.1c-0.6-1.2-0.4-2.6,0.3-3.8c0.7-1.2,0.7-1.8,0.1-2.7c-0.6-0.8-0.6-0.8,0.1-3.2
			C952.5,377,951,377,949.8,378.3L949.8,378.3z"/>
		<path id="path197" class="st10" d="M971.4,410.8c-0.4-1.5-1.8-7.3-1.9-11.1c-0.1-3.8-1.8-6.8-4.9-9.7c-2.5-2.3-3-5.9-3.1-8.7
			c-1.9-1.1-2.6-0.6-2.5,1.5c0.2,2.3,2.5,3.4,2.1,6.6c-0.3,3.3-0.3,2.4,1.3,4c1.6,1.6,2.2,3.1,1.4,3.8c-0.8,0.7-0.9,1.8,0.3,2.3
			c1.2,0.4,1.3,1.7,1.1,2.9c-0.2,1.2,0.9,1.4,1.6,2.3c0.7,0.8,0.8,2.9,0.1,4c-0.7,1.2-0.8,3,0.4,2c1.2-1,1.7-0.1,2.6,1.5
			c0.8,1.4,1.5,0.9,2.4,0.5C971.8,412.1,971.6,411.4,971.4,410.8z"/>
		<path id="path199" class="st10" d="M961.5,340.9c-1.3,0.1-2.1,1.2-1.4,5c0.4,2.4-1.4,1.8-2,0.7c-0.7-1.2-1.2-3.7-2.5-5.9
			c-1.4-2.2-0.7,1.5-0.8,3.5c-0.2,2,1.2,2,2.4,3.7c1.2,1.7,0.2,2.4-1.2,2.4c-1.4,0-0.7,2.7-0.3,4.5c0.3,1.8-0.3,2.2-1.4,0.7
			c-1-1.5-0.3-3.9-0.2-6.7c0.2-2.9,0.3-2.2-1.5-2.9c-1.9-0.7-1.5-1-0.8-2.7c0.7-1.7,1.4-2.5,0.5-3.4c-0.8-0.8-0.7-1.3,0.7-1.5
			c1.4-0.2,0.8-1.2,2-1.5c1.2-0.3,1.7,0.2,1.9-2c0.1-1.8,0.8-2.9,2.1-2.4C959.7,335.2,960.8,339.6,961.5,340.9L961.5,340.9z"/>
		<path id="path201" class="st10" d="M992.5,371.1c0.5-3.7,0.2-7.4,1.7-8.7c1.5-1.3,3.4-4,3.2,1.7c-0.2,5.7-0.3,5.4-1.5,6.7
			c-1.2,1.3-2.2,1.7-1,3.9c1.2,2.2,1.4,2.4,1.2,5.7c-0.2,3.4-0.2,4.7,1.2,6.4c1.4,1.7,1.7,1.8,2,3.7c0.3,1.8,1.5,4.4,3,5.7
			c1.5,1.3,3.2,5.2,3.4,7.9c0.2,2.7,2.5,3.4,4.7,5.2c2.2,1.8-0.5,3.2-2.2,2.4c-1.7-0.8-1,0-2,1.2c-1,1.2-1.4,1.3-2.2-0.7
			c-0.8-2-3.7-3.4-5.1-3.9s-2.5-2.7-3.7-4.9c-1-1.9-3-3.2-4.9-3.4c0.5,1.4,0.8,2.5,0.6,3.1c-0.5,1.8-1.2,3.2,0.8,5.4
			c2,2.2,3.4,5.4,3.6,7.2c0.2,1.9,0.5,2.5,2.5,1.9c2-0.7,3-1.3,3.7-2.2c0.7-0.8,2-0.7,3.9,0.3c1.9,1,4.7,2,6.4,1
			c1.7-1,2.5-2.5,4.1-2.5c2.4-1.7,3.2-5.2,3.7-6.2c0.5-1,0.2-1-0.8-2c-1-1-0.5-2.7-0.7-4.4c-0.2-1.7-0.8-4.2-2.9-7.9
			c-2-3.7-3.2-8.2-4.6-9.4c-1.4-1.2-2-4-2.2-5.4c-0.2-1.3-1.7-2.5-2.7-3.5c-1-1-2-2.5-3.2-8.4c-0.9-4.6-1.6-8.2-1.9-10
			c-1.2,1.9-2,2.4-2.5,1.1c-0.5-1.5-1.2-2.4-1.9-1.3c-0.7,1-0.8-0.8-0.8-1.7c0-0.8-0.2-1-1-1c-0.8,0-0.2-1.3-0.5-3.9
			c-0.3-2.5-0.8-2.9-1.2,0.2c-0.3,3-2,4.9-1.4,5.5c0.7,0.7,0.3,2-0.3,4c-0.7,2-0.3,3.2,0.2,4.5c0.5,1.3-0.3,3.9-0.7,6
			C990.3,372.6,992,374.7,992.5,371.1L992.5,371.1z"/>
		<path id="path203" class="st10" d="M978.6,360.6c0,3.5,0,4.9,1.5,6.2c1.5,1.3,1.4,2.7,2,5.9c0.7,3.2,0.7,10.1,2.7,14.8
			c0.6,1.4,1.4,3.2,2.3,5c1.1-0.9,2.1-2.4,2.4-3.2c0.5-1.2-1-3.5-2.2-5.5c-1.2-2,0.2-2.7,1.4-5.2c1.2-2.5-0.2-2.7-2-3.4
			c-1.9-0.7-1.9-2.4-2.9-5c-1-2.7-0.8-3.9-0.2-5.4c0.7-1.5,0.2-2.7-1.2-3c-1.4-0.3-1-1.3-0.5-3c0.5-1.7,0.8-2-1.2-1.5
			c-1.5,0.4-1.9,0.7-2.4,1.2C978.5,359,978.6,359.7,978.6,360.6L978.6,360.6z"/>
	</g>
</g>
<g id="g607" transform="matrix(1.3129567,0,0,1.3129567,-857.55727,-110.01291)">
	<g id="g221">
		<path id="path209" class="st13" d="M1422.8,357.4l-3.1,33.8"/>
		<path id="path211" class="st13" d="M1432.1,378.1c-1.3,5.7-2.9,12.2-4.6,17.7"/>
		<path id="path213" class="st13" d="M1472.5,361.9c2.3,2.2,5.5,2.7,9,4.4"/>
		<path id="path215" class="st13" d="M1488,376.8l-1.7,13"/>
		<path id="path217" class="st13" d="M1486.4,377.4l-3.1,13.4"/>
		<path id="path219" class="st13" d="M1430.1,378.5c-1.5,5.6-3.4,10.6-5.3,15.8"/>
	</g>
	<path id="path223" class="st14" d="M1497.1,410c-0.1,0-0.2,0-0.3,0.1c-0.1,0-0.2,0-0.3,0c-0.1,0-0.2,0-0.3,0c-0.1,0-0.2,0-0.3,0
		c-0.1,0-0.2,0-0.3,0c-0.1,0-0.2,0-0.2,0.1c-0.1,0-0.1,0.1-0.2,0.1c-0.1,0.1-0.1,0.1-0.1,0.2c0,0.1-0.1,0.1-0.1,0.2
		c0,0-0.1,0.1-0.1,0.1c0,0-0.1,0.1-0.1,0.1c0,0-0.1,0.1-0.1,0.1c0,0-0.1,0.1-0.1,0.2c0,0.1-0.1,0.1-0.1,0.2c0,0.1-0.1,0.1-0.1,0.2
		c0,0.1-0.1,0.1-0.1,0.2c-0.6,0.5-1.4,0.9-2.4,1c-0.6,0.2-2.1,0.2-2.7,0c-1.2,0-2.5-0.1-3.2-0.6c-0.8-0.4-2-0.2-2.6,0.2
		c-0.5,0.3-0.6,0.9-1.3,1c-0.4,0.5-2,0.4-2.6,0.2c-1.4,0.1-2.3-0.4-3.3-0.7c-0.7-0.5-1.7-0.8-2.5-0.1c-0.5,0.5-1.1,0.8-1.9,1
		c-1.4-0.1-3,0.2-4-0.3c-1.1-0.1-1.6-0.7-2.6-1c-1.2-0.2-1.8,0.4-2.5,0.7c-0.7,0.6-1.7,0.6-2.9,0.6c-1.2,0-2.8,0.2-3.5-0.3
		c-1-0.1-1.7-0.7-2.4-1c-0.7-0.6-2.1,0-2.7,0.3c-1.1,0.2-1.5,1-2.9,0.9c-1.1-0.1-1.9-0.6-2.9-0.9c-1-0.4-1.9-1.1-3.4-1
		c-0.5,0.6-1.5,0.9-2.5,0.9c-0.9,0-1.8,0-2.5-0.2c-1.9-0.1-2.8-2-4.1-3.1c-2.3-2.2-4.5-4.5-6.8-6.7c0.4-1.2,0.5-1.4-0.1-2.2
		c0.3-1.2-0.6-1.4-0.2-2.6c0.5-0.9-0.9-0.8-1.3-1.3c-0.8-0.2-1.2-0.8-1.9-1c-0.6-0.4-1.3-0.7-2.1-1.1c-0.7-0.3-1.3-0.7-1.9-1
		c-0.5-0.4-1.1-0.7-1.6-1.1c-0.6-0.3-1.1-0.7-1.6-1c-0.7-0.2-1-0.7-1.6-1c-0.5-0.4-1.2-0.8-1.7-1.1c-0.8-0.3-1.6-0.8-2.5-1
		c-0.6,0-0.8-1.4,0.3-1.4c0.8,0,1.3,0.5,1.9,0.9c1,0.4,1.9,0.8,3.1,1c0.7,0.4,1.3,0.6,2.1,0.9c0.7,0.5,1.6,0.6,2.4,1.1
		c0.8,0.4,1.7,0.8,2.2,1.1c0.7,0.3,1,0.8,1.7,1c0.2,0.3,0.7,0.4,1.1,0.8c0.7,0.3,1.3,0.6,1.8,0.9c0.7,0.4,1,0.5,1.5,0.9
		c0.6,0.2,4.3,2.1,4.1,1.8c3.7,0.7,5.3,0.9,9,1.4c8.9,0.1,17.8,0.3,26.7,0.4c3.2-1.3,6.4-2.7,9.7-4c1-1.6,2-3.1,2.9-4.7
		c4.8-0.9,9.5-1.7,14.3-2.6c-0.3-0.3,25.1-0.9,25.6,1.2c0.2,0.9,0.9,2.7,0.1,3.1c-0.5,0.3-24-3-24.3-0.9c-0.2,0.9,0,6.6,0.2,7.5
		c0.1,0.9,0.3,1.8,0.4,2.8c0.1,0.9,0.3,1.8,0.4,2.8c0.1,0.9,0.3,1.8,0.4,2.8C1496.8,408.1,1497,409.1,1497.1,410L1497.1,410
		L1497.1,410L1497.1,410L1497.1,410z"/>
	<g id="g261">
		<path id="path225" class="st13" d="M1424.6,374c-4.3,4.9-8.6,8.8-13.2,12.6"/>
		<path id="path227" class="st13" d="M1448.3,354l13.9-12"/>
		<path id="path229" class="st13" d="M1442.1,365.9c2.8,2,5.9,3.7,10.1,4.8"/>
		<path id="path231" class="st13" d="M1440.1,347.7c1.7,2.7,3.8,5.4,9.8,7"/>
		<path id="path233" class="st13" d="M1436.2,320.4c-1.9,2.5-4.9,4.8-8.8,6.7"/>
		<path id="path235" class="st13" d="M1441.1,337.2c2,1.9,4.8,3,7.6,4.1"/>
		<path id="path237" class="st13" d="M1441.1,379.1c1.4,6.9,2.6,12.4,4.2,18.1"/>
		<path id="path239" class="st13" d="M1440,397c7.2-7.4,13.4-15.4,17.4-24.5"/>
		<path id="path241" class="st13" d="M1472.2,345.7c2.3,2.5,4.7,4.3,8.5,5.3"/>
		<path id="path243" class="st13" d="M1482.2,336.8c2,3.5,4.4,6.1,6.6,9"/>
		<path id="path245" class="st13" d="M1460.9,325.9c-0.2,3.5-2.4,7-3.8,10"/>
		<path id="path247" class="st13" d="M1465.9,327.6c-2.6,2.9-5.1,5.9-8.6,7.7"/>
		<path id="path249" class="st13" d="M1466.3,315.1c-1.8,1.2-4.2,2.6-6.2,3.3"/>
		<path id="path251" class="st13" d="M1492.7,341.7c-2.1,2.5-4.3,5.5-7.8,7.7"/>
		<path id="path253" class="st13" d="M1493,362.8c-2.7,2.6-5.2,5.6-8.3,7.6"/>
		<path id="path255" class="st13" d="M1508.8,377.7c-4.9,3.8-9.9,7.4-15.3,10.2"/>
		<path id="path257" class="st13" d="M1496.1,388.4c4.6-2.9,8.6-6.8,12.7-10.7"/>
		<path id="path259" class="st13" d="M1494.8,342.2c0.9,2.3,2.9,4.8,5,6.5"/>
	</g>
	<path id="path263" class="st15" d="M1491.8,319.3l-0.4,69.2l5-0.3l-2.1-69.1L1491.8,319.3z"/>
	<g id="g273">
		<path id="path265" class="st16" d="M1495.1,408.5c1.2,0.7,1.9,1.4,2.9,2.3c2.2,2,3.7,2,6.8,0c1.2,0.1,2.4,0.7,3.6,0.5
			c1.1,0,2.2-0.2,3.3-0.4c1.3-0.3,1.5-1.9,2-3c0.6-1.3,1.3-2.6,2.2-3.7c1.2-0.8,2.4-1.6,3.2-2.8c0.9-1.1,0.8-2.5,0.6-3.8
			c-0.1-1.2-0.2-2.4-0.2-3.6c-0.3-1.6,1.1-2.8,0.9-4.3c-0.8-0.7-2.1-0.9-3.1-1.2c-1.8-0.4-3.7-0.7-5.6-0.8c-1.5-0.1-3.1-0.3-4.6-0.4
			c-1.5-0.1-3-0.2-4.5-0.2c-1.7,0-3.4-0.2-5.1,0.1c-1.2,0.3-2.7,0.2-3.7,0.7c-0.4,1.2-0.7,2.3-0.8,3.5c-0.2,1-0.2,2.1-0.2,3.2
			c0.1,2-0.2,4,0.3,5.9c0.4,1.5,0.5,3.1,0.8,4.6C1494.1,406.4,1494.3,407.6,1495.1,408.5L1495.1,408.5z"/>
		<g id="g271">
			<path id="path267" class="st13" d="M1500.9,374.8l6.9,12.8"/>
			<path id="path269" class="st13" d="M1518,388.3c-2-2.1-3.6-4.7-4.8-7.6"/>
		</g>
	</g>
	<g id="g287">
		<path id="path275" class="st17" d="M1517.6,368.3l2.3,1.6l0.2,0.1C1519.2,369.3,1518.5,368.5,1517.6,368.3
			C1517.6,368.3,1517.6,368.3,1517.6,368.3L1517.6,368.3z"/>
		<path id="path277" class="st17" d="M1512.8,369c-0.1,0-0.3,0.1-0.3,0.1l-3.2,12.4L1512.8,369z"/>
		<path id="path279" class="st17" d="M1527.9,369.4c-0.8,0.1-1.5,0.4-2.3,0.7l1.3-0.5l1.7-0.3
			C1528.5,369.4,1528.2,369.4,1527.9,369.4L1527.9,369.4z"/>
		<path id="path281" class="st17" d="M1513.2,380.7l-0.6,0.1c0.3,0,0.5,0,0.7,0.1c0.3,0.1,0.6,0.2,0.9,0.3L1513.2,380.7z"/>
		<path id="path283" class="st17" d="M1514.4,381.4c0.8,0.5,1.5,1.1,2.5,1.4L1514.4,381.4z"/>
		<path id="path285" class="st17" d="M1521.8,382l-4.2,0.8C1519,383,1520.4,382.4,1521.8,382z"/>
	</g>
	<path id="path289" class="st18" d="M1513,368.2l-3.6,13.3l3.8-0.7l4,2.2l6.1-1.2l3.1,0.5c1-4.3,0.7-9.3,3.2-12.9l-2.5,0.4l-4,1.4
		l-3.2-1.2l-2.5-1.8L1513,368.2z"/>
	<path id="path291" class="st19" d="M1518.8,369.8c-0.6,1.2-1.3,2.5-1.4,3.9c0,0-1.8-0.6-2.7-0.7c-1-0.1-3,0-3,0l0,0.1l-0.9,3.1
		c0.1,0,2.4-0.3,3.5-0.1c0.8,0.1,2.2,0.8,2.2,0.8c-0.4,1.7-0.8,3.4-1.2,5l0.7,0.4l1.6,0.5l0,0l0.7-0.1c0.3-1.7,0.6-3.5,1.3-4.8
		c0,0,2.5,0.7,3.8,0.6c0.9-0.1,2.9-0.3,3.4-0.3c0.1-1.1,0.3-2.1,0.5-3.2c-0.5,0.1-2.6,0.6-3.7,0.5c-1.1-0.1-3-1.1-3-1.1
		c0.3-1.1,0.8-2.2,1.3-3.3L1518.8,369.8z"/>
	<path id="path293" class="st13" d="M1510.4,368.2c-1.6-4.4-3.6-11.6-4.4-17.4"/>
	<g id="g303">
		<path id="path295" class="st20" d="M1511.8,369.2c0,0,4-0.9,5.6-0.6c1.7,0.4,2.8,2.4,4.6,2.6c2,0.3,3.8-1.6,5.9-1.8
			c1-0.1,2.9,0.4,2.9,0.4l-1.3,4.9l-1.1,4.1v3.6c0,0-3.4-0.8-5.1-0.7c-2.2,0.2-3.9,1.5-6.1,1.1c-1.6-0.3-2.4-1.6-3.9-2
			c-1.3-0.3-4.5,0.5-4.5,0.5L1511.8,369.2z"/>
		<g id="g301">
			<path id="path297" class="st21" d="M1512.6,369.1l-1.6,0.1l-5,17.8l2.3,0.1L1512.6,369.1z"/>
			<path id="path299" class="st21" d="M1511,369.1c-0.7-0.4-1.2-1.5-0.8-2.2c0.4-0.8,1.7-1,2.6-0.7c1,0.3,2.3,1.3,2,2.2
				C1514.3,369.6,1512.1,369.8,1511,369.1z"/>
		</g>
	</g>
	<path id="path305" class="st17" d="M1529.3,369.5c-2.4,3.5-2.2,8.3-3.2,12.5c1.2,0.2,2.1,0.4,2.1,0.4v-3.6l1.2-4.1l1.4-4.9
		C1530.8,369.8,1530.1,369.6,1529.3,369.5z"/>
	<g id="g335">
		<path id="path307" class="st13" d="M1500.6,355.1c2.5,1.7,5.1,6.2,8.6,9.8"/>
		<path id="path309" class="st13" d="M1505.3,348.6c-1.9-4.9-3.3-12.8-3.6-18.8"/>
		<path id="path311" class="st13" d="M1498,377.2l3.9,10.3"/>
		<path id="path313" class="st13" d="M1501.9,325.1c-3.4-0.9-6.6-3.3-7.1-5.2"/>
		<path id="path315" class="st13" d="M1479.8,328.5c2.2,0.2,9.9-5.6,11.1-8.6"/>
		<path id="path317" class="st13" d="M1499.4,375.7l5.4,11.6"/>
		<path id="path319" class="st13" d="M1498.9,379.6l3.9-1.5"/>
		<path id="path321" class="st13" d="M1499.6,381.8l4.2-1.8"/>
		<path id="path323" class="st13" d="M1501.3,386.1l4.6-2"/>
		<path id="path325" class="st13" d="M1496.6,363.3l5.5,5.9"/>
		<path id="path327" class="st13" d="M1484.9,377.7l-3.8,12.9"/>
		<path id="path329" class="st13" d="M1483.8,380.6l3.9-0.1"/>
		<path id="path331" class="st13" d="M1482.9,383.8l4.5,0.1"/>
		<path id="path333" class="st13" d="M1481.8,387.1l4.9,0.9"/>
	</g>
	<g id="g369">
		<path id="path337" class="st22" d="M1494.8,317.5c-0.9-0.3-3.3-0.4-4.2,0.4c-0.5,0.4-0.1,1.8,0.5,1.8c1.3,0,2.9,0.1,3.4-0.3
			C1495.1,319,1495.4,317.7,1494.8,317.5L1494.8,317.5z"/>
		<path id="path339" class="st23" d="M1480.8,328.3c1.7,6.8,8.8,5.6,8.5-0.5"/>
		<path id="path341" class="st24" d="M1487.4,328c2.1,7.8,11.5,6.5,11.1-0.6"/>
		<path id="path343" class="st25" d="M1495.3,327.9c2.1,5.7,5.1,4.6,8.6-0.6"/>
		<path id="path345" class="st26" d="M1505.9,325.2l-26.2,1.5l0.1,1.8l26.5-1.4L1505.9,325.2z"/>
		<path id="path347" class="st27" d="M1481.8,351.5c1.6,7.4,9.1,6.3,8.8-0.4"/>
		<path id="path349" class="st28" d="M1488.6,351.3c2.1,8.6,11.8,7.3,11.5-0.5"/>
		<path id="path351" class="st29" d="M1496.8,351.3c2.1,6.3,5.2,5.1,8.9-0.5"/>
		<path id="path353" class="st30" d="M1508,348.5l-27.3,1.2l0,1.9l27.5-1L1508,348.5z"/>
		<path id="path355" class="st31" d="M1481.1,372.5c1.8,7.6,9.4,6.3,9.1-0.6"/>
		<path id="path357" class="st32" d="M1488.1,372.1c1.9,11.3,12.2,7.3,11.8-0.7"/>
		<path id="path359" class="st33" d="M1496.5,372c2.2,6.4,5.4,5.2,9.2-0.7"/>
		<path id="path361" class="st34" d="M1507.9,368.9l-28,1.7l0.1,2l28.2-1.5L1507.9,368.9z"/>
		<g id="g367">
			<path id="path363" class="st35" d="M1498.5,338.7l-10.4,0.3l0,2.6l10.5,0L1498.5,338.7z"/>
			<path id="path365" class="st35" d="M1498.5,360.7l-10.4,0.3l0,2.6l10.5,0L1498.5,360.7z"/>
		</g>
	</g>
	<g id="g389">
		<path id="path371" class="st13" d="M1472.6,372.7l7.7,18.4"/>
		<path id="path373" class="st13" d="M1433.8,378.5c-0.8,5.8-2.2,13.2-3.6,18.8"/>
		<path id="path375" class="st36" d="M1519.7,389.7c-4.4-0.7-8.7-1.4-13.2-1.6c-3.5-0.2-7,0.1-10.4,0.4c-5.1,0.5-10.2,0.7-15.1,2.2
			c-0.7,0.2-1.4,0.4-1.8,0.9c-1.4,1.3-1.5,3.6-2.7,5.1c-1.1,1.5-5.4,3.9-6.9,5c-11.2,0.3-23.7,0.1-37.6-2l-2-2.2l-0.8-0.8l2.2,0.8
			l5,0.1l12.1-0.5c0,0,10.2,0,15.4-0.2c2.9-0.1,5.8-0.3,8.7-0.7c0.6-0.1,1.3,0,1.8-0.3c0.9-0.6,1.1-1.7,1.7-2.5
			c0.6-0.8,0.9-1.8,1.7-2.3c2.2-1.6,5-1.5,7.3-1.9c2.9-0.5,5.5-0.7,8.4-1.1c3.3-0.5,6.7-0.7,10-0.9c2.2-0.1,4.3-0.3,6.5-0.1
			c3.3,0.2,6.9,0,9.7,1.6c0.5,0.3,1.5,0.9,1.2,1.4C1520.7,390.2,1520.1,389.7,1519.7,389.7L1519.7,389.7z"/>
		<g id="g387">
			<path id="path377" class="st13" d="M1468.7,315.1c1.7,1.3,4.7,2.3,7.7,2.8"/>
			<path id="path379" class="st13" d="M1465.2,361.9c-3.5,2.5-7.2,4.3-11.1,5.5"/>
			<path id="path381" class="st13" d="M1475.2,394.8l-6.1-16"/>
			<path id="path383" class="st13" d="M1470.3,373.6l7,18.3"/>
			<path id="path385" class="st13" d="M1469.4,378.3l4.7-1.6"/>
		</g>
	</g>
	<path id="path391" class="st37" d="M1466.2,312.7l-1.4,85.1l5-0.3l-0.9-84.8L1466.2,312.7z"/>
	<path id="path393" class="st13" d="M1472.2,325.9c2,3.7,5.1,6.7,9.7,8.8"/>
	<g id="g411">
		<path id="path395" class="st27" d="M1455.8,320.6c1.6,7.4,9.1,6.3,8.8-0.4"/>
		<path id="path397" class="st28" d="M1462.6,320.4c2.1,8.6,11.8,7.3,11.5-0.5"/>
		<path id="path399" class="st29" d="M1470.8,320.3c2.1,6.3,5.9,6.8,8.9-0.5"/>
		<path id="path401" class="st30" d="M1482,317.6l-27.3,1.2l0,1.9l27.5-1L1482,317.6z"/>
		<path id="path403" class="st27" d="M1455.8,337.7c1.6,7.4,9.1,6.3,8.8-0.4"/>
		<path id="path405" class="st28" d="M1462.6,337.5c2.1,8.6,11.8,7.3,11.5-0.5"/>
		<path id="path407" class="st29" d="M1470.8,337.5c2.1,6.3,8.4,5.2,8.9-0.5"/>
		<path id="path409" class="st30" d="M1482,334.7l-27.3,1.2l0,1.9l27.5-1L1482,334.7z"/>
	</g>
	<path id="path413" class="st13" d="M1463.9,347.3c-2.5,1.6-4.7,3.6-7.9,4.6"/>
	<g id="g423">
		<path id="path415" class="st27" d="M1454.9,353.8c1.6,7.4,9.1,6.3,8.8-0.4"/>
		<path id="path417" class="st28" d="M1461.8,353.6c2.1,8.6,11.8,7.3,11.5-0.5"/>
		<path id="path419" class="st29" d="M1470,353.6c2.1,6.3,7.6,4.3,8.9-0.5"/>
		<path id="path421" class="st30" d="M1481.1,350.8l-27.3,1.2l0,1.9l27.5-1L1481.1,350.8z"/>
	</g>
	<g id="g431">
		<path id="path425" class="st13" d="M1458.4,373.3c-0.7,8.4-4.1,16-6.3,23.9"/>
		<path id="path427" class="st13" d="M1461.4,373.4c-0.8,8.2-3.3,15.8-5.4,23.5"/>
		<path id="path429" class="st13" d="M1464,372.7c-1,9.1-2.1,16.7-4.1,24.2"/>
	</g>
	<g id="g447">
		<path id="path433" class="st27" d="M1455.3,369.2c1.6,7.4,9.1,6.3,8.8-0.4"/>
		<path id="path435" class="st28" d="M1462.2,369c2.1,8.6,11.8,7.3,11.5-0.5"/>
		<path id="path437" class="st29" d="M1470.4,369c2.1,6.3,7.5,5,8.9-0.5"/>
		<path id="path439" class="st30" d="M1481.5,366.2l-27.3,1.2l0,1.9l27.5-1L1481.5,366.2z"/>
		<path id="path441" class="st38" d="M1472.8,329.1l-9.8,0.3l0,2.6l9.9,0L1472.8,329.1z"/>
		<path id="path443" class="st39" d="M1472.4,345.7l-8.7,0.3l0,2.4l8.8,0L1472.4,345.7z"/>
		<path id="path445" class="st40" d="M1473,361.8l-9.5,0.3l0,2.6l9.6,0L1473,361.8z"/>
	</g>
	<g id="g469">
		<path id="path449" class="st13" d="M1458.2,376.4l5.1,1.1"/>
		<path id="path451" class="st13" d="M1457,381.1l5.9,0.1"/>
		<path id="path453" class="st13" d="M1456.1,384.6l6.1,1.7"/>
		<path id="path455" class="st13" d="M1454.4,390l7.1-0.3"/>
		<path id="path457" class="st13" d="M1453.2,394.3l7.5-0.2"/>
		<path id="path459" class="st13" d="M1451.4,373.1c-0.8,8.6,4.7,16.7,7.5,24"/>
		<path id="path461" class="st13" d="M1474.4,392.6l4.8-1.4"/>
		<path id="path463" class="st13" d="M1473.3,390l5.5-2.3"/>
		<path id="path465" class="st13" d="M1471.5,385.9l5.6-1.7"/>
		<path id="path467" class="st13" d="M1470.3,382l5.5-1.4"/>
	</g>
	<path id="path471" d="M1440.7,412.3c-0.6,0-1.3-0.2-1.9-0.3c-0.6-0.2-1.3-0.4-1.9-0.7c-0.6-0.3-1.1-0.7-1.7-1.1
		c-0.5-0.4-1-0.8-1.5-1.3c-0.6-0.5-1.2-1.1-1.7-1.7c-0.6-0.6-1.2-1.2-1.7-1.8c-0.5-0.6-1.2-1-1.6-1.7c-0.5-0.5-0.5-1.3-0.9-1.8
		c-0.7-0.1-1.7-0.2-1.7-1.1c-0.2-0.5-0.3-1.2-1-1.1c-0.3,0-0.4,0.4-0.2,0.2c-0.3-0.2-0.3,0.6-0.3,0.2c-0.2,0.3-0.4,1-0.4,1
		c-0.3,0.6-0.3,1.3,0.5,1.4c0.7,0.1,0.8,0.9,1.5,1.3c0.5,0.5,1.1,1.1,1.7,1.6c0.5,0.7,1,1,1.4,1.8c0.3,0.5,0.9,0.9,1.3,1.3
		c0.3,0.5,0.7,1,1.1,1.5c0.5,0.5,1.1,1,1.6,1.3c0.5,0.3,1,0.6,1.5,0.9c0.6,0.3,1.1,0.7,1.8,0.8c0.7,0.4,1.5,0.3,2.2,0.4
		c0.7,0,1.5,0,2.1-0.5C1441.6,412.4,1441,412.4,1440.7,412.3L1440.7,412.3z"/>
	<path id="path473" d="M1480.6,393c-0.9,2.1-2.3,5.1-4.1,6.9c5.9,1.1,10.6-0.5,15.8-1.4c-0.6-2.3-0.6-4.8-0.4-7.3
		C1487.8,391.6,1484.8,392.5,1480.6,393z"/>
	<path id="path475" class="st41" d="M1481.1,393.6c-0.7,1.9-1.3,3.8-2.8,5.5c4.8,1,8.7-0.4,13.1-1.2c-0.8-1.7-0.6-3.7-0.3-5.6
		C1487.6,392.6,1484.5,393.2,1481.1,393.6L1481.1,393.6z"/>
	<path id="path477" d="M1430.5,402.1l17,1.3c13.7,0.4,29.3-0.2,42.8-1.8c0.6-0.1,1.5-0.2,1.6,0.3c0.2,0.6-0.7,1.4-1.3,1.5
		c-15.5,2-31.2,1.2-46.9,1.1l-9.3-1L1430.5,402.1z"/>
	<path id="path479" class="st13" d="M1436.7,363.9c-4.4,3.4-8.7,6.8-13.7,8.7"/>
	<path id="path481" class="st13" d="M1437.4,347.9c-4,2.9-8,6.4-12.2,8.2"/>
	<path id="path483" class="st42" d="M1435.9,318.6l-0.1,79.5l4.4-0.3l-2.5-79.7L1435.9,318.6z"/>
	<path id="path485" class="st13" d="M1437.6,318.2c3.5,3.9,6.4,6,9.4,8.6"/>
	<path id="path487" class="st43" d="M1438.8,315.9c-0.9-0.5-3.2-0.5-4.2,0.6c-0.5,0.6-0.1,2.6,0.5,2.6c1.3,0,2.9,0.1,3.4-0.4
		C1439,318.1,1439.4,316.2,1438.8,315.9z"/>
	<path id="path489" class="st44" d="M1436.3,408.4c0.1-0.7,0.6-0.9,1.3-1c0.7,0,1.6-0.1,2,0.2c0.5,0.1,0.8,0.4,1.3,0.6
		c0.3,0.4,0.8,0.6,1.2,0.8c1.4,0.5,0.7-1.1,1.5-1.2c0.7,0.1,1.4-0.3,2,0c0.5,0.1,0.8,0.5,1,0.8c0.3,0.3,0.6,0.5,0.8,0.8
		c0.1,0.4,1.7,1.2,1.7,0.2c0.3-0.7,0.2-1.8,1.3-1.7c1.2-0.1,2.1,0.2,3.2,0.4c0.6,0.2,1,0.3,1.5,0.8c0.4,0.2,0.4,0.7,0.8,0.7
		c1.1,0.8,0.9-0.7,1.2-1.2c0.3-0.4,1.1-0.3,1.4-0.6c0.7-0.2,1.4-0.4,2.3-0.4c0.4,0.2,1.1,0.6,1.5,0.8c0.3,0.3,0.8,0.7,1,1.3
		c0,0.5,0.5,0.9,1,0.5c0.2-0.6,0.7-0.6,1.2-0.9c0.5-0.1,0.8-0.4,1.1-0.7c0.3-0.1,0.6-0.7,0.8-0.9c0.5-0.4,1.4-0.3,2.2-0.4
		c0.8,0.2,1.5,0.3,2,0.7c0.3,0.3,0.5,0.7,0.9,0.8c0.3,0.5,0.9,0.1,1.3-0.1c0.3-0.2,0.8-0.5,1.3-0.7c0.4-0.4,0.9-0.6,1.6-0.6
		c0.9-0.1,1.3,0.4,2,0.4c0.6,0.3,1.4,0.3,1.8,0.7c0.5,0.3,1.1,0.6,1.6,0.2c0.6,0,0.1-1.2,0.4-1.5c0.7-0.6,2.4-0.5,3.3-0.2
		c0.7,0,1.6-0.1,2.1,0.2c0.5,0.1,0.6,0.6,0.8,1.1c0.2,0.5,1.5,0.4,2,0.1c0.4,0-0.1-0.6-0.3-0.8c-0.3-0.2-0.6-0.6-0.7-0.9
		c0.7-0.3,1,0.3,1.5,0.4c0.3,0.3,0.8,0.4,1.1,0.7c0.5,0.2,1,0.5,1.8,0.4c0.8,0.2,0.4,1.3-0.4,1.1c-0.6,0.2-1.6,0-2.4,0.1
		c-1.2-0.1-2.4-0.1-3.7-0.1c-0.6,0.2-1.6,0.2-2.3,0.4c-0.8,0-1.4,0.2-2.2,0.1c-0.8,0.1-1.7,0.1-2.6,0.1c-0.8,0.2-1.5,0.2-2.3,0.3
		c-0.7,0-1.3,0.1-2.1,0.1c-1,0.2-2.4,0-3.6,0.1c-0.7,0.1-1.4,0.1-2.1,0.2c-0.7,0-1.4,0.1-2.2,0.2c-0.8,0-1.4,0.2-2.3,0.1
		c-1.3,0.2-2.7,0-4,0.1c-0.6-0.1-1.5-0.1-2.2-0.2c-0.7,0-1.2-0.1-1.9-0.1c-0.6-0.2-1.5,0-2.1-0.2c-1.1,0.1-1.9-0.1-3-0.1h-5.8
		c-0.5-0.2-1.4,0-2-0.1c-1.1,0-2.4,0-3.3,0c-0.9-0.2-1.8,0-2.5-0.3C1437.6,409.7,1436.2,409.4,1436.3,408.4L1436.3,408.4z"/>
	<g id="g499">
		<path id="path491" class="st45" d="M1426.7,328.4c1.4,5.2,7.9,4.4,7.7-0.3"/>
		<path id="path493" class="st46" d="M1432.7,328.3c1.8,5.9,10.3,5.1,10.1-0.3"/>
		<path id="path495" class="st47" d="M1439.9,328.3c1.8,4.3,5.1,4.7,7.8-0.3"/>
		<path id="path497" class="st48" d="M1449.6,326.3l-23.9,0.8l0,1.3l24.1-0.7L1449.6,326.3z"/>
	</g>
	<path id="path501" class="st13" d="M1433.2,337.9c-2.1,1.8-6.1,4.2-7.8,4"/>
	<path id="path503" class="st13" d="M1428.9,331.3c-5.2,19.6-11.9,40.5-18.2,57.1"/>
	<g id="g523">
		<path id="path505" class="st43" d="M1426.4,343.3c1.4,5.5,8.2,4.7,8-0.3"/>
		<path id="path507" class="st49" d="M1432.1,343.2c1.9,7.4,10.6,6.3,10.3-0.4"/>
		<path id="path509" class="st50" d="M1440,343.1c2.1,4.6,5.9,5.1,8.9-0.4"/>
		<path id="path511" class="st51" d="M1449.9,340.5l-24.5,1.1l0,1.8l24.7-0.9L1449.9,340.5z"/>
		<path id="path513" class="st52" d="M1425.1,357.4c1.5,6.8,8.8,5.8,8.6-0.4"/>
		<path id="path515" class="st53" d="M1431.8,357.4c2.2,10,12.3,8.5,12-0.6"/>
		<path id="path517" class="st54" d="M1439.8,357.2c2,5.7,5.7,6.2,8.7-0.4"/>
		<path id="path519" class="st55" d="M1450.6,354.7l-27.9,1.1l0,1.8l28.1-0.9L1450.6,354.7z"/>
		<path id="path521" class="st56" d="M1424.6,374c1.7,7.3,9.6,6.3,9.3-0.4"/>
	</g>
	<path id="path525" class="st13" d="M1445.3,377.8c1.6,7,3.7,13.4,5.7,19.3"/>
	<path id="path527" class="st13" d="M1443.2,377.6c0.9,6.7,2.7,13.2,4.7,19.5"/>
	<g id="g541">
		<path id="path529" class="st57" d="M1431.8,373.8c2,9.7,12.2,8.9,12.1-0.5"/>
		<path id="path531" class="st58" d="M1440.5,373.7c2.2,6.2,6.2,6.7,9.4-0.5"/>
		<path id="path533" class="st59" d="M1452.2,370.7l-31.1,1.3l0,2.1l31.4-1.1L1452.2,370.7z"/>
		<path id="path535" class="st60" d="M1442.1,335.7l-8.9,0.2l0,2l9,0L1442.1,335.7z"/>
		<path id="path537" class="st60" d="M1442.1,350.1l-8.9,0.2l0,2l9,0L1442.1,350.1z"/>
		<path id="path539" class="st61" d="M1442.7,365.9l-9.5,0.2l0,2l9.6,0L1442.7,365.9z"/>
	</g>
	<g id="g571">
		<g id="g559">
			<path id="path543" class="st13" d="M1446.1,379.8l-5.1,1.1"/>
			<path id="path545" class="st13" d="M1447,383.7l-5.1,1.1"/>
			<path id="path547" class="st13" d="M1448.1,387.9l-5.2-0.2"/>
			<path id="path549" class="st13" d="M1449.6,392l-5.3,0.8"/>
			<path id="path551" class="st13" d="M1425.8,391.2l5.4,1.1"/>
			<path id="path553" class="st13" d="M1427.3,386.8l4.8,1.1"/>
			<path id="path555" class="st13" d="M1428.6,383.4l4.5,1.1"/>
			<path id="path557" class="st13" d="M1429.4,380.4l4,0.8"/>
		</g>
		<g id="g569">
			<path id="path561" class="st62" d="M1493.1,398.2c8.9-0.4,19.6-1.4,26.8,1.4"/>
			<path id="path563" class="st62" d="M1493.6,401.2c8.2-1.2,17.8-1.9,24.8,0.8"/>
			<path id="path565" class="st62" d="M1494.5,407.1c5.9-1.3,13.9-1.6,19.5-0.2"/>
			<path id="path567" class="st62" d="M1495.1,408.5c5.9,1.3,12.9,1.6,18.5,0.2"/>
		</g>
	</g>
	<path id="path573" d="M1408.3,387.8l19.3,11.6l0.4-0.5l-6.1-4.2C1417.6,392,1413.2,389.4,1408.3,387.8z"/>
	<g id="g605">
		<g id="g601">
			<path id="path575" class="st13" d="M1500.8,397.3l-0.2-6.4"/>
			<path id="path577" class="st13" d="M1502.8,390.9l0,6.6"/>
			<path id="path579" class="st13" d="M1506.4,397.6v-6.9"/>
			<path id="path581" class="st13" d="M1510.4,391.3l0,6.6"/>
			<path id="path583" class="st13" d="M1512.8,391.2l0.1,6.7"/>
			<path id="path585" class="st13" d="M1516,391.9v6.3"/>
			<path id="path587" class="st13" d="M1517.7,391.8l-0.1,7"/>
			<path id="path589" class="st13" d="M1501.7,400.1l-0.1,6"/>
			<path id="path591" class="st13" d="M1499.6,400.4v5.7"/>
			<path id="path593" class="st13" d="M1504.9,400.2l-0.2,5.7"/>
			<path id="path595" class="st13" d="M1506.9,400.2l-0.1,5.7"/>
			<path id="path597" class="st13" d="M1509.8,400.1l-0.4,5.6"/>
			<path id="path599" class="st13" d="M1512.6,400.8l-1.1,5.1"/>
		</g>
		<path id="path603" class="st62" d="M1493.2,391.3c8.8-1,17.6,0.2,26.4,1.1"/>
	</g>
</g>
<path id="path609" class="st12" d="M1166.1,299.8c0.1-29.8-1.6-58.8-0.8-84.1c-38.6-17.1-89.3-20.7-115.2-20.7
	c-25.9,0-76.7,3.5-115.2,20.7c0.8,25.4-0.9,54.3-0.8,84.1H1166.1z"/>
<g id="g1387" transform="matrix(0.48583726,0,0,0.48583726,180.7078,93.349805)">
	<path id="path1116" class="st63" d="M1774.9,325.3c0,0,8.6,12.8,10.9,19.6c1.1,3.4,1.6,7,1.3,10.6c-0.4,6.5-2.9,12.6-4.9,18.8
		c-1.4,4.3-4.5,7.5-2.8,11.7c0.8,2,1.6,3.8,3.8,3.5c1.3-0.2,1.9-1.8,3-2.6c0.7-0.6,1.4-1.3,2.3-1.6c1.2-0.5,3,0.3,4-0.7
		c0.8-0.8,1.4-2.4,0.7-3.3c-0.6-0.8-2,0-3,0c-1.4,0.1-3,1-4.3,0.3c-1.3-0.7-2-4-2-4s2.6-7.1,4-10.6c1.2-2.9,3-5.5,3.6-8.6
		c0.2-1-0.1-2,0-3c0.1-1.6-0.4-3.5,0.7-4.6c0.7-0.7,2.6,0.3,3-0.7c1.4-3.6-5.2-6-6.6-9.6c-0.5-1.3-0.2-2.9-0.7-4.3
		c-1-3-4.6-8.2-4.6-8.2L1774.9,325.3z"/>
	<path id="path1140" class="st64" d="M1801.7,335.2c0,0,7.6,9.5,8.4,15.3c0.2,1.3-0.9,2.5-0.9,3.8c0,2,1.2,3.9,1.1,6
		c-0.3,6.5-3.7,12.5-5.3,18.8c-1.3,5.3-3.5,16.1-3.5,16.1l4.9-0.4l0.9-8.2c0,0,2.5-9.3,3.8-13.9c0.8-3.2,1.3-6.6,2.4-9.7
		c0.8-2.1,2.4-3.8,2.9-6c0.7-2.8,1.5-6,0.2-8.6c-0.4-0.9-1.7-1-2.4-1.8c-1.7-1.7-2.9-3.8-4-6c-1.1-2.2-2.4-6.9-2.4-6.9
		C1806.7,334.1,1801.7,335.2,1801.7,335.2L1801.7,335.2z"/>
	<path id="path1344" class="st18" d="M1765.7,317.9l5.4,4.3l9.4,5.7l4.3,0.3l4.9,1.8l6.1-0.2l4.5,4.6l1.3,0.9l5-0.7l1.9-2.1
		l9.6-14.6l-2.3-24.1l-45.7,3L1765.7,317.9z"/>
	<path id="path1171" class="st18" d="M1815,277.2c6.2,5,12.2,10.3,17,16.6c3.7,4.4,6,10.4,11.5,13.1c7.7,8.2,40.6,17.7,40.7,20.3
		c-7.6-3.1-10.9,7.3-18.2,5.6c-6.8,2-12.5-2.5-18.4-5c-8.9-0.3-18.2,0.1-26.1,4.7c-4.3,2.4-9.5-1.3-12.9-0.1l-0.4,0.7l-0.5,0.5
		 M1765.7,317.9c-5.3-2.6-9.1-7.5-14-10.5c-3.8-5.3-8.7-10.7-8.4-17.7c-0.6-7.3-2.5-17.3,1-24.2c-2.5-5.4-5.9-6.9-8.7-12.2
		c-2-7.4-9.5-11.6-5-17.2c5-4.4,8.5-9.7,14.9-12c5.3-1.2,10.7-0.7,15.9,1.1c6.6,0.8,10.3,6.4,13.8,11.3c4.2,6.6,7.1,14.1,8.2,21.8
		c3.1,6.4,11.2,7.7,17.1,10.4c5.1,2.4,10.3,4.5,14.5,8.4"/>
	<path id="path1332" d="M1851.1,320c-2.6-0.4-8.8,2.2-7.2-1.6c-6.4-0.5-13,0.9-19.2-1.2c-6.3-3.1-13.2-5-20-6.9
		c-6.6-0.4-14.5,1.2-19.6-4.3c-5.3-3.1-13-0.9-17.9-5.4c-4.9-4.2-7.9-9.9-7.7-16.4c-1-6.3-3.3-14.8,3.7-18.5c4.6-1.4,9-0.2,11.8-4.8
		c5.9-1,11.3,1.2,16.3,4c5.9,2.9,12.5,4.8,18.3,8.1c5.5,3.7,10.2,8.4,15.4,12.6c4.1,4.7,8.8,9,11.5,14.7c3.1,6.2,9.6,9.4,15.1,13
		c3.3,0.9,11.2,4.5,3.7,5.5C1854,319.1,1852.6,319.8,1851.1,320z"/>
	<path id="path1327" class="st65" d="M1786.2,299.2c-3.2-0.4-6.5-1.1-9.2-3.1c-2.1-1.3-7.3-4.3-3.9-6.7c2.8-0.3,6,1.1,8.5-0.9
		c3.8-0.8,7.7-0.9,11.2-2.7c3.2-1.8,7-0.6,10.4-1.7c2.5-1.3,2.2-6.4,6-5.5c3.5-0.9,2.5,5.8-0.7,3.7c-1.9,2.7,3.5,3.6,4.9,5.3
		c2.9,3.3-3.5,4-4.1,6.5c-4,1.2-7-3.9-11-2.5c-0.7,1.4,0.1,4.1-2.8,3.4c-3.4-2.1-6.3,0.3-9.6,0.7
		C1787,296.6,1784.9,299.3,1786.2,299.2L1786.2,299.2z"/>
	<path id="path1258" class="st65" d="M1856.3,323.4c-1.9-1-4.3-0.2-6.4,0c-1.4,0-2.8,0.1-4.1-0.5c-2.1-0.1-6-2.3-6.6,0.7
		c0.1,1.3,3.6,1.8,0.7,2.3c-2.9,0.4-5.4-0.9-8.1-1.8c-1.1-1-3.3-2.3-2.8,0.2c0.9,2.1-1.3,3.1-3.1,3c-2.6-0.2-5.4-0.9-7.3-2.7
		c-1.3,1.7,1.9,4,3.8,4.1c1.9,1.6-2.9,1-4,0.8c-1.6-0.3-3.4-0.5-4.8,0.5c-2.2,0.5-2.3,2.7,0.3,2.5c2.5,0.8,5.3,1.6,7.8,0.3
		c2.7-1.6,5.6-2.7,8.7-3.2c2.4-0.5,4.8-0.9,7.3-1.1c3.3-0.4,6.5-0.3,9.8-0.3c2.6,1.4,5.1,0.2,7.4-1c1.4-0.4,5.6-2,2.5-3.2
		C1857,323.7,1856.6,323.1,1856.3,323.4L1856.3,323.4z"/>
	<path id="path1255" d="M1847.5,327.9c1.3,0,2.5,0,3.6-0.6c1.2-0.7,2.6-0.9,3.9-1.4c1.7,0,2.5-2.3,0.7-2.7c-0.9-0.6-2-1.1-3-1.5
		c-1-0.9-2.5-1.1-3.4-2c0.8-0.9,1.4-2,2.2-2.9c1.2-0.5,2.6-0.3,3.9-0.6c0.9-0.3,1.9-0.2,2.9-0.2c1.3,0.7,2.7,1.1,4,1.8
		c1.3,0.7,2.6,1.3,4.1,1.8c1.2,0.4,2.3,0.8,3.5,1.3c1.3,0.7,2.8,0.9,4.2,1.4c1.4,0.3,2,1.8,3.6,1.6c1.6,0.3,3.1,0.6,4.2,1.7
		c0.9,0.4,2.5,1.2,2.5,2c-1.3,0.2-2.4-1-3.8-0.7c-1.1,0.2-1.8,1.3-3,1.1c-0.5,1.6-2.6,1.4-3.6,2.7c-1.3,1-2.8,2-4.4,2.6
		c-1.2,0.5-2.6,0.4-3.8-0.1c-1.4-0.4-3,0-4.4-0.3c-1.6,0.4-3,0.1-4.5-0.4c-1.3-0.3-2.3-1.3-3.4-2c-1.3-0.5-3.7-1.2-5.1-1.7
		c-0.7-0.3-0.6-0.5-1.4-0.7L1847.5,327.9z"/>
	<path id="path1245" d="M1749.3,223.3c-1.4,0-2.7,0-4,0.5c-2.2,0.5-4.2,1.8-5.6,3.6c-1.8,2.2-4,4-6.4,5.7c-1.2,0.8-2.1,1.9-2.8,3.1
		c1.3,0.9,3.5,1.1,4.4-0.5c1.5-1.8,3.4-3.3,5.5-4.1c1.9-0.4,3.9,0.4,5.8,0.6c1.5,0.8,3.1,1.5,4.8,1.7c0.9,0.3,2.5,0.5,3.7,0.8
		c1.8,0.7,3.6,1,5.5,1.5c2.1,0.4,4.2,0.3,6.2-0.1c0.5-0.1,0.9-0.1,1.4-0.1c-0.3,0.7-0.5,1.3-0.5,1.6c0,1.3,0.6,2.4,1.1,3.5
		c0.7,1.1,1.3,2.2,2,3.2c0.5,1.2,1.2,2.5,1.6,3.7c0.6,1,1,2,1.4,3.1c0.3,1.2,0.8,2.3,1.6,3.2c0.8,1.1,1.8,2.1,2.6,3.3
		c0.7,1,1.2,2.1,1.7,3.2c0.9,0.8,1.9,1.9,3.1,1.7c1.3,0.2,2.5-0.4,3.8-0.5c-0.1,0-0.3-0.1-0.4-0.1c-1.2-0.6-1.8-1.8-2.4-2.9
		c-0.3-1.2-0.4-2.5-0.6-3.7c-0.1-1.2-0.5-2.4-0.9-3.5c-0.3-1-0.7-2-1-3c-0.5-1-0.9-2.1-1.3-3.2c-0.4-1.1-0.8-2.3-1.4-3.3
		c-0.6-1.1-1.1-2.3-1.8-3.3c-0.7-1-1.1-2.2-1.9-3.2c-0.4-0.6-0.9-0.9-1.5-1.1c0.2-0.6,0-1.4-0.7-2c-0.9-1-2.1-2-2.8-3.4
		c-1.4-1.8-3.8-2.4-5.8-3.3c-2.3-1.1-4.8-1.6-7.3-2c-2-0.5-4-0.8-6-0.7C1750.2,223.3,1749.8,223.3,1749.3,223.3z"/>
	<path id="path1239" class="st65" d="M1772.4,255.8c-0.1-1.8-2.5-1.1-3.2-0.1c-1.2,1.2-1.9,2.8-3.3,3.8c-2.1,1.5-4.9,1.8-7,3.3
		c-1.2,1.2-2.1,2.8-3.7,3.6c-1.7,0.9-3.5,1.9-4.3,3.6c-0.4,1.3-1.3,3.1,0.1,4.1c1.7,0.6,0.1,2.2,0.2,3.3c0.8,1.2,2.8,1.7,4,0.8
		c1.6-1,3.4-1.9,4.5-3.5c1.5-1.9,3.3-3.7,5.5-4.8c1.5-0.4,2.6-1.4,3.6-2.4c1.1-0.9,0.2-2.6,1.8-2.8c1.5-0.6,2.2-1.9,3.2-3.1
		c0.9-1.3-0.7-2.6-0.5-4C1773.1,256.9,1773,256.2,1772.4,255.8L1772.4,255.8z"/>
	<path id="path1157" class="st64" d="M1797.7,396.4c-3,0-5.9,0-8.9,0c-1.5-0.6-2.5-3.1-4.4-2.1c-1.6,0.6-3.3,1.4-4.8,2.2
		c-1.5,0.8-2.8,1.9-3.8,3.3c-0.2,0.9-2.9,2-0.6,2c2,0.2,3.2-1.9,5.2-2.2c1.5-0.6,3.2-0.2,4.8-0.3c1.3,0.3,2.8,0.3,4.2,0.3
		c1.6-0.1,3.1,0.2,4.6,0.1c2.2,0.2-0.8,1.6-1.5,1.9c-1.7,0.8-3.7,1-5.6,1.4c-1.9,0-3.8-0.1-5.5,0.8c-1.7,0.8-3.4,1.6-5,2.7
		c-0.9,0.5-3.1,1.6-0.9,1.7c1.6,0.2,3.2-0.2,4.7-0.7c2.7-1,5.4-1.7,8.2-2.1c1.8-0.4,3.5-1.2,5.4-1.5c1.1,0,4.2-0.6,3.2,1.4
		c-1.2,1.4-2.8,2.4-4.4,3.1c-1.4,0.8-2.7,2.1-4.4,2c-1.3-0.5-4.1,0.5-2.1,1.9c1,1.8,3.1,0.6,4.4-0.1c1.5-0.8,3.1-1.4,4.7-2
		c1.8-0.7,3.7-1.4,5.4-2.2c1.5-0.9,3.3-1.2,4.6-2.3c1.6-0.9,3.5-1.7,4.2-3.5c0.5-1.5,1.6-2.4,3-2.9c1.6-0.4,3.3-0.2,5-0.5
		c1.9,0,1.3-3.3-0.4-3.4c-1.5-1-2.8-2.1-4.3-3c-1.8-0.7-3.7-1.1-5.7-0.9c-1.6,0.1-2.9,1.1-3.7,2.5c-1,1.2-1.2,3.2-3.2,2.8
		C1799.4,397.1,1798.5,396.7,1797.7,396.4L1797.7,396.4z"/>
	<path id="path1136" class="st64" d="M1754.2,407.5c0,0,1.7-6.2,3.9-8.4c4.5-4.4,17.2-7.6,17.2-7.6c-5.4,2.1-11.9,0.5-17.2,2
		c-4.4,1.4-11.9,6.9-11.9,6.9s2.8-5.9,4.9-8.4c6.3-6.9,16.3-7.7,23.9-6.5l8.6,1.2c0,0,1.5,0.9,0.8,2.2c-1.4,2.7-5.4,4.3-8.2,5.6
		C1768.6,398.6,1759,401.7,1754.2,407.5z"/>
	<path id="path1134" class="st63" d="M1780.4,385.6c-6.9,4.7-22.9,13-22.3,13.5c0,0,13.6-3.1,19.8-6.1c2.2-1,5.2-1.8,5.9-4.1
		c0.4-1.2-0.2-2.8-1.2-3.5C1782,385,1781,385.2,1780.4,385.6z"/>
	<path id="path1138" class="st65" d="M1813.4,349.4c-1.7-0.1-1.9,3-2,4.6c0,1.2-0.1,3.2,1.1,3.3c1.5,0.1,1.8-2.5,2-4
		C1814.7,352,1814.8,349.5,1813.4,349.4L1813.4,349.4z"/>
	<path id="path1142" class="st63" d="M1806.3,394.7c0.1-1.4-1.7-0.6-2.4-0.4c-1.7,0.4-3.1,1.3-4.6,2.2c-1.1,0.7-2.4,1.3-3.6,2
		c-2.3,1.1-4.4,2.6-6.7,3.7c-1,0.5-2,0.9-3.1,1.2c-0.9,0.2-0.6,0.7,0.2,0.6c1.6,0.3,3.3,0.2,4.8-0.4c1.7-0.5,3.6-1,5.3-1.7
		c0.9-0.8,2.7-1.1,3.7-1.7c0.8-0.5,3.1-0.9,4-1.3c1.5-0.8,0.9-1.9,2.6-1.9c1.1,0,1.2-1.7,0.2-1.9
		C1806.6,395.2,1806.4,395,1806.3,394.7L1806.3,394.7z"/>
	<path id="path1149" class="st63" d="M1790.6,409.3c1.2-0.3,2.5-0.3,3.7-0.7c1.5-0.4,3-0.9,4.4-1.4c0.7-0.3,1.4-0.7,2.1-1
		c1.2-0.9,2.1-2.2,2.9-3.4c0.6-1,1.1-2.1,1.6-3.2c0.2-0.9-0.8-1.2-1.3-0.6c-0.8,0.6-1.5,1.2-2.3,1.7c-0.8,0.7-1.8,1.1-2.5,1.9
		c-0.9,1-1.3,2.4-2.3,3.4c-0.5,0.5-1,0.8-1.6,1.1c-1.3,0.7-2.7,1.1-3.9,1.7C1791.1,409,1790.8,409.1,1790.6,409.3L1790.6,409.3z"/>
	<path id="path1163" class="st66" d="M1807.3,319.2c0.5,0.8,0.8,1.8,0.8,2.7c0.1,1.1,0.4,2.3,0.6,3.4c-0.1,1.2-1.3,1.9-1.5,3.1
		c-0.1,0.8,0,1.6-0.1,2.4c-0.3,1.3,0.1,2.6-0.4,3.8c-0.6,1.2-2.3,0.3-3.4,0.6c-1,0.2-2.3,0.3-2.9-0.7c-0.9-0.9-1.7-2-2.6-2.8
		c-1.2-1.2-2.4-2.3-3.2-3.8c-0.7-1-1.3-2.1-2-3.1c-0.2-0.4-0.5-1-0.6-1.3"/>
	<path id="path1165" class="st66" d="M1795.9,329.8c-1,0-2,0.3-3.1,0.2c-1,0-2,0-3,0c-0.7-0.3-2.2-0.3-2.9-0.8c-0.8-0.2-1.2-0.7-2-1
		c-0.5-0.4-1,0-1.7-0.1c-0.5-0.8-1.5-1.9-2-2.5c-0.6-0.3-1.2-0.5-1.7-1.2c-0.6-0.2-1.1-1.2-1.4-1.5c-0.5-0.6-0.6-1.3-1.1-1.9
		c-0.4-0.6-0.6-1.2-1-1.9c-0.1-0.1,0-0.3,0-0.5"/>
	<path id="path1167" class="st66" d="M1783.2,328.1c-0.2,1.5-1.9,0-2.6-0.2c-0.6-0.3-1.2-0.7-1.9-0.9c-0.5-0.4-1.2-0.7-1.7-0.9
		c-0.6-0.4-1.4-0.7-1.9-1.1c-0.9-0.2-1.6-1.1-2.4-1.3c-0.8-0.7-1.7-1.3-2.5-1.9c-0.9-0.7-1.9-1.3-2.8-2.2c-0.8-0.7-1.5-1.5-1.6-2.6
		c-0.1-1-0.4-2-0.7-2.8c0.1-0.6-0.3-0.7-0.2-1.2"/>
	<path id="path1187" class="st8" d="M1851.1,328.9c1,0.1,1.9,0,2.8-0.2c1-0.1,1.8-0.4,2.8-0.7c1-0.4,1.7-1.4,2.9-1.3
		c1-0.1,2.2,0.3,3.1-0.3c0.6-0.8,1.4-1.1,2.3-0.9c0.9-0.1,1.8,0.2,2.8,0.4c0.9,0.3,1.7,0.5,2.6,0.8c0.8,0.4,1.6,0.9,2.5,1.2
		c0.9,0.4-0.6,1-0.9,1.5c-0.9,0.4-1.9,0-2.7,0.7c-0.8,0.4-1.5,1-1.9,1.8c-0.5,1-1.6,0.7-2.5,1c-0.8,0.1-1.7,0-2.5,0.1
		c-0.7,0-1.5,0.3-2.1-0.1c-0.9-0.3-1.8-0.5-2.7-0.5c-0.7-0.5-1.3-1.3-2.3-1.4c-1.3-0.3-2.3-1.1-3.6-1.5
		C1851.4,329.5,1851.2,329.2,1851.1,328.9L1851.1,328.9z"/>
	<path id="path1181" class="st67" d="M1736.2,246.6c-2.1-0.4-4.2,0.5-6.3,0.5c-1.9,0.4-4,0.1-6,0.2c-2.1-0.4-4.3-0.2-6.4,0.1
		c-3.1,0.5-6.1,1.7-9.3,2.2c-4.3,0.3-8.6,0-12.9,0.1c-3,0.3,0.3-3.7,2-3.5c3.9-1.1,7.7-2.5,11.8-2.9c3-0.4,6-1.4,9-1.9
		c2.4-0.7,4.9-1.2,7.3-1.9c2.5-0.4,5.1-0.9,7.6-0.5c2.6-0.7,5.3-1.3,7.8-2.3c2.3-1.1,5-0.4,7.1-1.8c1.4-2,3.9-1.9,6-1.7
		c2.3,0.4,4.8,1.3,6.2,3.3c1.7,2.4-3.5,2.1-1.9,4.7c-0.9,0.9-2.7,1.2-4.1,1.1c-1.2-0.1-2.5,0.2-3.6-0.4c-2-0.7-3.4-2.2-5.2-3.2
		c-1.8-0.3-1.9,3.1-4.3,2.7c-2.9,1.1-6.2,0.8-9.3,0.9c2,0.7,4.1,1.4,5.6,2.8C1738,246.1,1736.9,246.4,1736.2,246.6L1736.2,246.6z"/>
	<path id="path1185" class="st18" d="M1748.7,238.1l2-0.9l1.1-1.8c0,0,1.7,2.5,0.9,3.4C1751.7,239.8,1748.7,238.1,1748.7,238.1
		L1748.7,238.1z"/>
	<path id="path1191" class="st18" d="M1753.9,233.3c0.4-0.3-1.6-1.6-0.1-1.9c1.6-1.9,4.1-0.3,6,0.2c3.6,1.1,7.3,2.5,9.7,5.6
		c3.4,4,4.2,9.4,6.9,13.8c1.2,2.1,1.9,4.4,2.7,6.6c0.6,1.8,3.3,3.7,1.9,5.6c-1.7,1-3.4-0.3-5-0.8c-2.2-0.2-1.1,2.2,0.3,2.5
		c1.5,0.6,2,3-0.2,2.9c-2.1-0.2-4.2-0.4-6.2-0.7c-1.6-0.9,0.4-2.5,1.4-3.1c1.2-0.7,2.8-1.7,2.6-3.4c0-3-2.1-5.5-2.5-8.4
		c-0.5-2.2-1.1-4.4-2.2-6.4c-0.9-4.7-5.2-7.9-9.5-9.4c-1.9-1-3.8-1.8-5.6-2.8C1753.9,233.5,1753.9,233.4,1753.9,233.3L1753.9,233.3z
		"/>
	<path id="path1193" class="st8" d="M1769.5,235.7c0.6,0.3,1.2,0.7,1.9,1c0.5,0.5,1.7,2.3,2,2.9c0.2,0.5,0.4,1.1,0.5,1.6
		c0.1,0.7,0.7,1.2,1,1.8c0.3,0.8,0.6,1.6,0.9,2.5c0.4,0.6,0.8,1.3,1,2c0.1,0.6,0.3,1.3,0.6,1.9c0.4,0.5,0.5,1.5-0.3,1.6
		c-0.6-0.1-1.2-0.4-1.5-1c-0.7-0.6-1-1.5-1.6-2.2c-0.3-0.5-0.5-1.1-0.6-1.7c-0.4-0.6-0.5-1.4-0.7-2.1c-0.3-0.6-0.4-1.3-0.8-2
		c-0.4-0.7-0.6-1.5-1-2.2c-0.4-0.8-1.7-2.9-1.4-3.8C1769.5,235.9,1769.5,235.8,1769.5,235.7L1769.5,235.7z"/>
	<path id="path1195" class="st8" d="M1755.4,230.4c-0.5-0.2-0.8-0.5-1.2-0.9c-0.4-0.2-1.1-0.5-1.3-0.7c-0.9,0.4-0.2-0.6-0.6-0.5
		c-0.2-0.3-0.2-0.6-0.4-1c-0.3-0.3-0.6-0.6-0.9-0.9c0-0.2-0.4-0.4,0-0.4c0.5,0,1-0.1,1.4,0.2c0.5-0.1,0.8,0.3,1.3,0.2
		c0.7,0,1.3,0,2,0c0.3-0.1,0.4,0.3,0.7,0.2c0.2,0,0.3,0.2,0.6,0.2c0.5,0,0.6,0.6,0.9,0.9c0.4,0.2,0.6,0.7,0.7,1.1
		c0.1,0.1,0.2,0.6,0.1,0.5c0.1-0.1,0.1,0.5-0.2,0.5c-0.3,0.3-0.8,0.4-1.2,0.6c-0.5,0-0.8,0.5-1.3,0.4
		C1755.9,230.6,1755.7,230.5,1755.4,230.4L1755.4,230.4z"/>
	<path id="path1210" class="st18" d="M1754.3,229.5c-0.7,0.3-1.4,0.6-2.2,0.5c-0.5,0.1-0.9,0.5-1.2,0.8c-0.4,0.3-1,0.4-1.5,0.5
		c-0.4-0.1-0.7-0.4-1.1-0.5c-0.4-0.1-0.3-0.6-0.7-0.7c-0.4-0.3-0.8-0.4-1.2-0.6c-0.4-0.2-0.2-0.6-0.3-0.9c0-0.4,0-0.7,0.2-1.1
		c0-0.5,0.4-0.7,0.9-0.6c0.8,0,1.7,0,2.5,0c0.4-0.2,0.9-0.5,1.4-0.4c0.5,0.2,0.7,0.6,1.1,0.9
		C1752.8,228.1,1753.5,228.8,1754.3,229.5L1754.3,229.5z"/>
	<path id="path1212" class="st18" d="M1758,227.6c0.5-0.3,1.1-0.6,1.8-0.6c0.6,0,1.2,0.2,1.8,0.4c0.6,0.2,1.3,0.3,1.8,0.7
		c0.7,0.2,1.3,0.6,1.9,0.9c0.6,0.3,1.1,0.7,1.7,0.9c0.5,0.3,1.1,0.6,1.6,0.9c0.5,0.4,1,0.9,1.4,1.4c0.4,0.4,0,1.2-0.5,0.8
		c-0.6-0.4-1.2-0.6-1.8-0.8c-0.6-0.1-1.1-0.2-1.7-0.5c-0.6-0.1-1.2-0.5-1.8-0.7c-0.8-0.4-1.6-0.6-2.4-1c-0.3-0.3-0.8-0.3-1.1-0.5
		c-0.7-0.4-1.5-0.7-2.2-1.1C1758.3,228.2,1757.9,228,1758,227.6L1758,227.6z"/>
	<path id="path1232" d="M1766.9,240.2c-2.4-0.2-4.8,0.9-7.2,0.2c-1.8-0.2-3.2,1.1-4.7,1.8c-2-0.2-2.4,2.7-4.2,2.5
		c-1.5-0.2-3.3-1.4-4.7-0.8c3.1,1.4,6.2,2.7,9,4.7c1.5,1.4,3.2,2.6,5.2,3.2c1.3,0.6,2.9,1.9,2.3,3.5c-0.6,1.9-3.4,2.2-3.5,4.4
		c-0.3,1.9-2.4,2.7-3,4.4c-0.7,1.3-2.4,2.1-2.6,3.7c0.4,2,2.7,0.5,2.7-1c0.4-1.3,1.5-3.3,3.1-2.5c1.3,1.8,2.9-1.3,4.5-0.5
		c0.7,1.1,2.4,1.7,3.1,0.2c1.1-0.4,2.7-1.1,1.7-2.6c0-1.5,1.9-1.4,2.8-2.3c1.2-0.5,2.5-2.1,1.2-3.3c-1.2-1.7,0.1-4-1.4-5.6
		c-1.1-1.8,0-4-0.9-5.8c-0.8-1.5-1.4-3.7-3-4.3L1766.9,240.2z"/>
	<path id="path1253" class="st65" d="M1831.4,305.6c-2.7,0-5,2-7.7,2.2c-3.3,0.5,0.9,1.9,1.9,2.7c2.6,1.7,5.7,2.3,8.6,3.3
		c2.7,1.3,5.8,2.1,8.8,1.6c2.8-0.7,0.7-3.4-0.1-5c-1.7-2.4-4.5-3.6-6.6-5.6C1834.8,303.5,1832.5,304,1831.4,305.6L1831.4,305.6z"/>
	<path id="path1264" class="st18" d="M1829.5,311.4c-1,0.1-2,0.5-3,0.3c-1.2,0.1-2.4,0.3-3.5-0.3c-1.2-0.3-2.5-0.5-3.6-1.2
		c-0.8-0.6-2-0.8-2.5-1.7c-0.7-1,0.7-1.1,1.4-1.2c1.2-0.2,2.5-0.5,3.8-0.2c1.3,0.7,2.8,1.1,4.2,1.8c1.1,0.5,2.2,1,3,2
		C1829.3,310.7,1829.5,311.2,1829.5,311.4L1829.5,311.4z"/>
	<path id="path1266" class="st18" d="M1843,310.6c0.2,1.2-1.9,0.1-2.6,0.4c-1.4,0.2-2.6-0.2-3.9-0.8c-2-1-4.1-1.9-6.3-2.4
		c-1-0.3-3.1-1.2-1.6-2.4c1.2-0.9,2.7-1.6,4.2-1.8c1.6-0.1,2.9,1,4.3,1.5c1.4,0.7,2.9,1.3,4.2,2.3
		C1842.1,308.2,1843.1,309.3,1843,310.6L1843,310.6z"/>
	<path id="path1270" class="st65" d="M1805.8,297.3c-2,1.2-4.3,1.8-6.6,1.7c-2.1,0.8-5.6-1.1-6.3,1.6c-1,2.2,1.7,3.2,3.1,4.1
		c4.2,2.4,9.1,2.3,13.8,2.5c1.3,0.1,5.3-0.5,3.2-2.1c-2.3-1.8-4.1-4.2-6-6.4C1806.5,298.4,1806,297.9,1805.8,297.3L1805.8,297.3z"/>
	<path id="path1272" class="st65" d="M1829.3,298.8c-0.9-0.1-1.8-0.5-2.7-0.8c-1.2-0.4-2.3-1.2-3.5-1.8c-1.6-0.9-3.2-1.9-4.8-2.7
		c-0.8-0.3-0.7-1.2,0.2-1.1c0.9,0,1.2-1.4,2-0.5c1.1,0.7,2.1,1.4,2.9,2.4c1,0.8,1.9,1.8,3.3,2.2
		C1827.7,297.1,1829.2,297.6,1829.3,298.8L1829.3,298.8z"/>
	<path id="path1274" class="st65" d="M1826.1,303.2c0,0-4.3,1.1-6.2,0.3c-1.5-0.4-3-0.7-4.3-1.4c-1.7-0.8-3.5-1.6-4.8-3
		c-1.1-1.3,0.3-3.4,1.9-2.9c1-0.3,0.6-2.7,2.2-1.6c2.2,1,4.3,2.1,6.2,3.5c1.1,1.1,2.4,2,3.5,3.1
		C1825.1,301.9,1826.1,303.2,1826.1,303.2z"/>
	<path id="path1296" class="st65" d="M1794.4,273.3c2.8,0.7,6.1,2.1,7.9,4.6c2.5,3-2.4,4.7-4.6,3c-3.6-1.8-7.2-3.6-11.1-4.7
		c-3.7,0.5,1.6,2.6,2.7,3.6c1.6,1,3,2.8,3,4.7c-2.4,1.9-5.6-0.1-8.3-0.4c-2.9-0.3-4.6-2.9-6.4-4.9c-1.3-1.4-2.9-2.2-4.7-1.4
		c0,2.5,1.8,3.1,2.9,5.2c1,1.3,4.9,4.4,1.1,4.5c-2.7-0.8-5.3-2.6-6.8-5.1c-1.7-1.7-3-5.3,0.5-5.8c3-1.8,6.5-2.7,9.9-2.7
		c3.8-0.3,7.6,0.3,11.3-0.7C1792.4,273.3,1794.8,272,1794.4,273.3z"/>
	<path id="path1298" class="st18" d="M1765.7,275.5c-0.5,0.8-0.8,1.6-0.8,2.4c-0.1,1,0,2,0.1,2.9c0.3,0.8,0.5,1.6,0.8,2.4
		c0.5,0.9,1.2,1.4,1.9,2c0.6,0.6,1.2,1,1.9,1.4c0.6,0.3,1.1,0.6,1.8,0.8c0.6,0.2,1.5,0.5,2.2,0.6c0.8,0.1,1.4,0,1.8-0.7
		c0.9-0.5,0.2-1-0.4-1.2c-0.7-0.1-1.2-0.7-1.8-1.1c-0.6-0.6-1.1-1.2-1.5-1.9c-0.2-0.6-0.7-1.2-1.1-1.9c-0.4-0.5-0.8-1-1.3-1.5
		c-0.6-0.6-1.2-1.2-1.7-1.8c-0.4-0.6-1-1.3-1.6-1.8C1765.7,275.8,1765.6,275.7,1765.7,275.5L1765.7,275.5z"/>
	<path id="path1300" class="st18" d="M1790.6,285.3c-1.6-0.1-4.1-0.8-6-1.4c-2.1-0.7-4.1-2-5.4-3.9c-1.6-1.5-3.1-3-5-4.2
		c-1.9-0.6-2.7,2.1-1.5,3.3c1,1.7,2.6,3,3.8,4.6c1.4,1.5,3.1,2.5,4.9,3.5c2.2,1.4,4.9,1.8,7.5,2c1.5-0.2,3.3-1.1,3.7-2.7
		C1792.7,285.5,1791.3,285.3,1790.6,285.3z"/>
	<path id="path1304" class="st18" d="M1785.1,298c-1.4,0.3-2.9,0.3-4.1-0.6c-1.2-0.6-2-1.7-2.7-2.8c-1-1.1-2.1-2.3-3.5-2.7
		c-1.3-0.4-2.8,0.5-2.4,2c0.2,1.2,1.1,2.2,1.9,3c1.4,1.4,3.2,2,5,2.7c0.9,0.5,1.9,0.6,2.9,0.6c1,0,2.6,0.4,2.9-0.9
		C1785.1,298.8,1785,298.4,1785.1,298L1785.1,298z"/>
	<path id="path1306" class="st18" d="M1799,293.9c1.2,0.5,2,2,1.2,3.2c-0.9,1.2-2.5,2-4,1.8c-1.3,0-2.6,0.1-3.8-0.2
		c-1.4-0.4-2.8-1.1-4.1-1.8c-1.5-0.5-1.6-2.2-2.6-3.2c-0.6-1.1,1.4-1.6,2.2-1.3c1.4,0.5,2.3,1.8,3.6,2.3c1.1,0.6,2.2,1.1,3.4,1.2
		c1,0.2,2.4,0.5,3.1-0.6C1798.3,294.8,1798.6,294.4,1799,293.9L1799,293.9z"/>
	<path id="path1308" class="st18" d="M1811.1,290.9c1,1.1,0.4,3.1-1,3.4c-1.2,0.2-2.5,0.5-3.6,0.1c-1.8-0.4-3.3-1.4-4.8-2.3
		c-0.9-0.8-2.3-1-3-2.1c-0.4-1.4,1.2-2.6,2.5-2.1c1.9,0.6,4,0.9,5.8,1.9c1.3,0.6,2.6,1.1,4,1.2L1811.1,290.9z"/>
	<path id="path1342" class="st66" d="M1815,277.2c6.2,5,12.2,10.3,17,16.6c3.7,4.4,6,10.4,11.5,13.1c7.7,8.2,40.6,17.7,40.7,20.3
		c-7.6-3.1-10.9,7.3-18.2,5.6c-6.8,2-12.5-2.5-18.4-5c-8.9-0.3-18.2,0.1-26.1,4.7c-4.3,2.4-9.5-1.3-12.9-0.1l-0.4,0.7l-0.5,0.5
		 M1765.7,317.9c-5.3-2.6-9.1-7.5-14-10.5c-3.8-5.3-8.7-10.7-8.4-17.7c-0.6-7.3-2.5-17.3,1-24.2c-2.5-5.4-5.9-6.9-8.7-12.2
		c-2-7.4-9.5-11.6-5-17.2c5-4.4,8.5-9.7,14.9-12c5.3-1.2,10.7-0.7,15.9,1.1c6.6,0.8,10.3,6.4,13.8,11.3c4.2,6.6,7.1,14.1,8.2,21.8
		c3.1,6.4,11.2,7.7,17.1,10.4c5.1,2.4,10.3,4.5,14.5,8.4"/>
</g>
</svg>
