<svg id="Layer_1" data-name="Layer 1" xmlns="http://www.w3.org/2000/svg" width="493.89mm" height="246.94mm" viewBox="0 0 1400 700">
  <defs>
    <style>
      .cls-1 {
        fill: #f7e017;
      }

      .cls-2 {
        fill: #fff;
      }

      .cls-3 {
        fill: #cf1126;
      }
    </style>
  </defs>
  <rect class="cls-1" width="1400" height="700"/>
  <path class="cls-2" d="M0,48.61V359.72L1400,505.55V340.28Z" transform="translate(0 0)"/>
  <path d="M0,213.89V359.72L1400,651.39V505.55Z" transform="translate(0 0)"/>
  <g>
    <path class="cls-3" d="M676.41,553.89c-18.82-2.5-36.08-8.48-48.06-16.69a27.51,27.51,0,0,0-4.86-2.9c-.35,0-.63,1.77-.63,4,0,6.19-2.49,9.31-8.75,10.94-6,1.55-15.12-1.59-22.53-7.73-7.67-6.37-16.53-11.23-24-13.18a38.77,38.77,0,0,0-20.29.64,45.72,45.72,0,0,0-7,2.89,8.52,8.52,0,0,1-2.68,1.22c-1.05,0-.91-6.66.19-8.79,1.45-2.79,5-5.54,9.18-7.06,2.1-.77,3.82-1.75,3.82-2.19a13.33,13.33,0,0,0-1.57-3.54c-2.82-4.94-1.67-9.73,3.25-13.49s13.57-4.51,21.1-1.64a31.2,31.2,0,0,0,3.93,1.31c1,0,.39-1.39-2.34-5.37-3.15-4.6-3.78-6.88-3.39-12.36a14.32,14.32,0,0,1,13.1-13.13c5.66-.41,9.18,1.5,17.53,9.45,24.93,23.78,52.05,36.89,83.68,40.44,8,.89,24,.42,33.46-1,28.46-4.29,57.13-18.6,79.52-39.69,6.2-5.84,9.19-7.39,14.27-7.41,4.42,0,7.53,1.41,10.69,4.91,2.89,3.21,3.87,6.25,3.56,11.12a14,14,0,0,1-2.56,7.68c-2.75,4.47-2.28,4.87,3.15,2.77,7.33-2.85,16.36-1.53,21.23,3.1,4.29,4.07,4.7,8.14,1.36,13.67a24.32,24.32,0,0,0-2.21,4.22c0,.55.93.81,5.38,1.53,5.82.93,9.16,5.26,9.16,11.87,0,2-.24,3.6-.55,3.6a40.72,40.72,0,0,1-4.9-1.8c-6.78-2.8-10.64-3.52-18.58-3.47-6,0-8.11.32-12.32,1.69a56,56,0,0,0-19,11.18c-6.19,5.52-10.09,7.26-16.12,7.22-5.6-.06-9.43-1.69-11.45-4.88-1.08-1.72-1.24-2.76-1-6.63.18-2.51.14-4.57-.06-4.57a40.43,40.43,0,0,0-4.86,3.08,78,78,0,0,1-18,9.55c-22.54,8.92-55.06,12.78-80,9.48Z" transform="translate(0 0)"/>
    <path class="cls-3" d="M686.72,510.58c-37.51-3.6-73.4-23.14-95.22-54.11-23.69-32.31-31.16-75-23.93-114,3.85-17.76,11.6-35.53,24.84-48.18-10.55,22.36-14.12,48-8.49,72.23,8.74,48.37,49.62,89.31,98.52,96.4,19.35,5.6,39.37-.32,57.85-6.32,40.77-14.36,71.82-53.06,75.61-96.32A118.92,118.92,0,0,0,805,291.35c6,3.18,13.6,15.64,18.07,24,15.56,30.14,16.27,66.26,7.11,98.43-12.42,40.93-43.72,76.78-85.08,89.82-18.77,6.13-38.73,8-58.39,7Z" transform="translate(0 0)"/>
    <g id="hand">
      <path class="cls-3" d="M497.8,456.85c-2.46-.39-5.17,2-4.25,4.56,1.78,2.56,4.83,3.81,7.59,5A52.51,52.51,0,0,0,522,470c-2.44,0,.84,0,1.75,0a48.22,48.22,0,0,0,16.48-2.89c2.93-1,6.67-2,7.87-5.22,1.17-2.11-1-4.22-3.1-3.8-3,.65-5.77,2-8.74,2.78a56,56,0,0,1-19.73,1.95,52.91,52.91,0,0,1-14-4c-1.56-.69-3-1.69-4.73-1.9Z" transform="translate(0 0)"/>
      <path class="cls-3" d="M500.53,446.75a3.52,3.52,0,0,0-3.59,4.78c1.91,2.77,5.12,4.24,8.12,5.54a41.18,41.18,0,0,0,16.51,2.79c-2.13,0,.73,0,1.52,0A36.61,36.61,0,0,0,537,457.11c2.69-1.05,6-2.07,7.12-5,.87-1.63.2-4-1.85-4.13-1.88-.1-3.49,1.1-5.23,1.63a43.08,43.08,0,0,1-20,3.13,41.16,41.16,0,0,1-12.12-3.92c-1.45-.7-2.75-1.79-4.37-2Z" transform="translate(0 0)"/>
      <path class="cls-3" d="M503.88,437.08c-2.13-.25-3.59,2.15-3.23,4.07.31,1.68,1.83,2.81,3.08,3.85a29.13,29.13,0,0,0,18.11,5.19c-2.48,0,3.31,0,1.55,0A27.13,27.13,0,0,0,535,447.44c2.42-1.06,5.26-2.28,6.08-5,.39-1.28.63-3.14-.82-3.86s-3,.46-4.41,1a33,33,0,0,1-15.08,3.66c-4.52.16-8.78-1.75-12.71-3.8-1.42-.72-2.59-2-4.2-2.31Z" transform="translate(0 0)"/>
      <path class="cls-3" d="M468.15,294.29c-3.16,3.17-.75,9-.92,13.17,1.64,12.79,3.68,25.75,8.46,37.79C481.54,357,494,363.31,501.48,373.7c2.7,5,1.74,11,2.31,16.52.44,14.94.3,29.89,0,44.84,6.75,3.38,14.07,6.79,21.83,5.49,4.6-1.1,13.14-1.79,14.1-6.37-.37-25.76-.61-51.53-1-77.29-2.61-7.9-10.64-12-16.65-17a151.49,151.49,0,0,1-13.79-15.65c-2.55-4.3-12.52-5.85-8.91,1.63,2.11,6.47,7.5,11.28,8.85,18.08.3,3.73,4.75,10.58.95,12.75A23.84,23.84,0,0,0,498.87,347c-4.31-3.21-11.44-4.55-13-10.22-1.14-8-5.27-15.35-10.59-21.38,1.37-7.23,0-16.27-6.24-20.89l-.9-.21Z" transform="translate(0 0)"/>
      <path class="cls-3" d="M477.79,295.74c-2.88.46-2.78,4.14-1.45,6.07a26.33,26.33,0,0,1,1,13c5.13,6,9.09,13.17,10.29,21,0,3,3.14,3.94,5.16,5.4,4.73,3,10.06,5.2,14.28,9,.88.95,1.55,2,.93,0-.66-2.47-1-5.21-2.94-7.08-2.66-2.86-6-5.41-9.85-6.28-.32-4-2.23-7.67-4-11.21-1.95-3.38-4-7-7.33-9.2.13-5.93,0-12.15-2.51-17.62-.75-1.41-1.85-3.08-3.62-3.16Z" transform="translate(0 0)"/>
      <path class="cls-3" d="M485.85,298.1c-2,.6-1.63,3.07-1,4.59a53,53,0,0,1,1,12.82c3.69,2.91,6,7.14,8.09,11.26a32.38,32.38,0,0,1,3.07,8.62,23.38,23.38,0,0,1,7.95,4.93c-.93-2.8-3-5-4.38-7.52a30.2,30.2,0,0,1-3.59-8.46,14.2,14.2,0,0,1-3.83-11.62,18.84,18.84,0,0,0-4.48-12.94,4.76,4.76,0,0,0-2.87-1.68Z" transform="translate(0 0)"/>
      <path class="cls-3" d="M495,299.41c-1.1.2-1.76,1.24-2.34,2.08-.23.85.81,1.76,1,2.69A21.24,21.24,0,0,1,495,314.31a12.74,12.74,0,0,0,2,6.87,3.76,3.76,0,0,1,3.29-2.76c.56-.1,1.37.18,1-.66A52.1,52.1,0,0,0,498.68,304a10,10,0,0,0-2.71-4.3,1.35,1.35,0,0,0-1-.31Z" transform="translate(0 0)"/>
    </g>
    <g>
      <path class="cls-3" d="M902.2,456.85c2.46-.39,5.17,2,4.24,4.56-1.77,2.56-4.82,3.81-7.58,5A52.51,52.51,0,0,1,878,470c2.44,0-.84,0-1.75,0a48.22,48.22,0,0,1-16.48-2.89c-2.93-1-6.67-2-7.87-5.22-1.18-2.11,1-4.22,3.09-3.8,3,.65,5.78,2,8.74,2.78a56,56,0,0,0,19.74,1.95,53.13,53.13,0,0,0,14-4c1.55-.69,3-1.69,4.73-1.9Z" transform="translate(0 0)"/>
      <path class="cls-3" d="M899.47,446.75a3.53,3.53,0,0,1,3.59,4.78c-1.91,2.77-5.12,4.24-8.13,5.54a41.13,41.13,0,0,1-16.5,2.79c2.13,0-.73,0-1.52,0A36.57,36.57,0,0,1,863,457.11c-2.69-1.05-6-2.07-7.12-5-.87-1.63-.21-4,1.85-4.13,1.87-.1,3.49,1.1,5.23,1.63a43.08,43.08,0,0,0,20,3.13,41.26,41.26,0,0,0,12.12-3.92c1.45-.7,2.74-1.79,4.37-2Z" transform="translate(0 0)"/>
      <path class="cls-3" d="M896.12,437.08c2.12-.25,3.59,2.15,3.23,4.07-.32,1.68-1.83,2.81-3.08,3.85a29.15,29.15,0,0,1-18.11,5.19c2.47,0-3.31,0-1.55,0A27.1,27.1,0,0,1,865,447.44c-2.42-1.06-5.26-2.28-6.08-5-.39-1.28-.63-3.14.82-3.86s3,.46,4.41,1a33,33,0,0,0,15.08,3.66c4.52.16,8.78-1.75,12.7-3.8,1.43-.72,2.6-2,4.2-2.31Z" transform="translate(0 0)"/>
      <path class="cls-3" d="M931.84,294.29c3.17,3.17.75,9,.92,13.17-1.64,12.79-3.68,25.75-8.45,37.79C918.46,357,906,363.31,898.51,373.7c-2.69,5-1.73,11-2.3,16.52-.44,14.94-.31,29.89-.05,44.84-6.74,3.38-14.07,6.79-21.83,5.49-4.6-1.1-13.13-1.79-14.09-6.37.37-25.76.61-51.53,1-77.29,2.62-7.9,10.65-12,16.66-17a151.49,151.49,0,0,0,13.79-15.65c2.55-4.3,12.51-5.85,8.91,1.63-2.11,6.47-7.51,11.28-8.86,18.08-.29,3.73-4.74,10.58-.94,12.75A23.84,23.84,0,0,1,901.13,347c4.31-3.21,11.43-4.55,13-10.22,1.14-8,5.26-15.35,10.58-21.38-1.37-7.23,0-16.27,6.25-20.89l.89-.21Z" transform="translate(0 0)"/>
      <path class="cls-3" d="M922.21,295.74c2.88.46,2.78,4.14,1.45,6.07a26.45,26.45,0,0,0-1,13c-5.12,6-9.08,13.17-10.28,21,0,3-3.14,3.94-5.16,5.4-4.74,3-10.06,5.2-14.28,9-.89.95-1.56,2-.93,0,.66-2.47,1-5.21,2.94-7.08,2.66-2.86,6-5.41,9.85-6.28.32-4,2.23-7.67,4-11.21,2-3.38,4-7,7.33-9.2-.14-5.93,0-12.15,2.51-17.62.75-1.41,1.85-3.08,3.62-3.16Z" transform="translate(0 0)"/>
      <path class="cls-3" d="M914.15,298.1c2,.6,1.62,3.07,1,4.59a53.49,53.49,0,0,0-1,12.82c-3.68,2.91-6,7.14-8.09,11.26a32.7,32.7,0,0,0-3.06,8.62,23.38,23.38,0,0,0-8,4.93c.93-2.8,3-5,4.38-7.52a30.2,30.2,0,0,0,3.59-8.46,14.23,14.23,0,0,0,3.83-11.62,18.84,18.84,0,0,1,4.48-12.94,4.73,4.73,0,0,1,2.87-1.68Z" transform="translate(0 0)"/>
      <path class="cls-3" d="M905,299.41c1.09.2,1.76,1.24,2.34,2.08.23.85-.81,1.76-1,2.69A21.12,21.12,0,0,0,905,314.31a12.64,12.64,0,0,1-2,6.87,3.76,3.76,0,0,0-3.29-2.76c-.56-.1-1.38.18-1-.66A51.71,51.71,0,0,1,901.32,304a10,10,0,0,1,2.71-4.3,1.32,1.32,0,0,1,1-.31Z" transform="translate(0 0)"/>
    </g>
    <path class="cls-3" d="M695.79,462.76a34.63,34.63,0,0,1-29-23.34c.22-2.15,2.9,1.21,4.17,1.44a18.47,18.47,0,0,0,7.7,2.58c3.46,1.48,5.6,4.89,8.9,6.67,1.53,1.19,7,3.54,6-.26-1.27-2-2.15-4.49-1-6.77A49,49,0,0,1,700,432.17c2.1-.7,3.5,3.43,5,4.82,2.08,3.19,4.57,7.08,3.36,11-1.19,1.46-2,5.88,1.2,4.39,3.91-1.72,7.11-4.61,10.36-7.31,2.83-2,6.47-2.12,9.44-3.86,1.38-.34,4.25-3.1,4.85-1.57a43.45,43.45,0,0,1-7.28,11.87,31.27,31.27,0,0,1-18.26,10.6,50.68,50.68,0,0,1-12.84.61Z" transform="translate(0 0)"/>
    <path class="cls-3" d="M711.21,447.44a12.86,12.86,0,0,0-1.66-7.72,70.43,70.43,0,0,0-7.82-11.63c-2.68-1.57-4.17,3.56-6,5-2.78,4.16-6.26,8.42-6.43,13.65-1.57,2.43-4.48-2-5.74-3.44-2.39-3.4-4.21-7.41-3.91-11.66a49.06,49.06,0,0,1,3.52-20c1.88-5.43,4.93-10.71,4.62-16.63.22-4.47-.69-9.39-4.3-12.4-3.44-2.69,2.23-3.27,4-1.87,3.08.21,4.74,5.3,7.56,4,1.12-2.66,1.34-5.83,3.65-7.91,2.27-3.1,4.64,1.32,5.42,3.39,1.6,1.82-.09,6.33,2.51,6.45,3.12-2.19,5.34-5.86,9.32-6.66,1.62-.92,4.38-.12,2.25,1.74-2.95,2.76-5.47,6.22-6,10.33-.9,5.16.39,10.4,2.64,15,4.32,9.13,7.67,19.45,5.48,29.6a19,19,0,0,1-7.81,11c-.47.28-1.21.26-1.37-.38Z" transform="translate(0 0)"/>
    <path class="cls-3" d="M706.54,378.81A20.34,20.34,0,0,0,701,372c-2.32,0-3.75,2.91-5.32,4.44-1.1,2.05-2.44,5.48-5.16,2.8-4.32-2.52-5.08-8-5.06-12.6-.27-7.38,2.7-14.26,5.34-21,1.68-4.21,1.27-8.95.25-13.26-1.29-5-5.27-8.38-8.33-12.24.21-1.5,4.12-.68,5.59-.4,3.27.83,5.22,3.72,7.65,5.76,1.74-.52,1-4,1.84-5.67,0-2.31,3.14-5.37,4.41-2.05,1.9,2.11-.06,6.28,2.4,7.6,2.34-.87,3.5-3.43,5.7-4.59a7.75,7.75,0,0,1,7.57-.49c.82,2.16-2.57,3.95-3.55,5.82a19.8,19.8,0,0,0-3.64,17.6c1.34,4.73,3.71,9.15,4.53,14a39.11,39.11,0,0,1-.47,16.68c-.85,3.29-3.7,5.48-6.64,6.85a10.3,10.3,0,0,1-1.6-2.51Z" transform="translate(0 0)"/>
    <path class="cls-3" d="M691.84,317.81c-3.26-2.39-4.34-4.68-4.34-9.2a8.18,8.18,0,0,1,2-5.67c2.25-3.11,1.84-4.09-1.34-3.18-5.12,1.47-7.56.13-7.73-4.22-.08-2.13.37-3,3.24-6.48,2.29-2.76,3.13-4.21,2.67-4.67s-3.16,1.91-8.73,7.58a119.2,119.2,0,0,1-11.1,10.26c-9.57,6.46-18.71,7.46-22.88,2.49-2.14-2.53-2-4,.45-5.5a26.42,26.42,0,0,0,4.27-3.59c2.86-3,11.41-9.15,15.65-11.28,3.44-1.74,4.26-2.92,2-2.92-2.9,0-12.19,6.05-19.24,12.52a31,31,0,0,1-6.62,4.74c-3.52,1.55-10.43,2.12-13.5,1.11-2.17-.72-6.13-4.45-6.13-5.78,0-.35.91-1.13,2-1.72a29.35,29.35,0,0,0,4.38-3.15c5.64-4.95,16.32-10,24.8-11.82,2.69-.57,1.7-1.93-1.3-1.79-5.83.25-17.39,5.67-24.29,11.36-8.09,6.67-20.29,6-24.22-1.25-.68-1.26-1.08-2.43-.88-2.62a37.48,37.48,0,0,1,5.34-1.6,90.52,90.52,0,0,0,14.49-6c8.86-4.41,11.48-5.36,17.58-6.34,2.74-.44,2.89-1.78.22-2.09-3.43-.41-8.69,1.31-18,5.88-11.94,5.88-15.29,6.89-21.58,6.52-5.73-.35-9-1.82-13.63-6.23-3-2.88-7.36-10.21-6.51-11.06.2-.2,1.6,0,3.11.44,1.67.49,6.47.82,12.24.83,8.08,0,10.23-.19,14.54-1.43a82.27,82.27,0,0,0,23.33-11.85c12.53-9.37,22.75-13.13,35.78-13.19,12,0,19.67,2.73,26.45,9.61,2.29,2.32,4.25,3.83,4.57,3.51s.63-4.37.73-9c0,0,3.54-.34,4.29.66,0,7.57.08,8.16,1.18,8.16.72,0,1.49-.74,2-1.88,1-2.48,4.84-5.88,8.91-7.94,8.8-4.46,24-4.6,36.26-.33a60.65,60.65,0,0,1,16.31,9.24c5.46,4.2,16.63,9.82,23.24,11.69s18.45,2.38,24.49,1c2.48-.57,4.82-1,5.19-1,2.22,0-1.57,7.42-6,11.77-8.14,7.95-18.73,7.91-33.62-.12-9.28-5-20.39-7.73-20.39-5,0,.56.59.94,1.45.94,3.23,0,9.46,2.17,18.15,6.29,9.4,4.47,14.68,6.36,17.81,6.36,2.28,0,2.35,1.41.23,4.52q-3.37,5-11.45,4.95c-5.14,0-8-1.15-12.6-5-7.69-6.4-26.85-13.54-26.11-9.72.15.75,1.07,1.22,3,1.52,6.67,1,14.5,4.76,22.51,10.76,2.47,1.85,5,3.68,5.69,4.07,1.1.64,1.12.83.25,2.46-1.44,2.68-5.06,4.76-9,5.17-5.09.53-9.51-1-14.09-4.82-9.66-8.09-18.77-13.94-21.69-13.94-2.38,0-1.31,1.31,2.89,3.54a77.27,77.27,0,0,1,15.38,10.72,38.19,38.19,0,0,0,4.94,4c1.75.94,1.68,2.31-.25,4.83s-5.21,3.69-9.42,3.24c-8.4-.88-15-4.94-25.25-15.62-4-4.17-7.61-7.58-8-7.58-1.37,0-.56,1.85,2.09,4.83,3.29,3.67,3.92,5.74,2.68,8.73-1.1,2.64-2.93,3.26-6.68,2.24s-4.45-.09-1.93,3c3.75,4.67,3.2,10.4-1.4,14.34a11.22,11.22,0,0,1-3.33,2.22c-.4,0-1.41-1.05-2.26-2.32-2.95-4.49-5.55-4.46-8.43.08-1,1.58-1.84,2.87-1.87,2.86s-1.39-1-3-2.17Z" transform="translate(0 0)"/>
    <path class="cls-3" d="M706.48,226.56l-5,3.94L697,227.13v27l9.46.12Z" transform="translate(0 0)"/>
    <path class="cls-3" d="M675.59,198.58c-1,12.74-4.23,21.64-8.73,31.45l10.79-10,7.5,8.92,8.13-9.07,8.29,7.66,8-8,8.28,9.69,7.19-8,12.2,8.75c-4.43-9.81-10.42-18.12-9.67-31.93-11.81,8.78-39.88,10.36-52,.48Z" transform="translate(0 0)"/>
    <path class="cls-3" d="M697,192.07a77.4,77.4,0,0,0-13,.94,19.64,19.64,0,0,0-7.6,3c.35,8.29,39.86,11.75,50.46.15a19.89,19.89,0,0,0-7.94-3.17,74.52,74.52,0,0,0-12.49-.91c0,2.28,0,4.56,0,6.85l-9.44,0v-6.85Z" transform="translate(0 0)"/>
    <path class="cls-3" d="M704.76,149.69l-6.13.05v48l6.26,0Z" transform="translate(0 0)"/>
    <path class="cls-3" d="M704.75,150.93l-2.34,23,23.64,11.55-12-16,16.34-5.3Z" transform="translate(0 0)"/>
    <path class="cls-3" d="M702.12,144.94c-3.59,0-6.24,1.34-6.24,2.93s2.65,2.95,6.24,2.95,6.22-1.35,6.22-2.95S705.71,144.94,702.12,144.94Z" transform="translate(0 0)"/>
  </g>
  <g>
    <path class="cls-1" d="M691.3,548.16c3.88-1.29,6.08-3.64,7.67-8.17a16.46,16.46,0,0,0,1.18-5.21c-.33-1.45-2-1.37-3.85.16-1.26,1.06-1.42,1.6-1.06,3.76.93,5.44-1,6.79-11.31,7.9a41.77,41.77,0,0,1-6.58-.39c-4.9-.61-6.65-.12-4.87,1.35a9.3,9.3,0,0,0,3,1.34c2.75.71,12.85.23,15.8-.74Z" transform="translate(0 0)"/>
    <path class="cls-1" d="M712.66,547.25a16.29,16.29,0,0,1,4.45-2.06c2.49-.8,3.77-1.65,4.82-3.22,3-4.5,2.46-8.38-2-13.61-2.41-2.84-3.48-2.76-5.41.39-1.66,2.72-1.62,2.9.77,3.52a5.28,5.28,0,0,1,3.12,2.38c2.61,4.51,1.84,7.3-2,7.33-3.5,0-4.46.53-5.41,2.79a12.44,12.44,0,0,0-.89,2.79c0,1,1.32.79,2.55-.31Z" transform="translate(0 0)"/>
    <path class="cls-1" d="M705.65,542.16c.66-1.79.89-5,.81-11.57,0-5-.24-9.24-.43-9.43-.59-.58-3.46,1.27-3.84,2.47a5.39,5.39,0,0,0,.71,3.19c.89,1.74,1,3.36.73,10.18-.35,8.61.22,10.06,2,5.16Z" transform="translate(0 0)"/>
    <path class="cls-1" d="M689.2,538.06a72.78,72.78,0,0,0,1-7.3,42.48,42.48,0,0,1,1.09-6.74c1-3.37,0-4.25-2.67-2.37l-2,1.41.41,4.84c.38,4.35-.31,12.47-1.31,15.62-.28.84.11.62,1.21-.66A12.77,12.77,0,0,0,689.2,538.06Z" transform="translate(0 0)"/>
    <path class="cls-1" d="M674.6,540.4c3.55-3,3.15-8,3.93-12.17-.08-2.75,1.76-6,.57-8.44-3.32.6-5.36,3.74-3.66,6.87.14,3.64,0,7.59-1.86,10.81-1.52,2.1-6.36,1.58-6.14-1.4,1.22-4.48-4.15-2.3-6.24-1.13-1.62,1.13-5,1.21-3.85-1.61-.79-3.76-5.62-1.41-8.25-1.42s-.2-5-3.77-4.16c-6.61-.52-13.92.06-19.64-3.93-3.36-1.62-2.86-5.65-1.11-8.26,2.08-3.56,2.68-8,6-10.78,3.28-3.14-3.09-1.82-4.52-.76-3.19,1.75-.23,6.25-2.84,8.74-1.52,2.59-3.53,6.16-7.06,5.67-5.1-1-8-5.7-11.69-8.88-3.13-.62-1.37,5.08.25,6.27A31.82,31.82,0,0,0,615.48,521c3.84-.62,4,4.4,7.24,5.19,6,2.8,12.72,3.64,19.28,4,2.58.21,1.13,4.8,4.52,3.89,1.89.49,6.17-.7,6.38,1.5-2.87,3.41,2.76,3.33,4.84,2.72,2.67-.41,6.07-1.42,6.78,2.23,2.22,2.35,6.31,2,9,.66a5.79,5.79,0,0,0,1.06-.78Z" transform="translate(0 0)"/>
    <path class="cls-1" d="M616.5,511a34.49,34.49,0,0,0,3.59-6.16,23.67,23.67,0,0,1,2.95-5.13c1.71-1.84.76-3-2-2.37-1.46.32-2.06.86-2.3,2.12-.83,4.12-2.32,8.34-3.65,10.31-2.42,3.55-2.47,3.7-1.48,3.7.51,0,1.82-1.11,2.89-2.47Z" transform="translate(0 0)"/>
    <path class="cls-1" d="M580.09,488.14c-2.73,0-2.84,1.72-.19,2.65a6,6,0,0,1,3.25,3.28c2.58,5.15,4.1,6.06,11,6.65l4.41.4.21,2.67c.11,1.48.46,2.71.8,2.71a19.51,19.51,0,0,0,3.76-1.62c3.23-1.63,6.29-5.44,6.29-7.8,0-1.55-2.57-3.22-4.92-3.22a9.88,9.88,0,0,0-4.59,2c-4.9,3.55-10.14,2.83-13-1.79-2.36-3.81-4.82-5.9-7-5.9Zm23.78,9.48c1.3,0,1.62,1,.91,2.8a1.33,1.33,0,0,1-2.55.06c-.56-1.47.23-2.86,1.64-2.86Z" transform="translate(0 0)"/>
    <path class="cls-1" d="M788.32,491.64c-1.78.07-2.31.46-3.44,2.13-1.84,2.74-2,8.68-.33,10.78,1.06,1.31,1.22,1.34,3.46.4,3.13-1.31,3.66-1.26,3.65.42,0,4.3-6.18,12.58-12.64,17a14.09,14.09,0,0,0-3.46,2.95c-.47,1.23,1.92,1,4.86-.54,4-2,9.27-7.41,11.42-11.64,1.72-3.38,2-4.52,2.16-10.42.19-5.44,0-7-.88-8.84-1-2-1.36-2.22-4-2.22Zm.21,3.79c1.34,0,1.57.31,1.73,2.23a3.6,3.6,0,0,1-1,3.36c-1.21,1.09-1.3,1.08-2.37-.54-1.5-2.29-.58-5.05,1.67-5.05Z" transform="translate(0 0)"/>
    <path class="cls-1" d="M759,536.93c5.69-2.8,9-5.95,11.2-10.51a28.38,28.38,0,0,0,1.86-4.56c0-.79-2.8-2.09-4.48-2.09s-2-1.16-1.3-4.36-.14-7-1.51-7c-.5,0-1.37.73-2,1.62-.89,1.37-.94,1.95-.28,3.94,1,3,.21,5.17-2.44,7a3.9,3.9,0,0,0-1.94,2.93c0,.85.1,1.54.23,1.54a28,28,0,0,0,3.07-1.59l2.84-1.58L766,523.6a4.24,4.24,0,0,1,1.68,2.61c0,3.47-9.87,9.28-16.65,9.82-3.61.3-4.22.17-5.47-1.08a3,3,0,0,1-1.06-3.08c.19-.92.54-2.6.78-3.73.62-3-.68-2.61-2.91.91-1.84,2.91-2.38,6-1.35,7.64.84,1.34,6.46,2.61,10.44,2.37a19.7,19.7,0,0,0,7.58-2.13Z" transform="translate(0 0)"/>
    <path class="cls-1" d="M797,515.75c3.58-3.56,5.09-7.91,5.11-14.63v-5l3-1.4c3.84-1.83,7.47-5.47,7.47-7.49s-.92-2-2.59.29c-1.22,1.64-2.84,2.64-8.78,5.37-1.5.69-1.6,1.06-1.94,7.34-.39,7.24-1.38,9.95-5.42,14.9-2.48,3-2.57,3.41-.85,3.41C793.65,518.5,795.46,517.27,797,515.75Z" transform="translate(0 0)"/>
    <path class="cls-1" d="M758,511.71c.34-1-1.63-1.78-2.49-.93a1.2,1.2,0,0,0-.21,1.38,1.64,1.64,0,0,0,2.7-.45Z" transform="translate(0 0)"/>
    <path class="cls-1" d="M811.74,497.8c.35-1-1.64-1.78-2.48-.94a1.2,1.2,0,0,0-.23,1.39,1.64,1.64,0,0,0,2.71-.45Z" transform="translate(0 0)"/>
    <path class="cls-1" d="M747.06,460.13c-1.39.66-2.11,2.17-3.07,3.31-.7.47-.14.92.26,1.36,2.45,2.64,3.49,6.21,4.65,9.54,1.15,3.92,2.59,8.14,1.39,12.24-.47,1.56-1.7,3.19-3.54,2.67-3-.19-5.85-1-8.8-.94-2.63.14-4.66,2.53-7.35,2.27-1.72.11-1.65-3.52-3.24-2.55-.8,1.9-.41,4-.5,6,.3.29,1.13,0,1.63.12h5.3c.37,1.83.32,3.92,1.64,5.38,1.84.65,3.9.09,5.65-.63,1.87-.87,2.12-3.12,2.65-4.87s3-1.39,4.49-2.13a8.35,8.35,0,0,0,5.69-8.39c-.23-5.56-2.36-10.8-4-16.06-.81-2.32-1.37-4.74-2.31-7a.59.59,0,0,0-.57-.32Zm-8.81,31.81c2-.13,2.84,2.31,2.42,3.92-.74,2.19-3.44.79-4-.79-1-1.41-.38-3.31,1.57-3.13Z" transform="translate(0 0)"/>
    <path class="cls-1" d="M664.94,473.69a4.89,4.89,0,0,0-2.86,1c-5.16,3.61-6.48,7.89-3,9.56,2.57,1.24,1.92,2.69-2.13,4.72-5.81,2.9-10.93,2.54-20.66-1.49-2.39-1-3-.61-2.46,1.58s2.5,3.32,7.38,4.43c5.25,1.2,11.6.82,15.68-.94a20.43,20.43,0,0,0,6.35-4.83l3.16-3.47,3.67.46c4.53.55,4.62.6,4.62,2.77,0,1.72.1,1.76,4.26,2.15,2.34.22,5.42.43,6.86.43,1.84,0,2.88.33,3.49,1.18.82,1.14,1.31,1.2,8.15.59,6.4-.59,7.65-.54,10.54.44a14.79,14.79,0,0,0,6,.8c4.9-.55,11.65-4.56,12.64-7.5.11-.36,1.89-1,3.94-1.4,5-1,5.17-2.08.55-2.65a33.14,33.14,0,0,1-6.68-1.64,17.82,17.82,0,0,0-5.11-1.22c-2.48,0-4.83,1.56-4.83,3.16,0,1.05.37,1.16,3.32.86,2.77-.28,3.58-.13,5,1,1,.76,1.61,1.65,1.4,2-.65,1.06-6.43,3.7-9,4.11a6.83,6.83,0,0,1-4.43-.61c-2.25-1.16-5.55-1.34-6.18-.34-.26.44-1,.16-1.94-.76l-1.52-1.43-3.43,1.43c-3.49,1.45-4.77,1.39-4.77-.27,0-.76-1-.84-6.17-.51-5.66.37-6.26.27-7.32-.92s-1-1.47-.3-2.58.64-1.48,0-2.09-1.41-.61-3.64,0c-5.64,1.5-7.24.66-7.24-3.75,0-2.64-1.51-4.25-3.46-4.27Zm-1.4,4c.3,0,.55.18.94.57a2,2,0,0,1,.55,1.92c-.51,1.31-2.9,1.26-3.4-.06a1.65,1.65,0,0,1,.78-1.89,2,2,0,0,1,1.13-.54Z" transform="translate(0 0)"/>
    <path class="cls-1" d="M653.43,481.83c3.43-2.18,3.35-2,3.85-8.06.34-4.27.28-4.59-.88-4.59-1.68,0-2.55,1.85-2.55,5.37,0,2.26-.35,3.27-1.56,4.46-2.86,2.86-9.95,1.56-10.85-2-.3-1.22.09-2.31,1.58-4.42,3.1-4.41,2.4-5.49-1.4-2.14-2.62,2.28-3.09,2.35-2.59.38.46-1.82-.5-2.54-2.62-2a2.53,2.53,0,0,0-1.95,2.28,2.5,2.5,0,0,1-1.87,2.26c-1.73.44-4.66-1.19-4.66-2.58,0-1,4.39-6.4,10-12.25,2.13-2.22,3.87-4.28,3.87-4.59s-1.14-.56-2.53-.56c-2,0-2.52.22-2.52,1.16,0,.64-2.84,4.37-6.32,8.29-7.26,8.16-7.86,9.86-4.27,12a8.76,8.76,0,0,0,9.5-.34l2.35-1.6v2.9c0,3.72.74,5.05,3.65,6.6a11.67,11.67,0,0,0,11.74-.61Z" transform="translate(0 0)"/>
    <path class="cls-1" d="M805.64,431.36c-2.69,1.61-.58,5-.18,7.23-1.1,3.06-5,3.88-7.89,4.45-4.06.67-6.93,4.06-8.48,7.67-.83,2.34-2.85,6-5.05,2.41-1.91-1.94-5.43-3.48-7.69-1.21-1.72,1.63-2.15,4-2.79,6.22-1-1.68-1.47-4.18-3.62-4.71-3.43.49-2.19,4.81-.58,6.59,1.47,2.08,2.88,4.82,1.44,7.29-1.27,3-5.65,5-8.22,2.43-2.41-1.27-.8-5.8-3.17-6.05-1.17.85-1.26,5.59-3.14,3-1.35-2.2-.63-5.2-2.29-7.18-2,.24-3.52,3.61-2.87,5.42,2.61,3.51,3.68,7.93,4.7,12.12.63,1.68-.1,5.08,1.47,5.74,1.09-2.7.08-5.76.94-8.49,2.54-.32,5.37.84,8,.22,3.82-.49,6.77-3.71,8.11-7.15.41-2.58-.07-5.2-.14-7.79,3,.47,6.15.46,9,1.44,1.44,2.2-.46,5.29-.85,7.71-1.52,4.91-5.37,8.47-9.11,11.76-1.57.92-1.78,3.38.54,2.06,5-2.15,8.77-6.71,10.93-11.64,1.58-3.79.31-8,1.34-11.9,1.52-2.91,5.17-2.3,7.88-2.29a4.89,4.89,0,0,0,4.25-6.09c-.89-3.15,2.45-4.67,4.73-5.8,3-1.53,5.35-4.63,5.11-8.13-.12-1.79,0-5.18-2.46-5.34Zm-10.72,18.23c3.24.86-.59,7.05-2.31,3.13A2.42,2.42,0,0,1,794.92,449.59Zm-15,4.44c4.21-.25,2.7,5.91-.86,3.11C777.17,456.21,777.78,453.91,779.88,454Z" transform="translate(0 0)"/>
    <path class="cls-1" d="M627.18,477.83c.12-.62-.2-1.05-.75-1.05-1.18,0-1.89,1-1.33,1.92s1.84.4,2.08-.87Z" transform="translate(0 0)"/>
    <path class="cls-1" d="M676.61,472.3c0-.9-.34-1.24-1.1-1.09-1.65.31-1.84,2.41-.22,2.41C676.2,473.62,676.61,473.21,676.61,472.3Z" transform="translate(0 0)"/>
    <path class="cls-1" d="M615.44,442.63c-2-.4-3.21,1.27-3.88,2.86-1.48,2.48-3.28,5-5.93,6.33a7.47,7.47,0,0,1-5.62-1.18c-2-1-1.51-3.33-2.35-5-1.42-1.11-3.93.48-3.87,2.21-.16,2.32,2,3.66,3.81,4.56,1.53.93,3.75,1.46,4.36,3.35,0,1.62.61,3.46,2.57,2.84,2.2,0,2.77,2.64,1.88,4.24a9.31,9.31,0,0,0-1.08,5.95c1,.88,2.12-1.49,2.88-2.16l1.55-2.07c3.89.21,7.77.71,11.67.57,2.77-.05,5.13-1.76,6.89-3.77,2.5-2.61,4.54-5.67,7.39-7.92,2-.49.94-4.31-1.18-3.2-1.9.71-2.5,2.86-3.83,4.24a45.12,45.12,0,0,1-7.38,7.62c-2.06.86-4.44.49-6.56,0-.89-.77,1.75-1.4,2.12-2.26,1.22-1.22,2.67-2.37,3.37-4-.67-1.47-2.74-1.59-4.19-1.62-3.59.43-6.32,3.44-9.94,3.72-2.75.1-1.32-2.88-.08-3.89,2.42-2.88,5-5.59,7.57-8.37.72-.87,3.31-1.69,1.65-2.9a5.55,5.55,0,0,0-1.81-.22Zm1.77,14.56c1.8,1-1.16,2.68-2.4,2.45-1.64.49-1.67-1.18-.21-1.51a6.77,6.77,0,0,1,2.61-.94ZM611.65,461c1,0,3.18,1,1.16,1.6C611.4,463.68,609.81,461.47,611.65,461Z" transform="translate(0 0)"/>
    <path class="cls-1" d="M655.42,463.5c0-1.37-2.46-1.18-2.73.21-.17.89.11,1.11,1.25.94C654.76,464.54,655.42,464,655.42,463.5Z" transform="translate(0 0)"/>
    <path class="cls-1" d="M764.36,453.85a1.49,1.49,0,1,0-1.31,1.31,1.8,1.8,0,0,0,1.31-1.31Z" transform="translate(0 0)"/>
    <path class="cls-1" d="M594.82,440.5c1.72-1.46,1.73-1.56,1-4.79-1.05-4.52-1-5,.73-5.43,2.18-.56,7.71,2.41,8.94,4.78,1,1.84.92,2-.69,3.46s-1.73,3.48,0,3.48c1.44,0,5.41-3.76,5.41-5.11,0-1.88-4.41-6.31-7.9-7.94a15.66,15.66,0,0,0-6.82-1.48c-4.47,0-5.07,1-3.86,6.16,1.41,6.1-.51,6.92-5.42,2.32-3.65-3.41-5.08-7-5.07-12.55,0-6,2.31-9,7.48-9.66,3.43-.46,3.35-1.27-.18-1.79-5.16-.78-9.51,2.66-11.16,8.81-1.84,6.81,2.37,15.12,9.81,19.39C591,442.39,592.56,442.46,594.82,440.5Z" transform="translate(0 0)"/>
    <path class="cls-1" d="M797.86,433a3.38,3.38,0,0,0,.76-2.09,7.89,7.89,0,0,1,1.58-3.47,10,10,0,0,0,1.58-2.68c0-1.19-2-1.15-3.53.08s-2.79,1.27-2.79.06c0-.3.76-.93,1.69-1.38,2.32-1.13,2.51-2.25.56-3.14-2.51-1.14-5,.94-5.29,4.37-.17,2.3,0,2.7,1.79,3.74,1.61,1,1.91,1.45,1.64,2.82-.47,2.36.52,3.18,2,1.69Z" transform="translate(0 0)"/>
    <path class="cls-1" d="M817,430.87c1.4-1.26,2.53-2.68,2.53-3.16s1.21-1.74,2.69-2.8c4.19-3,5.11-6.06,3.24-10.73-.73-1.84-3-4.38-8-8.87-3.83-3.46-7.36-6.29-7.81-6.29-1.36,0-1.12,5,.26,5.44,2.49.8,4,1.82,7.91,5.35,4.55,4.11,6.65,7.95,5.51,10.09s-2.56,1.43-6.58-2.88c-2.11-2.26-4.2-4.11-4.62-4.11s-.8.83-.8,2c0,1.43.77,2.81,2.85,5.12,3.39,3.77,3.72,6,1.17,8a7.37,7.37,0,0,1-2.09,1.31,7.17,7.17,0,0,1-1.65-2.5c-1.42-2.87-10.1-12-11.4-12-.6,0-.89.74-.89,2.19,0,1.76.35,2.39,1.75,3.11,1.72.89,6,5.18,10.26,10.35a11.78,11.78,0,0,0,2.69,2.68,13.62,13.62,0,0,0,3-2.28Z" transform="translate(0 0)"/>
    <path class="cls-1" d="M825.46,406.5c-.56-1.82-12.21-13.81-13.4-13.81-.63,0-.82.74-.67,2.64.16,2.32.41,2.72,2,3.13,1,.27,4.06,2.68,6.81,5.35s5.16,4.71,5.35,4.5.16-1-.1-1.81Z" transform="translate(0 0)"/>
    <path class="cls-1" d="M755.9,541.42a1.74,1.74,0,1,1-1.73-1.59A1.66,1.66,0,0,1,755.9,541.42Z" transform="translate(0 0)"/>
    <path class="cls-1" d="M762,539.38a1.74,1.74,0,1,1-1.73-1.59A1.67,1.67,0,0,1,762,539.38Z" transform="translate(0 0)"/>
  </g>
</svg>
