<?xml version="1.0" encoding="utf-8"?>
<!-- Generator: Adobe Illustrator 23.1.0, SVG Export Plug-In . SVG Version: 6.00 Build 0)  -->
<svg version="1.1" id="Layer_1" xmlns="http://www.w3.org/2000/svg" xmlns:xlink="http://www.w3.org/1999/xlink" x="0px" y="0px"
	 viewBox="0 0 1400 700" style="enable-background:new 0 0 1400 700;" xml:space="preserve">
<style type="text/css">
	.st0{fill:#012169;}
	.st1{stroke:#FFFFFF;stroke-width:60;}
	.st2{clip-path:url(#SVGID_2_);stroke:#C8102E;stroke-width:40;}
	.st3{stroke:#FFFFFF;stroke-width:100;}
	.st4{stroke:#C8102E;stroke-width:60;}
	.st5{fill:url(#SVGID_3_);stroke:#FFFFFF;stroke-width:12;stroke-linejoin:bevel;}
	.st6{fill:url(#SVGID_4_);stroke:#FFFFFF;stroke-width:12;stroke-linejoin:bevel;}
	.st7{fill:url(#SVGID_5_);stroke:#FFFFFF;stroke-width:12;stroke-linejoin:bevel;}
	.st8{fill:url(#SVGID_6_);stroke:#FFFFFF;stroke-width:12;stroke-linejoin:bevel;}
	.st9{fill:url(#SVGID_7_);stroke:#FFFFFF;stroke-width:12;stroke-linejoin:bevel;}
	.st10{fill:url(#SVGID_8_);stroke:#FFFFFF;stroke-width:12;stroke-linejoin:bevel;}
	.st11{fill:url(#SVGID_9_);stroke:#FFFFFF;stroke-width:12;stroke-linejoin:bevel;}
	.st12{fill:url(#SVGID_10_);stroke:#FFFFFF;stroke-width:12;stroke-linejoin:bevel;}
	.st13{fill:url(#SVGID_11_);stroke:#FFFFFF;stroke-width:12;stroke-linejoin:bevel;}
	.st14{fill:url(#SVGID_12_);stroke:#000000;stroke-width:1.8;stroke-linejoin:bevel;}
	.st15{fill:url(#SVGID_13_);stroke:#000000;stroke-width:1.8;stroke-linejoin:bevel;}
	.st16{fill:url(#SVGID_14_);stroke:#000000;stroke-width:1.8;stroke-linejoin:bevel;}
	.st17{fill:url(#SVGID_15_);stroke:#000000;stroke-width:1.8;stroke-linejoin:bevel;}
	.st18{fill:url(#SVGID_16_);stroke:#000000;stroke-width:1.8;stroke-linejoin:bevel;}
	.st19{fill:url(#SVGID_17_);stroke:#000000;stroke-width:1.8;stroke-linejoin:bevel;}
	.st20{fill:url(#SVGID_18_);stroke:#000000;stroke-width:1.8;stroke-linejoin:bevel;}
	.st21{fill:url(#SVGID_19_);stroke:#000000;stroke-width:1.8;stroke-linejoin:bevel;}
	.st22{fill:url(#SVGID_20_);stroke:#000000;stroke-width:1.8;stroke-linejoin:bevel;}
	.st23{fill:#0072C4;stroke:#FFFFFF;stroke-width:6;}
	.st24{fill:#BCBCBC;}
	.st25{fill:#FEFEFE;}
	.st26{fill:#C4C4C2;stroke:#000000;stroke-width:1.3578;}
	.st27{fill:#005121;stroke:#002B0E;stroke-width:1.9397;}
	.st28{fill:#FFFFFF;}
	.st29{fill:none;stroke:#522108;stroke-width:0.7371;}
	.st30{fill:none;stroke:#522108;stroke-width:0.7513;}
	.st31{fill:#DD8B59;stroke:#522108;stroke-width:0.7371;}
	.st32{fill:#FECF3E;stroke:#522108;stroke-width:0.7371;}
	.st33{fill:#B6B6B4;stroke:#522108;stroke-width:0.7371;}
	.st34{stroke:#522108;stroke-width:0.475;}
	.st35{fill:#FF0101;stroke:#522108;stroke-width:0.7371;}
	.st36{fill:#BE1017;stroke:#522108;stroke-width:0.5813;}
</style>
<rect y="0" class="st0" width="1400" height="700"/>
<path class="st1" d="M0,0l700,350 M700,0L0,350"/>
<g>
	<defs>
		<path id="SVGID_1_" d="M0,0v175h816.7v175H700L0,0z M700,0H350v408.3H0V350L700,0z"/>
	</defs>
	<clipPath id="SVGID_2_">
		<use xlink:href="#SVGID_1_"  style="overflow:visible;"/>
	</clipPath>
	<path class="st2" d="M0,0l700,350 M700,0L0,350"/>
</g>
<path class="st3" d="M350,0v408.3 M0,175h816.7"/>
<path class="st4" d="M350,0v408.3 M0,175h816.7"/>
<path class="st0" d="M0,350h700V0h700v700H0V350z"/>
<g>
	<g>
		<g id="scroll">
			
				<linearGradient id="SVGID_3_" gradientUnits="userSpaceOnUse" x1="965.3839" y1="211.9892" x2="918.3365" y2="239.781" gradientTransform="matrix(1 0 0 -1 0 699.8885)">
				<stop  offset="0" style="stop-color:#A43907;stop-opacity:0.9961"/>
				<stop  offset="1" style="stop-color:#FFFFFF"/>
			</linearGradient>
			<path class="st5" d="M964.2,499c0,0-10-16.2-18.3-15c-8.3,1.2-16,11.6-16.6,12.1c-0.6,0.6-12.7-13.3-12.2-13.9
				c0.6-0.6,12.7-30.7,19.4-31.8c6.6-1.2,21,2.2,21,3.4S964.2,499,964.2,499L964.2,499z"/>
			
				<linearGradient id="SVGID_4_" gradientUnits="userSpaceOnUse" x1="991.7543" y1="181.7439" x2="888.463" y2="200.8699" gradientTransform="matrix(1 0 0 -1 0 699.8885)">
				<stop  offset="0" style="stop-color:#A43907;stop-opacity:0.9961"/>
				<stop  offset="1" style="stop-color:#FFFFFF"/>
			</linearGradient>
			<path class="st6" d="M986.3,481.7c0,1.2-3.3,44-17.7,59c-14.4,15-37.6,24.3-45.9,22c-8.3-2.3-27.1-45.7-27.1-45.7
				s19.9,20.8,34.9,17.4c14.9-3.5,23.8-29.5,26.6-42.2c2.8-12.7,0.6-37.6,0.6-37.6L986.3,481.7L986.3,481.7z"/>
			
				<linearGradient id="SVGID_5_" gradientUnits="userSpaceOnUse" x1="1185.9374" y1="227.5182" x2="1137.8353" y2="224.7158" gradientTransform="matrix(1 0 0 -1 0 699.8885)">
				<stop  offset="0" style="stop-color:#A43907;stop-opacity:0.9961"/>
				<stop  offset="1" style="stop-color:#FFFFFF"/>
			</linearGradient>
			<path class="st7" d="M1135.8,499c0,0,10-16.2,18.3-15c8.3,1.2,16,11.6,16.6,12.1c0.6,0.6,12.7-13.3,12.2-13.9
				c-0.6-0.6-12.7-30.7-19.4-31.8c-6.6-1.2-21,2.2-21,3.4S1135.8,499,1135.8,499L1135.8,499z"/>
			
				<linearGradient id="SVGID_6_" gradientUnits="userSpaceOnUse" x1="1206.6813" y1="195.2164" x2="1104.6781" y2="186.5529" gradientTransform="matrix(1 0 0 -1 0 699.8885)">
				<stop  offset="0" style="stop-color:#A43907;stop-opacity:0.9961"/>
				<stop  offset="1" style="stop-color:#FFFFFF"/>
			</linearGradient>
			<path class="st8" d="M1113.7,481.7c0,1.2,3.3,44,17.7,59c14.4,15,37.6,24.3,45.9,22c8.3-2.3,27.1-45.7,27.1-45.7
				s-19.9,20.8-34.9,17.4c-14.9-3.5-23.8-29.5-26.6-42.2c-2.8-12.7-0.6-37.6-0.6-37.6L1113.7,481.7L1113.7,481.7z"/>
			
				<linearGradient id="SVGID_7_" gradientUnits="userSpaceOnUse" x1="1193.8202" y1="180.5688" x2="906.1891" y2="180.5688" gradientTransform="matrix(1 0 0 -1 0 699.8885)">
				<stop  offset="0" style="stop-color:#A43907;stop-opacity:0.9961"/>
				<stop  offset="1" style="stop-color:#FFFFFF"/>
			</linearGradient>
			<path class="st9" d="M920.4,475.4c-6.6,8.1-10.2,14.4-12.9,19c-2.8,4.6-1.1,11.1,5.3,20.3c6.9,9.9,63.5,48.6,137.3,48.6
				s130.4-38.7,137.3-48.6c6.4-9.2,8-15.6,5.2-20.3c-2.8-4.6-6.3-10.9-12.9-19c0,12.1-46.9,56-129.6,56S920.4,487.5,920.4,475.4z"/>
			
				<linearGradient id="SVGID_8_" gradientUnits="userSpaceOnUse" x1="913.9902" y1="159.0461" x2="1334.7568" y2="155.6417" gradientTransform="matrix(1 0 0 -1 0 699.8885)">
				<stop  offset="0" style="stop-color:#A43907;stop-opacity:0.9961"/>
				<stop  offset="1" style="stop-color:#FFFFFF"/>
			</linearGradient>
			<path class="st10" d="M1176.3,556.2c1.1-1.7,12.7-22,12.7-22l-6.4-4.7c-2,5.7-9.1,7.6-10.2,14.5
				C1171.3,551,1177.4,557.9,1176.3,556.2L1176.3,556.2z"/>
			
				<linearGradient id="SVGID_9_" gradientUnits="userSpaceOnUse" x1="1204.6282" y1="175.8444" x2="1170.5765" y2="173.8071" gradientTransform="matrix(1 0 0 -1 0 699.8885)">
				<stop  offset="0" style="stop-color:#A43907;stop-opacity:0.9961"/>
				<stop  offset="1" style="stop-color:#FFFFFF"/>
			</linearGradient>
			<path class="st11" d="M1187.8,549.9c0,0,2.2-9.8-5-11c-7.2-1.2-11,5.5-10,2.9c1.2-2.9,5.5-5.8,6.1-15.6c0.6-9.8-0.6-15-0.6-15
				s2.8-12.7,14.4-11c11.6,1.7,12.2,11,12.2,14.5s-1.1,5.2-1.1,5.2L1187.8,549.9L1187.8,549.9z"/>
			
				<linearGradient id="SVGID_10_" gradientUnits="userSpaceOnUse" x1="906.5527" y1="159.1086" x2="939.4067" y2="153.8975" gradientTransform="matrix(1 0 0 -1 0 699.8885)">
				<stop  offset="0" style="stop-color:#A43907;stop-opacity:0.9961"/>
				<stop  offset="1" style="stop-color:#FFFFFF"/>
			</linearGradient>
			<path class="st12" d="M923.7,556.2c-1.1-1.7-12.7-22-12.7-22l6.4-4.7c2,5.7,9.1,7.6,10.2,14.5C928.7,551,922.6,557.9,923.7,556.2
				L923.7,556.2z"/>
			
				<linearGradient id="SVGID_11_" gradientUnits="userSpaceOnUse" x1="939.5698" y1="159.7478" x2="883.7229" y2="190.7436" gradientTransform="matrix(1 0 0 -1 0 699.8885)">
				<stop  offset="0" style="stop-color:#A43907;stop-opacity:0.9961"/>
				<stop  offset="1" style="stop-color:#FFFFFF"/>
			</linearGradient>
			<path class="st13" d="M912.2,549.9c0,0-2.2-9.8,5-11c7.2-1.2,11,5.5,10,2.9c-1.2-2.9-5.5-5.8-6.1-15.6c-0.6-9.8,0.6-15,0.6-15
				s-2.8-12.7-14.4-11c-11.6,1.7-12.2,11-12.2,14.5s1.1,5.2,1.1,5.2L912.2,549.9L912.2,549.9z"/>
		</g>
	</g>
	<g>
		
			<linearGradient id="SVGID_12_" gradientUnits="userSpaceOnUse" x1="965.3839" y1="211.9892" x2="918.3365" y2="239.781" gradientTransform="matrix(1 0 0 -1 0 699.8885)">
			<stop  offset="0" style="stop-color:#A43907;stop-opacity:0.9961"/>
			<stop  offset="1" style="stop-color:#FFFFFF"/>
		</linearGradient>
		<path class="st14" d="M964.2,499c0,0-10-16.2-18.3-15c-8.3,1.2-16,11.6-16.6,12.1c-0.6,0.6-12.7-13.3-12.2-13.9
			c0.6-0.6,12.7-30.7,19.4-31.8c6.6-1.2,21,2.2,21,3.4S964.2,499,964.2,499L964.2,499z"/>
		
			<linearGradient id="SVGID_13_" gradientUnits="userSpaceOnUse" x1="991.7543" y1="181.7439" x2="888.463" y2="200.8699" gradientTransform="matrix(1 0 0 -1 0 699.8885)">
			<stop  offset="0" style="stop-color:#A43907;stop-opacity:0.9961"/>
			<stop  offset="1" style="stop-color:#FFFFFF"/>
		</linearGradient>
		<path class="st15" d="M986.3,481.7c0,1.2-3.3,44-17.7,59c-14.4,15-37.6,24.3-45.9,22c-8.3-2.3-27.1-45.7-27.1-45.7
			s19.9,20.8,34.9,17.4c14.9-3.5,23.8-29.5,26.6-42.2c2.8-12.7,0.6-37.6,0.6-37.6L986.3,481.7L986.3,481.7z"/>
		
			<linearGradient id="SVGID_14_" gradientUnits="userSpaceOnUse" x1="1185.9374" y1="227.5182" x2="1137.8353" y2="224.7158" gradientTransform="matrix(1 0 0 -1 0 699.8885)">
			<stop  offset="0" style="stop-color:#A43907;stop-opacity:0.9961"/>
			<stop  offset="1" style="stop-color:#FFFFFF"/>
		</linearGradient>
		<path class="st16" d="M1135.8,499c0,0,10-16.2,18.3-15c8.3,1.2,16,11.6,16.6,12.1c0.6,0.6,12.7-13.3,12.2-13.9
			c-0.6-0.6-12.7-30.7-19.4-31.8c-6.6-1.2-21,2.2-21,3.4S1135.8,499,1135.8,499L1135.8,499z"/>
		
			<linearGradient id="SVGID_15_" gradientUnits="userSpaceOnUse" x1="1206.6813" y1="195.2164" x2="1104.6781" y2="186.5529" gradientTransform="matrix(1 0 0 -1 0 699.8885)">
			<stop  offset="0" style="stop-color:#A43907;stop-opacity:0.9961"/>
			<stop  offset="1" style="stop-color:#FFFFFF"/>
		</linearGradient>
		<path class="st17" d="M1113.7,481.7c0,1.2,3.3,44,17.7,59c14.4,15,37.6,24.3,45.9,22c8.3-2.3,27.1-45.7,27.1-45.7
			s-19.9,20.8-34.9,17.4c-14.9-3.5-23.8-29.5-26.6-42.2c-2.8-12.7-0.6-37.6-0.6-37.6L1113.7,481.7L1113.7,481.7z"/>
		
			<linearGradient id="SVGID_16_" gradientUnits="userSpaceOnUse" x1="1193.8202" y1="180.5688" x2="906.1891" y2="180.5688" gradientTransform="matrix(1 0 0 -1 0 699.8885)">
			<stop  offset="0" style="stop-color:#A43907;stop-opacity:0.9961"/>
			<stop  offset="1" style="stop-color:#FFFFFF"/>
		</linearGradient>
		<path class="st18" d="M920.4,475.4c-6.6,8.1-10.2,14.4-12.9,19c-2.8,4.6-1.1,11.1,5.3,20.3c6.9,9.9,63.5,48.6,137.3,48.6
			s130.4-38.7,137.3-48.6c6.4-9.2,8-15.6,5.2-20.3c-2.8-4.6-6.3-10.9-12.9-19c0,12.1-46.9,56-129.6,56S920.4,487.5,920.4,475.4z"/>
		
			<linearGradient id="SVGID_17_" gradientUnits="userSpaceOnUse" x1="913.9902" y1="159.0461" x2="1334.7568" y2="155.6417" gradientTransform="matrix(1 0 0 -1 0 699.8885)">
			<stop  offset="0" style="stop-color:#A43907;stop-opacity:0.9961"/>
			<stop  offset="1" style="stop-color:#FFFFFF"/>
		</linearGradient>
		<path class="st19" d="M1176.3,556.2c1.1-1.7,12.7-22,12.7-22l-6.4-4.7c-2,5.7-9.1,7.6-10.2,14.5
			C1171.3,551,1177.4,557.9,1176.3,556.2L1176.3,556.2z"/>
		
			<linearGradient id="SVGID_18_" gradientUnits="userSpaceOnUse" x1="1204.6282" y1="175.8444" x2="1170.5765" y2="173.8071" gradientTransform="matrix(1 0 0 -1 0 699.8885)">
			<stop  offset="0" style="stop-color:#A43907;stop-opacity:0.9961"/>
			<stop  offset="1" style="stop-color:#FFFFFF"/>
		</linearGradient>
		<path class="st20" d="M1187.8,549.9c0,0,2.2-9.8-5-11c-7.2-1.2-11,5.5-10,2.9c1.2-2.9,5.5-5.8,6.1-15.6c0.6-9.8-0.6-15-0.6-15
			s2.8-12.7,14.4-11c11.6,1.7,12.2,11,12.2,14.5s-1.1,5.2-1.1,5.2L1187.8,549.9L1187.8,549.9z"/>
		
			<linearGradient id="SVGID_19_" gradientUnits="userSpaceOnUse" x1="906.5527" y1="159.1086" x2="939.4067" y2="153.8975" gradientTransform="matrix(1 0 0 -1 0 699.8885)">
			<stop  offset="0" style="stop-color:#A43907;stop-opacity:0.9961"/>
			<stop  offset="1" style="stop-color:#FFFFFF"/>
		</linearGradient>
		<path class="st21" d="M923.7,556.2c-1.1-1.7-12.7-22-12.7-22l6.4-4.7c2,5.7,9.1,7.6,10.2,14.5C928.7,551,922.6,557.9,923.7,556.2
			L923.7,556.2z"/>
		
			<linearGradient id="SVGID_20_" gradientUnits="userSpaceOnUse" x1="939.5698" y1="159.7478" x2="883.7229" y2="190.7436" gradientTransform="matrix(1 0 0 -1 0 699.8885)">
			<stop  offset="0" style="stop-color:#A43907;stop-opacity:0.9961"/>
			<stop  offset="1" style="stop-color:#FFFFFF"/>
		</linearGradient>
		<path class="st22" d="M912.2,549.9c0,0-2.2-9.8,5-11c7.2-1.2,11,5.5,10,2.9c-1.2-2.9-5.5-5.8-6.1-15.6c-0.6-9.8,0.6-15,0.6-15
			s-2.8-12.7-14.4-11c-11.6,1.7-12.2,11-12.2,14.5s1.1,5.2,1.1,5.2L912.2,549.9L912.2,549.9z"/>
	</g>
	<g>
		<path d="M949,511.7l-6-4.2l-0.7,1.1l1.2,1l0.1,0.6l-7.6,12.1l-0.6,0.1l-1.3-0.8l-0.7,1.1l6,4.2c2.1,1.4,3.8,2.1,5.8,1.9
			c2.6-0.3,4.7-1.7,6.4-4.4C954.6,519.6,953.8,515,949,511.7L949,511.7z M946.5,511.7l1.2,0.8c3.3,2.3,3.6,5.4,0.9,9.7
			s-5.6,5.3-8.9,3l-1.2-0.8L946.5,511.7L946.5,511.7z"/>
		<path d="M951,533.5l12,6l2-4.4l-1.5-0.8l-1.6,2.4l-0.5,0.2l-5.2-2.6l2.9-6.4l2.9,1.4l0.2,0.5l-0.6,1.9l1.3,0.7l2.6-5.7l-1.3-0.7
			l-1,1.7l-0.5,0.2l-2.9-1.4l2.7-5.8l4.4,2.2l0.1,0.5l-0.6,2.3l1.6,0.8l1.8-3.9l-11.2-5.6l-0.5,1.2l1.3,0.8l0.2,0.5l-6,13.1
			l-0.5,0.2l-1.4-0.6L951,533.5L951,533.5z"/>
		<path d="M966.9,540.2c1.3,1.1,2.8,1.9,4.3,2.4c3.9,1.3,6.9-0.1,7.9-3.2c0.5-1.5,0.1-3.2-0.9-4.6c-1.1-1.5-2.2-2.3-2.8-3
			c-1-1.2-1.4-2.2-1-3.4c0.4-1.4,1.8-2.1,3.5-1.5c0.8,0.3,1.3,0.6,1.6,0.9l0.2,0.5l-0.4,2.8l1.7,0.6l1.3-4.2
			c-1.3-1.1-2.7-1.9-4.2-2.4c-3.4-1.1-6.2,0.4-7.1,3.2c-0.4,1.3-0.2,2.7,0.6,4.1c0.7,1.3,1.7,2.1,2.5,3c1.4,1.5,1.9,2.7,1.5,4.1
			c-0.4,1.4-1.9,2.1-3.8,1.4c-0.7-0.2-1.4-0.6-2-1.1l-0.2-0.5l0.6-3.2l-1.8-0.6L966.9,540.2L966.9,540.2z"/>
		<path d="M979.4,545l7,2.4l0.4-1.3l-1.5-0.7l-0.2-0.5l4.2-13.8l0.5-0.2l1.6,0.4l0.4-1.3l-7-2.4l-0.4,1.3l1.5,0.7l0.3,0.5l-4.2,13.8
			l-0.5,0.3l-1.6-0.4L979.4,545L979.4,545z"/>
		<path d="M994.5,530.6l-0.3,1.3l1.4,0.4l0.3,0.5l-2.9,14.2l-0.5,0.3l-1.5-0.2l-0.3,1.3l6.8,1.5l0.3-1.3l-1.4-0.5l-0.3-0.5l1.2-6
			c0.1,0,0.3,0.1,0.4,0.1c2.4,0.5,2.8,1.8,3.1,4.5c0.1,1.4,0.1,2.6,1.1,4c0.5,0.6,1.3,1.1,2.3,1.4c0.7,0.2,1.6,0.3,2.5,0.3l0.3-1.3
			c-0.1,0-0.2,0-0.3-0.1c-1.6-0.4-2.3-0.9-2.5-2.5c-0.2-1.4-0.1-2.9-0.6-4.2c-0.4-1-1.1-1.7-2.2-2.2c2.8,0,4.6-1.2,5.1-3.6
			c0.6-3-1-5-4.7-5.8L994.5,530.6L994.5,530.6z M999.2,533.2l1.1,0.2c2.3,0.5,3.3,2,2.9,4.2c-0.5,2.5-2,3.3-4.6,2.7
			c-0.3-0.1-0.6-0.1-0.9-0.2L999.2,533.2L999.2,533.2z"/>
		<path d="M1009.8,552.9l13.3,0.7l0.2-4.9l-1.7-0.1l-0.5,2.9l-0.3,0.4l-5.7-0.3l0.3-7.1l3.2,0.2l0.3,0.4l0.2,2l1.5,0.1l0.3-6.3
			l-1.5-0.1l-0.3,1.9l-0.4,0.4l-3.2-0.2l0.3-6.5l4.9,0.2l0.3,0.4l0.3,2.4l1.7,0.1l0.2-4.3l-12.4-0.6l-0.1,1.3l1.5,0.2l0.4,0.4
			l-0.6,14.5l-0.4,0.4l-1.5,0.1L1009.8,552.9L1009.8,552.9z"/>
		<path d="M1033.2,537.5l0,4.8l1.7,0l0.4-2.9l0.4-0.3l3,0l-0.1,14.8l-0.4,0.4l-1.6,0.1l0,1.3l7.6,0.1l0-1.3l-1.6-0.2l-0.4-0.4
			l0.1-14.8l3,0l0.4,0.4l0.4,2.9l1.7,0l0-4.8L1033.2,537.5L1033.2,537.5z"/>
		<path d="M1048.6,538l0,1.3l1.5,0.1l0.4,0.4l0.3,14.4l-0.4,0.4l-1.5,0.2l0,1.3l7.2-0.1l0-1.3l-1.5-0.1l-0.4-0.4l-0.1-6.9l7.3-0.1
			l0.1,6.9l-0.4,0.4l-1.5,0.2l0,1.3l7.1-0.1l0-1.3l-1.5-0.1l-0.4-0.4l-0.3-14.4l0.4-0.4l1.5-0.2l0-1.3l-7.1,0.1l0,1.3l1.5,0.1
			l0.4,0.4l0.1,6l-7.3,0.1l-0.1-6l0.4-0.4l1.5-0.2l0-1.3L1048.6,538z"/>
		<path d="M1068.7,555.8l13.6-1.2l-0.4-4.9l-1.7,0.2l-0.2,2.9l-0.3,0.5l-5.9,0.5l-0.6-7l3.3-0.3l0.4,0.3l0.4,1.9l1.5-0.1l-0.5-6.3
			l-1.5,0.1l-0.1,2l-0.3,0.4l-3.3,0.3l-0.5-6.5l5-0.5l0.4,0.3l0.6,2.4l1.8-0.2l-0.4-4.3l-12.7,1.2l0.1,1.3l1.6,0l0.4,0.3l1.2,14.4
			l-0.4,0.5l-1.5,0.3L1068.7,555.8L1068.7,555.8z"/>
		<path d="M1088,534.7l0.2,1.3l1.6-0.1l0.5,0.3l2.3,14.3l-0.4,0.5l-1.6,0.4l0.2,1.3l7.5-1.3l-0.2-1.3l-1.6,0.1l-0.5-0.4l-1-6
			c0.2,0,0.3-0.1,0.5-0.1c2.7-0.5,3.6,0.6,4.8,3c0.6,1.2,1.1,2.4,2.6,3.2c0.7,0.4,1.8,0.6,2.9,0.4c0.8-0.1,1.7-0.4,2.6-0.7l-0.2-1.3
			c-0.1,0-0.2,0-0.3,0.1c-1.8,0.3-2.6,0-3.4-1.3c-0.7-1.3-1.2-2.7-2.2-3.7c-0.7-0.8-1.7-1.1-3.1-1.2c2.9-1.1,4.2-2.9,3.9-5.4
			c-0.5-3-2.9-4.2-7-3.5L1088,534.7L1088,534.7z M1093.7,535.3l1.2-0.2c2.6-0.4,4.1,0.6,4.5,2.8c0.4,2.5-0.8,3.8-3.6,4.3
			c-0.3,0.1-0.6,0.1-1,0.1L1093.7,535.3z"/>
		<path d="M1110.4,549l7.7-2.4l-0.4-1.3l-1.8,0.4l-0.5-0.3l-4.2-13.9l0.3-0.5l1.7-0.7l-0.4-1.3l-7.7,2.4l0.4,1.3l1.7-0.4l0.5,0.2
			l4.2,13.9l-0.3,0.5l-1.7,0.7L1110.4,549L1110.4,549z"/>
		<path d="M1126.5,534l0.4,1.3l2-0.5l0.5,0.2l1.5,5.3c-0.7,0.3-1.1,0.4-1.4,0.5c-4,1.2-7.2-0.7-8.5-5.4c-1.3-4.6,0.3-8,4.1-9.2
			c0.7-0.2,1.5-0.3,2.3-0.3l0.5,0.3l1.3,2.6l1.9-0.6l-1.3-4.4c-2.1,0-4,0.3-5.7,0.8c-5.7,1.8-8.4,6.5-6.9,11.9
			c1.6,5.4,6.3,8,11.7,6.3c1.9-0.6,3.7-1.6,5.5-2.9l-1.7-6.1l0.3-0.5l1.5-0.6l-0.4-1.3L1126.5,534L1126.5,534z"/>
		<path d="M1130.5,523.1l0.6,1.2l1.5-0.6l0.6,0.2l6.2,12.9l-0.2,0.6l-1.3,0.9l0.6,1.2l6.8-3.6l-0.6-1.2l-1.5,0.6l-0.6-0.2l-3-6.1
			l7-3.7l3,6.1l-0.2,0.6l-1.4,0.9l0.6,1.2l6.8-3.6l-0.6-1.2l-1.5,0.6l-0.6-0.2l-6.2-12.9l0.2-0.6l1.3-0.9l-0.6-1.2l-6.8,3.6l0.6,1.2
			l1.5-0.6l0.5,0.2l2.6,5.3l-7,3.7l-2.6-5.3l0.2-0.6l1.4-0.9l-0.6-1.2L1130.5,523.1L1130.5,523.1z"/>
		<path d="M1147.5,513.3l2.4,4.1l1.6-1l-1.1-2.7l0.2-0.5l2.8-1.7l7.3,12.7l-0.2,0.6l-1.4,1.1l0.7,1.1l6.9-4.3l-0.7-1.1l-1.6,0.8
			l-0.6-0.1l-7.3-12.7l2.8-1.7l0.5,0.1l1.8,2.3l1.6-1l-2.4-4.1L1147.5,513.3L1147.5,513.3z"/>
	</g>
</g>
<g>
	<path class="st23" d="M1050,523.1c0,0-133.5-39.4-132.8-189.1l1-197.9h263.5l1,196.8C1183.6,482.6,1050,523.1,1050,523.1
		L1050,523.1z"/>
	<g>
		<path class="st24" d="M936.6,180.9c0.2,0,1.8-1.5,3.3-2.9c2.1-1,4-2.5,6.1-3.5c1.6-0.9,4.7-1.6,6.1-2.3c1.9-1,3.4-2.1,5-4.1
			c0.2-2.6,0.6-4.4,0.6-7.5c2.2-1.1,4.2-2.1,6.1-2.9c2.8-0.8,3.4-1.9,6.1-2.3c1.7-0.6,4.6-0.6,7.2-0.6c2.8,0,4.5,2,7,2.4
			c2.9,1.2,4.3,2,6.6,4.1c1.3,1.7,2.1,3,4.4,4.3c1.8,0.9,3.5,2.3,5.5,2.9c2.3,1.3,4.3,2.1,6.1,4.1c1.6,1.2,2.3,2.9,3.9,4
			c1.8,1.5,3.6,2.9,5.5,4.1c2.4,1.6,4.7,2.8,8.6,2.4c2-0.1,4.2-0.4,6.6,0.1c2.7,0,5.3,0,7.7,0.6c2.8,0,5.1,0.4,7.7,0.6
			c2.5,0.5,5,0.6,7.7,0.6c2.4,0.6,5,0.6,7.7,0.6h7.7h7.7c2.8,0,5.7,0.1,7.7,0.6c2.8,0,5.2-0.3,7.7-0.6c3,0,5.3-0.5,8.3-0.6h9.4
			c2.4,0.7,5.5,1.1,7.2,2.3c2.2,0.6,3.3,1.7,5.5,2.3c1.7,0.9,4.3,2.2,5.5,4c1.6,1.6,3.2,4,4.4,6.4c1.5,2.2,2.1,4.8,3.3,7.5
			c0.6,2.6,1.1,5.2,1.1,8.1c0.6,2.5,0.6,5.3,0.6,8.1c-0.6,2.6-0.8,5.6-1.7,8.1c-0.1,2.8-0.7,5.4-1.1,7.5c-0.5,2.4-1.1,3.9-1.1,6.9
			v8.1c-0.2,2.7-0.8,4.6-1.1,7.5c-1.3,2.5-2.6,5.5-3.9,8.7c-1.8,1.3-3.4,3.1-4.4,4.6c-1.2,0.7-1.9,1.8-1.7,2.3
			c2.2,0.8,1.7,2.3,1.7,5.2c0.3,2.2,0.5,5,1.1,7.5c0.2,2.8,0.8,4.5,1.7,6.4c0.9,1.1,1,0.6-1.1,0.6c-1.6,1.3-3.2,0.6-3.9-1.7
			c-1.3-1.6-1.7-3.4-2.2-6.4c-0.3-2.7-0.7-5.3-1.7-6.9c-0.3-3.3-1.2-3.2-4.4-3.5c-1.6-1.4-3.6-1.7-6.6-1.7c-3,0-3.3-0.3-3.3,2.9v8.1
			c-0.5,2.3-1.7,4.3-2.2,6.4c-1.7,1.2-2.5,3.2-4.4,4.6c-0.9,2.6-2.2,3.1-5,3.5c-1-1.2-2.5-2.8-3.3-4c1.5-2.6,2.9-3,3.9-5.8
			c1.2-2.3,1.9-3.8,2.8-5.8c-1.2-1.8-2.2-2.6-3.3-5.2c-0.9-1.4-2.2-4.4-2.8-6.4c-1.8-0.6-4.7-0.7-6.1-1.7c-2.7-0.6-3.4,2.3-6.6,2.3
			h-7.7c-3.4,0-4.3,1.9-7.2,1.7c-0.9,0.3-2.9-0.1-6.1,0c-2.3,0.8-5.1,0.6-7.7,0.6c-2.8,0-5.1-0.7-7.2-1.2c-2.5-0.7-5.1-1.4-7.7-1.7
			c-3.2,0-4.5,0.3-6.6,1.7c-1.7,1-4.2,3.4-6.1,4.6c-0.8,1.9-1.2,5.2-2.2,7.5c-0.6,2.3-1.5,3.7-2.2,5.8c-0.7,2-1.5,4-1.7,6.9
			c-0.2,3.9-1,3.4-3.3,2.3c-1-1.6-2.5-3.4-3.3-5.2c0.5-2.9,1.1-4.4,1.1-7.5c-0.5-2.2-1.8-2.2-3.3-0.6c0,3,0.1,5.4-1.1,6.9
			c-0.6,2.4-1.6,3.4-3.3,4.6c-0.8,2.1-2.7,3.1-4.4,4.1c-0.3-0.1,0-0.8,0-2.3c-1.3-2.6-0.1-4.8-0.1-8.1c0-2.9-0.1-4.9,0.7-7.5
			c0-2.8-1.3-5.5-1.7-7.5c-1-2.1-1.6-3.2-4.4-4.1c-2-0.8-4.8-1.8-6.1-3.5c-1.6-2.1-2.6-2.9-5-4c-2.5-0.9-3.8-1.8-5.5-2.9
			c-1.7-1.9-3.1-2.7-3.9-5.2c-1.2-1.8-1.4-5.1-2.2-7.5c-0.2-2.5-0.9-4.9-1.7-6.9c-0.3-2.5-0.7-4.4-1.7-6.9c-0.3-2.4-1-4.9-1.7-7.5
			c0-2.8,0-5.6-0.6-8.1v-8.1c-0.4-2.3-0.5-5.8-1.1-7.5c0-3.1-0.3-4.9-1.1-6.9c-1.3-2-1.4-3-3.3-3.5c-1.4,1.8-3.7,2.5-6.6,2.9
			c-2-0.5-4.9-0.8-7.2-1.7c-2.2-0.5-3.7-1.4-5.5-2.3c-1-1.5-2.2-3.2-3.3-4.6c-0.3-3-1-4.6-1.1-7.5
			C934.4,182.7,934.4,183.9,936.6,180.9L936.6,180.9z"/>
		<path class="st25" d="M969.4,201.7c3.5-1.2,11.2-6.9,15.6-10.5c5-3.2,15.3,0.1,15.7-8.5c-0.6,2.6-6.6,9-9.5,12.9
			c-6.4,4.1,3.1,8.2,4.7,2.4c3.3-5.9,7.5-12,14.2-14.3c-1.2,4.3-2.1,8.5,0.8,12.3c1-1.9,1.3-9.6,1.2-3.2c-2.1,3.6,3.1,14.1,3.2,5.9
			c0.8-5.2,0.5,5.6,2.1,7.2c3.3,6.4,3-5.9,3.8-8.3c0.6-4.6,0.8-3.4,0.1-0.1c-0.7,4.2,0.7-8.7,1-1.6c0.5,3.7,0,13.7,3.5,5.8
			c2.9-4.7,3.5-4.8,0.4-0.6c-1,1.6,4.7-8.6,2.4-1.5c-0.1,5.1,0,12.7,2.8,16.1c2.1-2.6,0.9-16.3,3-6.9c0.8,2.7,0,10,3.5,4.4
			c3.7-4.4,5.8-8.2,5.4-14.3c0.5-3.1,2.3-8.1,4-2.6c-1.1,7.1,6.3,11.7,5.4,18.5c3.3-5.2,1.8-13.1-0.4-18.1c-0.5-5.9,9-2.4,6.7,2.8
			c-0.3,3.8,5.1,13.4,5.6,4.5c0.7-4.3,3.1-4.6,2.6,0.1c1,3.1,5.2,12.1,4.7,4.2c0.4-4.3-0.7-8.8,1.2-12.9c1.4,2.6,1.5,6.6,3.1,1.6
			c3.3-0.1,1.3,9.1,5.5,11c1.7,3.3,5.9,8.7,4.7,1.6c0.6-3.8-2.8-11.8-1.3-12.8c4.4,5.5,6,12.9,11.9,17.3c5.6,2.8,0.7-7.9,0.4-10.6
			c-3.3-1.8-6.1-9-1.3-3.4c2.7,5,11,9.3,13.6,10.4c-2.5-1.8-4.7-2.5-0.5,0c3.1,1.3-1.8-7.7-3.6-9.3c-1.6-2.9-9.4-7.1-7.2-9.1
			c6.1,1.3,7.9,8,11.6,12.2c2.3,1.9,7.9,6.1,4.8-0.1c1.7-0.7,10.3,8.8,8.3,1.2c-1.4-3.3-9-9.2-8.1-9.6c2.6,3.7,1,1.1-1-0.9
			c7.5,0.8,11.8,8.3,16.5,13c0.6,2.3,2.3,13.2,0,6c-4.8-2.1,1.9,9.8-3.4,8.3c-0.2-2.6-4.9-8.2-2.6-2.7c3.9,8,1,16.8,1.3,25.2
			c0.1,4.1-0.1,8.3-0.4,12.4c0.3-3,0.5-8.1,0-1.5c-0.2,4.6-1.9-6.7-4.2-7.2c-0.5-2.1-2.3-12.7-3.8-6.4c0,6.2,6,12.7,1.2,18.2
			c-1.6,1.5-2.5,5.8-3.3,1.3c-2.4-5.4-3.9-11-8-15.4c-1.7-3.4-7.7-11.7-6.1-3c1,3.9,1.7,7.9,1.5,12c-2.3-6-5.5-11.6-8.6-17.2
			c0.5,2.6,3.6,13.7,0.9,6.5c-1.9-5.9-5-11.8-10.9-14.5c-1.6-0.2,4,10.4,1.8,10.5c-0.5-3.4-3.6-11.1-6.7-9.7
			c0.1,6.1,2.6,11.8,1.2,18.1c0.3,6.1-3.8-6.1-5.1-7.7c-6-3.7,0.4,10.3-4.3,4.9c-3.8-2.7-5.8-5.6-5.5-10.6
			c-7.1-1.2-4.4,6.3-4.7,10.6c-0.6,3.2-2.3,9.4-4.3,10.3c-0.8-4.7-0.2-9.6-0.4-14.3c1.1-2.7-0.1-9.8-3.4-6.4
			c-0.6,6.2,3.5,14-1.1,19.1c-2.4,2.8-6.9-4.3-11.2-2.4c-5.4-2.8-3.2-11.4-6.8-15.9c-3.6-3.8-1.9,15.3-4.3,6.2
			c1.7-5.8-8.8-8-6.7-1.9c2.6,2.6,3,5.9,2.7,9.4c0.7,4.1-2.3,5.3-3,0.7c-0.3-5-8.9-7.1-7.2-0.5c-4.5-2.9-0.3,11.5-5.8,7.1
			c-6.3-4.4-10.3,3.9-17.1,2.2c-3.9,0.6-13.2,1.7-7.6-4c5.3-3.2,7.5-12.8,14.9-7.9c5.6-0.3,11.6-4.3,16.2-8c3.8-2.5,2.1-9-2.5-5
			c-3.8,5.7-14.8,5.7-18.1,5.3c3.3-3.1,13.3-3.5,10.8-9c-3.7,0.3-10.1,5.8-12.2,2.6c1.3-1.4,5.5-5.3,0.6-3.6c-6.1,2-12.7,1.5-19.1,1
			c-6.3-6.2,9.2-4.5,9-8.6c-1.5-0.1-7.6,0.7-5-1.5c5.1,0.1,10.3,0.5,14-4.4c2.2-2.3,10-7.6,8.1-9.5c-5.7,3.3-11.7,8.9-18.9,5.6
			c6.2-4.6-2.4-5-6.3-4.5c-2.8,0.9-10.7-2.3-4-2.1c4.6,1,9.1-5.4,2.1-4.2C972.5,201.5,970.9,201.8,969.4,201.7L969.4,201.7z"/>
		<path class="st25" d="M935.5,192.4c-0.3-3-1.5-6-1-9c1.5-2.2,3.5-3.7,5.4-5.5c3.4-1.9,6.6-4.2,10.4-5.1c2.7-0.8,5-2.6,6.7-4.7
			c0.9-2.6-0.7-6.7,1.8-8.1c3-1.6,6.2-2.7,9.3-4.2c3.3-1.1,6.9-1.2,10.4-0.8c2.8,1.2,5.5,2.3,8.3,3.5c2.5,1.2,4.3,3.2,6,5.4
			c2,1.8,4.4,2.9,6.7,4.2c1.9,0.1,1.3,2.6,0.1,2.5c-0.8,3.7-5.4,0.6-6.2-1.6c0.8-1.4,0.5,3.2-1,3.3c-2.6,1.1-2.5-3.2-2.9-4.9
			c0.3-1.4-0.8-3.1-1.4-0.9c-1.7,1.9,1.9,6-1.9,4.9c-2.8-0.4-5.9-0.9-8.4,0.9c-2,2.1,2.2,3,3.5,4c1.8,1.7,4.2,0,6.2-0.2
			c2.8-1,6-0.5,8.7,0.8c1.2,2.6-1.2,5.2-3.5,6.3c-2.2,1.2-4.6,1.7-7,2c-3.5,0.2-2.9,4.6-6.3,4.9c-2.2,0.9-4.7,1.1-7,0.8
			c-0.5-1.3,2.3-3.3,2.6-5.2c2.5-3-3.6-2.5-2.7,0.4c0.4,1.9-3.8,4.8-2.4,1.5c0.1-1.8,1.9-4.5-1.2-3.3c-1.7,0-5.2-0.1-4.2,2.6
			c-2.1,0.4-4.8,0.5-6.6-0.6c-1.1-2.9-4.4-4.1-6.6-1.5c-2.1,2.8-5-0.9-7.1,0.6c0,2.6,2.7,4,5,4c2.4-0.2,4.9-0.7,7.3-0.3
			c2.2,2.7-2.1,3.5-4.2,3.1c-2.8-0.1-5.3-1.7-8.1-1.5c-1.4-0.2-4.5,1.5-1.5,1.7c2.2,0.4,6.6,0.3,5.6,3.7c-1.7,0.8-3.8-0.1-5.7,0.7
			c-1.1-0.3-4.5,0.6-2.6-0.3C938.7,194.9,936.8,193.9,935.5,192.4L935.5,192.4z"/>
		<path class="st24" d="M947.9,178.8c-0.1,0-1.3,0.8-2.3,1.6c-1.7,0.9-3.6,2.5-4.7,3.3c-0.9,0.7-0.9,1-2,1.2
			c1.9-0.3,2.7-0.7,4.3-1.6c2-0.2,4-0.7,5.1-1.6C949.3,181.3,948.2,179.7,947.9,178.8L947.9,178.8z"/>
		<path class="st24" d="M965.9,159.6c0.2,0,0.7,1.3,1.6,2c0.6,1.6,1.1,2.7,1.2,4.5c0.5-2,1.3-3.6,1.6-5.7c-0.6-1.1-0.6-1.6-2.3-1.6
			C967.8,159.9,967.9,159.2,965.9,159.6z"/>
		<path class="st24" d="M972.9,160v0.4c0-1.1,0-0.5,0.4,1.6c0.6,1.4,0.8,2.8,0.8,4.9c1-0.8,1.9-2.3,2.3-3.7
			C976.4,160,976,160.2,972.9,160z"/>
		<path class="st24" d="M987.4,207h0.4c-1.2,0-0.5,0.1,1.6-1.2c1.3-0.9,2.4-2.3,4.3-2.9c1.8-1.5,3.2-2.2,5.1-2.9
			c0.9-0.4,1.7-1.2,2.7-0.4c-0.3,2-0.6,2.8-2.3,3.7c-0.9,1.2-2.3,1.8-3.5,2.5c-1.3,0.6-2.7,0.6-3.1,2
			C990.3,208.8,990.1,208.7,987.4,207L987.4,207z"/>
		<path class="st24" d="M994.8,218.9c0.7-0.6,3.1-3.1,4.3-4.1c1.3-1.8,2.6-3.2,3.9-4.1c1.1-1.8,2.6-2.9,3.5-4.5
			c1.1-1.4,1.9-2.5,3.1-4.1c0,1.8-0.2,4.2,0.4,5.3c0,2.5-0.3,3.1-1.2,4.9c-0.9,1.4-1.6,2.4-3.5,3.3c-1.8,1-2.8,1.3-4.3,2.5
			c-1.1,0.7-2.3,1.4-3.5,2C996.4,220.6,996.9,220.4,994.8,218.9L994.8,218.9z"/>
		<path class="st24" d="M982.7,228.3h0.4c-1.2,0-0.5,0.1,1.6-1.2c1.7-1.7,3-2.4,5.1-3.3c1.6-0.1,3.5-0.5,4.7-1.2
			c0.9-0.2,1.6-0.8,2.3,0c1.2,1.7,1.6,2.2-0.4,3.3c-0.9,0.8-2.6,1.7-3.9,2c-1,0.8-2.9,0.9-4.7,1.2c-1.6,0-2.5,0.2-3.1-0.8l3.1,0.8
			C986.2,229.1,985.3,229.3,982.7,228.3z"/>
		<path class="st24" d="M999.5,228.3v-0.4c0,1.1,0,0.5,0.8-1.6c1.5-2.3,2-3.6,3.9-4.1c0.9-1.1,2.4-1.4,4.3-2c0.7,1.2,0.2,2.7,0,4.1
			c-0.5,1.5-1.9,2.6-2.7,3.7c-1.2,0.9-1.7,1.7-3.5,2C1000.7,229.9,1001.5,229.9,999.5,228.3z"/>
		<path class="st26" d="M953.7,176.4c-0.9,0,1.5-0.9,2.3-1.2c0.6-1.4,1.2-2.4,2.3-3.3c2,0.2,2.9,0.7,3.9,2c1.6,0.5,2.2,1.3,4.3,1.6
			c0.8,0.7,1.8,0.8,0,1.2c-1.2,0.7-2.8,0.8-4.7,0.8c-2,0.2-3.5,0.6-4.7,1.2C954.6,178.8,955,178.9,953.7,176.4L953.7,176.4z"/>
		<ellipse cx="959.2" cy="175.1" rx="2" ry="2"/>
	</g>
	<g>
		<path class="st27" d="M965.8,289.3h1.6c-4.9,0-2-0.3,6.3,6.5c3.4-3,3.4-3.4,6.3,1.6c1.6,2.9,2.1-0.3,4.7-3.3
			c1.2,5.9,2,12.2,6.3,6.5c4.8,0,9.9-0.4,12.5,1.6c3.2,6.2,2.1-1,4.7,1.6c6.9,0.9,6.8-6.2,14.3-8c4.7,6.1,6.7,1.4,12.5-1.6
			c4.3,1.3,8.4,8.1,9.2,1.5c3.5-6,3.8-5.5,6.3,0c3.4,3.2,4.9-1.6,7.8-3.3c5.2,3.2,11.1,3.6,18.8,1.6c1.3,5.5,4.6,3.1,7.8,1.6
			c6.9,3,9.3,4,17.2,0c3.9-4.8,1.7,0.1,4.7,3.3c5.8-1.9,4.2-2.3,11-1.6c6.8,0,7.3-0.2,9.4-4.9c3.4,3.6,4.6,6.1,9.4,1.6
			c7.3,0.2,5,1,9.4-1.6c3.2,7.5,4,2.1,7.8,4.9c-2.5,6.7-6.4,9.9-11,13.1c-3,5.2-4.9,10.8-11,13.1c-4.4,4.7-9.1,7.5-14.1,11.5
			c-6.8,1.8-14.3,1.6-21.9,1.6h-21.9h-21.9H1030c-4.7,2.4-12.3,3.6-18.8,4.9c-7.2,0-15.4,0.1-20.3-1.6c-3.4-3.5-9.2-7.4-12.5-11.5
			c-3.3-2.8-3.4-8.3-6.3-11.5c-2.6-4.7-3.4-12-6.3-16.4L965.8,289.3L965.8,289.3z"/>
		<path class="st27" d="M1117.6,304v1.6c0-4.6,0.2-2.1-3.1,6.5c-0.7,2.1-2.1,2.6-4.7,3.3"/>
		<path class="st27" d="M1103.6,310.5h1.6c-5.8,5.7-9.7,8.4-11,14.7l11-14.7c-5.8,5.7-9.7,8.4-11,14.7"/>
		<path class="st27" d="M1081.6,302.4c0,0.1-0.2,5.8-1.6,8.2"/>
		<path class="st27" d="M1075.4,313.8v1.6V313.8z"/>
		<path class="st27" d="M1062.9,304h1.6H1062.9z"/>
		<path class="st27" d="M975.2,304c0.7,0,3.8,5.2,7.8,8.2c-1,4.8-2.5,10.3,0,14.7"/>
		<path class="st27" d="M987.8,313.8c0.7,0,3.8,5.2,7.8,8.2L987.8,313.8c0.7,0,3.8,5.2,7.8,8.2v1.6c0-5.1-0.4-10.4,1.6-13.1
			c1.7,3.1,3.9,8,4.7,3.3c8.8-0.3,13.1-2.9,18.8-4.9c0,2.4-0.4,1.2,1.6,3.3"/>
		<path class="st27" d="M1128.6,305.6h1.6c-3,2.6-5.2,7.8-7.8,11.5"/>
		<path class="st27" d="M1064.4,300.7h12.5"/>
	</g>
	<g>
		<path class="st28" d="M962.2,313.2c-18.8,0-25.1,19.7-43.9,19.7c-0.4,0-0.7,0-1.1,0v1.2c-0.1,13.6,1,26.3,3,38.2
			c17.4-1.3,23.8-19.7,42-19.7c18.8,0,25.1,19.7,43.9,19.7c18.8,0,25.1-19.7,43.9-19.7s25.1,19.7,43.9,19.7
			c18.8,0,25.1-19.7,43.9-19.7c18.1,0,24.6,18.3,41.8,19.6c2.1-12.2,3.2-25.3,3.1-39.3v0c-0.4,0-0.7,0-1.1,0
			c-18.8,0-25.1-19.7-43.9-19.7c-18.8,0-25.1,19.7-43.9,19.7c-18.8,0-25.1-19.7-43.9-19.7c-18.8,0-25.1,19.7-43.9,19.7
			S981,313.2,962.2,313.2L962.2,313.2z"/>
		<path class="st28" d="M962.2,389.9c-14.6,0-21.7,11.9-32.9,17.2c3.9,10.8,8.7,20.7,14,29.8c5.3-4,11-7.5,19-7.5
			c18.8,0,25.1,19.7,43.9,19.7c18.8,0,25.1-19.7,43.9-19.7s25.1,19.7,43.9,19.7s25.1-19.7,43.9-19.7c7.8,0,13.4,3.3,18.6,7.3
			c5.3-9,10.1-18.9,14-29.6c-11.1-5.4-18.1-17-32.6-17c-18.8,0-25.1,19.7-43.9,19.7s-25.1-19.7-43.9-19.7s-25.1,19.7-43.9,19.7
			C987.3,409.6,981,389.9,962.2,389.9L962.2,389.9z"/>
		<path class="st28" d="M1050,466.7c-18.8,0-25.1,19.7-43.9,19.7c-17.8,0-24.4-17.6-41-19.5c22.2,24.7,47.3,39.6,64.4,47.8
			c5.8-4.5,11.8,5.5,20.5,5.5c8.6,0,14.6-10,20.3-5.6c16.9-8.3,41.8-23.2,63.8-47.7c-16,2.3-22.7,19.4-40.2,19.4
			C1075.1,486.4,1068.8,466.7,1050,466.7z"/>
	</g>
	<g>
		<g>
			<path class="st29" d="M933.5,399.9c3.1-1.1,18-5.9,18.5-5.4c0.5,0.5,28.8,29.1,28.8,29.1l-23.7,4.8L933.5,399.9L933.5,399.9z"/>
			<g>
				<path class="st30" d="M989.7,437.2c0.4-6.8,13.1-45.2,13.1-45.2"/>
				<path class="st30" d="M994.1,437.7c0-0.4,10-45.2,10-45.2"/>
				<path class="st30" d="M997.5,437.8c0.4-2.5,8.3-45.3,8.3-45.3"/>
				<path class="st30" d="M993.2,425c2.2,0,6.5-1.7,6.5-1.7"/>
				<path class="st30" d="M994.5,419.9c0-0.4,6.5-1.7,6.5-1.7"/>
				<path class="st30" d="M995.4,413.6l7-1.3"/>
				<path class="st30" d="M998.5,408.1c0,0.4,4.8,0.4,4.8,0.4"/>
			</g>
			<g>
				<path class="st29" d="M1067.4,467.1c-0.5-11.6-15.4-77.3-15.4-77.3"/>
				<path class="st29" d="M1062.2,464.9c0-0.7-11.8-74.4-11.8-74.4"/>
				<path class="st29" d="M1057.1,459.2c-0.5-4.3-8.7-68.7-8.7-68.7"/>
				<path class="st29" d="M1066.9,457.7c-2.6-2.2-10.3-5.1-10.3-5.1"/>
				<path class="st29" d="M1063.3,446.1c-2.6,0-7.7-2.9-7.7-2.9"/>
				<path class="st29" d="M1061.7,437.5c0-0.7-7.7-2.9-7.7-2.9"/>
				<path class="st29" d="M1060.7,426.6l-8.2-2.2"/>
				<path class="st29" d="M1057.1,417.2c0,0.7-5.7,0.7-5.7,0.7"/>
				<path class="st29" d="M1055.5,408.6c-1,0-5.7,1.4-5.7,1.4"/>
			</g>
			<g>
				<path class="st29" d="M1106.9,434.8c-2.6,0-7.7-2.2-7.7-2.2"/>
				<path class="st29" d="M1111,450.4c-0.5-8.6-15.4-57.6-15.4-57.6"/>
				<path class="st29" d="M1105.9,448.8c0-0.5-11.8-55.4-11.8-55.4"/>
				<path class="st29" d="M1100.8,444.5c-0.5-3.2-8.7-51.1-8.7-51.1"/>
				<path class="st29" d="M1105.4,428.3c0-0.5-7.7-2.2-7.7-2.2"/>
				<path class="st29" d="M1104.4,420.3l-8.2-1.6"/>
				<path class="st29" d="M1100.8,413.3c0,0.5-5.7,0.5-5.7,0.5"/>
				<path class="st29" d="M1099.2,406.8c-1,0-5.7,1.1-5.7,1.1"/>
			</g>
		</g>
		<g>
			<path class="st31" d="M1044.7,456.9c0-0.5,1.5-135.1,1.5-135.1s4.6-0.5,4.6,0s-0.5,134.5-1,135.1
				C1049.3,457.5,1044.1,458,1044.7,456.9z"/>
			<path class="st31" d="M1095.1,327.8c0,1.1-1,113.5-1,113.5l-3.6,4.3l1-117.8L1095.1,327.8L1095.1,327.8z"/>
			<path class="st31" d="M1005.6,431.1c0.5-3.2,0.5-100.6,0.5-100.6l-3.1-0.5l-0.5,99.6L1005.6,431.1L1005.6,431.1z"/>
			<path class="st31" d="M986,394.5c2.1,0,37.1-5.9,37.1-5.9l-0.5,5.9l-34.5,3.8L986,394.5L986,394.5z"/>
			<path class="st31" d="M986.5,363.3c2.1,0.5,42.2-11.3,42.2-11.3s0,3.8-0.5,3.8c-0.5,0-41.7,11.3-41.7,11.3L986.5,363.3
				L986.5,363.3z"/>
			<path class="st31" d="M988.1,347.7c-0.5,2.2,0.5,4.8,0.5,4.8l33.5-11.8c0,0,1.5-2.7,0-2.7C1020.5,338,987.5,348.8,988.1,347.7
				L988.1,347.7z"/>
			<path class="st31" d="M1032.3,340.1c1,0,34.5-11.3,34.5-11.3s0.5,4.8,0,4.8c-0.5,0-31.4,9.7-31.4,9.7L1032.3,340.1L1032.3,340.1z
				"/>
			<path class="st31" d="M1029.7,354.1c0,0-1,4.8-0.5,4.8c0.5,0,43.7-11.8,43.7-11.8v-3.2L1029.7,354.1L1029.7,354.1z"/>
			<path class="st31" d="M1031.3,392.3v3.8l37.1-5.4l-1-2.7L1031.3,392.3L1031.3,392.3z"/>
			<path class="st31" d="M1074,395l0.5,3.2c0,0,37.1-4.8,37.1-5.4c0-0.5,0-3.8-0.5-3.8C1110.5,389.1,1074.5,395.6,1074,395z"/>
			<path class="st31" d="M1073.5,360.6l0.5,3.8l43.7-12.4c0,0,1-3.2,0.5-3.2C1117.7,348.8,1074.5,362.2,1073.5,360.6L1073.5,360.6z"
				/>
			<path class="st31" d="M1078.1,343.4c0,0-0.5,3.2,0,3.2c0.5,0,32.4-8.1,32.4-8.6c0-0.5,3.1-3.8,0.5-3.2
				C1108.5,335.3,1079.1,345,1078.1,343.4z"/>
		</g>
		<g>
			<path class="st32" d="M1008.1,354.1c4.6-1.6,1.5-5.4,2.6-5.4c1,0,4.6,2.7,6.7,0.5c2.1-2.2,3.6-8.6,2.6-8.1
				c-0.9,0.5-23.1,8.8-27.9,8.9C995.1,351.3,1004.1,355.5,1008.1,354.1L1008.1,354.1z"/>
			<path class="st32" d="M1079.7,346.6c0,0,2.6,6.5,5.1,5.4c2.6-1.1,5.1-3.2,5.1-3.2s2.1,5.4,5.7,4.3c3.6-1.1,5.7-7,5.7-7
				s3.6,1.1,5.1,0.5c1.5-0.5,3.6-9.1,3.6-9.1L1079.7,346.6L1079.7,346.6z"/>
			<path class="st32" d="M1076.6,398.8c-0.5,1.1,2.6,3.8,5.1,3.8s3.6-3.8,4.1-2.7c0.5,1.1,0.5,5.9,7.2,4.3c6.7-1.6,6.7-6.5,6.7-6.5
				s-2.1,1.6,2.6,2.2c4.6,0.5,9.3-7,8.7-7C1110.5,392.9,1077.6,399.3,1076.6,398.8z"/>
			<path class="st32" d="M1076.6,363.8c0,0-5.1,5.9-3.6,14c1.5,8.1,3.6,15.1,4.1,15.1s6.2-10.8,12.4-11.3c6.2-0.5,17.5,5.9,17.5,5.9
				s-1.5-12.9-1-18.8c0.5-5.9,9.3-16.1,9.3-16.1L1076.6,363.8L1076.6,363.8z"/>
			<path class="st32" d="M987.5,398.8c0.5,0,0,4.8,4.1,3.8c4.1-1.1,5.1-3.8,5.1-3.8s1,5.9,6.7,5.4c5.7-0.5,8.7-7,8.7-7
				s0.5,4.8,4.1,3.2c3.6-1.6,4.6-5.4,4.6-5.4l-32.4,4.8L987.5,398.8z"/>
			<path class="st32" d="M987.5,367.1c0,0-4.6,1.6-3.1,11.3c1.5,9.7,5.1,15.1,5.7,15.1c0.5,0,4.6-9.1,10.8-10.8
				c6.2-1.6,17,4.8,17,4.8s-1-8.6,0.5-16.7c1.5-8.1,6.7-14,6.7-14S989.1,367.1,987.5,367.1L987.5,367.1z"/>
			<path class="st32" d="M1033.3,341.8c2.1,0.5,5.7,5.9,7.7,4.8c2.1-1.1,5.1-4.3,5.1-4.3s-0.5,6.5,3.6,5.4c4.1-1.1,4.6-5.4,4.6-5.4
				s3.1,1.6,5.7,0c2.6-1.6,5.1-9.7,4.1-9.7C1063.2,332.6,1034.4,342.3,1033.3,341.8L1033.3,341.8z"/>
			<path class="st32" d="M1032.3,357.4c0,1.1-5.1,9.7-3.6,17.8c1.5,8.1,4.6,15.6,5.1,15.6c0.5,0,8.2-8.6,14.9-10.2
				c6.7-1.6,16.5,5.4,16,5.4c-0.5,0-2.6-8.1-2.6-14c0-5.9,7.7-24.2,7.7-24.2L1032.3,357.4L1032.3,357.4z"/>
			<path class="st32" d="M1032.3,396.1c0,0.5,1.5,4.3,5.1,4.3c3.6,0,4.1-3.8,4.1-3.8s-0.5,6.5,5.1,5.9c5.7-0.5,7.7-6.5,7.7-6.5
				s0.5,3.2,5.1,1.6c4.6-1.6,10.8-7,10.3-7C1069.4,390.7,1032.8,397.7,1032.3,396.1L1032.3,396.1z"/>
		</g>
		<g>
			<path class="st31" d="M987.5,434.9c0,0,5.1,55.4,64.3,53.8c59.2-1.6,75.6-56,75.6-56s-25.2-1.1-25.7-1.1
				c-0.5,0-20.6,25.8-46.3,25.3c-25.7-0.5-34-7-39.6-12.4c-5.7-5.4-10.8-13.5-10.8-13.5l-29.8-12.4l1.5,11.8L987.5,434.9
				L987.5,434.9z"/>
			<path class="st31" d="M1147.3,429.1c-0.5-1.6-1.8-7.2-1.8-7.2v-6.5l2.8-6.5c0,0-44.8,6.7-44.8,7.2c0-0.6-0.3,12.7-0.3,12.7
				L1147.3,429.1L1147.3,429.1z"/>
			<path class="st31" d="M1138.8,415.5l-1,11.3h7.2l-0.5-11.3H1138.8L1138.8,415.5z"/>
			<path class="st31" d="M1131.1,416l-0.5,11.8l4.6-0.5l0.5-11.3L1131.1,416L1131.1,416z"/>
			<path class="st31" d="M1123.4,427.9v-9.1l4.6-1.6l0.5,9.1L1123.4,427.9z"/>
			<path class="st31" d="M1114.7,427.3l1-8.1l5.1,0.5l0.5,8.6L1114.7,427.3L1114.7,427.3z"/>
			<path class="st31" d="M1104.9,427.3l0.5-7l5.1-0.5v8.1L1104.9,427.3z"/>
			<path class="st31" d="M1099.7,431.6l48.9,1.1l0.5-3.8l-50.4-0.5L1099.7,431.6z"/>
			<path class="st31" d="M1101.8,418.2c5.7,0,48.4-8.6,48.4-8.6s1.5-5.4,0-5.4c-1.5,0-48.4,10.2-48.4,10.2V418.2L1101.8,418.2z"/>
			<path class="st31" d="M932,399.3l39.1,19.9l-1,2.7c0,0-37.6-18.3-37.6-18.8C932.5,402.6,933,400.4,932,399.3z"/>
			<path class="st31" d="M950,393.4c0,1.6,5.7,34.4,5.7,34.4s3.6,0.5,3.6,0c0-0.5-6.2-33.9-6.2-33.9L950,393.4L950,393.4z"/>
		</g>
		<g>
			<g>
				<path class="st30" d="M1029,454.2c0.5-8.9,15.4-59.8,15.4-59.8"/>
				<path class="st30" d="M1034.2,454.8c0-0.6,11.8-59.9,11.8-59.9"/>
				<path class="st30" d="M1038.3,454.9c0.5-3.4,9.8-60,9.8-60"/>
				<path class="st30" d="M1029.6,446.9c2.6-1.7,10.3-3.9,10.3-3.9"/>
				<path class="st30" d="M1033.2,438c2.6,0,7.7-2.2,7.7-2.2"/>
				<path class="st30" d="M1034.7,431.3c0-0.6,7.7-2.2,7.7-2.2"/>
				<path class="st30" d="M1035.7,422.9l8.2-1.7"/>
				<path class="st30" d="M1039.3,415.6c0,0.6,5.7,0.6,5.7,0.6"/>
				<path class="st30" d="M1040.9,408.9c1,0,5.7,1.1,5.7,1.1"/>
			</g>
			<g>
				<path class="st29" d="M1072.7,453.8c0.5-8.6,15.4-57.6,15.4-57.6"/>
				<path class="st29" d="M1077.9,452.2c0-0.5,11.8-55.4,11.8-55.4"/>
				<path class="st29" d="M1083,447.9c0.5-3.2,8.7-51.1,8.7-51.1"/>
				<path class="st29" d="M1073.2,446.8c2.6-1.6,10.3-3.8,10.3-3.8"/>
				<path class="st29" d="M1076.8,438.2c2.6,0,7.7-2.2,7.7-2.2"/>
				<path class="st29" d="M1078.4,431.8c0-0.5,7.7-2.2,7.7-2.2"/>
				<path class="st29" d="M1079.4,423.7l8.2-1.6"/>
				<path class="st29" d="M1083,416.7c0,0.5,5.7,0.5,5.7,0.5"/>
				<path class="st29" d="M1084.6,410.2c1,0,5.7,1.1,5.7,1.1"/>
			</g>
			<g>
				<path class="st29" d="M1023.3,448.1c-0.5-8.7-15.4-57.9-15.4-57.9"/>
				<path class="st29" d="M1018.2,446.5c0-0.5-11.8-55.8-11.8-55.8"/>
				<path class="st29" d="M1013.1,442.1c-0.5-3.2-8.7-51.4-8.7-51.4"/>
				<path class="st29" d="M1022.8,441c-2.6-1.6-10.3-3.8-10.3-3.8"/>
				<path class="st29" d="M1019.2,432.4c-2.6,0-7.7-2.2-7.7-2.2"/>
				<path class="st29" d="M1017.7,425.9c0-0.5-7.7-2.2-7.7-2.2"/>
				<path class="st29" d="M1016.7,417.8l-8.2-1.6"/>
				<path class="st29" d="M1013.1,410.7c0,0.5-5.7,0.5-5.7,0.5"/>
				<path class="st29" d="M1011.5,404.2c-1,0-5.7,1.1-5.7,1.1"/>
			</g>
		</g>
		<path class="st33" d="M974.2,419.3c0,0-10.3-1.6-9.8,1.1c0.5,2.7,5.1,5.4,5.7,7c0.5,1.6-1.5,7.5,1.5,7c3.1-0.5,6.2-2.7,6.2-4.3
			c0-1.6-0.5-9.1-0.5-9.1L974.2,419.3L974.2,419.3z"/>
		<g>
			<path class="st29" d="M985.5,434.3c1.5,0,13.4,2.7,13.4,2.7l12.4,17.2"/>
			<path class="st29" d="M994.2,436.5c0.5,0.5,10.8,36.6,60.2,36.6c49.4,0,61.2-40.9,61.2-40.9"/>
			<path class="st29" d="M1123.4,433.2c0,0-23.7,53.8-69,50c-45.3-3.8-52.5-21.5-56.1-30.7c-3.6-9.1-5.7-16.7-5.7-16.7"/>
			<g>
				<path class="st29" d="M1110.5,389.7c0.5-1.6,2.1-33.9,2.1-33.9"/>
				<path class="st29" d="M1146.6,405.8l-31.9-52.7"/>
				<path class="st29" d="M1049.8,323.5c0-0.5,16,7,16,7.5c0,0.5,56.6,79.1,57.1,79.1"/>
				<path class="st29" d="M1094.6,331l14.4,6.5l4.6,11.8"/>
				<path class="st29" d="M1005,329.9c-0.5,0,16,12.9,16,12.9l2.1,10.8"/>
				<path class="st29" d="M948.9,408.5c7.2-3.2,57.1-49,57.1-49"/>
				<path class="st29" d="M935.6,399.9c6.2-5.4,56.1-49.5,56.1-49.5"/>
				<path class="st29" d="M1029.2,357.9l53,92"/>
				<path class="st29" d="M1076,396c0,0,6.3,21.7,12.4,24.9c6.2,3.2,13.4,8.6,13.4,8.6"/>
				<path class="st29" d="M1075.3,396.4c0,0,4.4,25.5,10.6,30.4c6.2,4.8,12.4,10.2,12.4,10.2"/>
				<path class="st29" d="M1032.6,394.6c0,0,6.2,35.5,18.5,43.6c12.4,8.1,22.6,15.1,22.6,15.1"/>
				<path class="st29" d="M1032.1,394.1c0,0,13.4,28,24.7,36.6c11.3,8.6,26.8,16.7,26.8,16.7"/>
				<path class="st29" d="M988.8,396.2c3.6,6.5,3.1,18.8,7.2,23.1c4.1,4.3,10.3,14,10.3,14"/>
				<path class="st29" d="M989.9,396.8c2.1,3.2,7.8,19.3,11.3,24.2c2.6,4.3,28.8,31.7,28.8,31.7"/>
			</g>
		</g>
		<g>
			<ellipse class="st34" cx="1017.4" cy="454.1" rx="3.9" ry="4"/>
			<ellipse class="st34" cx="1037" cy="462.7" rx="3.3" ry="3.5"/>
			<ellipse class="st34" cx="1061.1" cy="464.9" rx="3.3" ry="3.5"/>
			<ellipse class="st34" cx="1082.8" cy="456.5" rx="3.1" ry="3"/>
			<ellipse class="st34" cx="1099.2" cy="446" rx="2.8" ry="3.5"/>
		</g>
		<g>
			<path class="st35" d="M1002.7,330.6c-1.5,1.1-27.3,7.5-23.7,7c3.6-0.5,24.2,5.4,23.7,3.8C1002.2,339.7,1002.7,331.7,1002.7,330.6
				z"/>
			<path class="st35" d="M1046.5,322.5c-1,0-16,5.9-15.4,5.9c0.5,0,17,4.8,16.5,3.8C1047,331.1,1047,324.1,1046.5,322.5
				L1046.5,322.5z"/>
			<path class="st35" d="M1091.2,327.9c-1,0.5-18.5,4.8-15.4,5.4c3.1,0.5,14.9,4.8,14.9,3.8C1090.7,336,1090.7,328.4,1091.2,327.9z"
				/>
		</g>
		<g transform="matrix(0.04915326,-1.2962189,1.2382477,0.05145445,0,0)">
			<ellipse class="st36" cx="-252" cy="847.4" rx="2.7" ry="2.9"/>
			<ellipse class="st36" cx="-247.6" cy="862.2" rx="2.7" ry="2.9"/>
			<ellipse class="st36" cx="-255.8" cy="855.1" rx="2.7" ry="2.9"/>
			<ellipse class="st36" cx="-243.8" cy="854.6" rx="2.7" ry="2.9"/>
			<ellipse class="st36" cx="-249.8" cy="854.8" rx="2.7" ry="2.9"/>
		</g>
	</g>
</g>
</svg>
