<svg id="Layer_1" data-name="Layer 1" xmlns="http://www.w3.org/2000/svg" width="493.89mm" height="246.94mm" viewBox="0 0 1400 700">
  <defs>
    <style>
      .cls-1, .cls-5, .cls-6 {
        fill: #ffbe29;
      }

      .cls-2 {
        fill: #eb7400;
      }

      .cls-3 {
        fill: #00534e;
      }

      .cls-4 {
        fill: #8d153a;
      }

      .cls-5, .cls-6, .cls-7 {
        stroke: #000;
      }

      .cls-5 {
        stroke-width: 2.48px;
      }

      .cls-6, .cls-7 {
        stroke-width: 6.49px;
      }
    </style>
  </defs>
  <rect class="cls-1" width="1400" height="700"/>
  <rect class="cls-2" x="58.33" y="58.33" width="385" height="583.33"/>
  <rect class="cls-3" x="58.33" y="58.33" width="192.5" height="583.33"/>
  <rect class="cls-4" x="501.67" y="58.33" width="845.83" height="583.33"/>
  <path id="leaf" class="cls-5" d="M1267.11,543.74s7.94,16.14,16.7,22.72c13,9.75,39.6,9,50.9,20.42,13.54,13.41-1,31.13-.93,32.67l.74,9.35s-9.13.11-13,.71c-5.78.9-8,5.61-18.79,4.91-27.06-1.76-26-26.13-27.5-47-1.36-7.93-4.5-18.27-6.29-26.2-1.53-6.8-1.86-17.62-1.86-17.62Z" transform="translate(0 0)"/>
  <path class="cls-5" d="M582.05,543.74s-7.93,16.14-16.69,22.72c-13,9.75-39.61,9-50.91,20.42-13.53,13.41,1.06,31.13.93,32.67l-.74,9.35s9.13.11,13,.71c5.78.9,8,5.61,18.8,4.91,27.05-1.76,26-26.13,27.49-47,1.36-7.93,4.5-18.27,6.29-26.2,1.53-6.8,1.86-17.62,1.86-17.62Z" transform="translate(0 0)"/>
  <path class="cls-5" d="M1267.11,156.26s7.94-16.14,16.7-22.72c13-9.75,39.6-9,50.9-20.42,13.54-13.41-1-31.13-.93-32.67l.74-9.35s-9.13-.11-13-.71c-5.78-.9-8-5.61-18.79-4.91-27.06,1.76-26,26.13-27.5,47-1.36,7.93-4.5,18.27-6.29,26.2-1.53,6.8-1.86,17.62-1.86,17.62Z" transform="translate(0 0)"/>
  <path class="cls-5" d="M582.05,156.26s-7.93-16.14-16.69-22.72c-13-9.75-39.61-9-50.91-20.42-13.53-13.41,1.06-31.13.93-32.67l-.74-9.35s9.13-.11,13-.71c5.78-.9,8-5.61,18.8-4.91,27.05,1.76,26,26.13,27.49,47,1.36,7.93,4.5,18.27,6.29,26.2,1.53,6.8,1.86,17.62,1.86,17.62Z" transform="translate(0 0)"/>
  <g id="lion">
    <path class="cls-6" d="M795.13,559.49l5.08-2.94,2.18,2.94c2.9,3.92,10.92,3.88,16.24-.09l4.07-3,3.41,3c4.48,4,12.85,4,18.19,0,3.74-2.78,4.26-2.84,6.73-.72,1.48,1.27,5.8,2.7,9.61,3.2,6.87.89,7,.84,11-5.18,3.37-5.05,3.89-7.09,3.09-12-.53-3.25-1.1-8.47-1.27-11.61-.31-5.68-.27-5.71,8-8.59a113.17,113.17,0,0,0,11.76-4.75c3.3-1.77,12.41-12.48,12.41-14.59,0-.56-3.56-1.42-7.91-1.9-17.3-1.94-20.23-11.24-9-28.5,18.34-28.15,29.41-55.56,29.49-73,0-7.81.48-10.43,1.48-8.73,4.1,6.94-3.25,36-14.37,56.91l-4.48,8.41,4.28-1c2.35-.55,16.17-6.38,30.71-13,39.8-18,53.47-21.56,79.23-20.48,21.58.91,30.77,5.13,46,21.11,8.08,8.46,15.85,14.52,30.07,23.42,30.31,19,31.57,20.62,33,42.92,1.46,22.61.74,23.83-16.36,27.61-14.61,3.23-23.77,10-26.23,19.5-1.31,5.06,1.45,5.2,8.82.47l5.4-3.47,2.4,3.47c3.15,4.56,9.86,4.58,15.43,0l4.21-3.43,4.3,3.43c6.69,5.32,15.57,4,18.08-2.63.48-1.28,1.77-.87,4.38,1.4,4.88,4.24,17.4,6.06,18.75,2.72.51-1.27-.47-4.41-2.18-7-7.28-10.92-9.56-16.13-9.65-22.08-.14-8.26,2.33-12.25,11.73-19,11.43-8.17,15-18.71,6.27-18.71-5.36,0-10.77-4.74-14.22-12.47-7-15.7-5.63-33.31,4.88-62.6,10.69-29.75,11.88-35.23,11.92-55.13,0-16.09-.37-18.87-4-27.69A99.64,99.64,0,0,0,1158,318l-6-8,7.73-6.4c23.6-19.56,18.77-51.57-9.64-63.9-8.7-3.77-10.87-4.11-26.1-4a223.36,223.36,0,0,0-31,2.68,216.34,216.34,0,0,1-31,2.63c-14.85.06-17.37-.31-23.09-3.36-6-3.17-7-4.68-8.15-12a4.36,4.36,0,0,0-2.35-3.34c-2-.64-11.4,7.49-12.78,11.09-.68,1.78-1.24,1.66-3.25-.71a29.36,29.36,0,0,1-4.13-8c-2.36-7.16.54-12.52,9-16.54l6.53-3.12-3.85-2.39c-8-4.93-21.45-1.56-26.34,6.57-1.38,2.3-2.89,4.19-3.35,4.19s-3.08-2.19-5.83-4.87c-10.26-10-6.73-24.85,7-29.38,7.31-2.41,13.78-.57,15.13,4.31,2.06,7.45,8.45-2.34,7.3-11.18-.76-5.88-.65-6.08,3.42-6.08,5.66,0,17.69,7.42,21.42,13.2,4.32,6.72,4,17.3-.75,25.18l-3.74,6.19,4.89-1c7.16-1.44,14.13-5.89,17.65-11.28,3.72-5.71,4.12-16.82.82-22.82-3.2-5.81-2.83-6.73,1.9-4.77,8.05,3.34,12.35,7,15.58,13.34,2.9,5.68,3.06,7.1,1.49,13a37.39,37.39,0,0,1-4.8,10.68c-2.6,3.45-2.69,4-.62,4,3.86,0,11.91-3.65,14.77-6.69a29.89,29.89,0,0,0,4.68-8.42l2.06-5.62,2.36,4.29c3.33,6,9.82,11.5,17.73,14.9,8.51,3.64,12.06,3.85,7.61.44-3-2.3-8.53-18.53-6.86-20.11,1-.94,12.54,7.95,25.73,19.79,12.48,11.2,20.32,14.87,31.78,14.87,14.64,0,23.16-12.74,16.58-24.79-3.83-7-12.38-8-17.38-2-2.29,2.76-2.92,5-2.25,7.86.82,3.56.5,4-2.74,4-4.25,0-12.64-5.44-27.54-17.87-22.71-19-50.32-35-70.25-40.89-12.79-3.77-40.11-5.24-53.11-2.86-14.08,2.57-30.72,10.63-39.79,19.25-16.07,15.27-16.32,35.6-.68,54.11l4.48,5.31-3,4.71a20.4,20.4,0,0,0,.94,22.88c2.19,3,4.4,5.44,4.91,5.44s1.07-1.93,1.24-4.28c.44-5.95,3-9.93,7.37-11.51,3.95-1.42,6.5-.75,24.56,6.46,19,7.59,50.26,8.11,83.49,1.4,16.29-3.29,35.5-3.1,43.95.44,15.49,6.49,19.09,23.37,7.7,36.19-4.93,5.55-9.69,7.81-25.65,12.19-12.15,3.33-15,3.56-42.63,3.28-23.59-.23-32.07.22-41.7,2.23-10.45,2.18-16.88,2.4-47.58,1.63l-35.51-.9,3.94,3.26a60.36,60.36,0,0,0,6.8,4.9c2.68,1.54,2.59,1.75-1.39,3.22A41.35,41.35,0,0,1,954,320.64h-7.28l-1,6.19c-.54,3.41-.5,7.38.09,8.83.87,2.15.54,2.46-1.72,1.63-1.53-.55-5.8-1.65-9.48-2.43a57.57,57.57,0,0,1-11-3.54c-4-1.95-4.44-1.9-5.92.7-1.31,2.33-13.65,11.51-15.46,11.51-.29,0-.67-1.77-.84-3.93s-1.95-7.8-3.95-12.52-4.1-9.87-4.66-11.45c-.83-2.37-1.21-2.49-2.22-.71a30.5,30.5,0,0,0-2.17,7.15A33.89,33.89,0,0,1,884.3,332L881.12,337l-2-4.22c-2.17-4.53-5.79-9.23-7.09-9.23-.44,0-1.2,1.45-1.67,3.22-1,3.7-9.57,13.95-11.66,13.95-.77,0-1.4-2.9-1.4-6.44s-.68-6.44-1.51-6.44-1.51.92-1.51,2c0,2.72-7.32,10.84-9.77,10.84a6.31,6.31,0,0,0-3.83,2.15c-2.7,3.07-4.9,2.64-3.77-.74.53-1.59.19-5.29-.77-8.23l-2.25-7c-.36-1.11-3-.82-8.53,1-9,2.88-12,2.37-7.36-1.24,1.68-1.32,4.25-5.9,5.7-10.16s3.58-8.06,4.74-8.42c1.63-.51,1.55.12-.37,2.71-1.37,1.86-2.5,4.36-2.51,5.56s-1,4.05-2.29,6.33-2,4.37-1.75,4.65,3.7-1,7.58-2.88l7-3.38,0,3a52.19,52.19,0,0,0,1.89,9.76l1.86,6.72,4.8-2.2c4.9-2.26,9.55-10.29,9.55-16.53,0-3.08,1.76-2.6,2.49.67.21,1,1.31,4.57,2.46,8l2.07,6.27,3.29-4a33.33,33.33,0,0,0,5-9.48c1.68-5.28,4.3-7.55,4.3-3.72,0,2.77,7.54,12.67,9,11.82.7-.41,2.1-4.13,3.11-8.26,2.1-8.6,5.48-14.45,7.63-13.19a1.49,1.49,0,0,1,.7,2c-.43.65,1.31,6.24,3.86,12.42l5.68,13.83c.93,2.29,1.77,2,7.22-2.86,3.4-3,6.48-6.35,6.85-7.46.56-1.67,1.32-1.61,4.5.36,4.44,2.76,19.37,7.2,20.52,6.11.44-.41.88-4.33,1-8.72l.2-8,4.29.89a40.3,40.3,0,0,0,11-.06l6.75-1-6-4.12c-3.31-2.27-6.65-5.2-7.43-6.52s-3.77-2.6-7.1-2.88c-9-.77-24.95-9.71-24.95-14,0-.8,2.21.57,4.91,3,6,5.49,14.31,8.94,21.58,8.94h5.44l-3.36-4.48c-1.94-2.57-3.67-7.44-4.08-11.45-.65-6.4-1.32-7.42-8-12.06a77,77,0,0,1-11-9.28l-3.74-4.22-1.92,5c-1,2.75-2.33,5-2.85,5s-2.54-1.61-4.49-3.57-3.94-3.57-4.42-3.56-2.21,2.65-3.84,5.88l-3,5.88-2.29-3.39a52.1,52.1,0,0,0-6.63-7.32c-2.39-2.16-3.64-3.93-2.79-3.93s3.8,2.25,6.54,5l5,5,2-3.67a13.07,13.07,0,0,0,1.11-8.23c-.8-3.94-.68-4.17.83-1.7a36,36,0,0,0,6.48,6.71l4.74,3.84,3.27-6c3.26-6,3.28-6,4.76-2.41,2,4.76,16.31,16.5,28.51,23.37q2.82,1.59-2.38-10.95a27.68,27.68,0,0,1-1.68-8.87c0-4-1.14-5.72-6.2-9.57-7.3-5.55-9.66-9.5-11-18.47-.55-3.63-1.83-7.67-2.84-9-1.49-1.93-1.73-.85-1.33,5.89.26,4.55-.33,10.19-1.32,12.55l-1.8,4.3-1.39-3.58c-.77-2-4.16-5.39-7.53-7.6s-5.74-4.4-5.26-4.86,3.95,1.57,7.71,4.49c5.73,4.45,7,4.93,7.79,3,.94-2.3,0-12.32-1.8-19.32-.9-3.5-.82-3.48,3.49.83,3.18,3.18,4.94,7,6.3,13.59,1.73,8.41,2.61,9.81,10.38,16.64,4.67,4.1,8.73,7.22,9,6.94s.89-10.89,1.31-23.57c.81-24.31-.11-30.1-6-37.61l-3-3.86,4.73-5.1c6.17-6.65,9-12,10.23-19.27l1-5.92-5.34,5.06c-4.37,4.14-6.45,5.05-11.52,5.05s-7-.84-10.35-4.44c-4.05-4.32-11.23-8.47-18.14-10.49-2.55-.75-3.39-.42-3.39,1.3,0,1.27-1.41,4.92-3.14,8.11l-3.13,5.82-6.56-6.49c-4-4-8.8-7.07-12.35-8-9.08-2.38-9.57-2.15-9.57,4.62,0,10.26-4.38,12.17-12.26,5.35-6-5.2-11-6.33-22.39-5.08l-8.8,1,1.58,4c1.32,3.32,1,4.72-1.81,8.49-4.6,6.11-10.57,8.76-19.77,8.76-4.24,0-9.54.88-11.79,1.95s-7.81,2.3-12.39,2.74A65.35,65.35,0,0,0,780,192.58c-2.16.8-2.4.14-1.7-4.78,1.06-7.54-4.2-13.1-12.4-13.1-10.64,0-15.55,9.52-11.39,22.08.81,2.42,1.86,6.23,2.34,8.47s5.29,8.49,11.16,14.37c5.66,5.66,11,11.55,11.89,13.09s3.78,4,6.45,5.49l4.85,2.69-.64-5.19c-.7-5.71.54-6.61,3.58-2.58a26.41,26.41,0,0,0,6.13,5.17c3.6,2.22,4.15,2.26,4.15.34a22.52,22.52,0,0,1,1.63-6.25l1.63-4,2.83,5.48c1.56,3,6.62,9.86,11.25,15.22,9,10.4,14.45,22,11.63,24.69-1.15,1.08-4.25,1-10.66-.29-5-1-11.13-1.53-13.68-1.17-5.2.72-5.61,0-2.41-4,3.37-4.22,2.84-4.92-3.79-4.92-7.68,0-26.72-3.68-34-6.57-7.11-2.81-8.75-2.11-10.84,4.63-1,3-2.67,8.53-3.84,12.22l-2.12,6.7,7.7-.74a80.15,80.15,0,0,0,12.09-2.06c2.42-.72,4.62-1.11,4.88-.85s-.81,2.87-2.39,5.81l-2.89,5.36,4.8-1A44.74,44.74,0,0,0,785,284c3.85-1.86,4.16-1.73,7.19,3.15,3.74,6,6.72,5.75,7.39-.61.68-6.57,2.84-5.6,6.91,3.11,3.91,8.37,8,11.33,8.76,6.36.26-1.64,2.37-4.33,4.68-6,4.68-3.3,8.21-2.31,10.23,2.87,2.1,5.36-2.57,10.89-16.16,19.13q-40.82,24.74-47.55,67.81c-4.07,25.94,8.65,52.74,34.17,72,12.22,9.22,31.62,18.94,30.39,15.23-5.24-15.76-5.07-45.82.29-50.89.8-.76.53,2.37-.61,7-4.26,17.12-2.41,30.76,8.49,62.72,9.86,28.92,8.5,41.27-5.46,49.44-4.48,2.62-7.36,3-19.41,2.91-13.08-.16-14.5.1-18.7,3.45s-9.35,13.89-9.35,18.86c0,2.69,3,2.33,8.87-1.06Z" transform="translate(0 0)"/>
    <path class="cls-6" d="M1007.36,558.9l5.48-3.52,3.72,3.52c4.88,4.62,10.59,4.52,15.28-.27,2.05-2.09,3.88-3.54,4.08-3.22s1.11,1.87,2,3.44c1.16,2,3.54,3,7.84,3.3,5.18.36,6.58-.14,8.63-3.11l2.46-3.55,5.4,3.47c14.78,9.5,22.65-.47,16-20.32-3.36-10.09-1.51-15.76,9.31-28.6,4.57-5.42,8.31-11.2,8.31-12.85,0-2.63-.84-3-6.92-2.86-5.81.12-7.51-.51-10.57-3.88-5-5.48-4.69-11.75.88-18.72l4.44-5.56-7.88-5.35c-4.34-2.94-12.16-9.91-17.39-15.48-11.73-12.5-23.26-18.43-38.47-19.78l-10.19-.9v7.72c0,9.94,4.68,19.49,17.41,35.69,14.48,18.4,15.49,21.25,16.07,45.32l.5,20.34-4.19,4c-3.78,3.59-5.49,4-17.7,4.75-11.63.67-14.07,1.27-17.48,4.29-4.53,4-5.89,6.2-7.29,11.74-.81,3.23-.48,3.94,1.85,3.94,1.56,0,5.31-1.59,8.33-3.53Z" transform="translate(0 0)"/>
    <path class="cls-6" d="M696.29,506.31a12.74,12.74,0,0,0,2.35-6.28c0-2.57,1.15-3.26,6.8-4.06l6.81-1-4.54-3.61c-5.39-4.3-5.89-7.65-1.14-7.66s12.75-4.91,14-8.55a5.73,5.73,0,0,0-.81-5.11c-2.65-3-7.64-2.57-8.57.79-1,3.6-2.66,3.61-6.44,0-5.68-5.38-5.81-16.53-.26-23,2.61-3.06,2.59-3.26-.74-6.41-3.59-3.4-6.15-10.12-4.47-11.72.54-.51,3.37-.1,6.3.9,4.16,1.42,5.8,1.45,7.52.1,5.19-4.08-.44-9.33-8.76-8.17-3.35.46-4.74,0-5.22-1.74-.36-1.32-3.29-3-6.59-3.87-5.9-1.49-6-1.48-6,2.59,0,4.45-2.54,5.29-7.37,2.44-3.93-2.33-7.73-.52-7.73,3.66,0,3.9,3.92,5.82,10.95,5.37,5.39-.35,5.59,3.66.47,9.42l-3.68,4.15,2.92,4.19c4.32,6.21,3.95,16.52-.77,21.64l-3.7,4-2.43-3.22c-3.37-4.47-8-4.17-9.25.61-.83,3.12-.14,4.55,3.77,7.86,2.63,2.23,6.48,4.05,8.54,4.05,5.11,0,4.91,4-.4,8.08L673.71,495l6.42,1c3.54.55,6.42,1.58,6.42,2.29,0,2.73,4.45,11.22,5.88,11.22.83,0,2.57-1.43,3.86-3.18Z" transform="translate(0 0)"/>
    <path class="cls-6" d="M779.89,470.07c5.84-2.3,18.46-13,18.46-15.63,0-.83-3.48-4.66-7.74-8.52-9-8.1-18.72-21.76-21.24-29.75-1.32-4.16-7.68-11.29-25.61-28.67L719.9,364.36,713,366.1a60.45,60.45,0,0,1-10.26,1.79c-3.2.05-3.14.24,1.12,3.53l4.49,3.47,6.29-3.49c6.1-3.39,6.32-3.41,7.07-.68.44,1.59-.51,4.36-2.19,6.39s-2.57,4.2-2.07,5-1.08,2.36-3.49,3.54c-4.48,2.19-7.59,9.42-4.06,9.42,3.18,0,10.19-8.66,9.39-11.58-.42-1.5-.22-3,.44-3.43,2.73-1.6,2.56,5.2-.21,8.54-1.64,2-2.57,4.2-2.07,5s-1.08,2.35-3.49,3.54c-4.46,2.18-7.6,9.41-4.09,9.41s10.33-8.27,9.48-11.36c-.45-1.62-.28-3.26.38-3.64,1.84-1.08,2.83,4.28,1.28,6.91a5,5,0,0,0,0,4.85c1.53,2.76,0,8.07-2.84,9.71-1.2.71-.39,2.1,2.54,4.31,4.24,3.2,4.32,3.53,4.32,17.65,0,11.8.48,14.84,2.64,16.89,2.44,2.31,2.65,2.32,2.65.11,0-2.42,4.23-5.37,7.7-5.37,1,0,7.41,5.42,14.2,12s14,12.33,16,12.69,4.18.74,4.83.84,3.71-.8,6.8-2Z" transform="translate(0 0)"/>
    <path class="cls-6" d="M707,413c0-3.8-7.84-7.86-17.23-8.92-7.57-.85-7.7-.8-7.7,3,0,3.13,1.2,4.36,6.43,6.64,8.4,3.66,18.5,3.27,18.5-.71Z" transform="translate(0 0)"/>
    <path class="cls-6" d="M715.55,412.65c3.83-3.47,5.64-7.6,3.34-7.6-2.65,0-9.68,6.3-9.68,8.68,0,3.71,1.31,3.49,6.34-1.08Z" transform="translate(0 0)"/>
    <path class="cls-6" d="M707.4,401.4c.32-2.14-1-3.58-5-5.37-8.58-3.88-18.84-5.67-21.31-3.73-4.55,3.58-1.52,8.38,5.84,9.24a44.68,44.68,0,0,1,8.92,2C701.51,405.75,706.89,404.75,707.4,401.4Z" transform="translate(0 0)"/>
    <path class="cls-6" d="M707.4,389.91c.46-3.06-1.5-4.16-17.48-9.78-11.93-4.2-17.21-2.22-13.4,5,1.33,2.53,3.56,3.68,8.56,4.43A91.64,91.64,0,0,1,696.37,392c6.66,2.06,10.51,1.34,11-2.09Z" transform="translate(0 0)"/>
    <path class="cls-6" d="M715.4,379.14c2.41-2.44,4.38-5.33,4.38-6.41,0-3.5-9.52,2.7-10.73,7-1.46,5.15.9,4.94,6.35-.59Z" transform="translate(0 0)"/>
    <path class="cls-6" d="M707.4,378.42c.52-3.49-5.28-6.64-16.68-9.06-8.37-1.77-12.06-.77-11.43,3.12.34,2.12,3.13,3.68,11,6.14,12.65,3.95,16.46,3.9,17.07-.2Z" transform="translate(0 0)"/>
    <path class="cls-6" d="M718.55,362.19c14.61-6.5,15.87-22.91,2.1-27.21-5.73-1.79-9.38-.83-11.57,3-1.67,3-.55,8.36,1.74,8.36.78,0,1.41,1,1.41,2.22,0,5.69-22.31,8.28-31.46,3.64-3.21-1.63-4.61-5.86-1.94-5.86,2,0,3.38-4.31,2.36-7.36-1.39-4.15-5.57-5.59-11.64-4-13.7,3.58-13.32,19.68.63,26.5,11.43,5.61,36.5,6,48.37.66Z" transform="translate(0 0)"/>
    <path class="cls-6" d="M709.46,349.58c.85-.8.48-2-.94-3.15-3.11-2.44-2.94-6.07.47-10.23,2.56-3.12,2.88-7.79,3.76-54.92,1.51-81.21,7.55-142.3,15.51-156.95,3.17-5.83,2.73-5.86-5.46-.29-10.55,7.18-18.58,16.53-25.7,29.91C683.67,179.21,679,213.19,679,285.73c0,41.19.28,46.58,2.62,50.45,2.23,3.68,2.35,5,.79,9-1,2.54-1.48,5-1,5.41,3,2.84,24.85,2.08,28.08-1Z" transform="translate(0 0)"/>
    <path class="cls-6" d="M832.23,272.14c.46-.71-.56-4.25-2.25-7.87-2.64-5.66-3.7-6.6-7.47-6.6-11.78,0-30.73-5.26-50.26-14-11.28-5-15.17-6.18-16.53-4.9-3.45,3.27,2.29,11,11.17,15.1,7.88,3.62,29.91,8.07,40,8.07,5.83,0,6,.26,2.65,5l-2.44,3.53,6.59.17A65.76,65.76,0,0,1,824.78,272c6.47,1.56,6.53,1.56,7.45.16Z" transform="translate(0 0)"/>
    <path class="cls-7" d="M901.07,308.73c0-2.09-6.16-7.78-12.41-11.45-4.9-2.88-5.71-3-5.72-.62,0,3.57-3.19,12.52-4.44,12.52-.7,0-1.74-1.75-2.3-3.89s-3-6.35-5.29-9.36l-4.25-5.48-3.31,5.07c-3.09,4.74-8.44,9.37-10.81,9.37-.57,0-.68-2.49-.25-5.54.47-3.31.11-5.93-.9-6.52s-1.68-.35-1.68.42c0,1.78-7.43,10.21-9,10.21-.65,0-1.56-2.41-2-5.37s-1.24-7.61-1.74-10.37.57-.89,2.35,4.15l3.26,9.16,3.57-5.58c2-3.07,3.57-6.43,3.57-7.46s.67-1.48,1.48-1,1.92,4.16,2.49,8.2l1,7.34,3.92-4.3a64.28,64.28,0,0,0,5.63-7.05c1.66-2.68,1.75-2.68,5.07.13a34.91,34.91,0,0,1,6.34,8.36c1.63,3,3.18,5.28,3.45,5s.86-3.39,1.33-6.93.87-6.57.92-6.73c.23-.88,11.82,6.65,16.11,10.47,2.76,2.45,5.38,4.12,5.82,3.7s.81-4,.81-8c0-6.21-.66-7.87-4.46-11.26-4.36-3.9-4.48-3.92-6.09-1.07-2.09,3.7-4.56,3.76-4.56.1,0-2.67-8.25-12.93-10.39-12.93-.56,0-2.29,2.26-3.86,5s-3.25,5-3.74,5c-2.12,0-13.74-13-13.73-15.31,0-1.86.78-1.38,2.82,1.73a46.42,46.42,0,0,0,6.87,7.83c4.52,3.94,6.16,3,7.91-4.62.49-2.16,1.36-3.93,1.91-3.93,1.94,0,12.05,10.74,13.48,14.31l1.42,3.57,1.09-3.93c1.32-4.81,2.78-5,4.89-.6.88,1.83,5.24,5.65,9.69,8.47l8.08,5.14,1.62-5.17c.89-2.84,2.07-4.47,2.62-3.63.83,1.27-1.27,9.83-2.86,11.67-.24.28-2.85-1.25-5.82-3.39l-5.38-3.89,0,7a51.2,51.2,0,0,1-.94,10.18c-1,3.47-3.58,4.44-3.58,1.34Z" transform="translate(0 0)"/>
    <path class="cls-7" d="M860.79,253.2c-9.6-8-11.06-9.85-10.85-13.65l.23-4.05.62,3.91c.37,2.28,2.93,5.7,6.15,8.22l5.52,4.31,3.39-3.93c1.87-2.16,3.42-4.73,3.45-5.71.08-2.56.54-2.35,7,3.29,5.78,5,5.87,5,6.73,1.79a17.23,17.23,0,0,0-.38-7.57c-1.89-6.48-1.52-7.46,1.34-3.55a71.84,71.84,0,0,0,5.09,6.11c2.4,2.47,2.54,2.44,3.43-.71a32.87,32.87,0,0,0,1-7.36l0-4.07,5.2,5.9c4.87,5.52,5.32,5.72,6.8,3.09.88-1.55,1.6-5.27,1.62-8.27,0-3.88.42-4.86,1.41-3.38,1.64,2.46.5,9.18-2.54,14.9l-2.18,4.11L901,242.11c-3.67-5.7-4.89-5.61-7.24.55-2.22,5.82-3.67,6.26-5.83,1.79-1.4-2.9-1.67-2.55-2.67,3.54l-1.1,6.76-6.63-5.14-6.62-5.14-3,3.39c-1.64,1.86-3,4.19-3,5.17-.06,2.13-1.65,2.2-4.08.17Z" transform="translate(0 0)"/>
    <path class="cls-7" d="M946.21,223.33c-3.49-3.14-5.9-6.15-5.35-6.67s1.17-.68,1.38-.34,3.07,3.35,6.35,6.68c7.56,7.67,6,7.89-2.38.33Z" transform="translate(0 0)"/>
    <path class="cls-7" d="M832.43,211.57c-3.18-4.29-3-7.14.91-11.8,2.79-3.37,4.07-3.83,9-3.21,3.13.4,9.87,3.17,15,6.15,5.89,3.45,12,5.76,16.72,6.34,4.09.49,7.44.68,7.44.41a52.93,52.93,0,0,0-3.78-6.15c-4.93-7.4-4.76-8.2.8-3.76S891,205.43,906.27,205l7.46-.23-4.33-4.28c-6-6-4.19-6.52,2.5-.72,6.26,5.44,5.87,5.83-7.32,7.14a49.75,49.75,0,0,1-16.64-1.12c-7.5-1.9-7.79-1.87-6.37.64.82,1.45,2.14,2.63,2.94,2.63a1.56,1.56,0,0,1,1.46,1.63c0,2.76-16.19.34-23.93-3.58-17.67-9-19.9-9.73-24.11-8.4a9.32,9.32,0,0,0-5.49,5.06c-2.69,7.22,7.55,12.83,11.77,6.45,1.22-1.85.94-3.12-1.22-5.37-2.94-3.08-2.66-3.52,1.31-2.07,2.83,1,3.21,7.8.58,10.29-3,2.84-9.86,2-12.45-1.47Z" transform="translate(0 0)"/>
    <path class="cls-7" d="M902.05,193.75c-2.21-2.1-.47-2.61,9.44-2.79,12.25-.23,19.7-2.27,28.49-7.82,7-4.44,8.94-3.57,2.26,1-6.09,4.2-15.6,7.43-24.78,8.42-4.44.48-9.51,1.14-11.25,1.47s-3.62.19-4.16-.32Z" transform="translate(0 0)"/>
  </g>
  <g>
    <path class="cls-1" d="M795.13,559.49l5.08-2.94,2.18,2.94c2.9,3.92,10.92,3.88,16.24-.09l4.07-3,3.41,3c4.48,4,12.85,4,18.19,0,3.74-2.78,4.26-2.84,6.73-.72,1.48,1.27,5.8,2.7,9.61,3.2,6.87.89,7,.84,11-5.18,3.37-5.05,3.89-7.09,3.09-12-.53-3.25-1.1-8.47-1.27-11.61-.31-5.68-.27-5.71,8-8.59a113.17,113.17,0,0,0,11.76-4.75c3.3-1.77,12.41-12.48,12.41-14.59,0-.56-3.56-1.42-7.91-1.9-17.3-1.94-20.23-11.24-9-28.5,18.34-28.15,29.41-55.56,29.49-73,0-7.81.48-10.43,1.48-8.73,4.1,6.94-3.25,36-14.37,56.91l-4.48,8.41,4.28-1c2.35-.55,16.17-6.38,30.71-13,39.8-18,53.47-21.56,79.23-20.48,21.58.91,30.77,5.13,46,21.11,8.08,8.46,15.85,14.52,30.07,23.42,30.31,19,31.57,20.62,33,42.92,1.46,22.61.74,23.83-16.36,27.61-14.61,3.23-23.77,10-26.23,19.5-1.31,5.06,1.45,5.2,8.82.47l5.4-3.47,2.4,3.47c3.15,4.56,9.86,4.58,15.43,0l4.21-3.43,4.3,3.43c6.69,5.32,15.57,4,18.08-2.63.48-1.28,1.77-.87,4.38,1.4,4.88,4.24,17.4,6.06,18.75,2.72.51-1.27-.47-4.41-2.18-7-7.28-10.92-9.56-16.13-9.65-22.08-.14-8.26,2.33-12.25,11.73-19,11.43-8.17,15-18.71,6.27-18.71-5.36,0-10.77-4.74-14.22-12.47-7-15.7-5.63-33.31,4.88-62.6,10.69-29.75,11.88-35.23,11.92-55.13,0-16.09-.37-18.87-4-27.69A99.64,99.64,0,0,0,1158,318l-6-8,7.73-6.4c23.6-19.56,18.77-51.57-9.64-63.9-8.7-3.77-10.87-4.11-26.1-4a223.36,223.36,0,0,0-31,2.68,216.34,216.34,0,0,1-31,2.63c-14.85.06-17.37-.31-23.09-3.36-6-3.17-7-4.68-8.15-12a4.36,4.36,0,0,0-2.35-3.34c-2-.64-11.4,7.49-12.78,11.09-.68,1.78-1.24,1.66-3.25-.71a29.36,29.36,0,0,1-4.13-8c-2.36-7.16.54-12.52,9-16.54l6.53-3.12-3.85-2.39c-8-4.93-21.45-1.56-26.34,6.57-1.38,2.3-2.89,4.19-3.35,4.19s-3.08-2.19-5.83-4.87c-10.26-10-6.73-24.85,7-29.38,7.31-2.41,13.78-.57,15.13,4.31,2.06,7.45,8.45-2.34,7.3-11.18-.76-5.88-.65-6.08,3.42-6.08,5.66,0,17.69,7.42,21.42,13.2,4.32,6.72,4,17.3-.75,25.18l-3.74,6.19,4.89-1c7.16-1.44,14.13-5.89,17.65-11.28,3.72-5.71,4.12-16.82.82-22.82-3.2-5.81-2.83-6.73,1.9-4.77,8.05,3.34,12.35,7,15.58,13.34,2.9,5.68,3.06,7.1,1.49,13a37.39,37.39,0,0,1-4.8,10.68c-2.6,3.45-2.69,4-.62,4,3.86,0,11.91-3.65,14.77-6.69a29.89,29.89,0,0,0,4.68-8.42l2.06-5.62,2.36,4.29c3.33,6,9.82,11.5,17.73,14.9,8.51,3.64,12.06,3.85,7.61.44-3-2.3-8.53-18.53-6.86-20.11,1-.94,12.54,7.95,25.73,19.79,12.48,11.2,20.32,14.87,31.78,14.87,14.64,0,23.16-12.74,16.58-24.79-3.83-7-12.38-8-17.38-2-2.29,2.76-2.92,5-2.25,7.86.82,3.56.5,4-2.74,4-4.25,0-12.64-5.44-27.54-17.87-22.71-19-50.32-35-70.25-40.89-12.79-3.77-40.11-5.24-53.11-2.86-14.08,2.57-30.72,10.63-39.79,19.25-16.07,15.27-16.32,35.6-.68,54.11l4.48,5.31-3,4.71a20.4,20.4,0,0,0,.94,22.88c2.19,3,4.4,5.44,4.91,5.44s1.07-1.93,1.24-4.28c.44-5.95,3-9.93,7.37-11.51,3.95-1.42,6.5-.75,24.56,6.46,19,7.59,50.26,8.11,83.49,1.4,16.29-3.29,35.5-3.1,43.95.44,15.49,6.49,19.09,23.37,7.7,36.19-4.93,5.55-9.69,7.81-25.65,12.19-12.15,3.33-15,3.56-42.63,3.28-23.59-.23-32.07.22-41.7,2.23-10.45,2.18-16.88,2.4-47.58,1.63l-35.51-.9,3.94,3.26a60.36,60.36,0,0,0,6.8,4.9c2.68,1.54,2.59,1.75-1.39,3.22A41.35,41.35,0,0,1,954,320.64h-7.28l-1,6.19c-.54,3.41-.5,7.38.09,8.83.87,2.15.54,2.46-1.72,1.63-1.53-.55-5.8-1.65-9.48-2.43a57.57,57.57,0,0,1-11-3.54c-4-1.95-4.44-1.9-5.92.7-1.31,2.33-13.65,11.51-15.46,11.51-.29,0-.67-1.77-.84-3.93s-1.95-7.8-3.95-12.52-4.1-9.87-4.66-11.45c-.83-2.37-1.21-2.49-2.22-.71a30.5,30.5,0,0,0-2.17,7.15A33.89,33.89,0,0,1,884.3,332L881.12,337l-2-4.22c-2.17-4.53-5.79-9.23-7.09-9.23-.44,0-1.2,1.45-1.67,3.22-1,3.7-9.57,13.95-11.66,13.95-.77,0-1.4-2.9-1.4-6.44s-.68-6.44-1.51-6.44-1.51.92-1.51,2c0,2.72-7.32,10.84-9.77,10.84a6.31,6.31,0,0,0-3.83,2.15c-2.7,3.07-4.9,2.64-3.77-.74.53-1.59.19-5.29-.77-8.23l-2.25-7c-.36-1.11-3-.82-8.53,1-9,2.88-12,2.37-7.36-1.24,1.68-1.32,4.25-5.9,5.7-10.16s3.58-8.06,4.74-8.42c1.63-.51,1.55.12-.37,2.71-1.37,1.86-2.5,4.36-2.51,5.56s-1,4.05-2.29,6.33-2,4.37-1.75,4.65,3.7-1,7.58-2.88l7-3.38,0,3a52.19,52.19,0,0,0,1.89,9.76l1.86,6.72,4.8-2.2c4.9-2.26,9.55-10.29,9.55-16.53,0-3.08,1.76-2.6,2.49.67.21,1,1.31,4.57,2.46,8l2.07,6.27,3.29-4a33.33,33.33,0,0,0,5-9.48c1.68-5.28,4.3-7.55,4.3-3.72,0,2.77,7.54,12.67,9,11.82.7-.41,2.1-4.13,3.11-8.26,2.1-8.6,5.48-14.45,7.63-13.19a1.49,1.49,0,0,1,.7,2c-.43.65,1.31,6.24,3.86,12.42l5.68,13.83c.93,2.29,1.77,2,7.22-2.86,3.4-3,6.48-6.35,6.85-7.46.56-1.67,1.32-1.61,4.5.36,4.44,2.76,19.37,7.2,20.52,6.11.44-.41.88-4.33,1-8.72l.2-8,4.29.89a40.3,40.3,0,0,0,11-.06l6.75-1-6-4.12c-3.31-2.27-6.65-5.2-7.43-6.52s-3.77-2.6-7.1-2.88c-9-.77-24.95-9.71-24.95-14,0-.8,2.21.57,4.91,3,6,5.49,14.31,8.94,21.58,8.94h5.44l-3.36-4.48c-1.94-2.57-3.67-7.44-4.08-11.45-.65-6.4-1.32-7.42-8-12.06a77,77,0,0,1-11-9.28l-3.74-4.22-1.92,5c-1,2.75-2.33,5-2.85,5s-2.54-1.61-4.49-3.57-3.94-3.57-4.42-3.56-2.21,2.65-3.84,5.88l-3,5.88-2.29-3.39a52.1,52.1,0,0,0-6.63-7.32c-2.39-2.16-3.64-3.93-2.79-3.93s3.8,2.25,6.54,5l5,5,2-3.67a13.07,13.07,0,0,0,1.11-8.23c-.8-3.94-.68-4.17.83-1.7a36,36,0,0,0,6.48,6.71l4.74,3.84,3.27-6c3.26-6,3.28-6,4.76-2.41,2,4.76,16.31,16.5,28.51,23.37q2.82,1.59-2.38-10.95a27.68,27.68,0,0,1-1.68-8.87c0-4-1.14-5.72-6.2-9.57-7.3-5.55-9.66-9.5-11-18.47-.55-3.63-1.83-7.67-2.84-9-1.49-1.93-1.73-.85-1.33,5.89.26,4.55-.33,10.19-1.32,12.55l-1.8,4.3-1.39-3.58c-.77-2-4.16-5.39-7.53-7.6s-5.74-4.4-5.26-4.86,3.95,1.57,7.71,4.49c5.73,4.45,7,4.93,7.79,3,.94-2.3,0-12.32-1.8-19.32-.9-3.5-.82-3.48,3.49.83,3.18,3.18,4.94,7,6.3,13.59,1.73,8.41,2.61,9.81,10.38,16.64,4.67,4.1,8.73,7.22,9,6.94s.89-10.89,1.31-23.57c.81-24.31-.11-30.1-6-37.61l-3-3.86,4.73-5.1c6.17-6.65,9-12,10.23-19.27l1-5.92-5.34,5.06c-4.37,4.14-6.45,5.05-11.52,5.05s-7-.84-10.35-4.44c-4.05-4.32-11.23-8.47-18.14-10.49-2.55-.75-3.39-.42-3.39,1.3,0,1.27-1.41,4.92-3.14,8.11l-3.13,5.82-6.56-6.49c-4-4-8.8-7.07-12.35-8-9.08-2.38-9.57-2.15-9.57,4.62,0,10.26-4.38,12.17-12.26,5.35-6-5.2-11-6.33-22.39-5.08l-8.8,1,1.58,4c1.32,3.32,1,4.72-1.81,8.49-4.6,6.11-10.57,8.76-19.77,8.76-4.24,0-9.54.88-11.79,1.95s-7.81,2.3-12.39,2.74A65.35,65.35,0,0,0,780,192.58c-2.16.8-2.4.14-1.7-4.78,1.06-7.54-4.2-13.1-12.4-13.1-10.64,0-15.55,9.52-11.39,22.08.81,2.42,1.86,6.23,2.34,8.47s5.29,8.49,11.16,14.37c5.66,5.66,11,11.55,11.89,13.09s3.78,4,6.45,5.49l4.85,2.69-.64-5.19c-.7-5.71.54-6.61,3.58-2.58a26.41,26.41,0,0,0,6.13,5.17c3.6,2.22,4.15,2.26,4.15.34a22.52,22.52,0,0,1,1.63-6.25l1.63-4,2.83,5.48c1.56,3,6.62,9.86,11.25,15.22,9,10.4,14.45,22,11.63,24.69-1.15,1.08-4.25,1-10.66-.29-5-1-11.13-1.53-13.68-1.17-5.2.72-5.61,0-2.41-4,3.37-4.22,2.84-4.92-3.79-4.92-7.68,0-26.72-3.68-34-6.57-7.11-2.81-8.75-2.11-10.84,4.63-1,3-2.67,8.53-3.84,12.22l-2.12,6.7,7.7-.74a80.15,80.15,0,0,0,12.09-2.06c2.42-.72,4.62-1.11,4.88-.85s-.81,2.87-2.39,5.81l-2.89,5.36,4.8-1A44.74,44.74,0,0,0,785,284c3.85-1.86,4.16-1.73,7.19,3.15,3.74,6,6.72,5.75,7.39-.61.68-6.57,2.84-5.6,6.91,3.11,3.91,8.37,8,11.33,8.76,6.36.26-1.64,2.37-4.33,4.68-6,4.68-3.3,8.21-2.31,10.23,2.87,2.1,5.36-2.57,10.89-16.16,19.13q-40.82,24.74-47.55,67.81c-4.07,25.94,8.65,52.74,34.17,72,12.22,9.22,31.62,18.94,30.39,15.23-5.24-15.76-5.07-45.82.29-50.89.8-.76.53,2.37-.61,7-4.26,17.12-2.41,30.76,8.49,62.72,9.86,28.92,8.5,41.27-5.46,49.44-4.48,2.62-7.36,3-19.41,2.91-13.08-.16-14.5.1-18.7,3.45s-9.35,13.89-9.35,18.86c0,2.69,3,2.33,8.87-1.06Z" transform="translate(0 0)"/>
    <path class="cls-1" d="M1007.36,558.9l5.48-3.52,3.72,3.52c4.88,4.62,10.59,4.52,15.28-.27,2.05-2.09,3.88-3.54,4.08-3.22s1.11,1.87,2,3.44c1.16,2,3.54,3,7.84,3.3,5.18.36,6.58-.14,8.63-3.11l2.46-3.55,5.4,3.47c14.78,9.5,22.65-.47,16-20.32-3.36-10.09-1.51-15.76,9.31-28.6,4.57-5.42,8.31-11.2,8.31-12.85,0-2.63-.84-3-6.92-2.86-5.81.12-7.51-.51-10.57-3.88-5-5.48-4.69-11.75.88-18.72l4.44-5.56-7.88-5.35c-4.34-2.94-12.16-9.91-17.39-15.48-11.73-12.5-23.26-18.43-38.47-19.78l-10.19-.9v7.72c0,9.94,4.68,19.49,17.41,35.69,14.48,18.4,15.49,21.25,16.07,45.32l.5,20.34-4.19,4c-3.78,3.59-5.49,4-17.7,4.75-11.63.67-14.07,1.27-17.48,4.29-4.53,4-5.89,6.2-7.29,11.74-.81,3.23-.48,3.94,1.85,3.94,1.56,0,5.31-1.59,8.33-3.53Z" transform="translate(0 0)"/>
    <path class="cls-1" d="M696.29,506.31a12.74,12.74,0,0,0,2.35-6.28c0-2.57,1.15-3.26,6.8-4.06l6.81-1-4.54-3.61c-5.39-4.3-5.89-7.65-1.14-7.66s12.75-4.91,14-8.55a5.73,5.73,0,0,0-.81-5.11c-2.65-3-7.64-2.57-8.57.79-1,3.6-2.66,3.61-6.44,0-5.68-5.38-5.81-16.53-.26-23,2.61-3.06,2.59-3.26-.74-6.41-3.59-3.4-6.15-10.12-4.47-11.72.54-.51,3.37-.1,6.3.9,4.16,1.42,5.8,1.45,7.52.1,5.19-4.08-.44-9.33-8.76-8.17-3.35.46-4.74,0-5.22-1.74-.36-1.32-3.29-3-6.59-3.87-5.9-1.49-6-1.48-6,2.59,0,4.45-2.54,5.29-7.37,2.44-3.93-2.33-7.73-.52-7.73,3.66,0,3.9,3.92,5.82,10.95,5.37,5.39-.35,5.59,3.66.47,9.42l-3.68,4.15,2.92,4.19c4.32,6.21,3.95,16.52-.77,21.64l-3.7,4-2.43-3.22c-3.37-4.47-8-4.17-9.25.61-.83,3.12-.14,4.55,3.77,7.86,2.63,2.23,6.48,4.05,8.54,4.05,5.11,0,4.91,4-.4,8.08L673.71,495l6.42,1c3.54.55,6.42,1.58,6.42,2.29,0,2.73,4.45,11.22,5.88,11.22.83,0,2.57-1.43,3.86-3.18Z" transform="translate(0 0)"/>
    <path class="cls-1" d="M779.89,470.07c5.84-2.3,18.46-13,18.46-15.63,0-.83-3.48-4.66-7.74-8.52-9-8.1-18.72-21.76-21.24-29.75-1.32-4.16-7.68-11.29-25.61-28.67L719.9,364.36,713,366.1a60.45,60.45,0,0,1-10.26,1.79c-3.2.05-3.14.24,1.12,3.53l4.49,3.47,6.29-3.49c6.1-3.39,6.32-3.41,7.07-.68.44,1.59-.51,4.36-2.19,6.39s-2.57,4.2-2.07,5-1.08,2.36-3.49,3.54c-4.48,2.19-7.59,9.42-4.06,9.42,3.18,0,10.19-8.66,9.39-11.58-.42-1.5-.22-3,.44-3.43,2.73-1.6,2.56,5.2-.21,8.54-1.64,2-2.57,4.2-2.07,5s-1.08,2.35-3.49,3.54c-4.46,2.18-7.6,9.41-4.09,9.41s10.33-8.27,9.48-11.36c-.45-1.62-.28-3.26.38-3.64,1.84-1.08,2.83,4.28,1.28,6.91a5,5,0,0,0,0,4.85c1.53,2.76,0,8.07-2.84,9.71-1.2.71-.39,2.1,2.54,4.31,4.24,3.2,4.32,3.53,4.32,17.65,0,11.8.48,14.84,2.64,16.89,2.44,2.31,2.65,2.32,2.65.11,0-2.42,4.23-5.37,7.7-5.37,1,0,7.41,5.42,14.2,12s14,12.33,16,12.69,4.18.74,4.83.84,3.71-.8,6.8-2Z" transform="translate(0 0)"/>
    <path class="cls-1" d="M707,413c0-3.8-7.84-7.86-17.23-8.92-7.57-.85-7.7-.8-7.7,3,0,3.13,1.2,4.36,6.43,6.64,8.4,3.66,18.5,3.27,18.5-.71Z" transform="translate(0 0)"/>
    <path class="cls-1" d="M715.55,412.65c3.83-3.47,5.64-7.6,3.34-7.6-2.65,0-9.68,6.3-9.68,8.68,0,3.71,1.31,3.49,6.34-1.08Z" transform="translate(0 0)"/>
    <path class="cls-1" d="M707.4,401.4c.32-2.14-1-3.58-5-5.37-8.58-3.88-18.84-5.67-21.31-3.73-4.55,3.58-1.52,8.38,5.84,9.24a44.68,44.68,0,0,1,8.92,2C701.51,405.75,706.89,404.75,707.4,401.4Z" transform="translate(0 0)"/>
    <path class="cls-1" d="M707.4,389.91c.46-3.06-1.5-4.16-17.48-9.78-11.93-4.2-17.21-2.22-13.4,5,1.33,2.53,3.56,3.68,8.56,4.43A91.64,91.64,0,0,1,696.37,392c6.66,2.06,10.51,1.34,11-2.09Z" transform="translate(0 0)"/>
    <path class="cls-1" d="M715.4,379.14c2.41-2.44,4.38-5.33,4.38-6.41,0-3.5-9.52,2.7-10.73,7-1.46,5.15.9,4.94,6.35-.59Z" transform="translate(0 0)"/>
    <path class="cls-1" d="M707.4,378.42c.52-3.49-5.28-6.64-16.68-9.06-8.37-1.77-12.06-.77-11.43,3.12.34,2.12,3.13,3.68,11,6.14,12.65,3.95,16.46,3.9,17.07-.2Z" transform="translate(0 0)"/>
    <path class="cls-1" d="M718.55,362.19c14.61-6.5,15.87-22.91,2.1-27.21-5.73-1.79-9.38-.83-11.57,3-1.67,3-.55,8.36,1.74,8.36.78,0,1.41,1,1.41,2.22,0,5.69-22.31,8.28-31.46,3.64-3.21-1.63-4.61-5.86-1.94-5.86,2,0,3.38-4.31,2.36-7.36-1.39-4.15-5.57-5.59-11.64-4-13.7,3.58-13.32,19.68.63,26.5,11.43,5.61,36.5,6,48.37.66Z" transform="translate(0 0)"/>
    <path class="cls-1" d="M709.46,349.58c.85-.8.48-2-.94-3.15-3.11-2.44-2.94-6.07.47-10.23,2.56-3.12,2.88-7.79,3.76-54.92,1.51-81.21,7.55-142.3,15.51-156.95,3.17-5.83,2.73-5.86-5.46-.29-10.55,7.18-18.58,16.53-25.7,29.91C683.67,179.21,679,213.19,679,285.73c0,41.19.28,46.58,2.62,50.45,2.23,3.68,2.35,5,.79,9-1,2.54-1.48,5-1,5.41,3,2.84,24.85,2.08,28.08-1Z" transform="translate(0 0)"/>
    <path class="cls-1" d="M832.23,272.14c.46-.71-.56-4.25-2.25-7.87-2.64-5.66-3.7-6.6-7.47-6.6-11.78,0-30.73-5.26-50.26-14-11.28-5-15.17-6.18-16.53-4.9-3.45,3.27,2.29,11,11.17,15.1,7.88,3.62,29.91,8.07,40,8.07,5.83,0,6,.26,2.65,5l-2.44,3.53,6.59.17A65.76,65.76,0,0,1,824.78,272c6.47,1.56,6.53,1.56,7.45.16Z" transform="translate(0 0)"/>
    <path d="M901.07,308.73c0-2.09-6.16-7.78-12.41-11.45-4.9-2.88-5.71-3-5.72-.62,0,3.57-3.19,12.52-4.44,12.52-.7,0-1.74-1.75-2.3-3.89s-3-6.35-5.29-9.36l-4.25-5.48-3.31,5.07c-3.09,4.74-8.44,9.37-10.81,9.37-.57,0-.68-2.49-.25-5.54.47-3.31.11-5.93-.9-6.52s-1.68-.35-1.68.42c0,1.78-7.43,10.21-9,10.21-.65,0-1.56-2.41-2-5.37s-1.24-7.61-1.74-10.37.57-.89,2.35,4.15l3.26,9.16,3.57-5.58c2-3.07,3.57-6.43,3.57-7.46s.67-1.48,1.48-1,1.92,4.16,2.49,8.2l1,7.34,3.92-4.3a64.28,64.28,0,0,0,5.63-7.05c1.66-2.68,1.75-2.68,5.07.13a34.91,34.91,0,0,1,6.34,8.36c1.63,3,3.18,5.28,3.45,5s.86-3.39,1.33-6.93.87-6.57.92-6.73c.23-.88,11.82,6.65,16.11,10.47,2.76,2.45,5.38,4.12,5.82,3.7s.81-4,.81-8c0-6.21-.66-7.87-4.46-11.26-4.36-3.9-4.48-3.92-6.09-1.07-2.09,3.7-4.56,3.76-4.56.1,0-2.67-8.25-12.93-10.39-12.93-.56,0-2.29,2.26-3.86,5s-3.25,5-3.74,5c-2.12,0-13.74-13-13.73-15.31,0-1.86.78-1.38,2.82,1.73a46.42,46.42,0,0,0,6.87,7.83c4.52,3.94,6.16,3,7.91-4.62.49-2.16,1.36-3.93,1.91-3.93,1.94,0,12.05,10.74,13.48,14.31l1.42,3.57,1.09-3.93c1.32-4.81,2.78-5,4.89-.6.88,1.83,5.24,5.65,9.69,8.47l8.08,5.14,1.62-5.17c.89-2.84,2.07-4.47,2.62-3.63.83,1.27-1.27,9.83-2.86,11.67-.24.28-2.85-1.25-5.82-3.39l-5.38-3.89,0,7a51.2,51.2,0,0,1-.94,10.18c-1,3.47-3.58,4.44-3.58,1.34Z" transform="translate(0 0)"/>
    <path d="M860.79,253.2c-9.6-8-11.06-9.85-10.85-13.65l.23-4.05.62,3.91c.37,2.28,2.93,5.7,6.15,8.22l5.52,4.31,3.39-3.93c1.87-2.16,3.42-4.73,3.45-5.71.08-2.56.54-2.35,7,3.29,5.78,5,5.87,5,6.73,1.79a17.23,17.23,0,0,0-.38-7.57c-1.89-6.48-1.52-7.46,1.34-3.55a71.84,71.84,0,0,0,5.09,6.11c2.4,2.47,2.54,2.44,3.43-.71a32.87,32.87,0,0,0,1-7.36l0-4.07,5.2,5.9c4.87,5.52,5.32,5.72,6.8,3.09.88-1.55,1.6-5.27,1.62-8.27,0-3.88.42-4.86,1.41-3.38,1.64,2.46.5,9.18-2.54,14.9l-2.18,4.11L901,242.11c-3.67-5.7-4.89-5.61-7.24.55-2.22,5.82-3.67,6.26-5.83,1.79-1.4-2.9-1.67-2.55-2.67,3.54l-1.1,6.76-6.63-5.14-6.62-5.14-3,3.39c-1.64,1.86-3,4.19-3,5.17-.06,2.13-1.65,2.2-4.08.17Z" transform="translate(0 0)"/>
    <path d="M946.21,223.33c-3.49-3.14-5.9-6.15-5.35-6.67s1.17-.68,1.38-.34,3.07,3.35,6.35,6.68c7.56,7.67,6,7.89-2.38.33Z" transform="translate(0 0)"/>
    <path d="M832.43,211.57c-3.18-4.29-3-7.14.91-11.8,2.79-3.37,4.07-3.83,9-3.21,3.13.4,9.87,3.17,15,6.15,5.89,3.45,12,5.76,16.72,6.34,4.09.49,7.44.68,7.44.41a52.93,52.93,0,0,0-3.78-6.15c-4.93-7.4-4.76-8.2.8-3.76S891,205.43,906.27,205l7.46-.23-4.33-4.28c-6-6-4.19-6.52,2.5-.72,6.26,5.44,5.87,5.83-7.32,7.14a49.75,49.75,0,0,1-16.64-1.12c-7.5-1.9-7.79-1.87-6.37.64.82,1.45,2.14,2.63,2.94,2.63a1.56,1.56,0,0,1,1.46,1.63c0,2.76-16.19.34-23.93-3.58-17.67-9-19.9-9.73-24.11-8.4a9.32,9.32,0,0,0-5.49,5.06c-2.69,7.22,7.55,12.83,11.77,6.45,1.22-1.85.94-3.12-1.22-5.37-2.94-3.08-2.66-3.52,1.31-2.07,2.83,1,3.21,7.8.58,10.29-3,2.84-9.86,2-12.45-1.47Z" transform="translate(0 0)"/>
    <path d="M902.05,193.75c-2.21-2.1-.47-2.61,9.44-2.79,12.25-.23,19.7-2.27,28.49-7.82,7-4.44,8.94-3.57,2.26,1-6.09,4.2-15.6,7.43-24.78,8.42-4.44.48-9.51,1.14-11.25,1.47s-3.62.19-4.16-.32Z" transform="translate(0 0)"/>
  </g>
</svg>
