<?xml version="1.0" encoding="utf-8"?>
<!-- Generator: Adobe Illustrator 23.1.0, SVG Export Plug-In . SVG Version: 6.00 Build 0)  -->
<svg version="1.1" id="Layer_1" xmlns="http://www.w3.org/2000/svg" xmlns:xlink="http://www.w3.org/1999/xlink" x="0px" y="0px"
	 viewBox="0 0 1400 700" style="enable-background:new 0 0 1400 700;" xml:space="preserve">
<style type="text/css">
	.st0{fill:#CE1126;}
	.st1{fill:#FCD116;stroke:#BD9C08;stroke-width:3.5;}
	.st2{fill:#FCD116;stroke:#BD9C08;stroke-width:3.5;stroke-linejoin:round;}
	.st3{fill:#FCD116;stroke:#BD9C08;stroke-width:4.2;}
	.st4{fill:#FCD116;stroke:#BD9C08;stroke-width:2.8;}
	.st5{fill:#FCD116;stroke:#BD9C08;stroke-width:2.8;stroke-linecap:round;}
	.st6{fill:none;stroke:#BD9C08;stroke-width:2.8;stroke-linecap:round;}
	.st7{fill:none;stroke:#BD9C08;stroke-width:2.8;}
	.st8{fill:#BD9C08;}
	.st9{fill:#003F87;}
	.st10{fill:#FFFFFF;}
</style>
<rect y="0" class="st0" width="1400" height="700"/>
<g>
	<path class="st1" d="M815.2,329.7c20.4,5.5,51.4,4.1,65.2,20.3c-20.4-5.5-45.6,27.6-65.2,20.3c17.3,12.1-252.1,0-230.5,0
		c-20.4-5.5-51.4-4.1-65.2-20.3c20.4,5.5,45.6-27.6,65.2-20.3c-17.3-12.1-47.4-21.5-54.4-41.4c17.3,12.1,52.6-10.4,68.3,3.2
		c-12.1-17.3-37.5-36.3-36.9-57.5c12.1,17.3,53,8,63,26.4c-5.5-20.4-22-46.8-15-66.7c5.5,20.4,46.6,25.5,50.2,46.3
		c1.8-21.1-5.6-51.6,8.7-67.8c-1.8,21.1,35.3,39.9,31.3,60.7c8.9-19.2,13.9-50.1,31.3-60.7c-8.9,19.2,20.2,49.5,8.7,67.8
		c15-15,29.4-42.7,50.2-46.3c-15,15,1,53.1-15,66.7c19.2-8.9,41.8-30,63-26.4c-19.2,8.9-17.3,50.3-36.9,57.5
		c21.1-1.8,49.4-13.8,68.3-3.2C848.5,290.1,836.8,329.7,815.2,329.7z"/>
	<path class="st2" d="M602.8,350l-73.7-30.1l79.6-3.1l-59-53.5l75.8,24.3l-37.1-70.5l63,48.8L640.7,187l42.5,67.4l16.9-77.8
		l16.9,77.8l42.5-67.4l-10.8,78.9l62.9-48.8l-37.1,70.5l75.8-24.3l-58.9,53.5l79.5,3.1L797.2,350l73.7,30.1H529.1L602.8,350
		L602.8,350z"/>
	<circle class="st3" cx="700" cy="350" r="96.5"/>
	<path class="st4" d="M731.7,116.3l51.8,0.3c0.3-2.2-4.4-6.5-8.5-7.2c-13.1-2.1-22.9,2.2-38.8,2.3L731.7,116.3L731.7,116.3z"/>
	<path class="st4" d="M628.7,104.2c12.2,15.4,35.7,26,58.2,26.2c30.3,0.2,64-24.4,104.6-31.9l-132.8-2.7
		c-17.2-11.8-30.2-10.3-39.1-3l-25.4,0.8c-3.6,2,3,10.1,8.3,10.4L628.7,104.2z"/>
	<path class="st4" d="M688.7,95.4c-4.8-22.2-22.7-31.8-44.1-34.6c-24.8-3.3-81.7-6.6-119.6-17.5c16.4,16.1,50.7,24.1,74.5,27.8
		c25.2,3.8,49.8,9.5,69.2,24.2L688.7,95.4L688.7,95.4z"/>
	<path class="st5" d="M672.6,110.2c7.9,10.2,20.2,9.6,33.4,0.7c13.2-8.8,27.5-33.7,34.4-34.1c48.3-2.8,106.7-23.2,134.5-38.9
		c-35.3,5-70.3,10.7-106,10.8c-60.8,0.2-68,27.9-92.7,47.3"/>
	<path class="st6" d="M682.1,98.2c12.9-8.3,23.5-19,35.6-28c20.1-14.9,43.3-15.3,68.2-15.6c22.1-0.3,60.8-9.5,81.8-14.4"/>
	<path class="st7" d="M668.6,94.4c-3.8-19.9-22.4-25.8-45.9-29.4c-25.5-3.9-51.6-6-77.1-13.1c-6.3-1.7-12.2-4.8-18.3-7.2"/>
	<path class="st6" d="M676.7,123.6c24,1.8,41.8-5.5,62.3-15.6"/>
	<path class="st6" d="M594.1,97.6h30.2"/>
	<circle class="st8" cx="634.1" cy="94.4" r="3.8"/>
</g>
<rect y="385" class="st9" width="1400" height="315"/>
<path id="w" class="st10" d="M0,600c46.7,0,93.3,30,140,30s93.3-30,140-30s93.3,30,140,30s93.3-30,140-30c46.7,0,93.3,30,140,30
	c46.7,0,93.3-30,140-30c46.7,0,93.3,30,140,30s93.3-30,140-30c46.7,0,93.3,30,140,30c46.7,0,93.3-30,140-30v-50
	c-46.7,0-93.3,30-140,30c-46.7,0-93.3-30-140-30c-46.7,0-93.3,30-140,30s-93.3-30-140-30c-46.7,0-93.3,30-140,30
	c-46.7,0-93.3-30-140-30c-46.7,0-93.3,30-140,30s-93.3-30-140-30s-93.3,30-140,30S46.7,550,0,550V600z"/>
<g>
	<path class="st10" d="M0,500c46.7,0,93.3,30,140,30s93.3-30,140-30s93.3,30,140,30s93.3-30,140-30c46.7,0,93.3,30,140,30
		c46.7,0,93.3-30,140-30c46.7,0,93.3,30,140,30s93.3-30,140-30c46.7,0,93.3,30,140,30c46.7,0,93.3-30,140-30v-50
		c-46.7,0-93.3,30-140,30c-46.7,0-93.3-30-140-30c-46.7,0-93.3,30-140,30s-93.3-30-140-30c-46.7,0-93.3,30-140,30
		c-46.7,0-93.3-30-140-30c-46.7,0-93.3,30-140,30s-93.3-30-140-30s-93.3,30-140,30S46.7,450,0,450V500z"/>
</g>
<g>
	<path class="st10" d="M0,400c46.7,0,93.3,30,140,30s93.3-30,140-30s93.3,30,140,30s93.3-30,140-30c46.7,0,93.3,30,140,30
		c46.7,0,93.3-30,140-30c46.7,0,93.3,30,140,30s93.3-30,140-30c46.7,0,93.3,30,140,30c46.7,0,93.3-30,140-30v-50
		c-46.7,0-93.3,30-140,30c-46.7,0-93.3-30-140-30c-46.7,0-93.3,30-140,30s-93.3-30-140-30c-46.7,0-93.3,30-140,30
		c-46.7,0-93.3-30-140-30c-46.7,0-93.3,30-140,30s-93.3-30-140-30s-93.3,30-140,30S46.7,350,0,350V400z"/>
</g>
</svg>
