<?xml version="1.0" encoding="utf-8"?>
<!-- Generator: Adobe Illustrator 23.1.0, SVG Export Plug-In . SVG Version: 6.00 Build 0)  -->
<svg version="1.1" id="Layer_1" xmlns="http://www.w3.org/2000/svg" xmlns:xlink="http://www.w3.org/1999/xlink" x="0px" y="0px"
	 viewBox="0 0 1400 700" style="enable-background:new 0 0 1400 700;" xml:space="preserve">
<style type="text/css">
	.st0{fill:#0038A8;}
	.st1{fill:#CE1126;}
	.st2{fill:#FFFFFF;}
	.st3{fill:#FCD116;}
</style>
<rect y="0" class="st0" width="1400" height="700"/>
<rect y="350" class="st1" width="1400" height="350"/>
<path class="st2" d="M606.2,350L0,700V0"/>
<path class="st3" d="M35,60.6l21.1,18.2l24.4-13.4L69.7,91.1L90,110.1l-27.7-2.3L50.4,133L44,105.9l-27.6-3.5L40.2,88L35,60.6z"/>
<path class="st3" d="M509.3,313l0.6,27.8l26.3,9.1l-26.3,9.1l-0.6,27.8l-16.8-22.2l-26.7,8.1l15.9-22.9l-15.9-22.9l26.7,8.1
	L509.3,313z"/>
<path class="st3" d="M50.4,567l11.8,25.2l27.7-2.3l-20.3,19.1l10.8,25.7l-24.4-13.4L35,639.4l5.2-27.4l-23.8-14.4l27.6-3.5L50.4,567
	z"/>
<path class="st3" d="M217.8,202.2l-9.1,9.1l4.5,68.8c-1.5,0.1-3,0.2-4.6,0.4l-8.3-62.8l-7.4,7.4l11.2,56.1
	c-9.2,1.8-17.7,5.4-25.2,10.5l-31.8-47.6h-10.5l38.6,50.3c-1.2,0.9-2.4,1.9-3.5,2.9l-45.5-51.9h-12.9v12.9l51.9,45.5
	c-1,1.1-2,2.3-2.9,3.5L112,268.8v10.5l47.6,31.8c-5,7.5-8.6,16-10.5,25.2L93,325.2l-7.4,7.4l62.8,8.3c-0.2,1.5-0.3,3-0.4,4.6
	l-68.8-4.5L70,350l9.1,9.1l68.8-4.5c0.1,1.5,0.2,3.1,0.4,4.6l-62.8,8.3l7.4,7.4l56.1-11.2c1.8,9.2,5.4,17.7,10.5,25.2L112,420.7
	v10.5l50.3-38.6c0.9,1.2,1.9,2.4,2.9,3.5l-51.9,45.5v12.9h12.9l45.5-51.9c1.1,1,2.3,2,3.5,2.9l-38.6,50.3h10.5l31.8-47.6
	c7.5,5,16,8.7,25.2,10.5L193,474.8l7.4,7.4l8.3-62.8c1.5,0.2,3,0.3,4.6,0.4l-4.5,68.8l9.1,9.1l9.1-9.1l-4.5-68.8
	c1.5-0.1,3-0.2,4.6-0.4l8.3,62.8l7.4-7.4l-11.2-56.1c9.2-1.8,17.7-5.4,25.2-10.5l31.8,47.6H299l-38.6-50.3c1.2-0.9,2.4-1.9,3.5-2.9
	l45.5,51.9h12.9v-12.9l-51.9-45.5c1-1.1,2-2.3,2.9-3.5l50.3,38.6v-10.5L276,388.9c5-7.5,8.6-16,10.5-25.2l56.1,11.2l7.4-7.4
	l-62.8-8.3c0.2-1.5,0.3-3,0.4-4.6l68.8,4.5l9.1-9.1l-9.1-9.1l-68.8,4.5c-0.1-1.5-0.2-3-0.4-4.6l62.8-8.3l-7.4-7.4l-56.1,11.2
	c-1.8-9.2-5.4-17.7-10.5-25.2l47.6-31.8v-10.5l-50.3,38.6c-0.9-1.2-1.9-2.4-2.9-3.5l51.9-45.5v-12.9h-12.9l-45.5,51.9
	c-1.1-1-2.3-2-3.5-2.9l38.6-50.3h-10.5l-31.8,47.6c-7.5-5-16-8.6-25.2-10.5l11.2-56.1l-7.4-7.4l-8.3,62.8c-1.5-0.2-3-0.3-4.6-0.4
	l4.5-68.8L217.8,202.2z"/>
</svg>
