<?xml version="1.0" encoding="utf-8"?>
<!-- Generator: Adobe Illustrator 23.1.0, SVG Export Plug-In . SVG Version: 6.00 Build 0)  -->
<svg version="1.1" id="Layer_1" xmlns="http://www.w3.org/2000/svg" xmlns:xlink="http://www.w3.org/1999/xlink" x="0px" y="0px"
	 viewBox="0 0 1400 700" style="enable-background:new 0 0 1400 700;" xml:space="preserve">
<style type="text/css">
	.st0{fill:#D52B1E;}
	.st1{fill:#FFFFFF;}
</style>
<title>Flag of Canada (Pantone colours)</title>
<path class="st0" d="M0,0h350l14.4,14.4h671.1L1050,0h350v700h-350l-14.4-14.4H364.4L350,700H0V0z"/>
<path class="st1" d="M350,0h700v700H350V0z M713.1,646l-6.6-125.9c-0.4-7.6,5.6-14.1,13.2-14.5c1,0,2,0,3,0.2l125.3,22l-16.9-46.7
	c-1.4-3.8-0.2-8.1,2.9-10.6l137.2-111.1L940.3,345c-4.3-2-6.4-7-5-11.5l27.1-83.4l-79,16.8c-4.4,0.9-8.9-1.4-10.6-5.5l-15.3-36
	l-61.7,66.2c-3.6,3.8-9.6,4-13.4,0.4c-2.3-2.2-3.4-5.5-2.8-8.7l29.7-153.4l-47.7,27.6c-4.5,2.6-10.3,1.1-13-3.4
	c-0.1-0.2-0.2-0.4-0.3-0.6L700,58.3l-48.4,95.1c-2.3,4.7-8,6.6-12.7,4.2c-0.2-0.1-0.4-0.2-0.6-0.3l-47.7-27.6l29.7,153.4
	c1,5.1-2.4,10.1-7.5,11.1c-3.2,0.6-6.4-0.4-8.7-2.8l-61.7-66.2l-15.3,36c-1.8,4.1-6.2,6.5-10.6,5.5l-79-16.8l27.1,83.4
	c1.5,4.5-0.6,9.5-5,11.5l-30.9,14.4L566,470.6c3.2,2.6,4.3,6.8,2.9,10.6L552,527.9l125.3-22c7.5-1.3,14.7,3.8,16,11.3
	c0.2,1,0.2,2,0.2,3L686.9,646H713.1z"/>
</svg>
