<svg id="Layer_1" data-name="Layer 1" xmlns="http://www.w3.org/2000/svg" xmlns:xlink="http://www.w3.org/1999/xlink" width="428.42" height="333.34" viewBox="0 0 428.42 333.34">
  <defs>
    <style>
      .cls-1 {
        fill: none;
      }

      .cls-2 {
        clip-path: url(#clip-path);
      }

      .cls-3 {
        fill: #009e49;
      }

      .cls-4 {
        fill: #ce1126;
      }

      .cls-5 {
        stroke: #fcd116;
        stroke-width: 103.79px;
      }

      .cls-6 {
        stroke: #000;
        stroke-width: 74.13px;
      }

      .cls-7 {
        fill: #fff;
      }
    </style>
    <clipPath id="clip-path" transform="translate(55.49 43.2)">
      <rect class="cls-1" width="317.4" height="246.94"/>
    </clipPath>
  </defs>
  <g class="cls-2">
    <path class="cls-3" d="M344.16,0H-26.74V246.94" transform="translate(55.49 43.2)"/>
    <path class="cls-4" d="M-26.74,246.94h370.9V0" transform="translate(55.49 43.2)"/>
    <path class="cls-5" d="M-26.74,246.94,344.16,0" transform="translate(55.49 43.2)"/>
    <path class="cls-6" d="M-26.74,246.94,344.16,0" transform="translate(55.49 43.2)"/>
    <g id="star">
      <g id="c">
        <path id="t" class="cls-7" d="M210,47.79l9.36,33.28L236,76.39" transform="translate(55.49 43.2)"/>
        <path class="cls-7" d="M210,47.79l27.15,21.43L226.4,82.78" transform="translate(55.49 43.2)"/>
      </g>
      <g>
        <path class="cls-7" d="M250.65,49.42,221.84,68.6,231.44,83" transform="translate(55.49 43.2)"/>
        <path class="cls-7" d="M250.65,49.42l-12,32.43-16.25-6" transform="translate(55.49 43.2)"/>
      </g>
      <g>
        <path class="cls-7" d="M261.65,88.55,234.49,67.12,223.76,80.69" transform="translate(55.49 43.2)"/>
        <path class="cls-7" d="M261.65,88.55l-34.59-1.39.71-17.27" transform="translate(55.49 43.2)"/>
      </g>
      <g>
        <path class="cls-7" d="M227.79,111.1l12-32.43-16.25-6" transform="translate(55.49 43.2)"/>
        <path class="cls-7" d="M227.79,111.1l-9.36-33.29,16.66-4.66" transform="translate(55.49 43.2)"/>
      </g>
      <g>
        <path class="cls-7" d="M195.86,85.9l34.59,1.38L231.16,70" transform="translate(55.49 43.2)"/>
        <path class="cls-7" d="M195.86,85.9l28.8-19.17,9.6,14.38" transform="translate(55.49 43.2)"/>
      </g>
    </g>
    <g>
      <g>
        <path class="cls-7" d="M69,141.63l9.36,33.28,16.67-4.67" transform="translate(55.49 43.2)"/>
        <path class="cls-7" d="M69,141.63l27.16,21.43L85.46,176.62" transform="translate(55.49 43.2)"/>
      </g>
      <g>
        <path class="cls-7" d="M109.7,143.27,80.89,162.44l9.6,14.38" transform="translate(55.49 43.2)"/>
        <path class="cls-7" d="M109.7,143.27l-12,32.42-16.25-6" transform="translate(55.49 43.2)"/>
      </g>
      <g>
        <path class="cls-7" d="M120.7,182.39,93.53,161,82.8,174.53" transform="translate(55.49 43.2)"/>
        <path class="cls-7" d="M120.7,182.39,86.11,181l.71-17.27" transform="translate(55.49 43.2)"/>
      </g>
      <g>
        <path class="cls-7" d="M86.84,204.94l12-32.43-16.25-6" transform="translate(55.49 43.2)"/>
        <path class="cls-7" d="M86.84,204.94l-9.37-33.29L94.13,167" transform="translate(55.49 43.2)"/>
      </g>
      <g>
        <path class="cls-7" d="M54.9,179.74l34.59,1.41.71-17.27" transform="translate(55.49 43.2)"/>
        <path class="cls-7" d="M54.9,179.74l28.81-19.18L93.31,175" transform="translate(55.49 43.2)"/>
      </g>
    </g>
  </g>
</svg>
