<?xml version="1.0" encoding="utf-8"?>
<!-- Generator: Adobe Illustrator 23.1.0, SVG Export Plug-In . SVG Version: 6.00 Build 0)  -->
<svg version="1.1" id="Layer_1" xmlns="http://www.w3.org/2000/svg" xmlns:xlink="http://www.w3.org/1999/xlink" x="0px" y="0px"
	 viewBox="0 0 1400 700" style="enable-background:new 0 0 1400 700;" xml:space="preserve">
<style type="text/css">
	.st0{fill:#0071BC;}
	.st1{fill:#FFFFFF;stroke:#000000;stroke-width:2.7088;}
	.st2{fill:none;stroke:#000000;stroke-width:2.7088;}
	.st3{fill-rule:evenodd;clip-rule:evenodd;fill:#F7DF73;stroke:#000000;stroke-width:3.386;stroke-linejoin:round;}
	.st4{fill-rule:evenodd;clip-rule:evenodd;fill:#F7DF73;stroke:#000000;stroke-width:3.4006;stroke-linejoin:round;}
	.st5{fill:#8C1800;}
	.st6{fill:#8C1800;stroke:#8C1800;stroke-width:3.386;}
	.st7{fill:#8C1800;stroke:#8C1800;stroke-width:3.4006;}
	.st8{fill:none;stroke:#8C1800;stroke-width:4.4018;stroke-linecap:round;}
	.st9{fill:none;stroke:#8C1800;stroke-width:4.0632;stroke-linecap:round;}
	.st10{fill:none;stroke:#8C1800;stroke-width:3.7246;stroke-linecap:round;}
	.st11{fill:none;stroke:#8C1800;stroke-width:3.386;stroke-linecap:round;}
	.st12{fill:none;stroke:#8C1800;stroke-width:2.0316;stroke-linecap:round;}
	.st13{fill:none;stroke:#8C1800;stroke-width:4.4208;stroke-linecap:round;}
	.st14{fill:none;stroke:#8C1800;stroke-width:4.0808;stroke-linecap:round;}
	.st15{fill:none;stroke:#8C1800;stroke-width:3.7407;stroke-linecap:round;}
	.st16{fill:none;stroke:#8C1800;stroke-width:3.4006;stroke-linecap:round;}
	.st17{fill:none;stroke:#8C1800;stroke-width:2.0404;stroke-linecap:round;}
	.st18{fill:#217900;stroke:#000000;stroke-width:2.7088;stroke-linejoin:round;}
	.st19{fill:none;stroke:#6B18B5;stroke-width:2.7089;stroke-linejoin:round;}
	.st20{fill:none;stroke:#6B18B5;stroke-width:1.4;stroke-linejoin:round;}
	.st21{fill:#6B18B5;}
	.st22{fill:#FFD200;stroke:#EF8A10;stroke-width:2.7088;}
	.st23{fill:#FFD200;stroke:#EF8A10;stroke-width:3.386;}
	.st24{fill:#DE2010;stroke:#000000;stroke-width:3.3359;}
	.st25{fill:#DE2010;stroke:#000000;stroke-width:2.9868;}
	.st26{fill:#FFE300;}
	.st27{fill:#FFD200;stroke:#EF8A10;stroke-width:1.4112;}
	.st28{fill:#217900;stroke:#000000;stroke-width:2.7089;stroke-linejoin:round;}
	.st29{fill:#217900;stroke:#000000;stroke-width:3.386;stroke-linejoin:round;}
	.st30{fill:#8C8A8C;stroke:#000000;stroke-width:2.7089;}
	.st31{fill:none;stroke:#000000;stroke-width:2.7089;stroke-linecap:round;}
	.st32{fill:none;stroke:#000000;stroke-width:2.7089;}
	.st33{fill:#FFFFFF;stroke:#000000;stroke-width:2.8223;stroke-linejoin:round;}
</style>
<rect y="0" class="st0" width="1400" height="700"/>
<g>
	<g>
		<path class="st1" d="M780.9,553.8c0,0,24.7-26.1,48.4-21.1c7.1-27.5,33.9-29.7,33.9-29.7s-2.6-30.4,31.8-37
			c0.9-20.6,21.8-37.7,21.8-37.7s-4.3-32,17.6-39.4c-13.3-25.4,4.5-43.9,4.3-44.4c-0.2-0.5-22.5-40.1-2.6-51.5
			c-21.1-17.8-14.2-38-14.2-38s-23-5.9-14.7-33.5c-19-3.3-22.8-33.9-22.8-33.9s-29.2,5.9-32.8-19.5c-19.2,3.1-21.4-15.9-21.6-15.9
			s-38.2,10.2-45.8-18.5c-14.7,7.6-21.1-5.9-21.1-5.9s-21.1,10.4-33.7-9.7c-25.2,15.7-39.2-0.7-39.2-0.7s-33,21.8-43.9,5
			c-19.5,19.7-36.8,11.2-36.8,11.2s-14.7,26.1-38.5,19.5c-5.5,24.2-32.8,24.7-32.8,24.7s2.8,21.4-29.9,27.1
			c-4.3,25.2-21.4,29.4-21.4,29.4s1.7,24.4-13.8,32.3c5.5,13.8-8.8,30.6-8.8,30.6s15.2,19-5.5,40.3c19.9,5.2,5.5,39.6,5.5,39.6
			s27.5,12.3,10.2,35.1c19.7,6.4,13.5,22.1,13.8,31.3c12.6,5.7,23.7,2.8,18.3,28.2c38.7,4.3,20.4,25.6,20.4,25.6s18,0.7,10.9,15
			c33-0.7,37.7,24.7,37.7,24.7s30.6-8.1,34.7,3.8c4,11.9-13.3,91.9-13.3,91.9s-25.9,0-45.1-20.6c-45.1-1.2-35.1-30.9-35.8-30.9
			c-0.7,0-15,5.5-22.3-19.2c-30.1,6.2-29.2-19.2-29.4-19.5c-0.2-0.2-13.5-6.2-8.5-18.8c-31.1,2.8-28.7-27.5-28.7-27.5
			c-6.8-2.8-9.3-9.1-8.3-15.4c-4-1.4-31.6-1.9-17.3-38.2c-26.3-15.9-10-34.2-10-34.2s-36.3-18.8-8.3-40.3
			c-20.9-30.9,1.7-46.3,1.7-46.3s-29-29.4,0.5-50.3c-4.7-44.6,21.8-55.3,21.8-55.3s-14-36.3,24-51.5c2.4-36.8,29-37.7,29-37.7
			s0.7-29.2,42.5-26.3c8.1-26.1,36.6-20.9,36.6-20.9s8.8-31.6,47.5-16.4c19.7-38.5,48.9-18.8,48.9-18.8s18.5-12.1,27.8-8.3
			c11.8-20.2,36.8-0.8,53,3.1c5.9-2.3,26.8-18.1,42.9,1.9c21.4-14,39.6,11.2,39.6,11.2s29.4-15,43.2,19.2
			c62.4-5.7,53.4,35.1,53.4,35.1s49.1-11.2,38.5,37.7c44.6,3.1,40.1,32.5,40.1,32.5s28.2,21.4,15.9,40.6
			c25.2,1.2,15.9,25.4,15.9,25.4s19.2,7.4,3.3,37.3c36.8,29.4,7.1,58.6,6.9,58.4c-0.2-0.2,19.7,23.7,1.7,51.3
			c5.5,43.7-16.6,54.8-16.6,54.8s5.7,28.2-19,36.3c-0.5,33.2-31.8,37.3-31.8,37.3s8.3,14.4-22.8,29.6c-1.2,22.2-33.7,24-33.7,24
			s-3.1,40.8-44.4,29.9c-10,32.8-58.4,23-59.3,22.5C789.3,623.8,780.9,554,780.9,553.8L780.9,553.8z"/>
		<path class="st2" d="M838.6,588.1c0,0-3.7,7,11,13.2"/>
		<path class="st2" d="M867.9,571.5c0,0,16.3-3.9,27.3,0"/>
		<path class="st2" d="M916.7,530.3c0,0.3-2.3,7.3,10.7,17.5"/>
		<path class="st2" d="M926,512c0,0,9.6,7,25.6,6.8"/>
		<path class="st2" d="M829.3,532.6c0,0,0.6,18.6-9,27.3"/>
		<path class="st2" d="M861.4,503.8c0,0,15.8,3.9,28.7-2.5"/>
		<path class="st2" d="M962.6,476.5c0,0,3.4,4.8,20.9,3.9"/>
		<path class="st2" d="M894.4,465.5c0.6,0.3,20.6,6.8,33.2,0.8"/>
		<path class="st2" d="M934.4,388.9c0,0,0.8-1.1,7,20.6"/>
		<path class="st2" d="M949.9,327.7c0,0-0.8,11.6-10.1,16.6"/>
		<path class="st2" d="M1009.4,280.4c0,0-13.5,11-11,15.5"/>
		<path class="st2" d="M942,272.5c0,0,7,11.8-4.5,20"/>
		<path class="st2" d="M907.9,221.8c0,0,12.1-0.6,17.5,9.9"/>
		<path class="st2" d="M933.3,145.2c0,0.3,2.5,2.5-2.3,7.3"/>
		<path class="st2" d="M846.8,146.3c0,0,6.5,10.1,5.4,22.5"/>
		<path class="st2" d="M884.3,111.9c2.8-0.3,12.4-4.5,12.4-4.5"/>
		<path class="st2" d="M842.5,71.6c-0.3,0-3.7,12.7,2.5,17.2"/>
		<path class="st2" d="M827,129.4c0,13.5,10.7,10.1,3.4,23.1"/>
		<path class="st2" d="M800.9,118.1c-0.3,0-16.9,13-16.9,15.2"/>
		<path class="st2" d="M757.5,111.1c0,0,7,7,5.4,16.6"/>
		<path class="st2" d="M699.4,102.6c-0.3,0.6-5.9,12.7-9.9,14.9"/>
		<path class="st2" d="M648.1,102.9c0.3,0,5.6,11.3-1.4,19.4"/>
		<path class="st2" d="M556.8,149.7c0.3,0.6,14.4,2.8,14.4,2.8"/>
		<path class="st2" d="M521.6,182.3c0.3-0.3,17.2-5.4,17.2-5.4"/>
		<path class="st2" d="M494.3,203.5c0.6,0,11.8,2,14.7,0.6"/>
		<path class="st2" d="M486.4,213.9c0,0,3.7,2,0.6,20.9"/>
		<path class="st2" d="M431.5,164.3l6.8,10.1"/>
		<path class="st2" d="M408.4,216.4c0-0.3,6.8,10.1,15.8,12.1"/>
		<path class="st2" d="M461.6,269.4c0.3,0,11-2.3,12.7-3.4"/>
		<path class="st2" d="M456.8,307.7c0.3,0-0.3-7,8.5-11.8"/>
		<path class="st2" d="M445.3,325.2c0,0.3,8.2,10.4,13.8,11.8"/>
		<path class="st2" d="M440.5,344.7c0.8-0.3,9.6-7.9,19.7-7.3"/>
		<path class="st2" d="M437.7,370.8c0,0,0.3,8.7,26.2,6.5"/>
		<path class="st2" d="M440.2,401.6c0-0.3,7.6-17.5,23.1-23.9"/>
		<path class="st2" d="M461,423.5c0,0,2.3-7.3,15.2-12.4"/>
		<path class="st2" d="M475.4,452.6c0,0,9.3-7.6,12.7-8.7"/>
		<path class="st2" d="M487,475.1c0,0,5.6,5.9,19.7-4.2"/>
		<path class="st2" d="M419.1,479.9c1.7-0.3,22.3-5.1,29.3,5.6"/>
		<path class="st2" d="M427.2,496.8c0,0,21.7-2.8,24.5-0.6"/>
		<path class="st2" d="M504.7,501.3c0,0-2.8,5.9,23.9-3.9"/>
		<path class="st2" d="M538,512c-4.8,8.2,1.1,14.7-5.1,18.3"/>
		<path class="st2" d="M456.5,523.3c0.8-0.6,9.9-3.7,8.5-16.6"/>
		<path class="st2" d="M464.7,542.7c1.1-0.3,16.1-6.8,19.2-3.4"/>
		<path class="st2" d="M494,561.6c0,0,2-13.2,6.2-14.7"/>
		<path class="st2" d="M516.6,581.6c0,0,12.4-0.3,17.8-4.2"/>
		<path class="st2" d="M540.5,536.8c0.3,0.3,11.6,6.2,35.5,0.3"/>
		<path class="st2" d="M549.5,590.6c0,0,3.4,17.2,3.1,21.1"/>
		<path class="st2" d="M885.1,187.4l9.3,0"/>
		<path class="st2" d="M736.9,105.4c0,0-3.7,10.7-8.5,13.5"/>
		<path class="st2" d="M636.3,44.6c0.3,0.3,1.1,8.7-4.2,16.1"/>
		<path class="st2" d="M585.6,63.7c0,0.3,2.3,9.6-12.7,12.7"/>
	</g>
	<g>
		<g>
			<path class="st3" d="M786.4,593.2c0,0,140.7-39.8,183.2-212.5C945,558,791,614.2,791,614.2L786.4,593.2L786.4,593.2z"/>
			<path class="st4" d="M601.9,589.4c0,0-139.5-40.5-181.6-216.3c24.4,180.5,177,237.7,177,237.7L601.9,589.4L601.9,589.4z"/>
		</g>
		<g>
			<path class="st5" d="M800.8,603.9c4.4,0,15.1-11.9,21.3-13.3c6.2-1.4,6.9-7.6-0.2-7.8c-7.1-0.2-13.3,8-13.3,8s-6.2,5.3-12.6,6
				C789.6,597.5,793.7,605.5,800.8,603.9L800.8,603.9z"/>
			<path class="st5" d="M830.8,581.9c0,0-4.4-1.6,6.9-6c11.2-4.4,10.5-9.4,14.2-11.4c3.7-2.1,11.4-7.6,13.1-4.4
				c1.6,3.2-8.2,9.6-10.5,10.3c-2.3,0.7-13.5,11-16.7,11.9C834.5,583.3,832.2,582.9,830.8,581.9L830.8,581.9z"/>
			<path class="st5" d="M587.6,600.4c-4.3,0-15-12.1-21.1-13.5c-6.1-1.4-6.8-7.7,0.2-7.9c7-0.2,13.2,8.2,13.2,8.2s6.1,5.4,12.5,6.1
				C598.8,593.8,594.7,602,587.6,600.4L587.6,600.4z"/>
			<path class="st5" d="M557.9,578c0,0,4.3-1.6-6.8-6.1c-11.1-4.4-10.4-9.6-14.1-11.7c-3.6-2.1-11.3-7.7-12.9-4.4
				c-1.6,3.3,8.2,9.8,10.4,10.5c2.3,0.7,13.4,11.2,16.6,12.1C554.3,579.4,556.6,578.9,557.9,578L557.9,578z"/>
			<path class="st6" d="M881.9,543.5c0,0-14.7,8.5-12.6,10.5c2.1,2.1,15.1-8,15.3-8.2C884.9,545.5,890.1,539.1,881.9,543.5
				L881.9,543.5z"/>
			<path class="st7" d="M507.3,538.8c0,0,14.5,8.6,12.5,10.7c-2,2.1-15-8.2-15.2-8.4C504.4,540.9,499.2,534.4,507.3,538.8
				L507.3,538.8z"/>
		</g>
		<g>
			<path class="st8" d="M903.6,521.9c-9.6,10.8-9.6,10.5-9.6,10.5"/>
			<path class="st9" d="M918.1,504.3l-9.2,11.2"/>
			<path class="st10" d="M932.5,481.4l-10.3,16.5"/>
			<path class="st11" d="M944.6,458.1l-8.5,16.9"/>
			<path class="st11" d="M950.1,445.7l-2.7,6"/>
			<path class="st12" d="M956.3,429.4l-2.3,7.1"/>
			<path class="st13" d="M485.8,516.9c9.5,11,9.5,10.7,9.5,10.7"/>
			<path class="st14" d="M471.5,499l9.1,11.4"/>
			<path class="st15" d="M457.2,475.7l10.2,16.8"/>
			<path class="st16" d="M445.2,451.9l8.4,17.2"/>
			<path class="st16" d="M439.7,439.3l2.7,6.1"/>
			<path class="st17" d="M433.6,422.8l2.3,7.2"/>
		</g>
	</g>
	<g>
		<g>
			<path class="st18" d="M481,162c0.1,0,10.5,9,8.5,22.5c-1.9,13.5-9.7,32.3-8.2,46.3c1,5.6,0.6,15.7,0.6,15.7s-9.4-13.3-9.5-27.6
				c-0.1-14.2,10.2-27.8,10.2-38.3C482.6,170.2,480.7,161.8,481,162L481,162z"/>
			<path class="st18" d="M475.9,166.1c0,0-13.6,13-15.3,25.6c-1.3,6.5-1.8,36.7-1.9,50.2c-0.3,4.1-2,20.4-2.4,26.3
				c-0.4,5.9,10-10.1,10.6-23.1c-0.3-13.5-0.3-41.9,1-46.2c1.2-5.5,1-11.6,2.8-17.1C473.2,174,476,166.2,475.9,166.1L475.9,166.1z"
				/>
		</g>
		<g>
			<path class="st19" d="M387,252.4c0,0,9.2,12.7,10.9,20.1c1.7,7.3,4.7,21.7,8.7,27.6c4,5.9,26.9,38.7,28.1,52.4
				c0.2,9-9.4,24.3-23.8,24.5c-9-0.2-32.1-6.1-33-26c-0.9-19.8,7.1-20.3,8-32.3C386.7,306.7,387,252.7,387,252.4L387,252.4z"/>
			<path class="st20" d="M545.1,78.9c0,0-9.5,0.7-16.9,4.7c-5.7,3.5-15.3,8.5-22,17.9c-17.1,13.3-42.9,19.6-51,30.6
				c-4.9,7.5-4.6,25.7,7.6,33.4c7.8,4.5,30.6,11.4,41.7-5c11.1-16.4,4.5-21,9.9-31.8C523.5,103.9,545,79.1,545.1,78.9L545.1,78.9z"
				/>
			<path class="st20" d="M776.2,54.8c0,0-7.1-6.4-15.1-8.9c-6.5-1.6-17.3-0.9-28.4-2c-21.5-3-43.6-18.6-57.2-16.7
				c-8.8,1.8-21.6,14.6-18.7,28.7c2.2,8.7,11.9,26.3,31.5,22.8c19.5-3.5,19.4-7.7,30.9-11.3C747.3,51.7,776,54.9,776.2,54.8
				L776.2,54.8z"/>
			<path class="st20" d="M1005.5,277.6c1.6-3.7-1.4-10.6-3.4-18.6c-2-6.4-5.1-16.2-12.5-25c-8.8-19.8-7.3-47-16.1-57.5
				c-6.2-6.5-23.8-10.6-34.2-0.6c-6.2,6.5-18.4,27-5.1,41.7c13.3,14.7,19.1,9.2,28.2,17.1C984.1,249.2,994.7,274.9,1005.5,277.6
				L1005.5,277.6z"/>
			<path class="st20" d="M997.6,450.7c3-4.1,8.3-12.1,7.7-18.7c-0.5-5.2,2.4-21.1,2.7-28.1c2-21.6,15.5-39.1,11.8-57.9
				c-2.2-8.7-14.9-21.1-28.9-17.5c-8.6,2.6-27.7,13.1-23.3,32.5c4.4,19.4,10.7,19,14.8,30.4C994.4,414.8,986.8,442.7,997.6,450.7z"
				/>
		</g>
		<g>
			<path class="st21" d="M688.5,37.7c0-3-3.4-5.5-7.7-5.5c-4.2,0-7.7,2.5-7.7,5.5c0,3,3.4,5.5,7.7,5.5
				C685.1,43.3,688.5,40.8,688.5,37.7z"/>
			<path class="st21" d="M691.8,50.6c0-2.9-3.5-5.3-7.9-5.3c-4.4,0-7.9,2.4-7.9,5.3s3.5,5.3,7.9,5.3
				C688.3,55.9,691.8,53.5,691.8,50.6z"/>
			<path class="st21" d="M701.6,35.4c0,0-9,6.8-5.3,9.5c3.7,2.7,14-5.9,14-5.9S701.6,35.4,701.6,35.4z"/>
			<path class="st21" d="M966.4,190.1c0-1.9-0.9-3.7-2.4-4.7c-1.5-1-3.3-1-4.7,0c-1.5,1-2.4,2.7-2.4,4.7c0,1.9,0.9,3.7,2.4,4.7
				c1.5,1,3.3,1,4.7,0C965.5,193.8,966.4,192,966.4,190.1z"/>
			<path class="st21" d="M963,177.2c0-3.2-2.2-5.8-4.9-5.8c-2.7,0-4.9,2.6-4.9,5.8c0,3.2,2.2,5.8,4.9,5.8S963,180.4,963,177.2z"/>
			<path class="st21" d="M965.4,203.4c0-1.7-0.9-3-1.9-3s-1.9,1.3-1.9,3s0.9,3,1.9,3S965.4,205.1,965.4,203.4z"/>
			<path class="st21" d="M973.3,180c0-1.9-0.9-3.4-1.9-3.4s-1.9,1.5-1.9,3.4s0.9,3.4,1.9,3.4S973.3,181.9,973.3,180z"/>
			<path class="st21" d="M951.6,182.4c0-1.5-0.9-2.8-1.9-2.8s-1.9,1.3-1.9,2.8s0.9,2.8,1.9,2.8S951.6,183.9,951.6,182.4z"/>
			<path class="st21" d="M955.1,200.9c0-2.5-1.8-4.5-4.1-4.5c-2.3,0-4.1,2-4.1,4.5c0,2.5,1.8,4.5,4.1,4.5
				C953.2,205.4,955.1,203.4,955.1,200.9z"/>
			<path class="st21" d="M944.3,192.7c0-2.1-1.5-3.9-3.4-3.9c-1.9,0-3.4,1.7-3.4,3.9c0,2.1,1.5,3.9,3.4,3.9S944.3,194.8,944.3,192.7
				z"/>
			<path class="st21" d="M942.6,181.7c0-1.2-0.6-2.2-1.5-2.8c-0.9-0.6-2.1-0.6-3,0s-1.5,1.6-1.5,2.8c0,1.2,0.6,2.2,1.5,2.8
				c0.9,0.6,2.1,0.6,3,0C942,184,942.6,182.9,942.6,181.7z"/>
			<path class="st21" d="M991.6,237.5c-4.4-5.9-11.5-8.3-15.9-5.5c-4.3,2.8-4.2,9.8,0.2,15.7c4.4,5.9,11.5,8.3,15.9,5.5
				C996.1,250.4,996,243.3,991.6,237.5z"/>
			<path class="st21" d="M1004.2,345.5c0.9-7.2-2.6-13.5-7.8-14.1c-5.2-0.6-10.1,4.7-10.9,11.9c-0.9,7.2,2.6,13.5,7.8,14.1
				C998.4,358,1003.3,352.7,1004.2,345.5z"/>
			<path class="st21" d="M1006.9,408.4c1.5-7.1-1.5-13.7-6.6-14.8c-5.1-1.1-10.5,3.8-11.9,10.9c-1.5,7.1,1.5,13.7,6.6,14.8
				C1000,420.4,1005.4,415.5,1006.9,408.4L1006.9,408.4z"/>
			<path class="st21" d="M1019,349.6c0-2.8-1.9-5.2-4.3-5.2c-2.4,0-4.3,2.3-4.3,5.2s1.9,5.2,4.3,5.2
				C1017,354.7,1019,352.4,1019,349.6z"/>
			<path class="st21" d="M1008.4,361.4l-8.8,10c0,0-8.3,0.2-7.8,2.9c0.4,2.7,11.4,10.7,11.3,14c-0.1,3.2,7.3-0.8,7.3-0.8
				s5.9-17.9,5.9-18.1c0-0.1-0.3-12.5-3.5-12.2C1009.5,357.4,1008.6,361.2,1008.4,361.4L1008.4,361.4z"/>
			<path class="st21" d="M428.9,357.4c0-2.3-1.9-4.2-4.2-4.2c-2.3,0-4.2,1.9-4.2,4.2c0,2.3,1.9,4.2,4.2,4.2S428.9,359.7,428.9,357.4
				L428.9,357.4z"/>
			<path class="st21" d="M432.9,344.6c0-2.4-1.9-4.4-4.2-4.4c-2.3,0-4.2,2-4.2,4.4s1.9,4.4,4.2,4.4C431,349,432.9,347.1,432.9,344.6
				z"/>
			<path class="st21" d="M398.5,283.7c-1.6-3.5-4.8-5.5-7.3-4.4c-2.5,1.1-3.2,4.9-1.6,8.4c1.6,3.5,4.8,5.5,7.3,4.4
				C399.3,291,400,287.2,398.5,283.7z"/>
			<path class="st21" d="M408.9,321.6c-2.2-4.6-6.7-7.1-10-5.7c-3.4,1.4-4.4,6.3-2.2,10.9c2.2,4.6,6.7,7.1,10,5.7
				C410,331.1,411,326.2,408.9,321.6z"/>
			<path class="st21" d="M420,349.5c0.7-5.7-1.7-10.9-5.3-11.7c-3.6-0.8-7.1,3.2-7.8,9c-0.7,5.7,1.7,10.9,5.3,11.7
				C415.8,359.2,419.3,355.2,420,349.5z"/>
			<path class="st21" d="M402.1,353.6c2.2-5.3,1.4-11-1.9-12.7c-3.3-1.7-7.7,1.2-10,6.5c-2.2,5.3-1.4,11,1.9,12.7
				S399.9,358.9,402.1,353.6z"/>
			<path class="st21" d="M394,341.6c0-2.7-2.1-4.9-4.7-4.9c-2.6,0-4.7,2.2-4.7,4.9c0,2.7,2.1,4.9,4.7,4.9
				C391.9,346.5,394,344.3,394,341.6z"/>
			<path class="st21" d="M390.3,329.5c0-2.4-1.9-4.4-4.2-4.4c-2.3,0-4.2,2-4.2,4.4s1.9,4.4,4.2,4.4
				C388.4,333.9,390.3,331.9,390.3,329.5z"/>
			<path class="st21" d="M394.2,306.2c0-4.1-1.8-7.5-4.1-7.5c-2.3,0-4.1,3.3-4.1,7.5c0,4.1,1.8,7.5,4.1,7.5
				C392.4,313.6,394.2,310.3,394.2,306.2z"/>
			<path class="st21" d="M406.8,304.4c0.5-4.1-0.8-7.6-3.1-7.9c-2.2-0.3-4.5,2.8-5,6.9c-0.5,4.1,0.8,7.6,3.1,7.9
				C404,311.5,406.2,308.5,406.8,304.4z"/>
			<path class="st21" d="M496.1,126.1c1.7-5.8-0.1-11.6-3.8-13c-3.8-1.4-8.2,2.2-9.8,8c-1.7,5.8,0.1,11.6,3.8,13
				C490.1,135.4,494.5,131.8,496.1,126.1z"/>
			<path class="st21" d="M479.2,151.8c5-4.2,7.1-10.1,4.8-13.1c-2.4-3-8.3-2-13.3,2.3c-5,4.2-7.1,10.1-4.8,13.1
				C468.3,157,474.2,156,479.2,151.8z"/>
			<path class="st21" d="M469.3,137.5c4.9-3.6,7-8.7,4.7-11.2c-2.3-2.6-8.2-1.7-13.1,1.9c-4.9,3.6-7,8.7-4.7,11.2
				C458.5,142,464.3,141.1,469.3,137.5z"/>
			<path class="st21" d="M507.4,112.4c3.3-2.5,4.7-6,3.2-7.8c-1.6-1.8-5.5-1.2-8.9,1.4c-3.3,2.5-4.7,6-3.2,7.8
				C500.2,115.5,504.1,114.9,507.4,112.4z"/>
			<path class="st21" d="M487.5,136.7c2.3-3.5,2.4-7.3,0.3-8.4c-2.1-1.2-5.6,0.7-7.9,4.3s-2.4,7.3-0.3,8.4
				C481.7,142.1,485.3,140.2,487.5,136.7z"/>
			<path class="st21" d="M516.3,121.7c3.6-3,5-7,3.1-8.9c-1.9-1.9-6.3-1-9.8,2c-3.6,3-5,7-3.1,8.9
				C508.3,125.6,512.7,124.7,516.3,121.7z"/>
			<path class="st21" d="M464.4,156.8c3.3-0.2,5.9-1.8,5.6-3.7c-0.2-1.9-3.1-3.3-6.5-3.1c-3.3,0.2-5.9,1.8-5.6,3.7
				S461,156.9,464.4,156.8L464.4,156.8z"/>
			<path class="st21" d="M527.2,103c2.3-3.5,2.4-7.3,0.3-8.4c-2.1-1.2-5.6,0.7-7.9,4.3c-2.3,3.5-2.4,7.3-0.3,8.4
				C521.4,108.5,524.9,106.6,527.2,103z"/>
		</g>
		<g>
			<path class="st22" d="M774.5,123.7c0,0,17.6-8.1,22.6-23.2c5-15.1-15.2-15.3-17.9-10.5c-2.7,4.8,2.3,16.8,1,19.9
				C779,113.1,771.8,120.8,774.5,123.7L774.5,123.7z"/>
			<path class="st23" d="M618.5,129.2c0,0,11.4-15.7,8.5-31.3c-3-15.7-20.7-5.9-20.7-0.4c0,5.5,10.2,13.5,10.6,16.9
				C617.2,117.8,614.7,128,618.5,129.2L618.5,129.2z"/>
			<path class="st23" d="M587.6,138.6c0,0,11.4-15.7,8.5-31.3s-20.7-5.9-20.7-0.4c0,5.5,10.2,13.5,10.6,16.9
				C586.4,127.1,583.8,137.3,587.6,138.6L587.6,138.6z"/>
			<path class="st23" d="M553.3,149.1c0,0,11.4-15.7,8.5-31.3c-3-15.7-20.7-5.9-20.7-0.4c0,5.5,10.2,13.5,10.6,16.9
				C552.1,137.7,549.5,147.9,553.3,149.1L553.3,149.1z"/>
			<path class="st23" d="M529.2,173.3c0,0,11.4-15.7,8.5-31.3s-20.7-5.9-20.7-0.4c0,5.5,10.2,13.5,10.6,16.9
				C527.9,161.8,525.4,172,529.2,173.3L529.2,173.3z"/>
			<path class="st23" d="M503.8,196.5c0,0,11.4-15.7,8.5-31.3c-3-15.7-20.7-5.9-20.7-0.4c0,5.5,10.2,13.5,10.6,16.9
				C502.5,185.1,500,195.3,503.8,196.5L503.8,196.5z"/>
			<path class="st22" d="M562.2,60.9c0,0-15.2,12-16.6,27.9c-1.4,15.9,18.4,11.3,19.9,6c1.5-5.3-6.1-15.8-5.6-19.2
				C560.3,72.3,565.5,63.2,562.2,60.9L562.2,60.9z"/>
			<path class="st22" d="M613,45.3c0,0-15.2,12-16.6,27.9c-1.4,15.9,18.4,11.3,19.9,6c1.5-5.3-6.1-15.8-5.6-19.2
				C611.1,56.6,616.3,47.5,613,45.3L613,45.3z"/>
			<path class="st22" d="M423.7,182.4c0,0,3.2,19.1,16.5,27.9c13.3,8.8,18.7-10.7,14.8-14.5c-3.9-3.8-16.8-2.2-19.5-4.3
				C432.8,189.5,427.3,180.5,423.7,182.4L423.7,182.4z"/>
			<path class="st22" d="M398.4,247.3c0,0,0.2,19.4,11.9,30.2c11.7,10.8,20.2-7.6,16.9-12c-3.3-4.4-16.2-4.8-18.6-7.3
				C406.2,255.7,402.2,246,398.4,247.3L398.4,247.3z"/>
			<path class="st22" d="M456.9,319.8c0,0-6.9-18.1-21.7-24.1c-14.8-6-16.3,14.2-11.6,17.2c4.6,3,16.9-1.2,20,0.3
				C446.6,314.7,453.7,322.3,456.9,319.8L456.9,319.8z"/>
			<path class="st22" d="M444.7,288.5c0,0,11.7-15.4,9.1-31.1c-2.7-15.7-20.6-6.3-20.7-0.8c-0.1,5.5,9.9,13.7,10.2,17.1
				C443.7,277,440.9,287.1,444.7,288.5L444.7,288.5z"/>
			<path class="st22" d="M810.5,139.4c0,0,17.6-8.1,22.6-23.2c5-15.1-15.2-15.3-17.9-10.5c-2.7,4.8,2.3,16.8,1,19.9
				C815,128.8,807.8,136.4,810.5,139.4L810.5,139.4z"/>
			<path class="st22" d="M863.8,165.9c0,0,10.4-16.4,6.4-31.8s-21.1-4.5-20.7,1c0.4,5.5,11,12.8,11.7,16.2
				C861.7,154.6,859.9,164.9,863.8,165.9L863.8,165.9z"/>
			<path class="st22" d="M1009,316.8c0,0-6.9-18.1-21.7-24.1c-14.8-6-16.2,14.2-11.6,17.2c4.6,3,16.9-1.2,20,0.3
				C998.7,311.6,1005.9,319.3,1009,316.8L1009,316.8z"/>
			<path class="st22" d="M938,328c0,0,0.4-19.4,12.3-30c11.8-10.7,20.1,7.9,16.8,12.2c-3.3,4.4-16.3,4.6-18.7,7.1
				C945.9,319.7,941.8,329.3,938,328L938,328z"/>
			<path class="st22" d="M926.6,122.5c0,0-18.1-6.9-32.4,0.1c-14.3,7-0.2,21.6,5.1,20.1c5.3-1.5,10.4-13.4,13.5-14.7
				C915.9,126.7,926.3,126.5,926.6,122.5L926.6,122.5z"/>
			<path class="st22" d="M885.1,87.8c0,0-18.1-6.9-32.4,0.1c-14.3,7-0.2,21.6,5.1,20.1c5.3-1.5,10.4-13.4,13.5-14.7
				C874.4,92,884.9,91.8,885.1,87.8L885.1,87.8z"/>
			<path class="st22" d="M823.2,54.7c0,0-15.4,11.8-16.9,27.7c-1.6,15.9,18.2,11.5,19.8,6.2c1.5-5.3-5.9-15.9-5.4-19.2
				C821.2,66,826.5,57,823.2,54.7L823.2,54.7z"/>
			<path class="st22" d="M783,45c0,0-7,18.1-0.1,32.4s21.6,0.4,20.1-4.9c-1.4-5.3-13.3-10.5-14.6-13.6C787.1,55.7,787,45.2,783,45
				L783,45z"/>
			<path class="st22" d="M668.7,114.6c0,0,12.5-14.8,10.7-30.6c-1.8-15.8-20.3-7.4-20.7-1.9c-0.4,5.5,9.1,14.2,9.3,17.7
				C668.3,103.2,665,113.1,668.7,114.6L668.7,114.6z"/>
		</g>
		<g>
			<path class="st24" d="M982.3,326.4c-0.7-5.7-3.4-10.6-7.2-13.1c-3.7-2.4-7.9-1.9-10.9,1.4s-4.4,8.8-3.7,14.4
				c0.7,5.7,3.4,10.6,7.2,13.1c3.7,2.4,7.9,1.9,10.9-1.4C981.6,337.5,983,332,982.3,326.4L982.3,326.4z"/>
			<path class="st24" d="M979.9,297.7c-0.7-5.7-3.4-10.6-7.2-13.1c-3.7-2.4-7.9-1.9-10.9,1.4s-4.4,8.8-3.7,14.4
				c0.7,5.7,3.4,10.6,7.2,13.1c3.7,2.4,7.9,1.9,10.9-1.4C979.2,308.9,980.6,303.4,979.9,297.7L979.9,297.7z"/>
			<path class="st24" d="M974.1,267.1c-1.2-5.6-4.4-10.3-8.3-12.4c-3.9-2.1-8-1.2-10.7,2.3c-2.7,3.5-3.7,9.1-2.4,14.7
				c1.2,5.6,4.4,10.3,8.3,12.4c3.9,2.1,8,1.2,10.7-2.3C974.4,278.3,975.3,272.7,974.1,267.1L974.1,267.1z"/>
			<path class="st24" d="M963.5,235.2c-2.6-5.1-6.8-8.9-11.2-9.9c-4.3-1-8.1,0.9-9.8,5c-1.7,4.1-1.2,9.7,1.4,14.8
				c2.6,5.1,6.8,8.9,11.2,9.9c4.3,1,8.1-0.9,9.8-5C966.6,245.9,966.1,240.3,963.5,235.2z"/>
			<path class="st24" d="M952.2,209.6c-2.6-5.1-6.8-8.9-11.2-9.9c-4.3-1-8.1,0.9-9.8,5c-1.7,4.1-1.2,9.7,1.4,14.8
				c2.6,5.1,6.8,8.9,11.2,9.9c4.3,1,8.1-0.9,9.8-5C955.3,220.3,954.8,214.7,952.2,209.6z"/>
			<path class="st24" d="M936.1,183.8c-3-4.9-7.6-8.2-12-8.9c-4.4-0.6-8,1.6-9.3,5.8c-1.4,4.2-0.4,9.8,2.6,14.7
				c3,4.9,7.6,8.2,12,8.9s8-1.6,9.3-5.8C940.1,194.2,939.1,188.6,936.1,183.8z"/>
			<path class="st24" d="M918.2,159c-3.5-4.5-8.3-7.5-12.8-7.7c-4.4-0.2-7.8,2.3-8.7,6.7c-1,4.3,0.6,9.8,4,14.3
				c3.5,4.5,8.3,7.5,12.8,7.7c4.4,0.2,7.8-2.3,8.7-6.7C923.2,169,921.7,163.5,918.2,159z"/>
			<path class="st24" d="M896.8,135.8c-4.1-4-9.3-6.2-13.7-5.8c-4.4,0.4-7.3,3.4-7.7,7.9c-0.3,4.4,2,9.6,6.1,13.6
				c4.1,4,9.3,6.2,13.7,5.8s7.3-3.4,7.7-7.9C903.2,145,900.9,139.8,896.8,135.8L896.8,135.8z"/>
			<path class="st24" d="M872.8,114.5c-4.4-3.6-9.9-5.3-14.2-4.5c-4.4,0.8-7,4.1-6.9,8.5c0.1,4.4,2.9,9.4,7.3,13
				c4.4,3.6,9.9,5.3,14.2,4.5c4.4-0.8,7-4.1,6.9-8.5S877.2,118.1,872.8,114.5z"/>
			<path class="st24" d="M847.3,97.5c-5-2.8-10.6-3.6-14.8-2c-4.2,1.6-6.2,5.2-5.4,9.6c0.8,4.4,4.4,8.8,9.4,11.6
				c5,2.8,10.6,3.6,14.8,2c4.2-1.6,6.2-5.2,5.4-9.6C855.8,104.7,852.3,100.3,847.3,97.5z"/>
			<path class="st24" d="M818.8,82.4c-5.2-2.4-10.9-2.6-14.9-0.7c-4,1.9-5.7,5.7-4.5,10c1.2,4.3,5.2,8.4,10.4,10.7
				c5.2,2.4,10.9,2.6,14.9,0.7c4-1.9,5.7-5.7,4.5-10C827.9,88.8,824,84.7,818.8,82.4L818.8,82.4z"/>
			<path class="st24" d="M790.8,71.1c-5.4-2-11-1.9-14.9,0.3c-3.9,2.2-5.3,6.1-3.8,10.3c1.5,4.2,5.7,8,11.1,10
				c5.4,2,11,1.9,14.9-0.3c3.9-2.2,5.3-6.1,3.8-10.3C800.4,76.9,796.2,73.1,790.8,71.1z"/>
			<path class="st24" d="M762.4,62.2c-5.5-1.6-11.1-1-14.8,1.4c-3.7,2.5-4.8,6.5-3,10.6c1.8,4.1,6.3,7.5,11.8,9.1
				c5.5,1.6,11.1,1,14.8-1.4c3.7-2.5,4.8-6.5,3-10.6C772.4,67.2,767.9,63.8,762.4,62.2z"/>
			<path class="st24" d="M731.1,56.9c-5.7-0.7-11.2,0.7-14.4,3.7c-3.3,3-3.8,7.2-1.4,10.9c2.4,3.7,7.4,6.5,13.1,7.2
				c5.7,0.7,11.2-0.7,14.4-3.7c3.3-3,3.8-7.2,1.4-10.9C741.7,60.3,736.8,57.6,731.1,56.9z"/>
			<path class="st24" d="M700.2,55.1c-5.7-0.2-11.1,1.6-14.1,4.9c-3,3.3-3.2,7.5-0.4,11c2.7,3.5,7.9,5.8,13.6,6
				c5.7,0.2,11.1-1.6,14.1-4.9c3-3.3,3.2-7.5,0.4-11C711.1,57.7,705.9,55.3,700.2,55.1L700.2,55.1z"/>
			<path class="st24" d="M671.9,56.1c-5.7-0.2-11.1,1.6-14.1,4.9c-3,3.3-3.2,7.5-0.4,11c2.7,3.5,7.9,5.8,13.6,6
				c5.7,0.2,11.1-1.6,14.1-4.9c3-3.3,3.2-7.5,0.4-11C682.8,58.7,677.6,56.3,671.9,56.1L671.9,56.1z"/>
			<path class="st24" d="M638.7,60.1c-5.6,1.3-10.3,4.5-12.3,8.4c-2,4-1.1,8,2.4,10.7c3.5,2.7,9.2,3.5,14.7,2.3
				c5.6-1.3,10.3-4.5,12.3-8.4c2-4,1.1-8-2.4-10.7S644.3,58.8,638.7,60.1z"/>
			<path class="st24" d="M608.6,67.6c-5.4,1.7-9.8,5.3-11.5,9.4s-0.4,8.1,3.3,10.5c3.8,2.4,9.4,2.8,14.9,1c5.4-1.7,9.8-5.3,11.5-9.4
				s0.4-8.1-3.3-10.5C619.7,66.3,614,65.9,608.6,67.6z"/>
			<path class="st24" d="M581.1,79.4c-5.2,2.4-9.1,6.5-10.3,10.7c-1.2,4.3,0.5,8.1,4.5,10c4,1.9,9.7,1.6,14.9-0.7
				c5.2-2.4,9.1-6.5,10.3-10.7c1.2-4.3-0.5-8.1-4.5-10C591.9,76.8,586.3,77,581.1,79.4z"/>
			<path class="st24" d="M553.6,93.5c-5,2.8-8.6,7.2-9.4,11.6c-0.8,4.4,1.2,8,5.4,9.6c4.2,1.6,9.8,0.8,14.8-2
				c5-2.8,8.6-7.2,9.4-11.6c0.8-4.4-1.2-8-5.4-9.6S558.6,90.7,553.6,93.5z"/>
			<path class="st24" d="M527.6,111.1c-4.6,3.3-7.7,8.1-8.1,12.5c-0.3,4.4,2.1,7.8,6.4,8.9c4.3,1.1,9.8-0.3,14.5-3.6
				c4.6-3.3,7.7-8.1,8.1-12.5c0.3-4.4-2.1-7.8-6.4-8.9C537.8,106.4,532.3,107.8,527.6,111.1z"/>
			<path class="st24" d="M503.6,129.3c-4.4,3.7-7,8.7-7,13.2s2.7,7.6,7.1,8.4c4.4,0.7,9.8-1.1,14.1-4.8c4.4-3.7,7-8.7,7-13.2
				c0-4.4-2.7-7.6-7.1-8.4C513.3,123.8,507.9,125.6,503.6,129.3z"/>
			<path class="st24" d="M482.4,151.5c-4.1,4-6.4,9.2-6,13.6c0.3,4.4,3.3,7.4,7.7,7.8c4.4,0.4,9.7-1.8,13.7-5.8
				c4.1-4,6.4-9.2,6-13.6c-0.3-4.4-3.3-7.4-7.7-7.8C491.7,145.2,486.5,147.5,482.4,151.5z"/>
			<path class="st24" d="M464.1,176.1c-3.7,4.3-5.6,9.7-4.9,14.1c0.7,4.4,3.9,7.1,8.3,7.2c4.4,0,9.5-2.6,13.2-6.9
				c3.7-4.3,5.6-9.7,4.9-14.1c-0.7-4.4-3.9-7.1-8.3-7.2C472.9,169.1,467.8,171.8,464.1,176.1z"/>
			<path class="st24" d="M447.4,201.3c-3.2,4.7-4.5,10.2-3.3,14.5c1.2,4.3,4.6,6.7,9.1,6.2c4.4-0.4,9.1-3.6,12.4-8.3
				c3.2-4.7,4.5-10.2,3.3-14.5c-1.2-4.3-4.6-6.7-9.1-6.2C455.4,193.5,450.6,196.6,447.4,201.3z"/>
			<path class="st24" d="M433.5,229.9c-2.4,5.2-2.7,10.9-0.8,14.9c1.9,4,5.7,5.8,10,4.6c4.3-1.2,8.4-5.1,10.8-10.3
				c2.4-5.2,2.7-10.9,0.8-14.9c-1.9-4-5.7-5.8-10-4.6C440,220.8,435.9,224.7,433.5,229.9z"/>
			<path class="st24" d="M422.5,259.8c-1.9,5.4-1.7,11.1,0.6,14.9c2.3,3.8,6.2,5.2,10.4,3.7c4.2-1.6,7.9-5.8,9.8-11.2
				c1.9-5.4,1.7-11.1-0.6-14.9c-2.3-3.8-6.2-5.2-10.4-3.7C428.1,250.2,424.4,254.4,422.5,259.8z"/>
			<path class="st25" d="M412.9,316.4c-0.5,4.6,1.1,8.9,4.2,11.5c3.1,2.5,7.3,2.8,10.9,0.8c3.6-2,6.2-6.1,6.7-10.7
				c0.5-4.6-1.1-8.9-4.2-11.5c-3.1-2.5-7.3-2.8-10.9-0.8C416,307.8,413.4,311.9,412.9,316.4L412.9,316.4z"/>
			<path class="st24" d="M415.5,290c-1.3,5.6-0.4,11.2,2.3,14.7c2.7,3.5,6.8,4.5,10.7,2.4c4-2,7.2-6.7,8.4-12.3
				c1.3-5.6,0.4-11.2-2.3-14.7c-2.7-3.5-6.8-4.5-10.7-2.4C419.9,279.7,416.7,284.4,415.5,290z"/>
		</g>
		<g>
			<path class="st26" d="M959.5,276.5c3.5-3.7,6.7-4.8,10.8-3.4c-1.4-9.8-4.6-13.2-8.3-12C958.1,262.2,956.4,267.3,959.5,276.5
				L959.5,276.5z"/>
			<path class="st26" d="M964.8,306.1c3.8-3.5,7.1-4.3,11-2.6c-0.7-9.9-3.5-13.5-7.4-12.6C964.5,291.9,962.4,296.8,964.8,306.1
				L964.8,306.1z"/>
			<path class="st26" d="M952.2,249.4c2.4-4.5,5.3-6.3,9.6-6.1c-3.9-9.1-7.7-11.6-11.1-9.5C947.3,236,946.9,241.3,952.2,249.4
				L952.2,249.4z"/>
			<path class="st26" d="M939,222.4c2.4-4.5,5.3-6.3,9.6-6.1c-3.9-9.1-7.7-11.6-11.1-9.5C934.1,209,933.7,214.3,939,222.4L939,222.4
				z"/>
			<path class="st26" d="M907.3,173c1.7-4.8,4.2-7.1,8.5-7.5c-5.3-8.4-9.5-10.2-12.5-7.6C900.4,160.5,900.8,165.8,907.3,173
				L907.3,173z"/>
			<path class="st26" d="M886.6,151.4c1.5-4.9,3.9-7.2,8.2-7.8c-5.6-8.2-9.9-9.8-12.8-7.1C879.2,139.2,879.9,144.5,886.6,151.4
				L886.6,151.4z"/>
			<path class="st26" d="M843.2,114.7c-0.1-5.1,1.5-8.1,5.4-10c-7.9-6.1-12.4-6.3-14.3-2.8C832.3,105.4,834.6,110.2,843.2,114.7
				L843.2,114.7z"/>
			<path class="st26" d="M865.8,131.7c0.8-5,2.9-7.7,7-8.9c-6.7-7.3-11.1-8.3-13.6-5.2C856.7,120.6,858.1,125.8,865.8,131.7
				L865.8,131.7z"/>
			<path class="st26" d="M817.3,100.5c-0.6-5.1,0.7-8.2,4.3-10.5c-8.5-5.2-13-5-14.5-1.3C805.6,92.3,808.4,96.9,817.3,100.5
				L817.3,100.5z"/>
			<path class="st26" d="M790.9,88.9c-1.3-4.9-0.5-8.2,2.8-11c-9.1-3.9-13.6-3.1-14.6,0.8C778.2,82.6,781.6,86.7,790.9,88.9
				L790.9,88.9z"/>
			<path class="st26" d="M762.5,80.1c-1.7-4.8-1.2-8.2,1.8-11.2c-9.4-3.2-13.8-1.9-14.5,2C749.2,74.9,753,78.7,762.5,80.1
				L762.5,80.1z"/>
			<path class="st26" d="M734.6,74.7c-2.1-4.7-1.8-8,1-11.3c-9.6-2.5-13.9-0.9-14.3,3.1C721,70.4,725,74,734.6,74.7L734.6,74.7z"/>
			<path class="st26" d="M705,72.5c-2.6-4.4-2.6-7.8-0.1-11.3c-9.8-1.5-13.9,0.5-13.9,4.5C691,69.6,695.3,72.7,705,72.5L705,72.5z"
				/>
			<path class="st26" d="M647.1,76.8c-3.5-3.7-4.4-6.9-2.9-11c-9.9,0.9-13.4,3.9-12.4,7.7C632.8,77.4,637.8,79.4,647.1,76.8
				L647.1,76.8z"/>
			<path class="st26" d="M675.6,73.1c-3-4.1-3.5-7.5-1.4-11.3c-9.9-0.4-13.8,2-13.3,6C661.4,71.7,666,74.3,675.6,73.1L675.6,73.1z"
				/>
			<path class="st26" d="M619.1,82.9c-4-3.1-5.4-6.2-4.4-10.4c-9.6,2.4-12.7,5.8-11.1,9.4C605.1,85.5,610.3,86.7,619.1,82.9
				L619.1,82.9z"/>
			<path class="st26" d="M565.6,107.5c-4.6-2.3-6.5-5.1-6.3-9.4c-9,4.1-11.3,8.1-9.1,11.4C552.3,112.7,557.6,113,565.6,107.5
				L565.6,107.5z"/>
			<path class="st26" d="M591.4,94.3c-4.2-2.8-5.8-5.9-5.1-10.1c-9.5,3-12.2,6.6-10.5,10.2C577.6,97.9,582.8,98.8,591.4,94.3
				L591.4,94.3z"/>
			<path class="st26" d="M517.5,140.9c-4.9-1.3-7.4-3.6-8.1-7.9c-8,5.9-9.4,10.3-6.6,13C505.7,148.8,510.9,147.9,517.5,140.9
				L517.5,140.9z"/>
			<path class="st26" d="M540.5,122.2c-4.8-1.7-7.1-4.2-7.5-8.5c-8.4,5.3-10.2,9.5-7.6,12.5C528,129.1,533.3,128.6,540.5,122.2
				L540.5,122.2z"/>
			<path class="st26" d="M497.2,161c-5-0.8-7.7-3-8.8-7.1c-7.4,6.6-8.4,11.1-5.4,13.6C486.1,169.9,491.2,168.6,497.2,161L497.2,161z
				"/>
			<path class="st26" d="M478.9,184.7c-5.1-0.4-7.9-2.2-9.4-6.3c-6.8,7.3-7.4,11.8-4.1,14C468.7,194.6,473.7,192.8,478.9,184.7
				L478.9,184.7z"/>
			<path class="st26" d="M463.7,208.9c-5.1,0.4-8.2-1-10.3-4.8c-5.6,8.2-5.5,12.8-1.9,14.5C455.1,220.3,459.7,217.7,463.7,208.9
				L463.7,208.9z"/>
			<path class="st26" d="M450.3,234.7c-5,1.1-8.2,0.1-10.8-3.4c-4.4,8.9-3.8,13.4,0,14.6C443.2,247.1,447.5,244,450.3,234.7
				L450.3,234.7z"/>
			<path class="st26" d="M439.5,261.3c-4.8,1.8-8.1,1.4-11.2-1.6c-3,9.5-1.6,13.8,2.3,14.4C434.5,274.6,438.3,270.8,439.5,261.3
				L439.5,261.3z"/>
			<path class="st26" d="M432.3,290.8c-4.6,2.2-8,1.9-11.3-0.9c-2.3,9.7-0.7,13.9,3.2,14.2C428.2,304.5,431.7,300.5,432.3,290.8
				L432.3,290.8z"/>
			<path class="st26" d="M429.4,315.5c-4.4,2.3-7.7,2.6-11.3,0.8c-1.3,7.9,0.8,11,4.7,10.7C426.8,326.7,429.8,323.1,429.4,315.5
				L429.4,315.5z"/>
			<path class="st26" d="M927.2,198.4c1.7-4.8,4.3-7,8.6-7.4c-5.2-8.5-9.4-10.3-12.4-7.7C920.4,185.8,920.8,191.1,927.2,198.4
				L927.2,198.4z"/>
			<path class="st26" d="M968,336.2c3.8-3.5,7.1-4.3,11-2.6c-0.7-9.9-3.5-13.5-7.4-12.6C967.8,321.9,965.7,326.8,968,336.2
				L968,336.2z"/>
		</g>
		<path class="st27" d="M905.7,209.5c0,0,10.4-16.4,6.4-31.8s-21.1-4.5-20.7,1c0.4,5.5,11,12.8,11.7,16.2
			C903.6,198.2,901.8,208.5,905.7,209.5L905.7,209.5z"/>
		<g>
			<path class="st28" d="M929.1,174.9c-0.1,0-11.2,11.1-9.3,24.6c1.9,13.5,10.5,30.2,8.9,44.2c-1.6,14-4.1,23.3-4.1,23.3
				s13-14.9,13.2-29.1c0.1-14.2-8.9-33-8.9-43.5C928.9,183.9,929.4,174.6,929.1,174.9L929.1,174.9z"/>
			<path class="st28" d="M949.8,220.3c0,0-8.7,6.4-7.8,21.1c0.8,14.7,16.1,41.8,16.1,41.8s11.1,22.8,10.7,28.7
				c-0.4,5.9,2.1-5.7,1-18.7c-1.1-13-17.9-41.8-17.9-41.8s-3.6-5.9-3.3-15.7C948.9,226,949.9,220.4,949.8,220.3L949.8,220.3z"/>
			<path class="st29" d="M707.9,73.2c0,0,37.3,1.4,37.6,25.6c-0.1,3.7,0,8.2-1.3,19c7.4-4,12.3-15.1,11.4-22.2
				C755.6,71,722.2,54.3,707.9,73.2L707.9,73.2z"/>
			<path class="st29" d="M684.2,72.1c0,0,30.1-6.3,30.3,17.9c0.2,24.2-9.5,28-9.5,28s23.1-5,23.2-29.5
				C728.3,64,698.5,53.2,684.2,72.1L684.2,72.1z"/>
			<path class="st29" d="M976.3,348.9c0.7,10.8,11.3,21.2,7.1,40.1c-5.3,21.4-24,72.4-20.7,81.4c-5.5-7.6-4.6-14.8-5.1-25.4
				c-0.5-10.6,15.4-50,16.8-63.4C974.5,369.6,975.6,353.2,976.3,348.9L976.3,348.9z"/>
			<path class="st29" d="M976.3,349.1c0,0,17.3,21.9,16.4,39.2c-0.9,17.3-10.6,37.6-7.4,46.6c-5.5-7.6-6.9-12.4-7.4-23.1
				c-0.5-10.6,8.5-22.4,6.7-33.9C982.8,366.4,976.1,349.1,976.3,349.1L976.3,349.1z"/>
			<path class="st29" d="M409.9,353.9c-0.7,10.8-8.8,20.5-4.6,39.4c5.3,21.4,24.2,48.6,21.2,79.8c5.5-7.6,7.1-16.1,7.6-26.7
				c0.5-10.6-21-46.3-22.4-59.7C411.8,374.7,410.6,358.3,409.9,353.9L409.9,353.9z"/>
			<path class="st29" d="M409.9,354.2c0,0-16.8,21.2-15.9,38.5c0.2,11.5,21.4,59.7,18.2,68.7c5.5-7.6,7.1-6.7,6.9-18.2
				c-6.2-29.5-17.3-48.4-15.4-59.9C405.6,371.7,410.2,354.2,409.9,354.2L409.9,354.2z"/>
		</g>
	</g>
	<g>
		<path class="st30" d="M736.9,146.4c0,0,30,1.9,31.5,19.1c1.5,17.2-7.1,27.7-7.1,27.7s3.8,37.2-25.6,48.1
			c-31.5,3.8-80.9,0.8-80.9,0.8s-14.5,3.6-20.4-26.5c-5.9-30-7.6-51.3-7.6-51.3s2.9-16.8,24.2-17.9
			C672.2,145.5,736.7,146.8,736.9,146.4L736.9,146.4z"/>
		<path class="st31" d="M761.1,193c0,0-16.2,20.2-14.5,28.4"/>
		<path class="st30" d="M739.5,240.3c4,3.4,7.8,7.1,8.6,19.5c0.8,12.4,1.7,24.8,1.7,24.8l21,189.1l18.5,136.8l1.3,21.2
			c0,0-4.4,15.5-16.8,16.8c-9,18.9-58,24.4-62.8,24.2c-4.4-0.2-20-6.7-29.4-5.9c-9.5,0.8-25.8,7.1-33.2,6.1
			c-7.4-1.1-23.9-6.7-26.9-18.7c-20.6-6.5-23.9-22.3-23.9-22.3l22.3-158.2l21.6-200c0,0,2.5-26.7,13.2-30.7
			C665.7,242,723.3,244.1,739.5,240.3L739.5,240.3z"/>
		<path class="st32" d="M626,514l-4.4,139.9"/>
		<path class="st32" d="M761.9,532.5l12.4,115.3"/>
		<path class="st33" d="M697.5,160.2l41.9,128.9l135.5,0l-109.7,79.7l41.9,128.9l-109.7-79.7l-109.7,79.7l41.9-128.9L520,289.2
			l135.5,0L697.5,160.2z"/>
	</g>
</g>
</svg>
