<?xml version="1.0" encoding="utf-8"?>
<!-- Generator: Adobe Illustrator 23.1.0, SVG Export Plug-In . SVG Version: 6.00 Build 0)  -->
<svg version="1.1" id="Layer_1" xmlns="http://www.w3.org/2000/svg" xmlns:xlink="http://www.w3.org/1999/xlink" x="0px" y="0px"
	 viewBox="0 0 1400 700" style="enable-background:new 0 0 1400 700;" xml:space="preserve">
<style type="text/css">
	.st0{fill:#EA0437;}
	.st1{fill:#4189DD;}
	.st2{fill:#12AD2B;}
	.st3{fill:#FFC726;}
</style>
<rect y="0" class="st0" width="1400" height="700"/>
<path class="st1" d="M0,700h1400V350"/>
<path class="st2" d="M0,0h1400v350"/>
<path class="st3" d="M322.3,516.8c-15.1,4.2-23.8,15.9-23.6,27l74.5-0.3c0.7-11.9-9.1-22.9-24-27.2c72.9-1.5,136.3-28.8,147.8-46.4
	c-11.4-4.9-24.6,3-34,1.2c22.3-10.3,89.1-53.5,78.2-99.9c-8.4,25.7-34,47.1-44.9,52.8c25-37.9,59-77.3,29.5-107.9
	c1.5,17.7-11.3,37.2-16.9,38.7c14.5-40,28.3-90.3-3.1-123.4c4.1,12,2.5,45.8-3.2,47.3c-1.7-27.2-6.4-84.5-35.1-83.7
	c9.1,8.1,13.1,30.2,13.3,52.6c-6.5-15.3-14-26.8-29.8-38.1c-12.8-24.6-35.7-45.1-58.6-59.7c2.6,17.9,4.7,32.1,29.7,50.7
	c-13.1-0.8-26.1-25.6-40.1-26.3c-11.1-0.5-19.8,10.1-38,4c2,6,10.5,8.6,12.3,13.1c-3.9,2.7-13.1-0.4-20.8-4.4
	c10.5,14.4,26.9,22.8,40.8,20c16.5-3.2,34.2-1.5,51.1,8.1c-4.3,2.2-21.1,2.2-31.8,0.9c9.8,9.9,16.3,16.5,33.4,16.4
	c15.2-0.1,23.2-8.1,27.1-3.1c9.5,11.3,15.9,22.6,23.9,35.9c-17.6,1.9-12.3-19.9-31.9-31.1c-11,22.8,12.7,49.9,28.8,61.1
	c0.2,17.1,2.7,31.5,10,44.5c4.9,9.2,11.2,18.6,8.9,39.4c-9.7-7-19.1-30.8-15.6-49.6c-12.1,3.3-16.8,24.5-11.1,35.2
	c4.3,8.1,7.1,23.7,2.2,30.7c-4.8,6.5-5.3,5.8-5.2,19.7c0.2,8.3-4.5,18.2-12.1,25.1c1.6-5.9,3.4-16,1.6-22.3
	c-6,10.2-21,20.7-25.8,31.6c-4.7,11-5.8,29.9-28.3,34.3c-29,5.7-39,10.8-57.6,18.4c-2.1-14.2,4.1-43.7,16-42
	c11.6,2.1,46.6-12.1,34.1-41.6c-2.5,9.3-10.7,18.4-19.7,18.8c9.6-12.5,26.9-25.5,18.5-46.4c-4.7,8.9-12,19.6-23.1,25.6
	c11.9-22.8,1.4-29.7-12.8-10.9c-5.3,7.3-8.6,21.8-12,40.3c-5.6-15-5.2-34.8-11.8-50.8c-6.9-17.4,9.1-21.9,16.7-20.5
	c18.4,4.9,49.3,4.9,47-25.6c-8,10.3-21.9,13.5-37,9.8c16.9-12.4,30.3-35.6,11.4-47.8c-0.6,12.9-10.6,27.3-23.9,34
	c-3.1-10.9-3.1-22.4-0.4-35.1c-7.4,7.8-12.9,24.1-17.2,42.6c-0.3-18.3,3.1-31.5,5.7-41.3c3.9-14.4,13.6-5,28.4-4
	c14.3,0.8,33.9-7.1,30.1-26.4c-4.9,7.6-14.9,10.6-25.1,9.8c12.3-7.4,33.7-20.7,22-41c-4.9,7.7-6.5,14.3-20.8,16.7
	c3.7-8.6,4.4-20.8,15.4-25.6c-19.8-3.9-31.1,9-36.8,29.4c-2.3-14.1-5.1-19.3-5.7-29.6c10.7-11.9,11.8-35.1-11.3-40.3
	c-1.4,12-1,14.8,1.7,24.6c-10.9-6.5-26.2-10-36.4-0.9c6.9,7.5,17.6,14,34.1,5.9c-3.9,12.7-14,10.6-27.9,5.7
	c8.5,16,19.2,18.8,31.1,17c6.2,16.3,6.5,28.8-11.6,52.6c0.8-14.8-0.2-25.8-12-37.8c-10.1-9.9-18.3,0.4-2.5,22.3
	c-9.5-7-20.3-21.3-23.6-35.6c-3.1,17.6-0.3,38.4,9.4,50c-4.6,4.9-9.9-0.5-17.6-12.6c2.9,38.6,19.4,46.1,41.5,37.4
	c0.6,21.2,0.6,40.8,1.9,66.4c-12.9-18.6-29.3-32.4-38.4-35.9c-2.8,10.4,7.9,23.9,13.8,31.5c-9.1-1.9-29-17-29-17
	c-2,17.2,20.3,33.2,34.6,40.3c-16.9-0.7-24.3-7.1-35.3-17.6c0.2,47.7,51.7,39.4,61.4,32.1c1.3,23.5,3.1,50.7,4.3,74.2
	c-14.6-2.5-13.4-6.9-25.9-8.1c-34.6-1.3-62-41.5-71.1-71.1c-2.6,4.9-0.5,9.9-2.9,15.9c-5.6-14.5-12.8-33.2-22.4-41.9
	c2.4,8.5,2.7,17,1.9,32.8c-3.3-10.2-6.4-13.4-6.6-25.4c0.2-9.2,8.9-16,8.4-29c-0.4-9.5-9-30-10.3-45.9c-4.2,16.4-6.8,33.6-13.2,43.7
	c3.2-17.5,2.2-29.5,7.6-41.3c6.2-12.4,11.5-23.4,7.4-35.9c-4,4.8-2.6,9.2-12.6,20.9c-2.2-12.8,12.9-33.2,27.5-41.4
	c10.3-5.4,23.3-24.9,14.9-38.2c-9.7,7-14.1,16.4-27.8,32.5c9.8-38.2,35.2-48.2,65.6-48.4c6.7,0,20.3-2.5,24.1-11.4
	c-8.6,3.3-18.7,3.7-27.7,1.9c6.6-9.6,20.4-8.4,33.3-8.4c10.1,0,25.9-1.4,32.3-15.8c-12.3,5.3-31.6,6.5-43.7,2.7
	c19.3-10,49.4-11,64.9-24.1c-17.6-13.2-61.7,3.1-89.6,22.2c7.8-7.1,20.1-19.8,26.9-30c-15.2-7.3-53.8,35.4-67.1,60.8
	c-12.6,7.1-17.7,18.3-22.6,26.1c6.7-22.7,7.4-39.2,13-57.9c-43.2,14.9-25.3,94.8-34.7,113.9c1.1-21.1,0.2-48.2-8.5-62.2
	c-13.3,10.2-14.4,69.9-1.9,119.7c-4.5-13.3-13-25.8-15.8-42c-19.7,35.9,11.6,78.3,37.7,111.8c-19.7-10.2-39.1-32.3-51.9-50.8
	c3.5,64.3,70.7,77.7,81.1,93.5c-14.2-6.6-41.2-19.6-52.7-6c18.7,4.3,33.6,9.3,45.6,17.2C231.8,504.9,264.9,514.4,322.3,516.8
	L322.3,516.8z"/>
</svg>
