<svg id="Layer_1" data-name="Layer 1" xmlns="http://www.w3.org/2000/svg" width="493.89mm" height="246.94mm" viewBox="0 0 1400 700"><defs><style>.cls-1{fill:green;}.cls-2{fill:#ffe000;}.cls-3{fill:#802000;stroke:#7b3100;stroke-miterlimit:10;stroke-width:3.24px;}</style></defs><rect class="cls-1" width="1400" height="700"/><circle class="cls-2" cx="700" cy="350" r="145.83"/><circle class="cls-1" cx="745.47" cy="350" r="120"/><circle class="cls-2" cx="240.28" cy="204.17" r="152.78"/><path class="cls-3" d="M229.74,319.36h38.14s1.73-3.5-.38-5.24-10.31-2.14-8.09-8.32c4.55-12.72,5.19-8.8,8-39s4.24-77.57,4.24-77.57h-5.51a159.69,159.69,0,0,1-2.12,33.91c-3.18,19.18-4.13,20.88-7.63,35.61s-4,16-7.21,24.58-3.49,9-8.47,17-3.18,5-5.94,9.74c-1.37,2.39-3.07,1.75-4,3.49s-1.08,5.84-1.08,5.84Z" transform="translate(0 0)"/><path class="cls-1" d="M258.85,92.86c.31,5.93-.28,13.77-2.74,20.15-2.49,7.12-5.2,14.21-5.06,21.57-4,1.35-8-8.56-11.85-2.73,2.86,8.06,9.48,14.44,14,21.7.76,2.25,7.28,8.12,3.51,9.49-9.52-3.26-11.83-15.32-17.73-22.64-6.86-12.33-19.65-21-33.89-21.65-5.35.14-22.75-1.32-18.22,7.84,6.66,4.53,14.88,7.49,21.46,12.57,4.9.46,13.79,8.65,13.27,11.74-8.62-3.49-12.66-7.68-22-11.35-12.59-4.86-30-1.94-37,10.56-1.3,3.25-3.22,12.74.87,13.64,4.77-7.46,11.6-15.79,21.73-13.55,7.95.62-8.87,14.81-2.44,12,2-.9,6.75-4,10-4.32s5.1,2.13,7.57,2.46c5,.68,6.33,2.76,5.87,4-.55,1.42-2.12.21-7.16,1.8-2.52.8-3.84,3-6.77,4s-9.06,1.08-11.34.19c-8-3.48-21.1-2.87-23.59,7.14,0,4.41-3.92-.48-5.73,1.42-1.36,4.81-1.71,9.74-8.84,9.3-4.33,4.54-8.76,9.24-14.25,12.47,3.22,7.4,16-7.43,15.4-1.17-5.58,7.61,2.87,9.21,6.58,3.35,6.26-6.61,14-14.67,23.36-8,4.45,4.19,7-2.22,10.26-1.87,2,5.2,4.58.25,6.88-1.22,3.78-.47,2.71,4.71,7.19,1.52,8.93-5.91,19.92-.94,28.64-6.69,9.29-4.23,1.31,3.4-1.26,6.39-4.08,7.91-.54,18.3-9.39,23.21-3.55,9.43,4.2,21.86-3.71,28.84-1.15,4.38,10.18,3.87,13.35,5.67,5.57.22-.24-12.74,5.29-14.48,7.41,4.59,7.06-8.2,5.53-12.14.72-9,1.22-18.77,5.68-26.89,4.74-10,9.12,4.05,3.82,8-3,9.15-7.4,20.61-.55,29.12,2,.44,3.6,5.22,6.15,6.69s6-.37,6.68-4.72c3.28-13.11,1.63-27.2,6.31-40,3.31-3.95,7.86-.64,9.91,3,6.56,7.62,11.17,17.14,19.11,23.41,7.24,3.39,13.63,8.51,17,16,0,5.74,16.31,6.62,11.43.24-4.69-6.21-1.6-12.43,3.15-16.56,2.55.62,1.79-3.93-.2-2.13-3.19-.75-3.4-6.6,1-3.82,7.48,2.41-.58-5.41-3.28-5.65-6.33-3.92-13.59-8.43-16.7-15.24,8.23.08,16.77,4.52,25.18,1.77,6.75-3.46,13.58.29,15.94,6.23,5.21-.83,3-6.06,0-7.8,3.81-1.57,6.44-4.83,1.82-7.71-2.44-3.18,3.28-8.62-3.75-8.39.23-5.37-1.88-10.27-7.73-12.13-5.86-5-23.05,7.31-22.55-3.87-1.73-6.09,7-.81,9.42-3.85,2.52-6.42-12-5.79-7.2-10.76,3.12-2,17.8-4.91,6.29-7.06a18.15,18.15,0,0,1-15.19-2.43c-4.12,6.88-15.88-3.75-13.79,8.5-1.6,4.62-12.12,16.61-15,7.42,2.42-7.2,14.87-9.55,11-19.26-.59-6.06-5.62,1-8,.6-1.2-3.77,3.62-8.22,7-9.11,6.68,5.13,6.88-6.48,13.22-5.53,4.63-1-1.49-3-2.79-3.89,1.27-3.39,8.39-5.13,1.41-8.07-6.15-4.57-10.71,4.54-15.79,5-4.87-5.5,4.43-8.14,7-11,.14-2.16-5.42-.65-3.75-2.53,1.46-2.6,11.3-2.79,6.69-6.69a32.13,32.13,0,0,0-22.55,1.3c-4.2,1.36-5.43,10.85-9.05,10.45-1.7-4.22.55-12.55-5.27-13.77Zm32.81,92.67c5.29-.9.11,8-2.43,7.9.22-3.21-7.65-2.9-2.76-5.7A15.79,15.79,0,0,1,291.66,185.53Z" transform="translate(0 0)"/><path id="Star7" class="cls-2" d="M1050,533.33l9.64,30,29.45-11.15-17.43,26.23,27.08,16.07-31.37,2.73,4.32,31.19L1050,605.55l-21.7,22.83,4.32-31.19-31.37-2.73,27.08-16.07-17.42-26.23,29.45,11.15Z" transform="translate(0 0)"/><path class="cls-2" d="M875,256.25l9.64,30,29.45-11.15L896.66,301.3l27.08,16.08-31.37,2.72,4.32,31.2L875,328.47,853.3,351.3l4.32-31.2-31.37-2.72,27.08-16.08-17.42-26.22,29.45,11.15Z" transform="translate(0 0)"/><path class="cls-2" d="M1050,66.67l9.64,30,29.45-11.15-17.43,26.23,27.08,16.07-31.37,2.73,4.32,31.19L1050,138.89l-21.7,22.82,4.32-31.19-31.37-2.73,27.08-16.07-17.42-26.23,29.45,11.15Z" transform="translate(0 0)"/><path class="cls-2" d="M1205.55,209.58l9.65,30,29.44-11.15-17.42,26.23,27.08,16.07-31.37,2.73,4.32,31.19-21.7-22.82-21.69,22.82,4.32-31.19-31.37-2.73,27.08-16.07-17.43-26.23,29.45,11.15Z" transform="translate(0 0)"/><path id="Star5" class="cls-2" d="M1120,350l7.62,18.68,20.12,1.47-15.41,13,4.81,19.59L1120,392.13l-17.15,10.63,4.82-19.59-15.41-13,20.12-1.47Z" transform="translate(0 0)"/></svg>