<?xml version="1.0" encoding="utf-8"?>
<!-- Generator: Adobe Illustrator 23.1.0, SVG Export Plug-In . SVG Version: 6.00 Build 0)  -->
<svg version="1.1" id="Layer_1" xmlns="http://www.w3.org/2000/svg" xmlns:xlink="http://www.w3.org/1999/xlink" x="0px" y="0px"
	 viewBox="0 0 933.3 700" style="enable-background:new 0 0 933.3 700;" xml:space="preserve">
<style type="text/css">
	.st0{fill:#CE1126;}
	.st1{fill:#FCD116;}
	.st2{fill:#FFFFFF;}
</style>
<title>Flag of Papua New Guinea</title>
<rect x="0" y="0" width="933.3" height="700"/>
<path class="st0" d="M0,0h933.3v700L0,0z"/>
<path class="st1" d="M577.8,203.4c-6.9,8.9-23.2-9-42.7-9.4c-19.5-0.4-33.4,18.7-39.1,25.2c-5.7,6.5-24,40.7-23.6,44.4
	s11.4-10.2,15.5-12.6c0.4,4.9-4.5,10.6-3.3,12.2c1.2,1.6,14.2-9.8,18.7-10.2c1.2,3.3-2.4,6.5-1.2,11.4c1.6,1.6,9-8.1,13.8-10.2
	c0.8,3.7-4.5,10.6-1.6,15.1c2,0.4,14.2-13.8,18.3-15.5c4.1-1.6-2,13.4,0,14.7c3.7-2.4,15.1-15.5,18.7-17.1
	c3.7-1.6-0.4,16.7,1.2,16.7c4.5-3.3,15.9-18.7,17.1-21.2s-1.2,23.6,11.4,37.5s31.8,29.7,33.8,29.7c2.4-4.5-0.8-13.8,1.2-13.4
	c5.7,6.1,16.3,15.1,18.7,15.1s-1.6-9.8,1.6-9.8c6.5,6.1,25.2,30.1,61.9,41.1c-2.4-6.9-7.7-13-8.1-16.3c2.4,0.4,11,4.5,12.6,4.1
	c1.6-0.4-17.9-24.4-16.7-27.7c4.5-0.4,6.5,2.4,8.1,0.4c-2-3.3-19.1-22.4-19.1-26.9c0-4.5,5.3,0.8,6.9,0c1.6-0.8-6.5-17.9-4.9-19.9
	c1.6-2,19.5,11,24,11c4.5,0,1.2-15.9,3.3-16.7c2-0.8,17.1,8.5,20.4,8.5s2.8-6.9,4.1-6.1c1.2,0.8,36.6,36.2,24.4,77.8
	c-12.2,29.7-36.6,45.6-72.5,32.6c2,3.3,21.2,19.1,41.9,13.4s46-22,43.2-62.7c-2.8-40.7-16.3-46.4-18.3-52.5c-2-6.1,3.3,1.6,7.7,3.3
	c4.5,1.6-0.8-8.6-2-13c-1.2-4.5,13.4,9.4,17.1,10.6c3.7,1.2-8.5-33.4-12.2-35.8c-3.7-2.4,3.7,0.8,6.1,1.6
	c2.4,0.8-22.4-37.9-27.7-37.9c-5.3,0,4.5-2,7.3-2c2.9,0-28.5-25.2-33.8-25.2c-5.3,0,11.4-6.5,13-6.9c2.9,0.4-36.2-20.8-71.2,0.4
	c-2-1.6,16.5-14.5,17.1-19.9c0.2-1.4-6.1-4.5-6.5-6.1s9.8-6.5,10.2-10.2c-2.4-3.3-6.9-2-9.4-2.8c-0.6-3.1,8.6-10.6,7.7-13.8
	c-0.6-1.8-7.3-2.4-9-1.2c-1.6,1.2,4.3-8.5,3.3-11.4c-0.8-1.2-4.1-0.4-7.3,0.4c-2-0.4,10.6-17.9,8.1-20.4
	c-2.4-2.4-36.6,17.9-49.3,40.7c-12.6,22.8-2.8,41.1-4.5,48.9s-3.7,15.5-9,15.5s-17.5-8.1-21.6-12.2c-4.1-4.1-4.9-6.9-10.6-8.5
	s-18.7,3.3-23.6,3.7c-4.9,0.4-24-3.7-25.2-2.4c-1.2,1.2,18.7,8.5,23.2,11c4.5,2.4,4.9,5.7,8.1,7.7
	C557.1,181.8,587.6,190.8,577.8,203.4z M697.1,260.8c9.8,9.8,75.7,53.7,75.7,107.5s-48,52.1-61.9,50.5c15.5,13,74.1,10.6,74.1-50.5
	c0-53.7-75.7-107.5-85.5-112.4C689.8,251,687.4,251,697.1,260.8z"/>
<g>
	<path class="st2" d="M267.7,508.7l13.9-44.8l13.9,45.3l-36.7-27.7h45.5L267.7,508.7z"/>
	<path id="sl" class="st2" d="M233.8,216.9L206,306.5l73.3-54.5h-90.9l73.3,55.5L233.8,216.9z"/>
	<g>
		<path class="st2" d="M126.9,353.6l-27.8,89.6l73.3-54.5H81.4l73.3,55.5L126.9,353.6z"/>
	</g>
	<g>
		<path class="st2" d="M340.3,343.9l-27.8,89.6l73.3-54.5h-90.9l73.3,55.5L340.3,343.9z"/>
	</g>
	<g>
		<path class="st2" d="M233.8,538.4L206,627.9l73.3-54.5h-90.9l73.3,55.5L233.8,538.4z"/>
	</g>
</g>
</svg>
