<?xml version="1.0" encoding="utf-8"?>
<!-- Generator: Adobe Illustrator 23.1.0, SVG Export Plug-In . SVG Version: 6.00 Build 0)  -->
<svg version="1.1" id="Layer_1" xmlns="http://www.w3.org/2000/svg" xmlns:xlink="http://www.w3.org/1999/xlink" x="0px" y="0px"
	 viewBox="0 0 1400 700" style="enable-background:new 0 0 1400 700;" xml:space="preserve">
<style type="text/css">
	.st0{fill:#00247D;}
	.st1{fill:#FED100;}
	.st2{fill:#FFFFFF;}
</style>
<rect y="0" class="st0" width="1400" height="700"/>
<g>
	<path class="st1" d="M256.2,604.5c-13.9-0.1,131.2-77.3,252.6-176.2c159.2-129.6,502-337.2,602.8-370.9
		c10.5-3.5-21.6,17.9-25.8,24.9C978.2,209.7,1064,450,1198.5,570.8c40.4,30.9,38.4,32.6,113.3,35.6v7L256.2,604.5L256.2,604.5z"/>
	<path class="st1" d="M247.4,618.6c0,0-10.2,7.3-10.2,12.8c0,6,11.5,14,11.5,14L1290,656.9l19.1-12.8l-26.8-16.6L247.4,618.6
		L247.4,618.6z"/>
</g>
<g>
	<g transform="translate(342.9565,112.5812) scale(45)">
		<g id="star">
			<g id="arm" transform="translate(0,-0.324925)">
				<path class="st2" d="M301.7,76.5h-35V94L301.7,76.5z"/>
				<path class="st2" d="M301.7,76.5l-28.3,20.6l-10.3-14.2L301.7,76.5z"/>
			</g>
			<g transform="rotate(72)">
				<g transform="translate(0,-0.324925)">
					<path class="st2" d="M288.4,117.7l-10.8-33.3l-16.6,5.4L288.4,117.7z"/>
					<path class="st2" d="M288.4,117.7l-28.3-20.6l10.3-14.2L288.4,117.7z"/>
				</g>
			</g>
			<g transform="rotate(144)">
				<g transform="translate(0,-0.324925)">
					<path class="st2" d="M245.1,117.7l28.3-20.6l-10.3-14.2L245.1,117.7z"/>
					<path class="st2" d="M245.1,117.7l10.8-33.3l16.6,5.4L245.1,117.7z"/>
				</g>
			</g>
			<g transform="rotate(216)">
				<g transform="translate(0,-0.324925)">
					<path class="st2" d="M231.7,76.5l28.3,20.6l10.3-14.2L231.7,76.5z"/>
					<path class="st2" d="M231.7,76.5h35V94L231.7,76.5z"/>
				</g>
			</g>
			<g transform="rotate(288)">
				<g transform="translate(0,-0.324925)">
					<path class="st2" d="M266.7,51.1l-10.8,33.3l16.6,5.4L266.7,51.1z"/>
					<path class="st2" d="M266.7,51.1l10.8,33.3l-16.6,5.4L266.7,51.1z"/>
				</g>
			</g>
		</g>
	</g>
	<g transform="translate(521.20459,267.53) scale(37.5)">
		<g>
			<g transform="translate(0,-0.324925)">
				<path class="st2" d="M434.5,198.9h-29.2v14.6L434.5,198.9z"/>
				<path class="st2" d="M434.5,198.9L411,216.1l-8.6-11.8L434.5,198.9z"/>
			</g>
			<g transform="rotate(72)">
				<g transform="translate(0,-0.324925)">
					<path class="st2" d="M423.4,233.2l-9-27.7l-13.9,4.5L423.4,233.2z"/>
					<path class="st2" d="M423.4,233.2l-23.6-17.1l8.6-11.8L423.4,233.2z"/>
				</g>
			</g>
			<g transform="rotate(144)">
				<g transform="translate(0,-0.324925)">
					<path class="st2" d="M387.4,233.2l23.6-17.1l-8.6-11.8L387.4,233.2z"/>
					<path class="st2" d="M387.4,233.2l9-27.7l13.9,4.5L387.4,233.2z"/>
				</g>
			</g>
			<g transform="rotate(216)">
				<g transform="translate(0,-0.324925)">
					<path class="st2" d="M376.2,198.9l23.6,17.1l8.6-11.8L376.2,198.9z"/>
					<path class="st2" d="M376.2,198.9h29.2v14.6L376.2,198.9z"/>
				</g>
			</g>
			<g transform="rotate(288)">
				<g transform="translate(0,-0.324925)">
					<path class="st2" d="M405.4,177.7l-9,27.7l13.9,4.5L405.4,177.7z"/>
					<path class="st2" d="M405.4,177.7l9,27.7l-13.9,4.5L405.4,177.7z"/>
				</g>
			</g>
		</g>
	</g>
	<g transform="translate(135,321.8075) scale(45)">
		<g>
			<g transform="translate(0,-0.324925)">
				<path class="st2" d="M140,239.2h-35v17.5L140,239.2z"/>
				<path class="st2" d="M140,239.2l-28.3,20.6l-10.3-14.2L140,239.2z"/>
			</g>
			<g transform="rotate(72)">
				<g transform="translate(0,-0.324925)">
					<path class="st2" d="M126.6,280.4l-10.8-33.3l-16.6,5.4L126.6,280.4z"/>
					<path class="st2" d="M126.6,280.4l-28.3-20.6l10.3-14.2L126.6,280.4z"/>
				</g>
			</g>
			<g transform="rotate(144)">
				<g transform="translate(0,-0.324925)">
					<path class="st2" d="M83.4,280.4l28.3-20.6l-10.3-14.2L83.4,280.4z"/>
					<path class="st2" d="M83.4,280.4l10.8-33.3l16.6,5.4L83.4,280.4z"/>
				</g>
			</g>
			<g transform="rotate(216)">
				<g transform="translate(0,-0.324925)">
					<path class="st2" d="M70,239.2l28.3,20.6l10.3-14.2L70,239.2z"/>
					<path class="st2" d="M70,239.2h35v17.5L70,239.2z"/>
				</g>
			</g>
			<g transform="rotate(288)">
				<g transform="translate(0,-0.324925)">
					<path class="st2" d="M105,213.8l-10.8,33.3l16.6,5.4L105,213.8z"/>
					<path class="st2" d="M105,213.8l10.8,33.3l-16.6,5.4L105,213.8z"/>
				</g>
			</g>
		</g>
	</g>
	<g transform=" translate(342.9565,652.5812) scale(52.5)">
		<g>
			<g transform="translate(0,-0.324925)">
				<path class="st2" d="M307.6,494.6h-40.8V515L307.6,494.6z"/>
				<path class="st2" d="M307.6,494.6l-33,24l-12-16.5L307.6,494.6z"/>
			</g>
			<g transform="rotate(72)">
				<g transform="translate(0,-0.324925)">
					<path class="st2" d="M292,542.6l-12.6-38.8l-19.4,6.3L292,542.6z"/>
					<path class="st2" d="M292,542.6l-33-24l12-16.5L292,542.6z"/>
				</g>
			</g>
			<g transform="rotate(144)">
				<g transform="translate(0,-0.324925)">
					<path class="st2" d="M241.5,542.6l33-24l-12-16.5L241.5,542.6z"/>
					<path class="st2" d="M241.5,542.6l12.6-38.8l19.4,6.3L241.5,542.6z"/>
				</g>
			</g>
			<g transform="rotate(216)">
				<g transform="translate(0,-0.324925)">
					<path class="st2" d="M225.9,494.6l33,24l12-16.5L225.9,494.6z"/>
					<path class="st2" d="M225.9,494.6h40.8V515L225.9,494.6z"/>
				</g>
			</g>
			<g transform="rotate(288)">
				<g transform="translate(0,-0.324925)">
					<path class="st2" d="M266.7,465l-12.6,38.8l19.4,6.3L266.7,465z"/>
					<path class="st2" d="M266.7,465l12.6,38.8l-19.4,6.3L266.7,465z"/>
				</g>
			</g>
		</g>
	</g>
</g>
</svg>
