<?xml version="1.0" encoding="utf-8"?>
<!-- Generator: Adobe Illustrator 23.1.0, SVG Export Plug-In . SVG Version: 6.00 Build 0)  -->
<svg version="1.1" id="Layer_1" xmlns="http://www.w3.org/2000/svg" xmlns:xlink="http://www.w3.org/1999/xlink" x="0px" y="0px"
	 viewBox="0 0 1050 700" style="enable-background:new 0 0 1050 700;" xml:space="preserve">
<style type="text/css">
	.st0{fill:#CE1126;}
	.st1{fill:#FFFFFF;}
	.st2{fill:#007A3D;}
</style>
<path class="st0" d="M0,0h1050v700H0V0z"/>
<path class="st1" d="M0,233.3h1050V700H0V233.3z"/>
<path d="M0,466.7h1050V700H0V466.7z"/>
<g transform="translate(-.997 -.59) scale(2.18978)">
	<path class="st2" d="M287,140.2c-0.7-0.3-1.4-0.9-1.6-1.2c-0.4-0.5-0.2-0.5,1.4-0.1c2.7,0.7,4.4,0.4,6.2-1l1.5-1.3l1.8,0.9
		c1,0.5,2,0.8,2.3,0.8c0.8-0.2,2.4-2.3,2.3-3c-0.1-0.9,0.7-0.7,1,0.3c0.7,1.9-0.3,4.1-2.2,4.6c-0.9,0.2-1.7,0.1-3.1-0.3
		c-1.7-0.6-2-0.6-2.8,0.1C291.9,141.3,289.3,141.4,287,140.2L287,140.2z M293.6,134c-0.7-0.8-1.4-4-1.2-4.8c0.2-0.7,0.5-0.8,1.1-0.6
		c1.1,0.3,1.3,1.1,1.2,3.6C294.6,134.3,294.3,134.8,293.6,134L293.6,134z M214.9,131.8c-0.2,1.5,2.7,5.3,4,6c-0.9,0.4-2,0.2-2.8,0.7
		c-4.6,4.6-21.4,21-24.5,24.9c9.1,0.2,19.2-0.1,27.7-0.5c0-6.2,5.9-6.5,9.8-8.8c2,3.2,7.1,2.9,7.7,7.7l0,20.6h-77.7
		c-1.4,6-6.8,10.6-14.4,8.7c2.3-2.5,6.3-3.3,7.7-6.7c1.2-7.4-2.4-12-4.7-16.2c3.8-1.4,4.4-1.7,8.3-4.4c-2.7,8.3,7.1,7.4,14.4,7.2
		c0.2-2.8,0.1-6.1-2.1-6.6c2.8-1,3.3-1.4,7.7-5.1v11.2l53.8-0.1c0-3.5,0.9-9.1-1.8-9.1c-2.6,0-0.1,7.2-2.2,7.2h-41.6l0-7.1
		c1.7-1.8,1.6-1.6,13.6-13.6C199,146.6,207.5,138.9,214.9,131.8L214.9,131.8z M318.8,131.5c2.9,1.6,5.2,3.7,8.8,4.6
		c-0.4,1.5-1.7,2.1-2.1,3.6v31.4c4,0.9,4.8-1.4,6.7-2.6c0.5,5,3.7,10,3.6,13.9h-17L318.8,131.5L318.8,131.5z M296.1,148.3l6.2-5.4
		v27.4l4.4,0l-0.1-30.7c1.8-1.8,5.3-4.4,6.2-6.3v49.1l-39,0c-0.6-10.2-0.7-20.7,11.2-18.5v-4.2c-0.4-0.7-1,0.2-1.2-0.8
		c1.9-1.9,2.5-2.4,7.6-6.8l0.1,18.1l4.5,0C296.1,170.3,296.1,149,296.1,148.3L296.1,148.3z M281.5,170c0.8,1.3,3.7,1.2,3.5-0.9
		C284.6,167.4,280.8,168,281.5,170z"/>
	<circle class="st2" cx="168.5" cy="188.2" r="2.4"/>
	<path class="st2" d="M242.1,131.5c2.9,1.6,5.2,3.7,8.8,4.6c-0.4,1.5-1.7,2.1-2.1,3.6v31.4c4,0.9,4.8-1.4,6.7-2.6
		c0.5,5,3.7,9.9,3.6,13.9h-17L242.1,131.5L242.1,131.5z"/>
</g>
</svg>
