<?xml version="1.0" encoding="utf-8"?>
<!-- Generator: Adobe Illustrator 23.1.0, SVG Export Plug-In . SVG Version: 6.00 Build 0)  -->
<svg version="1.1" id="Layer_1" xmlns="http://www.w3.org/2000/svg" xmlns:xlink="http://www.w3.org/1999/xlink" x="0px" y="0px"
	 viewBox="0 0 1330 700" style="enable-background:new 0 0 1330 700;" xml:space="preserve">
<style type="text/css">
	.st0{fill:#B22234;}
	.st1{stroke:#FFFFFF;stroke-width:53.8461;stroke-miterlimit:10;}
	.st2{fill:#3C3B6E;}
	.st3{fill:#FFFFFF;}
</style>
<rect x="0" y="0" class="st0" width="1330" height="700"/>
<path class="st1" d="M0,80.8h1330 M1330,188.5H0 M0,296.2h1330 M1330,403.8H0 M0,511.5h1330 M1330,619.2H0"/>
<rect x="0" y="0" class="st2" width="532" height="376.9"/>
<g>
	<g id="s18">
		<g id="s9">
			<g id="s5">
				<g id="s4">
					<path id="s" class="st3" d="M44.3,16.2l12.7,39L23.8,31h41L31.7,55.1L44.3,16.2z"/>
					<g>
						<path class="st3" d="M44.3,91.5l12.7,39l-33.1-24.1h41l-33.1,24.1L44.3,91.5z"/>
					</g>
					<g>
						<path class="st3" d="M44.3,166.9l12.7,39l-33.1-24.1h41l-33.1,24.1L44.3,166.9z"/>
					</g>
					<g>
						<path class="st3" d="M44.3,242.3l12.7,39l-33.1-24.1h41l-33.1,24.1L44.3,242.3z"/>
					</g>
				</g>
				<g>
					<path class="st3" d="M44.3,317.7l12.7,39l-33.1-24.1h41l-33.1,24.1L44.3,317.7z"/>
				</g>
			</g>
			<g>
				<g>
					<path class="st3" d="M88.7,53.8l12.7,39L68.2,68.7h41L76,92.8L88.7,53.8z"/>
					<g>
						<path class="st3" d="M88.7,129.2l12.7,39l-33.1-24.1h41L76,168.2L88.7,129.2z"/>
					</g>
					<g>
						<path class="st3" d="M88.7,204.6l12.7,39l-33.1-24.1h41L76,243.6L88.7,204.6z"/>
					</g>
					<g>
						<path class="st3" d="M88.7,280l12.7,39l-33.1-24.1h41L76,319L88.7,280z"/>
					</g>
				</g>
			</g>
		</g>
		<g>
			<g>
				<g>
					<g>
						<path class="st3" d="M133,16.2l12.7,39L112.5,31h41l-33.1,24.1L133,16.2z"/>
						<g>
							<path class="st3" d="M133,91.5l12.7,39l-33.1-24.1h41l-33.1,24.1L133,91.5z"/>
						</g>
						<g>
							<path class="st3" d="M133,166.9l12.7,39l-33.1-24.1h41l-33.1,24.1L133,166.9z"/>
						</g>
						<g>
							<path class="st3" d="M133,242.3l12.7,39l-33.1-24.1h41l-33.1,24.1L133,242.3z"/>
						</g>
					</g>
					<g>
						<path class="st3" d="M133,317.7l12.7,39l-33.1-24.1h41l-33.1,24.1L133,317.7z"/>
					</g>
				</g>
				<g>
					<g>
						<path class="st3" d="M177.3,53.8l12.7,39l-33.1-24.1h41l-33.1,24.1L177.3,53.8z"/>
						<g>
							<path class="st3" d="M177.3,129.2l12.7,39l-33.1-24.1h41l-33.1,24.1L177.3,129.2z"/>
						</g>
						<g>
							<path class="st3" d="M177.3,204.6l12.7,39l-33.1-24.1h41l-33.1,24.1L177.3,204.6z"/>
						</g>
						<g>
							<path class="st3" d="M177.3,280l12.7,39l-33.1-24.1h41L164.7,319L177.3,280z"/>
						</g>
					</g>
				</g>
			</g>
		</g>
	</g>
	<g>
		<g>
			<g>
				<g>
					<g>
						<path class="st3" d="M221.7,16.2l12.7,39L201.2,31h41L209,55.1L221.7,16.2z"/>
						<g>
							<path class="st3" d="M221.7,91.5l12.7,39l-33.1-24.1h41L209,130.5L221.7,91.5z"/>
						</g>
						<g>
							<path class="st3" d="M221.7,166.9l12.7,39l-33.1-24.1h41L209,205.9L221.7,166.9z"/>
						</g>
						<g>
							<path class="st3" d="M221.7,242.3l12.7,39l-33.1-24.1h41L209,281.3L221.7,242.3z"/>
						</g>
					</g>
					<g>
						<path class="st3" d="M221.7,317.7l12.7,39l-33.1-24.1h41L209,356.7L221.7,317.7z"/>
					</g>
				</g>
				<g>
					<g>
						<path class="st3" d="M266,53.8l12.7,39l-33.1-24.1h41l-33.1,24.1L266,53.8z"/>
						<g>
							<path class="st3" d="M266,129.2l12.7,39l-33.1-24.1h41l-33.1,24.1L266,129.2z"/>
						</g>
						<g>
							<path class="st3" d="M266,204.6l12.7,39l-33.1-24.1h41l-33.1,24.1L266,204.6z"/>
						</g>
						<g>
							<path class="st3" d="M266,280l12.7,39l-33.1-24.1h41L253.3,319L266,280z"/>
						</g>
					</g>
				</g>
			</g>
			<g>
				<g>
					<g>
						<g>
							<path class="st3" d="M310.3,16.2l12.7,39L289.8,31h41l-33.1,24.1L310.3,16.2z"/>
							<g>
								<path class="st3" d="M310.3,91.5l12.7,39l-33.1-24.1h41l-33.1,24.1L310.3,91.5z"/>
							</g>
							<g>
								<path class="st3" d="M310.3,166.9l12.7,39l-33.1-24.1h41l-33.1,24.1L310.3,166.9z"/>
							</g>
							<g>
								<path class="st3" d="M310.3,242.3l12.7,39l-33.1-24.1h41l-33.1,24.1L310.3,242.3z"/>
							</g>
						</g>
						<g>
							<path class="st3" d="M310.3,317.7l12.7,39l-33.1-24.1h41l-33.1,24.1L310.3,317.7z"/>
						</g>
					</g>
					<g>
						<g>
							<path class="st3" d="M354.7,53.8l12.7,39l-33.1-24.1h41L342,92.8L354.7,53.8z"/>
							<g>
								<path class="st3" d="M354.7,129.2l12.7,39l-33.1-24.1h41L342,168.2L354.7,129.2z"/>
							</g>
							<g>
								<path class="st3" d="M354.7,204.6l12.7,39l-33.1-24.1h41L342,243.6L354.7,204.6z"/>
							</g>
							<g>
								<path class="st3" d="M354.7,280l12.7,39l-33.1-24.1h41L342,319L354.7,280z"/>
							</g>
						</g>
					</g>
				</g>
			</g>
		</g>
	</g>
	<g>
		<g>
			<g>
				<g>
					<path class="st3" d="M399,16.2l12.7,39L378.5,31h41l-33.1,24.1L399,16.2z"/>
					<g>
						<path class="st3" d="M399,91.5l12.7,39l-33.1-24.1h41l-33.1,24.1L399,91.5z"/>
					</g>
					<g>
						<path class="st3" d="M399,166.9l12.7,39l-33.1-24.1h41l-33.1,24.1L399,166.9z"/>
					</g>
					<g>
						<path class="st3" d="M399,242.3l12.7,39l-33.1-24.1h41l-33.1,24.1L399,242.3z"/>
					</g>
				</g>
				<g>
					<path class="st3" d="M399,317.7l12.7,39l-33.1-24.1h41l-33.1,24.1L399,317.7z"/>
				</g>
			</g>
			<g>
				<g>
					<path class="st3" d="M443.3,53.8l12.7,39l-33.1-24.1h41l-33.1,24.1L443.3,53.8z"/>
					<g>
						<path class="st3" d="M443.3,129.2l12.7,39l-33.1-24.1h41l-33.1,24.1L443.3,129.2z"/>
					</g>
					<g>
						<path class="st3" d="M443.3,204.6l12.7,39l-33.1-24.1h41l-33.1,24.1L443.3,204.6z"/>
					</g>
					<g>
						<path class="st3" d="M443.3,280l12.7,39l-33.1-24.1h41L430.7,319L443.3,280z"/>
					</g>
				</g>
			</g>
		</g>
	</g>
	<g>
		<g>
			<g>
				<path class="st3" d="M487.7,16.2l12.7,39L467.2,31h41L475,55.1L487.7,16.2z"/>
				<g>
					<path class="st3" d="M487.7,91.5l12.7,39l-33.1-24.1h41L475,130.5L487.7,91.5z"/>
				</g>
				<g>
					<path class="st3" d="M487.7,166.9l12.7,39l-33.1-24.1h41L475,205.9L487.7,166.9z"/>
				</g>
				<g>
					<path class="st3" d="M487.7,242.3l12.7,39l-33.1-24.1h41L475,281.3L487.7,242.3z"/>
				</g>
			</g>
			<g>
				<path class="st3" d="M487.7,317.7l12.7,39l-33.1-24.1h41L475,356.7L487.7,317.7z"/>
			</g>
		</g>
	</g>
</g>
</svg>
