<?xml version="1.0" encoding="utf-8"?>
<!-- Generator: Adobe Illustrator 23.1.0, SVG Export Plug-In . SVG Version: 6.00 Build 0)  -->
<svg version="1.1" id="Layer_1" xmlns="http://www.w3.org/2000/svg" xmlns:xlink="http://www.w3.org/1999/xlink" x="0px" y="0px"
	 viewBox="0 0 1400 700" style="enable-background:new 0 0 1400 700;" xml:space="preserve">
<style type="text/css">
	.st0{fill:#DA2032;}
	.st1{fill:#0066B3;}
	.st2{fill:#FFD900;}
</style>
<g>
	<path class="st0" d="M0,0h1400v700H0V0z"/>
	<path class="st1" d="M466.7,0h466.7v700H466.7V0z"/>
	<g transform="translate(400) scale(.25)">
		<path class="st2" d="M-1180,1260h233.3v1120H-1180V1260z M-386.7,1260h233.3v1120h-233.3V1260z M-900,2240l233.3,140l233.3-140
			H-900z M-900,2100h466.7v93.3H-900V2100z M-900,1260l233.3,140l233.3-140H-900z M-900,1446.7h466.7v93.3H-900V1446.7z
			 M-555.8,1614.9c17.4,23.6,26.7,52.1,26.8,81.4c0,76-61.6,137.7-137.6,137.7c-60.6,0-109.6,49.1-109.7,109.7
			c0,60.6,49.1,109.6,109.7,109.6c128.9,0,233.3-104.5,233.3-233.3C-433.3,1734.3-480.5,1655.6-555.8,1614.9L-555.8,1614.9z
			 M-666.7,1897c25.8,0,46.7,20.9,46.7,46.7c0,25.8-20.9,46.7-46.7,46.7c-25.8,0-46.7-20.9-46.7-46.7
			C-713.3,1917.9-692.4,1897-666.7,1897z"/>
		<path class="st2" d="M-777.5,2025.1c-17.4-23.6-26.7-52.1-26.8-81.4c0-76,61.6-137.7,137.6-137.7c60.6,0,109.6-49.1,109.7-109.7
			c0-60.6-49.1-109.6-109.7-109.6c-128.9,0-233.3,104.5-233.3,233.3C-900,1905.7-852.9,1984.4-777.5,2025.1L-777.5,2025.1z
			 M-666.7,1743c-25.8,0-46.7-20.9-46.7-46.7c0-25.8,20.9-46.7,46.7-46.7c25.8,0,46.7,20.9,46.7,46.7
			C-620,1722.1-640.9,1743-666.7,1743z M-922.9,951.6c-0.2,1.7-0.3,3.4-0.5,5.1c0,141.8,114.9,256.7,256.7,256.7
			S-410,1098.4-410,956.7c0-1.6,0-3.1,0-4.7c-44.5,102-145.2,167.9-256.5,168C-777.8,1119.8-878.5,1053.7-922.9,951.6L-922.9,951.6z
			"/>
		<circle class="st2" cx="-666.5" cy="886.7" r="186.7"/>
		<path class="st2" d="M-647.1,280.1c-23.2,10.5-31.9,29.5-33.7,48.4c-1.2,15.9,5.9,33.8,6.6,49.4c0,26.8-27.7,35.6-27.7,73.8
			c0,13.1,12.1,27.6,12.1,61.7c-2.1,17.9-12.1,21.9-23.3,23.3c-12.9,0-23.3-10.4-23.3-23.3c0-6,2.3-11.7,6.5-16.1
			c0.7-0.8,1.5-1.6,2.4-2.3c5.3-5.4,12.6-7.4,12.6-21.6c0-7.3-4.7-13.9-9.2-26.8c-4.2-12.5-1.2-33.4,8.9-45.8
			c-16.3,6.3-26.4,22-31.5,36c-5.4,17.3-0.7,27.2-8.1,41.6c-4.5,9.3-9.9,13.1-15,20.9c-6,8.4-13.1,28.2-13.1,37.4
			c0,64.4,52.2,116.7,116.7,116.7c0,0,0,0,0,0c64.4,0,116.7-52.2,116.7-116.7l0,0c0-9.2-7-28.9-13-37.4
			c-5.1-7.7-10.6-11.6-15.1-20.9c-7.3-14.3-2.6-24.3-8-41.6c-5.1-14-15.2-29.7-31.5-36c10.1,12.3,13.2,33.2,8.9,45.8
			c-4.5,12.9-9.3,19.5-9.3,26.8c0,14.2,7.3,16.2,12.6,21.6c0.8,0.7,1.6,1.5,2.4,2.3c4.1,4.3,6.4,10.1,6.5,16.1
			c0,12.9-10.4,23.3-23.3,23.3c-12.9-1.6-22.2-7.7-23.3-23.3c0-44.9,19.2-47.8,19.2-81c0-47.5-42.6-69.9-42.6-104.6
			C-666.5,316-663.7,295.9-647.1,280.1L-647.1,280.1z"/>
	</g>
</g>
</svg>
