<?xml version="1.0" encoding="utf-8"?>
<!-- Generator: Adobe Illustrator 23.1.0, SVG Export Plug-In . SVG Version: 6.00 Build 0)  -->
<svg version="1.1" id="Layer_1" xmlns="http://www.w3.org/2000/svg" xmlns:xlink="http://www.w3.org/1999/xlink" x="0px" y="0px"
	 viewBox="0 0 1400 700" style="enable-background:new 0 0 1400 700;" xml:space="preserve">
<style type="text/css">
	.st0{fill:#C8102E;}
	.st1{fill:#012169;}
	.st2{fill:#FFFFFF;}
	.st3{fill:#2F8F22;}
	.st4{fill:#C8102E;stroke:#000000;stroke-width:0.831;stroke-linejoin:round;}
	.st5{fill:#64B4D1;stroke:#000000;stroke-width:0.623;}
	.st6{fill:#FFFFFF;stroke:#012169;stroke-width:0.8307;stroke-miterlimit:10;}
	.st7{fill:none;stroke:#000000;stroke-width:0.8307;stroke-miterlimit:10;}
	.st8{fill:#784421;stroke:#000000;stroke-width:0.623;}
	.st9{fill:#64B4D1;stroke:#012169;stroke-width:0.623;stroke-miterlimit:2.613;}
	.st10{fill:#F5CE00;stroke:#000000;stroke-width:0.8307;stroke-miterlimit:2.613;}
	.st11{fill:#E4CB5E;stroke:#000000;stroke-width:0.623;stroke-miterlimit:2.613;}
	.st12{fill:none;stroke:#000000;stroke-width:0.623;stroke-miterlimit:10;}
	.st13{fill:#784421;stroke:#000000;stroke-width:0.3804;}
	.st14{fill:none;stroke:#000000;stroke-width:0.8307;stroke-miterlimit:2.613;}
	.st15{fill:none;stroke:#000000;stroke-width:0.623;stroke-miterlimit:2.613;}
	.st16{fill:none;stroke:#012169;stroke-width:0.8307;stroke-miterlimit:10;}
	.st17{fill:#784421;}
	.st18{fill:none;stroke:#000000;stroke-width:2;}
</style>
<path class="st0" d="M0,0h1400v700H0V0z"/>
<path class="st1" d="M0,0h700v350H0V0z"/>
<g transform="scale(8.333333)">
	<path class="st2" d="M0,0v4.7L74.6,42H84v-4.7L9.4,0H0z M84,0v4.7L9.4,42H0v-4.7L74.6,0H84z"/>
	<path class="st2" d="M35,0v42h14V0H35z M0,14v14h84V14H0z"/>
	<g>
		<path class="st0" d="M0,16.8v8.4h84v-8.4H0z M37.8,0v42h8.4V0H37.8z"/>
		<path class="st0" d="M0,42l28-14h6.3l-28,14H0z M0,0l28,14h-6.3L0,3.1V0z M49.7,14l28-14H84L56,14H49.7z M84,42L56,28h6.3L84,38.9
			V42z"/>
	</g>
</g>
<path class="st2" d="M1211.5,149.3v296.4c0,79.2-158.3,104.9-158.3,104.9s-158.3-25.7-158.3-104.9V149.3H1211.5z"/>
<path class="st3" d="M1211.5,445.8c0,79.2-158.3,104.9-158.3,104.9s-158.3-25.7-158.3-104.9c0,0,0-6.4,3.2-10c0,0-1.7,13.2,8.4,23.1
	c0,0-7.9-14.1-0.2-27.9c0,0-2.9,17.8,8.2,28c0,0-6.1-14.5,0.8-30.7c0,0-3.4,26.5,8.6,31.8c0,0,3.3-15.2-1.5-25c0,0,8.3,3.3,7.8,25.4
	c0,0,2.6-3.3,3.3-19.2c0,0,0.3,18.2,6.6,22.4c0,0,1.9-1.8-0.7-10.1c-2.6-8.3,1.1-11.2,1.7-11c0,0-1.4,9.1,6.3,16
	c0,0-3.3-14.3,1.3-16.3c0,0-1,12.1,8.6,14.9c0,0,0.7-3.5-1.4-7.5c0,0-1.8-4.7-0.4-8.3c0,0,3.1,11,7.2,12.9c0,0-2.5-6.5-0.2-12.9
	c0,0,0.5,9.2,8.7,12.9c0,0-5.4-7.1-3.3-14.9l52.7,2.6l27.3,1.3l81.9-5.8l14.1-12.1c0,0,5.6,7.7-3.2,20c0,0,8.7-1.6,11.5-15.2
	c0,0,3.6,7.6-1.3,15.9c0,0,9.7-9.7,11.1-20.7c0,0,3.8,10.6-5.4,22.1c0,0,8.2-2.7,11.7-14.9c0,0,2.8,7.3-5.1,17.6
	c0,0,14.8-7.9,14.4-24.1c0,0,6.2,9-0.9,21.3c0,0,7.6-6.8,8.3-16.9c0,0,4.2,4.6-0.3,17.2c0,0,9.2-8.7,10.6-18.1c0,0,2,8.7-5.9,19.7
	c0,0,5.4-1.3,10.6-12c0,0,1.4,4.2-3.3,12c0,0,5.1-0.9,8.5-10.6c0,0,0.6,5.8-0.9,11c0,0,3.9-2.6,4.8-13.5c0,0,2.2,3.6,2.2,8.1
	C1211.5,448.7,1211.5,445.8,1211.5,445.8L1211.5,445.8z"/>
<g>
	<path class="st4" d="M1130,274.4c0,0-5.5,0.9-12.6-1.2c-7.1-2.2-9.9-1.3-12.1,0c0,0,2.9-5.7-4.1-10.2c0,0,2.3,5.7-0.9,8.4
		c0,0-1.4,1.3-3.1-0.7c0,0-2.4-2.5-5-4.4c0,0,5.9-2.1,4.8-8.1c-1.1-6-4.3-6.8-6.1-7.6c0,0,0.6,2.7,0,4.6c0,0-6.5-3.6,2.3-8.7
		c8.8-5.1,7.2-8.1,5.6-10.7c-1.6-2.6-4.9-5.5-6.6-6.5c0,0,1.7,2.7,1.4,5.1s-4.3,3.8-3.5-0.3c0.8-4.1,0-3.4-0.1-7.7
		c0,0,7.8,2.6,10.9-5c0,0,3-7.9-6.8-11.8c0,0,2.4,3.2,1.2,5.6c0,0-2.1,4-4.6,0.7c-2.5-3.2-4.1-3.8-3.8-7.6c0,0,8.9,1.2,6.5-8.5
		c0,0-1.4,6.5-13-2.2c0,0,7.5-7.7,4.6-14c0,0-0.9-2.9-9.1-1.2c0,0,7.1-4.5,4.1-8.3c0,0-1.5-2.6-8.2,0.8c0,0,2.6-4.4-3.9-9.2
		c0,0-4.4,2.3-6.7,4.4c0,0-4.4-5.6-7.3-7.9c0,0-5.1,2-6.5,7.9c0,0-2.4-2.9-7.8-4.2c0,0-2.6,4.8,0.8,9.1c0,0-2.5-0.1-7.2-2.1
		c0,0-5.3-2.5-4.5,2c0.8,4.5,1.2,5.5,2.2,7.7c0,0-11.8-2.7-11.3,3.6c0.3,4.4,2,8.3,5.7,11.5c0,0-6.6,8.7-12.3,2.2c0,0-2,2.1,2.3,7.7
		c0,0,4.2,4.7,0.7,7.6c0,0-4.7,3.7-6.9-3.5c0,0-7.5,7.5,1.4,13.3c0,0,5.7,3.3,11.6-1.8c0,0-1.8,14.4-7.4,11.7c0,0-3.4-2.5,2.7-5.4
		c0,0-8.7-1.1-10.1,7.3c0,0-1.1,6.7,6.5,9.1c0,0,5.8,2.1-0.2,6.6c0,0-4.3,3.3-1.5,8.1c0,0,3.4,5.3-5.1,5.8c0,0-4.6,0-6.3-0.7
		c0,0-1.9,3.5-0.6,7.4c0,0-4.2-3.2-13.9,0.3c-9.6,3.5-8.9,1-9.7,2.1c-0.8,1.1-2.7,4.6-2.7,4.6s5.1,6.2,5.1,6c0.1-0.1-1,7-1,7
		l2.5,1.2l19.8-8.8l20.1-10.5l16.2,1l10.3,2.4l13.5,1l9.7-5.2h14l15.4,7.7l17.6,10.5l9.2,1.6l7.1-0.4v-14.2L1130,274.4z"/>
	<path class="st4" d="M970.2,291c0,0,7.7,3.9,10.9-0.8c0,0,4.2-8-5-10.8c0,0,5-6-0.4-11.5c0,0-2.8-3-7.7-0.8c0,0-2-4.2-6.8-4.1
		c0,0-4.2-0.1-5.6,4.6c0,0-5.8-2.4-9,1.1c0,0-5.3,5.9,2.1,10.6l5.3,0.5l5.2-2.4l5.8,1.7C965.1,279,963.6,284.9,970.2,291L970.2,291z
		"/>
	<path class="st5" d="M1141.5,277c9.2-0.9,12.5,6.9,12.5,6.9c4.8,11.4-5.4,17.4-5.4,17.4c0.8,2.6,0.9,5.9,0.9,5.9
		c14.5,1.8,11.9,18,11.9,18l-4.8-4c-8.4-3.3-17,3.9-23.2,15.8c-6.2,12-3.2,17.6-2.2,31.8c1,14.2,24.1,22.6,24.1,22.6
		s-10.9,28.1-18,46.1c-7.1,18-21.8,10.6-26.1,6.8c-4.3-3.8-5.3-1.7-7.5,0c-2.2,1.7,9.7,10.9-11.9,19.6
		c-21.5,8.7-25.3,15.4-28.9,17.6c-3.6,2.2-18.5,0.7-20-1.1c-1.5-1.8-0.6-1.8-6.2-5.3c-5.6-3.4-15-6.4-25.3-11.4
		c-10.3-5-10-11.4-9.9-12.8c0.1-1.3,3.6-12-8.5-3.5c-12.1,8.5-22.3-4.1-22.3-4.1c-2.4-3.1-12.4-30-12.4-30c-2.7-10-8-21.7-8-21.7
		c0.3-0.1-0.5,1.2,8.4-3.9c8.9-5.1,12.9-13.6,16-22s0.1-22.8-1-25.7c-1.1-2.9-7.8-16.2-16-19c-8.2-2.8-13.7,4.1-13.7,4.1
		s-2.5-16.3,11.9-18c0,0,0.1-3.3,0.9-5.9c0,0-10.3-6.1-5.4-17.4c0,0,3.3-7.8,12.5-6.9l-2.2,4.2c0,0-2.3,23.2,31.7,7.7
		c34-15.6,33-18.5,52.3-8.7l14.1-0.3c0,0,20.4-9.4,27-5.4c6.5,4.1,30.1,17.3,30.1,17.3s22.8,8.5,27.2-7.2L1141.5,277z"/>
</g>
<path class="st6" d="M1039.2,377.7c0,0-1.2-7.1-2.4-11.7c0,0-2.5-7.2,1.8-12.3l5.3-6.1c0,0,3.3-4.5,7.4-5.1c0,0,4.1-0.1,4.5-1
	c0.4-0.8,4.9-8.2,15.6,0c0,0,3.4-5.5,8.6-6.4c0,0,5.7-1.7,8.4,2.5c0,0,6.4-4.8,11.8,2.9c0,0,7.5-4.2,13,4.2c0,0,7.5-3.6,12,4.1
	c4.6,7.8,3.7,10.9,3.7,10.9l3.4,12.3l12,14.9l-28,10.6h-12.6l-25.1,6.7l-44.6,3.4l-12.4-14.6L1039.2,377.7z"/>
<g>
	<path class="st4" d="M1001.5,451.8c0,0-6.7,0.4-10.1,2.1s-6,3.6-9.9,6.1c0,0-1.8,2.4-9.6,1c0,0-13.3-3.2-13.3,7.2
		c0,0-16,1.3-9.4,15.3c0,0,4.4,11,13.6,3.2c0,0-5.9,8.4,5.5,11.7c0,0,8.1,2,10.5-6.3c0,0,1.3-3.3-1.8-7.4c0,0,3.9-0.8,6.7-5
		c0,0-8.4,10.6,0.8,14.4c0,0,11.5,2.9,12.2-9.1c0,0-0.9-5.5,3.5-7.5c0,0,9.2-2.1,13.4-12.3C1013.4,465.1,1000.2,458.1,1001.5,451.8
		L1001.5,451.8z"/>
	<path class="st4" d="M974.6,346.6c0,0-10.3-4.7-15.2,0c0,0-6.8-4.2-14,0c0,0-6.8,4.4-11.5,9.3c0,0-3.3,2.8-2.1,11.8
		c0,0,1.7,6.3,0.7,9.5c0,0-2.3-0.4-6.8,4.9c0,0-5.8,6.7-10.8,0.8c0,0,1.6,8.2,11.1,6.9c0,0-4.6,3.6-0.6,12.9c0,0,3,6.6-1.7,14.9
		c0,0,8.3-3.3,7.9-13.1c0,0-0.7-6.6,1.7-11.3c0,0-2.4,4.2,3.2,13.3c0,0,4.4,6.5,0.8,13.3c0,0,8.2-3,7.4-12.9
		c-0.8-9.9-5.8-5.8-2.5-15c0,0,0.8,4.7,3.2,7c2.4,2.4,5.6,6.3,4.3,12.9c0,0,4.9-6.1,3.8-12.3c-1.1-6.2-2.4-8.1-2.4-8.1l15.4-8.8
		l7.7-13.9L974.6,346.6z"/>
	<g>
		<path class="st7" d="M951.1,385.8c0,0-6.4-0.4-7.4-5.4"/>
		<path class="st7" d="M932.5,377.2c0,0,2.2-0.1,4.2,1.9c0,0,1.5,2.3,3.7,2"/>
	</g>
</g>
<path d="M960.5,367.1c0,0-3.3,0-5.1-1.6c0,0-1.9-1.3-3.1,0.8c0,0-1.7,3,1.5,4.3c0,0,4,2-2.4,6.1c0,0,7.6-2.7,4.5-6.4
	c0,0-3.3-2.4-2.1-3.3c0,0,0.3-0.7,1.7,0.2C956.9,368,959.5,367.7,960.5,367.1z"/>
<path class="st8" d="M1064.6,383.9l-25.5-88.1l-0.9,0.3l22.5,89.1L1064.6,383.9z"/>
<path d="M975.7,482.7c0,0-6-3.4-11,0.6c0,0,0.5-2.2,4.3-3.2c0,0,2.1-5.8,7.8-5.3c0,0-2.4,2.8-5.5,5.2
	C971.4,480,974.7,480.4,975.7,482.7z"/>
<path class="st9" d="M954.6,496.7c0,0-9.6-6-4.4-16.1c0,0,1.5-2.9,4.4-2.3c0,0,6,1.8,1.3,10.1C955.9,488.4,953.5,493.7,954.6,496.7
	L954.6,496.7z"/>
<path class="st9" d="M973.9,506.2c0,0-13.6-6.2-9.4-16.8c0,0,1.3-3.6,4.3-3.3c0,0,5.2,0.3,4.2,7.3
	C973,493.4,971.4,500.3,973.9,506.2L973.9,506.2z"/>
<path d="M971,466.8c0,0-4.1,3-5.8,5c0,0-1.7-2.1-3.8-3.3c0,0,2.5-0.3,3.8,0.8C965.3,469.3,967.4,467.3,971,466.8z"/>
<path class="st9" d="M983.1,503.5c0,0,10.7-2.7,8.7-13.7c0,0-1-4.8-5.6-4.2c0,0-5.4,1.4-1.9,8.4
	C984.4,494.1,986.5,499.1,983.1,503.5L983.1,503.5z"/>
<path class="st10" d="M1031.3,270.5c0,0,6.9,2.1,10.6,3.6c0,0,9.9,4.5,22.6,0c0,0,8.5-3.4,9.7-3.6l-6.5,10l-0.3,5.1l4.1,6
	c0,0-2.5,1-9.8-3.5c0,0-8.1-6.3-17.8,0c0,0-5.3,3.6-9.7,3.5l6.3-7l-2.4-6.3L1031.3,270.5z"/>
<path class="st2" d="M987.3,490.4c0,0,0.4-0.5-0.1-0.8c0,0-0.5-0.2-0.8,0.4c0,0-1.1,1.8-0.2,4.2c0,0,0.9,1.7,0.5,3.4
	c0,0-0.1,0.5,0.3,0.6c0,0,0.4-0.1,0.4-0.5c0,0,0.5-1.7-0.4-3.4C987.1,494.4,986,491.8,987.3,490.4L987.3,490.4z"/>
<g>
	<path class="st4" d="M1135,291c0,0-7.7,3.9-10.9-0.8c0,0-4.2-8,5-10.8c0,0-5-6,0.4-11.5c0,0,2.8-3,7.7-0.8c0,0,2-4.2,6.8-4.1
		c0,0,4.2-0.1,5.6,4.6c0,0,5.8-2.4,9,1.1c0,0,5.3,5.9-2.1,10.6l-5.3,0.5l-5.2-2.4l-5.8,1.7C1140.1,279,1141.6,284.9,1135,291
		L1135,291z"/>
	<path class="st10" d="M1074.2,284.8c0,0-0.2,1.6-1.8,1.8c0,0-1.6,0.5-2.6-1.5c0,0-0.1-0.5-0.1-0.7c-0.1-1-0.4-3.7,2.5-5.9
		c0,0,4.8-4,14.1,0.8c0,0,7.3,3.5,12.4,6.5c0,0,13.1,7,14.7,7.6c0,0,5.8,2.9,14.6,3.3c0,0,12,0.9,17.1-7.6c0,0,3.9-6.4,0-10.5
		c0,0-1.6-1.8-4.2-1.5c-1.1,0.1-2.3,0.6-3.4,2c0,0-1.9,2.7,0.3,4.8c0,0,2.8,1.7,3.8-1.9c0,0,0-0.3,0.1,0.1c0.1,0.2,0.7,3-0.8,5.4
		c0,0-7.3,11-27.2-0.4l-26.3-14.8c0,0-13.2-6.8-21.1,3.8c0,0-6.4,8.8,1.8,14.6c0,0,6.1,3.6,9.9-2.2c0,0,3.2-5.7-1.8-8.2
		c0,0-4.4-2.1-6.1,2.3c-1.7,4.4,3.4,5.5,3.9,2.4C1073.9,284.9,1074,284.1,1074.2,284.8L1074.2,284.8z"/>
	<g>
		<path class="st11" d="M969.8,330.2c0,0,0-13.7,0-16.5c0-1.3,0-2.4,2-4c2-1.6,4.1-4.1,7.1,3c0,0,5.9-6.2,7.8-7.1
			c0,0,3.4-2.9,5.8,1.3c0,0,3.1-4.8,5.6-5.9c0,0,5.9-3.8,6.1,7.7l4.6-4.2c0,0,3.5-2.9,7.5,1.1c0,0,6.7,6.5,7.6,8.3
			c0,0,1.5,2,1.6,5.2c0,0,0,3.6,1.8,5.5c0,0,2.1,1.8,4.1,2.2c0,0,4.8,0.1,6.5,4.6c0,0,0.8-0.8,3.1,20.7v39.2l-26.4,31.5l-42.4-12.1
			l-16.9-7l-3.8-12.4l16.4-10.6l8.9-24l-2.9-16.9L969.8,330.2z"/>
		<path class="st8" d="M1086.6,351l2-3l4.8-3.7c0,0,7.3,19.2,7.7,23.4v6c0,0,11,2.8,12.9,19.7l-9.1,16.7l-14.2-7.9l-4.1-3
			L1086.6,351L1086.6,351z"/>
	</g>
</g>
<path class="st2" d="M951.9,483c0,0,0.5-0.7,0.2-1c0,0-0.2-0.3-0.8,0.5c0,0-2.9,3.2-0.6,8.2c0,0,0.3,0.7,0.7,0.5c0,0,0.4-0.2,0-0.8
	C951.4,490.4,949.3,486.3,951.9,483z"/>
<g>
	<path class="st7" d="M994.8,479.8c0,0,0.4-1.5-0.6-3.1c0,0-0.7-1.1-0.4-2.6"/>
	<path class="st12" d="M1004.2,308.7c0,0,0,4.1,1.2,7.2c1.2,3,5.2,8.3,5.4,11.1"/>
	<path class="st4" d="M1103.9,451.8c0,0,6.7,0.4,10.1,2.1s6,3.6,9.9,6.1c0,0,1.8,2.4,9.6,1c0,0,13.3-3.2,13.3,7.2
		c0,0,16,1.3,9.4,15.3c0,0-4.4,11-13.6,3.2c0,0,5.9,8.4-5.5,11.7c0,0-8.1,2-10.5-6.3c0,0-1.3-3.3,1.8-7.4c0,0-3.9-0.8-6.7-5
		c0,0,8.4,10.6-0.8,14.4c0,0-11.5,2.9-12.2-9.1c0,0,0.9-5.5-3.5-7.5c0,0-9.2-2.1-13.4-12.3C1092,465.1,1105.1,458.1,1103.9,451.8
		L1103.9,451.8z"/>
	<g>
		<g>
			<path class="st12" d="M998.9,326.9l10.9,87.9"/>
			<path class="st12" d="M1001.4,326.8l12.2,81.9"/>
			<path class="st12" d="M1003.7,326.4l14.1,81.3"/>
		</g>
		<path class="st8" d="M1029.9,399.3l-25.5-88.1l-0.9,0.3l22.5,89.1L1029.9,399.3z"/>
		<g>
			<path class="st12" d="M1011.5,323.2l25.8,65.1"/>
			<path class="st12" d="M1009.8,324.2l24.9,68"/>
		</g>
	</g>
</g>
<path class="st2" d="M969,499.9c0,0-3-2.9-2.6-8c0,0,0.2-1.1-0.4-1.3c0,0-0.6-0.2-0.7,1c0,0-0.8,5.4,2.8,8.4c0,0,0.2,0.3,0.6,0.2
	C968.8,500.4,969.2,500.3,969,499.9z"/>
<g>
	<path class="st12" d="M1012.7,322.3l26.6,59.4"/>
	<path class="st12" d="M1005.4,326l16.3,80"/>
	<path class="st10" d="M1138.7,385.2c-11.6-6.6-14.2-21.2-14.2-21.2c-2.8-14.6,2.9-26.1,2.9-26.1c7.5-15.9,20.4-18.9,20.4-18.9
		s-12.6,8.8-16.2,20.6c0,0-2.7,10-1.2,19.8c1.6,9.8,1,7.3,3.4,14.9L1138.7,385.2z"/>
	<path class="st13" d="M1088.6,348l-48.9,15.4l-2.7,21.8c-11.6,16.8-35.2,19.8-35.2,19.8l18.3,19.5l35.2,7.4l18.5-14.2l16.7-15.5
		c-1.7-8.3-0.8-20.5-0.8-20.5c0-2.1,0.8-6.9,0.8-6.9S1087.8,354.9,1088.6,348L1088.6,348z"/>
	<g>
		<path class="st12" d="M1037.7,379.7c0,0,32.2-10.1,51.4-18.1"/>
		<path class="st12" d="M1022.2,398.1c0,0,40.2-7.3,68.4-23.4l10.4-7"/>
		<path class="st12" d="M1101,373.7l-11.2,7.9c0,0-44.9,20.7-79.1,21.3"/>
		<path class="st12" d="M1089.9,396.4c0,0-34.5,17.8-54.3,18"/>
	</g>
	<path class="st4" d="M1131,346.6c0,0,10.3-4.7,15.2,0c0,0,6.8-4.2,14,0c0,0,6.8,4.4,11.5,9.3c0,0,3.3,2.8,2.1,11.8
		c0,0-1.7,6.3-0.7,9.5c0,0,2.3-0.4,6.8,4.9c0,0,5.8,6.7,10.8,0.8c0,0-1.6,8.2-11.1,6.9c0,0,4.6,3.6,0.6,12.9c0,0-3,6.6,1.7,14.9
		c0,0-8.3-3.3-7.9-13.1c0,0,0.7-6.6-1.7-11.3c0,0,2.4,4.2-3.2,13.3c0,0-4.4,6.5-0.8,13.3c0,0-8.2-3-7.4-12.9c0.8-9.9,5.8-5.8,2.5-15
		c0,0-0.8,4.7-3.2,7c-2.4,2.4-5.6,6.3-4.3,12.9c0,0-4.9-6.1-3.8-12.3s2.4-8.1,2.4-8.1l-15.4-8.8l-7.7-13.9L1131,346.6z"/>
</g>
<path class="st6" d="M956.2,402.2c0,0,1.4-6.8,8-4.1c0,0,2.2-11.2,14.1-11.6c11.9-0.4,12.6,11.6,12.6,12.4c0,0,3.5-5.2,9.3-4.6
	c0,0,10.1-0.6,6.3,15.6l1.9,2c0,0,7.7-18.1,23.5-13.3c0,0,15.4,4.7,5.4,19.7c0,0,7.6,9.9,14.1,9c6.5-0.9,12.2-2.9,18.6-14.2
	c6.4-11.3,21.3-13.1,25.1-12.4c3.8,0.7,6.8,3.1,7.4,5.8c0,0,7.9-26.4,36.3-22.2l11.4,5.7l4.3,2l-6.4,18.2l-15.7,35.4l-11.9,3.7
	l-12.4-7.1l-4.3,2.3l-0.4,10.6l-16.4,11.8l-11.4,4.7l-12.6,8.6l-2.9,7.7c0,0-6.9-2.9-14.8,0l-2.6-6.3l-7.3-7L1007,461l-5.1-16.6
	l-5.2-2.3l-5.8,6.7l-8.5,1l-12.7-8.6L956.2,402.2z"/>
<g>
	<g>
		<g>
			<path class="st14" d="M1080.1,273.2c0,0-10.9-0.5-10.5,10.8"/>
			<path class="st10" d="M1151.6,392.8c-18.9-5.8-24.1-26.1-24.1-26.1c-3.9-15.2,2.4-28.6,2.4-28.6c8.6-20.3,23.2-20.3,23.2-20.3
				c7.3-0.2,8.2,6.1,8.2,6.1c0.7,4.4-2.4,6-2.4,6c-5,2.7-8.2-1-8.2-1c-2.1-2.7-0.5-5.1-0.5-5.1c1.3-1.8,3.8-1,3.8-1
				c2,0.6,1.7,3,1.7,3c0,0.1,0.1,0.1,0.1,0.1c0.1,0,0.1-0.1,0.1-0.1s0.4-3-2.5-3.3c0,0-5.7-1.2-12.4,7.1c0,0-8.8,11.2-8.8,25.7
				c0,0-1.1,27.2,27.3,34.3c0,0-3.1,4.4-8.5,20.4c0,0-6.1,20.5-12,31.6c0,0-7.8,15.8-25.2,9.4c0,0-10.4-4.6-10.3-12.1
				c0,0-0.7-6.9,5.5-7.4c0,0,6.1-0.5,6,4.8c0,0,0.2,5.6-6.5,4.4c0,0-2.3-0.5-1.9-2.8c0,0,0.4-2,3.2-1.2c0,0,0.1,0,0.1,0
				c0,0,0,0-0.1-0.1c0,0-1.1-0.5-2.2-0.1c0,0-1,0.3-1.1,1.9c0,0-0.1,1.3,1.3,2c0,0,1.7,0.6,3,0.5c0,0,1.8,3.6,5.7,4.8
				c5.5,1.7,10.1,0.1,12.9-2.2c3-2.4,5-6.7,5.6-7.7c0.6-1,5.7-12.5,9.5-24.8c0,0,3.4-10.6,6-16.1L1151.6,392.8z"/>
			<path class="st10" d="M1098.2,444.4c0,0,3.5-0.5,3.5,2.7c0,0-0.2,4.6-5.8,3.6c0,0-5.5-1.2-3.6-7.4c0,0,1.3-4.4,6.5-3.7
				c0,0,5.1,0.2,7.3,7.2c0,0,1.7,5.8-1.2,10.9c-3.2,5.6-11.5,9.3-15.4,10.9c0,0-15.9,6.2-20.6,9.8c0,0-7.3,5.4-4.1,10.4
				c0,0,1.2,1.9,3.1,1.9c0,0,2.1,0.1,2.5-2.1c0,0,0,0,0-0.1c0,0,0,0,0,0.1c0,0-0.2,1.3-1.3,1.8c0,0-1.5,0.8-3.2-0.6
				c0,0-1.7-1.6-0.3-4.2c0,0,1.9-3.2,6.3-1.3c0,0,3.9,1.9,2.3,6c0,0-1.4,3.8-6.1,3.8c0,0-3.5-0.1-5.8-2.5
				c-3.5-3.7-3.7-10.8-0.6-14.5c0,0,2.9-3.9,8.8-6.3c3.4-1.4,9.8-4.2,16.5-6.8c4.7-1.8,9-4,11.8-7.3c0,0,2.5-2.8,3.2-7.5
				c0,0,0.7-3.6-1.5-4.3C1100.5,444.7,1099.4,444.2,1098.2,444.4C1098.2,444.4,1098.1,444.4,1098.2,444.4
				C1098.1,444.4,1098.1,444.5,1098.2,444.4z"/>
			<path class="st14" d="M1098.5,444.4c0,0,3.9-0.7,6.3,3.9c0,0,1.4,3,1.7,4.7"/>
			<path class="st14" d="M1107.8,436.5c0,0-3.9,0.7-1.9,6.2c1.9,5.2,5.4,6.9,6.5,7.6"/>
			<path class="st10" d="M1031.3,284.8c0,0,0.2,1.6,1.8,1.8c0,0,1.6,0.5,2.6-1.5c0,0,0.1-0.5,0.1-0.7c0.1-1,0.4-3.7-2.5-5.9
				c0,0-4.8-4-14.1,0.8c0,0-7.3,3.5-12.4,6.5c0,0-13.1,7-14.7,7.6c0,0-5.8,2.9-14.6,3.3c0,0-12,0.9-17.1-7.6c0,0-3.9-6.4,0-10.5
				c0,0,1.6-1.8,4.2-1.5c1.1,0.1,2.3,0.6,3.4,2c0,0,1.9,2.7-0.3,4.8c0,0-2.8,1.7-3.8-1.9c0,0,0-0.3-0.1,0.1c-0.1,0.2-0.7,3,0.8,5.4
				c0,0,7.3,11,27.2-0.4l26.3-14.8c0,0,13.2-6.8,21.1,3.8c0,0,6.4,8.8-1.8,14.6c0,0-6.1,3.6-9.9-2.2c0,0-3.2-5.7,1.8-8.2
				c0,0,4.4-2.1,6.1,2.3c1.7,4.4-3.4,5.5-3.9,2.4C1031.6,284.9,1031.4,284.1,1031.3,284.8L1031.3,284.8z"/>
			<path class="st10" d="M966.8,385.2C978.5,378.6,981,364,981,364c2.8-14.6-2.9-26.1-2.9-26.1c-7.5-15.9-20.4-18.9-20.4-18.9
				s12.6,8.8,16.2,20.6c0,0,2.7,10,1.2,19.8c-1.6,9.8-1,7.3-3.4,14.9L966.8,385.2z"/>
			<path class="st14" d="M1025.4,273.2c0,0,10.9-0.5,10.5,10.8"/>
			<path class="st10" d="M953.9,392.8c18.9-5.8,24.1-26.1,24.1-26.1c3.9-15.2-2.4-28.6-2.4-28.6c-8.6-20.3-23.2-20.3-23.2-20.3
				c-7.3-0.2-8.2,6.1-8.2,6.1c-0.7,4.4,2.4,6,2.4,6c5,2.7,8.2-1,8.2-1c2.1-2.7,0.5-5.1,0.5-5.1c-1.3-1.8-3.8-1-3.8-1
				c-2,0.6-1.7,3-1.7,3c0,0.1-0.1,0.1-0.1,0.1c-0.1,0-0.1-0.1-0.1-0.1s-0.4-3,2.5-3.3c0,0,5.7-1.2,12.4,7.1c0,0,8.8,11.2,8.8,25.7
				c0,0,1.1,27.2-27.3,34.3c0,0,3.1,4.4,8.5,20.4c0,0,6.1,20.5,12,31.6c0,0,7.8,15.8,25.2,9.4c0,0,10.4-4.6,10.3-12.1
				c0,0,0.7-6.9-5.5-7.4c0,0-6.1-0.5-6,4.8c0,0-0.2,5.6,6.5,4.4c0,0,2.3-0.5,1.9-2.8c0,0-0.4-2-3.2-1.2c0,0-0.1,0-0.1,0
				c0,0,0,0,0.1-0.1c0,0,1.1-0.5,2.2-0.1c0,0,1,0.3,1.1,1.9c0,0,0.1,1.3-1.3,2c0,0-1.7,0.6-3,0.5c0,0-1.8,3.6-5.7,4.8
				c-5.5,1.7-10.1,0.1-12.9-2.2c-3-2.4-5-6.7-5.6-7.7c-0.6-1-5.7-12.5-9.5-24.8c0,0-3.4-10.6-6-16.1L953.9,392.8z"/>
			<path class="st10" d="M1007.3,444.4c0,0-3.5-0.5-3.5,2.7c0,0,0.2,4.6,5.8,3.6c0,0,5.5-1.2,3.6-7.4c0,0-1.3-4.4-6.5-3.7
				c0,0-5.1,0.2-7.3,7.2c0,0-1.7,5.8,1.2,10.9c3.2,5.6,11.5,9.3,15.4,10.9c0,0,15.9,6.2,20.6,9.8c0,0,7.3,5.4,4.1,10.4
				c0,0-1.2,1.9-3.1,1.9c0,0-2.1,0.1-2.5-2.1c0,0,0,0,0-0.1c0,0,0,0,0,0.1c0,0,0.2,1.3,1.3,1.8c0,0,1.5,0.8,3.2-0.6
				c0,0,1.7-1.6,0.3-4.2c0,0-1.9-3.2-6.3-1.3c0,0-3.9,1.9-2.3,6c0,0,1.4,3.8,6.1,3.8c0,0,3.5-0.1,5.8-2.5c3.5-3.7,3.7-10.8,0.6-14.5
				c0,0-2.9-3.9-8.8-6.3c-3.4-1.4-9.8-4.2-16.5-6.8c-4.7-1.8-9-4-11.8-7.3c0,0-2.5-2.8-3.2-7.5c0,0-0.7-3.6,1.5-4.3
				C1005,444.7,1006.1,444.2,1007.3,444.4C1007.3,444.4,1007.3,444.4,1007.3,444.4C1007.3,444.4,1007.4,444.5,1007.3,444.4z"/>
			<g>
				<path class="st14" d="M1007,444.4c0,0-3.9-0.7-6.3,3.9c0,0-1.4,3-1.7,4.7"/>
				<path class="st14" d="M997.7,436.5c0,0,3.9,0.7,1.9,6.2c-1.9,5.2-5.4,6.9-6.5,7.6"/>
				<path class="st14" d="M1043.3,283.3c0,0,9.5-5.9,19.1,0.6"/>
			</g>
		</g>
		<g>
			<path class="st15" d="M989.5,341.1c0,0,1.3-5.3-4.7-14.5c0,0-3.9-8.4-6-13.9"/>
			<path class="st15" d="M992.4,307c0,0,3.4,8.3,4.6,12c0,0,4.2,10.4,5.1,12.5"/>
		</g>
	</g>
	<g>
		<g>
			<path class="st12" d="M994.1,346.9c0,0,3.6,3.8,3.1,10.3"/>
			<path class="st12" d="M982.3,342.8c0,0,3.9,1.9,3.7,12.3c0,0-0.4,7.6,5.5,11.4"/>
			<path class="st12" d="M981.8,369.3c0,0,12.3-1.3,13,6.2c0,0,0.3,7.3,4.4,8c0,0,6.3,0.6,7.5,6.4"/>
			<path class="st12" d="M985.7,377.7c0,0,2.2,3.2,4.3,4.6"/>
			<path class="st12" d="M1001.4,369.7c0,0,3.1,4.7,3.7,7.5"/>
			<path class="st12" d="M1014.9,312.8c0,0,2.9,3.9,5.7,5.8"/>
			<path class="st12" d="M1026.5,335.9c0,0,6.1,3,5.1,18.4c0,0-0.8,9,1.7,14"/>
		</g>
		<path class="st8" d="M997.7,325.5l0.4,1.5c0,0,10.9,0.5,16.9-7l-0.6-1.4C1014.3,318.5,1004.8,318,997.7,325.5L997.7,325.5z"/>
		<path class="st12" d="M1037.1,384.2c0,0,37.9-11.3,52.4-17.9"/>
	</g>
	<path class="st13" d="M1032.6,313.2l18.7-7.1l0.4,1.3l-18.7,7.1L1032.6,313.2z"/>
</g>
<g>
	<g>
		<path class="st12" d="M1034.7,313.8l12.4,60.9"/>
		<path class="st12" d="M1036.8,313l14.2,60.7"/>
		<path class="st12" d="M1039.2,312.1l15.6,60.2"/>
		<path class="st12" d="M1045.3,309.7l21.2,45.2"/>
		<path class="st12" d="M1048.1,308.7l22.6,44.9"/>
		<path class="st12" d="M1050.2,307.9l24.5,44.5"/>
		<path class="st12" d="M1046.2,375.2l9.6-3.2"/>
		<path class="st12" d="M1039,369.2c0,0,28.2-8.2,49.5-16.8"/>
		<path class="st12" d="M1038.6,372.3c0,0,35.7-9.4,49.8-16.3"/>
		<path class="st12" d="M1049.5,401.3l1.9,5.7l5.1-1.6l-1.7-5.7"/>
		<path class="st12" d="M1063.9,397.2l1.9,5.7l5.1-1.6l-1.7-5.7"/>
		<path class="st12" d="M1039.7,363.4l-0.4-7.7l46.8-14.2l2.5,6.5"/>
		<path class="st12" d="M1059.1,349.7l2.5,6.8"/>
		<path class="st12" d="M1075.4,344.7l3,6.5"/>
		<path class="st12" d="M1079.3,343.5l2.8,6.1"/>
		<path class="st12" d="M1083,342.4l2.9,6.4"/>
		<path class="st12" d="M1086,341.5l5.1-2.9l2.2,5.7"/>
		<path class="st12" d="M1088.6,340.1l2.6,5.9"/>
	</g>
	<g>
		<path class="st16" d="M972.5,429.1c0,0-9.2-9.3,0-18.4c0,0-9.9-4.9-8.4-12.7"/>
		<path class="st16" d="M988.9,436.5c0,0-9.5,1.3-6.7-17.2c0,0-3.9,7.3-5.3,11.1c-1,2.8-0.3,7.4,3.7,9.8c1.6,1,10.1,3.2,12.9-2.4"/>
		<path class="st16" d="M978.3,408.2c0,0-3.9,3.6-1.1,10.1"/>
		<path class="st16" d="M982.3,409.1c0,0,0.5,6.3,3.6,9.9"/>
		<path class="st16" d="M985,406.6c0,0,0,7.5,5.3,12.1"/>
		<path class="st16" d="M987.6,404c0,0,0.1,8.4,6.3,13.5"/>
		<path class="st16" d="M1018.5,416.3c0,0,3.1-6.9,9.7-6.5c0,0-3.2,1.5-3.1,4.7c0,0-0.4,5.3,5.3,5.8c0,0,4.6,0.6,6.9-1.9"/>
		<path class="st16" d="M1034.1,447.6c0,0-16.3-7.7-14.6-18.7c0,0,0.7-6.7,7.2-9.9"/>
		<path class="st16" d="M1023.3,426c0,0-1.4,4.8,1.8,8"/>
		<path class="st16" d="M1027,422.8c0,0-2,5.2,1.3,9.1"/>
		<path class="st16" d="M1030.9,420.3c0,0-2.4,4.3,0.5,8.2"/>
		<path class="st16" d="M1016.1,448.7c0,0,8.9,7.7,15.8,7.8"/>
		<path class="st16" d="M1013.3,451.2c0,0,8.3,6.7,13.5,7.7"/>
		<path class="st16" d="M1010.1,453.1c0,0,10.3,9,16.7,9.7"/>
		<path class="st16" d="M1051.9,471.1c0,0-10.1,5.4-2.3,11.2"/>
		<path class="st16" d="M1045.5,465.1c0,0,11.4-6,16.4-8.2"/>
		<path class="st16" d="M1049.6,468.2c0,0,16.6-10.1,21.5-12.3"/>
		<path class="st16" d="M1058.1,468.8c0,0,14.1-9.4,21.7-13.5"/>
		<path class="st16" d="M1067.5,468.5c0,0,9.7-7.7,19.2-13.2"/>
		<path class="st16" d="M1090,445.8c0,0-4.8-7-20.5,0c0,0,5.8-5.2,17.1-9.3"/>
		<path class="st16" d="M1102.5,406.4c0,0,1.3,5.7-0.1,9.1"/>
		<path class="st16" d="M1077,434c0,0,3.3-4.8,11.6-7.2c0,0,2.2,5.6,8.7,4.4c0,0,9.7-1.9,6.8-12.6c0,0-2-8-13.2-8.8"/>
		<path class="st16" d="M1124.1,396.4c0,0,11.3,2,11.1,11.3c0,0,0.9,13.9-13.7,16.6"/>
		<path class="st16" d="M1133.6,402c0,0,3.1-6.8,10-9.5"/>
		<path class="st16" d="M1135.2,388.6c0,0,3.1,5,5.2,5.7"/>
		<path class="st16" d="M1133.6,392.5c0,0,2.9,3.6,3.9,4.2"/>
		<path class="st16" d="M1132.6,396c0,0,1.5,2.3,2.9,3"/>
		<path class="st16" d="M1074.4,342.4c0,0,2.2-3.6,7.7-2.1"/>
		<path class="st16" d="M1104.5,369.2c0,0,3.5-14.5,15.6-9.1"/>
		<path class="st16" d="M1115.1,358.9c0,0,1.2-6.7-1.8-10.1"/>
		<path class="st16" d="M1106.9,358.4c0,0,1.5,2.8,0.2,5"/>
	</g>
</g>
<path class="st9" d="M1131.5,506.2c0,0,13.6-6.2,9.4-16.8c0,0-1.3-3.6-4.3-3.3c0,0-5.2,0.3-4.2,7.3
	C1132.4,493.4,1134,500.3,1131.5,506.2L1131.5,506.2z"/>
<path class="st2" d="M1136.4,499.9c0,0,3-2.9,2.6-8c0,0-0.2-1.1,0.4-1.3c0,0,0.6-0.2,0.7,1c0,0,0.8,5.4-2.8,8.4c0,0-0.2,0.3-0.6,0.2
	C1136.6,500.4,1136.2,500.3,1136.4,499.9z"/>
<path class="st9" d="M1150.8,496.7c0,0,9.6-6,4.4-16.1c0,0-1.5-2.9-4.4-2.3c0,0-6,1.8-1.3,10.1
	C1149.5,488.4,1151.9,493.7,1150.8,496.7L1150.8,496.7z"/>
<path class="st2" d="M1153.2,483c0,0-0.5-0.7-0.2-1c0,0,0.2-0.3,0.8,0.5c0,0,2.9,3.2,0.6,8.2c0,0-0.3,0.7-0.7,0.5c0,0-0.4-0.2,0-0.8
	C1153.7,490.4,1155.8,486.3,1153.2,483z"/>
<path class="st9" d="M1122.2,503.5c0,0-10.7-2.7-8.7-13.7c0,0,1-4.8,5.6-4.2c0,0,5.4,1.4,1.9,8.4
	C1121,494.1,1118.9,499.1,1122.2,503.5L1122.2,503.5z"/>
<path class="st2" d="M1118.1,490.4c0,0-0.4-0.5,0.1-0.8c0,0,0.5-0.2,0.8,0.4c0,0,1.1,1.8,0.2,4.2c0,0-0.9,1.7-0.5,3.4
	c0,0,0.1,0.5-0.3,0.6c0,0-0.4-0.1-0.4-0.5c0,0-0.5-1.7,0.4-3.4C1118.3,494.4,1119.4,491.8,1118.1,490.4L1118.1,490.4z"/>
<path d="M1129.9,482.7c0,0,6-3.4,11,0.6c0,0-0.5-2.2-4.3-3.2c0,0-2.1-5.8-7.8-5.3c0,0,2.4,2.8,5.5,5.2
	C1134.3,480,1130.9,480.4,1129.9,482.7z"/>
<path d="M1134.3,466.8c0,0,4.1,3,5.8,5c0,0,1.7-2.1,3.8-3.3c0,0-2.5-0.3-3.8,0.8C1140.1,469.3,1138,467.3,1134.3,466.8z"/>
<g>
	<path class="st7" d="M1110.6,479.8c0,0-0.4-1.5,0.6-3.1c0,0,0.7-1.1,0.4-2.6"/>
	<path class="st7" d="M1154.5,385.8c0,0,6.4-0.4,7.4-5.4"/>
	<path class="st7" d="M1173.1,377.2c0,0-2.2-0.1-4.2,1.9c0,0-1.5,2.3-3.7,2"/>
</g>
<path d="M1145.1,367.1c0,0,3.3,0,5.1-1.6c0,0,1.9-1.3,3.1,0.8c0,0,1.7,3-1.5,4.3c0,0-4,2,2.4,6.1c0,0-7.6-2.7-4.5-6.4
	c0,0,3.3-2.4,2.1-3.3c0,0-0.3-0.7-1.7,0.2C1148.7,368,1146.1,367.7,1145.1,367.1z"/>
<path class="st9" d="M1149.6,287c0,0,1.5-2,0.9-8.1c-0.6-6.1,4.7-6.8,6.7-5.1c0,0,2.1,1.8,0.2,5.7
	C1156.3,281.7,1154.5,284.6,1149.6,287z"/>
<path class="st2" d="M1151.6,282.4c0,0,2-2.1,1-6.8c0,0,0-0.5,0.3-0.5c0,0,0.5-0.1,0.6,0.3c0,0,1.1,5-1.2,7.6c0,0-0.4,0.4-0.7,0
	C1151.6,283.1,1151.3,282.8,1151.6,282.4L1151.6,282.4z"/>
<path class="st9" d="M1147.9,284.8c0,0-0.2-2.5-4.4-6.7s-0.8-8,1.9-8c0,0,2.7,0,3.7,4.2C1149.6,276.6,1150,279.9,1147.9,284.8
	L1147.9,284.8z"/>
<path class="st2" d="M1147.2,279.4c0,0,0.1-3-3.8-6.2c0,0-0.3-0.4-0.1-0.6c0,0,0.3-0.4,0.7-0.1c0,0,4.2,3.3,4.3,7c0,0,0,0.6-0.5,0.4
	C1147.7,280,1147.3,279.9,1147.2,279.4L1147.2,279.4z"/>
<path class="st9" d="M1142.1,282.9c0,0-1.1-2-6.4-3.9c-5.3-1.9-3.8-6.5-1.6-7.4c0,0,2.3-1,4.8,2.1
	C1140.3,275.4,1142,278,1142.1,282.9L1142.1,282.9z"/>
<path class="st2" d="M1139.8,279.2c0,0-1.2-2.8-6-4c0,0-0.4-0.2-0.4-0.5c0,0,0.1-0.5,0.6-0.4c0,0,5.2,1.2,6.8,4.5
	c0,0,0.2,0.6-0.3,0.6C1140.5,279.5,1140.1,279.7,1139.8,279.2L1139.8,279.2z"/>
<path class="st9" d="M1145.4,284.9c0,0-2.5,0.7-8.1-2s-8.1,2-7.1,4.5c0,0,1,2.6,5.4,2.2C1138.1,289.3,1141.5,288.7,1145.4,284.9z"/>
<path class="st2" d="M1132.3,286.7c0,0,2.6,1.6,7.2-0.2c0,0,0.5-0.1,0.5,0.2c0,0,0.2,0.5-0.2,0.6c0,0-4.9,2-8.1,0.2
	c0,0-0.5-0.3-0.1-0.7C1131.6,286.8,1131.8,286.5,1132.3,286.7L1132.3,286.7z"/>
<path class="st14" d="M1137.2,267.1c0,0,2.8,1.4,2.2,4.7"/>
<path class="st7" d="M1149.6,267.6c0,0,1.1,3.5-0.1,5.4"/>
<path class="st9" d="M955.5,287c0,0-1.5-2-0.9-8.1c0.6-6.1-4.7-6.8-6.7-5.1c0,0-2.1,1.8-0.2,5.7C948.9,281.7,950.7,284.6,955.5,287z
	"/>
<path class="st2" d="M953.5,282.4c0,0-2-2.1-1-6.8c0,0,0-0.5-0.3-0.5c0,0-0.5-0.1-0.6,0.3c0,0-1.1,5,1.2,7.6c0,0,0.4,0.4,0.7,0
	C953.5,283.1,953.8,282.8,953.5,282.4L953.5,282.4z"/>
<path class="st9" d="M957.2,284.8c0,0,0.2-2.5,4.4-6.7s0.8-8-1.9-8c0,0-2.7,0-3.7,4.2C955.6,276.6,955.1,279.9,957.2,284.8
	L957.2,284.8z"/>
<path class="st2" d="M957.9,279.4c0,0-0.1-3,3.8-6.2c0,0,0.3-0.4,0.1-0.6c0,0-0.3-0.4-0.7-0.1c0,0-4.2,3.3-4.3,7c0,0,0,0.6,0.5,0.4
	C957.4,280,957.8,279.9,957.9,279.4L957.9,279.4z"/>
<path class="st9" d="M963,282.9c0,0,1.1-2,6.4-3.9s3.8-6.5,1.6-7.4c0,0-2.3-1-4.8,2.1C964.8,275.4,963.1,278,963,282.9L963,282.9z"
	/>
<path class="st2" d="M965.3,279.2c0,0,1.2-2.8,6-4c0,0,0.4-0.2,0.4-0.5c0,0-0.1-0.5-0.6-0.4c0,0-5.2,1.2-6.8,4.5
	c0,0-0.2,0.6,0.3,0.6C964.7,279.5,965,279.7,965.3,279.2L965.3,279.2z"/>
<path class="st9" d="M959.7,284.9c0,0,2.5,0.7,8.1-2s8.1,2,7.1,4.5c0,0-1,2.6-5.4,2.2C967,289.3,963.6,288.7,959.7,284.9z"/>
<path class="st2" d="M972.8,286.7c0,0-2.6,1.6-7.2-0.2c0,0-0.5-0.1-0.5,0.2c0,0-0.2,0.5,0.2,0.6c0,0,4.9,2,8.1,0.2
	c0,0,0.5-0.3,0.1-0.7C973.5,286.8,973.3,286.5,972.8,286.7L972.8,286.7z"/>
<path class="st14" d="M968,267.1c0,0-2.8,1.4-2.2,4.7"/>
<path class="st7" d="M955.5,267.6c0,0-1.1,3.5,0.1,5.4"/>
<path d="M1077.6,235.6c0,0,1.8,5.1,1,9.7c-0.7,4.1,0.3,5.2,1.7,6c1.3,0.7,4.3-0.5,4.6-3.8c0,0,3.5,6.9-3.3,11.5c0,0-4.9,3-9.1-1
	c-1.5-1.4-2.1-5.4-1.4-9c0,0,1.1-5-0.7-10.1c0,0,2.8,3,2.1,9c0,0-1.4,10.7,6.5,10.2c0,0,5.5-0.1,5.7-6.7c0,0-2.1,2.4-4.6,1.6
	c-1.8-0.6-3.5-2.3-3.2-5.1C1077.2,245,1078,240,1077.6,235.6L1077.6,235.6z"/>
<path d="M1068.6,253.2c0,0-0.4,8.5-8.2,10.6c0,0,1.1-1.5-0.7-5.8c0,0-1.7-2.5-1.6-6.3c0,0-2.5,1.9,0.3,7c1.7,3.1,0.2,6.8-0.3,6.9
	C1057.7,265.8,1071.1,263.9,1068.6,253.2L1068.6,253.2z"/>
<path d="M1058.6,244.8c0,0-1.9-2.1-2-7c-0.1-4.9-1-6.1-1.7-6.6c0,0,1,4.2,0.7,6.8c-0.3,2.6,0.2,4.1,0.5,5.3c0,0-4.2,0.7-6.9-5.5
	c-2.5-5.9-5.1-5.4-6.4-5.4c0,0,1.5,0.2,4.4,5.5C1050.2,243.3,1051.1,244.4,1058.6,244.8z"/>
<path d="M1038.8,232c0,0,2.4,5.8,2.5,8.9c0,0-5.7-1.9-7.2-6.8c0,0-6.1,2.1-3.8,9.1c0,0-5.2-1.8-7.6-6.1c0,0,2.9,2.2,5.6,3.2
	c0,0-0.3-5.6,6.8-7.7c0,0,1.1,5,4.6,6.2C1039.6,238.7,1039.4,235.6,1038.8,232L1038.8,232z"/>
<path d="M1048.1,222c0,0,2,2.9,6,3c1.9,0.1,4-0.4,6-3c0,0-0.3,5-6,5C1054.1,227,1048.1,227.2,1048.1,222z"/>
<path d="M1023.4,256c0,0,3,2.7,3.6,3.6c0,0,2.1,2,3.9-0.6c0,0,2.3-4.2,5.1-4.1c0,0-2,1.4-4.2,5.4c0,0-0.6,1.5-2.3,1.6
	c-0.8,0.1-1.8,0.3-3.3-1.2C1026.2,260.6,1024.9,259.1,1023.4,256z"/>
<path d="M1054.1,202.1c-6,0-0.9,4.6-0.9,4.6c0.1,7.3-5.7,9.6-9.7,7.5c-4-2.1-0.9-7.5-0.9-7.5s-4.5,3-1.6,7.3
	c2.9,4.3,10.4,2.4,13.2-1.6c2.8,4,10.3,5.9,13.2,1.6c2.9-4.3-1.6-7.3-1.6-7.3s3.1,5.3-0.9,7.5c-4,2.1-9.9-0.1-9.7-7.5
	C1055,206.7,1060,202.1,1054.1,202.1z"/>
<path d="M1057.7,194.2c0,0,2.1,3.6,1.6,9C1059.3,203.1,1061.2,197.7,1057.7,194.2z"/>
<path d="M1039.4,202.5c0,0-0.5-3.9-4.3-4.2C1035.1,198.3,1038.3,200.6,1039.4,202.5z"/>
<path d="M1068.8,202.5c0,0,0.5-3.9,4.3-4.2C1073.1,198.3,1069.8,200.6,1068.8,202.5z"/>
<path d="M1033.3,208.5c0,0,3,0.9,4.8-1.3C1038.2,207.1,1034.7,208.1,1033.3,208.5z"/>
<path d="M1023.6,184.6c0,0,3.5-0.4,7,4.8c0,0-3.5,1.8-4.3,3c0,0,0-1.7,1.7-3.2C1028,189.1,1027.3,186.5,1023.6,184.6L1023.6,184.6z"
	/>
<path d="M1082.2,184.6c0,0-3.5-0.4-7,4.8c0,0,3.5,1.8,4.3,3c0,0,0-1.7-1.7-3.2C1077.8,189.1,1078.5,186.5,1082.2,184.6L1082.2,184.6
	z"/>
<path d="M1055.2,188.5c0,0,3.1,0.9,7.1-1.3c0,0,4.8-2.6,7.9,0c0,0-2.7-1.2-7.8,1.3C1062.3,188.5,1057.2,191.3,1055.2,188.5z"/>
<path class="st2" d="M1058.5,191.6c0,0,2.7-4.7,10.9-3.8C1069.3,187.9,1067.1,194.4,1058.5,191.6z"/>
<ellipse class="st17" cx="1064.1" cy="190.2" rx="1.6" ry="2"/>
<ellipse cx="1064.1" cy="190.2" rx="1" ry="1.3"/>
<path d="M1040.9,181.6c0,0,5.2,0.3,8.3,2.3c0,0,3.3,2,7.1-0.9c0,0,4.1-2.4,6.8-5.7c0,0-6.3,4.4-8.7,5c0,0-2.2-1.6-3-4
	c0,0,0.3-1.8,3.7-5.1c0,0-4.6,1.4-5.5,5.3c0,0,0.8,2.4,2.6,4.2c0,0-0.8,0.4-3.1-1C1049.2,181.8,1044.4,180.2,1040.9,181.6
	L1040.9,181.6z"/>
<path d="M1054.1,212.7c-4.5,3.9,0,3.5,0,3.5S1058.5,216.5,1054.1,212.7z"/>
<path d="M1051.5,188.5c0,0-3.1,0.9-7.1-1.3c0,0-4.8-2.6-7.9,0c0,0,2.7-1.2,7.8,1.3C1044.3,188.5,1049.5,191.3,1051.5,188.5z"/>
<path class="st2" d="M1048.2,191.6c0,0-2.7-4.7-10.9-3.8C1037.3,187.9,1039.6,194.4,1048.2,191.6z"/>
<ellipse class="st17" cx="1042.6" cy="190.2" rx="1.6" ry="2"/>
<ellipse cx="1042.6" cy="190.2" rx="1" ry="1.3"/>
<path class="st18" d="M1212,149.3v296.4c0,79.2-158.3,104.9-158.3,104.9s-158.3-25.7-158.3-104.9V149.3H1212z"/>
</svg>
