<?xml version="1.0" encoding="utf-8"?>
<!-- Generator: Adobe Illustrator 23.1.0, SVG Export Plug-In . SVG Version: 6.00 Build 0)  -->
<svg version="1.1" id="Layer_1" xmlns="http://www.w3.org/2000/svg" xmlns:xlink="http://www.w3.org/1999/xlink" x="0px" y="0px"
	 viewBox="0 0 1050 700" style="enable-background:new 0 0 1050 700;" xml:space="preserve">
<style type="text/css">
	.st0{fill:#DC171D;}
	.st1{fill:#FFFFFF;}
	.st2{fill:#DC171F;}
	.st3{fill:#012A87;}
	.st4{fill:#F9D90F;}
	.st5{fill:#008830;}
</style>
<path class="st0" d="M0,0h1050v700H0V0z"/>
<path class="st1" d="M525,196.9L251.6,350L525,503.1L798.4,350L525,196.9z"/>
<path class="st2" d="M328.4,393v45.7H410l339.2-61.1v61.1H639.9L328.4,393z"/>
<g>
	<path class="st3" d="M219.3,336h-196V23.3H511v149.3L219.3,336z"/>
	<path class="st3" d="M830.7,336h196V23.3H539v149.3L830.7,336z"/>
	<path class="st3" d="M219.3,364h-196v312.7H511V527.3L219.3,364z"/>
	<path class="st3" d="M830.7,364h196v312.7H539V527.3L830.7,364z"/>
</g>
<path class="st4" d="M525,232.7l9.4,29l30.5,0l-24.6,17.9l9.4,29L525,290.7l-24.6,17.9l9.4-29l-24.6-17.9l30.5,0L525,232.7z"/>
<path class="st5" d="M328.4,393c3.2-10.3,10-14.9,19.4-12.8c5.8-21.9,32.4-25.7,42.9-15l26,26.1c5.6,2.6,14.2,3.6,20.2,3.6
	c7.4,0.1,6.6,3.5,12.7,3.6c16.4,0.3,59.7,0.5,67.5,0c3.2-0.2,74.8-79.2,74.8-79.2c6-7.4,21.5-9.7,30-3.8c7.9,7.5,16.3,8.3,22.1,3.3
	c5.1-7.6,16.8-8.5,24.2-4.2l81,62.8l-109.3,61.1H410L328.4,393z"/>
</svg>
