<svg id="Layer_1" data-name="Layer 1" xmlns="http://www.w3.org/2000/svg" width="370.42mm" height="246.94mm" viewBox="0 0 1050 700">
  <defs>
    <style>
      .cls-1 {
        fill: #fff;
      }

      .cls-2 {
        fill: #b00;
      }

      .cls-3 {
        fill: #060;
      }
    </style>
  </defs>
  <rect class="cls-1" width="1050" height="700"/>
  <rect width="1050" height="210"/>
  <rect class="cls-2" y="245" width="1050" height="210"/>
  <rect class="cls-3" y="490" width="1050" height="210"/>
  <g>
    <g id="spear">
      <path id="spearshape" d="M400,557.81l7.57,4.38,204.37-354c12-3.2,18.52-14.57,25.08-25.94,4.38-7.57,21.88-37.88,29.46-77.27-30.32,26.26-47.82,56.57-52.19,64.15-6.57,11.37-13.13,22.73-9.92,34.69Z" transform="translate(0 0)"/>
      <path class="cls-1" d="M400,557.81l7.57,4.38,204.37-354c12-3.2,18.52-14.57,25.08-25.94,4.38-7.57,21.88-37.88,29.46-77.27-30.32,26.26-47.82,56.57-52.19,64.15-6.57,11.37-13.13,22.73-9.92,34.69Z" transform="translate(0 0)"/>
    </g>
    <g>
      <path d="M650,557.81l-7.58,4.38-204.36-354c-12-3.2-18.52-14.57-25.08-25.94-4.38-7.57-21.88-37.88-29.46-77.27,30.32,26.26,47.82,56.57,52.19,64.15,6.56,11.37,13.13,22.73,9.92,34.69Z" transform="translate(0 0)"/>
      <path class="cls-1" d="M650,557.81l-7.58,4.38-204.36-354c-12-3.2-18.52-14.57-25.08-25.94-4.38-7.57-21.88-37.88-29.46-77.27,30.32,26.26,47.82,56.57,52.19,64.15,6.56,11.37,13.13,22.73,9.92,34.69Z" transform="translate(0 0)"/>
    </g>
    <path class="cls-2" d="M441.87,455C455,490,498.75,560,525,560s70-70,83.12-105V245C595,210,551.25,140,525,140s-70,70-83.13,105Z" transform="translate(0 0)"/>
    <path id="deco_r" data-name="deco r" d="M608.12,455C621.25,420,630,385,630,350s-8.75-70-21.88-105c-13.12,35-21.87,70-21.87,105S595,420,608.12,455Z" transform="translate(0 0)"/>
    <path d="M441.87,455C428.75,420,420,385,420,350s8.75-70,21.87-105c13.13,35,21.88,70,21.88,105S455,420,441.87,455Z" transform="translate(0 0)"/>
    <g>
      <ellipse class="cls-1" cx="525" cy="350" rx="17.5" ry="26.25"/>
      <path id="deco_br" data-name="deco br" class="cls-1" d="M529.37,375.59s17.5,35,17.5,91.88-17.5,91.87-17.5,91.87Z" transform="translate(0 0)"/>
      <path class="cls-1" d="M520.62,324.41s-17.5-35-17.5-91.88,17.5-91.87,17.5-91.87Z" transform="translate(0 0)"/>
      <path class="cls-1" d="M520.62,375.59s-17.5,35-17.5,91.88,17.5,91.87,17.5,91.87Z" transform="translate(0 0)"/>
      <path class="cls-1" d="M529.37,324.41s17.5-35,17.5-91.88-17.5-91.87-17.5-91.87Z" transform="translate(0 0)"/>
    </g>
  </g>
</svg>
